<?xml version="1.0" encoding="UTF-8" standalone="no"?>
<!DOCTYPE svg PUBLIC "-//W3C//DTD SVG 1.1//EN"
 "http://www.w3.org/Graphics/SVG/1.1/DTD/svg11.dtd">
<!-- Generated by graphviz version 2.43.0 (0)
 -->
<!-- Title: tagCLIENTCREATESTRUCT Pages: 1 -->
<svg width="174pt" height="95pt"
 viewBox="0.00 0.00 173.50 95.00" xmlns="http://www.w3.org/2000/svg" xmlns:xlink="http://www.w3.org/1999/xlink">
<g id="graph0" class="graph" transform="scale(1 1) rotate(0) translate(4 91)">
<title>tagCLIENTCREATESTRUCT</title>
<!-- Node1 -->
<g id="node1" class="node">
<title>Node1</title>
<g id="a_node1"><a xlink:title=" ">
<polygon fill="#bfbfbf" stroke="black" points="1,-0.5 1,-19.5 144,-19.5 144,-0.5 1,-0.5"/>
<text text-anchor="middle" x="72.5" y="-7.5" font-family="Helvetica,sans-Serif" font-size="10.00">tagCLIENTCREATESTRUCT</text>
</a>
</g>
</g>
<!-- Node2 -->
<g id="node2" class="node">
<title>Node2</title>
<g id="a_node2"><a xlink:title=" ">
<polygon fill="none" stroke="#bfbfbf" points="0,-67.5 0,-86.5 47,-86.5 47,-67.5 0,-67.5"/>
<text text-anchor="middle" x="23.5" y="-74.5" font-family="Helvetica,sans-Serif" font-size="10.00">PVOID</text>
</a>
</g>
</g>
<!-- Node2&#45;&gt;Node1 -->
<g id="edge1" class="edge">
<title>Node2&#45;&gt;Node1</title>
<path fill="none" stroke="#9a32cd" stroke-dasharray="5,2" d="M20.37,-57.4C20.17,-50.86 21.05,-43.72 24.5,-38 29.48,-29.73 38.01,-23.78 46.5,-19.61"/>
<polygon fill="#9a32cd" stroke="#9a32cd" points="16.91,-57.92 21.46,-67.48 23.87,-57.17 16.91,-57.92"/>
<text text-anchor="middle" x="62.5" y="-41" font-family="Helvetica,sans-Serif" font-size="10.00"> hWindowMenu</text>
</g>
<!-- Node3 -->
<g id="node3" class="node">
<title>Node3</title>
<g id="a_node3"><a xlink:title=" ">
<polygon fill="none" stroke="#bfbfbf" points="108,-67.5 108,-86.5 137,-86.5 137,-67.5 108,-67.5"/>
<text text-anchor="middle" x="122.5" y="-74.5" font-family="Helvetica,sans-Serif" font-size="10.00">int</text>
</a>
</g>
</g>
<!-- Node3&#45;&gt;Node1 -->
<g id="edge2" class="edge">
<title>Node3&#45;&gt;Node1</title>
<path fill="none" stroke="#9a32cd" stroke-dasharray="5,2" d="M113.7,-58.48C110.01,-51.8 105.43,-44.29 100.5,-38 95.26,-31.3 88.39,-24.65 82.77,-19.63"/>
<polygon fill="#9a32cd" stroke="#9a32cd" points="110.65,-60.2 118.41,-67.42 116.84,-56.94 110.65,-60.2"/>
<text text-anchor="middle" x="136.5" y="-41" font-family="Helvetica,sans-Serif" font-size="10.00"> idFirstChild</text>
</g>
</g>
</svg>
