<?xml version="1.0" encoding="UTF-8" standalone="no"?>
<!DOCTYPE svg PUBLIC "-//W3C//DTD SVG 1.1//EN"
 "http://www.w3.org/Graphics/SVG/1.1/DTD/svg11.dtd">
<!-- Generated by graphviz version 2.43.0 (0)
 -->
<!-- Title: _DNS_HEADER Pages: 1 -->
<svg width="234pt" height="172pt"
 viewBox="0.00 0.00 234.00 172.00" xmlns="http://www.w3.org/2000/svg" xmlns:xlink="http://www.w3.org/1999/xlink">
<g id="graph0" class="graph" transform="scale(1 1) rotate(0) translate(4 168)">
<title>_DNS_HEADER</title>
<!-- Node1 -->
<g id="node1" class="node">
<title>Node1</title>
<g id="a_node1"><a xlink:title=" ">
<polygon fill="#bfbfbf" stroke="black" points="32.5,-0.5 32.5,-19.5 121.5,-19.5 121.5,-0.5 32.5,-0.5"/>
<text text-anchor="middle" x="77" y="-7.5" font-family="Helvetica,sans-Serif" font-size="10.00">_DNS_HEADER</text>
</a>
</g>
</g>
<!-- Node2 -->
<g id="node2" class="node">
<title>Node2</title>
<g id="a_node2"><a xlink:title=" ">
<polygon fill="none" stroke="#bfbfbf" points="0,-144.5 0,-163.5 38,-163.5 38,-144.5 0,-144.5"/>
<text text-anchor="middle" x="19" y="-151.5" font-family="Helvetica,sans-Serif" font-size="10.00">char</text>
</a>
</g>
</g>
<!-- Node2&#45;&gt;Node1 -->
<g id="edge1" class="edge">
<title>Node2&#45;&gt;Node1</title>
<path fill="none" stroke="#9a32cd" stroke-dasharray="5,2" d="M13.6,-134.66C7.64,-110.46 1.17,-67.47 20,-38 25.42,-29.51 34.31,-23.64 43.47,-19.59"/>
<polygon fill="#9a32cd" stroke="#9a32cd" points="10.23,-135.6 16.22,-144.34 16.99,-133.78 10.23,-135.6"/>
<text text-anchor="middle" x="67" y="-118" font-family="Helvetica,sans-Serif" font-size="10.00"> IsResponse</text>
<text text-anchor="middle" x="67" y="-107" font-family="Helvetica,sans-Serif" font-size="10.00">Truncation</text>
<text text-anchor="middle" x="67" y="-96" font-family="Helvetica,sans-Serif" font-size="10.00">RecursionDesired</text>
<text text-anchor="middle" x="67" y="-85" font-family="Helvetica,sans-Serif" font-size="10.00">Authoritative</text>
<text text-anchor="middle" x="67" y="-74" font-family="Helvetica,sans-Serif" font-size="10.00">RecursionAvailable</text>
<text text-anchor="middle" x="67" y="-63" font-family="Helvetica,sans-Serif" font-size="10.00">ResponseCode</text>
<text text-anchor="middle" x="67" y="-52" font-family="Helvetica,sans-Serif" font-size="10.00">Opcode</text>
<text text-anchor="middle" x="67" y="-41" font-family="Helvetica,sans-Serif" font-size="10.00">Reserved</text>
</g>
<!-- Node3 -->
<g id="node3" class="node">
<title>Node3</title>
<g id="a_node3"><a xlink:title=" ">
<polygon fill="none" stroke="#bfbfbf" points="115.5,-144.5 115.5,-163.5 156.5,-163.5 156.5,-144.5 115.5,-144.5"/>
<text text-anchor="middle" x="136" y="-151.5" font-family="Helvetica,sans-Serif" font-size="10.00">short</text>
</a>
</g>
</g>
<!-- Node3&#45;&gt;Node1 -->
<g id="edge2" class="edge">
<title>Node3&#45;&gt;Node1</title>
<path fill="none" stroke="#9a32cd" stroke-dasharray="5,2" d="M136.5,-134.19C136.27,-110.07 132.88,-67.81 114,-38 109.15,-30.34 101.28,-24.15 94.04,-19.64"/>
<polygon fill="#9a32cd" stroke="#9a32cd" points="133,-134.41 136.41,-144.44 140,-134.47 133,-134.41"/>
<text text-anchor="middle" x="181" y="-101.5" font-family="Helvetica,sans-Serif" font-size="10.00"> AnswerCount</text>
<text text-anchor="middle" x="181" y="-90.5" font-family="Helvetica,sans-Serif" font-size="10.00">QuestionCount</text>
<text text-anchor="middle" x="181" y="-79.5" font-family="Helvetica,sans-Serif" font-size="10.00">AdditionalCount</text>
<text text-anchor="middle" x="181" y="-68.5" font-family="Helvetica,sans-Serif" font-size="10.00">Xid</text>
<text text-anchor="middle" x="181" y="-57.5" font-family="Helvetica,sans-Serif" font-size="10.00">NameServerCount</text>
</g>
</g>
</svg>
