<?xml version="1.0" encoding="UTF-8" standalone="no"?>
<!DOCTYPE svg PUBLIC "-//W3C//DTD SVG 1.1//EN"
 "http://www.w3.org/Graphics/SVG/1.1/DTD/svg11.dtd">
<!-- Generated by graphviz version 2.43.0 (0)
 -->
<!-- Title: Tools/MinGW/include/c++/4.6.1/i686&#45;pc&#45;mingw32/bits/c++io.h Pages: 1 -->
<svg width="319pt" height="206pt"
 viewBox="0.00 0.00 319.00 206.00" xmlns="http://www.w3.org/2000/svg" xmlns:xlink="http://www.w3.org/1999/xlink">
<g id="graph0" class="graph" transform="scale(1 1) rotate(0) translate(4 202)">
<title>Tools/MinGW/include/c++/4.6.1/i686&#45;pc&#45;mingw32/bits/c++io.h</title>
<!-- Node1 -->
<g id="node1" class="node">
<title>Node1</title>
<g id="a_node1"><a xlink:title=" ">
<polygon fill="#bfbfbf" stroke="black" points="77,-156.5 77,-197.5 233,-197.5 233,-156.5 77,-156.5"/>
<text text-anchor="start" x="85" y="-185.5" font-family="Helvetica,sans-Serif" font-size="10.00">Tools/MinGW/include</text>
<text text-anchor="start" x="85" y="-174.5" font-family="Helvetica,sans-Serif" font-size="10.00">/c++/4.6.1/i686&#45;pc&#45;mingw32</text>
<text text-anchor="middle" x="155" y="-163.5" font-family="Helvetica,sans-Serif" font-size="10.00">/bits/c++io.h</text>
</a>
</g>
</g>
<!-- Node2 -->
<g id="node2" class="node">
<title>Node2</title>
<g id="a_node2"><a xlink:href="../../da/d17/stdio__sync__filebuf_8h.html" target="_top" xlink:title=" ">
<polygon fill="none" stroke="black" points="19,-78.5 19,-119.5 137,-119.5 137,-78.5 19,-78.5"/>
<text text-anchor="start" x="27" y="-107.5" font-family="Helvetica,sans-Serif" font-size="10.00">Tools/MinGW/include</text>
<text text-anchor="start" x="27" y="-96.5" font-family="Helvetica,sans-Serif" font-size="10.00">/c++/4.6.1/ext/stdio</text>
<text text-anchor="middle" x="78" y="-85.5" font-family="Helvetica,sans-Serif" font-size="10.00">_sync_filebuf.h</text>
</a>
</g>
</g>
<!-- Node1&#45;&gt;Node2 -->
<g id="edge1" class="edge">
<title>Node1&#45;&gt;Node2</title>
<path fill="none" stroke="midnightblue" d="M127.85,-149.2C117.93,-139.42 106.91,-128.54 97.76,-119.51"/>
<polygon fill="midnightblue" stroke="midnightblue" points="125.59,-151.89 135.17,-156.43 130.51,-146.91 125.59,-151.89"/>
</g>
<!-- Node4 -->
<g id="node4" class="node">
<title>Node4</title>
<g id="a_node4"><a xlink:href="../../d0/d55/basic__file_8h.html" target="_top" xlink:title=" ">
<polygon fill="none" stroke="black" points="155,-78.5 155,-119.5 311,-119.5 311,-78.5 155,-78.5"/>
<text text-anchor="start" x="163" y="-107.5" font-family="Helvetica,sans-Serif" font-size="10.00">Tools/MinGW/include</text>
<text text-anchor="start" x="163" y="-96.5" font-family="Helvetica,sans-Serif" font-size="10.00">/c++/4.6.1/i686&#45;pc&#45;mingw32</text>
<text text-anchor="middle" x="233" y="-85.5" font-family="Helvetica,sans-Serif" font-size="10.00">/bits/basic_file.h</text>
</a>
</g>
</g>
<!-- Node1&#45;&gt;Node4 -->
<g id="edge3" class="edge">
<title>Node1&#45;&gt;Node4</title>
<path fill="none" stroke="midnightblue" d="M182.5,-149.2C192.55,-139.42 203.71,-128.54 212.98,-119.51"/>
<polygon fill="midnightblue" stroke="midnightblue" points="179.81,-146.94 175.09,-156.43 184.69,-151.96 179.81,-146.94"/>
</g>
<!-- Node3 -->
<g id="node3" class="node">
<title>Node3</title>
<g id="a_node3"><a xlink:href="../../db/dad/extc_09_09_8h.html" target="_top" xlink:title=" ">
<polygon fill="none" stroke="black" points="0,-0.5 0,-41.5 156,-41.5 156,-0.5 0,-0.5"/>
<text text-anchor="start" x="8" y="-29.5" font-family="Helvetica,sans-Serif" font-size="10.00">Tools/MinGW/include</text>
<text text-anchor="start" x="8" y="-18.5" font-family="Helvetica,sans-Serif" font-size="10.00">/c++/4.6.1/i686&#45;pc&#45;mingw32</text>
<text text-anchor="middle" x="78" y="-7.5" font-family="Helvetica,sans-Serif" font-size="10.00">/bits/extc++.h</text>
</a>
</g>
</g>
<!-- Node2&#45;&gt;Node3 -->
<g id="edge2" class="edge">
<title>Node2&#45;&gt;Node3</title>
<path fill="none" stroke="midnightblue" d="M78,-68.3C78,-59.3 78,-49.65 78,-41.51"/>
<polygon fill="midnightblue" stroke="midnightblue" points="74.5,-68.43 78,-78.43 81.5,-68.43 74.5,-68.43"/>
</g>
</g>
</svg>
