<?xml version="1.0" encoding="UTF-8" standalone="no"?>
<!DOCTYPE svg PUBLIC "-//W3C//DTD SVG 1.1//EN"
 "http://www.w3.org/Graphics/SVG/1.1/DTD/svg11.dtd">
<!-- Generated by graphviz version 2.43.0 (0)
 -->
<!-- Title: CS_Des_s Pages: 1 -->
<svg width="239pt" height="139pt"
 viewBox="0.00 0.00 239.00 139.00" xmlns="http://www.w3.org/2000/svg" xmlns:xlink="http://www.w3.org/1999/xlink">
<g id="graph0" class="graph" transform="scale(1 1) rotate(0) translate(4 135)">
<title>CS_Des_s</title>
<!-- Node1 -->
<g id="node1" class="node">
<title>Node1</title>
<g id="a_node1"><a xlink:title=" ">
<polygon fill="#bfbfbf" stroke="black" points="39,-0.5 39,-19.5 103,-19.5 103,-0.5 39,-0.5"/>
<text text-anchor="middle" x="71" y="-7.5" font-family="Helvetica,sans-Serif" font-size="10.00">CS_Des_s</text>
</a>
</g>
</g>
<!-- Node2 -->
<g id="node2" class="node">
<title>Node2</title>
<g id="a_node2"><a xlink:title=" ">
<polygon fill="none" stroke="#bfbfbf" points="0,-111.5 0,-130.5 42,-130.5 42,-111.5 0,-111.5"/>
<text text-anchor="middle" x="21" y="-118.5" font-family="Helvetica,sans-Serif" font-size="10.00">GUID</text>
</a>
</g>
</g>
<!-- Node2&#45;&gt;Node1 -->
<g id="edge1" class="edge">
<title>Node2&#45;&gt;Node1</title>
<path fill="none" stroke="#9a32cd" stroke-dasharray="5,2" d="M16.21,-101.44C12.75,-83.82 10.48,-57.23 22,-38 26.99,-29.67 35.56,-23.72 44.15,-19.58"/>
<polygon fill="#9a32cd" stroke="#9a32cd" points="12.83,-102.36 18.46,-111.34 19.65,-100.81 12.83,-102.36"/>
<text text-anchor="middle" x="61" y="-63" font-family="Helvetica,sans-Serif" font-size="10.00"> CSD_ClassGuid</text>
</g>
<!-- Node3 -->
<g id="node3" class="node">
<title>Node3</title>
<g id="a_node3"><a xlink:title=" ">
<polygon fill="none" stroke="#bfbfbf" points="91.5,-111.5 91.5,-130.5 152.5,-130.5 152.5,-111.5 91.5,-111.5"/>
<text text-anchor="middle" x="122" y="-118.5" font-family="Helvetica,sans-Serif" font-size="10.00">unsigned</text>
</a>
</g>
</g>
<!-- Node3&#45;&gt;Node1 -->
<g id="edge2" class="edge">
<title>Node3&#45;&gt;Node1</title>
<path fill="none" stroke="#9a32cd" stroke-dasharray="5,2" d="M120.01,-101.48C117.48,-84.07 111.91,-57.79 100,-38 95.67,-30.81 88.88,-24.34 82.96,-19.54"/>
<polygon fill="#9a32cd" stroke="#9a32cd" points="116.55,-102.01 121.27,-111.49 123.49,-101.13 116.55,-102.01"/>
<text text-anchor="middle" x="174.5" y="-85" font-family="Helvetica,sans-Serif" font-size="10.00"> CSD_SignatureLength</text>
<text text-anchor="middle" x="174.5" y="-74" font-family="Helvetica,sans-Serif" font-size="10.00">CSD_Flags</text>
<text text-anchor="middle" x="174.5" y="-63" font-family="Helvetica,sans-Serif" font-size="10.00">CSD_LegacyDataSize</text>
<text text-anchor="middle" x="174.5" y="-52" font-family="Helvetica,sans-Serif" font-size="10.00">CSD_Signature</text>
<text text-anchor="middle" x="174.5" y="-41" font-family="Helvetica,sans-Serif" font-size="10.00">CSD_LegacyDataOffset</text>
</g>
</g>
</svg>
