<?xml version="1.0" encoding="UTF-8" standalone="no"?>
<!DOCTYPE svg PUBLIC "-//W3C//DTD SVG 1.1//EN"
 "http://www.w3.org/Graphics/SVG/1.1/DTD/svg11.dtd">
<!-- Generated by graphviz version 2.43.0 (0)
 -->
<!-- Title: Tools/MinGW/include/ddk/usbdi.h Pages: 1 -->
<!--zoomable 431 -->
<svg id="main" version="1.1" xmlns="http://www.w3.org/2000/svg" xmlns:xlink="http://www.w3.org/1999/xlink" xml:space="preserve" onload="init(evt)">
<style type="text/css"><![CDATA[
.edge:hover path { stroke: red; }
.edge:hover polygon { stroke: red; fill: red; }
]]></style>
<script type="text/javascript"><![CDATA[
var edges = document.getElementsByTagName('g');
if (edges && edges.length) {
  for (var i=0;i<edges.length;i++) {
    if (edges[i].id.substr(0,4)=='edge') {
      edges[i].setAttribute('class','edge');
    }
  }
}
]]></script>
        <defs>
                <circle id="rim" cx="0" cy="0" r="7"/>
                <circle id="rim2" cx="0" cy="0" r="3.5"/>
                <g id="zoomPlus">
                        <use xlink:href="#rim" fill="#404040">
                                <set attributeName="fill" to="#808080" begin="zoomplus.mouseover" end="zoomplus.mouseout"/>
                        </use>
                        <path d="M-4,0h8M0,-4v8" fill="none" stroke="white" stroke-width="1.5" pointer-events="none"/>
                </g>
                <g id="zoomMin">
                        <use xlink:href="#rim" fill="#404040">
                                <set attributeName="fill" to="#808080" begin="zoomminus.mouseover" end="zoomminus.mouseout"/>
                        </use>
                        <path d="M-4,0h8" fill="none" stroke="white" stroke-width="1.5" pointer-events="none"/>
                </g>
                <g id="dirArrow">
                        <path fill="none" stroke="white" stroke-width="1.5" d="M0,-3.0v7 M-2.5,-0.5L0,-3.0L2.5,-0.5"/>
                </g>
               <g id="resetDef">
                       <use xlink:href="#rim2" fill="#404040">
                               <set attributeName="fill" to="#808080" begin="reset.mouseover" end="reset.mouseout"/>
                       </use>
               </g>
        </defs>

<script type="text/javascript">
var viewWidth = 843;
var viewHeight = 431;
var sectionId = 'dynsection-0';
</script>
<script xlink:href="../../svgpan.js"/>
<svg id="graph" class="graph">
<g id="viewport">
<title>Tools/MinGW/include/ddk/usbdi.h</title>
<!-- Node1 -->
<g id="node1" class="node">
<title>Node1</title>
<g id="a_node1"><a xlink:title=" ">
<polygon fill="#bfbfbf" stroke="black" points="499.07,-392.5 499.07,-422.5 617.07,-422.5 617.07,-392.5 499.07,-392.5"/>
<text text-anchor="start" x="507.07" y="-410.5" font-family="Helvetica,sans-Serif" font-size="10.00">Tools/MinGW/include</text>
<text text-anchor="middle" x="558.07" y="-399.5" font-family="Helvetica,sans-Serif" font-size="10.00">/ddk/usbdi.h</text>
</a>
</g>
</g>
<!-- Node2 -->
<g id="node2" class="node">
<title>Node2</title>
<g id="a_node2"><a xlink:href="../../d2/d49/ntddk_8h.html" target="_top" xlink:title=" ">
<polygon fill="none" stroke="black" points="479.57,-224.5 479.57,-243.5 532.57,-243.5 532.57,-224.5 479.57,-224.5"/>
<text text-anchor="middle" x="506.07" y="-231.5" font-family="Helvetica,sans-Serif" font-size="10.00">ntddk.h</text>
</a>
</g>
</g>
<!-- Node1&#45;&gt;Node2 -->
<g id="edge1" class="edge">
<title>Node1&#45;&gt;Node2</title>
<path fill="none" stroke="midnightblue" d="M553.82,-392.47C544.45,-361.57 522.05,-287.69 511.6,-253.25"/>
<polygon fill="midnightblue" stroke="midnightblue" points="514.92,-252.11 508.67,-243.56 508.22,-254.15 514.92,-252.11"/>
</g>
<!-- Node21 -->
<g id="node21" class="node">
<title>Node21</title>
<g id="a_node21"><a xlink:href="../../db/d21/usbioctl_8h.html" target="_top" xlink:title=" ">
<polygon fill="none" stroke="black" points="641.07,-336.5 641.07,-355.5 705.07,-355.5 705.07,-336.5 641.07,-336.5"/>
<text text-anchor="middle" x="673.07" y="-343.5" font-family="Helvetica,sans-Serif" font-size="10.00">usbioctl.h</text>
</a>
</g>
</g>
<!-- Node1&#45;&gt;Node21 -->
<g id="edge24" class="edge">
<title>Node1&#45;&gt;Node21</title>
<path fill="none" stroke="midnightblue" d="M585.32,-392.4C604.1,-382.68 628.9,-369.86 647.34,-360.31"/>
<polygon fill="midnightblue" stroke="midnightblue" points="649.06,-363.36 656.34,-355.66 645.85,-357.14 649.06,-363.36"/>
</g>
<!-- Node3 -->
<g id="node3" class="node">
<title>Node3</title>
<g id="a_node3"><a xlink:title=" ">
<polygon fill="none" stroke="#bfbfbf" points="92.07,-168.5 92.07,-187.5 148.07,-187.5 148.07,-168.5 92.07,-168.5"/>
<text text-anchor="middle" x="120.07" y="-175.5" font-family="Helvetica,sans-Serif" font-size="10.00">stdarg.h</text>
</a>
</g>
</g>
<!-- Node2&#45;&gt;Node3 -->
<g id="edge2" class="edge">
<title>Node2&#45;&gt;Node3</title>
<path fill="none" stroke="midnightblue" d="M479.21,-230.56C422.01,-225.14 283.85,-210.9 158.44,-188.08"/>
<polygon fill="midnightblue" stroke="midnightblue" points="158.75,-184.57 148.28,-186.2 157.48,-191.46 158.75,-184.57"/>
</g>
<!-- Node4 -->
<g id="node4" class="node">
<title>Node4</title>
<g id="a_node4"><a xlink:href="../../db/d06/windef_8h.html" target="_top" xlink:title=" ">
<polygon fill="none" stroke="black" points="16.07,-168.5 16.07,-187.5 74.07,-187.5 74.07,-168.5 16.07,-168.5"/>
<text text-anchor="middle" x="45.07" y="-175.5" font-family="Helvetica,sans-Serif" font-size="10.00">windef.h</text>
</a>
</g>
</g>
<!-- Node2&#45;&gt;Node4 -->
<g id="edge3" class="edge">
<title>Node2&#45;&gt;Node4</title>
<path fill="none" stroke="midnightblue" d="M479.18,-231.33C413.45,-226.98 239.28,-213.96 84.61,-188.07"/>
<polygon fill="midnightblue" stroke="midnightblue" points="84.9,-184.57 74.45,-186.35 83.73,-191.47 84.9,-184.57"/>
</g>
<!-- Node5 -->
<g id="node5" class="node">
<title>Node5</title>
<g id="a_node5"><a xlink:href="../../d9/dfa/winnt_8h.html" target="_top" xlink:title=" ">
<polygon fill="none" stroke="black" points="100.57,-112.5 100.57,-131.5 153.57,-131.5 153.57,-112.5 100.57,-112.5"/>
<text text-anchor="middle" x="127.07" y="-119.5" font-family="Helvetica,sans-Serif" font-size="10.00">winnt.h</text>
</a>
</g>
</g>
<!-- Node2&#45;&gt;Node5 -->
<g id="edge15" class="edge">
<title>Node2&#45;&gt;Node5</title>
<path fill="none" stroke="midnightblue" d="M479.49,-232.65C380.76,-231.08 39.16,-223.11 7.07,-188 -20.96,-157.33 45.71,-138.18 90.49,-129.16"/>
<polygon fill="midnightblue" stroke="midnightblue" points="91.35,-132.56 100.51,-127.23 90.03,-125.68 91.35,-132.56"/>
</g>
<!-- Node13 -->
<g id="node13" class="node">
<title>Node13</title>
<g id="a_node13"><a xlink:href="../../d0/d54/ntdef_8h.html" target="_top" xlink:title=" ">
<polygon fill="none" stroke="black" points="166.07,-168.5 166.07,-187.5 216.07,-187.5 216.07,-168.5 166.07,-168.5"/>
<text text-anchor="middle" x="191.07" y="-175.5" font-family="Helvetica,sans-Serif" font-size="10.00">ntdef.h</text>
</a>
</g>
</g>
<!-- Node2&#45;&gt;Node13 -->
<g id="edge12" class="edge">
<title>Node2&#45;&gt;Node13</title>
<path fill="none" stroke="midnightblue" d="M479.56,-229.66C431.15,-223.35 325,-208.65 226.11,-188.04"/>
<polygon fill="midnightblue" stroke="midnightblue" points="226.76,-184.61 216.25,-185.97 225.32,-191.45 226.76,-184.61"/>
</g>
<!-- Node14 -->
<g id="node14" class="node">
<title>Node14</title>
<g id="a_node14"><a xlink:href="../../d3/d89/basetyps_8h.html" target="_top" xlink:title=" ">
<polygon fill="none" stroke="black" points="234.07,-168.5 234.07,-187.5 304.07,-187.5 304.07,-168.5 234.07,-168.5"/>
<text text-anchor="middle" x="269.07" y="-175.5" font-family="Helvetica,sans-Serif" font-size="10.00">basetyps.h</text>
</a>
</g>
</g>
<!-- Node2&#45;&gt;Node14 -->
<g id="edge13" class="edge">
<title>Node2&#45;&gt;Node14</title>
<path fill="none" stroke="midnightblue" d="M479.34,-226.91C439.22,-217.77 362.94,-200.39 314.12,-189.26"/>
<polygon fill="midnightblue" stroke="midnightblue" points="314.67,-185.8 304.14,-186.99 313.11,-192.62 314.67,-185.8"/>
</g>
<!-- Node15 -->
<g id="node15" class="node">
<title>Node15</title>
<g id="a_node15"><a xlink:href="../../d3/d93/ntstatus_8h.html" target="_top" xlink:title=" ">
<polygon fill="none" stroke="black" points="322.57,-168.5 322.57,-187.5 387.57,-187.5 387.57,-168.5 322.57,-168.5"/>
<text text-anchor="middle" x="355.07" y="-175.5" font-family="Helvetica,sans-Serif" font-size="10.00">ntstatus.h</text>
</a>
</g>
</g>
<!-- Node2&#45;&gt;Node15 -->
<g id="edge14" class="edge">
<title>Node2&#45;&gt;Node15</title>
<path fill="none" stroke="midnightblue" d="M482.14,-224.44C456.85,-215.4 416.77,-201.06 388.39,-190.92"/>
<polygon fill="midnightblue" stroke="midnightblue" points="389.48,-187.59 378.89,-187.52 387.12,-194.18 389.48,-187.59"/>
</g>
<!-- Node16 -->
<g id="node16" class="node">
<title>Node16</title>
<g id="a_node16"><a xlink:href="../../d6/d93/winddk_8h.html" target="_top" xlink:title=" ">
<polygon fill="none" stroke="black" points="628.57,-168.5 628.57,-187.5 689.57,-187.5 689.57,-168.5 628.57,-168.5"/>
<text text-anchor="middle" x="659.07" y="-175.5" font-family="Helvetica,sans-Serif" font-size="10.00">winddk.h</text>
</a>
</g>
</g>
<!-- Node2&#45;&gt;Node16 -->
<g id="edge16" class="edge">
<title>Node2&#45;&gt;Node16</title>
<path fill="none" stroke="midnightblue" d="M530.31,-224.44C555.94,-215.4 596.56,-201.06 625.31,-190.92"/>
<polygon fill="midnightblue" stroke="midnightblue" points="626.68,-194.15 634.94,-187.52 624.35,-187.54 626.68,-194.15"/>
</g>
<!-- Node18 -->
<g id="node18" class="node">
<title>Node18</title>
<g id="a_node18"><a xlink:href="../../d5/d53/winxp_8h.html" target="_top" xlink:title=" ">
<polygon fill="none" stroke="black" points="405.57,-168.5 405.57,-187.5 460.57,-187.5 460.57,-168.5 405.57,-168.5"/>
<text text-anchor="middle" x="433.07" y="-175.5" font-family="Helvetica,sans-Serif" font-size="10.00">winxp.h</text>
</a>
</g>
</g>
<!-- Node2&#45;&gt;Node18 -->
<g id="edge20" class="edge">
<title>Node2&#45;&gt;Node18</title>
<path fill="none" stroke="midnightblue" d="M494.34,-224.32C483.23,-216.11 466.33,-203.6 453.09,-193.81"/>
<polygon fill="midnightblue" stroke="midnightblue" points="455.13,-190.97 445.01,-187.83 450.97,-196.59 455.13,-190.97"/>
</g>
<!-- Node19 -->
<g id="node19" class="node">
<title>Node19</title>
<g id="a_node19"><a xlink:href="../../d2/db1/win2k_8h.html" target="_top" xlink:title=" ">
<polygon fill="none" stroke="black" points="478.57,-168.5 478.57,-187.5 533.57,-187.5 533.57,-168.5 478.57,-168.5"/>
<text text-anchor="middle" x="506.07" y="-175.5" font-family="Helvetica,sans-Serif" font-size="10.00">win2k.h</text>
</a>
</g>
</g>
<!-- Node2&#45;&gt;Node19 -->
<g id="edge21" class="edge">
<title>Node2&#45;&gt;Node19</title>
<path fill="none" stroke="midnightblue" d="M500.9,-224.08C499.4,-216.93 498.96,-206.64 499.61,-197.69"/>
<polygon fill="midnightblue" stroke="midnightblue" points="503.09,-198.13 500.94,-187.75 496.15,-197.2 503.09,-198.13"/>
</g>
<!-- Node20 -->
<g id="node20" class="node">
<title>Node20</title>
<g id="a_node20"><a xlink:href="../../d8/dbb/winnt4_8h.html" target="_top" xlink:title=" ">
<polygon fill="none" stroke="black" points="551.57,-168.5 551.57,-187.5 610.57,-187.5 610.57,-168.5 551.57,-168.5"/>
<text text-anchor="middle" x="581.07" y="-175.5" font-family="Helvetica,sans-Serif" font-size="10.00">winnt4.h</text>
</a>
</g>
</g>
<!-- Node2&#45;&gt;Node20 -->
<g id="edge23" class="edge">
<title>Node2&#45;&gt;Node20</title>
<path fill="none" stroke="midnightblue" d="M518.12,-224.32C529.53,-216.11 546.9,-203.6 560.51,-193.81"/>
<polygon fill="midnightblue" stroke="midnightblue" points="562.73,-196.52 568.8,-187.83 558.64,-190.84 562.73,-196.52"/>
</g>
<!-- Node4&#45;&gt;Node5 -->
<g id="edge4" class="edge">
<title>Node4&#45;&gt;Node5</title>
<path fill="none" stroke="midnightblue" d="M58.25,-168.32C70.92,-159.98 90.3,-147.21 105.28,-137.35"/>
<polygon fill="midnightblue" stroke="midnightblue" points="107.5,-140.08 113.93,-131.65 103.65,-134.23 107.5,-140.08"/>
</g>
<!-- Node6 -->
<g id="node6" class="node">
<title>Node6</title>
<g id="a_node6"><a xlink:href="../../d4/ded/winerror_8h.html" target="_top" xlink:title=" ">
<polygon fill="none" stroke="black" points="17.57,-56.5 17.57,-75.5 82.57,-75.5 82.57,-56.5 17.57,-56.5"/>
<text text-anchor="middle" x="50.07" y="-63.5" font-family="Helvetica,sans-Serif" font-size="10.00">winerror.h</text>
</a>
</g>
</g>
<!-- Node5&#45;&gt;Node6 -->
<g id="edge5" class="edge">
<title>Node5&#45;&gt;Node6</title>
<path fill="none" stroke="midnightblue" d="M114.7,-112.32C102.91,-104.06 84.94,-91.45 70.94,-81.63"/>
<polygon fill="midnightblue" stroke="midnightblue" points="72.61,-78.53 62.41,-75.65 68.59,-84.26 72.61,-78.53"/>
</g>
<!-- Node7 -->
<g id="node7" class="node">
<title>Node7</title>
<g id="a_node7"><a xlink:href="../../d7/de6/include_2string_8h.html" target="_top" xlink:title=" ">
<polygon fill="none" stroke="black" points="100.57,-56.5 100.57,-75.5 153.57,-75.5 153.57,-56.5 100.57,-56.5"/>
<text text-anchor="middle" x="127.07" y="-63.5" font-family="Helvetica,sans-Serif" font-size="10.00">string.h</text>
</a>
</g>
</g>
<!-- Node5&#45;&gt;Node7 -->
<g id="edge6" class="edge">
<title>Node5&#45;&gt;Node7</title>
<path fill="none" stroke="midnightblue" d="M127.07,-112.08C127.07,-105.01 127.07,-94.86 127.07,-85.99"/>
<polygon fill="midnightblue" stroke="midnightblue" points="130.57,-85.75 127.07,-75.75 123.57,-85.75 130.57,-85.75"/>
</g>
<!-- Node10 -->
<g id="node10" class="node">
<title>Node10</title>
<g id="a_node10"><a xlink:href="../../db/de8/basetsd_8h.html" target="_top" xlink:title=" ">
<polygon fill="none" stroke="black" points="172.07,-56.5 172.07,-75.5 236.07,-75.5 236.07,-56.5 172.07,-56.5"/>
<text text-anchor="middle" x="204.07" y="-63.5" font-family="Helvetica,sans-Serif" font-size="10.00">basetsd.h</text>
</a>
</g>
</g>
<!-- Node5&#45;&gt;Node10 -->
<g id="edge9" class="edge">
<title>Node5&#45;&gt;Node10</title>
<path fill="none" stroke="midnightblue" d="M139.44,-112.32C151.23,-104.06 169.2,-91.45 183.21,-81.63"/>
<polygon fill="midnightblue" stroke="midnightblue" points="185.55,-84.26 191.73,-75.65 181.53,-78.53 185.55,-84.26"/>
</g>
<!-- Node11 -->
<g id="node11" class="node">
<title>Node11</title>
<g id="a_node11"><a xlink:href="../../dd/d76/pshpack4_8h.html" target="_top" xlink:title=" ">
<polygon fill="none" stroke="black" points="459.07,-56.5 459.07,-75.5 531.07,-75.5 531.07,-56.5 459.07,-56.5"/>
<text text-anchor="middle" x="495.07" y="-63.5" font-family="Helvetica,sans-Serif" font-size="10.00">pshpack4.h</text>
</a>
</g>
</g>
<!-- Node5&#45;&gt;Node11 -->
<g id="edge10" class="edge">
<title>Node5&#45;&gt;Node11</title>
<path fill="none" stroke="midnightblue" d="M153.83,-117.07C216.04,-107.94 371,-85.21 448.87,-73.78"/>
<polygon fill="midnightblue" stroke="midnightblue" points="449.49,-77.23 458.87,-72.31 448.47,-70.3 449.49,-77.23"/>
</g>
<!-- Node12 -->
<g id="node12" class="node">
<title>Node12</title>
<g id="a_node12"><a xlink:href="../../d3/df1/poppack_8h.html" target="_top" xlink:title=" ">
<polygon fill="none" stroke="black" points="651.57,-56.5 651.57,-75.5 718.57,-75.5 718.57,-56.5 651.57,-56.5"/>
<text text-anchor="middle" x="685.07" y="-63.5" font-family="Helvetica,sans-Serif" font-size="10.00">poppack.h</text>
</a>
</g>
</g>
<!-- Node5&#45;&gt;Node12 -->
<g id="edge11" class="edge">
<title>Node5&#45;&gt;Node12</title>
<path fill="none" stroke="midnightblue" d="M153.61,-118.43C242.57,-109.82 530.84,-81.93 641.38,-71.23"/>
<polygon fill="midnightblue" stroke="midnightblue" points="641.89,-74.7 651.51,-70.25 641.22,-67.73 641.89,-74.7"/>
</g>
<!-- Node8 -->
<g id="node8" class="node">
<title>Node8</title>
<g id="a_node8"><a xlink:href="../../da/d3d/__mingw_8h.html" target="_top" xlink:title=" ">
<polygon fill="none" stroke="black" points="56.57,-0.5 56.57,-19.5 119.57,-19.5 119.57,-0.5 56.57,-0.5"/>
<text text-anchor="middle" x="88.07" y="-7.5" font-family="Helvetica,sans-Serif" font-size="10.00">_mingw.h</text>
</a>
</g>
</g>
<!-- Node7&#45;&gt;Node8 -->
<g id="edge7" class="edge">
<title>Node7&#45;&gt;Node8</title>
<path fill="none" stroke="midnightblue" d="M120.63,-56.08C115.12,-48.46 107.04,-37.26 100.31,-27.94"/>
<polygon fill="midnightblue" stroke="midnightblue" points="103.08,-25.81 94.39,-19.75 97.41,-29.91 103.08,-25.81"/>
</g>
<!-- Node9 -->
<g id="node9" class="node">
<title>Node9</title>
<g id="a_node9"><a xlink:href="../../d3/dce/stddef_8h.html" target="_top" xlink:title=" ">
<polygon fill="none" stroke="black" points="138.07,-0.5 138.07,-19.5 194.07,-19.5 194.07,-0.5 138.07,-0.5"/>
<text text-anchor="middle" x="166.07" y="-7.5" font-family="Helvetica,sans-Serif" font-size="10.00">stddef.h</text>
</a>
</g>
</g>
<!-- Node7&#45;&gt;Node9 -->
<g id="edge8" class="edge">
<title>Node7&#45;&gt;Node9</title>
<path fill="none" stroke="midnightblue" d="M133.51,-56.08C139.02,-48.46 147.1,-37.26 153.84,-27.94"/>
<polygon fill="midnightblue" stroke="midnightblue" points="156.73,-29.91 159.75,-19.75 151.06,-25.81 156.73,-29.91"/>
</g>
<!-- Node16&#45;&gt;Node11 -->
<g id="edge19" class="edge">
<title>Node16&#45;&gt;Node11</title>
<path fill="none" stroke="midnightblue" d="M646.2,-168.37C618.06,-149.49 550.81,-104.38 516.3,-81.24"/>
<polygon fill="midnightblue" stroke="midnightblue" points="518.13,-78.26 507.88,-75.59 514.24,-84.07 518.13,-78.26"/>
</g>
<!-- Node16&#45;&gt;Node12 -->
<g id="edge18" class="edge">
<title>Node16&#45;&gt;Node12</title>
<path fill="none" stroke="midnightblue" d="M661.11,-168.37C665.31,-150.62 674.99,-109.67 680.68,-85.6"/>
<polygon fill="midnightblue" stroke="midnightblue" points="684.15,-86.13 683.04,-75.59 677.33,-84.52 684.15,-86.13"/>
</g>
<!-- Node17 -->
<g id="node17" class="node">
<title>Node17</title>
<g id="a_node17"><a xlink:href="../../d8/dc9/pshpack1_8h.html" target="_top" xlink:title=" ">
<polygon fill="none" stroke="black" points="734.07,-112.5 734.07,-131.5 806.07,-131.5 806.07,-112.5 734.07,-112.5"/>
<text text-anchor="middle" x="770.07" y="-119.5" font-family="Helvetica,sans-Serif" font-size="10.00">pshpack1.h</text>
</a>
</g>
</g>
<!-- Node16&#45;&gt;Node17 -->
<g id="edge17" class="edge">
<title>Node16&#45;&gt;Node17</title>
<path fill="none" stroke="midnightblue" d="M676.9,-168.32C694.79,-159.62 722.55,-146.12 743.12,-136.11"/>
<polygon fill="midnightblue" stroke="midnightblue" points="744.82,-139.18 752.28,-131.65 741.76,-132.88 744.82,-139.18"/>
</g>
<!-- Node19&#45;&gt;Node2 -->
<g id="edge22" class="edge">
<title>Node19&#45;&gt;Node2</title>
<path fill="none" stroke="midnightblue" d="M511.2,-187.75C512.73,-194.86 513.18,-205.14 512.54,-214.1"/>
<polygon fill="midnightblue" stroke="midnightblue" points="509.06,-213.71 511.24,-224.08 516.01,-214.62 509.06,-213.71"/>
</g>
<!-- Node21&#45;&gt;Node2 -->
<g id="edge25" class="edge">
<title>Node21&#45;&gt;Node2</title>
<path fill="none" stroke="midnightblue" d="M654.61,-336.45C637.02,-328.01 610.02,-314.34 588.07,-300 564.5,-284.6 539.41,-264.03 523.29,-250.18"/>
<polygon fill="midnightblue" stroke="midnightblue" points="525.57,-247.53 515.73,-243.62 520.98,-252.82 525.57,-247.53"/>
</g>
<!-- Node21&#45;&gt;Node12 -->
<g id="edge33" class="edge">
<title>Node21&#45;&gt;Node12</title>
<path fill="none" stroke="midnightblue" d="M705.26,-338.28C752.25,-326.38 834.07,-296.78 834.07,-235 834.07,-235 834.07,-235 834.07,-177 834.07,-146.9 835.83,-133.8 815.07,-112 792.55,-88.36 757.01,-77.13 728.78,-71.8"/>
<polygon fill="midnightblue" stroke="midnightblue" points="729.19,-68.32 718.74,-70.1 728.02,-75.23 729.19,-68.32"/>
</g>
<!-- Node21&#45;&gt;Node17 -->
<g id="edge32" class="edge">
<title>Node21&#45;&gt;Node17</title>
<path fill="none" stroke="midnightblue" d="M703.79,-336.4C722.08,-329.6 744.02,-318.16 756.07,-300 788.69,-250.85 780.37,-176.28 774.08,-141.75"/>
<polygon fill="midnightblue" stroke="midnightblue" points="777.46,-140.81 772.09,-131.67 770.6,-142.16 777.46,-140.81"/>
</g>
<!-- Node22 -->
<g id="node22" class="node">
<title>Node22</title>
<g id="a_node22"><a xlink:href="../../d2/da3/usb100_8h.html" target="_top" xlink:title=" ">
<polygon fill="none" stroke="black" points="685.57,-280.5 685.57,-299.5 746.57,-299.5 746.57,-280.5 685.57,-280.5"/>
<text text-anchor="middle" x="716.07" y="-287.5" font-family="Helvetica,sans-Serif" font-size="10.00">usb100.h</text>
</a>
</g>
</g>
<!-- Node21&#45;&gt;Node22 -->
<g id="edge26" class="edge">
<title>Node21&#45;&gt;Node22</title>
<path fill="none" stroke="midnightblue" d="M680.17,-336.08C686.31,-328.38 695.34,-317.03 702.81,-307.65"/>
<polygon fill="midnightblue" stroke="midnightblue" points="705.61,-309.75 709.1,-299.75 700.14,-305.39 705.61,-309.75"/>
</g>
<!-- Node23 -->
<g id="node23" class="node">
<title>Node23</title>
<g id="a_node23"><a xlink:href="../../d1/db5/usbiodef_8h.html" target="_top" xlink:title=" ">
<polygon fill="none" stroke="black" points="596.57,-280.5 596.57,-299.5 663.57,-299.5 663.57,-280.5 596.57,-280.5"/>
<text text-anchor="middle" x="630.07" y="-287.5" font-family="Helvetica,sans-Serif" font-size="10.00">usbiodef.h</text>
</a>
</g>
</g>
<!-- Node21&#45;&gt;Node23 -->
<g id="edge30" class="edge">
<title>Node21&#45;&gt;Node23</title>
<path fill="none" stroke="midnightblue" d="M665.97,-336.08C659.83,-328.38 650.8,-317.03 643.33,-307.65"/>
<polygon fill="midnightblue" stroke="midnightblue" points="646.01,-305.39 637.04,-299.75 640.53,-309.75 646.01,-305.39"/>
</g>
<!-- Node22&#45;&gt;Node2 -->
<g id="edge27" class="edge">
<title>Node22&#45;&gt;Node2</title>
<path fill="none" stroke="midnightblue" d="M685.54,-281.15C647.57,-271.39 582.85,-254.74 542.39,-244.34"/>
<polygon fill="midnightblue" stroke="midnightblue" points="543.21,-240.94 532.65,-241.84 541.47,-247.72 543.21,-240.94"/>
</g>
<!-- Node22&#45;&gt;Node12 -->
<g id="edge29" class="edge">
<title>Node22&#45;&gt;Node12</title>
<path fill="none" stroke="midnightblue" d="M714.86,-280.3C710.29,-247.63 694.13,-131.87 687.72,-85.96"/>
<polygon fill="midnightblue" stroke="midnightblue" points="691.16,-85.3 686.31,-75.88 684.23,-86.27 691.16,-85.3"/>
</g>
<!-- Node22&#45;&gt;Node17 -->
<g id="edge28" class="edge">
<title>Node22&#45;&gt;Node17</title>
<path fill="none" stroke="midnightblue" d="M719.23,-280.41C722.53,-271.37 727.81,-256.74 732.07,-244 744.2,-207.77 757.34,-165.06 764.55,-141.3"/>
<polygon fill="midnightblue" stroke="midnightblue" points="767.96,-142.13 767.51,-131.54 761.26,-140.1 767.96,-142.13"/>
</g>
<!-- Node23&#45;&gt;Node2 -->
<g id="edge31" class="edge">
<title>Node23&#45;&gt;Node2</title>
<path fill="none" stroke="midnightblue" d="M610.42,-280.44C590.11,-271.6 558.17,-257.69 534.97,-247.59"/>
<polygon fill="midnightblue" stroke="midnightblue" points="536.19,-244.3 525.63,-243.52 533.4,-250.72 536.19,-244.3"/>
</g>
</g>
</svg>
        <g id="navigator" transform="translate(0 0)" fill="#404254">
                <rect fill="#f2f5e9" fill-opacity="0.5" stroke="#606060" stroke-width=".5" x="0" y="0" width="60" height="60"/>
                <use id="zoomplus" xlink:href="#zoomPlus" x="17" y="9" onmousedown="handleZoom(evt,'in')"/>
                <use id="zoomminus" xlink:href="#zoomMin" x="42" y="9" onmousedown="handleZoom(evt,'out')"/>
                <use id="reset" xlink:href="#resetDef" x="30" y="36" onmousedown="handleReset()"/>
                <g id="arrowUp" xlink:href="#dirArrow" transform="translate(30 24)" onmousedown="handlePan(0,-1)">
                  <use xlink:href="#rim" fill="#404040">
                        <set attributeName="fill" to="#808080" begin="arrowUp.mouseover" end="arrowUp.mouseout"/>
                  </use>
                  <path fill="none" stroke="white" stroke-width="1.5" d="M0,-3.0v7 M-2.5,-0.5L0,-3.0L2.5,-0.5"/>
                </g>
                <g id="arrowRight" xlink:href="#dirArrow" transform="rotate(90) translate(36 -43)" onmousedown="handlePan(1,0)">
                  <use xlink:href="#rim" fill="#404040">
                        <set attributeName="fill" to="#808080" begin="arrowRight.mouseover" end="arrowRight.mouseout"/>
                  </use>
                  <path fill="none" stroke="white" stroke-width="1.5" d="M0,-3.0v7 M-2.5,-0.5L0,-3.0L2.5,-0.5"/>
                </g>
                <g id="arrowDown" xlink:href="#dirArrow" transform="rotate(180) translate(-30 -48)" onmousedown="handlePan(0,1)">
                  <use xlink:href="#rim" fill="#404040">
                        <set attributeName="fill" to="#808080" begin="arrowDown.mouseover" end="arrowDown.mouseout"/>
                  </use>
                  <path fill="none" stroke="white" stroke-width="1.5" d="M0,-3.0v7 M-2.5,-0.5L0,-3.0L2.5,-0.5"/>
                </g>
                <g id="arrowLeft" xlink:href="#dirArrow" transform="rotate(270) translate(-36 17)" onmousedown="handlePan(-1,0)">
                  <use xlink:href="#rim" fill="#404040">
                        <set attributeName="fill" to="#808080" begin="arrowLeft.mouseover" end="arrowLeft.mouseout"/>
                  </use>
                  <path fill="none" stroke="white" stroke-width="1.5" d="M0,-3.0v7 M-2.5,-0.5L0,-3.0L2.5,-0.5"/>
                </g>
        </g>
        <svg viewBox="0 0 15 15" width="100%" height="30px" preserveAspectRatio="xMaxYMin meet">
         <g id="arrow_out" transform="scale(0.3 0.3)">
          <a xlink:href="usbdi_8h__incl_org.svg" target="_base">
           <rect id="button" ry="5" rx="5" y="6" x="6" height="38" width="38"
                fill="#f2f5e9" fill-opacity="0.5" stroke="#606060" stroke-width="1.0"/>
           <path id="arrow"
             d="M 11.500037,31.436501 C 11.940474,20.09759 22.043105,11.32322 32.158766,21.979434 L 37.068811,17.246167 C 37.068811,17.246167 37.088388,32 37.088388,32 L 22.160133,31.978069 C 22.160133,31.978069 26.997745,27.140456 26.997745,27.140456 C 18.528582,18.264221 13.291696,25.230495 11.500037,31.436501 z"
             style="fill:#404040;"/>
          </a>
         </g>
        </svg>
</svg>
