<?xml version="1.0" encoding="UTF-8" standalone="no"?>
<!DOCTYPE svg PUBLIC "-//W3C//DTD SVG 1.1//EN"
 "http://www.w3.org/Graphics/SVG/1.1/DTD/svg11.dtd">
<!-- Generated by graphviz version 2.43.0 (0)
 -->
<!-- Title: _DISK_CACHE_INFORMATION Pages: 1 -->
<svg width="534pt" height="404pt"
 viewBox="0.00 0.00 534.00 404.49" xmlns="http://www.w3.org/2000/svg" xmlns:xlink="http://www.w3.org/1999/xlink">
<g id="graph0" class="graph" transform="scale(1 1) rotate(0) translate(4 400.49)">
<title>_DISK_CACHE_INFORMATION</title>
<!-- Node1 -->
<g id="node1" class="node">
<title>Node1</title>
<g id="a_node1"><a xlink:title=" ">
<polygon fill="#bfbfbf" stroke="black" points="367,-202.99 367,-221.99 526,-221.99 526,-202.99 367,-202.99"/>
<text text-anchor="middle" x="446.5" y="-209.99" font-family="Helvetica,sans-Serif" font-size="10.00">_DISK_CACHE_INFORMATION</text>
</a>
</g>
</g>
<!-- Node2 -->
<g id="node2" class="node">
<title>Node2</title>
<g id="a_node2"><a xlink:title=" ">
<polygon fill="none" stroke="#bfbfbf" points="17,-354.99 17,-373.99 161,-373.99 161,-354.99 17,-354.99"/>
<text text-anchor="middle" x="89" y="-361.99" font-family="Helvetica,sans-Serif" font-size="10.00">anonymous:BlockPrefetch</text>
</a>
</g>
</g>
<!-- Node2&#45;&gt;Node1 -->
<g id="edge1" class="edge">
<title>Node2&#45;&gt;Node1</title>
<path fill="none" stroke="#9a32cd" stroke-dasharray="5,2" d="M137.63,-376.13C192.32,-386.79 282.98,-395.95 349,-359.49 405.12,-328.5 434.1,-249.43 442.71,-222.02"/>
<polygon fill="#9a32cd" stroke="#9a32cd" points="138.02,-372.64 127.52,-374.06 136.61,-379.5 138.02,-372.64"/>
<text text-anchor="middle" x="272.5" y="-388.49" font-family="Helvetica,sans-Serif" font-size="10.00"> BlockPrefetch</text>
</g>
<!-- Node2&#45;&gt;Node1 -->
<g id="edge5" class="edge">
<title>Node2&#45;&gt;Node1</title>
<path fill="none" stroke="#9a32cd" stroke-dasharray="5,2" d="M154.06,-353.28C167.88,-350.95 182.42,-348.58 196,-346.49 263.84,-336.08 288.77,-358.41 349,-325.49 394.73,-300.5 428.37,-244.59 440.53,-222.12"/>
<polygon fill="#9a32cd" stroke="#9a32cd" points="153.42,-349.83 144.14,-354.96 154.59,-356.74 153.42,-349.83"/>
<text text-anchor="middle" x="272.5" y="-349.49" font-family="Helvetica,sans-Serif" font-size="10.00"> BlockPrefetch</text>
</g>
<!-- Node3 -->
<g id="node3" class="node">
<title>Node3</title>
<g id="a_node3"><a xlink:title=" ">
<polygon fill="none" stroke="#bfbfbf" points="15.5,-286.99 15.5,-305.99 162.5,-305.99 162.5,-286.99 15.5,-286.99"/>
<text text-anchor="middle" x="89" y="-293.99" font-family="Helvetica,sans-Serif" font-size="10.00">anonymous:ScalarPrefetch</text>
</a>
</g>
</g>
<!-- Node3&#45;&gt;Node1 -->
<g id="edge2" class="edge">
<title>Node3&#45;&gt;Node1</title>
<path fill="none" stroke="#9a32cd" stroke-dasharray="5,2" d="M158.66,-307.12C212.2,-312.61 287.54,-314.11 349,-291.49 388.01,-277.13 422.79,-239.87 437.74,-222.14"/>
<polygon fill="#9a32cd" stroke="#9a32cd" points="158.91,-303.63 148.58,-306.01 158.14,-310.58 158.91,-303.63"/>
<text text-anchor="middle" x="272.5" y="-313.49" font-family="Helvetica,sans-Serif" font-size="10.00"> ScalarPrefetch</text>
</g>
<!-- Node3&#45;&gt;Node1 -->
<g id="edge9" class="edge">
<title>Node3&#45;&gt;Node1</title>
<path fill="none" stroke="#9a32cd" stroke-dasharray="5,2" d="M154.06,-285.28C167.88,-282.95 182.42,-280.58 196,-278.49 263.84,-268.08 283.16,-276.88 349,-257.49 378.44,-248.82 410.27,-232.47 429.02,-222.05"/>
<polygon fill="#9a32cd" stroke="#9a32cd" points="153.42,-281.83 144.14,-286.96 154.59,-288.74 153.42,-281.83"/>
<text text-anchor="middle" x="272.5" y="-281.49" font-family="Helvetica,sans-Serif" font-size="10.00"> ScalarPrefetch</text>
</g>
<!-- Node4 -->
<g id="node4" class="node">
<title>Node4</title>
<g id="a_node4"><a xlink:title=" ">
<polygon fill="none" stroke="#bfbfbf" points="8.5,-201.99 8.5,-242.99 169.5,-242.99 169.5,-201.99 8.5,-201.99"/>
<text text-anchor="start" x="16.5" y="-230.99" font-family="Helvetica,sans-Serif" font-size="10.00">PLDAP *typedef(__cdecl</text>
<text text-anchor="start" x="16.5" y="-219.99" font-family="Helvetica,sans-Serif" font-size="10.00"> NOTIFYOFNEWCONNECTION)</text>
<text text-anchor="middle" x="89" y="-208.99" font-family="Helvetica,sans-Serif" font-size="10.00">(PLDAP</text>
</a>
</g>
</g>
<!-- Node4&#45;&gt;Node1 -->
<g id="edge3" class="edge">
<title>Node4&#45;&gt;Node1</title>
<path fill="none" stroke="#9a32cd" stroke-dasharray="5,2" d="M179.57,-214.37C185.13,-214.03 190.64,-213.73 196,-213.49 253.12,-210.96 317.67,-210.77 366.8,-211.18"/>
<polygon fill="#9a32cd" stroke="#9a32cd" points="179.29,-210.88 169.54,-215.04 179.75,-217.87 179.29,-210.88"/>
<text text-anchor="middle" x="272.5" y="-249.49" font-family="Helvetica,sans-Serif" font-size="10.00"> ParametersSavable</text>
<text text-anchor="middle" x="272.5" y="-238.49" font-family="Helvetica,sans-Serif" font-size="10.00">PrefetchScalar</text>
<text text-anchor="middle" x="272.5" y="-227.49" font-family="Helvetica,sans-Serif" font-size="10.00">WriteCacheEnabled</text>
<text text-anchor="middle" x="272.5" y="-216.49" font-family="Helvetica,sans-Serif" font-size="10.00">ReadCacheEnabled</text>
</g>
<!-- Node5 -->
<g id="node5" class="node">
<title>Node5</title>
<g id="a_node5"><a xlink:title=" ">
<polygon fill="none" stroke="#bfbfbf" points="19,-152.49 19,-182.49 159,-182.49 159,-152.49 19,-152.49"/>
<text text-anchor="start" x="27" y="-170.49" font-family="Helvetica,sans-Serif" font-size="10.00">DISK_CACHE_RETENTION</text>
<text text-anchor="middle" x="89" y="-159.49" font-family="Helvetica,sans-Serif" font-size="10.00">_PRIORITY</text>
</a>
</g>
</g>
<!-- Node5&#45;&gt;Node1 -->
<g id="edge4" class="edge">
<title>Node5&#45;&gt;Node1</title>
<path fill="none" stroke="#9a32cd" stroke-dasharray="5,2" d="M169.27,-168.25C220.81,-169.84 289.29,-174 349,-184.49 372.88,-188.69 399.28,-196.58 418.42,-202.92"/>
<polygon fill="#9a32cd" stroke="#9a32cd" points="169.29,-164.75 159.19,-167.97 169.09,-171.75 169.29,-164.75"/>
<text text-anchor="middle" x="272.5" y="-198.49" font-family="Helvetica,sans-Serif" font-size="10.00"> ReadRetentionPriority</text>
<text text-anchor="middle" x="272.5" y="-187.49" font-family="Helvetica,sans-Serif" font-size="10.00">WriteRetentionPriority</text>
</g>
<!-- Node6 -->
<g id="node6" class="node">
<title>Node6</title>
<g id="a_node6"><a xlink:title=" ">
<polygon fill="none" stroke="#bfbfbf" points="37,-113.99 37,-132.99 141,-132.99 141,-113.99 37,-113.99"/>
<text text-anchor="middle" x="89" y="-120.99" font-family="Helvetica,sans-Serif" font-size="10.00">anonymous:@538</text>
</a>
</g>
</g>
<!-- Node6&#45;&gt;Node1 -->
<g id="edge6" class="edge">
<title>Node6&#45;&gt;Node1</title>
<path fill="none" stroke="#9a32cd" stroke-dasharray="5,2" d="M151.06,-123.63C204.59,-125.41 283.8,-132.15 349,-154.49 382.1,-165.83 416.09,-189.67 433.54,-202.98"/>
<polygon fill="#9a32cd" stroke="#9a32cd" points="151.14,-120.13 141.04,-123.34 150.94,-127.12 151.14,-120.13"/>
<text text-anchor="middle" x="272.5" y="-157.49" font-family="Helvetica,sans-Serif" font-size="10.00"> @538</text>
</g>
<!-- Node7 -->
<g id="node7" class="node">
<title>Node7</title>
<g id="a_node7"><a xlink:title=" ">
<polygon fill="none" stroke="#bfbfbf" points="0,-75.99 0,-94.99 178,-94.99 178,-75.99 0,-75.99"/>
<text text-anchor="middle" x="89" y="-82.99" font-family="Helvetica,sans-Serif" font-size="10.00">anonymous:DUMMYUNIONNAME</text>
</a>
</g>
</g>
<!-- Node7&#45;&gt;Node1 -->
<g id="edge7" class="edge">
<title>Node7&#45;&gt;Node1</title>
<path fill="none" stroke="#9a32cd" stroke-dasharray="5,2" d="M188.37,-78.98C238.72,-79.52 299.64,-86.36 349,-110.49 392.58,-131.79 426.72,-181.61 439.76,-202.74"/>
<polygon fill="#9a32cd" stroke="#9a32cd" points="188.13,-75.48 178.12,-78.95 188.11,-82.48 188.13,-75.48"/>
<text text-anchor="middle" x="272.5" y="-113.49" font-family="Helvetica,sans-Serif" font-size="10.00"> DUMMYUNIONNAME</text>
</g>
<!-- Node8 -->
<g id="node8" class="node">
<title>Node8</title>
<g id="a_node8"><a xlink:title=" ">
<polygon fill="none" stroke="#bfbfbf" points="58.5,-10.99 58.5,-29.99 119.5,-29.99 119.5,-10.99 58.5,-10.99"/>
<text text-anchor="middle" x="89" y="-17.99" font-family="Helvetica,sans-Serif" font-size="10.00">unsigned</text>
</a>
</g>
</g>
<!-- Node8&#45;&gt;Node1 -->
<g id="edge8" class="edge">
<title>Node8&#45;&gt;Node1</title>
<path fill="none" stroke="#9a32cd" stroke-dasharray="5,2" d="M129.42,-10.67C183.47,0.43 281.52,11.9 349,-30.49 413.81,-71.21 437.7,-171.03 443.79,-202.69"/>
<polygon fill="#9a32cd" stroke="#9a32cd" points="128.58,-7.27 119.54,-12.8 130.06,-14.12 128.58,-7.27"/>
<text text-anchor="middle" x="272.5" y="-66.49" font-family="Helvetica,sans-Serif" font-size="10.00"> DisablePrefetchTransferLength</text>
<text text-anchor="middle" x="272.5" y="-55.49" font-family="Helvetica,sans-Serif" font-size="10.00">Minimum</text>
<text text-anchor="middle" x="272.5" y="-44.49" font-family="Helvetica,sans-Serif" font-size="10.00">Maximum</text>
<text text-anchor="middle" x="272.5" y="-33.49" font-family="Helvetica,sans-Serif" font-size="10.00">MaximumBlocks</text>
</g>
</g>
</svg>
