<?xml version="1.0" encoding="UTF-8" standalone="no"?>
<!DOCTYPE svg PUBLIC "-//W3C//DTD SVG 1.1//EN"
 "http://www.w3.org/Graphics/SVG/1.1/DTD/svg11.dtd">
<!-- Generated by graphviz version 2.43.0 (0)
 -->
<!-- Title: Symbol Pages: 1 -->
<svg width="555pt" height="1208pt"
 viewBox="0.00 0.00 555.00 1208.11" xmlns="http://www.w3.org/2000/svg" xmlns:xlink="http://www.w3.org/1999/xlink">
<g id="graph0" class="graph" transform="scale(1 1) rotate(0) translate(4 1204.11)">
<title>Symbol</title>
<!-- Node1 -->
<g id="node1" class="node">
<title>Node1</title>
<g id="a_node1"><a xlink:title=" ">
<polygon fill="#bfbfbf" stroke="black" points="204,-493.61 204,-512.61 257,-512.61 257,-493.61 204,-493.61"/>
<text text-anchor="middle" x="230.5" y="-500.61" font-family="Helvetica,sans-Serif" font-size="10.00">Symbol</text>
</a>
</g>
</g>
<!-- Node1&#45;&gt;Node1 -->
<g id="edge18" class="edge">
<title>Node1&#45;&gt;Node1</title>
<path fill="none" stroke="#9a32cd" stroke-dasharray="5,2" d="M216.14,-522.88C217.26,-527.61 222.05,-531.11 230.5,-531.11 244.36,-531.11 248.37,-521.68 242.52,-512.87"/>
<polygon fill="#9a32cd" stroke="#9a32cd" points="219.61,-523.4 218.48,-512.87 212.79,-521.81 219.61,-523.4"/>
<text text-anchor="middle" x="230.5" y="-600.11" font-family="Helvetica,sans-Serif" font-size="10.00"> equatedto</text>
<text text-anchor="middle" x="230.5" y="-589.11" font-family="Helvetica,sans-Serif" font-size="10.00">next</text>
<text text-anchor="middle" x="230.5" y="-578.11" font-family="Helvetica,sans-Serif" font-size="10.00">alias</text>
<text text-anchor="middle" x="230.5" y="-567.11" font-family="Helvetica,sans-Serif" font-size="10.00">idlist</text>
<text text-anchor="middle" x="230.5" y="-556.11" font-family="Helvetica,sans-Serif" font-size="10.00">loc</text>
<text text-anchor="middle" x="230.5" y="-545.11" font-family="Helvetica,sans-Serif" font-size="10.00">up</text>
<text text-anchor="middle" x="230.5" y="-534.11" font-family="Helvetica,sans-Serif" font-size="10.00">callee</text>
</g>
<!-- Node5 -->
<g id="node5" class="node">
<title>Node5</title>
<g id="a_node5"><a xlink:href="../../da/de0/structXsymbol.html" target="_top" xlink:title=" ">
<polygon fill="none" stroke="black" points="488,-1052.61 488,-1071.61 547,-1071.61 547,-1052.61 488,-1052.61"/>
<text text-anchor="middle" x="517.5" y="-1059.61" font-family="Helvetica,sans-Serif" font-size="10.00">Xsymbol</text>
</a>
</g>
</g>
<!-- Node1&#45;&gt;Node5 -->
<g id="edge11" class="edge">
<title>Node1&#45;&gt;Node5</title>
<path fill="none" stroke="#9a32cd" stroke-dasharray="5,2" d="M241.03,-521.94C261.12,-561.58 309.3,-656.58 350,-736.11 403.07,-839.8 417.29,-865.24 470,-969.11 485.44,-999.54 503.43,-1035.73 511.78,-1052.59"/>
<polygon fill="#9a32cd" stroke="#9a32cd" points="244.09,-520.23 236.45,-512.89 237.85,-523.39 244.09,-520.23"/>
<text text-anchor="middle" x="379.5" y="-851.11" font-family="Helvetica,sans-Serif" font-size="10.00"> wildcard</text>
</g>
<!-- Node6 -->
<g id="node6" class="node">
<title>Node6</title>
<g id="a_node6"><a xlink:href="../../d4/d4c/structRegnode.html" target="_top" xlink:title=" ">
<polygon fill="none" stroke="black" points="350,-1090.61 350,-1109.61 409,-1109.61 409,-1090.61 350,-1090.61"/>
<text text-anchor="middle" x="379.5" y="-1097.61" font-family="Helvetica,sans-Serif" font-size="10.00">Regnode</text>
</a>
</g>
</g>
<!-- Node1&#45;&gt;Node6 -->
<g id="edge8" class="edge">
<title>Node1&#45;&gt;Node6</title>
<path fill="none" stroke="#9a32cd" stroke-dasharray="5,2" d="M231.25,-523.06C230.55,-606.37 231.59,-925.83 287,-1006.11 299.76,-1024.6 315.29,-1014.11 332,-1029.11 351.95,-1047.03 367.04,-1075.36 374.09,-1090.24"/>
<polygon fill="#9a32cd" stroke="#9a32cd" points="234.75,-522.96 231.35,-512.93 227.75,-522.89 234.75,-522.96"/>
<text text-anchor="middle" x="309.5" y="-1032.11" font-family="Helvetica,sans-Serif" font-size="10.00"> vbl</text>
</g>
<!-- Node2 -->
<g id="node2" class="node">
<title>Node2</title>
<g id="a_node2"><a xlink:title=" ">
<polygon fill="none" stroke="#bfbfbf" points="31,-1167.61 31,-1186.61 73,-1186.61 73,-1167.61 31,-1167.61"/>
<text text-anchor="middle" x="52" y="-1174.61" font-family="Helvetica,sans-Serif" font-size="10.00">Node</text>
</a>
</g>
</g>
<!-- Node2&#45;&gt;Node1 -->
<g id="edge1" class="edge">
<title>Node2&#45;&gt;Node1</title>
<path fill="none" stroke="#9a32cd" stroke-dasharray="5,2" d="M70.03,-1160.31C97.79,-1131.66 151.88,-1070.22 174,-1006.11 207.24,-909.77 225.81,-574.94 229,-513.01"/>
<polygon fill="#9a32cd" stroke="#9a32cd" points="67.48,-1157.91 62.95,-1167.49 72.47,-1162.83 67.48,-1157.91"/>
<text text-anchor="middle" x="148" y="-1098.11" font-family="Helvetica,sans-Serif" font-size="10.00"> cse</text>
</g>
<!-- Node2&#45;&gt;Node5 -->
<g id="edge5" class="edge">
<title>Node2&#45;&gt;Node5</title>
<path fill="none" stroke="#9a32cd" stroke-dasharray="5,2" d="M83.44,-1182.46C146.87,-1192.18 296.64,-1207.74 409,-1161.11 437.67,-1149.22 446.85,-1147.79 470,-1127.11 488.42,-1110.66 503.7,-1085.66 511.31,-1071.96"/>
<polygon fill="#9a32cd" stroke="#9a32cd" points="83.74,-1178.96 73.32,-1180.84 82.64,-1185.87 83.74,-1178.96"/>
<text text-anchor="middle" x="309.5" y="-1192.11" font-family="Helvetica,sans-Serif" font-size="10.00"> lastuse</text>
</g>
<!-- Node3 -->
<g id="node3" class="node">
<title>Node3</title>
<g id="a_node3"><a xlink:title=" ">
<polygon fill="none" stroke="#bfbfbf" points="17,-363.61 17,-382.61 87,-382.61 87,-363.61 17,-363.61"/>
<text text-anchor="middle" x="52" y="-370.61" font-family="Helvetica,sans-Serif" font-size="10.00">Coordinate</text>
</a>
</g>
</g>
<!-- Node3&#45;&gt;Node1 -->
<g id="edge2" class="edge">
<title>Node3&#45;&gt;Node1</title>
<path fill="none" stroke="#9a32cd" stroke-dasharray="5,2" d="M97.33,-366.95C121.98,-365.87 152.03,-368.67 174,-384.11 211.86,-410.72 224.58,-469.96 228.22,-493.34"/>
<polygon fill="#9a32cd" stroke="#9a32cd" points="96.88,-363.47 87.13,-367.63 97.34,-370.46 96.88,-363.47"/>
<text text-anchor="middle" x="148" y="-398.11" font-family="Helvetica,sans-Serif" font-size="10.00"> pt</text>
<text text-anchor="middle" x="148" y="-387.11" font-family="Helvetica,sans-Serif" font-size="10.00">src</text>
</g>
<!-- Node4 -->
<g id="node4" class="node">
<title>Node4</title>
<g id="a_node4"><a xlink:title=" ">
<polygon fill="none" stroke="#bfbfbf" points="12,-246.61 12,-265.61 92,-265.61 92,-246.61 12,-246.61"/>
<text text-anchor="middle" x="52" y="-253.61" font-family="Helvetica,sans-Serif" font-size="10.00">anonymous:f</text>
</a>
</g>
</g>
<!-- Node4&#45;&gt;Node1 -->
<g id="edge3" class="edge">
<title>Node4&#45;&gt;Node1</title>
<path fill="none" stroke="#9a32cd" stroke-dasharray="5,2" d="M78.67,-242.07C105.43,-229.55 147.13,-216.29 174,-238.11 214.96,-271.38 226.76,-450.1 229.05,-493.57"/>
<polygon fill="#9a32cd" stroke="#9a32cd" points="76.96,-239.01 69.55,-246.58 80.06,-245.28 76.96,-239.01"/>
<text text-anchor="middle" x="148" y="-241.11" font-family="Helvetica,sans-Serif" font-size="10.00"> f</text>
</g>
<!-- Node4&#45;&gt;Node1 -->
<g id="edge29" class="edge">
<title>Node4&#45;&gt;Node1</title>
<path fill="none" stroke="#9a32cd" stroke-dasharray="5,2" d="M102.4,-253.69C126.86,-255.15 155.11,-261.24 174,-279.11 206.15,-309.54 224.15,-454.37 228.47,-493.4"/>
<polygon fill="#9a32cd" stroke="#9a32cd" points="102.31,-250.19 92.19,-253.33 102.06,-257.19 102.31,-250.19"/>
<text text-anchor="middle" x="148" y="-282.11" font-family="Helvetica,sans-Serif" font-size="10.00"> f</text>
</g>
<!-- Node5&#45;&gt;Node1 -->
<g id="edge4" class="edge">
<title>Node5&#45;&gt;Node1</title>
<path fill="none" stroke="#9a32cd" stroke-dasharray="5,2" d="M515.18,-1042.04C511.92,-1001.53 501.33,-907.75 470,-836.11 407.46,-693.1 276.83,-550.52 240.85,-512.77"/>
<polygon fill="#9a32cd" stroke="#9a32cd" points="511.7,-1042.49 515.93,-1052.2 518.68,-1041.97 511.7,-1042.49"/>
<text text-anchor="middle" x="379.5" y="-724.11" font-family="Helvetica,sans-Serif" font-size="10.00"> x</text>
</g>
<!-- Node6&#45;&gt;Node5 -->
<g id="edge6" class="edge">
<title>Node6&#45;&gt;Node5</title>
<path fill="none" stroke="#9a32cd" stroke-dasharray="5,2" d="M419.13,-1090.03C434.93,-1085.83 453.37,-1080.84 470,-1076.11 475.68,-1074.5 481.73,-1072.72 487.52,-1070.99"/>
<polygon fill="#9a32cd" stroke="#9a32cd" points="417.95,-1086.72 409.18,-1092.66 419.74,-1093.49 417.95,-1086.72"/>
<text text-anchor="middle" x="448.5" y="-1090.11" font-family="Helvetica,sans-Serif" font-size="10.00"> regnode</text>
</g>
<!-- Node7 -->
<g id="node7" class="node">
<title>Node7</title>
<g id="a_node7"><a xlink:title=" ">
<polygon fill="none" stroke="#bfbfbf" points="210,-1129.61 210,-1148.61 251,-1148.61 251,-1129.61 210,-1129.61"/>
<text text-anchor="middle" x="230.5" y="-1136.61" font-family="Helvetica,sans-Serif" font-size="10.00">short</text>
</a>
</g>
</g>
<!-- Node7&#45;&gt;Node6 -->
<g id="edge7" class="edge">
<title>Node7&#45;&gt;Node6</title>
<path fill="none" stroke="#9a32cd" stroke-dasharray="5,2" d="M260.99,-1131.29C286.84,-1124.43 324.18,-1114.52 349.79,-1107.73"/>
<polygon fill="#9a32cd" stroke="#9a32cd" points="259.79,-1127.99 251.02,-1133.93 261.58,-1134.75 259.79,-1127.99"/>
<text text-anchor="middle" x="309.5" y="-1138.11" font-family="Helvetica,sans-Serif" font-size="10.00"> number</text>
<text text-anchor="middle" x="309.5" y="-1127.11" font-family="Helvetica,sans-Serif" font-size="10.00">set</text>
</g>
<!-- Node8 -->
<g id="node8" class="node">
<title>Node8</title>
<g id="a_node8"><a xlink:title=" ">
<polygon fill="none" stroke="#bfbfbf" points="21.5,-1090.61 21.5,-1109.61 82.5,-1109.61 82.5,-1090.61 21.5,-1090.61"/>
<text text-anchor="middle" x="52" y="-1097.61" font-family="Helvetica,sans-Serif" font-size="10.00">unsigned</text>
</a>
</g>
</g>
<!-- Node8&#45;&gt;Node1 -->
<g id="edge35" class="edge">
<title>Node8&#45;&gt;Node1</title>
<path fill="none" stroke="#9a32cd" stroke-dasharray="5,2" d="M82.07,-1085.1C90.46,-1079.35 98.76,-1071.99 104,-1063.11 137.02,-1007.19 92.33,-975.88 122,-918.11 136.37,-890.13 159.26,-897.9 174,-870.11 208.5,-805.08 225.63,-563.75 228.91,-512.66"/>
<polygon fill="#9a32cd" stroke="#9a32cd" points="80.04,-1082.24 73.42,-1090.51 83.75,-1088.18 80.04,-1082.24"/>
<text text-anchor="middle" x="148" y="-998.11" font-family="Helvetica,sans-Serif" font-size="10.00"> structarg</text>
<text text-anchor="middle" x="148" y="-987.11" font-family="Helvetica,sans-Serif" font-size="10.00">addressed</text>
<text text-anchor="middle" x="148" y="-976.11" font-family="Helvetica,sans-Serif" font-size="10.00">defined</text>
<text text-anchor="middle" x="148" y="-965.11" font-family="Helvetica,sans-Serif" font-size="10.00">generated</text>
<text text-anchor="middle" x="148" y="-954.11" font-family="Helvetica,sans-Serif" font-size="10.00">cfields</text>
<text text-anchor="middle" x="148" y="-943.11" font-family="Helvetica,sans-Serif" font-size="10.00">temporary</text>
<text text-anchor="middle" x="148" y="-932.11" font-family="Helvetica,sans-Serif" font-size="10.00">computed</text>
<text text-anchor="middle" x="148" y="-921.11" font-family="Helvetica,sans-Serif" font-size="10.00">vfields</text>
</g>
<!-- Node8&#45;&gt;Node5 -->
<g id="edge13" class="edge">
<title>Node8&#45;&gt;Node5</title>
<path fill="none" stroke="#9a32cd" stroke-dasharray="5,2" d="M78.7,-1114.49C105.88,-1128.8 150.49,-1149.8 192,-1158.11 315.58,-1182.86 360.78,-1165.02 470,-1102.11 484.4,-1093.82 498.51,-1080.78 507.35,-1071.86"/>
<polygon fill="#9a32cd" stroke="#9a32cd" points="80.32,-1111.38 69.85,-1109.74 77.01,-1117.55 80.32,-1111.38"/>
<text text-anchor="middle" x="309.5" y="-1171.11" font-family="Helvetica,sans-Serif" font-size="10.00"> eaddr</text>
</g>
<!-- Node8&#45;&gt;Node6 -->
<g id="edge9" class="edge">
<title>Node8&#45;&gt;Node6</title>
<path fill="none" stroke="#9a32cd" stroke-dasharray="5,2" d="M92.85,-1100.11C159.42,-1100.11 291.67,-1100.11 349.87,-1100.11"/>
<polygon fill="#9a32cd" stroke="#9a32cd" points="92.75,-1096.61 82.75,-1100.11 92.75,-1103.61 92.75,-1096.61"/>
<text text-anchor="middle" x="230.5" y="-1103.11" font-family="Helvetica,sans-Serif" font-size="10.00"> mask</text>
</g>
<!-- Node9 -->
<g id="node9" class="node">
<title>Node9</title>
<g id="a_node9"><a xlink:title=" ">
<polygon fill="none" stroke="#bfbfbf" points="33,-1034.61 33,-1053.61 71,-1053.61 71,-1034.61 33,-1034.61"/>
<text text-anchor="middle" x="52" y="-1041.61" font-family="Helvetica,sans-Serif" font-size="10.00">char</text>
</a>
</g>
</g>
<!-- Node9&#45;&gt;Node1 -->
<g id="edge16" class="edge">
<title>Node9&#45;&gt;Node1</title>
<path fill="none" stroke="#9a32cd" stroke-dasharray="5,2" d="M59.72,-1024.88C75.88,-978.81 116.02,-865.46 122,-859.11 139.33,-840.72 158.51,-856.08 174,-836.11 214.86,-783.44 226.93,-561.4 229.11,-512.62"/>
<polygon fill="#9a32cd" stroke="#9a32cd" points="56.33,-1023.98 56.33,-1034.57 62.93,-1026.29 56.33,-1023.98"/>
<text text-anchor="middle" x="148" y="-862.11" font-family="Helvetica,sans-Serif" font-size="10.00"> name</text>
</g>
<!-- Node9&#45;&gt;Node5 -->
<g id="edge10" class="edge">
<title>Node9&#45;&gt;Node5</title>
<path fill="none" stroke="#9a32cd" stroke-dasharray="5,2" d="M81.33,-1045.21C164.06,-1048.43 404.7,-1057.77 487.84,-1061"/>
<polygon fill="#9a32cd" stroke="#9a32cd" points="81.3,-1041.71 71.17,-1044.82 81.03,-1048.7 81.3,-1041.71"/>
<text text-anchor="middle" x="309.5" y="-1057.11" font-family="Helvetica,sans-Serif" font-size="10.00"> name</text>
</g>
<!-- Node10 -->
<g id="node10" class="node">
<title>Node10</title>
<g id="a_node10"><a xlink:title=" ">
<polygon fill="none" stroke="#bfbfbf" points="37.5,-869.61 37.5,-888.61 66.5,-888.61 66.5,-869.61 37.5,-869.61"/>
<text text-anchor="middle" x="52" y="-876.61" font-family="Helvetica,sans-Serif" font-size="10.00">int</text>
</a>
</g>
</g>
<!-- Node10&#45;&gt;Node1 -->
<g id="edge24" class="edge">
<title>Node10&#45;&gt;Node1</title>
<path fill="none" stroke="#9a32cd" stroke-dasharray="5,2" d="M59.68,-859.86C69.58,-833.86 90.44,-787.51 122,-759.11 140.79,-742.21 157.83,-755.54 174,-736.11 231.72,-666.76 231.47,-547.57 230.05,-512.86"/>
<polygon fill="#9a32cd" stroke="#9a32cd" points="56.36,-858.76 56.21,-869.35 62.93,-861.16 56.36,-858.76"/>
<text text-anchor="middle" x="148" y="-828.11" font-family="Helvetica,sans-Serif" font-size="10.00"> ncalls</text>
<text text-anchor="middle" x="148" y="-817.11" font-family="Helvetica,sans-Serif" font-size="10.00">sclass</text>
<text text-anchor="middle" x="148" y="-806.11" font-family="Helvetica,sans-Serif" font-size="10.00">value</text>
<text text-anchor="middle" x="148" y="-795.11" font-family="Helvetica,sans-Serif" font-size="10.00">label</text>
<text text-anchor="middle" x="148" y="-784.11" font-family="Helvetica,sans-Serif" font-size="10.00">scope</text>
<text text-anchor="middle" x="148" y="-773.11" font-family="Helvetica,sans-Serif" font-size="10.00">seg</text>
<text text-anchor="middle" x="148" y="-762.11" font-family="Helvetica,sans-Serif" font-size="10.00">replace</text>
</g>
<!-- Node10&#45;&gt;Node5 -->
<g id="edge12" class="edge">
<title>Node10&#45;&gt;Node5</title>
<path fill="none" stroke="#9a32cd" stroke-dasharray="5,2" d="M59.55,-898.34C69.02,-922.71 89.1,-963.65 122,-981.11 204.44,-1024.88 240.7,-960.74 332,-980.11 398.52,-994.23 470.18,-1034.04 500.98,-1052.5"/>
<polygon fill="#9a32cd" stroke="#9a32cd" points="62.76,-896.93 56.04,-888.74 56.19,-899.34 62.76,-896.93"/>
<text text-anchor="middle" x="309.5" y="-994.11" font-family="Helvetica,sans-Serif" font-size="10.00"> offset</text>
<text text-anchor="middle" x="309.5" y="-983.11" font-family="Helvetica,sans-Serif" font-size="10.00">usecount</text>
</g>
<!-- Node11 -->
<g id="node11" class="node">
<title>Node11</title>
<g id="a_node11"><a xlink:title=" ">
<polygon fill="none" stroke="#bfbfbf" points="12,-52.61 12,-71.61 92,-71.61 92,-52.61 12,-52.61"/>
<text text-anchor="middle" x="52" y="-59.61" font-family="Helvetica,sans-Serif" font-size="10.00">anonymous:t</text>
</a>
</g>
</g>
<!-- Node11&#45;&gt;Node1 -->
<g id="edge14" class="edge">
<title>Node11&#45;&gt;Node1</title>
<path fill="none" stroke="#9a32cd" stroke-dasharray="5,2" d="M79.52,-48.04C106.63,-35.82 148.29,-23.34 174,-46.11 208.85,-76.98 226.24,-430.23 229.08,-493.46"/>
<polygon fill="#9a32cd" stroke="#9a32cd" points="77.77,-45 70.25,-52.46 80.78,-51.32 77.77,-45"/>
<text text-anchor="middle" x="148" y="-49.11" font-family="Helvetica,sans-Serif" font-size="10.00"> t</text>
</g>
<!-- Node11&#45;&gt;Node1 -->
<g id="edge31" class="edge">
<title>Node11&#45;&gt;Node1</title>
<path fill="none" stroke="#9a32cd" stroke-dasharray="5,2" d="M102.19,-59.69C127.16,-61.23 155.95,-67.73 174,-87.11 231.23,-148.56 230.4,-436.61 229.66,-493.38"/>
<polygon fill="#9a32cd" stroke="#9a32cd" points="102.25,-56.19 92.12,-59.32 101.99,-63.19 102.25,-56.19"/>
<text text-anchor="middle" x="148" y="-90.11" font-family="Helvetica,sans-Serif" font-size="10.00"> t</text>
</g>
<!-- Node12 -->
<g id="node12" class="node">
<title>Node12</title>
<g id="a_node12"><a xlink:title=" ">
<polygon fill="none" stroke="#bfbfbf" points="33,-1.61 33,-20.61 71,-20.61 71,-1.61 33,-1.61"/>
<text text-anchor="middle" x="52" y="-8.61" font-family="Helvetica,sans-Serif" font-size="10.00">float</text>
</a>
</g>
</g>
<!-- Node12&#45;&gt;Node1 -->
<g id="edge15" class="edge">
<title>Node12&#45;&gt;Node1</title>
<path fill="none" stroke="#9a32cd" stroke-dasharray="5,2" d="M81.2,-3.8C108.65,1.45 149.67,4.07 174,-19.11 209.74,-53.17 226.46,-427.76 229.12,-493.34"/>
<polygon fill="#9a32cd" stroke="#9a32cd" points="80.45,-0.38 71.41,-5.9 81.92,-7.23 80.45,-0.38"/>
<text text-anchor="middle" x="148" y="-22.11" font-family="Helvetica,sans-Serif" font-size="10.00"> ref</text>
</g>
<!-- Node13 -->
<g id="node13" class="node">
<title>Node13</title>
<g id="a_node13"><a xlink:title=" ">
<polygon fill="none" stroke="#bfbfbf" points="32,-714.61 32,-733.61 72,-733.61 72,-714.61 32,-714.61"/>
<text text-anchor="middle" x="52" y="-721.61" font-family="Helvetica,sans-Serif" font-size="10.00">Field</text>
</a>
</g>
</g>
<!-- Node13&#45;&gt;Node1 -->
<g id="edge17" class="edge">
<title>Node13&#45;&gt;Node1</title>
<path fill="none" stroke="#9a32cd" stroke-dasharray="5,2" d="M82.19,-725.52C109.4,-725.2 149.39,-720.31 174,-697.11 228.55,-645.69 230.68,-544.67 229.91,-512.91"/>
<polygon fill="#9a32cd" stroke="#9a32cd" points="82.12,-722.02 72.09,-725.44 82.06,-729.02 82.12,-722.02"/>
<text text-anchor="middle" x="148" y="-724.11" font-family="Helvetica,sans-Serif" font-size="10.00"> flist</text>
</g>
<!-- Node14 -->
<g id="node14" class="node">
<title>Node14</title>
<g id="a_node14"><a xlink:title=" ">
<polygon fill="none" stroke="#bfbfbf" points="12,-661.61 12,-680.61 92,-680.61 92,-661.61 12,-661.61"/>
<text text-anchor="middle" x="52" y="-668.61" font-family="Helvetica,sans-Serif" font-size="10.00">anonymous:l</text>
</a>
</g>
</g>
<!-- Node14&#45;&gt;Node1 -->
<g id="edge19" class="edge">
<title>Node14&#45;&gt;Node1</title>
<path fill="none" stroke="#9a32cd" stroke-dasharray="5,2" d="M101.74,-661.8C125.92,-655.07 154.12,-643.76 174,-625.11 208.28,-592.95 223.02,-535.58 227.71,-512.81"/>
<polygon fill="#9a32cd" stroke="#9a32cd" points="100.81,-658.43 92.01,-664.33 102.57,-665.2 100.81,-658.43"/>
<text text-anchor="middle" x="148" y="-657.11" font-family="Helvetica,sans-Serif" font-size="10.00"> l</text>
</g>
<!-- Node14&#45;&gt;Node1 -->
<g id="edge22" class="edge">
<title>Node14&#45;&gt;Node1</title>
<path fill="none" stroke="#9a32cd" stroke-dasharray="5,2" d="M100.76,-682.01C124.89,-684.73 153.36,-683.34 174,-668.11 225.56,-630.08 229.79,-541.88 229.71,-512.69"/>
<polygon fill="#9a32cd" stroke="#9a32cd" points="101.1,-678.53 90.71,-680.63 100.14,-685.46 101.1,-678.53"/>
<text text-anchor="middle" x="148" y="-685.11" font-family="Helvetica,sans-Serif" font-size="10.00"> l</text>
</g>
<!-- Node15 -->
<g id="node15" class="node">
<title>Node15</title>
<g id="a_node15"><a xlink:title=" ">
<polygon fill="none" stroke="#bfbfbf" points="10.5,-595.61 10.5,-614.61 93.5,-614.61 93.5,-595.61 10.5,-595.61"/>
<text text-anchor="middle" x="52" y="-602.61" font-family="Helvetica,sans-Serif" font-size="10.00">anonymous:u</text>
</a>
</g>
</g>
<!-- Node15&#45;&gt;Node1 -->
<g id="edge20" class="edge">
<title>Node15&#45;&gt;Node1</title>
<path fill="none" stroke="#9a32cd" stroke-dasharray="5,2" d="M93.18,-592.13C117.59,-583.31 148.8,-570.3 174,-554.11 192.5,-542.23 210.62,-523.98 220.89,-512.84"/>
<polygon fill="#9a32cd" stroke="#9a32cd" points="91.78,-588.92 83.51,-595.54 94.11,-595.52 91.78,-588.92"/>
<text text-anchor="middle" x="148" y="-583.11" font-family="Helvetica,sans-Serif" font-size="10.00"> u</text>
</g>
<!-- Node15&#45;&gt;Node1 -->
<g id="edge36" class="edge">
<title>Node15&#45;&gt;Node1</title>
<path fill="none" stroke="#9a32cd" stroke-dasharray="5,2" d="M104,-610.98C126.94,-611.2 153.42,-607.88 174,-595.11 205.07,-575.84 221.1,-532.15 226.9,-512.73"/>
<polygon fill="#9a32cd" stroke="#9a32cd" points="103.85,-607.48 93.74,-610.66 103.62,-614.47 103.85,-607.48"/>
<text text-anchor="middle" x="148" y="-613.11" font-family="Helvetica,sans-Serif" font-size="10.00"> u</text>
</g>
<!-- Node16 -->
<g id="node16" class="node">
<title>Node16</title>
<g id="a_node16"><a xlink:title=" ">
<polygon fill="none" stroke="#bfbfbf" points="11,-529.61 11,-548.61 93,-548.61 93,-529.61 11,-529.61"/>
<text text-anchor="middle" x="52" y="-536.61" font-family="Helvetica,sans-Serif" font-size="10.00">anonymous:s</text>
</a>
</g>
</g>
<!-- Node16&#45;&gt;Node1 -->
<g id="edge21" class="edge">
<title>Node16&#45;&gt;Node1</title>
<path fill="none" stroke="#9a32cd" stroke-dasharray="5,2" d="M97.09,-526.98C105.34,-524.89 113.91,-522.84 122,-521.11 149.76,-515.18 181.89,-510.02 203.75,-506.76"/>
<polygon fill="#9a32cd" stroke="#9a32cd" points="96.05,-523.64 87.25,-529.53 97.81,-530.42 96.05,-523.64"/>
<text text-anchor="middle" x="148" y="-524.11" font-family="Helvetica,sans-Serif" font-size="10.00"> s</text>
</g>
<!-- Node16&#45;&gt;Node1 -->
<g id="edge27" class="edge">
<title>Node16&#45;&gt;Node1</title>
<path fill="none" stroke="#9a32cd" stroke-dasharray="5,2" d="M103.34,-540.92C125.38,-540.51 151.33,-538.38 174,-532.11 188.88,-528 204.33,-519.53 215.14,-512.8"/>
<polygon fill="#9a32cd" stroke="#9a32cd" points="103.17,-537.42 93.2,-540.99 103.22,-544.42 103.17,-537.42"/>
<text text-anchor="middle" x="148" y="-542.11" font-family="Helvetica,sans-Serif" font-size="10.00"> s</text>
</g>
<!-- Node17 -->
<g id="node17" class="node">
<title>Node17</title>
<g id="a_node17"><a xlink:title=" ">
<polygon fill="none" stroke="#bfbfbf" points="32.5,-476.61 32.5,-495.61 71.5,-495.61 71.5,-476.61 32.5,-476.61"/>
<text text-anchor="middle" x="52" y="-483.61" font-family="Helvetica,sans-Serif" font-size="10.00">Type</text>
</a>
</g>
</g>
<!-- Node17&#45;&gt;Node1 -->
<g id="edge23" class="edge">
<title>Node17&#45;&gt;Node1</title>
<path fill="none" stroke="#9a32cd" stroke-dasharray="5,2" d="M81.67,-484.17C106.3,-483.02 142.67,-482.56 174,-487.11 183.92,-488.56 194.56,-491.31 203.84,-494.14"/>
<polygon fill="#9a32cd" stroke="#9a32cd" points="81.37,-480.68 71.57,-484.71 81.74,-487.67 81.37,-480.68"/>
<text text-anchor="middle" x="148" y="-490.11" font-family="Helvetica,sans-Serif" font-size="10.00"> type</text>
</g>
<!-- Node18 -->
<g id="node18" class="node">
<title>Node18</title>
<g id="a_node18"><a xlink:title=" ">
<polygon fill="none" stroke="#bfbfbf" points="11,-423.61 11,-442.61 93,-442.61 93,-423.61 11,-423.61"/>
<text text-anchor="middle" x="52" y="-430.61" font-family="Helvetica,sans-Serif" font-size="10.00">anonymous:c</text>
</a>
</g>
</g>
<!-- Node18&#45;&gt;Node1 -->
<g id="edge25" class="edge">
<title>Node18&#45;&gt;Node1</title>
<path fill="none" stroke="#9a32cd" stroke-dasharray="5,2" d="M84.1,-420.03C109.72,-411.4 146.21,-404.17 174,-419.11 203.86,-435.18 220.34,-475.13 226.57,-493.54"/>
<polygon fill="#9a32cd" stroke="#9a32cd" points="82.73,-416.8 74.52,-423.5 85.11,-423.39 82.73,-416.8"/>
<text text-anchor="middle" x="148" y="-422.11" font-family="Helvetica,sans-Serif" font-size="10.00"> c</text>
</g>
<!-- Node18&#45;&gt;Node1 -->
<g id="edge32" class="edge">
<title>Node18&#45;&gt;Node1</title>
<path fill="none" stroke="#9a32cd" stroke-dasharray="5,2" d="M103.14,-444.24C125.36,-450.02 151.51,-458.01 174,-468.11 189.38,-475.02 205.53,-485.64 216.41,-493.37"/>
<polygon fill="#9a32cd" stroke="#9a32cd" points="103.79,-440.79 93.24,-441.74 102.07,-447.58 103.79,-440.79"/>
<text text-anchor="middle" x="148" y="-471.11" font-family="Helvetica,sans-Serif" font-size="10.00"> c</text>
</g>
<!-- Node19 -->
<g id="node19" class="node">
<title>Node19</title>
<g id="a_node19"><a xlink:title=" ">
<polygon fill="none" stroke="#bfbfbf" points="0,-310.61 0,-329.61 104,-329.61 104,-310.61 0,-310.61"/>
<text text-anchor="middle" x="52" y="-317.61" font-family="Helvetica,sans-Serif" font-size="10.00">anonymous:limits</text>
</a>
</g>
</g>
<!-- Node19&#45;&gt;Node1 -->
<g id="edge26" class="edge">
<title>Node19&#45;&gt;Node1</title>
<path fill="none" stroke="#9a32cd" stroke-dasharray="5,2" d="M81.44,-306.45C108.04,-295.87 147.54,-286.08 174,-306.11 205.02,-329.6 223.58,-457.07 228.3,-493.43"/>
<polygon fill="#9a32cd" stroke="#9a32cd" points="79.77,-303.36 71.93,-310.48 82.5,-309.8 79.77,-303.36"/>
<text text-anchor="middle" x="148" y="-309.11" font-family="Helvetica,sans-Serif" font-size="10.00"> limits</text>
</g>
<!-- Node19&#45;&gt;Node1 -->
<g id="edge30" class="edge">
<title>Node19&#45;&gt;Node1</title>
<path fill="none" stroke="#9a32cd" stroke-dasharray="5,2" d="M113.97,-324.74C135.13,-329.1 157.63,-337.21 174,-352.11 216.96,-391.22 226.75,-466.46 228.91,-493.3"/>
<polygon fill="#9a32cd" stroke="#9a32cd" points="114.51,-321.28 104.05,-322.94 113.26,-328.17 114.51,-321.28"/>
<text text-anchor="middle" x="148" y="-355.11" font-family="Helvetica,sans-Serif" font-size="10.00"> limits</text>
</g>
<!-- Node20 -->
<g id="node20" class="node">
<title>Node20</title>
<g id="a_node20"><a xlink:title=" ">
<polygon fill="none" stroke="#bfbfbf" points="31,-193.61 31,-212.61 73,-212.61 73,-193.61 31,-193.61"/>
<text text-anchor="middle" x="52" y="-200.61" font-family="Helvetica,sans-Serif" font-size="10.00">Table</text>
</a>
</g>
</g>
<!-- Node20&#45;&gt;Node1 -->
<g id="edge28" class="edge">
<title>Node20&#45;&gt;Node1</title>
<path fill="none" stroke="#9a32cd" stroke-dasharray="5,2" d="M83.5,-195.72C110.62,-191.1 149.64,-189.56 174,-211.11 217.57,-249.67 227.44,-446.87 229.18,-493.31"/>
<polygon fill="#9a32cd" stroke="#9a32cd" points="82.54,-192.34 73.39,-197.68 83.87,-199.21 82.54,-192.34"/>
<text text-anchor="middle" x="148" y="-214.11" font-family="Helvetica,sans-Serif" font-size="10.00"> ftab</text>
</g>
<!-- Node21 -->
<g id="node21" class="node">
<title>Node21</title>
<g id="a_node21"><a xlink:title=" ">
<polygon fill="none" stroke="#bfbfbf" points="30,-139.61 30,-158.61 74,-158.61 74,-139.61 30,-139.61"/>
<text text-anchor="middle" x="52" y="-146.61" font-family="Helvetica,sans-Serif" font-size="10.00">Value</text>
</a>
</g>
</g>
<!-- Node21&#45;&gt;Node1 -->
<g id="edge33" class="edge">
<title>Node21&#45;&gt;Node1</title>
<path fill="none" stroke="#9a32cd" stroke-dasharray="5,2" d="M84.15,-140.85C111.3,-135.69 149.98,-133.57 174,-155.11 226.04,-201.78 229.4,-442.39 229.52,-493.54"/>
<polygon fill="#9a32cd" stroke="#9a32cd" points="83.42,-137.43 74.37,-142.93 84.88,-144.28 83.42,-137.43"/>
<text text-anchor="middle" x="148" y="-180.11" font-family="Helvetica,sans-Serif" font-size="10.00"> min</text>
<text text-anchor="middle" x="148" y="-169.11" font-family="Helvetica,sans-Serif" font-size="10.00">max</text>
<text text-anchor="middle" x="148" y="-158.11" font-family="Helvetica,sans-Serif" font-size="10.00">v</text>
</g>
<!-- Node22 -->
<g id="node22" class="node">
<title>Node22</title>
<g id="a_node22"><a xlink:title=" ">
<polygon fill="none" stroke="#bfbfbf" points="35,-101.61 35,-120.61 69,-120.61 69,-101.61 35,-101.61"/>
<text text-anchor="middle" x="52" y="-108.61" font-family="Helvetica,sans-Serif" font-size="10.00">List</text>
</a>
</g>
</g>
<!-- Node22&#45;&gt;Node1 -->
<g id="edge34" class="edge">
<title>Node22&#45;&gt;Node1</title>
<path fill="none" stroke="#9a32cd" stroke-dasharray="5,2" d="M79.26,-105.08C106.64,-100.48 148.99,-98.42 174,-122.11 229.68,-174.87 230.13,-439.24 229.63,-493.41"/>
<polygon fill="#9a32cd" stroke="#9a32cd" points="78.39,-101.68 69.22,-106.99 79.7,-108.56 78.39,-101.68"/>
<text text-anchor="middle" x="148" y="-125.11" font-family="Helvetica,sans-Serif" font-size="10.00"> uses</text>
</g>
</g>
</svg>
