<?xml version="1.0" encoding="UTF-8" standalone="no"?>
<!DOCTYPE svg PUBLIC "-//W3C//DTD SVG 1.1//EN"
 "http://www.w3.org/Graphics/SVG/1.1/DTD/svg11.dtd">
<!-- Generated by graphviz version 2.43.0 (0)
 -->
<!-- Title: Tools/MinGW/include/c++/4.6.1/bits/unique_ptr.h Pages: 1 -->
<svg width="482pt" height="151pt"
 viewBox="0.00 0.00 481.50 151.00" xmlns="http://www.w3.org/2000/svg" xmlns:xlink="http://www.w3.org/1999/xlink">
<g id="graph0" class="graph" transform="scale(1 1) rotate(0) translate(4 147)">
<title>Tools/MinGW/include/c++/4.6.1/bits/unique_ptr.h</title>
<!-- Node1 -->
<g id="node1" class="node">
<title>Node1</title>
<g id="a_node1"><a xlink:title=" ">
<polygon fill="#bfbfbf" stroke="black" points="241,-112.5 241,-142.5 393,-142.5 393,-112.5 241,-112.5"/>
<text text-anchor="start" x="249" y="-130.5" font-family="Helvetica,sans-Serif" font-size="10.00">Tools/MinGW/include</text>
<text text-anchor="middle" x="317" y="-119.5" font-family="Helvetica,sans-Serif" font-size="10.00">/c++/4.6.1/bits/unique_ptr.h</text>
</a>
</g>
</g>
<!-- Node2 -->
<g id="node2" class="node">
<title>Node2</title>
<g id="a_node2"><a xlink:href="../../d1/db9/c_09_09config_8h.html" target="_top" xlink:title=" ">
<polygon fill="none" stroke="black" points="59,-56.5 59,-75.5 157,-75.5 157,-56.5 59,-56.5"/>
<text text-anchor="middle" x="108" y="-63.5" font-family="Helvetica,sans-Serif" font-size="10.00">bits/c++config.h</text>
</a>
</g>
</g>
<!-- Node1&#45;&gt;Node2 -->
<g id="edge1" class="edge">
<title>Node1&#45;&gt;Node2</title>
<path fill="none" stroke="midnightblue" d="M267.73,-112.47C231.05,-102.03 181.62,-87.96 147.51,-78.25"/>
<polygon fill="midnightblue" stroke="midnightblue" points="148.46,-74.88 137.88,-75.51 146.54,-81.61 148.46,-74.88"/>
</g>
<!-- Node5 -->
<g id="node5" class="node">
<title>Node5</title>
<g id="a_node5"><a xlink:href="../../db/d16/debug_8h.html" target="_top" xlink:title=" ">
<polygon fill="none" stroke="black" points="175.5,-56.5 175.5,-75.5 264.5,-75.5 264.5,-56.5 175.5,-56.5"/>
<text text-anchor="middle" x="220" y="-63.5" font-family="Helvetica,sans-Serif" font-size="10.00">debug/debug.h</text>
</a>
</g>
</g>
<!-- Node1&#45;&gt;Node5 -->
<g id="edge4" class="edge">
<title>Node1&#45;&gt;Node5</title>
<path fill="none" stroke="midnightblue" d="M294.01,-112.4C278.61,-102.95 258.41,-90.56 243,-81.11"/>
<polygon fill="midnightblue" stroke="midnightblue" points="244.47,-77.9 234.11,-75.66 240.81,-83.87 244.47,-77.9"/>
</g>
<!-- Node6 -->
<g id="node6" class="node">
<title>Node6</title>
<g id="a_node6"><a xlink:title=" ">
<polygon fill="none" stroke="#bfbfbf" points="282.5,-56.5 282.5,-75.5 351.5,-75.5 351.5,-56.5 282.5,-56.5"/>
<text text-anchor="middle" x="317" y="-63.5" font-family="Helvetica,sans-Serif" font-size="10.00">type_traits</text>
</a>
</g>
</g>
<!-- Node1&#45;&gt;Node6 -->
<g id="edge5" class="edge">
<title>Node1&#45;&gt;Node6</title>
<path fill="none" stroke="midnightblue" d="M317,-112.4C317,-104.47 317,-94.46 317,-85.86"/>
<polygon fill="midnightblue" stroke="midnightblue" points="320.5,-85.66 317,-75.66 313.5,-85.66 320.5,-85.66"/>
</g>
<!-- Node7 -->
<g id="node7" class="node">
<title>Node7</title>
<g id="a_node7"><a xlink:title=" ">
<polygon fill="none" stroke="#bfbfbf" points="369.5,-56.5 369.5,-75.5 414.5,-75.5 414.5,-56.5 369.5,-56.5"/>
<text text-anchor="middle" x="392" y="-63.5" font-family="Helvetica,sans-Serif" font-size="10.00">utility</text>
</a>
</g>
</g>
<!-- Node1&#45;&gt;Node7 -->
<g id="edge6" class="edge">
<title>Node1&#45;&gt;Node7</title>
<path fill="none" stroke="midnightblue" d="M334.77,-112.4C346.35,-103.22 361.42,-91.26 373.2,-81.92"/>
<polygon fill="midnightblue" stroke="midnightblue" points="375.43,-84.61 381.09,-75.66 371.08,-79.13 375.43,-84.61"/>
</g>
<!-- Node8 -->
<g id="node8" class="node">
<title>Node8</title>
<g id="a_node8"><a xlink:title=" ">
<polygon fill="none" stroke="#bfbfbf" points="432.5,-56.5 432.5,-75.5 473.5,-75.5 473.5,-56.5 432.5,-56.5"/>
<text text-anchor="middle" x="453" y="-63.5" font-family="Helvetica,sans-Serif" font-size="10.00">tuple</text>
</a>
</g>
</g>
<!-- Node1&#45;&gt;Node8 -->
<g id="edge7" class="edge">
<title>Node1&#45;&gt;Node8</title>
<path fill="none" stroke="midnightblue" d="M349.23,-112.4C371.84,-102.51 401.84,-89.38 423.76,-79.79"/>
<polygon fill="midnightblue" stroke="midnightblue" points="425.45,-82.87 433.21,-75.66 422.65,-76.46 425.45,-82.87"/>
</g>
<!-- Node3 -->
<g id="node3" class="node">
<title>Node3</title>
<g id="a_node3"><a xlink:href="../../d5/d0b/os__defines_8h.html" target="_top" xlink:title=" ">
<polygon fill="none" stroke="black" points="0,-0.5 0,-19.5 98,-19.5 98,-0.5 0,-0.5"/>
<text text-anchor="middle" x="49" y="-7.5" font-family="Helvetica,sans-Serif" font-size="10.00">bits/os_defines.h</text>
</a>
</g>
</g>
<!-- Node2&#45;&gt;Node3 -->
<g id="edge2" class="edge">
<title>Node2&#45;&gt;Node3</title>
<path fill="none" stroke="midnightblue" d="M98.52,-56.32C89.8,-48.34 76.66,-36.31 66.1,-26.65"/>
<polygon fill="midnightblue" stroke="midnightblue" points="68.39,-24 58.65,-19.83 63.67,-29.17 68.39,-24"/>
</g>
<!-- Node4 -->
<g id="node4" class="node">
<title>Node4</title>
<g id="a_node4"><a xlink:href="../../d0/d75/cpu__defines_8h.html" target="_top" xlink:title=" ">
<polygon fill="none" stroke="black" points="116,-0.5 116,-19.5 220,-19.5 220,-0.5 116,-0.5"/>
<text text-anchor="middle" x="168" y="-7.5" font-family="Helvetica,sans-Serif" font-size="10.00">bits/cpu_defines.h</text>
</a>
</g>
</g>
<!-- Node2&#45;&gt;Node4 -->
<g id="edge3" class="edge">
<title>Node2&#45;&gt;Node4</title>
<path fill="none" stroke="midnightblue" d="M117.64,-56.32C126.51,-48.34 139.87,-36.31 150.61,-26.65"/>
<polygon fill="midnightblue" stroke="midnightblue" points="153.09,-29.13 158.18,-19.83 148.41,-23.92 153.09,-29.13"/>
</g>
</g>
</svg>
