<?xml version="1.0" encoding="UTF-8" standalone="no"?>
<!DOCTYPE svg PUBLIC "-//W3C//DTD SVG 1.1//EN"
 "http://www.w3.org/Graphics/SVG/1.1/DTD/svg11.dtd">
<!-- Generated by graphviz version 2.43.0 (0)
 -->
<!-- Title: _SI_INHERIT_TYPE Pages: 1 -->
<svg width="396pt" height="126pt"
 viewBox="0.00 0.00 396.00 126.00" xmlns="http://www.w3.org/2000/svg" xmlns:xlink="http://www.w3.org/1999/xlink">
<g id="graph0" class="graph" transform="scale(1 1) rotate(0) translate(4 122)">
<title>_SI_INHERIT_TYPE</title>
<!-- Node1 -->
<g id="node1" class="node">
<title>Node1</title>
<g id="a_node1"><a xlink:title=" ">
<polygon fill="#bfbfbf" stroke="black" points="283,-60.5 283,-79.5 388,-79.5 388,-60.5 283,-60.5"/>
<text text-anchor="middle" x="335.5" y="-67.5" font-family="Helvetica,sans-Serif" font-size="10.00">_SI_INHERIT_TYPE</text>
</a>
</g>
</g>
<!-- Node2 -->
<g id="node2" class="node">
<title>Node2</title>
<g id="a_node2"><a xlink:title=" ">
<polygon fill="none" stroke="#bfbfbf" points="54.5,-98.5 54.5,-117.5 143.5,-117.5 143.5,-98.5 54.5,-98.5"/>
<text text-anchor="middle" x="99" y="-105.5" font-family="Helvetica,sans-Serif" font-size="10.00">unsigned short</text>
</a>
</g>
</g>
<!-- Node2&#45;&gt;Node1 -->
<g id="edge1" class="edge">
<title>Node2&#45;&gt;Node1</title>
<path fill="none" stroke="#9a32cd" stroke-dasharray="5,2" d="M153.71,-101.54C186.05,-97.39 228,-91.56 265,-85 273.99,-83.4 283.6,-81.48 292.7,-79.55"/>
<polygon fill="#9a32cd" stroke="#9a32cd" points="153.04,-98.09 143.56,-102.82 153.92,-105.04 153.04,-98.09"/>
<text text-anchor="middle" x="240.5" y="-95" font-family="Helvetica,sans-Serif" font-size="10.00"> pszName</text>
</g>
<!-- Node3 -->
<g id="node3" class="node">
<title>Node3</title>
<g id="a_node3"><a xlink:title=" ">
<polygon fill="none" stroke="#bfbfbf" points="78,-60.5 78,-79.5 120,-79.5 120,-60.5 78,-60.5"/>
<text text-anchor="middle" x="99" y="-67.5" font-family="Helvetica,sans-Serif" font-size="10.00">GUID</text>
</a>
</g>
</g>
<!-- Node3&#45;&gt;Node1 -->
<g id="edge2" class="edge">
<title>Node3&#45;&gt;Node1</title>
<path fill="none" stroke="#9a32cd" stroke-dasharray="5,2" d="M130.49,-70C169.07,-70 236.1,-70 282.75,-70"/>
<polygon fill="#9a32cd" stroke="#9a32cd" points="130.4,-66.5 120.4,-70 130.4,-73.5 130.4,-66.5"/>
<text text-anchor="middle" x="240.5" y="-73" font-family="Helvetica,sans-Serif" font-size="10.00"> pguid</text>
</g>
<!-- Node4 -->
<g id="node4" class="node">
<title>Node4</title>
<g id="a_node4"><a xlink:title=" ">
<polygon fill="none" stroke="#bfbfbf" points="0,-0.5 0,-41.5 198,-41.5 198,-0.5 0,-0.5"/>
<text text-anchor="start" x="8" y="-29.5" font-family="Helvetica,sans-Serif" font-size="10.00">PSecurityUserData *typedef</text>
<text text-anchor="start" x="8" y="-18.5" font-family="Helvetica,sans-Serif" font-size="10.00"> PSECPKG_EXTENDED_INFORMATION</text>
<text text-anchor="middle" x="99" y="-7.5" font-family="Helvetica,sans-Serif" font-size="10.00"> *typedef</text>
</a>
</g>
</g>
<!-- Node4&#45;&gt;Node1 -->
<g id="edge3" class="edge">
<title>Node4&#45;&gt;Node1</title>
<path fill="none" stroke="#9a32cd" stroke-dasharray="5,2" d="M208.05,-43.11C227.04,-47.04 246.6,-51.12 265,-55 273.33,-56.76 282.22,-58.66 290.77,-60.5"/>
<polygon fill="#9a32cd" stroke="#9a32cd" points="208.69,-39.67 198.19,-41.08 207.27,-46.53 208.69,-39.67"/>
<text text-anchor="middle" x="240.5" y="-58" font-family="Helvetica,sans-Serif" font-size="10.00"> dwFlags</text>
</g>
</g>
</svg>
