<?xml version="1.0" encoding="UTF-8" standalone="no"?>
<!DOCTYPE svg PUBLIC "-//W3C//DTD SVG 1.1//EN"
 "http://www.w3.org/Graphics/SVG/1.1/DTD/svg11.dtd">
<!-- Generated by graphviz version 2.43.0 (0)
 -->
<!-- Title: Engine/jpeg&#45;8c/jpeglib.h Pages: 1 -->
<svg width="300pt" height="84pt"
 viewBox="0.00 0.00 299.50 84.00" xmlns="http://www.w3.org/2000/svg" xmlns:xlink="http://www.w3.org/1999/xlink">
<g id="graph0" class="graph" transform="scale(1 1) rotate(0) translate(4 80)">
<title>Engine/jpeg&#45;8c/jpeglib.h</title>
<!-- Node1 -->
<g id="node1" class="node">
<title>Node1</title>
<g id="a_node1"><a xlink:title=" ">
<polygon fill="#bfbfbf" stroke="black" points="85.5,-56.5 85.5,-75.5 219.5,-75.5 219.5,-56.5 85.5,-56.5"/>
<text text-anchor="middle" x="152.5" y="-63.5" font-family="Helvetica,sans-Serif" font-size="10.00">Engine/jpeg&#45;8c/jpeglib.h</text>
</a>
</g>
</g>
<!-- Node2 -->
<g id="node2" class="node">
<title>Node2</title>
<g id="a_node2"><a xlink:href="../../d2/d93/Engine_2jpeg-8c_2jmorecfg_8h.html" target="_top" xlink:title=" ">
<polygon fill="none" stroke="black" points="0,-0.5 0,-19.5 69,-19.5 69,-0.5 0,-0.5"/>
<text text-anchor="middle" x="34.5" y="-7.5" font-family="Helvetica,sans-Serif" font-size="10.00">jmorecfg.h</text>
</a>
</g>
</g>
<!-- Node1&#45;&gt;Node2 -->
<g id="edge1" class="edge">
<title>Node1&#45;&gt;Node2</title>
<path fill="none" stroke="midnightblue" d="M133.8,-56.44C114.56,-47.64 84.35,-33.81 62.3,-23.72"/>
<polygon fill="midnightblue" stroke="midnightblue" points="63.66,-20.5 53.11,-19.52 60.75,-26.86 63.66,-20.5"/>
</g>
<!-- Node3 -->
<g id="node3" class="node">
<title>Node3</title>
<g id="a_node3"><a xlink:href="../../dc/ddf/Engine_2jpeg-8c_2jpegint_8h.html" target="_top" xlink:title=" ">
<polygon fill="none" stroke="black" points="87,-0.5 87,-19.5 146,-19.5 146,-0.5 87,-0.5"/>
<text text-anchor="middle" x="116.5" y="-7.5" font-family="Helvetica,sans-Serif" font-size="10.00">jpegint.h</text>
</a>
</g>
</g>
<!-- Node1&#45;&gt;Node3 -->
<g id="edge2" class="edge">
<title>Node1&#45;&gt;Node3</title>
<path fill="none" stroke="midnightblue" d="M146.56,-56.08C141.52,-48.53 134.16,-37.49 127.99,-28.23"/>
<polygon fill="midnightblue" stroke="midnightblue" points="130.79,-26.13 122.33,-19.75 124.97,-30.01 130.79,-26.13"/>
</g>
<!-- Node4 -->
<g id="node4" class="node">
<title>Node4</title>
<g id="a_node4"><a xlink:href="../../d6/d15/Engine_2jpeg-8c_2jerror_8h.html" target="_top" xlink:title=" ">
<polygon fill="none" stroke="black" points="164,-0.5 164,-19.5 215,-19.5 215,-0.5 164,-0.5"/>
<text text-anchor="middle" x="189.5" y="-7.5" font-family="Helvetica,sans-Serif" font-size="10.00">jerror.h</text>
</a>
</g>
</g>
<!-- Node1&#45;&gt;Node4 -->
<g id="edge3" class="edge">
<title>Node1&#45;&gt;Node4</title>
<path fill="none" stroke="midnightblue" d="M158.61,-56.08C163.78,-48.53 171.35,-37.49 177.69,-28.23"/>
<polygon fill="midnightblue" stroke="midnightblue" points="180.74,-29.98 183.5,-19.75 174.96,-26.02 180.74,-29.98"/>
</g>
<!-- Node5 -->
<g id="node5" class="node">
<title>Node5</title>
<g id="a_node5"><a xlink:href="../../dc/da4/Engine_2jpeg-8c_2jconfig_8h.html" target="_top" xlink:title=" ">
<polygon fill="none" stroke="black" points="233.5,-0.5 233.5,-19.5 291.5,-19.5 291.5,-0.5 233.5,-0.5"/>
<text text-anchor="middle" x="262.5" y="-7.5" font-family="Helvetica,sans-Serif" font-size="10.00">jconfig.h</text>
</a>
</g>
</g>
<!-- Node1&#45;&gt;Node5 -->
<g id="edge4" class="edge">
<title>Node1&#45;&gt;Node5</title>
<path fill="none" stroke="midnightblue" d="M170.17,-56.32C187.89,-47.62 215.4,-34.12 235.79,-24.11"/>
<polygon fill="midnightblue" stroke="midnightblue" points="237.44,-27.2 244.87,-19.65 234.35,-20.92 237.44,-27.2"/>
</g>
</g>
</svg>
