<?xml version="1.0" encoding="UTF-8" standalone="no"?>
<!DOCTYPE svg PUBLIC "-//W3C//DTD SVG 1.1//EN"
 "http://www.w3.org/Graphics/SVG/1.1/DTD/svg11.dtd">
<!-- Generated by graphviz version 2.43.0 (0)
 -->
<!-- Title: Comb_Hash_Fn Pages: 1 -->
<svg width="282pt" height="274pt"
 viewBox="0.00 0.00 282.00 274.00" xmlns="http://www.w3.org/2000/svg" xmlns:xlink="http://www.w3.org/1999/xlink">
<g id="graph0" class="graph" transform="scale(1 1) rotate(0) translate(4 270)">
<title>Comb_Hash_Fn</title>
<!-- Node1 -->
<g id="node1" class="node">
<title>Node1</title>
<g id="a_node1"><a xlink:title=" ">
<polygon fill="#bfbfbf" stroke="black" points="0,-123 0,-142 92,-142 92,-123 0,-123"/>
<text text-anchor="middle" x="46" y="-130" font-family="Helvetica,sans-Serif" font-size="10.00">Comb_Hash_Fn</text>
</a>
</g>
</g>
<!-- Node2 -->
<g id="node2" class="node">
<title>Node2</title>
<g id="a_node2"><a xlink:href="../../d2/d94/class____gnu__pbds_1_1detail_1_1ranged__hash__fn_3_01Key_00_01Hash__Fn_00_01Allocator_00_01Comb__Hash__Fn_00_01false_01_4.html" target="_top" xlink:title="Specialization 1 The client supplies a hash function and a ranged hash function, and requests that ha...">
<polygon fill="none" stroke="black" points="128,-213.5 128,-265.5 274,-265.5 274,-213.5 128,-213.5"/>
<text text-anchor="start" x="136" y="-253.5" font-family="Helvetica,sans-Serif" font-size="10.00">__gnu_pbds::detail</text>
<text text-anchor="start" x="136" y="-242.5" font-family="Helvetica,sans-Serif" font-size="10.00">::ranged_hash_fn&lt; Key,</text>
<text text-anchor="start" x="136" y="-231.5" font-family="Helvetica,sans-Serif" font-size="10.00"> Hash_Fn, Allocator, Comb</text>
<text text-anchor="middle" x="201" y="-220.5" font-family="Helvetica,sans-Serif" font-size="10.00">_Hash_Fn, false &gt;</text>
</a>
</g>
</g>
<!-- Node1&#45;&gt;Node2 -->
<g id="edge1" class="edge">
<title>Node1&#45;&gt;Node2</title>
<path fill="none" stroke="midnightblue" d="M63.56,-149.71C79.18,-165.32 103.76,-188.29 128,-204.5 132.62,-207.59 137.56,-210.57 142.59,-213.4"/>
<polygon fill="midnightblue" stroke="midnightblue" points="65.77,-146.96 56.26,-142.3 60.78,-151.88 65.77,-146.96"/>
</g>
<!-- Node3 -->
<g id="node3" class="node">
<title>Node3</title>
<g id="a_node3"><a xlink:href="../../dd/d4e/class____gnu__pbds_1_1detail_1_1ranged__hash__fn_3_01Key_00_01Hash__Fn_00_01Allocator_00_01Comb__Hash__Fn_00_01true_01_4.html" target="_top" xlink:title="Specialization 2 The client supplies a hash function and a ranged hash function, and requests that ha...">
<polygon fill="none" stroke="black" points="128,-142.5 128,-194.5 274,-194.5 274,-142.5 128,-142.5"/>
<text text-anchor="start" x="136" y="-182.5" font-family="Helvetica,sans-Serif" font-size="10.00">__gnu_pbds::detail</text>
<text text-anchor="start" x="136" y="-171.5" font-family="Helvetica,sans-Serif" font-size="10.00">::ranged_hash_fn&lt; Key,</text>
<text text-anchor="start" x="136" y="-160.5" font-family="Helvetica,sans-Serif" font-size="10.00"> Hash_Fn, Allocator, Comb</text>
<text text-anchor="middle" x="201" y="-149.5" font-family="Helvetica,sans-Serif" font-size="10.00">_Hash_Fn, true &gt;</text>
</a>
</g>
</g>
<!-- Node1&#45;&gt;Node3 -->
<g id="edge2" class="edge">
<title>Node1&#45;&gt;Node3</title>
<path fill="none" stroke="midnightblue" d="M97.48,-144.38C107.21,-146.67 117.58,-149.11 127.84,-151.52"/>
<polygon fill="midnightblue" stroke="midnightblue" points="98.14,-140.94 87.6,-142.05 96.53,-147.75 98.14,-140.94"/>
</g>
<!-- Node4 -->
<g id="node4" class="node">
<title>Node4</title>
<g id="a_node4"><a xlink:href="../../db/d30/class____gnu__pbds_1_1detail_1_1ranged__hash__fn_3_01Key_00_01null__hash__fn_00_01Allocator_00_01Comb__Hash__Fn_00_01false_01_4.html" target="_top" xlink:title="Specialization 3 The client does not supply a hash function (by specifying null_hash_fn as the Hash_F...">
<polygon fill="none" stroke="black" points="132.5,-71.5 132.5,-123.5 269.5,-123.5 269.5,-71.5 132.5,-71.5"/>
<text text-anchor="start" x="140.5" y="-111.5" font-family="Helvetica,sans-Serif" font-size="10.00">__gnu_pbds::detail</text>
<text text-anchor="start" x="140.5" y="-100.5" font-family="Helvetica,sans-Serif" font-size="10.00">::ranged_hash_fn&lt; Key,</text>
<text text-anchor="start" x="140.5" y="-89.5" font-family="Helvetica,sans-Serif" font-size="10.00"> null_hash_fn, Allocator,</text>
<text text-anchor="middle" x="201" y="-78.5" font-family="Helvetica,sans-Serif" font-size="10.00"> Comb_Hash_Fn, false &gt;</text>
</a>
</g>
</g>
<!-- Node1&#45;&gt;Node4 -->
<g id="edge3" class="edge">
<title>Node1&#45;&gt;Node4</title>
<path fill="none" stroke="midnightblue" d="M98.87,-120.64C109.62,-118.17 121.11,-115.55 132.34,-112.98"/>
<polygon fill="midnightblue" stroke="midnightblue" points="97.78,-117.29 88.81,-122.94 99.34,-124.12 97.78,-117.29"/>
</g>
<!-- Node5 -->
<g id="node5" class="node">
<title>Node5</title>
<g id="a_node5"><a xlink:href="../../d3/d0d/class____gnu__pbds_1_1detail_1_1ranged__hash__fn_3_01Key_00_01null__hash__fn_00_01Allocator_00_01Comb__Hash__Fn_00_01true_01_4.html" target="_top" xlink:title="Specialization 4 The client does not supply a hash function (by specifying null_hash_fn as the Hash_F...">
<polygon fill="none" stroke="black" points="134,-0.5 134,-52.5 268,-52.5 268,-0.5 134,-0.5"/>
<text text-anchor="start" x="142" y="-40.5" font-family="Helvetica,sans-Serif" font-size="10.00">__gnu_pbds::detail</text>
<text text-anchor="start" x="142" y="-29.5" font-family="Helvetica,sans-Serif" font-size="10.00">::ranged_hash_fn&lt; Key,</text>
<text text-anchor="start" x="142" y="-18.5" font-family="Helvetica,sans-Serif" font-size="10.00"> null_hash_fn, Allocator,</text>
<text text-anchor="middle" x="201" y="-7.5" font-family="Helvetica,sans-Serif" font-size="10.00"> Comb_Hash_Fn, true &gt;</text>
</a>
</g>
</g>
<!-- Node1&#45;&gt;Node5 -->
<g id="edge4" class="edge">
<title>Node1&#45;&gt;Node5</title>
<path fill="none" stroke="midnightblue" d="M64.21,-115.37C79.94,-100.28 104.3,-78.31 128,-62.5 133.12,-59.09 138.6,-55.79 144.18,-52.66"/>
<polygon fill="midnightblue" stroke="midnightblue" points="61.54,-113.08 56.82,-122.56 66.43,-118.1 61.54,-113.08"/>
</g>
</g>
</svg>
