<?xml version="1.0" encoding="UTF-8" standalone="no"?>
<!DOCTYPE svg PUBLIC "-//W3C//DTD SVG 1.1//EN"
 "http://www.w3.org/Graphics/SVG/1.1/DTD/svg11.dtd">
<!-- Generated by graphviz version 2.43.0 (0)
 -->
<!-- Title: Tools/MinGW/include/c++/4.6.1/ext/bitmap_allocator.h Pages: 1 -->
<!--zoomable 330 -->
<svg id="main" version="1.1" xmlns="http://www.w3.org/2000/svg" xmlns:xlink="http://www.w3.org/1999/xlink" xml:space="preserve" onload="init(evt)">
<style type="text/css"><![CDATA[
.edge:hover path { stroke: red; }
.edge:hover polygon { stroke: red; fill: red; }
]]></style>
<script type="text/javascript"><![CDATA[
var edges = document.getElementsByTagName('g');
if (edges && edges.length) {
  for (var i=0;i<edges.length;i++) {
    if (edges[i].id.substr(0,4)=='edge') {
      edges[i].setAttribute('class','edge');
    }
  }
}
]]></script>
        <defs>
                <circle id="rim" cx="0" cy="0" r="7"/>
                <circle id="rim2" cx="0" cy="0" r="3.5"/>
                <g id="zoomPlus">
                        <use xlink:href="#rim" fill="#404040">
                                <set attributeName="fill" to="#808080" begin="zoomplus.mouseover" end="zoomplus.mouseout"/>
                        </use>
                        <path d="M-4,0h8M0,-4v8" fill="none" stroke="white" stroke-width="1.5" pointer-events="none"/>
                </g>
                <g id="zoomMin">
                        <use xlink:href="#rim" fill="#404040">
                                <set attributeName="fill" to="#808080" begin="zoomminus.mouseover" end="zoomminus.mouseout"/>
                        </use>
                        <path d="M-4,0h8" fill="none" stroke="white" stroke-width="1.5" pointer-events="none"/>
                </g>
                <g id="dirArrow">
                        <path fill="none" stroke="white" stroke-width="1.5" d="M0,-3.0v7 M-2.5,-0.5L0,-3.0L2.5,-0.5"/>
                </g>
               <g id="resetDef">
                       <use xlink:href="#rim2" fill="#404040">
                               <set attributeName="fill" to="#808080" begin="reset.mouseover" end="reset.mouseout"/>
                       </use>
               </g>
        </defs>

<script type="text/javascript">
var viewWidth = 709;
var viewHeight = 330;
var sectionId = 'dynsection-0';
</script>
<script xlink:href="../../svgpan.js"/>
<svg id="graph" class="graph">
<g id="viewport">
<title>Tools/MinGW/include/c++/4.6.1/ext/bitmap_allocator.h</title>
<!-- Node1 -->
<g id="node1" class="node">
<title>Node1</title>
<g id="a_node1"><a xlink:title=" ">
<polygon fill="#bfbfbf" stroke="black" points="141,-280.5 141,-321.5 266,-321.5 266,-280.5 141,-280.5"/>
<text text-anchor="start" x="149" y="-309.5" font-family="Helvetica,sans-Serif" font-size="10.00">Tools/MinGW/include</text>
<text text-anchor="start" x="149" y="-298.5" font-family="Helvetica,sans-Serif" font-size="10.00">/c++/4.6.1/ext/bitmap</text>
<text text-anchor="middle" x="203.5" y="-287.5" font-family="Helvetica,sans-Serif" font-size="10.00">_allocator.h</text>
</a>
</g>
</g>
<!-- Node2 -->
<g id="node2" class="node">
<title>Node2</title>
<g id="a_node2"><a xlink:title=" ">
<polygon fill="none" stroke="#bfbfbf" points="0,-224.5 0,-243.5 45,-243.5 45,-224.5 0,-224.5"/>
<text text-anchor="middle" x="22.5" y="-231.5" font-family="Helvetica,sans-Serif" font-size="10.00">utility</text>
</a>
</g>
</g>
<!-- Node1&#45;&gt;Node2 -->
<g id="edge1" class="edge">
<title>Node1&#45;&gt;Node2</title>
<path fill="none" stroke="midnightblue" d="M149.19,-280.5C118.35,-269.42 80.8,-255.94 54.62,-246.53"/>
<polygon fill="midnightblue" stroke="midnightblue" points="55.77,-243.23 45.18,-243.14 53.41,-249.82 55.77,-243.23"/>
</g>
<!-- Node3 -->
<g id="node3" class="node">
<title>Node3</title>
<g id="a_node3"><a xlink:href="../../d8/dda/functexcept_8h.html" target="_top" xlink:title=" ">
<polygon fill="none" stroke="black" points="71.5,-168.5 71.5,-187.5 175.5,-187.5 175.5,-168.5 71.5,-168.5"/>
<text text-anchor="middle" x="123.5" y="-175.5" font-family="Helvetica,sans-Serif" font-size="10.00">bits/functexcept.h</text>
</a>
</g>
</g>
<!-- Node1&#45;&gt;Node3 -->
<g id="edge2" class="edge">
<title>Node1&#45;&gt;Node3</title>
<path fill="none" stroke="midnightblue" d="M140.93,-282.66C122.07,-274.19 103.48,-261.83 92.5,-244 82.73,-228.13 94.85,-208.7 106.68,-195.24"/>
<polygon fill="midnightblue" stroke="midnightblue" points="109.47,-197.38 113.81,-187.72 104.39,-192.57 109.47,-197.38"/>
</g>
<!-- Node8 -->
<g id="node8" class="node">
<title>Node8</title>
<g id="a_node8"><a xlink:title=" ">
<polygon fill="none" stroke="#bfbfbf" points="102,-224.5 102,-243.5 167,-243.5 167,-224.5 102,-224.5"/>
<text text-anchor="middle" x="134.5" y="-231.5" font-family="Helvetica,sans-Serif" font-size="10.00">functional</text>
</a>
</g>
</g>
<!-- Node1&#45;&gt;Node8 -->
<g id="edge7" class="edge">
<title>Node1&#45;&gt;Node8</title>
<path fill="none" stroke="midnightblue" d="M182.8,-280.5C172.63,-270.92 160.54,-259.53 151,-250.54"/>
<polygon fill="midnightblue" stroke="midnightblue" points="153.36,-247.96 143.68,-243.65 148.56,-253.06 153.36,-247.96"/>
</g>
<!-- Node9 -->
<g id="node9" class="node">
<title>Node9</title>
<g id="a_node9"><a xlink:title=" ">
<polygon fill="none" stroke="#bfbfbf" points="185,-224.5 185,-243.5 222,-243.5 222,-224.5 185,-224.5"/>
<text text-anchor="middle" x="203.5" y="-231.5" font-family="Helvetica,sans-Serif" font-size="10.00">new</text>
</a>
</g>
</g>
<!-- Node1&#45;&gt;Node9 -->
<g id="edge8" class="edge">
<title>Node1&#45;&gt;Node9</title>
<path fill="none" stroke="midnightblue" d="M203.5,-280.5C203.5,-272.07 203.5,-262.24 203.5,-253.87"/>
<polygon fill="midnightblue" stroke="midnightblue" points="207,-253.65 203.5,-243.65 200,-253.65 207,-253.65"/>
</g>
<!-- Node10 -->
<g id="node10" class="node">
<title>Node10</title>
<g id="a_node10"><a xlink:href="../../db/d16/debug_8h.html" target="_top" xlink:title=" ">
<polygon fill="none" stroke="black" points="240,-224.5 240,-243.5 329,-243.5 329,-224.5 240,-224.5"/>
<text text-anchor="middle" x="284.5" y="-231.5" font-family="Helvetica,sans-Serif" font-size="10.00">debug/debug.h</text>
</a>
</g>
</g>
<!-- Node1&#45;&gt;Node10 -->
<g id="edge9" class="edge">
<title>Node1&#45;&gt;Node10</title>
<path fill="none" stroke="midnightblue" d="M227.8,-280.5C239.98,-270.72 254.5,-259.07 265.8,-250.01"/>
<polygon fill="midnightblue" stroke="midnightblue" points="268.11,-252.64 273.72,-243.65 263.73,-247.18 268.11,-252.64"/>
</g>
<!-- Node11 -->
<g id="node11" class="node">
<title>Node11</title>
<g id="a_node11"><a xlink:href="../../d6/dd4/concurrence_8h.html" target="_top" xlink:title=" ">
<polygon fill="none" stroke="black" points="347.5,-224.5 347.5,-243.5 451.5,-243.5 451.5,-224.5 347.5,-224.5"/>
<text text-anchor="middle" x="399.5" y="-231.5" font-family="Helvetica,sans-Serif" font-size="10.00">ext/concurrence.h</text>
</a>
</g>
</g>
<!-- Node1&#45;&gt;Node11 -->
<g id="edge10" class="edge">
<title>Node1&#45;&gt;Node11</title>
<path fill="none" stroke="midnightblue" d="M262.31,-280.5C295.35,-269.54 335.5,-256.22 363.81,-246.84"/>
<polygon fill="midnightblue" stroke="midnightblue" points="365.28,-250.04 373.67,-243.57 363.07,-243.39 365.28,-250.04"/>
</g>
<!-- Node17 -->
<g id="node17" class="node">
<title>Node17</title>
<g id="a_node17"><a xlink:href="../../d9/d83/move_8h.html" target="_top" xlink:title=" ">
<polygon fill="none" stroke="black" points="543.5,-168.5 543.5,-187.5 617.5,-187.5 617.5,-168.5 543.5,-168.5"/>
<text text-anchor="middle" x="580.5" y="-175.5" font-family="Helvetica,sans-Serif" font-size="10.00">bits/move.h</text>
</a>
</g>
</g>
<!-- Node1&#45;&gt;Node17 -->
<g id="edge20" class="edge">
<title>Node1&#45;&gt;Node17</title>
<path fill="none" stroke="midnightblue" d="M266.17,-291.41C319.09,-282.97 396.29,-267.84 460.5,-244 496.78,-230.53 535.61,-207.79 558.97,-193.09"/>
<polygon fill="midnightblue" stroke="midnightblue" points="560.86,-196.04 567.41,-187.71 557.1,-190.13 560.86,-196.04"/>
</g>
<!-- Node4 -->
<g id="node4" class="node">
<title>Node4</title>
<g id="a_node4"><a xlink:href="../../d1/db9/c_09_09config_8h.html" target="_top" xlink:title=" ">
<polygon fill="none" stroke="black" points="466.5,-56.5 466.5,-75.5 564.5,-75.5 564.5,-56.5 466.5,-56.5"/>
<text text-anchor="middle" x="515.5" y="-63.5" font-family="Helvetica,sans-Serif" font-size="10.00">bits/c++config.h</text>
</a>
</g>
</g>
<!-- Node3&#45;&gt;Node4 -->
<g id="edge3" class="edge">
<title>Node3&#45;&gt;Node4</title>
<path fill="none" stroke="midnightblue" d="M112.09,-168.49C95.79,-155.35 69.49,-129.77 85.5,-112 109.86,-84.96 344.11,-73.06 456.24,-68.88"/>
<polygon fill="midnightblue" stroke="midnightblue" points="456.51,-72.38 466.38,-68.51 456.26,-65.38 456.51,-72.38"/>
</g>
<!-- Node7 -->
<g id="node7" class="node">
<title>Node7</title>
<g id="a_node7"><a xlink:href="../../de/d22/exception__defines_8h.html" target="_top" xlink:title=" ">
<polygon fill="none" stroke="black" points="95,-112.5 95,-131.5 230,-131.5 230,-112.5 95,-112.5"/>
<text text-anchor="middle" x="162.5" y="-119.5" font-family="Helvetica,sans-Serif" font-size="10.00">bits/exception_defines.h</text>
</a>
</g>
</g>
<!-- Node3&#45;&gt;Node7 -->
<g id="edge6" class="edge">
<title>Node3&#45;&gt;Node7</title>
<path fill="none" stroke="midnightblue" d="M129.94,-168.08C135.45,-160.46 143.53,-149.26 150.26,-139.94"/>
<polygon fill="midnightblue" stroke="midnightblue" points="153.16,-141.91 156.18,-131.75 147.49,-137.81 153.16,-141.91"/>
</g>
<!-- Node5 -->
<g id="node5" class="node">
<title>Node5</title>
<g id="a_node5"><a xlink:href="../../d5/d0b/os__defines_8h.html" target="_top" xlink:title=" ">
<polygon fill="none" stroke="black" points="407.5,-0.5 407.5,-19.5 505.5,-19.5 505.5,-0.5 407.5,-0.5"/>
<text text-anchor="middle" x="456.5" y="-7.5" font-family="Helvetica,sans-Serif" font-size="10.00">bits/os_defines.h</text>
</a>
</g>
</g>
<!-- Node4&#45;&gt;Node5 -->
<g id="edge4" class="edge">
<title>Node4&#45;&gt;Node5</title>
<path fill="none" stroke="midnightblue" d="M506.02,-56.32C497.3,-48.34 484.16,-36.31 473.6,-26.65"/>
<polygon fill="midnightblue" stroke="midnightblue" points="475.89,-24 466.15,-19.83 471.17,-29.17 475.89,-24"/>
</g>
<!-- Node6 -->
<g id="node6" class="node">
<title>Node6</title>
<g id="a_node6"><a xlink:href="../../d0/d75/cpu__defines_8h.html" target="_top" xlink:title=" ">
<polygon fill="none" stroke="black" points="523.5,-0.5 523.5,-19.5 627.5,-19.5 627.5,-0.5 523.5,-0.5"/>
<text text-anchor="middle" x="575.5" y="-7.5" font-family="Helvetica,sans-Serif" font-size="10.00">bits/cpu_defines.h</text>
</a>
</g>
</g>
<!-- Node4&#45;&gt;Node6 -->
<g id="edge5" class="edge">
<title>Node4&#45;&gt;Node6</title>
<path fill="none" stroke="midnightblue" d="M525.14,-56.32C534.01,-48.34 547.37,-36.31 558.11,-26.65"/>
<polygon fill="midnightblue" stroke="midnightblue" points="560.59,-29.13 565.68,-19.83 555.91,-23.92 560.59,-29.13"/>
</g>
<!-- Node11&#45;&gt;Node3 -->
<g id="edge14" class="edge">
<title>Node11&#45;&gt;Node3</title>
<path fill="none" stroke="midnightblue" d="M355.77,-224.44C307.32,-214.96 229.17,-199.67 177.08,-189.48"/>
<polygon fill="midnightblue" stroke="midnightblue" points="177.51,-186 167.03,-187.52 176.17,-192.87 177.51,-186"/>
</g>
<!-- Node12 -->
<g id="node12" class="node">
<title>Node12</title>
<g id="a_node12"><a xlink:title=" ">
<polygon fill="none" stroke="#bfbfbf" points="223,-168.5 223,-187.5 288,-187.5 288,-168.5 223,-168.5"/>
<text text-anchor="middle" x="255.5" y="-175.5" font-family="Helvetica,sans-Serif" font-size="10.00">exception</text>
</a>
</g>
</g>
<!-- Node11&#45;&gt;Node12 -->
<g id="edge11" class="edge">
<title>Node11&#45;&gt;Node12</title>
<path fill="none" stroke="midnightblue" d="M376.68,-224.44C352.67,-215.44 314.67,-201.19 287.63,-191.05"/>
<polygon fill="midnightblue" stroke="midnightblue" points="288.8,-187.75 278.21,-187.52 286.34,-194.3 288.8,-187.75"/>
</g>
<!-- Node13 -->
<g id="node13" class="node">
<title>Node13</title>
<g id="a_node13"><a xlink:href="../../d7/d2b/gthr_8h.html" target="_top" xlink:title=" ">
<polygon fill="none" stroke="black" points="306,-168.5 306,-187.5 371,-187.5 371,-168.5 306,-168.5"/>
<text text-anchor="middle" x="338.5" y="-175.5" font-family="Helvetica,sans-Serif" font-size="10.00">bits/gthr.h</text>
</a>
</g>
</g>
<!-- Node11&#45;&gt;Node13 -->
<g id="edge12" class="edge">
<title>Node11&#45;&gt;Node13</title>
<path fill="none" stroke="midnightblue" d="M389.7,-224.32C380.68,-216.34 367.09,-204.31 356.18,-194.65"/>
<polygon fill="midnightblue" stroke="midnightblue" points="358.29,-191.84 348.48,-187.83 353.65,-197.08 358.29,-191.84"/>
</g>
<!-- Node15 -->
<g id="node15" class="node">
<title>Node15</title>
<g id="a_node15"><a xlink:href="../../da/db4/cpp__type__traits_8h.html" target="_top" xlink:title=" ">
<polygon fill="none" stroke="black" points="365.5,-112.5 365.5,-131.5 487.5,-131.5 487.5,-112.5 365.5,-112.5"/>
<text text-anchor="middle" x="426.5" y="-119.5" font-family="Helvetica,sans-Serif" font-size="10.00">bits/cpp_type_traits.h</text>
</a>
</g>
</g>
<!-- Node11&#45;&gt;Node15 -->
<g id="edge15" class="edge">
<title>Node11&#45;&gt;Node15</title>
<path fill="none" stroke="midnightblue" d="M401.62,-224.37C405.98,-206.62 416.03,-165.67 421.94,-141.6"/>
<polygon fill="midnightblue" stroke="midnightblue" points="425.41,-142.14 424.39,-131.59 418.61,-140.47 425.41,-142.14"/>
</g>
<!-- Node16 -->
<g id="node16" class="node">
<title>Node16</title>
<g id="a_node16"><a xlink:href="../../df/d63/type__traits_8h.html" target="_top" xlink:title=" ">
<polygon fill="none" stroke="black" points="428,-168.5 428,-187.5 525,-187.5 525,-168.5 428,-168.5"/>
<text text-anchor="middle" x="476.5" y="-175.5" font-family="Helvetica,sans-Serif" font-size="10.00">ext/type_traits.h</text>
</a>
</g>
</g>
<!-- Node11&#45;&gt;Node16 -->
<g id="edge17" class="edge">
<title>Node11&#45;&gt;Node16</title>
<path fill="none" stroke="midnightblue" d="M411.87,-224.32C423.66,-216.06 441.63,-203.45 455.64,-193.63"/>
<polygon fill="midnightblue" stroke="midnightblue" points="457.98,-196.26 464.16,-187.65 453.96,-190.53 457.98,-196.26"/>
</g>
<!-- Node14 -->
<g id="node14" class="node">
<title>Node14</title>
<g id="a_node14"><a xlink:href="../../d6/d85/gthr-single_8h.html" target="_top" xlink:title=" ">
<polygon fill="none" stroke="black" points="248,-112.5 248,-131.5 347,-131.5 347,-112.5 248,-112.5"/>
<text text-anchor="middle" x="297.5" y="-119.5" font-family="Helvetica,sans-Serif" font-size="10.00">bits/gthr&#45;single.h</text>
</a>
</g>
</g>
<!-- Node13&#45;&gt;Node14 -->
<g id="edge13" class="edge">
<title>Node13&#45;&gt;Node14</title>
<path fill="none" stroke="midnightblue" d="M331.73,-168.08C325.94,-160.46 317.44,-149.26 310.36,-139.94"/>
<polygon fill="midnightblue" stroke="midnightblue" points="312.98,-137.6 304.14,-131.75 307.4,-141.83 312.98,-137.6"/>
</g>
<!-- Node15&#45;&gt;Node4 -->
<g id="edge16" class="edge">
<title>Node15&#45;&gt;Node4</title>
<path fill="none" stroke="midnightblue" d="M440.8,-112.32C454.68,-103.9 475.99,-90.97 492.3,-81.07"/>
<polygon fill="midnightblue" stroke="midnightblue" points="494.5,-83.83 501.24,-75.65 490.87,-77.85 494.5,-83.83"/>
</g>
<!-- Node16&#45;&gt;Node4 -->
<g id="edge18" class="edge">
<title>Node16&#45;&gt;Node4</title>
<path fill="none" stroke="midnightblue" d="M480.84,-168.18C485.16,-159.21 491.79,-144.84 496.5,-132 502.19,-116.48 507.36,-98.39 510.87,-85.25"/>
<polygon fill="midnightblue" stroke="midnightblue" points="514.27,-86.09 513.4,-75.53 507.49,-84.33 514.27,-86.09"/>
</g>
<!-- Node16&#45;&gt;Node15 -->
<g id="edge19" class="edge">
<title>Node16&#45;&gt;Node15</title>
<path fill="none" stroke="midnightblue" d="M468.24,-168.08C461.04,-160.3 450.39,-148.8 441.65,-139.37"/>
<polygon fill="midnightblue" stroke="midnightblue" points="443.97,-136.71 434.6,-131.75 438.83,-141.47 443.97,-136.71"/>
</g>
<!-- Node17&#45;&gt;Node4 -->
<g id="edge21" class="edge">
<title>Node17&#45;&gt;Node4</title>
<path fill="none" stroke="midnightblue" d="M575.4,-168.37C564.72,-150.3 539.83,-108.18 525.73,-84.31"/>
<polygon fill="midnightblue" stroke="midnightblue" points="528.68,-82.42 520.58,-75.59 522.65,-85.98 528.68,-82.42"/>
</g>
<!-- Node18 -->
<g id="node18" class="node">
<title>Node18</title>
<g id="a_node18"><a xlink:href="../../df/d30/concept__check_8h.html" target="_top" xlink:title=" ">
<polygon fill="none" stroke="black" points="582,-112.5 582,-131.5 701,-131.5 701,-112.5 582,-112.5"/>
<text text-anchor="middle" x="641.5" y="-119.5" font-family="Helvetica,sans-Serif" font-size="10.00">bits/concept_check.h</text>
</a>
</g>
</g>
<!-- Node17&#45;&gt;Node18 -->
<g id="edge22" class="edge">
<title>Node17&#45;&gt;Node18</title>
<path fill="none" stroke="midnightblue" d="M590.3,-168.32C599.32,-160.34 612.91,-148.31 623.82,-138.65"/>
<polygon fill="midnightblue" stroke="midnightblue" points="626.35,-141.08 631.52,-131.83 621.71,-135.84 626.35,-141.08"/>
</g>
<!-- Node18&#45;&gt;Node4 -->
<g id="edge23" class="edge">
<title>Node18&#45;&gt;Node4</title>
<path fill="none" stroke="midnightblue" d="M621.53,-112.44C600.89,-103.6 568.44,-89.69 544.87,-79.59"/>
<polygon fill="midnightblue" stroke="midnightblue" points="545.94,-76.24 535.37,-75.52 543.18,-82.67 545.94,-76.24"/>
</g>
</g>
</svg>
        <g id="navigator" transform="translate(0 0)" fill="#404254">
                <rect fill="#f2f5e9" fill-opacity="0.5" stroke="#606060" stroke-width=".5" x="0" y="0" width="60" height="60"/>
                <use id="zoomplus" xlink:href="#zoomPlus" x="17" y="9" onmousedown="handleZoom(evt,'in')"/>
                <use id="zoomminus" xlink:href="#zoomMin" x="42" y="9" onmousedown="handleZoom(evt,'out')"/>
                <use id="reset" xlink:href="#resetDef" x="30" y="36" onmousedown="handleReset()"/>
                <g id="arrowUp" xlink:href="#dirArrow" transform="translate(30 24)" onmousedown="handlePan(0,-1)">
                  <use xlink:href="#rim" fill="#404040">
                        <set attributeName="fill" to="#808080" begin="arrowUp.mouseover" end="arrowUp.mouseout"/>
                  </use>
                  <path fill="none" stroke="white" stroke-width="1.5" d="M0,-3.0v7 M-2.5,-0.5L0,-3.0L2.5,-0.5"/>
                </g>
                <g id="arrowRight" xlink:href="#dirArrow" transform="rotate(90) translate(36 -43)" onmousedown="handlePan(1,0)">
                  <use xlink:href="#rim" fill="#404040">
                        <set attributeName="fill" to="#808080" begin="arrowRight.mouseover" end="arrowRight.mouseout"/>
                  </use>
                  <path fill="none" stroke="white" stroke-width="1.5" d="M0,-3.0v7 M-2.5,-0.5L0,-3.0L2.5,-0.5"/>
                </g>
                <g id="arrowDown" xlink:href="#dirArrow" transform="rotate(180) translate(-30 -48)" onmousedown="handlePan(0,1)">
                  <use xlink:href="#rim" fill="#404040">
                        <set attributeName="fill" to="#808080" begin="arrowDown.mouseover" end="arrowDown.mouseout"/>
                  </use>
                  <path fill="none" stroke="white" stroke-width="1.5" d="M0,-3.0v7 M-2.5,-0.5L0,-3.0L2.5,-0.5"/>
                </g>
                <g id="arrowLeft" xlink:href="#dirArrow" transform="rotate(270) translate(-36 17)" onmousedown="handlePan(-1,0)">
                  <use xlink:href="#rim" fill="#404040">
                        <set attributeName="fill" to="#808080" begin="arrowLeft.mouseover" end="arrowLeft.mouseout"/>
                  </use>
                  <path fill="none" stroke="white" stroke-width="1.5" d="M0,-3.0v7 M-2.5,-0.5L0,-3.0L2.5,-0.5"/>
                </g>
        </g>
        <svg viewBox="0 0 15 15" width="100%" height="30px" preserveAspectRatio="xMaxYMin meet">
         <g id="arrow_out" transform="scale(0.3 0.3)">
          <a xlink:href="bitmap__allocator_8h__incl_org.svg" target="_base">
           <rect id="button" ry="5" rx="5" y="6" x="6" height="38" width="38"
                fill="#f2f5e9" fill-opacity="0.5" stroke="#606060" stroke-width="1.0"/>
           <path id="arrow"
             d="M 11.500037,31.436501 C 11.940474,20.09759 22.043105,11.32322 32.158766,21.979434 L 37.068811,17.246167 C 37.068811,17.246167 37.088388,32 37.088388,32 L 22.160133,31.978069 C 22.160133,31.978069 26.997745,27.140456 26.997745,27.140456 C 18.528582,18.264221 13.291696,25.230495 11.500037,31.436501 z"
             style="fill:#404040;"/>
          </a>
         </g>
        </svg>
</svg>
