<?xml version="1.0" encoding="UTF-8" standalone="no"?>
<!DOCTYPE svg PUBLIC "-//W3C//DTD SVG 1.1//EN"
 "http://www.w3.org/Graphics/SVG/1.1/DTD/svg11.dtd">
<!-- Generated by graphviz version 2.43.0 (0)
 -->
<!-- Title: Engine/libspeex/kiss_fftr.h Pages: 1 -->
<svg width="282pt" height="106pt"
 viewBox="0.00 0.00 282.00 106.00" xmlns="http://www.w3.org/2000/svg" xmlns:xlink="http://www.w3.org/1999/xlink">
<g id="graph0" class="graph" transform="scale(1 1) rotate(0) translate(4 102)">
<title>Engine/libspeex/kiss_fftr.h</title>
<!-- Node1 -->
<g id="node1" class="node">
<title>Node1</title>
<g id="a_node1"><a xlink:title=" ">
<polygon fill="#bfbfbf" stroke="black" points="85,-67.5 85,-97.5 201,-97.5 201,-67.5 85,-67.5"/>
<text text-anchor="start" x="93" y="-85.5" font-family="Helvetica,sans-Serif" font-size="10.00">Engine/libspeex/kiss</text>
<text text-anchor="middle" x="143" y="-74.5" font-family="Helvetica,sans-Serif" font-size="10.00">_fftr.h</text>
</a>
</g>
</g>
<!-- Node2 -->
<g id="node2" class="node">
<title>Node2</title>
<g id="a_node2"><a xlink:href="../../d5/dc4/Engine_2libspeex_2fftwrap_8c.html" target="_top" xlink:title=" ">
<polygon fill="none" stroke="black" points="0,-6 0,-25 140,-25 140,-6 0,-6"/>
<text text-anchor="middle" x="70" y="-13" font-family="Helvetica,sans-Serif" font-size="10.00">Engine/libspeex/fftwrap.c</text>
</a>
</g>
</g>
<!-- Node1&#45;&gt;Node2 -->
<g id="edge1" class="edge">
<title>Node1&#45;&gt;Node2</title>
<path fill="none" stroke="midnightblue" d="M119.61,-60.67C106.13,-48.67 89.9,-34.22 79.76,-25.19"/>
<polygon fill="midnightblue" stroke="midnightblue" points="117.36,-63.36 127.16,-67.4 122.02,-58.13 117.36,-63.36"/>
</g>
<!-- Node3 -->
<g id="node3" class="node">
<title>Node3</title>
<g id="a_node3"><a xlink:href="../../d4/d87/Engine_2libspeex_2kiss__fftr_8c.html" target="_top" xlink:title=" ">
<polygon fill="none" stroke="black" points="158,-0.5 158,-30.5 274,-30.5 274,-0.5 158,-0.5"/>
<text text-anchor="start" x="166" y="-18.5" font-family="Helvetica,sans-Serif" font-size="10.00">Engine/libspeex/kiss</text>
<text text-anchor="middle" x="216" y="-7.5" font-family="Helvetica,sans-Serif" font-size="10.00">_fftr.c</text>
</a>
</g>
</g>
<!-- Node1&#45;&gt;Node3 -->
<g id="edge2" class="edge">
<title>Node1&#45;&gt;Node3</title>
<path fill="none" stroke="midnightblue" d="M166.47,-60.6C177.5,-50.78 190.34,-39.34 200.19,-30.58"/>
<polygon fill="midnightblue" stroke="midnightblue" points="163.98,-58.13 158.84,-67.4 168.64,-63.36 163.98,-58.13"/>
</g>
</g>
</svg>
