<?xml version="1.0" encoding="UTF-8" standalone="no"?>
<!DOCTYPE svg PUBLIC "-//W3C//DTD SVG 1.1//EN"
 "http://www.w3.org/Graphics/SVG/1.1/DTD/svg11.dtd">
<!-- Generated by graphviz version 2.43.0 (0)
 -->
<!-- Title: tagMQQMPROPS Pages: 1 -->
<svg width="365pt" height="95pt"
 viewBox="0.00 0.00 364.50 95.00" xmlns="http://www.w3.org/2000/svg" xmlns:xlink="http://www.w3.org/1999/xlink">
<g id="graph0" class="graph" transform="scale(1 1) rotate(0) translate(4 91)">
<title>tagMQQMPROPS</title>
<!-- Node1 -->
<g id="node1" class="node">
<title>Node1</title>
<g id="a_node1"><a xlink:title=" ">
<polygon fill="#bfbfbf" stroke="black" points="124.5,-0.5 124.5,-19.5 222.5,-19.5 222.5,-0.5 124.5,-0.5"/>
<text text-anchor="middle" x="173.5" y="-7.5" font-family="Helvetica,sans-Serif" font-size="10.00">tagMQQMPROPS</text>
</a>
</g>
</g>
<!-- Node2 -->
<g id="node2" class="node">
<title>Node2</title>
<g id="a_node2"><a xlink:title=" ">
<polygon fill="none" stroke="#bfbfbf" points="0,-67.5 0,-86.5 85,-86.5 85,-67.5 0,-67.5"/>
<text text-anchor="middle" x="42.5" y="-74.5" font-family="Helvetica,sans-Serif" font-size="10.00">unsigned long</text>
</a>
</g>
</g>
<!-- Node2&#45;&gt;Node1 -->
<g id="edge1" class="edge">
<title>Node2&#45;&gt;Node1</title>
<path fill="none" stroke="#9a32cd" stroke-dasharray="5,2" d="M61.13,-60.96C71.17,-53.36 84.04,-44.41 96.5,-38 111.24,-30.42 128.59,-24.13 143.08,-19.53"/>
<polygon fill="#9a32cd" stroke="#9a32cd" points="58.85,-58.3 53.1,-67.2 63.14,-63.83 58.85,-58.3"/>
<text text-anchor="middle" x="117.5" y="-41" font-family="Helvetica,sans-Serif" font-size="10.00"> aPropID</text>
</g>
<!-- Node3 -->
<g id="node3" class="node">
<title>Node3</title>
<g id="a_node3"><a xlink:title=" ">
<polygon fill="none" stroke="#bfbfbf" points="103,-67.5 103,-86.5 172,-86.5 172,-67.5 103,-67.5"/>
<text text-anchor="middle" x="137.5" y="-74.5" font-family="Helvetica,sans-Serif" font-size="10.00">HRESULT *</text>
</a>
</g>
</g>
<!-- Node3&#45;&gt;Node1 -->
<g id="edge2" class="edge">
<title>Node3&#45;&gt;Node1</title>
<path fill="none" stroke="#9a32cd" stroke-dasharray="5,2" d="M140.39,-57.48C141.9,-51.04 144.16,-43.94 147.5,-38 151.45,-30.97 157.68,-24.41 163.04,-19.52"/>
<polygon fill="#9a32cd" stroke="#9a32cd" points="136.94,-56.9 138.5,-67.38 143.82,-58.22 136.94,-56.9"/>
<text text-anchor="middle" x="167.5" y="-41" font-family="Helvetica,sans-Serif" font-size="10.00"> aStatus</text>
</g>
<!-- Node4 -->
<g id="node4" class="node">
<title>Node4</title>
<g id="a_node4"><a xlink:title=" ">
<polygon fill="none" stroke="#bfbfbf" points="190.5,-67.5 190.5,-86.5 228.5,-86.5 228.5,-67.5 190.5,-67.5"/>
<text text-anchor="middle" x="209.5" y="-74.5" font-family="Helvetica,sans-Serif" font-size="10.00">long</text>
</a>
</g>
</g>
<!-- Node4&#45;&gt;Node1 -->
<g id="edge3" class="edge">
<title>Node4&#45;&gt;Node1</title>
<path fill="none" stroke="#9a32cd" stroke-dasharray="5,2" d="M199.62,-58.16C192.68,-45.63 183.7,-29.41 178.28,-19.63"/>
<polygon fill="#9a32cd" stroke="#9a32cd" points="196.74,-60.18 204.64,-67.23 202.86,-56.79 196.74,-60.18"/>
<text text-anchor="middle" x="209" y="-41" font-family="Helvetica,sans-Serif" font-size="10.00"> cProp</text>
</g>
<!-- Node5 -->
<g id="node5" class="node">
<title>Node5</title>
<g id="a_node5"><a xlink:title=" ">
<polygon fill="none" stroke="#bfbfbf" points="246.5,-67.5 246.5,-86.5 356.5,-86.5 356.5,-67.5 246.5,-67.5"/>
<text text-anchor="middle" x="301.5" y="-74.5" font-family="Helvetica,sans-Serif" font-size="10.00">MQPROPVARIANT *</text>
</a>
</g>
</g>
<!-- Node5&#45;&gt;Node1 -->
<g id="edge4" class="edge">
<title>Node5&#45;&gt;Node1</title>
<path fill="none" stroke="#9a32cd" stroke-dasharray="5,2" d="M276.28,-62.69C262.25,-55.33 244.45,-46.07 228.5,-38 216.16,-31.76 202.17,-24.9 191.39,-19.65"/>
<polygon fill="#9a32cd" stroke="#9a32cd" points="274.84,-65.88 285.32,-67.44 278.1,-59.69 274.84,-65.88"/>
<text text-anchor="middle" x="272" y="-41" font-family="Helvetica,sans-Serif" font-size="10.00"> aPropVar</text>
</g>
</g>
</svg>
