<?xml version="1.0" encoding="UTF-8" standalone="no"?>
<!DOCTYPE svg PUBLIC "-//W3C//DTD SVG 1.1//EN"
 "http://www.w3.org/Graphics/SVG/1.1/DTD/svg11.dtd">
<!-- Generated by graphviz version 2.43.0 (0)
 -->
<!-- Title: _IMAGE_RESOURCE_DIR_STRING_U Pages: 1 -->
<svg width="163pt" height="106pt"
 viewBox="0.00 0.00 162.50 106.00" xmlns="http://www.w3.org/2000/svg" xmlns:xlink="http://www.w3.org/1999/xlink">
<g id="graph0" class="graph" transform="scale(1 1) rotate(0) translate(4 102)">
<title>_IMAGE_RESOURCE_DIR_STRING_U</title>
<!-- Node1 -->
<g id="node1" class="node">
<title>Node1</title>
<g id="a_node1"><a xlink:title=" ">
<polygon fill="#bfbfbf" stroke="black" points="0,-0.5 0,-30.5 135,-30.5 135,-0.5 0,-0.5"/>
<text text-anchor="start" x="8" y="-18.5" font-family="Helvetica,sans-Serif" font-size="10.00">_IMAGE_RESOURCE_DIR</text>
<text text-anchor="middle" x="67.5" y="-7.5" font-family="Helvetica,sans-Serif" font-size="10.00">_STRING_U</text>
</a>
</g>
</g>
<!-- Node2 -->
<g id="node2" class="node">
<title>Node2</title>
<g id="a_node2"><a xlink:title=" ">
<polygon fill="none" stroke="#bfbfbf" points="6,-78.5 6,-97.5 47,-97.5 47,-78.5 6,-78.5"/>
<text text-anchor="middle" x="26.5" y="-85.5" font-family="Helvetica,sans-Serif" font-size="10.00">short</text>
</a>
</g>
</g>
<!-- Node2&#45;&gt;Node1 -->
<g id="edge1" class="edge">
<title>Node2&#45;&gt;Node1</title>
<path fill="none" stroke="#9a32cd" stroke-dasharray="5,2" d="M36.57,-69.68C43.57,-57.65 52.77,-41.83 59.31,-30.58"/>
<polygon fill="#9a32cd" stroke="#9a32cd" points="33.53,-67.95 31.53,-78.36 39.58,-71.47 33.53,-67.95"/>
<text text-anchor="middle" x="67" y="-52" font-family="Helvetica,sans-Serif" font-size="10.00"> Length</text>
</g>
<!-- Node3 -->
<g id="node3" class="node">
<title>Node3</title>
<g id="a_node3"><a xlink:title=" ">
<polygon fill="none" stroke="#bfbfbf" points="65,-78.5 65,-97.5 154,-97.5 154,-78.5 65,-78.5"/>
<text text-anchor="middle" x="109.5" y="-85.5" font-family="Helvetica,sans-Serif" font-size="10.00">unsigned short</text>
</a>
</g>
</g>
<!-- Node3&#45;&gt;Node1 -->
<g id="edge2" class="edge">
<title>Node3&#45;&gt;Node1</title>
<path fill="none" stroke="#9a32cd" stroke-dasharray="5,2" d="M99.27,-69.11C95.6,-62.74 91.4,-55.53 87.5,-49 83.9,-42.97 79.85,-36.36 76.34,-30.69"/>
<polygon fill="#9a32cd" stroke="#9a32cd" points="96.48,-71.28 104.5,-78.21 102.55,-67.79 96.48,-71.28"/>
<text text-anchor="middle" x="124" y="-52" font-family="Helvetica,sans-Serif" font-size="10.00"> NameString</text>
</g>
</g>
</svg>
