<?xml version="1.0" encoding="UTF-8" standalone="no"?>
<!DOCTYPE svg PUBLIC "-//W3C//DTD SVG 1.1//EN"
 "http://www.w3.org/Graphics/SVG/1.1/DTD/svg11.dtd">
<!-- Generated by graphviz version 2.43.0 (0)
 -->
<!-- Title: _HID_INTERFACE_NOTIFY_PNP Pages: 1 -->
<svg width="286pt" height="161pt"
 viewBox="0.00 0.00 285.50 161.00" xmlns="http://www.w3.org/2000/svg" xmlns:xlink="http://www.w3.org/1999/xlink">
<g id="graph0" class="graph" transform="scale(1 1) rotate(0) translate(4 157)">
<title>_HID_INTERFACE_NOTIFY_PNP</title>
<!-- Node1 -->
<g id="node1" class="node">
<title>Node1</title>
<g id="a_node1"><a xlink:title=" ">
<polygon fill="#bfbfbf" stroke="black" points="22.5,-0.5 22.5,-19.5 186.5,-19.5 186.5,-0.5 22.5,-0.5"/>
<text text-anchor="middle" x="104.5" y="-7.5" font-family="Helvetica,sans-Serif" font-size="10.00">_HID_INTERFACE_NOTIFY_PNP</text>
</a>
</g>
</g>
<!-- Node2 -->
<g id="node2" class="node">
<title>Node2</title>
<g id="a_node2"><a xlink:title=" ">
<polygon fill="none" stroke="#bfbfbf" points="0,-122.5 0,-141.5 61,-141.5 61,-122.5 0,-122.5"/>
<text text-anchor="middle" x="30.5" y="-129.5" font-family="Helvetica,sans-Serif" font-size="10.00">unsigned</text>
</a>
</g>
</g>
<!-- Node2&#45;&gt;Node1 -->
<g id="edge1" class="edge">
<title>Node2&#45;&gt;Node1</title>
<path fill="none" stroke="#9a32cd" stroke-dasharray="5,2" d="M41.26,-113.55C57.38,-87.42 87.17,-39.11 99.23,-19.55"/>
<polygon fill="#9a32cd" stroke="#9a32cd" points="38.09,-112.02 35.82,-122.37 44.05,-115.7 38.09,-112.02"/>
<text text-anchor="middle" x="106" y="-68.5" font-family="Helvetica,sans-Serif" font-size="10.00"> Size</text>
<text text-anchor="middle" x="106" y="-57.5" font-family="Helvetica,sans-Serif" font-size="10.00">Version</text>
</g>
<!-- Node3 -->
<g id="node3" class="node">
<title>Node3</title>
<g id="a_node3"><a xlink:title=" ">
<polygon fill="none" stroke="#bfbfbf" points="79.5,-111.5 79.5,-152.5 277.5,-152.5 277.5,-111.5 79.5,-111.5"/>
<text text-anchor="start" x="87.5" y="-140.5" font-family="Helvetica,sans-Serif" font-size="10.00">PSecurityUserData *typedef</text>
<text text-anchor="start" x="87.5" y="-129.5" font-family="Helvetica,sans-Serif" font-size="10.00"> PSECPKG_EXTENDED_INFORMATION</text>
<text text-anchor="middle" x="178.5" y="-118.5" font-family="Helvetica,sans-Serif" font-size="10.00"> *typedef</text>
</a>
</g>
</g>
<!-- Node3&#45;&gt;Node1 -->
<g id="edge2" class="edge">
<title>Node3&#45;&gt;Node1</title>
<path fill="none" stroke="#9a32cd" stroke-dasharray="5,2" d="M165.26,-102.33C156,-83.41 142.78,-58.44 128.5,-38 123.9,-31.42 117.9,-24.67 113.05,-19.56"/>
<polygon fill="#9a32cd" stroke="#9a32cd" points="162.11,-103.86 169.6,-111.35 168.42,-100.82 162.11,-103.86"/>
<text text-anchor="middle" x="211.5" y="-85" font-family="Helvetica,sans-Serif" font-size="10.00"> Context</text>
<text text-anchor="middle" x="211.5" y="-74" font-family="Helvetica,sans-Serif" font-size="10.00">InterfaceDereference</text>
<text text-anchor="middle" x="211.5" y="-63" font-family="Helvetica,sans-Serif" font-size="10.00">StatusChangeFn</text>
<text text-anchor="middle" x="211.5" y="-52" font-family="Helvetica,sans-Serif" font-size="10.00">CallbackContext</text>
<text text-anchor="middle" x="211.5" y="-41" font-family="Helvetica,sans-Serif" font-size="10.00">InterfaceReference</text>
</g>
</g>
</svg>
