<?xml version="1.0" encoding="UTF-8" standalone="no"?>
<!DOCTYPE svg PUBLIC "-//W3C//DTD SVG 1.1//EN"
 "http://www.w3.org/Graphics/SVG/1.1/DTD/svg11.dtd">
<!-- Generated by graphviz version 2.43.0 (0)
 -->
<!-- Title: jump_insn Pages: 1 -->
<svg width="242pt" height="195pt"
 viewBox="0.00 0.00 241.50 195.00" xmlns="http://www.w3.org/2000/svg" xmlns:xlink="http://www.w3.org/1999/xlink">
<g id="graph0" class="graph" transform="scale(1 1) rotate(0) translate(4 191)">
<title>jump_insn</title>
<!-- Node1 -->
<g id="node1" class="node">
<title>Node1</title>
<g id="a_node1"><a xlink:title=" ">
<polygon fill="#bfbfbf" stroke="black" points="93,-100.5 93,-119.5 160,-119.5 160,-100.5 93,-100.5"/>
<text text-anchor="middle" x="126.5" y="-107.5" font-family="Helvetica,sans-Serif" font-size="10.00">jump_insn</text>
</a>
</g>
</g>
<!-- Node1&#45;&gt;Node1 -->
<g id="edge5" class="edge">
<title>Node1&#45;&gt;Node1</title>
<path fill="none" stroke="#9a32cd" stroke-dasharray="5,2" d="M170.22,-115.02C174.95,-114.06 178,-112.38 178,-110 178,-106.19 170.2,-104.19 160.18,-104.01"/>
<polygon fill="#9a32cd" stroke="#9a32cd" points="169.8,-111.54 160.18,-115.99 170.47,-118.51 169.8,-111.54"/>
<text text-anchor="middle" x="190.5" y="-107.5" font-family="Helvetica,sans-Serif" font-size="10.00"> next</text>
</g>
<!-- Node2 -->
<g id="node2" class="node">
<title>Node2</title>
<g id="a_node2"><a xlink:href="../../d4/de4/structdst__insn.html" target="_top" xlink:title=" ">
<polygon fill="none" stroke="black" points="61,-0.5 61,-19.5 118,-19.5 118,-0.5 61,-0.5"/>
<text text-anchor="middle" x="89.5" y="-7.5" font-family="Helvetica,sans-Serif" font-size="10.00">dst_insn</text>
</a>
</g>
</g>
<!-- Node1&#45;&gt;Node2 -->
<g id="edge3" class="edge">
<title>Node1&#45;&gt;Node2</title>
<path fill="none" stroke="#9a32cd" stroke-dasharray="5,2" d="M97.69,-94.76C93.19,-91.23 89.15,-86.99 86.5,-82 75.85,-61.95 82.06,-34.05 86.39,-19.93"/>
<polygon fill="#9a32cd" stroke="#9a32cd" points="95.85,-97.74 106.11,-100.37 99.73,-91.91 95.85,-97.74"/>
<text text-anchor="middle" x="100.5" y="-57.5" font-family="Helvetica,sans-Serif" font-size="10.00"> jump</text>
</g>
<!-- Node2&#45;&gt;Node1 -->
<g id="edge1" class="edge">
<title>Node2&#45;&gt;Node1</title>
<path fill="none" stroke="#9a32cd" stroke-dasharray="5,2" d="M109.84,-26.33C113.24,-29.8 116.35,-33.74 118.5,-38 128.77,-58.38 128.41,-86.14 127.39,-100.15"/>
<polygon fill="#9a32cd" stroke="#9a32cd" points="112,-23.57 102.21,-19.52 107.34,-28.79 112,-23.57"/>
<text text-anchor="middle" x="145" y="-57.5" font-family="Helvetica,sans-Serif" font-size="10.00"> parent</text>
</g>
<!-- Node2&#45;&gt;Node2 -->
<g id="edge2" class="edge">
<title>Node2&#45;&gt;Node2</title>
<path fill="none" stroke="#9a32cd" stroke-dasharray="5,2" d="M128.12,-18.12C132.88,-16.68 136,-13.97 136,-10 136,-3.65 128.01,-0.53 118.11,-0.63"/>
<polygon fill="#9a32cd" stroke="#9a32cd" points="127.6,-14.66 118.11,-19.37 128.46,-21.61 127.6,-14.66"/>
<text text-anchor="middle" x="148.5" y="-7.5" font-family="Helvetica,sans-Serif" font-size="10.00"> next</text>
</g>
<!-- Node3 -->
<g id="node3" class="node">
<title>Node3</title>
<g id="a_node3"><a xlink:title=" ">
<polygon fill="none" stroke="#bfbfbf" points="0,-100.5 0,-119.5 61,-119.5 61,-100.5 0,-100.5"/>
<text text-anchor="middle" x="30.5" y="-107.5" font-family="Helvetica,sans-Serif" font-size="10.00">unsigned</text>
</a>
</g>
</g>
<!-- Node3&#45;&gt;Node2 -->
<g id="edge4" class="edge">
<title>Node3&#45;&gt;Node2</title>
<path fill="none" stroke="#9a32cd" stroke-dasharray="5,2" d="M29.11,-89.92C28.94,-74.6 30.97,-53.2 41.5,-38 47.16,-29.83 56.15,-23.84 64.82,-19.61"/>
<polygon fill="#9a32cd" stroke="#9a32cd" points="25.63,-90.41 29.55,-100.25 32.62,-90.11 25.63,-90.41"/>
<text text-anchor="middle" x="59.5" y="-74" font-family="Helvetica,sans-Serif" font-size="10.00"> length</text>
<text text-anchor="middle" x="59.5" y="-63" font-family="Helvetica,sans-Serif" font-size="10.00">count</text>
<text text-anchor="middle" x="59.5" y="-52" font-family="Helvetica,sans-Serif" font-size="10.00">i_count</text>
<text text-anchor="middle" x="59.5" y="-41" font-family="Helvetica,sans-Serif" font-size="10.00">code</text>
</g>
<!-- Node4 -->
<g id="node4" class="node">
<title>Node4</title>
<g id="a_node4"><a xlink:title=" ">
<polygon fill="none" stroke="#bfbfbf" points="61,-167.5 61,-186.5 90,-186.5 90,-167.5 61,-167.5"/>
<text text-anchor="middle" x="75.5" y="-174.5" font-family="Helvetica,sans-Serif" font-size="10.00">int</text>
</a>
</g>
</g>
<!-- Node4&#45;&gt;Node1 -->
<g id="edge6" class="edge">
<title>Node4&#45;&gt;Node1</title>
<path fill="none" stroke="#9a32cd" stroke-dasharray="5,2" d="M72.32,-157.37C72.11,-150.82 73,-143.69 76.5,-138 81.61,-129.68 90.25,-123.76 98.92,-119.62"/>
<polygon fill="#9a32cd" stroke="#9a32cd" points="68.86,-157.9 73.43,-167.46 75.82,-157.14 68.86,-157.9"/>
<text text-anchor="middle" x="116.5" y="-141" font-family="Helvetica,sans-Serif" font-size="10.00"> jump_dest_insn</text>
</g>
<!-- Node5 -->
<g id="node5" class="node">
<title>Node5</title>
<g id="a_node5"><a xlink:title=" ">
<polygon fill="none" stroke="#bfbfbf" points="123.5,-167.5 123.5,-186.5 233.5,-186.5 233.5,-167.5 123.5,-167.5"/>
<text text-anchor="middle" x="178.5" y="-174.5" font-family="Helvetica,sans-Serif" font-size="10.00">enum sparc_iname</text>
</a>
</g>
</g>
<!-- Node5&#45;&gt;Node1 -->
<g id="edge7" class="edge">
<title>Node5&#45;&gt;Node1</title>
<path fill="none" stroke="#9a32cd" stroke-dasharray="5,2" d="M169.81,-158.39C166.13,-151.7 161.53,-144.21 156.5,-138 150.94,-131.14 143.58,-124.49 137.55,-119.51"/>
<polygon fill="#9a32cd" stroke="#9a32cd" points="166.76,-160.11 174.48,-167.36 172.97,-156.88 166.76,-160.11"/>
<text text-anchor="middle" x="195.5" y="-141" font-family="Helvetica,sans-Serif" font-size="10.00"> jump_iname</text>
</g>
</g>
</svg>
