<?xml version="1.0" encoding="UTF-8" standalone="no"?>
<!DOCTYPE svg PUBLIC "-//W3C//DTD SVG 1.1//EN"
 "http://www.w3.org/Graphics/SVG/1.1/DTD/svg11.dtd">
<!-- Generated by graphviz version 2.43.0 (0)
 -->
<!-- Title: dheader_t Pages: 1 -->
<svg width="130pt" height="175pt"
 viewBox="0.00 0.00 129.50 175.00" xmlns="http://www.w3.org/2000/svg" xmlns:xlink="http://www.w3.org/1999/xlink">
<g id="graph0" class="graph" transform="scale(1 1) rotate(0) translate(4 171)">
<title>dheader_t</title>
<!-- Node1 -->
<g id="node1" class="node">
<title>Node1</title>
<g id="a_node1"><a xlink:title=" ">
<polygon fill="#bfbfbf" stroke="black" points="0,-0.5 0,-19.5 65,-19.5 65,-0.5 0,-0.5"/>
<text text-anchor="middle" x="32.5" y="-7.5" font-family="Helvetica,sans-Serif" font-size="10.00">dheader_t</text>
</a>
</g>
</g>
<!-- Node2 -->
<g id="node2" class="node">
<title>Node2</title>
<g id="a_node2"><a xlink:title=" ">
<polygon fill="none" stroke="#bfbfbf" points="18,-147.5 18,-166.5 47,-166.5 47,-147.5 18,-147.5"/>
<text text-anchor="middle" x="32.5" y="-154.5" font-family="Helvetica,sans-Serif" font-size="10.00">int</text>
</a>
</g>
</g>
<!-- Node2&#45;&gt;Node1 -->
<g id="edge1" class="edge">
<title>Node2&#45;&gt;Node1</title>
<path fill="none" stroke="#9a32cd" stroke-dasharray="5,2" d="M29.51,-137.41C26.98,-119.41 23.98,-91.35 25.5,-67 26.55,-50.18 29.35,-30.68 31.07,-19.7"/>
<polygon fill="#9a32cd" stroke="#9a32cd" points="26.07,-138.05 31.02,-147.41 32.99,-137.01 26.07,-138.05"/>
<text text-anchor="middle" x="44" y="-81" font-family="Helvetica,sans-Serif" font-size="10.00"> ident</text>
<text text-anchor="middle" x="44" y="-70" font-family="Helvetica,sans-Serif" font-size="10.00">version</text>
</g>
<!-- Node3 -->
<g id="node3" class="node">
<title>Node3</title>
<g id="a_node3"><a xlink:href="../../d7/dfa/structlump__t.html" target="_top" xlink:title=" ">
<polygon fill="none" stroke="black" points="71.5,-68.5 71.5,-87.5 121.5,-87.5 121.5,-68.5 71.5,-68.5"/>
<text text-anchor="middle" x="96.5" y="-75.5" font-family="Helvetica,sans-Serif" font-size="10.00">lump_t</text>
</a>
</g>
</g>
<!-- Node2&#45;&gt;Node3 -->
<g id="edge3" class="edge">
<title>Node2&#45;&gt;Node3</title>
<path fill="none" stroke="#9a32cd" stroke-dasharray="5,2" d="M46.16,-139.56C59.32,-123.73 78.72,-100.39 89.18,-87.81"/>
<polygon fill="#9a32cd" stroke="#9a32cd" points="43.29,-137.54 39.59,-147.47 48.68,-142.01 43.29,-137.54"/>
<text text-anchor="middle" x="88.5" y="-121" font-family="Helvetica,sans-Serif" font-size="10.00"> fileofs</text>
<text text-anchor="middle" x="88.5" y="-110" font-family="Helvetica,sans-Serif" font-size="10.00">filelen</text>
</g>
<!-- Node3&#45;&gt;Node1 -->
<g id="edge2" class="edge">
<title>Node3&#45;&gt;Node1</title>
<path fill="none" stroke="#9a32cd" stroke-dasharray="5,2" d="M81.03,-61.05C68.49,-48.11 51.27,-30.36 41.07,-19.84"/>
<polygon fill="#9a32cd" stroke="#9a32cd" points="78.66,-63.63 88.13,-68.37 83.68,-58.76 78.66,-63.63"/>
<text text-anchor="middle" x="84.5" y="-41" font-family="Helvetica,sans-Serif" font-size="10.00"> lumps</text>
</g>
</g>
</svg>
