<?xml version="1.0" encoding="UTF-8" standalone="no"?>
<!DOCTYPE svg PUBLIC "-//W3C//DTD SVG 1.1//EN"
 "http://www.w3.org/Graphics/SVG/1.1/DTD/svg11.dtd">
<!-- Generated by graphviz version 2.43.0 (0)
 -->
<!-- Title: LPDRVCONFIGINFOEX Pages: 1 -->
<svg width="230pt" height="106pt"
 viewBox="0.00 0.00 229.50 106.00" xmlns="http://www.w3.org/2000/svg" xmlns:xlink="http://www.w3.org/1999/xlink">
<g id="graph0" class="graph" transform="scale(1 1) rotate(0) translate(4 102)">
<title>LPDRVCONFIGINFOEX</title>
<!-- Node1 -->
<g id="node1" class="node">
<title>Node1</title>
<g id="a_node1"><a xlink:title=" ">
<polygon fill="#bfbfbf" stroke="black" points="45.5,-0.5 45.5,-19.5 169.5,-19.5 169.5,-0.5 45.5,-0.5"/>
<text text-anchor="middle" x="107.5" y="-7.5" font-family="Helvetica,sans-Serif" font-size="10.00">LPDRVCONFIGINFOEX</text>
</a>
</g>
</g>
<!-- Node2 -->
<g id="node2" class="node">
<title>Node2</title>
<g id="a_node2"><a xlink:title=" ">
<polygon fill="none" stroke="#bfbfbf" points="0,-78.5 0,-97.5 89,-97.5 89,-78.5 0,-78.5"/>
<text text-anchor="middle" x="44.5" y="-85.5" font-family="Helvetica,sans-Serif" font-size="10.00">unsigned short</text>
</a>
</g>
</g>
<!-- Node2&#45;&gt;Node1 -->
<g id="edge1" class="edge">
<title>Node2&#45;&gt;Node1</title>
<path fill="none" stroke="#9a32cd" stroke-dasharray="5,2" d="M40.33,-68.23C39.21,-58.44 39.65,-46.73 45.5,-38 51.25,-29.42 60.37,-23.54 69.87,-19.53"/>
<polygon fill="#9a32cd" stroke="#9a32cd" points="36.9,-68.93 42.04,-78.19 43.79,-67.75 36.9,-68.93"/>
<text text-anchor="middle" x="97" y="-52" font-family="Helvetica,sans-Serif" font-size="10.00"> lpszDCIAliasName</text>
<text text-anchor="middle" x="97" y="-41" font-family="Helvetica,sans-Serif" font-size="10.00">lpszDCISectionName</text>
</g>
<!-- Node3 -->
<g id="node3" class="node">
<title>Node3</title>
<g id="a_node3"><a xlink:title=" ">
<polygon fill="none" stroke="#bfbfbf" points="151.5,-78.5 151.5,-97.5 189.5,-97.5 189.5,-78.5 151.5,-78.5"/>
<text text-anchor="middle" x="170.5" y="-85.5" font-family="Helvetica,sans-Serif" font-size="10.00">long</text>
</a>
</g>
</g>
<!-- Node3&#45;&gt;Node1 -->
<g id="edge2" class="edge">
<title>Node3&#45;&gt;Node1</title>
<path fill="none" stroke="#9a32cd" stroke-dasharray="5,2" d="M165.04,-68.57C161.46,-58.74 156.05,-46.86 148.5,-38 142.09,-30.47 133.07,-24.22 125.12,-19.64"/>
<polygon fill="#9a32cd" stroke="#9a32cd" points="161.75,-69.8 168.2,-78.21 168.41,-67.62 161.75,-69.8"/>
<text text-anchor="middle" x="191" y="-52" font-family="Helvetica,sans-Serif" font-size="10.00"> dnDevNode</text>
<text text-anchor="middle" x="191" y="-41" font-family="Helvetica,sans-Serif" font-size="10.00">dwDCISize</text>
</g>
</g>
</svg>
