<?xml version="1.0" encoding="UTF-8" standalone="no"?>
<!DOCTYPE svg PUBLIC "-//W3C//DTD SVG 1.1//EN"
 "http://www.w3.org/Graphics/SVG/1.1/DTD/svg11.dtd">
<!-- Generated by graphviz version 2.43.0 (0)
 -->
<!-- Title: cin_cache Pages: 1 -->
<!--zoomable 205 -->
<svg id="main" version="1.1" xmlns="http://www.w3.org/2000/svg" xmlns:xlink="http://www.w3.org/1999/xlink" xml:space="preserve" onload="init(evt)">
<style type="text/css"><![CDATA[
.edge:hover path { stroke: red; }
.edge:hover polygon { stroke: red; fill: red; }
]]></style>
<script type="text/javascript"><![CDATA[
var edges = document.getElementsByTagName('g');
if (edges && edges.length) {
  for (var i=0;i<edges.length;i++) {
    if (edges[i].id.substr(0,4)=='edge') {
      edges[i].setAttribute('class','edge');
    }
  }
}
]]></script>
        <defs>
                <circle id="rim" cx="0" cy="0" r="7"/>
                <circle id="rim2" cx="0" cy="0" r="3.5"/>
                <g id="zoomPlus">
                        <use xlink:href="#rim" fill="#404040">
                                <set attributeName="fill" to="#808080" begin="zoomplus.mouseover" end="zoomplus.mouseout"/>
                        </use>
                        <path d="M-4,0h8M0,-4v8" fill="none" stroke="white" stroke-width="1.5" pointer-events="none"/>
                </g>
                <g id="zoomMin">
                        <use xlink:href="#rim" fill="#404040">
                                <set attributeName="fill" to="#808080" begin="zoomminus.mouseover" end="zoomminus.mouseout"/>
                        </use>
                        <path d="M-4,0h8" fill="none" stroke="white" stroke-width="1.5" pointer-events="none"/>
                </g>
                <g id="dirArrow">
                        <path fill="none" stroke="white" stroke-width="1.5" d="M0,-3.0v7 M-2.5,-0.5L0,-3.0L2.5,-0.5"/>
                </g>
               <g id="resetDef">
                       <use xlink:href="#rim2" fill="#404040">
                               <set attributeName="fill" to="#808080" begin="reset.mouseover" end="reset.mouseout"/>
                       </use>
               </g>
        </defs>

<script type="text/javascript">
var viewWidth = 667;
var viewHeight = 205;
var sectionId = 'dynsection-0';
</script>
<script xlink:href="../../svgpan.js"/>
<svg id="graph" class="graph">
<g id="viewport">
<title>cin_cache</title>
<!-- Node1 -->
<g id="node1" class="node">
<title>Node1</title>
<g id="a_node1"><a xlink:title=" ">
<polygon fill="#bfbfbf" stroke="black" points="225,-0.5 225,-19.5 290,-19.5 290,-0.5 225,-0.5"/>
<text text-anchor="middle" x="257.5" y="-7.5" font-family="Helvetica,sans-Serif" font-size="10.00">cin_cache</text>
</a>
</g>
</g>
<!-- Node2 -->
<g id="node2" class="node">
<title>Node2</title>
<g id="a_node2"><a xlink:title=" ">
<polygon fill="none" stroke="#bfbfbf" points="0,-177.5 0,-196.5 47,-196.5 47,-177.5 0,-177.5"/>
<text text-anchor="middle" x="23.5" y="-184.5" font-family="Helvetica,sans-Serif" font-size="10.00">byte *</text>
</a>
</g>
</g>
<!-- Node2&#45;&gt;Node1 -->
<g id="edge1" class="edge">
<title>Node2&#45;&gt;Node1</title>
<path fill="none" stroke="#9a32cd" stroke-dasharray="5,2" d="M19.21,-167.49C13.15,-136.12 6.29,-72.53 40.5,-38 65.55,-12.71 170.31,-9.98 224.58,-10.33"/>
<polygon fill="#9a32cd" stroke="#9a32cd" points="15.83,-168.43 21.33,-177.48 22.68,-166.97 15.83,-168.43"/>
<text text-anchor="middle" x="53" y="-101.5" font-family="Helvetica,sans-Serif" font-size="10.00"> gray</text>
<text text-anchor="middle" x="53" y="-90.5" font-family="Helvetica,sans-Serif" font-size="10.00">buf</text>
</g>
<!-- Node3 -->
<g id="node3" class="node">
<title>Node3</title>
<g id="a_node3"><a xlink:title=" ">
<polygon fill="none" stroke="#bfbfbf" points="65.5,-177.5 65.5,-196.5 103.5,-196.5 103.5,-177.5 65.5,-177.5"/>
<text text-anchor="middle" x="84.5" y="-184.5" font-family="Helvetica,sans-Serif" font-size="10.00">void</text>
</a>
</g>
</g>
<!-- Node3&#45;&gt;Node1 -->
<g id="edge2" class="edge">
<title>Node3&#45;&gt;Node1</title>
<path fill="none" stroke="#9a32cd" stroke-dasharray="5,2" d="M78.47,-167.42C69.7,-136.43 57.7,-74.07 89.5,-38 106.84,-18.33 180.9,-12.96 224.69,-11.51"/>
<polygon fill="#9a32cd" stroke="#9a32cd" points="75.22,-168.75 81.47,-177.3 81.92,-166.72 75.22,-168.75"/>
<text text-anchor="middle" x="115" y="-112.5" font-family="Helvetica,sans-Serif" font-size="10.00"> VQ0</text>
<text text-anchor="middle" x="115" y="-101.5" font-family="Helvetica,sans-Serif" font-size="10.00">VQ1</text>
<text text-anchor="middle" x="115" y="-90.5" font-family="Helvetica,sans-Serif" font-size="10.00">VQNormal</text>
<text text-anchor="middle" x="115" y="-79.5" font-family="Helvetica,sans-Serif" font-size="10.00">VQBuffer</text>
</g>
<!-- Node4 -->
<g id="node4" class="node">
<title>Node4</title>
<g id="a_node4"><a xlink:title=" ">
<polygon fill="none" stroke="#bfbfbf" points="139.5,-177.5 139.5,-196.5 177.5,-196.5 177.5,-177.5 139.5,-177.5"/>
<text text-anchor="middle" x="158.5" y="-184.5" font-family="Helvetica,sans-Serif" font-size="10.00">char</text>
</a>
</g>
</g>
<!-- Node4&#45;&gt;Node1 -->
<g id="edge3" class="edge">
<title>Node4&#45;&gt;Node1</title>
<path fill="none" stroke="#9a32cd" stroke-dasharray="5,2" d="M153.28,-167.8C145.74,-137.38 135.76,-75.82 165.5,-38 179.39,-20.33 204.21,-13.79 224.58,-11.55"/>
<polygon fill="#9a32cd" stroke="#9a32cd" points="149.9,-168.73 155.86,-177.49 156.67,-166.93 149.9,-168.73"/>
<text text-anchor="middle" x="189.5" y="-96" font-family="Helvetica,sans-Serif" font-size="10.00"> fileName</text>
</g>
<!-- Node5 -->
<g id="node5" class="node">
<title>Node5</title>
<g id="a_node5"><a xlink:title=" ">
<polygon fill="none" stroke="#bfbfbf" points="197.5,-177.5 197.5,-196.5 255.5,-196.5 255.5,-177.5 197.5,-177.5"/>
<text text-anchor="middle" x="226.5" y="-184.5" font-family="Helvetica,sans-Serif" font-size="10.00">e_status</text>
</a>
</g>
</g>
<!-- Node5&#45;&gt;Node1 -->
<g id="edge4" class="edge">
<title>Node5&#45;&gt;Node1</title>
<path fill="none" stroke="#9a32cd" stroke-dasharray="5,2" d="M222.74,-167.18C217.84,-138.11 211.94,-81.15 230.5,-38 233.64,-30.69 239.77,-24.3 245.4,-19.58"/>
<polygon fill="#9a32cd" stroke="#9a32cd" points="219.32,-167.98 224.57,-177.18 226.21,-166.71 219.32,-167.98"/>
<text text-anchor="middle" x="247.5" y="-96" font-family="Helvetica,sans-Serif" font-size="10.00"> status</text>
</g>
<!-- Node6 -->
<g id="node6" class="node">
<title>Node6</title>
<g id="a_node6"><a xlink:title=" ">
<polygon fill="none" stroke="#bfbfbf" points="274,-177.5 274,-196.5 303,-196.5 303,-177.5 274,-177.5"/>
<text text-anchor="middle" x="288.5" y="-184.5" font-family="Helvetica,sans-Serif" font-size="10.00">int</text>
</a>
</g>
</g>
<!-- Node6&#45;&gt;Node1 -->
<g id="edge5" class="edge">
<title>Node6&#45;&gt;Node1</title>
<path fill="none" stroke="#9a32cd" stroke-dasharray="5,2" d="M286.03,-167.23C282.18,-139.03 274.2,-84.12 264.5,-38 263.22,-31.93 261.47,-25.18 260.04,-19.95"/>
<polygon fill="#9a32cd" stroke="#9a32cd" points="282.58,-167.83 287.37,-177.27 289.51,-166.9 282.58,-167.83"/>
<text text-anchor="middle" x="315" y="-134.5" font-family="Helvetica,sans-Serif" font-size="10.00"> width</text>
<text text-anchor="middle" x="315" y="-123.5" font-family="Helvetica,sans-Serif" font-size="10.00">CIN_WIDTH</text>
<text text-anchor="middle" x="315" y="-112.5" font-family="Helvetica,sans-Serif" font-size="10.00">playonwalls</text>
<text text-anchor="middle" x="315" y="-101.5" font-family="Helvetica,sans-Serif" font-size="10.00">height</text>
<text text-anchor="middle" x="315" y="-90.5" font-family="Helvetica,sans-Serif" font-size="10.00">CIN_HEIGHT</text>
<text text-anchor="middle" x="315" y="-79.5" font-family="Helvetica,sans-Serif" font-size="10.00">ypos</text>
<text text-anchor="middle" x="315" y="-68.5" font-family="Helvetica,sans-Serif" font-size="10.00">xpos</text>
<text text-anchor="middle" x="315" y="-57.5" font-family="Helvetica,sans-Serif" font-size="10.00">iFile</text>
</g>
<!-- Node7 -->
<g id="node7" class="node">
<title>Node7</title>
<g id="a_node7"><a xlink:title=" ">
<polygon fill="none" stroke="#bfbfbf" points="351.5,-177.5 351.5,-196.5 389.5,-196.5 389.5,-177.5 351.5,-177.5"/>
<text text-anchor="middle" x="370.5" y="-184.5" font-family="Helvetica,sans-Serif" font-size="10.00">long</text>
</a>
</g>
</g>
<!-- Node7&#45;&gt;Node1 -->
<g id="edge6" class="edge">
<title>Node7&#45;&gt;Node1</title>
<path fill="none" stroke="#9a32cd" stroke-dasharray="5,2" d="M370.15,-167.05C369.1,-131.56 364.95,-56.94 348.5,-38 334.13,-21.45 310.13,-14.81 290.38,-12.25"/>
<polygon fill="#9a32cd" stroke="#9a32cd" points="366.66,-167.54 370.4,-177.45 373.66,-167.37 366.66,-167.54"/>
<text text-anchor="middle" x="410" y="-151" font-family="Helvetica,sans-Serif" font-size="10.00"> ROQSize</text>
<text text-anchor="middle" x="410" y="-140" font-family="Helvetica,sans-Serif" font-size="10.00">RoQPlayed</text>
<text text-anchor="middle" x="410" y="-129" font-family="Helvetica,sans-Serif" font-size="10.00">drawX</text>
<text text-anchor="middle" x="410" y="-118" font-family="Helvetica,sans-Serif" font-size="10.00">drawY</text>
<text text-anchor="middle" x="410" y="-107" font-family="Helvetica,sans-Serif" font-size="10.00">roq_flags</text>
<text text-anchor="middle" x="410" y="-96" font-family="Helvetica,sans-Serif" font-size="10.00">screenDelta</text>
<text text-anchor="middle" x="410" y="-85" font-family="Helvetica,sans-Serif" font-size="10.00">onQuad</text>
<text text-anchor="middle" x="410" y="-74" font-family="Helvetica,sans-Serif" font-size="10.00">tfps</text>
<text text-anchor="middle" x="410" y="-63" font-family="Helvetica,sans-Serif" font-size="10.00">samplesPerPixel</text>
<text text-anchor="middle" x="410" y="-52" font-family="Helvetica,sans-Serif" font-size="10.00">roqFPS</text>
<text text-anchor="middle" x="410" y="-41" font-family="Helvetica,sans-Serif" font-size="10.00">...</text>
</g>
<!-- Node8 -->
<g id="node8" class="node">
<title>Node8</title>
<g id="a_node8"><a xlink:title=" ">
<polygon fill="none" stroke="#bfbfbf" points="444,-177.5 444,-196.5 505,-196.5 505,-177.5 444,-177.5"/>
<text text-anchor="middle" x="474.5" y="-184.5" font-family="Helvetica,sans-Serif" font-size="10.00">unsigned</text>
</a>
</g>
</g>
<!-- Node8&#45;&gt;Node1 -->
<g id="edge7" class="edge">
<title>Node8&#45;&gt;Node1</title>
<path fill="none" stroke="#9a32cd" stroke-dasharray="5,2" d="M474.4,-167.28C473.81,-131.58 470.41,-55.73 452.5,-38 430.22,-15.94 339.69,-11.63 290.2,-10.96"/>
<polygon fill="#9a32cd" stroke="#9a32cd" points="470.91,-167.38 474.51,-177.34 477.9,-167.3 470.91,-167.38"/>
<text text-anchor="middle" x="509.5" y="-134.5" font-family="Helvetica,sans-Serif" font-size="10.00"> xsize</text>
<text text-anchor="middle" x="509.5" y="-123.5" font-family="Helvetica,sans-Serif" font-size="10.00">ysize</text>
<text text-anchor="middle" x="509.5" y="-112.5" font-family="Helvetica,sans-Serif" font-size="10.00">RoQFrameSize</text>
<text text-anchor="middle" x="509.5" y="-101.5" font-family="Helvetica,sans-Serif" font-size="10.00">roq_id</text>
<text text-anchor="middle" x="509.5" y="-90.5" font-family="Helvetica,sans-Serif" font-size="10.00">lastTime</text>
<text text-anchor="middle" x="509.5" y="-79.5" font-family="Helvetica,sans-Serif" font-size="10.00">startTime</text>
<text text-anchor="middle" x="509.5" y="-68.5" font-family="Helvetica,sans-Serif" font-size="10.00">minsize</text>
<text text-anchor="middle" x="509.5" y="-57.5" font-family="Helvetica,sans-Serif" font-size="10.00">maxsize</text>
</g>
<!-- Node9 -->
<g id="node9" class="node">
<title>Node9</title>
<g id="a_node9"><a xlink:title=" ">
<polygon fill="none" stroke="#bfbfbf" points="538.5,-177.5 538.5,-196.5 600.5,-196.5 600.5,-177.5 538.5,-177.5"/>
<text text-anchor="middle" x="569.5" y="-184.5" font-family="Helvetica,sans-Serif" font-size="10.00">qboolean</text>
</a>
</g>
</g>
<!-- Node9&#45;&gt;Node1 -->
<g id="edge8" class="edge">
<title>Node9&#45;&gt;Node1</title>
<path fill="none" stroke="#9a32cd" stroke-dasharray="5,2" d="M573.18,-167.29C578.21,-135.6 582.95,-71.56 547.5,-38 529.12,-20.6 362.05,-13.9 290.15,-11.81"/>
<polygon fill="#9a32cd" stroke="#9a32cd" points="569.69,-166.92 571.39,-177.38 576.58,-168.15 569.69,-166.92"/>
<text text-anchor="middle" x="617.5" y="-140" font-family="Helvetica,sans-Serif" font-size="10.00"> looping</text>
<text text-anchor="middle" x="617.5" y="-129" font-family="Helvetica,sans-Serif" font-size="10.00">smootheddouble</text>
<text text-anchor="middle" x="617.5" y="-118" font-family="Helvetica,sans-Serif" font-size="10.00">half</text>
<text text-anchor="middle" x="617.5" y="-107" font-family="Helvetica,sans-Serif" font-size="10.00">shader</text>
<text text-anchor="middle" x="617.5" y="-96" font-family="Helvetica,sans-Serif" font-size="10.00">silent</text>
<text text-anchor="middle" x="617.5" y="-85" font-family="Helvetica,sans-Serif" font-size="10.00">inMemory</text>
<text text-anchor="middle" x="617.5" y="-74" font-family="Helvetica,sans-Serif" font-size="10.00">alterGameState</text>
<text text-anchor="middle" x="617.5" y="-63" font-family="Helvetica,sans-Serif" font-size="10.00">dirty</text>
<text text-anchor="middle" x="617.5" y="-52" font-family="Helvetica,sans-Serif" font-size="10.00">holdAtEnd</text>
</g>
</g>
</svg>
        <g id="navigator" transform="translate(0 0)" fill="#404254">
                <rect fill="#f2f5e9" fill-opacity="0.5" stroke="#606060" stroke-width=".5" x="0" y="0" width="60" height="60"/>
                <use id="zoomplus" xlink:href="#zoomPlus" x="17" y="9" onmousedown="handleZoom(evt,'in')"/>
                <use id="zoomminus" xlink:href="#zoomMin" x="42" y="9" onmousedown="handleZoom(evt,'out')"/>
                <use id="reset" xlink:href="#resetDef" x="30" y="36" onmousedown="handleReset()"/>
                <g id="arrowUp" xlink:href="#dirArrow" transform="translate(30 24)" onmousedown="handlePan(0,-1)">
                  <use xlink:href="#rim" fill="#404040">
                        <set attributeName="fill" to="#808080" begin="arrowUp.mouseover" end="arrowUp.mouseout"/>
                  </use>
                  <path fill="none" stroke="white" stroke-width="1.5" d="M0,-3.0v7 M-2.5,-0.5L0,-3.0L2.5,-0.5"/>
                </g>
                <g id="arrowRight" xlink:href="#dirArrow" transform="rotate(90) translate(36 -43)" onmousedown="handlePan(1,0)">
                  <use xlink:href="#rim" fill="#404040">
                        <set attributeName="fill" to="#808080" begin="arrowRight.mouseover" end="arrowRight.mouseout"/>
                  </use>
                  <path fill="none" stroke="white" stroke-width="1.5" d="M0,-3.0v7 M-2.5,-0.5L0,-3.0L2.5,-0.5"/>
                </g>
                <g id="arrowDown" xlink:href="#dirArrow" transform="rotate(180) translate(-30 -48)" onmousedown="handlePan(0,1)">
                  <use xlink:href="#rim" fill="#404040">
                        <set attributeName="fill" to="#808080" begin="arrowDown.mouseover" end="arrowDown.mouseout"/>
                  </use>
                  <path fill="none" stroke="white" stroke-width="1.5" d="M0,-3.0v7 M-2.5,-0.5L0,-3.0L2.5,-0.5"/>
                </g>
                <g id="arrowLeft" xlink:href="#dirArrow" transform="rotate(270) translate(-36 17)" onmousedown="handlePan(-1,0)">
                  <use xlink:href="#rim" fill="#404040">
                        <set attributeName="fill" to="#808080" begin="arrowLeft.mouseover" end="arrowLeft.mouseout"/>
                  </use>
                  <path fill="none" stroke="white" stroke-width="1.5" d="M0,-3.0v7 M-2.5,-0.5L0,-3.0L2.5,-0.5"/>
                </g>
        </g>
        <svg viewBox="0 0 15 15" width="100%" height="30px" preserveAspectRatio="xMaxYMin meet">
         <g id="arrow_out" transform="scale(0.3 0.3)">
          <a xlink:href="structcin__cache__coll__graph_org.svg" target="_base">
           <rect id="button" ry="5" rx="5" y="6" x="6" height="38" width="38"
                fill="#f2f5e9" fill-opacity="0.5" stroke="#606060" stroke-width="1.0"/>
           <path id="arrow"
             d="M 11.500037,31.436501 C 11.940474,20.09759 22.043105,11.32322 32.158766,21.979434 L 37.068811,17.246167 C 37.068811,17.246167 37.088388,32 37.088388,32 L 22.160133,31.978069 C 22.160133,31.978069 26.997745,27.140456 26.997745,27.140456 C 18.528582,18.264221 13.291696,25.230495 11.500037,31.436501 z"
             style="fill:#404040;"/>
          </a>
         </g>
        </svg>
</svg>
