<?xml version="1.0" encoding="UTF-8" standalone="no"?>
<!DOCTYPE svg PUBLIC "-//W3C//DTD SVG 1.1//EN"
 "http://www.w3.org/Graphics/SVG/1.1/DTD/svg11.dtd">
<!-- Generated by graphviz version 2.43.0 (0)
 -->
<!-- Title: _PROCESSOR_IDLE_HANDLER_INFO Pages: 1 -->
<svg width="521pt" height="110pt"
 viewBox="0.00 0.00 521.00 110.00" xmlns="http://www.w3.org/2000/svg" xmlns:xlink="http://www.w3.org/1999/xlink">
<g id="graph0" class="graph" transform="scale(1 1) rotate(0) translate(4 106)">
<title>_PROCESSOR_IDLE_HANDLER_INFO</title>
<!-- Node1 -->
<g id="node1" class="node">
<title>Node1</title>
<g id="a_node1"><a xlink:title=" ">
<polygon fill="#bfbfbf" stroke="black" points="323,-41.5 323,-60.5 513,-60.5 513,-41.5 323,-41.5"/>
<text text-anchor="middle" x="418" y="-48.5" font-family="Helvetica,sans-Serif" font-size="10.00">_PROCESSOR_IDLE_HANDLER_INFO</text>
</a>
</g>
</g>
<!-- Node2 -->
<g id="node2" class="node">
<title>Node2</title>
<g id="a_node2"><a xlink:title=" ">
<polygon fill="none" stroke="#bfbfbf" points="35.5,-60.5 35.5,-101.5 162.5,-101.5 162.5,-60.5 35.5,-60.5"/>
<text text-anchor="start" x="43.5" y="-89.5" font-family="Helvetica,sans-Serif" font-size="10.00">BOOLEAN DDKFASTAPI</text>
<text text-anchor="start" x="43.5" y="-78.5" font-family="Helvetica,sans-Serif" font-size="10.00">(*)(PPROCESSOR_IDLE</text>
<text text-anchor="middle" x="99" y="-67.5" font-family="Helvetica,sans-Serif" font-size="10.00">_TIMES IdleTimes)</text>
</a>
</g>
</g>
<!-- Node2&#45;&gt;Node1 -->
<g id="edge1" class="edge">
<title>Node2&#45;&gt;Node1</title>
<path fill="none" stroke="#9a32cd" stroke-dasharray="5,2" d="M172.8,-74.11C217.39,-69.89 274.91,-64.45 322.93,-59.9"/>
<polygon fill="#9a32cd" stroke="#9a32cd" points="172.25,-70.65 162.63,-75.07 172.91,-77.62 172.25,-70.65"/>
<text text-anchor="middle" x="260.5" y="-72" font-family="Helvetica,sans-Serif" font-size="10.00"> Handler</text>
</g>
<!-- Node3 -->
<g id="node3" class="node">
<title>Node3</title>
<g id="a_node3"><a xlink:title=" ">
<polygon fill="none" stroke="#bfbfbf" points="0,-0.5 0,-41.5 198,-41.5 198,-0.5 0,-0.5"/>
<text text-anchor="start" x="8" y="-29.5" font-family="Helvetica,sans-Serif" font-size="10.00">PSecurityUserData *typedef</text>
<text text-anchor="start" x="8" y="-18.5" font-family="Helvetica,sans-Serif" font-size="10.00"> PSECPKG_EXTENDED_INFORMATION</text>
<text text-anchor="middle" x="99" y="-7.5" font-family="Helvetica,sans-Serif" font-size="10.00"> *typedef</text>
</a>
</g>
</g>
<!-- Node3&#45;&gt;Node1 -->
<g id="edge2" class="edge">
<title>Node3&#45;&gt;Node1</title>
<path fill="none" stroke="#9a32cd" stroke-dasharray="5,2" d="M208.5,-31.27C245.67,-34.79 286.92,-38.69 322.86,-42.09"/>
<polygon fill="#9a32cd" stroke="#9a32cd" points="208.42,-27.74 198.13,-30.29 207.76,-34.71 208.42,-27.74"/>
<text text-anchor="middle" x="260.5" y="-42" font-family="Helvetica,sans-Serif" font-size="10.00"> HardwareLatency</text>
</g>
</g>
</svg>
