<?xml version="1.0" encoding="UTF-8" standalone="no"?>
<!DOCTYPE svg PUBLIC "-//W3C//DTD SVG 1.1//EN"
 "http://www.w3.org/Graphics/SVG/1.1/DTD/svg11.dtd">
<!-- Generated by graphviz version 2.43.0 (0)
 -->
<!-- Title: _EXCEPTION_RECORD Pages: 1 -->
<svg width="286pt" height="150pt"
 viewBox="0.00 0.00 285.50 150.00" xmlns="http://www.w3.org/2000/svg" xmlns:xlink="http://www.w3.org/1999/xlink">
<g id="graph0" class="graph" transform="scale(1 1) rotate(0) translate(4 146)">
<title>_EXCEPTION_RECORD</title>
<!-- Node1 -->
<g id="node1" class="node">
<title>Node1</title>
<g id="a_node1"><a xlink:title=" ">
<polygon fill="#bfbfbf" stroke="black" points="43,-0.5 43,-19.5 166,-19.5 166,-0.5 43,-0.5"/>
<text text-anchor="middle" x="104.5" y="-7.5" font-family="Helvetica,sans-Serif" font-size="10.00">_EXCEPTION_RECORD</text>
</a>
</g>
</g>
<!-- Node1&#45;&gt;Node1 -->
<g id="edge1" class="edge">
<title>Node1&#45;&gt;Node1</title>
<path fill="none" stroke="#9a32cd" stroke-dasharray="5,2" d="M176.08,-16.8C181,-15.24 184,-12.97 184,-10 184,-5.36 176.7,-2.44 166.17,-1.25"/>
<polygon fill="#9a32cd" stroke="#9a32cd" points="175.3,-13.38 166.17,-18.75 176.66,-20.25 175.3,-13.38"/>
<text text-anchor="middle" x="226.5" y="-7.5" font-family="Helvetica,sans-Serif" font-size="10.00"> ExceptionRecord</text>
</g>
<!-- Node2 -->
<g id="node2" class="node">
<title>Node2</title>
<g id="a_node2"><a xlink:title=" ">
<polygon fill="none" stroke="#bfbfbf" points="0,-111.5 0,-130.5 61,-130.5 61,-111.5 0,-111.5"/>
<text text-anchor="middle" x="30.5" y="-118.5" font-family="Helvetica,sans-Serif" font-size="10.00">unsigned</text>
</a>
</g>
</g>
<!-- Node2&#45;&gt;Node1 -->
<g id="edge2" class="edge">
<title>Node2&#45;&gt;Node1</title>
<path fill="none" stroke="#9a32cd" stroke-dasharray="5,2" d="M30.7,-101.19C31.82,-83.18 36.04,-56.13 50.5,-38 57.1,-29.72 66.9,-23.77 76.34,-19.61"/>
<polygon fill="#9a32cd" stroke="#9a32cd" points="27.2,-101.19 30.34,-111.31 34.19,-101.44 27.2,-101.19"/>
<text text-anchor="middle" x="103.5" y="-74" font-family="Helvetica,sans-Serif" font-size="10.00"> ExceptionCode</text>
<text text-anchor="middle" x="103.5" y="-63" font-family="Helvetica,sans-Serif" font-size="10.00">ExceptionInformation</text>
<text text-anchor="middle" x="103.5" y="-52" font-family="Helvetica,sans-Serif" font-size="10.00">NumberParameters</text>
<text text-anchor="middle" x="103.5" y="-41" font-family="Helvetica,sans-Serif" font-size="10.00">ExceptionFlags</text>
</g>
<!-- Node3 -->
<g id="node3" class="node">
<title>Node3</title>
<g id="a_node3"><a xlink:title=" ">
<polygon fill="none" stroke="#bfbfbf" points="79.5,-100.5 79.5,-141.5 277.5,-141.5 277.5,-100.5 79.5,-100.5"/>
<text text-anchor="start" x="87.5" y="-129.5" font-family="Helvetica,sans-Serif" font-size="10.00">PSecurityUserData *typedef</text>
<text text-anchor="start" x="87.5" y="-118.5" font-family="Helvetica,sans-Serif" font-size="10.00"> PSECPKG_EXTENDED_INFORMATION</text>
<text text-anchor="middle" x="178.5" y="-107.5" font-family="Helvetica,sans-Serif" font-size="10.00"> *typedef</text>
</a>
</g>
</g>
<!-- Node3&#45;&gt;Node1 -->
<g id="edge3" class="edge">
<title>Node3&#45;&gt;Node1</title>
<path fill="none" stroke="#9a32cd" stroke-dasharray="5,2" d="M176.43,-90.5C173.92,-73.59 168.43,-52.84 156.5,-38 149.87,-29.75 140.05,-23.75 130.72,-19.53"/>
<polygon fill="#9a32cd" stroke="#9a32cd" points="172.96,-90.94 177.65,-100.44 179.91,-90.09 172.96,-90.94"/>
<text text-anchor="middle" x="220" y="-57.5" font-family="Helvetica,sans-Serif" font-size="10.00"> ExceptionAddress</text>
</g>
</g>
</svg>
