<?xml version="1.0" encoding="UTF-8" standalone="no"?>
<!DOCTYPE svg PUBLIC "-//W3C//DTD SVG 1.1//EN"
 "http://www.w3.org/Graphics/SVG/1.1/DTD/svg11.dtd">
<!-- Generated by graphviz version 2.43.0 (0)
 -->
<!-- Title: _CDB::_START_STOP Pages: 1 -->
<svg width="160pt" height="183pt"
 viewBox="0.00 0.00 159.50 183.00" xmlns="http://www.w3.org/2000/svg" xmlns:xlink="http://www.w3.org/1999/xlink">
<g id="graph0" class="graph" transform="scale(1 1) rotate(0) translate(4 179)">
<title>_CDB::_START_STOP</title>
<!-- Node1 -->
<g id="node1" class="node">
<title>Node1</title>
<g id="a_node1"><a xlink:title=" ">
<polygon fill="#bfbfbf" stroke="black" points="0,-0.5 0,-19.5 115,-19.5 115,-0.5 0,-0.5"/>
<text text-anchor="middle" x="57.5" y="-7.5" font-family="Helvetica,sans-Serif" font-size="10.00">_CDB::_START_STOP</text>
</a>
</g>
</g>
<!-- Node2 -->
<g id="node2" class="node">
<title>Node2</title>
<g id="a_node2"><a xlink:title=" ">
<polygon fill="none" stroke="#bfbfbf" points="27,-155.5 27,-174.5 88,-174.5 88,-155.5 27,-155.5"/>
<text text-anchor="middle" x="57.5" y="-162.5" font-family="Helvetica,sans-Serif" font-size="10.00">unsigned</text>
</a>
</g>
</g>
<!-- Node2&#45;&gt;Node1 -->
<g id="edge1" class="edge">
<title>Node2&#45;&gt;Node1</title>
<path fill="none" stroke="#9a32cd" stroke-dasharray="5,2" d="M57.5,-145.11C57.5,-111.72 57.5,-43.54 57.5,-19.57"/>
<polygon fill="#9a32cd" stroke="#9a32cd" points="54,-145.34 57.5,-155.34 61,-145.34 54,-145.34"/>
<text text-anchor="middle" x="104.5" y="-129" font-family="Helvetica,sans-Serif" font-size="10.00"> Control</text>
<text text-anchor="middle" x="104.5" y="-118" font-family="Helvetica,sans-Serif" font-size="10.00">LoadEject</text>
<text text-anchor="middle" x="104.5" y="-107" font-family="Helvetica,sans-Serif" font-size="10.00">Reserved1</text>
<text text-anchor="middle" x="104.5" y="-96" font-family="Helvetica,sans-Serif" font-size="10.00">Reserved2</text>
<text text-anchor="middle" x="104.5" y="-85" font-family="Helvetica,sans-Serif" font-size="10.00">Immediate</text>
<text text-anchor="middle" x="104.5" y="-74" font-family="Helvetica,sans-Serif" font-size="10.00">Reserved3</text>
<text text-anchor="middle" x="104.5" y="-63" font-family="Helvetica,sans-Serif" font-size="10.00">LogicalUnitNumber</text>
<text text-anchor="middle" x="104.5" y="-52" font-family="Helvetica,sans-Serif" font-size="10.00">OperationCode</text>
<text text-anchor="middle" x="104.5" y="-41" font-family="Helvetica,sans-Serif" font-size="10.00">Start</text>
</g>
</g>
</svg>
