<?xml version="1.0" encoding="UTF-8" standalone="no"?>
<!DOCTYPE svg PUBLIC "-//W3C//DTD SVG 1.1//EN"
 "http://www.w3.org/Graphics/SVG/1.1/DTD/svg11.dtd">
<!-- Generated by graphviz version 2.43.0 (0)
 -->
<!-- Title: _KEY_VALUE_PARTIAL_INFORMATION Pages: 1 -->
<svg width="286pt" height="150pt"
 viewBox="0.00 0.00 285.50 150.00" xmlns="http://www.w3.org/2000/svg" xmlns:xlink="http://www.w3.org/1999/xlink">
<g id="graph0" class="graph" transform="scale(1 1) rotate(0) translate(4 146)">
<title>_KEY_VALUE_PARTIAL_INFORMATION</title>
<!-- Node1 -->
<g id="node1" class="node">
<title>Node1</title>
<g id="a_node1"><a xlink:title=" ">
<polygon fill="#bfbfbf" stroke="black" points="43.5,-0.5 43.5,-30.5 165.5,-30.5 165.5,-0.5 43.5,-0.5"/>
<text text-anchor="start" x="51.5" y="-18.5" font-family="Helvetica,sans-Serif" font-size="10.00">_KEY_VALUE_PARTIAL</text>
<text text-anchor="middle" x="104.5" y="-7.5" font-family="Helvetica,sans-Serif" font-size="10.00">_INFORMATION</text>
</a>
</g>
</g>
<!-- Node2 -->
<g id="node2" class="node">
<title>Node2</title>
<g id="a_node2"><a xlink:title=" ">
<polygon fill="none" stroke="#bfbfbf" points="0,-111.5 0,-130.5 61,-130.5 61,-111.5 0,-111.5"/>
<text text-anchor="middle" x="30.5" y="-118.5" font-family="Helvetica,sans-Serif" font-size="10.00">unsigned</text>
</a>
</g>
</g>
<!-- Node2&#45;&gt;Node1 -->
<g id="edge1" class="edge">
<title>Node2&#45;&gt;Node1</title>
<path fill="none" stroke="#9a32cd" stroke-dasharray="5,2" d="M42.7,-102.94C57.09,-82.81 80.76,-49.7 94.25,-30.84"/>
<polygon fill="#9a32cd" stroke="#9a32cd" points="39.78,-101.01 36.81,-111.18 45.47,-105.08 39.78,-101.01"/>
<text text-anchor="middle" x="95" y="-63" font-family="Helvetica,sans-Serif" font-size="10.00"> Data</text>
</g>
<!-- Node3 -->
<g id="node3" class="node">
<title>Node3</title>
<g id="a_node3"><a xlink:title=" ">
<polygon fill="none" stroke="#bfbfbf" points="79.5,-100.5 79.5,-141.5 277.5,-141.5 277.5,-100.5 79.5,-100.5"/>
<text text-anchor="start" x="87.5" y="-129.5" font-family="Helvetica,sans-Serif" font-size="10.00">PSecurityUserData *typedef</text>
<text text-anchor="start" x="87.5" y="-118.5" font-family="Helvetica,sans-Serif" font-size="10.00"> PSECPKG_EXTENDED_INFORMATION</text>
<text text-anchor="middle" x="178.5" y="-107.5" font-family="Helvetica,sans-Serif" font-size="10.00"> *typedef</text>
</a>
</g>
</g>
<!-- Node3&#45;&gt;Node1 -->
<g id="edge2" class="edge">
<title>Node3&#45;&gt;Node1</title>
<path fill="none" stroke="#9a32cd" stroke-dasharray="5,2" d="M158.27,-91.7C144.14,-71.94 125.87,-46.4 114.68,-30.74"/>
<polygon fill="#9a32cd" stroke="#9a32cd" points="155.57,-93.95 164.23,-100.04 161.26,-89.87 155.57,-93.95"/>
<text text-anchor="middle" x="178" y="-74" font-family="Helvetica,sans-Serif" font-size="10.00"> TitleIndex</text>
<text text-anchor="middle" x="178" y="-63" font-family="Helvetica,sans-Serif" font-size="10.00">DataLength</text>
<text text-anchor="middle" x="178" y="-52" font-family="Helvetica,sans-Serif" font-size="10.00">Type</text>
</g>
</g>
</svg>
