<?xml version="1.0" encoding="UTF-8" standalone="no"?>
<!DOCTYPE svg PUBLIC "-//W3C//DTD SVG 1.1//EN"
 "http://www.w3.org/Graphics/SVG/1.1/DTD/svg11.dtd">
<!-- Generated by graphviz version 2.43.0 (0)
 -->
<!-- Title: score_t Pages: 1 -->
<svg width="168pt" height="205pt"
 viewBox="0.00 0.00 167.74 205.00" xmlns="http://www.w3.org/2000/svg" xmlns:xlink="http://www.w3.org/1999/xlink">
<g id="graph0" class="graph" transform="scale(1 1) rotate(0) translate(4 201)">
<title>score_t</title>
<!-- Node1 -->
<g id="node1" class="node">
<title>Node1</title>
<g id="a_node1"><a xlink:title=" ">
<polygon fill="#bfbfbf" stroke="black" points="41.74,-0.5 41.74,-19.5 93.74,-19.5 93.74,-0.5 41.74,-0.5"/>
<text text-anchor="middle" x="67.74" y="-7.5" font-family="Helvetica,sans-Serif" font-size="10.00">score_t</text>
</a>
</g>
</g>
<!-- Node2 -->
<g id="node2" class="node">
<title>Node2</title>
<g id="a_node2"><a xlink:title=" ">
<polygon fill="none" stroke="#bfbfbf" points="0.24,-177.5 0.24,-196.5 29.24,-196.5 29.24,-177.5 0.24,-177.5"/>
<text text-anchor="middle" x="14.74" y="-184.5" font-family="Helvetica,sans-Serif" font-size="10.00">int</text>
</a>
</g>
</g>
<!-- Node2&#45;&gt;Node1 -->
<g id="edge1" class="edge">
<title>Node2&#45;&gt;Node1</title>
<path fill="none" stroke="#9a32cd" stroke-dasharray="5,2" d="M9.24,-167.67C1.49,-137.99 -9.13,-78.61 15.74,-38 21.53,-28.54 31.81,-22.25 41.72,-18.13"/>
<polygon fill="#9a32cd" stroke="#9a32cd" points="5.92,-168.81 11.99,-177.5 12.66,-166.92 5.92,-168.81"/>
<text text-anchor="middle" x="57.24" y="-151" font-family="Helvetica,sans-Serif" font-size="10.00"> accuracy</text>
<text text-anchor="middle" x="57.24" y="-140" font-family="Helvetica,sans-Serif" font-size="10.00">defendCount</text>
<text text-anchor="middle" x="57.24" y="-129" font-family="Helvetica,sans-Serif" font-size="10.00">excellentCount</text>
<text text-anchor="middle" x="57.24" y="-118" font-family="Helvetica,sans-Serif" font-size="10.00">guantletCount</text>
<text text-anchor="middle" x="57.24" y="-107" font-family="Helvetica,sans-Serif" font-size="10.00">ping</text>
<text text-anchor="middle" x="57.24" y="-96" font-family="Helvetica,sans-Serif" font-size="10.00">assistCount</text>
<text text-anchor="middle" x="57.24" y="-85" font-family="Helvetica,sans-Serif" font-size="10.00">scoreFlags</text>
<text text-anchor="middle" x="57.24" y="-74" font-family="Helvetica,sans-Serif" font-size="10.00">impressiveCount</text>
<text text-anchor="middle" x="57.24" y="-63" font-family="Helvetica,sans-Serif" font-size="10.00">client</text>
<text text-anchor="middle" x="57.24" y="-52" font-family="Helvetica,sans-Serif" font-size="10.00">captures</text>
<text text-anchor="middle" x="57.24" y="-41" font-family="Helvetica,sans-Serif" font-size="10.00">...</text>
</g>
<!-- Node3 -->
<g id="node3" class="node">
<title>Node3</title>
<g id="a_node3"><a xlink:title=" ">
<polygon fill="none" stroke="#bfbfbf" points="89.74,-177.5 89.74,-196.5 151.74,-196.5 151.74,-177.5 89.74,-177.5"/>
<text text-anchor="middle" x="120.74" y="-184.5" font-family="Helvetica,sans-Serif" font-size="10.00">qboolean</text>
</a>
</g>
</g>
<!-- Node3&#45;&gt;Node1 -->
<g id="edge2" class="edge">
<title>Node3&#45;&gt;Node1</title>
<path fill="none" stroke="#9a32cd" stroke-dasharray="5,2" d="M121.95,-167.23C123.01,-137.8 121.64,-79.84 98.74,-38 94.69,-30.61 87.79,-24.3 81.52,-19.64"/>
<polygon fill="#9a32cd" stroke="#9a32cd" points="118.45,-167.18 121.44,-177.34 125.44,-167.53 118.45,-167.18"/>
<text text-anchor="middle" x="140.74" y="-96" font-family="Helvetica,sans-Serif" font-size="10.00"> perfect</text>
</g>
</g>
</svg>
