<?xml version="1.0" encoding="UTF-8" standalone="no"?>
<!DOCTYPE svg PUBLIC "-//W3C//DTD SVG 1.1//EN"
 "http://www.w3.org/Graphics/SVG/1.1/DTD/svg11.dtd">
<!-- Generated by graphviz version 2.43.0 (0)
 -->
<!-- Title: Source/Engine/libspeex/modes_wb.c Pages: 1 -->
<!--zoomable 442 -->
<svg id="main" version="1.1" xmlns="http://www.w3.org/2000/svg" xmlns:xlink="http://www.w3.org/1999/xlink" xml:space="preserve" onload="init(evt)">
<style type="text/css"><![CDATA[
.edge:hover path { stroke: red; }
.edge:hover polygon { stroke: red; fill: red; }
]]></style>
<script type="text/javascript"><![CDATA[
var edges = document.getElementsByTagName('g');
if (edges && edges.length) {
  for (var i=0;i<edges.length;i++) {
    if (edges[i].id.substr(0,4)=='edge') {
      edges[i].setAttribute('class','edge');
    }
  }
}
]]></script>
        <defs>
                <circle id="rim" cx="0" cy="0" r="7"/>
                <circle id="rim2" cx="0" cy="0" r="3.5"/>
                <g id="zoomPlus">
                        <use xlink:href="#rim" fill="#404040">
                                <set attributeName="fill" to="#808080" begin="zoomplus.mouseover" end="zoomplus.mouseout"/>
                        </use>
                        <path d="M-4,0h8M0,-4v8" fill="none" stroke="white" stroke-width="1.5" pointer-events="none"/>
                </g>
                <g id="zoomMin">
                        <use xlink:href="#rim" fill="#404040">
                                <set attributeName="fill" to="#808080" begin="zoomminus.mouseover" end="zoomminus.mouseout"/>
                        </use>
                        <path d="M-4,0h8" fill="none" stroke="white" stroke-width="1.5" pointer-events="none"/>
                </g>
                <g id="dirArrow">
                        <path fill="none" stroke="white" stroke-width="1.5" d="M0,-3.0v7 M-2.5,-0.5L0,-3.0L2.5,-0.5"/>
                </g>
               <g id="resetDef">
                       <use xlink:href="#rim2" fill="#404040">
                               <set attributeName="fill" to="#808080" begin="reset.mouseover" end="reset.mouseout"/>
                       </use>
               </g>
        </defs>

<script type="text/javascript">
var viewWidth = 861;
var viewHeight = 442;
var sectionId = 'dynsection-0';
</script>
<script xlink:href="../../svgpan.js"/>
<svg id="graph" class="graph">
<g id="viewport">
<title>Source/Engine/libspeex/modes_wb.c</title>
<!-- Node1 -->
<g id="node1" class="node">
<title>Node1</title>
<g id="a_node1"><a xlink:title=" ">
<polygon fill="#bfbfbf" stroke="black" points="427,-403.5 427,-433.5 557,-433.5 557,-403.5 427,-403.5"/>
<text text-anchor="start" x="435" y="-421.5" font-family="Helvetica,sans-Serif" font-size="10.00">Source/Engine/libspeex</text>
<text text-anchor="middle" x="492" y="-410.5" font-family="Helvetica,sans-Serif" font-size="10.00">/modes_wb.c</text>
</a>
</g>
</g>
<!-- Node2 -->
<g id="node2" class="node">
<title>Node2</title>
<g id="a_node2"><a xlink:href="../../d9/daa/modes_8h.html" target="_top" xlink:title="Describes the different modes of the codec.">
<polygon fill="none" stroke="black" points="455.5,-235.5 455.5,-254.5 514.5,-254.5 514.5,-235.5 455.5,-235.5"/>
<text text-anchor="middle" x="485" y="-242.5" font-family="Helvetica,sans-Serif" font-size="10.00">modes.h</text>
</a>
</g>
</g>
<!-- Node1&#45;&gt;Node2 -->
<g id="edge1" class="edge">
<title>Node1&#45;&gt;Node2</title>
<path fill="none" stroke="midnightblue" d="M488.45,-403.46C486.1,-393.39 483.22,-379.45 482,-367 478.46,-330.88 481.06,-288.41 483.13,-264.61"/>
<polygon fill="midnightblue" stroke="midnightblue" points="486.63,-264.82 484.07,-254.53 479.66,-264.16 486.63,-264.82"/>
</g>
<!-- Node8 -->
<g id="node8" class="node">
<title>Node8</title>
<g id="a_node8"><a xlink:href="../../d2/d2d/arch_8h.html" target="_top" xlink:title="Various architecture definitions Speex.">
<polygon fill="none" stroke="black" points="218.5,-179.5 218.5,-198.5 265.5,-198.5 265.5,-179.5 218.5,-179.5"/>
<text text-anchor="middle" x="242" y="-186.5" font-family="Helvetica,sans-Serif" font-size="10.00">arch.h</text>
</a>
</g>
</g>
<!-- Node1&#45;&gt;Node8 -->
<g id="edge33" class="edge">
<title>Node1&#45;&gt;Node8</title>
<path fill="none" stroke="midnightblue" d="M426.74,-410.73C339.25,-397.71 187.26,-360.36 121,-255 116.27,-247.48 115.93,-242.3 121,-235 131.27,-220.22 176.29,-206.27 208.4,-197.93"/>
<polygon fill="midnightblue" stroke="midnightblue" points="209.48,-201.27 218.32,-195.43 207.76,-194.48 209.48,-201.27"/>
</g>
<!-- Node9 -->
<g id="node9" class="node">
<title>Node9</title>
<g id="a_node9"><a xlink:href="../../da/d91/ltp_8h.html" target="_top" xlink:title="Long&#45;Term Prediction functions.">
<polygon fill="none" stroke="black" points="571,-235.5 571,-254.5 609,-254.5 609,-235.5 571,-235.5"/>
<text text-anchor="middle" x="590" y="-242.5" font-family="Helvetica,sans-Serif" font-size="10.00">ltp.h</text>
</a>
</g>
</g>
<!-- Node1&#45;&gt;Node9 -->
<g id="edge10" class="edge">
<title>Node1&#45;&gt;Node9</title>
<path fill="none" stroke="midnightblue" d="M520.44,-403.41C534.97,-394.81 551.71,-382.48 562,-367 583.01,-335.39 588.37,-290.04 589.66,-264.79"/>
<polygon fill="midnightblue" stroke="midnightblue" points="593.16,-264.84 590.01,-254.72 586.17,-264.6 593.16,-264.84"/>
</g>
<!-- Node10 -->
<g id="node10" class="node">
<title>Node10</title>
<g id="a_node10"><a xlink:href="../../d2/dea/quant__lsp_8h.html" target="_top" xlink:title="LSP vector quantization.">
<polygon fill="none" stroke="black" points="627.5,-235.5 627.5,-254.5 700.5,-254.5 700.5,-235.5 627.5,-235.5"/>
<text text-anchor="middle" x="664" y="-242.5" font-family="Helvetica,sans-Serif" font-size="10.00">quant_lsp.h</text>
</a>
</g>
</g>
<!-- Node1&#45;&gt;Node10 -->
<g id="edge13" class="edge">
<title>Node1&#45;&gt;Node10</title>
<path fill="none" stroke="midnightblue" d="M525.2,-403.48C543.32,-394.75 565.38,-382.28 582,-367 615.5,-336.21 642.3,-289.2 655.35,-263.79"/>
<polygon fill="midnightblue" stroke="midnightblue" points="658.59,-265.12 659.94,-254.61 652.34,-261.99 658.59,-265.12"/>
</g>
<!-- Node11 -->
<g id="node11" class="node">
<title>Node11</title>
<g id="a_node11"><a xlink:href="../../d5/da9/cb__search_8h.html" target="_top" xlink:title="Overlapped codebook search.">
<polygon fill="none" stroke="black" points="0,-235.5 0,-254.5 74,-254.5 74,-235.5 0,-235.5"/>
<text text-anchor="middle" x="37" y="-242.5" font-family="Helvetica,sans-Serif" font-size="10.00">cb_search.h</text>
</a>
</g>
</g>
<!-- Node1&#45;&gt;Node11 -->
<g id="edge16" class="edge">
<title>Node1&#45;&gt;Node11</title>
<path fill="none" stroke="midnightblue" d="M453.28,-403.49C425.59,-393.44 387.46,-379.51 354,-367 249.37,-327.89 125.83,-280.33 68.79,-258.3"/>
<polygon fill="midnightblue" stroke="midnightblue" points="69.84,-254.95 59.25,-254.61 67.32,-261.48 69.84,-254.95"/>
</g>
<!-- Node12 -->
<g id="node12" class="node">
<title>Node12</title>
<g id="a_node12"><a xlink:href="../../d4/d9a/sb__celp_8h.html" target="_top" xlink:title="Sub&#45;band CELP mode used for wideband encoding.">
<polygon fill="none" stroke="black" points="491,-347.5 491,-366.5 553,-366.5 553,-347.5 491,-347.5"/>
<text text-anchor="middle" x="522" y="-354.5" font-family="Helvetica,sans-Serif" font-size="10.00">sb_celp.h</text>
</a>
</g>
</g>
<!-- Node1&#45;&gt;Node12 -->
<g id="edge19" class="edge">
<title>Node1&#45;&gt;Node12</title>
<path fill="none" stroke="midnightblue" d="M499.11,-403.4C503.29,-395.11 508.61,-384.55 513.07,-375.71"/>
<polygon fill="midnightblue" stroke="midnightblue" points="516.26,-377.16 517.63,-366.66 510.01,-374.01 516.26,-377.16"/>
</g>
<!-- Node13 -->
<g id="node13" class="node">
<title>Node13</title>
<g id="a_node13"><a xlink:href="../../d1/df9/nb__celp_8h.html" target="_top" xlink:title="Narrowband CELP encoder/decoder.">
<polygon fill="none" stroke="black" points="371.5,-291.5 371.5,-310.5 434.5,-310.5 434.5,-291.5 371.5,-291.5"/>
<text text-anchor="middle" x="403" y="-298.5" font-family="Helvetica,sans-Serif" font-size="10.00">nb_celp.h</text>
</a>
</g>
</g>
<!-- Node1&#45;&gt;Node13 -->
<g id="edge31" class="edge">
<title>Node1&#45;&gt;Node13</title>
<path fill="none" stroke="midnightblue" d="M479.23,-403.2C470.48,-393.24 458.75,-379.55 449,-367 436.71,-351.19 423.6,-332.46 414.54,-319.18"/>
<polygon fill="midnightblue" stroke="midnightblue" points="417.22,-316.91 408.72,-310.59 411.43,-320.83 417.22,-316.91"/>
</g>
<!-- Node15 -->
<g id="node15" class="node">
<title>Node15</title>
<g id="a_node15"><a xlink:href="../../d8/d1c/vbr_8h.html" target="_top" xlink:title="Variable Bit&#45;Rate (VBR) related routines.">
<polygon fill="none" stroke="black" points="130.5,-235.5 130.5,-254.5 171.5,-254.5 171.5,-235.5 130.5,-235.5"/>
<text text-anchor="middle" x="151" y="-242.5" font-family="Helvetica,sans-Serif" font-size="10.00">vbr.h</text>
</a>
</g>
</g>
<!-- Node1&#45;&gt;Node15 -->
<g id="edge32" class="edge">
<title>Node1&#45;&gt;Node15</title>
<path fill="none" stroke="midnightblue" d="M464.09,-403.47C399.47,-370.96 240.27,-290.9 177.28,-259.21"/>
<polygon fill="midnightblue" stroke="midnightblue" points="178.53,-255.93 168.02,-254.56 175.38,-262.18 178.53,-255.93"/>
</g>
<!-- Node17 -->
<g id="node17" class="node">
<title>Node17</title>
<g id="a_node17"><a xlink:title=" ">
<polygon fill="none" stroke="#bfbfbf" points="647.5,-347.5 647.5,-366.5 698.5,-366.5 698.5,-347.5 647.5,-347.5"/>
<text text-anchor="middle" x="673" y="-354.5" font-family="Helvetica,sans-Serif" font-size="10.00">math.h</text>
</a>
</g>
</g>
<!-- Node1&#45;&gt;Node17 -->
<g id="edge34" class="edge">
<title>Node1&#45;&gt;Node17</title>
<path fill="none" stroke="midnightblue" d="M534.89,-403.4C566.22,-393.1 608.19,-379.31 637.61,-369.63"/>
<polygon fill="midnightblue" stroke="midnightblue" points="639.05,-372.85 647.45,-366.4 636.86,-366.2 639.05,-372.85"/>
</g>
<!-- Node18 -->
<g id="node18" class="node">
<title>Node18</title>
<g id="a_node18"><a xlink:href="../../d8/dbc/os__support_8h.html" target="_top" xlink:title=" ">
<polygon fill="none" stroke="black" points="716.5,-347.5 716.5,-366.5 795.5,-366.5 795.5,-347.5 716.5,-347.5"/>
<text text-anchor="middle" x="756" y="-354.5" font-family="Helvetica,sans-Serif" font-size="10.00">os_support.h</text>
</a>
</g>
</g>
<!-- Node1&#45;&gt;Node18 -->
<g id="edge35" class="edge">
<title>Node1&#45;&gt;Node18</title>
<path fill="none" stroke="midnightblue" d="M554.23,-403.47C601.37,-392.85 665.16,-378.47 708.3,-368.75"/>
<polygon fill="midnightblue" stroke="midnightblue" points="709.27,-372.12 718.26,-366.51 707.73,-365.29 709.27,-372.12"/>
</g>
<!-- Node3 -->
<g id="node3" class="node">
<title>Node3</title>
<g id="a_node3"><a xlink:href="../../d9/d8f/speex_8h.html" target="_top" xlink:title="Describes the different modes of the codec.">
<polygon fill="none" stroke="black" points="310.5,-179.5 310.5,-198.5 397.5,-198.5 397.5,-179.5 310.5,-179.5"/>
<text text-anchor="middle" x="354" y="-186.5" font-family="Helvetica,sans-Serif" font-size="10.00">speex/speex.h</text>
</a>
</g>
</g>
<!-- Node2&#45;&gt;Node3 -->
<g id="edge2" class="edge">
<title>Node2&#45;&gt;Node3</title>
<path fill="none" stroke="midnightblue" d="M464.24,-235.44C442.68,-226.56 408.74,-212.56 384.21,-202.45"/>
<polygon fill="midnightblue" stroke="midnightblue" points="385.24,-199.09 374.66,-198.52 382.57,-205.56 385.24,-199.09"/>
</g>
<!-- Node4 -->
<g id="node4" class="node">
<title>Node4</title>
<g id="a_node4"><a xlink:href="../../d6/d21/speex__bits_8h.html" target="_top" xlink:title="Handles bit packing/unpacking.">
<polygon fill="none" stroke="black" points="430,-123.5 430,-142.5 540,-142.5 540,-123.5 430,-123.5"/>
<text text-anchor="middle" x="485" y="-130.5" font-family="Helvetica,sans-Serif" font-size="10.00">speex/speex_bits.h</text>
</a>
</g>
</g>
<!-- Node2&#45;&gt;Node4 -->
<g id="edge7" class="edge">
<title>Node2&#45;&gt;Node4</title>
<path fill="none" stroke="midnightblue" d="M485,-235.37C485,-217.62 485,-176.67 485,-152.6"/>
<polygon fill="midnightblue" stroke="midnightblue" points="488.5,-152.59 485,-142.59 481.5,-152.59 488.5,-152.59"/>
</g>
<!-- Node2&#45;&gt;Node8 -->
<g id="edge8" class="edge">
<title>Node2&#45;&gt;Node8</title>
<path fill="none" stroke="midnightblue" d="M455.2,-237.38C409.75,-227.28 323.35,-208.08 275.68,-197.48"/>
<polygon fill="midnightblue" stroke="midnightblue" points="276.36,-194.05 265.84,-195.3 274.84,-200.88 276.36,-194.05"/>
</g>
<!-- Node3&#45;&gt;Node4 -->
<g id="edge3" class="edge">
<title>Node3&#45;&gt;Node4</title>
<path fill="none" stroke="midnightblue" d="M374.76,-179.44C396.32,-170.56 430.26,-156.56 454.79,-146.45"/>
<polygon fill="midnightblue" stroke="midnightblue" points="456.43,-149.56 464.34,-142.52 453.76,-143.09 456.43,-149.56"/>
</g>
<!-- Node5 -->
<g id="node5" class="node">
<title>Node5</title>
<g id="a_node5"><a xlink:href="../../d8/df4/speex__types_8h.html" target="_top" xlink:title="Speex types.">
<polygon fill="none" stroke="black" points="224.5,-123.5 224.5,-142.5 343.5,-142.5 343.5,-123.5 224.5,-123.5"/>
<text text-anchor="middle" x="284" y="-130.5" font-family="Helvetica,sans-Serif" font-size="10.00">speex/speex_types.h</text>
</a>
</g>
</g>
<!-- Node3&#45;&gt;Node5 -->
<g id="edge4" class="edge">
<title>Node3&#45;&gt;Node5</title>
<path fill="none" stroke="midnightblue" d="M342.75,-179.32C332.2,-171.18 316.2,-158.84 303.56,-149.09"/>
<polygon fill="midnightblue" stroke="midnightblue" points="305.51,-146.17 295.45,-142.83 301.23,-151.71 305.51,-146.17"/>
</g>
<!-- Node6 -->
<g id="node6" class="node">
<title>Node6</title>
<g id="a_node6"><a xlink:href="../../d8/d6d/speex__config__types_8h.html" target="_top" xlink:title=" ">
<polygon fill="none" stroke="black" points="227.5,-56.5 227.5,-86.5 340.5,-86.5 340.5,-56.5 227.5,-56.5"/>
<text text-anchor="start" x="235.5" y="-74.5" font-family="Helvetica,sans-Serif" font-size="10.00">speex/speex_config</text>
<text text-anchor="middle" x="284" y="-63.5" font-family="Helvetica,sans-Serif" font-size="10.00">_types.h</text>
</a>
</g>
</g>
<!-- Node5&#45;&gt;Node6 -->
<g id="edge5" class="edge">
<title>Node5&#45;&gt;Node6</title>
<path fill="none" stroke="midnightblue" d="M284,-123.48C284,-116.47 284,-106.19 284,-96.7"/>
<polygon fill="midnightblue" stroke="midnightblue" points="287.5,-96.52 284,-86.52 280.5,-96.52 287.5,-96.52"/>
</g>
<!-- Node7 -->
<g id="node7" class="node">
<title>Node7</title>
<g id="a_node7"><a xlink:title=" ">
<polygon fill="none" stroke="#bfbfbf" points="257.5,-0.5 257.5,-19.5 310.5,-19.5 310.5,-0.5 257.5,-0.5"/>
<text text-anchor="middle" x="284" y="-7.5" font-family="Helvetica,sans-Serif" font-size="10.00">stdint.h</text>
</a>
</g>
</g>
<!-- Node6&#45;&gt;Node7 -->
<g id="edge6" class="edge">
<title>Node6&#45;&gt;Node7</title>
<path fill="none" stroke="midnightblue" d="M284,-56.4C284,-48.47 284,-38.46 284,-29.86"/>
<polygon fill="midnightblue" stroke="midnightblue" points="287.5,-29.66 284,-19.66 280.5,-29.66 287.5,-29.66"/>
</g>
<!-- Node8&#45;&gt;Node5 -->
<g id="edge9" class="edge">
<title>Node8&#45;&gt;Node5</title>
<path fill="none" stroke="midnightblue" d="M248.94,-179.08C254.93,-171.38 263.75,-160.03 271.05,-150.65"/>
<polygon fill="midnightblue" stroke="midnightblue" points="273.82,-152.79 277.19,-142.75 268.29,-148.5 273.82,-152.79"/>
</g>
<!-- Node9&#45;&gt;Node4 -->
<g id="edge11" class="edge">
<title>Node9&#45;&gt;Node4</title>
<path fill="none" stroke="midnightblue" d="M587.22,-235.11C582.67,-221.68 572.55,-195.99 557,-179 544.84,-165.71 527.88,-154.85 513.47,-147.13"/>
<polygon fill="midnightblue" stroke="midnightblue" points="514.95,-143.96 504.45,-142.52 511.76,-150.19 514.95,-143.96"/>
</g>
<!-- Node9&#45;&gt;Node8 -->
<g id="edge12" class="edge">
<title>Node9&#45;&gt;Node8</title>
<path fill="none" stroke="midnightblue" d="M570.79,-241.02C514.16,-232.23 347.32,-206.34 275.5,-195.2"/>
<polygon fill="midnightblue" stroke="midnightblue" points="276.04,-191.74 265.62,-193.67 274.97,-198.66 276.04,-191.74"/>
</g>
<!-- Node10&#45;&gt;Node4 -->
<g id="edge14" class="edge">
<title>Node10&#45;&gt;Node4</title>
<path fill="none" stroke="midnightblue" d="M653.88,-235.3C638.27,-222.13 607.06,-196.77 578,-179 557.67,-166.57 533.4,-154.92 514.75,-146.59"/>
<polygon fill="midnightblue" stroke="midnightblue" points="516.12,-143.37 505.56,-142.55 513.3,-149.78 516.12,-143.37"/>
</g>
<!-- Node10&#45;&gt;Node8 -->
<g id="edge15" class="edge">
<title>Node10&#45;&gt;Node8</title>
<path fill="none" stroke="midnightblue" d="M627.39,-236.56C624.22,-236 621.06,-235.47 618,-235 477.87,-213.37 441.56,-217.69 301,-199 292.77,-197.9 283.91,-196.61 275.62,-195.36"/>
<polygon fill="midnightblue" stroke="midnightblue" points="275.93,-191.86 265.51,-193.8 274.86,-198.78 275.93,-191.86"/>
</g>
<!-- Node11&#45;&gt;Node4 -->
<g id="edge17" class="edge">
<title>Node11&#45;&gt;Node4</title>
<path fill="none" stroke="midnightblue" d="M55.93,-235.41C87.18,-221.56 151.8,-194.31 209,-179 279.86,-160.04 363.22,-147.78 419.64,-140.92"/>
<polygon fill="midnightblue" stroke="midnightblue" points="420.34,-144.37 429.86,-139.71 419.51,-137.41 420.34,-144.37"/>
</g>
<!-- Node11&#45;&gt;Node8 -->
<g id="edge18" class="edge">
<title>Node11&#45;&gt;Node8</title>
<path fill="none" stroke="midnightblue" d="M69.48,-235.44C107.52,-225.42 170.19,-208.92 208.61,-198.79"/>
<polygon fill="midnightblue" stroke="midnightblue" points="209.52,-202.18 218.3,-196.24 207.74,-195.41 209.52,-202.18"/>
</g>
<!-- Node12&#45;&gt;Node2 -->
<g id="edge20" class="edge">
<title>Node12&#45;&gt;Node2</title>
<path fill="none" stroke="midnightblue" d="M519.1,-347.37C513.1,-329.54 499.23,-288.3 491.15,-264.27"/>
<polygon fill="midnightblue" stroke="midnightblue" points="494.4,-262.95 487.89,-254.59 487.76,-265.19 494.4,-262.95"/>
</g>
<!-- Node12&#45;&gt;Node4 -->
<g id="edge21" class="edge">
<title>Node12&#45;&gt;Node4</title>
<path fill="none" stroke="midnightblue" d="M523.17,-347.4C525.63,-327.44 530.56,-276.54 523,-235 517.46,-204.55 503.25,-171.34 493.86,-151.61"/>
<polygon fill="midnightblue" stroke="midnightblue" points="497,-150.06 489.46,-142.61 490.71,-153.13 497,-150.06"/>
</g>
<!-- Node12&#45;&gt;Node13 -->
<g id="edge22" class="edge">
<title>Node12&#45;&gt;Node13</title>
<path fill="none" stroke="midnightblue" d="M503.14,-347.44C483.73,-338.64 453.27,-324.81 431.04,-314.72"/>
<polygon fill="midnightblue" stroke="midnightblue" points="432.32,-311.46 421.77,-310.52 429.43,-317.84 432.32,-311.46"/>
</g>
<!-- Node13&#45;&gt;Node2 -->
<g id="edge23" class="edge">
<title>Node13&#45;&gt;Node2</title>
<path fill="none" stroke="midnightblue" d="M416.17,-291.32C428.85,-282.98 448.23,-270.21 463.21,-260.35"/>
<polygon fill="midnightblue" stroke="midnightblue" points="465.43,-263.08 471.86,-254.65 461.58,-257.23 465.43,-263.08"/>
</g>
<!-- Node13&#45;&gt;Node4 -->
<g id="edge24" class="edge">
<title>Node13&#45;&gt;Node4</title>
<path fill="none" stroke="midnightblue" d="M407.41,-291.08C420.43,-264.72 458.88,-186.88 476.28,-151.66"/>
<polygon fill="midnightblue" stroke="midnightblue" points="479.48,-153.08 480.77,-142.57 473.2,-149.98 479.48,-153.08"/>
</g>
<!-- Node14 -->
<g id="node14" class="node">
<title>Node14</title>
<g id="a_node14"><a xlink:href="../../d7/d0c/speex__callbacks_8h.html" target="_top" xlink:title="Describes callback handling and in&#45;band signalling.">
<polygon fill="none" stroke="black" points="261,-235.5 261,-254.5 399,-254.5 399,-235.5 261,-235.5"/>
<text text-anchor="middle" x="330" y="-242.5" font-family="Helvetica,sans-Serif" font-size="10.00">speex/speex_callbacks.h</text>
</a>
</g>
</g>
<!-- Node13&#45;&gt;Node14 -->
<g id="edge25" class="edge">
<title>Node13&#45;&gt;Node14</title>
<path fill="none" stroke="midnightblue" d="M391.27,-291.32C380.16,-283.11 363.26,-270.6 350.02,-260.81"/>
<polygon fill="midnightblue" stroke="midnightblue" points="352.06,-257.97 341.94,-254.83 347.9,-263.59 352.06,-257.97"/>
</g>
<!-- Node13&#45;&gt;Node15 -->
<g id="edge27" class="edge">
<title>Node13&#45;&gt;Node15</title>
<path fill="none" stroke="midnightblue" d="M371.38,-294.67C329.82,-287.43 254.38,-273.51 181.34,-255.15"/>
<polygon fill="midnightblue" stroke="midnightblue" points="182.08,-251.73 171.52,-252.65 180.35,-258.51 182.08,-251.73"/>
</g>
<!-- Node16 -->
<g id="node16" class="node">
<title>Node16</title>
<g id="a_node16"><a xlink:href="../../dc/ddd/filters_8h.html" target="_top" xlink:title="Various analysis/synthesis filters.">
<polygon fill="none" stroke="black" points="189.5,-235.5 189.5,-254.5 242.5,-254.5 242.5,-235.5 189.5,-235.5"/>
<text text-anchor="middle" x="216" y="-242.5" font-family="Helvetica,sans-Serif" font-size="10.00">filters.h</text>
</a>
</g>
</g>
<!-- Node13&#45;&gt;Node16 -->
<g id="edge29" class="edge">
<title>Node13&#45;&gt;Node16</title>
<path fill="none" stroke="midnightblue" d="M373.37,-291.44C340.66,-282 287.96,-266.78 252.67,-256.59"/>
<polygon fill="midnightblue" stroke="midnightblue" points="253.34,-253.14 242.77,-253.73 251.4,-259.87 253.34,-253.14"/>
</g>
<!-- Node14&#45;&gt;Node3 -->
<g id="edge26" class="edge">
<title>Node14&#45;&gt;Node3</title>
<path fill="none" stroke="midnightblue" d="M333.96,-235.08C337.21,-227.77 341.92,-217.18 345.95,-208.1"/>
<polygon fill="midnightblue" stroke="midnightblue" points="349.25,-209.31 350.11,-198.75 342.85,-206.47 349.25,-209.31"/>
</g>
<!-- Node15&#45;&gt;Node8 -->
<g id="edge28" class="edge">
<title>Node15&#45;&gt;Node8</title>
<path fill="none" stroke="midnightblue" d="M165.62,-235.32C179.95,-226.82 202.01,-213.73 218.75,-203.8"/>
<polygon fill="midnightblue" stroke="midnightblue" points="220.6,-206.77 227.42,-198.65 217.03,-200.75 220.6,-206.77"/>
</g>
<!-- Node16&#45;&gt;Node8 -->
<g id="edge30" class="edge">
<title>Node16&#45;&gt;Node8</title>
<path fill="none" stroke="midnightblue" d="M220.29,-235.08C223.85,-227.69 229.02,-216.95 233.42,-207.81"/>
<polygon fill="midnightblue" stroke="midnightblue" points="236.6,-209.28 237.79,-198.75 230.29,-206.24 236.6,-209.28"/>
</g>
<!-- Node19 -->
<g id="node19" class="node">
<title>Node19</title>
<g id="a_node19"><a xlink:title=" ">
<polygon fill="none" stroke="#bfbfbf" points="659.5,-291.5 659.5,-310.5 712.5,-310.5 712.5,-291.5 659.5,-291.5"/>
<text text-anchor="middle" x="686" y="-298.5" font-family="Helvetica,sans-Serif" font-size="10.00">string.h</text>
</a>
</g>
</g>
<!-- Node18&#45;&gt;Node19 -->
<g id="edge36" class="edge">
<title>Node18&#45;&gt;Node19</title>
<path fill="none" stroke="midnightblue" d="M744.75,-347.32C734.2,-339.18 718.2,-326.84 705.56,-317.09"/>
<polygon fill="midnightblue" stroke="midnightblue" points="707.51,-314.17 697.45,-310.83 703.23,-319.71 707.51,-314.17"/>
</g>
<!-- Node20 -->
<g id="node20" class="node">
<title>Node20</title>
<g id="a_node20"><a xlink:title=" ">
<polygon fill="none" stroke="#bfbfbf" points="731,-291.5 731,-310.5 781,-310.5 781,-291.5 731,-291.5"/>
<text text-anchor="middle" x="756" y="-298.5" font-family="Helvetica,sans-Serif" font-size="10.00">stdio.h</text>
</a>
</g>
</g>
<!-- Node18&#45;&gt;Node20 -->
<g id="edge37" class="edge">
<title>Node18&#45;&gt;Node20</title>
<path fill="none" stroke="midnightblue" d="M756,-347.08C756,-340.01 756,-329.86 756,-320.99"/>
<polygon fill="midnightblue" stroke="midnightblue" points="759.5,-320.75 756,-310.75 752.5,-320.75 759.5,-320.75"/>
</g>
<!-- Node21 -->
<g id="node21" class="node">
<title>Node21</title>
<g id="a_node21"><a xlink:title=" ">
<polygon fill="none" stroke="#bfbfbf" points="799.5,-291.5 799.5,-310.5 852.5,-310.5 852.5,-291.5 799.5,-291.5"/>
<text text-anchor="middle" x="826" y="-298.5" font-family="Helvetica,sans-Serif" font-size="10.00">stdlib.h</text>
</a>
</g>
</g>
<!-- Node18&#45;&gt;Node21 -->
<g id="edge38" class="edge">
<title>Node18&#45;&gt;Node21</title>
<path fill="none" stroke="midnightblue" d="M767.25,-347.32C777.8,-339.18 793.8,-326.84 806.44,-317.09"/>
<polygon fill="midnightblue" stroke="midnightblue" points="808.77,-319.71 814.55,-310.83 804.49,-314.17 808.77,-319.71"/>
</g>
</g>
</svg>
        <g id="navigator" transform="translate(0 0)" fill="#404254">
                <rect fill="#f2f5e9" fill-opacity="0.5" stroke="#606060" stroke-width=".5" x="0" y="0" width="60" height="60"/>
                <use id="zoomplus" xlink:href="#zoomPlus" x="17" y="9" onmousedown="handleZoom(evt,'in')"/>
                <use id="zoomminus" xlink:href="#zoomMin" x="42" y="9" onmousedown="handleZoom(evt,'out')"/>
                <use id="reset" xlink:href="#resetDef" x="30" y="36" onmousedown="handleReset()"/>
                <g id="arrowUp" xlink:href="#dirArrow" transform="translate(30 24)" onmousedown="handlePan(0,-1)">
                  <use xlink:href="#rim" fill="#404040">
                        <set attributeName="fill" to="#808080" begin="arrowUp.mouseover" end="arrowUp.mouseout"/>
                  </use>
                  <path fill="none" stroke="white" stroke-width="1.5" d="M0,-3.0v7 M-2.5,-0.5L0,-3.0L2.5,-0.5"/>
                </g>
                <g id="arrowRight" xlink:href="#dirArrow" transform="rotate(90) translate(36 -43)" onmousedown="handlePan(1,0)">
                  <use xlink:href="#rim" fill="#404040">
                        <set attributeName="fill" to="#808080" begin="arrowRight.mouseover" end="arrowRight.mouseout"/>
                  </use>
                  <path fill="none" stroke="white" stroke-width="1.5" d="M0,-3.0v7 M-2.5,-0.5L0,-3.0L2.5,-0.5"/>
                </g>
                <g id="arrowDown" xlink:href="#dirArrow" transform="rotate(180) translate(-30 -48)" onmousedown="handlePan(0,1)">
                  <use xlink:href="#rim" fill="#404040">
                        <set attributeName="fill" to="#808080" begin="arrowDown.mouseover" end="arrowDown.mouseout"/>
                  </use>
                  <path fill="none" stroke="white" stroke-width="1.5" d="M0,-3.0v7 M-2.5,-0.5L0,-3.0L2.5,-0.5"/>
                </g>
                <g id="arrowLeft" xlink:href="#dirArrow" transform="rotate(270) translate(-36 17)" onmousedown="handlePan(-1,0)">
                  <use xlink:href="#rim" fill="#404040">
                        <set attributeName="fill" to="#808080" begin="arrowLeft.mouseover" end="arrowLeft.mouseout"/>
                  </use>
                  <path fill="none" stroke="white" stroke-width="1.5" d="M0,-3.0v7 M-2.5,-0.5L0,-3.0L2.5,-0.5"/>
                </g>
        </g>
        <svg viewBox="0 0 15 15" width="100%" height="30px" preserveAspectRatio="xMaxYMin meet">
         <g id="arrow_out" transform="scale(0.3 0.3)">
          <a xlink:href="modes__wb_8c__incl_org.svg" target="_base">
           <rect id="button" ry="5" rx="5" y="6" x="6" height="38" width="38"
                fill="#f2f5e9" fill-opacity="0.5" stroke="#606060" stroke-width="1.0"/>
           <path id="arrow"
             d="M 11.500037,31.436501 C 11.940474,20.09759 22.043105,11.32322 32.158766,21.979434 L 37.068811,17.246167 C 37.068811,17.246167 37.088388,32 37.088388,32 L 22.160133,31.978069 C 22.160133,31.978069 26.997745,27.140456 26.997745,27.140456 C 18.528582,18.264221 13.291696,25.230495 11.500037,31.436501 z"
             style="fill:#404040;"/>
          </a>
         </g>
        </svg>
</svg>
