<?xml version="1.0" encoding="UTF-8" standalone="no"?>
<!DOCTYPE svg PUBLIC "-//W3C//DTD SVG 1.1//EN"
 "http://www.w3.org/Graphics/SVG/1.1/DTD/svg11.dtd">
<!-- Generated by graphviz version 2.43.0 (0)
 -->
<!-- Title: RAS_PARAMS_VALUE Pages: 1 -->
<svg width="282pt" height="106pt"
 viewBox="0.00 0.00 282.00 106.00" xmlns="http://www.w3.org/2000/svg" xmlns:xlink="http://www.w3.org/1999/xlink">
<g id="graph0" class="graph" transform="scale(1 1) rotate(0) translate(4 102)">
<title>RAS_PARAMS_VALUE</title>
<!-- Node1 -->
<g id="node1" class="node">
<title>Node1</title>
<g id="a_node1"><a xlink:title=" ">
<polygon fill="#bfbfbf" stroke="black" points="105.5,-0.5 105.5,-19.5 224.5,-19.5 224.5,-0.5 105.5,-0.5"/>
<text text-anchor="middle" x="165" y="-7.5" font-family="Helvetica,sans-Serif" font-size="10.00">RAS_PARAMS_VALUE</text>
</a>
</g>
</g>
<!-- Node2 -->
<g id="node2" class="node">
<title>Node2</title>
<g id="a_node2"><a xlink:title=" ">
<polygon fill="none" stroke="#bfbfbf" points="0,-78.5 0,-97.5 94,-97.5 94,-78.5 0,-78.5"/>
<text text-anchor="middle" x="47" y="-85.5" font-family="Helvetica,sans-Serif" font-size="10.00">PLDAP *typedef</text>
</a>
</g>
</g>
<!-- Node2&#45;&gt;Node1 -->
<g id="edge1" class="edge">
<title>Node2&#45;&gt;Node1</title>
<path fill="none" stroke="#9a32cd" stroke-dasharray="5,2" d="M69.09,-72.77C93.35,-57.15 131.53,-32.56 151.62,-19.62"/>
<polygon fill="#9a32cd" stroke="#9a32cd" points="67.05,-69.92 60.54,-78.28 70.84,-75.81 67.05,-69.92"/>
<text text-anchor="middle" x="134.5" y="-46.5" font-family="Helvetica,sans-Serif" font-size="10.00"> Data</text>
</g>
<!-- Node3 -->
<g id="node3" class="node">
<title>Node3</title>
<g id="a_node3"><a xlink:title=" ">
<polygon fill="none" stroke="#bfbfbf" points="112.5,-78.5 112.5,-97.5 217.5,-97.5 217.5,-78.5 112.5,-78.5"/>
<text text-anchor="middle" x="165" y="-85.5" font-family="Helvetica,sans-Serif" font-size="10.00">anonymous:String</text>
</a>
</g>
</g>
<!-- Node3&#45;&gt;Node1 -->
<g id="edge2" class="edge">
<title>Node3&#45;&gt;Node1</title>
<path fill="none" stroke="#9a32cd" stroke-dasharray="5,2" d="M165,-68.22C165,-52.7 165,-31.36 165,-19.62"/>
<polygon fill="#9a32cd" stroke="#9a32cd" points="161.5,-68.28 165,-78.28 168.5,-68.28 161.5,-68.28"/>
<text text-anchor="middle" x="181" y="-46.5" font-family="Helvetica,sans-Serif" font-size="10.00"> String</text>
</g>
<!-- Node4 -->
<g id="node4" class="node">
<title>Node4</title>
<g id="a_node4"><a xlink:title=" ">
<polygon fill="none" stroke="#bfbfbf" points="236,-78.5 236,-97.5 274,-97.5 274,-78.5 236,-78.5"/>
<text text-anchor="middle" x="255" y="-85.5" font-family="Helvetica,sans-Serif" font-size="10.00">long</text>
</a>
</g>
</g>
<!-- Node4&#45;&gt;Node1 -->
<g id="edge3" class="edge">
<title>Node4&#45;&gt;Node1</title>
<path fill="none" stroke="#9a32cd" stroke-dasharray="5,2" d="M238.78,-71.55C228.24,-61.7 214.07,-48.79 201,-38 193.29,-31.63 184.29,-24.88 177.22,-19.72"/>
<polygon fill="#9a32cd" stroke="#9a32cd" points="236.38,-74.1 246.06,-78.41 241.18,-69.01 236.38,-74.1"/>
<text text-anchor="middle" x="245" y="-52" font-family="Helvetica,sans-Serif" font-size="10.00"> Length</text>
<text text-anchor="middle" x="245" y="-41" font-family="Helvetica,sans-Serif" font-size="10.00">Number</text>
</g>
</g>
</svg>
