<?xml version="1.0" encoding="UTF-8" standalone="no"?>
<!DOCTYPE svg PUBLIC "-//W3C//DTD SVG 1.1//EN"
 "http://www.w3.org/Graphics/SVG/1.1/DTD/svg11.dtd">
<!-- Generated by graphviz version 2.43.0 (0)
 -->
<!-- Title: gz_header_s Pages: 1 -->
<svg width="223pt" height="139pt"
 viewBox="0.00 0.00 222.50 139.00" xmlns="http://www.w3.org/2000/svg" xmlns:xlink="http://www.w3.org/1999/xlink">
<g id="graph0" class="graph" transform="scale(1 1) rotate(0) translate(4 135)">
<title>gz_header_s</title>
<!-- Node1 -->
<g id="node1" class="node">
<title>Node1</title>
<g id="a_node1"><a xlink:title=" ">
<polygon fill="#bfbfbf" stroke="black" points="60,-0.5 60,-19.5 137,-19.5 137,-0.5 60,-0.5"/>
<text text-anchor="middle" x="98.5" y="-7.5" font-family="Helvetica,sans-Serif" font-size="10.00">gz_header_s</text>
</a>
</g>
</g>
<!-- Node2 -->
<g id="node2" class="node">
<title>Node2</title>
<g id="a_node2"><a xlink:title=" ">
<polygon fill="none" stroke="#bfbfbf" points="0,-111.5 0,-130.5 51,-130.5 51,-111.5 0,-111.5"/>
<text text-anchor="middle" x="25.5" y="-118.5" font-family="Helvetica,sans-Serif" font-size="10.00">Bytef *</text>
</a>
</g>
</g>
<!-- Node2&#45;&gt;Node1 -->
<g id="edge1" class="edge">
<title>Node2&#45;&gt;Node1</title>
<path fill="none" stroke="#9a32cd" stroke-dasharray="5,2" d="M25.43,-101.21C26.31,-83.21 30.19,-56.16 44.5,-38 51.05,-29.69 60.84,-23.73 70.29,-19.56"/>
<polygon fill="#9a32cd" stroke="#9a32cd" points="21.93,-101.25 25.21,-111.32 28.93,-101.4 21.93,-101.25"/>
<text text-anchor="middle" x="69.5" y="-74" font-family="Helvetica,sans-Serif" font-size="10.00"> comment</text>
<text text-anchor="middle" x="69.5" y="-63" font-family="Helvetica,sans-Serif" font-size="10.00">extra</text>
<text text-anchor="middle" x="69.5" y="-52" font-family="Helvetica,sans-Serif" font-size="10.00">name</text>
</g>
<!-- Node3 -->
<g id="node3" class="node">
<title>Node3</title>
<g id="a_node3"><a xlink:title=" ">
<polygon fill="none" stroke="#bfbfbf" points="84,-111.5 84,-130.5 113,-130.5 113,-111.5 84,-111.5"/>
<text text-anchor="middle" x="98.5" y="-118.5" font-family="Helvetica,sans-Serif" font-size="10.00">int</text>
</a>
</g>
</g>
<!-- Node3&#45;&gt;Node1 -->
<g id="edge2" class="edge">
<title>Node3&#45;&gt;Node1</title>
<path fill="none" stroke="#9a32cd" stroke-dasharray="5,2" d="M98.5,-101.19C98.5,-77.28 98.5,-36.99 98.5,-19.51"/>
<polygon fill="#9a32cd" stroke="#9a32cd" points="95,-101.45 98.5,-111.45 102,-101.45 95,-101.45"/>
<text text-anchor="middle" x="115" y="-85" font-family="Helvetica,sans-Serif" font-size="10.00"> xflags</text>
<text text-anchor="middle" x="115" y="-74" font-family="Helvetica,sans-Serif" font-size="10.00">done</text>
<text text-anchor="middle" x="115" y="-63" font-family="Helvetica,sans-Serif" font-size="10.00">os</text>
<text text-anchor="middle" x="115" y="-52" font-family="Helvetica,sans-Serif" font-size="10.00">hcrc</text>
<text text-anchor="middle" x="115" y="-41" font-family="Helvetica,sans-Serif" font-size="10.00">text</text>
</g>
<!-- Node4 -->
<g id="node4" class="node">
<title>Node4</title>
<g id="a_node4"><a xlink:title=" ">
<polygon fill="none" stroke="#bfbfbf" points="131,-111.5 131,-130.5 192,-130.5 192,-111.5 131,-111.5"/>
<text text-anchor="middle" x="161.5" y="-118.5" font-family="Helvetica,sans-Serif" font-size="10.00">unsigned</text>
</a>
</g>
</g>
<!-- Node4&#45;&gt;Node1 -->
<g id="edge3" class="edge">
<title>Node4&#45;&gt;Node1</title>
<path fill="none" stroke="#9a32cd" stroke-dasharray="5,2" d="M159.01,-101.38C155.91,-83.71 149.23,-57.08 135.5,-38 130.11,-30.51 122.01,-24.27 114.76,-19.67"/>
<polygon fill="#9a32cd" stroke="#9a32cd" points="155.56,-101.95 160.54,-111.3 162.48,-100.89 155.56,-101.95"/>
<text text-anchor="middle" x="185.5" y="-85" font-family="Helvetica,sans-Serif" font-size="10.00"> extra_max</text>
<text text-anchor="middle" x="185.5" y="-74" font-family="Helvetica,sans-Serif" font-size="10.00">comm_max</text>
<text text-anchor="middle" x="185.5" y="-63" font-family="Helvetica,sans-Serif" font-size="10.00">name_max</text>
<text text-anchor="middle" x="185.5" y="-52" font-family="Helvetica,sans-Serif" font-size="10.00">extra_len</text>
<text text-anchor="middle" x="185.5" y="-41" font-family="Helvetica,sans-Serif" font-size="10.00">time</text>
</g>
</g>
</svg>
