<?xml version="1.0" encoding="UTF-8" standalone="no"?>
<!DOCTYPE svg PUBLIC "-//W3C//DTD SVG 1.1//EN"
 "http://www.w3.org/Graphics/SVG/1.1/DTD/svg11.dtd">
<!-- Generated by graphviz version 2.43.0 (0)
 -->
<!-- Title: CID_FaceInfo Pages: 1 -->
<!--zoomable 150 -->
<svg id="main" version="1.1" xmlns="http://www.w3.org/2000/svg" xmlns:xlink="http://www.w3.org/1999/xlink" xml:space="preserve" onload="init(evt)">
<style type="text/css"><![CDATA[
.edge:hover path { stroke: red; }
.edge:hover polygon { stroke: red; fill: red; }
]]></style>
<script type="text/javascript"><![CDATA[
var edges = document.getElementsByTagName('g');
if (edges && edges.length) {
  for (var i=0;i<edges.length;i++) {
    if (edges[i].id.substr(0,4)=='edge') {
      edges[i].setAttribute('class','edge');
    }
  }
}
]]></script>
        <defs>
                <circle id="rim" cx="0" cy="0" r="7"/>
                <circle id="rim2" cx="0" cy="0" r="3.5"/>
                <g id="zoomPlus">
                        <use xlink:href="#rim" fill="#404040">
                                <set attributeName="fill" to="#808080" begin="zoomplus.mouseover" end="zoomplus.mouseout"/>
                        </use>
                        <path d="M-4,0h8M0,-4v8" fill="none" stroke="white" stroke-width="1.5" pointer-events="none"/>
                </g>
                <g id="zoomMin">
                        <use xlink:href="#rim" fill="#404040">
                                <set attributeName="fill" to="#808080" begin="zoomminus.mouseover" end="zoomminus.mouseout"/>
                        </use>
                        <path d="M-4,0h8" fill="none" stroke="white" stroke-width="1.5" pointer-events="none"/>
                </g>
                <g id="dirArrow">
                        <path fill="none" stroke="white" stroke-width="1.5" d="M0,-3.0v7 M-2.5,-0.5L0,-3.0L2.5,-0.5"/>
                </g>
               <g id="resetDef">
                       <use xlink:href="#rim2" fill="#404040">
                               <set attributeName="fill" to="#808080" begin="reset.mouseover" end="reset.mouseout"/>
                       </use>
               </g>
        </defs>

<script type="text/javascript">
var viewWidth = 644;
var viewHeight = 150;
var sectionId = 'dynsection-0';
</script>
<script xlink:href="../../svgpan.js"/>
<svg id="graph" class="graph">
<g id="viewport">
<title>CID_FaceInfo</title>
<!-- Node1 -->
<g id="node1" class="node">
<title>Node1</title>
<g id="a_node1"><a xlink:title=" ">
<polygon fill="#bfbfbf" stroke="black" points="276,-0.5 276,-19.5 356,-19.5 356,-0.5 276,-0.5"/>
<text text-anchor="middle" x="316" y="-7.5" font-family="Helvetica,sans-Serif" font-size="10.00">CID_FaceInfo</text>
</a>
</g>
</g>
<!-- Node2 -->
<g id="node2" class="node">
<title>Node2</title>
<g id="a_node2"><a xlink:title=" ">
<polygon fill="none" stroke="#bfbfbf" points="0,-122.5 0,-141.5 80,-141.5 80,-122.5 0,-122.5"/>
<text text-anchor="middle" x="40" y="-129.5" font-family="Helvetica,sans-Serif" font-size="10.00">CID_FaceDict</text>
</a>
</g>
</g>
<!-- Node2&#45;&gt;Node1 -->
<g id="edge1" class="edge">
<title>Node2&#45;&gt;Node1</title>
<path fill="none" stroke="#9a32cd" stroke-dasharray="5,2" d="M44.27,-112.31C50.3,-90.59 63.51,-55.52 89,-38 118.44,-17.77 218.7,-12.64 275.64,-11.38"/>
<polygon fill="#9a32cd" stroke="#9a32cd" points="40.81,-111.73 41.75,-122.28 47.6,-113.44 40.81,-111.73"/>
<text text-anchor="middle" x="115" y="-68.5" font-family="Helvetica,sans-Serif" font-size="10.00"> font_dicts</text>
</g>
<!-- Node3 -->
<g id="node3" class="node">
<title>Node3</title>
<g id="a_node3"><a xlink:title=" ">
<polygon fill="none" stroke="#bfbfbf" points="98,-122.5 98,-141.5 190,-141.5 190,-122.5 98,-122.5"/>
<text text-anchor="middle" x="144" y="-129.5" font-family="Helvetica,sans-Serif" font-size="10.00">PS_FontInfoRec</text>
</a>
</g>
</g>
<!-- Node3&#45;&gt;Node1 -->
<g id="edge2" class="edge">
<title>Node3&#45;&gt;Node1</title>
<path fill="none" stroke="#9a32cd" stroke-dasharray="5,2" d="M144.18,-112.24C145.46,-91 150.95,-56.91 172,-38 187,-24.53 238.62,-17.39 275.77,-13.9"/>
<polygon fill="#9a32cd" stroke="#9a32cd" points="140.68,-112.16 143.84,-122.28 147.68,-112.4 140.68,-112.16"/>
<text text-anchor="middle" x="195.5" y="-68.5" font-family="Helvetica,sans-Serif" font-size="10.00"> font_info</text>
</g>
<!-- Node4 -->
<g id="node4" class="node">
<title>Node4</title>
<g id="a_node4"><a xlink:title=" ">
<polygon fill="none" stroke="#bfbfbf" points="208,-122.5 208,-141.5 246,-141.5 246,-122.5 208,-122.5"/>
<text text-anchor="middle" x="227" y="-129.5" font-family="Helvetica,sans-Serif" font-size="10.00">char</text>
</a>
</g>
</g>
<!-- Node4&#45;&gt;Node1 -->
<g id="edge3" class="edge">
<title>Node4&#45;&gt;Node1</title>
<path fill="none" stroke="#9a32cd" stroke-dasharray="5,2" d="M224.11,-112.47C221.99,-91.95 221.97,-59.03 239,-38 248.1,-26.77 262.17,-20.21 275.81,-16.37"/>
<polygon fill="#9a32cd" stroke="#9a32cd" points="220.64,-112.96 225.4,-122.43 227.58,-112.06 220.64,-112.96"/>
<text text-anchor="middle" x="275.5" y="-79.5" font-family="Helvetica,sans-Serif" font-size="10.00"> registry</text>
<text text-anchor="middle" x="275.5" y="-68.5" font-family="Helvetica,sans-Serif" font-size="10.00">cid_font_name</text>
<text text-anchor="middle" x="275.5" y="-57.5" font-family="Helvetica,sans-Serif" font-size="10.00">ordering</text>
</g>
<!-- Node5 -->
<g id="node5" class="node">
<title>Node5</title>
<g id="a_node5"><a xlink:title=" ">
<polygon fill="none" stroke="#bfbfbf" points="301.5,-122.5 301.5,-141.5 330.5,-141.5 330.5,-122.5 301.5,-122.5"/>
<text text-anchor="middle" x="316" y="-129.5" font-family="Helvetica,sans-Serif" font-size="10.00">int</text>
</a>
</g>
</g>
<!-- Node5&#45;&gt;Node1 -->
<g id="edge4" class="edge">
<title>Node5&#45;&gt;Node1</title>
<path fill="none" stroke="#9a32cd" stroke-dasharray="5,2" d="M316,-112.15C316,-85.72 316,-38.76 316,-19.55"/>
<polygon fill="#9a32cd" stroke="#9a32cd" points="312.5,-112.37 316,-122.37 319.5,-112.37 312.5,-112.37"/>
<text text-anchor="middle" x="351" y="-96" font-family="Helvetica,sans-Serif" font-size="10.00"> cid_font_type</text>
<text text-anchor="middle" x="351" y="-85" font-family="Helvetica,sans-Serif" font-size="10.00">supplement</text>
<text text-anchor="middle" x="351" y="-74" font-family="Helvetica,sans-Serif" font-size="10.00">num_xuid</text>
<text text-anchor="middle" x="351" y="-63" font-family="Helvetica,sans-Serif" font-size="10.00">num_dicts</text>
<text text-anchor="middle" x="351" y="-52" font-family="Helvetica,sans-Serif" font-size="10.00">gd_bytes</text>
<text text-anchor="middle" x="351" y="-41" font-family="Helvetica,sans-Serif" font-size="10.00">fd_bytes</text>
</g>
<!-- Node6 -->
<g id="node6" class="node">
<title>Node6</title>
<g id="a_node6"><a xlink:title=" ">
<polygon fill="none" stroke="#bfbfbf" points="379.5,-122.5 379.5,-141.5 438.5,-141.5 438.5,-122.5 379.5,-122.5"/>
<text text-anchor="middle" x="409" y="-129.5" font-family="Helvetica,sans-Serif" font-size="10.00">FT_BBox</text>
</a>
</g>
</g>
<!-- Node6&#45;&gt;Node1 -->
<g id="edge5" class="edge">
<title>Node6&#45;&gt;Node1</title>
<path fill="none" stroke="#9a32cd" stroke-dasharray="5,2" d="M409.49,-112.36C409.03,-91.75 405.18,-58.74 387,-38 379,-28.88 367.58,-22.82 356.23,-18.81"/>
<polygon fill="#9a32cd" stroke="#9a32cd" points="405.99,-112.37 409.47,-122.37 412.99,-112.38 405.99,-112.37"/>
<text text-anchor="middle" x="435" y="-68.5" font-family="Helvetica,sans-Serif" font-size="10.00"> font_bbox</text>
</g>
<!-- Node7 -->
<g id="node7" class="node">
<title>Node7</title>
<g id="a_node7"><a xlink:title=" ">
<polygon fill="none" stroke="#bfbfbf" points="465,-122.5 465,-141.5 503,-141.5 503,-122.5 465,-122.5"/>
<text text-anchor="middle" x="484" y="-129.5" font-family="Helvetica,sans-Serif" font-size="10.00">long</text>
</a>
</g>
</g>
<!-- Node7&#45;&gt;Node1 -->
<g id="edge6" class="edge">
<title>Node7&#45;&gt;Node1</title>
<path fill="none" stroke="#9a32cd" stroke-dasharray="5,2" d="M482,-112.42C479.02,-88.3 472.58,-48.07 462,-38 447.11,-23.83 394.1,-16.83 356.25,-13.58"/>
<polygon fill="#9a32cd" stroke="#9a32cd" points="478.54,-112.96 483.16,-122.49 485.49,-112.16 478.54,-112.96"/>
<text text-anchor="middle" x="509.5" y="-68.5" font-family="Helvetica,sans-Serif" font-size="10.00"> cid_version</text>
</g>
<!-- Node8 -->
<g id="node8" class="node">
<title>Node8</title>
<g id="a_node8"><a xlink:title=" ">
<polygon fill="none" stroke="#bfbfbf" points="535.5,-122.5 535.5,-141.5 596.5,-141.5 596.5,-122.5 535.5,-122.5"/>
<text text-anchor="middle" x="566" y="-129.5" font-family="Helvetica,sans-Serif" font-size="10.00">unsigned</text>
</a>
</g>
</g>
<!-- Node8&#45;&gt;Node1 -->
<g id="edge7" class="edge">
<title>Node8&#45;&gt;Node1</title>
<path fill="none" stroke="#9a32cd" stroke-dasharray="5,2" d="M567.14,-112.4C567.33,-91.05 564.03,-56.57 543,-38 516.08,-14.23 413.75,-10.57 356.1,-10.47"/>
<polygon fill="#9a32cd" stroke="#9a32cd" points="563.64,-112.36 566.78,-122.48 570.63,-112.61 563.64,-112.36"/>
<text text-anchor="middle" x="601" y="-90.5" font-family="Helvetica,sans-Serif" font-size="10.00"> data_offset</text>
<text text-anchor="middle" x="601" y="-79.5" font-family="Helvetica,sans-Serif" font-size="10.00">uid_base</text>
<text text-anchor="middle" x="601" y="-68.5" font-family="Helvetica,sans-Serif" font-size="10.00">xuid</text>
<text text-anchor="middle" x="601" y="-57.5" font-family="Helvetica,sans-Serif" font-size="10.00">cidmap_offset</text>
<text text-anchor="middle" x="601" y="-46.5" font-family="Helvetica,sans-Serif" font-size="10.00">cid_count</text>
</g>
</g>
</svg>
        <g id="navigator" transform="translate(0 0)" fill="#404254">
                <rect fill="#f2f5e9" fill-opacity="0.5" stroke="#606060" stroke-width=".5" x="0" y="0" width="60" height="60"/>
                <use id="zoomplus" xlink:href="#zoomPlus" x="17" y="9" onmousedown="handleZoom(evt,'in')"/>
                <use id="zoomminus" xlink:href="#zoomMin" x="42" y="9" onmousedown="handleZoom(evt,'out')"/>
                <use id="reset" xlink:href="#resetDef" x="30" y="36" onmousedown="handleReset()"/>
                <g id="arrowUp" xlink:href="#dirArrow" transform="translate(30 24)" onmousedown="handlePan(0,-1)">
                  <use xlink:href="#rim" fill="#404040">
                        <set attributeName="fill" to="#808080" begin="arrowUp.mouseover" end="arrowUp.mouseout"/>
                  </use>
                  <path fill="none" stroke="white" stroke-width="1.5" d="M0,-3.0v7 M-2.5,-0.5L0,-3.0L2.5,-0.5"/>
                </g>
                <g id="arrowRight" xlink:href="#dirArrow" transform="rotate(90) translate(36 -43)" onmousedown="handlePan(1,0)">
                  <use xlink:href="#rim" fill="#404040">
                        <set attributeName="fill" to="#808080" begin="arrowRight.mouseover" end="arrowRight.mouseout"/>
                  </use>
                  <path fill="none" stroke="white" stroke-width="1.5" d="M0,-3.0v7 M-2.5,-0.5L0,-3.0L2.5,-0.5"/>
                </g>
                <g id="arrowDown" xlink:href="#dirArrow" transform="rotate(180) translate(-30 -48)" onmousedown="handlePan(0,1)">
                  <use xlink:href="#rim" fill="#404040">
                        <set attributeName="fill" to="#808080" begin="arrowDown.mouseover" end="arrowDown.mouseout"/>
                  </use>
                  <path fill="none" stroke="white" stroke-width="1.5" d="M0,-3.0v7 M-2.5,-0.5L0,-3.0L2.5,-0.5"/>
                </g>
                <g id="arrowLeft" xlink:href="#dirArrow" transform="rotate(270) translate(-36 17)" onmousedown="handlePan(-1,0)">
                  <use xlink:href="#rim" fill="#404040">
                        <set attributeName="fill" to="#808080" begin="arrowLeft.mouseover" end="arrowLeft.mouseout"/>
                  </use>
                  <path fill="none" stroke="white" stroke-width="1.5" d="M0,-3.0v7 M-2.5,-0.5L0,-3.0L2.5,-0.5"/>
                </g>
        </g>
        <svg viewBox="0 0 15 15" width="100%" height="30px" preserveAspectRatio="xMaxYMin meet">
         <g id="arrow_out" transform="scale(0.3 0.3)">
          <a xlink:href="structCID__FaceInfoRec____coll__graph_org.svg" target="_base">
           <rect id="button" ry="5" rx="5" y="6" x="6" height="38" width="38"
                fill="#f2f5e9" fill-opacity="0.5" stroke="#606060" stroke-width="1.0"/>
           <path id="arrow"
             d="M 11.500037,31.436501 C 11.940474,20.09759 22.043105,11.32322 32.158766,21.979434 L 37.068811,17.246167 C 37.068811,17.246167 37.088388,32 37.088388,32 L 22.160133,31.978069 C 22.160133,31.978069 26.997745,27.140456 26.997745,27.140456 C 18.528582,18.264221 13.291696,25.230495 11.500037,31.436501 z"
             style="fill:#404040;"/>
          </a>
         </g>
        </svg>
</svg>
