<?xml version="1.0" encoding="UTF-8" standalone="no"?>
<!DOCTYPE svg PUBLIC "-//W3C//DTD SVG 1.1//EN"
 "http://www.w3.org/Graphics/SVG/1.1/DTD/svg11.dtd">
<!-- Generated by graphviz version 2.43.0 (0)
 -->
<!-- Title: tagDVD_MenuAttributes Pages: 1 -->
<svg width="511pt" height="117pt"
 viewBox="0.00 0.00 510.50 117.00" xmlns="http://www.w3.org/2000/svg" xmlns:xlink="http://www.w3.org/1999/xlink">
<g id="graph0" class="graph" transform="scale(1 1) rotate(0) translate(4 113)">
<title>tagDVD_MenuAttributes</title>
<!-- Node1 -->
<g id="node1" class="node">
<title>Node1</title>
<g id="a_node1"><a xlink:title=" ">
<polygon fill="#bfbfbf" stroke="black" points="163.5,-0.5 163.5,-19.5 297.5,-19.5 297.5,-0.5 163.5,-0.5"/>
<text text-anchor="middle" x="230.5" y="-7.5" font-family="Helvetica,sans-Serif" font-size="10.00">tagDVD_MenuAttributes</text>
</a>
</g>
</g>
<!-- Node2 -->
<g id="node2" class="node">
<title>Node2</title>
<g id="a_node2"><a xlink:title=" ">
<polygon fill="none" stroke="#bfbfbf" points="0,-89.5 0,-108.5 119,-108.5 119,-89.5 0,-89.5"/>
<text text-anchor="middle" x="59.5" y="-96.5" font-family="Helvetica,sans-Serif" font-size="10.00">DVD_VideoAttributes</text>
</a>
</g>
</g>
<!-- Node2&#45;&gt;Node1 -->
<g id="edge1" class="edge">
<title>Node2&#45;&gt;Node1</title>
<path fill="none" stroke="#9a32cd" stroke-dasharray="5,2" d="M61.52,-78.99C63.98,-65.54 69.43,-48.15 81.5,-38 94.07,-27.42 129.89,-20.74 163.26,-16.67"/>
<polygon fill="#9a32cd" stroke="#9a32cd" points="58.02,-78.72 60.08,-89.12 64.95,-79.71 58.02,-78.72"/>
<text text-anchor="middle" x="121" y="-52" font-family="Helvetica,sans-Serif" font-size="10.00"> VideoAttributes</text>
</g>
<!-- Node3 -->
<g id="node3" class="node">
<title>Node3</title>
<g id="a_node3"><a xlink:title=" ">
<polygon fill="none" stroke="#bfbfbf" points="137.5,-89.5 137.5,-108.5 201.5,-108.5 201.5,-89.5 137.5,-89.5"/>
<text text-anchor="middle" x="169.5" y="-96.5" font-family="Helvetica,sans-Serif" font-size="10.00">WINBOOL</text>
</a>
</g>
</g>
<!-- Node3&#45;&gt;Node1 -->
<g id="edge2" class="edge">
<title>Node3&#45;&gt;Node1</title>
<path fill="none" stroke="#9a32cd" stroke-dasharray="5,2" d="M165.74,-79.45C164.21,-66.73 164.39,-50.04 172.5,-38 178.21,-29.52 187.3,-23.65 196.61,-19.61"/>
<polygon fill="#9a32cd" stroke="#9a32cd" points="162.3,-80.09 167.36,-89.39 169.21,-78.96 162.3,-80.09"/>
<text text-anchor="middle" x="221" y="-63" font-family="Helvetica,sans-Serif" font-size="10.00"> fCompatibleRegion</text>
<text text-anchor="middle" x="221" y="-52" font-family="Helvetica,sans-Serif" font-size="10.00">fSubpicturePresent</text>
<text text-anchor="middle" x="221" y="-41" font-family="Helvetica,sans-Serif" font-size="10.00">fAudioPresent</text>
</g>
<!-- Node4 -->
<g id="node4" class="node">
<title>Node4</title>
<g id="a_node4"><a xlink:title=" ">
<polygon fill="none" stroke="#bfbfbf" points="220,-89.5 220,-108.5 363,-108.5 363,-89.5 220,-89.5"/>
<text text-anchor="middle" x="291.5" y="-96.5" font-family="Helvetica,sans-Serif" font-size="10.00">DVD_SubpictureAttributes</text>
</a>
</g>
</g>
<!-- Node4&#45;&gt;Node1 -->
<g id="edge3" class="edge">
<title>Node4&#45;&gt;Node1</title>
<path fill="none" stroke="#9a32cd" stroke-dasharray="5,2" d="M287.84,-79.56C284.63,-66.89 278.95,-50.22 269.5,-38 263.66,-30.44 255.1,-24.19 247.49,-19.61"/>
<polygon fill="#9a32cd" stroke="#9a32cd" points="284.46,-80.46 290.06,-89.45 291.29,-78.93 284.46,-80.46"/>
<text text-anchor="middle" x="336" y="-52" font-family="Helvetica,sans-Serif" font-size="10.00"> SubpictureAttributes</text>
</g>
<!-- Node5 -->
<g id="node5" class="node">
<title>Node5</title>
<g id="a_node5"><a xlink:title=" ">
<polygon fill="none" stroke="#bfbfbf" points="381,-89.5 381,-108.5 500,-108.5 500,-89.5 381,-89.5"/>
<text text-anchor="middle" x="440.5" y="-96.5" font-family="Helvetica,sans-Serif" font-size="10.00">DVD_AudioAttributes</text>
</a>
</g>
</g>
<!-- Node5&#45;&gt;Node1 -->
<g id="edge4" class="edge">
<title>Node5&#45;&gt;Node1</title>
<path fill="none" stroke="#9a32cd" stroke-dasharray="5,2" d="M430.9,-80.33C422.41,-66.5 408.72,-48 391.5,-38 375.57,-28.75 334.3,-21.93 297.54,-17.46"/>
<polygon fill="#9a32cd" stroke="#9a32cd" points="428.1,-82.47 436.13,-89.38 434.16,-78.97 428.1,-82.47"/>
<text text-anchor="middle" x="463" y="-52" font-family="Helvetica,sans-Serif" font-size="10.00"> AudioAttributes</text>
</g>
</g>
</svg>
