<?xml version="1.0" encoding="UTF-8" standalone="no"?>
<!DOCTYPE svg PUBLIC "-//W3C//DTD SVG 1.1//EN"
 "http://www.w3.org/Graphics/SVG/1.1/DTD/svg11.dtd">
<!-- Generated by graphviz version 2.43.0 (0)
 -->
<!-- Title: _IO_RESOURCE_DESCRIPTOR Pages: 1 -->
<svg width="492pt" height="619pt"
 viewBox="0.00 0.00 492.00 619.00" xmlns="http://www.w3.org/2000/svg" xmlns:xlink="http://www.w3.org/1999/xlink">
<g id="graph0" class="graph" transform="scale(1 1) rotate(0) translate(4 615)">
<title>_IO_RESOURCE_DESCRIPTOR</title>
<!-- Node1 -->
<g id="node1" class="node">
<title>Node1</title>
<g id="a_node1"><a xlink:title=" ">
<polygon fill="#bfbfbf" stroke="black" points="326,-377.5 326,-396.5 484,-396.5 484,-377.5 326,-377.5"/>
<text text-anchor="middle" x="405" y="-384.5" font-family="Helvetica,sans-Serif" font-size="10.00">_IO_RESOURCE_DESCRIPTOR</text>
</a>
</g>
</g>
<!-- Node2 -->
<g id="node2" class="node">
<title>Node2</title>
<g id="a_node2"><a xlink:title=" ">
<polygon fill="none" stroke="#bfbfbf" points="57.5,-586.5 57.5,-605.5 140.5,-605.5 140.5,-586.5 57.5,-586.5"/>
<text text-anchor="middle" x="99" y="-593.5" font-family="Helvetica,sans-Serif" font-size="10.00">anonymous:u</text>
</a>
</g>
</g>
<!-- Node2&#45;&gt;Node1 -->
<g id="edge1" class="edge">
<title>Node2&#45;&gt;Node1</title>
<path fill="none" stroke="#9a32cd" stroke-dasharray="5,2" d="M150.81,-602.11C196.02,-604.85 261.93,-601.92 308,-570 371.1,-526.27 395.79,-427.77 402.19,-396.63"/>
<polygon fill="#9a32cd" stroke="#9a32cd" points="150.86,-598.6 140.64,-601.38 150.36,-605.59 150.86,-598.6"/>
<text text-anchor="middle" x="262" y="-603" font-family="Helvetica,sans-Serif" font-size="10.00"> u</text>
</g>
<!-- Node3 -->
<g id="node3" class="node">
<title>Node3</title>
<g id="a_node3"><a xlink:title=" ">
<polygon fill="none" stroke="#bfbfbf" points="51,-548.5 51,-567.5 147,-567.5 147,-548.5 51,-548.5"/>
<text text-anchor="middle" x="99" y="-555.5" font-family="Helvetica,sans-Serif" font-size="10.00">anonymous:Port</text>
</a>
</g>
</g>
<!-- Node3&#45;&gt;Node1 -->
<g id="edge2" class="edge">
<title>Node3&#45;&gt;Node1</title>
<path fill="none" stroke="#9a32cd" stroke-dasharray="5,2" d="M157.05,-560.67C201.38,-560.12 262.74,-553.39 308,-525 359.18,-492.9 390.36,-422.48 400.42,-396.7"/>
<polygon fill="#9a32cd" stroke="#9a32cd" points="157.01,-557.17 147.02,-560.69 157.02,-564.17 157.01,-557.17"/>
<text text-anchor="middle" x="262" y="-558" font-family="Helvetica,sans-Serif" font-size="10.00"> Port</text>
</g>
<!-- Node4 -->
<g id="node4" class="node">
<title>Node4</title>
<g id="a_node4"><a xlink:title=" ">
<polygon fill="none" stroke="#bfbfbf" points="40.5,-510.5 40.5,-529.5 157.5,-529.5 157.5,-510.5 40.5,-510.5"/>
<text text-anchor="middle" x="99" y="-517.5" font-family="Helvetica,sans-Serif" font-size="10.00">anonymous:Memory</text>
</a>
</g>
</g>
<!-- Node4&#45;&gt;Node1 -->
<g id="edge3" class="edge">
<title>Node4&#45;&gt;Node1</title>
<path fill="none" stroke="#9a32cd" stroke-dasharray="5,2" d="M167.9,-517.74C210.23,-513.94 264.69,-504.57 308,-482 348.76,-460.76 383.38,-416.36 397.37,-396.71"/>
<polygon fill="#9a32cd" stroke="#9a32cd" points="167.37,-514.27 157.68,-518.57 167.93,-521.25 167.37,-514.27"/>
<text text-anchor="middle" x="262" y="-513" font-family="Helvetica,sans-Serif" font-size="10.00"> Memory</text>
</g>
<!-- Node5 -->
<g id="node5" class="node">
<title>Node5</title>
<g id="a_node5"><a xlink:title=" ">
<polygon fill="none" stroke="#bfbfbf" points="39.5,-472.5 39.5,-491.5 158.5,-491.5 158.5,-472.5 39.5,-472.5"/>
<text text-anchor="middle" x="99" y="-479.5" font-family="Helvetica,sans-Serif" font-size="10.00">anonymous:Interrupt</text>
</a>
</g>
</g>
<!-- Node5&#45;&gt;Node1 -->
<g id="edge4" class="edge">
<title>Node5&#45;&gt;Node1</title>
<path fill="none" stroke="#9a32cd" stroke-dasharray="5,2" d="M168.79,-475.11C210.09,-469.51 263.15,-459.71 308,-443 339.82,-431.14 373.26,-409.12 391.06,-396.51"/>
<polygon fill="#9a32cd" stroke="#9a32cd" points="168.29,-471.65 158.82,-476.41 169.19,-478.59 168.29,-471.65"/>
<text text-anchor="middle" x="262" y="-470" font-family="Helvetica,sans-Serif" font-size="10.00"> Interrupt</text>
</g>
<!-- Node6 -->
<g id="node6" class="node">
<title>Node6</title>
<g id="a_node6"><a xlink:title=" ">
<polygon fill="none" stroke="#bfbfbf" points="49,-434.5 49,-453.5 149,-453.5 149,-434.5 49,-434.5"/>
<text text-anchor="middle" x="99" y="-441.5" font-family="Helvetica,sans-Serif" font-size="10.00">anonymous:Dma</text>
</a>
</g>
</g>
<!-- Node6&#45;&gt;Node1 -->
<g id="edge5" class="edge">
<title>Node6&#45;&gt;Node1</title>
<path fill="none" stroke="#9a32cd" stroke-dasharray="5,2" d="M159.05,-437.06C200.86,-431.7 258.15,-423.43 308,-413 329.63,-408.47 353.63,-401.97 372.23,-396.61"/>
<polygon fill="#9a32cd" stroke="#9a32cd" points="158.52,-433.6 149.04,-438.33 159.4,-440.55 158.52,-433.6"/>
<text text-anchor="middle" x="262" y="-431" font-family="Helvetica,sans-Serif" font-size="10.00"> Dma</text>
</g>
<!-- Node7 -->
<g id="node7" class="node">
<title>Node7</title>
<g id="a_node7"><a xlink:title=" ">
<polygon fill="none" stroke="#bfbfbf" points="42,-396.5 42,-415.5 156,-415.5 156,-396.5 42,-396.5"/>
<text text-anchor="middle" x="99" y="-403.5" font-family="Helvetica,sans-Serif" font-size="10.00">anonymous:Generic</text>
</a>
</g>
</g>
<!-- Node7&#45;&gt;Node1 -->
<g id="edge6" class="edge">
<title>Node7&#45;&gt;Node1</title>
<path fill="none" stroke="#9a32cd" stroke-dasharray="5,2" d="M166.18,-401.86C213.16,-398.93 276.42,-394.97 325.88,-391.88"/>
<polygon fill="#9a32cd" stroke="#9a32cd" points="165.87,-398.38 156.11,-402.49 166.31,-405.36 165.87,-398.38"/>
<text text-anchor="middle" x="262" y="-401" font-family="Helvetica,sans-Serif" font-size="10.00"> Generic</text>
</g>
<!-- Node8 -->
<g id="node8" class="node">
<title>Node8</title>
<g id="a_node8"><a xlink:title=" ">
<polygon fill="none" stroke="#bfbfbf" points="26.5,-358.5 26.5,-377.5 171.5,-377.5 171.5,-358.5 26.5,-358.5"/>
<text text-anchor="middle" x="99" y="-365.5" font-family="Helvetica,sans-Serif" font-size="10.00">anonymous:DevicePrivate</text>
</a>
</g>
</g>
<!-- Node8&#45;&gt;Node1 -->
<g id="edge7" class="edge">
<title>Node8&#45;&gt;Node1</title>
<path fill="none" stroke="#9a32cd" stroke-dasharray="5,2" d="M181.84,-371.08C220.18,-372.74 266.45,-375.06 308,-378 313.84,-378.41 319.88,-378.88 325.96,-379.38"/>
<polygon fill="#9a32cd" stroke="#9a32cd" points="181.9,-367.57 171.76,-370.65 181.61,-374.57 181.9,-367.57"/>
<text text-anchor="middle" x="262" y="-381" font-family="Helvetica,sans-Serif" font-size="10.00"> DevicePrivate</text>
</g>
<!-- Node9 -->
<g id="node9" class="node">
<title>Node9</title>
<g id="a_node9"><a xlink:title=" ">
<polygon fill="none" stroke="#bfbfbf" points="32,-320.5 32,-339.5 166,-339.5 166,-320.5 32,-320.5"/>
<text text-anchor="middle" x="99" y="-327.5" font-family="Helvetica,sans-Serif" font-size="10.00">anonymous:BusNumber</text>
</a>
</g>
</g>
<!-- Node9&#45;&gt;Node1 -->
<g id="edge8" class="edge">
<title>Node9&#45;&gt;Node1</title>
<path fill="none" stroke="#9a32cd" stroke-dasharray="5,2" d="M176.2,-336.68C215.79,-340.96 264.81,-347.52 308,-357 332.05,-362.28 358.73,-370.84 377.85,-377.47"/>
<polygon fill="#9a32cd" stroke="#9a32cd" points="176.39,-333.18 166.08,-335.62 175.66,-340.15 176.39,-333.18"/>
<text text-anchor="middle" x="262" y="-360" font-family="Helvetica,sans-Serif" font-size="10.00"> BusNumber</text>
</g>
<!-- Node10 -->
<g id="node10" class="node">
<title>Node10</title>
<g id="a_node10"><a xlink:title=" ">
<polygon fill="none" stroke="#bfbfbf" points="33.5,-282.5 33.5,-301.5 164.5,-301.5 164.5,-282.5 33.5,-282.5"/>
<text text-anchor="middle" x="99" y="-289.5" font-family="Helvetica,sans-Serif" font-size="10.00">anonymous:ConfigData</text>
</a>
</g>
</g>
<!-- Node10&#45;&gt;Node1 -->
<g id="edge9" class="edge">
<title>Node10&#45;&gt;Node1</title>
<path fill="none" stroke="#9a32cd" stroke-dasharray="5,2" d="M174.61,-296.86C215.11,-301.3 265.45,-309.79 308,-326 341.21,-338.66 375.18,-363.67 392.42,-377.41"/>
<polygon fill="#9a32cd" stroke="#9a32cd" points="174.85,-293.37 164.54,-295.82 174.13,-300.33 174.85,-293.37"/>
<text text-anchor="middle" x="262" y="-329" font-family="Helvetica,sans-Serif" font-size="10.00"> ConfigData</text>
</g>
<!-- Node11 -->
<g id="node11" class="node">
<title>Node11</title>
<g id="a_node11"><a xlink:title=" ">
<polygon fill="none" stroke="#bfbfbf" points="50,-244.5 50,-263.5 148,-263.5 148,-244.5 50,-244.5"/>
<text text-anchor="middle" x="99" y="-251.5" font-family="Helvetica,sans-Serif" font-size="10.00">LARGE_INTEGER</text>
</a>
</g>
</g>
<!-- Node11&#45;&gt;Node1 -->
<g id="edge10" class="edge">
<title>Node11&#45;&gt;Node1</title>
<path fill="none" stroke="#9a32cd" stroke-dasharray="5,2" d="M158.45,-249.03C202.06,-247.88 261.82,-251.87 308,-276 353.61,-299.84 387.01,-355.17 399.08,-377.45"/>
<polygon fill="#9a32cd" stroke="#9a32cd" points="158.15,-245.54 148.29,-249.4 158.41,-252.53 158.15,-245.54"/>
<text text-anchor="middle" x="262" y="-290" font-family="Helvetica,sans-Serif" font-size="10.00"> MaximumAddress</text>
<text text-anchor="middle" x="262" y="-279" font-family="Helvetica,sans-Serif" font-size="10.00">MinimumAddress</text>
</g>
<!-- Node12 -->
<g id="node12" class="node">
<title>Node12</title>
<g id="a_node12"><a xlink:title=" ">
<polygon fill="none" stroke="#bfbfbf" points="68.5,-155.5 68.5,-174.5 129.5,-174.5 129.5,-155.5 68.5,-155.5"/>
<text text-anchor="middle" x="99" y="-162.5" font-family="Helvetica,sans-Serif" font-size="10.00">unsigned</text>
</a>
</g>
</g>
<!-- Node12&#45;&gt;Node1 -->
<g id="edge11" class="edge">
<title>Node12&#45;&gt;Node1</title>
<path fill="none" stroke="#9a32cd" stroke-dasharray="5,2" d="M139.54,-157.03C184.51,-150.27 258.14,-146.47 308,-181 378.06,-229.53 398.24,-342.82 402.83,-377.04"/>
<polygon fill="#9a32cd" stroke="#9a32cd" points="138.89,-153.59 129.58,-158.64 140.01,-160.49 138.89,-153.59"/>
<text text-anchor="middle" x="262" y="-239" font-family="Helvetica,sans-Serif" font-size="10.00"> Flags</text>
<text text-anchor="middle" x="262" y="-228" font-family="Helvetica,sans-Serif" font-size="10.00">Option</text>
<text text-anchor="middle" x="262" y="-217" font-family="Helvetica,sans-Serif" font-size="10.00">ShareDisposition</text>
<text text-anchor="middle" x="262" y="-206" font-family="Helvetica,sans-Serif" font-size="10.00">Type</text>
<text text-anchor="middle" x="262" y="-195" font-family="Helvetica,sans-Serif" font-size="10.00">Spare1</text>
<text text-anchor="middle" x="262" y="-184" font-family="Helvetica,sans-Serif" font-size="10.00">Spare2</text>
</g>
<!-- Node13 -->
<g id="node13" class="node">
<title>Node13</title>
<g id="a_node13"><a xlink:title=" ">
<polygon fill="none" stroke="#bfbfbf" points="0,-0.5 0,-41.5 198,-41.5 198,-0.5 0,-0.5"/>
<text text-anchor="start" x="8" y="-29.5" font-family="Helvetica,sans-Serif" font-size="10.00">PSecurityUserData *typedef</text>
<text text-anchor="start" x="8" y="-18.5" font-family="Helvetica,sans-Serif" font-size="10.00"> PSECPKG_EXTENDED_INFORMATION</text>
<text text-anchor="middle" x="99" y="-7.5" font-family="Helvetica,sans-Serif" font-size="10.00"> *typedef</text>
</a>
</g>
</g>
<!-- Node13&#45;&gt;Node1 -->
<g id="edge12" class="edge">
<title>Node13&#45;&gt;Node1</title>
<path fill="none" stroke="#9a32cd" stroke-dasharray="5,2" d="M208.39,-0.53C243.42,0.2 280.33,-6 308,-28 365.83,-73.96 397.02,-324.96 402.95,-377.4"/>
<polygon fill="#9a32cd" stroke="#9a32cd" points="207.93,2.96 198.08,-0.94 208.21,-4.04 207.93,2.96"/>
<text text-anchor="middle" x="262" y="-141" font-family="Helvetica,sans-Serif" font-size="10.00"> Alignment</text>
<text text-anchor="middle" x="262" y="-130" font-family="Helvetica,sans-Serif" font-size="10.00">MaximumChannel</text>
<text text-anchor="middle" x="262" y="-119" font-family="Helvetica,sans-Serif" font-size="10.00">MaxBusNumber</text>
<text text-anchor="middle" x="262" y="-108" font-family="Helvetica,sans-Serif" font-size="10.00">MinimumVector</text>
<text text-anchor="middle" x="262" y="-97" font-family="Helvetica,sans-Serif" font-size="10.00">Length</text>
<text text-anchor="middle" x="262" y="-86" font-family="Helvetica,sans-Serif" font-size="10.00">Reserved1</text>
<text text-anchor="middle" x="262" y="-75" font-family="Helvetica,sans-Serif" font-size="10.00">Reserved2</text>
<text text-anchor="middle" x="262" y="-64" font-family="Helvetica,sans-Serif" font-size="10.00">Priority</text>
<text text-anchor="middle" x="262" y="-53" font-family="Helvetica,sans-Serif" font-size="10.00">Data</text>
<text text-anchor="middle" x="262" y="-42" font-family="Helvetica,sans-Serif" font-size="10.00">MinimumChannel</text>
<text text-anchor="middle" x="262" y="-31" font-family="Helvetica,sans-Serif" font-size="10.00">...</text>
</g>
</g>
</svg>
