<?xml version="1.0" encoding="UTF-8" standalone="no"?>
<!DOCTYPE svg PUBLIC "-//W3C//DTD SVG 1.1//EN"
 "http://www.w3.org/Graphics/SVG/1.1/DTD/svg11.dtd">
<!-- Generated by graphviz version 2.43.0 (0)
 -->
<!-- Title: jpeg_scan_info Pages: 1 -->
<svg width="144pt" height="161pt"
 viewBox="0.00 0.00 143.50 161.00" xmlns="http://www.w3.org/2000/svg" xmlns:xlink="http://www.w3.org/1999/xlink">
<g id="graph0" class="graph" transform="scale(1 1) rotate(0) translate(4 157)">
<title>jpeg_scan_info</title>
<!-- Node1 -->
<g id="node1" class="node">
<title>Node1</title>
<g id="a_node1"><a xlink:title=" ">
<polygon fill="#bfbfbf" stroke="black" points="0,-0.5 0,-19.5 89,-19.5 89,-0.5 0,-0.5"/>
<text text-anchor="middle" x="44.5" y="-7.5" font-family="Helvetica,sans-Serif" font-size="10.00">jpeg_scan_info</text>
</a>
</g>
</g>
<!-- Node2 -->
<g id="node2" class="node">
<title>Node2</title>
<g id="a_node2"><a xlink:title=" ">
<polygon fill="none" stroke="#bfbfbf" points="30,-133.5 30,-152.5 59,-152.5 59,-133.5 30,-133.5"/>
<text text-anchor="middle" x="44.5" y="-140.5" font-family="Helvetica,sans-Serif" font-size="10.00">int</text>
</a>
</g>
</g>
<!-- Node2&#45;&gt;Node1 -->
<g id="edge1" class="edge">
<title>Node2&#45;&gt;Node1</title>
<path fill="none" stroke="#9a32cd" stroke-dasharray="5,2" d="M44.5,-123.09C44.5,-94.36 44.5,-40.82 44.5,-19.8"/>
<polygon fill="#9a32cd" stroke="#9a32cd" points="41,-123.4 44.5,-133.4 48,-123.4 41,-123.4"/>
<text text-anchor="middle" x="90" y="-107" font-family="Helvetica,sans-Serif" font-size="10.00"> component_index</text>
<text text-anchor="middle" x="90" y="-96" font-family="Helvetica,sans-Serif" font-size="10.00">Se</text>
<text text-anchor="middle" x="90" y="-85" font-family="Helvetica,sans-Serif" font-size="10.00">Ah</text>
<text text-anchor="middle" x="90" y="-74" font-family="Helvetica,sans-Serif" font-size="10.00">Al</text>
<text text-anchor="middle" x="90" y="-63" font-family="Helvetica,sans-Serif" font-size="10.00">Ss</text>
<text text-anchor="start" x="44.5" y="-52" font-family="Helvetica,sans-Serif" font-size="10.00">comps_in</text>
<text text-anchor="middle" x="90" y="-41" font-family="Helvetica,sans-Serif" font-size="10.00">_scan</text>
</g>
</g>
</svg>
