<?xml version="1.0" encoding="UTF-8" standalone="no"?>
<!DOCTYPE svg PUBLIC "-//W3C//DTD SVG 1.1//EN"
 "http://www.w3.org/Graphics/SVG/1.1/DTD/svg11.dtd">
<!-- Generated by graphviz version 2.43.0 (0)
 -->
<!-- Title: _USB_PIPE_INFO Pages: 1 -->
<svg width="437pt" height="88pt"
 viewBox="0.00 0.00 437.00 88.00" xmlns="http://www.w3.org/2000/svg" xmlns:xlink="http://www.w3.org/1999/xlink">
<g id="graph0" class="graph" transform="scale(1 1) rotate(0) translate(4 84)">
<title>_USB_PIPE_INFO</title>
<!-- Node1 -->
<g id="node1" class="node">
<title>Node1</title>
<g id="a_node1"><a xlink:title=" ">
<polygon fill="#bfbfbf" stroke="black" points="331,-35.5 331,-54.5 429,-54.5 429,-35.5 331,-35.5"/>
<text text-anchor="middle" x="380" y="-42.5" font-family="Helvetica,sans-Serif" font-size="10.00">_USB_PIPE_INFO</text>
</a>
</g>
</g>
<!-- Node2 -->
<g id="node2" class="node">
<title>Node2</title>
<g id="a_node2"><a xlink:title=" ">
<polygon fill="none" stroke="#bfbfbf" points="18.5,-60.5 18.5,-79.5 179.5,-79.5 179.5,-60.5 18.5,-60.5"/>
<text text-anchor="middle" x="99" y="-67.5" font-family="Helvetica,sans-Serif" font-size="10.00">USB_ENDPOINT_DESCRIPTOR</text>
</a>
</g>
</g>
<!-- Node2&#45;&gt;Node1 -->
<g id="edge1" class="edge">
<title>Node2&#45;&gt;Node1</title>
<path fill="none" stroke="#9a32cd" stroke-dasharray="5,2" d="M189.74,-61.96C236.61,-57.76 292.1,-52.79 330.84,-49.32"/>
<polygon fill="#9a32cd" stroke="#9a32cd" points="189.22,-58.49 179.58,-62.87 189.85,-65.46 189.22,-58.49"/>
<text text-anchor="middle" x="264.5" y="-61" font-family="Helvetica,sans-Serif" font-size="10.00"> EndpointDescriptor</text>
</g>
<!-- Node3 -->
<g id="node3" class="node">
<title>Node3</title>
<g id="a_node3"><a xlink:title=" ">
<polygon fill="none" stroke="#bfbfbf" points="0,-0.5 0,-41.5 198,-41.5 198,-0.5 0,-0.5"/>
<text text-anchor="start" x="8" y="-29.5" font-family="Helvetica,sans-Serif" font-size="10.00">PSecurityUserData *typedef</text>
<text text-anchor="start" x="8" y="-18.5" font-family="Helvetica,sans-Serif" font-size="10.00"> PSECPKG_EXTENDED_INFORMATION</text>
<text text-anchor="middle" x="99" y="-7.5" font-family="Helvetica,sans-Serif" font-size="10.00"> *typedef</text>
</a>
</g>
</g>
<!-- Node3&#45;&gt;Node1 -->
<g id="edge2" class="edge">
<title>Node3&#45;&gt;Node1</title>
<path fill="none" stroke="#9a32cd" stroke-dasharray="5,2" d="M208.46,-28.19C242,-30.67 279.05,-33.67 313,-37 318.74,-37.56 324.76,-38.21 330.73,-38.89"/>
<polygon fill="#9a32cd" stroke="#9a32cd" points="208.4,-24.67 198.17,-27.43 207.89,-31.65 208.4,-24.67"/>
<text text-anchor="middle" x="264.5" y="-40" font-family="Helvetica,sans-Serif" font-size="10.00"> ScheduleOffset</text>
</g>
</g>
</svg>
