<?xml version="1.0" encoding="UTF-8" standalone="no"?>
<!DOCTYPE svg PUBLIC "-//W3C//DTD SVG 1.1//EN"
 "http://www.w3.org/Graphics/SVG/1.1/DTD/svg11.dtd">
<!-- Generated by graphviz version 2.43.0 (0)
 -->
<!-- Title: Tools/MinGW/include/c++/4.6.1/ext/enc_filebuf.h Pages: 1 -->
<svg width="314pt" height="207pt"
 viewBox="0.00 0.00 314.00 207.00" xmlns="http://www.w3.org/2000/svg" xmlns:xlink="http://www.w3.org/1999/xlink">
<g id="graph0" class="graph" transform="scale(1 1) rotate(0) translate(4 203)">
<title>Tools/MinGW/include/c++/4.6.1/ext/enc_filebuf.h</title>
<!-- Node1 -->
<g id="node1" class="node">
<title>Node1</title>
<g id="a_node1"><a xlink:title=" ">
<polygon fill="#bfbfbf" stroke="black" points="7.5,-168.5 7.5,-198.5 159.5,-198.5 159.5,-168.5 7.5,-168.5"/>
<text text-anchor="start" x="15.5" y="-186.5" font-family="Helvetica,sans-Serif" font-size="10.00">Tools/MinGW/include</text>
<text text-anchor="middle" x="83.5" y="-175.5" font-family="Helvetica,sans-Serif" font-size="10.00">/c++/4.6.1/ext/enc_filebuf.h</text>
</a>
</g>
</g>
<!-- Node2 -->
<g id="node2" class="node">
<title>Node2</title>
<g id="a_node2"><a xlink:title=" ">
<polygon fill="none" stroke="#bfbfbf" points="0,-112.5 0,-131.5 55,-131.5 55,-112.5 0,-112.5"/>
<text text-anchor="middle" x="27.5" y="-119.5" font-family="Helvetica,sans-Serif" font-size="10.00">fstream</text>
</a>
</g>
</g>
<!-- Node1&#45;&gt;Node2 -->
<g id="edge1" class="edge">
<title>Node1&#45;&gt;Node2</title>
<path fill="none" stroke="midnightblue" d="M70.23,-168.4C61.92,-159.58 51.2,-148.18 42.58,-139.02"/>
<polygon fill="midnightblue" stroke="midnightblue" points="45.05,-136.54 35.65,-131.66 39.95,-141.34 45.05,-136.54"/>
</g>
<!-- Node3 -->
<g id="node3" class="node">
<title>Node3</title>
<g id="a_node3"><a xlink:title=" ">
<polygon fill="none" stroke="#bfbfbf" points="69.5,-56.5 69.5,-75.5 115.5,-75.5 115.5,-56.5 69.5,-56.5"/>
<text text-anchor="middle" x="92.5" y="-63.5" font-family="Helvetica,sans-Serif" font-size="10.00">locale</text>
</a>
</g>
</g>
<!-- Node1&#45;&gt;Node3 -->
<g id="edge2" class="edge">
<title>Node1&#45;&gt;Node3</title>
<path fill="none" stroke="midnightblue" d="M84.6,-168.34C86.22,-147.62 89.23,-109.02 91.03,-85.9"/>
<polygon fill="midnightblue" stroke="midnightblue" points="94.54,-85.91 91.82,-75.67 87.56,-85.37 94.54,-85.91"/>
</g>
<!-- Node4 -->
<g id="node4" class="node">
<title>Node4</title>
<g id="a_node4"><a xlink:href="../../d6/d10/codecvt__specializations_8h.html" target="_top" xlink:title=" ">
<polygon fill="none" stroke="black" points="112,-112.5 112,-131.5 273,-131.5 273,-112.5 112,-112.5"/>
<text text-anchor="middle" x="192.5" y="-119.5" font-family="Helvetica,sans-Serif" font-size="10.00">ext/codecvt_specializations.h</text>
</a>
</g>
</g>
<!-- Node1&#45;&gt;Node4 -->
<g id="edge3" class="edge">
<title>Node1&#45;&gt;Node4</title>
<path fill="none" stroke="midnightblue" d="M109.33,-168.4C126.97,-158.77 150.2,-146.09 167.63,-136.58"/>
<polygon fill="midnightblue" stroke="midnightblue" points="169.54,-139.52 176.64,-131.66 166.19,-133.38 169.54,-139.52"/>
</g>
<!-- Node4&#45;&gt;Node3 -->
<g id="edge7" class="edge">
<title>Node4&#45;&gt;Node3</title>
<path fill="none" stroke="midnightblue" d="M176.43,-112.32C160.54,-103.74 135.99,-90.49 117.54,-80.52"/>
<polygon fill="midnightblue" stroke="midnightblue" points="118.99,-77.33 108.53,-75.65 115.66,-83.49 118.99,-77.33"/>
</g>
<!-- Node5 -->
<g id="node5" class="node">
<title>Node5</title>
<g id="a_node5"><a xlink:href="../../d1/db9/c_09_09config_8h.html" target="_top" xlink:title=" ">
<polygon fill="none" stroke="black" points="138.5,-56.5 138.5,-75.5 236.5,-75.5 236.5,-56.5 138.5,-56.5"/>
<text text-anchor="middle" x="187.5" y="-63.5" font-family="Helvetica,sans-Serif" font-size="10.00">bits/c++config.h</text>
</a>
</g>
</g>
<!-- Node4&#45;&gt;Node5 -->
<g id="edge4" class="edge">
<title>Node4&#45;&gt;Node5</title>
<path fill="none" stroke="midnightblue" d="M191.67,-112.08C191.02,-105.01 190.08,-94.86 189.26,-85.99"/>
<polygon fill="midnightblue" stroke="midnightblue" points="192.72,-85.39 188.31,-75.75 185.75,-86.03 192.72,-85.39"/>
</g>
<!-- Node8 -->
<g id="node8" class="node">
<title>Node8</title>
<g id="a_node8"><a xlink:title=" ">
<polygon fill="none" stroke="#bfbfbf" points="255,-56.5 255,-75.5 306,-75.5 306,-56.5 255,-56.5"/>
<text text-anchor="middle" x="280.5" y="-63.5" font-family="Helvetica,sans-Serif" font-size="10.00">iconv.h</text>
</a>
</g>
</g>
<!-- Node4&#45;&gt;Node8 -->
<g id="edge8" class="edge">
<title>Node4&#45;&gt;Node8</title>
<path fill="none" stroke="midnightblue" d="M206.64,-112.32C220.37,-103.9 241.44,-90.97 257.56,-81.07"/>
<polygon fill="midnightblue" stroke="midnightblue" points="259.7,-83.87 266.4,-75.65 256.04,-77.9 259.7,-83.87"/>
</g>
<!-- Node6 -->
<g id="node6" class="node">
<title>Node6</title>
<g id="a_node6"><a xlink:href="../../d5/d0b/os__defines_8h.html" target="_top" xlink:title=" ">
<polygon fill="none" stroke="black" points="78.5,-0.5 78.5,-19.5 176.5,-19.5 176.5,-0.5 78.5,-0.5"/>
<text text-anchor="middle" x="127.5" y="-7.5" font-family="Helvetica,sans-Serif" font-size="10.00">bits/os_defines.h</text>
</a>
</g>
</g>
<!-- Node5&#45;&gt;Node6 -->
<g id="edge5" class="edge">
<title>Node5&#45;&gt;Node6</title>
<path fill="none" stroke="midnightblue" d="M177.86,-56.32C168.99,-48.34 155.63,-36.31 144.89,-26.65"/>
<polygon fill="midnightblue" stroke="midnightblue" points="147.09,-23.92 137.32,-19.83 142.41,-29.13 147.09,-23.92"/>
</g>
<!-- Node7 -->
<g id="node7" class="node">
<title>Node7</title>
<g id="a_node7"><a xlink:href="../../d0/d75/cpu__defines_8h.html" target="_top" xlink:title=" ">
<polygon fill="none" stroke="black" points="194.5,-0.5 194.5,-19.5 298.5,-19.5 298.5,-0.5 194.5,-0.5"/>
<text text-anchor="middle" x="246.5" y="-7.5" font-family="Helvetica,sans-Serif" font-size="10.00">bits/cpu_defines.h</text>
</a>
</g>
</g>
<!-- Node5&#45;&gt;Node7 -->
<g id="edge6" class="edge">
<title>Node5&#45;&gt;Node7</title>
<path fill="none" stroke="midnightblue" d="M196.98,-56.32C205.7,-48.34 218.84,-36.31 229.4,-26.65"/>
<polygon fill="midnightblue" stroke="midnightblue" points="231.83,-29.17 236.85,-19.83 227.11,-24 231.83,-29.17"/>
</g>
</g>
</svg>
