<?xml version="1.0" encoding="UTF-8" standalone="no"?>
<!DOCTYPE svg PUBLIC "-//W3C//DTD SVG 1.1//EN"
 "http://www.w3.org/Graphics/SVG/1.1/DTD/svg11.dtd">
<!-- Generated by graphviz version 2.43.0 (0)
 -->
<!-- Title: _AT_INFO Pages: 1 -->
<svg width="207pt" height="128pt"
 viewBox="0.00 0.00 206.50 128.00" xmlns="http://www.w3.org/2000/svg" xmlns:xlink="http://www.w3.org/1999/xlink">
<g id="graph0" class="graph" transform="scale(1 1) rotate(0) translate(4 124)">
<title>_AT_INFO</title>
<!-- Node1 -->
<g id="node1" class="node">
<title>Node1</title>
<g id="a_node1"><a xlink:title=" ">
<polygon fill="#bfbfbf" stroke="black" points="59,-0.5 59,-19.5 122,-19.5 122,-0.5 59,-0.5"/>
<text text-anchor="middle" x="90.5" y="-7.5" font-family="Helvetica,sans-Serif" font-size="10.00">_AT_INFO</text>
</a>
</g>
</g>
<!-- Node2 -->
<g id="node2" class="node">
<title>Node2</title>
<g id="a_node2"><a xlink:title=" ">
<polygon fill="none" stroke="#bfbfbf" points="0,-100.5 0,-119.5 89,-119.5 89,-100.5 0,-100.5"/>
<text text-anchor="middle" x="44.5" y="-107.5" font-family="Helvetica,sans-Serif" font-size="10.00">unsigned short</text>
</a>
</g>
</g>
<!-- Node2&#45;&gt;Node1 -->
<g id="edge1" class="edge">
<title>Node2&#45;&gt;Node1</title>
<path fill="none" stroke="#9a32cd" stroke-dasharray="5,2" d="M46.03,-89.98C47.92,-75.01 52.14,-54.05 61.5,-38 65.66,-30.87 72.29,-24.49 78.16,-19.73"/>
<polygon fill="#9a32cd" stroke="#9a32cd" points="42.53,-89.79 44.99,-100.09 49.5,-90.5 42.53,-89.79"/>
<text text-anchor="middle" x="88.5" y="-57.5" font-family="Helvetica,sans-Serif" font-size="10.00"> Command</text>
</g>
<!-- Node3 -->
<g id="node3" class="node">
<title>Node3</title>
<g id="a_node3"><a xlink:title=" ">
<polygon fill="none" stroke="#bfbfbf" points="107,-100.5 107,-119.5 168,-119.5 168,-100.5 107,-100.5"/>
<text text-anchor="middle" x="137.5" y="-107.5" font-family="Helvetica,sans-Serif" font-size="10.00">unsigned</text>
</a>
</g>
</g>
<!-- Node3&#45;&gt;Node1 -->
<g id="edge2" class="edge">
<title>Node3&#45;&gt;Node1</title>
<path fill="none" stroke="#9a32cd" stroke-dasharray="5,2" d="M134.07,-90.17C130.8,-75.29 124.96,-54.39 115.5,-38 111.54,-31.14 105.55,-24.59 100.43,-19.66"/>
<polygon fill="#9a32cd" stroke="#9a32cd" points="130.68,-91.07 136.08,-100.19 137.54,-89.7 130.68,-91.07"/>
<text text-anchor="middle" x="165" y="-74" font-family="Helvetica,sans-Serif" font-size="10.00"> Flags</text>
<text text-anchor="middle" x="165" y="-63" font-family="Helvetica,sans-Serif" font-size="10.00">JobTime</text>
<text text-anchor="middle" x="165" y="-52" font-family="Helvetica,sans-Serif" font-size="10.00">DaysOfWeek</text>
<text text-anchor="middle" x="165" y="-41" font-family="Helvetica,sans-Serif" font-size="10.00">DaysOfMonth</text>
</g>
</g>
</svg>
