<?xml version="1.0" encoding="UTF-8" standalone="no"?>
<!DOCTYPE svg PUBLIC "-//W3C//DTD SVG 1.1//EN"
 "http://www.w3.org/Graphics/SVG/1.1/DTD/svg11.dtd">
<!-- Generated by graphviz version 2.43.0 (0)
 -->
<!-- Title: _TDI_REQUEST_LISTEN Pages: 1 -->
<svg width="404pt" height="117pt"
 viewBox="0.00 0.00 404.00 117.00" xmlns="http://www.w3.org/2000/svg" xmlns:xlink="http://www.w3.org/1999/xlink">
<g id="graph0" class="graph" transform="scale(1 1) rotate(0) translate(4 113)">
<title>_TDI_REQUEST_LISTEN</title>
<!-- Node1 -->
<g id="node1" class="node">
<title>Node1</title>
<g id="a_node1"><a xlink:title=" ">
<polygon fill="#bfbfbf" stroke="black" points="106,-0.5 106,-19.5 234,-19.5 234,-0.5 106,-0.5"/>
<text text-anchor="middle" x="170" y="-7.5" font-family="Helvetica,sans-Serif" font-size="10.00">_TDI_REQUEST_LISTEN</text>
</a>
</g>
</g>
<!-- Node2 -->
<g id="node2" class="node">
<title>Node2</title>
<g id="a_node2"><a xlink:title=" ">
<polygon fill="none" stroke="#bfbfbf" points="0,-84 0,-103 84,-103 84,-84 0,-84"/>
<text text-anchor="middle" x="42" y="-91" font-family="Helvetica,sans-Serif" font-size="10.00">TDI_REQUEST</text>
</a>
</g>
</g>
<!-- Node2&#45;&gt;Node1 -->
<g id="edge1" class="edge">
<title>Node2&#45;&gt;Node1</title>
<path fill="none" stroke="#9a32cd" stroke-dasharray="5,2" d="M62.39,-78.2C78.61,-66.96 102,-51.08 123,-38 133.23,-31.63 144.98,-24.88 154.17,-19.73"/>
<polygon fill="#9a32cd" stroke="#9a32cd" points="60.38,-75.33 54.17,-83.92 64.38,-81.08 60.38,-75.33"/>
<text text-anchor="middle" x="144.5" y="-46.5" font-family="Helvetica,sans-Serif" font-size="10.00"> Request</text>
</g>
<!-- Node3 -->
<g id="node3" class="node">
<title>Node3</title>
<g id="a_node3"><a xlink:title=" ">
<polygon fill="none" stroke="#bfbfbf" points="102.5,-78.5 102.5,-108.5 237.5,-108.5 237.5,-78.5 102.5,-78.5"/>
<text text-anchor="start" x="110.5" y="-96.5" font-family="Helvetica,sans-Serif" font-size="10.00">struct TDI_CONNECTION</text>
<text text-anchor="middle" x="170" y="-85.5" font-family="Helvetica,sans-Serif" font-size="10.00">_INFORMATION *</text>
</a>
</g>
</g>
<!-- Node3&#45;&gt;Node1 -->
<g id="edge2" class="edge">
<title>Node3&#45;&gt;Node1</title>
<path fill="none" stroke="#9a32cd" stroke-dasharray="5,2" d="M170,-68.25C170,-51.78 170,-30.99 170,-19.54"/>
<polygon fill="#9a32cd" stroke="#9a32cd" points="166.5,-68.3 170,-78.3 173.5,-68.3 166.5,-68.3"/>
<text text-anchor="middle" x="246" y="-52" font-family="Helvetica,sans-Serif" font-size="10.00"> ReturnConnectionInformation</text>
<text text-anchor="middle" x="246" y="-41" font-family="Helvetica,sans-Serif" font-size="10.00">RequestConnectionInformation</text>
</g>
<!-- Node4 -->
<g id="node4" class="node">
<title>Node4</title>
<g id="a_node4"><a xlink:title=" ">
<polygon fill="none" stroke="#bfbfbf" points="314.5,-84 314.5,-103 375.5,-103 375.5,-84 314.5,-84"/>
<text text-anchor="middle" x="345" y="-91" font-family="Helvetica,sans-Serif" font-size="10.00">unsigned</text>
</a>
</g>
</g>
<!-- Node4&#45;&gt;Node1 -->
<g id="edge3" class="edge">
<title>Node4&#45;&gt;Node1</title>
<path fill="none" stroke="#9a32cd" stroke-dasharray="5,2" d="M342.25,-74.04C339.46,-61.97 333.93,-46.85 323,-38 309.32,-26.92 269.83,-20.12 234.4,-16.12"/>
<polygon fill="#9a32cd" stroke="#9a32cd" points="338.83,-74.81 344.11,-84 345.71,-73.53 338.83,-74.81"/>
<text text-anchor="middle" x="366.5" y="-46.5" font-family="Helvetica,sans-Serif" font-size="10.00"> ListenFlags</text>
</g>
</g>
</svg>
