<?xml version="1.0" encoding="UTF-8" standalone="no"?>
<!DOCTYPE svg PUBLIC "-//W3C//DTD SVG 1.1//EN"
 "http://www.w3.org/Graphics/SVG/1.1/DTD/svg11.dtd">
<!-- Generated by graphviz version 2.43.0 (0)
 -->
<!-- Title: Tools/MinGW/include/commdlg.h Pages: 1 -->
<!--zoomable 586 -->
<svg id="main" version="1.1" xmlns="http://www.w3.org/2000/svg" xmlns:xlink="http://www.w3.org/1999/xlink" xml:space="preserve" onload="init(evt)">
<style type="text/css"><![CDATA[
.edge:hover path { stroke: red; }
.edge:hover polygon { stroke: red; fill: red; }
]]></style>
<script type="text/javascript"><![CDATA[
var edges = document.getElementsByTagName('g');
if (edges && edges.length) {
  for (var i=0;i<edges.length;i++) {
    if (edges[i].id.substr(0,4)=='edge') {
      edges[i].setAttribute('class','edge');
    }
  }
}
]]></script>
        <defs>
                <circle id="rim" cx="0" cy="0" r="7"/>
                <circle id="rim2" cx="0" cy="0" r="3.5"/>
                <g id="zoomPlus">
                        <use xlink:href="#rim" fill="#404040">
                                <set attributeName="fill" to="#808080" begin="zoomplus.mouseover" end="zoomplus.mouseout"/>
                        </use>
                        <path d="M-4,0h8M0,-4v8" fill="none" stroke="white" stroke-width="1.5" pointer-events="none"/>
                </g>
                <g id="zoomMin">
                        <use xlink:href="#rim" fill="#404040">
                                <set attributeName="fill" to="#808080" begin="zoomminus.mouseover" end="zoomminus.mouseout"/>
                        </use>
                        <path d="M-4,0h8" fill="none" stroke="white" stroke-width="1.5" pointer-events="none"/>
                </g>
                <g id="dirArrow">
                        <path fill="none" stroke="white" stroke-width="1.5" d="M0,-3.0v7 M-2.5,-0.5L0,-3.0L2.5,-0.5"/>
                </g>
               <g id="resetDef">
                       <use xlink:href="#rim2" fill="#404040">
                               <set attributeName="fill" to="#808080" begin="reset.mouseover" end="reset.mouseout"/>
                       </use>
               </g>
        </defs>

<script type="text/javascript">
var viewWidth = 2743;
var viewHeight = 586;
var sectionId = 'dynsection-0';
</script>
<script xlink:href="../../svgpan.js"/>
<svg id="graph" class="graph">
<g id="viewport">
<title>Tools/MinGW/include/commdlg.h</title>
<!-- Node1 -->
<g id="node1" class="node">
<title>Node1</title>
<g id="a_node1"><a xlink:title=" ">
<polygon fill="#bfbfbf" stroke="black" points="527,-547.5 527,-577.5 645,-577.5 645,-547.5 527,-547.5"/>
<text text-anchor="start" x="535" y="-565.5" font-family="Helvetica,sans-Serif" font-size="10.00">Tools/MinGW/include</text>
<text text-anchor="middle" x="586" y="-554.5" font-family="Helvetica,sans-Serif" font-size="10.00">/commdlg.h</text>
</a>
</g>
</g>
<!-- Node2 -->
<g id="node2" class="node">
<title>Node2</title>
<g id="a_node2"><a xlink:href="../../d5/d5f/oledlg_8h.html" target="_top" xlink:title=" ">
<polygon fill="none" stroke="black" points="0,-67.5 0,-97.5 118,-97.5 118,-67.5 0,-67.5"/>
<text text-anchor="start" x="8" y="-85.5" font-family="Helvetica,sans-Serif" font-size="10.00">Tools/MinGW/include</text>
<text text-anchor="middle" x="59" y="-74.5" font-family="Helvetica,sans-Serif" font-size="10.00">/oledlg.h</text>
</a>
</g>
</g>
<!-- Node1&#45;&gt;Node2 -->
<g id="edge1" class="edge">
<title>Node1&#45;&gt;Node2</title>
<path fill="none" stroke="midnightblue" d="M516.79,-559.14C365.95,-552.1 21,-524.97 21,-424 21,-424 21,-424 21,-215.5 21,-171.14 41.06,-121.56 52.03,-97.76"/>
<polygon fill="midnightblue" stroke="midnightblue" points="516.72,-562.64 526.87,-559.59 517.04,-555.64 516.72,-562.64"/>
</g>
<!-- Node3 -->
<g id="node3" class="node">
<title>Node3</title>
<g id="a_node3"><a xlink:href="../../d9/d43/windows_8h.html" target="_top" xlink:title=" ">
<polygon fill="none" stroke="black" points="1093,-480.5 1093,-510.5 1211,-510.5 1211,-480.5 1093,-480.5"/>
<text text-anchor="start" x="1101" y="-498.5" font-family="Helvetica,sans-Serif" font-size="10.00">Tools/MinGW/include</text>
<text text-anchor="middle" x="1152" y="-487.5" font-family="Helvetica,sans-Serif" font-size="10.00">/windows.h</text>
</a>
</g>
</g>
<!-- Node1&#45;&gt;Node3 -->
<g id="edge2" class="edge">
<title>Node1&#45;&gt;Node3</title>
<path fill="none" stroke="midnightblue" d="M655.44,-553.53C767.78,-540.62 987.41,-515.4 1092.8,-503.3"/>
<polygon fill="midnightblue" stroke="midnightblue" points="654.77,-550.08 645.24,-554.7 655.57,-557.03 654.77,-550.08"/>
</g>
<!-- Node3&#45;&gt;Node2 -->
<g id="edge27" class="edge">
<title>Node3&#45;&gt;Node2</title>
<path fill="none" stroke="midnightblue" d="M1082.66,-494.18C867.91,-492.76 223.23,-485.08 139,-444 90.15,-420.17 59,-405.85 59,-351.5 59,-351.5 59,-351.5 59,-215.5 59,-172.65 59,-121.97 59,-97.76"/>
<polygon fill="midnightblue" stroke="midnightblue" points="1082.83,-497.68 1092.86,-494.25 1082.88,-490.68 1082.83,-497.68"/>
</g>
<!-- Node4 -->
<g id="node4" class="node">
<title>Node4</title>
<g id="a_node4"><a xlink:href="../../db/d94/con__win32_8c.html" target="_top" xlink:title=" ">
<polygon fill="none" stroke="black" points="383,-413.5 383,-432.5 515,-432.5 515,-413.5 383,-413.5"/>
<text text-anchor="middle" x="449" y="-420.5" font-family="Helvetica,sans-Serif" font-size="10.00">Engine/sys/con_win32.c</text>
</a>
</g>
</g>
<!-- Node3&#45;&gt;Node4 -->
<g id="edge3" class="edge">
<title>Node3&#45;&gt;Node4</title>
<path fill="none" stroke="midnightblue" d="M1082.65,-492.59C967.13,-488.58 728.31,-476.76 529,-444 512.05,-441.21 493.41,-436.64 478.39,-432.58"/>
<polygon fill="midnightblue" stroke="midnightblue" points="1082.66,-496.09 1092.77,-492.93 1082.89,-489.1 1082.66,-496.09"/>
</g>
<!-- Node5 -->
<g id="node5" class="node">
<title>Node5</title>
<g id="a_node5"><a xlink:href="../../db/db6/sys__win32_8c.html" target="_top" xlink:title=" ">
<polygon fill="none" stroke="black" points="1620.5,-6 1620.5,-25 1751.5,-25 1751.5,-6 1620.5,-6"/>
<text text-anchor="middle" x="1686" y="-13" font-family="Helvetica,sans-Serif" font-size="10.00">Engine/sys/sys_win32.c</text>
</a>
</g>
</g>
<!-- Node3&#45;&gt;Node5 -->
<g id="edge4" class="edge">
<title>Node3&#45;&gt;Node5</title>
<path fill="none" stroke="midnightblue" d="M1221.67,-494C1490.11,-491.81 2448.91,-481.42 2580,-444 2657.14,-421.98 2735,-431.72 2735,-351.5 2735,-351.5 2735,-351.5 2735,-148.5 2735,-48.92 1981.27,-23.31 1751.62,-17.82"/>
<polygon fill="midnightblue" stroke="midnightblue" points="1221.26,-490.5 1211.29,-494.08 1221.32,-497.5 1221.26,-490.5"/>
</g>
<!-- Node6 -->
<g id="node6" class="node">
<title>Node6</title>
<g id="a_node6"><a xlink:href="../../d9/d4b/aclapi_8h.html" target="_top" xlink:title=" ">
<polygon fill="none" stroke="black" points="647,-408 647,-438 765,-438 765,-408 647,-408"/>
<text text-anchor="start" x="655" y="-426" font-family="Helvetica,sans-Serif" font-size="10.00">Tools/MinGW/include</text>
<text text-anchor="middle" x="706" y="-415" font-family="Helvetica,sans-Serif" font-size="10.00">/aclapi.h</text>
</a>
</g>
</g>
<!-- Node3&#45;&gt;Node6 -->
<g id="edge5" class="edge">
<title>Node3&#45;&gt;Node6</title>
<path fill="none" stroke="midnightblue" d="M1082.96,-488.48C1006.77,-481.1 880.76,-466.69 774,-444 766.18,-442.34 757.94,-440.23 750.01,-438.01"/>
<polygon fill="midnightblue" stroke="midnightblue" points="1082.63,-491.97 1092.92,-489.43 1083.3,-485 1082.63,-491.97"/>
</g>
<!-- Node7 -->
<g id="node7" class="node">
<title>Node7</title>
<g id="a_node7"><a xlink:href="../../d5/d7b/afxres_8h.html" target="_top" xlink:title=" ">
<polygon fill="none" stroke="black" points="783,-408 783,-438 901,-438 901,-408 783,-408"/>
<text text-anchor="start" x="791" y="-426" font-family="Helvetica,sans-Serif" font-size="10.00">Tools/MinGW/include</text>
<text text-anchor="middle" x="842" y="-415" font-family="Helvetica,sans-Serif" font-size="10.00">/afxres.h</text>
</a>
</g>
</g>
<!-- Node3&#45;&gt;Node7 -->
<g id="edge6" class="edge">
<title>Node3&#45;&gt;Node7</title>
<path fill="none" stroke="midnightblue" d="M1082.44,-481.52C1033.89,-472.09 967.71,-458.48 910,-444 902.84,-442.2 895.3,-440.15 887.95,-438.06"/>
<polygon fill="midnightblue" stroke="midnightblue" points="1082.04,-485.01 1092.52,-483.47 1083.37,-478.14 1082.04,-485.01"/>
</g>
<!-- Node8 -->
<g id="node8" class="node">
<title>Node8</title>
<g id="a_node8"><a xlink:href="../../d2/d64/gthr-default_8h.html" target="_top" xlink:title=" ">
<polygon fill="none" stroke="black" points="919,-402.5 919,-443.5 1075,-443.5 1075,-402.5 919,-402.5"/>
<text text-anchor="start" x="927" y="-431.5" font-family="Helvetica,sans-Serif" font-size="10.00">Tools/MinGW/include</text>
<text text-anchor="start" x="927" y="-420.5" font-family="Helvetica,sans-Serif" font-size="10.00">/c++/4.6.1/i686&#45;pc&#45;mingw32</text>
<text text-anchor="middle" x="997" y="-409.5" font-family="Helvetica,sans-Serif" font-size="10.00">/bits/gthr&#45;default.h</text>
</a>
</g>
</g>
<!-- Node3&#45;&gt;Node8 -->
<g id="edge7" class="edge">
<title>Node3&#45;&gt;Node8</title>
<path fill="none" stroke="midnightblue" d="M1111.61,-476.13C1089.61,-466.12 1062.37,-453.73 1039.97,-443.55"/>
<polygon fill="midnightblue" stroke="midnightblue" points="1110.45,-479.45 1121.01,-480.4 1113.35,-473.08 1110.45,-479.45"/>
</g>
<!-- Node9 -->
<g id="node9" class="node">
<title>Node9</title>
<g id="a_node9"><a xlink:href="../../d4/d7c/comcat_8h.html" target="_top" xlink:title=" ">
<polygon fill="none" stroke="black" points="571,-67.5 571,-97.5 689,-97.5 689,-67.5 571,-67.5"/>
<text text-anchor="start" x="579" y="-85.5" font-family="Helvetica,sans-Serif" font-size="10.00">Tools/MinGW/include</text>
<text text-anchor="middle" x="630" y="-74.5" font-family="Helvetica,sans-Serif" font-size="10.00">/comcat.h</text>
</a>
</g>
</g>
<!-- Node3&#45;&gt;Node9 -->
<g id="edge8" class="edge">
<title>Node3&#45;&gt;Node9</title>
<path fill="none" stroke="midnightblue" d="M1082.71,-492.15C945.47,-486.91 649.2,-472.42 613,-444 578.78,-417.14 581,-395 581,-351.5 581,-351.5 581,-351.5 581,-215.5 581,-170.03 606.87,-120.95 621.01,-97.51"/>
<polygon fill="midnightblue" stroke="midnightblue" points="1082.58,-495.65 1092.7,-492.53 1082.84,-488.66 1082.58,-495.65"/>
</g>
<!-- Node10 -->
<g id="node10" class="node">
<title>Node10</title>
<g id="a_node10"><a xlink:href="../../db/d82/wglew_8h.html" target="_top" xlink:title=" ">
<polygon fill="none" stroke="black" points="1093,-408 1093,-438 1211,-438 1211,-408 1093,-408"/>
<text text-anchor="start" x="1101" y="-426" font-family="Helvetica,sans-Serif" font-size="10.00">Tools/MinGW/include</text>
<text text-anchor="middle" x="1152" y="-415" font-family="Helvetica,sans-Serif" font-size="10.00">/GL/wglew.h</text>
</a>
</g>
</g>
<!-- Node3&#45;&gt;Node10 -->
<g id="edge9" class="edge">
<title>Node3&#45;&gt;Node10</title>
<path fill="none" stroke="midnightblue" d="M1152,-470.23C1152,-459.57 1152,-447.41 1152,-438.25"/>
<polygon fill="midnightblue" stroke="midnightblue" points="1148.5,-470.23 1152,-480.23 1155.5,-470.23 1148.5,-470.23"/>
</g>
<!-- Node11 -->
<g id="node11" class="node">
<title>Node11</title>
<g id="a_node11"><a xlink:href="../../d8/dc2/httpext_8h.html" target="_top" xlink:title=" ">
<polygon fill="none" stroke="black" points="1229,-408 1229,-438 1347,-438 1347,-408 1229,-408"/>
<text text-anchor="start" x="1237" y="-426" font-family="Helvetica,sans-Serif" font-size="10.00">Tools/MinGW/include</text>
<text text-anchor="middle" x="1288" y="-415" font-family="Helvetica,sans-Serif" font-size="10.00">/httpext.h</text>
</a>
</g>
</g>
<!-- Node3&#45;&gt;Node11 -->
<g id="edge10" class="edge">
<title>Node3&#45;&gt;Node11</title>
<path fill="none" stroke="midnightblue" d="M1188.24,-475.72C1211.05,-463.89 1240.02,-448.87 1260.85,-438.07"/>
<polygon fill="midnightblue" stroke="midnightblue" points="1186.46,-472.69 1179.19,-480.4 1189.68,-478.91 1186.46,-472.69"/>
</g>
<!-- Node12 -->
<g id="node12" class="node">
<title>Node12</title>
<g id="a_node12"><a xlink:href="../../df/dd3/largeint_8h.html" target="_top" xlink:title=" ">
<polygon fill="none" stroke="black" points="1365,-408 1365,-438 1483,-438 1483,-408 1365,-408"/>
<text text-anchor="start" x="1373" y="-426" font-family="Helvetica,sans-Serif" font-size="10.00">Tools/MinGW/include</text>
<text text-anchor="middle" x="1424" y="-415" font-family="Helvetica,sans-Serif" font-size="10.00">/largeint.h</text>
</a>
</g>
</g>
<!-- Node3&#45;&gt;Node12 -->
<g id="edge11" class="edge">
<title>Node3&#45;&gt;Node12</title>
<path fill="none" stroke="midnightblue" d="M1220.92,-478.23C1260.54,-468.67 1311.2,-456.13 1356,-444 1362.89,-442.14 1370.15,-440.09 1377.25,-438.04"/>
<polygon fill="midnightblue" stroke="midnightblue" points="1220,-474.85 1211.09,-480.59 1221.63,-481.65 1220,-474.85"/>
</g>
<!-- Node13 -->
<g id="node13" class="node">
<title>Node13</title>
<g id="a_node13"><a xlink:href="../../d9/d87/mlang_8h.html" target="_top" xlink:title=" ">
<polygon fill="none" stroke="black" points="1501,-408 1501,-438 1619,-438 1619,-408 1501,-408"/>
<text text-anchor="start" x="1509" y="-426" font-family="Helvetica,sans-Serif" font-size="10.00">Tools/MinGW/include</text>
<text text-anchor="middle" x="1560" y="-415" font-family="Helvetica,sans-Serif" font-size="10.00">/mlang.h</text>
</a>
</g>
</g>
<!-- Node3&#45;&gt;Node13 -->
<g id="edge12" class="edge">
<title>Node3&#45;&gt;Node13</title>
<path fill="none" stroke="midnightblue" d="M1221.43,-487.05C1290.51,-478.96 1399.29,-464.42 1492,-444 1499.69,-442.31 1507.79,-440.21 1515.6,-438.02"/>
<polygon fill="midnightblue" stroke="midnightblue" points="1220.64,-483.61 1211.11,-488.24 1221.45,-490.57 1220.64,-483.61"/>
</g>
<!-- Node14 -->
<g id="node14" class="node">
<title>Node14</title>
<g id="a_node14"><a xlink:href="../../d3/d92/oaidl_8h.html" target="_top" xlink:title=" ">
<polygon fill="none" stroke="black" points="435,-268.5 435,-298.5 553,-298.5 553,-268.5 435,-268.5"/>
<text text-anchor="start" x="443" y="-286.5" font-family="Helvetica,sans-Serif" font-size="10.00">Tools/MinGW/include</text>
<text text-anchor="middle" x="494" y="-275.5" font-family="Helvetica,sans-Serif" font-size="10.00">/oaidl.h</text>
</a>
</g>
</g>
<!-- Node3&#45;&gt;Node14 -->
<g id="edge13" class="edge">
<title>Node3&#45;&gt;Node14</title>
<path fill="none" stroke="midnightblue" d="M1082.68,-492.4C936.85,-487.43 608.32,-473.12 567,-444 516.96,-408.74 500.5,-330.52 495.73,-298.54"/>
<polygon fill="midnightblue" stroke="midnightblue" points="1082.74,-495.91 1092.86,-492.74 1082.98,-488.91 1082.74,-495.91"/>
</g>
<!-- Node22 -->
<g id="node22" class="node">
<title>Node22</title>
<g id="a_node22"><a xlink:href="../../d7/d93/vfw_8h.html" target="_top" xlink:title=" ">
<polygon fill="none" stroke="black" points="707,-67.5 707,-97.5 825,-97.5 825,-67.5 707,-67.5"/>
<text text-anchor="start" x="715" y="-85.5" font-family="Helvetica,sans-Serif" font-size="10.00">Tools/MinGW/include</text>
<text text-anchor="middle" x="766" y="-74.5" font-family="Helvetica,sans-Serif" font-size="10.00">/vfw.h</text>
</a>
</g>
</g>
<!-- Node3&#45;&gt;Node22 -->
<g id="edge45" class="edge">
<title>Node3&#45;&gt;Node22</title>
<path fill="none" stroke="midnightblue" d="M1082.74,-492.2C950.08,-487.16 670.39,-473.17 638,-444 606.81,-415.92 619,-393.47 619,-351.5 619,-351.5 619,-351.5 619,-215.5 619,-156.33 685.74,-116.97 729.28,-97.58"/>
<polygon fill="midnightblue" stroke="midnightblue" points="1082.67,-495.7 1092.8,-492.58 1082.93,-488.71 1082.67,-495.7"/>
</g>
<!-- Node23 -->
<g id="node23" class="node">
<title>Node23</title>
<g id="a_node23"><a xlink:href="../../d0/d44/rpc_8h.html" target="_top" xlink:title=" ">
<polygon fill="none" stroke="black" points="247,-408 247,-438 365,-438 365,-408 247,-408"/>
<text text-anchor="start" x="255" y="-426" font-family="Helvetica,sans-Serif" font-size="10.00">Tools/MinGW/include</text>
<text text-anchor="middle" x="306" y="-415" font-family="Helvetica,sans-Serif" font-size="10.00">/rpc.h</text>
</a>
</g>
</g>
<!-- Node3&#45;&gt;Node23 -->
<g id="edge28" class="edge">
<title>Node3&#45;&gt;Node23</title>
<path fill="none" stroke="midnightblue" d="M1082.62,-495.11C944.59,-495.32 626.67,-490.38 365,-444 356.64,-442.52 347.85,-440.38 339.64,-438.05"/>
<polygon fill="midnightblue" stroke="midnightblue" points="1082.65,-498.61 1092.64,-495.08 1082.63,-491.61 1082.65,-498.61"/>
</g>
<!-- Node29 -->
<g id="node29" class="node">
<title>Node29</title>
<g id="a_node29"><a xlink:href="../../db/d12/unknwn_8h.html" target="_top" xlink:title=" ">
<polygon fill="none" stroke="black" points="125,-268.5 125,-298.5 243,-298.5 243,-268.5 125,-268.5"/>
<text text-anchor="start" x="133" y="-286.5" font-family="Helvetica,sans-Serif" font-size="10.00">Tools/MinGW/include</text>
<text text-anchor="middle" x="184" y="-275.5" font-family="Helvetica,sans-Serif" font-size="10.00">/unknwn.h</text>
</a>
</g>
</g>
<!-- Node3&#45;&gt;Node29 -->
<g id="edge43" class="edge">
<title>Node3&#45;&gt;Node29</title>
<path fill="none" stroke="midnightblue" d="M1082.78,-495.2C897.72,-496.36 394.89,-494.6 238,-444 176.75,-424.24 146.91,-422.45 116,-366 109.38,-353.92 109.81,-347.31 116,-335 123.99,-319.1 139.62,-306.95 153.88,-298.56"/>
<polygon fill="midnightblue" stroke="midnightblue" points="1082.96,-498.7 1092.94,-495.13 1082.91,-491.7 1082.96,-498.7"/>
</g>
<!-- Node30 -->
<g id="node30" class="node">
<title>Node30</title>
<g id="a_node30"><a xlink:href="../../dd/d90/Tools_2MinGW_2include_2SDL_2SDL__syswm_8h.html" target="_top" xlink:title=" ">
<polygon fill="none" stroke="black" points="1637,-408 1637,-438 1755,-438 1755,-408 1637,-408"/>
<text text-anchor="start" x="1645" y="-426" font-family="Helvetica,sans-Serif" font-size="10.00">Tools/MinGW/include</text>
<text text-anchor="middle" x="1696" y="-415" font-family="Helvetica,sans-Serif" font-size="10.00">/SDL/SDL_syswm.h</text>
</a>
</g>
</g>
<!-- Node3&#45;&gt;Node30 -->
<g id="edge40" class="edge">
<title>Node3&#45;&gt;Node30</title>
<path fill="none" stroke="midnightblue" d="M1221.29,-491.07C1314.47,-485.57 1485.01,-472.37 1628,-444 1635.97,-442.42 1644.34,-440.32 1652.39,-438.09"/>
<polygon fill="midnightblue" stroke="midnightblue" points="1220.92,-487.59 1211.14,-491.66 1221.32,-494.58 1220.92,-487.59"/>
</g>
<!-- Node31 -->
<g id="node31" class="node">
<title>Node31</title>
<g id="a_node31"><a xlink:href="../../de/d96/snmp_8h.html" target="_top" xlink:title=" ">
<polygon fill="none" stroke="black" points="1773,-408 1773,-438 1891,-438 1891,-408 1773,-408"/>
<text text-anchor="start" x="1781" y="-426" font-family="Helvetica,sans-Serif" font-size="10.00">Tools/MinGW/include</text>
<text text-anchor="middle" x="1832" y="-415" font-family="Helvetica,sans-Serif" font-size="10.00">/snmp.h</text>
</a>
</g>
</g>
<!-- Node3&#45;&gt;Node31 -->
<g id="edge41" class="edge">
<title>Node3&#45;&gt;Node31</title>
<path fill="none" stroke="midnightblue" d="M1221.52,-493.36C1335.68,-490.46 1569.62,-480.21 1764,-444 1772.23,-442.47 1780.88,-440.34 1789.15,-438.04"/>
<polygon fill="midnightblue" stroke="midnightblue" points="1221.09,-489.87 1211.18,-493.61 1221.26,-496.87 1221.09,-489.87"/>
</g>
<!-- Node33 -->
<g id="node33" class="node">
<title>Node33</title>
<g id="a_node33"><a xlink:href="../../d0/d19/usp10_8h.html" target="_top" xlink:title=" ">
<polygon fill="none" stroke="black" points="1909,-408 1909,-438 2027,-438 2027,-408 1909,-408"/>
<text text-anchor="start" x="1917" y="-426" font-family="Helvetica,sans-Serif" font-size="10.00">Tools/MinGW/include</text>
<text text-anchor="middle" x="1968" y="-415" font-family="Helvetica,sans-Serif" font-size="10.00">/usp10.h</text>
</a>
</g>
</g>
<!-- Node3&#45;&gt;Node33 -->
<g id="edge44" class="edge">
<title>Node3&#45;&gt;Node33</title>
<path fill="none" stroke="midnightblue" d="M1221.23,-494.85C1353.98,-494.42 1653.06,-488.1 1900,-444 1908.36,-442.51 1917.15,-440.37 1925.54,-438.03"/>
<polygon fill="midnightblue" stroke="midnightblue" points="1221.19,-491.35 1211.2,-494.87 1221.21,-498.35 1221.19,-491.35"/>
</g>
<!-- Node34 -->
<g id="node34" class="node">
<title>Node34</title>
<g id="a_node34"><a xlink:href="../../d8/d73/wininet_8h.html" target="_top" xlink:title=" ">
<polygon fill="none" stroke="black" points="2045,-408 2045,-438 2163,-438 2163,-408 2045,-408"/>
<text text-anchor="start" x="2053" y="-426" font-family="Helvetica,sans-Serif" font-size="10.00">Tools/MinGW/include</text>
<text text-anchor="middle" x="2104" y="-415" font-family="Helvetica,sans-Serif" font-size="10.00">/wininet.h</text>
</a>
</g>
</g>
<!-- Node3&#45;&gt;Node34 -->
<g id="edge46" class="edge">
<title>Node3&#45;&gt;Node34</title>
<path fill="none" stroke="midnightblue" d="M1221.17,-492.6C1400.94,-487.32 1879.71,-471.08 2036,-444 2044.49,-442.53 2053.42,-440.37 2061.91,-438"/>
<polygon fill="midnightblue" stroke="midnightblue" points="1220.94,-489.1 1211.05,-492.89 1221.14,-496.1 1220.94,-489.1"/>
</g>
<!-- Node35 -->
<g id="node35" class="node">
<title>Node35</title>
<g id="a_node35"><a xlink:href="../../da/d15/winsnmp_8h.html" target="_top" xlink:title=" ">
<polygon fill="none" stroke="black" points="2181,-408 2181,-438 2299,-438 2299,-408 2181,-408"/>
<text text-anchor="start" x="2189" y="-426" font-family="Helvetica,sans-Serif" font-size="10.00">Tools/MinGW/include</text>
<text text-anchor="middle" x="2240" y="-415" font-family="Helvetica,sans-Serif" font-size="10.00">/winsnmp.h</text>
</a>
</g>
</g>
<!-- Node3&#45;&gt;Node35 -->
<g id="edge47" class="edge">
<title>Node3&#45;&gt;Node35</title>
<path fill="none" stroke="midnightblue" d="M1221.26,-493.2C1419.81,-489.15 1988.47,-475.08 2172,-444 2180.49,-442.56 2189.43,-440.41 2197.92,-438.05"/>
<polygon fill="midnightblue" stroke="midnightblue" points="1221.17,-489.7 1211.24,-493.41 1221.31,-496.7 1221.17,-489.7"/>
</g>
<!-- Node36 -->
<g id="node36" class="node">
<title>Node36</title>
<g id="a_node36"><a xlink:href="../../da/de8/winsock_8h.html" target="_top" xlink:title=" ">
<polygon fill="none" stroke="black" points="2317,-408 2317,-438 2435,-438 2435,-408 2317,-408"/>
<text text-anchor="start" x="2325" y="-426" font-family="Helvetica,sans-Serif" font-size="10.00">Tools/MinGW/include</text>
<text text-anchor="middle" x="2376" y="-415" font-family="Helvetica,sans-Serif" font-size="10.00">/winsock.h</text>
</a>
</g>
</g>
<!-- Node3&#45;&gt;Node36 -->
<g id="edge48" class="edge">
<title>Node3&#45;&gt;Node36</title>
<path fill="none" stroke="midnightblue" d="M1221.36,-493.67C1437.52,-490.74 2097.07,-479.09 2308,-444 2316.5,-442.59 2325.43,-440.45 2333.93,-438.09"/>
<polygon fill="midnightblue" stroke="midnightblue" points="1221.06,-490.18 1211.1,-493.81 1221.15,-497.17 1221.06,-490.18"/>
</g>
<!-- Node37 -->
<g id="node37" class="node">
<title>Node37</title>
<g id="a_node37"><a xlink:href="../../dd/d21/winsock2_8h.html" target="_top" xlink:title=" ">
<polygon fill="none" stroke="black" points="2453,-408 2453,-438 2571,-438 2571,-408 2453,-408"/>
<text text-anchor="start" x="2461" y="-426" font-family="Helvetica,sans-Serif" font-size="10.00">Tools/MinGW/include</text>
<text text-anchor="middle" x="2512" y="-415" font-family="Helvetica,sans-Serif" font-size="10.00">/winsock2.h</text>
</a>
</g>
</g>
<!-- Node3&#45;&gt;Node37 -->
<g id="edge49" class="edge">
<title>Node3&#45;&gt;Node37</title>
<path fill="none" stroke="midnightblue" d="M1221.36,-494.01C1452.94,-492.06 2197.75,-482.91 2435,-444 2443.62,-442.59 2452.69,-440.42 2461.49,-438.02"/>
<polygon fill="midnightblue" stroke="midnightblue" points="1221.02,-490.52 1211.05,-494.1 1221.08,-497.52 1221.02,-490.52"/>
</g>
<!-- Node15 -->
<g id="node15" class="node">
<title>Node15</title>
<g id="a_node15"><a xlink:href="../../d8/dfc/exdisp_8h.html" target="_top" xlink:title=" ">
<polygon fill="none" stroke="black" points="163,-0.5 163,-30.5 281,-30.5 281,-0.5 163,-0.5"/>
<text text-anchor="start" x="171" y="-18.5" font-family="Helvetica,sans-Serif" font-size="10.00">Tools/MinGW/include</text>
<text text-anchor="middle" x="222" y="-7.5" font-family="Helvetica,sans-Serif" font-size="10.00">/exdisp.h</text>
</a>
</g>
</g>
<!-- Node14&#45;&gt;Node15 -->
<g id="edge14" class="edge">
<title>Node14&#45;&gt;Node15</title>
<path fill="none" stroke="midnightblue" d="M436.31,-264.42C418.98,-256.7 401.1,-246.12 388,-232 356.22,-197.76 383.33,-166.74 350,-134 316.9,-101.48 284.82,-130.8 252,-98 233.44,-79.46 226.25,-48.47 223.55,-30.52"/>
<polygon fill="midnightblue" stroke="midnightblue" points="435.28,-267.78 445.86,-268.43 437.99,-261.33 435.28,-267.78"/>
</g>
<!-- Node16 -->
<g id="node16" class="node">
<title>Node16</title>
<g id="a_node16"><a xlink:href="../../d7/dce/oleauto_8h.html" target="_top" xlink:title=" ">
<polygon fill="none" stroke="black" points="397,-201.5 397,-231.5 515,-231.5 515,-201.5 397,-201.5"/>
<text text-anchor="start" x="405" y="-219.5" font-family="Helvetica,sans-Serif" font-size="10.00">Tools/MinGW/include</text>
<text text-anchor="middle" x="456" y="-208.5" font-family="Helvetica,sans-Serif" font-size="10.00">/oleauto.h</text>
</a>
</g>
</g>
<!-- Node14&#45;&gt;Node16 -->
<g id="edge15" class="edge">
<title>Node14&#45;&gt;Node16</title>
<path fill="none" stroke="midnightblue" d="M480.6,-259.58C475.14,-250.24 469.01,-239.75 464.23,-231.58"/>
<polygon fill="midnightblue" stroke="midnightblue" points="477.69,-261.53 485.75,-268.4 483.73,-258 477.69,-261.53"/>
</g>
<!-- Node17 -->
<g id="node17" class="node">
<title>Node17</title>
<g id="a_node17"><a xlink:href="../../dd/db6/ole2_8h.html" target="_top" xlink:title=" ">
<polygon fill="none" stroke="black" points="435,-134.5 435,-164.5 553,-164.5 553,-134.5 435,-134.5"/>
<text text-anchor="start" x="443" y="-152.5" font-family="Helvetica,sans-Serif" font-size="10.00">Tools/MinGW/include</text>
<text text-anchor="middle" x="494" y="-141.5" font-family="Helvetica,sans-Serif" font-size="10.00">/ole2.h</text>
</a>
</g>
</g>
<!-- Node16&#45;&gt;Node17 -->
<g id="edge16" class="edge">
<title>Node16&#45;&gt;Node17</title>
<path fill="none" stroke="midnightblue" d="M469.4,-192.58C474.86,-183.24 480.99,-172.75 485.77,-164.58"/>
<polygon fill="midnightblue" stroke="midnightblue" points="466.27,-191 464.25,-201.4 472.31,-194.53 466.27,-191"/>
</g>
<!-- Node17&#45;&gt;Node2 -->
<g id="edge22" class="edge">
<title>Node17&#45;&gt;Node2</title>
<path fill="none" stroke="midnightblue" d="M424.85,-138.17C340.19,-125.52 198.25,-104.31 118.34,-92.37"/>
<polygon fill="midnightblue" stroke="midnightblue" points="424.47,-141.65 434.88,-139.67 425.51,-134.73 424.47,-141.65"/>
</g>
<!-- Node17&#45;&gt;Node9 -->
<g id="edge17" class="edge">
<title>Node17&#45;&gt;Node9</title>
<path fill="none" stroke="midnightblue" d="M532.72,-129.99C554.28,-119.69 580.69,-107.07 600.55,-97.58"/>
<polygon fill="midnightblue" stroke="midnightblue" points="531.02,-126.93 523.51,-134.4 534.04,-133.24 531.02,-126.93"/>
</g>
<!-- Node17&#45;&gt;Node14 -->
<g id="edge18" class="edge">
<title>Node17&#45;&gt;Node14</title>
<path fill="none" stroke="midnightblue" d="M510.85,-172.98C516.14,-181.33 521.3,-191.18 524,-201 527.65,-214.29 527.65,-218.71 524,-232 520.33,-245.37 512.09,-258.79 505.17,-268.43"/>
<polygon fill="midnightblue" stroke="midnightblue" points="513.67,-170.9 505.17,-164.57 507.87,-174.82 513.67,-170.9"/>
</g>
<!-- Node18 -->
<g id="node18" class="node">
<title>Node18</title>
<g id="a_node18"><a xlink:href="../../dc/d2a/ocidl_8h.html" target="_top" xlink:title=" ">
<polygon fill="none" stroke="black" points="261,-67.5 261,-97.5 379,-97.5 379,-67.5 261,-67.5"/>
<text text-anchor="start" x="269" y="-85.5" font-family="Helvetica,sans-Serif" font-size="10.00">Tools/MinGW/include</text>
<text text-anchor="middle" x="320" y="-74.5" font-family="Helvetica,sans-Serif" font-size="10.00">/ocidl.h</text>
</a>
</g>
</g>
<!-- Node17&#45;&gt;Node18 -->
<g id="edge19" class="edge">
<title>Node17&#45;&gt;Node18</title>
<path fill="none" stroke="midnightblue" d="M446.67,-130.82C418.7,-120.37 383.77,-107.32 357.68,-97.58"/>
<polygon fill="midnightblue" stroke="midnightblue" points="445.65,-134.18 456.24,-134.4 448.1,-127.62 445.65,-134.18"/>
</g>
<!-- Node20 -->
<g id="node20" class="node">
<title>Node20</title>
<g id="a_node20"><a xlink:href="../../d8/d57/shlobj_8h.html" target="_top" xlink:title=" ">
<polygon fill="none" stroke="black" points="435,-67.5 435,-97.5 553,-97.5 553,-67.5 435,-67.5"/>
<text text-anchor="start" x="443" y="-85.5" font-family="Helvetica,sans-Serif" font-size="10.00">Tools/MinGW/include</text>
<text text-anchor="middle" x="494" y="-74.5" font-family="Helvetica,sans-Serif" font-size="10.00">/shlobj.h</text>
</a>
</g>
</g>
<!-- Node17&#45;&gt;Node20 -->
<g id="edge23" class="edge">
<title>Node17&#45;&gt;Node20</title>
<path fill="none" stroke="midnightblue" d="M494,-124.11C494,-115.15 494,-105.32 494,-97.58"/>
<polygon fill="midnightblue" stroke="midnightblue" points="490.5,-124.4 494,-134.4 497.5,-124.4 490.5,-124.4"/>
</g>
<!-- Node17&#45;&gt;Node22 -->
<g id="edge26" class="edge">
<title>Node17&#45;&gt;Node22</title>
<path fill="none" stroke="midnightblue" d="M562.55,-132.12C607.06,-121.48 664.47,-107.76 706.95,-97.61"/>
<polygon fill="midnightblue" stroke="midnightblue" points="561.6,-128.75 552.69,-134.48 563.22,-135.56 561.6,-128.75"/>
</g>
<!-- Node18&#45;&gt;Node15 -->
<g id="edge20" class="edge">
<title>Node18&#45;&gt;Node15</title>
<path fill="none" stroke="midnightblue" d="M290.2,-61.73C275.03,-51.68 256.96,-39.68 243.22,-30.58"/>
<polygon fill="midnightblue" stroke="midnightblue" points="288.47,-64.79 298.74,-67.4 292.34,-58.95 288.47,-64.79"/>
</g>
<!-- Node19 -->
<g id="node19" class="node">
<title>Node19</title>
<g id="a_node19"><a xlink:href="../../d6/d60/olectl_8h.html" target="_top" xlink:title=" ">
<polygon fill="none" stroke="black" points="299,-0.5 299,-30.5 417,-30.5 417,-0.5 299,-0.5"/>
<text text-anchor="start" x="307" y="-18.5" font-family="Helvetica,sans-Serif" font-size="10.00">Tools/MinGW/include</text>
<text text-anchor="middle" x="358" y="-7.5" font-family="Helvetica,sans-Serif" font-size="10.00">/olectl.h</text>
</a>
</g>
</g>
<!-- Node18&#45;&gt;Node19 -->
<g id="edge21" class="edge">
<title>Node18&#45;&gt;Node19</title>
<path fill="none" stroke="midnightblue" d="M333.4,-58.58C338.86,-49.24 344.99,-38.75 349.77,-30.58"/>
<polygon fill="midnightblue" stroke="midnightblue" points="330.27,-57 328.25,-67.4 336.31,-60.53 330.27,-57"/>
</g>
<!-- Node20&#45;&gt;Node5 -->
<g id="edge24" class="edge">
<title>Node20&#45;&gt;Node5</title>
<path fill="none" stroke="midnightblue" d="M563.32,-67.01C788.21,-39.96 1415.6,-23 1620.45,-18.02"/>
<polygon fill="midnightblue" stroke="midnightblue" points="562.73,-63.56 553.24,-68.27 563.59,-70.5 562.73,-63.56"/>
</g>
<!-- Node21 -->
<g id="node21" class="node">
<title>Node21</title>
<g id="a_node21"><a xlink:href="../../dd/d94/shlwapi_8h.html" target="_top" xlink:title=" ">
<polygon fill="none" stroke="black" points="435,-0.5 435,-30.5 553,-30.5 553,-0.5 435,-0.5"/>
<text text-anchor="start" x="443" y="-18.5" font-family="Helvetica,sans-Serif" font-size="10.00">Tools/MinGW/include</text>
<text text-anchor="middle" x="494" y="-7.5" font-family="Helvetica,sans-Serif" font-size="10.00">/shlwapi.h</text>
</a>
</g>
</g>
<!-- Node20&#45;&gt;Node21 -->
<g id="edge25" class="edge">
<title>Node20&#45;&gt;Node21</title>
<path fill="none" stroke="midnightblue" d="M494,-57.11C494,-48.15 494,-38.32 494,-30.58"/>
<polygon fill="midnightblue" stroke="midnightblue" points="490.5,-57.4 494,-67.4 497.5,-57.4 490.5,-57.4"/>
</g>
<!-- Node23&#45;&gt;Node3 -->
<g id="edge35" class="edge">
<title>Node23&#45;&gt;Node3</title>
<path fill="none" stroke="midnightblue" d="M366.98,-440.57C372.38,-441.89 377.77,-443.07 383,-444 644.89,-490.42 963.12,-495.33 1092.82,-495.11"/>
<polygon fill="midnightblue" stroke="midnightblue" points="367.84,-437.18 357.28,-438.05 366.08,-443.95 367.84,-437.18"/>
</g>
<!-- Node24 -->
<g id="node24" class="node">
<title>Node24</title>
<g id="a_node24"><a xlink:href="../../d0/d4a/objbase_8h.html" target="_top" xlink:title=" ">
<polygon fill="none" stroke="black" points="223,-201.5 223,-231.5 341,-231.5 341,-201.5 223,-201.5"/>
<text text-anchor="start" x="231" y="-219.5" font-family="Helvetica,sans-Serif" font-size="10.00">Tools/MinGW/include</text>
<text text-anchor="middle" x="282" y="-208.5" font-family="Helvetica,sans-Serif" font-size="10.00">/objbase.h</text>
</a>
</g>
</g>
<!-- Node23&#45;&gt;Node24 -->
<g id="edge29" class="edge">
<title>Node23&#45;&gt;Node24</title>
<path fill="none" stroke="midnightblue" d="M349.33,-403.11C364.38,-394.18 379.59,-381.93 388,-366 394.43,-353.82 392.94,-347.86 388,-335 370.65,-289.87 327.05,-251.25 301.5,-231.53"/>
<polygon fill="midnightblue" stroke="midnightblue" points="347.59,-400.08 340.54,-407.99 350.98,-406.2 347.59,-400.08"/>
</g>
<!-- Node27 -->
<g id="node27" class="node">
<title>Node27</title>
<g id="a_node27"><a xlink:href="../../de/d17/rpcproxy_8h.html" target="_top" xlink:title=" ">
<polygon fill="none" stroke="black" points="261,-335.5 261,-365.5 379,-365.5 379,-335.5 261,-335.5"/>
<text text-anchor="start" x="269" y="-353.5" font-family="Helvetica,sans-Serif" font-size="10.00">Tools/MinGW/include</text>
<text text-anchor="middle" x="320" y="-342.5" font-family="Helvetica,sans-Serif" font-size="10.00">/rpcproxy.h</text>
</a>
</g>
</g>
<!-- Node23&#45;&gt;Node27 -->
<g id="edge34" class="edge">
<title>Node23&#45;&gt;Node27</title>
<path fill="none" stroke="midnightblue" d="M310.82,-397.73C312.94,-387.07 315.35,-374.91 317.17,-365.75"/>
<polygon fill="midnightblue" stroke="midnightblue" points="307.35,-397.24 308.83,-407.73 314.21,-398.61 307.35,-397.24"/>
</g>
<!-- Node28 -->
<g id="node28" class="node">
<title>Node28</title>
<g id="a_node28"><a xlink:href="../../d6/db2/wtypes_8h.html" target="_top" xlink:title=" ">
<polygon fill="none" stroke="black" points="125,-335.5 125,-365.5 243,-365.5 243,-335.5 125,-335.5"/>
<text text-anchor="start" x="133" y="-353.5" font-family="Helvetica,sans-Serif" font-size="10.00">Tools/MinGW/include</text>
<text text-anchor="middle" x="184" y="-342.5" font-family="Helvetica,sans-Serif" font-size="10.00">/wtypes.h</text>
</a>
</g>
</g>
<!-- Node23&#45;&gt;Node28 -->
<g id="edge36" class="edge">
<title>Node23&#45;&gt;Node28</title>
<path fill="none" stroke="midnightblue" d="M272.95,-402.9C252.57,-391.12 226.88,-376.28 208.35,-365.57"/>
<polygon fill="midnightblue" stroke="midnightblue" points="271.2,-405.93 281.6,-407.9 274.7,-399.87 271.2,-405.93"/>
</g>
<!-- Node24&#45;&gt;Node17 -->
<g id="edge32" class="edge">
<title>Node24&#45;&gt;Node17</title>
<path fill="none" stroke="midnightblue" d="M337.63,-198.44C371.99,-187.91 415.56,-174.55 447.98,-164.61"/>
<polygon fill="midnightblue" stroke="midnightblue" points="336.27,-195.2 327.74,-201.48 338.33,-201.89 336.27,-195.2"/>
</g>
<!-- Node24&#45;&gt;Node21 -->
<g id="edge33" class="edge">
<title>Node24&#45;&gt;Node21</title>
<path fill="none" stroke="midnightblue" d="M312.59,-195.48C324.82,-186.8 338.67,-176.09 350,-165 389.38,-126.43 386.62,-105.57 426,-67 440.08,-53.21 458.05,-40.02 471.98,-30.58"/>
<polygon fill="midnightblue" stroke="midnightblue" points="310.24,-192.84 304.02,-201.42 314.23,-198.6 310.24,-192.84"/>
</g>
<!-- Node25 -->
<g id="node25" class="node">
<title>Node25</title>
<g id="a_node25"><a xlink:href="../../d2/d04/aclui_8h.html" target="_top" xlink:title=" ">
<polygon fill="none" stroke="black" points="223,-134.5 223,-164.5 341,-164.5 341,-134.5 223,-134.5"/>
<text text-anchor="start" x="231" y="-152.5" font-family="Helvetica,sans-Serif" font-size="10.00">Tools/MinGW/include</text>
<text text-anchor="middle" x="282" y="-141.5" font-family="Helvetica,sans-Serif" font-size="10.00">/aclui.h</text>
</a>
</g>
</g>
<!-- Node24&#45;&gt;Node25 -->
<g id="edge30" class="edge">
<title>Node24&#45;&gt;Node25</title>
<path fill="none" stroke="midnightblue" d="M282,-191.11C282,-182.15 282,-172.32 282,-164.58"/>
<polygon fill="midnightblue" stroke="midnightblue" points="278.5,-191.4 282,-201.4 285.5,-191.4 278.5,-191.4"/>
</g>
<!-- Node26 -->
<g id="node26" class="node">
<title>Node26</title>
<g id="a_node26"><a xlink:href="../../d3/d16/d3d9_8h.html" target="_top" xlink:title=" ">
<polygon fill="none" stroke="black" points="87,-134.5 87,-164.5 205,-164.5 205,-134.5 87,-134.5"/>
<text text-anchor="start" x="95" y="-152.5" font-family="Helvetica,sans-Serif" font-size="10.00">Tools/MinGW/include</text>
<text text-anchor="middle" x="146" y="-141.5" font-family="Helvetica,sans-Serif" font-size="10.00">/d3d9.h</text>
</a>
</g>
</g>
<!-- Node24&#45;&gt;Node26 -->
<g id="edge31" class="edge">
<title>Node24&#45;&gt;Node26</title>
<path fill="none" stroke="midnightblue" d="M243.28,-196.99C221.72,-186.69 195.31,-174.07 175.45,-164.58"/>
<polygon fill="midnightblue" stroke="midnightblue" points="241.96,-200.24 252.49,-201.4 244.98,-193.93 241.96,-200.24"/>
</g>
<!-- Node28&#45;&gt;Node24 -->
<g id="edge37" class="edge">
<title>Node28&#45;&gt;Node24</title>
<path fill="none" stroke="midnightblue" d="M218.39,-329.75C230.35,-321.51 243,-311.03 252,-299 267.45,-278.36 275.64,-248.93 279.38,-231.66"/>
<polygon fill="midnightblue" stroke="midnightblue" points="216.31,-326.93 209.88,-335.34 220.15,-332.78 216.31,-326.93"/>
</g>
<!-- Node28&#45;&gt;Node29 -->
<g id="edge38" class="edge">
<title>Node28&#45;&gt;Node29</title>
<path fill="none" stroke="midnightblue" d="M184,-325.11C184,-316.15 184,-306.32 184,-298.58"/>
<polygon fill="midnightblue" stroke="midnightblue" points="180.5,-325.4 184,-335.4 187.5,-325.4 180.5,-325.4"/>
</g>
<!-- Node29&#45;&gt;Node24 -->
<g id="edge39" class="edge">
<title>Node29&#45;&gt;Node24</title>
<path fill="none" stroke="midnightblue" d="M213.8,-262.73C228.97,-252.68 247.04,-240.68 260.78,-231.58"/>
<polygon fill="midnightblue" stroke="midnightblue" points="211.66,-259.95 205.26,-268.4 215.53,-265.79 211.66,-259.95"/>
</g>
<!-- Node32 -->
<g id="node32" class="node">
<title>Node32</title>
<g id="a_node32"><a xlink:href="../../db/d7b/mgmtapi_8h.html" target="_top" xlink:title=" ">
<polygon fill="none" stroke="black" points="1773,-335.5 1773,-365.5 1891,-365.5 1891,-335.5 1773,-335.5"/>
<text text-anchor="start" x="1781" y="-353.5" font-family="Helvetica,sans-Serif" font-size="10.00">Tools/MinGW/include</text>
<text text-anchor="middle" x="1832" y="-342.5" font-family="Helvetica,sans-Serif" font-size="10.00">/mgmtapi.h</text>
</a>
</g>
</g>
<!-- Node31&#45;&gt;Node32 -->
<g id="edge42" class="edge">
<title>Node31&#45;&gt;Node32</title>
<path fill="none" stroke="midnightblue" d="M1832,-397.73C1832,-387.07 1832,-374.91 1832,-365.75"/>
<polygon fill="midnightblue" stroke="midnightblue" points="1828.5,-397.73 1832,-407.73 1835.5,-397.73 1828.5,-397.73"/>
</g>
<!-- Node37&#45;&gt;Node3 -->
<g id="edge54" class="edge">
<title>Node37&#45;&gt;Node3</title>
<path fill="none" stroke="midnightblue" d="M2469.42,-440.59C2463.95,-441.94 2458.39,-443.12 2453,-444 2209.61,-483.92 1432.06,-492.52 1211.05,-494.15"/>
<polygon fill="midnightblue" stroke="midnightblue" points="2470.34,-443.97 2479.11,-438.02 2468.54,-437.21 2470.34,-443.97"/>
</g>
<!-- Node38 -->
<g id="node38" class="node">
<title>Node38</title>
<g id="a_node38"><a xlink:href="../../d9/d16/ndis_8h.html" target="_top" xlink:title=" ">
<polygon fill="none" stroke="black" points="2045,-335.5 2045,-365.5 2163,-365.5 2163,-335.5 2045,-335.5"/>
<text text-anchor="start" x="2053" y="-353.5" font-family="Helvetica,sans-Serif" font-size="10.00">Tools/MinGW/include</text>
<text text-anchor="middle" x="2104" y="-342.5" font-family="Helvetica,sans-Serif" font-size="10.00">/ddk/ndis.h</text>
</a>
</g>
</g>
<!-- Node37&#45;&gt;Node38 -->
<g id="edge50" class="edge">
<title>Node37&#45;&gt;Node38</title>
<path fill="none" stroke="midnightblue" d="M2458.22,-405.36C2453.44,-404.13 2448.65,-402.98 2444,-402 2324.71,-376.72 2292.17,-386.73 2172,-366 2169.15,-365.51 2166.23,-364.98 2163.29,-364.43"/>
<polygon fill="midnightblue" stroke="midnightblue" points="2457.43,-408.77 2467.99,-407.98 2459.24,-402.01 2457.43,-408.77"/>
</g>
<!-- Node41 -->
<g id="node41" class="node">
<title>Node41</title>
<g id="a_node41"><a xlink:href="../../d1/d0d/ws2san_8h.html" target="_top" xlink:title=" ">
<polygon fill="none" stroke="black" points="2181,-335.5 2181,-365.5 2299,-365.5 2299,-335.5 2181,-335.5"/>
<text text-anchor="start" x="2189" y="-353.5" font-family="Helvetica,sans-Serif" font-size="10.00">Tools/MinGW/include</text>
<text text-anchor="middle" x="2240" y="-342.5" font-family="Helvetica,sans-Serif" font-size="10.00">/ddk/ws2san.h</text>
</a>
</g>
</g>
<!-- Node37&#45;&gt;Node41 -->
<g id="edge53" class="edge">
<title>Node37&#45;&gt;Node41</title>
<path fill="none" stroke="midnightblue" d="M2455.55,-405.19C2451.65,-404.09 2447.77,-403.02 2444,-402 2395.4,-388.84 2339.92,-375.2 2299.09,-365.41"/>
<polygon fill="midnightblue" stroke="midnightblue" points="2454.68,-408.58 2465.25,-407.96 2456.6,-401.85 2454.68,-408.58"/>
</g>
<!-- Node42 -->
<g id="node42" class="node">
<title>Node42</title>
<g id="a_node42"><a xlink:href="../../d4/d62/ws2spi_8h.html" target="_top" xlink:title=" ">
<polygon fill="none" stroke="black" points="2317,-335.5 2317,-365.5 2435,-365.5 2435,-335.5 2317,-335.5"/>
<text text-anchor="start" x="2325" y="-353.5" font-family="Helvetica,sans-Serif" font-size="10.00">Tools/MinGW/include</text>
<text text-anchor="middle" x="2376" y="-342.5" font-family="Helvetica,sans-Serif" font-size="10.00">/ws2spi.h</text>
</a>
</g>
</g>
<!-- Node37&#45;&gt;Node42 -->
<g id="edge55" class="edge">
<title>Node37&#45;&gt;Node42</title>
<path fill="none" stroke="midnightblue" d="M2475.76,-403.22C2452.95,-391.39 2423.98,-376.37 2403.15,-365.57"/>
<polygon fill="midnightblue" stroke="midnightblue" points="2474.32,-406.41 2484.81,-407.9 2477.54,-400.19 2474.32,-406.41"/>
</g>
<!-- Node43 -->
<g id="node43" class="node">
<title>Node43</title>
<g id="a_node43"><a xlink:href="../../d2/df0/ws2tcpip_8h.html" target="_top" xlink:title=" ">
<polygon fill="none" stroke="black" points="2453,-335.5 2453,-365.5 2571,-365.5 2571,-335.5 2453,-335.5"/>
<text text-anchor="start" x="2461" y="-353.5" font-family="Helvetica,sans-Serif" font-size="10.00">Tools/MinGW/include</text>
<text text-anchor="middle" x="2512" y="-342.5" font-family="Helvetica,sans-Serif" font-size="10.00">/ws2tcpip.h</text>
</a>
</g>
</g>
<!-- Node37&#45;&gt;Node43 -->
<g id="edge56" class="edge">
<title>Node37&#45;&gt;Node43</title>
<path fill="none" stroke="midnightblue" d="M2512,-397.73C2512,-387.07 2512,-374.91 2512,-365.75"/>
<polygon fill="midnightblue" stroke="midnightblue" points="2508.5,-397.73 2512,-407.73 2515.5,-397.73 2508.5,-397.73"/>
</g>
<!-- Node44 -->
<g id="node44" class="node">
<title>Node44</title>
<g id="a_node44"><a xlink:href="../../db/dce/wsahelp_8h.html" target="_top" xlink:title=" ">
<polygon fill="none" stroke="black" points="2589,-335.5 2589,-365.5 2707,-365.5 2707,-335.5 2589,-335.5"/>
<text text-anchor="start" x="2597" y="-353.5" font-family="Helvetica,sans-Serif" font-size="10.00">Tools/MinGW/include</text>
<text text-anchor="middle" x="2648" y="-342.5" font-family="Helvetica,sans-Serif" font-size="10.00">/wsahelp.h</text>
</a>
</g>
</g>
<!-- Node37&#45;&gt;Node44 -->
<g id="edge57" class="edge">
<title>Node37&#45;&gt;Node44</title>
<path fill="none" stroke="midnightblue" d="M2548.24,-403.22C2571.05,-391.39 2600.02,-376.37 2620.85,-365.57"/>
<polygon fill="midnightblue" stroke="midnightblue" points="2546.46,-400.19 2539.19,-407.9 2549.68,-406.41 2546.46,-400.19"/>
</g>
<!-- Node39 -->
<g id="node39" class="node">
<title>Node39</title>
<g id="a_node39"><a xlink:href="../../db/d40/ndistapi_8h.html" target="_top" xlink:title=" ">
<polygon fill="none" stroke="black" points="1977,-268.5 1977,-298.5 2095,-298.5 2095,-268.5 1977,-268.5"/>
<text text-anchor="start" x="1985" y="-286.5" font-family="Helvetica,sans-Serif" font-size="10.00">Tools/MinGW/include</text>
<text text-anchor="middle" x="2036" y="-275.5" font-family="Helvetica,sans-Serif" font-size="10.00">/ddk/ndistapi.h</text>
</a>
</g>
</g>
<!-- Node38&#45;&gt;Node39 -->
<g id="edge51" class="edge">
<title>Node38&#45;&gt;Node39</title>
<path fill="none" stroke="midnightblue" d="M2081.83,-328.31C2071.63,-318.56 2059.81,-307.26 2050.73,-298.58"/>
<polygon fill="midnightblue" stroke="midnightblue" points="2079.6,-331.02 2089.25,-335.4 2084.43,-325.96 2079.6,-331.02"/>
</g>
<!-- Node40 -->
<g id="node40" class="node">
<title>Node40</title>
<g id="a_node40"><a xlink:href="../../d4/db3/ndiswan_8h.html" target="_top" xlink:title=" ">
<polygon fill="none" stroke="black" points="2113,-268.5 2113,-298.5 2231,-298.5 2231,-268.5 2113,-268.5"/>
<text text-anchor="start" x="2121" y="-286.5" font-family="Helvetica,sans-Serif" font-size="10.00">Tools/MinGW/include</text>
<text text-anchor="middle" x="2172" y="-275.5" font-family="Helvetica,sans-Serif" font-size="10.00">/ddk/ndiswan.h</text>
</a>
</g>
</g>
<!-- Node38&#45;&gt;Node40 -->
<g id="edge52" class="edge">
<title>Node38&#45;&gt;Node40</title>
<path fill="none" stroke="midnightblue" d="M2126.17,-328.31C2136.37,-318.56 2148.19,-307.26 2157.27,-298.58"/>
<polygon fill="midnightblue" stroke="midnightblue" points="2123.57,-325.96 2118.75,-335.4 2128.4,-331.02 2123.57,-325.96"/>
</g>
</g>
</svg>
        <g id="navigator" transform="translate(0 0)" fill="#404254">
                <rect fill="#f2f5e9" fill-opacity="0.5" stroke="#606060" stroke-width=".5" x="0" y="0" width="60" height="60"/>
                <use id="zoomplus" xlink:href="#zoomPlus" x="17" y="9" onmousedown="handleZoom(evt,'in')"/>
                <use id="zoomminus" xlink:href="#zoomMin" x="42" y="9" onmousedown="handleZoom(evt,'out')"/>
                <use id="reset" xlink:href="#resetDef" x="30" y="36" onmousedown="handleReset()"/>
                <g id="arrowUp" xlink:href="#dirArrow" transform="translate(30 24)" onmousedown="handlePan(0,-1)">
                  <use xlink:href="#rim" fill="#404040">
                        <set attributeName="fill" to="#808080" begin="arrowUp.mouseover" end="arrowUp.mouseout"/>
                  </use>
                  <path fill="none" stroke="white" stroke-width="1.5" d="M0,-3.0v7 M-2.5,-0.5L0,-3.0L2.5,-0.5"/>
                </g>
                <g id="arrowRight" xlink:href="#dirArrow" transform="rotate(90) translate(36 -43)" onmousedown="handlePan(1,0)">
                  <use xlink:href="#rim" fill="#404040">
                        <set attributeName="fill" to="#808080" begin="arrowRight.mouseover" end="arrowRight.mouseout"/>
                  </use>
                  <path fill="none" stroke="white" stroke-width="1.5" d="M0,-3.0v7 M-2.5,-0.5L0,-3.0L2.5,-0.5"/>
                </g>
                <g id="arrowDown" xlink:href="#dirArrow" transform="rotate(180) translate(-30 -48)" onmousedown="handlePan(0,1)">
                  <use xlink:href="#rim" fill="#404040">
                        <set attributeName="fill" to="#808080" begin="arrowDown.mouseover" end="arrowDown.mouseout"/>
                  </use>
                  <path fill="none" stroke="white" stroke-width="1.5" d="M0,-3.0v7 M-2.5,-0.5L0,-3.0L2.5,-0.5"/>
                </g>
                <g id="arrowLeft" xlink:href="#dirArrow" transform="rotate(270) translate(-36 17)" onmousedown="handlePan(-1,0)">
                  <use xlink:href="#rim" fill="#404040">
                        <set attributeName="fill" to="#808080" begin="arrowLeft.mouseover" end="arrowLeft.mouseout"/>
                  </use>
                  <path fill="none" stroke="white" stroke-width="1.5" d="M0,-3.0v7 M-2.5,-0.5L0,-3.0L2.5,-0.5"/>
                </g>
        </g>
        <svg viewBox="0 0 15 15" width="100%" height="30px" preserveAspectRatio="xMaxYMin meet">
         <g id="arrow_out" transform="scale(0.3 0.3)">
          <a xlink:href="commdlg_8h__dep__incl_org.svg" target="_base">
           <rect id="button" ry="5" rx="5" y="6" x="6" height="38" width="38"
                fill="#f2f5e9" fill-opacity="0.5" stroke="#606060" stroke-width="1.0"/>
           <path id="arrow"
             d="M 11.500037,31.436501 C 11.940474,20.09759 22.043105,11.32322 32.158766,21.979434 L 37.068811,17.246167 C 37.068811,17.246167 37.088388,32 37.088388,32 L 22.160133,31.978069 C 22.160133,31.978069 26.997745,27.140456 26.997745,27.140456 C 18.528582,18.264221 13.291696,25.230495 11.500037,31.436501 z"
             style="fill:#404040;"/>
          </a>
         </g>
        </svg>
</svg>
