<?xml version="1.0" encoding="UTF-8" standalone="no"?>
<!DOCTYPE svg PUBLIC "-//W3C//DTD SVG 1.1//EN"
 "http://www.w3.org/Graphics/SVG/1.1/DTD/svg11.dtd">
<!-- Generated by graphviz version 2.43.0 (0)
 -->
<!-- Title: _tag_AMVACompBufferInfo Pages: 1 -->
<svg width="353pt" height="128pt"
 viewBox="0.00 0.00 353.00 128.00" xmlns="http://www.w3.org/2000/svg" xmlns:xlink="http://www.w3.org/1999/xlink">
<g id="graph0" class="graph" transform="scale(1 1) rotate(0) translate(4 124)">
<title>_tag_AMVACompBufferInfo</title>
<!-- Node1 -->
<g id="node1" class="node">
<title>Node1</title>
<g id="a_node1"><a xlink:title=" ">
<polygon fill="#bfbfbf" stroke="black" points="79,-0.5 79,-19.5 227,-19.5 227,-0.5 79,-0.5"/>
<text text-anchor="middle" x="153" y="-7.5" font-family="Helvetica,sans-Serif" font-size="10.00">_tag_AMVACompBufferInfo</text>
</a>
</g>
</g>
<!-- Node2 -->
<g id="node2" class="node">
<title>Node2</title>
<g id="a_node2"><a xlink:title=" ">
<polygon fill="none" stroke="#bfbfbf" points="0,-100.5 0,-119.5 100,-119.5 100,-100.5 0,-100.5"/>
<text text-anchor="middle" x="50" y="-107.5" font-family="Helvetica,sans-Serif" font-size="10.00">DDPIXELFORMAT</text>
</a>
</g>
</g>
<!-- Node2&#45;&gt;Node1 -->
<g id="edge1" class="edge">
<title>Node2&#45;&gt;Node1</title>
<path fill="none" stroke="#9a32cd" stroke-dasharray="5,2" d="M52.4,-90.08C55.35,-74.2 61.86,-51.95 76,-38 84.67,-29.44 96.21,-23.59 107.71,-19.59"/>
<polygon fill="#9a32cd" stroke="#9a32cd" points="48.88,-89.88 50.81,-100.3 55.8,-90.96 48.88,-89.88"/>
<text text-anchor="middle" x="112.5" y="-57.5" font-family="Helvetica,sans-Serif" font-size="10.00"> ddPixelFormat</text>
</g>
<!-- Node3 -->
<g id="node3" class="node">
<title>Node3</title>
<g id="a_node3"><a xlink:title=" ">
<polygon fill="none" stroke="#bfbfbf" points="118.5,-100.5 118.5,-119.5 187.5,-119.5 187.5,-100.5 118.5,-100.5"/>
<text text-anchor="middle" x="153" y="-107.5" font-family="Helvetica,sans-Serif" font-size="10.00">DDSCAPS2</text>
</a>
</g>
</g>
<!-- Node3&#45;&gt;Node1 -->
<g id="edge2" class="edge">
<title>Node3&#45;&gt;Node1</title>
<path fill="none" stroke="#9a32cd" stroke-dasharray="5,2" d="M153,-90.22C153,-68.95 153,-35.22 153,-19.54"/>
<polygon fill="#9a32cd" stroke="#9a32cd" points="149.5,-90.3 153,-100.3 156.5,-90.3 149.5,-90.3"/>
<text text-anchor="middle" x="187" y="-57.5" font-family="Helvetica,sans-Serif" font-size="10.00"> ddCompCaps</text>
</g>
<!-- Node4 -->
<g id="node4" class="node">
<title>Node4</title>
<g id="a_node4"><a xlink:title=" ">
<polygon fill="none" stroke="#bfbfbf" points="213.5,-100.5 213.5,-119.5 274.5,-119.5 274.5,-100.5 213.5,-100.5"/>
<text text-anchor="middle" x="244" y="-107.5" font-family="Helvetica,sans-Serif" font-size="10.00">unsigned</text>
</a>
</g>
</g>
<!-- Node4&#45;&gt;Node1 -->
<g id="edge3" class="edge">
<title>Node4&#45;&gt;Node1</title>
<path fill="none" stroke="#9a32cd" stroke-dasharray="5,2" d="M242.64,-90.25C240.56,-74.49 235.29,-52.3 222,-38 214.03,-29.43 203.01,-23.54 192.11,-19.51"/>
<polygon fill="#9a32cd" stroke="#9a32cd" points="239.18,-90.8 243.67,-100.39 246.14,-90.09 239.18,-90.8"/>
<text text-anchor="middle" x="293" y="-74" font-family="Helvetica,sans-Serif" font-size="10.00"> dwNumCompBuffers</text>
<text text-anchor="middle" x="293" y="-63" font-family="Helvetica,sans-Serif" font-size="10.00">dwHeightToCreate</text>
<text text-anchor="middle" x="293" y="-52" font-family="Helvetica,sans-Serif" font-size="10.00">dwWidthToCreate</text>
<text text-anchor="middle" x="293" y="-41" font-family="Helvetica,sans-Serif" font-size="10.00">dwBytesToAllocate</text>
</g>
</g>
</svg>
