<?xml version="1.0" encoding="UTF-8" standalone="no"?>
<!DOCTYPE svg PUBLIC "-//W3C//DTD SVG 1.1//EN"
 "http://www.w3.org/Graphics/SVG/1.1/DTD/svg11.dtd">
<!-- Generated by graphviz version 2.43.0 (0)
 -->
<!-- Title: _SUB_Q_MEDIA_CATALOG_NUMBER Pages: 1 -->
<svg width="215pt" height="150pt"
 viewBox="0.00 0.00 214.50 150.00" xmlns="http://www.w3.org/2000/svg" xmlns:xlink="http://www.w3.org/1999/xlink">
<g id="graph0" class="graph" transform="scale(1 1) rotate(0) translate(4 146)">
<title>_SUB_Q_MEDIA_CATALOG_NUMBER</title>
<!-- Node1 -->
<g id="node1" class="node">
<title>Node1</title>
<g id="a_node1"><a xlink:title=" ">
<polygon fill="#bfbfbf" stroke="black" points="24,-0.5 24,-30.5 167,-30.5 167,-0.5 24,-0.5"/>
<text text-anchor="start" x="32" y="-18.5" font-family="Helvetica,sans-Serif" font-size="10.00">_SUB_Q_MEDIA_CATALOG</text>
<text text-anchor="middle" x="95.5" y="-7.5" font-family="Helvetica,sans-Serif" font-size="10.00">_NUMBER</text>
</a>
</g>
</g>
<!-- Node2 -->
<g id="node2" class="node">
<title>Node2</title>
<g id="a_node2"><a xlink:title=" ">
<polygon fill="none" stroke="#bfbfbf" points="0,-122.5 0,-141.5 95,-141.5 95,-122.5 0,-122.5"/>
<text text-anchor="middle" x="47.5" y="-129.5" font-family="Helvetica,sans-Serif" font-size="10.00">SUB_Q_HEADER</text>
</a>
</g>
</g>
<!-- Node2&#45;&gt;Node1 -->
<g id="edge1" class="edge">
<title>Node2&#45;&gt;Node1</title>
<path fill="none" stroke="#9a32cd" stroke-dasharray="5,2" d="M55.08,-112.91C64.61,-90.18 80.78,-51.6 89.5,-30.81"/>
<polygon fill="#9a32cd" stroke="#9a32cd" points="51.75,-111.82 51.11,-122.39 58.2,-114.52 51.75,-111.82"/>
<text text-anchor="middle" x="101" y="-74" font-family="Helvetica,sans-Serif" font-size="10.00"> Header</text>
</g>
<!-- Node3 -->
<g id="node3" class="node">
<title>Node3</title>
<g id="a_node3"><a xlink:title=" ">
<polygon fill="none" stroke="#bfbfbf" points="113,-122.5 113,-141.5 174,-141.5 174,-122.5 113,-122.5"/>
<text text-anchor="middle" x="143.5" y="-129.5" font-family="Helvetica,sans-Serif" font-size="10.00">unsigned</text>
</a>
</g>
</g>
<!-- Node3&#45;&gt;Node1 -->
<g id="edge2" class="edge">
<title>Node3&#45;&gt;Node1</title>
<path fill="none" stroke="#9a32cd" stroke-dasharray="5,2" d="M140.71,-112.09C137.66,-94.94 131.77,-69.3 121.5,-49 118.24,-42.55 113.56,-36.18 109.06,-30.81"/>
<polygon fill="#9a32cd" stroke="#9a32cd" points="137.33,-113.13 142.39,-122.44 144.24,-112.01 137.33,-113.13"/>
<text text-anchor="middle" x="172.5" y="-96" font-family="Helvetica,sans-Serif" font-size="10.00"> Mcval</text>
<text text-anchor="middle" x="172.5" y="-85" font-family="Helvetica,sans-Serif" font-size="10.00">Reserved1</text>
<text text-anchor="middle" x="172.5" y="-74" font-family="Helvetica,sans-Serif" font-size="10.00">FormatCode</text>
<text text-anchor="middle" x="172.5" y="-63" font-family="Helvetica,sans-Serif" font-size="10.00">MediaCatalog</text>
<text text-anchor="middle" x="172.5" y="-52" font-family="Helvetica,sans-Serif" font-size="10.00">Reserved</text>
</g>
</g>
</svg>
