<?xml version="1.0" encoding="UTF-8" standalone="no"?>
<!DOCTYPE svg PUBLIC "-//W3C//DTD SVG 1.1//EN"
 "http://www.w3.org/Graphics/SVG/1.1/DTD/svg11.dtd">
<!-- Generated by graphviz version 2.43.0 (0)
 -->
<!-- Title: tagVIDEOINFOHEADER Pages: 1 -->
<svg width="417pt" height="106pt"
 viewBox="0.00 0.00 416.50 106.00" xmlns="http://www.w3.org/2000/svg" xmlns:xlink="http://www.w3.org/1999/xlink">
<g id="graph0" class="graph" transform="scale(1 1) rotate(0) translate(4 102)">
<title>tagVIDEOINFOHEADER</title>
<!-- Node1 -->
<g id="node1" class="node">
<title>Node1</title>
<g id="a_node1"><a xlink:title=" ">
<polygon fill="#bfbfbf" stroke="black" points="156.5,-0.5 156.5,-19.5 284.5,-19.5 284.5,-0.5 156.5,-0.5"/>
<text text-anchor="middle" x="220.5" y="-7.5" font-family="Helvetica,sans-Serif" font-size="10.00">tagVIDEOINFOHEADER</text>
</a>
</g>
</g>
<!-- Node2 -->
<g id="node2" class="node">
<title>Node2</title>
<g id="a_node2"><a xlink:title=" ">
<polygon fill="none" stroke="#bfbfbf" points="0,-78.5 0,-97.5 119,-97.5 119,-78.5 0,-78.5"/>
<text text-anchor="middle" x="59.5" y="-85.5" font-family="Helvetica,sans-Serif" font-size="10.00">BITMAPINFOHEADER</text>
</a>
</g>
</g>
<!-- Node2&#45;&gt;Node1 -->
<g id="edge1" class="edge">
<title>Node2&#45;&gt;Node1</title>
<path fill="none" stroke="#9a32cd" stroke-dasharray="5,2" d="M68.26,-69.27C74.43,-58.6 83.7,-45.65 95.5,-38 113.48,-26.35 135.67,-19.65 156.33,-15.81"/>
<polygon fill="#9a32cd" stroke="#9a32cd" points="65.1,-67.74 63.47,-78.21 71.28,-71.05 65.1,-67.74"/>
<text text-anchor="middle" x="124.5" y="-46.5" font-family="Helvetica,sans-Serif" font-size="10.00"> bmiHeader</text>
</g>
<!-- Node3 -->
<g id="node3" class="node">
<title>Node3</title>
<g id="a_node3"><a xlink:title=" ">
<polygon fill="none" stroke="#bfbfbf" points="137.5,-78.5 137.5,-97.5 187.5,-97.5 187.5,-78.5 137.5,-78.5"/>
<text text-anchor="middle" x="162.5" y="-85.5" font-family="Helvetica,sans-Serif" font-size="10.00">double</text>
</a>
</g>
</g>
<!-- Node3&#45;&gt;Node1 -->
<g id="edge2" class="edge">
<title>Node3&#45;&gt;Node1</title>
<path fill="none" stroke="#9a32cd" stroke-dasharray="5,2" d="M158.44,-68.3C157.36,-58.54 157.79,-46.82 163.5,-38 169.03,-29.45 178.07,-23.55 187.33,-19.5"/>
<polygon fill="#9a32cd" stroke="#9a32cd" points="155,-68.95 160.1,-78.24 161.9,-67.8 155,-68.95"/>
<text text-anchor="middle" x="210" y="-46.5" font-family="Helvetica,sans-Serif" font-size="10.00"> AvgTimePerFrame</text>
</g>
<!-- Node4 -->
<g id="node4" class="node">
<title>Node4</title>
<g id="a_node4"><a xlink:title=" ">
<polygon fill="none" stroke="#bfbfbf" points="257.5,-78.5 257.5,-97.5 299.5,-97.5 299.5,-78.5 257.5,-78.5"/>
<text text-anchor="middle" x="278.5" y="-85.5" font-family="Helvetica,sans-Serif" font-size="10.00">RECT</text>
</a>
</g>
</g>
<!-- Node4&#45;&gt;Node1 -->
<g id="edge3" class="edge">
<title>Node4&#45;&gt;Node1</title>
<path fill="none" stroke="#9a32cd" stroke-dasharray="5,2" d="M272.82,-68.75C269.18,-58.97 263.77,-47.09 256.5,-38 250.64,-30.68 242.37,-24.29 235.23,-19.57"/>
<polygon fill="#9a32cd" stroke="#9a32cd" points="269.54,-69.98 276.07,-78.32 276.17,-67.72 269.54,-69.98"/>
<text text-anchor="middle" x="290" y="-52" font-family="Helvetica,sans-Serif" font-size="10.00"> rcTarget</text>
<text text-anchor="middle" x="290" y="-41" font-family="Helvetica,sans-Serif" font-size="10.00">rcSource</text>
</g>
<!-- Node5 -->
<g id="node5" class="node">
<title>Node5</title>
<g id="a_node5"><a xlink:title=" ">
<polygon fill="none" stroke="#bfbfbf" points="318,-78.5 318,-97.5 379,-97.5 379,-78.5 318,-78.5"/>
<text text-anchor="middle" x="348.5" y="-85.5" font-family="Helvetica,sans-Serif" font-size="10.00">unsigned</text>
</a>
</g>
</g>
<!-- Node5&#45;&gt;Node1 -->
<g id="edge4" class="edge">
<title>Node5&#45;&gt;Node1</title>
<path fill="none" stroke="#9a32cd" stroke-dasharray="5,2" d="M340.47,-69.21C334.87,-58.7 326.45,-45.94 315.5,-38 303.7,-29.44 289.27,-23.59 275.24,-19.59"/>
<polygon fill="#9a32cd" stroke="#9a32cd" points="337.41,-70.93 344.96,-78.36 343.7,-67.84 337.41,-70.93"/>
<text text-anchor="middle" x="371.5" y="-52" font-family="Helvetica,sans-Serif" font-size="10.00"> dwBitRate</text>
<text text-anchor="middle" x="371.5" y="-41" font-family="Helvetica,sans-Serif" font-size="10.00">dwBitErrorRate</text>
</g>
</g>
</svg>
