<?xml version="1.0" encoding="UTF-8" standalone="no"?>
<!DOCTYPE svg PUBLIC "-//W3C//DTD SVG 1.1//EN"
 "http://www.w3.org/Graphics/SVG/1.1/DTD/svg11.dtd">
<!-- Generated by graphviz version 2.43.0 (0)
 -->
<!-- Title: Source/Shared/unzip.c Pages: 1 -->
<svg width="1179pt" height="140pt"
 viewBox="0.00 0.00 1179.00 140.00" xmlns="http://www.w3.org/2000/svg" xmlns:xlink="http://www.w3.org/1999/xlink">
<g id="graph0" class="graph" transform="scale(1 1) rotate(0) translate(4 136)">
<title>Source/Shared/unzip.c</title>
<!-- Node1 -->
<g id="node1" class="node">
<title>Node1</title>
<g id="a_node1"><a xlink:title=" ">
<polygon fill="#bfbfbf" stroke="black" points="911,-112.5 911,-131.5 1035,-131.5 1035,-112.5 911,-112.5"/>
<text text-anchor="middle" x="973" y="-119.5" font-family="Helvetica,sans-Serif" font-size="10.00">Source/Shared/unzip.c</text>
</a>
</g>
</g>
<!-- Node2 -->
<g id="node2" class="node">
<title>Node2</title>
<g id="a_node2"><a xlink:href="../../d1/d12/Shared_2q__shared_8h.html" target="_top" xlink:title=" ">
<polygon fill="none" stroke="black" points="390.5,-56.5 390.5,-75.5 515.5,-75.5 515.5,-56.5 390.5,-56.5"/>
<text text-anchor="middle" x="453" y="-63.5" font-family="Helvetica,sans-Serif" font-size="10.00">../../Shared/q_shared.h</text>
</a>
</g>
</g>
<!-- Node1&#45;&gt;Node2 -->
<g id="edge1" class="edge">
<title>Node1&#45;&gt;Node2</title>
<path fill="none" stroke="midnightblue" d="M910.79,-114.54C814.13,-104.5 628.34,-85.21 525.66,-74.55"/>
<polygon fill="midnightblue" stroke="midnightblue" points="525.99,-71.06 515.68,-73.51 525.27,-78.02 525.99,-71.06"/>
</g>
<!-- Node15 -->
<g id="node15" class="node">
<title>Node15</title>
<g id="a_node15"><a xlink:href="../../dd/de8/Shared_2qcommon_8h.html" target="_top" xlink:title=" ">
<polygon fill="none" stroke="black" points="908.5,-56.5 908.5,-75.5 1037.5,-75.5 1037.5,-56.5 908.5,-56.5"/>
<text text-anchor="middle" x="973" y="-63.5" font-family="Helvetica,sans-Serif" font-size="10.00">../../Shared/qcommon.h</text>
</a>
</g>
</g>
<!-- Node1&#45;&gt;Node15 -->
<g id="edge14" class="edge">
<title>Node1&#45;&gt;Node15</title>
<path fill="none" stroke="midnightblue" d="M973,-112.08C973,-105.01 973,-94.86 973,-85.99"/>
<polygon fill="midnightblue" stroke="midnightblue" points="976.5,-85.75 973,-75.75 969.5,-85.75 976.5,-85.75"/>
</g>
<!-- Node17 -->
<g id="node17" class="node">
<title>Node17</title>
<g id="a_node17"><a xlink:href="../../de/da8/Source_2Shared_2unzip_8h.html" target="_top" xlink:title=" ">
<polygon fill="none" stroke="black" points="1056,-56.5 1056,-75.5 1108,-75.5 1108,-56.5 1056,-56.5"/>
<text text-anchor="middle" x="1082" y="-63.5" font-family="Helvetica,sans-Serif" font-size="10.00">unzip.h</text>
</a>
</g>
</g>
<!-- Node1&#45;&gt;Node17 -->
<g id="edge16" class="edge">
<title>Node1&#45;&gt;Node17</title>
<path fill="none" stroke="midnightblue" d="M990.51,-112.32C1008.07,-103.62 1035.33,-90.12 1055.53,-80.11"/>
<polygon fill="midnightblue" stroke="midnightblue" points="1057.12,-83.23 1064.53,-75.65 1054.02,-76.96 1057.12,-83.23"/>
</g>
<!-- Node3 -->
<g id="node3" class="node">
<title>Node3</title>
<g id="a_node3"><a xlink:title=" ">
<polygon fill="none" stroke="#bfbfbf" points="0,-0.5 0,-19.5 56,-19.5 56,-0.5 0,-0.5"/>
<text text-anchor="middle" x="28" y="-7.5" font-family="Helvetica,sans-Serif" font-size="10.00">assert.h</text>
</a>
</g>
</g>
<!-- Node2&#45;&gt;Node3 -->
<g id="edge2" class="edge">
<title>Node2&#45;&gt;Node3</title>
<path fill="none" stroke="midnightblue" d="M390.5,-60.14C315.63,-53.78 186.3,-41.11 66.3,-20.04"/>
<polygon fill="midnightblue" stroke="midnightblue" points="66.66,-16.55 56.21,-18.24 65.44,-23.44 66.66,-16.55"/>
</g>
<!-- Node4 -->
<g id="node4" class="node">
<title>Node4</title>
<g id="a_node4"><a xlink:title=" ">
<polygon fill="none" stroke="#bfbfbf" points="74.5,-0.5 74.5,-19.5 125.5,-19.5 125.5,-0.5 74.5,-0.5"/>
<text text-anchor="middle" x="100" y="-7.5" font-family="Helvetica,sans-Serif" font-size="10.00">math.h</text>
</a>
</g>
</g>
<!-- Node2&#45;&gt;Node4 -->
<g id="edge3" class="edge">
<title>Node2&#45;&gt;Node4</title>
<path fill="none" stroke="midnightblue" d="M390.2,-58.2C328.01,-51 229.9,-38.37 135.54,-19.9"/>
<polygon fill="midnightblue" stroke="midnightblue" points="136.03,-16.43 125.54,-17.92 134.67,-23.29 136.03,-16.43"/>
</g>
<!-- Node5 -->
<g id="node5" class="node">
<title>Node5</title>
<g id="a_node5"><a xlink:title=" ">
<polygon fill="none" stroke="#bfbfbf" points="144,-0.5 144,-19.5 194,-19.5 194,-0.5 144,-0.5"/>
<text text-anchor="middle" x="169" y="-7.5" font-family="Helvetica,sans-Serif" font-size="10.00">stdio.h</text>
</a>
</g>
</g>
<!-- Node2&#45;&gt;Node5 -->
<g id="edge4" class="edge">
<title>Node2&#45;&gt;Node5</title>
<path fill="none" stroke="midnightblue" d="M398.13,-56.43C349.59,-48.56 276.65,-36 204.38,-20.17"/>
<polygon fill="midnightblue" stroke="midnightblue" points="204.72,-16.66 194.2,-17.91 203.2,-23.49 204.72,-16.66"/>
</g>
<!-- Node6 -->
<g id="node6" class="node">
<title>Node6</title>
<g id="a_node6"><a xlink:title=" ">
<polygon fill="none" stroke="#bfbfbf" points="212,-0.5 212,-19.5 268,-19.5 268,-0.5 212,-0.5"/>
<text text-anchor="middle" x="240" y="-7.5" font-family="Helvetica,sans-Serif" font-size="10.00">stdarg.h</text>
</a>
</g>
</g>
<!-- Node2&#45;&gt;Node6 -->
<g id="edge5" class="edge">
<title>Node2&#45;&gt;Node6</title>
<path fill="none" stroke="midnightblue" d="M419.25,-56.44C380.83,-46.7 318.22,-30.83 278.09,-20.66"/>
<polygon fill="midnightblue" stroke="midnightblue" points="278.7,-17.2 268.15,-18.14 276.98,-23.99 278.7,-17.2"/>
</g>
<!-- Node7 -->
<g id="node7" class="node">
<title>Node7</title>
<g id="a_node7"><a xlink:title=" ">
<polygon fill="none" stroke="#bfbfbf" points="286.5,-0.5 286.5,-19.5 339.5,-19.5 339.5,-0.5 286.5,-0.5"/>
<text text-anchor="middle" x="313" y="-7.5" font-family="Helvetica,sans-Serif" font-size="10.00">string.h</text>
</a>
</g>
</g>
<!-- Node2&#45;&gt;Node7 -->
<g id="edge6" class="edge">
<title>Node2&#45;&gt;Node7</title>
<path fill="none" stroke="midnightblue" d="M430.82,-56.44C407.57,-47.48 370.85,-33.31 344.58,-23.18"/>
<polygon fill="midnightblue" stroke="midnightblue" points="345.67,-19.85 335.08,-19.52 343.15,-26.38 345.67,-19.85"/>
</g>
<!-- Node8 -->
<g id="node8" class="node">
<title>Node8</title>
<g id="a_node8"><a xlink:title=" ">
<polygon fill="none" stroke="#bfbfbf" points="357.5,-0.5 357.5,-19.5 410.5,-19.5 410.5,-0.5 357.5,-0.5"/>
<text text-anchor="middle" x="384" y="-7.5" font-family="Helvetica,sans-Serif" font-size="10.00">stdlib.h</text>
</a>
</g>
</g>
<!-- Node2&#45;&gt;Node8 -->
<g id="edge7" class="edge">
<title>Node2&#45;&gt;Node8</title>
<path fill="none" stroke="midnightblue" d="M441.91,-56.32C431.51,-48.18 415.74,-35.84 403.28,-26.09"/>
<polygon fill="midnightblue" stroke="midnightblue" points="405.32,-23.24 395.29,-19.83 401.01,-28.75 405.32,-23.24"/>
</g>
<!-- Node9 -->
<g id="node9" class="node">
<title>Node9</title>
<g id="a_node9"><a xlink:title=" ">
<polygon fill="none" stroke="#bfbfbf" points="429,-0.5 429,-19.5 477,-19.5 477,-0.5 429,-0.5"/>
<text text-anchor="middle" x="453" y="-7.5" font-family="Helvetica,sans-Serif" font-size="10.00">time.h</text>
</a>
</g>
</g>
<!-- Node2&#45;&gt;Node9 -->
<g id="edge8" class="edge">
<title>Node2&#45;&gt;Node9</title>
<path fill="none" stroke="midnightblue" d="M453,-56.08C453,-49.01 453,-38.86 453,-29.99"/>
<polygon fill="midnightblue" stroke="midnightblue" points="456.5,-29.75 453,-19.75 449.5,-29.75 456.5,-29.75"/>
</g>
<!-- Node10 -->
<g id="node10" class="node">
<title>Node10</title>
<g id="a_node10"><a xlink:title=" ">
<polygon fill="none" stroke="#bfbfbf" points="495.5,-0.5 495.5,-19.5 548.5,-19.5 548.5,-0.5 495.5,-0.5"/>
<text text-anchor="middle" x="522" y="-7.5" font-family="Helvetica,sans-Serif" font-size="10.00">ctype.h</text>
</a>
</g>
</g>
<!-- Node2&#45;&gt;Node10 -->
<g id="edge9" class="edge">
<title>Node2&#45;&gt;Node10</title>
<path fill="none" stroke="midnightblue" d="M464.09,-56.32C474.49,-48.18 490.26,-35.84 502.72,-26.09"/>
<polygon fill="midnightblue" stroke="midnightblue" points="504.99,-28.75 510.71,-19.83 500.68,-23.24 504.99,-28.75"/>
</g>
<!-- Node11 -->
<g id="node11" class="node">
<title>Node11</title>
<g id="a_node11"><a xlink:title=" ">
<polygon fill="none" stroke="#bfbfbf" points="566.5,-0.5 566.5,-19.5 619.5,-19.5 619.5,-0.5 566.5,-0.5"/>
<text text-anchor="middle" x="593" y="-7.5" font-family="Helvetica,sans-Serif" font-size="10.00">limits.h</text>
</a>
</g>
</g>
<!-- Node2&#45;&gt;Node11 -->
<g id="edge10" class="edge">
<title>Node2&#45;&gt;Node11</title>
<path fill="none" stroke="midnightblue" d="M475.18,-56.44C498.43,-47.48 535.15,-33.31 561.42,-23.18"/>
<polygon fill="midnightblue" stroke="midnightblue" points="562.85,-26.38 570.92,-19.52 560.33,-19.85 562.85,-26.38"/>
</g>
<!-- Node12 -->
<g id="node12" class="node">
<title>Node12</title>
<g id="a_node12"><a xlink:title=" ">
<polygon fill="none" stroke="#bfbfbf" points="637.5,-0.5 637.5,-19.5 690.5,-19.5 690.5,-0.5 637.5,-0.5"/>
<text text-anchor="middle" x="664" y="-7.5" font-family="Helvetica,sans-Serif" font-size="10.00">stdint.h</text>
</a>
</g>
</g>
<!-- Node2&#45;&gt;Node12 -->
<g id="edge11" class="edge">
<title>Node2&#45;&gt;Node12</title>
<path fill="none" stroke="midnightblue" d="M486.43,-56.44C524.92,-46.59 587.91,-30.47 627.6,-20.32"/>
<polygon fill="midnightblue" stroke="midnightblue" points="628.58,-23.68 637.4,-17.81 626.85,-16.9 628.58,-23.68"/>
</g>
<!-- Node13 -->
<g id="node13" class="node">
<title>Node13</title>
<g id="a_node13"><a xlink:href="../../dc/d14/Shared_2q__platform_8h.html" target="_top" xlink:title=" ">
<polygon fill="none" stroke="black" points="708.5,-0.5 708.5,-19.5 787.5,-19.5 787.5,-0.5 708.5,-0.5"/>
<text text-anchor="middle" x="748" y="-7.5" font-family="Helvetica,sans-Serif" font-size="10.00">q_platform.h</text>
</a>
</g>
</g>
<!-- Node2&#45;&gt;Node13 -->
<g id="edge12" class="edge">
<title>Node2&#45;&gt;Node13</title>
<path fill="none" stroke="midnightblue" d="M499.7,-56.47C547.06,-47.81 622.75,-33.97 698.25,-20.14"/>
<polygon fill="midnightblue" stroke="midnightblue" points="699.22,-23.52 708.42,-18.27 697.95,-16.63 699.22,-23.52"/>
</g>
<!-- Node14 -->
<g id="node14" class="node">
<title>Node14</title>
<g id="a_node14"><a xlink:href="../../de/df2/Shared_2surfaceflags_8h.html" target="_top" xlink:title=" ">
<polygon fill="none" stroke="black" points="805.5,-0.5 805.5,-19.5 890.5,-19.5 890.5,-0.5 805.5,-0.5"/>
<text text-anchor="middle" x="848" y="-7.5" font-family="Helvetica,sans-Serif" font-size="10.00">surfaceflags.h</text>
</a>
</g>
</g>
<!-- Node2&#45;&gt;Node14 -->
<g id="edge13" class="edge">
<title>Node2&#45;&gt;Node14</title>
<path fill="none" stroke="midnightblue" d="M515.7,-57.56C582.4,-49.46 691.26,-35.74 795.39,-20.04"/>
<polygon fill="midnightblue" stroke="midnightblue" points="796.09,-23.47 805.46,-18.51 795.04,-16.55 796.09,-23.47"/>
</g>
<!-- Node16 -->
<g id="node16" class="node">
<title>Node16</title>
<g id="a_node16"><a xlink:title=" ">
<polygon fill="none" stroke="#bfbfbf" points="909,-0.5 909,-19.5 1039,-19.5 1039,-0.5 909,-0.5"/>
<text text-anchor="middle" x="974" y="-7.5" font-family="Helvetica,sans-Serif" font-size="10.00">../../Shared/cm_public.h</text>
</a>
</g>
</g>
<!-- Node15&#45;&gt;Node16 -->
<g id="edge15" class="edge">
<title>Node15&#45;&gt;Node16</title>
<path fill="none" stroke="midnightblue" d="M973.17,-56.08C973.3,-49.01 973.48,-38.86 973.65,-29.99"/>
<polygon fill="midnightblue" stroke="midnightblue" points="977.15,-29.81 973.84,-19.75 970.15,-29.68 977.15,-29.81"/>
</g>
<!-- Node18 -->
<g id="node18" class="node">
<title>Node18</title>
<g id="a_node18"><a xlink:title=" ">
<polygon fill="none" stroke="#bfbfbf" points="1059.5,-0.5 1059.5,-19.5 1102.5,-19.5 1102.5,-0.5 1059.5,-0.5"/>
<text text-anchor="middle" x="1081" y="-7.5" font-family="Helvetica,sans-Serif" font-size="10.00">zlib.h</text>
</a>
</g>
</g>
<!-- Node17&#45;&gt;Node18 -->
<g id="edge17" class="edge">
<title>Node17&#45;&gt;Node18</title>
<path fill="none" stroke="midnightblue" d="M1081.83,-56.08C1081.7,-49.01 1081.52,-38.86 1081.35,-29.99"/>
<polygon fill="midnightblue" stroke="midnightblue" points="1084.85,-29.68 1081.16,-19.75 1077.85,-29.81 1084.85,-29.68"/>
</g>
<!-- Node19 -->
<g id="node19" class="node">
<title>Node19</title>
<g id="a_node19"><a xlink:href="../../d5/d0e/Source_2Shared_2ioapi_8h.html" target="_top" xlink:title=" ">
<polygon fill="none" stroke="black" points="1121,-0.5 1121,-19.5 1171,-19.5 1171,-0.5 1121,-0.5"/>
<text text-anchor="middle" x="1146" y="-7.5" font-family="Helvetica,sans-Serif" font-size="10.00">ioapi.h</text>
</a>
</g>
</g>
<!-- Node17&#45;&gt;Node19 -->
<g id="edge18" class="edge">
<title>Node17&#45;&gt;Node19</title>
<path fill="none" stroke="midnightblue" d="M1092.28,-56.32C1101.84,-48.26 1116.28,-36.08 1127.78,-26.37"/>
<polygon fill="midnightblue" stroke="midnightblue" points="1130.14,-28.96 1135.53,-19.83 1125.63,-23.61 1130.14,-28.96"/>
</g>
</g>
</svg>
