<?xml version="1.0" encoding="UTF-8" standalone="no"?>
<!DOCTYPE svg PUBLIC "-//W3C//DTD SVG 1.1//EN"
 "http://www.w3.org/Graphics/SVG/1.1/DTD/svg11.dtd">
<!-- Generated by graphviz version 2.43.0 (0)
 -->
<!-- Title: image_s Pages: 1 -->
<svg width="349pt" height="176pt"
 viewBox="0.00 0.00 349.00 175.71" xmlns="http://www.w3.org/2000/svg" xmlns:xlink="http://www.w3.org/1999/xlink">
<g id="graph0" class="graph" transform="scale(1 1) rotate(0) translate(4 171.71)">
<title>image_s</title>
<!-- Node1 -->
<g id="node1" class="node">
<title>Node1</title>
<g id="a_node1"><a xlink:title=" ">
<polygon fill="#bfbfbf" stroke="black" points="118,-4.21 118,-23.21 176,-23.21 176,-4.21 118,-4.21"/>
<text text-anchor="middle" x="147" y="-11.21" font-family="Helvetica,sans-Serif" font-size="10.00">image_s</text>
</a>
</g>
</g>
<!-- Node1&#45;&gt;Node1 -->
<g id="edge1" class="edge">
<title>Node1&#45;&gt;Node1</title>
<path fill="none" stroke="#9a32cd" stroke-dasharray="5,2" d="M169.68,-26.56C182.34,-28.98 194,-24.7 194,-13.71 194,0.07 175.63,3.3 159.99,-4.02"/>
<polygon fill="#9a32cd" stroke="#9a32cd" points="170.58,-23.17 159.99,-23.4 168.42,-29.83 170.58,-23.17"/>
<text text-anchor="middle" x="206.5" y="-11.21" font-family="Helvetica,sans-Serif" font-size="10.00"> next</text>
</g>
<!-- Node2 -->
<g id="node2" class="node">
<title>Node2</title>
<g id="a_node2"><a xlink:title=" ">
<polygon fill="none" stroke="#bfbfbf" points="0,-148.21 0,-167.21 38,-167.21 38,-148.21 0,-148.21"/>
<text text-anchor="middle" x="19" y="-155.21" font-family="Helvetica,sans-Serif" font-size="10.00">char</text>
</a>
</g>
</g>
<!-- Node2&#45;&gt;Node1 -->
<g id="edge2" class="edge">
<title>Node2&#45;&gt;Node1</title>
<path fill="none" stroke="#9a32cd" stroke-dasharray="5,2" d="M14.14,-137.89C8.88,-112.79 4.05,-68.44 27,-41.71 38.62,-28.19 86.14,-20.82 117.79,-17.33"/>
<polygon fill="#9a32cd" stroke="#9a32cd" points="10.8,-138.99 16.48,-147.93 17.62,-137.4 10.8,-138.99"/>
<text text-anchor="middle" x="53" y="-83.21" font-family="Helvetica,sans-Serif" font-size="10.00"> imgName</text>
</g>
<!-- Node3 -->
<g id="node3" class="node">
<title>Node3</title>
<g id="a_node3"><a xlink:title=" ">
<polygon fill="none" stroke="#bfbfbf" points="79.5,-148.21 79.5,-167.21 108.5,-167.21 108.5,-148.21 79.5,-148.21"/>
<text text-anchor="middle" x="94" y="-155.21" font-family="Helvetica,sans-Serif" font-size="10.00">int</text>
</a>
</g>
</g>
<!-- Node3&#45;&gt;Node1 -->
<g id="edge3" class="edge">
<title>Node3&#45;&gt;Node1</title>
<path fill="none" stroke="#9a32cd" stroke-dasharray="5,2" d="M88.69,-138.15C82.93,-114 76.79,-71.39 95,-41.71 100.21,-33.22 109.06,-27.27 117.98,-23.16"/>
<polygon fill="#9a32cd" stroke="#9a32cd" points="85.38,-139.33 91.3,-148.11 92.15,-137.55 85.38,-139.33"/>
<text text-anchor="middle" x="136.5" y="-121.71" font-family="Helvetica,sans-Serif" font-size="10.00"> uploadHeight</text>
<text text-anchor="middle" x="136.5" y="-110.71" font-family="Helvetica,sans-Serif" font-size="10.00">width</text>
<text text-anchor="middle" x="136.5" y="-99.71" font-family="Helvetica,sans-Serif" font-size="10.00">uploadWidth</text>
<text text-anchor="middle" x="136.5" y="-88.71" font-family="Helvetica,sans-Serif" font-size="10.00">TMU</text>
<text text-anchor="middle" x="136.5" y="-77.71" font-family="Helvetica,sans-Serif" font-size="10.00">height</text>
<text text-anchor="middle" x="136.5" y="-66.71" font-family="Helvetica,sans-Serif" font-size="10.00">wrapClampMode</text>
<text text-anchor="middle" x="136.5" y="-55.71" font-family="Helvetica,sans-Serif" font-size="10.00">internalFormat</text>
<text text-anchor="middle" x="136.5" y="-44.71" font-family="Helvetica,sans-Serif" font-size="10.00">frameUsed</text>
</g>
<!-- Node4 -->
<g id="node4" class="node">
<title>Node4</title>
<g id="a_node4"><a xlink:title=" ">
<polygon fill="none" stroke="#bfbfbf" points="169.5,-148.21 169.5,-167.21 230.5,-167.21 230.5,-148.21 169.5,-148.21"/>
<text text-anchor="middle" x="200" y="-155.21" font-family="Helvetica,sans-Serif" font-size="10.00">unsigned</text>
</a>
</g>
</g>
<!-- Node4&#45;&gt;Node1 -->
<g id="edge4" class="edge">
<title>Node4&#45;&gt;Node1</title>
<path fill="none" stroke="#9a32cd" stroke-dasharray="5,2" d="M200.08,-137.79C199.4,-113.87 195.5,-72.16 178,-41.71 173.8,-34.41 166.89,-28.11 160.65,-23.43"/>
<polygon fill="#9a32cd" stroke="#9a32cd" points="196.59,-138.02 200.21,-147.98 203.59,-137.93 196.59,-138.02"/>
<text text-anchor="middle" x="219.5" y="-83.21" font-family="Helvetica,sans-Serif" font-size="10.00"> texnum</text>
</g>
<!-- Node5 -->
<g id="node5" class="node">
<title>Node5</title>
<g id="a_node5"><a xlink:title=" ">
<polygon fill="none" stroke="#bfbfbf" points="249,-148.21 249,-167.21 311,-167.21 311,-148.21 249,-148.21"/>
<text text-anchor="middle" x="280" y="-155.21" font-family="Helvetica,sans-Serif" font-size="10.00">qboolean</text>
</a>
</g>
</g>
<!-- Node5&#45;&gt;Node1 -->
<g id="edge5" class="edge">
<title>Node5&#45;&gt;Node1</title>
<path fill="none" stroke="#9a32cd" stroke-dasharray="5,2" d="M279.43,-137.94C277.62,-112.54 270.58,-67.46 244,-41.71 225.92,-24.2 197.49,-17.85 176.07,-15.64"/>
<polygon fill="#9a32cd" stroke="#9a32cd" points="275.94,-138.27 279.94,-148.08 282.93,-137.92 275.94,-138.27"/>
<text text-anchor="middle" x="309.5" y="-88.71" font-family="Helvetica,sans-Serif" font-size="10.00"> allowPicmip</text>
<text text-anchor="middle" x="309.5" y="-77.71" font-family="Helvetica,sans-Serif" font-size="10.00">mipmap</text>
</g>
</g>
</svg>
