<?xml version="1.0" encoding="UTF-8" standalone="no"?>
<!DOCTYPE svg PUBLIC "-//W3C//DTD SVG 1.1//EN"
 "http://www.w3.org/Graphics/SVG/1.1/DTD/svg11.dtd">
<!-- Generated by graphviz version 2.43.0 (0)
 -->
<!-- Title: _INQUIRYDATA Pages: 1 -->
<svg width="651pt" height="205pt"
 viewBox="0.00 0.00 651.00 205.00" xmlns="http://www.w3.org/2000/svg" xmlns:xlink="http://www.w3.org/1999/xlink">
<g id="graph0" class="graph" transform="scale(1 1) rotate(0) translate(4 201)">
<title>_INQUIRYDATA</title>
<!-- Node1 -->
<g id="node1" class="node">
<title>Node1</title>
<g id="a_node1"><a xlink:title=" ">
<polygon fill="#bfbfbf" stroke="black" points="325,-0.5 325,-19.5 413,-19.5 413,-0.5 325,-0.5"/>
<text text-anchor="middle" x="369" y="-7.5" font-family="Helvetica,sans-Serif" font-size="10.00">_INQUIRYDATA</text>
</a>
</g>
</g>
<!-- Node2 -->
<g id="node2" class="node">
<title>Node2</title>
<g id="a_node2"><a xlink:title=" ">
<polygon fill="none" stroke="#bfbfbf" points="0,-177.5 0,-196.5 178,-196.5 178,-177.5 0,-177.5"/>
<text text-anchor="middle" x="89" y="-184.5" font-family="Helvetica,sans-Serif" font-size="10.00">anonymous:DUMMYUNIONNAME</text>
</a>
</g>
</g>
<!-- Node2&#45;&gt;Node1 -->
<g id="edge1" class="edge">
<title>Node2&#45;&gt;Node1</title>
<path fill="none" stroke="#9a32cd" stroke-dasharray="5,2" d="M94.16,-167.65C104.24,-135.5 129.8,-69.4 177,-38 200.54,-22.34 275.87,-15.6 324.88,-12.83"/>
<polygon fill="#9a32cd" stroke="#9a32cd" points="90.73,-166.91 91.23,-177.5 97.44,-168.91 90.73,-166.91"/>
<text text-anchor="middle" x="229.5" y="-96" font-family="Helvetica,sans-Serif" font-size="10.00"> DUMMYUNIONNAME</text>
</g>
<!-- Node3 -->
<g id="node3" class="node">
<title>Node3</title>
<g id="a_node3"><a xlink:title=" ">
<polygon fill="none" stroke="#bfbfbf" points="196,-177.5 196,-196.5 380,-196.5 380,-177.5 196,-177.5"/>
<text text-anchor="middle" x="288" y="-184.5" font-family="Helvetica,sans-Serif" font-size="10.00">anonymous:DUMMYSTRUCTNAME</text>
</a>
</g>
</g>
<!-- Node3&#45;&gt;Node1 -->
<g id="edge2" class="edge">
<title>Node3&#45;&gt;Node1</title>
<path fill="none" stroke="#9a32cd" stroke-dasharray="5,2" d="M286.76,-167.27C285.74,-137.01 287.92,-76.84 317,-38 323.22,-29.69 332.74,-23.72 341.94,-19.54"/>
<polygon fill="#9a32cd" stroke="#9a32cd" points="283.27,-167.48 287.26,-177.3 290.26,-167.13 283.27,-167.48"/>
<text text-anchor="middle" x="372.5" y="-96" font-family="Helvetica,sans-Serif" font-size="10.00"> DUMMYSTRUCTNAME</text>
</g>
<!-- Node4 -->
<g id="node4" class="node">
<title>Node4</title>
<g id="a_node4"><a xlink:title=" ">
<polygon fill="none" stroke="#bfbfbf" points="398,-177.5 398,-196.5 502,-196.5 502,-177.5 398,-177.5"/>
<text text-anchor="middle" x="450" y="-184.5" font-family="Helvetica,sans-Serif" font-size="10.00">anonymous:@150</text>
</a>
</g>
</g>
<!-- Node4&#45;&gt;Node1 -->
<g id="edge3" class="edge">
<title>Node4&#45;&gt;Node1</title>
<path fill="none" stroke="#9a32cd" stroke-dasharray="5,2" d="M452.51,-167.19C455.5,-136.81 456.93,-76.48 428,-38 421.64,-29.54 411.99,-23.65 402.33,-19.58"/>
<polygon fill="#9a32cd" stroke="#9a32cd" points="449.02,-166.92 451.35,-177.25 455.97,-167.72 449.02,-166.92"/>
<text text-anchor="middle" x="469.5" y="-96" font-family="Helvetica,sans-Serif" font-size="10.00"> @150</text>
</g>
<!-- Node5 -->
<g id="node5" class="node">
<title>Node5</title>
<g id="a_node5"><a xlink:title=" ">
<polygon fill="none" stroke="#bfbfbf" points="520.5,-177.5 520.5,-196.5 581.5,-196.5 581.5,-177.5 520.5,-177.5"/>
<text text-anchor="middle" x="551" y="-184.5" font-family="Helvetica,sans-Serif" font-size="10.00">unsigned</text>
</a>
</g>
</g>
<!-- Node5&#45;&gt;Node1 -->
<g id="edge4" class="edge">
<title>Node5&#45;&gt;Node1</title>
<path fill="none" stroke="#9a32cd" stroke-dasharray="5,2" d="M548.69,-167.3C543.75,-135.64 529.12,-71.63 489,-38 467.97,-20.37 437.82,-13.64 413,-11.3"/>
<polygon fill="#9a32cd" stroke="#9a32cd" points="545.25,-167.97 550.1,-177.39 552.18,-167 545.25,-167.97"/>
<text text-anchor="middle" x="594.5" y="-151" font-family="Helvetica,sans-Serif" font-size="10.00"> VendorId</text>
<text text-anchor="middle" x="594.5" y="-140" font-family="Helvetica,sans-Serif" font-size="10.00">Wide32Bit</text>
<text text-anchor="middle" x="594.5" y="-129" font-family="Helvetica,sans-Serif" font-size="10.00">LinkedCommands</text>
<text text-anchor="middle" x="594.5" y="-118" font-family="Helvetica,sans-Serif" font-size="10.00">AckReqQ</text>
<text text-anchor="middle" x="594.5" y="-107" font-family="Helvetica,sans-Serif" font-size="10.00">SoftReset</text>
<text text-anchor="middle" x="594.5" y="-96" font-family="Helvetica,sans-Serif" font-size="10.00">EnclosureServices</text>
<text text-anchor="middle" x="594.5" y="-85" font-family="Helvetica,sans-Serif" font-size="10.00">ProductId</text>
<text text-anchor="middle" x="594.5" y="-74" font-family="Helvetica,sans-Serif" font-size="10.00">Wide16Bit</text>
<text text-anchor="middle" x="594.5" y="-63" font-family="Helvetica,sans-Serif" font-size="10.00">Addr16</text>
<text text-anchor="middle" x="594.5" y="-52" font-family="Helvetica,sans-Serif" font-size="10.00">DeviceTypeModifier</text>
<text text-anchor="middle" x="594.5" y="-41" font-family="Helvetica,sans-Serif" font-size="10.00">...</text>
</g>
</g>
</svg>
