<?xml version="1.0" encoding="UTF-8" standalone="no"?>
<!DOCTYPE svg PUBLIC "-//W3C//DTD SVG 1.1//EN"
 "http://www.w3.org/Graphics/SVG/1.1/DTD/svg11.dtd">
<!-- Generated by graphviz version 2.43.0 (0)
 -->
<!-- Title: _WORK_QUEUE_ITEM Pages: 1 -->
<svg width="298pt" height="128pt"
 viewBox="0.00 0.00 298.00 128.00" xmlns="http://www.w3.org/2000/svg" xmlns:xlink="http://www.w3.org/1999/xlink">
<g id="graph0" class="graph" transform="scale(1 1) rotate(0) translate(4 124)">
<title>_WORK_QUEUE_ITEM</title>
<!-- Node1 -->
<g id="node1" class="node">
<title>Node1</title>
<g id="a_node1"><a xlink:title=" ">
<polygon fill="#bfbfbf" stroke="black" points="53,-0.5 53,-19.5 175,-19.5 175,-0.5 53,-0.5"/>
<text text-anchor="middle" x="114" y="-7.5" font-family="Helvetica,sans-Serif" font-size="10.00">_WORK_QUEUE_ITEM</text>
</a>
</g>
</g>
<!-- Node2 -->
<g id="node2" class="node">
<title>Node2</title>
<g id="a_node2"><a xlink:title=" ">
<polygon fill="none" stroke="#bfbfbf" points="0,-89.5 0,-108.5 74,-108.5 74,-89.5 0,-89.5"/>
<text text-anchor="middle" x="37" y="-96.5" font-family="Helvetica,sans-Serif" font-size="10.00">LIST_ENTRY</text>
</a>
</g>
</g>
<!-- Node2&#45;&gt;Node1 -->
<g id="edge1" class="edge">
<title>Node2&#45;&gt;Node1</title>
<path fill="none" stroke="#9a32cd" stroke-dasharray="5,2" d="M51.39,-81.74C67.67,-63.35 93.59,-34.06 106.37,-19.62"/>
<polygon fill="#9a32cd" stroke="#9a32cd" points="48.67,-79.53 44.66,-89.34 53.91,-84.17 48.67,-79.53"/>
<text text-anchor="middle" x="100.5" y="-46.5" font-family="Helvetica,sans-Serif" font-size="10.00"> List</text>
</g>
<!-- Node3 -->
<g id="node3" class="node">
<title>Node3</title>
<g id="a_node3"><a xlink:title=" ">
<polygon fill="none" stroke="#bfbfbf" points="92,-78.5 92,-119.5 290,-119.5 290,-78.5 92,-78.5"/>
<text text-anchor="start" x="100" y="-107.5" font-family="Helvetica,sans-Serif" font-size="10.00">PSecurityUserData *typedef</text>
<text text-anchor="start" x="100" y="-96.5" font-family="Helvetica,sans-Serif" font-size="10.00"> PSECPKG_EXTENDED_INFORMATION</text>
<text text-anchor="middle" x="191" y="-85.5" font-family="Helvetica,sans-Serif" font-size="10.00"> *typedef</text>
</a>
</g>
</g>
<!-- Node3&#45;&gt;Node1 -->
<g id="edge2" class="edge">
<title>Node3&#45;&gt;Node1</title>
<path fill="none" stroke="#9a32cd" stroke-dasharray="5,2" d="M166.68,-70.52C151.13,-52.96 132,-31.34 121.6,-19.59"/>
<polygon fill="#9a32cd" stroke="#9a32cd" points="164.28,-73.09 173.53,-78.26 169.52,-68.45 164.28,-73.09"/>
<text text-anchor="middle" x="193" y="-52" font-family="Helvetica,sans-Serif" font-size="10.00"> Parameter</text>
<text text-anchor="middle" x="193" y="-41" font-family="Helvetica,sans-Serif" font-size="10.00">WorkerRoutine</text>
</g>
</g>
</svg>
