<?xml version="1.0" encoding="UTF-8" standalone="no"?>
<!DOCTYPE svg PUBLIC "-//W3C//DTD SVG 1.1//EN"
 "http://www.w3.org/Graphics/SVG/1.1/DTD/svg11.dtd">
<!-- Generated by graphviz version 2.43.0 (0)
 -->
<!-- Title: tagNEWTEXTMETRICA Pages: 1 -->
<svg width="340pt" height="205pt"
 viewBox="0.00 0.00 340.00 205.00" xmlns="http://www.w3.org/2000/svg" xmlns:xlink="http://www.w3.org/1999/xlink">
<g id="graph0" class="graph" transform="scale(1 1) rotate(0) translate(4 201)">
<title>tagNEWTEXTMETRICA</title>
<!-- Node1 -->
<g id="node1" class="node">
<title>Node1</title>
<g id="a_node1"><a xlink:title=" ">
<polygon fill="#bfbfbf" stroke="black" points="68.5,-0.5 68.5,-19.5 193.5,-19.5 193.5,-0.5 68.5,-0.5"/>
<text text-anchor="middle" x="131" y="-7.5" font-family="Helvetica,sans-Serif" font-size="10.00">tagNEWTEXTMETRICA</text>
</a>
</g>
</g>
<!-- Node2 -->
<g id="node2" class="node">
<title>Node2</title>
<g id="a_node2"><a xlink:title=" ">
<polygon fill="none" stroke="#bfbfbf" points="0,-177.5 0,-196.5 38,-196.5 38,-177.5 0,-177.5"/>
<text text-anchor="middle" x="19" y="-184.5" font-family="Helvetica,sans-Serif" font-size="10.00">char</text>
</a>
</g>
</g>
<!-- Node2&#45;&gt;Node1 -->
<g id="edge1" class="edge">
<title>Node2&#45;&gt;Node1</title>
<path fill="none" stroke="#9a32cd" stroke-dasharray="5,2" d="M15.47,-167.17C10.84,-136.29 6.63,-74.65 38,-38 45.87,-28.8 56.67,-22.64 68.13,-18.54"/>
<polygon fill="#9a32cd" stroke="#9a32cd" points="12.08,-168.11 17.19,-177.38 18.98,-166.94 12.08,-168.11"/>
<text text-anchor="middle" x="82.5" y="-140" font-family="Helvetica,sans-Serif" font-size="10.00"> tmFirstChar</text>
<text text-anchor="middle" x="82.5" y="-129" font-family="Helvetica,sans-Serif" font-size="10.00">tmUnderlined</text>
<text text-anchor="middle" x="82.5" y="-118" font-family="Helvetica,sans-Serif" font-size="10.00">tmItalic</text>
<text text-anchor="middle" x="82.5" y="-107" font-family="Helvetica,sans-Serif" font-size="10.00">tmPitchAndFamily</text>
<text text-anchor="middle" x="82.5" y="-96" font-family="Helvetica,sans-Serif" font-size="10.00">tmStruckOut</text>
<text text-anchor="middle" x="82.5" y="-85" font-family="Helvetica,sans-Serif" font-size="10.00">tmCharSet</text>
<text text-anchor="middle" x="82.5" y="-74" font-family="Helvetica,sans-Serif" font-size="10.00">tmDefaultChar</text>
<text text-anchor="middle" x="82.5" y="-63" font-family="Helvetica,sans-Serif" font-size="10.00">tmLastChar</text>
<text text-anchor="middle" x="82.5" y="-52" font-family="Helvetica,sans-Serif" font-size="10.00">tmBreakChar</text>
</g>
<!-- Node3 -->
<g id="node3" class="node">
<title>Node3</title>
<g id="a_node3"><a xlink:title=" ">
<polygon fill="none" stroke="#bfbfbf" points="116.5,-177.5 116.5,-196.5 145.5,-196.5 145.5,-177.5 116.5,-177.5"/>
<text text-anchor="middle" x="131" y="-184.5" font-family="Helvetica,sans-Serif" font-size="10.00">int</text>
</a>
</g>
</g>
<!-- Node3&#45;&gt;Node1 -->
<g id="edge2" class="edge">
<title>Node3&#45;&gt;Node1</title>
<path fill="none" stroke="#9a32cd" stroke-dasharray="5,2" d="M131,-166.95C131,-129.3 131,-46.65 131,-19.69"/>
<polygon fill="#9a32cd" stroke="#9a32cd" points="127.5,-167.08 131,-177.08 134.5,-167.08 127.5,-167.08"/>
<text text-anchor="middle" x="168" y="-107" font-family="Helvetica,sans-Serif" font-size="10.00"> ntmCellHeight</text>
<text text-anchor="middle" x="168" y="-96" font-family="Helvetica,sans-Serif" font-size="10.00">ntmAvgWidth</text>
<text text-anchor="middle" x="168" y="-85" font-family="Helvetica,sans-Serif" font-size="10.00">ntmSizeEM</text>
</g>
<!-- Node4 -->
<g id="node4" class="node">
<title>Node4</title>
<g id="a_node4"><a xlink:title=" ">
<polygon fill="none" stroke="#bfbfbf" points="209,-177.5 209,-196.5 247,-196.5 247,-177.5 209,-177.5"/>
<text text-anchor="middle" x="228" y="-184.5" font-family="Helvetica,sans-Serif" font-size="10.00">long</text>
</a>
</g>
</g>
<!-- Node4&#45;&gt;Node1 -->
<g id="edge3" class="edge">
<title>Node4&#45;&gt;Node1</title>
<path fill="none" stroke="#9a32cd" stroke-dasharray="5,2" d="M230.82,-167.34C234.35,-136.71 236.66,-75.42 206,-38 198.98,-29.44 189.03,-23.59 178.66,-19.59"/>
<polygon fill="#9a32cd" stroke="#9a32cd" points="227.32,-167.09 229.47,-177.47 234.26,-168.02 227.32,-167.09"/>
<text text-anchor="middle" x="282" y="-151" font-family="Helvetica,sans-Serif" font-size="10.00"> tmDigitizedAspectX</text>
<text text-anchor="middle" x="282" y="-140" font-family="Helvetica,sans-Serif" font-size="10.00">tmDigitizedAspectY</text>
<text text-anchor="middle" x="282" y="-129" font-family="Helvetica,sans-Serif" font-size="10.00">tmExternalLeading</text>
<text text-anchor="middle" x="282" y="-118" font-family="Helvetica,sans-Serif" font-size="10.00">tmOverhang</text>
<text text-anchor="middle" x="282" y="-107" font-family="Helvetica,sans-Serif" font-size="10.00">tmAveCharWidth</text>
<text text-anchor="middle" x="282" y="-96" font-family="Helvetica,sans-Serif" font-size="10.00">tmMaxCharWidth</text>
<text text-anchor="middle" x="282" y="-85" font-family="Helvetica,sans-Serif" font-size="10.00">tmHeight</text>
<text text-anchor="middle" x="282" y="-74" font-family="Helvetica,sans-Serif" font-size="10.00">tmDescent</text>
<text text-anchor="middle" x="282" y="-63" font-family="Helvetica,sans-Serif" font-size="10.00">tmWeight</text>
<text text-anchor="middle" x="282" y="-52" font-family="Helvetica,sans-Serif" font-size="10.00">tmInternalLeading</text>
<text text-anchor="middle" x="282" y="-41" font-family="Helvetica,sans-Serif" font-size="10.00">...</text>
</g>
</g>
</svg>
