<?xml version="1.0" encoding="UTF-8" standalone="no"?>
<!DOCTYPE svg PUBLIC "-//W3C//DTD SVG 1.1//EN"
 "http://www.w3.org/Graphics/SVG/1.1/DTD/svg11.dtd">
<!-- Generated by graphviz version 2.43.0 (0)
 -->
<!-- Title: _PARCLASS_INFORMATION Pages: 1 -->
<svg width="498pt" height="228pt"
 viewBox="0.00 0.00 498.00 228.00" xmlns="http://www.w3.org/2000/svg" xmlns:xlink="http://www.w3.org/1999/xlink">
<g id="graph0" class="graph" transform="scale(1 1) rotate(0) translate(4 224)">
<title>_PARCLASS_INFORMATION</title>
<!-- Node1 -->
<g id="node1" class="node">
<title>Node1</title>
<g id="a_node1"><a xlink:title=" ">
<polygon fill="#bfbfbf" stroke="black" points="343,-155.5 343,-174.5 490,-174.5 490,-155.5 343,-155.5"/>
<text text-anchor="middle" x="416.5" y="-162.5" font-family="Helvetica,sans-Serif" font-size="10.00">_PARCLASS_INFORMATION</text>
</a>
</g>
</g>
<!-- Node2 -->
<g id="node2" class="node">
<title>Node2</title>
<g id="a_node2"><a xlink:title=" ">
<polygon fill="none" stroke="#bfbfbf" points="54.5,-200.5 54.5,-219.5 143.5,-219.5 143.5,-200.5 54.5,-200.5"/>
<text text-anchor="middle" x="99" y="-207.5" font-family="Helvetica,sans-Serif" font-size="10.00">unsigned short</text>
</a>
</g>
</g>
<!-- Node2&#45;&gt;Node1 -->
<g id="edge1" class="edge">
<title>Node2&#45;&gt;Node1</title>
<path fill="none" stroke="#9a32cd" stroke-dasharray="5,2" d="M153.82,-207.03C199.6,-203.97 266.95,-198.15 325,-188 344.48,-184.59 365.95,-179.21 383.08,-174.51"/>
<polygon fill="#9a32cd" stroke="#9a32cd" points="153.57,-203.54 143.82,-207.68 154.02,-210.53 153.57,-203.54"/>
<text text-anchor="middle" x="270.5" y="-204" font-family="Helvetica,sans-Serif" font-size="10.00"> DetermineIeeeModes</text>
</g>
<!-- Node3 -->
<g id="node3" class="node">
<title>Node3</title>
<g id="a_node3"><a xlink:title=" ">
<polygon fill="none" stroke="#bfbfbf" points="68.5,-155.5 68.5,-174.5 129.5,-174.5 129.5,-155.5 68.5,-155.5"/>
<text text-anchor="middle" x="99" y="-162.5" font-family="Helvetica,sans-Serif" font-size="10.00">unsigned</text>
</a>
</g>
</g>
<!-- Node3&#45;&gt;Node1 -->
<g id="edge2" class="edge">
<title>Node3&#45;&gt;Node1</title>
<path fill="none" stroke="#9a32cd" stroke-dasharray="5,2" d="M139.95,-165C190.87,-165 279.84,-165 342.9,-165"/>
<polygon fill="#9a32cd" stroke="#9a32cd" points="139.68,-161.5 129.68,-165 139.68,-168.5 139.68,-161.5"/>
<text text-anchor="middle" x="270.5" y="-179" font-family="Helvetica,sans-Serif" font-size="10.00"> EcrController</text>
<text text-anchor="middle" x="270.5" y="-168" font-family="Helvetica,sans-Serif" font-size="10.00">Controller</text>
</g>
<!-- Node4 -->
<g id="node4" class="node">
<title>Node4</title>
<g id="a_node4"><a xlink:title=" ">
<polygon fill="none" stroke="#bfbfbf" points="0,-0.5 0,-41.5 198,-41.5 198,-0.5 0,-0.5"/>
<text text-anchor="start" x="8" y="-29.5" font-family="Helvetica,sans-Serif" font-size="10.00">PSecurityUserData *typedef</text>
<text text-anchor="start" x="8" y="-18.5" font-family="Helvetica,sans-Serif" font-size="10.00"> PSECPKG_EXTENDED_INFORMATION</text>
<text text-anchor="middle" x="99" y="-7.5" font-family="Helvetica,sans-Serif" font-size="10.00"> *typedef</text>
</a>
</g>
</g>
<!-- Node4&#45;&gt;Node1 -->
<g id="edge3" class="edge">
<title>Node4&#45;&gt;Node1</title>
<path fill="none" stroke="#9a32cd" stroke-dasharray="5,2" d="M208.37,-12C247.29,-13.31 290.14,-20.31 325,-40 372.82,-67.01 402.09,-130.92 411.85,-155.31"/>
<polygon fill="#9a32cd" stroke="#9a32cd" points="208.11,-8.49 198.04,-11.78 207.96,-15.49 208.11,-8.49"/>
<text text-anchor="middle" x="270.5" y="-153" font-family="Helvetica,sans-Serif" font-size="10.00"> HardwareCapabilities</text>
<text text-anchor="middle" x="270.5" y="-142" font-family="Helvetica,sans-Serif" font-size="10.00">FifoWidth</text>
<text text-anchor="middle" x="270.5" y="-131" font-family="Helvetica,sans-Serif" font-size="10.00">ParallelTryselect</text>
<text text-anchor="middle" x="270.5" y="-120" font-family="Helvetica,sans-Serif" font-size="10.00">ParallelWrite</text>
<text text-anchor="middle" x="270.5" y="-109" font-family="Helvetica,sans-Serif" font-size="10.00">ParallelRead</text>
<text text-anchor="middle" x="270.5" y="-98" font-family="Helvetica,sans-Serif" font-size="10.00">IeeeRevToFwdMode</text>
<text text-anchor="middle" x="270.5" y="-87" font-family="Helvetica,sans-Serif" font-size="10.00">IeeeFwdToRevMode</text>
<text text-anchor="middle" x="270.5" y="-76" font-family="Helvetica,sans-Serif" font-size="10.00">SpanOfController</text>
<text text-anchor="middle" x="270.5" y="-65" font-family="Helvetica,sans-Serif" font-size="10.00">ParclassContext</text>
<text text-anchor="middle" x="270.5" y="-54" font-family="Helvetica,sans-Serif" font-size="10.00">NegotiateIeeeMode</text>
<text text-anchor="middle" x="270.5" y="-43" font-family="Helvetica,sans-Serif" font-size="10.00">...</text>
</g>
</g>
</svg>
