<?xml version="1.0" encoding="UTF-8" standalone="no"?>
<!DOCTYPE svg PUBLIC "-//W3C//DTD SVG 1.1//EN"
 "http://www.w3.org/Graphics/SVG/1.1/DTD/svg11.dtd">
<!-- Generated by graphviz version 2.43.0 (0)
 -->
<!-- Title: tagREBARBANDINFOW Pages: 1 -->
<svg width="500pt" height="172pt"
 viewBox="0.00 0.00 499.50 172.00" xmlns="http://www.w3.org/2000/svg" xmlns:xlink="http://www.w3.org/1999/xlink">
<g id="graph0" class="graph" transform="scale(1 1) rotate(0) translate(4 168)">
<title>tagREBARBANDINFOW</title>
<!-- Node1 -->
<g id="node1" class="node">
<title>Node1</title>
<g id="a_node1"><a xlink:title=" ">
<polygon fill="#bfbfbf" stroke="black" points="188.5,-0.5 188.5,-19.5 316.5,-19.5 316.5,-0.5 188.5,-0.5"/>
<text text-anchor="middle" x="252.5" y="-7.5" font-family="Helvetica,sans-Serif" font-size="10.00">tagREBARBANDINFOW</text>
</a>
</g>
</g>
<!-- Node2 -->
<g id="node2" class="node">
<title>Node2</title>
<g id="a_node2"><a xlink:title=" ">
<polygon fill="none" stroke="#bfbfbf" points="0,-144.5 0,-163.5 85,-163.5 85,-144.5 0,-144.5"/>
<text text-anchor="middle" x="42.5" y="-151.5" font-family="Helvetica,sans-Serif" font-size="10.00">unsigned long</text>
</a>
</g>
</g>
<!-- Node2&#45;&gt;Node1 -->
<g id="edge1" class="edge">
<title>Node2&#45;&gt;Node1</title>
<path fill="none" stroke="#9a32cd" stroke-dasharray="5,2" d="M43.32,-134.45C45.53,-108.61 53.55,-62.22 82.5,-38 98.43,-24.67 147.18,-17.86 188.41,-14.41"/>
<polygon fill="#9a32cd" stroke="#9a32cd" points="39.83,-134.23 42.67,-144.44 46.81,-134.68 39.83,-134.23"/>
<text text-anchor="middle" x="102.5" y="-85" font-family="Helvetica,sans-Serif" font-size="10.00"> clrBack</text>
<text text-anchor="middle" x="102.5" y="-74" font-family="Helvetica,sans-Serif" font-size="10.00">clrFore</text>
</g>
<!-- Node3 -->
<g id="node3" class="node">
<title>Node3</title>
<g id="a_node3"><a xlink:title=" ">
<polygon fill="none" stroke="#bfbfbf" points="103,-144.5 103,-163.5 152,-163.5 152,-144.5 103,-144.5"/>
<text text-anchor="middle" x="127.5" y="-151.5" font-family="Helvetica,sans-Serif" font-size="10.00">HWND</text>
</a>
</g>
</g>
<!-- Node3&#45;&gt;Node1 -->
<g id="edge2" class="edge">
<title>Node3&#45;&gt;Node1</title>
<path fill="none" stroke="#9a32cd" stroke-dasharray="5,2" d="M127.01,-134.32C127.4,-109.04 131.97,-64.09 157.5,-38 165.89,-29.42 176.8,-23.52 188.22,-19.46"/>
<polygon fill="#9a32cd" stroke="#9a32cd" points="123.51,-134.44 127.07,-144.42 130.51,-134.4 123.51,-134.44"/>
<text text-anchor="middle" x="185" y="-79.5" font-family="Helvetica,sans-Serif" font-size="10.00"> hwndChild</text>
</g>
<!-- Node4 -->
<g id="node4" class="node">
<title>Node4</title>
<g id="a_node4"><a xlink:title=" ">
<polygon fill="none" stroke="#bfbfbf" points="170,-144.5 170,-163.5 259,-163.5 259,-144.5 170,-144.5"/>
<text text-anchor="middle" x="214.5" y="-151.5" font-family="Helvetica,sans-Serif" font-size="10.00">unsigned short</text>
</a>
</g>
</g>
<!-- Node4&#45;&gt;Node1 -->
<g id="edge3" class="edge">
<title>Node4&#45;&gt;Node1</title>
<path fill="none" stroke="#9a32cd" stroke-dasharray="5,2" d="M216.09,-134.17C218.5,-110.94 224.18,-70.52 236.5,-38 238.97,-31.48 242.97,-24.73 246.35,-19.61"/>
<polygon fill="#9a32cd" stroke="#9a32cd" points="212.58,-134.07 215.13,-144.36 219.55,-134.73 212.58,-134.07"/>
<text text-anchor="middle" x="253" y="-79.5" font-family="Helvetica,sans-Serif" font-size="10.00"> lpText</text>
</g>
<!-- Node5 -->
<g id="node5" class="node">
<title>Node5</title>
<g id="a_node5"><a xlink:title=" ">
<polygon fill="none" stroke="#bfbfbf" points="277,-144.5 277,-163.5 306,-163.5 306,-144.5 277,-144.5"/>
<text text-anchor="middle" x="291.5" y="-151.5" font-family="Helvetica,sans-Serif" font-size="10.00">int</text>
</a>
</g>
</g>
<!-- Node5&#45;&gt;Node1 -->
<g id="edge4" class="edge">
<title>Node5&#45;&gt;Node1</title>
<path fill="none" stroke="#9a32cd" stroke-dasharray="5,2" d="M290.05,-134.12C287.79,-110.83 282.25,-70.36 269.5,-38 266.9,-31.4 262.65,-24.65 259.05,-19.55"/>
<polygon fill="#9a32cd" stroke="#9a32cd" points="286.59,-134.67 290.94,-144.33 293.56,-134.06 286.59,-134.67"/>
<text text-anchor="middle" x="307" y="-79.5" font-family="Helvetica,sans-Serif" font-size="10.00"> iImage</text>
</g>
<!-- Node6 -->
<g id="node6" class="node">
<title>Node6</title>
<g id="a_node6"><a xlink:title=" ">
<polygon fill="none" stroke="#bfbfbf" points="324.5,-144.5 324.5,-163.5 386.5,-163.5 386.5,-144.5 324.5,-144.5"/>
<text text-anchor="middle" x="355.5" y="-151.5" font-family="Helvetica,sans-Serif" font-size="10.00">HBITMAP</text>
</a>
</g>
</g>
<!-- Node6&#45;&gt;Node1 -->
<g id="edge5" class="edge">
<title>Node6&#45;&gt;Node1</title>
<path fill="none" stroke="#9a32cd" stroke-dasharray="5,2" d="M356.49,-134.22C356.77,-109.18 353.47,-64.9 329.5,-38 321.87,-29.43 311.35,-23.59 300.55,-19.59"/>
<polygon fill="#9a32cd" stroke="#9a32cd" points="352.99,-134.14 356.17,-144.24 359.99,-134.36 352.99,-134.14"/>
<text text-anchor="middle" x="380" y="-79.5" font-family="Helvetica,sans-Serif" font-size="10.00"> hbmBack</text>
</g>
<!-- Node7 -->
<g id="node7" class="node">
<title>Node7</title>
<g id="a_node7"><a xlink:title=" ">
<polygon fill="none" stroke="#bfbfbf" points="405,-144.5 405,-163.5 466,-163.5 466,-144.5 405,-144.5"/>
<text text-anchor="middle" x="435.5" y="-151.5" font-family="Helvetica,sans-Serif" font-size="10.00">unsigned</text>
</a>
</g>
</g>
<!-- Node7&#45;&gt;Node1 -->
<g id="edge6" class="edge">
<title>Node7&#45;&gt;Node1</title>
<path fill="none" stroke="#9a32cd" stroke-dasharray="5,2" d="M436.92,-133.98C437.71,-108.29 434.9,-62.88 408.5,-38 395.2,-25.46 353.61,-18.67 316.72,-15.03"/>
<polygon fill="#9a32cd" stroke="#9a32cd" points="433.41,-134.07 436.38,-144.24 440.4,-134.44 433.41,-134.07"/>
<text text-anchor="middle" x="464" y="-118" font-family="Helvetica,sans-Serif" font-size="10.00"> cbSize</text>
<text text-anchor="middle" x="464" y="-107" font-family="Helvetica,sans-Serif" font-size="10.00">cch</text>
<text text-anchor="middle" x="464" y="-96" font-family="Helvetica,sans-Serif" font-size="10.00">cx</text>
<text text-anchor="middle" x="464" y="-85" font-family="Helvetica,sans-Serif" font-size="10.00">cyMinChild</text>
<text text-anchor="middle" x="464" y="-74" font-family="Helvetica,sans-Serif" font-size="10.00">cxMinChild</text>
<text text-anchor="middle" x="464" y="-63" font-family="Helvetica,sans-Serif" font-size="10.00">wID</text>
<text text-anchor="middle" x="464" y="-52" font-family="Helvetica,sans-Serif" font-size="10.00">fMask</text>
<text text-anchor="middle" x="464" y="-41" font-family="Helvetica,sans-Serif" font-size="10.00">fStyle</text>
</g>
</g>
</svg>
