<?xml version="1.0" encoding="UTF-8" standalone="no"?>
<!DOCTYPE svg PUBLIC "-//W3C//DTD SVG 1.1//EN"
 "http://www.w3.org/Graphics/SVG/1.1/DTD/svg11.dtd">
<!-- Generated by graphviz version 2.43.0 (0)
 -->
<!-- Title: tagOIFI Pages: 1 -->
<svg width="326pt" height="106pt"
 viewBox="0.00 0.00 326.00 106.00" xmlns="http://www.w3.org/2000/svg" xmlns:xlink="http://www.w3.org/1999/xlink">
<g id="graph0" class="graph" transform="scale(1 1) rotate(0) translate(4 102)">
<title>tagOIFI</title>
<!-- Node1 -->
<g id="node1" class="node">
<title>Node1</title>
<g id="a_node1"><a xlink:title=" ">
<polygon fill="#bfbfbf" stroke="black" points="116,-0.5 116,-19.5 168,-19.5 168,-0.5 116,-0.5"/>
<text text-anchor="middle" x="142" y="-7.5" font-family="Helvetica,sans-Serif" font-size="10.00">tagOIFI</text>
</a>
</g>
</g>
<!-- Node2 -->
<g id="node2" class="node">
<title>Node2</title>
<g id="a_node2"><a xlink:title=" ">
<polygon fill="none" stroke="#bfbfbf" points="0,-78.5 0,-97.5 56,-97.5 56,-78.5 0,-78.5"/>
<text text-anchor="middle" x="28" y="-85.5" font-family="Helvetica,sans-Serif" font-size="10.00">HACCEL</text>
</a>
</g>
</g>
<!-- Node2&#45;&gt;Node1 -->
<g id="edge1" class="edge">
<title>Node2&#45;&gt;Node1</title>
<path fill="none" stroke="#9a32cd" stroke-dasharray="5,2" d="M37.68,-69.41C44.2,-59.01 53.66,-46.28 65,-38 80.1,-26.97 100.1,-20.14 115.93,-16.11"/>
<polygon fill="#9a32cd" stroke="#9a32cd" points="34.61,-67.73 32.55,-78.13 40.64,-71.28 34.61,-67.73"/>
<text text-anchor="middle" x="82.5" y="-46.5" font-family="Helvetica,sans-Serif" font-size="10.00"> haccel</text>
</g>
<!-- Node3 -->
<g id="node3" class="node">
<title>Node3</title>
<g id="a_node3"><a xlink:title=" ">
<polygon fill="none" stroke="#bfbfbf" points="74,-78.5 74,-97.5 138,-97.5 138,-78.5 74,-78.5"/>
<text text-anchor="middle" x="106" y="-85.5" font-family="Helvetica,sans-Serif" font-size="10.00">WINBOOL</text>
</a>
</g>
</g>
<!-- Node3&#45;&gt;Node1 -->
<g id="edge2" class="edge">
<title>Node3&#45;&gt;Node1</title>
<path fill="none" stroke="#9a32cd" stroke-dasharray="5,2" d="M104.22,-68.43C104.1,-58.85 105.22,-47.27 110,-38 113.86,-30.5 120.79,-24.26 127.22,-19.67"/>
<polygon fill="#9a32cd" stroke="#9a32cd" points="100.73,-68.71 104.8,-78.49 107.72,-68.31 100.73,-68.71"/>
<text text-anchor="middle" x="133" y="-46.5" font-family="Helvetica,sans-Serif" font-size="10.00"> fMDIApp</text>
</g>
<!-- Node4 -->
<g id="node4" class="node">
<title>Node4</title>
<g id="a_node4"><a xlink:title=" ">
<polygon fill="none" stroke="#bfbfbf" points="156.5,-78.5 156.5,-97.5 205.5,-97.5 205.5,-78.5 156.5,-78.5"/>
<text text-anchor="middle" x="181" y="-85.5" font-family="Helvetica,sans-Serif" font-size="10.00">HWND</text>
</a>
</g>
</g>
<!-- Node4&#45;&gt;Node1 -->
<g id="edge3" class="edge">
<title>Node4&#45;&gt;Node1</title>
<path fill="none" stroke="#9a32cd" stroke-dasharray="5,2" d="M171.99,-69.27C167.25,-59.96 161.33,-48.35 156,-38 152.81,-31.8 149.19,-24.82 146.43,-19.5"/>
<polygon fill="#9a32cd" stroke="#9a32cd" points="168.94,-70.99 176.59,-78.32 175.18,-67.82 168.94,-70.99"/>
<text text-anchor="middle" x="197.5" y="-46.5" font-family="Helvetica,sans-Serif" font-size="10.00"> hwndFrame</text>
</g>
<!-- Node5 -->
<g id="node5" class="node">
<title>Node5</title>
<g id="a_node5"><a xlink:title=" ">
<polygon fill="none" stroke="#bfbfbf" points="247.5,-78.5 247.5,-97.5 276.5,-97.5 276.5,-78.5 247.5,-78.5"/>
<text text-anchor="middle" x="262" y="-85.5" font-family="Helvetica,sans-Serif" font-size="10.00">int</text>
</a>
</g>
</g>
<!-- Node5&#45;&gt;Node1 -->
<g id="edge4" class="edge">
<title>Node5&#45;&gt;Node1</title>
<path fill="none" stroke="#9a32cd" stroke-dasharray="5,2" d="M254.87,-68.95C249.91,-58.52 242.31,-45.94 232,-38 213.52,-23.76 187.6,-17.01 168.32,-13.82"/>
<polygon fill="#9a32cd" stroke="#9a32cd" points="251.78,-70.61 258.97,-78.4 258.21,-67.83 251.78,-70.61"/>
<text text-anchor="middle" x="283.5" y="-52" font-family="Helvetica,sans-Serif" font-size="10.00"> cAccelEntries</text>
<text text-anchor="middle" x="283.5" y="-41" font-family="Helvetica,sans-Serif" font-size="10.00">cb</text>
</g>
</g>
</svg>
