<?xml version="1.0" encoding="UTF-8" standalone="no"?>
<!DOCTYPE svg PUBLIC "-//W3C//DTD SVG 1.1//EN"
 "http://www.w3.org/Graphics/SVG/1.1/DTD/svg11.dtd">
<!-- Generated by graphviz version 2.43.0 (0)
 -->
<!-- Title: Tools/MinGW/include/c++/4.6.1/ext/pb_ds/detail/gp_hash_table_map_/insert_fn_imps.hpp Pages: 1 -->
<svg width="324pt" height="139pt"
 viewBox="0.00 0.00 324.00 139.00" xmlns="http://www.w3.org/2000/svg" xmlns:xlink="http://www.w3.org/1999/xlink">
<g id="graph0" class="graph" transform="scale(1 1) rotate(0) translate(4 135)">
<title>Tools/MinGW/include/c++/4.6.1/ext/pb_ds/detail/gp_hash_table_map_/insert_fn_imps.hpp</title>
<!-- Node1 -->
<g id="node1" class="node">
<title>Node1</title>
<g id="a_node1"><a xlink:title=" ">
<polygon fill="#bfbfbf" stroke="black" points="89.5,-78.5 89.5,-130.5 234.5,-130.5 234.5,-78.5 89.5,-78.5"/>
<text text-anchor="start" x="97.5" y="-118.5" font-family="Helvetica,sans-Serif" font-size="10.00">Tools/MinGW/include</text>
<text text-anchor="start" x="97.5" y="-107.5" font-family="Helvetica,sans-Serif" font-size="10.00">/c++/4.6.1/ext/pb_ds</text>
<text text-anchor="start" x="97.5" y="-96.5" font-family="Helvetica,sans-Serif" font-size="10.00">/detail/gp_hash_table</text>
<text text-anchor="middle" x="162" y="-85.5" font-family="Helvetica,sans-Serif" font-size="10.00">_map_/insert_fn_imps.hpp</text>
</a>
</g>
</g>
<!-- Node2 -->
<g id="node2" class="node">
<title>Node2</title>
<g id="a_node2"><a xlink:href="../../d5/d49/gp__hash__table__map___2insert__no__store__hash__fn__imps_8hpp.html" target="_top" xlink:title=" ">
<polygon fill="none" stroke="black" points="0,-0.5 0,-41.5 158,-41.5 158,-0.5 0,-0.5"/>
<text text-anchor="start" x="8" y="-29.5" font-family="Helvetica,sans-Serif" font-size="10.00">ext/pb_ds/detail/gp</text>
<text text-anchor="start" x="8" y="-18.5" font-family="Helvetica,sans-Serif" font-size="10.00">_hash_table_map_/insert</text>
<text text-anchor="middle" x="79" y="-7.5" font-family="Helvetica,sans-Serif" font-size="10.00">_no_store_hash_fn_imps.hpp</text>
</a>
</g>
</g>
<!-- Node1&#45;&gt;Node2 -->
<g id="edge1" class="edge">
<title>Node1&#45;&gt;Node2</title>
<path fill="none" stroke="midnightblue" d="M136.19,-78.16C126.73,-68.87 115.99,-58.32 106.39,-48.9"/>
<polygon fill="midnightblue" stroke="midnightblue" points="108.58,-46.14 98.99,-41.63 103.67,-51.13 108.58,-46.14"/>
</g>
<!-- Node3 -->
<g id="node3" class="node">
<title>Node3</title>
<g id="a_node3"><a xlink:href="../../d2/d48/gp__hash__table__map___2insert__store__hash__fn__imps_8hpp.html" target="_top" xlink:title=" ">
<polygon fill="none" stroke="black" points="176,-0.5 176,-41.5 316,-41.5 316,-0.5 176,-0.5"/>
<text text-anchor="start" x="184" y="-29.5" font-family="Helvetica,sans-Serif" font-size="10.00">ext/pb_ds/detail/gp</text>
<text text-anchor="start" x="184" y="-18.5" font-family="Helvetica,sans-Serif" font-size="10.00">_hash_table_map_/insert</text>
<text text-anchor="middle" x="246" y="-7.5" font-family="Helvetica,sans-Serif" font-size="10.00">_store_hash_fn_imps.hpp</text>
</a>
</g>
</g>
<!-- Node1&#45;&gt;Node3 -->
<g id="edge2" class="edge">
<title>Node1&#45;&gt;Node3</title>
<path fill="none" stroke="midnightblue" d="M188.12,-78.16C197.79,-68.78 208.78,-58.11 218.56,-48.62"/>
<polygon fill="midnightblue" stroke="midnightblue" points="221.03,-51.1 225.77,-41.63 216.16,-46.08 221.03,-51.1"/>
</g>
</g>
</svg>
