<?xml version="1.0" encoding="UTF-8" standalone="no"?>
<!DOCTYPE svg PUBLIC "-//W3C//DTD SVG 1.1//EN"
 "http://www.w3.org/Graphics/SVG/1.1/DTD/svg11.dtd">
<!-- Generated by graphviz version 2.43.0 (0)
 -->
<!-- Title: tagMIXERLINEA Pages: 1 -->
<svg width="475pt" height="205pt"
 viewBox="0.00 0.00 474.50 205.00" xmlns="http://www.w3.org/2000/svg" xmlns:xlink="http://www.w3.org/1999/xlink">
<g id="graph0" class="graph" transform="scale(1 1) rotate(0) translate(4 201)">
<title>tagMIXERLINEA</title>
<!-- Node1 -->
<g id="node1" class="node">
<title>Node1</title>
<g id="a_node1"><a xlink:title=" ">
<polygon fill="#bfbfbf" stroke="black" points="123.5,-0.5 123.5,-19.5 215.5,-19.5 215.5,-0.5 123.5,-0.5"/>
<text text-anchor="middle" x="169.5" y="-7.5" font-family="Helvetica,sans-Serif" font-size="10.00">tagMIXERLINEA</text>
</a>
</g>
</g>
<!-- Node2 -->
<g id="node2" class="node">
<title>Node2</title>
<g id="a_node2"><a xlink:title=" ">
<polygon fill="none" stroke="#bfbfbf" points="0,-177.5 0,-196.5 41,-196.5 41,-177.5 0,-177.5"/>
<text text-anchor="middle" x="20.5" y="-184.5" font-family="Helvetica,sans-Serif" font-size="10.00">short</text>
</a>
</g>
</g>
<!-- Node2&#45;&gt;Node1 -->
<g id="edge1" class="edge">
<title>Node2&#45;&gt;Node1</title>
<path fill="none" stroke="#9a32cd" stroke-dasharray="5,2" d="M16.57,-167.32C11.22,-136.18 5.7,-73.61 38.5,-38 49.9,-25.62 90.42,-18.6 123.4,-14.84"/>
<polygon fill="#9a32cd" stroke="#9a32cd" points="13.16,-168.09 18.47,-177.25 20.03,-166.78 13.16,-168.09"/>
<text text-anchor="middle" x="53.5" y="-101.5" font-family="Helvetica,sans-Serif" font-size="10.00"> wMid</text>
<text text-anchor="middle" x="53.5" y="-90.5" font-family="Helvetica,sans-Serif" font-size="10.00">wPid</text>
</g>
<!-- Node3 -->
<g id="node3" class="node">
<title>Node3</title>
<g id="a_node3"><a xlink:title=" ">
<polygon fill="none" stroke="#bfbfbf" points="59.5,-177.5 59.5,-196.5 97.5,-196.5 97.5,-177.5 59.5,-177.5"/>
<text text-anchor="middle" x="78.5" y="-184.5" font-family="Helvetica,sans-Serif" font-size="10.00">char</text>
</a>
</g>
</g>
<!-- Node3&#45;&gt;Node1 -->
<g id="edge2" class="edge">
<title>Node3&#45;&gt;Node1</title>
<path fill="none" stroke="#9a32cd" stroke-dasharray="5,2" d="M75.57,-166.99C71.97,-136.35 69.57,-75.64 99.5,-38 106.31,-29.44 116.19,-23.59 126.39,-19.59"/>
<polygon fill="#9a32cd" stroke="#9a32cd" points="72.14,-167.72 76.95,-177.16 79.08,-166.78 72.14,-167.72"/>
<text text-anchor="middle" x="132.5" y="-107" font-family="Helvetica,sans-Serif" font-size="10.00"> szName</text>
<text text-anchor="middle" x="132.5" y="-96" font-family="Helvetica,sans-Serif" font-size="10.00">szPname</text>
<text text-anchor="middle" x="132.5" y="-85" font-family="Helvetica,sans-Serif" font-size="10.00">szShortName</text>
</g>
<!-- Node4 -->
<g id="node4" class="node">
<title>Node4</title>
<g id="a_node4"><a xlink:title=" ">
<polygon fill="none" stroke="#bfbfbf" points="116,-177.5 116,-196.5 223,-196.5 223,-177.5 116,-177.5"/>
<text text-anchor="middle" x="169.5" y="-184.5" font-family="Helvetica,sans-Serif" font-size="10.00">anonymous:Target</text>
</a>
</g>
</g>
<!-- Node4&#45;&gt;Node1 -->
<g id="edge3" class="edge">
<title>Node4&#45;&gt;Node1</title>
<path fill="none" stroke="#9a32cd" stroke-dasharray="5,2" d="M169.5,-166.95C169.5,-129.3 169.5,-46.65 169.5,-19.69"/>
<polygon fill="#9a32cd" stroke="#9a32cd" points="166,-167.08 169.5,-177.08 173,-167.08 166,-167.08"/>
<text text-anchor="middle" x="186.5" y="-96" font-family="Helvetica,sans-Serif" font-size="10.00"> Target</text>
</g>
<!-- Node5 -->
<g id="node5" class="node">
<title>Node5</title>
<g id="a_node5"><a xlink:href="../../d2/d5f/classunsigned_01int.html" target="_top" xlink:title=" ">
<polygon fill="none" stroke="black" points="241,-177.5 241,-196.5 318,-196.5 318,-177.5 241,-177.5"/>
<text text-anchor="middle" x="279.5" y="-184.5" font-family="Helvetica,sans-Serif" font-size="10.00">unsigned int</text>
</a>
</g>
</g>
<!-- Node5&#45;&gt;Node1 -->
<g id="edge4" class="edge">
<title>Node5&#45;&gt;Node1</title>
<path fill="none" stroke="#9a32cd" stroke-dasharray="5,2" d="M272.01,-167.85C257.51,-133.19 225.41,-59.14 207.5,-38 201.33,-30.71 192.77,-24.41 185.34,-19.73"/>
<polygon fill="#9a32cd" stroke="#9a32cd" points="268.85,-169.35 275.92,-177.24 275.31,-166.66 268.85,-169.35"/>
<text text-anchor="middle" x="304.5" y="-96" font-family="Helvetica,sans-Serif" font-size="10.00"> vDriverVersion</text>
</g>
<!-- Node6 -->
<g id="node6" class="node">
<title>Node6</title>
<g id="a_node6"><a xlink:title=" ">
<polygon fill="none" stroke="#bfbfbf" points="347.5,-177.5 347.5,-196.5 385.5,-196.5 385.5,-177.5 347.5,-177.5"/>
<text text-anchor="middle" x="366.5" y="-184.5" font-family="Helvetica,sans-Serif" font-size="10.00">long</text>
</a>
</g>
</g>
<!-- Node6&#45;&gt;Node1 -->
<g id="edge5" class="edge">
<title>Node6&#45;&gt;Node1</title>
<path fill="none" stroke="#9a32cd" stroke-dasharray="5,2" d="M369.96,-167.51C374.66,-136.16 378.92,-72.61 344.5,-38 326.94,-20.34 261.53,-14.22 215.85,-12.11"/>
<polygon fill="#9a32cd" stroke="#9a32cd" points="366.49,-167.05 368.28,-177.49 373.39,-168.21 366.49,-167.05"/>
<text text-anchor="middle" x="419.5" y="-151" font-family="Helvetica,sans-Serif" font-size="10.00"> dwLineID</text>
<text text-anchor="middle" x="419.5" y="-140" font-family="Helvetica,sans-Serif" font-size="10.00">dwDeviceID</text>
<text text-anchor="middle" x="419.5" y="-129" font-family="Helvetica,sans-Serif" font-size="10.00">cConnections</text>
<text text-anchor="middle" x="419.5" y="-118" font-family="Helvetica,sans-Serif" font-size="10.00">dwType</text>
<text text-anchor="middle" x="419.5" y="-107" font-family="Helvetica,sans-Serif" font-size="10.00">cControls</text>
<text text-anchor="middle" x="419.5" y="-96" font-family="Helvetica,sans-Serif" font-size="10.00">dwUser</text>
<text text-anchor="middle" x="419.5" y="-85" font-family="Helvetica,sans-Serif" font-size="10.00">dwComponentType</text>
<text text-anchor="middle" x="419.5" y="-74" font-family="Helvetica,sans-Serif" font-size="10.00">fdwLine</text>
<text text-anchor="middle" x="419.5" y="-63" font-family="Helvetica,sans-Serif" font-size="10.00">dwSource</text>
<text text-anchor="middle" x="419.5" y="-52" font-family="Helvetica,sans-Serif" font-size="10.00">cbStruct</text>
<text text-anchor="middle" x="419.5" y="-41" font-family="Helvetica,sans-Serif" font-size="10.00">...</text>
</g>
</g>
</svg>
