<?xml version="1.0" encoding="UTF-8" standalone="no"?>
<!DOCTYPE svg PUBLIC "-//W3C//DTD SVG 1.1//EN"
 "http://www.w3.org/Graphics/SVG/1.1/DTD/svg11.dtd">
<!-- Generated by graphviz version 2.43.0 (0)
 -->
<!-- Title: _TDI_PROVIDER_STATISTICS Pages: 1 -->
<svg width="529pt" height="289pt"
 viewBox="0.00 0.00 529.00 288.50" xmlns="http://www.w3.org/2000/svg" xmlns:xlink="http://www.w3.org/1999/xlink">
<g id="graph0" class="graph" transform="scale(1 1) rotate(0) translate(4 284.5)">
<title>_TDI_PROVIDER_STATISTICS</title>
<!-- Node1 -->
<g id="node1" class="node">
<title>Node1</title>
<g id="a_node1"><a xlink:title=" ">
<polygon fill="#bfbfbf" stroke="black" points="368,-155.5 368,-174.5 521,-174.5 521,-155.5 368,-155.5"/>
<text text-anchor="middle" x="444.5" y="-162.5" font-family="Helvetica,sans-Serif" font-size="10.00">_TDI_PROVIDER_STATISTICS</text>
</a>
</g>
</g>
<!-- Node2 -->
<g id="node2" class="node">
<title>Node2</title>
<g id="a_node2"><a xlink:title=" ">
<polygon fill="none" stroke="#bfbfbf" points="25.5,-250 25.5,-280 172.5,-280 172.5,-250 25.5,-250"/>
<text text-anchor="start" x="33.5" y="-268" font-family="Helvetica,sans-Serif" font-size="10.00">TDI_PROVIDER_RESOURCE</text>
<text text-anchor="middle" x="99" y="-257" font-family="Helvetica,sans-Serif" font-size="10.00">_STATS</text>
</a>
</g>
</g>
<!-- Node2&#45;&gt;Node1 -->
<g id="edge1" class="edge">
<title>Node2&#45;&gt;Node1</title>
<path fill="none" stroke="#9a32cd" stroke-dasharray="5,2" d="M182.9,-269.97C233.04,-270.03 297.25,-264.78 350,-243 387.32,-227.59 421,-191.76 435.7,-174.55"/>
<polygon fill="#9a32cd" stroke="#9a32cd" points="182.77,-266.46 172.74,-269.88 182.71,-273.46 182.77,-266.46"/>
<text text-anchor="middle" x="283" y="-272" font-family="Helvetica,sans-Serif" font-size="10.00"> ResourceStats</text>
</g>
<!-- Node3 -->
<g id="node3" class="node">
<title>Node3</title>
<g id="a_node3"><a xlink:title=" ">
<polygon fill="none" stroke="#bfbfbf" points="50,-155.5 50,-174.5 148,-174.5 148,-155.5 50,-155.5"/>
<text text-anchor="middle" x="99" y="-162.5" font-family="Helvetica,sans-Serif" font-size="10.00">LARGE_INTEGER</text>
</a>
</g>
</g>
<!-- Node3&#45;&gt;Node1 -->
<g id="edge2" class="edge">
<title>Node3&#45;&gt;Node1</title>
<path fill="none" stroke="#9a32cd" stroke-dasharray="5,2" d="M158.18,-165C215.93,-165 304.74,-165 367.93,-165"/>
<polygon fill="#9a32cd" stroke="#9a32cd" points="158.12,-161.5 148.12,-165 158.12,-168.5 158.12,-161.5"/>
<text text-anchor="middle" x="283" y="-234" font-family="Helvetica,sans-Serif" font-size="10.00"> WastedPacketSpace</text>
<text text-anchor="middle" x="283" y="-223" font-family="Helvetica,sans-Serif" font-size="10.00">DataFrameBytesResent</text>
<text text-anchor="middle" x="283" y="-212" font-family="Helvetica,sans-Serif" font-size="10.00">DataFrameBytesSent</text>
<text text-anchor="middle" x="283" y="-201" font-family="Helvetica,sans-Serif" font-size="10.00">DatagramBytesReceived</text>
<text text-anchor="middle" x="283" y="-190" font-family="Helvetica,sans-Serif" font-size="10.00">DatagramBytesSent</text>
<text text-anchor="middle" x="283" y="-179" font-family="Helvetica,sans-Serif" font-size="10.00">DataFrameBytesRejected</text>
<text text-anchor="middle" x="283" y="-168" font-family="Helvetica,sans-Serif" font-size="10.00">DataFrameBytesReceived</text>
</g>
<!-- Node4 -->
<g id="node4" class="node">
<title>Node4</title>
<g id="a_node4"><a xlink:title=" ">
<polygon fill="none" stroke="#bfbfbf" points="0,-0.5 0,-41.5 198,-41.5 198,-0.5 0,-0.5"/>
<text text-anchor="start" x="8" y="-29.5" font-family="Helvetica,sans-Serif" font-size="10.00">PSecurityUserData *typedef</text>
<text text-anchor="start" x="8" y="-18.5" font-family="Helvetica,sans-Serif" font-size="10.00"> PSECPKG_EXTENDED_INFORMATION</text>
<text text-anchor="middle" x="99" y="-7.5" font-family="Helvetica,sans-Serif" font-size="10.00"> *typedef</text>
</a>
</g>
</g>
<!-- Node4&#45;&gt;Node1 -->
<g id="edge3" class="edge">
<title>Node4&#45;&gt;Node1</title>
<path fill="none" stroke="#9a32cd" stroke-dasharray="5,2" d="M208.3,-10C254.49,-10.01 307.43,-16.62 350,-40 398.7,-66.74 429.36,-130.81 439.64,-155.28"/>
<polygon fill="#9a32cd" stroke="#9a32cd" points="208.21,-6.5 198.24,-10.09 208.28,-13.5 208.21,-6.5"/>
<text text-anchor="middle" x="283" y="-153" font-family="Helvetica,sans-Serif" font-size="10.00"> ResponseTimerExpirations</text>
<text text-anchor="middle" x="283" y="-142" font-family="Helvetica,sans-Serif" font-size="10.00">PacketsSent</text>
<text text-anchor="middle" x="283" y="-131" font-family="Helvetica,sans-Serif" font-size="10.00">NotFoundFailures</text>
<text text-anchor="middle" x="283" y="-120" font-family="Helvetica,sans-Serif" font-size="10.00">LocalResourceFailures</text>
<text text-anchor="middle" x="283" y="-109" font-family="Helvetica,sans-Serif" font-size="10.00">CancelledConnections</text>
<text text-anchor="middle" x="283" y="-98" font-family="Helvetica,sans-Serif" font-size="10.00">DataFramesResent</text>
<text text-anchor="middle" x="283" y="-87" font-family="Helvetica,sans-Serif" font-size="10.00">DataFramesReceived</text>
<text text-anchor="middle" x="283" y="-76" font-family="Helvetica,sans-Serif" font-size="10.00">RemoteResourceFailures</text>
<text text-anchor="middle" x="283" y="-65" font-family="Helvetica,sans-Serif" font-size="10.00">LocalDisconnects</text>
<text text-anchor="middle" x="283" y="-54" font-family="Helvetica,sans-Serif" font-size="10.00">ConnectionsAfterNoRetry</text>
<text text-anchor="middle" x="283" y="-43" font-family="Helvetica,sans-Serif" font-size="10.00">...</text>
</g>
</g>
</svg>
