<?xml version="1.0" encoding="UTF-8" standalone="no"?>
<!DOCTYPE svg PUBLIC "-//W3C//DTD SVG 1.1//EN"
 "http://www.w3.org/Graphics/SVG/1.1/DTD/svg11.dtd">
<!-- Generated by graphviz version 2.43.0 (0)
 -->
<!-- Title: iterator_ Pages: 1 -->
<svg width="389pt" height="230pt"
 viewBox="0.00 0.00 389.00 230.00" xmlns="http://www.w3.org/2000/svg" xmlns:xlink="http://www.w3.org/1999/xlink">
<g id="graph0" class="graph" transform="scale(1 1) rotate(0) translate(4 226)">
<title>iterator_</title>
<!-- Node1 -->
<g id="node1" class="node">
<title>Node1</title>
<g id="a_node1"><a xlink:title=" ">
<polygon fill="#bfbfbf" stroke="black" points="171.5,-0.5 171.5,-19.5 229.5,-19.5 229.5,-0.5 171.5,-0.5"/>
<text text-anchor="middle" x="200.5" y="-7.5" font-family="Helvetica,sans-Serif" font-size="10.00">iterator_</text>
</a>
</g>
</g>
<!-- Node2 -->
<g id="node2" class="node">
<title>Node2</title>
<g id="a_node2"><a xlink:href="../../d3/d98/classconst__iterator__.html" target="_top" xlink:title=" ">
<polygon fill="none" stroke="black" points="156,-57.5 156,-76.5 245,-76.5 245,-57.5 156,-57.5"/>
<text text-anchor="middle" x="200.5" y="-64.5" font-family="Helvetica,sans-Serif" font-size="10.00">const_iterator_</text>
</a>
</g>
</g>
<!-- Node2&#45;&gt;Node1 -->
<g id="edge1" class="edge">
<title>Node2&#45;&gt;Node1</title>
<path fill="none" stroke="midnightblue" d="M200.5,-47.12C200.5,-37.82 200.5,-27.06 200.5,-19.71"/>
<polygon fill="midnightblue" stroke="midnightblue" points="197,-47.41 200.5,-57.41 204,-47.41 197,-47.41"/>
</g>
<!-- Node3 -->
<g id="node3" class="node">
<title>Node3</title>
<g id="a_node3"><a xlink:href="../../db/d1d/classconst__point__iterator__.html" target="_top" xlink:title=" ">
<polygon fill="none" stroke="black" points="0,-130 0,-149 119,-149 119,-130 0,-130"/>
<text text-anchor="middle" x="59.5" y="-137" font-family="Helvetica,sans-Serif" font-size="10.00">const_point_iterator_</text>
</a>
</g>
</g>
<!-- Node3&#45;&gt;Node2 -->
<g id="edge2" class="edge">
<title>Node3&#45;&gt;Node2</title>
<path fill="none" stroke="midnightblue" d="M85.5,-125.5C114.05,-111.23 159.05,-88.73 183.43,-76.53"/>
<polygon fill="midnightblue" stroke="midnightblue" points="83.89,-122.39 76.51,-130 87.02,-128.65 83.89,-122.39"/>
</g>
<!-- Node4 -->
<g id="node4" class="node">
<title>Node4</title>
<g id="a_node4"><a xlink:title=" ">
<polygon fill="none" stroke="#bfbfbf" points="15.5,-202.5 15.5,-221.5 103.5,-221.5 103.5,-202.5 15.5,-202.5"/>
<text text-anchor="middle" x="59.5" y="-209.5" font-family="Helvetica,sans-Serif" font-size="10.00">const_pointer_</text>
</a>
</g>
</g>
<!-- Node4&#45;&gt;Node3 -->
<g id="edge3" class="edge">
<title>Node4&#45;&gt;Node3</title>
<path fill="none" stroke="#9a32cd" stroke-dasharray="5,2" d="M59.5,-191.94C59.5,-178.03 59.5,-159.82 59.5,-149.22"/>
<polygon fill="#9a32cd" stroke="#9a32cd" points="56,-192.36 59.5,-202.36 63,-192.36 56,-192.36"/>
<text text-anchor="middle" x="88" y="-176" font-family="Helvetica,sans-Serif" font-size="10.00"> m_p_value</text>
</g>
<!-- Node5 -->
<g id="node5" class="node">
<title>Node5</title>
<g id="a_node5"><a xlink:title=" ">
<polygon fill="none" stroke="#bfbfbf" points="137.5,-124.5 137.5,-154.5 263.5,-154.5 263.5,-124.5 137.5,-124.5"/>
<text text-anchor="start" x="145.5" y="-142.5" font-family="Helvetica,sans-Serif" font-size="10.00">const PB_DS_CLASS_C</text>
<text text-anchor="middle" x="200.5" y="-131.5" font-family="Helvetica,sans-Serif" font-size="10.00">_DEC *</text>
</a>
</g>
</g>
<!-- Node5&#45;&gt;Node2 -->
<g id="edge4" class="edge">
<title>Node5&#45;&gt;Node2</title>
<path fill="none" stroke="#9a32cd" stroke-dasharray="5,2" d="M200.5,-114.09C200.5,-101.21 200.5,-86.2 200.5,-76.89"/>
<polygon fill="#9a32cd" stroke="#9a32cd" points="197,-114.23 200.5,-124.23 204,-114.23 197,-114.23"/>
<text text-anchor="middle" x="222" y="-98" font-family="Helvetica,sans-Serif" font-size="10.00"> m_p_tbl</text>
</g>
<!-- Node6 -->
<g id="node6" class="node">
<title>Node6</title>
<g id="a_node6"><a xlink:title=" ">
<polygon fill="none" stroke="#bfbfbf" points="282,-130 282,-149 381,-149 381,-130 282,-130"/>
<text text-anchor="middle" x="331.5" y="-137" font-family="Helvetica,sans-Serif" font-size="10.00">PB_DS_GEN_POS</text>
</a>
</g>
</g>
<!-- Node6&#45;&gt;Node2 -->
<g id="edge5" class="edge">
<title>Node6&#45;&gt;Node2</title>
<path fill="none" stroke="#9a32cd" stroke-dasharray="5,2" d="M306.65,-125.12C280.1,-110.84 238.81,-88.62 216.36,-76.53"/>
<polygon fill="#9a32cd" stroke="#9a32cd" points="305.23,-128.34 315.7,-130 308.55,-122.17 305.23,-128.34"/>
<text text-anchor="middle" x="287.5" y="-98" font-family="Helvetica,sans-Serif" font-size="10.00"> m_pos</text>
</g>
</g>
</svg>
