<?xml version="1.0" encoding="UTF-8" standalone="no"?>
<!DOCTYPE svg PUBLIC "-//W3C//DTD SVG 1.1//EN"
 "http://www.w3.org/Graphics/SVG/1.1/DTD/svg11.dtd">
<!-- Generated by graphviz version 2.43.0 (0)
 -->
<!-- Title: _USER_INFO_1 Pages: 1 -->
<svg width="259pt" height="139pt"
 viewBox="0.00 0.00 258.50 139.00" xmlns="http://www.w3.org/2000/svg" xmlns:xlink="http://www.w3.org/1999/xlink">
<g id="graph0" class="graph" transform="scale(1 1) rotate(0) translate(4 135)">
<title>_USER_INFO_1</title>
<!-- Node1 -->
<g id="node1" class="node">
<title>Node1</title>
<g id="a_node1"><a xlink:title=" ">
<polygon fill="#bfbfbf" stroke="black" points="53,-0.5 53,-19.5 142,-19.5 142,-0.5 53,-0.5"/>
<text text-anchor="middle" x="97.5" y="-7.5" font-family="Helvetica,sans-Serif" font-size="10.00">_USER_INFO_1</text>
</a>
</g>
</g>
<!-- Node2 -->
<g id="node2" class="node">
<title>Node2</title>
<g id="a_node2"><a xlink:title=" ">
<polygon fill="none" stroke="#bfbfbf" points="0,-111.5 0,-130.5 89,-130.5 89,-111.5 0,-111.5"/>
<text text-anchor="middle" x="44.5" y="-118.5" font-family="Helvetica,sans-Serif" font-size="10.00">unsigned short</text>
</a>
</g>
</g>
<!-- Node2&#45;&gt;Node1 -->
<g id="edge1" class="edge">
<title>Node2&#45;&gt;Node1</title>
<path fill="none" stroke="#9a32cd" stroke-dasharray="5,2" d="M39.6,-101.38C36.07,-83.71 33.75,-57.08 45.5,-38 50.67,-29.6 59.39,-23.69 68.23,-19.59"/>
<polygon fill="#9a32cd" stroke="#9a32cd" points="36.24,-102.35 41.9,-111.3 43.05,-100.77 36.24,-102.35"/>
<text text-anchor="middle" x="87.5" y="-85" font-family="Helvetica,sans-Serif" font-size="10.00"> usri1_home_dir</text>
<text text-anchor="middle" x="87.5" y="-74" font-family="Helvetica,sans-Serif" font-size="10.00">usri1_password</text>
<text text-anchor="middle" x="87.5" y="-63" font-family="Helvetica,sans-Serif" font-size="10.00">usri1_name</text>
<text text-anchor="middle" x="87.5" y="-52" font-family="Helvetica,sans-Serif" font-size="10.00">usri1_comment</text>
<text text-anchor="middle" x="87.5" y="-41" font-family="Helvetica,sans-Serif" font-size="10.00">usri1_script_path</text>
</g>
<!-- Node3 -->
<g id="node3" class="node">
<title>Node3</title>
<g id="a_node3"><a xlink:title=" ">
<polygon fill="none" stroke="#bfbfbf" points="121,-111.5 121,-130.5 182,-130.5 182,-111.5 121,-111.5"/>
<text text-anchor="middle" x="151.5" y="-118.5" font-family="Helvetica,sans-Serif" font-size="10.00">unsigned</text>
</a>
</g>
</g>
<!-- Node3&#45;&gt;Node1 -->
<g id="edge2" class="edge">
<title>Node3&#45;&gt;Node1</title>
<path fill="none" stroke="#9a32cd" stroke-dasharray="5,2" d="M149.73,-101.35C147.35,-83.84 141.88,-57.49 129.5,-38 124.82,-30.64 117.5,-24.24 111.04,-19.53"/>
<polygon fill="#9a32cd" stroke="#9a32cd" points="146.27,-101.89 150.89,-111.42 153.22,-101.09 146.27,-101.89"/>
<text text-anchor="middle" x="199" y="-74" font-family="Helvetica,sans-Serif" font-size="10.00"> usri1_password_age</text>
<text text-anchor="middle" x="199" y="-63" font-family="Helvetica,sans-Serif" font-size="10.00">usri1_priv</text>
<text text-anchor="middle" x="199" y="-52" font-family="Helvetica,sans-Serif" font-size="10.00">usri1_flags</text>
</g>
</g>
</svg>
