<?xml version="1.0" encoding="UTF-8" standalone="no"?>
<!DOCTYPE svg PUBLIC "-//W3C//DTD SVG 1.1//EN"
 "http://www.w3.org/Graphics/SVG/1.1/DTD/svg11.dtd">
<!-- Generated by graphviz version 2.43.0 (0)
 -->
<!-- Title: _tagADDRESS Pages: 1 -->
<svg width="186pt" height="106pt"
 viewBox="0.00 0.00 185.50 106.00" xmlns="http://www.w3.org/2000/svg" xmlns:xlink="http://www.w3.org/1999/xlink">
<g id="graph0" class="graph" transform="scale(1 1) rotate(0) translate(4 102)">
<title>_tagADDRESS</title>
<!-- Node1 -->
<g id="node1" class="node">
<title>Node1</title>
<g id="a_node1"><a xlink:title=" ">
<polygon fill="#bfbfbf" stroke="black" points="56,-0.5 56,-19.5 140,-19.5 140,-0.5 56,-0.5"/>
<text text-anchor="middle" x="98" y="-7.5" font-family="Helvetica,sans-Serif" font-size="10.00">_tagADDRESS</text>
</a>
</g>
</g>
<!-- Node2 -->
<g id="node2" class="node">
<title>Node2</title>
<g id="a_node2"><a xlink:title=" ">
<polygon fill="none" stroke="#bfbfbf" points="0,-78.5 0,-97.5 98,-97.5 98,-78.5 0,-78.5"/>
<text text-anchor="middle" x="49" y="-85.5" font-family="Helvetica,sans-Serif" font-size="10.00">ADDRESS_MODE</text>
</a>
</g>
</g>
<!-- Node2&#45;&gt;Node1 -->
<g id="edge1" class="edge">
<title>Node2&#45;&gt;Node1</title>
<path fill="none" stroke="#9a32cd" stroke-dasharray="5,2" d="M60.24,-69.57C70.31,-53.95 84.65,-31.7 92.44,-19.62"/>
<polygon fill="#9a32cd" stroke="#9a32cd" points="57.1,-67.98 54.62,-78.28 62.98,-71.77 57.1,-67.98"/>
<text text-anchor="middle" x="95.5" y="-46.5" font-family="Helvetica,sans-Serif" font-size="10.00"> Mode</text>
</g>
<!-- Node3 -->
<g id="node3" class="node">
<title>Node3</title>
<g id="a_node3"><a xlink:title=" ">
<polygon fill="none" stroke="#bfbfbf" points="116.5,-78.5 116.5,-97.5 177.5,-97.5 177.5,-78.5 116.5,-78.5"/>
<text text-anchor="middle" x="147" y="-85.5" font-family="Helvetica,sans-Serif" font-size="10.00">unsigned</text>
</a>
</g>
</g>
<!-- Node3&#45;&gt;Node1 -->
<g id="edge2" class="edge">
<title>Node3&#45;&gt;Node1</title>
<path fill="none" stroke="#9a32cd" stroke-dasharray="5,2" d="M135.76,-69.57C125.69,-53.95 111.35,-31.7 103.56,-19.62"/>
<polygon fill="#9a32cd" stroke="#9a32cd" points="133.02,-71.77 141.38,-78.28 138.9,-67.98 133.02,-71.77"/>
<text text-anchor="middle" x="150" y="-52" font-family="Helvetica,sans-Serif" font-size="10.00"> Offset</text>
<text text-anchor="middle" x="150" y="-41" font-family="Helvetica,sans-Serif" font-size="10.00">Segment</text>
</g>
</g>
</svg>
