<?xml version="1.0" encoding="UTF-8" standalone="no"?>
<!DOCTYPE svg PUBLIC "-//W3C//DTD SVG 1.1//EN"
 "http://www.w3.org/Graphics/SVG/1.1/DTD/svg11.dtd">
<!-- Generated by graphviz version 2.43.0 (0)
 -->
<!-- Title: Tools/MinGW/include/c++/4.6.1/profile/impl/profiler_trace.h Pages: 1 -->
<svg width="1091pt" height="429pt"
 viewBox="0.00 0.00 1090.50 429.00" xmlns="http://www.w3.org/2000/svg" xmlns:xlink="http://www.w3.org/1999/xlink">
<g id="graph0" class="graph" transform="scale(1 1) rotate(0) translate(4 425)">
<title>Tools/MinGW/include/c++/4.6.1/profile/impl/profiler_trace.h</title>
<!-- Node1 -->
<g id="node1" class="node">
<title>Node1</title>
<g id="a_node1"><a xlink:title="Data structures to represent profiling traces.">
<polygon fill="#bfbfbf" stroke="black" points="519,-379.5 519,-420.5 646,-420.5 646,-379.5 519,-379.5"/>
<text text-anchor="start" x="527" y="-408.5" font-family="Helvetica,sans-Serif" font-size="10.00">Tools/MinGW/include</text>
<text text-anchor="start" x="527" y="-397.5" font-family="Helvetica,sans-Serif" font-size="10.00">/c++/4.6.1/profile/impl</text>
<text text-anchor="middle" x="582.5" y="-386.5" font-family="Helvetica,sans-Serif" font-size="10.00">/profiler_trace.h</text>
</a>
</g>
</g>
<!-- Node2 -->
<g id="node2" class="node">
<title>Node2</title>
<g id="a_node2"><a xlink:href="../../d5/db2/profiler__container__size_8h.html" target="_top" xlink:title="Diagnostics for container sizes.">
<polygon fill="none" stroke="black" points="366,-301.5 366,-342.5 505,-342.5 505,-301.5 366,-301.5"/>
<text text-anchor="start" x="374" y="-330.5" font-family="Helvetica,sans-Serif" font-size="10.00">Tools/MinGW/include</text>
<text text-anchor="start" x="374" y="-319.5" font-family="Helvetica,sans-Serif" font-size="10.00">/c++/4.6.1/profile/impl</text>
<text text-anchor="middle" x="435.5" y="-308.5" font-family="Helvetica,sans-Serif" font-size="10.00">/profiler_container_size.h</text>
</a>
</g>
</g>
<!-- Node1&#45;&gt;Node2 -->
<g id="edge1" class="edge">
<title>Node1&#45;&gt;Node2</title>
<path fill="none" stroke="midnightblue" d="M535.63,-374.77C515.48,-364.35 492.24,-352.34 473.23,-342.51"/>
<polygon fill="midnightblue" stroke="midnightblue" points="534.15,-377.94 544.64,-379.43 537.37,-371.73 534.15,-377.94"/>
</g>
<!-- Node3 -->
<g id="node3" class="node">
<title>Node3</title>
<g id="a_node3"><a xlink:href="../../d6/d80/profiler__hashtable__size_8h.html" target="_top" xlink:title="Collection of hashtable size traces.">
<polygon fill="none" stroke="black" points="438,-223.5 438,-264.5 579,-264.5 579,-223.5 438,-223.5"/>
<text text-anchor="start" x="446" y="-252.5" font-family="Helvetica,sans-Serif" font-size="10.00">Tools/MinGW/include</text>
<text text-anchor="start" x="446" y="-241.5" font-family="Helvetica,sans-Serif" font-size="10.00">/c++/4.6.1/profile/impl</text>
<text text-anchor="middle" x="508.5" y="-230.5" font-family="Helvetica,sans-Serif" font-size="10.00">/profiler_hashtable_size.h</text>
</a>
</g>
</g>
<!-- Node1&#45;&gt;Node3 -->
<g id="edge22" class="edge">
<title>Node1&#45;&gt;Node3</title>
<path fill="none" stroke="midnightblue" d="M568.65,-370.17C553.88,-339.43 530.89,-291.59 518.03,-264.83"/>
<polygon fill="midnightblue" stroke="midnightblue" points="565.64,-372 573.13,-379.5 571.95,-368.97 565.64,-372"/>
</g>
<!-- Node7 -->
<g id="node7" class="node">
<title>Node7</title>
<g id="a_node7"><a xlink:href="../../d1/de0/profiler__hash__func_8h.html" target="_top" xlink:title="Data structures to represent profiling traces.">
<polygon fill="none" stroke="black" points="145,-67.5 145,-108.5 272,-108.5 272,-67.5 145,-67.5"/>
<text text-anchor="start" x="153" y="-96.5" font-family="Helvetica,sans-Serif" font-size="10.00">Tools/MinGW/include</text>
<text text-anchor="start" x="153" y="-85.5" font-family="Helvetica,sans-Serif" font-size="10.00">/c++/4.6.1/profile/impl</text>
<text text-anchor="middle" x="208.5" y="-74.5" font-family="Helvetica,sans-Serif" font-size="10.00">/profiler_hash_func.h</text>
</a>
</g>
</g>
<!-- Node1&#45;&gt;Node7 -->
<g id="edge21" class="edge">
<title>Node1&#45;&gt;Node7</title>
<path fill="none" stroke="midnightblue" d="M508.61,-395.3C461.13,-389.62 400.35,-375.86 356.5,-343 273.38,-280.72 228.89,-156.95 214.13,-108.81"/>
<polygon fill="midnightblue" stroke="midnightblue" points="508.52,-398.81 518.84,-396.42 509.28,-391.85 508.52,-398.81"/>
</g>
<!-- Node8 -->
<g id="node8" class="node">
<title>Node8</title>
<g id="a_node8"><a xlink:href="../../df/d75/profiler__list__to__slist_8h.html" target="_top" xlink:title="Diagnostics for list to slist.">
<polygon fill="none" stroke="black" points="445,-67.5 445,-108.5 572,-108.5 572,-67.5 445,-67.5"/>
<text text-anchor="start" x="453" y="-96.5" font-family="Helvetica,sans-Serif" font-size="10.00">Tools/MinGW/include</text>
<text text-anchor="start" x="453" y="-85.5" font-family="Helvetica,sans-Serif" font-size="10.00">/c++/4.6.1/profile/impl</text>
<text text-anchor="middle" x="508.5" y="-74.5" font-family="Helvetica,sans-Serif" font-size="10.00">/profiler_list_to_slist.h</text>
</a>
</g>
</g>
<!-- Node1&#45;&gt;Node8 -->
<g id="edge23" class="edge">
<title>Node1&#45;&gt;Node8</title>
<path fill="none" stroke="midnightblue" d="M590.95,-369.48C603.43,-319.68 621.29,-217.32 581.5,-145 573.26,-130.03 559.16,-117.79 545.53,-108.61"/>
<polygon fill="midnightblue" stroke="midnightblue" points="587.53,-368.72 588.39,-379.28 594.3,-370.49 587.53,-368.72"/>
</g>
<!-- Node9 -->
<g id="node9" class="node">
<title>Node9</title>
<g id="a_node9"><a xlink:href="../../d7/dab/profiler__list__to__vector_8h.html" target="_top" xlink:title="diagnostics for list to vector.">
<polygon fill="none" stroke="black" points="590.5,-67.5 590.5,-108.5 724.5,-108.5 724.5,-67.5 590.5,-67.5"/>
<text text-anchor="start" x="598.5" y="-96.5" font-family="Helvetica,sans-Serif" font-size="10.00">Tools/MinGW/include</text>
<text text-anchor="start" x="598.5" y="-85.5" font-family="Helvetica,sans-Serif" font-size="10.00">/c++/4.6.1/profile/impl</text>
<text text-anchor="middle" x="657.5" y="-74.5" font-family="Helvetica,sans-Serif" font-size="10.00">/profiler_list_to_vector.h</text>
</a>
</g>
</g>
<!-- Node1&#45;&gt;Node9 -->
<g id="edge24" class="edge">
<title>Node1&#45;&gt;Node9</title>
<path fill="none" stroke="midnightblue" d="M600.69,-370.47C605.48,-361.91 610.22,-352.31 613.5,-343 643.08,-259 653.26,-152.11 656.33,-108.68"/>
<polygon fill="midnightblue" stroke="midnightblue" points="597.56,-368.89 595.54,-379.29 603.61,-372.42 597.56,-368.89"/>
</g>
<!-- Node10 -->
<g id="node10" class="node">
<title>Node10</title>
<g id="a_node10"><a xlink:href="../../d7/d82/profiler__map__to__unordered__map_8h.html" target="_top" xlink:title="Diagnostics for map to unordered_map.">
<polygon fill="none" stroke="black" points="743,-67.5 743,-108.5 930,-108.5 930,-67.5 743,-67.5"/>
<text text-anchor="start" x="751" y="-96.5" font-family="Helvetica,sans-Serif" font-size="10.00">Tools/MinGW/include</text>
<text text-anchor="start" x="751" y="-85.5" font-family="Helvetica,sans-Serif" font-size="10.00">/c++/4.6.1/profile/impl</text>
<text text-anchor="middle" x="836.5" y="-74.5" font-family="Helvetica,sans-Serif" font-size="10.00">/profiler_map_to_unordered_map.h</text>
</a>
</g>
</g>
<!-- Node1&#45;&gt;Node10 -->
<g id="edge25" class="edge">
<title>Node1&#45;&gt;Node10</title>
<path fill="none" stroke="midnightblue" d="M607.99,-371.72C616.25,-362.69 625.38,-352.52 633.5,-343 706.24,-257.77 788.23,-152 821.39,-108.79"/>
<polygon fill="midnightblue" stroke="midnightblue" points="605.19,-369.59 600.99,-379.32 610.34,-374.34 605.19,-369.59"/>
</g>
<!-- Node11 -->
<g id="node11" class="node">
<title>Node11</title>
<g id="a_node11"><a xlink:href="../../d4/d44/profiler__vector__size_8h.html" target="_top" xlink:title="Collection of vector size traces.">
<polygon fill="none" stroke="black" points="0,-67.5 0,-108.5 127,-108.5 127,-67.5 0,-67.5"/>
<text text-anchor="start" x="8" y="-96.5" font-family="Helvetica,sans-Serif" font-size="10.00">Tools/MinGW/include</text>
<text text-anchor="start" x="8" y="-85.5" font-family="Helvetica,sans-Serif" font-size="10.00">/c++/4.6.1/profile/impl</text>
<text text-anchor="middle" x="63.5" y="-74.5" font-family="Helvetica,sans-Serif" font-size="10.00">/profiler_vector_size.h</text>
</a>
</g>
</g>
<!-- Node1&#45;&gt;Node11 -->
<g id="edge26" class="edge">
<title>Node1&#45;&gt;Node11</title>
<path fill="none" stroke="midnightblue" d="M508.91,-395.46C452,-390.05 372.83,-376.55 311.5,-343 201.2,-282.66 109.21,-157.19 76.39,-108.71"/>
<polygon fill="midnightblue" stroke="midnightblue" points="508.64,-398.95 518.91,-396.35 509.26,-391.98 508.64,-398.95"/>
</g>
<!-- Node12 -->
<g id="node12" class="node">
<title>Node12</title>
<g id="a_node12"><a xlink:href="../../d5/d8a/profiler__vector__to__list_8h.html" target="_top" xlink:title="diagnostics for vector to list.">
<polygon fill="none" stroke="black" points="948.5,-67.5 948.5,-108.5 1082.5,-108.5 1082.5,-67.5 948.5,-67.5"/>
<text text-anchor="start" x="956.5" y="-96.5" font-family="Helvetica,sans-Serif" font-size="10.00">Tools/MinGW/include</text>
<text text-anchor="start" x="956.5" y="-85.5" font-family="Helvetica,sans-Serif" font-size="10.00">/c++/4.6.1/profile/impl</text>
<text text-anchor="middle" x="1015.5" y="-74.5" font-family="Helvetica,sans-Serif" font-size="10.00">/profiler_vector_to_list.h</text>
</a>
</g>
</g>
<!-- Node1&#45;&gt;Node12 -->
<g id="edge27" class="edge">
<title>Node1&#45;&gt;Node12</title>
<path fill="none" stroke="midnightblue" d="M619.92,-373.76C633.96,-364.21 650.02,-353.18 664.5,-343 786.64,-257.12 930.4,-151.71 988.82,-108.69"/>
<polygon fill="midnightblue" stroke="midnightblue" points="617.78,-370.98 611.47,-379.49 621.71,-376.77 617.78,-370.98"/>
</g>
<!-- Node2&#45;&gt;Node3 -->
<g id="edge2" class="edge">
<title>Node2&#45;&gt;Node3</title>
<path fill="none" stroke="midnightblue" d="M461.24,-294.2C470.64,-284.42 481.09,-273.54 489.76,-264.51"/>
<polygon fill="midnightblue" stroke="midnightblue" points="458.7,-291.79 454.3,-301.43 463.75,-296.64 458.7,-291.79"/>
</g>
<!-- Node2&#45;&gt;Node11 -->
<g id="edge20" class="edge">
<title>Node2&#45;&gt;Node11</title>
<path fill="none" stroke="midnightblue" d="M397.75,-295.68C345.48,-260.84 247.81,-196.57 162.5,-145 141.88,-132.54 118.43,-119.23 99.53,-108.72"/>
<polygon fill="midnightblue" stroke="midnightblue" points="396.1,-298.78 406.36,-301.42 399.99,-292.96 396.1,-298.78"/>
</g>
<!-- Node4 -->
<g id="node4" class="node">
<title>Node4</title>
<g id="a_node4"><a xlink:href="../../dd/dff/profiler_8h.html" target="_top" xlink:title="Interface of the profiling runtime library.">
<polygon fill="none" stroke="black" points="445,-145.5 445,-186.5 572,-186.5 572,-145.5 445,-145.5"/>
<text text-anchor="start" x="453" y="-174.5" font-family="Helvetica,sans-Serif" font-size="10.00">Tools/MinGW/include</text>
<text text-anchor="start" x="453" y="-163.5" font-family="Helvetica,sans-Serif" font-size="10.00">/c++/4.6.1/profile/impl</text>
<text text-anchor="middle" x="508.5" y="-152.5" font-family="Helvetica,sans-Serif" font-size="10.00">/profiler.h</text>
</a>
</g>
</g>
<!-- Node3&#45;&gt;Node4 -->
<g id="edge3" class="edge">
<title>Node3&#45;&gt;Node4</title>
<path fill="none" stroke="midnightblue" d="M501.9,-213.3C501.58,-204.3 501.78,-194.65 502.52,-186.51"/>
<polygon fill="midnightblue" stroke="midnightblue" points="498.41,-213.66 502.51,-223.43 505.4,-213.23 498.41,-213.66"/>
</g>
<!-- Node4&#45;&gt;Node2 -->
<g id="edge6" class="edge">
<title>Node4&#45;&gt;Node2</title>
<path fill="none" stroke="midnightblue" d="M457.76,-192.21C446.43,-200.39 435.9,-210.62 429.5,-223 416.74,-247.68 422.66,-280.66 428.65,-301.37"/>
<polygon fill="midnightblue" stroke="midnightblue" points="459.74,-195.09 466.1,-186.62 455.84,-189.28 459.74,-195.09"/>
</g>
<!-- Node4&#45;&gt;Node3 -->
<g id="edge9" class="edge">
<title>Node4&#45;&gt;Node3</title>
<path fill="none" stroke="midnightblue" d="M515.1,-196.63C515.42,-205.62 515.22,-215.27 514.49,-223.43"/>
<polygon fill="midnightblue" stroke="midnightblue" points="518.59,-196.27 514.48,-186.51 511.6,-196.7 518.59,-196.27"/>
</g>
<!-- Node5 -->
<g id="node5" class="node">
<title>Node5</title>
<g id="a_node5"><a xlink:href="../../d3/d5a/base_8h.html" target="_top" xlink:title="Sequential helper functions. This file is a GNU profile extension to the Standard C++ Library.">
<polygon fill="none" stroke="black" points="290,-73 290,-103 427,-103 427,-73 290,-73"/>
<text text-anchor="start" x="298" y="-91" font-family="Helvetica,sans-Serif" font-size="10.00">Tools/MinGW/include</text>
<text text-anchor="middle" x="358.5" y="-80" font-family="Helvetica,sans-Serif" font-size="10.00">/c++/4.6.1/profile/base.h</text>
</a>
</g>
</g>
<!-- Node4&#45;&gt;Node5 -->
<g id="edge4" class="edge">
<title>Node4&#45;&gt;Node5</title>
<path fill="none" stroke="midnightblue" d="M460.75,-140.81C436.31,-128.43 407.41,-113.78 386.58,-103.23"/>
<polygon fill="midnightblue" stroke="midnightblue" points="459.37,-144.03 469.87,-145.43 462.53,-137.79 459.37,-144.03"/>
</g>
<!-- Node4&#45;&gt;Node7 -->
<g id="edge7" class="edge">
<title>Node4&#45;&gt;Node7</title>
<path fill="none" stroke="midnightblue" d="M435.1,-149.39C388.07,-138.44 325.98,-123.25 271.5,-109 270.87,-108.84 270.24,-108.67 269.61,-108.5"/>
<polygon fill="midnightblue" stroke="midnightblue" points="434.37,-152.81 444.9,-151.66 435.95,-145.99 434.37,-152.81"/>
</g>
<!-- Node4&#45;&gt;Node8 -->
<g id="edge10" class="edge">
<title>Node4&#45;&gt;Node8</title>
<path fill="none" stroke="midnightblue" d="M501.9,-135.3C501.58,-126.3 501.78,-116.65 502.52,-108.51"/>
<polygon fill="midnightblue" stroke="midnightblue" points="498.41,-135.66 502.51,-145.43 505.4,-135.23 498.41,-135.66"/>
</g>
<!-- Node4&#45;&gt;Node9 -->
<g id="edge12" class="edge">
<title>Node4&#45;&gt;Node9</title>
<path fill="none" stroke="midnightblue" d="M549.94,-140.63C569.66,-130.24 593.21,-118.29 613.28,-108.51"/>
<polygon fill="midnightblue" stroke="midnightblue" points="548.08,-137.65 540.88,-145.43 551.36,-143.83 548.08,-137.65"/>
</g>
<!-- Node4&#45;&gt;Node10 -->
<g id="edge14" class="edge">
<title>Node4&#45;&gt;Node10</title>
<path fill="none" stroke="midnightblue" d="M581.86,-146.64C630.49,-135.11 694.58,-120.25 746.31,-108.51"/>
<polygon fill="midnightblue" stroke="midnightblue" points="580.95,-143.26 572.03,-148.98 582.57,-150.07 580.95,-143.26"/>
</g>
<!-- Node4&#45;&gt;Node11 -->
<g id="edge16" class="edge">
<title>Node4&#45;&gt;Node11</title>
<path fill="none" stroke="midnightblue" d="M434.54,-157.39C357.07,-148.34 232.38,-131.57 126.5,-109 125.74,-108.84 124.97,-108.67 124.21,-108.5"/>
<polygon fill="midnightblue" stroke="midnightblue" points="434.35,-160.89 444.68,-158.57 435.15,-153.94 434.35,-160.89"/>
</g>
<!-- Node4&#45;&gt;Node12 -->
<g id="edge18" class="edge">
<title>Node4&#45;&gt;Node12</title>
<path fill="none" stroke="midnightblue" d="M582.04,-157.68C666.61,-149.03 809.18,-132.74 930.5,-109 936.26,-107.87 942.23,-106.56 948.21,-105.16"/>
<polygon fill="midnightblue" stroke="midnightblue" points="581.62,-154.21 572.02,-158.7 582.33,-161.17 581.62,-154.21"/>
</g>
<!-- Node6 -->
<g id="node6" class="node">
<title>Node6</title>
<g id="a_node6"><a xlink:href="../../db/d26/profile_2map_8h.html" target="_top" xlink:title=" ">
<polygon fill="none" stroke="black" points="290.5,-0.5 290.5,-30.5 426.5,-30.5 426.5,-0.5 290.5,-0.5"/>
<text text-anchor="start" x="298.5" y="-18.5" font-family="Helvetica,sans-Serif" font-size="10.00">Tools/MinGW/include</text>
<text text-anchor="middle" x="358.5" y="-7.5" font-family="Helvetica,sans-Serif" font-size="10.00">/c++/4.6.1/profile/map.h</text>
</a>
</g>
</g>
<!-- Node5&#45;&gt;Node6 -->
<g id="edge5" class="edge">
<title>Node5&#45;&gt;Node6</title>
<path fill="none" stroke="midnightblue" d="M358.5,-62.73C358.5,-52.07 358.5,-39.91 358.5,-30.75"/>
<polygon fill="midnightblue" stroke="midnightblue" points="355,-62.73 358.5,-72.73 362,-62.73 355,-62.73"/>
</g>
<!-- Node7&#45;&gt;Node4 -->
<g id="edge8" class="edge">
<title>Node7&#45;&gt;Node4</title>
<path fill="none" stroke="midnightblue" d="M281.97,-107.01C284.51,-107.69 287.03,-108.35 289.5,-109 341.75,-122.67 400.99,-137.19 444.74,-148.02"/>
<polygon fill="midnightblue" stroke="midnightblue" points="282.61,-103.56 272.05,-104.35 280.8,-110.32 282.61,-103.56"/>
</g>
<!-- Node8&#45;&gt;Node4 -->
<g id="edge11" class="edge">
<title>Node8&#45;&gt;Node4</title>
<path fill="none" stroke="midnightblue" d="M515.1,-118.63C515.42,-127.62 515.22,-137.27 514.49,-145.43"/>
<polygon fill="midnightblue" stroke="midnightblue" points="518.59,-118.27 514.48,-108.51 511.6,-118.7 518.59,-118.27"/>
</g>
<!-- Node9&#45;&gt;Node4 -->
<g id="edge13" class="edge">
<title>Node9&#45;&gt;Node4</title>
<path fill="none" stroke="midnightblue" d="M616.2,-113.3C596.49,-123.68 572.94,-135.63 552.86,-145.43"/>
<polygon fill="midnightblue" stroke="midnightblue" points="618.05,-116.28 625.24,-108.51 614.77,-110.1 618.05,-116.28"/>
</g>
<!-- Node10&#45;&gt;Node4 -->
<g id="edge15" class="edge">
<title>Node10&#45;&gt;Node4</title>
<path fill="none" stroke="midnightblue" d="M748.42,-110.84C692.8,-123.96 622.26,-140.23 572.07,-151.5"/>
<polygon fill="midnightblue" stroke="midnightblue" points="749.35,-114.22 758.27,-108.51 747.74,-107.4 749.35,-114.22"/>
</g>
<!-- Node11&#45;&gt;Node4 -->
<g id="edge17" class="edge">
<title>Node11&#45;&gt;Node4</title>
<path fill="none" stroke="midnightblue" d="M137.07,-107.34C139.58,-107.92 142.06,-108.48 144.5,-109 249.05,-131.28 371.94,-147.92 444.93,-157.05"/>
<polygon fill="midnightblue" stroke="midnightblue" points="137.86,-103.93 127.32,-104.98 136.21,-110.74 137.86,-103.93"/>
</g>
<!-- Node12&#45;&gt;Node4 -->
<g id="edge19" class="edge">
<title>Node12&#45;&gt;Node4</title>
<path fill="none" stroke="midnightblue" d="M941.01,-110.43C808.48,-135.73 656.38,-152.13 572.33,-159.86"/>
<polygon fill="midnightblue" stroke="midnightblue" points="941.77,-113.85 950.92,-108.52 940.44,-106.98 941.77,-113.85"/>
</g>
</g>
</svg>
