<?xml version="1.0" encoding="UTF-8" standalone="no"?>
<!DOCTYPE svg PUBLIC "-//W3C//DTD SVG 1.1//EN"
 "http://www.w3.org/Graphics/SVG/1.1/DTD/svg11.dtd">
<!-- Generated by graphviz version 2.43.0 (0)
 -->
<!-- Title: _DISPATCHER_HEADER Pages: 1 -->
<svg width="257pt" height="128pt"
 viewBox="0.00 0.00 257.00 128.00" xmlns="http://www.w3.org/2000/svg" xmlns:xlink="http://www.w3.org/1999/xlink">
<g id="graph0" class="graph" transform="scale(1 1) rotate(0) translate(4 124)">
<title>_DISPATCHER_HEADER</title>
<!-- Node1 -->
<g id="node1" class="node">
<title>Node1</title>
<g id="a_node1"><a xlink:title=" ">
<polygon fill="#bfbfbf" stroke="black" points="64,-0.5 64,-19.5 192,-19.5 192,-0.5 64,-0.5"/>
<text text-anchor="middle" x="128" y="-7.5" font-family="Helvetica,sans-Serif" font-size="10.00">_DISPATCHER_HEADER</text>
</a>
</g>
</g>
<!-- Node2 -->
<g id="node2" class="node">
<title>Node2</title>
<g id="a_node2"><a xlink:title=" ">
<polygon fill="none" stroke="#bfbfbf" points="0,-100.5 0,-119.5 74,-119.5 74,-100.5 0,-100.5"/>
<text text-anchor="middle" x="37" y="-107.5" font-family="Helvetica,sans-Serif" font-size="10.00">LIST_ENTRY</text>
</a>
</g>
</g>
<!-- Node2&#45;&gt;Node1 -->
<g id="edge1" class="edge">
<title>Node2&#45;&gt;Node1</title>
<path fill="none" stroke="#9a32cd" stroke-dasharray="5,2" d="M37.43,-90.26C38.75,-74.49 43.03,-52.3 56,-38 63.8,-29.4 74.62,-23.52 85.5,-19.52"/>
<polygon fill="#9a32cd" stroke="#9a32cd" points="33.92,-90.23 36.9,-100.39 40.91,-90.59 33.92,-90.23"/>
<text text-anchor="middle" x="90" y="-57.5" font-family="Helvetica,sans-Serif" font-size="10.00"> WaitListHead</text>
</g>
<!-- Node3 -->
<g id="node3" class="node">
<title>Node3</title>
<g id="a_node3"><a xlink:title=" ">
<polygon fill="none" stroke="#bfbfbf" points="109,-100.5 109,-119.5 147,-119.5 147,-100.5 109,-100.5"/>
<text text-anchor="middle" x="128" y="-107.5" font-family="Helvetica,sans-Serif" font-size="10.00">long</text>
</a>
</g>
</g>
<!-- Node3&#45;&gt;Node1 -->
<g id="edge2" class="edge">
<title>Node3&#45;&gt;Node1</title>
<path fill="none" stroke="#9a32cd" stroke-dasharray="5,2" d="M128,-90.22C128,-68.95 128,-35.22 128,-19.54"/>
<polygon fill="#9a32cd" stroke="#9a32cd" points="124.5,-90.3 128,-100.3 131.5,-90.3 124.5,-90.3"/>
<text text-anchor="middle" x="157.5" y="-57.5" font-family="Helvetica,sans-Serif" font-size="10.00"> SignalState</text>
</g>
<!-- Node4 -->
<g id="node4" class="node">
<title>Node4</title>
<g id="a_node4"><a xlink:title=" ">
<polygon fill="none" stroke="#bfbfbf" points="179.5,-100.5 179.5,-119.5 240.5,-119.5 240.5,-100.5 179.5,-100.5"/>
<text text-anchor="middle" x="210" y="-107.5" font-family="Helvetica,sans-Serif" font-size="10.00">unsigned</text>
</a>
</g>
</g>
<!-- Node4&#45;&gt;Node1 -->
<g id="edge3" class="edge">
<title>Node4&#45;&gt;Node1</title>
<path fill="none" stroke="#9a32cd" stroke-dasharray="5,2" d="M208.46,-90.42C206.26,-74.76 200.93,-52.62 188,-38 180.58,-29.62 170.05,-23.69 159.88,-19.58"/>
<polygon fill="#9a32cd" stroke="#9a32cd" points="205,-90.92 209.57,-100.48 211.95,-90.16 205,-90.92"/>
<text text-anchor="middle" x="227.5" y="-74" font-family="Helvetica,sans-Serif" font-size="10.00"> Size</text>
<text text-anchor="middle" x="227.5" y="-63" font-family="Helvetica,sans-Serif" font-size="10.00">Absolute</text>
<text text-anchor="middle" x="227.5" y="-52" font-family="Helvetica,sans-Serif" font-size="10.00">Inserted</text>
<text text-anchor="middle" x="227.5" y="-41" font-family="Helvetica,sans-Serif" font-size="10.00">Type</text>
</g>
</g>
</svg>
