<?xml version="1.0" encoding="UTF-8" standalone="no"?>
<!DOCTYPE svg PUBLIC "-//W3C//DTD SVG 1.1//EN"
 "http://www.w3.org/Graphics/SVG/1.1/DTD/svg11.dtd">
<!-- Generated by graphviz version 2.43.0 (0)
 -->
<!-- Title: _SYSTEM_POWER_POLICY Pages: 1 -->
<!--zoomable 481 -->
<svg id="main" version="1.1" xmlns="http://www.w3.org/2000/svg" xmlns:xlink="http://www.w3.org/1999/xlink" xml:space="preserve" onload="init(evt)">
<style type="text/css"><![CDATA[
.edge:hover path { stroke: red; }
.edge:hover polygon { stroke: red; fill: red; }
]]></style>
<script type="text/javascript"><![CDATA[
var edges = document.getElementsByTagName('g');
if (edges && edges.length) {
  for (var i=0;i<edges.length;i++) {
    if (edges[i].id.substr(0,4)=='edge') {
      edges[i].setAttribute('class','edge');
    }
  }
}
]]></script>
        <defs>
                <circle id="rim" cx="0" cy="0" r="7"/>
                <circle id="rim2" cx="0" cy="0" r="3.5"/>
                <g id="zoomPlus">
                        <use xlink:href="#rim" fill="#404040">
                                <set attributeName="fill" to="#808080" begin="zoomplus.mouseover" end="zoomplus.mouseout"/>
                        </use>
                        <path d="M-4,0h8M0,-4v8" fill="none" stroke="white" stroke-width="1.5" pointer-events="none"/>
                </g>
                <g id="zoomMin">
                        <use xlink:href="#rim" fill="#404040">
                                <set attributeName="fill" to="#808080" begin="zoomminus.mouseover" end="zoomminus.mouseout"/>
                        </use>
                        <path d="M-4,0h8" fill="none" stroke="white" stroke-width="1.5" pointer-events="none"/>
                </g>
                <g id="dirArrow">
                        <path fill="none" stroke="white" stroke-width="1.5" d="M0,-3.0v7 M-2.5,-0.5L0,-3.0L2.5,-0.5"/>
                </g>
               <g id="resetDef">
                       <use xlink:href="#rim2" fill="#404040">
                               <set attributeName="fill" to="#808080" begin="reset.mouseover" end="reset.mouseout"/>
                       </use>
               </g>
        </defs>

<script type="text/javascript">
var viewWidth = 528;
var viewHeight = 481;
var sectionId = 'dynsection-0';
</script>
<script xlink:href="../../svgpan.js"/>
<svg id="graph" class="graph">
<g id="viewport">
<title>_SYSTEM_POWER_POLICY</title>
<!-- Node1 -->
<g id="node1" class="node">
<title>Node1</title>
<g id="a_node1"><a xlink:title=" ">
<polygon fill="#bfbfbf" stroke="black" points="378,-247.38 378,-266.38 520,-266.38 520,-247.38 378,-247.38"/>
<text text-anchor="middle" x="449" y="-254.38" font-family="Helvetica,sans-Serif" font-size="10.00">_SYSTEM_POWER_POLICY</text>
</a>
</g>
</g>
<!-- Node2 -->
<g id="node2" class="node">
<title>Node2</title>
<g id="a_node2"><a xlink:title=" ">
<polygon fill="none" stroke="#bfbfbf" points="31.5,-397.38 31.5,-416.38 166.5,-416.38 166.5,-397.38 31.5,-397.38"/>
<text text-anchor="middle" x="99" y="-404.38" font-family="Helvetica,sans-Serif" font-size="10.00">POWER_ACTION_POLICY</text>
</a>
</g>
</g>
<!-- Node2&#45;&gt;Node1 -->
<g id="edge1" class="edge">
<title>Node2&#45;&gt;Node1</title>
<path fill="none" stroke="#9a32cd" stroke-dasharray="5,2" d="M176.59,-416.96C231.29,-420.4 304.69,-417.02 360,-384.88 408.03,-356.97 435.74,-291.09 444.74,-266.43"/>
<polygon fill="#9a32cd" stroke="#9a32cd" points="176.82,-413.47 166.6,-416.25 176.32,-420.45 176.82,-413.47"/>
<text text-anchor="middle" x="288" y="-464.88" font-family="Helvetica,sans-Serif" font-size="10.00"> Idle</text>
<text text-anchor="middle" x="288" y="-453.88" font-family="Helvetica,sans-Serif" font-size="10.00">PowerButton</text>
<text text-anchor="middle" x="288" y="-442.88" font-family="Helvetica,sans-Serif" font-size="10.00">OverThrottled</text>
<text text-anchor="middle" x="288" y="-431.88" font-family="Helvetica,sans-Serif" font-size="10.00">LidClose</text>
<text text-anchor="middle" x="288" y="-420.88" font-family="Helvetica,sans-Serif" font-size="10.00">SleepButton</text>
</g>
<!-- Node3 -->
<g id="node3" class="node">
<title>Node3</title>
<g id="a_node3"><a xlink:title=" ">
<polygon fill="none" stroke="#bfbfbf" points="33.5,-359.38 33.5,-378.38 164.5,-378.38 164.5,-359.38 33.5,-359.38"/>
<text text-anchor="middle" x="99" y="-366.38" font-family="Helvetica,sans-Serif" font-size="10.00">SYSTEM_POWER_LEVEL</text>
</a>
</g>
</g>
<!-- Node3&#45;&gt;Node1 -->
<g id="edge2" class="edge">
<title>Node3&#45;&gt;Node1</title>
<path fill="none" stroke="#9a32cd" stroke-dasharray="5,2" d="M174.73,-374.23C228.65,-375.11 301.88,-370.01 360,-342.88 397.55,-325.35 428.73,-285 441.62,-266.48"/>
<polygon fill="#9a32cd" stroke="#9a32cd" points="174.64,-370.72 164.56,-373.99 174.47,-377.72 174.64,-370.72"/>
<text text-anchor="middle" x="288" y="-375.88" font-family="Helvetica,sans-Serif" font-size="10.00"> DischargePolicy</text>
</g>
<!-- Node4 -->
<g id="node4" class="node">
<title>Node4</title>
<g id="a_node4"><a xlink:title=" ">
<polygon fill="none" stroke="#bfbfbf" points="80,-272.38 80,-291.38 118,-291.38 118,-272.38 80,-272.38"/>
<text text-anchor="middle" x="99" y="-279.38" font-family="Helvetica,sans-Serif" font-size="10.00">char</text>
</a>
</g>
</g>
<!-- Node4&#45;&gt;Node1 -->
<g id="edge3" class="edge">
<title>Node4&#45;&gt;Node1</title>
<path fill="none" stroke="#9a32cd" stroke-dasharray="5,2" d="M128.42,-279.84C182.41,-275.96 301.25,-267.42 377.81,-261.92"/>
<polygon fill="#9a32cd" stroke="#9a32cd" points="127.94,-276.36 118.22,-280.57 128.45,-283.35 127.94,-276.36"/>
<text text-anchor="middle" x="288" y="-330.88" font-family="Helvetica,sans-Serif" font-size="10.00"> FanThrottleTolerance</text>
<text text-anchor="middle" x="288" y="-319.88" font-family="Helvetica,sans-Serif" font-size="10.00">IdleSensitivity</text>
<text text-anchor="middle" x="288" y="-308.88" font-family="Helvetica,sans-Serif" font-size="10.00">DynamicThrottle</text>
<text text-anchor="middle" x="288" y="-297.88" font-family="Helvetica,sans-Serif" font-size="10.00">Spare2</text>
<text text-anchor="middle" x="288" y="-286.88" font-family="Helvetica,sans-Serif" font-size="10.00">ForcedThrottle</text>
<text text-anchor="middle" x="288" y="-275.88" font-family="Helvetica,sans-Serif" font-size="10.00">MinThrottle</text>
</g>
<!-- Node5 -->
<g id="node5" class="node">
<title>Node5</title>
<g id="a_node5"><a xlink:title=" ">
<polygon fill="none" stroke="#bfbfbf" points="18.5,-212.38 18.5,-253.38 179.5,-253.38 179.5,-212.38 18.5,-212.38"/>
<text text-anchor="start" x="26.5" y="-241.38" font-family="Helvetica,sans-Serif" font-size="10.00">PLDAP *typedef(__cdecl</text>
<text text-anchor="start" x="26.5" y="-230.38" font-family="Helvetica,sans-Serif" font-size="10.00"> NOTIFYOFNEWCONNECTION)</text>
<text text-anchor="middle" x="99" y="-219.38" font-family="Helvetica,sans-Serif" font-size="10.00">(PLDAP</text>
</a>
</g>
</g>
<!-- Node5&#45;&gt;Node1 -->
<g id="edge4" class="edge">
<title>Node5&#45;&gt;Node1</title>
<path fill="none" stroke="#9a32cd" stroke-dasharray="5,2" d="M189.86,-229.01C240.09,-228.08 303.73,-228.93 360,-235.88 378.71,-238.19 399.21,-242.95 415.72,-247.35"/>
<polygon fill="#9a32cd" stroke="#9a32cd" points="189.6,-225.52 179.67,-229.23 189.75,-232.52 189.6,-225.52"/>
<text text-anchor="middle" x="288" y="-249.88" font-family="Helvetica,sans-Serif" font-size="10.00"> OptimizeForPower</text>
<text text-anchor="middle" x="288" y="-238.88" font-family="Helvetica,sans-Serif" font-size="10.00">VideoDimDisplay</text>
</g>
<!-- Node6 -->
<g id="node6" class="node">
<title>Node6</title>
<g id="a_node6"><a xlink:title=" ">
<polygon fill="none" stroke="#bfbfbf" points="33.5,-158.38 33.5,-177.38 164.5,-177.38 164.5,-158.38 33.5,-158.38"/>
<text text-anchor="middle" x="99" y="-165.38" font-family="Helvetica,sans-Serif" font-size="10.00">SYSTEM_POWER_STATE</text>
</a>
</g>
</g>
<!-- Node6&#45;&gt;Node1 -->
<g id="edge5" class="edge">
<title>Node6&#45;&gt;Node1</title>
<path fill="none" stroke="#9a32cd" stroke-dasharray="5,2" d="M174.84,-158.55C228.35,-154.88 301.02,-156.15 360,-179.88 395.97,-194.35 427.25,-230.09 440.82,-247.31"/>
<polygon fill="#9a32cd" stroke="#9a32cd" points="174.45,-155.07 164.74,-159.31 174.98,-162.05 174.45,-155.07"/>
<text text-anchor="middle" x="288" y="-215.88" font-family="Helvetica,sans-Serif" font-size="10.00"> MaxSleep</text>
<text text-anchor="middle" x="288" y="-204.88" font-family="Helvetica,sans-Serif" font-size="10.00">LidOpenWake</text>
<text text-anchor="middle" x="288" y="-193.88" font-family="Helvetica,sans-Serif" font-size="10.00">MinSleep</text>
<text text-anchor="middle" x="288" y="-182.88" font-family="Helvetica,sans-Serif" font-size="10.00">ReducedLatencySleep</text>
</g>
<!-- Node7 -->
<g id="node7" class="node">
<title>Node7</title>
<g id="a_node7"><a xlink:title=" ">
<polygon fill="none" stroke="#bfbfbf" points="0,-3.38 0,-44.38 198,-44.38 198,-3.38 0,-3.38"/>
<text text-anchor="start" x="8" y="-32.38" font-family="Helvetica,sans-Serif" font-size="10.00">PSecurityUserData *typedef</text>
<text text-anchor="start" x="8" y="-21.38" font-family="Helvetica,sans-Serif" font-size="10.00"> PSECPKG_EXTENDED_INFORMATION</text>
<text text-anchor="middle" x="99" y="-10.38" font-family="Helvetica,sans-Serif" font-size="10.00"> *typedef</text>
</a>
</g>
</g>
<!-- Node7&#45;&gt;Node1 -->
<g id="edge6" class="edge">
<title>Node7&#45;&gt;Node1</title>
<path fill="none" stroke="#9a32cd" stroke-dasharray="5,2" d="M201.1,-2.16C253,3.23 314.68,0.09 360,-31.88 434.72,-84.59 446,-210.69 447.7,-246.96"/>
<polygon fill="#9a32cd" stroke="#9a32cd" points="200.38,1.28 190.85,-3.35 201.19,-5.67 200.38,1.28"/>
<text text-anchor="middle" x="288" y="-144.88" font-family="Helvetica,sans-Serif" font-size="10.00"> VideoReserved</text>
<text text-anchor="middle" x="288" y="-133.88" font-family="Helvetica,sans-Serif" font-size="10.00">Revision</text>
<text text-anchor="middle" x="288" y="-122.88" font-family="Helvetica,sans-Serif" font-size="10.00">WinLogonFlags</text>
<text text-anchor="middle" x="288" y="-111.88" font-family="Helvetica,sans-Serif" font-size="10.00">SpindownTimeout</text>
<text text-anchor="middle" x="288" y="-100.88" font-family="Helvetica,sans-Serif" font-size="10.00">BroadcastCapacityResolution</text>
<text text-anchor="middle" x="288" y="-89.88" font-family="Helvetica,sans-Serif" font-size="10.00">VideoTimeout</text>
<text text-anchor="middle" x="288" y="-78.88" font-family="Helvetica,sans-Serif" font-size="10.00">IdleTimeout</text>
<text text-anchor="middle" x="288" y="-67.88" font-family="Helvetica,sans-Serif" font-size="10.00">DozeS4Timeout</text>
<text text-anchor="middle" x="288" y="-56.88" font-family="Helvetica,sans-Serif" font-size="10.00">Spare3</text>
<text text-anchor="middle" x="288" y="-45.88" font-family="Helvetica,sans-Serif" font-size="10.00">Reserved</text>
<text text-anchor="middle" x="288" y="-34.88" font-family="Helvetica,sans-Serif" font-size="10.00">...</text>
</g>
</g>
</svg>
        <g id="navigator" transform="translate(0 0)" fill="#404254">
                <rect fill="#f2f5e9" fill-opacity="0.5" stroke="#606060" stroke-width=".5" x="0" y="0" width="60" height="60"/>
                <use id="zoomplus" xlink:href="#zoomPlus" x="17" y="9" onmousedown="handleZoom(evt,'in')"/>
                <use id="zoomminus" xlink:href="#zoomMin" x="42" y="9" onmousedown="handleZoom(evt,'out')"/>
                <use id="reset" xlink:href="#resetDef" x="30" y="36" onmousedown="handleReset()"/>
                <g id="arrowUp" xlink:href="#dirArrow" transform="translate(30 24)" onmousedown="handlePan(0,-1)">
                  <use xlink:href="#rim" fill="#404040">
                        <set attributeName="fill" to="#808080" begin="arrowUp.mouseover" end="arrowUp.mouseout"/>
                  </use>
                  <path fill="none" stroke="white" stroke-width="1.5" d="M0,-3.0v7 M-2.5,-0.5L0,-3.0L2.5,-0.5"/>
                </g>
                <g id="arrowRight" xlink:href="#dirArrow" transform="rotate(90) translate(36 -43)" onmousedown="handlePan(1,0)">
                  <use xlink:href="#rim" fill="#404040">
                        <set attributeName="fill" to="#808080" begin="arrowRight.mouseover" end="arrowRight.mouseout"/>
                  </use>
                  <path fill="none" stroke="white" stroke-width="1.5" d="M0,-3.0v7 M-2.5,-0.5L0,-3.0L2.5,-0.5"/>
                </g>
                <g id="arrowDown" xlink:href="#dirArrow" transform="rotate(180) translate(-30 -48)" onmousedown="handlePan(0,1)">
                  <use xlink:href="#rim" fill="#404040">
                        <set attributeName="fill" to="#808080" begin="arrowDown.mouseover" end="arrowDown.mouseout"/>
                  </use>
                  <path fill="none" stroke="white" stroke-width="1.5" d="M0,-3.0v7 M-2.5,-0.5L0,-3.0L2.5,-0.5"/>
                </g>
                <g id="arrowLeft" xlink:href="#dirArrow" transform="rotate(270) translate(-36 17)" onmousedown="handlePan(-1,0)">
                  <use xlink:href="#rim" fill="#404040">
                        <set attributeName="fill" to="#808080" begin="arrowLeft.mouseover" end="arrowLeft.mouseout"/>
                  </use>
                  <path fill="none" stroke="white" stroke-width="1.5" d="M0,-3.0v7 M-2.5,-0.5L0,-3.0L2.5,-0.5"/>
                </g>
        </g>
        <svg viewBox="0 0 15 15" width="100%" height="30px" preserveAspectRatio="xMaxYMin meet">
         <g id="arrow_out" transform="scale(0.3 0.3)">
          <a xlink:href="struct__SYSTEM__POWER__POLICY__coll__graph_org.svg" target="_base">
           <rect id="button" ry="5" rx="5" y="6" x="6" height="38" width="38"
                fill="#f2f5e9" fill-opacity="0.5" stroke="#606060" stroke-width="1.0"/>
           <path id="arrow"
             d="M 11.500037,31.436501 C 11.940474,20.09759 22.043105,11.32322 32.158766,21.979434 L 37.068811,17.246167 C 37.068811,17.246167 37.088388,32 37.088388,32 L 22.160133,31.978069 C 22.160133,31.978069 26.997745,27.140456 26.997745,27.140456 C 18.528582,18.264221 13.291696,25.230495 11.500037,31.436501 z"
             style="fill:#404040;"/>
          </a>
         </g>
        </svg>
</svg>
