<?xml version="1.0" encoding="UTF-8" standalone="no"?>
<!DOCTYPE svg PUBLIC "-//W3C//DTD SVG 1.1//EN"
 "http://www.w3.org/Graphics/SVG/1.1/DTD/svg11.dtd">
<!-- Generated by graphviz version 2.43.0 (0)
 -->
<!-- Title: _IO_SCSI_CAPABILITIES Pages: 1 -->
<svg width="522pt" height="133pt"
 viewBox="0.00 0.00 522.00 133.00" xmlns="http://www.w3.org/2000/svg" xmlns:xlink="http://www.w3.org/1999/xlink">
<g id="graph0" class="graph" transform="scale(1 1) rotate(0) translate(4 129)">
<title>_IO_SCSI_CAPABILITIES</title>
<!-- Node1 -->
<g id="node1" class="node">
<title>Node1</title>
<g id="a_node1"><a xlink:title=" ">
<polygon fill="#bfbfbf" stroke="black" points="385,-50.5 385,-69.5 514,-69.5 514,-50.5 385,-50.5"/>
<text text-anchor="middle" x="449.5" y="-57.5" font-family="Helvetica,sans-Serif" font-size="10.00">_IO_SCSI_CAPABILITIES</text>
</a>
</g>
</g>
<!-- Node2 -->
<g id="node2" class="node">
<title>Node2</title>
<g id="a_node2"><a xlink:title=" ">
<polygon fill="none" stroke="#bfbfbf" points="18.5,-78.5 18.5,-119.5 179.5,-119.5 179.5,-78.5 18.5,-78.5"/>
<text text-anchor="start" x="26.5" y="-107.5" font-family="Helvetica,sans-Serif" font-size="10.00">PLDAP *typedef(__cdecl</text>
<text text-anchor="start" x="26.5" y="-96.5" font-family="Helvetica,sans-Serif" font-size="10.00"> NOTIFYOFNEWCONNECTION)</text>
<text text-anchor="middle" x="99" y="-85.5" font-family="Helvetica,sans-Serif" font-size="10.00">(PLDAP</text>
</a>
</g>
</g>
<!-- Node2&#45;&gt;Node1 -->
<g id="edge1" class="edge">
<title>Node2&#45;&gt;Node1</title>
<path fill="none" stroke="#9a32cd" stroke-dasharray="5,2" d="M189.92,-94.36C241.85,-91 308.31,-85.51 367,-77 380.3,-75.07 394.7,-72.3 407.63,-69.55"/>
<polygon fill="#9a32cd" stroke="#9a32cd" points="189.49,-90.88 179.74,-95.01 189.94,-97.87 189.49,-90.88"/>
<text text-anchor="middle" x="291.5" y="-117" font-family="Helvetica,sans-Serif" font-size="10.00"> TaggedQueuing</text>
<text text-anchor="middle" x="291.5" y="-106" font-family="Helvetica,sans-Serif" font-size="10.00">AdapterUsesPio</text>
<text text-anchor="middle" x="291.5" y="-95" font-family="Helvetica,sans-Serif" font-size="10.00">AdapterScansDown</text>
</g>
<!-- Node3 -->
<g id="node3" class="node">
<title>Node3</title>
<g id="a_node3"><a xlink:title=" ">
<polygon fill="none" stroke="#bfbfbf" points="0,-0.5 0,-41.5 198,-41.5 198,-0.5 0,-0.5"/>
<text text-anchor="start" x="8" y="-29.5" font-family="Helvetica,sans-Serif" font-size="10.00">PSecurityUserData *typedef</text>
<text text-anchor="start" x="8" y="-18.5" font-family="Helvetica,sans-Serif" font-size="10.00"> PSECPKG_EXTENDED_INFORMATION</text>
<text text-anchor="middle" x="99" y="-7.5" font-family="Helvetica,sans-Serif" font-size="10.00"> *typedef</text>
</a>
</g>
</g>
<!-- Node3&#45;&gt;Node1 -->
<g id="edge2" class="edge">
<title>Node3&#45;&gt;Node1</title>
<path fill="none" stroke="#9a32cd" stroke-dasharray="5,2" d="M208.04,-7.75C257.18,-4.78 315.69,-5.56 367,-18 392.68,-24.23 419.32,-40.04 434.88,-50.39"/>
<polygon fill="#9a32cd" stroke="#9a32cd" points="207.76,-4.26 198.02,-8.42 208.23,-11.25 207.76,-4.26"/>
<text text-anchor="middle" x="291.5" y="-65" font-family="Helvetica,sans-Serif" font-size="10.00"> MaximumPhysicalPages</text>
<text text-anchor="middle" x="291.5" y="-54" font-family="Helvetica,sans-Serif" font-size="10.00">AlignmentMask</text>
<text text-anchor="middle" x="291.5" y="-43" font-family="Helvetica,sans-Serif" font-size="10.00">Length</text>
<text text-anchor="middle" x="291.5" y="-32" font-family="Helvetica,sans-Serif" font-size="10.00">MaximumTransferLength</text>
<text text-anchor="middle" x="291.5" y="-21" font-family="Helvetica,sans-Serif" font-size="10.00">SupportedAsynchronousEvents</text>
</g>
</g>
</svg>
