<?xml version="1.0" encoding="UTF-8" standalone="no"?>
<!DOCTYPE svg PUBLIC "-//W3C//DTD SVG 1.1//EN"
 "http://www.w3.org/Graphics/SVG/1.1/DTD/svg11.dtd">
<!-- Generated by graphviz version 2.43.0 (0)
 -->
<!-- Title: tagEMREOF Pages: 1 -->
<svg width="146pt" height="117pt"
 viewBox="0.00 0.00 146.00 117.00" xmlns="http://www.w3.org/2000/svg" xmlns:xlink="http://www.w3.org/1999/xlink">
<g id="graph0" class="graph" transform="scale(1 1) rotate(0) translate(4 113)">
<title>tagEMREOF</title>
<!-- Node1 -->
<g id="node1" class="node">
<title>Node1</title>
<g id="a_node1"><a xlink:title=" ">
<polygon fill="#bfbfbf" stroke="black" points="16,-0.5 16,-19.5 90,-19.5 90,-0.5 16,-0.5"/>
<text text-anchor="middle" x="53" y="-7.5" font-family="Helvetica,sans-Serif" font-size="10.00">tagEMREOF</text>
</a>
</g>
</g>
<!-- Node2 -->
<g id="node2" class="node">
<title>Node2</title>
<g id="a_node2"><a xlink:title=" ">
<polygon fill="none" stroke="#bfbfbf" points="0,-89.5 0,-108.5 38,-108.5 38,-89.5 0,-89.5"/>
<text text-anchor="middle" x="19" y="-96.5" font-family="Helvetica,sans-Serif" font-size="10.00">EMR</text>
</a>
</g>
</g>
<!-- Node2&#45;&gt;Node1 -->
<g id="edge1" class="edge">
<title>Node2&#45;&gt;Node1</title>
<path fill="none" stroke="#9a32cd" stroke-dasharray="5,2" d="M25.87,-79.78C30.39,-67.87 36.47,-51.98 42,-38 44.38,-31.97 47.13,-25.22 49.29,-19.98"/>
<polygon fill="#9a32cd" stroke="#9a32cd" points="22.48,-78.84 22.22,-89.43 29.03,-81.32 22.48,-78.84"/>
<text text-anchor="middle" x="53.5" y="-52" font-family="Helvetica,sans-Serif" font-size="10.00"> emr</text>
</g>
<!-- Node3 -->
<g id="node3" class="node">
<title>Node3</title>
<g id="a_node3"><a xlink:title=" ">
<polygon fill="none" stroke="#bfbfbf" points="56.5,-89.5 56.5,-108.5 117.5,-108.5 117.5,-89.5 56.5,-89.5"/>
<text text-anchor="middle" x="87" y="-96.5" font-family="Helvetica,sans-Serif" font-size="10.00">unsigned</text>
</a>
</g>
</g>
<!-- Node3&#45;&gt;Node1 -->
<g id="edge2" class="edge">
<title>Node3&#45;&gt;Node1</title>
<path fill="none" stroke="#9a32cd" stroke-dasharray="5,2" d="M80.65,-79.7C76.41,-67.75 70.61,-51.86 65,-38 62.54,-31.91 59.54,-25.16 57.15,-19.94"/>
<polygon fill="#9a32cd" stroke="#9a32cd" points="77.43,-81.11 84.05,-89.39 84.04,-78.79 77.43,-81.11"/>
<text text-anchor="middle" x="107.5" y="-63" font-family="Helvetica,sans-Serif" font-size="10.00"> nPalEntries</text>
<text text-anchor="middle" x="107.5" y="-52" font-family="Helvetica,sans-Serif" font-size="10.00">nSizeLast</text>
<text text-anchor="middle" x="107.5" y="-41" font-family="Helvetica,sans-Serif" font-size="10.00">offPalEntries</text>
</g>
</g>
</svg>
