<?xml version="1.0" encoding="UTF-8" standalone="no"?>
<!DOCTYPE svg PUBLIC "-//W3C//DTD SVG 1.1//EN"
 "http://www.w3.org/Graphics/SVG/1.1/DTD/svg11.dtd">
<!-- Generated by graphviz version 2.43.0 (0)
 -->
<!-- Title: _VIDEO_CHILD_STATE_CONFIGURATION Pages: 1 -->
<svg width="444pt" height="88pt"
 viewBox="0.00 0.00 444.00 88.00" xmlns="http://www.w3.org/2000/svg" xmlns:xlink="http://www.w3.org/1999/xlink">
<g id="graph0" class="graph" transform="scale(1 1) rotate(0) translate(4 84)">
<title>_VIDEO_CHILD_STATE_CONFIGURATION</title>
<!-- Node1 -->
<g id="node1" class="node">
<title>Node1</title>
<g id="a_node1"><a xlink:title=" ">
<polygon fill="#bfbfbf" stroke="black" points="314,-30 314,-60 436,-60 436,-30 314,-30"/>
<text text-anchor="start" x="322" y="-48" font-family="Helvetica,sans-Serif" font-size="10.00">_VIDEO_CHILD_STATE</text>
<text text-anchor="middle" x="375" y="-37" font-family="Helvetica,sans-Serif" font-size="10.00">_CONFIGURATION</text>
</a>
</g>
</g>
<!-- Node2 -->
<g id="node2" class="node">
<title>Node2</title>
<g id="a_node2"><a xlink:title=" ">
<polygon fill="none" stroke="#bfbfbf" points="40.5,-60.5 40.5,-79.5 157.5,-79.5 157.5,-60.5 40.5,-60.5"/>
<text text-anchor="middle" x="99" y="-67.5" font-family="Helvetica,sans-Serif" font-size="10.00">VIDEO_CHILD_STATE</text>
</a>
</g>
</g>
<!-- Node2&#45;&gt;Node1 -->
<g id="edge1" class="edge">
<title>Node2&#45;&gt;Node1</title>
<path fill="none" stroke="#9a32cd" stroke-dasharray="5,2" d="M167.98,-63.8C212.76,-59.71 270.86,-54.41 313.94,-50.48"/>
<polygon fill="#9a32cd" stroke="#9a32cd" points="167.41,-60.33 157.77,-64.73 168.05,-67.31 167.41,-60.33"/>
<text text-anchor="middle" x="256" y="-61" font-family="Helvetica,sans-Serif" font-size="10.00"> ChildStateArray</text>
</g>
<!-- Node3 -->
<g id="node3" class="node">
<title>Node3</title>
<g id="a_node3"><a xlink:title=" ">
<polygon fill="none" stroke="#bfbfbf" points="0,-0.5 0,-41.5 198,-41.5 198,-0.5 0,-0.5"/>
<text text-anchor="start" x="8" y="-29.5" font-family="Helvetica,sans-Serif" font-size="10.00">PSecurityUserData *typedef</text>
<text text-anchor="start" x="8" y="-18.5" font-family="Helvetica,sans-Serif" font-size="10.00"> PSECPKG_EXTENDED_INFORMATION</text>
<text text-anchor="middle" x="99" y="-7.5" font-family="Helvetica,sans-Serif" font-size="10.00"> *typedef</text>
</a>
</g>
</g>
<!-- Node3&#45;&gt;Node1 -->
<g id="edge2" class="edge">
<title>Node3&#45;&gt;Node1</title>
<path fill="none" stroke="#9a32cd" stroke-dasharray="5,2" d="M208.24,-29.43C236.79,-31.77 267.57,-34.38 296,-37 301.83,-37.54 307.9,-38.12 313.97,-38.72"/>
<polygon fill="#9a32cd" stroke="#9a32cd" points="208.49,-25.94 198.24,-28.62 207.92,-32.92 208.49,-25.94"/>
<text text-anchor="middle" x="256" y="-40" font-family="Helvetica,sans-Serif" font-size="10.00"> Count</text>
</g>
</g>
</svg>
