<?xml version="1.0" encoding="UTF-8" standalone="no"?>
<!DOCTYPE svg PUBLIC "-//W3C//DTD SVG 1.1//EN"
 "http://www.w3.org/Graphics/SVG/1.1/DTD/svg11.dtd">
<!-- Generated by graphviz version 2.43.0 (0)
 -->
<!-- Title: __gnu_profile::__trace_list_to_slist Pages: 1 -->
<!--zoomable 236 -->
<svg id="main" version="1.1" xmlns="http://www.w3.org/2000/svg" xmlns:xlink="http://www.w3.org/1999/xlink" xml:space="preserve" onload="init(evt)">
<style type="text/css"><![CDATA[
.edge:hover path { stroke: red; }
.edge:hover polygon { stroke: red; fill: red; }
]]></style>
<script type="text/javascript"><![CDATA[
var edges = document.getElementsByTagName('g');
if (edges && edges.length) {
  for (var i=0;i<edges.length;i++) {
    if (edges[i].id.substr(0,4)=='edge') {
      edges[i].setAttribute('class','edge');
    }
  }
}
]]></script>
        <defs>
                <circle id="rim" cx="0" cy="0" r="7"/>
                <circle id="rim2" cx="0" cy="0" r="3.5"/>
                <g id="zoomPlus">
                        <use xlink:href="#rim" fill="#404040">
                                <set attributeName="fill" to="#808080" begin="zoomplus.mouseover" end="zoomplus.mouseout"/>
                        </use>
                        <path d="M-4,0h8M0,-4v8" fill="none" stroke="white" stroke-width="1.5" pointer-events="none"/>
                </g>
                <g id="zoomMin">
                        <use xlink:href="#rim" fill="#404040">
                                <set attributeName="fill" to="#808080" begin="zoomminus.mouseover" end="zoomminus.mouseout"/>
                        </use>
                        <path d="M-4,0h8" fill="none" stroke="white" stroke-width="1.5" pointer-events="none"/>
                </g>
                <g id="dirArrow">
                        <path fill="none" stroke="white" stroke-width="1.5" d="M0,-3.0v7 M-2.5,-0.5L0,-3.0L2.5,-0.5"/>
                </g>
               <g id="resetDef">
                       <use xlink:href="#rim2" fill="#404040">
                               <set attributeName="fill" to="#808080" begin="reset.mouseover" end="reset.mouseout"/>
                       </use>
               </g>
        </defs>

<script type="text/javascript">
var viewWidth = 625;
var viewHeight = 236;
var sectionId = 'dynsection-1';
</script>
<script xlink:href="../../svgpan.js"/>
<svg id="graph" class="graph">
<g id="viewport">
<title>__gnu_profile::__trace_list_to_slist</title>
<!-- Node1 -->
<g id="node1" class="node">
<title>Node1</title>
<g id="a_node1"><a xlink:title=" ">
<polygon fill="#bfbfbf" stroke="black" points="495,-82 495,-112 617,-112 617,-82 495,-82"/>
<text text-anchor="start" x="503" y="-100" font-family="Helvetica,sans-Serif" font-size="10.00">__gnu_profile::__trace</text>
<text text-anchor="middle" x="556" y="-89" font-family="Helvetica,sans-Serif" font-size="10.00">_list_to_slist</text>
</a>
</g>
</g>
<!-- Node2 -->
<g id="node2" class="node">
<title>Node2</title>
<g id="a_node2"><a xlink:href="../../d2/d84/class____gnu__profile_1_1____trace__base.html" target="_top" xlink:title=" ">
<polygon fill="none" stroke="black" points="320,-76.5 320,-117.5 458,-117.5 458,-76.5 320,-76.5"/>
<text text-anchor="start" x="328" y="-105.5" font-family="Helvetica,sans-Serif" font-size="10.00">__gnu_profile::__trace</text>
<text text-anchor="start" x="328" y="-94.5" font-family="Helvetica,sans-Serif" font-size="10.00">_base&lt; __list2slist_info,</text>
<text text-anchor="middle" x="389" y="-83.5" font-family="Helvetica,sans-Serif" font-size="10.00"> __list2slist_stack_info &gt;</text>
</a>
</g>
</g>
<!-- Node2&#45;&gt;Node1 -->
<g id="edge1" class="edge">
<title>Node2&#45;&gt;Node1</title>
<path fill="none" stroke="midnightblue" d="M468.12,-97C477.06,-97 486.08,-97 494.74,-97"/>
<polygon fill="midnightblue" stroke="midnightblue" points="468.06,-93.5 458.06,-97 468.06,-100.5 468.06,-93.5"/>
</g>
<!-- Node3 -->
<g id="node3" class="node">
<title>Node3</title>
<g id="a_node3"><a xlink:title=" ">
<polygon fill="none" stroke="#bfbfbf" points="51.5,-208.5 51.5,-227.5 110.5,-227.5 110.5,-208.5 51.5,-208.5"/>
<text text-anchor="middle" x="81" y="-215.5" font-family="Helvetica,sans-Serif" font-size="10.00">__mutex</text>
</a>
</g>
</g>
<!-- Node3&#45;&gt;Node2 -->
<g id="edge2" class="edge">
<title>Node3&#45;&gt;Node2</title>
<path fill="none" stroke="#9a32cd" stroke-dasharray="5,2" d="M120.52,-211.39C165.63,-202.7 241.82,-185.04 302,-156 323.69,-145.53 346.05,-130.02 362.54,-117.52"/>
<polygon fill="#9a32cd" stroke="#9a32cd" points="119.75,-207.97 110.57,-213.26 121.05,-214.85 119.75,-207.97"/>
<text text-anchor="middle" x="241" y="-210" font-family="Helvetica,sans-Serif" font-size="10.00"> __stack_table_lock</text>
<text text-anchor="middle" x="241" y="-199" font-family="Helvetica,sans-Serif" font-size="10.00">__object_table_lock</text>
</g>
<!-- Node4 -->
<g id="node4" class="node">
<title>Node4</title>
<g id="a_node4"><a xlink:href="../../d7/d24/class__GLIBCXX__IMPL__UNORDERED__MAP_3_01____stack__t_00_01____list2slist__stack__info_00_01____4f9c471fd440fd673bd3965cd3e90fe7.html" target="_top" xlink:title=" ">
<polygon fill="none" stroke="black" points="0.5,-137 0.5,-189 161.5,-189 161.5,-137 0.5,-137"/>
<text text-anchor="start" x="8.5" y="-177" font-family="Helvetica,sans-Serif" font-size="10.00">_GLIBCXX_IMPL_UNORDERED</text>
<text text-anchor="start" x="8.5" y="-166" font-family="Helvetica,sans-Serif" font-size="10.00">_MAP&lt; __stack_t, __list2slist</text>
<text text-anchor="start" x="8.5" y="-155" font-family="Helvetica,sans-Serif" font-size="10.00">_stack_info, __stack_hash,</text>
<text text-anchor="middle" x="81" y="-144" font-family="Helvetica,sans-Serif" font-size="10.00"> __stack_hash &gt;</text>
</a>
</g>
</g>
<!-- Node4&#45;&gt;Node2 -->
<g id="edge3" class="edge">
<title>Node4&#45;&gt;Node2</title>
<path fill="none" stroke="#9a32cd" stroke-dasharray="5,2" d="M171.56,-143.68C218.96,-133.46 276.23,-121.11 319.95,-111.68"/>
<polygon fill="#9a32cd" stroke="#9a32cd" points="170.64,-140.3 161.6,-145.83 172.11,-147.14 170.64,-140.3"/>
<text text-anchor="middle" x="241" y="-144" font-family="Helvetica,sans-Serif" font-size="10.00"> __stack_table</text>
</g>
<!-- Node5 -->
<g id="node5" class="node">
<title>Node5</title>
<g id="a_node5"><a xlink:href="../../d1/d08/class__GLIBCXX__IMPL__UNORDERED__MAP_3_01____object__t_00_01____list2slist__info_01_4.html" target="_top" xlink:title=" ">
<polygon fill="none" stroke="black" points="0,-76.5 0,-117.5 162,-117.5 162,-76.5 0,-76.5"/>
<text text-anchor="start" x="8" y="-105.5" font-family="Helvetica,sans-Serif" font-size="10.00">_GLIBCXX_IMPL_UNORDERED</text>
<text text-anchor="start" x="8" y="-94.5" font-family="Helvetica,sans-Serif" font-size="10.00">_MAP&lt; __object_t, __list2slist</text>
<text text-anchor="middle" x="81" y="-83.5" font-family="Helvetica,sans-Serif" font-size="10.00">_info &gt;</text>
</a>
</g>
</g>
<!-- Node5&#45;&gt;Node2 -->
<g id="edge4" class="edge">
<title>Node5&#45;&gt;Node2</title>
<path fill="none" stroke="#9a32cd" stroke-dasharray="5,2" d="M172.61,-97C219.75,-97 276.42,-97 319.79,-97"/>
<polygon fill="#9a32cd" stroke="#9a32cd" points="172.4,-93.5 162.4,-97 172.4,-100.5 172.4,-93.5"/>
<text text-anchor="middle" x="241" y="-100" font-family="Helvetica,sans-Serif" font-size="10.00"> __object_table</text>
</g>
<!-- Node6 -->
<g id="node6" class="node">
<title>Node6</title>
<g id="a_node6"><a xlink:href="../../d3/d88/classconst_01char_01_5.html" target="_top" xlink:title=" ">
<polygon fill="none" stroke="black" points="43.5,-38.5 43.5,-57.5 118.5,-57.5 118.5,-38.5 43.5,-38.5"/>
<text text-anchor="middle" x="81" y="-45.5" font-family="Helvetica,sans-Serif" font-size="10.00">const char *</text>
</a>
</g>
</g>
<!-- Node6&#45;&gt;Node2 -->
<g id="edge5" class="edge">
<title>Node6&#45;&gt;Node2</title>
<path fill="none" stroke="#9a32cd" stroke-dasharray="5,2" d="M128.58,-54.93C173.13,-61.62 242.21,-72.17 302,-82 307.83,-82.96 313.88,-83.97 319.95,-85.01"/>
<polygon fill="#9a32cd" stroke="#9a32cd" points="129.03,-51.46 118.63,-53.44 128,-58.38 129.03,-51.46"/>
<text text-anchor="middle" x="241" y="-85" font-family="Helvetica,sans-Serif" font-size="10.00"> __id</text>
</g>
<!-- Node7 -->
<g id="node7" class="node">
<title>Node7</title>
<g id="a_node7"><a xlink:href="../../d2/d5f/classunsigned_01int.html" target="_top" xlink:title=" ">
<polygon fill="none" stroke="black" points="42.5,-0.5 42.5,-19.5 119.5,-19.5 119.5,-0.5 42.5,-0.5"/>
<text text-anchor="middle" x="81" y="-7.5" font-family="Helvetica,sans-Serif" font-size="10.00">unsigned int</text>
</a>
</g>
</g>
<!-- Node7&#45;&gt;Node2 -->
<g id="edge6" class="edge">
<title>Node7&#45;&gt;Node2</title>
<path fill="none" stroke="#9a32cd" stroke-dasharray="5,2" d="M129.74,-13.45C175.14,-17.84 244.8,-27.48 302,-48 321.57,-55.02 341.85,-66.35 357.8,-76.35"/>
<polygon fill="#9a32cd" stroke="#9a32cd" points="129.87,-9.95 119.59,-12.52 129.23,-16.92 129.87,-9.95"/>
<text text-anchor="middle" x="241" y="-51" font-family="Helvetica,sans-Serif" font-size="10.00"> __stack_table_byte_size</text>
</g>
</g>
</svg>
        <g id="navigator" transform="translate(0 0)" fill="#404254">
                <rect fill="#f2f5e9" fill-opacity="0.5" stroke="#606060" stroke-width=".5" x="0" y="0" width="60" height="60"/>
                <use id="zoomplus" xlink:href="#zoomPlus" x="17" y="9" onmousedown="handleZoom(evt,'in')"/>
                <use id="zoomminus" xlink:href="#zoomMin" x="42" y="9" onmousedown="handleZoom(evt,'out')"/>
                <use id="reset" xlink:href="#resetDef" x="30" y="36" onmousedown="handleReset()"/>
                <g id="arrowUp" xlink:href="#dirArrow" transform="translate(30 24)" onmousedown="handlePan(0,-1)">
                  <use xlink:href="#rim" fill="#404040">
                        <set attributeName="fill" to="#808080" begin="arrowUp.mouseover" end="arrowUp.mouseout"/>
                  </use>
                  <path fill="none" stroke="white" stroke-width="1.5" d="M0,-3.0v7 M-2.5,-0.5L0,-3.0L2.5,-0.5"/>
                </g>
                <g id="arrowRight" xlink:href="#dirArrow" transform="rotate(90) translate(36 -43)" onmousedown="handlePan(1,0)">
                  <use xlink:href="#rim" fill="#404040">
                        <set attributeName="fill" to="#808080" begin="arrowRight.mouseover" end="arrowRight.mouseout"/>
                  </use>
                  <path fill="none" stroke="white" stroke-width="1.5" d="M0,-3.0v7 M-2.5,-0.5L0,-3.0L2.5,-0.5"/>
                </g>
                <g id="arrowDown" xlink:href="#dirArrow" transform="rotate(180) translate(-30 -48)" onmousedown="handlePan(0,1)">
                  <use xlink:href="#rim" fill="#404040">
                        <set attributeName="fill" to="#808080" begin="arrowDown.mouseover" end="arrowDown.mouseout"/>
                  </use>
                  <path fill="none" stroke="white" stroke-width="1.5" d="M0,-3.0v7 M-2.5,-0.5L0,-3.0L2.5,-0.5"/>
                </g>
                <g id="arrowLeft" xlink:href="#dirArrow" transform="rotate(270) translate(-36 17)" onmousedown="handlePan(-1,0)">
                  <use xlink:href="#rim" fill="#404040">
                        <set attributeName="fill" to="#808080" begin="arrowLeft.mouseover" end="arrowLeft.mouseout"/>
                  </use>
                  <path fill="none" stroke="white" stroke-width="1.5" d="M0,-3.0v7 M-2.5,-0.5L0,-3.0L2.5,-0.5"/>
                </g>
        </g>
        <svg viewBox="0 0 15 15" width="100%" height="30px" preserveAspectRatio="xMaxYMin meet">
         <g id="arrow_out" transform="scale(0.3 0.3)">
          <a xlink:href="class____gnu__profile_1_1____trace__list__to__slist__coll__graph_org.svg" target="_base">
           <rect id="button" ry="5" rx="5" y="6" x="6" height="38" width="38"
                fill="#f2f5e9" fill-opacity="0.5" stroke="#606060" stroke-width="1.0"/>
           <path id="arrow"
             d="M 11.500037,31.436501 C 11.940474,20.09759 22.043105,11.32322 32.158766,21.979434 L 37.068811,17.246167 C 37.068811,17.246167 37.088388,32 37.088388,32 L 22.160133,31.978069 C 22.160133,31.978069 26.997745,27.140456 26.997745,27.140456 C 18.528582,18.264221 13.291696,25.230495 11.500037,31.436501 z"
             style="fill:#404040;"/>
          </a>
         </g>
        </svg>
</svg>
