<?xml version="1.0" encoding="UTF-8" standalone="no"?>
<!DOCTYPE svg PUBLIC "-//W3C//DTD SVG 1.1//EN"
 "http://www.w3.org/Graphics/SVG/1.1/DTD/svg11.dtd">
<!-- Generated by graphviz version 2.43.0 (0)
 -->
<!-- Title: netchan_buffer_s Pages: 1 -->
<svg width="259pt" height="195pt"
 viewBox="0.00 0.00 258.50 195.00" xmlns="http://www.w3.org/2000/svg" xmlns:xlink="http://www.w3.org/1999/xlink">
<g id="graph0" class="graph" transform="scale(1 1) rotate(0) translate(4 191)">
<title>netchan_buffer_s</title>
<!-- Node1 -->
<g id="node1" class="node">
<title>Node1</title>
<g id="a_node1"><a xlink:title=" ">
<polygon fill="#bfbfbf" stroke="black" points="18.5,-0.5 18.5,-19.5 118.5,-19.5 118.5,-0.5 18.5,-0.5"/>
<text text-anchor="middle" x="68.5" y="-7.5" font-family="Helvetica,sans-Serif" font-size="10.00">netchan_buffer_s</text>
</a>
</g>
</g>
<!-- Node1&#45;&gt;Node1 -->
<g id="edge1" class="edge">
<title>Node1&#45;&gt;Node1</title>
<path fill="none" stroke="#9a32cd" stroke-dasharray="5,2" d="M128.85,-14.55C133.58,-13.55 136.5,-12.03 136.5,-10 136.5,-6.75 129.02,-4.82 118.61,-4.21"/>
<polygon fill="#9a32cd" stroke="#9a32cd" points="128.12,-11.11 118.61,-15.79 128.96,-18.06 128.12,-11.11"/>
<text text-anchor="middle" x="149" y="-7.5" font-family="Helvetica,sans-Serif" font-size="10.00"> next</text>
</g>
<!-- Node2 -->
<g id="node2" class="node">
<title>Node2</title>
<g id="a_node2"><a xlink:title=" ">
<polygon fill="none" stroke="#bfbfbf" points="0,-67.5 0,-86.5 61,-86.5 61,-67.5 0,-67.5"/>
<text text-anchor="middle" x="30.5" y="-74.5" font-family="Helvetica,sans-Serif" font-size="10.00">unsigned</text>
</a>
</g>
</g>
<!-- Node2&#45;&gt;Node1 -->
<g id="edge2" class="edge">
<title>Node2&#45;&gt;Node1</title>
<path fill="none" stroke="#9a32cd" stroke-dasharray="5,2" d="M27.74,-56.89C27.65,-50.57 28.51,-43.7 31.5,-38 35.64,-30.11 43.24,-23.96 50.48,-19.53"/>
<polygon fill="#9a32cd" stroke="#9a32cd" points="24.29,-57.65 28.65,-67.31 31.26,-57.04 24.29,-57.65"/>
<text text-anchor="middle" x="58.5" y="-41" font-family="Helvetica,sans-Serif" font-size="10.00"> msgBuffer</text>
</g>
<!-- Node3 -->
<g id="node3" class="node">
<title>Node3</title>
<g id="a_node3"><a xlink:href="../../d1/deb/structmsg__t.html" target="_top" xlink:title=" ">
<polygon fill="none" stroke="black" points="84,-67.5 84,-86.5 131,-86.5 131,-67.5 84,-67.5"/>
<text text-anchor="middle" x="107.5" y="-74.5" font-family="Helvetica,sans-Serif" font-size="10.00">msg_t</text>
</a>
</g>
</g>
<!-- Node3&#45;&gt;Node1 -->
<g id="edge3" class="edge">
<title>Node3&#45;&gt;Node1</title>
<path fill="none" stroke="#9a32cd" stroke-dasharray="5,2" d="M97.72,-58.8C93.95,-52.25 89.58,-44.75 85.5,-38 81.83,-31.93 77.58,-25.18 74.25,-19.95"/>
<polygon fill="#9a32cd" stroke="#9a32cd" points="94.69,-60.55 102.7,-67.5 100.77,-57.08 94.69,-60.55"/>
<text text-anchor="middle" x="104" y="-41" font-family="Helvetica,sans-Serif" font-size="10.00"> msg</text>
</g>
<!-- Node4 -->
<g id="node4" class="node">
<title>Node4</title>
<g id="a_node4"><a xlink:title=" ">
<polygon fill="none" stroke="#bfbfbf" points="28,-167.5 28,-186.5 75,-186.5 75,-167.5 28,-167.5"/>
<text text-anchor="middle" x="51.5" y="-174.5" font-family="Helvetica,sans-Serif" font-size="10.00">byte *</text>
</a>
</g>
</g>
<!-- Node4&#45;&gt;Node3 -->
<g id="edge4" class="edge">
<title>Node4&#45;&gt;Node3</title>
<path fill="none" stroke="#9a32cd" stroke-dasharray="5,2" d="M56.04,-157.42C60.28,-142.41 67.6,-121.2 78.5,-105 83.18,-98.04 89.99,-91.58 95.83,-86.73"/>
<polygon fill="#9a32cd" stroke="#9a32cd" points="52.65,-156.53 53.49,-167.09 59.42,-158.31 52.65,-156.53"/>
<text text-anchor="middle" x="91" y="-124.5" font-family="Helvetica,sans-Serif" font-size="10.00"> data</text>
</g>
<!-- Node5 -->
<g id="node5" class="node">
<title>Node5</title>
<g id="a_node5"><a xlink:title=" ">
<polygon fill="none" stroke="#bfbfbf" points="93,-167.5 93,-186.5 122,-186.5 122,-167.5 93,-167.5"/>
<text text-anchor="middle" x="107.5" y="-174.5" font-family="Helvetica,sans-Serif" font-size="10.00">int</text>
</a>
</g>
</g>
<!-- Node5&#45;&gt;Node3 -->
<g id="edge5" class="edge">
<title>Node5&#45;&gt;Node3</title>
<path fill="none" stroke="#9a32cd" stroke-dasharray="5,2" d="M107.5,-157.22C107.5,-135.95 107.5,-102.22 107.5,-86.54"/>
<polygon fill="#9a32cd" stroke="#9a32cd" points="104,-157.3 107.5,-167.3 111,-157.3 104,-157.3"/>
<text text-anchor="middle" x="133.5" y="-141" font-family="Helvetica,sans-Serif" font-size="10.00"> readcount</text>
<text text-anchor="middle" x="133.5" y="-130" font-family="Helvetica,sans-Serif" font-size="10.00">bit</text>
<text text-anchor="middle" x="133.5" y="-119" font-family="Helvetica,sans-Serif" font-size="10.00">cursize</text>
<text text-anchor="middle" x="133.5" y="-108" font-family="Helvetica,sans-Serif" font-size="10.00">maxsize</text>
</g>
<!-- Node6 -->
<g id="node6" class="node">
<title>Node6</title>
<g id="a_node6"><a xlink:title=" ">
<polygon fill="none" stroke="#bfbfbf" points="151.5,-167.5 151.5,-186.5 213.5,-186.5 213.5,-167.5 151.5,-167.5"/>
<text text-anchor="middle" x="182.5" y="-174.5" font-family="Helvetica,sans-Serif" font-size="10.00">qboolean</text>
</a>
</g>
</g>
<!-- Node6&#45;&gt;Node3 -->
<g id="edge6" class="edge">
<title>Node6&#45;&gt;Node3</title>
<path fill="none" stroke="#9a32cd" stroke-dasharray="5,2" d="M180.71,-157.07C178.36,-141.54 172.94,-119.77 160.5,-105 152.85,-95.92 141.38,-89.55 131.06,-85.28"/>
<polygon fill="#9a32cd" stroke="#9a32cd" points="177.24,-157.59 181.93,-167.1 184.19,-156.74 177.24,-157.59"/>
<text text-anchor="middle" x="214.5" y="-135.5" font-family="Helvetica,sans-Serif" font-size="10.00"> allowoverflow</text>
<text text-anchor="middle" x="214.5" y="-124.5" font-family="Helvetica,sans-Serif" font-size="10.00">oob</text>
<text text-anchor="middle" x="214.5" y="-113.5" font-family="Helvetica,sans-Serif" font-size="10.00">overflowed</text>
</g>
</g>
</svg>
