<?xml version="1.0" encoding="UTF-8" standalone="no"?>
<!DOCTYPE svg PUBLIC "-//W3C//DTD SVG 1.1//EN"
 "http://www.w3.org/Graphics/SVG/1.1/DTD/svg11.dtd">
<!-- Generated by graphviz version 2.43.0 (0)
 -->
<!-- Title: CID_FaceDict Pages: 1 -->
<!--zoomable 139 -->
<svg id="main" version="1.1" xmlns="http://www.w3.org/2000/svg" xmlns:xlink="http://www.w3.org/1999/xlink" xml:space="preserve" onload="init(evt)">
<style type="text/css"><![CDATA[
.edge:hover path { stroke: red; }
.edge:hover polygon { stroke: red; fill: red; }
]]></style>
<script type="text/javascript"><![CDATA[
var edges = document.getElementsByTagName('g');
if (edges && edges.length) {
  for (var i=0;i<edges.length;i++) {
    if (edges[i].id.substr(0,4)=='edge') {
      edges[i].setAttribute('class','edge');
    }
  }
}
]]></script>
        <defs>
                <circle id="rim" cx="0" cy="0" r="7"/>
                <circle id="rim2" cx="0" cy="0" r="3.5"/>
                <g id="zoomPlus">
                        <use xlink:href="#rim" fill="#404040">
                                <set attributeName="fill" to="#808080" begin="zoomplus.mouseover" end="zoomplus.mouseout"/>
                        </use>
                        <path d="M-4,0h8M0,-4v8" fill="none" stroke="white" stroke-width="1.5" pointer-events="none"/>
                </g>
                <g id="zoomMin">
                        <use xlink:href="#rim" fill="#404040">
                                <set attributeName="fill" to="#808080" begin="zoomminus.mouseover" end="zoomminus.mouseout"/>
                        </use>
                        <path d="M-4,0h8" fill="none" stroke="white" stroke-width="1.5" pointer-events="none"/>
                </g>
                <g id="dirArrow">
                        <path fill="none" stroke="white" stroke-width="1.5" d="M0,-3.0v7 M-2.5,-0.5L0,-3.0L2.5,-0.5"/>
                </g>
               <g id="resetDef">
                       <use xlink:href="#rim2" fill="#404040">
                               <set attributeName="fill" to="#808080" begin="reset.mouseover" end="reset.mouseout"/>
                       </use>
               </g>
        </defs>

<script type="text/javascript">
var viewWidth = 648;
var viewHeight = 139;
var sectionId = 'dynsection-0';
</script>
<script xlink:href="../../svgpan.js"/>
<svg id="graph" class="graph">
<g id="viewport">
<title>CID_FaceDict</title>
<!-- Node1 -->
<g id="node1" class="node">
<title>Node1</title>
<g id="a_node1"><a xlink:title=" ">
<polygon fill="#bfbfbf" stroke="black" points="228,-0.5 228,-19.5 308,-19.5 308,-0.5 228,-0.5"/>
<text text-anchor="middle" x="268" y="-7.5" font-family="Helvetica,sans-Serif" font-size="10.00">CID_FaceDict</text>
</a>
</g>
</g>
<!-- Node2 -->
<g id="node2" class="node">
<title>Node2</title>
<g id="a_node2"><a xlink:title=" ">
<polygon fill="none" stroke="#bfbfbf" points="0,-111.5 0,-130.5 50,-130.5 50,-111.5 0,-111.5"/>
<text text-anchor="middle" x="25" y="-118.5" font-family="Helvetica,sans-Serif" font-size="10.00">FT_Pos</text>
</a>
</g>
</g>
<!-- Node2&#45;&gt;Node1 -->
<g id="edge1" class="edge">
<title>Node2&#45;&gt;Node1</title>
<path fill="none" stroke="#9a32cd" stroke-dasharray="5,2" d="M23.68,-101.43C23.45,-82.54 26.36,-53.84 44,-38 70.31,-14.38 170.88,-10.65 227.91,-10.5"/>
<polygon fill="#9a32cd" stroke="#9a32cd" points="20.19,-101.65 24.11,-111.49 27.18,-101.35 20.19,-101.65"/>
<text text-anchor="middle" x="77" y="-63" font-family="Helvetica,sans-Serif" font-size="10.00"> stroke_width</text>
</g>
<!-- Node3 -->
<g id="node3" class="node">
<title>Node3</title>
<g id="a_node3"><a xlink:title=" ">
<polygon fill="none" stroke="#bfbfbf" points="99.5,-111.5 99.5,-130.5 128.5,-130.5 128.5,-111.5 99.5,-111.5"/>
<text text-anchor="middle" x="114" y="-118.5" font-family="Helvetica,sans-Serif" font-size="10.00">int</text>
</a>
</g>
</g>
<!-- Node3&#45;&gt;Node1 -->
<g id="edge2" class="edge">
<title>Node3&#45;&gt;Node1</title>
<path fill="none" stroke="#9a32cd" stroke-dasharray="5,2" d="M112.93,-101.15C112.97,-82.47 116.15,-54.35 133,-38 146.3,-25.1 192.98,-17.92 227.75,-14.27"/>
<polygon fill="#9a32cd" stroke="#9a32cd" points="109.44,-101.48 113.22,-111.37 116.44,-101.28 109.44,-101.48"/>
<text text-anchor="middle" x="156.5" y="-63" font-family="Helvetica,sans-Serif" font-size="10.00"> sd_bytes</text>
</g>
<!-- Node4 -->
<g id="node4" class="node">
<title>Node4</title>
<g id="a_node4"><a xlink:title=" ">
<polygon fill="none" stroke="#bfbfbf" points="151.5,-111.5 151.5,-130.5 216.5,-130.5 216.5,-111.5 151.5,-111.5"/>
<text text-anchor="middle" x="184" y="-118.5" font-family="Helvetica,sans-Serif" font-size="10.00">FT_Matrix</text>
</a>
</g>
</g>
<!-- Node4&#45;&gt;Node1 -->
<g id="edge3" class="edge">
<title>Node4&#45;&gt;Node1</title>
<path fill="none" stroke="#9a32cd" stroke-dasharray="5,2" d="M183.66,-100.98C184.33,-82.81 188.06,-55.65 203,-38 210.18,-29.51 220.47,-23.65 230.75,-19.61"/>
<polygon fill="#9a32cd" stroke="#9a32cd" points="180.16,-101.17 183.57,-111.2 187.16,-101.23 180.16,-101.17"/>
<text text-anchor="middle" x="233.5" y="-63" font-family="Helvetica,sans-Serif" font-size="10.00"> font_matrix</text>
</g>
<!-- Node5 -->
<g id="node5" class="node">
<title>Node5</title>
<g id="a_node5"><a xlink:title=" ">
<polygon fill="none" stroke="#bfbfbf" points="249,-111.5 249,-130.5 287,-130.5 287,-111.5 249,-111.5"/>
<text text-anchor="middle" x="268" y="-118.5" font-family="Helvetica,sans-Serif" font-size="10.00">long</text>
</a>
</g>
</g>
<!-- Node5&#45;&gt;Node1 -->
<g id="edge4" class="edge">
<title>Node5&#45;&gt;Node1</title>
<path fill="none" stroke="#9a32cd" stroke-dasharray="5,2" d="M268,-101.19C268,-77.28 268,-36.99 268,-19.51"/>
<polygon fill="#9a32cd" stroke="#9a32cd" points="264.5,-101.45 268,-111.45 271.5,-101.45 264.5,-101.45"/>
<text text-anchor="middle" x="316.5" y="-68.5" font-family="Helvetica,sans-Serif" font-size="10.00"> expansion_factor</text>
<text text-anchor="middle" x="316.5" y="-57.5" font-family="Helvetica,sans-Serif" font-size="10.00">forcebold_threshold</text>
</g>
<!-- Node6 -->
<g id="node6" class="node">
<title>Node6</title>
<g id="a_node6"><a xlink:title=" ">
<polygon fill="none" stroke="#bfbfbf" points="357.5,-111.5 357.5,-130.5 418.5,-130.5 418.5,-111.5 357.5,-111.5"/>
<text text-anchor="middle" x="388" y="-118.5" font-family="Helvetica,sans-Serif" font-size="10.00">unsigned</text>
</a>
</g>
</g>
<!-- Node6&#45;&gt;Node1 -->
<g id="edge5" class="edge">
<title>Node6&#45;&gt;Node1</title>
<path fill="none" stroke="#9a32cd" stroke-dasharray="5,2" d="M388.06,-101.34C387.09,-82.81 382.69,-54.8 366,-38 350.95,-22.85 328.23,-15.99 308.46,-12.97"/>
<polygon fill="#9a32cd" stroke="#9a32cd" points="384.57,-101.56 388.3,-111.47 391.56,-101.39 384.57,-101.56"/>
<text text-anchor="middle" x="426.5" y="-85" font-family="Helvetica,sans-Serif" font-size="10.00"> subrmap_offset</text>
<text text-anchor="middle" x="426.5" y="-74" font-family="Helvetica,sans-Serif" font-size="10.00">num_subrs</text>
<text text-anchor="middle" x="426.5" y="-63" font-family="Helvetica,sans-Serif" font-size="10.00">font_type</text>
<text text-anchor="middle" x="426.5" y="-52" font-family="Helvetica,sans-Serif" font-size="10.00">paint_type</text>
<text text-anchor="middle" x="426.5" y="-41" font-family="Helvetica,sans-Serif" font-size="10.00">len_buildchar</text>
</g>
<!-- Node7 -->
<g id="node7" class="node">
<title>Node7</title>
<g id="a_node7"><a xlink:title=" ">
<polygon fill="none" stroke="#bfbfbf" points="458,-111.5 458,-130.5 522,-130.5 522,-111.5 458,-111.5"/>
<text text-anchor="middle" x="490" y="-118.5" font-family="Helvetica,sans-Serif" font-size="10.00">FT_Vector</text>
</a>
</g>
</g>
<!-- Node7&#45;&gt;Node1 -->
<g id="edge6" class="edge">
<title>Node7&#45;&gt;Node1</title>
<path fill="none" stroke="#9a32cd" stroke-dasharray="5,2" d="M490.53,-101.42C489.99,-82.51 485.96,-53.79 468,-38 444.91,-17.69 359.49,-12.54 308.04,-11.31"/>
<polygon fill="#9a32cd" stroke="#9a32cd" points="487.03,-101.48 490.52,-111.48 494.03,-101.49 487.03,-101.48"/>
<text text-anchor="middle" x="518" y="-63" font-family="Helvetica,sans-Serif" font-size="10.00"> font_offset</text>
</g>
<!-- Node8 -->
<g id="node8" class="node">
<title>Node8</title>
<g id="a_node8"><a xlink:title=" ">
<polygon fill="none" stroke="#bfbfbf" points="540,-111.5 540,-130.5 626,-130.5 626,-111.5 540,-111.5"/>
<text text-anchor="middle" x="583" y="-118.5" font-family="Helvetica,sans-Serif" font-size="10.00">PS_PrivateRec</text>
</a>
</g>
</g>
<!-- Node8&#45;&gt;Node1 -->
<g id="edge7" class="edge">
<title>Node8&#45;&gt;Node1</title>
<path fill="none" stroke="#9a32cd" stroke-dasharray="5,2" d="M581.03,-101.33C577.94,-82.13 570.04,-52.98 550,-38 531.07,-23.85 381.53,-15.72 308.23,-12.56"/>
<polygon fill="#9a32cd" stroke="#9a32cd" points="577.57,-101.85 582.35,-111.3 584.51,-100.93 577.57,-101.85"/>
<text text-anchor="middle" x="609.5" y="-63" font-family="Helvetica,sans-Serif" font-size="10.00"> private_dict</text>
</g>
</g>
</svg>
        <g id="navigator" transform="translate(0 0)" fill="#404254">
                <rect fill="#f2f5e9" fill-opacity="0.5" stroke="#606060" stroke-width=".5" x="0" y="0" width="60" height="60"/>
                <use id="zoomplus" xlink:href="#zoomPlus" x="17" y="9" onmousedown="handleZoom(evt,'in')"/>
                <use id="zoomminus" xlink:href="#zoomMin" x="42" y="9" onmousedown="handleZoom(evt,'out')"/>
                <use id="reset" xlink:href="#resetDef" x="30" y="36" onmousedown="handleReset()"/>
                <g id="arrowUp" xlink:href="#dirArrow" transform="translate(30 24)" onmousedown="handlePan(0,-1)">
                  <use xlink:href="#rim" fill="#404040">
                        <set attributeName="fill" to="#808080" begin="arrowUp.mouseover" end="arrowUp.mouseout"/>
                  </use>
                  <path fill="none" stroke="white" stroke-width="1.5" d="M0,-3.0v7 M-2.5,-0.5L0,-3.0L2.5,-0.5"/>
                </g>
                <g id="arrowRight" xlink:href="#dirArrow" transform="rotate(90) translate(36 -43)" onmousedown="handlePan(1,0)">
                  <use xlink:href="#rim" fill="#404040">
                        <set attributeName="fill" to="#808080" begin="arrowRight.mouseover" end="arrowRight.mouseout"/>
                  </use>
                  <path fill="none" stroke="white" stroke-width="1.5" d="M0,-3.0v7 M-2.5,-0.5L0,-3.0L2.5,-0.5"/>
                </g>
                <g id="arrowDown" xlink:href="#dirArrow" transform="rotate(180) translate(-30 -48)" onmousedown="handlePan(0,1)">
                  <use xlink:href="#rim" fill="#404040">
                        <set attributeName="fill" to="#808080" begin="arrowDown.mouseover" end="arrowDown.mouseout"/>
                  </use>
                  <path fill="none" stroke="white" stroke-width="1.5" d="M0,-3.0v7 M-2.5,-0.5L0,-3.0L2.5,-0.5"/>
                </g>
                <g id="arrowLeft" xlink:href="#dirArrow" transform="rotate(270) translate(-36 17)" onmousedown="handlePan(-1,0)">
                  <use xlink:href="#rim" fill="#404040">
                        <set attributeName="fill" to="#808080" begin="arrowLeft.mouseover" end="arrowLeft.mouseout"/>
                  </use>
                  <path fill="none" stroke="white" stroke-width="1.5" d="M0,-3.0v7 M-2.5,-0.5L0,-3.0L2.5,-0.5"/>
                </g>
        </g>
        <svg viewBox="0 0 15 15" width="100%" height="30px" preserveAspectRatio="xMaxYMin meet">
         <g id="arrow_out" transform="scale(0.3 0.3)">
          <a xlink:href="structCID__FaceDictRec____coll__graph_org.svg" target="_base">
           <rect id="button" ry="5" rx="5" y="6" x="6" height="38" width="38"
                fill="#f2f5e9" fill-opacity="0.5" stroke="#606060" stroke-width="1.0"/>
           <path id="arrow"
             d="M 11.500037,31.436501 C 11.940474,20.09759 22.043105,11.32322 32.158766,21.979434 L 37.068811,17.246167 C 37.068811,17.246167 37.088388,32 37.088388,32 L 22.160133,31.978069 C 22.160133,31.978069 26.997745,27.140456 26.997745,27.140456 C 18.528582,18.264221 13.291696,25.230495 11.500037,31.436501 z"
             style="fill:#404040;"/>
          </a>
         </g>
        </svg>
</svg>
