<?xml version="1.0" encoding="UTF-8" standalone="no"?>
<!DOCTYPE svg PUBLIC "-//W3C//DTD SVG 1.1//EN"
 "http://www.w3.org/Graphics/SVG/1.1/DTD/svg11.dtd">
<!-- Generated by graphviz version 2.43.0 (0)
 -->
<!-- Title: _Q2931_IE Pages: 1 -->
<svg width="356pt" height="126pt"
 viewBox="0.00 0.00 356.00 126.00" xmlns="http://www.w3.org/2000/svg" xmlns:xlink="http://www.w3.org/1999/xlink">
<g id="graph0" class="graph" transform="scale(1 1) rotate(0) translate(4 122)">
<title>_Q2931_IE</title>
<!-- Node1 -->
<g id="node1" class="node">
<title>Node1</title>
<g id="a_node1"><a xlink:title=" ">
<polygon fill="#bfbfbf" stroke="black" points="280,-60.5 280,-79.5 348,-79.5 348,-60.5 280,-60.5"/>
<text text-anchor="middle" x="314" y="-67.5" font-family="Helvetica,sans-Serif" font-size="10.00">_Q2931_IE</text>
</a>
</g>
</g>
<!-- Node2 -->
<g id="node2" class="node">
<title>Node2</title>
<g id="a_node2"><a xlink:title=" ">
<polygon fill="none" stroke="#bfbfbf" points="68.5,-98.5 68.5,-117.5 129.5,-117.5 129.5,-98.5 68.5,-98.5"/>
<text text-anchor="middle" x="99" y="-105.5" font-family="Helvetica,sans-Serif" font-size="10.00">unsigned</text>
</a>
</g>
</g>
<!-- Node2&#45;&gt;Node1 -->
<g id="edge1" class="edge">
<title>Node2&#45;&gt;Node1</title>
<path fill="none" stroke="#9a32cd" stroke-dasharray="5,2" d="M139.94,-103.96C172.91,-100.24 220.79,-93.94 262,-85 268.95,-83.49 276.33,-81.54 283.25,-79.54"/>
<polygon fill="#9a32cd" stroke="#9a32cd" points="139.35,-100.51 129.79,-105.08 140.11,-107.47 139.35,-100.51"/>
<text text-anchor="middle" x="239" y="-96" font-family="Helvetica,sans-Serif" font-size="10.00"> IE</text>
</g>
<!-- Node3 -->
<g id="node3" class="node">
<title>Node3</title>
<g id="a_node3"><a xlink:title=" ">
<polygon fill="none" stroke="#bfbfbf" points="53,-60.5 53,-79.5 145,-79.5 145,-60.5 53,-60.5"/>
<text text-anchor="middle" x="99" y="-67.5" font-family="Helvetica,sans-Serif" font-size="10.00">Q2931_IE_TYPE</text>
</a>
</g>
</g>
<!-- Node3&#45;&gt;Node1 -->
<g id="edge2" class="edge">
<title>Node3&#45;&gt;Node1</title>
<path fill="none" stroke="#9a32cd" stroke-dasharray="5,2" d="M155.17,-70C194.63,-70 246.44,-70 279.73,-70"/>
<polygon fill="#9a32cd" stroke="#9a32cd" points="155.17,-66.5 145.17,-70 155.17,-73.5 155.17,-66.5"/>
<text text-anchor="middle" x="239" y="-73" font-family="Helvetica,sans-Serif" font-size="10.00"> IEType</text>
</g>
<!-- Node4 -->
<g id="node4" class="node">
<title>Node4</title>
<g id="a_node4"><a xlink:title=" ">
<polygon fill="none" stroke="#bfbfbf" points="0,-0.5 0,-41.5 198,-41.5 198,-0.5 0,-0.5"/>
<text text-anchor="start" x="8" y="-29.5" font-family="Helvetica,sans-Serif" font-size="10.00">PSecurityUserData *typedef</text>
<text text-anchor="start" x="8" y="-18.5" font-family="Helvetica,sans-Serif" font-size="10.00"> PSECPKG_EXTENDED_INFORMATION</text>
<text text-anchor="middle" x="99" y="-7.5" font-family="Helvetica,sans-Serif" font-size="10.00"> *typedef</text>
</a>
</g>
</g>
<!-- Node4&#45;&gt;Node1 -->
<g id="edge3" class="edge">
<title>Node4&#45;&gt;Node1</title>
<path fill="none" stroke="#9a32cd" stroke-dasharray="5,2" d="M208.31,-42.49C226.3,-46.42 244.72,-50.65 262,-55 268.53,-56.64 275.49,-58.57 282.09,-60.48"/>
<polygon fill="#9a32cd" stroke="#9a32cd" points="208.89,-39.03 198.38,-40.34 207.41,-45.88 208.89,-39.03"/>
<text text-anchor="middle" x="239" y="-58" font-family="Helvetica,sans-Serif" font-size="10.00"> IELength</text>
</g>
</g>
</svg>
