<?xml version="1.0" encoding="UTF-8" standalone="no"?>
<!DOCTYPE svg PUBLIC "-//W3C//DTD SVG 1.1//EN"
 "http://www.w3.org/Graphics/SVG/1.1/DTD/svg11.dtd">
<!-- Generated by graphviz version 2.43.0 (0)
 -->
<!-- Title: _BOOTDISK_INFORMATION_EX Pages: 1 -->
<svg width="529pt" height="187pt"
 viewBox="0.00 0.00 529.00 187.00" xmlns="http://www.w3.org/2000/svg" xmlns:xlink="http://www.w3.org/1999/xlink">
<g id="graph0" class="graph" transform="scale(1 1) rotate(0) translate(4 183)">
<title>_BOOTDISK_INFORMATION_EX</title>
<!-- Node1 -->
<g id="node1" class="node">
<title>Node1</title>
<g id="a_node1"><a xlink:title=" ">
<polygon fill="#bfbfbf" stroke="black" points="355,-84.5 355,-103.5 521,-103.5 521,-84.5 355,-84.5"/>
<text text-anchor="middle" x="438" y="-91.5" font-family="Helvetica,sans-Serif" font-size="10.00">_BOOTDISK_INFORMATION_EX</text>
</a>
</g>
</g>
<!-- Node2 -->
<g id="node2" class="node">
<title>Node2</title>
<g id="a_node2"><a xlink:title=" ">
<polygon fill="none" stroke="#bfbfbf" points="74,-158.5 74,-177.5 124,-177.5 124,-158.5 74,-158.5"/>
<text text-anchor="middle" x="99" y="-165.5" font-family="Helvetica,sans-Serif" font-size="10.00">double</text>
</a>
</g>
</g>
<!-- Node2&#45;&gt;Node1 -->
<g id="edge1" class="edge">
<title>Node2&#45;&gt;Node1</title>
<path fill="none" stroke="#9a32cd" stroke-dasharray="5,2" d="M134.47,-166.19C181.1,-163.11 266.57,-155.18 337,-136 366.43,-127.98 398.66,-113.29 418.36,-103.59"/>
<polygon fill="#9a32cd" stroke="#9a32cd" points="134.06,-162.71 124.3,-166.83 134.5,-169.7 134.06,-162.71"/>
<text text-anchor="middle" x="276.5" y="-171" font-family="Helvetica,sans-Serif" font-size="10.00"> BootPartitionOffset</text>
<text text-anchor="middle" x="276.5" y="-160" font-family="Helvetica,sans-Serif" font-size="10.00">SystemPartitionOffset</text>
</g>
<!-- Node3 -->
<g id="node3" class="node">
<title>Node3</title>
<g id="a_node3"><a xlink:title=" ">
<polygon fill="none" stroke="#bfbfbf" points="18.5,-98.5 18.5,-139.5 179.5,-139.5 179.5,-98.5 18.5,-98.5"/>
<text text-anchor="start" x="26.5" y="-127.5" font-family="Helvetica,sans-Serif" font-size="10.00">PLDAP *typedef(__cdecl</text>
<text text-anchor="start" x="26.5" y="-116.5" font-family="Helvetica,sans-Serif" font-size="10.00"> NOTIFYOFNEWCONNECTION)</text>
<text text-anchor="middle" x="99" y="-105.5" font-family="Helvetica,sans-Serif" font-size="10.00">(PLDAP</text>
</a>
</g>
</g>
<!-- Node3&#45;&gt;Node1 -->
<g id="edge2" class="edge">
<title>Node3&#45;&gt;Node1</title>
<path fill="none" stroke="#9a32cd" stroke-dasharray="5,2" d="M189.94,-112.33C241.17,-108.53 304.89,-103.8 354.78,-100.1"/>
<polygon fill="#9a32cd" stroke="#9a32cd" points="189.58,-108.85 179.86,-113.08 190.1,-115.83 189.58,-108.85"/>
<text text-anchor="middle" x="276.5" y="-124" font-family="Helvetica,sans-Serif" font-size="10.00"> SystemDeviceIsGpt</text>
<text text-anchor="middle" x="276.5" y="-113" font-family="Helvetica,sans-Serif" font-size="10.00">BootDeviceIsGpt</text>
</g>
<!-- Node4 -->
<g id="node4" class="node">
<title>Node4</title>
<g id="a_node4"><a xlink:title=" ">
<polygon fill="none" stroke="#bfbfbf" points="78,-60.5 78,-79.5 120,-79.5 120,-60.5 78,-60.5"/>
<text text-anchor="middle" x="99" y="-67.5" font-family="Helvetica,sans-Serif" font-size="10.00">GUID</text>
</a>
</g>
</g>
<!-- Node4&#45;&gt;Node1 -->
<g id="edge3" class="edge">
<title>Node4&#45;&gt;Node1</title>
<path fill="none" stroke="#9a32cd" stroke-dasharray="5,2" d="M130.32,-69.03C175.5,-67.95 263.08,-67.25 337,-75 356.33,-77.03 377.51,-80.82 395.39,-84.49"/>
<polygon fill="#9a32cd" stroke="#9a32cd" points="129.95,-65.54 120.05,-69.3 130.13,-72.54 129.95,-65.54"/>
<text text-anchor="middle" x="276.5" y="-89" font-family="Helvetica,sans-Serif" font-size="10.00"> SystemDeviceGuid</text>
<text text-anchor="middle" x="276.5" y="-78" font-family="Helvetica,sans-Serif" font-size="10.00">BootDeviceGuid</text>
</g>
<!-- Node5 -->
<g id="node5" class="node">
<title>Node5</title>
<g id="a_node5"><a xlink:title=" ">
<polygon fill="none" stroke="#bfbfbf" points="0,-0.5 0,-41.5 198,-41.5 198,-0.5 0,-0.5"/>
<text text-anchor="start" x="8" y="-29.5" font-family="Helvetica,sans-Serif" font-size="10.00">PSecurityUserData *typedef</text>
<text text-anchor="start" x="8" y="-18.5" font-family="Helvetica,sans-Serif" font-size="10.00"> PSECPKG_EXTENDED_INFORMATION</text>
<text text-anchor="middle" x="99" y="-7.5" font-family="Helvetica,sans-Serif" font-size="10.00"> *typedef</text>
</a>
</g>
</g>
<!-- Node5&#45;&gt;Node1 -->
<g id="edge4" class="edge">
<title>Node5&#45;&gt;Node1</title>
<path fill="none" stroke="#9a32cd" stroke-dasharray="5,2" d="M208.18,-21.71C249.18,-24.28 295.88,-30 337,-42 369.69,-51.54 404.14,-72.13 422.85,-84.35"/>
<polygon fill="#9a32cd" stroke="#9a32cd" points="208.34,-18.22 198.16,-21.14 207.94,-25.2 208.34,-18.22"/>
<text text-anchor="middle" x="276.5" y="-56" font-family="Helvetica,sans-Serif" font-size="10.00"> SystemDeviceSignature</text>
<text text-anchor="middle" x="276.5" y="-45" font-family="Helvetica,sans-Serif" font-size="10.00">BootDeviceSignature</text>
</g>
</g>
</svg>
