<?xml version="1.0" encoding="UTF-8" standalone="no"?>
<!DOCTYPE svg PUBLIC "-//W3C//DTD SVG 1.1//EN"
 "http://www.w3.org/Graphics/SVG/1.1/DTD/svg11.dtd">
<!-- Generated by graphviz version 2.43.0 (0)
 -->
<!-- Title: Source/Game/UI/menudef/menudef.h Pages: 1 -->
<svg width="457pt" height="173pt"
 viewBox="0.00 0.00 457.00 173.00" xmlns="http://www.w3.org/2000/svg" xmlns:xlink="http://www.w3.org/1999/xlink">
<g id="graph0" class="graph" transform="scale(1 1) rotate(0) translate(4 169)">
<title>Source/Game/UI/menudef/menudef.h</title>
<!-- Node1 -->
<g id="node1" class="node">
<title>Node1</title>
<g id="a_node1"><a xlink:title=" ">
<polygon fill="#bfbfbf" stroke="black" points="169.5,-134.5 169.5,-164.5 311.5,-164.5 311.5,-134.5 169.5,-134.5"/>
<text text-anchor="start" x="177.5" y="-152.5" font-family="Helvetica,sans-Serif" font-size="10.00">Source/Game/UI/menudef</text>
<text text-anchor="middle" x="240.5" y="-141.5" font-family="Helvetica,sans-Serif" font-size="10.00">/menudef.h</text>
</a>
</g>
</g>
<!-- Node2 -->
<g id="node2" class="node">
<title>Node2</title>
<g id="a_node2"><a xlink:href="../../d2/d1c/Source_2Game_2UI_2ui__shared_8h.html" target="_top" xlink:title=" ">
<polygon fill="none" stroke="black" points="0,-73 0,-92 155,-92 155,-73 0,-73"/>
<text text-anchor="middle" x="77.5" y="-80" font-family="Helvetica,sans-Serif" font-size="10.00">Source/Game/UI/ui_shared.h</text>
</a>
</g>
</g>
<!-- Node1&#45;&gt;Node2 -->
<g id="edge1" class="edge">
<title>Node1&#45;&gt;Node2</title>
<path fill="none" stroke="midnightblue" d="M195.67,-130.62C164.12,-118.04 123.31,-101.77 98.83,-92.01"/>
<polygon fill="midnightblue" stroke="midnightblue" points="194.55,-133.94 205.13,-134.4 197.14,-127.44 194.55,-133.94"/>
</g>
<!-- Node4 -->
<g id="node4" class="node">
<title>Node4</title>
<g id="a_node4"><a xlink:href="../../db/d14/Source_2Game_2CGame_2cg__servercmds_8c.html" target="_top" xlink:title=" ">
<polygon fill="none" stroke="black" points="173,-67.5 173,-97.5 308,-97.5 308,-67.5 173,-67.5"/>
<text text-anchor="start" x="181" y="-85.5" font-family="Helvetica,sans-Serif" font-size="10.00">Source/Game/CGame/cg</text>
<text text-anchor="middle" x="240.5" y="-74.5" font-family="Helvetica,sans-Serif" font-size="10.00">_servercmds.c</text>
</a>
</g>
</g>
<!-- Node1&#45;&gt;Node4 -->
<g id="edge3" class="edge">
<title>Node1&#45;&gt;Node4</title>
<path fill="none" stroke="midnightblue" d="M240.5,-124.11C240.5,-115.15 240.5,-105.32 240.5,-97.58"/>
<polygon fill="midnightblue" stroke="midnightblue" points="237,-124.4 240.5,-134.4 244,-124.4 237,-124.4"/>
</g>
<!-- Node5 -->
<g id="node5" class="node">
<title>Node5</title>
<g id="a_node5"><a xlink:href="../../d9/d93/Source_2Game_2Game_2g__cmds_8c.html" target="_top" xlink:title=" ">
<polygon fill="none" stroke="black" points="326,-67.5 326,-97.5 449,-97.5 449,-67.5 326,-67.5"/>
<text text-anchor="start" x="334" y="-85.5" font-family="Helvetica,sans-Serif" font-size="10.00">Source/Game/Game/g</text>
<text text-anchor="middle" x="387.5" y="-74.5" font-family="Helvetica,sans-Serif" font-size="10.00">_cmds.c</text>
</a>
</g>
</g>
<!-- Node1&#45;&gt;Node5 -->
<g id="edge4" class="edge">
<title>Node1&#45;&gt;Node5</title>
<path fill="none" stroke="midnightblue" d="M281.73,-130.27C305.14,-119.92 334.01,-107.15 355.67,-97.58"/>
<polygon fill="midnightblue" stroke="midnightblue" points="280.13,-127.15 272.4,-134.4 282.96,-133.55 280.13,-127.15"/>
</g>
<!-- Node3 -->
<g id="node3" class="node">
<title>Node3</title>
<g id="a_node3"><a xlink:href="../../dd/dfe/Source_2Game_2CGame_2cg__consolecmds_8c.html" target="_top" xlink:title=" ">
<polygon fill="none" stroke="black" points="10,-0.5 10,-30.5 145,-30.5 145,-0.5 10,-0.5"/>
<text text-anchor="start" x="18" y="-18.5" font-family="Helvetica,sans-Serif" font-size="10.00">Source/Game/CGame/cg</text>
<text text-anchor="middle" x="77.5" y="-7.5" font-family="Helvetica,sans-Serif" font-size="10.00">_consolecmds.c</text>
</a>
</g>
</g>
<!-- Node2&#45;&gt;Node3 -->
<g id="edge2" class="edge">
<title>Node2&#45;&gt;Node3</title>
<path fill="none" stroke="midnightblue" d="M77.5,-62.41C77.5,-52.22 77.5,-39.9 77.5,-30.59"/>
<polygon fill="midnightblue" stroke="midnightblue" points="74,-62.73 77.5,-72.73 81,-62.73 74,-62.73"/>
</g>
</g>
</svg>
