<?xml version="1.0" encoding="UTF-8" standalone="no"?>
<!DOCTYPE svg PUBLIC "-//W3C//DTD SVG 1.1//EN"
 "http://www.w3.org/Graphics/SVG/1.1/DTD/svg11.dtd">
<!-- Generated by graphviz version 2.43.0 (0)
 -->
<!-- Title: tagENUMLOGFONTW Pages: 1 -->
<svg width="198pt" height="106pt"
 viewBox="0.00 0.00 198.00 106.00" xmlns="http://www.w3.org/2000/svg" xmlns:xlink="http://www.w3.org/1999/xlink">
<g id="graph0" class="graph" transform="scale(1 1) rotate(0) translate(4 102)">
<title>tagENUMLOGFONTW</title>
<!-- Node1 -->
<g id="node1" class="node">
<title>Node1</title>
<g id="a_node1"><a xlink:title=" ">
<polygon fill="#bfbfbf" stroke="black" points="27.5,-0.5 27.5,-19.5 146.5,-19.5 146.5,-0.5 27.5,-0.5"/>
<text text-anchor="middle" x="87" y="-7.5" font-family="Helvetica,sans-Serif" font-size="10.00">tagENUMLOGFONTW</text>
</a>
</g>
</g>
<!-- Node2 -->
<g id="node2" class="node">
<title>Node2</title>
<g id="a_node2"><a xlink:title=" ">
<polygon fill="none" stroke="#bfbfbf" points="0,-78.5 0,-97.5 74,-97.5 74,-78.5 0,-78.5"/>
<text text-anchor="middle" x="37" y="-85.5" font-family="Helvetica,sans-Serif" font-size="10.00">LOGFONTW</text>
</a>
</g>
</g>
<!-- Node2&#45;&gt;Node1 -->
<g id="edge1" class="edge">
<title>Node2&#45;&gt;Node1</title>
<path fill="none" stroke="#9a32cd" stroke-dasharray="5,2" d="M43.76,-68.81C47.76,-59.21 53.34,-47.49 60,-38 64.8,-31.16 71.42,-24.52 76.9,-19.53"/>
<polygon fill="#9a32cd" stroke="#9a32cd" points="40.47,-67.6 40.07,-78.19 46.99,-70.17 40.47,-67.6"/>
<text text-anchor="middle" x="87.5" y="-46.5" font-family="Helvetica,sans-Serif" font-size="10.00"> elfLogFont</text>
</g>
<!-- Node3 -->
<g id="node3" class="node">
<title>Node3</title>
<g id="a_node3"><a xlink:title=" ">
<polygon fill="none" stroke="#bfbfbf" points="92.5,-78.5 92.5,-97.5 181.5,-97.5 181.5,-78.5 92.5,-78.5"/>
<text text-anchor="middle" x="137" y="-85.5" font-family="Helvetica,sans-Serif" font-size="10.00">unsigned short</text>
</a>
</g>
</g>
<!-- Node3&#45;&gt;Node1 -->
<g id="edge2" class="edge">
<title>Node3&#45;&gt;Node1</title>
<path fill="none" stroke="#9a32cd" stroke-dasharray="5,2" d="M130.73,-68.75C126.97,-59.13 121.62,-47.41 115,-38 110.18,-31.15 103.46,-24.6 97.81,-19.67"/>
<polygon fill="#9a32cd" stroke="#9a32cd" points="127.45,-69.97 134.18,-78.15 134.02,-67.56 127.45,-69.97"/>
<text text-anchor="middle" x="158.5" y="-52" font-family="Helvetica,sans-Serif" font-size="10.00"> elfFullName</text>
<text text-anchor="middle" x="158.5" y="-41" font-family="Helvetica,sans-Serif" font-size="10.00">elfStyle</text>
</g>
</g>
</svg>
