<?xml version="1.0" encoding="UTF-8" standalone="no"?>
<!DOCTYPE svg PUBLIC "-//W3C//DTD SVG 1.1//EN"
 "http://www.w3.org/Graphics/SVG/1.1/DTD/svg11.dtd">
<!-- Generated by graphviz version 2.43.0 (0)
 -->
<!-- Title: _VIDEOPARAMETERS Pages: 1 -->
<svg width="216pt" height="205pt"
 viewBox="0.00 0.00 216.00 205.00" xmlns="http://www.w3.org/2000/svg" xmlns:xlink="http://www.w3.org/1999/xlink">
<g id="graph0" class="graph" transform="scale(1 1) rotate(0) translate(4 201)">
<title>_VIDEOPARAMETERS</title>
<!-- Node1 -->
<g id="node1" class="node">
<title>Node1</title>
<g id="a_node1"><a xlink:title=" ">
<polygon fill="#bfbfbf" stroke="black" points="0,-0.5 0,-19.5 118,-19.5 118,-0.5 0,-0.5"/>
<text text-anchor="middle" x="59" y="-7.5" font-family="Helvetica,sans-Serif" font-size="10.00">_VIDEOPARAMETERS</text>
</a>
</g>
</g>
<!-- Node2 -->
<g id="node2" class="node">
<title>Node2</title>
<g id="a_node2"><a xlink:title=" ">
<polygon fill="none" stroke="#bfbfbf" points="3,-177.5 3,-196.5 45,-196.5 45,-177.5 3,-177.5"/>
<text text-anchor="middle" x="24" y="-184.5" font-family="Helvetica,sans-Serif" font-size="10.00">GUID</text>
</a>
</g>
</g>
<!-- Node2&#45;&gt;Node1 -->
<g id="edge1" class="edge">
<title>Node2&#45;&gt;Node1</title>
<path fill="none" stroke="#9a32cd" stroke-dasharray="5,2" d="M24.97,-167.35C26.86,-138.89 32.12,-83.18 46,-38 47.96,-31.63 51.21,-24.88 53.97,-19.73"/>
<polygon fill="#9a32cd" stroke="#9a32cd" points="21.47,-167.27 24.37,-177.46 28.46,-167.68 21.47,-167.27"/>
<text text-anchor="middle" x="59" y="-96" font-family="Helvetica,sans-Serif" font-size="10.00"> Guid</text>
</g>
<!-- Node3 -->
<g id="node3" class="node">
<title>Node3</title>
<g id="a_node3"><a xlink:title=" ">
<polygon fill="none" stroke="#bfbfbf" points="63.5,-177.5 63.5,-196.5 124.5,-196.5 124.5,-177.5 63.5,-177.5"/>
<text text-anchor="middle" x="94" y="-184.5" font-family="Helvetica,sans-Serif" font-size="10.00">unsigned</text>
</a>
</g>
</g>
<!-- Node3&#45;&gt;Node1 -->
<g id="edge2" class="edge">
<title>Node3&#45;&gt;Node1</title>
<path fill="none" stroke="#9a32cd" stroke-dasharray="5,2" d="M93.03,-167.35C91.14,-138.89 85.88,-83.18 72,-38 70.04,-31.63 66.79,-24.88 64.03,-19.73"/>
<polygon fill="#9a32cd" stroke="#9a32cd" points="89.54,-167.68 93.63,-177.46 96.53,-167.27 89.54,-167.68"/>
<text text-anchor="middle" x="150" y="-151" font-family="Helvetica,sans-Serif" font-size="10.00"> dwFlickerFilter</text>
<text text-anchor="middle" x="150" y="-140" font-family="Helvetica,sans-Serif" font-size="10.00">dwContrast</text>
<text text-anchor="middle" x="150" y="-129" font-family="Helvetica,sans-Serif" font-size="10.00">dwAvailableTVStandard</text>
<text text-anchor="middle" x="150" y="-118" font-family="Helvetica,sans-Serif" font-size="10.00">dwOffset</text>
<text text-anchor="middle" x="150" y="-107" font-family="Helvetica,sans-Serif" font-size="10.00">dwMaxUnscaledX</text>
<text text-anchor="middle" x="150" y="-96" font-family="Helvetica,sans-Serif" font-size="10.00">dwCPKey</text>
<text text-anchor="middle" x="150" y="-85" font-family="Helvetica,sans-Serif" font-size="10.00">dwMaxUnscaledY</text>
<text text-anchor="middle" x="150" y="-74" font-family="Helvetica,sans-Serif" font-size="10.00">dwOverScanX</text>
<text text-anchor="middle" x="150" y="-63" font-family="Helvetica,sans-Serif" font-size="10.00">dwMode</text>
<text text-anchor="middle" x="150" y="-52" font-family="Helvetica,sans-Serif" font-size="10.00">dwOverScanY</text>
<text text-anchor="middle" x="150" y="-41" font-family="Helvetica,sans-Serif" font-size="10.00">...</text>
</g>
</g>
</svg>
