<?xml version="1.0" encoding="UTF-8" standalone="no"?>
<!DOCTYPE svg PUBLIC "-//W3C//DTD SVG 1.1//EN"
 "http://www.w3.org/Graphics/SVG/1.1/DTD/svg11.dtd">
<!-- Generated by graphviz version 2.43.0 (0)
 -->
<!-- Title: Source/Engine/renderer/tr_image_png.c Pages: 1 -->
<!--zoomable 263 -->
<svg id="main" version="1.1" xmlns="http://www.w3.org/2000/svg" xmlns:xlink="http://www.w3.org/1999/xlink" xml:space="preserve" onload="init(evt)">
<style type="text/css"><![CDATA[
.edge:hover path { stroke: red; }
.edge:hover polygon { stroke: red; fill: red; }
]]></style>
<script type="text/javascript"><![CDATA[
var edges = document.getElementsByTagName('g');
if (edges && edges.length) {
  for (var i=0;i<edges.length;i++) {
    if (edges[i].id.substr(0,4)=='edge') {
      edges[i].setAttribute('class','edge');
    }
  }
}
]]></script>
        <defs>
                <circle id="rim" cx="0" cy="0" r="7"/>
                <circle id="rim2" cx="0" cy="0" r="3.5"/>
                <g id="zoomPlus">
                        <use xlink:href="#rim" fill="#404040">
                                <set attributeName="fill" to="#808080" begin="zoomplus.mouseover" end="zoomplus.mouseout"/>
                        </use>
                        <path d="M-4,0h8M0,-4v8" fill="none" stroke="white" stroke-width="1.5" pointer-events="none"/>
                </g>
                <g id="zoomMin">
                        <use xlink:href="#rim" fill="#404040">
                                <set attributeName="fill" to="#808080" begin="zoomminus.mouseover" end="zoomminus.mouseout"/>
                        </use>
                        <path d="M-4,0h8" fill="none" stroke="white" stroke-width="1.5" pointer-events="none"/>
                </g>
                <g id="dirArrow">
                        <path fill="none" stroke="white" stroke-width="1.5" d="M0,-3.0v7 M-2.5,-0.5L0,-3.0L2.5,-0.5"/>
                </g>
               <g id="resetDef">
                       <use xlink:href="#rim2" fill="#404040">
                               <set attributeName="fill" to="#808080" begin="reset.mouseover" end="reset.mouseout"/>
                       </use>
               </g>
        </defs>

<script type="text/javascript">
var viewWidth = 1254;
var viewHeight = 263;
var sectionId = 'dynsection-0';
</script>
<script xlink:href="../../svgpan.js"/>
<svg id="graph" class="graph">
<g id="viewport">
<title>Source/Engine/renderer/tr_image_png.c</title>
<!-- Node1 -->
<g id="node1" class="node">
<title>Node1</title>
<g id="a_node1"><a xlink:title=" ">
<polygon fill="#bfbfbf" stroke="black" points="682,-224.5 682,-254.5 812,-254.5 812,-224.5 682,-224.5"/>
<text text-anchor="start" x="690" y="-242.5" font-family="Helvetica,sans-Serif" font-size="10.00">Source/Engine/renderer</text>
<text text-anchor="middle" x="747" y="-231.5" font-family="Helvetica,sans-Serif" font-size="10.00">/tr_image_png.c</text>
</a>
</g>
</g>
<!-- Node2 -->
<g id="node2" class="node">
<title>Node2</title>
<g id="a_node2"><a xlink:href="../../dd/db7/Source_2Engine_2renderer_2tr__local_8h.html" target="_top" xlink:title=" ">
<polygon fill="none" stroke="black" points="942,-168.5 942,-187.5 1004,-187.5 1004,-168.5 942,-168.5"/>
<text text-anchor="middle" x="973" y="-175.5" font-family="Helvetica,sans-Serif" font-size="10.00">tr_local.h</text>
</a>
</g>
</g>
<!-- Node1&#45;&gt;Node2 -->
<g id="edge1" class="edge">
<title>Node1&#45;&gt;Node2</title>
<path fill="none" stroke="midnightblue" d="M800.27,-224.47C840.59,-213.86 895.14,-199.5 932.07,-189.77"/>
<polygon fill="midnightblue" stroke="midnightblue" points="933.22,-193.09 942,-187.16 931.43,-186.32 933.22,-193.09"/>
</g>
<!-- Node25 -->
<g id="node25" class="node">
<title>Node25</title>
<g id="a_node25"><a xlink:href="../../d2/d4b/Source_2Shared_2puff_8h.html" target="_top" xlink:title=" ">
<polygon fill="none" stroke="black" points="648.5,-168.5 648.5,-187.5 747.5,-187.5 747.5,-168.5 648.5,-168.5"/>
<text text-anchor="middle" x="698" y="-175.5" font-family="Helvetica,sans-Serif" font-size="10.00">../../Shared/puff.h</text>
</a>
</g>
</g>
<!-- Node1&#45;&gt;Node25 -->
<g id="edge24" class="edge">
<title>Node1&#45;&gt;Node25</title>
<path fill="none" stroke="midnightblue" d="M735.39,-224.4C728.27,-215.75 719.12,-204.64 711.65,-195.58"/>
<polygon fill="midnightblue" stroke="midnightblue" points="714.19,-193.15 705.13,-187.66 708.79,-197.6 714.19,-193.15"/>
</g>
<!-- Node3 -->
<g id="node3" class="node">
<title>Node3</title>
<g id="a_node3"><a xlink:href="../../d3/d14/Source_2Shared_2q__shared_8h.html" target="_top" xlink:title=" ">
<polygon fill="none" stroke="black" points="425.5,-112.5 425.5,-131.5 550.5,-131.5 550.5,-112.5 425.5,-112.5"/>
<text text-anchor="middle" x="488" y="-119.5" font-family="Helvetica,sans-Serif" font-size="10.00">../../Shared/q_shared.h</text>
</a>
</g>
</g>
<!-- Node2&#45;&gt;Node3 -->
<g id="edge2" class="edge">
<title>Node2&#45;&gt;Node3</title>
<path fill="none" stroke="midnightblue" d="M941.92,-173.54C865.87,-165.07 668.75,-143.13 560.99,-131.13"/>
<polygon fill="midnightblue" stroke="midnightblue" points="561.17,-127.63 550.85,-130 560.4,-134.58 561.17,-127.63"/>
</g>
<!-- Node16 -->
<g id="node16" class="node">
<title>Node16</title>
<g id="a_node16"><a xlink:href="../../dd/dfd/Source_2Shared_2qfiles_8h.html" target="_top" xlink:title=" ">
<polygon fill="none" stroke="black" points="783.5,-112.5 783.5,-131.5 890.5,-131.5 890.5,-112.5 783.5,-112.5"/>
<text text-anchor="middle" x="837" y="-119.5" font-family="Helvetica,sans-Serif" font-size="10.00">../../Shared/qfiles.h</text>
</a>
</g>
</g>
<!-- Node2&#45;&gt;Node16 -->
<g id="edge15" class="edge">
<title>Node2&#45;&gt;Node16</title>
<path fill="none" stroke="midnightblue" d="M951.45,-168.44C928.97,-159.52 893.51,-145.44 868.02,-135.32"/>
<polygon fill="midnightblue" stroke="midnightblue" points="869.03,-131.95 858.45,-131.52 866.45,-138.46 869.03,-131.95"/>
</g>
<!-- Node17 -->
<g id="node17" class="node">
<title>Node17</title>
<g id="a_node17"><a xlink:href="../../d2/d6c/Source_2Shared_2qcommon_8h.html" target="_top" xlink:title=" ">
<polygon fill="none" stroke="black" points="908.5,-112.5 908.5,-131.5 1037.5,-131.5 1037.5,-112.5 908.5,-112.5"/>
<text text-anchor="middle" x="973" y="-119.5" font-family="Helvetica,sans-Serif" font-size="10.00">../../Shared/qcommon.h</text>
</a>
</g>
</g>
<!-- Node2&#45;&gt;Node17 -->
<g id="edge16" class="edge">
<title>Node2&#45;&gt;Node17</title>
<path fill="none" stroke="midnightblue" d="M973,-168.08C973,-161.01 973,-150.86 973,-141.99"/>
<polygon fill="midnightblue" stroke="midnightblue" points="976.5,-141.75 973,-131.75 969.5,-141.75 976.5,-141.75"/>
</g>
<!-- Node20 -->
<g id="node20" class="node">
<title>Node20</title>
<g id="a_node20"><a xlink:href="../../d2/d42/Source_2Engine_2renderer_2tr__public_8h.html" target="_top" xlink:title=" ">
<polygon fill="none" stroke="black" points="1056,-112.5 1056,-131.5 1124,-131.5 1124,-112.5 1056,-112.5"/>
<text text-anchor="middle" x="1090" y="-119.5" font-family="Helvetica,sans-Serif" font-size="10.00">tr_public.h</text>
</a>
</g>
</g>
<!-- Node2&#45;&gt;Node20 -->
<g id="edge19" class="edge">
<title>Node2&#45;&gt;Node20</title>
<path fill="none" stroke="midnightblue" d="M991.54,-168.44C1010.62,-159.64 1040.57,-145.81 1062.44,-135.72"/>
<polygon fill="midnightblue" stroke="midnightblue" points="1063.93,-138.88 1071.55,-131.52 1061,-132.53 1063.93,-138.88"/>
</g>
<!-- Node22 -->
<g id="node22" class="node">
<title>Node22</title>
<g id="a_node22"><a xlink:href="../../df/d00/Source_2Engine_2renderer_2qgl_8h.html" target="_top" xlink:title=" ">
<polygon fill="none" stroke="black" points="1142.5,-112.5 1142.5,-131.5 1183.5,-131.5 1183.5,-112.5 1142.5,-112.5"/>
<text text-anchor="middle" x="1163" y="-119.5" font-family="Helvetica,sans-Serif" font-size="10.00">qgl.h</text>
</a>
</g>
</g>
<!-- Node2&#45;&gt;Node22 -->
<g id="edge21" class="edge">
<title>Node2&#45;&gt;Node22</title>
<path fill="none" stroke="midnightblue" d="M1004.02,-168.45C1034.33,-160.05 1082.03,-146.74 1132.56,-132.09"/>
<polygon fill="midnightblue" stroke="midnightblue" points="1133.73,-135.4 1142.36,-129.24 1131.78,-128.67 1133.73,-135.4"/>
</g>
<!-- Node24 -->
<g id="node24" class="node">
<title>Node24</title>
<g id="a_node24"><a xlink:href="../../d3/d71/Source_2Engine_2renderer_2iqm_8h.html" target="_top" xlink:title=" ">
<polygon fill="none" stroke="black" points="1202,-112.5 1202,-131.5 1246,-131.5 1246,-112.5 1202,-112.5"/>
<text text-anchor="middle" x="1224" y="-119.5" font-family="Helvetica,sans-Serif" font-size="10.00">iqm.h</text>
</a>
</g>
</g>
<!-- Node2&#45;&gt;Node24 -->
<g id="edge23" class="edge">
<title>Node2&#45;&gt;Node24</title>
<path fill="none" stroke="midnightblue" d="M1004.15,-171.45C1045.1,-163.97 1119.45,-149.79 1191.96,-132.11"/>
<polygon fill="midnightblue" stroke="midnightblue" points="1192.83,-135.5 1201.71,-129.71 1191.16,-128.7 1192.83,-135.5"/>
</g>
<!-- Node4 -->
<g id="node4" class="node">
<title>Node4</title>
<g id="a_node4"><a xlink:title=" ">
<polygon fill="none" stroke="#bfbfbf" points="0,-56.5 0,-75.5 56,-75.5 56,-56.5 0,-56.5"/>
<text text-anchor="middle" x="28" y="-63.5" font-family="Helvetica,sans-Serif" font-size="10.00">assert.h</text>
</a>
</g>
</g>
<!-- Node3&#45;&gt;Node4 -->
<g id="edge3" class="edge">
<title>Node3&#45;&gt;Node4</title>
<path fill="none" stroke="midnightblue" d="M425.29,-116.94C344.4,-111.12 199.27,-98.72 66.17,-75.99"/>
<polygon fill="midnightblue" stroke="midnightblue" points="66.65,-72.52 56.2,-74.27 65.46,-79.42 66.65,-72.52"/>
</g>
<!-- Node5 -->
<g id="node5" class="node">
<title>Node5</title>
<g id="a_node5"><a xlink:title=" ">
<polygon fill="none" stroke="#bfbfbf" points="74.5,-56.5 74.5,-75.5 125.5,-75.5 125.5,-56.5 74.5,-56.5"/>
<text text-anchor="middle" x="100" y="-63.5" font-family="Helvetica,sans-Serif" font-size="10.00">math.h</text>
</a>
</g>
</g>
<!-- Node3&#45;&gt;Node5 -->
<g id="edge4" class="edge">
<title>Node3&#45;&gt;Node5</title>
<path fill="none" stroke="midnightblue" d="M425.46,-115.41C356.75,-108.73 243.02,-96.12 135.57,-75.88"/>
<polygon fill="midnightblue" stroke="midnightblue" points="136.01,-72.4 125.53,-73.96 134.7,-79.27 136.01,-72.4"/>
</g>
<!-- Node6 -->
<g id="node6" class="node">
<title>Node6</title>
<g id="a_node6"><a xlink:title=" ">
<polygon fill="none" stroke="#bfbfbf" points="144,-56.5 144,-75.5 194,-75.5 194,-56.5 144,-56.5"/>
<text text-anchor="middle" x="169" y="-63.5" font-family="Helvetica,sans-Serif" font-size="10.00">stdio.h</text>
</a>
</g>
</g>
<!-- Node3&#45;&gt;Node6 -->
<g id="edge5" class="edge">
<title>Node3&#45;&gt;Node6</title>
<path fill="none" stroke="midnightblue" d="M425.4,-112.99C369.69,-105.44 285.84,-93.03 204.13,-76.06"/>
<polygon fill="midnightblue" stroke="midnightblue" points="204.69,-72.6 194.18,-73.97 203.25,-79.45 204.69,-72.6"/>
</g>
<!-- Node7 -->
<g id="node7" class="node">
<title>Node7</title>
<g id="a_node7"><a xlink:title=" ">
<polygon fill="none" stroke="#bfbfbf" points="212,-56.5 212,-75.5 268,-75.5 268,-56.5 212,-56.5"/>
<text text-anchor="middle" x="240" y="-63.5" font-family="Helvetica,sans-Serif" font-size="10.00">stdarg.h</text>
</a>
</g>
</g>
<!-- Node3&#45;&gt;Node7 -->
<g id="edge6" class="edge">
<title>Node3&#45;&gt;Node7</title>
<path fill="none" stroke="midnightblue" d="M446.29,-112.47C405.75,-104.1 342.2,-90.76 278.13,-76.21"/>
<polygon fill="midnightblue" stroke="midnightblue" points="278.79,-72.77 268.26,-73.96 277.23,-79.6 278.79,-72.77"/>
</g>
<!-- Node8 -->
<g id="node8" class="node">
<title>Node8</title>
<g id="a_node8"><a xlink:title=" ">
<polygon fill="none" stroke="#bfbfbf" points="286.5,-56.5 286.5,-75.5 339.5,-75.5 339.5,-56.5 286.5,-56.5"/>
<text text-anchor="middle" x="313" y="-63.5" font-family="Helvetica,sans-Serif" font-size="10.00">string.h</text>
</a>
</g>
</g>
<!-- Node3&#45;&gt;Node8 -->
<g id="edge7" class="edge">
<title>Node3&#45;&gt;Node8</title>
<path fill="none" stroke="midnightblue" d="M460.27,-112.44C430.31,-103.2 382.45,-88.43 349.46,-78.25"/>
<polygon fill="midnightblue" stroke="midnightblue" points="350.33,-74.85 339.74,-75.25 348.26,-81.54 350.33,-74.85"/>
</g>
<!-- Node9 -->
<g id="node9" class="node">
<title>Node9</title>
<g id="a_node9"><a xlink:title=" ">
<polygon fill="none" stroke="#bfbfbf" points="357.5,-56.5 357.5,-75.5 410.5,-75.5 410.5,-56.5 357.5,-56.5"/>
<text text-anchor="middle" x="384" y="-63.5" font-family="Helvetica,sans-Serif" font-size="10.00">stdlib.h</text>
</a>
</g>
</g>
<!-- Node3&#45;&gt;Node9 -->
<g id="edge8" class="edge">
<title>Node3&#45;&gt;Node9</title>
<path fill="none" stroke="midnightblue" d="M471.29,-112.32C454.69,-103.7 429,-90.36 409.78,-80.39"/>
<polygon fill="midnightblue" stroke="midnightblue" points="411.16,-77.16 400.67,-75.65 407.93,-83.37 411.16,-77.16"/>
</g>
<!-- Node10 -->
<g id="node10" class="node">
<title>Node10</title>
<g id="a_node10"><a xlink:title=" ">
<polygon fill="none" stroke="#bfbfbf" points="429,-56.5 429,-75.5 477,-75.5 477,-56.5 429,-56.5"/>
<text text-anchor="middle" x="453" y="-63.5" font-family="Helvetica,sans-Serif" font-size="10.00">time.h</text>
</a>
</g>
</g>
<!-- Node3&#45;&gt;Node10 -->
<g id="edge9" class="edge">
<title>Node3&#45;&gt;Node10</title>
<path fill="none" stroke="midnightblue" d="M482.22,-112.08C477.33,-104.53 470.17,-93.49 464.17,-84.23"/>
<polygon fill="midnightblue" stroke="midnightblue" points="467.05,-82.24 458.67,-75.75 461.17,-86.05 467.05,-82.24"/>
</g>
<!-- Node11 -->
<g id="node11" class="node">
<title>Node11</title>
<g id="a_node11"><a xlink:title=" ">
<polygon fill="none" stroke="#bfbfbf" points="495.5,-56.5 495.5,-75.5 548.5,-75.5 548.5,-56.5 495.5,-56.5"/>
<text text-anchor="middle" x="522" y="-63.5" font-family="Helvetica,sans-Serif" font-size="10.00">ctype.h</text>
</a>
</g>
</g>
<!-- Node3&#45;&gt;Node11 -->
<g id="edge10" class="edge">
<title>Node3&#45;&gt;Node11</title>
<path fill="none" stroke="midnightblue" d="M493.61,-112.08C498.37,-104.53 505.32,-93.49 511.15,-84.23"/>
<polygon fill="midnightblue" stroke="midnightblue" points="514.12,-86.08 516.49,-75.75 508.2,-82.35 514.12,-86.08"/>
</g>
<!-- Node12 -->
<g id="node12" class="node">
<title>Node12</title>
<g id="a_node12"><a xlink:title=" ">
<polygon fill="none" stroke="#bfbfbf" points="566.5,-56.5 566.5,-75.5 619.5,-75.5 619.5,-56.5 566.5,-56.5"/>
<text text-anchor="middle" x="593" y="-63.5" font-family="Helvetica,sans-Serif" font-size="10.00">limits.h</text>
</a>
</g>
</g>
<!-- Node3&#45;&gt;Node12 -->
<g id="edge11" class="edge">
<title>Node3&#45;&gt;Node12</title>
<path fill="none" stroke="midnightblue" d="M504.87,-112.32C521.71,-103.66 547.81,-90.24 567.24,-80.25"/>
<polygon fill="midnightblue" stroke="midnightblue" points="568.88,-83.34 576.17,-75.65 565.68,-77.12 568.88,-83.34"/>
</g>
<!-- Node13 -->
<g id="node13" class="node">
<title>Node13</title>
<g id="a_node13"><a xlink:title=" ">
<polygon fill="none" stroke="#bfbfbf" points="637.5,-56.5 637.5,-75.5 690.5,-75.5 690.5,-56.5 637.5,-56.5"/>
<text text-anchor="middle" x="664" y="-63.5" font-family="Helvetica,sans-Serif" font-size="10.00">stdint.h</text>
</a>
</g>
</g>
<!-- Node3&#45;&gt;Node13 -->
<g id="edge12" class="edge">
<title>Node3&#45;&gt;Node13</title>
<path fill="none" stroke="midnightblue" d="M515.89,-112.44C546.11,-103.17 594.44,-88.34 627.62,-78.16"/>
<polygon fill="midnightblue" stroke="midnightblue" points="628.86,-81.44 637.39,-75.16 626.81,-74.75 628.86,-81.44"/>
</g>
<!-- Node14 -->
<g id="node14" class="node">
<title>Node14</title>
<g id="a_node14"><a xlink:href="../../d3/de7/Source_2Shared_2q__platform_8h.html" target="_top" xlink:title=" ">
<polygon fill="none" stroke="black" points="708.5,-56.5 708.5,-75.5 787.5,-75.5 787.5,-56.5 708.5,-56.5"/>
<text text-anchor="middle" x="748" y="-63.5" font-family="Helvetica,sans-Serif" font-size="10.00">q_platform.h</text>
</a>
</g>
</g>
<!-- Node3&#45;&gt;Node14 -->
<g id="edge13" class="edge">
<title>Node3&#45;&gt;Node14</title>
<path fill="none" stroke="midnightblue" d="M529.2,-112.44C575.05,-102.92 649.14,-87.53 698.2,-77.34"/>
<polygon fill="midnightblue" stroke="midnightblue" points="699.19,-80.71 708.27,-75.25 697.77,-73.86 699.19,-80.71"/>
</g>
<!-- Node15 -->
<g id="node15" class="node">
<title>Node15</title>
<g id="a_node15"><a xlink:href="../../d1/d83/Source_2Shared_2surfaceflags_8h.html" target="_top" xlink:title=" ">
<polygon fill="none" stroke="black" points="805.5,-56.5 805.5,-75.5 890.5,-75.5 890.5,-56.5 805.5,-56.5"/>
<text text-anchor="middle" x="848" y="-63.5" font-family="Helvetica,sans-Serif" font-size="10.00">surfaceflags.h</text>
</a>
</g>
</g>
<!-- Node3&#45;&gt;Node15 -->
<g id="edge14" class="edge">
<title>Node3&#45;&gt;Node15</title>
<path fill="none" stroke="midnightblue" d="M549.72,-112.47C609.77,-104.06 703.85,-90.59 795.45,-76.05"/>
<polygon fill="midnightblue" stroke="midnightblue" points="796.12,-79.49 805.45,-74.46 795.02,-72.58 796.12,-79.49"/>
</g>
<!-- Node18 -->
<g id="node18" class="node">
<title>Node18</title>
<g id="a_node18"><a xlink:href="../../d6/dff/Shared_2cm__public_8h.html" target="_top" xlink:title=" ">
<polygon fill="none" stroke="black" points="909,-56.5 909,-75.5 1039,-75.5 1039,-56.5 909,-56.5"/>
<text text-anchor="middle" x="974" y="-63.5" font-family="Helvetica,sans-Serif" font-size="10.00">../../Shared/cm_public.h</text>
</a>
</g>
</g>
<!-- Node17&#45;&gt;Node18 -->
<g id="edge17" class="edge">
<title>Node17&#45;&gt;Node18</title>
<path fill="none" stroke="midnightblue" d="M973.17,-112.08C973.3,-105.01 973.48,-94.86 973.65,-85.99"/>
<polygon fill="midnightblue" stroke="midnightblue" points="977.15,-85.81 973.84,-75.75 970.15,-85.68 977.15,-85.81"/>
</g>
<!-- Node19 -->
<g id="node19" class="node">
<title>Node19</title>
<g id="a_node19"><a xlink:href="../../dc/d28/Shared_2qfiles_8h.html" target="_top" xlink:title=" ">
<polygon fill="none" stroke="black" points="948,-0.5 948,-19.5 1000,-19.5 1000,-0.5 948,-0.5"/>
<text text-anchor="middle" x="974" y="-7.5" font-family="Helvetica,sans-Serif" font-size="10.00">qfiles.h</text>
</a>
</g>
</g>
<!-- Node18&#45;&gt;Node19 -->
<g id="edge18" class="edge">
<title>Node18&#45;&gt;Node19</title>
<path fill="none" stroke="midnightblue" d="M974,-56.08C974,-49.01 974,-38.86 974,-29.99"/>
<polygon fill="midnightblue" stroke="midnightblue" points="977.5,-29.75 974,-19.75 970.5,-29.75 977.5,-29.75"/>
</g>
<!-- Node21 -->
<g id="node21" class="node">
<title>Node21</title>
<g id="a_node21"><a xlink:href="../../d1/d4a/Source_2Engine_2renderer_2tr__types_8h.html" target="_top" xlink:title=" ">
<polygon fill="none" stroke="black" points="1057.5,-56.5 1057.5,-75.5 1122.5,-75.5 1122.5,-56.5 1057.5,-56.5"/>
<text text-anchor="middle" x="1090" y="-63.5" font-family="Helvetica,sans-Serif" font-size="10.00">tr_types.h</text>
</a>
</g>
</g>
<!-- Node20&#45;&gt;Node21 -->
<g id="edge20" class="edge">
<title>Node20&#45;&gt;Node21</title>
<path fill="none" stroke="midnightblue" d="M1090,-112.08C1090,-105.01 1090,-94.86 1090,-85.99"/>
<polygon fill="midnightblue" stroke="midnightblue" points="1093.5,-85.75 1090,-75.75 1086.5,-85.75 1093.5,-85.75"/>
</g>
<!-- Node23 -->
<g id="node23" class="node">
<title>Node23</title>
<g id="a_node23"><a xlink:title=" ">
<polygon fill="none" stroke="#bfbfbf" points="1140.5,-56.5 1140.5,-75.5 1223.5,-75.5 1223.5,-56.5 1140.5,-56.5"/>
<text text-anchor="middle" x="1182" y="-63.5" font-family="Helvetica,sans-Serif" font-size="10.00">SDL_opengl.h</text>
</a>
</g>
</g>
<!-- Node22&#45;&gt;Node23 -->
<g id="edge22" class="edge">
<title>Node22&#45;&gt;Node23</title>
<path fill="none" stroke="midnightblue" d="M1166.14,-112.08C1168.68,-104.85 1172.36,-94.41 1175.53,-85.4"/>
<polygon fill="midnightblue" stroke="midnightblue" points="1178.9,-86.35 1178.92,-75.75 1172.3,-84.02 1178.9,-86.35"/>
</g>
<!-- Node25&#45;&gt;Node3 -->
<g id="edge25" class="edge">
<title>Node25&#45;&gt;Node3</title>
<path fill="none" stroke="midnightblue" d="M664.72,-168.44C628.55,-159.14 570.62,-144.25 531.02,-134.06"/>
<polygon fill="midnightblue" stroke="midnightblue" points="531.68,-130.62 521.12,-131.52 529.93,-137.4 531.68,-130.62"/>
</g>
</g>
</svg>
        <g id="navigator" transform="translate(0 0)" fill="#404254">
                <rect fill="#f2f5e9" fill-opacity="0.5" stroke="#606060" stroke-width=".5" x="0" y="0" width="60" height="60"/>
                <use id="zoomplus" xlink:href="#zoomPlus" x="17" y="9" onmousedown="handleZoom(evt,'in')"/>
                <use id="zoomminus" xlink:href="#zoomMin" x="42" y="9" onmousedown="handleZoom(evt,'out')"/>
                <use id="reset" xlink:href="#resetDef" x="30" y="36" onmousedown="handleReset()"/>
                <g id="arrowUp" xlink:href="#dirArrow" transform="translate(30 24)" onmousedown="handlePan(0,-1)">
                  <use xlink:href="#rim" fill="#404040">
                        <set attributeName="fill" to="#808080" begin="arrowUp.mouseover" end="arrowUp.mouseout"/>
                  </use>
                  <path fill="none" stroke="white" stroke-width="1.5" d="M0,-3.0v7 M-2.5,-0.5L0,-3.0L2.5,-0.5"/>
                </g>
                <g id="arrowRight" xlink:href="#dirArrow" transform="rotate(90) translate(36 -43)" onmousedown="handlePan(1,0)">
                  <use xlink:href="#rim" fill="#404040">
                        <set attributeName="fill" to="#808080" begin="arrowRight.mouseover" end="arrowRight.mouseout"/>
                  </use>
                  <path fill="none" stroke="white" stroke-width="1.5" d="M0,-3.0v7 M-2.5,-0.5L0,-3.0L2.5,-0.5"/>
                </g>
                <g id="arrowDown" xlink:href="#dirArrow" transform="rotate(180) translate(-30 -48)" onmousedown="handlePan(0,1)">
                  <use xlink:href="#rim" fill="#404040">
                        <set attributeName="fill" to="#808080" begin="arrowDown.mouseover" end="arrowDown.mouseout"/>
                  </use>
                  <path fill="none" stroke="white" stroke-width="1.5" d="M0,-3.0v7 M-2.5,-0.5L0,-3.0L2.5,-0.5"/>
                </g>
                <g id="arrowLeft" xlink:href="#dirArrow" transform="rotate(270) translate(-36 17)" onmousedown="handlePan(-1,0)">
                  <use xlink:href="#rim" fill="#404040">
                        <set attributeName="fill" to="#808080" begin="arrowLeft.mouseover" end="arrowLeft.mouseout"/>
                  </use>
                  <path fill="none" stroke="white" stroke-width="1.5" d="M0,-3.0v7 M-2.5,-0.5L0,-3.0L2.5,-0.5"/>
                </g>
        </g>
        <svg viewBox="0 0 15 15" width="100%" height="30px" preserveAspectRatio="xMaxYMin meet">
         <g id="arrow_out" transform="scale(0.3 0.3)">
          <a xlink:href="Source_2Engine_2renderer_2tr__image__png_8c__incl_org.svg" target="_base">
           <rect id="button" ry="5" rx="5" y="6" x="6" height="38" width="38"
                fill="#f2f5e9" fill-opacity="0.5" stroke="#606060" stroke-width="1.0"/>
           <path id="arrow"
             d="M 11.500037,31.436501 C 11.940474,20.09759 22.043105,11.32322 32.158766,21.979434 L 37.068811,17.246167 C 37.068811,17.246167 37.088388,32 37.088388,32 L 22.160133,31.978069 C 22.160133,31.978069 26.997745,27.140456 26.997745,27.140456 C 18.528582,18.264221 13.291696,25.230495 11.500037,31.436501 z"
             style="fill:#404040;"/>
          </a>
         </g>
        </svg>
</svg>
