<?xml version="1.0" encoding="UTF-8" standalone="no"?>
<!DOCTYPE svg PUBLIC "-//W3C//DTD SVG 1.1//EN"
 "http://www.w3.org/Graphics/SVG/1.1/DTD/svg11.dtd">
<!-- Generated by graphviz version 2.43.0 (0)
 -->
<!-- Title: PS_BlendRec_ Pages: 1 -->
<svg width="673pt" height="150pt"
 viewBox="0.00 0.00 673.00 150.00" xmlns="http://www.w3.org/2000/svg" xmlns:xlink="http://www.w3.org/1999/xlink">
<g id="graph0" class="graph" transform="scale(1 1) rotate(0) translate(4 146)">
<title>PS_BlendRec_</title>
<!-- Node1 -->
<g id="node1" class="node">
<title>Node1</title>
<g id="a_node1"><a xlink:title=" ">
<polygon fill="#bfbfbf" stroke="black" points="279.5,-0.5 279.5,-19.5 364.5,-19.5 364.5,-0.5 279.5,-0.5"/>
<text text-anchor="middle" x="322" y="-7.5" font-family="Helvetica,sans-Serif" font-size="10.00">PS_BlendRec_</text>
</a>
</g>
</g>
<!-- Node2 -->
<g id="node2" class="node">
<title>Node2</title>
<g id="a_node2"><a xlink:title=" ">
<polygon fill="none" stroke="#bfbfbf" points="0,-122.5 0,-141.5 68,-141.5 68,-122.5 0,-122.5"/>
<text text-anchor="middle" x="34" y="-129.5" font-family="Helvetica,sans-Serif" font-size="10.00">PS_Private</text>
</a>
</g>
</g>
<!-- Node2&#45;&gt;Node1 -->
<g id="edge1" class="edge">
<title>Node2&#45;&gt;Node1</title>
<path fill="none" stroke="#9a32cd" stroke-dasharray="5,2" d="M31.23,-112.17C29.26,-90.88 29.88,-56.74 50,-38 66.41,-22.72 206.85,-15.29 279.23,-12.44"/>
<polygon fill="#9a32cd" stroke="#9a32cd" points="27.77,-112.73 32.44,-122.25 34.72,-111.9 27.77,-112.73"/>
<text text-anchor="middle" x="71.5" y="-68.5" font-family="Helvetica,sans-Serif" font-size="10.00"> privates</text>
</g>
<!-- Node3 -->
<g id="node3" class="node">
<title>Node3</title>
<g id="a_node3"><a xlink:title=" ">
<polygon fill="none" stroke="#bfbfbf" points="86,-122.5 86,-141.5 124,-141.5 124,-122.5 86,-122.5"/>
<text text-anchor="middle" x="105" y="-129.5" font-family="Helvetica,sans-Serif" font-size="10.00">char</text>
</a>
</g>
</g>
<!-- Node3&#45;&gt;Node1 -->
<g id="edge2" class="edge">
<title>Node3&#45;&gt;Node1</title>
<path fill="none" stroke="#9a32cd" stroke-dasharray="5,2" d="M99.8,-112.58C95.12,-91.66 91.52,-57.88 110,-38 132.23,-14.09 224.1,-10.29 279.34,-10.26"/>
<polygon fill="#9a32cd" stroke="#9a32cd" points="96.45,-113.62 102.3,-122.45 103.23,-111.9 96.45,-113.62"/>
<text text-anchor="middle" x="141" y="-68.5" font-family="Helvetica,sans-Serif" font-size="10.00"> axis_names</text>
</g>
<!-- Node4 -->
<g id="node4" class="node">
<title>Node4</title>
<g id="a_node4"><a xlink:title=" ">
<polygon fill="none" stroke="#bfbfbf" points="156.5,-122.5 156.5,-141.5 223.5,-141.5 223.5,-122.5 156.5,-122.5"/>
<text text-anchor="middle" x="190" y="-129.5" font-family="Helvetica,sans-Serif" font-size="10.00">FT_Fixed *</text>
</a>
</g>
</g>
<!-- Node4&#45;&gt;Node1 -->
<g id="edge3" class="edge">
<title>Node4&#45;&gt;Node1</title>
<path fill="none" stroke="#9a32cd" stroke-dasharray="5,2" d="M183.05,-112.94C176.44,-92.38 169.82,-58.96 187,-38 198.55,-23.91 244.25,-17.02 279.31,-13.76"/>
<polygon fill="#9a32cd" stroke="#9a32cd" points="179.75,-114.11 186.38,-122.38 186.36,-111.78 179.75,-114.11"/>
<text text-anchor="middle" x="241.5" y="-79.5" font-family="Helvetica,sans-Serif" font-size="10.00"> weight_vector</text>
<text text-anchor="middle" x="241.5" y="-68.5" font-family="Helvetica,sans-Serif" font-size="10.00">design_pos</text>
<text text-anchor="middle" x="241.5" y="-57.5" font-family="Helvetica,sans-Serif" font-size="10.00">default_weight_vector</text>
</g>
<!-- Node5 -->
<g id="node5" class="node">
<title>Node5</title>
<g id="a_node5"><a xlink:title=" ">
<polygon fill="none" stroke="#bfbfbf" points="252.5,-122.5 252.5,-141.5 311.5,-141.5 311.5,-122.5 252.5,-122.5"/>
<text text-anchor="middle" x="282" y="-129.5" font-family="Helvetica,sans-Serif" font-size="10.00">FT_BBox</text>
</a>
</g>
</g>
<!-- Node5&#45;&gt;Node1 -->
<g id="edge4" class="edge">
<title>Node5&#45;&gt;Node1</title>
<path fill="none" stroke="#9a32cd" stroke-dasharray="5,2" d="M294.58,-114.09C296.6,-110.86 298.52,-107.41 300,-104 312.83,-74.48 318.85,-36.29 321.01,-19.53"/>
<polygon fill="#9a32cd" stroke="#9a32cd" points="291.61,-112.23 288.84,-122.46 297.38,-116.19 291.61,-112.23"/>
<text text-anchor="middle" x="337" y="-68.5" font-family="Helvetica,sans-Serif" font-size="10.00"> bboxes</text>
</g>
<!-- Node6 -->
<g id="node6" class="node">
<title>Node6</title>
<g id="a_node6"><a xlink:title=" ">
<polygon fill="none" stroke="#bfbfbf" points="329.5,-122.5 329.5,-141.5 436.5,-141.5 436.5,-122.5 329.5,-122.5"/>
<text text-anchor="middle" x="383" y="-129.5" font-family="Helvetica,sans-Serif" font-size="10.00">PS_DesignMapRec</text>
</a>
</g>
</g>
<!-- Node6&#45;&gt;Node1 -->
<g id="edge5" class="edge">
<title>Node6&#45;&gt;Node1</title>
<path fill="none" stroke="#9a32cd" stroke-dasharray="5,2" d="M382.16,-112.25C380.46,-92.28 375.33,-60.52 360,-38 354.81,-30.37 346.7,-24.19 339.31,-19.67"/>
<polygon fill="#9a32cd" stroke="#9a32cd" points="378.67,-112.49 382.81,-122.24 385.66,-112.04 378.67,-112.49"/>
<text text-anchor="middle" x="412.5" y="-68.5" font-family="Helvetica,sans-Serif" font-size="10.00"> design_map</text>
</g>
<!-- Node7 -->
<g id="node7" class="node">
<title>Node7</title>
<g id="a_node7"><a xlink:title=" ">
<polygon fill="none" stroke="#bfbfbf" points="454.5,-122.5 454.5,-141.5 515.5,-141.5 515.5,-122.5 454.5,-122.5"/>
<text text-anchor="middle" x="485" y="-129.5" font-family="Helvetica,sans-Serif" font-size="10.00">unsigned</text>
</a>
</g>
</g>
<!-- Node7&#45;&gt;Node1 -->
<g id="edge6" class="edge">
<title>Node7&#45;&gt;Node1</title>
<path fill="none" stroke="#9a32cd" stroke-dasharray="5,2" d="M479.95,-112.69C472.92,-88.54 459.74,-47.92 448,-38 435.48,-27.42 396.03,-20.11 364.57,-15.79"/>
<polygon fill="#9a32cd" stroke="#9a32cd" points="476.62,-113.8 482.72,-122.46 483.36,-111.89 476.62,-113.8"/>
<text text-anchor="middle" x="532" y="-96" font-family="Helvetica,sans-Serif" font-size="10.00"> default_design_vector</text>
<text text-anchor="middle" x="532" y="-85" font-family="Helvetica,sans-Serif" font-size="10.00">blend_bitflags</text>
<text text-anchor="middle" x="532" y="-74" font-family="Helvetica,sans-Serif" font-size="10.00">num_designs</text>
<text text-anchor="middle" x="532" y="-63" font-family="Helvetica,sans-Serif" font-size="10.00">num_axis</text>
<text text-anchor="start" x="476" y="-52" font-family="Helvetica,sans-Serif" font-size="10.00">num_default_design</text>
<text text-anchor="middle" x="532" y="-41" font-family="Helvetica,sans-Serif" font-size="10.00">_vector</text>
</g>
<!-- Node8 -->
<g id="node8" class="node">
<title>Node8</title>
<g id="a_node8"><a xlink:title=" ">
<polygon fill="none" stroke="#bfbfbf" points="575,-122.5 575,-141.5 649,-141.5 649,-122.5 575,-122.5"/>
<text text-anchor="middle" x="612" y="-129.5" font-family="Helvetica,sans-Serif" font-size="10.00">PS_FontInfo</text>
</a>
</g>
</g>
<!-- Node8&#45;&gt;Node1 -->
<g id="edge7" class="edge">
<title>Node8&#45;&gt;Node1</title>
<path fill="none" stroke="#9a32cd" stroke-dasharray="5,2" d="M613.41,-112.36C613.91,-90.96 611.05,-56.44 590,-38 573.42,-23.48 435.95,-15.7 364.61,-12.61"/>
<polygon fill="#9a32cd" stroke="#9a32cd" points="609.91,-112.29 612.91,-122.46 616.9,-112.65 609.91,-112.29"/>
<text text-anchor="middle" x="639" y="-68.5" font-family="Helvetica,sans-Serif" font-size="10.00"> font_infos</text>
</g>
</g>
</svg>
