<?xml version="1.0" encoding="UTF-8" standalone="no"?>
<!DOCTYPE svg PUBLIC "-//W3C//DTD SVG 1.1//EN"
 "http://www.w3.org/Graphics/SVG/1.1/DTD/svg11.dtd">
<!-- Generated by graphviz version 2.43.0 (0)
 -->
<!-- Title: tagTEXTMETRICA Pages: 1 -->
<svg width="240pt" height="205pt"
 viewBox="0.00 0.00 240.00 205.00" xmlns="http://www.w3.org/2000/svg" xmlns:xlink="http://www.w3.org/1999/xlink">
<g id="graph0" class="graph" transform="scale(1 1) rotate(0) translate(4 201)">
<title>tagTEXTMETRICA</title>
<!-- Node1 -->
<g id="node1" class="node">
<title>Node1</title>
<g id="a_node1"><a xlink:title=" ">
<polygon fill="#bfbfbf" stroke="black" points="24.5,-0.5 24.5,-19.5 125.5,-19.5 125.5,-0.5 24.5,-0.5"/>
<text text-anchor="middle" x="75" y="-7.5" font-family="Helvetica,sans-Serif" font-size="10.00">tagTEXTMETRICA</text>
</a>
</g>
</g>
<!-- Node2 -->
<g id="node2" class="node">
<title>Node2</title>
<g id="a_node2"><a xlink:title=" ">
<polygon fill="none" stroke="#bfbfbf" points="0,-177.5 0,-196.5 38,-196.5 38,-177.5 0,-177.5"/>
<text text-anchor="middle" x="19" y="-184.5" font-family="Helvetica,sans-Serif" font-size="10.00">char</text>
</a>
</g>
</g>
<!-- Node2&#45;&gt;Node1 -->
<g id="edge1" class="edge">
<title>Node2&#45;&gt;Node1</title>
<path fill="none" stroke="#9a32cd" stroke-dasharray="5,2" d="M13.4,-167.61C5.5,-137.83 -5.32,-78.33 20,-38 25.32,-29.53 34.14,-23.64 43.19,-19.58"/>
<polygon fill="#9a32cd" stroke="#9a32cd" points="10.1,-168.8 16.2,-177.47 16.83,-166.89 10.1,-168.8"/>
<text text-anchor="middle" x="64.5" y="-140" font-family="Helvetica,sans-Serif" font-size="10.00"> tmFirstChar</text>
<text text-anchor="middle" x="64.5" y="-129" font-family="Helvetica,sans-Serif" font-size="10.00">tmUnderlined</text>
<text text-anchor="middle" x="64.5" y="-118" font-family="Helvetica,sans-Serif" font-size="10.00">tmItalic</text>
<text text-anchor="middle" x="64.5" y="-107" font-family="Helvetica,sans-Serif" font-size="10.00">tmPitchAndFamily</text>
<text text-anchor="middle" x="64.5" y="-96" font-family="Helvetica,sans-Serif" font-size="10.00">tmStruckOut</text>
<text text-anchor="middle" x="64.5" y="-85" font-family="Helvetica,sans-Serif" font-size="10.00">tmCharSet</text>
<text text-anchor="middle" x="64.5" y="-74" font-family="Helvetica,sans-Serif" font-size="10.00">tmDefaultChar</text>
<text text-anchor="middle" x="64.5" y="-63" font-family="Helvetica,sans-Serif" font-size="10.00">tmLastChar</text>
<text text-anchor="middle" x="64.5" y="-52" font-family="Helvetica,sans-Serif" font-size="10.00">tmBreakChar</text>
</g>
<!-- Node3 -->
<g id="node3" class="node">
<title>Node3</title>
<g id="a_node3"><a xlink:title=" ">
<polygon fill="none" stroke="#bfbfbf" points="112,-177.5 112,-196.5 150,-196.5 150,-177.5 112,-177.5"/>
<text text-anchor="middle" x="131" y="-184.5" font-family="Helvetica,sans-Serif" font-size="10.00">long</text>
</a>
</g>
</g>
<!-- Node3&#45;&gt;Node1 -->
<g id="edge2" class="edge">
<title>Node3&#45;&gt;Node1</title>
<path fill="none" stroke="#9a32cd" stroke-dasharray="5,2" d="M132.44,-167.11C133.8,-137.5 132.85,-79.31 109,-38 104.63,-30.43 97.24,-24.17 90.46,-19.6"/>
<polygon fill="#9a32cd" stroke="#9a32cd" points="128.93,-167.08 131.82,-177.28 135.92,-167.51 128.93,-167.08"/>
<text text-anchor="middle" x="182" y="-151" font-family="Helvetica,sans-Serif" font-size="10.00"> tmDigitizedAspectX</text>
<text text-anchor="middle" x="182" y="-140" font-family="Helvetica,sans-Serif" font-size="10.00">tmDigitizedAspectY</text>
<text text-anchor="middle" x="182" y="-129" font-family="Helvetica,sans-Serif" font-size="10.00">tmExternalLeading</text>
<text text-anchor="middle" x="182" y="-118" font-family="Helvetica,sans-Serif" font-size="10.00">tmOverhang</text>
<text text-anchor="middle" x="182" y="-107" font-family="Helvetica,sans-Serif" font-size="10.00">tmAveCharWidth</text>
<text text-anchor="middle" x="182" y="-96" font-family="Helvetica,sans-Serif" font-size="10.00">tmMaxCharWidth</text>
<text text-anchor="middle" x="182" y="-85" font-family="Helvetica,sans-Serif" font-size="10.00">tmHeight</text>
<text text-anchor="middle" x="182" y="-74" font-family="Helvetica,sans-Serif" font-size="10.00">tmDescent</text>
<text text-anchor="middle" x="182" y="-63" font-family="Helvetica,sans-Serif" font-size="10.00">tmWeight</text>
<text text-anchor="middle" x="182" y="-52" font-family="Helvetica,sans-Serif" font-size="10.00">tmInternalLeading</text>
<text text-anchor="middle" x="182" y="-41" font-family="Helvetica,sans-Serif" font-size="10.00">...</text>
</g>
</g>
</svg>
