<?xml version="1.0" encoding="UTF-8" standalone="no"?>
<!DOCTYPE svg PUBLIC "-//W3C//DTD SVG 1.1//EN"
 "http://www.w3.org/Graphics/SVG/1.1/DTD/svg11.dtd">
<!-- Generated by graphviz version 2.43.0 (0)
 -->
<!-- Title: Tools/MinGW/msys/share/bison/lalr1.cc Pages: 1 -->
<svg width="504pt" height="106pt"
 viewBox="0.00 0.00 503.50 106.00" xmlns="http://www.w3.org/2000/svg" xmlns:xlink="http://www.w3.org/1999/xlink">
<g id="graph0" class="graph" transform="scale(1 1) rotate(0) translate(4 102)">
<title>Tools/MinGW/msys/share/bison/lalr1.cc</title>
<!-- Node1 -->
<g id="node1" class="node">
<title>Node1</title>
<g id="a_node1"><a xlink:title=" ">
<polygon fill="#bfbfbf" stroke="black" points="140.5,-67.5 140.5,-97.5 279.5,-97.5 279.5,-67.5 140.5,-67.5"/>
<text text-anchor="start" x="148.5" y="-85.5" font-family="Helvetica,sans-Serif" font-size="10.00">Tools/MinGW/msys/share</text>
<text text-anchor="middle" x="210" y="-74.5" font-family="Helvetica,sans-Serif" font-size="10.00">/bison/lalr1.cc</text>
</a>
</g>
</g>
<!-- Node2 -->
<g id="node2" class="node">
<title>Node2</title>
<g id="a_node2"><a xlink:title=" ">
<polygon fill="none" stroke="#bfbfbf" points="0,-6 0,-25 44,-25 44,-6 0,-6"/>
<text text-anchor="middle" x="22" y="-13" font-family="Helvetica,sans-Serif" font-size="10.00">string</text>
</a>
</g>
</g>
<!-- Node1&#45;&gt;Node2 -->
<g id="edge1" class="edge">
<title>Node1&#45;&gt;Node2</title>
<path fill="none" stroke="midnightblue" d="M161,-67.48C129.74,-58.11 88.58,-44.98 53,-31 51.58,-30.44 50.14,-29.85 48.69,-29.24"/>
<polygon fill="midnightblue" stroke="midnightblue" points="49.77,-25.89 39.21,-25.02 46.92,-32.29 49.77,-25.89"/>
</g>
<!-- Node3 -->
<g id="node3" class="node">
<title>Node3</title>
<g id="a_node3"><a xlink:title=" ">
<polygon fill="none" stroke="#bfbfbf" points="62,-6 62,-25 122,-25 122,-6 62,-6"/>
<text text-anchor="middle" x="92" y="-13" font-family="Helvetica,sans-Serif" font-size="10.00">iostream</text>
</a>
</g>
</g>
<!-- Node1&#45;&gt;Node3 -->
<g id="edge2" class="edge">
<title>Node1&#45;&gt;Node3</title>
<path fill="none" stroke="midnightblue" d="M184.4,-67.4C164.15,-56.24 136.08,-40.78 116.21,-29.83"/>
<polygon fill="midnightblue" stroke="midnightblue" points="117.89,-26.77 107.44,-25.01 114.51,-32.9 117.89,-26.77"/>
</g>
<!-- Node4 -->
<g id="node4" class="node">
<title>Node4</title>
<g id="a_node4"><a xlink:title=" ">
<polygon fill="none" stroke="#bfbfbf" points="140,-6 140,-25 198,-25 198,-6 140,-6"/>
<text text-anchor="middle" x="169" y="-13" font-family="Helvetica,sans-Serif" font-size="10.00">stack.hh</text>
</a>
</g>
</g>
<!-- Node1&#45;&gt;Node4 -->
<g id="edge3" class="edge">
<title>Node1&#45;&gt;Node4</title>
<path fill="none" stroke="midnightblue" d="M201.1,-67.4C194.9,-57.56 186.58,-44.38 179.97,-33.89"/>
<polygon fill="midnightblue" stroke="midnightblue" points="182.78,-31.79 174.48,-25.19 176.86,-35.52 182.78,-31.79"/>
</g>
<!-- Node5 -->
<g id="node5" class="node">
<title>Node5</title>
<g id="a_node5"><a xlink:title=" ">
<polygon fill="none" stroke="#bfbfbf" points="216.5,-6 216.5,-25 287.5,-25 287.5,-6 216.5,-6"/>
<text text-anchor="middle" x="252" y="-13" font-family="Helvetica,sans-Serif" font-size="10.00">location.hh</text>
</a>
</g>
</g>
<!-- Node1&#45;&gt;Node5 -->
<g id="edge4" class="edge">
<title>Node1&#45;&gt;Node5</title>
<path fill="none" stroke="midnightblue" d="M219.11,-67.4C225.47,-57.56 233.99,-44.38 240.76,-33.89"/>
<polygon fill="midnightblue" stroke="midnightblue" points="243.89,-35.49 246.38,-25.19 238.02,-31.69 243.89,-35.49"/>
</g>
<!-- Node6 -->
<g id="node6" class="node">
<title>Node6</title>
<g id="a_node6"><a xlink:title=" ">
<polygon fill="none" stroke="#bfbfbf" points="305.5,-0.5 305.5,-30.5 430.5,-30.5 430.5,-0.5 305.5,-0.5"/>
<text text-anchor="start" x="313.5" y="-18.5" font-family="Helvetica,sans-Serif" font-size="10.00">@basename(]b4_spec</text>
<text text-anchor="middle" x="368" y="-7.5" font-family="Helvetica,sans-Serif" font-size="10.00">_defines_file[@)</text>
</a>
</g>
</g>
<!-- Node1&#45;&gt;Node6 -->
<g id="edge5" class="edge">
<title>Node1&#45;&gt;Node6</title>
<path fill="none" stroke="midnightblue" d="M244.28,-67.4C267.78,-57.73 299.15,-44.82 324.43,-34.43"/>
<polygon fill="midnightblue" stroke="midnightblue" points="325.87,-37.62 333.78,-30.58 323.2,-31.14 325.87,-37.62"/>
</g>
<!-- Node7 -->
<g id="node7" class="node">
<title>Node7</title>
<g id="a_node7"><a xlink:title=" ">
<polygon fill="none" stroke="#bfbfbf" points="448.5,-6 448.5,-25 495.5,-25 495.5,-6 448.5,-6"/>
<text text-anchor="middle" x="472" y="-13" font-family="Helvetica,sans-Serif" font-size="10.00">deque</text>
</a>
</g>
</g>
<!-- Node1&#45;&gt;Node7 -->
<g id="edge6" class="edge">
<title>Node1&#45;&gt;Node7</title>
<path fill="none" stroke="midnightblue" d="M279.71,-70.12C325.85,-61.64 387.33,-48.5 440,-31 441.87,-30.38 443.77,-29.69 445.67,-28.95"/>
<polygon fill="midnightblue" stroke="midnightblue" points="447.15,-32.12 454.99,-25 444.42,-25.68 447.15,-32.12"/>
</g>
</g>
</svg>
