<?xml version="1.0" encoding="UTF-8" standalone="no"?>
<!DOCTYPE svg PUBLIC "-//W3C//DTD SVG 1.1//EN"
 "http://www.w3.org/Graphics/SVG/1.1/DTD/svg11.dtd">
<!-- Generated by graphviz version 2.43.0 (0)
 -->
<!-- Title: NMCBEENDEDITA Pages: 1 -->
<svg width="297pt" height="106pt"
 viewBox="0.00 0.00 297.00 106.00" xmlns="http://www.w3.org/2000/svg" xmlns:xlink="http://www.w3.org/1999/xlink">
<g id="graph0" class="graph" transform="scale(1 1) rotate(0) translate(4 102)">
<title>NMCBEENDEDITA</title>
<!-- Node1 -->
<g id="node1" class="node">
<title>Node1</title>
<g id="a_node1"><a xlink:title=" ">
<polygon fill="#bfbfbf" stroke="black" points="90,-0.5 90,-19.5 192,-19.5 192,-0.5 90,-0.5"/>
<text text-anchor="middle" x="141" y="-7.5" font-family="Helvetica,sans-Serif" font-size="10.00">NMCBEENDEDITA</text>
</a>
</g>
</g>
<!-- Node2 -->
<g id="node2" class="node">
<title>Node2</title>
<g id="a_node2"><a xlink:title=" ">
<polygon fill="none" stroke="#bfbfbf" points="0,-78.5 0,-97.5 64,-97.5 64,-78.5 0,-78.5"/>
<text text-anchor="middle" x="32" y="-85.5" font-family="Helvetica,sans-Serif" font-size="10.00">WINBOOL</text>
</a>
</g>
</g>
<!-- Node2&#45;&gt;Node1 -->
<g id="edge1" class="edge">
<title>Node2&#45;&gt;Node1</title>
<path fill="none" stroke="#9a32cd" stroke-dasharray="5,2" d="M41.18,-69.13C47.28,-58.8 56.15,-46.25 67,-38 77.99,-29.64 91.83,-23.67 104.56,-19.51"/>
<polygon fill="#9a32cd" stroke="#9a32cd" points="37.97,-67.7 36.21,-78.15 44.1,-71.08 37.97,-67.7"/>
<text text-anchor="middle" x="92" y="-46.5" font-family="Helvetica,sans-Serif" font-size="10.00"> fChanged</text>
</g>
<!-- Node3 -->
<g id="node3" class="node">
<title>Node3</title>
<g id="a_node3"><a xlink:title=" ">
<polygon fill="none" stroke="#bfbfbf" points="82.5,-78.5 82.5,-97.5 137.5,-97.5 137.5,-78.5 82.5,-78.5"/>
<text text-anchor="middle" x="110" y="-85.5" font-family="Helvetica,sans-Serif" font-size="10.00">NMHDR</text>
</a>
</g>
</g>
<!-- Node3&#45;&gt;Node1 -->
<g id="edge2" class="edge">
<title>Node3&#45;&gt;Node1</title>
<path fill="none" stroke="#9a32cd" stroke-dasharray="5,2" d="M117.47,-68.67C123.82,-53.11 132.65,-31.47 137.49,-19.62"/>
<polygon fill="#9a32cd" stroke="#9a32cd" points="114.09,-67.7 113.56,-78.28 120.57,-70.34 114.09,-67.7"/>
<text text-anchor="middle" x="138.5" y="-46.5" font-family="Helvetica,sans-Serif" font-size="10.00"> hdr</text>
</g>
<!-- Node4 -->
<g id="node4" class="node">
<title>Node4</title>
<g id="a_node4"><a xlink:title=" ">
<polygon fill="none" stroke="#bfbfbf" points="156,-78.5 156,-97.5 194,-97.5 194,-78.5 156,-78.5"/>
<text text-anchor="middle" x="175" y="-85.5" font-family="Helvetica,sans-Serif" font-size="10.00">char</text>
</a>
</g>
</g>
<!-- Node4&#45;&gt;Node1 -->
<g id="edge3" class="edge">
<title>Node4&#45;&gt;Node1</title>
<path fill="none" stroke="#9a32cd" stroke-dasharray="5,2" d="M167,-69.12C160.03,-53.53 150.21,-31.59 144.85,-19.62"/>
<polygon fill="#9a32cd" stroke="#9a32cd" points="163.82,-70.58 171.1,-78.28 170.21,-67.72 163.82,-70.58"/>
<text text-anchor="middle" x="179" y="-46.5" font-family="Helvetica,sans-Serif" font-size="10.00"> szText</text>
</g>
<!-- Node5 -->
<g id="node5" class="node">
<title>Node5</title>
<g id="a_node5"><a xlink:title=" ">
<polygon fill="none" stroke="#bfbfbf" points="214.5,-78.5 214.5,-97.5 243.5,-97.5 243.5,-78.5 214.5,-78.5"/>
<text text-anchor="middle" x="229" y="-85.5" font-family="Helvetica,sans-Serif" font-size="10.00">int</text>
</a>
</g>
</g>
<!-- Node5&#45;&gt;Node1 -->
<g id="edge4" class="edge">
<title>Node5&#45;&gt;Node1</title>
<path fill="none" stroke="#9a32cd" stroke-dasharray="5,2" d="M221.67,-69.09C216.77,-58.91 209.48,-46.53 200,-38 191.04,-29.94 179.26,-23.9 168.59,-19.6"/>
<polygon fill="#9a32cd" stroke="#9a32cd" points="218.51,-70.59 225.76,-78.31 224.9,-67.75 218.51,-70.59"/>
<text text-anchor="middle" x="252.5" y="-52" font-family="Helvetica,sans-Serif" font-size="10.00"> iNewSelection</text>
<text text-anchor="middle" x="252.5" y="-41" font-family="Helvetica,sans-Serif" font-size="10.00">iWhy</text>
</g>
</g>
</svg>
