<?xml version="1.0" encoding="UTF-8" standalone="no"?>
<!DOCTYPE svg PUBLIC "-//W3C//DTD SVG 1.1//EN"
 "http://www.w3.org/Graphics/SVG/1.1/DTD/svg11.dtd">
<!-- Generated by graphviz version 2.43.0 (0)
 -->
<!-- Title: tierConfig_cg Pages: 1 -->
<svg width="534pt" height="205pt"
 viewBox="0.00 0.00 534.00 205.00" xmlns="http://www.w3.org/2000/svg" xmlns:xlink="http://www.w3.org/1999/xlink">
<g id="graph0" class="graph" transform="scale(1 1) rotate(0) translate(4 201)">
<title>tierConfig_cg</title>
<!-- Node1 -->
<g id="node1" class="node">
<title>Node1</title>
<g id="a_node1"><a xlink:title=" ">
<polygon fill="#bfbfbf" stroke="black" points="121,-0.5 121,-19.5 201,-19.5 201,-0.5 121,-0.5"/>
<text text-anchor="middle" x="161" y="-7.5" font-family="Helvetica,sans-Serif" font-size="10.00">tierConfig_cg</text>
</a>
</g>
</g>
<!-- Node2 -->
<g id="node2" class="node">
<title>Node2</title>
<g id="a_node2"><a xlink:title=" ">
<polygon fill="none" stroke="#bfbfbf" points="0,-177.5 0,-196.5 38,-196.5 38,-177.5 0,-177.5"/>
<text text-anchor="middle" x="19" y="-184.5" font-family="Helvetica,sans-Serif" font-size="10.00">float</text>
</a>
</g>
</g>
<!-- Node2&#45;&gt;Node1 -->
<g id="edge1" class="edge">
<title>Node2&#45;&gt;Node1</title>
<path fill="none" stroke="#9a32cd" stroke-dasharray="5,2" d="M13.11,-167.54C4.54,-136.73 -7.16,-74.62 24,-38 36.33,-23.51 85.07,-16.63 120.91,-13.49"/>
<polygon fill="#9a32cd" stroke="#9a32cd" points="9.83,-168.78 16.04,-177.36 16.54,-166.78 9.83,-168.78"/>
<text text-anchor="middle" x="58" y="-107" font-family="Helvetica,sans-Serif" font-size="10.00"> hudMultiplier</text>
<text text-anchor="middle" x="58" y="-96" font-family="Helvetica,sans-Serif" font-size="10.00">icon3DZoom</text>
<text text-anchor="middle" x="58" y="-85" font-family="Helvetica,sans-Serif" font-size="10.00">meshScale</text>
</g>
<!-- Node3 -->
<g id="node3" class="node">
<title>Node3</title>
<g id="a_node3"><a xlink:title=" ">
<polygon fill="none" stroke="#bfbfbf" points="91,-177.5 91,-196.5 129,-196.5 129,-177.5 91,-177.5"/>
<text text-anchor="middle" x="110" y="-184.5" font-family="Helvetica,sans-Serif" font-size="10.00">char</text>
</a>
</g>
</g>
<!-- Node3&#45;&gt;Node1 -->
<g id="edge2" class="edge">
<title>Node3&#45;&gt;Node1</title>
<path fill="none" stroke="#9a32cd" stroke-dasharray="5,2" d="M104.47,-167.29C96.83,-137.53 86.59,-78.62 111,-38 116.03,-29.63 124.65,-23.69 133.33,-19.56"/>
<polygon fill="#9a32cd" stroke="#9a32cd" points="101.16,-168.46 107.19,-177.17 107.91,-166.6 101.16,-168.46"/>
<text text-anchor="middle" x="151" y="-101.5" font-family="Helvetica,sans-Serif" font-size="10.00"> transformMusic</text>
<text text-anchor="middle" x="151" y="-90.5" font-family="Helvetica,sans-Serif" font-size="10.00">name</text>
</g>
<!-- Node4 -->
<g id="node4" class="node">
<title>Node4</title>
<g id="a_node4"><a xlink:title=" ">
<polygon fill="none" stroke="#bfbfbf" points="198.5,-177.5 198.5,-196.5 227.5,-196.5 227.5,-177.5 198.5,-177.5"/>
<text text-anchor="middle" x="213" y="-184.5" font-family="Helvetica,sans-Serif" font-size="10.00">int</text>
</a>
</g>
</g>
<!-- Node4&#45;&gt;Node1 -->
<g id="edge3" class="edge">
<title>Node4&#45;&gt;Node1</title>
<path fill="none" stroke="#9a32cd" stroke-dasharray="5,2" d="M211.78,-167.14C209.29,-132.44 202.81,-60 191,-38 187.09,-30.72 180.41,-24.41 174.34,-19.73"/>
<polygon fill="#9a32cd" stroke="#9a32cd" points="208.31,-167.59 212.48,-177.33 215.29,-167.12 208.31,-167.59"/>
<text text-anchor="middle" x="278" y="-151" font-family="Helvetica,sans-Serif" font-size="10.00"> requirementCurrentPercent</text>
<text text-anchor="middle" x="278" y="-140" font-family="Helvetica,sans-Serif" font-size="10.00">sustainCurrentPercent</text>
<text text-anchor="middle" x="278" y="-129" font-family="Helvetica,sans-Serif" font-size="10.00">headModelDamaged</text>
<text text-anchor="middle" x="278" y="-118" font-family="Helvetica,sans-Serif" font-size="10.00">soundTransformUp</text>
<text text-anchor="middle" x="278" y="-107" font-family="Helvetica,sans-Serif" font-size="10.00">icon3DOffset</text>
<text text-anchor="middle" x="278" y="-96" font-family="Helvetica,sans-Serif" font-size="10.00">legsSkinDamaged</text>
<text text-anchor="middle" x="278" y="-85" font-family="Helvetica,sans-Serif" font-size="10.00">requirementCurrent</text>
<text text-anchor="middle" x="278" y="-74" font-family="Helvetica,sans-Serif" font-size="10.00">sustainHealth</text>
<text text-anchor="middle" x="278" y="-63" font-family="Helvetica,sans-Serif" font-size="10.00">legsSkin</text>
<text text-anchor="middle" x="278" y="-52" font-family="Helvetica,sans-Serif" font-size="10.00">torsoModel</text>
<text text-anchor="middle" x="278" y="-41" font-family="Helvetica,sans-Serif" font-size="10.00">...</text>
</g>
<!-- Node5 -->
<g id="node5" class="node">
<title>Node5</title>
<g id="a_node5"><a xlink:title=" ">
<polygon fill="none" stroke="#bfbfbf" points="341,-177.5 341,-196.5 403,-196.5 403,-177.5 341,-177.5"/>
<text text-anchor="middle" x="372" y="-184.5" font-family="Helvetica,sans-Serif" font-size="10.00">qboolean</text>
</a>
</g>
</g>
<!-- Node5&#45;&gt;Node1 -->
<g id="edge4" class="edge">
<title>Node5&#45;&gt;Node1</title>
<path fill="none" stroke="#9a32cd" stroke-dasharray="5,2" d="M375.5,-167.47C380.27,-136.06 384.62,-72.42 350,-38 329.67,-17.78 250.5,-12.56 201.31,-11.3"/>
<polygon fill="#9a32cd" stroke="#9a32cd" points="372.03,-167.03 373.8,-177.47 378.93,-168.2 372.03,-167.03"/>
<text text-anchor="middle" x="452" y="-112.5" font-family="Helvetica,sans-Serif" font-size="10.00"> damageFeatures</text>
<text text-anchor="middle" x="452" y="-101.5" font-family="Helvetica,sans-Serif" font-size="10.00">damageModelsRevertHealed</text>
<text text-anchor="middle" x="452" y="-90.5" font-family="Helvetica,sans-Serif" font-size="10.00">transformScriptExists</text>
<text text-anchor="middle" x="452" y="-79.5" font-family="Helvetica,sans-Serif" font-size="10.00">damageTexturesRevertHealed</text>
</g>
</g>
</svg>
