<?xml version="1.0" encoding="UTF-8" standalone="no"?>
<!DOCTYPE svg PUBLIC "-//W3C//DTD SVG 1.1//EN"
 "http://www.w3.org/Graphics/SVG/1.1/DTD/svg11.dtd">
<!-- Generated by graphviz version 2.43.0 (0)
 -->
<!-- Title: SDL_Surface Pages: 1 -->
<!--zoomable 434 -->
<svg id="main" version="1.1" xmlns="http://www.w3.org/2000/svg" xmlns:xlink="http://www.w3.org/1999/xlink" xml:space="preserve" onload="init(evt)">
<style type="text/css"><![CDATA[
.edge:hover path { stroke: red; }
.edge:hover polygon { stroke: red; fill: red; }
]]></style>
<script type="text/javascript"><![CDATA[
var edges = document.getElementsByTagName('g');
if (edges && edges.length) {
  for (var i=0;i<edges.length;i++) {
    if (edges[i].id.substr(0,4)=='edge') {
      edges[i].setAttribute('class','edge');
    }
  }
}
]]></script>
        <defs>
                <circle id="rim" cx="0" cy="0" r="7"/>
                <circle id="rim2" cx="0" cy="0" r="3.5"/>
                <g id="zoomPlus">
                        <use xlink:href="#rim" fill="#404040">
                                <set attributeName="fill" to="#808080" begin="zoomplus.mouseover" end="zoomplus.mouseout"/>
                        </use>
                        <path d="M-4,0h8M0,-4v8" fill="none" stroke="white" stroke-width="1.5" pointer-events="none"/>
                </g>
                <g id="zoomMin">
                        <use xlink:href="#rim" fill="#404040">
                                <set attributeName="fill" to="#808080" begin="zoomminus.mouseover" end="zoomminus.mouseout"/>
                        </use>
                        <path d="M-4,0h8" fill="none" stroke="white" stroke-width="1.5" pointer-events="none"/>
                </g>
                <g id="dirArrow">
                        <path fill="none" stroke="white" stroke-width="1.5" d="M0,-3.0v7 M-2.5,-0.5L0,-3.0L2.5,-0.5"/>
                </g>
               <g id="resetDef">
                       <use xlink:href="#rim2" fill="#404040">
                               <set attributeName="fill" to="#808080" begin="reset.mouseover" end="reset.mouseout"/>
                       </use>
               </g>
        </defs>

<script type="text/javascript">
var viewWidth = 788;
var viewHeight = 434;
var sectionId = 'dynsection-0';
</script>
<script xlink:href="../../svgpan.js"/>
<svg id="graph" class="graph">
<g id="viewport">
<title>SDL_Surface</title>
<!-- Node1 -->
<g id="node1" class="node">
<title>Node1</title>
<g id="a_node1"><a xlink:title="This structure should be treated as read&#45;only, except for &#39;pixels&#39;, which, if not NULL,...">
<polygon fill="#bfbfbf" stroke="black" points="703,-161.5 703,-180.5 780,-180.5 780,-161.5 703,-161.5"/>
<text text-anchor="middle" x="741.5" y="-168.5" font-family="Helvetica,sans-Serif" font-size="10.00">SDL_Surface</text>
</a>
</g>
</g>
<!-- Node2 -->
<g id="node2" class="node">
<title>Node2</title>
<g id="a_node2"><a xlink:href="../../d4/dae/structSDL__PixelFormat.html" target="_top" xlink:title="Everything in the pixel format structure is read&#45;only.">
<polygon fill="none" stroke="black" points="474.5,-237.5 474.5,-256.5 572.5,-256.5 572.5,-237.5 474.5,-237.5"/>
<text text-anchor="middle" x="523.5" y="-244.5" font-family="Helvetica,sans-Serif" font-size="10.00">SDL_PixelFormat</text>
</a>
</g>
</g>
<!-- Node2&#45;&gt;Node1 -->
<g id="edge1" class="edge">
<title>Node2&#45;&gt;Node1</title>
<path fill="none" stroke="#9a32cd" stroke-dasharray="5,2" d="M582.49,-240.96C613.88,-236.17 652.74,-227.73 685,-213 702.81,-204.87 720.3,-190.21 730.75,-180.54"/>
<polygon fill="#9a32cd" stroke="#9a32cd" points="581.97,-237.5 572.57,-242.39 582.97,-244.43 581.97,-237.5"/>
<text text-anchor="middle" x="646" y="-239" font-family="Helvetica,sans-Serif" font-size="10.00"> format</text>
</g>
<!-- Node3 -->
<g id="node3" class="node">
<title>Node3</title>
<g id="a_node3"><a xlink:href="../../d4/da3/structSDL__Palette.html" target="_top" xlink:title=" ">
<polygon fill="none" stroke="black" points="298.5,-269.5 298.5,-288.5 372.5,-288.5 372.5,-269.5 298.5,-269.5"/>
<text text-anchor="middle" x="335.5" y="-276.5" font-family="Helvetica,sans-Serif" font-size="10.00">SDL_Palette</text>
</a>
</g>
</g>
<!-- Node3&#45;&gt;Node2 -->
<g id="edge2" class="edge">
<title>Node3&#45;&gt;Node2</title>
<path fill="none" stroke="#9a32cd" stroke-dasharray="5,2" d="M347.58,-260.71C358.28,-245.01 376.05,-223.45 398,-214 415.15,-206.62 422.34,-207.94 440,-214 449.59,-217.29 448.98,-223.38 458,-228 465.38,-231.78 473.62,-234.93 481.69,-237.5"/>
<polygon fill="#9a32cd" stroke="#9a32cd" points="344.62,-258.85 342.13,-269.15 350.5,-262.65 344.62,-258.85"/>
<text text-anchor="middle" x="419" y="-217" font-family="Helvetica,sans-Serif" font-size="10.00"> palette</text>
</g>
<!-- Node4 -->
<g id="node4" class="node">
<title>Node4</title>
<g id="a_node4"><a xlink:href="../../d7/d0a/structSDL__Color.html" target="_top" xlink:title=" ">
<polygon fill="none" stroke="black" points="122,-243.5 122,-262.5 188,-262.5 188,-243.5 122,-243.5"/>
<text text-anchor="middle" x="155" y="-250.5" font-family="Helvetica,sans-Serif" font-size="10.00">SDL_Color</text>
</a>
</g>
</g>
<!-- Node4&#45;&gt;Node3 -->
<g id="edge3" class="edge">
<title>Node4&#45;&gt;Node3</title>
<path fill="none" stroke="#9a32cd" stroke-dasharray="5,2" d="M175.73,-268.77C184.47,-274.78 195.21,-280.93 206,-284 236.28,-292.62 272.18,-290.23 298.33,-286.34"/>
<polygon fill="#9a32cd" stroke="#9a32cd" points="177.56,-265.77 167.43,-262.69 173.42,-271.42 177.56,-265.77"/>
<text text-anchor="middle" x="239.5" y="-292" font-family="Helvetica,sans-Serif" font-size="10.00"> colors</text>
</g>
<!-- Node5 -->
<g id="node5" class="node">
<title>Node5</title>
<g id="a_node5"><a xlink:title=" ">
<polygon fill="none" stroke="#bfbfbf" points="0,-168.5 0,-187.5 50,-187.5 50,-168.5 0,-168.5"/>
<text text-anchor="middle" x="25" y="-175.5" font-family="Helvetica,sans-Serif" font-size="10.00">uint8_t</text>
</a>
</g>
</g>
<!-- Node5&#45;&gt;Node2 -->
<g id="edge6" class="edge">
<title>Node5&#45;&gt;Node2</title>
<path fill="none" stroke="#9a32cd" stroke-dasharray="5,2" d="M60.11,-173.32C96.25,-168.61 155.02,-161.68 206,-159 235.74,-157.43 243.48,-155.09 273,-159 349.2,-169.09 376.35,-160.9 440,-204 451.04,-211.48 447.05,-220.4 458,-228 463.56,-231.86 469.91,-234.95 476.41,-237.41"/>
<polygon fill="#9a32cd" stroke="#9a32cd" points="59.56,-169.86 50.1,-174.64 60.47,-176.8 59.56,-169.86"/>
<text text-anchor="middle" x="239.5" y="-272" font-family="Helvetica,sans-Serif" font-size="10.00"> Aloss</text>
<text text-anchor="middle" x="239.5" y="-261" font-family="Helvetica,sans-Serif" font-size="10.00">Rloss</text>
<text text-anchor="middle" x="239.5" y="-250" font-family="Helvetica,sans-Serif" font-size="10.00">Bloss</text>
<text text-anchor="middle" x="239.5" y="-239" font-family="Helvetica,sans-Serif" font-size="10.00">Gloss</text>
<text text-anchor="middle" x="239.5" y="-228" font-family="Helvetica,sans-Serif" font-size="10.00">Gshift</text>
<text text-anchor="middle" x="239.5" y="-217" font-family="Helvetica,sans-Serif" font-size="10.00">alpha</text>
<text text-anchor="middle" x="239.5" y="-206" font-family="Helvetica,sans-Serif" font-size="10.00">BytesPerPixel</text>
<text text-anchor="middle" x="239.5" y="-195" font-family="Helvetica,sans-Serif" font-size="10.00">BitsPerPixel</text>
<text text-anchor="middle" x="239.5" y="-184" font-family="Helvetica,sans-Serif" font-size="10.00">Bshift</text>
<text text-anchor="middle" x="239.5" y="-173" font-family="Helvetica,sans-Serif" font-size="10.00">Ashift</text>
<text text-anchor="middle" x="239.5" y="-162" font-family="Helvetica,sans-Serif" font-size="10.00">...</text>
</g>
<!-- Node5&#45;&gt;Node4 -->
<g id="edge4" class="edge">
<title>Node5&#45;&gt;Node4</title>
<path fill="none" stroke="#9a32cd" stroke-dasharray="5,2" d="M51.25,-192.79C76.86,-207.8 115.73,-230.58 137.59,-243.39"/>
<polygon fill="#9a32cd" stroke="#9a32cd" points="52.87,-189.69 42.47,-187.65 49.33,-195.73 52.87,-189.69"/>
<text text-anchor="middle" x="86" y="-258" font-family="Helvetica,sans-Serif" font-size="10.00"> g</text>
<text text-anchor="middle" x="86" y="-247" font-family="Helvetica,sans-Serif" font-size="10.00">unused</text>
<text text-anchor="middle" x="86" y="-236" font-family="Helvetica,sans-Serif" font-size="10.00">r</text>
<text text-anchor="middle" x="86" y="-225" font-family="Helvetica,sans-Serif" font-size="10.00">b</text>
</g>
<!-- Node6 -->
<g id="node6" class="node">
<title>Node6</title>
<g id="a_node6"><a xlink:title=" ">
<polygon fill="none" stroke="#bfbfbf" points="140.5,-351.5 140.5,-370.5 169.5,-370.5 169.5,-351.5 140.5,-351.5"/>
<text text-anchor="middle" x="155" y="-358.5" font-family="Helvetica,sans-Serif" font-size="10.00">int</text>
</a>
</g>
</g>
<!-- Node6&#45;&gt;Node1 -->
<g id="edge14" class="edge">
<title>Node6&#45;&gt;Node1</title>
<path fill="none" stroke="#9a32cd" stroke-dasharray="5,2" d="M179.49,-365.37C245.94,-376.75 440.14,-403.03 589,-353 639.05,-336.18 650.97,-323.37 685,-283 712.69,-250.15 730.75,-201.11 737.51,-180.58"/>
<polygon fill="#9a32cd" stroke="#9a32cd" points="180.06,-361.92 169.6,-363.63 178.84,-368.81 180.06,-361.92"/>
<text text-anchor="middle" x="419" y="-418" font-family="Helvetica,sans-Serif" font-size="10.00"> w</text>
<text text-anchor="middle" x="419" y="-407" font-family="Helvetica,sans-Serif" font-size="10.00">offset</text>
<text text-anchor="middle" x="419" y="-396" font-family="Helvetica,sans-Serif" font-size="10.00">h</text>
<text text-anchor="middle" x="419" y="-385" font-family="Helvetica,sans-Serif" font-size="10.00">refcount</text>
</g>
<!-- Node6&#45;&gt;Node3 -->
<g id="edge5" class="edge">
<title>Node6&#45;&gt;Node3</title>
<path fill="none" stroke="#9a32cd" stroke-dasharray="5,2" d="M179.05,-350.03C205.86,-337.32 251.5,-315.84 291,-298 297.91,-294.88 305.47,-291.55 312.32,-288.56"/>
<polygon fill="#9a32cd" stroke="#9a32cd" points="177.28,-347 169.75,-354.45 180.28,-353.32 177.28,-347"/>
<text text-anchor="middle" x="239.5" y="-339" font-family="Helvetica,sans-Serif" font-size="10.00"> ncolors</text>
</g>
<!-- Node7 -->
<g id="node7" class="node">
<title>Node7</title>
<g id="a_node7"><a xlink:href="../../d2/d5f/classunsigned_01int.html" target="_top" xlink:title=" ">
<polygon fill="none" stroke="black" points="297,-307.5 297,-326.5 374,-326.5 374,-307.5 297,-307.5"/>
<text text-anchor="middle" x="335.5" y="-314.5" font-family="Helvetica,sans-Serif" font-size="10.00">unsigned int</text>
</a>
</g>
</g>
<!-- Node7&#45;&gt;Node1 -->
<g id="edge15" class="edge">
<title>Node7&#45;&gt;Node1</title>
<path fill="none" stroke="#9a32cd" stroke-dasharray="5,2" d="M384.13,-319.2C455.55,-320.19 591.89,-312.9 685,-251 711.75,-233.22 729.36,-197.76 736.67,-180.66"/>
<polygon fill="#9a32cd" stroke="#9a32cd" points="384.15,-315.7 374.08,-319 384.01,-322.7 384.15,-315.7"/>
<text text-anchor="middle" x="523.5" y="-341" font-family="Helvetica,sans-Serif" font-size="10.00"> flags</text>
<text text-anchor="middle" x="523.5" y="-330" font-family="Helvetica,sans-Serif" font-size="10.00">unused1</text>
<text text-anchor="middle" x="523.5" y="-319" font-family="Helvetica,sans-Serif" font-size="10.00">locked</text>
</g>
<!-- Node7&#45;&gt;Node2 -->
<g id="edge7" class="edge">
<title>Node7&#45;&gt;Node2</title>
<path fill="none" stroke="#9a32cd" stroke-dasharray="5,2" d="M375.59,-302.03C377.17,-300.78 378.65,-299.44 380,-298 396.14,-280.76 378.73,-261.66 398,-248 424.01,-229.56 461.38,-232.04 488.38,-237.45"/>
<polygon fill="#9a32cd" stroke="#9a32cd" points="373.65,-299.12 367.12,-307.47 377.43,-305.01 373.65,-299.12"/>
<text text-anchor="middle" x="419" y="-295" font-family="Helvetica,sans-Serif" font-size="10.00"> Gmask</text>
<text text-anchor="middle" x="419" y="-284" font-family="Helvetica,sans-Serif" font-size="10.00">colorkey</text>
<text text-anchor="middle" x="419" y="-273" font-family="Helvetica,sans-Serif" font-size="10.00">Amask</text>
<text text-anchor="middle" x="419" y="-262" font-family="Helvetica,sans-Serif" font-size="10.00">Rmask</text>
<text text-anchor="middle" x="419" y="-251" font-family="Helvetica,sans-Serif" font-size="10.00">Bmask</text>
</g>
<!-- Node8 -->
<g id="node8" class="node">
<title>Node8</title>
<g id="a_node8"><a xlink:title=" ">
<polygon fill="none" stroke="#bfbfbf" points="458,-199.5 458,-218.5 589,-218.5 589,-199.5 458,-199.5"/>
<text text-anchor="middle" x="523.5" y="-206.5" font-family="Helvetica,sans-Serif" font-size="10.00">struct private_hwdata *</text>
</a>
</g>
</g>
<!-- Node8&#45;&gt;Node1 -->
<g id="edge8" class="edge">
<title>Node8&#45;&gt;Node1</title>
<path fill="none" stroke="#9a32cd" stroke-dasharray="5,2" d="M599.43,-200.18C626.52,-196.49 657.25,-191.72 685,-186 692.43,-184.47 700.34,-182.53 707.79,-180.55"/>
<polygon fill="#9a32cd" stroke="#9a32cd" points="598.69,-196.75 589.24,-201.55 599.62,-203.69 598.69,-196.75"/>
<text text-anchor="middle" x="646" y="-201" font-family="Helvetica,sans-Serif" font-size="10.00"> hwdata</text>
</g>
<!-- Node9 -->
<g id="node9" class="node">
<title>Node9</title>
<g id="a_node9"><a xlink:title=" ">
<polygon fill="none" stroke="#bfbfbf" points="504.5,-161.5 504.5,-180.5 542.5,-180.5 542.5,-161.5 504.5,-161.5"/>
<text text-anchor="middle" x="523.5" y="-168.5" font-family="Helvetica,sans-Serif" font-size="10.00">void</text>
</a>
</g>
</g>
<!-- Node9&#45;&gt;Node1 -->
<g id="edge9" class="edge">
<title>Node9&#45;&gt;Node1</title>
<path fill="none" stroke="#9a32cd" stroke-dasharray="5,2" d="M552.99,-171C591.4,-171 659.91,-171 702.63,-171"/>
<polygon fill="#9a32cd" stroke="#9a32cd" points="552.54,-167.5 542.54,-171 552.54,-174.5 552.54,-167.5"/>
<text text-anchor="middle" x="646" y="-174" font-family="Helvetica,sans-Serif" font-size="10.00"> pixels</text>
</g>
<!-- Node10 -->
<g id="node10" class="node">
<title>Node10</title>
<g id="a_node10"><a xlink:title=" ">
<polygon fill="none" stroke="#bfbfbf" points="291,-104.5 291,-123.5 380,-123.5 380,-104.5 291,-104.5"/>
<text text-anchor="middle" x="335.5" y="-111.5" font-family="Helvetica,sans-Serif" font-size="10.00">unsigned short</text>
</a>
</g>
</g>
<!-- Node10&#45;&gt;Node1 -->
<g id="edge10" class="edge">
<title>Node10&#45;&gt;Node1</title>
<path fill="none" stroke="#9a32cd" stroke-dasharray="5,2" d="M390.63,-118.38C441.88,-122.87 520.9,-130.64 589,-141 628.1,-146.95 672.44,-156 703,-162.61"/>
<polygon fill="#9a32cd" stroke="#9a32cd" points="390.71,-114.88 380.44,-117.5 390.1,-121.85 390.71,-114.88"/>
<text text-anchor="middle" x="523.5" y="-144" font-family="Helvetica,sans-Serif" font-size="10.00"> pitch</text>
</g>
<!-- Node11 -->
<g id="node11" class="node">
<title>Node11</title>
<g id="a_node11"><a xlink:href="../../dd/da6/structSDL__Rect.html" target="_top" xlink:title=" ">
<polygon fill="none" stroke="black" points="492.5,-76.5 492.5,-95.5 554.5,-95.5 554.5,-76.5 492.5,-76.5"/>
<text text-anchor="middle" x="523.5" y="-83.5" font-family="Helvetica,sans-Serif" font-size="10.00">SDL_Rect</text>
</a>
</g>
</g>
<!-- Node10&#45;&gt;Node11 -->
<g id="edge12" class="edge">
<title>Node10&#45;&gt;Node11</title>
<path fill="none" stroke="#9a32cd" stroke-dasharray="5,2" d="M374.52,-101.56C382.22,-99.41 390.32,-97.42 398,-96 429.88,-90.12 466.98,-87.7 492.34,-86.7"/>
<polygon fill="#9a32cd" stroke="#9a32cd" points="373.3,-98.27 364.68,-104.44 375.26,-104.99 373.3,-98.27"/>
<text text-anchor="middle" x="419" y="-110" font-family="Helvetica,sans-Serif" font-size="10.00"> w</text>
<text text-anchor="middle" x="419" y="-99" font-family="Helvetica,sans-Serif" font-size="10.00">h</text>
</g>
<!-- Node11&#45;&gt;Node1 -->
<g id="edge11" class="edge">
<title>Node11&#45;&gt;Node1</title>
<path fill="none" stroke="#9a32cd" stroke-dasharray="5,2" d="M564.56,-83.56C598.57,-83.22 647.65,-86.92 685,-107 708.58,-119.67 726.68,-146.67 735.18,-161.23"/>
<polygon fill="#9a32cd" stroke="#9a32cd" points="564.44,-80.06 554.52,-83.78 564.6,-87.06 564.44,-80.06"/>
<text text-anchor="middle" x="646" y="-110" font-family="Helvetica,sans-Serif" font-size="10.00"> clip_rect</text>
</g>
<!-- Node12 -->
<g id="node12" class="node">
<title>Node12</title>
<g id="a_node12"><a xlink:title=" ">
<polygon fill="none" stroke="#bfbfbf" points="310.5,-40.5 310.5,-59.5 360.5,-59.5 360.5,-40.5 310.5,-40.5"/>
<text text-anchor="middle" x="335.5" y="-47.5" font-family="Helvetica,sans-Serif" font-size="10.00">int16_t</text>
</a>
</g>
</g>
<!-- Node12&#45;&gt;Node11 -->
<g id="edge13" class="edge">
<title>Node12&#45;&gt;Node11</title>
<path fill="none" stroke="#9a32cd" stroke-dasharray="5,2" d="M370.9,-53.55C391.13,-55.91 417.14,-59.42 440,-64 457.44,-67.49 476.66,-72.54 492.16,-76.93"/>
<polygon fill="#9a32cd" stroke="#9a32cd" points="371.23,-50.07 360.9,-52.42 370.45,-57.02 371.23,-50.07"/>
<text text-anchor="middle" x="419" y="-78" font-family="Helvetica,sans-Serif" font-size="10.00"> x</text>
<text text-anchor="middle" x="419" y="-67" font-family="Helvetica,sans-Serif" font-size="10.00">y</text>
</g>
<!-- Node13 -->
<g id="node13" class="node">
<title>Node13</title>
<g id="a_node13"><a xlink:title=" ">
<polygon fill="none" stroke="#bfbfbf" points="493,-38.5 493,-57.5 554,-57.5 554,-38.5 493,-38.5"/>
<text text-anchor="middle" x="523.5" y="-45.5" font-family="Helvetica,sans-Serif" font-size="10.00">unsigned</text>
</a>
</g>
</g>
<!-- Node13&#45;&gt;Node1 -->
<g id="edge16" class="edge">
<title>Node13&#45;&gt;Node1</title>
<path fill="none" stroke="#9a32cd" stroke-dasharray="5,2" d="M564.52,-43.97C599.33,-42.54 649.61,-45.67 685,-70 717.64,-92.44 732.99,-140.59 738.27,-161.25"/>
<polygon fill="#9a32cd" stroke="#9a32cd" points="564.04,-40.49 554.25,-44.54 564.43,-47.48 564.04,-40.49"/>
<text text-anchor="middle" x="646" y="-73" font-family="Helvetica,sans-Serif" font-size="10.00"> format_version</text>
</g>
<!-- Node14 -->
<g id="node14" class="node">
<title>Node14</title>
<g id="a_node14"><a xlink:title=" ">
<polygon fill="none" stroke="#bfbfbf" points="465,-0.5 465,-19.5 582,-19.5 582,-0.5 465,-0.5"/>
<text text-anchor="middle" x="523.5" y="-7.5" font-family="Helvetica,sans-Serif" font-size="10.00">struct SDL_BlitMap *</text>
</a>
</g>
</g>
<!-- Node14&#45;&gt;Node1 -->
<g id="edge17" class="edge">
<title>Node14&#45;&gt;Node1</title>
<path fill="none" stroke="#9a32cd" stroke-dasharray="5,2" d="M592.63,-3.48C623.69,-4.02 659.19,-9.97 685,-30 728.02,-63.38 737.76,-134.97 739.91,-161.15"/>
<polygon fill="#9a32cd" stroke="#9a32cd" points="592.29,0.02 582.29,-3.49 592.3,-6.98 592.29,0.02"/>
<text text-anchor="middle" x="646" y="-33" font-family="Helvetica,sans-Serif" font-size="10.00"> map</text>
</g>
</g>
</svg>
        <g id="navigator" transform="translate(0 0)" fill="#404254">
                <rect fill="#f2f5e9" fill-opacity="0.5" stroke="#606060" stroke-width=".5" x="0" y="0" width="60" height="60"/>
                <use id="zoomplus" xlink:href="#zoomPlus" x="17" y="9" onmousedown="handleZoom(evt,'in')"/>
                <use id="zoomminus" xlink:href="#zoomMin" x="42" y="9" onmousedown="handleZoom(evt,'out')"/>
                <use id="reset" xlink:href="#resetDef" x="30" y="36" onmousedown="handleReset()"/>
                <g id="arrowUp" xlink:href="#dirArrow" transform="translate(30 24)" onmousedown="handlePan(0,-1)">
                  <use xlink:href="#rim" fill="#404040">
                        <set attributeName="fill" to="#808080" begin="arrowUp.mouseover" end="arrowUp.mouseout"/>
                  </use>
                  <path fill="none" stroke="white" stroke-width="1.5" d="M0,-3.0v7 M-2.5,-0.5L0,-3.0L2.5,-0.5"/>
                </g>
                <g id="arrowRight" xlink:href="#dirArrow" transform="rotate(90) translate(36 -43)" onmousedown="handlePan(1,0)">
                  <use xlink:href="#rim" fill="#404040">
                        <set attributeName="fill" to="#808080" begin="arrowRight.mouseover" end="arrowRight.mouseout"/>
                  </use>
                  <path fill="none" stroke="white" stroke-width="1.5" d="M0,-3.0v7 M-2.5,-0.5L0,-3.0L2.5,-0.5"/>
                </g>
                <g id="arrowDown" xlink:href="#dirArrow" transform="rotate(180) translate(-30 -48)" onmousedown="handlePan(0,1)">
                  <use xlink:href="#rim" fill="#404040">
                        <set attributeName="fill" to="#808080" begin="arrowDown.mouseover" end="arrowDown.mouseout"/>
                  </use>
                  <path fill="none" stroke="white" stroke-width="1.5" d="M0,-3.0v7 M-2.5,-0.5L0,-3.0L2.5,-0.5"/>
                </g>
                <g id="arrowLeft" xlink:href="#dirArrow" transform="rotate(270) translate(-36 17)" onmousedown="handlePan(-1,0)">
                  <use xlink:href="#rim" fill="#404040">
                        <set attributeName="fill" to="#808080" begin="arrowLeft.mouseover" end="arrowLeft.mouseout"/>
                  </use>
                  <path fill="none" stroke="white" stroke-width="1.5" d="M0,-3.0v7 M-2.5,-0.5L0,-3.0L2.5,-0.5"/>
                </g>
        </g>
        <svg viewBox="0 0 15 15" width="100%" height="30px" preserveAspectRatio="xMaxYMin meet">
         <g id="arrow_out" transform="scale(0.3 0.3)">
          <a xlink:href="structSDL__Surface__coll__graph_org.svg" target="_base">
           <rect id="button" ry="5" rx="5" y="6" x="6" height="38" width="38"
                fill="#f2f5e9" fill-opacity="0.5" stroke="#606060" stroke-width="1.0"/>
           <path id="arrow"
             d="M 11.500037,31.436501 C 11.940474,20.09759 22.043105,11.32322 32.158766,21.979434 L 37.068811,17.246167 C 37.068811,17.246167 37.088388,32 37.088388,32 L 22.160133,31.978069 C 22.160133,31.978069 26.997745,27.140456 26.997745,27.140456 C 18.528582,18.264221 13.291696,25.230495 11.500037,31.436501 z"
             style="fill:#404040;"/>
          </a>
         </g>
        </svg>
</svg>
