<?xml version="1.0" encoding="UTF-8" standalone="no"?>
<!DOCTYPE svg PUBLIC "-//W3C//DTD SVG 1.1//EN"
 "http://www.w3.org/Graphics/SVG/1.1/DTD/svg11.dtd">
<!-- Generated by graphviz version 2.43.0 (0)
 -->
<!-- Title: _USBSCAN_PIPE_INFORMATION Pages: 1 -->
<svg width="249pt" height="117pt"
 viewBox="0.00 0.00 248.50 117.00" xmlns="http://www.w3.org/2000/svg" xmlns:xlink="http://www.w3.org/1999/xlink">
<g id="graph0" class="graph" transform="scale(1 1) rotate(0) translate(4 113)">
<title>_USBSCAN_PIPE_INFORMATION</title>
<!-- Node1 -->
<g id="node1" class="node">
<title>Node1</title>
<g id="a_node1"><a xlink:title=" ">
<polygon fill="#bfbfbf" stroke="black" points="10.5,-0.5 10.5,-19.5 180.5,-19.5 180.5,-0.5 10.5,-0.5"/>
<text text-anchor="middle" x="95.5" y="-7.5" font-family="Helvetica,sans-Serif" font-size="10.00">_USBSCAN_PIPE_INFORMATION</text>
</a>
</g>
</g>
<!-- Node2 -->
<g id="node2" class="node">
<title>Node2</title>
<g id="a_node2"><a xlink:title=" ">
<polygon fill="none" stroke="#bfbfbf" points="0,-89.5 0,-108.5 95,-108.5 95,-89.5 0,-89.5"/>
<text text-anchor="middle" x="47.5" y="-96.5" font-family="Helvetica,sans-Serif" font-size="10.00">RAW_PIPE_TYPE</text>
</a>
</g>
</g>
<!-- Node2&#45;&gt;Node1 -->
<g id="edge1" class="edge">
<title>Node2&#45;&gt;Node1</title>
<path fill="none" stroke="#9a32cd" stroke-dasharray="5,2" d="M54.44,-79.62C59.35,-67.44 66.48,-51.32 74.5,-38 78.42,-31.49 83.67,-24.74 87.94,-19.62"/>
<polygon fill="#9a32cd" stroke="#9a32cd" points="51.1,-78.54 50.72,-89.13 57.62,-81.09 51.1,-78.54"/>
<text text-anchor="middle" x="98" y="-52" font-family="Helvetica,sans-Serif" font-size="10.00"> PipeType</text>
</g>
<!-- Node3 -->
<g id="node3" class="node">
<title>Node3</title>
<g id="a_node3"><a xlink:title=" ">
<polygon fill="none" stroke="#bfbfbf" points="113,-89.5 113,-108.5 174,-108.5 174,-89.5 113,-89.5"/>
<text text-anchor="middle" x="143.5" y="-96.5" font-family="Helvetica,sans-Serif" font-size="10.00">unsigned</text>
</a>
</g>
</g>
<!-- Node3&#45;&gt;Node1 -->
<g id="edge2" class="edge">
<title>Node3&#45;&gt;Node1</title>
<path fill="none" stroke="#9a32cd" stroke-dasharray="5,2" d="M138.83,-79.32C135.23,-66.99 129.52,-50.82 121.5,-38 117.22,-31.16 110.99,-24.61 105.7,-19.68"/>
<polygon fill="#9a32cd" stroke="#9a32cd" points="135.55,-80.6 141.53,-89.35 142.31,-78.78 135.55,-80.6"/>
<text text-anchor="middle" x="188" y="-63" font-family="Helvetica,sans-Serif" font-size="10.00"> MaximumPacketSize</text>
<text text-anchor="middle" x="188" y="-52" font-family="Helvetica,sans-Serif" font-size="10.00">EndpointAddress</text>
<text text-anchor="middle" x="188" y="-41" font-family="Helvetica,sans-Serif" font-size="10.00">Interval</text>
</g>
</g>
</svg>
