<?xml version="1.0" encoding="UTF-8" standalone="no"?>
<!DOCTYPE svg PUBLIC "-//W3C//DTD SVG 1.1//EN"
 "http://www.w3.org/Graphics/SVG/1.1/DTD/svg11.dtd">
<!-- Generated by graphviz version 2.43.0 (0)
 -->
<!-- Title: Engine/tools/lcc/src/token.h Pages: 1 -->
<!--zoomable 162 -->
<svg id="main" version="1.1" xmlns="http://www.w3.org/2000/svg" xmlns:xlink="http://www.w3.org/1999/xlink" xml:space="preserve" onload="init(evt)">
<style type="text/css"><![CDATA[
.edge:hover path { stroke: red; }
.edge:hover polygon { stroke: red; fill: red; }
]]></style>
<script type="text/javascript"><![CDATA[
var edges = document.getElementsByTagName('g');
if (edges && edges.length) {
  for (var i=0;i<edges.length;i++) {
    if (edges[i].id.substr(0,4)=='edge') {
      edges[i].setAttribute('class','edge');
    }
  }
}
]]></script>
        <defs>
                <circle id="rim" cx="0" cy="0" r="7"/>
                <circle id="rim2" cx="0" cy="0" r="3.5"/>
                <g id="zoomPlus">
                        <use xlink:href="#rim" fill="#404040">
                                <set attributeName="fill" to="#808080" begin="zoomplus.mouseover" end="zoomplus.mouseout"/>
                        </use>
                        <path d="M-4,0h8M0,-4v8" fill="none" stroke="white" stroke-width="1.5" pointer-events="none"/>
                </g>
                <g id="zoomMin">
                        <use xlink:href="#rim" fill="#404040">
                                <set attributeName="fill" to="#808080" begin="zoomminus.mouseover" end="zoomminus.mouseout"/>
                        </use>
                        <path d="M-4,0h8" fill="none" stroke="white" stroke-width="1.5" pointer-events="none"/>
                </g>
                <g id="dirArrow">
                        <path fill="none" stroke="white" stroke-width="1.5" d="M0,-3.0v7 M-2.5,-0.5L0,-3.0L2.5,-0.5"/>
                </g>
               <g id="resetDef">
                       <use xlink:href="#rim2" fill="#404040">
                               <set attributeName="fill" to="#808080" begin="reset.mouseover" end="reset.mouseout"/>
                       </use>
               </g>
        </defs>

<script type="text/javascript">
var viewWidth = 3446;
var viewHeight = 162;
var sectionId = 'dynsection-0';
</script>
<script xlink:href="../../svgpan.js"/>
<svg id="graph" class="graph">
<g id="viewport">
<title>Engine/tools/lcc/src/token.h</title>
<!-- Node1 -->
<g id="node1" class="node">
<title>Node1</title>
<g id="a_node1"><a xlink:title=" ">
<polygon fill="#bfbfbf" stroke="black" points="256,-123.5 256,-153.5 366,-153.5 366,-123.5 256,-123.5"/>
<text text-anchor="start" x="264" y="-141.5" font-family="Helvetica,sans-Serif" font-size="10.00">Engine/tools/lcc/src</text>
<text text-anchor="middle" x="311" y="-130.5" font-family="Helvetica,sans-Serif" font-size="10.00">/token.h</text>
</a>
</g>
</g>
<!-- Node2 -->
<g id="node2" class="node">
<title>Node2</title>
<g id="a_node2"><a xlink:href="../../d2/dc5/c_8h.html" target="_top" xlink:title=" ">
<polygon fill="none" stroke="black" points="1591,-67.5 1591,-86.5 1719,-86.5 1719,-67.5 1591,-67.5"/>
<text text-anchor="middle" x="1655" y="-74.5" font-family="Helvetica,sans-Serif" font-size="10.00">Engine/tools/lcc/src/c.h</text>
</a>
</g>
</g>
<!-- Node1&#45;&gt;Node2 -->
<g id="edge1" class="edge">
<title>Node1&#45;&gt;Node2</title>
<path fill="none" stroke="midnightblue" d="M376.33,-134.61C604.55,-124.5 1364.61,-90.86 1590.9,-80.84"/>
<polygon fill="midnightblue" stroke="midnightblue" points="376.03,-131.12 366.19,-135.06 376.34,-138.11 376.03,-131.12"/>
</g>
<!-- Node8 -->
<g id="node8" class="node">
<title>Node8</title>
<g id="a_node8"><a xlink:href="../../d6/de3/enode_8c.html" target="_top" xlink:title=" ">
<polygon fill="none" stroke="black" points="0,-0.5 0,-30.5 110,-30.5 110,-0.5 0,-0.5"/>
<text text-anchor="start" x="8" y="-18.5" font-family="Helvetica,sans-Serif" font-size="10.00">Engine/tools/lcc/src</text>
<text text-anchor="middle" x="55" y="-7.5" font-family="Helvetica,sans-Serif" font-size="10.00">/enode.c</text>
</a>
</g>
</g>
<!-- Node1&#45;&gt;Node8 -->
<g id="edge29" class="edge">
<title>Node1&#45;&gt;Node8</title>
<path fill="none" stroke="midnightblue" d="M271.98,-119.06C220.5,-94.72 131,-52.42 84.68,-30.53"/>
<polygon fill="midnightblue" stroke="midnightblue" points="270.6,-122.27 281.13,-123.38 273.59,-115.95 270.6,-122.27"/>
</g>
<!-- Node9 -->
<g id="node9" class="node">
<title>Node9</title>
<g id="a_node9"><a xlink:href="../../db/dcc/error_8c.html" target="_top" xlink:title=" ">
<polygon fill="none" stroke="black" points="128,-0.5 128,-30.5 238,-30.5 238,-0.5 128,-0.5"/>
<text text-anchor="start" x="136" y="-18.5" font-family="Helvetica,sans-Serif" font-size="10.00">Engine/tools/lcc/src</text>
<text text-anchor="middle" x="183" y="-7.5" font-family="Helvetica,sans-Serif" font-size="10.00">/error.c</text>
</a>
</g>
</g>
<!-- Node1&#45;&gt;Node9 -->
<g id="edge30" class="edge">
<title>Node1&#45;&gt;Node9</title>
<path fill="none" stroke="midnightblue" d="M288.53,-116.26C262.44,-91.59 220.13,-51.6 197.84,-30.53"/>
<polygon fill="midnightblue" stroke="midnightblue" points="286.39,-119.06 296.07,-123.38 291.2,-113.97 286.39,-119.06"/>
</g>
<!-- Node11 -->
<g id="node11" class="node">
<title>Node11</title>
<g id="a_node11"><a xlink:href="../../d2/d3a/expr_8c.html" target="_top" xlink:title=" ">
<polygon fill="none" stroke="black" points="256,-0.5 256,-30.5 366,-30.5 366,-0.5 256,-0.5"/>
<text text-anchor="start" x="264" y="-18.5" font-family="Helvetica,sans-Serif" font-size="10.00">Engine/tools/lcc/src</text>
<text text-anchor="middle" x="311" y="-7.5" font-family="Helvetica,sans-Serif" font-size="10.00">/expr.c</text>
</a>
</g>
</g>
<!-- Node1&#45;&gt;Node11 -->
<g id="edge31" class="edge">
<title>Node1&#45;&gt;Node11</title>
<path fill="none" stroke="midnightblue" d="M311,-113.12C311,-88.44 311,-51.11 311,-30.84"/>
<polygon fill="midnightblue" stroke="midnightblue" points="307.5,-113.14 311,-123.14 314.5,-113.14 307.5,-113.14"/>
</g>
<!-- Node19 -->
<g id="node19" class="node">
<title>Node19</title>
<g id="a_node19"><a xlink:href="../../d6/d35/output_8c.html" target="_top" xlink:title=" ">
<polygon fill="none" stroke="black" points="3328,-0.5 3328,-30.5 3438,-30.5 3438,-0.5 3328,-0.5"/>
<text text-anchor="start" x="3336" y="-18.5" font-family="Helvetica,sans-Serif" font-size="10.00">Engine/tools/lcc/src</text>
<text text-anchor="middle" x="3383" y="-7.5" font-family="Helvetica,sans-Serif" font-size="10.00">/output.c</text>
</a>
</g>
</g>
<!-- Node1&#45;&gt;Node19 -->
<g id="edge32" class="edge">
<title>Node1&#45;&gt;Node19</title>
<path fill="none" stroke="midnightblue" d="M376.08,-136.86C758.92,-132.82 2721.39,-108.58 3319,-31 3321.94,-30.62 3324.94,-30.17 3327.96,-29.66"/>
<polygon fill="midnightblue" stroke="midnightblue" points="375.97,-133.36 366,-136.96 376.04,-140.36 375.97,-133.36"/>
</g>
<!-- Node3 -->
<g id="node3" class="node">
<title>Node3</title>
<g id="a_node3"><a xlink:href="../../d9/d39/alloc_8c.html" target="_top" xlink:title=" ">
<polygon fill="none" stroke="black" points="1792,-0.5 1792,-30.5 1902,-30.5 1902,-0.5 1792,-0.5"/>
<text text-anchor="start" x="1800" y="-18.5" font-family="Helvetica,sans-Serif" font-size="10.00">Engine/tools/lcc/src</text>
<text text-anchor="middle" x="1847" y="-7.5" font-family="Helvetica,sans-Serif" font-size="10.00">/alloc.c</text>
</a>
</g>
</g>
<!-- Node2&#45;&gt;Node3 -->
<g id="edge2" class="edge">
<title>Node2&#45;&gt;Node3</title>
<path fill="none" stroke="midnightblue" d="M1692.16,-64.48C1723.47,-54.78 1768.36,-40.87 1801.75,-30.52"/>
<polygon fill="midnightblue" stroke="midnightblue" points="1691.02,-61.17 1682.51,-67.48 1693.1,-67.86 1691.02,-61.17"/>
</g>
<!-- Node4 -->
<g id="node4" class="node">
<title>Node4</title>
<g id="a_node4"><a xlink:href="../../d6/d6d/bind_8c.html" target="_top" xlink:title=" ">
<polygon fill="none" stroke="black" points="1920,-0.5 1920,-30.5 2030,-30.5 2030,-0.5 1920,-0.5"/>
<text text-anchor="start" x="1928" y="-18.5" font-family="Helvetica,sans-Serif" font-size="10.00">Engine/tools/lcc/src</text>
<text text-anchor="middle" x="1975" y="-7.5" font-family="Helvetica,sans-Serif" font-size="10.00">/bind.c</text>
</a>
</g>
</g>
<!-- Node2&#45;&gt;Node4 -->
<g id="edge3" class="edge">
<title>Node2&#45;&gt;Node4</title>
<path fill="none" stroke="midnightblue" d="M1718.15,-65.78C1770.06,-57.17 1845.47,-44.17 1911,-31 1913.9,-30.42 1916.88,-29.8 1919.88,-29.17"/>
<polygon fill="midnightblue" stroke="midnightblue" points="1717.39,-62.36 1708.09,-67.44 1718.53,-69.27 1717.39,-62.36"/>
</g>
<!-- Node5 -->
<g id="node5" class="node">
<title>Node5</title>
<g id="a_node5"><a xlink:href="../../db/d10/src_2bytecode_8c.html" target="_top" xlink:title=" ">
<polygon fill="none" stroke="black" points="2048,-0.5 2048,-30.5 2158,-30.5 2158,-0.5 2048,-0.5"/>
<text text-anchor="start" x="2056" y="-18.5" font-family="Helvetica,sans-Serif" font-size="10.00">Engine/tools/lcc/src</text>
<text text-anchor="middle" x="2103" y="-7.5" font-family="Helvetica,sans-Serif" font-size="10.00">/bytecode.c</text>
</a>
</g>
</g>
<!-- Node2&#45;&gt;Node5 -->
<g id="edge4" class="edge">
<title>Node2&#45;&gt;Node5</title>
<path fill="none" stroke="midnightblue" d="M1729.32,-69.65C1806.92,-62.47 1932,-49.34 2039,-31 2041.92,-30.5 2044.91,-29.95 2047.92,-29.37"/>
<polygon fill="midnightblue" stroke="midnightblue" points="1728.8,-66.18 1719.17,-70.58 1729.44,-73.15 1728.8,-66.18"/>
</g>
<!-- Node6 -->
<g id="node6" class="node">
<title>Node6</title>
<g id="a_node6"><a xlink:href="../../de/d26/dag_8c.html" target="_top" xlink:title=" ">
<polygon fill="none" stroke="black" points="2176,-0.5 2176,-30.5 2286,-30.5 2286,-0.5 2176,-0.5"/>
<text text-anchor="start" x="2184" y="-18.5" font-family="Helvetica,sans-Serif" font-size="10.00">Engine/tools/lcc/src</text>
<text text-anchor="middle" x="2231" y="-7.5" font-family="Helvetica,sans-Serif" font-size="10.00">/dag.c</text>
</a>
</g>
</g>
<!-- Node2&#45;&gt;Node6 -->
<g id="edge5" class="edge">
<title>Node2&#45;&gt;Node6</title>
<path fill="none" stroke="midnightblue" d="M1729.19,-72.63C1829.12,-67.37 2012.3,-55.21 2167,-31 2169.93,-30.54 2172.92,-30.03 2175.93,-29.47"/>
<polygon fill="midnightblue" stroke="midnightblue" points="1729,-69.13 1719.19,-73.15 1729.36,-76.13 1729,-69.13"/>
</g>
<!-- Node7 -->
<g id="node7" class="node">
<title>Node7</title>
<g id="a_node7"><a xlink:href="../../d4/d28/decl_8c.html" target="_top" xlink:title=" ">
<polygon fill="none" stroke="black" points="2304,-0.5 2304,-30.5 2414,-30.5 2414,-0.5 2304,-0.5"/>
<text text-anchor="start" x="2312" y="-18.5" font-family="Helvetica,sans-Serif" font-size="10.00">Engine/tools/lcc/src</text>
<text text-anchor="middle" x="2359" y="-7.5" font-family="Helvetica,sans-Serif" font-size="10.00">/decl.c</text>
</a>
</g>
</g>
<!-- Node2&#45;&gt;Node7 -->
<g id="edge6" class="edge">
<title>Node2&#45;&gt;Node7</title>
<path fill="none" stroke="midnightblue" d="M1729.55,-74.44C1849.34,-71.12 2091.83,-60.98 2295,-31 2297.93,-30.57 2300.93,-30.07 2303.94,-29.53"/>
<polygon fill="midnightblue" stroke="midnightblue" points="1729.29,-70.95 1719.39,-74.72 1729.48,-77.95 1729.29,-70.95"/>
</g>
<!-- Node2&#45;&gt;Node8 -->
<g id="edge7" class="edge">
<title>Node2&#45;&gt;Node8</title>
<path fill="none" stroke="midnightblue" d="M1580.65,-75.73C1314.06,-74.45 406.78,-67.47 119,-31 116.06,-30.63 113.06,-30.18 110.04,-29.68"/>
<polygon fill="midnightblue" stroke="midnightblue" points="1580.97,-79.23 1590.98,-75.78 1581,-72.23 1580.97,-79.23"/>
</g>
<!-- Node2&#45;&gt;Node9 -->
<g id="edge8" class="edge">
<title>Node2&#45;&gt;Node9</title>
<path fill="none" stroke="midnightblue" d="M1580.53,-75.49C1328.48,-73.49 508.55,-64.5 247,-31 244.06,-30.62 241.06,-30.17 238.04,-29.67"/>
<polygon fill="midnightblue" stroke="midnightblue" points="1580.66,-79 1590.69,-75.57 1580.71,-72 1580.66,-79"/>
</g>
<!-- Node10 -->
<g id="node10" class="node">
<title>Node10</title>
<g id="a_node10"><a xlink:href="../../d0/deb/event_8c.html" target="_top" xlink:title=" ">
<polygon fill="none" stroke="black" points="2432,-0.5 2432,-30.5 2542,-30.5 2542,-0.5 2432,-0.5"/>
<text text-anchor="start" x="2440" y="-18.5" font-family="Helvetica,sans-Serif" font-size="10.00">Engine/tools/lcc/src</text>
<text text-anchor="middle" x="2487" y="-7.5" font-family="Helvetica,sans-Serif" font-size="10.00">/event.c</text>
</a>
</g>
</g>
<!-- Node2&#45;&gt;Node10 -->
<g id="edge9" class="edge">
<title>Node2&#45;&gt;Node10</title>
<path fill="none" stroke="midnightblue" d="M1729.08,-75.69C1866.54,-74.23 2170.13,-66.81 2423,-31 2425.93,-30.58 2428.93,-30.1 2431.95,-29.58"/>
<polygon fill="midnightblue" stroke="midnightblue" points="1729.04,-72.19 1719.07,-75.79 1729.11,-79.19 1729.04,-72.19"/>
</g>
<!-- Node2&#45;&gt;Node11 -->
<g id="edge10" class="edge">
<title>Node2&#45;&gt;Node11</title>
<path fill="none" stroke="midnightblue" d="M1580.59,-75.22C1343.95,-72.44 610.48,-61.54 375,-31 372.06,-30.62 369.06,-30.17 366.04,-29.66"/>
<polygon fill="midnightblue" stroke="midnightblue" points="1580.77,-78.72 1590.81,-75.34 1580.85,-71.72 1580.77,-78.72"/>
</g>
<!-- Node12 -->
<g id="node12" class="node">
<title>Node12</title>
<g id="a_node12"><a xlink:href="../../de/d31/gen_8c.html" target="_top" xlink:title=" ">
<polygon fill="none" stroke="black" points="2560,-0.5 2560,-30.5 2670,-30.5 2670,-0.5 2560,-0.5"/>
<text text-anchor="start" x="2568" y="-18.5" font-family="Helvetica,sans-Serif" font-size="10.00">Engine/tools/lcc/src</text>
<text text-anchor="middle" x="2615" y="-7.5" font-family="Helvetica,sans-Serif" font-size="10.00">/gen.c</text>
</a>
</g>
</g>
<!-- Node2&#45;&gt;Node12 -->
<g id="edge11" class="edge">
<title>Node2&#45;&gt;Node12</title>
<path fill="none" stroke="midnightblue" d="M1729.47,-76.59C1883.57,-76.85 2248.38,-72.56 2551,-31 2553.93,-30.6 2556.93,-30.13 2559.95,-29.61"/>
<polygon fill="midnightblue" stroke="midnightblue" points="1729.19,-73.09 1719.18,-76.56 1729.17,-80.09 1729.19,-73.09"/>
</g>
<!-- Node13 -->
<g id="node13" class="node">
<title>Node13</title>
<g id="a_node13"><a xlink:href="../../d8/d60/init_8c.html" target="_top" xlink:title=" ">
<polygon fill="none" stroke="black" points="2688,-0.5 2688,-30.5 2798,-30.5 2798,-0.5 2688,-0.5"/>
<text text-anchor="start" x="2696" y="-18.5" font-family="Helvetica,sans-Serif" font-size="10.00">Engine/tools/lcc/src</text>
<text text-anchor="middle" x="2743" y="-7.5" font-family="Helvetica,sans-Serif" font-size="10.00">/init.c</text>
</a>
</g>
</g>
<!-- Node2&#45;&gt;Node13 -->
<g id="edge12" class="edge">
<title>Node2&#45;&gt;Node13</title>
<path fill="none" stroke="midnightblue" d="M1729.41,-74.46C1932.84,-69.97 2495.35,-55.64 2679,-31 2681.94,-30.61 2684.94,-30.14 2687.96,-29.63"/>
<polygon fill="midnightblue" stroke="midnightblue" points="1729.05,-70.97 1719.13,-74.68 1729.2,-77.96 1729.05,-70.97"/>
</g>
<!-- Node14 -->
<g id="node14" class="node">
<title>Node14</title>
<g id="a_node14"><a xlink:href="../../d1/d06/input_8c.html" target="_top" xlink:title=" ">
<polygon fill="none" stroke="black" points="2816,-0.5 2816,-30.5 2926,-30.5 2926,-0.5 2816,-0.5"/>
<text text-anchor="start" x="2824" y="-18.5" font-family="Helvetica,sans-Serif" font-size="10.00">Engine/tools/lcc/src</text>
<text text-anchor="middle" x="2871" y="-7.5" font-family="Helvetica,sans-Serif" font-size="10.00">/input.c</text>
</a>
</g>
</g>
<!-- Node2&#45;&gt;Node14 -->
<g id="edge13" class="edge">
<title>Node2&#45;&gt;Node14</title>
<path fill="none" stroke="midnightblue" d="M1729.4,-74.88C1949.89,-71.28 2597.5,-58.59 2807,-31 2809.94,-30.61 2812.94,-30.16 2815.96,-29.65"/>
<polygon fill="midnightblue" stroke="midnightblue" points="1729.17,-71.38 1719.23,-75.05 1729.28,-78.38 1729.17,-71.38"/>
</g>
<!-- Node15 -->
<g id="node15" class="node">
<title>Node15</title>
<g id="a_node15"><a xlink:href="../../dc/d73/src_2lex_8c.html" target="_top" xlink:title=" ">
<polygon fill="none" stroke="black" points="2944,-0.5 2944,-30.5 3054,-30.5 3054,-0.5 2944,-0.5"/>
<text text-anchor="start" x="2952" y="-18.5" font-family="Helvetica,sans-Serif" font-size="10.00">Engine/tools/lcc/src</text>
<text text-anchor="middle" x="2999" y="-7.5" font-family="Helvetica,sans-Serif" font-size="10.00">/lex.c</text>
</a>
</g>
</g>
<!-- Node2&#45;&gt;Node15 -->
<g id="edge14" class="edge">
<title>Node2&#45;&gt;Node15</title>
<path fill="none" stroke="midnightblue" d="M1729.41,-75.22C1966.05,-72.44 2699.52,-61.54 2935,-31 2937.94,-30.62 2940.94,-30.17 2943.96,-29.66"/>
<polygon fill="midnightblue" stroke="midnightblue" points="1729.15,-71.72 1719.19,-75.34 1729.23,-78.72 1729.15,-71.72"/>
</g>
<!-- Node16 -->
<g id="node16" class="node">
<title>Node16</title>
<g id="a_node16"><a xlink:href="../../d7/d40/list_8c.html" target="_top" xlink:title=" ">
<polygon fill="none" stroke="black" points="3072,-0.5 3072,-30.5 3182,-30.5 3182,-0.5 3072,-0.5"/>
<text text-anchor="start" x="3080" y="-18.5" font-family="Helvetica,sans-Serif" font-size="10.00">Engine/tools/lcc/src</text>
<text text-anchor="middle" x="3127" y="-7.5" font-family="Helvetica,sans-Serif" font-size="10.00">/list.c</text>
</a>
</g>
</g>
<!-- Node2&#45;&gt;Node16 -->
<g id="edge15" class="edge">
<title>Node2&#45;&gt;Node16</title>
<path fill="none" stroke="midnightblue" d="M1729.47,-75.49C1981.52,-73.49 2801.45,-64.5 3063,-31 3065.94,-30.62 3068.94,-30.17 3071.96,-29.67"/>
<polygon fill="midnightblue" stroke="midnightblue" points="1729.29,-72 1719.31,-75.57 1729.34,-79 1729.29,-72"/>
</g>
<!-- Node17 -->
<g id="node17" class="node">
<title>Node17</title>
<g id="a_node17"><a xlink:href="../../d0/d29/main_8c.html" target="_top" xlink:title=" ">
<polygon fill="none" stroke="black" points="3200,-0.5 3200,-30.5 3310,-30.5 3310,-0.5 3200,-0.5"/>
<text text-anchor="start" x="3208" y="-18.5" font-family="Helvetica,sans-Serif" font-size="10.00">Engine/tools/lcc/src</text>
<text text-anchor="middle" x="3255" y="-7.5" font-family="Helvetica,sans-Serif" font-size="10.00">/main.c</text>
</a>
</g>
</g>
<!-- Node2&#45;&gt;Node17 -->
<g id="edge16" class="edge">
<title>Node2&#45;&gt;Node17</title>
<path fill="none" stroke="midnightblue" d="M1729.35,-75.73C1995.94,-74.45 2903.22,-67.47 3191,-31 3193.94,-30.63 3196.94,-30.18 3199.96,-29.68"/>
<polygon fill="midnightblue" stroke="midnightblue" points="1729,-72.23 1719.02,-75.78 1729.03,-79.23 1729,-72.23"/>
</g>
<!-- Node18 -->
<g id="node18" class="node">
<title>Node18</title>
<g id="a_node18"><a xlink:href="../../da/dea/null_8c.html" target="_top" xlink:title=" ">
<polygon fill="none" stroke="black" points="384,-0.5 384,-30.5 494,-30.5 494,-0.5 384,-0.5"/>
<text text-anchor="start" x="392" y="-18.5" font-family="Helvetica,sans-Serif" font-size="10.00">Engine/tools/lcc/src</text>
<text text-anchor="middle" x="439" y="-7.5" font-family="Helvetica,sans-Serif" font-size="10.00">/null.c</text>
</a>
</g>
</g>
<!-- Node2&#45;&gt;Node18 -->
<g id="edge17" class="edge">
<title>Node2&#45;&gt;Node18</title>
<path fill="none" stroke="midnightblue" d="M1580.6,-74.88C1360.11,-71.28 712.5,-58.59 503,-31 500.06,-30.61 497.06,-30.16 494.04,-29.65"/>
<polygon fill="midnightblue" stroke="midnightblue" points="1580.72,-78.38 1590.77,-75.05 1580.83,-71.38 1580.72,-78.38"/>
</g>
<!-- Node2&#45;&gt;Node19 -->
<g id="edge18" class="edge">
<title>Node2&#45;&gt;Node19</title>
<path fill="none" stroke="midnightblue" d="M1729.39,-75.92C2010.09,-75.33 3004.96,-70.44 3319,-31 3321.94,-30.63 3324.94,-30.19 3327.96,-29.69"/>
<polygon fill="midnightblue" stroke="midnightblue" points="1729.31,-72.42 1719.31,-75.94 1729.32,-79.42 1729.31,-72.42"/>
</g>
<!-- Node20 -->
<g id="node20" class="node">
<title>Node20</title>
<g id="a_node20"><a xlink:href="../../df/d31/prof_8c.html" target="_top" xlink:title=" ">
<polygon fill="none" stroke="black" points="512,-0.5 512,-30.5 622,-30.5 622,-0.5 512,-0.5"/>
<text text-anchor="start" x="520" y="-18.5" font-family="Helvetica,sans-Serif" font-size="10.00">Engine/tools/lcc/src</text>
<text text-anchor="middle" x="567" y="-7.5" font-family="Helvetica,sans-Serif" font-size="10.00">/prof.c</text>
</a>
</g>
</g>
<!-- Node2&#45;&gt;Node20 -->
<g id="edge19" class="edge">
<title>Node2&#45;&gt;Node20</title>
<path fill="none" stroke="midnightblue" d="M1580.59,-74.46C1377.16,-69.97 814.65,-55.64 631,-31 628.06,-30.61 625.06,-30.14 622.04,-29.63"/>
<polygon fill="midnightblue" stroke="midnightblue" points="1580.8,-77.96 1590.87,-74.68 1580.95,-70.97 1580.8,-77.96"/>
</g>
<!-- Node21 -->
<g id="node21" class="node">
<title>Node21</title>
<g id="a_node21"><a xlink:href="../../d8/d61/profio_8c.html" target="_top" xlink:title=" ">
<polygon fill="none" stroke="black" points="640,-0.5 640,-30.5 750,-30.5 750,-0.5 640,-0.5"/>
<text text-anchor="start" x="648" y="-18.5" font-family="Helvetica,sans-Serif" font-size="10.00">Engine/tools/lcc/src</text>
<text text-anchor="middle" x="695" y="-7.5" font-family="Helvetica,sans-Serif" font-size="10.00">/profio.c</text>
</a>
</g>
</g>
<!-- Node2&#45;&gt;Node21 -->
<g id="edge20" class="edge">
<title>Node2&#45;&gt;Node21</title>
<path fill="none" stroke="midnightblue" d="M1580.53,-76.59C1426.43,-76.85 1061.62,-72.56 759,-31 756.07,-30.6 753.07,-30.13 750.05,-29.61"/>
<polygon fill="midnightblue" stroke="midnightblue" points="1580.83,-80.09 1590.82,-76.56 1580.81,-73.09 1580.83,-80.09"/>
</g>
<!-- Node22 -->
<g id="node22" class="node">
<title>Node22</title>
<g id="a_node22"><a xlink:href="../../de/d75/simp_8c.html" target="_top" xlink:title=" ">
<polygon fill="none" stroke="black" points="768,-0.5 768,-30.5 878,-30.5 878,-0.5 768,-0.5"/>
<text text-anchor="start" x="776" y="-18.5" font-family="Helvetica,sans-Serif" font-size="10.00">Engine/tools/lcc/src</text>
<text text-anchor="middle" x="823" y="-7.5" font-family="Helvetica,sans-Serif" font-size="10.00">/simp.c</text>
</a>
</g>
</g>
<!-- Node2&#45;&gt;Node22 -->
<g id="edge21" class="edge">
<title>Node2&#45;&gt;Node22</title>
<path fill="none" stroke="midnightblue" d="M1580.92,-75.69C1443.46,-74.23 1139.87,-66.81 887,-31 884.07,-30.58 881.07,-30.1 878.05,-29.58"/>
<polygon fill="midnightblue" stroke="midnightblue" points="1580.89,-79.19 1590.93,-75.79 1580.96,-72.19 1580.89,-79.19"/>
</g>
<!-- Node23 -->
<g id="node23" class="node">
<title>Node23</title>
<g id="a_node23"><a xlink:href="../../d1/d24/stmt_8c.html" target="_top" xlink:title=" ">
<polygon fill="none" stroke="black" points="896,-0.5 896,-30.5 1006,-30.5 1006,-0.5 896,-0.5"/>
<text text-anchor="start" x="904" y="-18.5" font-family="Helvetica,sans-Serif" font-size="10.00">Engine/tools/lcc/src</text>
<text text-anchor="middle" x="951" y="-7.5" font-family="Helvetica,sans-Serif" font-size="10.00">/stmt.c</text>
</a>
</g>
</g>
<!-- Node2&#45;&gt;Node23 -->
<g id="edge22" class="edge">
<title>Node2&#45;&gt;Node23</title>
<path fill="none" stroke="midnightblue" d="M1580.45,-74.44C1460.66,-71.12 1218.17,-60.98 1015,-31 1012.07,-30.57 1009.07,-30.07 1006.06,-29.53"/>
<polygon fill="midnightblue" stroke="midnightblue" points="1580.52,-77.95 1590.61,-74.72 1580.71,-70.95 1580.52,-77.95"/>
</g>
<!-- Node24 -->
<g id="node24" class="node">
<title>Node24</title>
<g id="a_node24"><a xlink:href="../../d1/db0/string_8c.html" target="_top" xlink:title=" ">
<polygon fill="none" stroke="black" points="1024,-0.5 1024,-30.5 1134,-30.5 1134,-0.5 1024,-0.5"/>
<text text-anchor="start" x="1032" y="-18.5" font-family="Helvetica,sans-Serif" font-size="10.00">Engine/tools/lcc/src</text>
<text text-anchor="middle" x="1079" y="-7.5" font-family="Helvetica,sans-Serif" font-size="10.00">/string.c</text>
</a>
</g>
</g>
<!-- Node2&#45;&gt;Node24 -->
<g id="edge23" class="edge">
<title>Node2&#45;&gt;Node24</title>
<path fill="none" stroke="midnightblue" d="M1580.81,-72.63C1480.88,-67.37 1297.7,-55.21 1143,-31 1140.07,-30.54 1137.08,-30.03 1134.07,-29.47"/>
<polygon fill="midnightblue" stroke="midnightblue" points="1580.64,-76.13 1590.81,-73.15 1581,-69.13 1580.64,-76.13"/>
</g>
<!-- Node25 -->
<g id="node25" class="node">
<title>Node25</title>
<g id="a_node25"><a xlink:href="../../de/dd2/sym_8c.html" target="_top" xlink:title=" ">
<polygon fill="none" stroke="black" points="1152,-0.5 1152,-30.5 1262,-30.5 1262,-0.5 1152,-0.5"/>
<text text-anchor="start" x="1160" y="-18.5" font-family="Helvetica,sans-Serif" font-size="10.00">Engine/tools/lcc/src</text>
<text text-anchor="middle" x="1207" y="-7.5" font-family="Helvetica,sans-Serif" font-size="10.00">/sym.c</text>
</a>
</g>
</g>
<!-- Node2&#45;&gt;Node25 -->
<g id="edge24" class="edge">
<title>Node2&#45;&gt;Node25</title>
<path fill="none" stroke="midnightblue" d="M1580.68,-69.65C1503.08,-62.47 1378,-49.34 1271,-31 1268.08,-30.5 1265.09,-29.95 1262.08,-29.37"/>
<polygon fill="midnightblue" stroke="midnightblue" points="1580.56,-73.15 1590.83,-70.58 1581.2,-66.18 1580.56,-73.15"/>
</g>
<!-- Node26 -->
<g id="node26" class="node">
<title>Node26</title>
<g id="a_node26"><a xlink:href="../../dd/dc0/symbolic_8c.html" target="_top" xlink:title=" ">
<polygon fill="none" stroke="black" points="1280,-0.5 1280,-30.5 1390,-30.5 1390,-0.5 1280,-0.5"/>
<text text-anchor="start" x="1288" y="-18.5" font-family="Helvetica,sans-Serif" font-size="10.00">Engine/tools/lcc/src</text>
<text text-anchor="middle" x="1335" y="-7.5" font-family="Helvetica,sans-Serif" font-size="10.00">/symbolic.c</text>
</a>
</g>
</g>
<!-- Node2&#45;&gt;Node26 -->
<g id="edge25" class="edge">
<title>Node2&#45;&gt;Node26</title>
<path fill="none" stroke="midnightblue" d="M1591.85,-65.78C1539.94,-57.17 1464.53,-44.17 1399,-31 1396.1,-30.42 1393.12,-29.8 1390.12,-29.17"/>
<polygon fill="midnightblue" stroke="midnightblue" points="1591.47,-69.27 1601.91,-67.44 1592.61,-62.36 1591.47,-69.27"/>
</g>
<!-- Node27 -->
<g id="node27" class="node">
<title>Node27</title>
<g id="a_node27"><a xlink:href="../../d8/ddc/trace_8c.html" target="_top" xlink:title=" ">
<polygon fill="none" stroke="black" points="1408,-0.5 1408,-30.5 1518,-30.5 1518,-0.5 1408,-0.5"/>
<text text-anchor="start" x="1416" y="-18.5" font-family="Helvetica,sans-Serif" font-size="10.00">Engine/tools/lcc/src</text>
<text text-anchor="middle" x="1463" y="-7.5" font-family="Helvetica,sans-Serif" font-size="10.00">/trace.c</text>
</a>
</g>
</g>
<!-- Node2&#45;&gt;Node27 -->
<g id="edge26" class="edge">
<title>Node2&#45;&gt;Node27</title>
<path fill="none" stroke="midnightblue" d="M1617.84,-64.48C1586.53,-54.78 1541.64,-40.87 1508.25,-30.52"/>
<polygon fill="midnightblue" stroke="midnightblue" points="1616.9,-67.86 1627.49,-67.48 1618.98,-61.17 1616.9,-67.86"/>
</g>
<!-- Node28 -->
<g id="node28" class="node">
<title>Node28</title>
<g id="a_node28"><a xlink:href="../../de/dc8/tree_8c.html" target="_top" xlink:title=" ">
<polygon fill="none" stroke="black" points="1536,-0.5 1536,-30.5 1646,-30.5 1646,-0.5 1536,-0.5"/>
<text text-anchor="start" x="1544" y="-18.5" font-family="Helvetica,sans-Serif" font-size="10.00">Engine/tools/lcc/src</text>
<text text-anchor="middle" x="1591" y="-7.5" font-family="Helvetica,sans-Serif" font-size="10.00">/tree.c</text>
</a>
</g>
</g>
<!-- Node2&#45;&gt;Node28 -->
<g id="edge27" class="edge">
<title>Node2&#45;&gt;Node28</title>
<path fill="none" stroke="midnightblue" d="M1638.48,-60.65C1628.48,-51.35 1615.82,-39.57 1606.08,-30.52"/>
<polygon fill="midnightblue" stroke="midnightblue" points="1636.12,-63.23 1645.83,-67.48 1640.89,-58.1 1636.12,-63.23"/>
</g>
<!-- Node29 -->
<g id="node29" class="node">
<title>Node29</title>
<g id="a_node29"><a xlink:href="../../d0/dae/types_8c.html" target="_top" xlink:title=" ">
<polygon fill="none" stroke="black" points="1664,-0.5 1664,-30.5 1774,-30.5 1774,-0.5 1664,-0.5"/>
<text text-anchor="start" x="1672" y="-18.5" font-family="Helvetica,sans-Serif" font-size="10.00">Engine/tools/lcc/src</text>
<text text-anchor="middle" x="1719" y="-7.5" font-family="Helvetica,sans-Serif" font-size="10.00">/types.c</text>
</a>
</g>
</g>
<!-- Node2&#45;&gt;Node29 -->
<g id="edge28" class="edge">
<title>Node2&#45;&gt;Node29</title>
<path fill="none" stroke="midnightblue" d="M1671.52,-60.65C1681.52,-51.35 1694.18,-39.57 1703.92,-30.52"/>
<polygon fill="midnightblue" stroke="midnightblue" points="1669.11,-58.1 1664.17,-67.48 1673.88,-63.23 1669.11,-58.1"/>
</g>
</g>
</svg>
        <g id="navigator" transform="translate(0 0)" fill="#404254">
                <rect fill="#f2f5e9" fill-opacity="0.5" stroke="#606060" stroke-width=".5" x="0" y="0" width="60" height="60"/>
                <use id="zoomplus" xlink:href="#zoomPlus" x="17" y="9" onmousedown="handleZoom(evt,'in')"/>
                <use id="zoomminus" xlink:href="#zoomMin" x="42" y="9" onmousedown="handleZoom(evt,'out')"/>
                <use id="reset" xlink:href="#resetDef" x="30" y="36" onmousedown="handleReset()"/>
                <g id="arrowUp" xlink:href="#dirArrow" transform="translate(30 24)" onmousedown="handlePan(0,-1)">
                  <use xlink:href="#rim" fill="#404040">
                        <set attributeName="fill" to="#808080" begin="arrowUp.mouseover" end="arrowUp.mouseout"/>
                  </use>
                  <path fill="none" stroke="white" stroke-width="1.5" d="M0,-3.0v7 M-2.5,-0.5L0,-3.0L2.5,-0.5"/>
                </g>
                <g id="arrowRight" xlink:href="#dirArrow" transform="rotate(90) translate(36 -43)" onmousedown="handlePan(1,0)">
                  <use xlink:href="#rim" fill="#404040">
                        <set attributeName="fill" to="#808080" begin="arrowRight.mouseover" end="arrowRight.mouseout"/>
                  </use>
                  <path fill="none" stroke="white" stroke-width="1.5" d="M0,-3.0v7 M-2.5,-0.5L0,-3.0L2.5,-0.5"/>
                </g>
                <g id="arrowDown" xlink:href="#dirArrow" transform="rotate(180) translate(-30 -48)" onmousedown="handlePan(0,1)">
                  <use xlink:href="#rim" fill="#404040">
                        <set attributeName="fill" to="#808080" begin="arrowDown.mouseover" end="arrowDown.mouseout"/>
                  </use>
                  <path fill="none" stroke="white" stroke-width="1.5" d="M0,-3.0v7 M-2.5,-0.5L0,-3.0L2.5,-0.5"/>
                </g>
                <g id="arrowLeft" xlink:href="#dirArrow" transform="rotate(270) translate(-36 17)" onmousedown="handlePan(-1,0)">
                  <use xlink:href="#rim" fill="#404040">
                        <set attributeName="fill" to="#808080" begin="arrowLeft.mouseover" end="arrowLeft.mouseout"/>
                  </use>
                  <path fill="none" stroke="white" stroke-width="1.5" d="M0,-3.0v7 M-2.5,-0.5L0,-3.0L2.5,-0.5"/>
                </g>
        </g>
        <svg viewBox="0 0 15 15" width="100%" height="30px" preserveAspectRatio="xMaxYMin meet">
         <g id="arrow_out" transform="scale(0.3 0.3)">
          <a xlink:href="token_8h__dep__incl_org.svg" target="_base">
           <rect id="button" ry="5" rx="5" y="6" x="6" height="38" width="38"
                fill="#f2f5e9" fill-opacity="0.5" stroke="#606060" stroke-width="1.0"/>
           <path id="arrow"
             d="M 11.500037,31.436501 C 11.940474,20.09759 22.043105,11.32322 32.158766,21.979434 L 37.068811,17.246167 C 37.068811,17.246167 37.088388,32 37.088388,32 L 22.160133,31.978069 C 22.160133,31.978069 26.997745,27.140456 26.997745,27.140456 C 18.528582,18.264221 13.291696,25.230495 11.500037,31.436501 z"
             style="fill:#404040;"/>
          </a>
         </g>
        </svg>
</svg>
