<?xml version="1.0" encoding="UTF-8" standalone="no"?>
<!DOCTYPE svg PUBLIC "-//W3C//DTD SVG 1.1//EN"
 "http://www.w3.org/Graphics/SVG/1.1/DTD/svg11.dtd">
<!-- Generated by graphviz version 2.43.0 (0)
 -->
<!-- Title: _TAPE_GET_DRIVE_PARAMETERS Pages: 1 -->
<svg width="325pt" height="183pt"
 viewBox="0.00 0.00 324.50 183.00" xmlns="http://www.w3.org/2000/svg" xmlns:xlink="http://www.w3.org/1999/xlink">
<g id="graph0" class="graph" transform="scale(1 1) rotate(0) translate(4 179)">
<title>_TAPE_GET_DRIVE_PARAMETERS</title>
<!-- Node1 -->
<g id="node1" class="node">
<title>Node1</title>
<g id="a_node1"><a xlink:title=" ">
<polygon fill="#bfbfbf" stroke="black" points="51.5,-0.5 51.5,-19.5 227.5,-19.5 227.5,-0.5 51.5,-0.5"/>
<text text-anchor="middle" x="139.5" y="-7.5" font-family="Helvetica,sans-Serif" font-size="10.00">_TAPE_GET_DRIVE_PARAMETERS</text>
</a>
</g>
</g>
<!-- Node2 -->
<g id="node2" class="node">
<title>Node2</title>
<g id="a_node2"><a xlink:title=" ">
<polygon fill="none" stroke="#bfbfbf" points="0,-133.5 0,-174.5 161,-174.5 161,-133.5 0,-133.5"/>
<text text-anchor="start" x="8" y="-162.5" font-family="Helvetica,sans-Serif" font-size="10.00">PLDAP *typedef(__cdecl</text>
<text text-anchor="start" x="8" y="-151.5" font-family="Helvetica,sans-Serif" font-size="10.00"> NOTIFYOFNEWCONNECTION)</text>
<text text-anchor="middle" x="80.5" y="-140.5" font-family="Helvetica,sans-Serif" font-size="10.00">(PLDAP</text>
</a>
</g>
</g>
<!-- Node2&#45;&gt;Node1 -->
<g id="edge1" class="edge">
<title>Node2&#45;&gt;Node1</title>
<path fill="none" stroke="#9a32cd" stroke-dasharray="5,2" d="M78.39,-123.18C78.08,-98.47 81.1,-63.41 97.5,-38 102.67,-29.99 111.15,-23.88 119.14,-19.51"/>
<polygon fill="#9a32cd" stroke="#9a32cd" points="74.89,-123.52 78.71,-133.4 81.89,-123.3 74.89,-123.52"/>
<text text-anchor="middle" x="137" y="-90.5" font-family="Helvetica,sans-Serif" font-size="10.00"> ECC</text>
<text text-anchor="middle" x="137" y="-79.5" font-family="Helvetica,sans-Serif" font-size="10.00">Compression</text>
<text text-anchor="middle" x="137" y="-68.5" font-family="Helvetica,sans-Serif" font-size="10.00">ReportSetmarks</text>
<text text-anchor="middle" x="137" y="-57.5" font-family="Helvetica,sans-Serif" font-size="10.00">DataPadding</text>
</g>
<!-- Node3 -->
<g id="node3" class="node">
<title>Node3</title>
<g id="a_node3"><a xlink:title=" ">
<polygon fill="none" stroke="#bfbfbf" points="179.5,-144.5 179.5,-163.5 217.5,-163.5 217.5,-144.5 179.5,-144.5"/>
<text text-anchor="middle" x="198.5" y="-151.5" font-family="Helvetica,sans-Serif" font-size="10.00">long</text>
</a>
</g>
</g>
<!-- Node3&#45;&gt;Node1 -->
<g id="edge2" class="edge">
<title>Node3&#45;&gt;Node1</title>
<path fill="none" stroke="#9a32cd" stroke-dasharray="5,2" d="M199,-134.19C198.77,-110.07 195.38,-67.81 176.5,-38 171.65,-30.34 163.78,-24.15 156.54,-19.64"/>
<polygon fill="#9a32cd" stroke="#9a32cd" points="195.5,-134.41 198.91,-144.44 202.5,-134.47 195.5,-134.41"/>
<text text-anchor="middle" x="257" y="-107" font-family="Helvetica,sans-Serif" font-size="10.00"> MinimumBlockSize</text>
<text text-anchor="middle" x="257" y="-96" font-family="Helvetica,sans-Serif" font-size="10.00">MaximumBlockSize</text>
<text text-anchor="middle" x="257" y="-85" font-family="Helvetica,sans-Serif" font-size="10.00">MaximumPartitionCount</text>
<text text-anchor="middle" x="257" y="-74" font-family="Helvetica,sans-Serif" font-size="10.00">FeaturesLow</text>
<text text-anchor="middle" x="257" y="-63" font-family="Helvetica,sans-Serif" font-size="10.00">FeaturesHigh</text>
<text text-anchor="middle" x="257" y="-52" font-family="Helvetica,sans-Serif" font-size="10.00">DefaultBlockSize</text>
<text text-anchor="middle" x="257" y="-41" font-family="Helvetica,sans-Serif" font-size="10.00">EOTWarningZoneSize</text>
</g>
</g>
</svg>
