<?xml version="1.0" encoding="UTF-8" standalone="no"?>
<!DOCTYPE svg PUBLIC "-//W3C//DTD SVG 1.1//EN"
 "http://www.w3.org/Graphics/SVG/1.1/DTD/svg11.dtd">
<!-- Generated by graphviz version 2.43.0 (0)
 -->
<!-- Title: _wfinddata_t Pages: 1 -->
<svg width="158pt" height="117pt"
 viewBox="0.00 0.00 158.00 117.00" xmlns="http://www.w3.org/2000/svg" xmlns:xlink="http://www.w3.org/1999/xlink">
<g id="graph0" class="graph" transform="scale(1 1) rotate(0) translate(4 113)">
<title>_wfinddata_t</title>
<!-- Node1 -->
<g id="node1" class="node">
<title>Node1</title>
<g id="a_node1"><a xlink:title=" ">
<polygon fill="#bfbfbf" stroke="black" points="38,-0.5 38,-19.5 117,-19.5 117,-0.5 38,-0.5"/>
<text text-anchor="middle" x="77.5" y="-7.5" font-family="Helvetica,sans-Serif" font-size="10.00">_wfinddata_t</text>
</a>
</g>
</g>
<!-- Node2 -->
<g id="node2" class="node">
<title>Node2</title>
<g id="a_node2"><a xlink:title=" ">
<polygon fill="none" stroke="#bfbfbf" points="0,-89.5 0,-108.5 71,-108.5 71,-89.5 0,-89.5"/>
<text text-anchor="middle" x="35.5" y="-96.5" font-family="Helvetica,sans-Serif" font-size="10.00">__time32_t</text>
</a>
</g>
</g>
<!-- Node2&#45;&gt;Node1 -->
<g id="edge1" class="edge">
<title>Node2&#45;&gt;Node1</title>
<path fill="none" stroke="#9a32cd" stroke-dasharray="5,2" d="M31.46,-79.07C29.82,-66.64 29.66,-50.44 36.5,-38 40.93,-29.93 48.92,-23.87 56.68,-19.55"/>
<polygon fill="#9a32cd" stroke="#9a32cd" points="28.07,-79.96 33.23,-89.21 34.96,-78.76 28.07,-79.96"/>
<text text-anchor="middle" x="67" y="-63" font-family="Helvetica,sans-Serif" font-size="10.00"> time_write</text>
<text text-anchor="middle" x="67" y="-52" font-family="Helvetica,sans-Serif" font-size="10.00">time_access</text>
<text text-anchor="middle" x="67" y="-41" font-family="Helvetica,sans-Serif" font-size="10.00">time_create</text>
</g>
<!-- Node3 -->
<g id="node3" class="node">
<title>Node3</title>
<g id="a_node3"><a xlink:title=" ">
<polygon fill="none" stroke="#bfbfbf" points="89,-89.5 89,-108.5 150,-108.5 150,-89.5 89,-89.5"/>
<text text-anchor="middle" x="119.5" y="-96.5" font-family="Helvetica,sans-Serif" font-size="10.00">unsigned</text>
</a>
</g>
</g>
<!-- Node3&#45;&gt;Node1 -->
<g id="edge2" class="edge">
<title>Node3&#45;&gt;Node1</title>
<path fill="none" stroke="#9a32cd" stroke-dasharray="5,2" d="M114.14,-79.23C110.32,-67.09 104.6,-51.16 97.5,-38 93.96,-31.43 88.96,-24.68 84.84,-19.57"/>
<polygon fill="#9a32cd" stroke="#9a32cd" points="110.89,-80.55 117.11,-89.12 117.59,-78.54 110.89,-80.55"/>
<text text-anchor="middle" x="124.5" y="-63" font-family="Helvetica,sans-Serif" font-size="10.00"> size</text>
<text text-anchor="middle" x="124.5" y="-52" font-family="Helvetica,sans-Serif" font-size="10.00">attrib</text>
<text text-anchor="middle" x="124.5" y="-41" font-family="Helvetica,sans-Serif" font-size="10.00">name</text>
</g>
</g>
</svg>
