<?xml version="1.0" encoding="UTF-8" standalone="no"?>
<!DOCTYPE svg PUBLIC "-//W3C//DTD SVG 1.1//EN"
 "http://www.w3.org/Graphics/SVG/1.1/DTD/svg11.dtd">
<!-- Generated by graphviz version 2.43.0 (0)
 -->
<!-- Title: Engine/jpeg&#45;8c/jmorecfg.h Pages: 1 -->
<svg width="7261pt" height="151pt"
 viewBox="0.00 0.00 7260.50 151.00" xmlns="http://www.w3.org/2000/svg" xmlns:xlink="http://www.w3.org/1999/xlink">
<g id="graph0" class="graph" transform="scale(1 1) rotate(0) translate(4 147)">
<title>Engine/jpeg&#45;8c/jmorecfg.h</title>
<!-- Node1 -->
<g id="node1" class="node">
<title>Node1</title>
<g id="a_node1"><a xlink:title=" ">
<polygon fill="#bfbfbf" stroke="black" points="3577.5,-123.5 3577.5,-142.5 3721.5,-142.5 3721.5,-123.5 3577.5,-123.5"/>
<text text-anchor="middle" x="3649.5" y="-130.5" font-family="Helvetica,sans-Serif" font-size="10.00">Engine/jpeg&#45;8c/jmorecfg.h</text>
</a>
</g>
</g>
<!-- Node2 -->
<g id="node2" class="node">
<title>Node2</title>
<g id="a_node2"><a xlink:href="../../d7/d27/jpeglib_8h.html" target="_top" xlink:title=" ">
<polygon fill="none" stroke="black" points="3582.5,-67.5 3582.5,-86.5 3716.5,-86.5 3716.5,-67.5 3582.5,-67.5"/>
<text text-anchor="middle" x="3649.5" y="-74.5" font-family="Helvetica,sans-Serif" font-size="10.00">Engine/jpeg&#45;8c/jpeglib.h</text>
</a>
</g>
</g>
<!-- Node1&#45;&gt;Node2 -->
<g id="edge1" class="edge">
<title>Node1&#45;&gt;Node2</title>
<path fill="none" stroke="midnightblue" d="M3649.5,-112.8C3649.5,-103.91 3649.5,-93.78 3649.5,-86.75"/>
<polygon fill="midnightblue" stroke="midnightblue" points="3646,-113.08 3649.5,-123.08 3653,-113.08 3646,-113.08"/>
</g>
<!-- Node3 -->
<g id="node3" class="node">
<title>Node3</title>
<g id="a_node3"><a xlink:href="../../d9/d44/jaricom_8c.html" target="_top" xlink:title=" ">
<polygon fill="none" stroke="black" points="0,-6 0,-25 137,-25 137,-6 0,-6"/>
<text text-anchor="middle" x="68.5" y="-13" font-family="Helvetica,sans-Serif" font-size="10.00">Engine/jpeg&#45;8c/jaricom.c</text>
</a>
</g>
</g>
<!-- Node2&#45;&gt;Node3 -->
<g id="edge2" class="edge">
<title>Node2&#45;&gt;Node3</title>
<path fill="none" stroke="midnightblue" d="M3572.01,-75.8C3088.76,-74.45 497.52,-65.62 146.5,-31 133.62,-29.73 119.68,-27.44 107.19,-25.04"/>
<polygon fill="midnightblue" stroke="midnightblue" points="3572.36,-79.3 3582.37,-75.83 3572.37,-72.3 3572.36,-79.3"/>
</g>
<!-- Node4 -->
<g id="node4" class="node">
<title>Node4</title>
<g id="a_node4"><a xlink:href="../../d4/deb/jcapimin_8c.html" target="_top" xlink:title=" ">
<polygon fill="none" stroke="black" points="155.5,-6 155.5,-25 297.5,-25 297.5,-6 155.5,-6"/>
<text text-anchor="middle" x="226.5" y="-13" font-family="Helvetica,sans-Serif" font-size="10.00">Engine/jpeg&#45;8c/jcapimin.c</text>
</a>
</g>
</g>
<!-- Node2&#45;&gt;Node4 -->
<g id="edge3" class="edge">
<title>Node2&#45;&gt;Node4</title>
<path fill="none" stroke="midnightblue" d="M3572.19,-75.73C3102.49,-73.98 640.75,-63.32 306.5,-31 293.29,-29.72 279,-27.43 266.2,-25.04"/>
<polygon fill="midnightblue" stroke="midnightblue" points="3572.25,-79.23 3582.26,-75.77 3572.27,-72.23 3572.25,-79.23"/>
</g>
<!-- Node5 -->
<g id="node5" class="node">
<title>Node5</title>
<g id="a_node5"><a xlink:href="../../d8/d51/jcapistd_8c.html" target="_top" xlink:title=" ">
<polygon fill="none" stroke="black" points="315.5,-6 315.5,-25 453.5,-25 453.5,-6 315.5,-6"/>
<text text-anchor="middle" x="384.5" y="-13" font-family="Helvetica,sans-Serif" font-size="10.00">Engine/jpeg&#45;8c/jcapistd.c</text>
</a>
</g>
</g>
<!-- Node2&#45;&gt;Node5 -->
<g id="edge4" class="edge">
<title>Node2&#45;&gt;Node5</title>
<path fill="none" stroke="midnightblue" d="M3572.18,-75.69C3115.54,-73.79 780.23,-62.54 462.5,-31 449.62,-29.72 435.68,-27.43 423.2,-25.03"/>
<polygon fill="midnightblue" stroke="midnightblue" points="3572.29,-79.2 3582.3,-75.74 3572.32,-72.2 3572.29,-79.2"/>
</g>
<!-- Node6 -->
<g id="node6" class="node">
<title>Node6</title>
<g id="a_node6"><a xlink:href="../../de/d59/jcarith_8c.html" target="_top" xlink:title=" ">
<polygon fill="none" stroke="black" points="472,-6 472,-25 603,-25 603,-6 472,-6"/>
<text text-anchor="middle" x="537.5" y="-13" font-family="Helvetica,sans-Serif" font-size="10.00">Engine/jpeg&#45;8c/jcarith.c</text>
</a>
</g>
</g>
<!-- Node2&#45;&gt;Node6 -->
<g id="edge5" class="edge">
<title>Node2&#45;&gt;Node6</title>
<path fill="none" stroke="midnightblue" d="M3572.3,-75.67C3128.81,-73.67 914.35,-62.17 612.5,-31 600.1,-29.72 586.69,-27.42 574.69,-25.03"/>
<polygon fill="midnightblue" stroke="midnightblue" points="3572.43,-79.17 3582.45,-75.72 3572.47,-72.17 3572.43,-79.17"/>
</g>
<!-- Node7 -->
<g id="node7" class="node">
<title>Node7</title>
<g id="a_node7"><a xlink:href="../../d1/db3/jccoefct_8c.html" target="_top" xlink:title=" ">
<polygon fill="none" stroke="black" points="621.5,-6 621.5,-25 759.5,-25 759.5,-6 621.5,-6"/>
<text text-anchor="middle" x="690.5" y="-13" font-family="Helvetica,sans-Serif" font-size="10.00">Engine/jpeg&#45;8c/jccoefct.c</text>
</a>
</g>
</g>
<!-- Node2&#45;&gt;Node7 -->
<g id="edge6" class="edge">
<title>Node2&#45;&gt;Node7</title>
<path fill="none" stroke="midnightblue" d="M3572.17,-75.57C3142.11,-73.07 1054.02,-59.56 768.5,-31 755.62,-29.71 741.68,-27.41 729.2,-25.02"/>
<polygon fill="midnightblue" stroke="midnightblue" points="3572.3,-79.07 3582.32,-75.63 3572.34,-72.07 3572.3,-79.07"/>
</g>
<!-- Node8 -->
<g id="node8" class="node">
<title>Node8</title>
<g id="a_node8"><a xlink:href="../../d2/d78/jccolor_8c.html" target="_top" xlink:title=" ">
<polygon fill="none" stroke="black" points="778,-6 778,-25 909,-25 909,-6 778,-6"/>
<text text-anchor="middle" x="843.5" y="-13" font-family="Helvetica,sans-Serif" font-size="10.00">Engine/jpeg&#45;8c/jccolor.c</text>
</a>
</g>
</g>
<!-- Node2&#45;&gt;Node8 -->
<g id="edge7" class="edge">
<title>Node2&#45;&gt;Node8</title>
<path fill="none" stroke="midnightblue" d="M3572.21,-75.53C3155.78,-72.9 1188.18,-59.07 918.5,-31 906.1,-29.71 892.7,-27.41 880.69,-25.02"/>
<polygon fill="midnightblue" stroke="midnightblue" points="3572.32,-79.03 3582.34,-75.6 3572.36,-72.03 3572.32,-79.03"/>
</g>
<!-- Node9 -->
<g id="node9" class="node">
<title>Node9</title>
<g id="a_node9"><a xlink:href="../../dd/d21/jcdctmgr_8c.html" target="_top" xlink:title=" ">
<polygon fill="none" stroke="black" points="927.5,-6 927.5,-25 1069.5,-25 1069.5,-6 927.5,-6"/>
<text text-anchor="middle" x="998.5" y="-13" font-family="Helvetica,sans-Serif" font-size="10.00">Engine/jpeg&#45;8c/jcdctmgr.c</text>
</a>
</g>
</g>
<!-- Node2&#45;&gt;Node9 -->
<g id="edge8" class="edge">
<title>Node2&#45;&gt;Node9</title>
<path fill="none" stroke="midnightblue" d="M3572.27,-76.33C3199.13,-77.69 1580.4,-80.55 1078.5,-31 1065.3,-29.7 1051,-27.4 1038.2,-25"/>
<polygon fill="midnightblue" stroke="midnightblue" points="3572.44,-79.83 3582.42,-76.3 3572.41,-72.83 3572.44,-79.83"/>
</g>
<!-- Node10 -->
<g id="node10" class="node">
<title>Node10</title>
<g id="a_node10"><a xlink:href="../../d5/da8/jchuff_8c.html" target="_top" xlink:title=" ">
<polygon fill="none" stroke="black" points="1088,-6 1088,-25 1215,-25 1215,-6 1088,-6"/>
<text text-anchor="middle" x="1151.5" y="-13" font-family="Helvetica,sans-Serif" font-size="10.00">Engine/jpeg&#45;8c/jchuff.c</text>
</a>
</g>
</g>
<!-- Node2&#45;&gt;Node10 -->
<g id="edge9" class="edge">
<title>Node2&#45;&gt;Node10</title>
<path fill="none" stroke="midnightblue" d="M3571.99,-75.38C3183.99,-72.17 1462.02,-56.59 1224.5,-31 1212.42,-29.7 1199.37,-27.4 1187.69,-25.01"/>
<polygon fill="midnightblue" stroke="midnightblue" points="3572.24,-78.88 3582.26,-75.47 3572.29,-71.88 3572.24,-78.88"/>
</g>
<!-- Node11 -->
<g id="node11" class="node">
<title>Node11</title>
<g id="a_node11"><a xlink:href="../../d8/d16/jcinit_8c.html" target="_top" xlink:title=" ">
<polygon fill="none" stroke="black" points="1233.5,-6 1233.5,-25 1357.5,-25 1357.5,-6 1233.5,-6"/>
<text text-anchor="middle" x="1295.5" y="-13" font-family="Helvetica,sans-Serif" font-size="10.00">Engine/jpeg&#45;8c/jcinit.c</text>
</a>
</g>
</g>
<!-- Node2&#45;&gt;Node11 -->
<g id="edge10" class="edge">
<title>Node2&#45;&gt;Node11</title>
<path fill="none" stroke="midnightblue" d="M3572.02,-76.36C3224.56,-77.7 1807.76,-80 1366.5,-31 1354.75,-29.69 1342.05,-27.39 1330.69,-25"/>
<polygon fill="midnightblue" stroke="midnightblue" points="3572.24,-79.86 3582.23,-76.32 3572.22,-72.86 3572.24,-79.86"/>
</g>
<!-- Node12 -->
<g id="node12" class="node">
<title>Node12</title>
<g id="a_node12"><a xlink:href="../../d5/dd6/jcmainct_8c.html" target="_top" xlink:title=" ">
<polygon fill="none" stroke="black" points="1375.5,-6 1375.5,-25 1517.5,-25 1517.5,-6 1375.5,-6"/>
<text text-anchor="middle" x="1446.5" y="-13" font-family="Helvetica,sans-Serif" font-size="10.00">Engine/jpeg&#45;8c/jcmainct.c</text>
</a>
</g>
</g>
<!-- Node2&#45;&gt;Node12 -->
<g id="edge11" class="edge">
<title>Node2&#45;&gt;Node12</title>
<path fill="none" stroke="midnightblue" d="M3571.84,-76C3239.45,-75.74 1934.95,-72.08 1526.5,-31 1513.44,-29.69 1499.31,-27.41 1486.61,-25.05"/>
<polygon fill="midnightblue" stroke="midnightblue" points="3572.32,-79.5 3582.32,-76.01 3572.33,-72.5 3572.32,-79.5"/>
</g>
<!-- Node13 -->
<g id="node13" class="node">
<title>Node13</title>
<g id="a_node13"><a xlink:href="../../df/d14/jcmarker_8c.html" target="_top" xlink:title=" ">
<polygon fill="none" stroke="black" points="1535.5,-6 1535.5,-25 1677.5,-25 1677.5,-6 1535.5,-6"/>
<text text-anchor="middle" x="1606.5" y="-13" font-family="Helvetica,sans-Serif" font-size="10.00">Engine/jpeg&#45;8c/jcmarker.c</text>
</a>
</g>
</g>
<!-- Node2&#45;&gt;Node13 -->
<g id="edge12" class="edge">
<title>Node2&#45;&gt;Node13</title>
<path fill="none" stroke="midnightblue" d="M3572.02,-75.84C3255.8,-74.95 2061.87,-69.08 1686.5,-31 1673.44,-29.67 1659.31,-27.4 1646.61,-25.04"/>
<polygon fill="midnightblue" stroke="midnightblue" points="3572.45,-79.34 3582.46,-75.87 3572.47,-72.34 3572.45,-79.34"/>
</g>
<!-- Node14 -->
<g id="node14" class="node">
<title>Node14</title>
<g id="a_node14"><a xlink:href="../../df/d5e/jcmaster_8c.html" target="_top" xlink:title=" ">
<polygon fill="none" stroke="black" points="1695.5,-6 1695.5,-25 1837.5,-25 1837.5,-6 1695.5,-6"/>
<text text-anchor="middle" x="1766.5" y="-13" font-family="Helvetica,sans-Serif" font-size="10.00">Engine/jpeg&#45;8c/jcmaster.c</text>
</a>
</g>
</g>
<!-- Node2&#45;&gt;Node14 -->
<g id="edge13" class="edge">
<title>Node2&#45;&gt;Node14</title>
<path fill="none" stroke="midnightblue" d="M3571.95,-75.66C3272.15,-74.09 2188.78,-66.08 1846.5,-31 1833.44,-29.66 1819.31,-27.38 1806.61,-25.02"/>
<polygon fill="midnightblue" stroke="midnightblue" points="3572.26,-79.16 3582.28,-75.71 3572.3,-72.16 3572.26,-79.16"/>
</g>
<!-- Node15 -->
<g id="node15" class="node">
<title>Node15</title>
<g id="a_node15"><a xlink:href="../../dc/d34/jcomapi_8c.html" target="_top" xlink:title=" ">
<polygon fill="none" stroke="black" points="1856,-6 1856,-25 1995,-25 1995,-6 1856,-6"/>
<text text-anchor="middle" x="1925.5" y="-13" font-family="Helvetica,sans-Serif" font-size="10.00">Engine/jpeg&#45;8c/jcomapi.c</text>
</a>
</g>
</g>
<!-- Node2&#45;&gt;Node15 -->
<g id="edge14" class="edge">
<title>Node2&#45;&gt;Node15</title>
<path fill="none" stroke="midnightblue" d="M3572.21,-75.47C3289.83,-73.27 2314.29,-63.47 2004.5,-31 1991.6,-29.65 1977.65,-27.36 1965.11,-25.01"/>
<polygon fill="midnightblue" stroke="midnightblue" points="3572.33,-78.97 3582.36,-75.55 3572.39,-71.97 3572.33,-78.97"/>
</g>
<!-- Node16 -->
<g id="node16" class="node">
<title>Node16</title>
<g id="a_node16"><a xlink:href="../../de/da5/jcparam_8c.html" target="_top" xlink:title=" ">
<polygon fill="none" stroke="black" points="2013.5,-6 2013.5,-25 2153.5,-25 2153.5,-6 2013.5,-6"/>
<text text-anchor="middle" x="2083.5" y="-13" font-family="Helvetica,sans-Serif" font-size="10.00">Engine/jpeg&#45;8c/jcparam.c</text>
</a>
</g>
</g>
<!-- Node2&#45;&gt;Node16 -->
<g id="edge15" class="edge">
<title>Node2&#45;&gt;Node16</title>
<path fill="none" stroke="midnightblue" d="M3572.21,-75.21C3307.71,-72.25 2439.86,-60.48 2162.5,-31 2149.74,-29.64 2135.95,-27.39 2123.52,-25.06"/>
<polygon fill="midnightblue" stroke="midnightblue" points="3572.45,-78.71 3582.49,-75.32 3572.53,-71.71 3572.45,-78.71"/>
</g>
<!-- Node17 -->
<g id="node17" class="node">
<title>Node17</title>
<g id="a_node17"><a xlink:href="../../de/d83/jcprepct_8c.html" target="_top" xlink:title=" ">
<polygon fill="none" stroke="black" points="2172,-6 2172,-25 2311,-25 2311,-6 2172,-6"/>
<text text-anchor="middle" x="2241.5" y="-13" font-family="Helvetica,sans-Serif" font-size="10.00">Engine/jpeg&#45;8c/jcprepct.c</text>
</a>
</g>
</g>
<!-- Node2&#45;&gt;Node17 -->
<g id="edge16" class="edge">
<title>Node2&#45;&gt;Node17</title>
<path fill="none" stroke="midnightblue" d="M3572.23,-74.88C3326.62,-71.1 2565.58,-57.49 2320.5,-31 2307.75,-29.62 2293.96,-27.36 2281.52,-25.03"/>
<polygon fill="midnightblue" stroke="midnightblue" points="3572.44,-78.39 3582.49,-75.04 3572.55,-71.39 3572.44,-78.39"/>
</g>
<!-- Node18 -->
<g id="node18" class="node">
<title>Node18</title>
<g id="a_node18"><a xlink:href="../../d2/dab/jcsample_8c.html" target="_top" xlink:title=" ">
<polygon fill="none" stroke="black" points="2329.5,-6 2329.5,-25 2473.5,-25 2473.5,-6 2329.5,-6"/>
<text text-anchor="middle" x="2401.5" y="-13" font-family="Helvetica,sans-Serif" font-size="10.00">Engine/jpeg&#45;8c/jcsample.c</text>
</a>
</g>
</g>
<!-- Node2&#45;&gt;Node18 -->
<g id="edge17" class="edge">
<title>Node2&#45;&gt;Node18</title>
<path fill="none" stroke="midnightblue" d="M3572.47,-76.71C3385.22,-77.64 2891.48,-75.28 2482.5,-31 2469.58,-29.6 2455.6,-27.36 2442.96,-25.06"/>
<polygon fill="midnightblue" stroke="midnightblue" points="3572.51,-80.21 3582.49,-76.66 3572.47,-73.21 3572.51,-80.21"/>
</g>
<!-- Node19 -->
<g id="node19" class="node">
<title>Node19</title>
<g id="a_node19"><a xlink:href="../../da/de7/jctrans_8c.html" target="_top" xlink:title=" ">
<polygon fill="none" stroke="black" points="2492,-6 2492,-25 2625,-25 2625,-6 2492,-6"/>
<text text-anchor="middle" x="2558.5" y="-13" font-family="Helvetica,sans-Serif" font-size="10.00">Engine/jpeg&#45;8c/jctrans.c</text>
</a>
</g>
</g>
<!-- Node2&#45;&gt;Node19 -->
<g id="edge18" class="edge">
<title>Node2&#45;&gt;Node19</title>
<path fill="none" stroke="midnightblue" d="M3572.24,-76.43C3402.03,-76.54 2982.1,-72.19 2633.5,-31 2621.52,-29.58 2608.57,-27.34 2596.87,-25.04"/>
<polygon fill="midnightblue" stroke="midnightblue" points="3572.36,-79.93 3582.36,-76.42 3572.35,-72.93 3572.36,-79.93"/>
</g>
<!-- Node20 -->
<g id="node20" class="node">
<title>Node20</title>
<g id="a_node20"><a xlink:href="../../da/df0/jdapimin_8c.html" target="_top" xlink:title=" ">
<polygon fill="none" stroke="black" points="2643,-6 2643,-25 2786,-25 2786,-6 2643,-6"/>
<text text-anchor="middle" x="2714.5" y="-13" font-family="Helvetica,sans-Serif" font-size="10.00">Engine/jpeg&#45;8c/jdapimin.c</text>
</a>
</g>
</g>
<!-- Node2&#45;&gt;Node20 -->
<g id="edge19" class="edge">
<title>Node2&#45;&gt;Node20</title>
<path fill="none" stroke="midnightblue" d="M3572.42,-75.21C3422.23,-72.95 3080.09,-64.26 2794.5,-31 2781.88,-29.53 2768.25,-27.3 2755.87,-25.03"/>
<polygon fill="midnightblue" stroke="midnightblue" points="3572.42,-78.71 3582.47,-75.36 3572.52,-71.71 3572.42,-78.71"/>
</g>
<!-- Node21 -->
<g id="node21" class="node">
<title>Node21</title>
<g id="a_node21"><a xlink:href="../../d6/d0c/jdapistd_8c.html" target="_top" xlink:title=" ">
<polygon fill="none" stroke="black" points="2804,-6 2804,-25 2943,-25 2943,-6 2804,-6"/>
<text text-anchor="middle" x="2873.5" y="-13" font-family="Helvetica,sans-Serif" font-size="10.00">Engine/jpeg&#45;8c/jdapistd.c</text>
</a>
</g>
</g>
<!-- Node2&#45;&gt;Node21 -->
<g id="edge20" class="edge">
<title>Node2&#45;&gt;Node21</title>
<path fill="none" stroke="midnightblue" d="M3572.18,-74.03C3443.13,-70.07 3175.88,-58.99 2951.5,-31 2939.34,-29.48 2926.2,-27.27 2914.24,-25.02"/>
<polygon fill="midnightblue" stroke="midnightblue" points="3572.26,-77.53 3582.36,-74.34 3572.47,-70.54 3572.26,-77.53"/>
</g>
<!-- Node22 -->
<g id="node22" class="node">
<title>Node22</title>
<g id="a_node22"><a xlink:href="../../dc/df6/jdarith_8c.html" target="_top" xlink:title=" ">
<polygon fill="none" stroke="black" points="2961,-6 2961,-25 3092,-25 3092,-6 2961,-6"/>
<text text-anchor="middle" x="3026.5" y="-13" font-family="Helvetica,sans-Serif" font-size="10.00">Engine/jpeg&#45;8c/jdarith.c</text>
</a>
</g>
</g>
<!-- Node2&#45;&gt;Node22 -->
<g id="edge21" class="edge">
<title>Node2&#45;&gt;Node22</title>
<path fill="none" stroke="midnightblue" d="M3572.17,-72.31C3465.78,-66.63 3268.47,-53.93 3101.5,-31 3090.07,-29.43 3077.75,-27.25 3066.46,-25.06"/>
<polygon fill="midnightblue" stroke="midnightblue" points="3572.01,-75.81 3582.18,-72.84 3572.37,-68.82 3572.01,-75.81"/>
</g>
<!-- Node23 -->
<g id="node23" class="node">
<title>Node23</title>
<g id="a_node23"><a xlink:href="../../d0/d13/jdatadst_8c.html" target="_top" xlink:title=" ">
<polygon fill="none" stroke="black" points="3110.5,-6 3110.5,-25 3250.5,-25 3250.5,-6 3110.5,-6"/>
<text text-anchor="middle" x="3180.5" y="-13" font-family="Helvetica,sans-Serif" font-size="10.00">Engine/jpeg&#45;8c/jdatadst.c</text>
</a>
</g>
</g>
<!-- Node2&#45;&gt;Node23 -->
<g id="edge22" class="edge">
<title>Node2&#45;&gt;Node23</title>
<path fill="none" stroke="midnightblue" d="M3572.05,-68.6C3493.21,-60.71 3367.56,-47.13 3259.5,-31 3248.05,-29.29 3235.72,-27.17 3224.29,-25.07"/>
<polygon fill="midnightblue" stroke="midnightblue" points="3572.08,-72.12 3582.38,-69.63 3572.78,-65.15 3572.08,-72.12"/>
</g>
<!-- Node24 -->
<g id="node24" class="node">
<title>Node24</title>
<g id="a_node24"><a xlink:href="../../d0/d1c/jdatasrc_8c.html" target="_top" xlink:title=" ">
<polygon fill="none" stroke="black" points="3269,-6 3269,-25 3408,-25 3408,-6 3269,-6"/>
<text text-anchor="middle" x="3338.5" y="-13" font-family="Helvetica,sans-Serif" font-size="10.00">Engine/jpeg&#45;8c/jdatasrc.c</text>
</a>
</g>
</g>
<!-- Node2&#45;&gt;Node24 -->
<g id="edge23" class="edge">
<title>Node2&#45;&gt;Node24</title>
<path fill="none" stroke="midnightblue" d="M3594.86,-65.55C3534.6,-54.02 3438.82,-35.69 3382.98,-25.01"/>
<polygon fill="midnightblue" stroke="midnightblue" points="3594.46,-69.03 3604.94,-67.48 3595.78,-62.16 3594.46,-69.03"/>
</g>
<!-- Node25 -->
<g id="node25" class="node">
<title>Node25</title>
<g id="a_node25"><a xlink:href="../../d4/de8/jdcoefct_8c.html" target="_top" xlink:title=" ">
<polygon fill="none" stroke="black" points="3426,-6 3426,-25 3565,-25 3565,-6 3426,-6"/>
<text text-anchor="middle" x="3495.5" y="-13" font-family="Helvetica,sans-Serif" font-size="10.00">Engine/jpeg&#45;8c/jdcoefct.c</text>
</a>
</g>
</g>
<!-- Node2&#45;&gt;Node25 -->
<g id="edge24" class="edge">
<title>Node2&#45;&gt;Node25</title>
<path fill="none" stroke="midnightblue" d="M3617.88,-63.78C3587.95,-52.22 3543.81,-35.16 3517.52,-25.01"/>
<polygon fill="midnightblue" stroke="midnightblue" points="3616.85,-67.14 3627.44,-67.48 3619.37,-60.61 3616.85,-67.14"/>
</g>
<!-- Node26 -->
<g id="node26" class="node">
<title>Node26</title>
<g id="a_node26"><a xlink:href="../../d4/d13/jdcolor_8c.html" target="_top" xlink:title=" ">
<polygon fill="none" stroke="black" points="3583.5,-6 3583.5,-25 3715.5,-25 3715.5,-6 3583.5,-6"/>
<text text-anchor="middle" x="3649.5" y="-13" font-family="Helvetica,sans-Serif" font-size="10.00">Engine/jpeg&#45;8c/jdcolor.c</text>
</a>
</g>
</g>
<!-- Node2&#45;&gt;Node26 -->
<g id="edge25" class="edge">
<title>Node2&#45;&gt;Node26</title>
<path fill="none" stroke="midnightblue" d="M3649.5,-57.32C3649.5,-46.5 3649.5,-33.4 3649.5,-25.01"/>
<polygon fill="midnightblue" stroke="midnightblue" points="3646,-57.48 3649.5,-67.48 3653,-57.48 3646,-57.48"/>
</g>
<!-- Node27 -->
<g id="node27" class="node">
<title>Node27</title>
<g id="a_node27"><a xlink:href="../../d1/d6d/jddctmgr_8c.html" target="_top" xlink:title=" ">
<polygon fill="none" stroke="black" points="3734,-6 3734,-25 3877,-25 3877,-6 3734,-6"/>
<text text-anchor="middle" x="3805.5" y="-13" font-family="Helvetica,sans-Serif" font-size="10.00">Engine/jpeg&#45;8c/jddctmgr.c</text>
</a>
</g>
</g>
<!-- Node2&#45;&gt;Node27 -->
<g id="edge26" class="edge">
<title>Node2&#45;&gt;Node27</title>
<path fill="none" stroke="midnightblue" d="M3681.53,-63.78C3711.85,-52.22 3756.57,-35.16 3783.19,-25.01"/>
<polygon fill="midnightblue" stroke="midnightblue" points="3679.95,-60.64 3671.85,-67.48 3682.44,-67.18 3679.95,-60.64"/>
</g>
<!-- Node28 -->
<g id="node28" class="node">
<title>Node28</title>
<g id="a_node28"><a xlink:href="../../dd/da1/jdhuff_8c.html" target="_top" xlink:title=" ">
<polygon fill="none" stroke="black" points="3895.5,-6 3895.5,-25 4023.5,-25 4023.5,-6 3895.5,-6"/>
<text text-anchor="middle" x="3959.5" y="-13" font-family="Helvetica,sans-Serif" font-size="10.00">Engine/jpeg&#45;8c/jdhuff.c</text>
</a>
</g>
</g>
<!-- Node2&#45;&gt;Node28 -->
<g id="edge27" class="edge">
<title>Node2&#45;&gt;Node28</title>
<path fill="none" stroke="midnightblue" d="M3704.84,-65.63C3752.89,-56.59 3824.32,-43.08 3886.5,-31 3896.27,-29.1 3906.76,-27.04 3916.67,-25.07"/>
<polygon fill="midnightblue" stroke="midnightblue" points="3704.14,-62.2 3694.96,-67.49 3705.43,-69.08 3704.14,-62.2"/>
</g>
<!-- Node29 -->
<g id="node29" class="node">
<title>Node29</title>
<g id="a_node29"><a xlink:href="../../da/dad/jdinput_8c.html" target="_top" xlink:title=" ">
<polygon fill="none" stroke="black" points="4041.5,-6 4041.5,-25 4175.5,-25 4175.5,-6 4041.5,-6"/>
<text text-anchor="middle" x="4108.5" y="-13" font-family="Helvetica,sans-Serif" font-size="10.00">Engine/jpeg&#45;8c/jdinput.c</text>
</a>
</g>
</g>
<!-- Node2&#45;&gt;Node29 -->
<g id="edge28" class="edge">
<title>Node2&#45;&gt;Node29</title>
<path fill="none" stroke="midnightblue" d="M3726.97,-68.54C3804.49,-60.69 3927.06,-47.23 4032.5,-31 4043.65,-29.28 4055.67,-27.13 4066.78,-25.02"/>
<polygon fill="midnightblue" stroke="midnightblue" points="3726.41,-65.08 3716.81,-69.56 3727.11,-72.04 3726.41,-65.08"/>
</g>
<!-- Node30 -->
<g id="node30" class="node">
<title>Node30</title>
<g id="a_node30"><a xlink:href="../../d3/d4c/jdmainct_8c.html" target="_top" xlink:title=" ">
<polygon fill="none" stroke="black" points="4194,-6 4194,-25 4337,-25 4337,-6 4194,-6"/>
<text text-anchor="middle" x="4265.5" y="-13" font-family="Helvetica,sans-Serif" font-size="10.00">Engine/jpeg&#45;8c/jdmainct.c</text>
</a>
</g>
</g>
<!-- Node2&#45;&gt;Node30 -->
<g id="edge29" class="edge">
<title>Node2&#45;&gt;Node30</title>
<path fill="none" stroke="midnightblue" d="M3726.98,-71.76C3831.26,-65.53 4022.39,-52.28 4184.5,-31 4196.68,-29.4 4209.82,-27.24 4221.9,-25.07"/>
<polygon fill="midnightblue" stroke="midnightblue" points="3726.64,-68.27 3716.86,-72.35 3727.05,-75.26 3726.64,-68.27"/>
</g>
<!-- Node31 -->
<g id="node31" class="node">
<title>Node31</title>
<g id="a_node31"><a xlink:href="../../de/da7/jdmarker_8c.html" target="_top" xlink:title=" ">
<polygon fill="none" stroke="black" points="4355,-6 4355,-25 4498,-25 4498,-6 4355,-6"/>
<text text-anchor="middle" x="4426.5" y="-13" font-family="Helvetica,sans-Serif" font-size="10.00">Engine/jpeg&#45;8c/jdmarker.c</text>
</a>
</g>
</g>
<!-- Node2&#45;&gt;Node31 -->
<g id="edge30" class="edge">
<title>Node2&#45;&gt;Node31</title>
<path fill="none" stroke="midnightblue" d="M3726.7,-73.91C3855.54,-69.78 4122.38,-58.45 4346.5,-31 4358.97,-29.47 4372.44,-27.25 4384.7,-25.01"/>
<polygon fill="midnightblue" stroke="midnightblue" points="3726.42,-70.42 3716.53,-74.23 3726.64,-77.41 3726.42,-70.42"/>
</g>
<!-- Node32 -->
<g id="node32" class="node">
<title>Node32</title>
<g id="a_node32"><a xlink:href="../../d7/d24/jdmaster_8c.html" target="_top" xlink:title=" ">
<polygon fill="none" stroke="black" points="4516,-6 4516,-25 4659,-25 4659,-6 4516,-6"/>
<text text-anchor="middle" x="4587.5" y="-13" font-family="Helvetica,sans-Serif" font-size="10.00">Engine/jpeg&#45;8c/jdmaster.c</text>
</a>
</g>
</g>
<!-- Node2&#45;&gt;Node32 -->
<g id="edge31" class="edge">
<title>Node2&#45;&gt;Node32</title>
<path fill="none" stroke="midnightblue" d="M3726.85,-75.23C3877.56,-72.99 4220.91,-64.35 4507.5,-31 4520.12,-29.53 4533.75,-27.3 4546.13,-25.03"/>
<polygon fill="midnightblue" stroke="midnightblue" points="3726.72,-71.73 3716.77,-75.37 3726.82,-78.73 3726.72,-71.73"/>
</g>
<!-- Node33 -->
<g id="node33" class="node">
<title>Node33</title>
<g id="a_node33"><a xlink:href="../../d6/dbb/jdmerge_8c.html" target="_top" xlink:title=" ">
<polygon fill="none" stroke="black" points="4677.5,-6 4677.5,-25 4817.5,-25 4817.5,-6 4677.5,-6"/>
<text text-anchor="middle" x="4747.5" y="-13" font-family="Helvetica,sans-Serif" font-size="10.00">Engine/jpeg&#45;8c/jdmerge.c</text>
</a>
</g>
</g>
<!-- Node2&#45;&gt;Node33 -->
<g id="edge32" class="edge">
<title>Node2&#45;&gt;Node33</title>
<path fill="none" stroke="midnightblue" d="M3726.64,-76.2C3897.1,-75.86 4318.46,-70.66 4668.5,-31 4681.11,-29.57 4694.74,-27.33 4707.06,-25.03"/>
<polygon fill="midnightblue" stroke="midnightblue" points="3726.51,-72.7 3716.51,-76.22 3726.52,-79.7 3726.51,-72.7"/>
</g>
<!-- Node34 -->
<g id="node34" class="node">
<title>Node34</title>
<g id="a_node34"><a xlink:href="../../d3/d68/jdpostct_8c.html" target="_top" xlink:title=" ">
<polygon fill="none" stroke="black" points="4836,-6 4836,-25 4975,-25 4975,-6 4836,-6"/>
<text text-anchor="middle" x="4905.5" y="-13" font-family="Helvetica,sans-Serif" font-size="10.00">Engine/jpeg&#45;8c/jdpostct.c</text>
</a>
</g>
</g>
<!-- Node2&#45;&gt;Node34 -->
<g id="edge33" class="edge">
<title>Node2&#45;&gt;Node34</title>
<path fill="none" stroke="midnightblue" d="M3726.71,-74.49C3953.03,-69.85 4612.31,-54.63 4826.5,-31 4839.11,-29.61 4852.74,-27.37 4865.07,-25.07"/>
<polygon fill="midnightblue" stroke="midnightblue" points="3726.51,-71 3716.59,-74.7 3726.65,-78 3726.51,-71"/>
</g>
<!-- Node35 -->
<g id="node35" class="node">
<title>Node35</title>
<g id="a_node35"><a xlink:href="../../d8/da3/jdsample_8c.html" target="_top" xlink:title=" ">
<polygon fill="none" stroke="black" points="4993,-6 4993,-25 5138,-25 5138,-6 4993,-6"/>
<text text-anchor="middle" x="5065.5" y="-13" font-family="Helvetica,sans-Serif" font-size="10.00">Engine/jpeg&#45;8c/jdsample.c</text>
</a>
</g>
</g>
<!-- Node2&#45;&gt;Node35 -->
<g id="edge34" class="edge">
<title>Node2&#45;&gt;Node35</title>
<path fill="none" stroke="midnightblue" d="M3727.11,-74.85C3973.82,-70.96 4738.25,-57.05 4984.5,-31 4997.57,-29.62 5011.71,-27.36 5024.46,-25.03"/>
<polygon fill="midnightblue" stroke="midnightblue" points="3726.75,-71.35 3716.8,-75.01 3726.86,-78.35 3726.75,-71.35"/>
</g>
<!-- Node36 -->
<g id="node36" class="node">
<title>Node36</title>
<g id="a_node36"><a xlink:href="../../d1/d2a/jdtrans_8c.html" target="_top" xlink:title=" ">
<polygon fill="none" stroke="black" points="5156.5,-6 5156.5,-25 5290.5,-25 5290.5,-6 5156.5,-6"/>
<text text-anchor="middle" x="5223.5" y="-13" font-family="Helvetica,sans-Serif" font-size="10.00">Engine/jpeg&#45;8c/jdtrans.c</text>
</a>
</g>
</g>
<!-- Node2&#45;&gt;Node36 -->
<g id="edge35" class="edge">
<title>Node2&#45;&gt;Node36</title>
<path fill="none" stroke="midnightblue" d="M3726.91,-75.3C3992.85,-72.62 4868.03,-61.66 5147.5,-31 5159.78,-29.65 5173.05,-27.4 5185.02,-25.07"/>
<polygon fill="midnightblue" stroke="midnightblue" points="3726.55,-71.8 3716.58,-75.4 3726.62,-78.8 3726.55,-71.8"/>
</g>
<!-- Node37 -->
<g id="node37" class="node">
<title>Node37</title>
<g id="a_node37"><a xlink:href="../../da/d63/jerror_8c.html" target="_top" xlink:title=" ">
<polygon fill="none" stroke="black" points="5309,-6 5309,-25 5434,-25 5434,-6 5309,-6"/>
<text text-anchor="middle" x="5371.5" y="-13" font-family="Helvetica,sans-Serif" font-size="10.00">Engine/jpeg&#45;8c/jerror.c</text>
</a>
</g>
</g>
<!-- Node2&#45;&gt;Node37 -->
<g id="edge36" class="edge">
<title>Node2&#45;&gt;Node37</title>
<path fill="none" stroke="midnightblue" d="M3727.04,-75.65C4010.35,-74.09 4989.06,-66.23 5299.5,-31 5311.28,-29.66 5324.01,-27.38 5335.43,-25.02"/>
<polygon fill="midnightblue" stroke="midnightblue" points="3726.84,-72.15 3716.86,-75.7 3726.88,-79.15 3726.84,-72.15"/>
</g>
<!-- Node38 -->
<g id="node38" class="node">
<title>Node38</title>
<g id="a_node38"><a xlink:href="../../d8/df8/jfdctflt_8c.html" target="_top" xlink:title=" ">
<polygon fill="none" stroke="black" points="5452,-6 5452,-25 5583,-25 5583,-6 5452,-6"/>
<text text-anchor="middle" x="5517.5" y="-13" font-family="Helvetica,sans-Serif" font-size="10.00">Engine/jpeg&#45;8c/jfdctflt.c</text>
</a>
</g>
</g>
<!-- Node2&#45;&gt;Node38 -->
<g id="edge37" class="edge">
<title>Node2&#45;&gt;Node38</title>
<path fill="none" stroke="midnightblue" d="M3727.18,-75.79C4026.25,-74.73 5103.38,-68.32 5443.5,-31 5455.6,-29.67 5468.68,-27.4 5480.42,-25.03"/>
<polygon fill="midnightblue" stroke="midnightblue" points="3726.86,-72.29 3716.88,-75.83 3726.89,-79.29 3726.86,-72.29"/>
</g>
<!-- Node39 -->
<g id="node39" class="node">
<title>Node39</title>
<g id="a_node39"><a xlink:href="../../da/d88/jfdctfst_8c.html" target="_top" xlink:title=" ">
<polygon fill="none" stroke="black" points="5601.5,-6 5601.5,-25 5735.5,-25 5735.5,-6 5601.5,-6"/>
<text text-anchor="middle" x="5668.5" y="-13" font-family="Helvetica,sans-Serif" font-size="10.00">Engine/jpeg&#45;8c/jfdctfst.c</text>
</a>
</g>
</g>
<!-- Node2&#45;&gt;Node39 -->
<g id="edge38" class="edge">
<title>Node2&#45;&gt;Node39</title>
<path fill="none" stroke="midnightblue" d="M3727.25,-75.92C4041.88,-75.31 5221.55,-70.41 5592.5,-31 5604.92,-29.68 5618.35,-27.41 5630.41,-25.04"/>
<polygon fill="midnightblue" stroke="midnightblue" points="3726.86,-72.42 3716.87,-75.94 3726.87,-79.42 3726.86,-72.42"/>
</g>
<!-- Node40 -->
<g id="node40" class="node">
<title>Node40</title>
<g id="a_node40"><a xlink:href="../../d9/de0/jfdctint_8c.html" target="_top" xlink:title=" ">
<polygon fill="none" stroke="black" points="5753.5,-6 5753.5,-25 5887.5,-25 5887.5,-6 5753.5,-6"/>
<text text-anchor="middle" x="5820.5" y="-13" font-family="Helvetica,sans-Serif" font-size="10.00">Engine/jpeg&#45;8c/jfdctint.c</text>
</a>
</g>
</g>
<!-- Node2&#45;&gt;Node40 -->
<g id="edge39" class="edge">
<title>Node2&#45;&gt;Node40</title>
<path fill="none" stroke="midnightblue" d="M3726.96,-76.07C4056.34,-76.1 5341.96,-73.42 5744.5,-31 5756.92,-29.69 5770.35,-27.42 5782.41,-25.06"/>
<polygon fill="midnightblue" stroke="midnightblue" points="3726.58,-72.57 3716.58,-76.07 3726.57,-79.57 3726.58,-72.57"/>
</g>
<!-- Node41 -->
<g id="node41" class="node">
<title>Node41</title>
<g id="a_node41"><a xlink:href="../../d9/d3e/jidctflt_8c.html" target="_top" xlink:title=" ">
<polygon fill="none" stroke="black" points="5906,-6 5906,-25 6037,-25 6037,-6 5906,-6"/>
<text text-anchor="middle" x="5971.5" y="-13" font-family="Helvetica,sans-Serif" font-size="10.00">Engine/jpeg&#45;8c/jidctflt.c</text>
</a>
</g>
</g>
<!-- Node2&#45;&gt;Node41 -->
<g id="edge40" class="edge">
<title>Node2&#45;&gt;Node41</title>
<path fill="none" stroke="midnightblue" d="M3726.6,-76.23C4069.99,-76.96 5462.31,-76.98 5896.5,-31 5908.77,-29.7 5922.02,-27.43 5933.92,-25.07"/>
<polygon fill="midnightblue" stroke="midnightblue" points="3726.52,-72.73 3716.51,-76.2 3726.5,-79.73 3726.52,-72.73"/>
</g>
<!-- Node42 -->
<g id="node42" class="node">
<title>Node42</title>
<g id="a_node42"><a xlink:href="../../d3/d97/jidctfst_8c.html" target="_top" xlink:title=" ">
<polygon fill="none" stroke="black" points="6055.5,-6 6055.5,-25 6189.5,-25 6189.5,-6 6055.5,-6"/>
<text text-anchor="middle" x="6122.5" y="-13" font-family="Helvetica,sans-Serif" font-size="10.00">Engine/jpeg&#45;8c/jidctfst.c</text>
</a>
</g>
</g>
<!-- Node2&#45;&gt;Node42 -->
<g id="edge41" class="edge">
<title>Node2&#45;&gt;Node42</title>
<path fill="none" stroke="midnightblue" d="M3726.98,-76.31C4084.97,-77.5 5581.22,-79.4 6046.5,-31 6059.06,-29.69 6072.64,-27.39 6084.8,-25"/>
<polygon fill="midnightblue" stroke="midnightblue" points="3726.73,-72.81 3716.72,-76.28 3726.71,-79.81 3726.73,-72.81"/>
</g>
<!-- Node43 -->
<g id="node43" class="node">
<title>Node43</title>
<g id="a_node43"><a xlink:href="../../df/db2/jidctint_8c.html" target="_top" xlink:title=" ">
<polygon fill="none" stroke="black" points="6207.5,-6 6207.5,-25 6341.5,-25 6341.5,-6 6207.5,-6"/>
<text text-anchor="middle" x="6274.5" y="-13" font-family="Helvetica,sans-Serif" font-size="10.00">Engine/jpeg&#45;8c/jidctint.c</text>
</a>
</g>
</g>
<!-- Node2&#45;&gt;Node43 -->
<g id="edge42" class="edge">
<title>Node2&#45;&gt;Node43</title>
<path fill="none" stroke="midnightblue" d="M3726.75,-75.42C4126.11,-72.34 5947.86,-56.93 6198.5,-31 6211.06,-29.7 6224.64,-27.4 6236.8,-25.01"/>
<polygon fill="midnightblue" stroke="midnightblue" points="3726.71,-71.92 3716.74,-75.5 3726.76,-78.92 3726.71,-71.92"/>
</g>
<!-- Node44 -->
<g id="node44" class="node">
<title>Node44</title>
<g id="a_node44"><a xlink:href="../../d1/d39/jmemmgr_8c.html" target="_top" xlink:title=" ">
<polygon fill="none" stroke="black" points="6360,-6 6360,-25 6507,-25 6507,-6 6360,-6"/>
<text text-anchor="middle" x="6433.5" y="-13" font-family="Helvetica,sans-Serif" font-size="10.00">Engine/jpeg&#45;8c/jmemmgr.c</text>
</a>
</g>
</g>
<!-- Node2&#45;&gt;Node44 -->
<g id="edge43" class="edge">
<title>Node2&#45;&gt;Node44</title>
<path fill="none" stroke="midnightblue" d="M3726.6,-75.44C4139.85,-72.31 6083.69,-56.37 6350.5,-31 6364.19,-29.7 6379.02,-27.4 6392.3,-25.01"/>
<polygon fill="midnightblue" stroke="midnightblue" points="3726.52,-71.94 3716.55,-75.51 3726.58,-78.94 3726.52,-71.94"/>
</g>
<!-- Node45 -->
<g id="node45" class="node">
<title>Node45</title>
<g id="a_node45"><a xlink:href="../../d3/da7/jmemnobs_8c.html" target="_top" xlink:title=" ">
<polygon fill="none" stroke="black" points="6525.5,-6 6525.5,-25 6677.5,-25 6677.5,-6 6525.5,-6"/>
<text text-anchor="middle" x="6601.5" y="-13" font-family="Helvetica,sans-Serif" font-size="10.00">Engine/jpeg&#45;8c/jmemnobs.c</text>
</a>
</g>
</g>
<!-- Node2&#45;&gt;Node45 -->
<g id="edge44" class="edge">
<title>Node2&#45;&gt;Node45</title>
<path fill="none" stroke="midnightblue" d="M3726.79,-75.5C4155.51,-72.6 6232.24,-57.32 6516.5,-31 6530.51,-29.7 6545.69,-27.4 6559.3,-25.01"/>
<polygon fill="midnightblue" stroke="midnightblue" points="3726.65,-72 3716.68,-75.56 3726.7,-79 3726.65,-72"/>
</g>
<!-- Node46 -->
<g id="node46" class="node">
<title>Node46</title>
<g id="a_node46"><a xlink:href="../../d5/d10/jquant1_8c.html" target="_top" xlink:title=" ">
<polygon fill="none" stroke="black" points="6696,-6 6696,-25 6833,-25 6833,-6 6696,-6"/>
<text text-anchor="middle" x="6764.5" y="-13" font-family="Helvetica,sans-Serif" font-size="10.00">Engine/jpeg&#45;8c/jquant1.c</text>
</a>
</g>
</g>
<!-- Node2&#45;&gt;Node46 -->
<g id="edge45" class="edge">
<title>Node2&#45;&gt;Node46</title>
<path fill="none" stroke="midnightblue" d="M3726.69,-75.64C4170.17,-73.45 6384.54,-61.09 6686.5,-31 6699.38,-29.72 6713.32,-27.42 6725.8,-25.03"/>
<polygon fill="midnightblue" stroke="midnightblue" points="3726.53,-72.14 3716.55,-75.69 3726.56,-79.14 3726.53,-72.14"/>
</g>
<!-- Node47 -->
<g id="node47" class="node">
<title>Node47</title>
<g id="a_node47"><a xlink:href="../../d4/d7d/jquant2_8c.html" target="_top" xlink:title=" ">
<polygon fill="none" stroke="black" points="6851,-6 6851,-25 6988,-25 6988,-6 6851,-6"/>
<text text-anchor="middle" x="6919.5" y="-13" font-family="Helvetica,sans-Serif" font-size="10.00">Engine/jpeg&#45;8c/jquant2.c</text>
</a>
</g>
</g>
<!-- Node2&#45;&gt;Node47 -->
<g id="edge46" class="edge">
<title>Node2&#45;&gt;Node47</title>
<path fill="none" stroke="midnightblue" d="M3726.96,-75.71C4184.47,-73.87 6524.21,-62.97 6842.5,-31 6855.22,-29.72 6868.98,-27.43 6881.31,-25.04"/>
<polygon fill="midnightblue" stroke="midnightblue" points="3726.81,-72.21 3716.83,-75.75 3726.84,-79.21 3726.81,-72.21"/>
</g>
<!-- Node48 -->
<g id="node48" class="node">
<title>Node48</title>
<g id="a_node48"><a xlink:href="../../d8/d92/jutils_8c.html" target="_top" xlink:title=" ">
<polygon fill="none" stroke="black" points="7006.5,-6 7006.5,-25 7130.5,-25 7130.5,-6 7006.5,-6"/>
<text text-anchor="middle" x="7068.5" y="-13" font-family="Helvetica,sans-Serif" font-size="10.00">Engine/jpeg&#45;8c/jutils.c</text>
</a>
</g>
</g>
<!-- Node2&#45;&gt;Node48 -->
<g id="edge47" class="edge">
<title>Node2&#45;&gt;Node48</title>
<path fill="none" stroke="midnightblue" d="M3726.94,-75.83C4197.4,-74.7 6663.13,-67.07 6997.5,-31 7009.26,-29.73 7021.95,-27.44 7033.31,-25.05"/>
<polygon fill="midnightblue" stroke="midnightblue" points="3726.84,-72.33 3716.85,-75.86 3726.86,-79.33 3726.84,-72.33"/>
</g>
<!-- Node49 -->
<g id="node49" class="node">
<title>Node49</title>
<g id="a_node49"><a xlink:href="../../dc/de7/tr__image__jpg_8c.html" target="_top" xlink:title=" ">
<polygon fill="none" stroke="black" points="7148.5,-0.5 7148.5,-30.5 7252.5,-30.5 7252.5,-0.5 7148.5,-0.5"/>
<text text-anchor="start" x="7156.5" y="-18.5" font-family="Helvetica,sans-Serif" font-size="10.00">Engine/renderer/tr</text>
<text text-anchor="middle" x="7200.5" y="-7.5" font-family="Helvetica,sans-Serif" font-size="10.00">_image_jpg.c</text>
</a>
</g>
</g>
<!-- Node2&#45;&gt;Node49 -->
<g id="edge48" class="edge">
<title>Node2&#45;&gt;Node49</title>
<path fill="none" stroke="midnightblue" d="M3727.11,-76.03C4209.72,-76.05 6790.84,-74.15 7139.5,-31 7142.42,-30.64 7145.4,-30.19 7148.39,-29.68"/>
<polygon fill="midnightblue" stroke="midnightblue" points="3726.77,-72.53 3716.77,-76.02 3726.77,-79.53 3726.77,-72.53"/>
</g>
</g>
</svg>
