<?xml version="1.0" encoding="UTF-8" standalone="no"?>
<!DOCTYPE svg PUBLIC "-//W3C//DTD SVG 1.1//EN"
 "http://www.w3.org/Graphics/SVG/1.1/DTD/svg11.dtd">
<!-- Generated by graphviz version 2.43.0 (0)
 -->
<!-- Title: _AAL_PARAMETERS_IE Pages: 1 -->
<svg width="482pt" height="240pt"
 viewBox="0.00 0.00 482.00 240.00" xmlns="http://www.w3.org/2000/svg" xmlns:xlink="http://www.w3.org/1999/xlink">
<g id="graph0" class="graph" transform="scale(1 1) rotate(0) translate(4 236)">
<title>_AAL_PARAMETERS_IE</title>
<!-- Node1 -->
<g id="node1" class="node">
<title>Node1</title>
<g id="a_node1"><a xlink:title=" ">
<polygon fill="#bfbfbf" stroke="black" points="349,-117.5 349,-136.5 474,-136.5 474,-117.5 349,-117.5"/>
<text text-anchor="middle" x="411.5" y="-124.5" font-family="Helvetica,sans-Serif" font-size="10.00">_AAL_PARAMETERS_IE</text>
</a>
</g>
</g>
<!-- Node2 -->
<g id="node2" class="node">
<title>Node2</title>
<g id="a_node2"><a xlink:title=" ">
<polygon fill="none" stroke="#bfbfbf" points="43,-212.5 43,-231.5 155,-231.5 155,-212.5 43,-212.5"/>
<text text-anchor="middle" x="99" y="-219.5" font-family="Helvetica,sans-Serif" font-size="10.00">AAL1_PARAMETERS</text>
</a>
</g>
</g>
<!-- Node2&#45;&gt;Node1 -->
<g id="edge1" class="edge">
<title>Node2&#45;&gt;Node1</title>
<path fill="none" stroke="#9a32cd" stroke-dasharray="5,2" d="M165.44,-220.63C213.01,-217.63 278.06,-209.29 331,-187 359.69,-174.92 387.34,-150.17 401.23,-136.53"/>
<polygon fill="#9a32cd" stroke="#9a32cd" points="165.05,-217.15 155.26,-221.21 165.44,-224.13 165.05,-217.15"/>
<text text-anchor="middle" x="273.5" y="-218" font-family="Helvetica,sans-Serif" font-size="10.00"> AAL1Parameters</text>
</g>
<!-- Node3 -->
<g id="node3" class="node">
<title>Node3</title>
<g id="a_node3"><a xlink:title=" ">
<polygon fill="none" stroke="#bfbfbf" points="5,-174.5 5,-193.5 193,-193.5 193,-174.5 5,-174.5"/>
<text text-anchor="middle" x="99" y="-181.5" font-family="Helvetica,sans-Serif" font-size="10.00">anonymous:AALSpecificParameters</text>
</a>
</g>
</g>
<!-- Node3&#45;&gt;Node1 -->
<g id="edge2" class="edge">
<title>Node3&#45;&gt;Node1</title>
<path fill="none" stroke="#9a32cd" stroke-dasharray="5,2" d="M203.22,-174.23C243.4,-169.37 289.64,-162.46 331,-153 349.54,-148.76 369.93,-142.05 385.41,-136.51"/>
<polygon fill="#9a32cd" stroke="#9a32cd" points="202.66,-170.77 193.15,-175.42 203.49,-177.72 202.66,-170.77"/>
<text text-anchor="middle" x="273.5" y="-175" font-family="Helvetica,sans-Serif" font-size="10.00"> AALSpecificParameters</text>
</g>
<!-- Node4 -->
<g id="node4" class="node">
<title>Node4</title>
<g id="a_node4"><a xlink:title=" ">
<polygon fill="none" stroke="#bfbfbf" points="33,-136.5 33,-155.5 165,-155.5 165,-136.5 33,-136.5"/>
<text text-anchor="middle" x="99" y="-143.5" font-family="Helvetica,sans-Serif" font-size="10.00">AALUSER_PARAMETERS</text>
</a>
</g>
</g>
<!-- Node4&#45;&gt;Node1 -->
<g id="edge3" class="edge">
<title>Node4&#45;&gt;Node1</title>
<path fill="none" stroke="#9a32cd" stroke-dasharray="5,2" d="M175.16,-141.4C228.42,-138.14 299,-133.82 348.93,-130.77"/>
<polygon fill="#9a32cd" stroke="#9a32cd" points="174.86,-137.91 165.09,-142.02 175.29,-144.9 174.86,-137.91"/>
<text text-anchor="middle" x="273.5" y="-141" font-family="Helvetica,sans-Serif" font-size="10.00"> AALUserParameters</text>
</g>
<!-- Node5 -->
<g id="node5" class="node">
<title>Node5</title>
<g id="a_node5"><a xlink:title=" ">
<polygon fill="none" stroke="#bfbfbf" points="40,-98.5 40,-117.5 158,-117.5 158,-98.5 40,-98.5"/>
<text text-anchor="middle" x="99" y="-105.5" font-family="Helvetica,sans-Serif" font-size="10.00">AAL34_PARAMETERS</text>
</a>
</g>
</g>
<!-- Node5&#45;&gt;Node1 -->
<g id="edge4" class="edge">
<title>Node5&#45;&gt;Node1</title>
<path fill="none" stroke="#9a32cd" stroke-dasharray="5,2" d="M168.62,-109.13C214.63,-110.26 276.52,-112.52 331,-117 336.82,-117.48 342.88,-118.07 348.92,-118.72"/>
<polygon fill="#9a32cd" stroke="#9a32cd" points="168.55,-105.62 158.47,-108.89 168.39,-112.62 168.55,-105.62"/>
<text text-anchor="middle" x="273.5" y="-120" font-family="Helvetica,sans-Serif" font-size="10.00"> AAL34Parameters</text>
</g>
<!-- Node6 -->
<g id="node6" class="node">
<title>Node6</title>
<g id="a_node6"><a xlink:title=" ">
<polygon fill="none" stroke="#bfbfbf" points="43,-60.5 43,-79.5 155,-79.5 155,-60.5 43,-60.5"/>
<text text-anchor="middle" x="99" y="-67.5" font-family="Helvetica,sans-Serif" font-size="10.00">AAL5_PARAMETERS</text>
</a>
</g>
</g>
<!-- Node6&#45;&gt;Node1 -->
<g id="edge5" class="edge">
<title>Node6&#45;&gt;Node1</title>
<path fill="none" stroke="#9a32cd" stroke-dasharray="5,2" d="M165.35,-72.29C212.07,-75.08 276.13,-81.27 331,-95 352.22,-100.31 375.28,-110.07 391.07,-117.42"/>
<polygon fill="#9a32cd" stroke="#9a32cd" points="165.53,-68.79 155.35,-71.73 165.14,-75.78 165.53,-68.79"/>
<text text-anchor="middle" x="273.5" y="-98" font-family="Helvetica,sans-Serif" font-size="10.00"> AAL5Parameters</text>
</g>
<!-- Node7 -->
<g id="node7" class="node">
<title>Node7</title>
<g id="a_node7"><a xlink:title=" ">
<polygon fill="none" stroke="#bfbfbf" points="0,-0.5 0,-41.5 198,-41.5 198,-0.5 0,-0.5"/>
<text text-anchor="start" x="8" y="-29.5" font-family="Helvetica,sans-Serif" font-size="10.00">PSecurityUserData *typedef</text>
<text text-anchor="start" x="8" y="-18.5" font-family="Helvetica,sans-Serif" font-size="10.00"> PSECPKG_EXTENDED_INFORMATION</text>
<text text-anchor="middle" x="99" y="-7.5" font-family="Helvetica,sans-Serif" font-size="10.00"> *typedef</text>
</a>
</g>
</g>
<!-- Node7&#45;&gt;Node1 -->
<g id="edge6" class="edge">
<title>Node7&#45;&gt;Node1</title>
<path fill="none" stroke="#9a32cd" stroke-dasharray="5,2" d="M208.09,-27.97C248.09,-33.53 292.93,-43.44 331,-61 360.65,-74.67 388.32,-102.26 401.84,-117.07"/>
<polygon fill="#9a32cd" stroke="#9a32cd" points="208.41,-24.48 198.04,-26.64 207.49,-31.42 208.41,-24.48"/>
<text text-anchor="middle" x="273.5" y="-64" font-family="Helvetica,sans-Serif" font-size="10.00"> AALType</text>
</g>
</g>
</svg>
