<?xml version="1.0" encoding="UTF-8" standalone="no"?>
<!DOCTYPE svg PUBLIC "-//W3C//DTD SVG 1.1//EN"
 "http://www.w3.org/Graphics/SVG/1.1/DTD/svg11.dtd">
<!-- Generated by graphviz version 2.43.0 (0)
 -->
<!-- Title: _BLOB Pages: 1 -->
<svg width="274pt" height="117pt"
 viewBox="0.00 0.00 273.50 117.00" xmlns="http://www.w3.org/2000/svg" xmlns:xlink="http://www.w3.org/1999/xlink">
<g id="graph0" class="graph" transform="scale(1 1) rotate(0) translate(4 113)">
<title>_BLOB</title>
<!-- Node1 -->
<g id="node1" class="node">
<title>Node1</title>
<g id="a_node1"><a xlink:title=" ">
<polygon fill="#bfbfbf" stroke="black" points="71.5,-0.5 71.5,-19.5 119.5,-19.5 119.5,-0.5 71.5,-0.5"/>
<text text-anchor="middle" x="95.5" y="-7.5" font-family="Helvetica,sans-Serif" font-size="10.00">_BLOB</text>
</a>
</g>
</g>
<!-- Node2 -->
<g id="node2" class="node">
<title>Node2</title>
<g id="a_node2"><a xlink:title=" ">
<polygon fill="none" stroke="#bfbfbf" points="0,-78.5 0,-97.5 49,-97.5 49,-78.5 0,-78.5"/>
<text text-anchor="middle" x="24.5" y="-85.5" font-family="Helvetica,sans-Serif" font-size="10.00">BYTE *</text>
</a>
</g>
</g>
<!-- Node2&#45;&gt;Node1 -->
<g id="edge1" class="edge">
<title>Node2&#45;&gt;Node1</title>
<path fill="none" stroke="#9a32cd" stroke-dasharray="5,2" d="M39.56,-70.88C54.19,-55.22 75.84,-32.04 87.45,-19.62"/>
<polygon fill="#9a32cd" stroke="#9a32cd" points="36.91,-68.59 32.64,-78.28 42.03,-73.36 36.91,-68.59"/>
<text text-anchor="middle" x="96" y="-41" font-family="Helvetica,sans-Serif" font-size="10.00"> pBlobData</text>
</g>
<!-- Node3 -->
<g id="node3" class="node">
<title>Node3</title>
<g id="a_node3"><a xlink:title=" ">
<polygon fill="none" stroke="#bfbfbf" points="67.5,-67.5 67.5,-108.5 265.5,-108.5 265.5,-67.5 67.5,-67.5"/>
<text text-anchor="start" x="75.5" y="-96.5" font-family="Helvetica,sans-Serif" font-size="10.00">PSecurityUserData *typedef</text>
<text text-anchor="start" x="75.5" y="-85.5" font-family="Helvetica,sans-Serif" font-size="10.00"> PSECPKG_EXTENDED_INFORMATION</text>
<text text-anchor="middle" x="166.5" y="-74.5" font-family="Helvetica,sans-Serif" font-size="10.00"> *typedef</text>
</a>
</g>
</g>
<!-- Node3&#45;&gt;Node1 -->
<g id="edge2" class="edge">
<title>Node3&#45;&gt;Node1</title>
<path fill="none" stroke="#9a32cd" stroke-dasharray="5,2" d="M145.83,-59.07C140.16,-51.96 133.82,-44.5 127.5,-38 121.12,-31.43 113.27,-24.79 106.94,-19.74"/>
<polygon fill="#9a32cd" stroke="#9a32cd" points="143.24,-61.45 152.15,-67.18 148.76,-57.14 143.24,-61.45"/>
<text text-anchor="middle" x="154" y="-41" font-family="Helvetica,sans-Serif" font-size="10.00"> cbSize</text>
</g>
</g>
</svg>
