<?xml version="1.0" encoding="UTF-8" standalone="no"?>
<!DOCTYPE svg PUBLIC "-//W3C//DTD SVG 1.1//EN"
 "http://www.w3.org/Graphics/SVG/1.1/DTD/svg11.dtd">
<!-- Generated by graphviz version 2.43.0 (0)
 -->
<!-- Title: _NDIS_TAPI_NEGOTIATE_EXT_VERSION Pages: 1 -->
<svg width="206pt" height="172pt"
 viewBox="0.00 0.00 206.00 172.00" xmlns="http://www.w3.org/2000/svg" xmlns:xlink="http://www.w3.org/1999/xlink">
<g id="graph0" class="graph" transform="scale(1 1) rotate(0) translate(4 168)">
<title>_NDIS_TAPI_NEGOTIATE_EXT_VERSION</title>
<!-- Node1 -->
<g id="node1" class="node">
<title>Node1</title>
<g id="a_node1"><a xlink:title=" ">
<polygon fill="#bfbfbf" stroke="black" points="32.5,-0.5 32.5,-30.5 165.5,-30.5 165.5,-0.5 32.5,-0.5"/>
<text text-anchor="start" x="40.5" y="-18.5" font-family="Helvetica,sans-Serif" font-size="10.00">_NDIS_TAPI_NEGOTIATE</text>
<text text-anchor="middle" x="99" y="-7.5" font-family="Helvetica,sans-Serif" font-size="10.00">_EXT_VERSION</text>
</a>
</g>
</g>
<!-- Node2 -->
<g id="node2" class="node">
<title>Node2</title>
<g id="a_node2"><a xlink:title=" ">
<polygon fill="none" stroke="#bfbfbf" points="0,-122.5 0,-163.5 198,-163.5 198,-122.5 0,-122.5"/>
<text text-anchor="start" x="8" y="-151.5" font-family="Helvetica,sans-Serif" font-size="10.00">PSecurityUserData *typedef</text>
<text text-anchor="start" x="8" y="-140.5" font-family="Helvetica,sans-Serif" font-size="10.00"> PSECPKG_EXTENDED_INFORMATION</text>
<text text-anchor="middle" x="99" y="-129.5" font-family="Helvetica,sans-Serif" font-size="10.00"> *typedef</text>
</a>
</g>
</g>
<!-- Node2&#45;&gt;Node1 -->
<g id="edge1" class="edge">
<title>Node2&#45;&gt;Node1</title>
<path fill="none" stroke="#9a32cd" stroke-dasharray="5,2" d="M99,-112.38C99,-86.56 99,-50.23 99,-30.53"/>
<polygon fill="#9a32cd" stroke="#9a32cd" points="95.5,-112.39 99,-122.39 102.5,-112.39 95.5,-112.39"/>
<text text-anchor="middle" x="133" y="-96" font-family="Helvetica,sans-Serif" font-size="10.00"> ulExtVersion</text>
<text text-anchor="middle" x="133" y="-85" font-family="Helvetica,sans-Serif" font-size="10.00">ulRequestID</text>
<text text-anchor="middle" x="133" y="-74" font-family="Helvetica,sans-Serif" font-size="10.00">ulLowVersion</text>
<text text-anchor="middle" x="133" y="-63" font-family="Helvetica,sans-Serif" font-size="10.00">ulHighVersion</text>
<text text-anchor="middle" x="133" y="-52" font-family="Helvetica,sans-Serif" font-size="10.00">ulDeviceID</text>
</g>
</g>
</svg>
