<?xml version="1.0" encoding="UTF-8" standalone="no"?>
<!DOCTYPE svg PUBLIC "-//W3C//DTD SVG 1.1//EN"
 "http://www.w3.org/Graphics/SVG/1.1/DTD/svg11.dtd">
<!-- Generated by graphviz version 2.43.0 (0)
 -->
<!-- Title: tagMIDIINCAPSA Pages: 1 -->
<svg width="249pt" height="117pt"
 viewBox="0.00 0.00 249.00 117.00" xmlns="http://www.w3.org/2000/svg" xmlns:xlink="http://www.w3.org/1999/xlink">
<g id="graph0" class="graph" transform="scale(1 1) rotate(0) translate(4 113)">
<title>tagMIDIINCAPSA</title>
<!-- Node1 -->
<g id="node1" class="node">
<title>Node1</title>
<g id="a_node1"><a xlink:title=" ">
<polygon fill="#bfbfbf" stroke="black" points="46,-0.5 46,-19.5 144,-19.5 144,-0.5 46,-0.5"/>
<text text-anchor="middle" x="95" y="-7.5" font-family="Helvetica,sans-Serif" font-size="10.00">tagMIDIINCAPSA</text>
</a>
</g>
</g>
<!-- Node2 -->
<g id="node2" class="node">
<title>Node2</title>
<g id="a_node2"><a xlink:title=" ">
<polygon fill="none" stroke="#bfbfbf" points="0,-89.5 0,-108.5 38,-108.5 38,-89.5 0,-89.5"/>
<text text-anchor="middle" x="19" y="-96.5" font-family="Helvetica,sans-Serif" font-size="10.00">char</text>
</a>
</g>
</g>
<!-- Node2&#45;&gt;Node1 -->
<g id="edge1" class="edge">
<title>Node2&#45;&gt;Node1</title>
<path fill="none" stroke="#9a32cd" stroke-dasharray="5,2" d="M22.88,-79.16C26.33,-66.3 32.51,-49.57 43,-38 50.31,-29.93 60.59,-23.89 70.09,-19.6"/>
<polygon fill="#9a32cd" stroke="#9a32cd" points="19.39,-78.7 20.5,-89.23 26.21,-80.3 19.39,-78.7"/>
<text text-anchor="middle" x="67" y="-52" font-family="Helvetica,sans-Serif" font-size="10.00"> szPname</text>
</g>
<!-- Node3 -->
<g id="node3" class="node">
<title>Node3</title>
<g id="a_node3"><a xlink:href="../../d2/d5f/classunsigned_01int.html" target="_top" xlink:title=" ">
<polygon fill="none" stroke="black" points="56.5,-89.5 56.5,-108.5 133.5,-108.5 133.5,-89.5 56.5,-89.5"/>
<text text-anchor="middle" x="95" y="-96.5" font-family="Helvetica,sans-Serif" font-size="10.00">unsigned int</text>
</a>
</g>
</g>
<!-- Node3&#45;&gt;Node1 -->
<g id="edge2" class="edge">
<title>Node3&#45;&gt;Node1</title>
<path fill="none" stroke="#9a32cd" stroke-dasharray="5,2" d="M95,-79.19C95,-60.74 95,-33.41 95,-19.62"/>
<polygon fill="#9a32cd" stroke="#9a32cd" points="91.5,-79.34 95,-89.34 98.5,-79.34 91.5,-79.34"/>
<text text-anchor="middle" x="133" y="-52" font-family="Helvetica,sans-Serif" font-size="10.00"> vDriverVersion</text>
</g>
<!-- Node4 -->
<g id="node4" class="node">
<title>Node4</title>
<g id="a_node4"><a xlink:title=" ">
<polygon fill="none" stroke="#bfbfbf" points="163.5,-89.5 163.5,-108.5 224.5,-108.5 224.5,-89.5 163.5,-89.5"/>
<text text-anchor="middle" x="194" y="-96.5" font-family="Helvetica,sans-Serif" font-size="10.00">unsigned</text>
</a>
</g>
</g>
<!-- Node4&#45;&gt;Node1 -->
<g id="edge3" class="edge">
<title>Node4&#45;&gt;Node1</title>
<path fill="none" stroke="#9a32cd" stroke-dasharray="5,2" d="M191.48,-79.53C188.78,-66.36 183.23,-49.08 172,-38 163.32,-29.45 151.79,-23.59 140.29,-19.59"/>
<polygon fill="#9a32cd" stroke="#9a32cd" points="188.03,-80.14 193.15,-89.41 194.94,-78.97 188.03,-80.14"/>
<text text-anchor="middle" x="215" y="-63" font-family="Helvetica,sans-Serif" font-size="10.00"> wMid</text>
<text text-anchor="middle" x="215" y="-52" font-family="Helvetica,sans-Serif" font-size="10.00">wPid</text>
<text text-anchor="middle" x="215" y="-41" font-family="Helvetica,sans-Serif" font-size="10.00">dwSupport</text>
</g>
</g>
</svg>
