<?xml version="1.0" encoding="UTF-8" standalone="no"?>
<!DOCTYPE svg PUBLIC "-//W3C//DTD SVG 1.1//EN"
 "http://www.w3.org/Graphics/SVG/1.1/DTD/svg11.dtd">
<!-- Generated by graphviz version 2.43.0 (0)
 -->
<!-- Title: clientPersistant_t Pages: 1 -->
<svg width="686pt" height="274pt"
 viewBox="0.00 0.00 686.00 274.00" xmlns="http://www.w3.org/2000/svg" xmlns:xlink="http://www.w3.org/1999/xlink">
<g id="graph0" class="graph" transform="scale(1 1) rotate(0) translate(4 270)">
<title>clientPersistant_t</title>
<!-- Node1 -->
<g id="node1" class="node">
<title>Node1</title>
<g id="a_node1"><a xlink:title=" ">
<polygon fill="#bfbfbf" stroke="black" points="376.5,-0.5 376.5,-19.5 477.5,-19.5 477.5,-0.5 376.5,-0.5"/>
<text text-anchor="middle" x="427" y="-7.5" font-family="Helvetica,sans-Serif" font-size="10.00">clientPersistant_t</text>
</a>
</g>
</g>
<!-- Node2 -->
<g id="node2" class="node">
<title>Node2</title>
<g id="a_node2"><a xlink:title=" ">
<polygon fill="none" stroke="#bfbfbf" points="105,-107 105,-126 209,-126 209,-107 105,-107"/>
<text text-anchor="middle" x="157" y="-114" font-family="Helvetica,sans-Serif" font-size="10.00">clientConnected_t</text>
</a>
</g>
</g>
<!-- Node2&#45;&gt;Node1 -->
<g id="edge1" class="edge">
<title>Node2&#45;&gt;Node1</title>
<path fill="none" stroke="#9a32cd" stroke-dasharray="5,2" d="M166.91,-98.19C178.38,-79.92 199.05,-51.9 225,-38 250.42,-24.38 325.36,-17.16 376.46,-13.71"/>
<polygon fill="#9a32cd" stroke="#9a32cd" points="163.8,-96.58 161.65,-106.95 169.8,-100.18 163.8,-96.58"/>
<text text-anchor="middle" x="252" y="-57.5" font-family="Helvetica,sans-Serif" font-size="10.00"> connected</text>
</g>
<!-- Node3 -->
<g id="node3" class="node">
<title>Node3</title>
<g id="a_node3"><a xlink:href="../../d3/de5/structplayerTeamState__t.html" target="_top" xlink:title=" ">
<polygon fill="none" stroke="black" points="227,-107 227,-126 335,-126 335,-107 227,-107"/>
<text text-anchor="middle" x="281" y="-114" font-family="Helvetica,sans-Serif" font-size="10.00">playerTeamState_t</text>
</a>
</g>
</g>
<!-- Node3&#45;&gt;Node1 -->
<g id="edge2" class="edge">
<title>Node3&#45;&gt;Node1</title>
<path fill="none" stroke="#9a32cd" stroke-dasharray="5,2" d="M280.86,-96.62C281.8,-78.97 286.08,-53.12 302,-38 312.79,-27.76 346.53,-20.84 376.24,-16.57"/>
<polygon fill="#9a32cd" stroke="#9a32cd" points="277.36,-96.77 280.64,-106.85 284.36,-96.92 277.36,-96.77"/>
<text text-anchor="middle" x="329.5" y="-57.5" font-family="Helvetica,sans-Serif" font-size="10.00"> teamState</text>
</g>
<!-- Node4 -->
<g id="node4" class="node">
<title>Node4</title>
<g id="a_node4"><a xlink:title=" ">
<polygon fill="none" stroke="#bfbfbf" points="0,-246.5 0,-265.5 134,-265.5 134,-246.5 0,-246.5"/>
<text text-anchor="middle" x="67" y="-253.5" font-family="Helvetica,sans-Serif" font-size="10.00">playerTeamStateState_t</text>
</a>
</g>
</g>
<!-- Node4&#45;&gt;Node3 -->
<g id="edge3" class="edge">
<title>Node4&#45;&gt;Node3</title>
<path fill="none" stroke="#9a32cd" stroke-dasharray="5,2" d="M73.2,-236.83C82.25,-213.17 101.41,-172.34 132,-151 164.02,-128.65 179.92,-141.67 218,-133 227.56,-130.83 237.89,-128.34 247.38,-126"/>
<polygon fill="#9a32cd" stroke="#9a32cd" points="69.86,-235.76 69.75,-246.36 76.45,-238.15 69.86,-235.76"/>
<text text-anchor="middle" x="146" y="-187" font-family="Helvetica,sans-Serif" font-size="10.00"> state</text>
</g>
<!-- Node5 -->
<g id="node5" class="node">
<title>Node5</title>
<g id="a_node5"><a xlink:href="../../d4/dc3/classfloat.html" target="_top" xlink:title=" ">
<polygon fill="none" stroke="black" points="152,-246.5 152,-265.5 190,-265.5 190,-246.5 152,-246.5"/>
<text text-anchor="middle" x="171" y="-253.5" font-family="Helvetica,sans-Serif" font-size="10.00">float</text>
</a>
</g>
</g>
<!-- Node5&#45;&gt;Node3 -->
<g id="edge4" class="edge">
<title>Node5&#45;&gt;Node3</title>
<path fill="none" stroke="#9a32cd" stroke-dasharray="5,2" d="M166.75,-236.31C162.74,-213.63 159.88,-175.38 179,-151 183.51,-145.24 220.86,-133.95 249.06,-126.07"/>
<polygon fill="#9a32cd" stroke="#9a32cd" points="163.36,-237.23 168.77,-246.34 170.22,-235.84 163.36,-237.23"/>
<text text-anchor="middle" x="224.5" y="-203.5" font-family="Helvetica,sans-Serif" font-size="10.00"> lastfraggedcarrier</text>
<text text-anchor="middle" x="224.5" y="-192.5" font-family="Helvetica,sans-Serif" font-size="10.00">flagsince</text>
<text text-anchor="middle" x="224.5" y="-181.5" font-family="Helvetica,sans-Serif" font-size="10.00">lasthurtcarrier</text>
<text text-anchor="middle" x="224.5" y="-170.5" font-family="Helvetica,sans-Serif" font-size="10.00">lastreturnedflag</text>
</g>
<!-- Node6 -->
<g id="node6" class="node">
<title>Node6</title>
<g id="a_node6"><a xlink:title=" ">
<polygon fill="none" stroke="#bfbfbf" points="313.5,-246.5 313.5,-265.5 342.5,-265.5 342.5,-246.5 313.5,-246.5"/>
<text text-anchor="middle" x="328" y="-253.5" font-family="Helvetica,sans-Serif" font-size="10.00">int</text>
</a>
</g>
</g>
<!-- Node6&#45;&gt;Node1 -->
<g id="edge8" class="edge">
<title>Node6&#45;&gt;Node1</title>
<path fill="none" stroke="#9a32cd" stroke-dasharray="5,2" d="M348.12,-239.55C351.54,-236.09 354.71,-232.19 357,-228 384.68,-177.26 361.17,-154.65 380,-100 390.7,-68.94 411.03,-35.5 421.08,-19.93"/>
<polygon fill="#9a32cd" stroke="#9a32cd" points="345.62,-237.09 340.51,-246.37 350.29,-242.31 345.62,-237.09"/>
<text text-anchor="middle" x="418" y="-125" font-family="Helvetica,sans-Serif" font-size="10.00"> voteCount</text>
<text text-anchor="middle" x="418" y="-114" font-family="Helvetica,sans-Serif" font-size="10.00">teamVoteCount</text>
<text text-anchor="middle" x="418" y="-103" font-family="Helvetica,sans-Serif" font-size="10.00">enterTime</text>
</g>
<!-- Node6&#45;&gt;Node3 -->
<g id="edge5" class="edge">
<title>Node6&#45;&gt;Node3</title>
<path fill="none" stroke="#9a32cd" stroke-dasharray="5,2" d="M303.91,-244.85C296.93,-240.68 290.1,-235.13 286,-228 266.84,-194.71 274.56,-145.99 278.86,-126.27"/>
<polygon fill="#9a32cd" stroke="#9a32cd" points="302.77,-248.2 313.26,-249.69 305.99,-241.98 302.77,-248.2"/>
<text text-anchor="middle" x="321.5" y="-220" font-family="Helvetica,sans-Serif" font-size="10.00"> assists</text>
<text text-anchor="middle" x="321.5" y="-209" font-family="Helvetica,sans-Serif" font-size="10.00">fragcarrier</text>
<text text-anchor="middle" x="321.5" y="-198" font-family="Helvetica,sans-Serif" font-size="10.00">flagrecovery</text>
<text text-anchor="middle" x="321.5" y="-187" font-family="Helvetica,sans-Serif" font-size="10.00">carrierdefense</text>
<text text-anchor="middle" x="321.5" y="-176" font-family="Helvetica,sans-Serif" font-size="10.00">location</text>
<text text-anchor="middle" x="321.5" y="-165" font-family="Helvetica,sans-Serif" font-size="10.00">basedefense</text>
<text text-anchor="middle" x="321.5" y="-154" font-family="Helvetica,sans-Serif" font-size="10.00">captures</text>
</g>
<!-- Node7 -->
<g id="node7" class="node">
<title>Node7</title>
<g id="a_node7"><a xlink:title=" ">
<polygon fill="none" stroke="#bfbfbf" points="465,-107 465,-126 503,-126 503,-107 465,-107"/>
<text text-anchor="middle" x="484" y="-114" font-family="Helvetica,sans-Serif" font-size="10.00">char</text>
</a>
</g>
</g>
<!-- Node7&#45;&gt;Node1 -->
<g id="edge6" class="edge">
<title>Node7&#45;&gt;Node1</title>
<path fill="none" stroke="#9a32cd" stroke-dasharray="5,2" d="M474.5,-98.08C462.16,-75.45 441.09,-36.84 431.73,-19.67"/>
<polygon fill="#9a32cd" stroke="#9a32cd" points="471.47,-99.85 479.34,-106.95 477.62,-96.49 471.47,-99.85"/>
<text text-anchor="middle" x="488.5" y="-57.5" font-family="Helvetica,sans-Serif" font-size="10.00"> netname</text>
</g>
<!-- Node8 -->
<g id="node8" class="node">
<title>Node8</title>
<g id="a_node8"><a xlink:title=" ">
<polygon fill="none" stroke="#bfbfbf" points="521,-107 521,-126 589,-126 589,-107 521,-107"/>
<text text-anchor="middle" x="555" y="-114" font-family="Helvetica,sans-Serif" font-size="10.00">usercmd_t</text>
</a>
</g>
</g>
<!-- Node8&#45;&gt;Node1 -->
<g id="edge7" class="edge">
<title>Node8&#45;&gt;Node1</title>
<path fill="none" stroke="#9a32cd" stroke-dasharray="5,2" d="M550.34,-97.19C544.93,-79.58 534.32,-53.42 516,-38 505.13,-28.85 491.21,-22.8 477.63,-18.8"/>
<polygon fill="#9a32cd" stroke="#9a32cd" points="546.98,-98.2 553.06,-106.88 553.72,-96.31 546.98,-98.2"/>
<text text-anchor="middle" x="556.5" y="-57.5" font-family="Helvetica,sans-Serif" font-size="10.00"> cmd</text>
</g>
<!-- Node9 -->
<g id="node9" class="node">
<title>Node9</title>
<g id="a_node9"><a xlink:title=" ">
<polygon fill="none" stroke="#bfbfbf" points="607,-107 607,-126 669,-126 669,-107 607,-107"/>
<text text-anchor="middle" x="638" y="-114" font-family="Helvetica,sans-Serif" font-size="10.00">qboolean</text>
</a>
</g>
</g>
<!-- Node9&#45;&gt;Node1 -->
<g id="edge9" class="edge">
<title>Node9&#45;&gt;Node1</title>
<path fill="none" stroke="#9a32cd" stroke-dasharray="5,2" d="M628.09,-97.62C617.08,-79.56 597.58,-52.33 573,-38 544.16,-21.19 507.14,-14.47 477.59,-11.95"/>
<polygon fill="#9a32cd" stroke="#9a32cd" points="625.24,-99.7 633.31,-106.57 631.29,-96.17 625.24,-99.7"/>
<text text-anchor="middle" x="647.5" y="-74" font-family="Helvetica,sans-Serif" font-size="10.00"> teamInfo</text>
<text text-anchor="middle" x="647.5" y="-63" font-family="Helvetica,sans-Serif" font-size="10.00">localClient</text>
<text text-anchor="middle" x="647.5" y="-52" font-family="Helvetica,sans-Serif" font-size="10.00">initialSpawn</text>
<text text-anchor="middle" x="647.5" y="-41" font-family="Helvetica,sans-Serif" font-size="10.00">pmoveFixed</text>
</g>
</g>
</svg>
