<?xml version="1.0" encoding="UTF-8" standalone="no"?>
<!DOCTYPE svg PUBLIC "-//W3C//DTD SVG 1.1//EN"
 "http://www.w3.org/Graphics/SVG/1.1/DTD/svg11.dtd">
<!-- Generated by graphviz version 2.43.0 (0)
 -->
<!-- Title: tagNEWCPLINFOW Pages: 1 -->
<svg width="326pt" height="117pt"
 viewBox="0.00 0.00 325.50 117.00" xmlns="http://www.w3.org/2000/svg" xmlns:xlink="http://www.w3.org/1999/xlink">
<g id="graph0" class="graph" transform="scale(1 1) rotate(0) translate(4 113)">
<title>tagNEWCPLINFOW</title>
<!-- Node1 -->
<g id="node1" class="node">
<title>Node1</title>
<g id="a_node1"><a xlink:title=" ">
<polygon fill="#bfbfbf" stroke="black" points="104,-0.5 104,-19.5 211,-19.5 211,-0.5 104,-0.5"/>
<text text-anchor="middle" x="157.5" y="-7.5" font-family="Helvetica,sans-Serif" font-size="10.00">tagNEWCPLINFOW</text>
</a>
</g>
</g>
<!-- Node2 -->
<g id="node2" class="node">
<title>Node2</title>
<g id="a_node2"><a xlink:title=" ">
<polygon fill="none" stroke="#bfbfbf" points="0,-89.5 0,-108.5 89,-108.5 89,-89.5 0,-89.5"/>
<text text-anchor="middle" x="44.5" y="-96.5" font-family="Helvetica,sans-Serif" font-size="10.00">unsigned short</text>
</a>
</g>
</g>
<!-- Node2&#45;&gt;Node1 -->
<g id="edge1" class="edge">
<title>Node2&#45;&gt;Node1</title>
<path fill="none" stroke="#9a32cd" stroke-dasharray="5,2" d="M47.88,-79.36C51.22,-66.1 57.62,-48.78 69.5,-38 79.09,-29.3 91.42,-23.41 103.79,-19.41"/>
<polygon fill="#9a32cd" stroke="#9a32cd" points="44.42,-78.81 45.75,-89.32 51.27,-80.28 44.42,-78.81"/>
<text text-anchor="middle" x="96.5" y="-63" font-family="Helvetica,sans-Serif" font-size="10.00"> szHelpFile</text>
<text text-anchor="middle" x="96.5" y="-52" font-family="Helvetica,sans-Serif" font-size="10.00">szName</text>
<text text-anchor="middle" x="96.5" y="-41" font-family="Helvetica,sans-Serif" font-size="10.00">szInfo</text>
</g>
<!-- Node3 -->
<g id="node3" class="node">
<title>Node3</title>
<g id="a_node3"><a xlink:title=" ">
<polygon fill="none" stroke="#bfbfbf" points="107.5,-89.5 107.5,-108.5 145.5,-108.5 145.5,-89.5 107.5,-89.5"/>
<text text-anchor="middle" x="126.5" y="-96.5" font-family="Helvetica,sans-Serif" font-size="10.00">long</text>
</a>
</g>
</g>
<!-- Node3&#45;&gt;Node1 -->
<g id="edge2" class="edge">
<title>Node3&#45;&gt;Node1</title>
<path fill="none" stroke="#9a32cd" stroke-dasharray="5,2" d="M127.26,-79.18C128.31,-67 130.78,-51.05 136.5,-38 139.46,-31.26 144.48,-24.71 148.87,-19.75"/>
<polygon fill="#9a32cd" stroke="#9a32cd" points="123.74,-79.28 126.62,-89.48 130.73,-79.71 123.74,-79.28"/>
<text text-anchor="middle" x="151.5" y="-52" font-family="Helvetica,sans-Serif" font-size="10.00"> lData</text>
</g>
<!-- Node4 -->
<g id="node4" class="node">
<title>Node4</title>
<g id="a_node4"><a xlink:title=" ">
<polygon fill="none" stroke="#bfbfbf" points="164,-89.5 164,-108.5 213,-108.5 213,-89.5 164,-89.5"/>
<text text-anchor="middle" x="188.5" y="-96.5" font-family="Helvetica,sans-Serif" font-size="10.00">HICON</text>
</a>
</g>
</g>
<!-- Node4&#45;&gt;Node1 -->
<g id="edge3" class="edge">
<title>Node4&#45;&gt;Node1</title>
<path fill="none" stroke="#9a32cd" stroke-dasharray="5,2" d="M181.98,-79.71C175.41,-61.25 165.53,-33.54 160.57,-19.62"/>
<polygon fill="#9a32cd" stroke="#9a32cd" points="178.76,-81.09 185.41,-89.34 185.35,-78.75 178.76,-81.09"/>
<text text-anchor="middle" x="192.5" y="-52" font-family="Helvetica,sans-Serif" font-size="10.00"> hIcon</text>
</g>
<!-- Node5 -->
<g id="node5" class="node">
<title>Node5</title>
<g id="a_node5"><a xlink:title=" ">
<polygon fill="none" stroke="#bfbfbf" points="231,-89.5 231,-108.5 292,-108.5 292,-89.5 231,-89.5"/>
<text text-anchor="middle" x="261.5" y="-96.5" font-family="Helvetica,sans-Serif" font-size="10.00">unsigned</text>
</a>
</g>
</g>
<!-- Node5&#45;&gt;Node1 -->
<g id="edge4" class="edge">
<title>Node5&#45;&gt;Node1</title>
<path fill="none" stroke="#9a32cd" stroke-dasharray="5,2" d="M250.11,-80.78C240.88,-67.8 226.9,-50.19 211.5,-38 201.89,-30.39 189.78,-24.09 179.47,-19.5"/>
<polygon fill="#9a32cd" stroke="#9a32cd" points="247.41,-83.02 255.96,-89.28 253.18,-79.06 247.41,-83.02"/>
<text text-anchor="middle" x="279.5" y="-63" font-family="Helvetica,sans-Serif" font-size="10.00"> dwSize</text>
<text text-anchor="middle" x="279.5" y="-52" font-family="Helvetica,sans-Serif" font-size="10.00">dwFlags</text>
<text text-anchor="middle" x="279.5" y="-41" font-family="Helvetica,sans-Serif" font-size="10.00">dwHelpContext</text>
</g>
</g>
</svg>
