<?xml version="1.0" encoding="UTF-8" standalone="no"?>
<!DOCTYPE svg PUBLIC "-//W3C//DTD SVG 1.1//EN"
 "http://www.w3.org/Graphics/SVG/1.1/DTD/svg11.dtd">
<!-- Generated by graphviz version 2.43.0 (0)
 -->
<!-- Title: Engine/tools/asm/cmdlib.c Pages: 1 -->
<svg width="692pt" height="196pt"
 viewBox="0.00 0.00 691.50 196.00" xmlns="http://www.w3.org/2000/svg" xmlns:xlink="http://www.w3.org/1999/xlink">
<g id="graph0" class="graph" transform="scale(1 1) rotate(0) translate(4 192)">
<title>Engine/tools/asm/cmdlib.c</title>
<!-- Node1 -->
<g id="node1" class="node">
<title>Node1</title>
<g id="a_node1"><a xlink:title=" ">
<polygon fill="#bfbfbf" stroke="black" points="497,-168.5 497,-187.5 642,-187.5 642,-168.5 497,-168.5"/>
<text text-anchor="middle" x="569.5" y="-175.5" font-family="Helvetica,sans-Serif" font-size="10.00">Engine/tools/asm/cmdlib.c</text>
</a>
</g>
</g>
<!-- Node2 -->
<g id="node2" class="node">
<title>Node2</title>
<g id="a_node2"><a xlink:href="../../d2/dd0/Engine_2tools_2asm_2cmdlib_8h.html" target="_top" xlink:title=" ">
<polygon fill="none" stroke="black" points="242,-112.5 242,-131.5 301,-131.5 301,-112.5 242,-112.5"/>
<text text-anchor="middle" x="271.5" y="-119.5" font-family="Helvetica,sans-Serif" font-size="10.00">cmdlib.h</text>
</a>
</g>
</g>
<!-- Node1&#45;&gt;Node2 -->
<g id="edge1" class="edge">
<title>Node1&#45;&gt;Node2</title>
<path fill="none" stroke="midnightblue" d="M522.28,-168.44C464,-157.88 365.93,-140.11 311.29,-130.21"/>
<polygon fill="midnightblue" stroke="midnightblue" points="311.76,-126.74 301.29,-128.4 310.51,-133.63 311.76,-126.74"/>
</g>
<!-- Node11 -->
<g id="node11" class="node">
<title>Node11</title>
<g id="a_node11"><a xlink:href="../../dc/d8f/Tools_2MinGW_2include_2sys_2types_8h.html" target="_top" xlink:title=" ">
<polygon fill="none" stroke="black" points="567.5,-56.5 567.5,-75.5 639.5,-75.5 639.5,-56.5 567.5,-56.5"/>
<text text-anchor="middle" x="603.5" y="-63.5" font-family="Helvetica,sans-Serif" font-size="10.00">sys/types.h</text>
</a>
</g>
</g>
<!-- Node1&#45;&gt;Node11 -->
<g id="edge10" class="edge">
<title>Node1&#45;&gt;Node11</title>
<path fill="none" stroke="midnightblue" d="M572.17,-168.37C577.68,-150.54 590.43,-109.3 597.85,-85.27"/>
<polygon fill="midnightblue" stroke="midnightblue" points="601.24,-86.18 600.84,-75.59 594.55,-84.11 601.24,-86.18"/>
</g>
<!-- Node13 -->
<g id="node13" class="node">
<title>Node13</title>
<g id="a_node13"><a xlink:href="../../d2/d1b/stat_8h.html" target="_top" xlink:title=" ">
<polygon fill="none" stroke="black" points="507.5,-112.5 507.5,-131.5 571.5,-131.5 571.5,-112.5 507.5,-112.5"/>
<text text-anchor="middle" x="539.5" y="-119.5" font-family="Helvetica,sans-Serif" font-size="10.00">sys/stat.h</text>
</a>
</g>
</g>
<!-- Node1&#45;&gt;Node13 -->
<g id="edge13" class="edge">
<title>Node1&#45;&gt;Node13</title>
<path fill="none" stroke="midnightblue" d="M564.55,-168.08C560.4,-160.61 554.35,-149.72 549.23,-140.52"/>
<polygon fill="midnightblue" stroke="midnightblue" points="552.28,-138.79 544.36,-131.75 546.16,-142.19 552.28,-138.79"/>
</g>
<!-- Node14 -->
<g id="node14" class="node">
<title>Node14</title>
<g id="a_node14"><a xlink:title=" ">
<polygon fill="none" stroke="#bfbfbf" points="627.5,-112.5 627.5,-131.5 683.5,-131.5 683.5,-112.5 627.5,-112.5"/>
<text text-anchor="middle" x="655.5" y="-119.5" font-family="Helvetica,sans-Serif" font-size="10.00">unistd.h</text>
</a>
</g>
</g>
<!-- Node1&#45;&gt;Node14 -->
<g id="edge17" class="edge">
<title>Node1&#45;&gt;Node14</title>
<path fill="none" stroke="midnightblue" d="M583.32,-168.32C596.73,-159.9 617.32,-146.97 633.09,-137.07"/>
<polygon fill="midnightblue" stroke="midnightblue" points="635.11,-139.94 641.72,-131.65 631.39,-134.01 635.11,-139.94"/>
</g>
<!-- Node3 -->
<g id="node3" class="node">
<title>Node3</title>
<g id="a_node3"><a xlink:title=" ">
<polygon fill="none" stroke="#bfbfbf" points="211.5,-56.5 211.5,-75.5 261.5,-75.5 261.5,-56.5 211.5,-56.5"/>
<text text-anchor="middle" x="236.5" y="-63.5" font-family="Helvetica,sans-Serif" font-size="10.00">stdio.h</text>
</a>
</g>
</g>
<!-- Node2&#45;&gt;Node3 -->
<g id="edge2" class="edge">
<title>Node2&#45;&gt;Node3</title>
<path fill="none" stroke="midnightblue" d="M265.72,-112.08C260.83,-104.53 253.67,-93.49 247.67,-84.23"/>
<polygon fill="midnightblue" stroke="midnightblue" points="250.55,-82.24 242.17,-75.75 244.67,-86.05 250.55,-82.24"/>
</g>
<!-- Node4 -->
<g id="node4" class="node">
<title>Node4</title>
<g id="a_node4"><a xlink:title=" ">
<polygon fill="none" stroke="#bfbfbf" points="280,-56.5 280,-75.5 333,-75.5 333,-56.5 280,-56.5"/>
<text text-anchor="middle" x="306.5" y="-63.5" font-family="Helvetica,sans-Serif" font-size="10.00">string.h</text>
</a>
</g>
</g>
<!-- Node2&#45;&gt;Node4 -->
<g id="edge3" class="edge">
<title>Node2&#45;&gt;Node4</title>
<path fill="none" stroke="midnightblue" d="M277.28,-112.08C282.17,-104.53 289.33,-93.49 295.33,-84.23"/>
<polygon fill="midnightblue" stroke="midnightblue" points="298.33,-86.05 300.83,-75.75 292.45,-82.24 298.33,-86.05"/>
</g>
<!-- Node5 -->
<g id="node5" class="node">
<title>Node5</title>
<g id="a_node5"><a xlink:title=" ">
<polygon fill="none" stroke="#bfbfbf" points="351,-56.5 351,-75.5 404,-75.5 404,-56.5 351,-56.5"/>
<text text-anchor="middle" x="377.5" y="-63.5" font-family="Helvetica,sans-Serif" font-size="10.00">stdlib.h</text>
</a>
</g>
</g>
<!-- Node2&#45;&gt;Node5 -->
<g id="edge4" class="edge">
<title>Node2&#45;&gt;Node5</title>
<path fill="none" stroke="midnightblue" d="M288.53,-112.32C305.53,-103.66 331.88,-90.24 351.49,-80.25"/>
<polygon fill="midnightblue" stroke="midnightblue" points="353.19,-83.31 360.51,-75.65 350.01,-77.08 353.19,-83.31"/>
</g>
<!-- Node6 -->
<g id="node6" class="node">
<title>Node6</title>
<g id="a_node6"><a xlink:href="../../d8/dc2/errno_8h.html" target="_top" xlink:title=" ">
<polygon fill="none" stroke="black" points="422,-56.5 422,-75.5 473,-75.5 473,-56.5 422,-56.5"/>
<text text-anchor="middle" x="447.5" y="-63.5" font-family="Helvetica,sans-Serif" font-size="10.00">errno.h</text>
</a>
</g>
</g>
<!-- Node2&#45;&gt;Node6 -->
<g id="edge5" class="edge">
<title>Node2&#45;&gt;Node6</title>
<path fill="none" stroke="midnightblue" d="M299.39,-112.44C329.87,-103.09 378.78,-88.08 411.98,-77.9"/>
<polygon fill="midnightblue" stroke="midnightblue" points="413.21,-81.18 421.75,-74.9 411.16,-74.49 413.21,-81.18"/>
</g>
<!-- Node8 -->
<g id="node8" class="node">
<title>Node8</title>
<g id="a_node8"><a xlink:title=" ">
<polygon fill="none" stroke="#bfbfbf" points="0,-56.5 0,-75.5 53,-75.5 53,-56.5 0,-56.5"/>
<text text-anchor="middle" x="26.5" y="-63.5" font-family="Helvetica,sans-Serif" font-size="10.00">ctype.h</text>
</a>
</g>
</g>
<!-- Node2&#45;&gt;Node8 -->
<g id="edge7" class="edge">
<title>Node2&#45;&gt;Node8</title>
<path fill="none" stroke="midnightblue" d="M241.67,-114.9C202.88,-106.9 132.79,-92.2 63.05,-76.07"/>
<polygon fill="midnightblue" stroke="midnightblue" points="63.75,-72.64 53.21,-73.78 62.16,-79.45 63.75,-72.64"/>
</g>
<!-- Node9 -->
<g id="node9" class="node">
<title>Node9</title>
<g id="a_node9"><a xlink:title=" ">
<polygon fill="none" stroke="#bfbfbf" points="71.5,-56.5 71.5,-75.5 119.5,-75.5 119.5,-56.5 71.5,-56.5"/>
<text text-anchor="middle" x="95.5" y="-63.5" font-family="Helvetica,sans-Serif" font-size="10.00">time.h</text>
</a>
</g>
</g>
<!-- Node2&#45;&gt;Node9 -->
<g id="edge8" class="edge">
<title>Node2&#45;&gt;Node9</title>
<path fill="none" stroke="midnightblue" d="M243.61,-112.44C212.6,-102.93 162.52,-87.56 129.31,-77.37"/>
<polygon fill="midnightblue" stroke="midnightblue" points="130.17,-73.98 119.58,-74.39 128.11,-80.67 130.17,-73.98"/>
</g>
<!-- Node10 -->
<g id="node10" class="node">
<title>Node10</title>
<g id="a_node10"><a xlink:title=" ">
<polygon fill="none" stroke="#bfbfbf" points="137.5,-56.5 137.5,-75.5 193.5,-75.5 193.5,-56.5 137.5,-56.5"/>
<text text-anchor="middle" x="165.5" y="-63.5" font-family="Helvetica,sans-Serif" font-size="10.00">stdarg.h</text>
</a>
</g>
</g>
<!-- Node2&#45;&gt;Node10 -->
<g id="edge9" class="edge">
<title>Node2&#45;&gt;Node10</title>
<path fill="none" stroke="midnightblue" d="M254.47,-112.32C237.47,-103.66 211.12,-90.24 191.51,-80.25"/>
<polygon fill="midnightblue" stroke="midnightblue" points="192.99,-77.08 182.49,-75.65 189.81,-83.31 192.99,-77.08"/>
</g>
<!-- Node7 -->
<g id="node7" class="node">
<title>Node7</title>
<g id="a_node7"><a xlink:href="../../da/d3d/__mingw_8h.html" target="_top" xlink:title=" ">
<polygon fill="none" stroke="black" points="470,-0.5 470,-19.5 533,-19.5 533,-0.5 470,-0.5"/>
<text text-anchor="middle" x="501.5" y="-7.5" font-family="Helvetica,sans-Serif" font-size="10.00">_mingw.h</text>
</a>
</g>
</g>
<!-- Node6&#45;&gt;Node7 -->
<g id="edge6" class="edge">
<title>Node6&#45;&gt;Node7</title>
<path fill="none" stroke="midnightblue" d="M456.42,-56.08C464.28,-48.22 475.93,-36.57 485.42,-27.08"/>
<polygon fill="midnightblue" stroke="midnightblue" points="488.15,-29.3 492.75,-19.75 483.2,-24.35 488.15,-29.3"/>
</g>
<!-- Node11&#45;&gt;Node7 -->
<g id="edge11" class="edge">
<title>Node11&#45;&gt;Node7</title>
<path fill="none" stroke="midnightblue" d="M587.11,-56.32C570.83,-47.7 545.63,-34.36 526.78,-24.39"/>
<polygon fill="midnightblue" stroke="midnightblue" points="528.32,-21.24 517.85,-19.65 525.05,-27.43 528.32,-21.24"/>
</g>
<!-- Node12 -->
<g id="node12" class="node">
<title>Node12</title>
<g id="a_node12"><a xlink:href="../../d3/dce/stddef_8h.html" target="_top" xlink:title=" ">
<polygon fill="none" stroke="black" points="563.5,-0.5 563.5,-19.5 619.5,-19.5 619.5,-0.5 563.5,-0.5"/>
<text text-anchor="middle" x="591.5" y="-7.5" font-family="Helvetica,sans-Serif" font-size="10.00">stddef.h</text>
</a>
</g>
</g>
<!-- Node11&#45;&gt;Node12 -->
<g id="edge12" class="edge">
<title>Node11&#45;&gt;Node12</title>
<path fill="none" stroke="midnightblue" d="M601.52,-56.08C599.93,-48.93 597.64,-38.64 595.65,-29.69"/>
<polygon fill="midnightblue" stroke="midnightblue" points="599.03,-28.75 593.44,-19.75 592.2,-30.27 599.03,-28.75"/>
</g>
<!-- Node13&#45;&gt;Node7 -->
<g id="edge14" class="edge">
<title>Node13&#45;&gt;Node7</title>
<path fill="none" stroke="midnightblue" d="M536.52,-112.37C530.36,-94.54 516.11,-53.3 507.81,-29.27"/>
<polygon fill="midnightblue" stroke="midnightblue" points="511.04,-27.9 504.47,-19.59 504.43,-30.19 511.04,-27.9"/>
</g>
<!-- Node13&#45;&gt;Node11 -->
<g id="edge16" class="edge">
<title>Node13&#45;&gt;Node11</title>
<path fill="none" stroke="midnightblue" d="M549.78,-112.32C559.34,-104.26 573.78,-92.08 585.28,-82.37"/>
<polygon fill="midnightblue" stroke="midnightblue" points="587.64,-84.96 593.03,-75.83 583.13,-79.61 587.64,-84.96"/>
</g>
<!-- Node13&#45;&gt;Node12 -->
<g id="edge15" class="edge">
<title>Node13&#45;&gt;Node12</title>
<path fill="none" stroke="midnightblue" d="M541.05,-112.23C543.54,-99.4 549.13,-74.98 558.5,-56 563.48,-45.92 570.72,-35.73 577.16,-27.61"/>
<polygon fill="midnightblue" stroke="midnightblue" points="580.01,-29.64 583.67,-19.7 574.61,-25.19 580.01,-29.64"/>
</g>
</g>
</svg>
