<?xml version="1.0" encoding="UTF-8" standalone="no"?>
<!DOCTYPE svg PUBLIC "-//W3C//DTD SVG 1.1//EN"
 "http://www.w3.org/Graphics/SVG/1.1/DTD/svg11.dtd">
<!-- Generated by graphviz version 2.43.0 (0)
 -->
<!-- Title: Engine/tools/lcc/src/output.c Pages: 1 -->
<svg width="567pt" height="207pt"
 viewBox="0.00 0.00 567.00 207.00" xmlns="http://www.w3.org/2000/svg" xmlns:xlink="http://www.w3.org/1999/xlink">
<g id="graph0" class="graph" transform="scale(1 1) rotate(0) translate(4 203)">
<title>Engine/tools/lcc/src/output.c</title>
<!-- Node1 -->
<g id="node1" class="node">
<title>Node1</title>
<g id="a_node1"><a xlink:title=" ">
<polygon fill="#bfbfbf" stroke="black" points="284.5,-168.5 284.5,-198.5 394.5,-198.5 394.5,-168.5 284.5,-168.5"/>
<text text-anchor="start" x="292.5" y="-186.5" font-family="Helvetica,sans-Serif" font-size="10.00">Engine/tools/lcc/src</text>
<text text-anchor="middle" x="339.5" y="-175.5" font-family="Helvetica,sans-Serif" font-size="10.00">/output.c</text>
</a>
</g>
</g>
<!-- Node2 -->
<g id="node2" class="node">
<title>Node2</title>
<g id="a_node2"><a xlink:href="../../d2/dc5/c_8h.html" target="_top" xlink:title=" ">
<polygon fill="none" stroke="black" points="302,-112.5 302,-131.5 333,-131.5 333,-112.5 302,-112.5"/>
<text text-anchor="middle" x="317.5" y="-119.5" font-family="Helvetica,sans-Serif" font-size="10.00">c.h</text>
</a>
</g>
</g>
<!-- Node1&#45;&gt;Node2 -->
<g id="edge1" class="edge">
<title>Node1&#45;&gt;Node2</title>
<path fill="none" stroke="midnightblue" d="M334.29,-168.4C331.29,-160.29 327.49,-150.01 324.26,-141.28"/>
<polygon fill="midnightblue" stroke="midnightblue" points="327.45,-139.82 320.7,-131.66 320.89,-142.25 327.45,-139.82"/>
</g>
<!-- Node11 -->
<g id="node11" class="node">
<title>Node11</title>
<g id="a_node11"><a xlink:href="../../d1/d07/token_8h.html" target="_top" xlink:title=" ">
<polygon fill="none" stroke="black" points="506,-56.5 506,-75.5 559,-75.5 559,-56.5 506,-56.5"/>
<text text-anchor="middle" x="532.5" y="-63.5" font-family="Helvetica,sans-Serif" font-size="10.00">token.h</text>
</a>
</g>
</g>
<!-- Node1&#45;&gt;Node11 -->
<g id="edge11" class="edge">
<title>Node1&#45;&gt;Node11</title>
<path fill="none" stroke="midnightblue" d="M363.17,-168.34C400.47,-146.01 472.49,-102.91 509.42,-80.81"/>
<polygon fill="midnightblue" stroke="midnightblue" points="511.23,-83.81 518.01,-75.67 507.64,-77.8 511.23,-83.81"/>
</g>
<!-- Node3 -->
<g id="node3" class="node">
<title>Node3</title>
<g id="a_node3"><a xlink:href="../../dc/da7/assert_8h.html" target="_top" xlink:title=" ">
<polygon fill="none" stroke="black" points="3.5,-56.5 3.5,-75.5 59.5,-75.5 59.5,-56.5 3.5,-56.5"/>
<text text-anchor="middle" x="31.5" y="-63.5" font-family="Helvetica,sans-Serif" font-size="10.00">assert.h</text>
</a>
</g>
</g>
<!-- Node2&#45;&gt;Node3 -->
<g id="edge2" class="edge">
<title>Node2&#45;&gt;Node3</title>
<path fill="none" stroke="midnightblue" d="M301.99,-118.53C264.1,-112.42 163.58,-95.8 69.68,-76.15"/>
<polygon fill="midnightblue" stroke="midnightblue" points="70.25,-72.69 59.74,-74.05 68.8,-79.54 70.25,-72.69"/>
</g>
<!-- Node5 -->
<g id="node5" class="node">
<title>Node5</title>
<g id="a_node5"><a xlink:title=" ">
<polygon fill="none" stroke="#bfbfbf" points="77.5,-56.5 77.5,-75.5 133.5,-75.5 133.5,-56.5 77.5,-56.5"/>
<text text-anchor="middle" x="105.5" y="-63.5" font-family="Helvetica,sans-Serif" font-size="10.00">stdarg.h</text>
</a>
</g>
</g>
<!-- Node2&#45;&gt;Node5 -->
<g id="edge4" class="edge">
<title>Node2&#45;&gt;Node5</title>
<path fill="none" stroke="midnightblue" d="M301.91,-117.03C268.77,-108.59 190.5,-88.65 143.38,-76.65"/>
<polygon fill="midnightblue" stroke="midnightblue" points="144.1,-73.22 133.55,-74.14 142.37,-80 144.1,-73.22"/>
</g>
<!-- Node6 -->
<g id="node6" class="node">
<title>Node6</title>
<g id="a_node6"><a xlink:title=" ">
<polygon fill="none" stroke="#bfbfbf" points="151.5,-56.5 151.5,-75.5 201.5,-75.5 201.5,-56.5 151.5,-56.5"/>
<text text-anchor="middle" x="176.5" y="-63.5" font-family="Helvetica,sans-Serif" font-size="10.00">stdio.h</text>
</a>
</g>
</g>
<!-- Node2&#45;&gt;Node6 -->
<g id="edge5" class="edge">
<title>Node2&#45;&gt;Node6</title>
<path fill="none" stroke="midnightblue" d="M301.87,-115.01C279.45,-106.43 237.66,-90.42 208.52,-79.26"/>
<polygon fill="midnightblue" stroke="midnightblue" points="209.76,-75.99 199.17,-75.68 207.26,-82.53 209.76,-75.99"/>
</g>
<!-- Node7 -->
<g id="node7" class="node">
<title>Node7</title>
<g id="a_node7"><a xlink:title=" ">
<polygon fill="none" stroke="#bfbfbf" points="220,-56.5 220,-75.5 273,-75.5 273,-56.5 220,-56.5"/>
<text text-anchor="middle" x="246.5" y="-63.5" font-family="Helvetica,sans-Serif" font-size="10.00">stdlib.h</text>
</a>
</g>
</g>
<!-- Node2&#45;&gt;Node7 -->
<g id="edge6" class="edge">
<title>Node2&#45;&gt;Node7</title>
<path fill="none" stroke="midnightblue" d="M306.09,-112.32C295.39,-104.18 279.16,-91.84 266.34,-82.09"/>
<polygon fill="midnightblue" stroke="midnightblue" points="268.19,-79.1 258.11,-75.83 263.96,-84.67 268.19,-79.1"/>
</g>
<!-- Node8 -->
<g id="node8" class="node">
<title>Node8</title>
<g id="a_node8"><a xlink:title=" ">
<polygon fill="none" stroke="#bfbfbf" points="291,-56.5 291,-75.5 344,-75.5 344,-56.5 291,-56.5"/>
<text text-anchor="middle" x="317.5" y="-63.5" font-family="Helvetica,sans-Serif" font-size="10.00">limits.h</text>
</a>
</g>
</g>
<!-- Node2&#45;&gt;Node8 -->
<g id="edge7" class="edge">
<title>Node2&#45;&gt;Node8</title>
<path fill="none" stroke="midnightblue" d="M317.5,-112.08C317.5,-105.01 317.5,-94.86 317.5,-85.99"/>
<polygon fill="midnightblue" stroke="midnightblue" points="321,-85.75 317.5,-75.75 314,-85.75 321,-85.75"/>
</g>
<!-- Node9 -->
<g id="node9" class="node">
<title>Node9</title>
<g id="a_node9"><a xlink:title=" ">
<polygon fill="none" stroke="#bfbfbf" points="362,-56.5 362,-75.5 415,-75.5 415,-56.5 362,-56.5"/>
<text text-anchor="middle" x="388.5" y="-63.5" font-family="Helvetica,sans-Serif" font-size="10.00">string.h</text>
</a>
</g>
</g>
<!-- Node2&#45;&gt;Node9 -->
<g id="edge8" class="edge">
<title>Node2&#45;&gt;Node9</title>
<path fill="none" stroke="midnightblue" d="M328.91,-112.32C339.61,-104.18 355.84,-91.84 368.66,-82.09"/>
<polygon fill="midnightblue" stroke="midnightblue" points="371.04,-84.67 376.89,-75.83 366.81,-79.1 371.04,-84.67"/>
</g>
<!-- Node10 -->
<g id="node10" class="node">
<title>Node10</title>
<g id="a_node10"><a xlink:href="../../df/d5e/Engine_2tools_2lcc_2src_2config_8h.html" target="_top" xlink:title=" ">
<polygon fill="none" stroke="black" points="433,-56.5 433,-75.5 488,-75.5 488,-56.5 433,-56.5"/>
<text text-anchor="middle" x="460.5" y="-63.5" font-family="Helvetica,sans-Serif" font-size="10.00">config.h</text>
</a>
</g>
</g>
<!-- Node2&#45;&gt;Node10 -->
<g id="edge9" class="edge">
<title>Node2&#45;&gt;Node10</title>
<path fill="none" stroke="midnightblue" d="M333.08,-115.12C355.84,-106.52 398.71,-90.34 428.4,-79.12"/>
<polygon fill="midnightblue" stroke="midnightblue" points="429.79,-82.34 437.91,-75.53 427.32,-75.79 429.79,-82.34"/>
</g>
<!-- Node2&#45;&gt;Node11 -->
<g id="edge10" class="edge">
<title>Node2&#45;&gt;Node11</title>
<path fill="none" stroke="midnightblue" d="M333.4,-117.06C363.32,-109.65 430.25,-93.02 496.06,-76.36"/>
<polygon fill="midnightblue" stroke="midnightblue" points="496.92,-79.75 505.75,-73.9 495.2,-72.96 496.92,-79.75"/>
</g>
<!-- Node4 -->
<g id="node4" class="node">
<title>Node4</title>
<g id="a_node4"><a xlink:href="../../da/d3d/__mingw_8h.html" target="_top" xlink:title=" ">
<polygon fill="none" stroke="black" points="0,-0.5 0,-19.5 63,-19.5 63,-0.5 0,-0.5"/>
<text text-anchor="middle" x="31.5" y="-7.5" font-family="Helvetica,sans-Serif" font-size="10.00">_mingw.h</text>
</a>
</g>
</g>
<!-- Node3&#45;&gt;Node4 -->
<g id="edge3" class="edge">
<title>Node3&#45;&gt;Node4</title>
<path fill="none" stroke="midnightblue" d="M31.5,-56.08C31.5,-49.01 31.5,-38.86 31.5,-29.99"/>
<polygon fill="midnightblue" stroke="midnightblue" points="35,-29.75 31.5,-19.75 28,-29.75 35,-29.75"/>
</g>
</g>
</svg>
