<?xml version="1.0" encoding="UTF-8" standalone="no"?>
<!DOCTYPE svg PUBLIC "-//W3C//DTD SVG 1.1//EN"
 "http://www.w3.org/Graphics/SVG/1.1/DTD/svg11.dtd">
<!-- Generated by graphviz version 2.43.0 (0)
 -->
<!-- Title: Tools/MinGW/include/c++/4.6.1/profile/impl/profiler.h Pages: 1 -->
<svg width="1254pt" height="206pt"
 viewBox="0.00 0.00 1254.00 206.00" xmlns="http://www.w3.org/2000/svg" xmlns:xlink="http://www.w3.org/1999/xlink">
<g id="graph0" class="graph" transform="scale(1 1) rotate(0) translate(4 202)">
<title>Tools/MinGW/include/c++/4.6.1/profile/impl/profiler.h</title>
<!-- Node1 -->
<g id="node1" class="node">
<title>Node1</title>
<g id="a_node1"><a xlink:title="Interface of the profiling runtime library.">
<polygon fill="#bfbfbf" stroke="black" points="535.5,-156.5 535.5,-197.5 662.5,-197.5 662.5,-156.5 535.5,-156.5"/>
<text text-anchor="start" x="543.5" y="-185.5" font-family="Helvetica,sans-Serif" font-size="10.00">Tools/MinGW/include</text>
<text text-anchor="start" x="543.5" y="-174.5" font-family="Helvetica,sans-Serif" font-size="10.00">/c++/4.6.1/profile/impl</text>
<text text-anchor="middle" x="599" y="-163.5" font-family="Helvetica,sans-Serif" font-size="10.00">/profiler.h</text>
</a>
</g>
</g>
<!-- Node2 -->
<g id="node2" class="node">
<title>Node2</title>
<g id="a_node2"><a xlink:href="../../d3/d5a/base_8h.html" target="_top" xlink:title="Sequential helper functions. This file is a GNU profile extension to the Standard C++ Library.">
<polygon fill="none" stroke="black" points="24.5,-84 24.5,-114 161.5,-114 161.5,-84 24.5,-84"/>
<text text-anchor="start" x="32.5" y="-102" font-family="Helvetica,sans-Serif" font-size="10.00">Tools/MinGW/include</text>
<text text-anchor="middle" x="93" y="-91" font-family="Helvetica,sans-Serif" font-size="10.00">/c++/4.6.1/profile/base.h</text>
</a>
</g>
</g>
<!-- Node1&#45;&gt;Node2 -->
<g id="edge1" class="edge">
<title>Node1&#45;&gt;Node2</title>
<path fill="none" stroke="midnightblue" d="M525.22,-167.49C442.96,-157.64 306.07,-140.16 189,-120 178.68,-118.22 167.78,-116.15 157.17,-114.01"/>
<polygon fill="midnightblue" stroke="midnightblue" points="524.88,-170.98 535.22,-168.69 525.71,-164.03 524.88,-170.98"/>
</g>
<!-- Node4 -->
<g id="node4" class="node">
<title>Node4</title>
<g id="a_node4"><a xlink:href="../../d5/db2/profiler__container__size_8h.html" target="_top" xlink:title="Diagnostics for container sizes.">
<polygon fill="none" stroke="black" points="249.5,-78.5 249.5,-119.5 388.5,-119.5 388.5,-78.5 249.5,-78.5"/>
<text text-anchor="start" x="257.5" y="-107.5" font-family="Helvetica,sans-Serif" font-size="10.00">Tools/MinGW/include</text>
<text text-anchor="start" x="257.5" y="-96.5" font-family="Helvetica,sans-Serif" font-size="10.00">/c++/4.6.1/profile/impl</text>
<text text-anchor="middle" x="319" y="-85.5" font-family="Helvetica,sans-Serif" font-size="10.00">/profiler_container_size.h</text>
</a>
</g>
</g>
<!-- Node1&#45;&gt;Node4 -->
<g id="edge3" class="edge">
<title>Node1&#45;&gt;Node4</title>
<path fill="none" stroke="midnightblue" d="M525.77,-156.12C483.41,-144.63 430.4,-130.24 388.67,-118.91"/>
<polygon fill="midnightblue" stroke="midnightblue" points="524.9,-159.51 535.46,-158.75 526.73,-152.76 524.9,-159.51"/>
</g>
<!-- Node5 -->
<g id="node5" class="node">
<title>Node5</title>
<g id="a_node5"><a xlink:href="../../d6/d80/profiler__hashtable__size_8h.html" target="_top" xlink:title="Collection of hashtable size traces.">
<polygon fill="none" stroke="black" points="154.5,-0.5 154.5,-41.5 295.5,-41.5 295.5,-0.5 154.5,-0.5"/>
<text text-anchor="start" x="162.5" y="-29.5" font-family="Helvetica,sans-Serif" font-size="10.00">Tools/MinGW/include</text>
<text text-anchor="start" x="162.5" y="-18.5" font-family="Helvetica,sans-Serif" font-size="10.00">/c++/4.6.1/profile/impl</text>
<text text-anchor="middle" x="225" y="-7.5" font-family="Helvetica,sans-Serif" font-size="10.00">/profiler_hashtable_size.h</text>
</a>
</g>
</g>
<!-- Node1&#45;&gt;Node5 -->
<g id="edge10" class="edge">
<title>Node1&#45;&gt;Node5</title>
<path fill="none" stroke="midnightblue" d="M525.05,-174.58C429.74,-171.15 271.78,-159.51 232,-120 211.45,-99.59 210.98,-63.76 215.63,-41.54"/>
<polygon fill="midnightblue" stroke="midnightblue" points="525.09,-178.08 535.21,-174.92 525.33,-171.08 525.09,-178.08"/>
</g>
<!-- Node6 -->
<g id="node6" class="node">
<title>Node6</title>
<g id="a_node6"><a xlink:href="../../d4/d44/profiler__vector__size_8h.html" target="_top" xlink:title="Collection of vector size traces.">
<polygon fill="none" stroke="black" points="362.5,-0.5 362.5,-41.5 489.5,-41.5 489.5,-0.5 362.5,-0.5"/>
<text text-anchor="start" x="370.5" y="-29.5" font-family="Helvetica,sans-Serif" font-size="10.00">Tools/MinGW/include</text>
<text text-anchor="start" x="370.5" y="-18.5" font-family="Helvetica,sans-Serif" font-size="10.00">/c++/4.6.1/profile/impl</text>
<text text-anchor="middle" x="426" y="-7.5" font-family="Helvetica,sans-Serif" font-size="10.00">/profiler_vector_size.h</text>
</a>
</g>
</g>
<!-- Node1&#45;&gt;Node6 -->
<g id="edge17" class="edge">
<title>Node1&#45;&gt;Node6</title>
<path fill="none" stroke="midnightblue" d="M525.51,-164.01C497.07,-155.87 466.55,-142.34 446,-120 426.06,-98.33 419.78,-63.55 420.29,-41.78"/>
<polygon fill="midnightblue" stroke="midnightblue" points="524.89,-167.47 535.46,-166.68 526.7,-160.71 524.89,-167.47"/>
</g>
<!-- Node7 -->
<g id="node7" class="node">
<title>Node7</title>
<g id="a_node7"><a xlink:href="../../d1/de0/profiler__hash__func_8h.html" target="_top" xlink:title="Data structures to represent profiling traces.">
<polygon fill="none" stroke="black" points="463.5,-78.5 463.5,-119.5 590.5,-119.5 590.5,-78.5 463.5,-78.5"/>
<text text-anchor="start" x="471.5" y="-107.5" font-family="Helvetica,sans-Serif" font-size="10.00">Tools/MinGW/include</text>
<text text-anchor="start" x="471.5" y="-96.5" font-family="Helvetica,sans-Serif" font-size="10.00">/c++/4.6.1/profile/impl</text>
<text text-anchor="middle" x="527" y="-85.5" font-family="Helvetica,sans-Serif" font-size="10.00">/profiler_hash_func.h</text>
</a>
</g>
</g>
<!-- Node1&#45;&gt;Node7 -->
<g id="edge8" class="edge">
<title>Node1&#45;&gt;Node7</title>
<path fill="none" stroke="midnightblue" d="M567.13,-149.2C557.38,-139.42 547.24,-128.54 539.5,-119.51"/>
<polygon fill="midnightblue" stroke="midnightblue" points="564.89,-151.91 574.47,-156.43 569.8,-146.92 564.89,-151.91"/>
</g>
<!-- Node8 -->
<g id="node8" class="node">
<title>Node8</title>
<g id="a_node8"><a xlink:href="../../df/d75/profiler__list__to__slist_8h.html" target="_top" xlink:title="Diagnostics for list to slist.">
<polygon fill="none" stroke="black" points="608.5,-78.5 608.5,-119.5 735.5,-119.5 735.5,-78.5 608.5,-78.5"/>
<text text-anchor="start" x="616.5" y="-107.5" font-family="Helvetica,sans-Serif" font-size="10.00">Tools/MinGW/include</text>
<text text-anchor="start" x="616.5" y="-96.5" font-family="Helvetica,sans-Serif" font-size="10.00">/c++/4.6.1/profile/impl</text>
<text text-anchor="middle" x="672" y="-85.5" font-family="Helvetica,sans-Serif" font-size="10.00">/profiler_list_to_slist.h</text>
</a>
</g>
</g>
<!-- Node1&#45;&gt;Node8 -->
<g id="edge11" class="edge">
<title>Node1&#45;&gt;Node8</title>
<path fill="none" stroke="midnightblue" d="M618.52,-148.92C627.38,-139.2 637.88,-128.45 647.28,-119.51"/>
<polygon fill="midnightblue" stroke="midnightblue" points="615.86,-146.64 611.81,-156.43 621.08,-151.3 615.86,-146.64"/>
</g>
<!-- Node9 -->
<g id="node9" class="node">
<title>Node9</title>
<g id="a_node9"><a xlink:href="../../d7/dab/profiler__list__to__vector_8h.html" target="_top" xlink:title="diagnostics for list to vector.">
<polygon fill="none" stroke="black" points="754,-78.5 754,-119.5 888,-119.5 888,-78.5 754,-78.5"/>
<text text-anchor="start" x="762" y="-107.5" font-family="Helvetica,sans-Serif" font-size="10.00">Tools/MinGW/include</text>
<text text-anchor="start" x="762" y="-96.5" font-family="Helvetica,sans-Serif" font-size="10.00">/c++/4.6.1/profile/impl</text>
<text text-anchor="middle" x="821" y="-85.5" font-family="Helvetica,sans-Serif" font-size="10.00">/profiler_list_to_vector.h</text>
</a>
</g>
</g>
<!-- Node1&#45;&gt;Node9 -->
<g id="edge13" class="edge">
<title>Node1&#45;&gt;Node9</title>
<path fill="none" stroke="midnightblue" d="M659.85,-153.03C690.36,-142.33 727.24,-129.73 758.04,-119.51"/>
<polygon fill="midnightblue" stroke="midnightblue" points="658.45,-149.81 650.18,-156.43 660.78,-156.41 658.45,-149.81"/>
</g>
<!-- Node10 -->
<g id="node10" class="node">
<title>Node10</title>
<g id="a_node10"><a xlink:href="../../d7/d82/profiler__map__to__unordered__map_8h.html" target="_top" xlink:title="Diagnostics for map to unordered_map.">
<polygon fill="none" stroke="black" points="906.5,-78.5 906.5,-119.5 1093.5,-119.5 1093.5,-78.5 906.5,-78.5"/>
<text text-anchor="start" x="914.5" y="-107.5" font-family="Helvetica,sans-Serif" font-size="10.00">Tools/MinGW/include</text>
<text text-anchor="start" x="914.5" y="-96.5" font-family="Helvetica,sans-Serif" font-size="10.00">/c++/4.6.1/profile/impl</text>
<text text-anchor="middle" x="1000" y="-85.5" font-family="Helvetica,sans-Serif" font-size="10.00">/profiler_map_to_unordered_map.h</text>
</a>
</g>
</g>
<!-- Node1&#45;&gt;Node10 -->
<g id="edge15" class="edge">
<title>Node1&#45;&gt;Node10</title>
<path fill="none" stroke="midnightblue" d="M672.47,-160.93C730.88,-149.73 814.56,-134.03 888,-120 893.99,-118.85 900.18,-117.67 906.43,-116.47"/>
<polygon fill="midnightblue" stroke="midnightblue" points="671.75,-157.5 662.59,-162.83 673.07,-164.38 671.75,-157.5"/>
</g>
<!-- Node11 -->
<g id="node11" class="node">
<title>Node11</title>
<g id="a_node11"><a xlink:href="../../d5/d8a/profiler__vector__to__list_8h.html" target="_top" xlink:title="diagnostics for vector to list.">
<polygon fill="none" stroke="black" points="1112,-78.5 1112,-119.5 1246,-119.5 1246,-78.5 1112,-78.5"/>
<text text-anchor="start" x="1120" y="-107.5" font-family="Helvetica,sans-Serif" font-size="10.00">Tools/MinGW/include</text>
<text text-anchor="start" x="1120" y="-96.5" font-family="Helvetica,sans-Serif" font-size="10.00">/c++/4.6.1/profile/impl</text>
<text text-anchor="middle" x="1179" y="-85.5" font-family="Helvetica,sans-Serif" font-size="10.00">/profiler_vector_to_list.h</text>
</a>
</g>
</g>
<!-- Node1&#45;&gt;Node11 -->
<g id="edge18" class="edge">
<title>Node1&#45;&gt;Node11</title>
<path fill="none" stroke="midnightblue" d="M672.79,-170.74C769.95,-163.36 945.62,-147.61 1094,-120 1099.77,-118.93 1105.74,-117.65 1111.73,-116.27"/>
<polygon fill="midnightblue" stroke="midnightblue" points="672.48,-167.26 662.77,-171.5 673,-174.24 672.48,-167.26"/>
</g>
<!-- Node3 -->
<g id="node3" class="node">
<title>Node3</title>
<g id="a_node3"><a xlink:href="../../db/d26/profile_2map_8h.html" target="_top" xlink:title=" ">
<polygon fill="none" stroke="black" points="0,-6 0,-36 136,-36 136,-6 0,-6"/>
<text text-anchor="start" x="8" y="-24" font-family="Helvetica,sans-Serif" font-size="10.00">Tools/MinGW/include</text>
<text text-anchor="middle" x="68" y="-13" font-family="Helvetica,sans-Serif" font-size="10.00">/c++/4.6.1/profile/map.h</text>
</a>
</g>
</g>
<!-- Node2&#45;&gt;Node3 -->
<g id="edge2" class="edge">
<title>Node2&#45;&gt;Node3</title>
<path fill="none" stroke="midnightblue" d="M85.09,-73.96C81.01,-61.55 76.17,-46.83 72.68,-36.23"/>
<polygon fill="midnightblue" stroke="midnightblue" points="81.85,-75.3 88.3,-83.7 88.5,-73.11 81.85,-75.3"/>
</g>
<!-- Node4&#45;&gt;Node5 -->
<g id="edge4" class="edge">
<title>Node4&#45;&gt;Node5</title>
<path fill="none" stroke="midnightblue" d="M286.92,-72.06C274.54,-62.06 260.63,-50.8 249.13,-41.51"/>
<polygon fill="midnightblue" stroke="midnightblue" points="284.82,-74.86 294.79,-78.43 289.22,-69.42 284.82,-74.86"/>
</g>
<!-- Node4&#45;&gt;Node6 -->
<g id="edge6" class="edge">
<title>Node4&#45;&gt;Node6</title>
<path fill="none" stroke="midnightblue" d="M354.71,-72.64C369,-62.49 385.2,-50.98 398.54,-41.51"/>
<polygon fill="midnightblue" stroke="midnightblue" points="352.68,-69.78 346.56,-78.43 356.73,-75.49 352.68,-69.78"/>
</g>
<!-- Node5&#45;&gt;Node1 -->
<g id="edge5" class="edge">
<title>Node5&#45;&gt;Node1</title>
<path fill="none" stroke="midnightblue" d="M228.79,-51.64C229.51,-73.53 232.34,-102.46 250,-120 289.55,-159.29 445.96,-171.02 535.45,-174.52"/>
<polygon fill="midnightblue" stroke="midnightblue" points="232.28,-51.46 228.54,-41.54 225.29,-51.62 232.28,-51.46"/>
</g>
<!-- Node6&#45;&gt;Node1 -->
<g id="edge7" class="edge">
<title>Node6&#45;&gt;Node1</title>
<path fill="none" stroke="midnightblue" d="M435.38,-51.67C439.82,-73.07 446.86,-101.37 464,-120 482.89,-140.53 510.2,-153.62 535.36,-161.93"/>
<polygon fill="midnightblue" stroke="midnightblue" points="438.8,-50.89 433.38,-41.78 431.94,-52.28 438.8,-50.89"/>
</g>
<!-- Node7&#45;&gt;Node1 -->
<g id="edge9" class="edge">
<title>Node7&#45;&gt;Node1</title>
<path fill="none" stroke="midnightblue" d="M558.8,-126.72C568.55,-136.51 578.69,-147.39 586.45,-156.43"/>
<polygon fill="midnightblue" stroke="midnightblue" points="561.04,-124.03 551.46,-119.51 556.13,-129.01 561.04,-124.03"/>
</g>
<!-- Node8&#45;&gt;Node1 -->
<g id="edge12" class="edge">
<title>Node8&#45;&gt;Node1</title>
<path fill="none" stroke="midnightblue" d="M652.55,-127.01C643.69,-136.72 633.19,-147.47 623.79,-156.43"/>
<polygon fill="midnightblue" stroke="midnightblue" points="655.2,-129.3 659.25,-119.51 649.98,-124.64 655.2,-129.3"/>
</g>
<!-- Node9&#45;&gt;Node1 -->
<g id="edge14" class="edge">
<title>Node9&#45;&gt;Node1</title>
<path fill="none" stroke="midnightblue" d="M760.35,-122.9C729.86,-133.59 692.99,-146.19 662.16,-156.43"/>
<polygon fill="midnightblue" stroke="midnightblue" points="761.73,-126.13 770.01,-119.51 759.41,-119.52 761.73,-126.13"/>
</g>
<!-- Node10&#45;&gt;Node1 -->
<g id="edge16" class="edge">
<title>Node10&#45;&gt;Node1</title>
<path fill="none" stroke="midnightblue" d="M898.52,-121.43C814.75,-137.4 722.48,-154.66 662.58,-165.42"/>
<polygon fill="midnightblue" stroke="midnightblue" points="899.26,-124.85 908.43,-119.54 897.95,-117.97 899.26,-124.85"/>
</g>
<!-- Node11&#45;&gt;Node1 -->
<g id="edge19" class="edge">
<title>Node11&#45;&gt;Node1</title>
<path fill="none" stroke="midnightblue" d="M1104.4,-121.38C944.28,-150.41 758.49,-165.87 662.85,-172.32"/>
<polygon fill="midnightblue" stroke="midnightblue" points="1105.22,-124.79 1114.43,-119.54 1103.96,-117.9 1105.22,-124.79"/>
</g>
</g>
</svg>
