<?xml version="1.0" encoding="UTF-8" standalone="no"?>
<!DOCTYPE svg PUBLIC "-//W3C//DTD SVG 1.1//EN"
 "http://www.w3.org/Graphics/SVG/1.1/DTD/svg11.dtd">
<!-- Generated by graphviz version 2.43.0 (0)
 -->
<!-- Title: _TRUSTEE_A Pages: 1 -->
<svg width="483pt" height="95pt"
 viewBox="0.00 0.00 482.50 95.00" xmlns="http://www.w3.org/2000/svg" xmlns:xlink="http://www.w3.org/1999/xlink">
<g id="graph0" class="graph" transform="scale(1 1) rotate(0) translate(4 91)">
<title>_TRUSTEE_A</title>
<!-- Node1 -->
<g id="node1" class="node">
<title>Node1</title>
<g id="a_node1"><a xlink:title=" ">
<polygon fill="#bfbfbf" stroke="black" points="238.5,-0.5 238.5,-19.5 316.5,-19.5 316.5,-0.5 238.5,-0.5"/>
<text text-anchor="middle" x="277.5" y="-7.5" font-family="Helvetica,sans-Serif" font-size="10.00">_TRUSTEE_A</text>
</a>
</g>
</g>
<!-- Node1&#45;&gt;Node1 -->
<g id="edge2" class="edge">
<title>Node1&#45;&gt;Node1</title>
<path fill="none" stroke="#9a32cd" stroke-dasharray="5,2" d="M326.78,-14.85C331.5,-13.86 334.5,-12.25 334.5,-10 334.5,-6.41 326.83,-4.43 316.66,-4.06"/>
<polygon fill="#9a32cd" stroke="#9a32cd" points="326.23,-11.38 316.66,-15.94 326.98,-18.34 326.23,-11.38"/>
<text text-anchor="middle" x="377" y="-7.5" font-family="Helvetica,sans-Serif" font-size="10.00"> pMultipleTrustee</text>
</g>
<!-- Node2 -->
<g id="node2" class="node">
<title>Node2</title>
<g id="a_node2"><a xlink:title=" ">
<polygon fill="none" stroke="#bfbfbf" points="0,-67.5 0,-86.5 175,-86.5 175,-67.5 0,-67.5"/>
<text text-anchor="middle" x="87.5" y="-74.5" font-family="Helvetica,sans-Serif" font-size="10.00">MULTIPLE_TRUSTEE_OPERATION</text>
</a>
</g>
</g>
<!-- Node2&#45;&gt;Node1 -->
<g id="edge1" class="edge">
<title>Node2&#45;&gt;Node1</title>
<path fill="none" stroke="#9a32cd" stroke-dasharray="5,2" d="M90.33,-57.07C92.32,-50.08 95.71,-42.73 101.5,-38 121.85,-21.38 192.78,-14.92 238.15,-12.47"/>
<polygon fill="#9a32cd" stroke="#9a32cd" points="86.81,-56.81 88.21,-67.31 93.66,-58.22 86.81,-56.81"/>
<text text-anchor="middle" x="165" y="-41" font-family="Helvetica,sans-Serif" font-size="10.00"> MultipleTrusteeOperation</text>
</g>
<!-- Node3 -->
<g id="node3" class="node">
<title>Node3</title>
<g id="a_node3"><a xlink:title=" ">
<polygon fill="none" stroke="#bfbfbf" points="214.5,-67.5 214.5,-86.5 252.5,-86.5 252.5,-67.5 214.5,-67.5"/>
<text text-anchor="middle" x="233.5" y="-74.5" font-family="Helvetica,sans-Serif" font-size="10.00">char</text>
</a>
</g>
</g>
<!-- Node3&#45;&gt;Node1 -->
<g id="edge3" class="edge">
<title>Node3&#45;&gt;Node1</title>
<path fill="none" stroke="#9a32cd" stroke-dasharray="5,2" d="M232.34,-57.19C232.73,-50.72 234.09,-43.68 237.5,-38 242.25,-30.1 250.3,-24 257.94,-19.62"/>
<polygon fill="#9a32cd" stroke="#9a32cd" points="228.84,-57.22 232.41,-67.2 235.84,-57.17 228.84,-57.22"/>
<text text-anchor="middle" x="265" y="-41" font-family="Helvetica,sans-Serif" font-size="10.00"> ptstrName</text>
</g>
<!-- Node4 -->
<g id="node4" class="node">
<title>Node4</title>
<g id="a_node4"><a xlink:title=" ">
<polygon fill="none" stroke="#bfbfbf" points="271,-67.5 271,-86.5 366,-86.5 366,-67.5 271,-67.5"/>
<text text-anchor="middle" x="318.5" y="-74.5" font-family="Helvetica,sans-Serif" font-size="10.00">TRUSTEE_FORM</text>
</a>
</g>
</g>
<!-- Node4&#45;&gt;Node1 -->
<g id="edge4" class="edge">
<title>Node4&#45;&gt;Node1</title>
<path fill="none" stroke="#9a32cd" stroke-dasharray="5,2" d="M308.9,-58.68C305.16,-52.13 300.75,-44.64 296.5,-38 292.55,-31.82 287.8,-25.07 284.04,-19.86"/>
<polygon fill="#9a32cd" stroke="#9a32cd" points="305.86,-60.42 313.82,-67.42 311.97,-56.99 305.86,-60.42"/>
<text text-anchor="middle" x="334.5" y="-41" font-family="Helvetica,sans-Serif" font-size="10.00"> TrusteeForm</text>
</g>
<!-- Node5 -->
<g id="node5" class="node">
<title>Node5</title>
<g id="a_node5"><a xlink:title=" ">
<polygon fill="none" stroke="#bfbfbf" points="384.5,-67.5 384.5,-86.5 474.5,-86.5 474.5,-67.5 384.5,-67.5"/>
<text text-anchor="middle" x="429.5" y="-74.5" font-family="Helvetica,sans-Serif" font-size="10.00">TRUSTEE_TYPE</text>
</a>
</g>
</g>
<!-- Node5&#45;&gt;Node1 -->
<g id="edge5" class="edge">
<title>Node5&#45;&gt;Node1</title>
<path fill="none" stroke="#9a32cd" stroke-dasharray="5,2" d="M410.18,-61.52C399.04,-53.7 384.5,-44.38 370.5,-38 353.36,-30.2 333.42,-24.05 316.41,-19.61"/>
<polygon fill="#9a32cd" stroke="#9a32cd" points="408.16,-64.38 418.32,-67.39 412.25,-58.7 408.16,-64.38"/>
<text text-anchor="middle" x="421" y="-41" font-family="Helvetica,sans-Serif" font-size="10.00"> TrusteeType</text>
</g>
</g>
</svg>
