<?xml version="1.0" encoding="UTF-8" standalone="no"?>
<!DOCTYPE svg PUBLIC "-//W3C//DTD SVG 1.1//EN"
 "http://www.w3.org/Graphics/SVG/1.1/DTD/svg11.dtd">
<!-- Generated by graphviz version 2.43.0 (0)
 -->
<!-- Title: Source/Engine/jpeg&#45;8c/jerror.c Pages: 1 -->
<svg width="585pt" height="151pt"
 viewBox="0.00 0.00 585.00 151.00" xmlns="http://www.w3.org/2000/svg" xmlns:xlink="http://www.w3.org/1999/xlink">
<g id="graph0" class="graph" transform="scale(1 1) rotate(0) translate(4 147)">
<title>Source/Engine/jpeg&#45;8c/jerror.c</title>
<!-- Node1 -->
<g id="node1" class="node">
<title>Node1</title>
<g id="a_node1"><a xlink:title=" ">
<polygon fill="#bfbfbf" stroke="black" points="341.5,-112.5 341.5,-142.5 451.5,-142.5 451.5,-112.5 341.5,-112.5"/>
<text text-anchor="start" x="349.5" y="-130.5" font-family="Helvetica,sans-Serif" font-size="10.00">Source/Engine/jpeg</text>
<text text-anchor="middle" x="396.5" y="-119.5" font-family="Helvetica,sans-Serif" font-size="10.00">&#45;8c/jerror.c</text>
</a>
</g>
</g>
<!-- Node2 -->
<g id="node2" class="node">
<title>Node2</title>
<g id="a_node2"><a xlink:href="../../d0/df6/Source_2Engine_2jpeg-8c_2jinclude_8h.html" target="_top" xlink:title=" ">
<polygon fill="none" stroke="black" points="173.5,-56.5 173.5,-75.5 237.5,-75.5 237.5,-56.5 173.5,-56.5"/>
<text text-anchor="middle" x="205.5" y="-63.5" font-family="Helvetica,sans-Serif" font-size="10.00">jinclude.h</text>
</a>
</g>
</g>
<!-- Node1&#45;&gt;Node2 -->
<g id="edge1" class="edge">
<title>Node1&#45;&gt;Node2</title>
<path fill="none" stroke="midnightblue" d="M351.24,-112.4C318.09,-102.07 273.65,-88.23 242.6,-78.56"/>
<polygon fill="midnightblue" stroke="midnightblue" points="243.6,-75.2 233.01,-75.57 241.52,-81.89 243.6,-75.2"/>
</g>
<!-- Node5 -->
<g id="node5" class="node">
<title>Node5</title>
<g id="a_node5"><a xlink:title=" ">
<polygon fill="none" stroke="#bfbfbf" points="0,-0.5 0,-19.5 53,-19.5 53,-0.5 0,-0.5"/>
<text text-anchor="middle" x="26.5" y="-7.5" font-family="Helvetica,sans-Serif" font-size="10.00">stdlib.h</text>
</a>
</g>
</g>
<!-- Node1&#45;&gt;Node5 -->
<g id="edge14" class="edge">
<title>Node1&#45;&gt;Node5</title>
<path fill="none" stroke="midnightblue" d="M341.18,-118.08C293.57,-109.98 223.44,-96.01 164.5,-76 123.18,-61.97 77.88,-39.08 50.85,-24.54"/>
<polygon fill="midnightblue" stroke="midnightblue" points="52.21,-21.3 41.75,-19.59 48.86,-27.44 52.21,-21.3"/>
</g>
<!-- Node8 -->
<g id="node8" class="node">
<title>Node8</title>
<g id="a_node8"><a xlink:href="../../d3/d25/Source_2Engine_2jpeg-8c_2jpeglib_8h.html" target="_top" xlink:title=" ">
<polygon fill="none" stroke="black" points="367,-56.5 367,-75.5 426,-75.5 426,-56.5 367,-56.5"/>
<text text-anchor="middle" x="396.5" y="-63.5" font-family="Helvetica,sans-Serif" font-size="10.00">jpeglib.h</text>
</a>
</g>
</g>
<!-- Node1&#45;&gt;Node8 -->
<g id="edge7" class="edge">
<title>Node1&#45;&gt;Node8</title>
<path fill="none" stroke="midnightblue" d="M396.5,-112.4C396.5,-104.47 396.5,-94.46 396.5,-85.86"/>
<polygon fill="midnightblue" stroke="midnightblue" points="400,-85.66 396.5,-75.66 393,-85.66 400,-85.66"/>
</g>
<!-- Node11 -->
<g id="node11" class="node">
<title>Node11</title>
<g id="a_node11"><a xlink:href="../../dc/dc9/Source_2Engine_2jpeg-8c_2jerror_8h.html" target="_top" xlink:title=" ">
<polygon fill="none" stroke="black" points="526,-0.5 526,-19.5 577,-19.5 577,-0.5 526,-0.5"/>
<text text-anchor="middle" x="551.5" y="-7.5" font-family="Helvetica,sans-Serif" font-size="10.00">jerror.h</text>
</a>
</g>
</g>
<!-- Node1&#45;&gt;Node11 -->
<g id="edge13" class="edge">
<title>Node1&#45;&gt;Node11</title>
<path fill="none" stroke="midnightblue" d="M410.4,-112.31C425.43,-97.35 450.49,-73.57 474.5,-56 490.74,-44.11 510.35,-32.69 525.71,-24.33"/>
<polygon fill="midnightblue" stroke="midnightblue" points="527.49,-27.34 534.66,-19.54 524.19,-21.17 527.49,-27.34"/>
</g>
<!-- Node12 -->
<g id="node12" class="node">
<title>Node12</title>
<g id="a_node12"><a xlink:href="../../d4/d74/Source_2Engine_2jpeg-8c_2jversion_8h.html" target="_top" xlink:title=" ">
<polygon fill="none" stroke="black" points="483,-56.5 483,-75.5 548,-75.5 548,-56.5 483,-56.5"/>
<text text-anchor="middle" x="515.5" y="-63.5" font-family="Helvetica,sans-Serif" font-size="10.00">jversion.h</text>
</a>
</g>
</g>
<!-- Node1&#45;&gt;Node12 -->
<g id="edge12" class="edge">
<title>Node1&#45;&gt;Node12</title>
<path fill="none" stroke="midnightblue" d="M424.7,-112.4C444.22,-102.64 470.03,-89.74 489.13,-80.18"/>
<polygon fill="midnightblue" stroke="midnightblue" points="490.81,-83.26 498.18,-75.66 487.67,-77 490.81,-83.26"/>
</g>
<!-- Node3 -->
<g id="node3" class="node">
<title>Node3</title>
<g id="a_node3"><a xlink:href="../../d9/d92/Source_2Engine_2jpeg-8c_2jconfig_8h.html" target="_top" xlink:title=" ">
<polygon fill="none" stroke="black" points="285.5,-0.5 285.5,-19.5 343.5,-19.5 343.5,-0.5 285.5,-0.5"/>
<text text-anchor="middle" x="314.5" y="-7.5" font-family="Helvetica,sans-Serif" font-size="10.00">jconfig.h</text>
</a>
</g>
</g>
<!-- Node2&#45;&gt;Node3 -->
<g id="edge2" class="edge">
<title>Node2&#45;&gt;Node3</title>
<path fill="none" stroke="midnightblue" d="M223.01,-56.32C240.57,-47.62 267.83,-34.12 288.03,-24.11"/>
<polygon fill="midnightblue" stroke="midnightblue" points="289.62,-27.23 297.03,-19.65 286.52,-20.96 289.62,-27.23"/>
</g>
<!-- Node4 -->
<g id="node4" class="node">
<title>Node4</title>
<g id="a_node4"><a xlink:title=" ">
<polygon fill="none" stroke="#bfbfbf" points="71.5,-0.5 71.5,-19.5 127.5,-19.5 127.5,-0.5 71.5,-0.5"/>
<text text-anchor="middle" x="99.5" y="-7.5" font-family="Helvetica,sans-Serif" font-size="10.00">stddef.h</text>
</a>
</g>
</g>
<!-- Node2&#45;&gt;Node4 -->
<g id="edge3" class="edge">
<title>Node2&#45;&gt;Node4</title>
<path fill="none" stroke="midnightblue" d="M188.47,-56.32C171.47,-47.66 145.12,-34.24 125.51,-24.25"/>
<polygon fill="midnightblue" stroke="midnightblue" points="126.99,-21.08 116.49,-19.65 123.81,-27.31 126.99,-21.08"/>
</g>
<!-- Node2&#45;&gt;Node5 -->
<g id="edge4" class="edge">
<title>Node2&#45;&gt;Node5</title>
<path fill="none" stroke="midnightblue" d="M177.14,-56.44C146.32,-47.15 96.96,-32.26 63.21,-22.07"/>
<polygon fill="midnightblue" stroke="midnightblue" points="63.85,-18.61 53.27,-19.08 61.83,-25.31 63.85,-18.61"/>
</g>
<!-- Node6 -->
<g id="node6" class="node">
<title>Node6</title>
<g id="a_node6"><a xlink:title=" ">
<polygon fill="none" stroke="#bfbfbf" points="145.5,-0.5 145.5,-19.5 195.5,-19.5 195.5,-0.5 145.5,-0.5"/>
<text text-anchor="middle" x="170.5" y="-7.5" font-family="Helvetica,sans-Serif" font-size="10.00">stdio.h</text>
</a>
</g>
</g>
<!-- Node2&#45;&gt;Node6 -->
<g id="edge5" class="edge">
<title>Node2&#45;&gt;Node6</title>
<path fill="none" stroke="midnightblue" d="M199.72,-56.08C194.83,-48.53 187.67,-37.49 181.67,-28.23"/>
<polygon fill="midnightblue" stroke="midnightblue" points="184.55,-26.24 176.17,-19.75 178.67,-30.05 184.55,-26.24"/>
</g>
<!-- Node7 -->
<g id="node7" class="node">
<title>Node7</title>
<g id="a_node7"><a xlink:title=" ">
<polygon fill="none" stroke="#bfbfbf" points="214,-0.5 214,-19.5 267,-19.5 267,-0.5 214,-0.5"/>
<text text-anchor="middle" x="240.5" y="-7.5" font-family="Helvetica,sans-Serif" font-size="10.00">string.h</text>
</a>
</g>
</g>
<!-- Node2&#45;&gt;Node7 -->
<g id="edge6" class="edge">
<title>Node2&#45;&gt;Node7</title>
<path fill="none" stroke="midnightblue" d="M211.28,-56.08C216.17,-48.53 223.33,-37.49 229.33,-28.23"/>
<polygon fill="midnightblue" stroke="midnightblue" points="232.33,-30.05 234.83,-19.75 226.45,-26.24 232.33,-30.05"/>
</g>
<!-- Node8&#45;&gt;Node3 -->
<g id="edge11" class="edge">
<title>Node8&#45;&gt;Node3</title>
<path fill="none" stroke="midnightblue" d="M383.33,-56.32C370.65,-47.98 351.27,-35.21 336.29,-25.35"/>
<polygon fill="midnightblue" stroke="midnightblue" points="337.92,-22.23 327.64,-19.65 334.07,-28.08 337.92,-22.23"/>
</g>
<!-- Node9 -->
<g id="node9" class="node">
<title>Node9</title>
<g id="a_node9"><a xlink:href="../../dc/dfa/Source_2Engine_2jpeg-8c_2jmorecfg_8h.html" target="_top" xlink:title=" ">
<polygon fill="none" stroke="black" points="362,-0.5 362,-19.5 431,-19.5 431,-0.5 362,-0.5"/>
<text text-anchor="middle" x="396.5" y="-7.5" font-family="Helvetica,sans-Serif" font-size="10.00">jmorecfg.h</text>
</a>
</g>
</g>
<!-- Node8&#45;&gt;Node9 -->
<g id="edge8" class="edge">
<title>Node8&#45;&gt;Node9</title>
<path fill="none" stroke="midnightblue" d="M396.5,-56.08C396.5,-49.01 396.5,-38.86 396.5,-29.99"/>
<polygon fill="midnightblue" stroke="midnightblue" points="400,-29.75 396.5,-19.75 393,-29.75 400,-29.75"/>
</g>
<!-- Node10 -->
<g id="node10" class="node">
<title>Node10</title>
<g id="a_node10"><a xlink:href="../../d8/de4/Source_2Engine_2jpeg-8c_2jpegint_8h.html" target="_top" xlink:title=" ">
<polygon fill="none" stroke="black" points="449,-0.5 449,-19.5 508,-19.5 508,-0.5 449,-0.5"/>
<text text-anchor="middle" x="478.5" y="-7.5" font-family="Helvetica,sans-Serif" font-size="10.00">jpegint.h</text>
</a>
</g>
</g>
<!-- Node8&#45;&gt;Node10 -->
<g id="edge9" class="edge">
<title>Node8&#45;&gt;Node10</title>
<path fill="none" stroke="midnightblue" d="M409.67,-56.32C422.35,-47.98 441.73,-35.21 456.71,-25.35"/>
<polygon fill="midnightblue" stroke="midnightblue" points="458.93,-28.08 465.36,-19.65 455.08,-22.23 458.93,-28.08"/>
</g>
<!-- Node8&#45;&gt;Node11 -->
<g id="edge10" class="edge">
<title>Node8&#45;&gt;Node11</title>
<path fill="none" stroke="midnightblue" d="M421.06,-56.44C447.02,-47.4 488.17,-33.06 517.3,-22.92"/>
<polygon fill="midnightblue" stroke="midnightblue" points="518.76,-26.11 527.05,-19.52 516.46,-19.5 518.76,-26.11"/>
</g>
</g>
</svg>
