<?xml version="1.0" encoding="UTF-8" standalone="no"?>
<!DOCTYPE svg PUBLIC "-//W3C//DTD SVG 1.1//EN"
 "http://www.w3.org/Graphics/SVG/1.1/DTD/svg11.dtd">
<!-- Generated by graphviz version 2.43.0 (0)
 -->
<!-- Title: _SERVER_TRANSPORT_INFO_0 Pages: 1 -->
<svg width="439pt" height="106pt"
 viewBox="0.00 0.00 438.50 106.00" xmlns="http://www.w3.org/2000/svg" xmlns:xlink="http://www.w3.org/1999/xlink">
<g id="graph0" class="graph" transform="scale(1 1) rotate(0) translate(4 102)">
<title>_SERVER_TRANSPORT_INFO_0</title>
<!-- Node1 -->
<g id="node1" class="node">
<title>Node1</title>
<g id="a_node1"><a xlink:title=" ">
<polygon fill="#bfbfbf" stroke="black" points="80.5,-0.5 80.5,-19.5 244.5,-19.5 244.5,-0.5 80.5,-0.5"/>
<text text-anchor="middle" x="162.5" y="-7.5" font-family="Helvetica,sans-Serif" font-size="10.00">_SERVER_TRANSPORT_INFO_0</text>
</a>
</g>
</g>
<!-- Node2 -->
<g id="node2" class="node">
<title>Node2</title>
<g id="a_node2"><a xlink:title=" ">
<polygon fill="none" stroke="#bfbfbf" points="0,-78.5 0,-97.5 49,-97.5 49,-78.5 0,-78.5"/>
<text text-anchor="middle" x="24.5" y="-85.5" font-family="Helvetica,sans-Serif" font-size="10.00">BYTE *</text>
</a>
</g>
</g>
<!-- Node2&#45;&gt;Node1 -->
<g id="edge1" class="edge">
<title>Node2&#45;&gt;Node1</title>
<path fill="none" stroke="#9a32cd" stroke-dasharray="5,2" d="M27.3,-68.5C29.82,-58.1 34.58,-45.7 43.5,-38 54,-28.93 66.92,-22.74 80.34,-18.54"/>
<polygon fill="#9a32cd" stroke="#9a32cd" points="23.86,-67.85 25.4,-78.33 30.74,-69.18 23.86,-67.85"/>
<text text-anchor="middle" x="101" y="-46.5" font-family="Helvetica,sans-Serif" font-size="10.00"> svti0_transportaddress</text>
</g>
<!-- Node3 -->
<g id="node3" class="node">
<title>Node3</title>
<g id="a_node3"><a xlink:title=" ">
<polygon fill="none" stroke="#bfbfbf" points="118,-78.5 118,-97.5 207,-97.5 207,-78.5 118,-78.5"/>
<text text-anchor="middle" x="162.5" y="-85.5" font-family="Helvetica,sans-Serif" font-size="10.00">unsigned short</text>
</a>
</g>
</g>
<!-- Node3&#45;&gt;Node1 -->
<g id="edge2" class="edge">
<title>Node3&#45;&gt;Node1</title>
<path fill="none" stroke="#9a32cd" stroke-dasharray="5,2" d="M162.5,-68.22C162.5,-52.7 162.5,-31.36 162.5,-19.62"/>
<polygon fill="#9a32cd" stroke="#9a32cd" points="159,-68.28 162.5,-78.28 166,-68.28 159,-68.28"/>
<text text-anchor="middle" x="216" y="-52" font-family="Helvetica,sans-Serif" font-size="10.00"> svti0_transportname</text>
<text text-anchor="middle" x="216" y="-41" font-family="Helvetica,sans-Serif" font-size="10.00">svti0_networkaddress</text>
</g>
<!-- Node4 -->
<g id="node4" class="node">
<title>Node4</title>
<g id="a_node4"><a xlink:title=" ">
<polygon fill="none" stroke="#bfbfbf" points="273.5,-78.5 273.5,-97.5 311.5,-97.5 311.5,-78.5 273.5,-78.5"/>
<text text-anchor="middle" x="292.5" y="-85.5" font-family="Helvetica,sans-Serif" font-size="10.00">long</text>
</a>
</g>
</g>
<!-- Node4&#45;&gt;Node1 -->
<g id="edge3" class="edge">
<title>Node4&#45;&gt;Node1</title>
<path fill="none" stroke="#9a32cd" stroke-dasharray="5,2" d="M288.45,-68.52C285.25,-58.13 279.73,-45.73 270.5,-38 260.35,-29.5 247.9,-23.62 235.1,-19.56"/>
<polygon fill="#9a32cd" stroke="#9a32cd" points="285.1,-69.55 291,-78.34 291.87,-67.78 285.1,-69.55"/>
<text text-anchor="middle" x="357.5" y="-52" font-family="Helvetica,sans-Serif" font-size="10.00"> svti0_transportaddresslength</text>
<text text-anchor="middle" x="357.5" y="-41" font-family="Helvetica,sans-Serif" font-size="10.00">svti0_numberofvcs</text>
</g>
</g>
</svg>
