<?xml version="1.0" encoding="UTF-8" standalone="no"?>
<!DOCTYPE svg PUBLIC "-//W3C//DTD SVG 1.1//EN"
 "http://www.w3.org/Graphics/SVG/1.1/DTD/svg11.dtd">
<!-- Generated by graphviz version 2.43.0 (0)
 -->
<!-- Title: curl_version_info_data Pages: 1 -->
<svg width="482pt" height="161pt"
 viewBox="0.00 0.00 481.50 161.00" xmlns="http://www.w3.org/2000/svg" xmlns:xlink="http://www.w3.org/1999/xlink">
<g id="graph0" class="graph" transform="scale(1 1) rotate(0) translate(4 157)">
<title>curl_version_info_data</title>
<!-- Node1 -->
<g id="node1" class="node">
<title>Node1</title>
<g id="a_node1"><a xlink:title=" ">
<polygon fill="#bfbfbf" stroke="black" points="135,-0.5 135,-19.5 262,-19.5 262,-0.5 135,-0.5"/>
<text text-anchor="middle" x="198.5" y="-7.5" font-family="Helvetica,sans-Serif" font-size="10.00">curl_version_info_data</text>
</a>
</g>
</g>
<!-- Node2 -->
<g id="node2" class="node">
<title>Node2</title>
<g id="a_node2"><a xlink:title=" ">
<polygon fill="none" stroke="#bfbfbf" points="0,-133.5 0,-152.5 79,-152.5 79,-133.5 0,-133.5"/>
<text text-anchor="middle" x="39.5" y="-140.5" font-family="Helvetica,sans-Serif" font-size="10.00">CURLversion</text>
</a>
</g>
</g>
<!-- Node2&#45;&gt;Node1 -->
<g id="edge1" class="edge">
<title>Node2&#45;&gt;Node1</title>
<path fill="none" stroke="#9a32cd" stroke-dasharray="5,2" d="M43.32,-123.43C49.14,-99.95 62.52,-59.94 89.5,-38 102.36,-27.54 118.69,-21.06 134.78,-17.05"/>
<polygon fill="#9a32cd" stroke="#9a32cd" points="39.84,-122.95 41.04,-133.48 46.67,-124.5 39.84,-122.95"/>
<text text-anchor="middle" x="100.5" y="-74" font-family="Helvetica,sans-Serif" font-size="10.00"> age</text>
</g>
<!-- Node3 -->
<g id="node3" class="node">
<title>Node3</title>
<g id="a_node3"><a xlink:title=" ">
<polygon fill="none" stroke="#bfbfbf" points="97.5,-133.5 97.5,-152.5 135.5,-152.5 135.5,-133.5 97.5,-133.5"/>
<text text-anchor="middle" x="116.5" y="-140.5" font-family="Helvetica,sans-Serif" font-size="10.00">char</text>
</a>
</g>
</g>
<!-- Node3&#45;&gt;Node1 -->
<g id="edge2" class="edge">
<title>Node3&#45;&gt;Node1</title>
<path fill="none" stroke="#9a32cd" stroke-dasharray="5,2" d="M114.92,-123.37C114.02,-100.74 115.92,-62.55 135.5,-38 142.33,-29.44 152.38,-23.55 162.47,-19.51"/>
<polygon fill="#9a32cd" stroke="#9a32cd" points="111.43,-123.6 115.54,-133.37 118.42,-123.17 111.43,-123.6"/>
<text text-anchor="middle" x="165" y="-107" font-family="Helvetica,sans-Serif" font-size="10.00"> host</text>
<text text-anchor="middle" x="165" y="-96" font-family="Helvetica,sans-Serif" font-size="10.00">ssl_version</text>
<text text-anchor="middle" x="165" y="-85" font-family="Helvetica,sans-Serif" font-size="10.00">libz_version</text>
<text text-anchor="middle" x="165" y="-74" font-family="Helvetica,sans-Serif" font-size="10.00">version</text>
<text text-anchor="middle" x="165" y="-63" font-family="Helvetica,sans-Serif" font-size="10.00">libidn</text>
<text text-anchor="middle" x="165" y="-52" font-family="Helvetica,sans-Serif" font-size="10.00">ares</text>
<text text-anchor="middle" x="165" y="-41" font-family="Helvetica,sans-Serif" font-size="10.00">protocols</text>
</g>
<!-- Node4 -->
<g id="node4" class="node">
<title>Node4</title>
<g id="a_node4"><a xlink:title=" ">
<polygon fill="none" stroke="#bfbfbf" points="184,-133.5 184,-152.5 213,-152.5 213,-133.5 184,-133.5"/>
<text text-anchor="middle" x="198.5" y="-140.5" font-family="Helvetica,sans-Serif" font-size="10.00">int</text>
</a>
</g>
</g>
<!-- Node4&#45;&gt;Node1 -->
<g id="edge3" class="edge">
<title>Node4&#45;&gt;Node1</title>
<path fill="none" stroke="#9a32cd" stroke-dasharray="5,2" d="M198.5,-123.09C198.5,-94.36 198.5,-40.82 198.5,-19.8"/>
<polygon fill="#9a32cd" stroke="#9a32cd" points="195,-123.4 198.5,-133.4 202,-123.4 195,-123.4"/>
<text text-anchor="middle" x="236" y="-85" font-family="Helvetica,sans-Serif" font-size="10.00"> features</text>
<text text-anchor="middle" x="236" y="-74" font-family="Helvetica,sans-Serif" font-size="10.00">iconv_ver_num</text>
<text text-anchor="middle" x="236" y="-63" font-family="Helvetica,sans-Serif" font-size="10.00">ares_num</text>
</g>
<!-- Node5 -->
<g id="node5" class="node">
<title>Node5</title>
<g id="a_node5"><a xlink:title=" ">
<polygon fill="none" stroke="#bfbfbf" points="277.5,-133.5 277.5,-152.5 315.5,-152.5 315.5,-133.5 277.5,-133.5"/>
<text text-anchor="middle" x="296.5" y="-140.5" font-family="Helvetica,sans-Serif" font-size="10.00">long</text>
</a>
</g>
</g>
<!-- Node5&#45;&gt;Node1 -->
<g id="edge4" class="edge">
<title>Node5&#45;&gt;Node1</title>
<path fill="none" stroke="#9a32cd" stroke-dasharray="5,2" d="M294.7,-123C291.83,-96.55 285.41,-50.46 274.5,-38 267.03,-29.47 256.68,-23.63 246.02,-19.64"/>
<polygon fill="#9a32cd" stroke="#9a32cd" points="291.25,-123.69 295.74,-133.28 298.22,-122.98 291.25,-123.69"/>
<text text-anchor="middle" x="336" y="-74" font-family="Helvetica,sans-Serif" font-size="10.00"> ssl_version_num</text>
</g>
<!-- Node6 -->
<g id="node6" class="node">
<title>Node6</title>
<g id="a_node6"><a xlink:title=" ">
<polygon fill="none" stroke="#bfbfbf" points="374,-133.5 374,-152.5 435,-152.5 435,-133.5 374,-133.5"/>
<text text-anchor="middle" x="404.5" y="-140.5" font-family="Helvetica,sans-Serif" font-size="10.00">unsigned</text>
</a>
</g>
</g>
<!-- Node6&#45;&gt;Node1 -->
<g id="edge5" class="edge">
<title>Node6&#45;&gt;Node1</title>
<path fill="none" stroke="#9a32cd" stroke-dasharray="5,2" d="M406.39,-123.43C407.65,-99.94 405.85,-59.93 382.5,-38 365.38,-21.92 308.28,-15.4 262.18,-12.76"/>
<polygon fill="#9a32cd" stroke="#9a32cd" points="402.89,-123.23 405.6,-133.48 409.87,-123.78 402.89,-123.23"/>
<text text-anchor="middle" x="440" y="-74" font-family="Helvetica,sans-Serif" font-size="10.00"> version_num</text>
</g>
</g>
</svg>
