<?xml version="1.0" encoding="UTF-8" standalone="no"?>
<!DOCTYPE svg PUBLIC "-//W3C//DTD SVG 1.1//EN"
 "http://www.w3.org/Graphics/SVG/1.1/DTD/svg11.dtd">
<!-- Generated by graphviz version 2.43.0 (0)
 -->
<!-- Title: tagRASDIALDLG Pages: 1 -->
<svg width="235pt" height="150pt"
 viewBox="0.00 0.00 234.50 150.00" xmlns="http://www.w3.org/2000/svg" xmlns:xlink="http://www.w3.org/1999/xlink">
<g id="graph0" class="graph" transform="scale(1 1) rotate(0) translate(4 146)">
<title>tagRASDIALDLG</title>
<!-- Node1 -->
<g id="node1" class="node">
<title>Node1</title>
<g id="a_node1"><a xlink:title=" ">
<polygon fill="#bfbfbf" stroke="black" points="61,-0.5 61,-19.5 156,-19.5 156,-0.5 61,-0.5"/>
<text text-anchor="middle" x="108.5" y="-7.5" font-family="Helvetica,sans-Serif" font-size="10.00">tagRASDIALDLG</text>
</a>
</g>
</g>
<!-- Node2 -->
<g id="node2" class="node">
<title>Node2</title>
<g id="a_node2"><a xlink:title=" ">
<polygon fill="none" stroke="#bfbfbf" points="0,-122.5 0,-141.5 49,-141.5 49,-122.5 0,-122.5"/>
<text text-anchor="middle" x="24.5" y="-129.5" font-family="Helvetica,sans-Serif" font-size="10.00">HWND</text>
</a>
</g>
</g>
<!-- Node2&#45;&gt;Node1 -->
<g id="edge1" class="edge">
<title>Node2&#45;&gt;Node1</title>
<path fill="none" stroke="#9a32cd" stroke-dasharray="5,2" d="M23.44,-112.22C23.3,-91.73 26.16,-59.04 43.5,-38 50.49,-29.51 60.6,-23.66 70.78,-19.63"/>
<polygon fill="#9a32cd" stroke="#9a32cd" points="19.95,-112.57 23.77,-122.45 26.95,-112.34 19.95,-112.57"/>
<text text-anchor="middle" x="74" y="-68.5" font-family="Helvetica,sans-Serif" font-size="10.00"> hwndOwner</text>
</g>
<!-- Node3 -->
<g id="node3" class="node">
<title>Node3</title>
<g id="a_node3"><a xlink:title=" ">
<polygon fill="none" stroke="#bfbfbf" points="89.5,-122.5 89.5,-141.5 127.5,-141.5 127.5,-122.5 89.5,-122.5"/>
<text text-anchor="middle" x="108.5" y="-129.5" font-family="Helvetica,sans-Serif" font-size="10.00">long</text>
</a>
</g>
</g>
<!-- Node3&#45;&gt;Node1 -->
<g id="edge2" class="edge">
<title>Node3&#45;&gt;Node1</title>
<path fill="none" stroke="#9a32cd" stroke-dasharray="5,2" d="M108.5,-112.15C108.5,-85.72 108.5,-38.76 108.5,-19.55"/>
<polygon fill="#9a32cd" stroke="#9a32cd" points="105,-112.37 108.5,-122.37 112,-112.37 105,-112.37"/>
<text text-anchor="middle" x="121.5" y="-74" font-family="Helvetica,sans-Serif" font-size="10.00"> yDlg</text>
<text text-anchor="middle" x="121.5" y="-63" font-family="Helvetica,sans-Serif" font-size="10.00">xDlg</text>
</g>
<!-- Node4 -->
<g id="node4" class="node">
<title>Node4</title>
<g id="a_node4"><a xlink:title=" ">
<polygon fill="none" stroke="#bfbfbf" points="146,-122.5 146,-141.5 207,-141.5 207,-122.5 146,-122.5"/>
<text text-anchor="middle" x="176.5" y="-129.5" font-family="Helvetica,sans-Serif" font-size="10.00">unsigned</text>
</a>
</g>
</g>
<!-- Node4&#45;&gt;Node1 -->
<g id="edge3" class="edge">
<title>Node4&#45;&gt;Node1</title>
<path fill="none" stroke="#9a32cd" stroke-dasharray="5,2" d="M171.66,-112.58C165.89,-92.9 154.93,-61.36 138.5,-38 133.58,-31.01 126.54,-24.55 120.51,-19.7"/>
<polygon fill="#9a32cd" stroke="#9a32cd" points="168.34,-113.72 174.39,-122.41 175.08,-111.84 168.34,-113.72"/>
<text text-anchor="middle" x="197.5" y="-96" font-family="Helvetica,sans-Serif" font-size="10.00"> reserved</text>
<text text-anchor="middle" x="197.5" y="-85" font-family="Helvetica,sans-Serif" font-size="10.00">dwSubEntry</text>
<text text-anchor="middle" x="197.5" y="-74" font-family="Helvetica,sans-Serif" font-size="10.00">dwSize</text>
<text text-anchor="middle" x="197.5" y="-63" font-family="Helvetica,sans-Serif" font-size="10.00">reserved2</text>
<text text-anchor="middle" x="197.5" y="-52" font-family="Helvetica,sans-Serif" font-size="10.00">dwFlags</text>
<text text-anchor="middle" x="197.5" y="-41" font-family="Helvetica,sans-Serif" font-size="10.00">dwError</text>
</g>
</g>
</svg>
