<?xml version="1.0" encoding="UTF-8" standalone="no"?>
<!DOCTYPE svg PUBLIC "-//W3C//DTD SVG 1.1//EN"
 "http://www.w3.org/Graphics/SVG/1.1/DTD/svg11.dtd">
<!-- Generated by graphviz version 2.43.0 (0)
 -->
<!-- Title: _QUERY_SERVICE_LOCK_STATUSW Pages: 1 -->
<svg width="213pt" height="117pt"
 viewBox="0.00 0.00 212.50 117.00" xmlns="http://www.w3.org/2000/svg" xmlns:xlink="http://www.w3.org/1999/xlink">
<g id="graph0" class="graph" transform="scale(1 1) rotate(0) translate(4 113)">
<title>_QUERY_SERVICE_LOCK_STATUSW</title>
<!-- Node1 -->
<g id="node1" class="node">
<title>Node1</title>
<g id="a_node1"><a xlink:title=" ">
<polygon fill="#bfbfbf" stroke="black" points="24,-0.5 24,-30.5 157,-30.5 157,-0.5 24,-0.5"/>
<text text-anchor="start" x="32" y="-18.5" font-family="Helvetica,sans-Serif" font-size="10.00">_QUERY_SERVICE_LOCK</text>
<text text-anchor="middle" x="90.5" y="-7.5" font-family="Helvetica,sans-Serif" font-size="10.00">_STATUSW</text>
</a>
</g>
</g>
<!-- Node2 -->
<g id="node2" class="node">
<title>Node2</title>
<g id="a_node2"><a xlink:title=" ">
<polygon fill="none" stroke="#bfbfbf" points="0,-89.5 0,-108.5 89,-108.5 89,-89.5 0,-89.5"/>
<text text-anchor="middle" x="44.5" y="-96.5" font-family="Helvetica,sans-Serif" font-size="10.00">unsigned short</text>
</a>
</g>
</g>
<!-- Node2&#45;&gt;Node1 -->
<g id="edge1" class="edge">
<title>Node2&#45;&gt;Node1</title>
<path fill="none" stroke="#9a32cd" stroke-dasharray="5,2" d="M42.56,-79.35C42.39,-69.75 43.53,-58.17 48.5,-49 52.46,-41.71 58.82,-35.52 65.41,-30.57"/>
<polygon fill="#9a32cd" stroke="#9a32cd" points="39.08,-79.69 43.21,-89.44 46.06,-79.24 39.08,-79.69"/>
<text text-anchor="middle" x="82" y="-57.5" font-family="Helvetica,sans-Serif" font-size="10.00"> lpLockOwner</text>
</g>
<!-- Node3 -->
<g id="node3" class="node">
<title>Node3</title>
<g id="a_node3"><a xlink:title=" ">
<polygon fill="none" stroke="#bfbfbf" points="107,-89.5 107,-108.5 168,-108.5 168,-89.5 107,-89.5"/>
<text text-anchor="middle" x="137.5" y="-96.5" font-family="Helvetica,sans-Serif" font-size="10.00">unsigned</text>
</a>
</g>
</g>
<!-- Node3&#45;&gt;Node1 -->
<g id="edge2" class="edge">
<title>Node3&#45;&gt;Node1</title>
<path fill="none" stroke="#9a32cd" stroke-dasharray="5,2" d="M130.53,-79.82C126.61,-70.36 121.34,-58.77 115.5,-49 111.7,-42.65 106.86,-36.09 102.46,-30.55"/>
<polygon fill="#9a32cd" stroke="#9a32cd" points="127.39,-81.38 134.34,-89.38 133.89,-78.79 127.39,-81.38"/>
<text text-anchor="middle" x="165" y="-63" font-family="Helvetica,sans-Serif" font-size="10.00"> fIsLocked</text>
<text text-anchor="middle" x="165" y="-52" font-family="Helvetica,sans-Serif" font-size="10.00">dwLockDuration</text>
</g>
</g>
</svg>
