<?xml version="1.0" encoding="UTF-8" standalone="no"?>
<!DOCTYPE svg PUBLIC "-//W3C//DTD SVG 1.1//EN"
 "http://www.w3.org/Graphics/SVG/1.1/DTD/svg11.dtd">
<!-- Generated by graphviz version 2.43.0 (0)
 -->
<!-- Title: FontCollection Pages: 1 -->
<svg width="324pt" height="95pt"
 viewBox="0.00 0.00 323.50 95.00" xmlns="http://www.w3.org/2000/svg" xmlns:xlink="http://www.w3.org/1999/xlink">
<g id="graph0" class="graph" transform="scale(1 1) rotate(0) translate(4 91)">
<title>FontCollection</title>
<!-- Node1 -->
<g id="node1" class="node">
<title>Node1</title>
<g id="a_node1"><a xlink:title=" ">
<polygon fill="#bfbfbf" stroke="black" points="106.5,-0.5 106.5,-19.5 192.5,-19.5 192.5,-0.5 106.5,-0.5"/>
<text text-anchor="middle" x="149.5" y="-7.5" font-family="Helvetica,sans-Serif" font-size="10.00">FontCollection</text>
</a>
</g>
</g>
<!-- Node2 -->
<g id="node2" class="node">
<title>Node2</title>
<g id="a_node2"><a xlink:href="../../d5/db2/classGdiplusBase.html" target="_top" xlink:title=" ">
<polygon fill="none" stroke="black" points="0,-67.5 0,-86.5 77,-86.5 77,-67.5 0,-67.5"/>
<text text-anchor="middle" x="38.5" y="-74.5" font-family="Helvetica,sans-Serif" font-size="10.00">GdiplusBase</text>
</a>
</g>
</g>
<!-- Node2&#45;&gt;Node1 -->
<g id="edge1" class="edge">
<title>Node2&#45;&gt;Node1</title>
<path fill="none" stroke="midnightblue" d="M62.21,-62.12C84.2,-49.24 116.24,-30.48 134.77,-19.63"/>
<polygon fill="midnightblue" stroke="midnightblue" points="60.33,-59.16 53.47,-67.23 63.87,-65.2 60.33,-59.16"/>
</g>
<!-- Node3 -->
<g id="node3" class="node">
<title>Node3</title>
<g id="a_node3"><a xlink:title=" ">
<polygon fill="none" stroke="#bfbfbf" points="95.5,-67.5 95.5,-86.5 203.5,-86.5 203.5,-67.5 95.5,-67.5"/>
<text text-anchor="middle" x="149.5" y="-74.5" font-family="Helvetica,sans-Serif" font-size="10.00">GpFontCollection *</text>
</a>
</g>
</g>
<!-- Node3&#45;&gt;Node1 -->
<g id="edge2" class="edge">
<title>Node3&#45;&gt;Node1</title>
<path fill="none" stroke="#9a32cd" stroke-dasharray="5,2" d="M149.5,-57.04C149.5,-44.67 149.5,-29.12 149.5,-19.63"/>
<polygon fill="#9a32cd" stroke="#9a32cd" points="146,-57.23 149.5,-67.23 153,-57.23 146,-57.23"/>
<text text-anchor="middle" x="201.5" y="-41" font-family="Helvetica,sans-Serif" font-size="10.00"> nativeFontCollection</text>
</g>
<!-- Node4 -->
<g id="node4" class="node">
<title>Node4</title>
<g id="a_node4"><a xlink:title=" ">
<polygon fill="none" stroke="#bfbfbf" points="253,-67.5 253,-86.5 300,-86.5 300,-67.5 253,-67.5"/>
<text text-anchor="middle" x="276.5" y="-74.5" font-family="Helvetica,sans-Serif" font-size="10.00">Status</text>
</a>
</g>
</g>
<!-- Node4&#45;&gt;Node1 -->
<g id="edge3" class="edge">
<title>Node4&#45;&gt;Node1</title>
<path fill="none" stroke="#9a32cd" stroke-dasharray="5,2" d="M269.6,-57.74C266.08,-50.63 261.11,-43.01 254.5,-38 236.8,-24.58 213.11,-17.79 192.71,-14.38"/>
<polygon fill="#9a32cd" stroke="#9a32cd" points="266.6,-59.6 273.76,-67.41 273.03,-56.84 266.6,-59.6"/>
<text text-anchor="middle" x="289.5" y="-41" font-family="Helvetica,sans-Serif" font-size="10.00"> lastStatus</text>
</g>
</g>
</svg>
