<?xml version="1.0" encoding="UTF-8" standalone="no"?>
<!DOCTYPE svg PUBLIC "-//W3C//DTD SVG 1.1//EN"
 "http://www.w3.org/Graphics/SVG/1.1/DTD/svg11.dtd">
<!-- Generated by graphviz version 2.43.0 (0)
 -->
<!-- Title: _VIDEO_POINTER_ATTRIBUTES Pages: 1 -->
<svg width="345pt" height="161pt"
 viewBox="0.00 0.00 344.50 161.00" xmlns="http://www.w3.org/2000/svg" xmlns:xlink="http://www.w3.org/1999/xlink">
<g id="graph0" class="graph" transform="scale(1 1) rotate(0) translate(4 157)">
<title>_VIDEO_POINTER_ATTRIBUTES</title>
<!-- Node1 -->
<g id="node1" class="node">
<title>Node1</title>
<g id="a_node1"><a xlink:title=" ">
<polygon fill="#bfbfbf" stroke="black" points="6.5,-0.5 6.5,-19.5 172.5,-19.5 172.5,-0.5 6.5,-0.5"/>
<text text-anchor="middle" x="89.5" y="-7.5" font-family="Helvetica,sans-Serif" font-size="10.00">_VIDEO_POINTER_ATTRIBUTES</text>
</a>
</g>
</g>
<!-- Node2 -->
<g id="node2" class="node">
<title>Node2</title>
<g id="a_node2"><a xlink:title=" ">
<polygon fill="none" stroke="#bfbfbf" points="0,-122.5 0,-141.5 41,-141.5 41,-122.5 0,-122.5"/>
<text text-anchor="middle" x="20.5" y="-129.5" font-family="Helvetica,sans-Serif" font-size="10.00">short</text>
</a>
</g>
</g>
<!-- Node2&#45;&gt;Node1 -->
<g id="edge1" class="edge">
<title>Node2&#45;&gt;Node1</title>
<path fill="none" stroke="#9a32cd" stroke-dasharray="5,2" d="M21.21,-112.31C22.85,-92.15 28.08,-59.99 44.5,-38 50.39,-30.12 59.32,-24.08 67.67,-19.73"/>
<polygon fill="#9a32cd" stroke="#9a32cd" points="17.71,-112.19 20.61,-122.38 24.7,-112.61 17.71,-112.19"/>
<text text-anchor="middle" x="65" y="-68.5" font-family="Helvetica,sans-Serif" font-size="10.00"> Column</text>
<text text-anchor="middle" x="65" y="-57.5" font-family="Helvetica,sans-Serif" font-size="10.00">Row</text>
</g>
<!-- Node3 -->
<g id="node3" class="node">
<title>Node3</title>
<g id="a_node3"><a xlink:title=" ">
<polygon fill="none" stroke="#bfbfbf" points="59,-122.5 59,-141.5 120,-141.5 120,-122.5 59,-122.5"/>
<text text-anchor="middle" x="89.5" y="-129.5" font-family="Helvetica,sans-Serif" font-size="10.00">unsigned</text>
</a>
</g>
</g>
<!-- Node3&#45;&gt;Node1 -->
<g id="edge2" class="edge">
<title>Node3&#45;&gt;Node1</title>
<path fill="none" stroke="#9a32cd" stroke-dasharray="5,2" d="M89.5,-112.15C89.5,-85.72 89.5,-38.76 89.5,-19.55"/>
<polygon fill="#9a32cd" stroke="#9a32cd" points="86,-112.37 89.5,-122.37 93,-112.37 86,-112.37"/>
<text text-anchor="middle" x="105.5" y="-63" font-family="Helvetica,sans-Serif" font-size="10.00"> Pixels</text>
</g>
<!-- Node4 -->
<g id="node4" class="node">
<title>Node4</title>
<g id="a_node4"><a xlink:title=" ">
<polygon fill="none" stroke="#bfbfbf" points="138.5,-111.5 138.5,-152.5 336.5,-152.5 336.5,-111.5 138.5,-111.5"/>
<text text-anchor="start" x="146.5" y="-140.5" font-family="Helvetica,sans-Serif" font-size="10.00">PSecurityUserData *typedef</text>
<text text-anchor="start" x="146.5" y="-129.5" font-family="Helvetica,sans-Serif" font-size="10.00"> PSECPKG_EXTENDED_INFORMATION</text>
<text text-anchor="middle" x="237.5" y="-118.5" font-family="Helvetica,sans-Serif" font-size="10.00"> *typedef</text>
</a>
</g>
</g>
<!-- Node4&#45;&gt;Node1 -->
<g id="edge3" class="edge">
<title>Node4&#45;&gt;Node1</title>
<path fill="none" stroke="#9a32cd" stroke-dasharray="5,2" d="M206.8,-104.81C184.48,-85.95 153.42,-60.04 125.5,-38 117.53,-31.71 108.37,-24.84 101.28,-19.61"/>
<polygon fill="#9a32cd" stroke="#9a32cd" points="204.71,-107.63 214.61,-111.43 209.24,-102.29 204.71,-107.63"/>
<text text-anchor="middle" x="224.5" y="-85" font-family="Helvetica,sans-Serif" font-size="10.00"> Enable</text>
<text text-anchor="middle" x="224.5" y="-74" font-family="Helvetica,sans-Serif" font-size="10.00">Width</text>
<text text-anchor="middle" x="224.5" y="-63" font-family="Helvetica,sans-Serif" font-size="10.00">Flags</text>
<text text-anchor="middle" x="224.5" y="-52" font-family="Helvetica,sans-Serif" font-size="10.00">Height</text>
<text text-anchor="middle" x="224.5" y="-41" font-family="Helvetica,sans-Serif" font-size="10.00">WidthInBytes</text>
</g>
</g>
</svg>
