<?xml version="1.0" encoding="UTF-8" standalone="no"?>
<!DOCTYPE svg PUBLIC "-//W3C//DTD SVG 1.1//EN"
 "http://www.w3.org/Graphics/SVG/1.1/DTD/svg11.dtd">
<!-- Generated by graphviz version 2.43.0 (0)
 -->
<!-- Title: Tools/MinGW/include/strings.h Pages: 1 -->
<svg width="146pt" height="151pt"
 viewBox="0.00 0.00 145.50 151.00" xmlns="http://www.w3.org/2000/svg" xmlns:xlink="http://www.w3.org/1999/xlink">
<g id="graph0" class="graph" transform="scale(1 1) rotate(0) translate(4 147)">
<title>Tools/MinGW/include/strings.h</title>
<!-- Node1 -->
<g id="node1" class="node">
<title>Node1</title>
<g id="a_node1"><a xlink:title=" ">
<polygon fill="#bfbfbf" stroke="black" points="11.5,-112.5 11.5,-142.5 129.5,-142.5 129.5,-112.5 11.5,-112.5"/>
<text text-anchor="start" x="19.5" y="-130.5" font-family="Helvetica,sans-Serif" font-size="10.00">Tools/MinGW/include</text>
<text text-anchor="middle" x="70.5" y="-119.5" font-family="Helvetica,sans-Serif" font-size="10.00">/strings.h</text>
</a>
</g>
</g>
<!-- Node2 -->
<g id="node2" class="node">
<title>Node2</title>
<g id="a_node2"><a xlink:href="../../d7/de6/include_2string_8h.html" target="_top" xlink:title=" ">
<polygon fill="none" stroke="black" points="44,-56.5 44,-75.5 97,-75.5 97,-56.5 44,-56.5"/>
<text text-anchor="middle" x="70.5" y="-63.5" font-family="Helvetica,sans-Serif" font-size="10.00">string.h</text>
</a>
</g>
</g>
<!-- Node1&#45;&gt;Node2 -->
<g id="edge1" class="edge">
<title>Node1&#45;&gt;Node2</title>
<path fill="none" stroke="midnightblue" d="M70.5,-112.4C70.5,-104.47 70.5,-94.46 70.5,-85.86"/>
<polygon fill="midnightblue" stroke="midnightblue" points="74,-85.66 70.5,-75.66 67,-85.66 74,-85.66"/>
</g>
<!-- Node3 -->
<g id="node3" class="node">
<title>Node3</title>
<g id="a_node3"><a xlink:href="../../da/d3d/__mingw_8h.html" target="_top" xlink:title=" ">
<polygon fill="none" stroke="black" points="0,-0.5 0,-19.5 63,-19.5 63,-0.5 0,-0.5"/>
<text text-anchor="middle" x="31.5" y="-7.5" font-family="Helvetica,sans-Serif" font-size="10.00">_mingw.h</text>
</a>
</g>
</g>
<!-- Node2&#45;&gt;Node3 -->
<g id="edge2" class="edge">
<title>Node2&#45;&gt;Node3</title>
<path fill="none" stroke="midnightblue" d="M64.06,-56.08C58.55,-48.46 50.47,-37.26 43.74,-27.94"/>
<polygon fill="midnightblue" stroke="midnightblue" points="46.51,-25.81 37.82,-19.75 40.84,-29.91 46.51,-25.81"/>
</g>
<!-- Node4 -->
<g id="node4" class="node">
<title>Node4</title>
<g id="a_node4"><a xlink:href="../../d3/dce/stddef_8h.html" target="_top" xlink:title=" ">
<polygon fill="none" stroke="black" points="81.5,-0.5 81.5,-19.5 137.5,-19.5 137.5,-0.5 81.5,-0.5"/>
<text text-anchor="middle" x="109.5" y="-7.5" font-family="Helvetica,sans-Serif" font-size="10.00">stddef.h</text>
</a>
</g>
</g>
<!-- Node2&#45;&gt;Node4 -->
<g id="edge3" class="edge">
<title>Node2&#45;&gt;Node4</title>
<path fill="none" stroke="midnightblue" d="M76.94,-56.08C82.45,-48.46 90.53,-37.26 97.26,-27.94"/>
<polygon fill="midnightblue" stroke="midnightblue" points="100.16,-29.91 103.18,-19.75 94.49,-25.81 100.16,-29.91"/>
</g>
</g>
</svg>
