<?xml version="1.0" encoding="UTF-8" standalone="no"?>
<!DOCTYPE svg PUBLIC "-//W3C//DTD SVG 1.1//EN"
 "http://www.w3.org/Graphics/SVG/1.1/DTD/svg11.dtd">
<!-- Generated by graphviz version 2.43.0 (0)
 -->
<!-- Title: Source/Engine/renderer/tr_image_jpg.c Pages: 1 -->
<!--zoomable 263 -->
<svg id="main" version="1.1" xmlns="http://www.w3.org/2000/svg" xmlns:xlink="http://www.w3.org/1999/xlink" xml:space="preserve" onload="init(evt)">
<style type="text/css"><![CDATA[
.edge:hover path { stroke: red; }
.edge:hover polygon { stroke: red; fill: red; }
]]></style>
<script type="text/javascript"><![CDATA[
var edges = document.getElementsByTagName('g');
if (edges && edges.length) {
  for (var i=0;i<edges.length;i++) {
    if (edges[i].id.substr(0,4)=='edge') {
      edges[i].setAttribute('class','edge');
    }
  }
}
]]></script>
        <defs>
                <circle id="rim" cx="0" cy="0" r="7"/>
                <circle id="rim2" cx="0" cy="0" r="3.5"/>
                <g id="zoomPlus">
                        <use xlink:href="#rim" fill="#404040">
                                <set attributeName="fill" to="#808080" begin="zoomplus.mouseover" end="zoomplus.mouseout"/>
                        </use>
                        <path d="M-4,0h8M0,-4v8" fill="none" stroke="white" stroke-width="1.5" pointer-events="none"/>
                </g>
                <g id="zoomMin">
                        <use xlink:href="#rim" fill="#404040">
                                <set attributeName="fill" to="#808080" begin="zoomminus.mouseover" end="zoomminus.mouseout"/>
                        </use>
                        <path d="M-4,0h8" fill="none" stroke="white" stroke-width="1.5" pointer-events="none"/>
                </g>
                <g id="dirArrow">
                        <path fill="none" stroke="white" stroke-width="1.5" d="M0,-3.0v7 M-2.5,-0.5L0,-3.0L2.5,-0.5"/>
                </g>
               <g id="resetDef">
                       <use xlink:href="#rim2" fill="#404040">
                               <set attributeName="fill" to="#808080" begin="reset.mouseover" end="reset.mouseout"/>
                       </use>
               </g>
        </defs>

<script type="text/javascript">
var viewWidth = 1254;
var viewHeight = 263;
var sectionId = 'dynsection-0';
</script>
<script xlink:href="../../svgpan.js"/>
<svg id="graph" class="graph">
<g id="viewport">
<title>Source/Engine/renderer/tr_image_jpg.c</title>
<!-- Node1 -->
<g id="node1" class="node">
<title>Node1</title>
<g id="a_node1"><a xlink:title=" ">
<polygon fill="#bfbfbf" stroke="black" points="1005,-224.5 1005,-254.5 1135,-254.5 1135,-224.5 1005,-224.5"/>
<text text-anchor="start" x="1013" y="-242.5" font-family="Helvetica,sans-Serif" font-size="10.00">Source/Engine/renderer</text>
<text text-anchor="middle" x="1070" y="-231.5" font-family="Helvetica,sans-Serif" font-size="10.00">/tr_image_jpg.c</text>
</a>
</g>
</g>
<!-- Node2 -->
<g id="node2" class="node">
<title>Node2</title>
<g id="a_node2"><a xlink:href="../../dd/db7/Source_2Engine_2renderer_2tr__local_8h.html" target="_top" xlink:title=" ">
<polygon fill="none" stroke="black" points="1000,-168.5 1000,-187.5 1062,-187.5 1062,-168.5 1000,-168.5"/>
<text text-anchor="middle" x="1031" y="-175.5" font-family="Helvetica,sans-Serif" font-size="10.00">tr_local.h</text>
</a>
</g>
</g>
<!-- Node1&#45;&gt;Node2 -->
<g id="edge1" class="edge">
<title>Node1&#45;&gt;Node2</title>
<path fill="none" stroke="midnightblue" d="M1060.76,-224.4C1055.21,-215.93 1048.11,-205.1 1042.23,-196.14"/>
<polygon fill="midnightblue" stroke="midnightblue" points="1045.08,-194.1 1036.67,-187.66 1039.23,-197.94 1045.08,-194.1"/>
</g>
<!-- Node25 -->
<g id="node25" class="node">
<title>Node25</title>
<g id="a_node25"><a xlink:title=" ">
<polygon fill="none" stroke="#bfbfbf" points="1080.5,-168.5 1080.5,-187.5 1139.5,-187.5 1139.5,-168.5 1080.5,-168.5"/>
<text text-anchor="middle" x="1110" y="-175.5" font-family="Helvetica,sans-Serif" font-size="10.00">jpeglib.h</text>
</a>
</g>
</g>
<!-- Node1&#45;&gt;Node25 -->
<g id="edge24" class="edge">
<title>Node1&#45;&gt;Node25</title>
<path fill="none" stroke="midnightblue" d="M1079.48,-224.4C1085.17,-215.93 1092.45,-205.1 1098.48,-196.14"/>
<polygon fill="midnightblue" stroke="midnightblue" points="1101.51,-197.91 1104.18,-187.66 1095.7,-194 1101.51,-197.91"/>
</g>
<!-- Node3 -->
<g id="node3" class="node">
<title>Node3</title>
<g id="a_node3"><a xlink:href="../../d3/d14/Source_2Shared_2q__shared_8h.html" target="_top" xlink:title=" ">
<polygon fill="none" stroke="black" points="390.5,-112.5 390.5,-131.5 515.5,-131.5 515.5,-112.5 390.5,-112.5"/>
<text text-anchor="middle" x="453" y="-119.5" font-family="Helvetica,sans-Serif" font-size="10.00">../../Shared/q_shared.h</text>
</a>
</g>
</g>
<!-- Node2&#45;&gt;Node3 -->
<g id="edge2" class="edge">
<title>Node2&#45;&gt;Node3</title>
<path fill="none" stroke="midnightblue" d="M999.92,-174.1C910.89,-165.78 653.1,-141.69 525.83,-129.8"/>
<polygon fill="midnightblue" stroke="midnightblue" points="526.07,-126.31 515.78,-128.87 525.42,-133.28 526.07,-126.31"/>
</g>
<!-- Node16 -->
<g id="node16" class="node">
<title>Node16</title>
<g id="a_node16"><a xlink:href="../../dd/dfd/Source_2Shared_2qfiles_8h.html" target="_top" xlink:title=" ">
<polygon fill="none" stroke="black" points="783.5,-112.5 783.5,-131.5 890.5,-131.5 890.5,-112.5 783.5,-112.5"/>
<text text-anchor="middle" x="837" y="-119.5" font-family="Helvetica,sans-Serif" font-size="10.00">../../Shared/qfiles.h</text>
</a>
</g>
</g>
<!-- Node2&#45;&gt;Node16 -->
<g id="edge15" class="edge">
<title>Node2&#45;&gt;Node16</title>
<path fill="none" stroke="midnightblue" d="M1000.26,-168.44C967.06,-159.2 914.01,-144.44 877.44,-134.26"/>
<polygon fill="midnightblue" stroke="midnightblue" points="878.17,-130.83 867.6,-131.52 876.29,-137.57 878.17,-130.83"/>
</g>
<!-- Node17 -->
<g id="node17" class="node">
<title>Node17</title>
<g id="a_node17"><a xlink:href="../../d2/d6c/Source_2Shared_2qcommon_8h.html" target="_top" xlink:title=" ">
<polygon fill="none" stroke="black" points="908.5,-112.5 908.5,-131.5 1037.5,-131.5 1037.5,-112.5 908.5,-112.5"/>
<text text-anchor="middle" x="973" y="-119.5" font-family="Helvetica,sans-Serif" font-size="10.00">../../Shared/qcommon.h</text>
</a>
</g>
</g>
<!-- Node2&#45;&gt;Node17 -->
<g id="edge16" class="edge">
<title>Node2&#45;&gt;Node17</title>
<path fill="none" stroke="midnightblue" d="M1021.68,-168.32C1013.11,-160.34 1000.19,-148.31 989.81,-138.65"/>
<polygon fill="midnightblue" stroke="midnightblue" points="992.19,-136.09 982.49,-131.83 987.42,-141.21 992.19,-136.09"/>
</g>
<!-- Node20 -->
<g id="node20" class="node">
<title>Node20</title>
<g id="a_node20"><a xlink:href="../../d2/d42/Source_2Engine_2renderer_2tr__public_8h.html" target="_top" xlink:title=" ">
<polygon fill="none" stroke="black" points="1056,-112.5 1056,-131.5 1124,-131.5 1124,-112.5 1056,-112.5"/>
<text text-anchor="middle" x="1090" y="-119.5" font-family="Helvetica,sans-Serif" font-size="10.00">tr_public.h</text>
</a>
</g>
</g>
<!-- Node2&#45;&gt;Node20 -->
<g id="edge19" class="edge">
<title>Node2&#45;&gt;Node20</title>
<path fill="none" stroke="midnightblue" d="M1040.48,-168.32C1049.2,-160.34 1062.34,-148.31 1072.9,-138.65"/>
<polygon fill="midnightblue" stroke="midnightblue" points="1075.33,-141.17 1080.35,-131.83 1070.61,-136 1075.33,-141.17"/>
</g>
<!-- Node22 -->
<g id="node22" class="node">
<title>Node22</title>
<g id="a_node22"><a xlink:href="../../df/d00/Source_2Engine_2renderer_2qgl_8h.html" target="_top" xlink:title=" ">
<polygon fill="none" stroke="black" points="1142.5,-112.5 1142.5,-131.5 1183.5,-131.5 1183.5,-112.5 1142.5,-112.5"/>
<text text-anchor="middle" x="1163" y="-119.5" font-family="Helvetica,sans-Serif" font-size="10.00">qgl.h</text>
</a>
</g>
</g>
<!-- Node2&#45;&gt;Node22 -->
<g id="edge21" class="edge">
<title>Node2&#45;&gt;Node22</title>
<path fill="none" stroke="midnightblue" d="M1051.92,-168.44C1073.74,-159.52 1108.15,-145.44 1132.89,-135.32"/>
<polygon fill="midnightblue" stroke="midnightblue" points="1134.25,-138.54 1142.18,-131.52 1131.6,-132.06 1134.25,-138.54"/>
</g>
<!-- Node24 -->
<g id="node24" class="node">
<title>Node24</title>
<g id="a_node24"><a xlink:href="../../d3/d71/Source_2Engine_2renderer_2iqm_8h.html" target="_top" xlink:title=" ">
<polygon fill="none" stroke="black" points="1202,-112.5 1202,-131.5 1246,-131.5 1246,-112.5 1202,-112.5"/>
<text text-anchor="middle" x="1224" y="-119.5" font-family="Helvetica,sans-Serif" font-size="10.00">iqm.h</text>
</a>
</g>
</g>
<!-- Node2&#45;&gt;Node24 -->
<g id="edge23" class="edge">
<title>Node2&#45;&gt;Node24</title>
<path fill="none" stroke="midnightblue" d="M1062.09,-168.48C1092.75,-160.05 1141.19,-146.67 1192.12,-132.23"/>
<polygon fill="midnightblue" stroke="midnightblue" points="1193.33,-135.52 1201.99,-129.42 1191.42,-128.79 1193.33,-135.52"/>
</g>
<!-- Node4 -->
<g id="node4" class="node">
<title>Node4</title>
<g id="a_node4"><a xlink:title=" ">
<polygon fill="none" stroke="#bfbfbf" points="0,-56.5 0,-75.5 56,-75.5 56,-56.5 0,-56.5"/>
<text text-anchor="middle" x="28" y="-63.5" font-family="Helvetica,sans-Serif" font-size="10.00">assert.h</text>
</a>
</g>
</g>
<!-- Node3&#45;&gt;Node4 -->
<g id="edge3" class="edge">
<title>Node3&#45;&gt;Node4</title>
<path fill="none" stroke="midnightblue" d="M390.5,-116.14C315.63,-109.78 186.3,-97.11 66.3,-76.04"/>
<polygon fill="midnightblue" stroke="midnightblue" points="66.66,-72.55 56.21,-74.24 65.44,-79.44 66.66,-72.55"/>
</g>
<!-- Node5 -->
<g id="node5" class="node">
<title>Node5</title>
<g id="a_node5"><a xlink:title=" ">
<polygon fill="none" stroke="#bfbfbf" points="74.5,-56.5 74.5,-75.5 125.5,-75.5 125.5,-56.5 74.5,-56.5"/>
<text text-anchor="middle" x="100" y="-63.5" font-family="Helvetica,sans-Serif" font-size="10.00">math.h</text>
</a>
</g>
</g>
<!-- Node3&#45;&gt;Node5 -->
<g id="edge4" class="edge">
<title>Node3&#45;&gt;Node5</title>
<path fill="none" stroke="midnightblue" d="M390.2,-114.2C328.01,-107 229.9,-94.37 135.54,-75.9"/>
<polygon fill="midnightblue" stroke="midnightblue" points="136.03,-72.43 125.54,-73.92 134.67,-79.29 136.03,-72.43"/>
</g>
<!-- Node6 -->
<g id="node6" class="node">
<title>Node6</title>
<g id="a_node6"><a xlink:title=" ">
<polygon fill="none" stroke="#bfbfbf" points="144,-56.5 144,-75.5 194,-75.5 194,-56.5 144,-56.5"/>
<text text-anchor="middle" x="169" y="-63.5" font-family="Helvetica,sans-Serif" font-size="10.00">stdio.h</text>
</a>
</g>
</g>
<!-- Node3&#45;&gt;Node6 -->
<g id="edge5" class="edge">
<title>Node3&#45;&gt;Node6</title>
<path fill="none" stroke="midnightblue" d="M398.13,-112.43C349.59,-104.56 276.65,-92 204.38,-76.17"/>
<polygon fill="midnightblue" stroke="midnightblue" points="204.72,-72.66 194.2,-73.91 203.2,-79.49 204.72,-72.66"/>
</g>
<!-- Node7 -->
<g id="node7" class="node">
<title>Node7</title>
<g id="a_node7"><a xlink:title=" ">
<polygon fill="none" stroke="#bfbfbf" points="212,-56.5 212,-75.5 268,-75.5 268,-56.5 212,-56.5"/>
<text text-anchor="middle" x="240" y="-63.5" font-family="Helvetica,sans-Serif" font-size="10.00">stdarg.h</text>
</a>
</g>
</g>
<!-- Node3&#45;&gt;Node7 -->
<g id="edge6" class="edge">
<title>Node3&#45;&gt;Node7</title>
<path fill="none" stroke="midnightblue" d="M419.25,-112.44C380.83,-102.7 318.22,-86.83 278.09,-76.66"/>
<polygon fill="midnightblue" stroke="midnightblue" points="278.7,-73.2 268.15,-74.14 276.98,-79.99 278.7,-73.2"/>
</g>
<!-- Node8 -->
<g id="node8" class="node">
<title>Node8</title>
<g id="a_node8"><a xlink:title=" ">
<polygon fill="none" stroke="#bfbfbf" points="286.5,-56.5 286.5,-75.5 339.5,-75.5 339.5,-56.5 286.5,-56.5"/>
<text text-anchor="middle" x="313" y="-63.5" font-family="Helvetica,sans-Serif" font-size="10.00">string.h</text>
</a>
</g>
</g>
<!-- Node3&#45;&gt;Node8 -->
<g id="edge7" class="edge">
<title>Node3&#45;&gt;Node8</title>
<path fill="none" stroke="midnightblue" d="M430.82,-112.44C407.57,-103.48 370.85,-89.31 344.58,-79.18"/>
<polygon fill="midnightblue" stroke="midnightblue" points="345.67,-75.85 335.08,-75.52 343.15,-82.38 345.67,-75.85"/>
</g>
<!-- Node9 -->
<g id="node9" class="node">
<title>Node9</title>
<g id="a_node9"><a xlink:title=" ">
<polygon fill="none" stroke="#bfbfbf" points="357.5,-56.5 357.5,-75.5 410.5,-75.5 410.5,-56.5 357.5,-56.5"/>
<text text-anchor="middle" x="384" y="-63.5" font-family="Helvetica,sans-Serif" font-size="10.00">stdlib.h</text>
</a>
</g>
</g>
<!-- Node3&#45;&gt;Node9 -->
<g id="edge8" class="edge">
<title>Node3&#45;&gt;Node9</title>
<path fill="none" stroke="midnightblue" d="M441.91,-112.32C431.51,-104.18 415.74,-91.84 403.28,-82.09"/>
<polygon fill="midnightblue" stroke="midnightblue" points="405.32,-79.24 395.29,-75.83 401.01,-84.75 405.32,-79.24"/>
</g>
<!-- Node10 -->
<g id="node10" class="node">
<title>Node10</title>
<g id="a_node10"><a xlink:title=" ">
<polygon fill="none" stroke="#bfbfbf" points="429,-56.5 429,-75.5 477,-75.5 477,-56.5 429,-56.5"/>
<text text-anchor="middle" x="453" y="-63.5" font-family="Helvetica,sans-Serif" font-size="10.00">time.h</text>
</a>
</g>
</g>
<!-- Node3&#45;&gt;Node10 -->
<g id="edge9" class="edge">
<title>Node3&#45;&gt;Node10</title>
<path fill="none" stroke="midnightblue" d="M453,-112.08C453,-105.01 453,-94.86 453,-85.99"/>
<polygon fill="midnightblue" stroke="midnightblue" points="456.5,-85.75 453,-75.75 449.5,-85.75 456.5,-85.75"/>
</g>
<!-- Node11 -->
<g id="node11" class="node">
<title>Node11</title>
<g id="a_node11"><a xlink:title=" ">
<polygon fill="none" stroke="#bfbfbf" points="495.5,-56.5 495.5,-75.5 548.5,-75.5 548.5,-56.5 495.5,-56.5"/>
<text text-anchor="middle" x="522" y="-63.5" font-family="Helvetica,sans-Serif" font-size="10.00">ctype.h</text>
</a>
</g>
</g>
<!-- Node3&#45;&gt;Node11 -->
<g id="edge10" class="edge">
<title>Node3&#45;&gt;Node11</title>
<path fill="none" stroke="midnightblue" d="M464.09,-112.32C474.49,-104.18 490.26,-91.84 502.72,-82.09"/>
<polygon fill="midnightblue" stroke="midnightblue" points="504.99,-84.75 510.71,-75.83 500.68,-79.24 504.99,-84.75"/>
</g>
<!-- Node12 -->
<g id="node12" class="node">
<title>Node12</title>
<g id="a_node12"><a xlink:title=" ">
<polygon fill="none" stroke="#bfbfbf" points="566.5,-56.5 566.5,-75.5 619.5,-75.5 619.5,-56.5 566.5,-56.5"/>
<text text-anchor="middle" x="593" y="-63.5" font-family="Helvetica,sans-Serif" font-size="10.00">limits.h</text>
</a>
</g>
</g>
<!-- Node3&#45;&gt;Node12 -->
<g id="edge11" class="edge">
<title>Node3&#45;&gt;Node12</title>
<path fill="none" stroke="midnightblue" d="M475.18,-112.44C498.43,-103.48 535.15,-89.31 561.42,-79.18"/>
<polygon fill="midnightblue" stroke="midnightblue" points="562.85,-82.38 570.92,-75.52 560.33,-75.85 562.85,-82.38"/>
</g>
<!-- Node13 -->
<g id="node13" class="node">
<title>Node13</title>
<g id="a_node13"><a xlink:title=" ">
<polygon fill="none" stroke="#bfbfbf" points="637.5,-56.5 637.5,-75.5 690.5,-75.5 690.5,-56.5 637.5,-56.5"/>
<text text-anchor="middle" x="664" y="-63.5" font-family="Helvetica,sans-Serif" font-size="10.00">stdint.h</text>
</a>
</g>
</g>
<!-- Node3&#45;&gt;Node13 -->
<g id="edge12" class="edge">
<title>Node3&#45;&gt;Node13</title>
<path fill="none" stroke="midnightblue" d="M486.43,-112.44C524.92,-102.59 587.91,-86.47 627.6,-76.32"/>
<polygon fill="midnightblue" stroke="midnightblue" points="628.58,-79.68 637.4,-73.81 626.85,-72.9 628.58,-79.68"/>
</g>
<!-- Node14 -->
<g id="node14" class="node">
<title>Node14</title>
<g id="a_node14"><a xlink:href="../../d3/de7/Source_2Shared_2q__platform_8h.html" target="_top" xlink:title=" ">
<polygon fill="none" stroke="black" points="708.5,-56.5 708.5,-75.5 787.5,-75.5 787.5,-56.5 708.5,-56.5"/>
<text text-anchor="middle" x="748" y="-63.5" font-family="Helvetica,sans-Serif" font-size="10.00">q_platform.h</text>
</a>
</g>
</g>
<!-- Node3&#45;&gt;Node14 -->
<g id="edge13" class="edge">
<title>Node3&#45;&gt;Node14</title>
<path fill="none" stroke="midnightblue" d="M499.7,-112.47C547.06,-103.81 622.75,-89.97 698.25,-76.14"/>
<polygon fill="midnightblue" stroke="midnightblue" points="699.22,-79.52 708.42,-74.27 697.95,-72.63 699.22,-79.52"/>
</g>
<!-- Node15 -->
<g id="node15" class="node">
<title>Node15</title>
<g id="a_node15"><a xlink:href="../../d1/d83/Source_2Shared_2surfaceflags_8h.html" target="_top" xlink:title=" ">
<polygon fill="none" stroke="black" points="805.5,-56.5 805.5,-75.5 890.5,-75.5 890.5,-56.5 805.5,-56.5"/>
<text text-anchor="middle" x="848" y="-63.5" font-family="Helvetica,sans-Serif" font-size="10.00">surfaceflags.h</text>
</a>
</g>
</g>
<!-- Node3&#45;&gt;Node15 -->
<g id="edge14" class="edge">
<title>Node3&#45;&gt;Node15</title>
<path fill="none" stroke="midnightblue" d="M515.7,-113.56C582.4,-105.46 691.26,-91.74 795.39,-76.04"/>
<polygon fill="midnightblue" stroke="midnightblue" points="796.09,-79.47 805.46,-74.51 795.04,-72.55 796.09,-79.47"/>
</g>
<!-- Node18 -->
<g id="node18" class="node">
<title>Node18</title>
<g id="a_node18"><a xlink:href="../../d6/dff/Shared_2cm__public_8h.html" target="_top" xlink:title=" ">
<polygon fill="none" stroke="black" points="909,-56.5 909,-75.5 1039,-75.5 1039,-56.5 909,-56.5"/>
<text text-anchor="middle" x="974" y="-63.5" font-family="Helvetica,sans-Serif" font-size="10.00">../../Shared/cm_public.h</text>
</a>
</g>
</g>
<!-- Node17&#45;&gt;Node18 -->
<g id="edge17" class="edge">
<title>Node17&#45;&gt;Node18</title>
<path fill="none" stroke="midnightblue" d="M973.17,-112.08C973.3,-105.01 973.48,-94.86 973.65,-85.99"/>
<polygon fill="midnightblue" stroke="midnightblue" points="977.15,-85.81 973.84,-75.75 970.15,-85.68 977.15,-85.81"/>
</g>
<!-- Node19 -->
<g id="node19" class="node">
<title>Node19</title>
<g id="a_node19"><a xlink:href="../../dc/d28/Shared_2qfiles_8h.html" target="_top" xlink:title=" ">
<polygon fill="none" stroke="black" points="948,-0.5 948,-19.5 1000,-19.5 1000,-0.5 948,-0.5"/>
<text text-anchor="middle" x="974" y="-7.5" font-family="Helvetica,sans-Serif" font-size="10.00">qfiles.h</text>
</a>
</g>
</g>
<!-- Node18&#45;&gt;Node19 -->
<g id="edge18" class="edge">
<title>Node18&#45;&gt;Node19</title>
<path fill="none" stroke="midnightblue" d="M974,-56.08C974,-49.01 974,-38.86 974,-29.99"/>
<polygon fill="midnightblue" stroke="midnightblue" points="977.5,-29.75 974,-19.75 970.5,-29.75 977.5,-29.75"/>
</g>
<!-- Node21 -->
<g id="node21" class="node">
<title>Node21</title>
<g id="a_node21"><a xlink:href="../../d1/d4a/Source_2Engine_2renderer_2tr__types_8h.html" target="_top" xlink:title=" ">
<polygon fill="none" stroke="black" points="1057.5,-56.5 1057.5,-75.5 1122.5,-75.5 1122.5,-56.5 1057.5,-56.5"/>
<text text-anchor="middle" x="1090" y="-63.5" font-family="Helvetica,sans-Serif" font-size="10.00">tr_types.h</text>
</a>
</g>
</g>
<!-- Node20&#45;&gt;Node21 -->
<g id="edge20" class="edge">
<title>Node20&#45;&gt;Node21</title>
<path fill="none" stroke="midnightblue" d="M1090,-112.08C1090,-105.01 1090,-94.86 1090,-85.99"/>
<polygon fill="midnightblue" stroke="midnightblue" points="1093.5,-85.75 1090,-75.75 1086.5,-85.75 1093.5,-85.75"/>
</g>
<!-- Node23 -->
<g id="node23" class="node">
<title>Node23</title>
<g id="a_node23"><a xlink:title=" ">
<polygon fill="none" stroke="#bfbfbf" points="1140.5,-56.5 1140.5,-75.5 1223.5,-75.5 1223.5,-56.5 1140.5,-56.5"/>
<text text-anchor="middle" x="1182" y="-63.5" font-family="Helvetica,sans-Serif" font-size="10.00">SDL_opengl.h</text>
</a>
</g>
</g>
<!-- Node22&#45;&gt;Node23 -->
<g id="edge22" class="edge">
<title>Node22&#45;&gt;Node23</title>
<path fill="none" stroke="midnightblue" d="M1166.14,-112.08C1168.68,-104.85 1172.36,-94.41 1175.53,-85.4"/>
<polygon fill="midnightblue" stroke="midnightblue" points="1178.9,-86.35 1178.92,-75.75 1172.3,-84.02 1178.9,-86.35"/>
</g>
</g>
</svg>
        <g id="navigator" transform="translate(0 0)" fill="#404254">
                <rect fill="#f2f5e9" fill-opacity="0.5" stroke="#606060" stroke-width=".5" x="0" y="0" width="60" height="60"/>
                <use id="zoomplus" xlink:href="#zoomPlus" x="17" y="9" onmousedown="handleZoom(evt,'in')"/>
                <use id="zoomminus" xlink:href="#zoomMin" x="42" y="9" onmousedown="handleZoom(evt,'out')"/>
                <use id="reset" xlink:href="#resetDef" x="30" y="36" onmousedown="handleReset()"/>
                <g id="arrowUp" xlink:href="#dirArrow" transform="translate(30 24)" onmousedown="handlePan(0,-1)">
                  <use xlink:href="#rim" fill="#404040">
                        <set attributeName="fill" to="#808080" begin="arrowUp.mouseover" end="arrowUp.mouseout"/>
                  </use>
                  <path fill="none" stroke="white" stroke-width="1.5" d="M0,-3.0v7 M-2.5,-0.5L0,-3.0L2.5,-0.5"/>
                </g>
                <g id="arrowRight" xlink:href="#dirArrow" transform="rotate(90) translate(36 -43)" onmousedown="handlePan(1,0)">
                  <use xlink:href="#rim" fill="#404040">
                        <set attributeName="fill" to="#808080" begin="arrowRight.mouseover" end="arrowRight.mouseout"/>
                  </use>
                  <path fill="none" stroke="white" stroke-width="1.5" d="M0,-3.0v7 M-2.5,-0.5L0,-3.0L2.5,-0.5"/>
                </g>
                <g id="arrowDown" xlink:href="#dirArrow" transform="rotate(180) translate(-30 -48)" onmousedown="handlePan(0,1)">
                  <use xlink:href="#rim" fill="#404040">
                        <set attributeName="fill" to="#808080" begin="arrowDown.mouseover" end="arrowDown.mouseout"/>
                  </use>
                  <path fill="none" stroke="white" stroke-width="1.5" d="M0,-3.0v7 M-2.5,-0.5L0,-3.0L2.5,-0.5"/>
                </g>
                <g id="arrowLeft" xlink:href="#dirArrow" transform="rotate(270) translate(-36 17)" onmousedown="handlePan(-1,0)">
                  <use xlink:href="#rim" fill="#404040">
                        <set attributeName="fill" to="#808080" begin="arrowLeft.mouseover" end="arrowLeft.mouseout"/>
                  </use>
                  <path fill="none" stroke="white" stroke-width="1.5" d="M0,-3.0v7 M-2.5,-0.5L0,-3.0L2.5,-0.5"/>
                </g>
        </g>
        <svg viewBox="0 0 15 15" width="100%" height="30px" preserveAspectRatio="xMaxYMin meet">
         <g id="arrow_out" transform="scale(0.3 0.3)">
          <a xlink:href="Source_2Engine_2renderer_2tr__image__jpg_8c__incl_org.svg" target="_base">
           <rect id="button" ry="5" rx="5" y="6" x="6" height="38" width="38"
                fill="#f2f5e9" fill-opacity="0.5" stroke="#606060" stroke-width="1.0"/>
           <path id="arrow"
             d="M 11.500037,31.436501 C 11.940474,20.09759 22.043105,11.32322 32.158766,21.979434 L 37.068811,17.246167 C 37.068811,17.246167 37.088388,32 37.088388,32 L 22.160133,31.978069 C 22.160133,31.978069 26.997745,27.140456 26.997745,27.140456 C 18.528582,18.264221 13.291696,25.230495 11.500037,31.436501 z"
             style="fill:#404040;"/>
          </a>
         </g>
        </svg>
</svg>
