<?xml version="1.0" encoding="UTF-8" standalone="no"?>
<!DOCTYPE svg PUBLIC "-//W3C//DTD SVG 1.1//EN"
 "http://www.w3.org/Graphics/SVG/1.1/DTD/svg11.dtd">
<!-- Generated by graphviz version 2.43.0 (0)
 -->
<!-- Title: NUMPARSE Pages: 1 -->
<svg width="149pt" height="128pt"
 viewBox="0.00 0.00 148.50 128.00" xmlns="http://www.w3.org/2000/svg" xmlns:xlink="http://www.w3.org/1999/xlink">
<g id="graph0" class="graph" transform="scale(1 1) rotate(0) translate(4 124)">
<title>NUMPARSE</title>
<!-- Node1 -->
<g id="node1" class="node">
<title>Node1</title>
<g id="a_node1"><a xlink:title=" ">
<polygon fill="#bfbfbf" stroke="black" points="16,-0.5 16,-19.5 87,-19.5 87,-0.5 16,-0.5"/>
<text text-anchor="middle" x="51.5" y="-7.5" font-family="Helvetica,sans-Serif" font-size="10.00">NUMPARSE</text>
</a>
</g>
</g>
<!-- Node2 -->
<g id="node2" class="node">
<title>Node2</title>
<g id="a_node2"><a xlink:title=" ">
<polygon fill="none" stroke="#bfbfbf" points="0,-100.5 0,-119.5 29,-119.5 29,-100.5 0,-100.5"/>
<text text-anchor="middle" x="14.5" y="-107.5" font-family="Helvetica,sans-Serif" font-size="10.00">int</text>
</a>
</g>
</g>
<!-- Node2&#45;&gt;Node1 -->
<g id="edge1" class="edge">
<title>Node2&#45;&gt;Node1</title>
<path fill="none" stroke="#9a32cd" stroke-dasharray="5,2" d="M10.4,-90.02C8.17,-75.06 7.3,-54.11 15.5,-38 19.47,-30.2 26.85,-24.06 33.91,-19.62"/>
<polygon fill="#9a32cd" stroke="#9a32cd" points="7.01,-90.9 12.25,-100.11 13.89,-89.64 7.01,-90.9"/>
<text text-anchor="middle" x="41.5" y="-74" font-family="Helvetica,sans-Serif" font-size="10.00"> cchUsed</text>
<text text-anchor="middle" x="41.5" y="-63" font-family="Helvetica,sans-Serif" font-size="10.00">cDig</text>
<text text-anchor="middle" x="41.5" y="-52" font-family="Helvetica,sans-Serif" font-size="10.00">nBaseShift</text>
<text text-anchor="middle" x="41.5" y="-41" font-family="Helvetica,sans-Serif" font-size="10.00">nPwr10</text>
</g>
<!-- Node3 -->
<g id="node3" class="node">
<title>Node3</title>
<g id="a_node3"><a xlink:title=" ">
<polygon fill="none" stroke="#bfbfbf" points="70.5,-100.5 70.5,-119.5 108.5,-119.5 108.5,-100.5 70.5,-100.5"/>
<text text-anchor="middle" x="89.5" y="-107.5" font-family="Helvetica,sans-Serif" font-size="10.00">long</text>
</a>
</g>
</g>
<!-- Node3&#45;&gt;Node1 -->
<g id="edge2" class="edge">
<title>Node3&#45;&gt;Node1</title>
<path fill="none" stroke="#9a32cd" stroke-dasharray="5,2" d="M85.09,-90.66C81.28,-76.07 75.18,-55.29 67.5,-38 64.67,-31.63 60.67,-24.88 57.38,-19.72"/>
<polygon fill="#9a32cd" stroke="#9a32cd" points="81.72,-91.61 87.54,-100.46 88.51,-89.91 81.72,-91.61"/>
<text text-anchor="middle" x="111.5" y="-63" font-family="Helvetica,sans-Serif" font-size="10.00"> dwInFlags</text>
<text text-anchor="middle" x="111.5" y="-52" font-family="Helvetica,sans-Serif" font-size="10.00">dwOutFlags</text>
</g>
</g>
</svg>
