<?xml version="1.0" encoding="UTF-8" standalone="no"?>
<!DOCTYPE svg PUBLIC "-//W3C//DTD SVG 1.1//EN"
 "http://www.w3.org/Graphics/SVG/1.1/DTD/svg11.dtd">
<!-- Generated by graphviz version 2.43.0 (0)
 -->
<!-- Title: SpeexMode Pages: 1 -->
<svg width="283pt" height="161pt"
 viewBox="0.00 0.00 283.00 161.00" xmlns="http://www.w3.org/2000/svg" xmlns:xlink="http://www.w3.org/1999/xlink">
<g id="graph0" class="graph" transform="scale(1 1) rotate(0) translate(4 157)">
<title>SpeexMode</title>
<!-- Node1 -->
<g id="node1" class="node">
<title>Node1</title>
<g id="a_node1"><a xlink:title="Struct defining a Speex mode.">
<polygon fill="#bfbfbf" stroke="black" points="66,-0.5 66,-19.5 140,-19.5 140,-0.5 66,-0.5"/>
<text text-anchor="middle" x="103" y="-7.5" font-family="Helvetica,sans-Serif" font-size="10.00">SpeexMode</text>
</a>
</g>
</g>
<!-- Node2 -->
<g id="node2" class="node">
<title>Node2</title>
<g id="a_node2"><a xlink:title=" ">
<polygon fill="none" stroke="#bfbfbf" points="0,-133.5 0,-152.5 38,-152.5 38,-133.5 0,-133.5"/>
<text text-anchor="middle" x="19" y="-140.5" font-family="Helvetica,sans-Serif" font-size="10.00">char</text>
</a>
</g>
</g>
<!-- Node2&#45;&gt;Node1 -->
<g id="edge1" class="edge">
<title>Node2&#45;&gt;Node1</title>
<path fill="none" stroke="#9a32cd" stroke-dasharray="5,2" d="M17.38,-123.33C16.43,-100.67 18.28,-62.44 38,-38 45.06,-29.25 55.44,-23.3 65.84,-19.27"/>
<polygon fill="#9a32cd" stroke="#9a32cd" points="13.89,-123.59 18.02,-133.35 20.87,-123.14 13.89,-123.59"/>
<text text-anchor="middle" x="68.5" y="-74" font-family="Helvetica,sans-Serif" font-size="10.00"> modeName</text>
</g>
<!-- Node3 -->
<g id="node3" class="node">
<title>Node3</title>
<g id="a_node3"><a xlink:title=" ">
<polygon fill="none" stroke="#bfbfbf" points="84,-133.5 84,-152.5 122,-152.5 122,-133.5 84,-133.5"/>
<text text-anchor="middle" x="103" y="-140.5" font-family="Helvetica,sans-Serif" font-size="10.00">void</text>
</a>
</g>
</g>
<!-- Node3&#45;&gt;Node1 -->
<g id="edge2" class="edge">
<title>Node3&#45;&gt;Node1</title>
<path fill="none" stroke="#9a32cd" stroke-dasharray="5,2" d="M103,-123.09C103,-94.36 103,-40.82 103,-19.8"/>
<polygon fill="#9a32cd" stroke="#9a32cd" points="99.5,-123.4 103,-133.4 106.5,-123.4 99.5,-123.4"/>
<text text-anchor="middle" x="133" y="-96" font-family="Helvetica,sans-Serif" font-size="10.00"> mode</text>
<text text-anchor="middle" x="133" y="-85" font-family="Helvetica,sans-Serif" font-size="10.00">dec_init</text>
<text text-anchor="middle" x="133" y="-74" font-family="Helvetica,sans-Serif" font-size="10.00">dec_destroy</text>
<text text-anchor="middle" x="133" y="-63" font-family="Helvetica,sans-Serif" font-size="10.00">enc_init</text>
<text text-anchor="middle" x="133" y="-52" font-family="Helvetica,sans-Serif" font-size="10.00">enc_destroy</text>
</g>
<!-- Node4 -->
<g id="node4" class="node">
<title>Node4</title>
<g id="a_node4"><a xlink:title=" ">
<polygon fill="none" stroke="#bfbfbf" points="171.5,-133.5 171.5,-152.5 200.5,-152.5 200.5,-133.5 171.5,-133.5"/>
<text text-anchor="middle" x="186" y="-140.5" font-family="Helvetica,sans-Serif" font-size="10.00">int</text>
</a>
</g>
</g>
<!-- Node4&#45;&gt;Node1 -->
<g id="edge3" class="edge">
<title>Node4&#45;&gt;Node1</title>
<path fill="none" stroke="#9a32cd" stroke-dasharray="5,2" d="M186.91,-123.36C187.02,-100.72 183.89,-62.53 164,-38 157.14,-29.54 147.1,-23.66 137.13,-19.59"/>
<polygon fill="#9a32cd" stroke="#9a32cd" points="183.41,-123.27 186.64,-133.36 190.41,-123.46 183.41,-123.27"/>
<text text-anchor="middle" x="230.5" y="-107" font-family="Helvetica,sans-Serif" font-size="10.00"> query</text>
<text text-anchor="middle" x="230.5" y="-96" font-family="Helvetica,sans-Serif" font-size="10.00">enc_ctl</text>
<text text-anchor="middle" x="230.5" y="-85" font-family="Helvetica,sans-Serif" font-size="10.00">enc</text>
<text text-anchor="middle" x="230.5" y="-74" font-family="Helvetica,sans-Serif" font-size="10.00">bitstream_version</text>
<text text-anchor="middle" x="230.5" y="-63" font-family="Helvetica,sans-Serif" font-size="10.00">dec_ctl</text>
<text text-anchor="middle" x="230.5" y="-52" font-family="Helvetica,sans-Serif" font-size="10.00">dec</text>
<text text-anchor="middle" x="230.5" y="-41" font-family="Helvetica,sans-Serif" font-size="10.00">modeID</text>
</g>
</g>
</svg>
