<?xml version="1.0" encoding="UTF-8" standalone="no"?>
<!DOCTYPE svg PUBLIC "-//W3C//DTD SVG 1.1//EN"
 "http://www.w3.org/Graphics/SVG/1.1/DTD/svg11.dtd">
<!-- Generated by graphviz version 2.43.0 (0)
 -->
<!-- Title: Engine/libspeex/stereo.c Pages: 1 -->
<svg width="675pt" height="196pt"
 viewBox="0.00 0.00 675.00 196.00" xmlns="http://www.w3.org/2000/svg" xmlns:xlink="http://www.w3.org/1999/xlink">
<g id="graph0" class="graph" transform="scale(1 1) rotate(0) translate(4 192)">
<title>Engine/libspeex/stereo.c</title>
<!-- Node1 -->
<g id="node1" class="node">
<title>Node1</title>
<g id="a_node1"><a xlink:title=" ">
<polygon fill="#bfbfbf" stroke="black" points="315.5,-168.5 315.5,-187.5 451.5,-187.5 451.5,-168.5 315.5,-168.5"/>
<text text-anchor="middle" x="383.5" y="-175.5" font-family="Helvetica,sans-Serif" font-size="10.00">Engine/libspeex/stereo.c</text>
</a>
</g>
</g>
<!-- Node2 -->
<g id="node2" class="node">
<title>Node2</title>
<g id="a_node2"><a xlink:title=" ">
<polygon fill="none" stroke="#bfbfbf" points="0,-112.5 0,-131.5 123,-131.5 123,-112.5 0,-112.5"/>
<text text-anchor="middle" x="61.5" y="-119.5" font-family="Helvetica,sans-Serif" font-size="10.00">speex/speex_stereo.h</text>
</a>
</g>
</g>
<!-- Node1&#45;&gt;Node2 -->
<g id="edge1" class="edge">
<title>Node1&#45;&gt;Node2</title>
<path fill="none" stroke="midnightblue" d="M332.48,-168.44C275.48,-158.89 183.26,-143.42 122.5,-133.23"/>
<polygon fill="midnightblue" stroke="midnightblue" points="122.72,-129.72 112.28,-131.52 121.57,-136.62 122.72,-129.72"/>
</g>
<!-- Node3 -->
<g id="node3" class="node">
<title>Node3</title>
<g id="a_node3"><a xlink:title=" ">
<polygon fill="none" stroke="#bfbfbf" points="141.5,-112.5 141.5,-131.5 279.5,-131.5 279.5,-112.5 141.5,-112.5"/>
<text text-anchor="middle" x="210.5" y="-119.5" font-family="Helvetica,sans-Serif" font-size="10.00">speex/speex_callbacks.h</text>
</a>
</g>
</g>
<!-- Node1&#45;&gt;Node3 -->
<g id="edge2" class="edge">
<title>Node1&#45;&gt;Node3</title>
<path fill="none" stroke="midnightblue" d="M356.09,-168.44C326.73,-159.28 279.98,-144.69 247.4,-134.52"/>
<polygon fill="midnightblue" stroke="midnightblue" points="248.37,-131.16 237.78,-131.52 246.29,-137.84 248.37,-131.16"/>
</g>
<!-- Node4 -->
<g id="node4" class="node">
<title>Node4</title>
<g id="a_node4"><a xlink:href="../../db/de5/Engine_2libspeex_2math__approx_8h.html" target="_top" xlink:title="Various math approximation functions for Speex.">
<polygon fill="none" stroke="black" points="297.5,-112.5 297.5,-131.5 387.5,-131.5 387.5,-112.5 297.5,-112.5"/>
<text text-anchor="middle" x="342.5" y="-119.5" font-family="Helvetica,sans-Serif" font-size="10.00">math_approx.h</text>
</a>
</g>
</g>
<!-- Node1&#45;&gt;Node4 -->
<g id="edge3" class="edge">
<title>Node1&#45;&gt;Node4</title>
<path fill="none" stroke="midnightblue" d="M376.73,-168.08C370.94,-160.46 362.44,-149.26 355.36,-139.94"/>
<polygon fill="midnightblue" stroke="midnightblue" points="357.98,-137.6 349.14,-131.75 352.4,-141.83 357.98,-137.6"/>
</g>
<!-- Node7 -->
<g id="node7" class="node">
<title>Node7</title>
<g id="a_node7"><a xlink:href="../../d0/d27/Engine_2libspeex_2vq_8h.html" target="_top" xlink:title="Vector quantization.">
<polygon fill="none" stroke="black" points="405.5,-112.5 405.5,-131.5 443.5,-131.5 443.5,-112.5 405.5,-112.5"/>
<text text-anchor="middle" x="424.5" y="-119.5" font-family="Helvetica,sans-Serif" font-size="10.00">vq.h</text>
</a>
</g>
</g>
<!-- Node1&#45;&gt;Node7 -->
<g id="edge6" class="edge">
<title>Node1&#45;&gt;Node7</title>
<path fill="none" stroke="midnightblue" d="M390.27,-168.08C396.06,-160.46 404.56,-149.26 411.64,-139.94"/>
<polygon fill="midnightblue" stroke="midnightblue" points="414.6,-141.83 417.86,-131.75 409.02,-137.6 414.6,-141.83"/>
</g>
<!-- Node8 -->
<g id="node8" class="node">
<title>Node8</title>
<g id="a_node8"><a xlink:title=" ">
<polygon fill="none" stroke="#bfbfbf" points="462,-112.5 462,-131.5 513,-131.5 513,-112.5 462,-112.5"/>
<text text-anchor="middle" x="487.5" y="-119.5" font-family="Helvetica,sans-Serif" font-size="10.00">math.h</text>
</a>
</g>
</g>
<!-- Node1&#45;&gt;Node8 -->
<g id="edge8" class="edge">
<title>Node1&#45;&gt;Node8</title>
<path fill="none" stroke="midnightblue" d="M400.21,-168.32C416.81,-159.7 442.5,-146.36 461.72,-136.39"/>
<polygon fill="midnightblue" stroke="midnightblue" points="463.57,-139.37 470.83,-131.65 460.34,-133.16 463.57,-139.37"/>
</g>
<!-- Node9 -->
<g id="node9" class="node">
<title>Node9</title>
<g id="a_node9"><a xlink:href="../../d9/d2a/Engine_2libspeex_2os__support_8h.html" target="_top" xlink:title=" ">
<polygon fill="none" stroke="black" points="531,-112.5 531,-131.5 610,-131.5 610,-112.5 531,-112.5"/>
<text text-anchor="middle" x="570.5" y="-119.5" font-family="Helvetica,sans-Serif" font-size="10.00">os_support.h</text>
</a>
</g>
</g>
<!-- Node1&#45;&gt;Node9 -->
<g id="edge9" class="edge">
<title>Node1&#45;&gt;Node9</title>
<path fill="none" stroke="midnightblue" d="M413.13,-168.44C445,-159.24 495.83,-144.56 531.06,-134.39"/>
<polygon fill="midnightblue" stroke="midnightblue" points="532.37,-137.65 541.01,-131.52 530.43,-130.93 532.37,-137.65"/>
</g>
<!-- Node5 -->
<g id="node5" class="node">
<title>Node5</title>
<g id="a_node5"><a xlink:href="../../df/dca/Engine_2libspeex_2arch_8h.html" target="_top" xlink:title="Various architecture definitions Speex.">
<polygon fill="none" stroke="black" points="360,-56.5 360,-75.5 407,-75.5 407,-56.5 360,-56.5"/>
<text text-anchor="middle" x="383.5" y="-63.5" font-family="Helvetica,sans-Serif" font-size="10.00">arch.h</text>
</a>
</g>
</g>
<!-- Node4&#45;&gt;Node5 -->
<g id="edge4" class="edge">
<title>Node4&#45;&gt;Node5</title>
<path fill="none" stroke="midnightblue" d="M349.27,-112.08C355.06,-104.46 363.56,-93.26 370.64,-83.94"/>
<polygon fill="midnightblue" stroke="midnightblue" points="373.6,-85.83 376.86,-75.75 368.02,-81.6 373.6,-85.83"/>
</g>
<!-- Node6 -->
<g id="node6" class="node">
<title>Node6</title>
<g id="a_node6"><a xlink:title=" ">
<polygon fill="none" stroke="#bfbfbf" points="324,-0.5 324,-19.5 443,-19.5 443,-0.5 324,-0.5"/>
<text text-anchor="middle" x="383.5" y="-7.5" font-family="Helvetica,sans-Serif" font-size="10.00">speex/speex_types.h</text>
</a>
</g>
</g>
<!-- Node5&#45;&gt;Node6 -->
<g id="edge5" class="edge">
<title>Node5&#45;&gt;Node6</title>
<path fill="none" stroke="midnightblue" d="M383.5,-56.08C383.5,-49.01 383.5,-38.86 383.5,-29.99"/>
<polygon fill="midnightblue" stroke="midnightblue" points="387,-29.75 383.5,-19.75 380,-29.75 387,-29.75"/>
</g>
<!-- Node7&#45;&gt;Node5 -->
<g id="edge7" class="edge">
<title>Node7&#45;&gt;Node5</title>
<path fill="none" stroke="midnightblue" d="M417.73,-112.08C411.94,-104.46 403.44,-93.26 396.36,-83.94"/>
<polygon fill="midnightblue" stroke="midnightblue" points="398.98,-81.6 390.14,-75.75 393.4,-85.83 398.98,-81.6"/>
</g>
<!-- Node10 -->
<g id="node10" class="node">
<title>Node10</title>
<g id="a_node10"><a xlink:title=" ">
<polygon fill="none" stroke="#bfbfbf" points="474,-56.5 474,-75.5 527,-75.5 527,-56.5 474,-56.5"/>
<text text-anchor="middle" x="500.5" y="-63.5" font-family="Helvetica,sans-Serif" font-size="10.00">string.h</text>
</a>
</g>
</g>
<!-- Node9&#45;&gt;Node10 -->
<g id="edge10" class="edge">
<title>Node9&#45;&gt;Node10</title>
<path fill="none" stroke="midnightblue" d="M559.25,-112.32C548.7,-104.18 532.7,-91.84 520.06,-82.09"/>
<polygon fill="midnightblue" stroke="midnightblue" points="522.01,-79.17 511.95,-75.83 517.73,-84.71 522.01,-79.17"/>
</g>
<!-- Node11 -->
<g id="node11" class="node">
<title>Node11</title>
<g id="a_node11"><a xlink:title=" ">
<polygon fill="none" stroke="#bfbfbf" points="545.5,-56.5 545.5,-75.5 595.5,-75.5 595.5,-56.5 545.5,-56.5"/>
<text text-anchor="middle" x="570.5" y="-63.5" font-family="Helvetica,sans-Serif" font-size="10.00">stdio.h</text>
</a>
</g>
</g>
<!-- Node9&#45;&gt;Node11 -->
<g id="edge11" class="edge">
<title>Node9&#45;&gt;Node11</title>
<path fill="none" stroke="midnightblue" d="M570.5,-112.08C570.5,-105.01 570.5,-94.86 570.5,-85.99"/>
<polygon fill="midnightblue" stroke="midnightblue" points="574,-85.75 570.5,-75.75 567,-85.75 574,-85.75"/>
</g>
<!-- Node12 -->
<g id="node12" class="node">
<title>Node12</title>
<g id="a_node12"><a xlink:title=" ">
<polygon fill="none" stroke="#bfbfbf" points="614,-56.5 614,-75.5 667,-75.5 667,-56.5 614,-56.5"/>
<text text-anchor="middle" x="640.5" y="-63.5" font-family="Helvetica,sans-Serif" font-size="10.00">stdlib.h</text>
</a>
</g>
</g>
<!-- Node9&#45;&gt;Node12 -->
<g id="edge12" class="edge">
<title>Node9&#45;&gt;Node12</title>
<path fill="none" stroke="midnightblue" d="M581.75,-112.32C592.3,-104.18 608.3,-91.84 620.94,-82.09"/>
<polygon fill="midnightblue" stroke="midnightblue" points="623.27,-84.71 629.05,-75.83 618.99,-79.17 623.27,-84.71"/>
</g>
</g>
</svg>
