<?xml version="1.0" encoding="UTF-8" standalone="no"?>
<!DOCTYPE svg PUBLIC "-//W3C//DTD SVG 1.1//EN"
 "http://www.w3.org/Graphics/SVG/1.1/DTD/svg11.dtd">
<!-- Generated by graphviz version 2.43.0 (0)
 -->
<!-- Title: _DSKTLSYSTEMTIME Pages: 1 -->
<svg width="136pt" height="183pt"
 viewBox="0.00 0.00 136.00 183.00" xmlns="http://www.w3.org/2000/svg" xmlns:xlink="http://www.w3.org/1999/xlink">
<g id="graph0" class="graph" transform="scale(1 1) rotate(0) translate(4 179)">
<title>_DSKTLSYSTEMTIME</title>
<!-- Node1 -->
<g id="node1" class="node">
<title>Node1</title>
<g id="a_node1"><a xlink:title=" ">
<polygon fill="#bfbfbf" stroke="black" points="0,-0.5 0,-19.5 116,-19.5 116,-0.5 0,-0.5"/>
<text text-anchor="middle" x="58" y="-7.5" font-family="Helvetica,sans-Serif" font-size="10.00">_DSKTLSYSTEMTIME</text>
</a>
</g>
</g>
<!-- Node2 -->
<g id="node2" class="node">
<title>Node2</title>
<g id="a_node2"><a xlink:title=" ">
<polygon fill="none" stroke="#bfbfbf" points="37.5,-155.5 37.5,-174.5 78.5,-174.5 78.5,-155.5 37.5,-155.5"/>
<text text-anchor="middle" x="58" y="-162.5" font-family="Helvetica,sans-Serif" font-size="10.00">short</text>
</a>
</g>
</g>
<!-- Node2&#45;&gt;Node1 -->
<g id="edge1" class="edge">
<title>Node2&#45;&gt;Node1</title>
<path fill="none" stroke="#9a32cd" stroke-dasharray="5,2" d="M58,-145.11C58,-111.72 58,-43.54 58,-19.57"/>
<polygon fill="#9a32cd" stroke="#9a32cd" points="54.5,-145.34 58,-155.34 61.5,-145.34 54.5,-145.34"/>
<text text-anchor="middle" x="93" y="-129" font-family="Helvetica,sans-Serif" font-size="10.00"> wResult</text>
<text text-anchor="middle" x="93" y="-118" font-family="Helvetica,sans-Serif" font-size="10.00">wHour</text>
<text text-anchor="middle" x="93" y="-107" font-family="Helvetica,sans-Serif" font-size="10.00">wMinute</text>
<text text-anchor="middle" x="93" y="-96" font-family="Helvetica,sans-Serif" font-size="10.00">wDay</text>
<text text-anchor="middle" x="93" y="-85" font-family="Helvetica,sans-Serif" font-size="10.00">wDayOfWeek</text>
<text text-anchor="middle" x="93" y="-74" font-family="Helvetica,sans-Serif" font-size="10.00">wMilliseconds</text>
<text text-anchor="middle" x="93" y="-63" font-family="Helvetica,sans-Serif" font-size="10.00">wSecond</text>
<text text-anchor="middle" x="93" y="-52" font-family="Helvetica,sans-Serif" font-size="10.00">wYear</text>
<text text-anchor="middle" x="93" y="-41" font-family="Helvetica,sans-Serif" font-size="10.00">wMonth</text>
</g>
</g>
</svg>
