<?xml version="1.0" encoding="UTF-8" standalone="no"?>
<!DOCTYPE svg PUBLIC "-//W3C//DTD SVG 1.1//EN"
 "http://www.w3.org/Graphics/SVG/1.1/DTD/svg11.dtd">
<!-- Generated by graphviz version 2.43.0 (0)
 -->
<!-- Title: tagEMRGDICOMMENT Pages: 1 -->
<svg width="158pt" height="95pt"
 viewBox="0.00 0.00 158.00 95.00" xmlns="http://www.w3.org/2000/svg" xmlns:xlink="http://www.w3.org/1999/xlink">
<g id="graph0" class="graph" transform="scale(1 1) rotate(0) translate(4 91)">
<title>tagEMRGDICOMMENT</title>
<!-- Node1 -->
<g id="node1" class="node">
<title>Node1</title>
<g id="a_node1"><a xlink:title=" ">
<polygon fill="#bfbfbf" stroke="black" points="13,-0.5 13,-19.5 137,-19.5 137,-0.5 13,-0.5"/>
<text text-anchor="middle" x="75" y="-7.5" font-family="Helvetica,sans-Serif" font-size="10.00">tagEMRGDICOMMENT</text>
</a>
</g>
</g>
<!-- Node2 -->
<g id="node2" class="node">
<title>Node2</title>
<g id="a_node2"><a xlink:title=" ">
<polygon fill="none" stroke="#bfbfbf" points="0,-67.5 0,-86.5 38,-86.5 38,-67.5 0,-67.5"/>
<text text-anchor="middle" x="19" y="-74.5" font-family="Helvetica,sans-Serif" font-size="10.00">char</text>
</a>
</g>
</g>
<!-- Node2&#45;&gt;Node1 -->
<g id="edge1" class="edge">
<title>Node2&#45;&gt;Node1</title>
<path fill="none" stroke="#9a32cd" stroke-dasharray="5,2" d="M29.16,-58.42C33.38,-51.73 38.55,-44.23 44,-38 49.92,-31.23 57.52,-24.58 63.71,-19.58"/>
<polygon fill="#9a32cd" stroke="#9a32cd" points="25.92,-57.01 23.75,-67.38 31.92,-60.63 25.92,-57.01"/>
<text text-anchor="middle" x="57.5" y="-41" font-family="Helvetica,sans-Serif" font-size="10.00"> Data</text>
</g>
<!-- Node3 -->
<g id="node3" class="node">
<title>Node3</title>
<g id="a_node3"><a xlink:title=" ">
<polygon fill="none" stroke="#bfbfbf" points="56,-67.5 56,-86.5 94,-86.5 94,-67.5 56,-67.5"/>
<text text-anchor="middle" x="75" y="-74.5" font-family="Helvetica,sans-Serif" font-size="10.00">EMR</text>
</a>
</g>
</g>
<!-- Node3&#45;&gt;Node1 -->
<g id="edge2" class="edge">
<title>Node3&#45;&gt;Node1</title>
<path fill="none" stroke="#9a32cd" stroke-dasharray="5,2" d="M75,-57.04C75,-44.67 75,-29.12 75,-19.63"/>
<polygon fill="#9a32cd" stroke="#9a32cd" points="71.5,-57.23 75,-67.23 78.5,-57.23 71.5,-57.23"/>
<text text-anchor="middle" x="86.5" y="-41" font-family="Helvetica,sans-Serif" font-size="10.00"> emr</text>
</g>
<!-- Node4 -->
<g id="node4" class="node">
<title>Node4</title>
<g id="a_node4"><a xlink:title=" ">
<polygon fill="none" stroke="#bfbfbf" points="112,-67.5 112,-86.5 150,-86.5 150,-67.5 112,-67.5"/>
<text text-anchor="middle" x="131" y="-74.5" font-family="Helvetica,sans-Serif" font-size="10.00">long</text>
</a>
</g>
</g>
<!-- Node4&#45;&gt;Node1 -->
<g id="edge3" class="edge">
<title>Node4&#45;&gt;Node1</title>
<path fill="none" stroke="#9a32cd" stroke-dasharray="5,2" d="M118.75,-58.95C113.74,-52.26 107.78,-44.61 102,-38 96.41,-31.61 89.66,-24.86 84.31,-19.71"/>
<polygon fill="#9a32cd" stroke="#9a32cd" points="116.13,-61.3 124.86,-67.29 121.77,-57.16 116.13,-61.3"/>
<text text-anchor="middle" x="129" y="-41" font-family="Helvetica,sans-Serif" font-size="10.00"> cbData</text>
</g>
</g>
</svg>
