<?xml version="1.0" encoding="UTF-8" standalone="no"?>
<!DOCTYPE svg PUBLIC "-//W3C//DTD SVG 1.1//EN"
 "http://www.w3.org/Graphics/SVG/1.1/DTD/svg11.dtd">
<!-- Generated by graphviz version 2.43.0 (0)
 -->
<!-- Title: Negators Pages: 1 -->
<svg width="373pt" height="38pt"
 viewBox="0.00 0.00 373.00 38.00" xmlns="http://www.w3.org/2000/svg" xmlns:xlink="http://www.w3.org/1999/xlink">
<g id="graph0" class="graph" transform="scale(1 1) rotate(0) translate(4 34)">
<title>Negators</title>
<!-- Node2 -->
<g id="node1" class="node">
<title>Node2</title>
<g id="a_node1"><a xlink:href="../../dc/d7a/group__logical__functors.html" target="_top" xlink:title=" ">
<polygon fill="none" stroke="black" points="113,-30 0,-30 0,0 113,0 113,-30"/>
<text text-anchor="start" x="8" y="-18" font-family="Helvetica,sans-Serif" font-size="10.00">Boolean Operations</text>
<text text-anchor="middle" x="56.5" y="-7" font-family="Helvetica,sans-Serif" font-size="10.00"> Classes</text>
</a>
</g>
</g>
<!-- Node1 -->
<g id="node3" class="node">
<title>Node1</title>
<g id="a_node3"><a xlink:title=" ">
<polygon fill="#bfbfbf" stroke="black" points="210,-24.5 149,-24.5 149,-5.5 210,-5.5 210,-24.5"/>
<text text-anchor="middle" x="179.5" y="-12.5" font-family="Helvetica,sans-Serif" font-size="10.00">Negators</text>
</a>
</g>
</g>
<!-- Node2&#45;&gt;Node1 -->
<g id="edge1" class="edge">
<title>Node2&#45;&gt;Node1</title>
<path fill="none" stroke="black" d="M123.15,-15C132.09,-15 140.87,-15 148.72,-15"/>
<polygon fill="black" stroke="black" points="123.04,-11.5 113.04,-15 123.04,-18.5 123.04,-11.5"/>
</g>
<!-- Node3 -->
<g id="node2" class="node">
<title>Node3</title>
<g id="a_node2"><a xlink:href="../../db/da2/group__pointer__adaptors.html" target="_top" xlink:title=" ">
<polygon fill="none" stroke="black" points="365,-30 246,-30 246,0 365,0 365,-30"/>
<text text-anchor="start" x="254" y="-18" font-family="Helvetica,sans-Serif" font-size="10.00">Adaptors for pointers</text>
<text text-anchor="middle" x="305.5" y="-7" font-family="Helvetica,sans-Serif" font-size="10.00"> to functions</text>
</a>
</g>
</g>
<!-- Node1&#45;&gt;Node3 -->
<g id="edge2" class="edge">
<title>Node1&#45;&gt;Node3</title>
<path fill="none" stroke="black" d="M220.47,-15C228.58,-15 237.26,-15 245.86,-15"/>
<polygon fill="black" stroke="black" points="220.2,-11.5 210.2,-15 220.2,-18.5 220.2,-11.5"/>
</g>
</g>
</svg>
