<?xml version="1.0" encoding="UTF-8" standalone="no"?>
<!DOCTYPE svg PUBLIC "-//W3C//DTD SVG 1.1//EN"
 "http://www.w3.org/Graphics/SVG/1.1/DTD/svg11.dtd">
<!-- Generated by graphviz version 2.43.0 (0)
 -->
<!-- Title: _SURFACEALIGNMENT Pages: 1 -->
<svg width="518pt" height="150pt"
 viewBox="0.00 0.00 518.00 150.00" xmlns="http://www.w3.org/2000/svg" xmlns:xlink="http://www.w3.org/1999/xlink">
<g id="graph0" class="graph" transform="scale(1 1) rotate(0) translate(4 146)">
<title>_SURFACEALIGNMENT</title>
<!-- Node1 -->
<g id="node1" class="node">
<title>Node1</title>
<g id="a_node1"><a xlink:title=" ">
<polygon fill="#bfbfbf" stroke="black" points="182.5,-0.5 182.5,-19.5 307.5,-19.5 307.5,-0.5 182.5,-0.5"/>
<text text-anchor="middle" x="245" y="-7.5" font-family="Helvetica,sans-Serif" font-size="10.00">_SURFACEALIGNMENT</text>
</a>
</g>
</g>
<!-- Node2 -->
<g id="node2" class="node">
<title>Node2</title>
<g id="a_node2"><a xlink:title=" ">
<polygon fill="none" stroke="#bfbfbf" points="0,-122.5 0,-141.5 104,-141.5 104,-122.5 0,-122.5"/>
<text text-anchor="middle" x="52" y="-129.5" font-family="Helvetica,sans-Serif" font-size="10.00">anonymous:@258</text>
</a>
</g>
</g>
<!-- Node2&#45;&gt;Node1 -->
<g id="edge1" class="edge">
<title>Node2&#45;&gt;Node1</title>
<path fill="none" stroke="#9a32cd" stroke-dasharray="5,2" d="M66.21,-114.9C85.21,-94.31 120.83,-58.82 158,-38 172.63,-29.81 190.06,-23.77 205.46,-19.51"/>
<polygon fill="#9a32cd" stroke="#9a32cd" points="63.46,-112.73 59.34,-122.49 68.65,-117.42 63.46,-112.73"/>
<text text-anchor="middle" x="173.5" y="-68.5" font-family="Helvetica,sans-Serif" font-size="10.00"> @258</text>
</g>
<!-- Node3 -->
<g id="node3" class="node">
<title>Node3</title>
<g id="a_node3"><a xlink:title=" ">
<polygon fill="none" stroke="#bfbfbf" points="122.5,-122.5 122.5,-141.5 229.5,-141.5 229.5,-122.5 122.5,-122.5"/>
<text text-anchor="middle" x="176" y="-129.5" font-family="Helvetica,sans-Serif" font-size="10.00">anonymous:Linear</text>
</a>
</g>
</g>
<!-- Node3&#45;&gt;Node1 -->
<g id="edge2" class="edge">
<title>Node3&#45;&gt;Node1</title>
<path fill="none" stroke="#9a32cd" stroke-dasharray="5,2" d="M186.04,-113.55C201.06,-87.42 228.84,-39.11 240.08,-19.55"/>
<polygon fill="#9a32cd" stroke="#9a32cd" points="182.91,-111.96 180.96,-122.37 188.98,-115.45 182.91,-111.96"/>
<text text-anchor="middle" x="246" y="-68.5" font-family="Helvetica,sans-Serif" font-size="10.00"> Linear</text>
</g>
<!-- Node4 -->
<g id="node4" class="node">
<title>Node4</title>
<g id="a_node4"><a xlink:title=" ">
<polygon fill="none" stroke="#bfbfbf" points="247.5,-122.5 247.5,-141.5 382.5,-141.5 382.5,-122.5 247.5,-122.5"/>
<text text-anchor="middle" x="315" y="-129.5" font-family="Helvetica,sans-Serif" font-size="10.00">anonymous:Rectangular</text>
</a>
</g>
</g>
<!-- Node4&#45;&gt;Node1 -->
<g id="edge3" class="edge">
<title>Node4&#45;&gt;Node1</title>
<path fill="none" stroke="#9a32cd" stroke-dasharray="5,2" d="M307.14,-113.15C298.38,-93.96 283.3,-62.88 267,-38 262.76,-31.53 257.26,-24.78 252.82,-19.64"/>
<polygon fill="#9a32cd" stroke="#9a32cd" points="304.03,-114.77 311.32,-122.47 310.42,-111.91 304.03,-114.77"/>
<text text-anchor="middle" x="333" y="-68.5" font-family="Helvetica,sans-Serif" font-size="10.00"> Rectangular</text>
</g>
<!-- Node5 -->
<g id="node5" class="node">
<title>Node5</title>
<g id="a_node5"><a xlink:title=" ">
<polygon fill="none" stroke="#bfbfbf" points="400.5,-122.5 400.5,-141.5 461.5,-141.5 461.5,-122.5 400.5,-122.5"/>
<text text-anchor="middle" x="431" y="-129.5" font-family="Helvetica,sans-Serif" font-size="10.00">unsigned</text>
</a>
</g>
</g>
<!-- Node5&#45;&gt;Node1 -->
<g id="edge4" class="edge">
<title>Node5&#45;&gt;Node1</title>
<path fill="none" stroke="#9a32cd" stroke-dasharray="5,2" d="M423.91,-113.24C414.44,-91.93 395.61,-56.71 368,-38 350.36,-26.04 328.31,-19.27 307.77,-15.48"/>
<polygon fill="#9a32cd" stroke="#9a32cd" points="420.68,-114.61 427.8,-122.46 427.13,-111.89 420.68,-114.61"/>
<text text-anchor="middle" x="464" y="-96" font-family="Helvetica,sans-Serif" font-size="10.00"> dwPitchAlignment</text>
<text text-anchor="middle" x="464" y="-85" font-family="Helvetica,sans-Serif" font-size="10.00">dwStartAlignment</text>
<text text-anchor="middle" x="464" y="-74" font-family="Helvetica,sans-Serif" font-size="10.00">dwReserved1</text>
<text text-anchor="middle" x="464" y="-63" font-family="Helvetica,sans-Serif" font-size="10.00">dwReserved2</text>
<text text-anchor="middle" x="464" y="-52" font-family="Helvetica,sans-Serif" font-size="10.00">dwXAlignment</text>
<text text-anchor="middle" x="464" y="-41" font-family="Helvetica,sans-Serif" font-size="10.00">dwYAlignment</text>
</g>
</g>
</svg>
