<?xml version="1.0" encoding="UTF-8" standalone="no"?>
<!DOCTYPE svg PUBLIC "-//W3C//DTD SVG 1.1//EN"
 "http://www.w3.org/Graphics/SVG/1.1/DTD/svg11.dtd">
<!-- Generated by graphviz version 2.43.0 (0)
 -->
<!-- Title: texModInfo_t Pages: 1 -->
<svg width="248pt" height="230pt"
 viewBox="0.00 0.00 248.34 230.00" xmlns="http://www.w3.org/2000/svg" xmlns:xlink="http://www.w3.org/1999/xlink">
<g id="graph0" class="graph" transform="scale(1 1) rotate(0) translate(4 226)">
<title>texModInfo_t</title>
<!-- Node1 -->
<g id="node1" class="node">
<title>Node1</title>
<g id="a_node1"><a xlink:title=" ">
<polygon fill="#bfbfbf" stroke="black" points="80.84,-0.5 80.84,-19.5 161.84,-19.5 161.84,-0.5 80.84,-0.5"/>
<text text-anchor="middle" x="121.34" y="-7.5" font-family="Helvetica,sans-Serif" font-size="10.00">texModInfo_t</text>
</a>
</g>
</g>
<!-- Node2 -->
<g id="node2" class="node">
<title>Node2</title>
<g id="a_node2"><a xlink:href="../../d4/dc3/classfloat.html" target="_top" xlink:title=" ">
<polygon fill="none" stroke="black" points="2.34,-202.5 2.34,-221.5 40.34,-221.5 40.34,-202.5 2.34,-202.5"/>
<text text-anchor="middle" x="21.34" y="-209.5" font-family="Helvetica,sans-Serif" font-size="10.00">float</text>
</a>
</g>
</g>
<!-- Node2&#45;&gt;Node1 -->
<g id="edge1" class="edge">
<title>Node2&#45;&gt;Node1</title>
<path fill="none" stroke="#9a32cd" stroke-dasharray="5,2" d="M14.19,-192.78C4.08,-163.81 -10.65,-106.46 13.34,-67 28.7,-41.73 59.56,-27.35 84.37,-19.51"/>
<polygon fill="#9a32cd" stroke="#9a32cd" points="10.99,-194.24 17.74,-202.4 17.56,-191.81 10.99,-194.24"/>
<text text-anchor="middle" x="43.34" y="-114" font-family="Helvetica,sans-Serif" font-size="10.00"> matrix</text>
<text text-anchor="middle" x="43.34" y="-103" font-family="Helvetica,sans-Serif" font-size="10.00">rotateSpeed</text>
<text text-anchor="middle" x="43.34" y="-92" font-family="Helvetica,sans-Serif" font-size="10.00">scale</text>
<text text-anchor="middle" x="43.34" y="-81" font-family="Helvetica,sans-Serif" font-size="10.00">translate</text>
<text text-anchor="middle" x="43.34" y="-70" font-family="Helvetica,sans-Serif" font-size="10.00">scroll</text>
</g>
<!-- Node4 -->
<g id="node4" class="node">
<title>Node4</title>
<g id="a_node4"><a xlink:href="../../d5/d10/structwaveForm__t.html" target="_top" xlink:title=" ">
<polygon fill="none" stroke="black" points="82.84,-85 82.84,-104 159.84,-104 159.84,-85 82.84,-85"/>
<text text-anchor="middle" x="121.34" y="-92" font-family="Helvetica,sans-Serif" font-size="10.00">waveForm_t</text>
</a>
</g>
</g>
<!-- Node2&#45;&gt;Node4 -->
<g id="edge4" class="edge">
<title>Node2&#45;&gt;Node4</title>
<path fill="none" stroke="#9a32cd" stroke-dasharray="5,2" d="M30.1,-193.26C38.07,-178.16 50.77,-156.37 65.34,-140 78.05,-125.71 95.73,-112.51 107.8,-104.26"/>
<polygon fill="#9a32cd" stroke="#9a32cd" points="26.82,-192 25.38,-202.5 33.05,-195.19 26.82,-192"/>
<text text-anchor="middle" x="91.34" y="-176" font-family="Helvetica,sans-Serif" font-size="10.00"> frequency</text>
<text text-anchor="middle" x="91.34" y="-165" font-family="Helvetica,sans-Serif" font-size="10.00">amplitude</text>
<text text-anchor="middle" x="91.34" y="-154" font-family="Helvetica,sans-Serif" font-size="10.00">base</text>
<text text-anchor="middle" x="91.34" y="-143" font-family="Helvetica,sans-Serif" font-size="10.00">phase</text>
</g>
<!-- Node3 -->
<g id="node3" class="node">
<title>Node3</title>
<g id="a_node3"><a xlink:title=" ">
<polygon fill="none" stroke="#bfbfbf" points="178.34,-85 178.34,-104 240.34,-104 240.34,-85 178.34,-85"/>
<text text-anchor="middle" x="209.34" y="-92" font-family="Helvetica,sans-Serif" font-size="10.00">texMod_t</text>
</a>
</g>
</g>
<!-- Node3&#45;&gt;Node1 -->
<g id="edge2" class="edge">
<title>Node3&#45;&gt;Node1</title>
<path fill="none" stroke="#9a32cd" stroke-dasharray="5,2" d="M194.72,-77.42C184.14,-66.04 169.3,-50.62 155.34,-38 148.18,-31.53 139.68,-24.78 132.97,-19.65"/>
<polygon fill="#9a32cd" stroke="#9a32cd" points="192.26,-79.91 201.6,-84.89 197.41,-75.17 192.26,-79.91"/>
<text text-anchor="middle" x="177.84" y="-41" font-family="Helvetica,sans-Serif" font-size="10.00"> type</text>
</g>
<!-- Node4&#45;&gt;Node1 -->
<g id="edge3" class="edge">
<title>Node4&#45;&gt;Node1</title>
<path fill="none" stroke="#9a32cd" stroke-dasharray="5,2" d="M121.34,-74.93C121.34,-57.63 121.34,-32.61 121.34,-19.6"/>
<polygon fill="#9a32cd" stroke="#9a32cd" points="117.84,-74.98 121.34,-84.98 124.84,-74.98 117.84,-74.98"/>
<text text-anchor="middle" x="136.34" y="-41" font-family="Helvetica,sans-Serif" font-size="10.00"> wave</text>
</g>
<!-- Node5 -->
<g id="node5" class="node">
<title>Node5</title>
<g id="a_node5"><a xlink:title=" ">
<polygon fill="none" stroke="#bfbfbf" points="88.34,-202.5 88.34,-221.5 154.34,-221.5 154.34,-202.5 88.34,-202.5"/>
<text text-anchor="middle" x="121.34" y="-209.5" font-family="Helvetica,sans-Serif" font-size="10.00">genFunc_t</text>
</a>
</g>
</g>
<!-- Node5&#45;&gt;Node4 -->
<g id="edge5" class="edge">
<title>Node5&#45;&gt;Node4</title>
<path fill="none" stroke="#9a32cd" stroke-dasharray="5,2" d="M121.34,-192.16C121.34,-166.87 121.34,-122.94 121.34,-104.28"/>
<polygon fill="#9a32cd" stroke="#9a32cd" points="117.84,-192.32 121.34,-202.32 124.84,-192.32 117.84,-192.32"/>
<text text-anchor="middle" x="133.84" y="-159.5" font-family="Helvetica,sans-Serif" font-size="10.00"> func</text>
</g>
</g>
</svg>
