<?xml version="1.0" encoding="UTF-8" standalone="no"?>
<!DOCTYPE svg PUBLIC "-//W3C//DTD SVG 1.1//EN"
 "http://www.w3.org/Graphics/SVG/1.1/DTD/svg11.dtd">
<!-- Generated by graphviz version 2.43.0 (0)
 -->
<!-- Title: _CHANGER_READ_ELEMENT_STATUS Pages: 1 -->
<svg width="330pt" height="128pt"
 viewBox="0.00 0.00 329.50 128.00" xmlns="http://www.w3.org/2000/svg" xmlns:xlink="http://www.w3.org/1999/xlink">
<g id="graph0" class="graph" transform="scale(1 1) rotate(0) translate(4 124)">
<title>_CHANGER_READ_ELEMENT_STATUS</title>
<!-- Node1 -->
<g id="node1" class="node">
<title>Node1</title>
<g id="a_node1"><a xlink:title=" ">
<polygon fill="#bfbfbf" stroke="black" points="88.5,-0.5 88.5,-30.5 242.5,-30.5 242.5,-0.5 88.5,-0.5"/>
<text text-anchor="start" x="96.5" y="-18.5" font-family="Helvetica,sans-Serif" font-size="10.00">_CHANGER_READ_ELEMENT</text>
<text text-anchor="middle" x="165.5" y="-7.5" font-family="Helvetica,sans-Serif" font-size="10.00">_STATUS</text>
</a>
</g>
</g>
<!-- Node2 -->
<g id="node2" class="node">
<title>Node2</title>
<g id="a_node2"><a xlink:title=" ">
<polygon fill="none" stroke="#bfbfbf" points="0,-78.5 0,-119.5 161,-119.5 161,-78.5 0,-78.5"/>
<text text-anchor="start" x="8" y="-107.5" font-family="Helvetica,sans-Serif" font-size="10.00">PLDAP *typedef(__cdecl</text>
<text text-anchor="start" x="8" y="-96.5" font-family="Helvetica,sans-Serif" font-size="10.00"> NOTIFYOFNEWCONNECTION)</text>
<text text-anchor="middle" x="80.5" y="-85.5" font-family="Helvetica,sans-Serif" font-size="10.00">(PLDAP</text>
</a>
</g>
</g>
<!-- Node2&#45;&gt;Node1 -->
<g id="edge1" class="edge">
<title>Node2&#45;&gt;Node1</title>
<path fill="none" stroke="#9a32cd" stroke-dasharray="5,2" d="M108.6,-71.06C122.67,-57.57 139.12,-41.79 150.71,-30.68"/>
<polygon fill="#9a32cd" stroke="#9a32cd" points="105.87,-68.82 101.08,-78.27 110.72,-73.88 105.87,-68.82"/>
<text text-anchor="middle" x="169.5" y="-52" font-family="Helvetica,sans-Serif" font-size="10.00"> VolumeTagInfo</text>
</g>
<!-- Node3 -->
<g id="node3" class="node">
<title>Node3</title>
<g id="a_node3"><a xlink:title=" ">
<polygon fill="none" stroke="#bfbfbf" points="179.5,-89.5 179.5,-108.5 321.5,-108.5 321.5,-89.5 179.5,-89.5"/>
<text text-anchor="middle" x="250.5" y="-96.5" font-family="Helvetica,sans-Serif" font-size="10.00">CHANGER_ELEMENT_LIST</text>
</a>
</g>
</g>
<!-- Node3&#45;&gt;Node1 -->
<g id="edge2" class="edge">
<title>Node3&#45;&gt;Node1</title>
<path fill="none" stroke="#9a32cd" stroke-dasharray="5,2" d="M238.95,-81.16C231.7,-71.22 221.79,-58.72 211.5,-49 204.39,-42.29 195.82,-35.86 188.01,-30.52"/>
<polygon fill="#9a32cd" stroke="#9a32cd" points="236.17,-83.29 244.8,-89.42 241.88,-79.24 236.17,-83.29"/>
<text text-anchor="middle" x="251" y="-52" font-family="Helvetica,sans-Serif" font-size="10.00"> ElementList</text>
</g>
</g>
</svg>
