<?xml version="1.0" encoding="UTF-8" standalone="no"?>
<!DOCTYPE svg PUBLIC "-//W3C//DTD SVG 1.1//EN"
 "http://www.w3.org/Graphics/SVG/1.1/DTD/svg11.dtd">
<!-- Generated by graphviz version 2.43.0 (0)
 -->
<!-- Title: LinkedMem Pages: 1 -->
<svg width="188pt" height="161pt"
 viewBox="0.00 0.00 188.00 161.00" xmlns="http://www.w3.org/2000/svg" xmlns:xlink="http://www.w3.org/1999/xlink">
<g id="graph0" class="graph" transform="scale(1 1) rotate(0) translate(4 157)">
<title>LinkedMem</title>
<!-- Node1 -->
<g id="node1" class="node">
<title>Node1</title>
<g id="a_node1"><a xlink:title=" ">
<polygon fill="#bfbfbf" stroke="black" points="34.5,-0.5 34.5,-19.5 107.5,-19.5 107.5,-0.5 34.5,-0.5"/>
<text text-anchor="middle" x="71" y="-7.5" font-family="Helvetica,sans-Serif" font-size="10.00">LinkedMem</text>
</a>
</g>
</g>
<!-- Node2 -->
<g id="node2" class="node">
<title>Node2</title>
<g id="a_node2"><a xlink:href="../../d4/dc3/classfloat.html" target="_top" xlink:title=" ">
<polygon fill="none" stroke="black" points="0,-133.5 0,-152.5 38,-152.5 38,-133.5 0,-133.5"/>
<text text-anchor="middle" x="19" y="-140.5" font-family="Helvetica,sans-Serif" font-size="10.00">float</text>
</a>
</g>
</g>
<!-- Node2&#45;&gt;Node1 -->
<g id="edge1" class="edge">
<title>Node2&#45;&gt;Node1</title>
<path fill="none" stroke="#9a32cd" stroke-dasharray="5,2" d="M13.88,-123.65C8.85,-101.58 4.02,-64.26 20,-38 25.1,-29.61 33.77,-23.69 42.53,-19.58"/>
<polygon fill="#9a32cd" stroke="#9a32cd" points="10.5,-124.56 16.35,-133.39 17.29,-122.84 10.5,-124.56"/>
<text text-anchor="middle" x="61" y="-101.5" font-family="Helvetica,sans-Serif" font-size="10.00"> fCameraTop</text>
<text text-anchor="middle" x="61" y="-90.5" font-family="Helvetica,sans-Serif" font-size="10.00">fCameraFront</text>
<text text-anchor="middle" x="61" y="-79.5" font-family="Helvetica,sans-Serif" font-size="10.00">fAvatarPosition</text>
<text text-anchor="middle" x="61" y="-68.5" font-family="Helvetica,sans-Serif" font-size="10.00">fAvatarFront</text>
<text text-anchor="middle" x="61" y="-57.5" font-family="Helvetica,sans-Serif" font-size="10.00">fCameraPosition</text>
<text text-anchor="middle" x="61" y="-46.5" font-family="Helvetica,sans-Serif" font-size="10.00">fAvatarTop</text>
</g>
<!-- Node3 -->
<g id="node3" class="node">
<title>Node3</title>
<g id="a_node3"><a xlink:title=" ">
<polygon fill="none" stroke="#bfbfbf" points="93.5,-133.5 93.5,-152.5 154.5,-152.5 154.5,-133.5 93.5,-133.5"/>
<text text-anchor="middle" x="124" y="-140.5" font-family="Helvetica,sans-Serif" font-size="10.00">unsigned</text>
</a>
</g>
</g>
<!-- Node3&#45;&gt;Node1 -->
<g id="edge2" class="edge">
<title>Node3&#45;&gt;Node1</title>
<path fill="none" stroke="#9a32cd" stroke-dasharray="5,2" d="M123.55,-122.99C122.27,-101.09 117.69,-64.7 102,-38 97.66,-30.62 90.58,-24.22 84.28,-19.51"/>
<polygon fill="#9a32cd" stroke="#9a32cd" points="120.07,-123.41 123.98,-133.25 127.06,-123.12 120.07,-123.41"/>
<text text-anchor="middle" x="151" y="-107" font-family="Helvetica,sans-Serif" font-size="10.00"> uiTick</text>
<text text-anchor="middle" x="151" y="-96" font-family="Helvetica,sans-Serif" font-size="10.00">identity</text>
<text text-anchor="middle" x="151" y="-85" font-family="Helvetica,sans-Serif" font-size="10.00">uiVersion</text>
<text text-anchor="middle" x="151" y="-74" font-family="Helvetica,sans-Serif" font-size="10.00">context</text>
<text text-anchor="middle" x="151" y="-63" font-family="Helvetica,sans-Serif" font-size="10.00">context_len</text>
<text text-anchor="middle" x="151" y="-52" font-family="Helvetica,sans-Serif" font-size="10.00">name</text>
<text text-anchor="middle" x="151" y="-41" font-family="Helvetica,sans-Serif" font-size="10.00">description</text>
</g>
</g>
</svg>
