<?xml version="1.0" encoding="UTF-8" standalone="no"?>
<!DOCTYPE svg PUBLIC "-//W3C//DTD SVG 1.1//EN"
 "http://www.w3.org/Graphics/SVG/1.1/DTD/svg11.dtd">
<!-- Generated by graphviz version 2.43.0 (0)
 -->
<!-- Title: Tools/MinGW/include/ddk/ntddcdvd.h Pages: 1 -->
<svg width="788pt" height="375pt"
 viewBox="0.00 0.00 788.47 375.00" xmlns="http://www.w3.org/2000/svg" xmlns:xlink="http://www.w3.org/1999/xlink">
<g id="graph0" class="graph" transform="scale(1 1) rotate(0) translate(4 371)">
<title>Tools/MinGW/include/ddk/ntddcdvd.h</title>
<!-- Node1 -->
<g id="node1" class="node">
<title>Node1</title>
<g id="a_node1"><a xlink:title=" ">
<polygon fill="#bfbfbf" stroke="black" points="161,-336.5 161,-366.5 279,-366.5 279,-336.5 161,-336.5"/>
<text text-anchor="start" x="169" y="-354.5" font-family="Helvetica,sans-Serif" font-size="10.00">Tools/MinGW/include</text>
<text text-anchor="middle" x="220" y="-343.5" font-family="Helvetica,sans-Serif" font-size="10.00">/ddk/ntddcdvd.h</text>
</a>
</g>
</g>
<!-- Node2 -->
<g id="node2" class="node">
<title>Node2</title>
<g id="a_node2"><a xlink:href="../../d2/d49/ntddk_8h.html" target="_top" xlink:title=" ">
<polygon fill="none" stroke="black" points="410.5,-224.5 410.5,-243.5 463.5,-243.5 463.5,-224.5 410.5,-224.5"/>
<text text-anchor="middle" x="437" y="-231.5" font-family="Helvetica,sans-Serif" font-size="10.00">ntddk.h</text>
</a>
</g>
</g>
<!-- Node1&#45;&gt;Node2 -->
<g id="edge1" class="edge">
<title>Node1&#45;&gt;Node2</title>
<path fill="none" stroke="midnightblue" d="M246.61,-336.34C288.92,-313.82 370.96,-270.15 412.15,-248.23"/>
<polygon fill="midnightblue" stroke="midnightblue" points="413.81,-251.31 420.99,-243.52 410.52,-245.13 413.81,-251.31"/>
</g>
<!-- Node12 -->
<g id="node12" class="node">
<title>Node12</title>
<g id="a_node12"><a xlink:href="../../d3/df1/poppack_8h.html" target="_top" xlink:title=" ">
<polygon fill="none" stroke="black" points="44.5,-56.5 44.5,-75.5 111.5,-75.5 111.5,-56.5 44.5,-56.5"/>
<text text-anchor="middle" x="78" y="-63.5" font-family="Helvetica,sans-Serif" font-size="10.00">poppack.h</text>
</a>
</g>
</g>
<!-- Node1&#45;&gt;Node12 -->
<g id="edge27" class="edge">
<title>Node1&#45;&gt;Node12</title>
<path fill="none" stroke="midnightblue" d="M160.75,-344.76C95.59,-334.81 0,-307.8 0,-235 0,-235 0,-235 0,-177 0,-146.9 1.96,-136.81 19,-112 27.72,-99.31 41.16,-88.66 53.01,-80.91"/>
<polygon fill="midnightblue" stroke="midnightblue" points="54.99,-83.8 61.66,-75.56 51.31,-77.84 54.99,-83.8"/>
</g>
<!-- Node17 -->
<g id="node17" class="node">
<title>Node17</title>
<g id="a_node17"><a xlink:href="../../d8/dc9/pshpack1_8h.html" target="_top" xlink:title=" ">
<polygon fill="none" stroke="black" points="28,-112.5 28,-131.5 100,-131.5 100,-112.5 28,-112.5"/>
<text text-anchor="middle" x="64" y="-119.5" font-family="Helvetica,sans-Serif" font-size="10.00">pshpack1.h</text>
</a>
</g>
</g>
<!-- Node1&#45;&gt;Node17 -->
<g id="edge26" class="edge">
<title>Node1&#45;&gt;Node17</title>
<path fill="none" stroke="midnightblue" d="M204.43,-336.4C176.18,-309.99 116.32,-250.11 83,-188 75.18,-173.43 70.22,-155.25 67.34,-141.83"/>
<polygon fill="midnightblue" stroke="midnightblue" points="70.74,-141 65.38,-131.85 63.87,-142.34 70.74,-141"/>
</g>
<!-- Node21 -->
<g id="node21" class="node">
<title>Node21</title>
<g id="a_node21"><a xlink:href="../../d1/d09/ntddstor_8h.html" target="_top" xlink:title=" ">
<polygon fill="none" stroke="black" points="365.5,-280.5 365.5,-299.5 430.5,-299.5 430.5,-280.5 365.5,-280.5"/>
<text text-anchor="middle" x="398" y="-287.5" font-family="Helvetica,sans-Serif" font-size="10.00">ntddstor.h</text>
</a>
</g>
</g>
<!-- Node1&#45;&gt;Node21 -->
<g id="edge24" class="edge">
<title>Node1&#45;&gt;Node21</title>
<path fill="none" stroke="midnightblue" d="M262.18,-336.4C292.81,-326.16 333.77,-312.47 362.67,-302.81"/>
<polygon fill="midnightblue" stroke="midnightblue" points="363.98,-306.06 372.36,-299.57 361.77,-299.42 363.98,-306.06"/>
</g>
<!-- Node3 -->
<g id="node3" class="node">
<title>Node3</title>
<g id="a_node3"><a xlink:title=" ">
<polygon fill="none" stroke="#bfbfbf" points="711,-168.5 711,-187.5 767,-187.5 767,-168.5 711,-168.5"/>
<text text-anchor="middle" x="739" y="-175.5" font-family="Helvetica,sans-Serif" font-size="10.00">stdarg.h</text>
</a>
</g>
</g>
<!-- Node2&#45;&gt;Node3 -->
<g id="edge2" class="edge">
<title>Node2&#45;&gt;Node3</title>
<path fill="none" stroke="midnightblue" d="M463.82,-229.08C510.16,-222.18 608.38,-206.95 700.96,-188.1"/>
<polygon fill="midnightblue" stroke="midnightblue" points="701.67,-191.53 710.76,-186.08 700.26,-184.67 701.67,-191.53"/>
</g>
<!-- Node4 -->
<g id="node4" class="node">
<title>Node4</title>
<g id="a_node4"><a xlink:href="../../db/d06/windef_8h.html" target="_top" xlink:title=" ">
<polygon fill="none" stroke="black" points="172,-168.5 172,-187.5 230,-187.5 230,-168.5 172,-168.5"/>
<text text-anchor="middle" x="201" y="-175.5" font-family="Helvetica,sans-Serif" font-size="10.00">windef.h</text>
</a>
</g>
</g>
<!-- Node2&#45;&gt;Node4 -->
<g id="edge3" class="edge">
<title>Node2&#45;&gt;Node4</title>
<path fill="none" stroke="midnightblue" d="M410.4,-227.04C374.16,-218.89 306.98,-203.73 239.93,-188.2"/>
<polygon fill="midnightblue" stroke="midnightblue" points="240.57,-184.76 230.04,-185.91 238.99,-191.58 240.57,-184.76"/>
</g>
<!-- Node5 -->
<g id="node5" class="node">
<title>Node5</title>
<g id="a_node5"><a xlink:href="../../d9/dfa/winnt_8h.html" target="_top" xlink:title=" ">
<polygon fill="none" stroke="black" points="225.5,-112.5 225.5,-131.5 278.5,-131.5 278.5,-112.5 225.5,-112.5"/>
<text text-anchor="middle" x="252" y="-119.5" font-family="Helvetica,sans-Serif" font-size="10.00">winnt.h</text>
</a>
</g>
</g>
<!-- Node2&#45;&gt;Node5 -->
<g id="edge15" class="edge">
<title>Node2&#45;&gt;Node5</title>
<path fill="none" stroke="midnightblue" d="M463.64,-231.45C539.99,-226.74 755.44,-211.47 776,-188 781.86,-181.31 782.01,-174.55 776,-168 743.14,-132.2 402.58,-124.82 288.79,-123.35"/>
<polygon fill="midnightblue" stroke="midnightblue" points="288.55,-119.85 278.5,-123.23 288.46,-126.85 288.55,-119.85"/>
</g>
<!-- Node13 -->
<g id="node13" class="node">
<title>Node13</title>
<g id="a_node13"><a xlink:href="../../d0/d54/ntdef_8h.html" target="_top" xlink:title=" ">
<polygon fill="none" stroke="black" points="248,-168.5 248,-187.5 298,-187.5 298,-168.5 248,-168.5"/>
<text text-anchor="middle" x="273" y="-175.5" font-family="Helvetica,sans-Serif" font-size="10.00">ntdef.h</text>
</a>
</g>
</g>
<!-- Node2&#45;&gt;Node13 -->
<g id="edge12" class="edge">
<title>Node2&#45;&gt;Node13</title>
<path fill="none" stroke="midnightblue" d="M411.01,-224.44C383.06,-215.24 338.47,-200.56 307.57,-190.38"/>
<polygon fill="midnightblue" stroke="midnightblue" points="308.65,-187.05 298.06,-187.25 306.46,-193.7 308.65,-187.05"/>
</g>
<!-- Node14 -->
<g id="node14" class="node">
<title>Node14</title>
<g id="a_node14"><a xlink:href="../../d3/d89/basetyps_8h.html" target="_top" xlink:title=" ">
<polygon fill="none" stroke="black" points="316,-168.5 316,-187.5 386,-187.5 386,-168.5 316,-168.5"/>
<text text-anchor="middle" x="351" y="-175.5" font-family="Helvetica,sans-Serif" font-size="10.00">basetyps.h</text>
</a>
</g>
</g>
<!-- Node2&#45;&gt;Node14 -->
<g id="edge13" class="edge">
<title>Node2&#45;&gt;Node14</title>
<path fill="none" stroke="midnightblue" d="M423.18,-224.32C409.77,-215.9 389.18,-202.97 373.41,-193.07"/>
<polygon fill="midnightblue" stroke="midnightblue" points="375.11,-190.01 364.78,-187.65 371.39,-195.94 375.11,-190.01"/>
</g>
<!-- Node15 -->
<g id="node15" class="node">
<title>Node15</title>
<g id="a_node15"><a xlink:href="../../d3/d93/ntstatus_8h.html" target="_top" xlink:title=" ">
<polygon fill="none" stroke="black" points="404.5,-168.5 404.5,-187.5 469.5,-187.5 469.5,-168.5 404.5,-168.5"/>
<text text-anchor="middle" x="437" y="-175.5" font-family="Helvetica,sans-Serif" font-size="10.00">ntstatus.h</text>
</a>
</g>
</g>
<!-- Node2&#45;&gt;Node15 -->
<g id="edge14" class="edge">
<title>Node2&#45;&gt;Node15</title>
<path fill="none" stroke="midnightblue" d="M437,-224.08C437,-217.01 437,-206.86 437,-197.99"/>
<polygon fill="midnightblue" stroke="midnightblue" points="440.5,-197.75 437,-187.75 433.5,-197.75 440.5,-197.75"/>
</g>
<!-- Node16 -->
<g id="node16" class="node">
<title>Node16</title>
<g id="a_node16"><a xlink:href="../../d6/d93/winddk_8h.html" target="_top" xlink:title=" ">
<polygon fill="none" stroke="black" points="92.5,-168.5 92.5,-187.5 153.5,-187.5 153.5,-168.5 92.5,-168.5"/>
<text text-anchor="middle" x="123" y="-175.5" font-family="Helvetica,sans-Serif" font-size="10.00">winddk.h</text>
</a>
</g>
</g>
<!-- Node2&#45;&gt;Node16 -->
<g id="edge16" class="edge">
<title>Node2&#45;&gt;Node16</title>
<path fill="none" stroke="midnightblue" d="M410.46,-229.17C363.05,-222.21 260.49,-206.65 163.51,-188"/>
<polygon fill="midnightblue" stroke="midnightblue" points="164.02,-184.53 153.54,-186.06 162.69,-191.4 164.02,-184.53"/>
</g>
<!-- Node18 -->
<g id="node18" class="node">
<title>Node18</title>
<g id="a_node18"><a xlink:href="../../d5/d53/winxp_8h.html" target="_top" xlink:title=" ">
<polygon fill="none" stroke="black" points="487.5,-168.5 487.5,-187.5 542.5,-187.5 542.5,-168.5 487.5,-168.5"/>
<text text-anchor="middle" x="515" y="-175.5" font-family="Helvetica,sans-Serif" font-size="10.00">winxp.h</text>
</a>
</g>
</g>
<!-- Node2&#45;&gt;Node18 -->
<g id="edge20" class="edge">
<title>Node2&#45;&gt;Node18</title>
<path fill="none" stroke="midnightblue" d="M449.53,-224.32C461.59,-215.98 480.03,-203.21 494.27,-193.35"/>
<polygon fill="midnightblue" stroke="midnightblue" points="496.27,-196.22 502.5,-187.65 492.28,-190.47 496.27,-196.22"/>
</g>
<!-- Node19 -->
<g id="node19" class="node">
<title>Node19</title>
<g id="a_node19"><a xlink:href="../../d2/db1/win2k_8h.html" target="_top" xlink:title=" ">
<polygon fill="none" stroke="black" points="560.5,-168.5 560.5,-187.5 615.5,-187.5 615.5,-168.5 560.5,-168.5"/>
<text text-anchor="middle" x="588" y="-175.5" font-family="Helvetica,sans-Serif" font-size="10.00">win2k.h</text>
</a>
</g>
</g>
<!-- Node2&#45;&gt;Node19 -->
<g id="edge21" class="edge">
<title>Node2&#45;&gt;Node19</title>
<path fill="none" stroke="midnightblue" d="M455.84,-224.44C479.59,-215.23 520.56,-200.51 550.68,-190.34"/>
<polygon fill="midnightblue" stroke="midnightblue" points="552.06,-193.57 560.44,-187.08 549.84,-186.93 552.06,-193.57"/>
</g>
<!-- Node20 -->
<g id="node20" class="node">
<title>Node20</title>
<g id="a_node20"><a xlink:href="../../d8/dbb/winnt4_8h.html" target="_top" xlink:title=" ">
<polygon fill="none" stroke="black" points="633.5,-168.5 633.5,-187.5 692.5,-187.5 692.5,-168.5 633.5,-168.5"/>
<text text-anchor="middle" x="663" y="-175.5" font-family="Helvetica,sans-Serif" font-size="10.00">winnt4.h</text>
</a>
</g>
</g>
<!-- Node2&#45;&gt;Node20 -->
<g id="edge23" class="edge">
<title>Node2&#45;&gt;Node20</title>
<path fill="none" stroke="midnightblue" d="M463.81,-226.59C503.38,-217.14 577.66,-199.39 623.48,-188.44"/>
<polygon fill="midnightblue" stroke="midnightblue" points="624.45,-191.81 633.36,-186.08 622.82,-185 624.45,-191.81"/>
</g>
<!-- Node4&#45;&gt;Node5 -->
<g id="edge4" class="edge">
<title>Node4&#45;&gt;Node5</title>
<path fill="none" stroke="midnightblue" d="M209.42,-168.08C216.85,-160.22 227.85,-148.57 236.81,-139.08"/>
<polygon fill="midnightblue" stroke="midnightblue" points="239.41,-141.42 243.74,-131.75 234.32,-136.62 239.41,-141.42"/>
</g>
<!-- Node6 -->
<g id="node6" class="node">
<title>Node6</title>
<g id="a_node6"><a xlink:href="../../d4/ded/winerror_8h.html" target="_top" xlink:title=" ">
<polygon fill="none" stroke="black" points="302.5,-56.5 302.5,-75.5 367.5,-75.5 367.5,-56.5 302.5,-56.5"/>
<text text-anchor="middle" x="335" y="-63.5" font-family="Helvetica,sans-Serif" font-size="10.00">winerror.h</text>
</a>
</g>
</g>
<!-- Node5&#45;&gt;Node6 -->
<g id="edge5" class="edge">
<title>Node5&#45;&gt;Node6</title>
<path fill="none" stroke="midnightblue" d="M265.34,-112.32C278.16,-103.98 297.78,-91.21 312.94,-81.35"/>
<polygon fill="midnightblue" stroke="midnightblue" points="315.22,-84.04 321.7,-75.65 311.41,-78.17 315.22,-84.04"/>
</g>
<!-- Node7 -->
<g id="node7" class="node">
<title>Node7</title>
<g id="a_node7"><a xlink:href="../../d7/de6/include_2string_8h.html" target="_top" xlink:title=" ">
<polygon fill="none" stroke="black" points="385.5,-56.5 385.5,-75.5 438.5,-75.5 438.5,-56.5 385.5,-56.5"/>
<text text-anchor="middle" x="412" y="-63.5" font-family="Helvetica,sans-Serif" font-size="10.00">string.h</text>
</a>
</g>
</g>
<!-- Node5&#45;&gt;Node7 -->
<g id="edge6" class="edge">
<title>Node5&#45;&gt;Node7</title>
<path fill="none" stroke="midnightblue" d="M277.35,-112.44C304.27,-103.36 347,-88.94 377.09,-78.78"/>
<polygon fill="midnightblue" stroke="midnightblue" points="378.41,-82.03 386.77,-75.52 376.17,-75.4 378.41,-82.03"/>
</g>
<!-- Node10 -->
<g id="node10" class="node">
<title>Node10</title>
<g id="a_node10"><a xlink:href="../../db/de8/basetsd_8h.html" target="_top" xlink:title=" ">
<polygon fill="none" stroke="black" points="220,-56.5 220,-75.5 284,-75.5 284,-56.5 220,-56.5"/>
<text text-anchor="middle" x="252" y="-63.5" font-family="Helvetica,sans-Serif" font-size="10.00">basetsd.h</text>
</a>
</g>
</g>
<!-- Node5&#45;&gt;Node10 -->
<g id="edge9" class="edge">
<title>Node5&#45;&gt;Node10</title>
<path fill="none" stroke="midnightblue" d="M252,-112.08C252,-105.01 252,-94.86 252,-85.99"/>
<polygon fill="midnightblue" stroke="midnightblue" points="255.5,-85.75 252,-75.75 248.5,-85.75 255.5,-85.75"/>
</g>
<!-- Node11 -->
<g id="node11" class="node">
<title>Node11</title>
<g id="a_node11"><a xlink:href="../../dd/d76/pshpack4_8h.html" target="_top" xlink:title=" ">
<polygon fill="none" stroke="black" points="130,-56.5 130,-75.5 202,-75.5 202,-56.5 130,-56.5"/>
<text text-anchor="middle" x="166" y="-63.5" font-family="Helvetica,sans-Serif" font-size="10.00">pshpack4.h</text>
</a>
</g>
</g>
<!-- Node5&#45;&gt;Node11 -->
<g id="edge10" class="edge">
<title>Node5&#45;&gt;Node11</title>
<path fill="none" stroke="midnightblue" d="M238.18,-112.32C224.77,-103.9 204.18,-90.97 188.41,-81.07"/>
<polygon fill="midnightblue" stroke="midnightblue" points="190.11,-78.01 179.78,-75.65 186.39,-83.94 190.11,-78.01"/>
</g>
<!-- Node5&#45;&gt;Node12 -->
<g id="edge11" class="edge">
<title>Node5&#45;&gt;Node12</title>
<path fill="none" stroke="midnightblue" d="M225.19,-112.68C195.73,-103.54 148.21,-88.79 115.17,-78.53"/>
<polygon fill="midnightblue" stroke="midnightblue" points="116,-75.13 105.41,-75.51 113.92,-81.81 116,-75.13"/>
</g>
<!-- Node8 -->
<g id="node8" class="node">
<title>Node8</title>
<g id="a_node8"><a xlink:href="../../da/d3d/__mingw_8h.html" target="_top" xlink:title=" ">
<polygon fill="none" stroke="black" points="341.5,-0.5 341.5,-19.5 404.5,-19.5 404.5,-0.5 341.5,-0.5"/>
<text text-anchor="middle" x="373" y="-7.5" font-family="Helvetica,sans-Serif" font-size="10.00">_mingw.h</text>
</a>
</g>
</g>
<!-- Node7&#45;&gt;Node8 -->
<g id="edge7" class="edge">
<title>Node7&#45;&gt;Node8</title>
<path fill="none" stroke="midnightblue" d="M405.56,-56.08C400.05,-48.46 391.97,-37.26 385.24,-27.94"/>
<polygon fill="midnightblue" stroke="midnightblue" points="388.01,-25.81 379.32,-19.75 382.34,-29.91 388.01,-25.81"/>
</g>
<!-- Node9 -->
<g id="node9" class="node">
<title>Node9</title>
<g id="a_node9"><a xlink:href="../../d3/dce/stddef_8h.html" target="_top" xlink:title=" ">
<polygon fill="none" stroke="black" points="423,-0.5 423,-19.5 479,-19.5 479,-0.5 423,-0.5"/>
<text text-anchor="middle" x="451" y="-7.5" font-family="Helvetica,sans-Serif" font-size="10.00">stddef.h</text>
</a>
</g>
</g>
<!-- Node7&#45;&gt;Node9 -->
<g id="edge8" class="edge">
<title>Node7&#45;&gt;Node9</title>
<path fill="none" stroke="midnightblue" d="M418.44,-56.08C423.95,-48.46 432.03,-37.26 438.76,-27.94"/>
<polygon fill="midnightblue" stroke="midnightblue" points="441.66,-29.91 444.68,-19.75 435.99,-25.81 441.66,-29.91"/>
</g>
<!-- Node16&#45;&gt;Node11 -->
<g id="edge19" class="edge">
<title>Node16&#45;&gt;Node11</title>
<path fill="none" stroke="midnightblue" d="M126.76,-168.42C130.68,-159.4 136.95,-144.78 142,-132 148.15,-116.44 154.7,-98.61 159.4,-85.56"/>
<polygon fill="midnightblue" stroke="midnightblue" points="162.79,-86.47 162.87,-75.88 156.2,-84.12 162.79,-86.47"/>
</g>
<!-- Node16&#45;&gt;Node12 -->
<g id="edge18" class="edge">
<title>Node16&#45;&gt;Node12</title>
<path fill="none" stroke="midnightblue" d="M122.21,-168.26C120.81,-155.46 117.24,-131.08 109,-112 104.64,-101.89 97.86,-91.71 91.75,-83.58"/>
<polygon fill="midnightblue" stroke="midnightblue" points="94.47,-81.38 85.54,-75.68 88.97,-85.71 94.47,-81.38"/>
</g>
<!-- Node16&#45;&gt;Node17 -->
<g id="edge17" class="edge">
<title>Node16&#45;&gt;Node17</title>
<path fill="none" stroke="midnightblue" d="M113.52,-168.32C104.8,-160.34 91.66,-148.31 81.1,-138.65"/>
<polygon fill="midnightblue" stroke="midnightblue" points="83.39,-136 73.65,-131.83 78.67,-141.17 83.39,-136"/>
</g>
<!-- Node19&#45;&gt;Node2 -->
<g id="edge22" class="edge">
<title>Node19&#45;&gt;Node2</title>
<path fill="none" stroke="midnightblue" d="M569.01,-187.62C544.96,-196.94 503.43,-211.85 473.28,-222.01"/>
<polygon fill="midnightblue" stroke="midnightblue" points="471.91,-218.78 463.54,-225.26 474.13,-225.42 471.91,-218.78"/>
</g>
<!-- Node21&#45;&gt;Node2 -->
<g id="edge25" class="edge">
<title>Node21&#45;&gt;Node2</title>
<path fill="none" stroke="midnightblue" d="M404.44,-280.08C409.95,-272.46 418.03,-261.26 424.76,-251.94"/>
<polygon fill="midnightblue" stroke="midnightblue" points="427.66,-253.91 430.68,-243.75 421.99,-249.81 427.66,-253.91"/>
</g>
</g>
</svg>
