<?xml version="1.0" encoding="UTF-8" standalone="no"?>
<!DOCTYPE svg PUBLIC "-//W3C//DTD SVG 1.1//EN"
 "http://www.w3.org/Graphics/SVG/1.1/DTD/svg11.dtd">
<!-- Generated by graphviz version 2.43.0 (0)
 -->
<!-- Title: _SERIAL_BASIC_SETTINGS Pages: 1 -->
<svg width="437pt" height="126pt"
 viewBox="0.00 0.00 437.00 126.00" xmlns="http://www.w3.org/2000/svg" xmlns:xlink="http://www.w3.org/1999/xlink">
<g id="graph0" class="graph" transform="scale(1 1) rotate(0) translate(4 122)">
<title>_SERIAL_BASIC_SETTINGS</title>
<!-- Node1 -->
<g id="node1" class="node">
<title>Node1</title>
<g id="a_node1"><a xlink:title=" ">
<polygon fill="#bfbfbf" stroke="black" points="286,-49.5 286,-68.5 429,-68.5 429,-49.5 286,-49.5"/>
<text text-anchor="middle" x="357.5" y="-56.5" font-family="Helvetica,sans-Serif" font-size="10.00">_SERIAL_BASIC_SETTINGS</text>
</a>
</g>
</g>
<!-- Node2 -->
<g id="node2" class="node">
<title>Node2</title>
<g id="a_node2"><a xlink:title=" ">
<polygon fill="none" stroke="#bfbfbf" points="42.5,-98.5 42.5,-117.5 155.5,-117.5 155.5,-98.5 42.5,-98.5"/>
<text text-anchor="middle" x="99" y="-105.5" font-family="Helvetica,sans-Serif" font-size="10.00">SERIAL_HANDFLOW</text>
</a>
</g>
</g>
<!-- Node2&#45;&gt;Node1 -->
<g id="edge1" class="edge">
<title>Node2&#45;&gt;Node1</title>
<path fill="none" stroke="#9a32cd" stroke-dasharray="5,2" d="M165.9,-101.29C197.05,-97.53 234.64,-92.14 268,-85 288.36,-80.64 310.86,-74.01 328.08,-68.53"/>
<polygon fill="#9a32cd" stroke="#9a32cd" points="165.12,-97.86 155.6,-102.5 165.94,-104.81 165.12,-97.86"/>
<text text-anchor="middle" x="242" y="-97" font-family="Helvetica,sans-Serif" font-size="10.00"> HandFlow</text>
</g>
<!-- Node3 -->
<g id="node3" class="node">
<title>Node3</title>
<g id="a_node3"><a xlink:title=" ">
<polygon fill="none" stroke="#bfbfbf" points="0,-38.5 0,-79.5 198,-79.5 198,-38.5 0,-38.5"/>
<text text-anchor="start" x="8" y="-67.5" font-family="Helvetica,sans-Serif" font-size="10.00">PSecurityUserData *typedef</text>
<text text-anchor="start" x="8" y="-56.5" font-family="Helvetica,sans-Serif" font-size="10.00"> PSECPKG_EXTENDED_INFORMATION</text>
<text text-anchor="middle" x="99" y="-45.5" font-family="Helvetica,sans-Serif" font-size="10.00"> *typedef</text>
</a>
</g>
</g>
<!-- Node3&#45;&gt;Node1 -->
<g id="edge2" class="edge">
<title>Node3&#45;&gt;Node1</title>
<path fill="none" stroke="#9a32cd" stroke-dasharray="5,2" d="M208.09,-59C234.43,-59 261.92,-59 285.99,-59"/>
<polygon fill="#9a32cd" stroke="#9a32cd" points="208.07,-55.5 198.07,-59 208.07,-62.5 208.07,-55.5"/>
<text text-anchor="middle" x="242" y="-73" font-family="Helvetica,sans-Serif" font-size="10.00"> TxFifo</text>
<text text-anchor="middle" x="242" y="-62" font-family="Helvetica,sans-Serif" font-size="10.00">RxFifo</text>
</g>
<!-- Node4 -->
<g id="node4" class="node">
<title>Node4</title>
<g id="a_node4"><a xlink:title=" ">
<polygon fill="none" stroke="#bfbfbf" points="45.5,-0.5 45.5,-19.5 152.5,-19.5 152.5,-0.5 45.5,-0.5"/>
<text text-anchor="middle" x="99" y="-7.5" font-family="Helvetica,sans-Serif" font-size="10.00">SERIAL_TIMEOUTS</text>
</a>
</g>
</g>
<!-- Node4&#45;&gt;Node1 -->
<g id="edge3" class="edge">
<title>Node4&#45;&gt;Node1</title>
<path fill="none" stroke="#9a32cd" stroke-dasharray="5,2" d="M159.58,-21.38C204.14,-29.89 264.37,-41.4 306.44,-49.44"/>
<polygon fill="#9a32cd" stroke="#9a32cd" points="160.24,-17.94 149.76,-19.51 158.93,-24.82 160.24,-17.94"/>
<text text-anchor="middle" x="242" y="-44" font-family="Helvetica,sans-Serif" font-size="10.00"> Timeouts</text>
</g>
</g>
</svg>
