<?xml version="1.0" encoding="UTF-8" standalone="no"?>
<!DOCTYPE svg PUBLIC "-//W3C//DTD SVG 1.1//EN"
 "http://www.w3.org/Graphics/SVG/1.1/DTD/svg11.dtd">
<!-- Generated by graphviz version 2.43.0 (0)
 -->
<!-- Title: Source/Engine/libspeex/lsp.c Pages: 1 -->
<svg width="324pt" height="207pt"
 viewBox="0.00 0.00 323.50 207.00" xmlns="http://www.w3.org/2000/svg" xmlns:xlink="http://www.w3.org/1999/xlink">
<g id="graph0" class="graph" transform="scale(1 1) rotate(0) translate(4 203)">
<title>Source/Engine/libspeex/lsp.c</title>
<!-- Node1 -->
<g id="node1" class="node">
<title>Node1</title>
<g id="a_node1"><a xlink:title=" ">
<polygon fill="#bfbfbf" stroke="black" points="63.5,-168.5 63.5,-198.5 193.5,-198.5 193.5,-168.5 63.5,-168.5"/>
<text text-anchor="start" x="71.5" y="-186.5" font-family="Helvetica,sans-Serif" font-size="10.00">Source/Engine/libspeex</text>
<text text-anchor="middle" x="128.5" y="-175.5" font-family="Helvetica,sans-Serif" font-size="10.00">/lsp.c</text>
</a>
</g>
</g>
<!-- Node2 -->
<g id="node2" class="node">
<title>Node2</title>
<g id="a_node2"><a xlink:title=" ">
<polygon fill="none" stroke="#bfbfbf" points="0,-112.5 0,-131.5 51,-131.5 51,-112.5 0,-112.5"/>
<text text-anchor="middle" x="25.5" y="-119.5" font-family="Helvetica,sans-Serif" font-size="10.00">math.h</text>
</a>
</g>
</g>
<!-- Node1&#45;&gt;Node2 -->
<g id="edge1" class="edge">
<title>Node1&#45;&gt;Node2</title>
<path fill="none" stroke="midnightblue" d="M104.09,-168.4C87.58,-158.86 65.88,-146.32 49.46,-136.84"/>
<polygon fill="midnightblue" stroke="midnightblue" points="50.9,-133.63 40.49,-131.66 47.4,-139.69 50.9,-133.63"/>
</g>
<!-- Node3 -->
<g id="node3" class="node">
<title>Node3</title>
<g id="a_node3"><a xlink:href="../../d5/d83/Source_2Engine_2libspeex_2lsp_8h.html" target="_top" xlink:title="Line Spectral Pair (LSP) functions.">
<polygon fill="none" stroke="black" points="69.5,-112.5 69.5,-131.5 109.5,-131.5 109.5,-112.5 69.5,-112.5"/>
<text text-anchor="middle" x="89.5" y="-119.5" font-family="Helvetica,sans-Serif" font-size="10.00">lsp.h</text>
</a>
</g>
</g>
<!-- Node1&#45;&gt;Node3 -->
<g id="edge2" class="edge">
<title>Node1&#45;&gt;Node3</title>
<path fill="none" stroke="midnightblue" d="M119.26,-168.4C113.71,-159.93 106.61,-149.1 100.73,-140.14"/>
<polygon fill="midnightblue" stroke="midnightblue" points="103.58,-138.1 95.17,-131.66 97.73,-141.94 103.58,-138.1"/>
</g>
<!-- Node6 -->
<g id="node6" class="node">
<title>Node6</title>
<g id="a_node6"><a xlink:href="../../d0/dbf/Source_2Engine_2libspeex_2stack__alloc_8h.html" target="_top" xlink:title="Temporary memory allocation on stack.">
<polygon fill="none" stroke="black" points="127.5,-112.5 127.5,-131.5 207.5,-131.5 207.5,-112.5 127.5,-112.5"/>
<text text-anchor="middle" x="167.5" y="-119.5" font-family="Helvetica,sans-Serif" font-size="10.00">stack_alloc.h</text>
</a>
</g>
</g>
<!-- Node1&#45;&gt;Node6 -->
<g id="edge5" class="edge">
<title>Node1&#45;&gt;Node6</title>
<path fill="none" stroke="midnightblue" d="M137.74,-168.4C143.29,-159.93 150.39,-149.1 156.27,-140.14"/>
<polygon fill="midnightblue" stroke="midnightblue" points="159.27,-141.94 161.83,-131.66 153.42,-138.1 159.27,-141.94"/>
</g>
<!-- Node7 -->
<g id="node7" class="node">
<title>Node7</title>
<g id="a_node7"><a xlink:href="../../d3/d89/Source_2Engine_2libspeex_2math__approx_8h.html" target="_top" xlink:title="Various math approximation functions for Speex.">
<polygon fill="none" stroke="black" points="225.5,-112.5 225.5,-131.5 315.5,-131.5 315.5,-112.5 225.5,-112.5"/>
<text text-anchor="middle" x="270.5" y="-119.5" font-family="Helvetica,sans-Serif" font-size="10.00">math_approx.h</text>
</a>
</g>
</g>
<!-- Node1&#45;&gt;Node7 -->
<g id="edge6" class="edge">
<title>Node1&#45;&gt;Node7</title>
<path fill="none" stroke="midnightblue" d="M162.15,-168.4C185.98,-158.42 217.65,-145.15 240.59,-135.53"/>
<polygon fill="midnightblue" stroke="midnightblue" points="241.97,-138.75 249.84,-131.66 239.26,-132.29 241.97,-138.75"/>
</g>
<!-- Node4 -->
<g id="node4" class="node">
<title>Node4</title>
<g id="a_node4"><a xlink:href="../../d9/dce/Source_2Engine_2libspeex_2arch_8h.html" target="_top" xlink:title="Various architecture definitions Speex.">
<polygon fill="none" stroke="black" points="156,-56.5 156,-75.5 203,-75.5 203,-56.5 156,-56.5"/>
<text text-anchor="middle" x="179.5" y="-63.5" font-family="Helvetica,sans-Serif" font-size="10.00">arch.h</text>
</a>
</g>
</g>
<!-- Node3&#45;&gt;Node4 -->
<g id="edge3" class="edge">
<title>Node3&#45;&gt;Node4</title>
<path fill="none" stroke="midnightblue" d="M103.96,-112.32C118,-103.9 139.55,-90.97 156.04,-81.07"/>
<polygon fill="midnightblue" stroke="midnightblue" points="158.3,-83.8 165.08,-75.65 154.7,-77.8 158.3,-83.8"/>
</g>
<!-- Node5 -->
<g id="node5" class="node">
<title>Node5</title>
<g id="a_node5"><a xlink:title=" ">
<polygon fill="none" stroke="#bfbfbf" points="120,-0.5 120,-19.5 239,-19.5 239,-0.5 120,-0.5"/>
<text text-anchor="middle" x="179.5" y="-7.5" font-family="Helvetica,sans-Serif" font-size="10.00">speex/speex_types.h</text>
</a>
</g>
</g>
<!-- Node4&#45;&gt;Node5 -->
<g id="edge4" class="edge">
<title>Node4&#45;&gt;Node5</title>
<path fill="none" stroke="midnightblue" d="M179.5,-56.08C179.5,-49.01 179.5,-38.86 179.5,-29.99"/>
<polygon fill="midnightblue" stroke="midnightblue" points="183,-29.75 179.5,-19.75 176,-29.75 183,-29.75"/>
</g>
<!-- Node7&#45;&gt;Node4 -->
<g id="edge7" class="edge">
<title>Node7&#45;&gt;Node4</title>
<path fill="none" stroke="midnightblue" d="M255.88,-112.32C241.55,-103.82 219.49,-90.73 202.75,-80.8"/>
<polygon fill="midnightblue" stroke="midnightblue" points="204.47,-77.75 194.08,-75.65 200.9,-83.77 204.47,-77.75"/>
</g>
</g>
</svg>
