<?xml version="1.0" encoding="UTF-8" standalone="no"?>
<!DOCTYPE svg PUBLIC "-//W3C//DTD SVG 1.1//EN"
 "http://www.w3.org/Graphics/SVG/1.1/DTD/svg11.dtd">
<!-- Generated by graphviz version 2.43.0 (0)
 -->
<!-- Title: _CONSOLE_SCREEN_BUFFER_INFO Pages: 1 -->
<svg width="338pt" height="117pt"
 viewBox="0.00 0.00 338.00 117.00" xmlns="http://www.w3.org/2000/svg" xmlns:xlink="http://www.w3.org/1999/xlink">
<g id="graph0" class="graph" transform="scale(1 1) rotate(0) translate(4 113)">
<title>_CONSOLE_SCREEN_BUFFER_INFO</title>
<!-- Node1 -->
<g id="node1" class="node">
<title>Node1</title>
<g id="a_node1"><a xlink:title=" ">
<polygon fill="#bfbfbf" stroke="black" points="32,-0.5 32,-19.5 218,-19.5 218,-0.5 32,-0.5"/>
<text text-anchor="middle" x="125" y="-7.5" font-family="Helvetica,sans-Serif" font-size="10.00">_CONSOLE_SCREEN_BUFFER_INFO</text>
</a>
</g>
</g>
<!-- Node2 -->
<g id="node2" class="node">
<title>Node2</title>
<g id="a_node2"><a xlink:title=" ">
<polygon fill="none" stroke="#bfbfbf" points="0,-89.5 0,-108.5 80,-108.5 80,-89.5 0,-89.5"/>
<text text-anchor="middle" x="40" y="-96.5" font-family="Helvetica,sans-Serif" font-size="10.00">SMALL_RECT</text>
</a>
</g>
</g>
<!-- Node2&#45;&gt;Node1 -->
<g id="edge1" class="edge">
<title>Node2&#45;&gt;Node1</title>
<path fill="none" stroke="#9a32cd" stroke-dasharray="5,2" d="M45.35,-79.43C49.87,-66.47 57.49,-49.5 69,-38 77.09,-29.91 88.09,-23.9 98.19,-19.62"/>
<polygon fill="#9a32cd" stroke="#9a32cd" points="41.95,-78.58 42.25,-89.17 48.62,-80.7 41.95,-78.58"/>
<text text-anchor="middle" x="95" y="-52" font-family="Helvetica,sans-Serif" font-size="10.00"> srWindow</text>
</g>
<!-- Node3 -->
<g id="node3" class="node">
<title>Node3</title>
<g id="a_node3"><a xlink:title=" ">
<polygon fill="none" stroke="#bfbfbf" points="98.5,-89.5 98.5,-108.5 151.5,-108.5 151.5,-89.5 98.5,-89.5"/>
<text text-anchor="middle" x="125" y="-96.5" font-family="Helvetica,sans-Serif" font-size="10.00">COORD</text>
</a>
</g>
</g>
<!-- Node3&#45;&gt;Node1 -->
<g id="edge2" class="edge">
<title>Node3&#45;&gt;Node1</title>
<path fill="none" stroke="#9a32cd" stroke-dasharray="5,2" d="M125,-79.19C125,-60.74 125,-33.41 125,-19.62"/>
<polygon fill="#9a32cd" stroke="#9a32cd" points="121.5,-79.34 125,-89.34 128.5,-79.34 121.5,-79.34"/>
<text text-anchor="middle" x="188.5" y="-63" font-family="Helvetica,sans-Serif" font-size="10.00"> dwMaximumWindowSize</text>
<text text-anchor="middle" x="188.5" y="-52" font-family="Helvetica,sans-Serif" font-size="10.00">dwSize</text>
<text text-anchor="middle" x="188.5" y="-41" font-family="Helvetica,sans-Serif" font-size="10.00">dwCursorPosition</text>
</g>
<!-- Node4 -->
<g id="node4" class="node">
<title>Node4</title>
<g id="a_node4"><a xlink:title=" ">
<polygon fill="none" stroke="#bfbfbf" points="254.5,-89.5 254.5,-108.5 295.5,-108.5 295.5,-89.5 254.5,-89.5"/>
<text text-anchor="middle" x="275" y="-96.5" font-family="Helvetica,sans-Serif" font-size="10.00">short</text>
</a>
</g>
</g>
<!-- Node4&#45;&gt;Node1 -->
<g id="edge3" class="edge">
<title>Node4&#45;&gt;Node1</title>
<path fill="none" stroke="#9a32cd" stroke-dasharray="5,2" d="M272.89,-79.09C270.39,-65.69 264.93,-48.33 253,-38 243.69,-29.94 219.27,-23.86 194.24,-19.53"/>
<polygon fill="#9a32cd" stroke="#9a32cd" points="269.46,-79.79 274.37,-89.17 276.38,-78.77 269.46,-79.79"/>
<text text-anchor="middle" x="300" y="-52" font-family="Helvetica,sans-Serif" font-size="10.00"> wAttributes</text>
</g>
</g>
</svg>
