<?xml version="1.0" encoding="UTF-8" standalone="no"?>
<!DOCTYPE svg PUBLIC "-//W3C//DTD SVG 1.1//EN"
 "http://www.w3.org/Graphics/SVG/1.1/DTD/svg11.dtd">
<!-- Generated by graphviz version 2.43.0 (0)
 -->
<!-- Title: tagMONHSZSTRUCT Pages: 1 -->
<svg width="401pt" height="207pt"
 viewBox="0.00 0.00 401.00 207.00" xmlns="http://www.w3.org/2000/svg" xmlns:xlink="http://www.w3.org/1999/xlink">
<g id="graph0" class="graph" transform="scale(1 1) rotate(0) translate(4 203)">
<title>tagMONHSZSTRUCT</title>
<!-- Node1 -->
<g id="node1" class="node">
<title>Node1</title>
<g id="a_node1"><a xlink:title=" ">
<polygon fill="#bfbfbf" stroke="black" points="277,-105.5 277,-124.5 393,-124.5 393,-105.5 277,-105.5"/>
<text text-anchor="middle" x="335" y="-112.5" font-family="Helvetica,sans-Serif" font-size="10.00">tagMONHSZSTRUCT</text>
</a>
</g>
</g>
<!-- Node2 -->
<g id="node2" class="node">
<title>Node2</title>
<g id="a_node2"><a xlink:title=" ">
<polygon fill="none" stroke="#bfbfbf" points="67,-179.5 67,-198.5 131,-198.5 131,-179.5 67,-179.5"/>
<text text-anchor="middle" x="99" y="-186.5" font-family="Helvetica,sans-Serif" font-size="10.00">WINBOOL</text>
</a>
</g>
</g>
<!-- Node2&#45;&gt;Node1 -->
<g id="edge1" class="edge">
<title>Node2&#45;&gt;Node1</title>
<path fill="none" stroke="#9a32cd" stroke-dasharray="5,2" d="M141.1,-182.22C158.73,-179 179.49,-174.81 198,-170 225.61,-162.83 232.47,-160.5 259,-150 278.51,-142.28 300.16,-131.98 315.16,-124.56"/>
<polygon fill="#9a32cd" stroke="#9a32cd" points="140.35,-178.79 131.12,-183.99 141.58,-185.69 140.35,-178.79"/>
<text text-anchor="middle" x="237.5" y="-168" font-family="Helvetica,sans-Serif" font-size="10.00"> fsAction</text>
</g>
<!-- Node3 -->
<g id="node3" class="node">
<title>Node3</title>
<g id="a_node3"><a xlink:title=" ">
<polygon fill="none" stroke="#bfbfbf" points="80,-141.5 80,-160.5 118,-160.5 118,-141.5 80,-141.5"/>
<text text-anchor="middle" x="99" y="-148.5" font-family="Helvetica,sans-Serif" font-size="10.00">char</text>
</a>
</g>
</g>
<!-- Node3&#45;&gt;Node1 -->
<g id="edge2" class="edge">
<title>Node3&#45;&gt;Node1</title>
<path fill="none" stroke="#9a32cd" stroke-dasharray="5,2" d="M128.09,-147.52C159.9,-143.48 213.28,-136.43 259,-129 267.37,-127.64 276.24,-126.09 284.84,-124.52"/>
<polygon fill="#9a32cd" stroke="#9a32cd" points="127.65,-144.05 118.16,-148.77 128.52,-150.99 127.65,-144.05"/>
<text text-anchor="middle" x="237.5" y="-138" font-family="Helvetica,sans-Serif" font-size="10.00"> str</text>
</g>
<!-- Node4 -->
<g id="node4" class="node">
<title>Node4</title>
<g id="a_node4"><a xlink:title=" ">
<polygon fill="none" stroke="#bfbfbf" points="80.5,-103.5 80.5,-122.5 117.5,-122.5 117.5,-103.5 80.5,-103.5"/>
<text text-anchor="middle" x="99" y="-110.5" font-family="Helvetica,sans-Serif" font-size="10.00">HSZ</text>
</a>
</g>
</g>
<!-- Node4&#45;&gt;Node1 -->
<g id="edge3" class="edge">
<title>Node4&#45;&gt;Node1</title>
<path fill="none" stroke="#9a32cd" stroke-dasharray="5,2" d="M127.99,-113.24C164.62,-113.55 229.68,-114.11 276.91,-114.51"/>
<polygon fill="#9a32cd" stroke="#9a32cd" points="127.62,-109.74 117.59,-113.15 127.56,-116.74 127.62,-109.74"/>
<text text-anchor="middle" x="237.5" y="-117" font-family="Helvetica,sans-Serif" font-size="10.00"> hsz</text>
</g>
<!-- Node5 -->
<g id="node5" class="node">
<title>Node5</title>
<g id="a_node5"><a xlink:title=" ">
<polygon fill="none" stroke="#bfbfbf" points="68.5,-60.5 68.5,-79.5 129.5,-79.5 129.5,-60.5 68.5,-60.5"/>
<text text-anchor="middle" x="99" y="-67.5" font-family="Helvetica,sans-Serif" font-size="10.00">unsigned</text>
</a>
</g>
</g>
<!-- Node5&#45;&gt;Node1 -->
<g id="edge4" class="edge">
<title>Node5&#45;&gt;Node1</title>
<path fill="none" stroke="#9a32cd" stroke-dasharray="5,2" d="M139.65,-71.92C172.08,-74.11 218.96,-78.66 259,-88 277.19,-92.24 297.06,-99.52 311.77,-105.45"/>
<polygon fill="#9a32cd" stroke="#9a32cd" points="139.85,-68.43 129.65,-71.29 139.42,-75.41 139.85,-68.43"/>
<text text-anchor="middle" x="237.5" y="-102" font-family="Helvetica,sans-Serif" font-size="10.00"> dwTime</text>
<text text-anchor="middle" x="237.5" y="-91" font-family="Helvetica,sans-Serif" font-size="10.00">cb</text>
</g>
<!-- Node6 -->
<g id="node6" class="node">
<title>Node6</title>
<g id="a_node6"><a xlink:title=" ">
<polygon fill="none" stroke="#bfbfbf" points="0,-0.5 0,-41.5 198,-41.5 198,-0.5 0,-0.5"/>
<text text-anchor="start" x="8" y="-29.5" font-family="Helvetica,sans-Serif" font-size="10.00">PSecurityUserData *typedef</text>
<text text-anchor="start" x="8" y="-18.5" font-family="Helvetica,sans-Serif" font-size="10.00"> PSECPKG_EXTENDED_INFORMATION</text>
<text text-anchor="middle" x="99" y="-7.5" font-family="Helvetica,sans-Serif" font-size="10.00"> *typedef</text>
</a>
</g>
</g>
<!-- Node6&#45;&gt;Node1 -->
<g id="edge5" class="edge">
<title>Node6&#45;&gt;Node1</title>
<path fill="none" stroke="#9a32cd" stroke-dasharray="5,2" d="M203.26,-44.41C222.18,-50.14 241.48,-56.99 259,-65 282.91,-75.94 307.74,-94.05 321.98,-105.21"/>
<polygon fill="#9a32cd" stroke="#9a32cd" points="203.99,-40.98 193.41,-41.52 202.02,-47.7 203.99,-40.98"/>
<text text-anchor="middle" x="237.5" y="-68" font-family="Helvetica,sans-Serif" font-size="10.00"> hTask</text>
</g>
</g>
</svg>
