<?xml version="1.0" encoding="UTF-8" standalone="no"?>
<!DOCTYPE svg PUBLIC "-//W3C//DTD SVG 1.1//EN"
 "http://www.w3.org/Graphics/SVG/1.1/DTD/svg11.dtd">
<!-- Generated by graphviz version 2.43.0 (0)
 -->
<!-- Title: tagJOYCAPSW Pages: 1 -->
<svg width="262pt" height="205pt"
 viewBox="0.00 0.00 261.50 205.00" xmlns="http://www.w3.org/2000/svg" xmlns:xlink="http://www.w3.org/1999/xlink">
<g id="graph0" class="graph" transform="scale(1 1) rotate(0) translate(4 201)">
<title>tagJOYCAPSW</title>
<!-- Node1 -->
<g id="node1" class="node">
<title>Node1</title>
<g id="a_node1"><a xlink:title=" ">
<polygon fill="#bfbfbf" stroke="black" points="62,-0.5 62,-19.5 145,-19.5 145,-0.5 62,-0.5"/>
<text text-anchor="middle" x="103.5" y="-7.5" font-family="Helvetica,sans-Serif" font-size="10.00">tagJOYCAPSW</text>
</a>
</g>
</g>
<!-- Node2 -->
<g id="node2" class="node">
<title>Node2</title>
<g id="a_node2"><a xlink:title=" ">
<polygon fill="none" stroke="#bfbfbf" points="0,-177.5 0,-196.5 41,-196.5 41,-177.5 0,-177.5"/>
<text text-anchor="middle" x="20.5" y="-184.5" font-family="Helvetica,sans-Serif" font-size="10.00">short</text>
</a>
</g>
</g>
<!-- Node2&#45;&gt;Node1 -->
<g id="edge1" class="edge">
<title>Node2&#45;&gt;Node1</title>
<path fill="none" stroke="#9a32cd" stroke-dasharray="5,2" d="M23.21,-166.97C28.2,-137.18 41.04,-78.75 69.5,-38 74.59,-30.71 82.21,-24.4 88.95,-19.72"/>
<polygon fill="#9a32cd" stroke="#9a32cd" points="19.7,-166.79 21.62,-177.21 26.61,-167.86 19.7,-166.79"/>
<text text-anchor="middle" x="84.5" y="-101.5" font-family="Helvetica,sans-Serif" font-size="10.00"> wMid</text>
<text text-anchor="middle" x="84.5" y="-90.5" font-family="Helvetica,sans-Serif" font-size="10.00">wPid</text>
</g>
<!-- Node3 -->
<g id="node3" class="node">
<title>Node3</title>
<g id="a_node3"><a xlink:title=" ">
<polygon fill="none" stroke="#bfbfbf" points="59,-177.5 59,-196.5 148,-196.5 148,-177.5 59,-177.5"/>
<text text-anchor="middle" x="103.5" y="-184.5" font-family="Helvetica,sans-Serif" font-size="10.00">unsigned short</text>
</a>
</g>
</g>
<!-- Node3&#45;&gt;Node1 -->
<g id="edge2" class="edge">
<title>Node3&#45;&gt;Node1</title>
<path fill="none" stroke="#9a32cd" stroke-dasharray="5,2" d="M103.5,-166.95C103.5,-129.3 103.5,-46.65 103.5,-19.69"/>
<polygon fill="#9a32cd" stroke="#9a32cd" points="100,-167.08 103.5,-177.08 107,-167.08 100,-167.08"/>
<text text-anchor="middle" x="130.5" y="-107" font-family="Helvetica,sans-Serif" font-size="10.00"> szPname</text>
<text text-anchor="middle" x="130.5" y="-96" font-family="Helvetica,sans-Serif" font-size="10.00">szOEMVxD</text>
<text text-anchor="middle" x="130.5" y="-85" font-family="Helvetica,sans-Serif" font-size="10.00">szRegKey</text>
</g>
<!-- Node4 -->
<g id="node4" class="node">
<title>Node4</title>
<g id="a_node4"><a xlink:title=" ">
<polygon fill="none" stroke="#bfbfbf" points="166,-177.5 166,-196.5 195,-196.5 195,-177.5 166,-177.5"/>
<text text-anchor="middle" x="180.5" y="-184.5" font-family="Helvetica,sans-Serif" font-size="10.00">int</text>
</a>
</g>
</g>
<!-- Node4&#45;&gt;Node1 -->
<g id="edge3" class="edge">
<title>Node4&#45;&gt;Node1</title>
<path fill="none" stroke="#9a32cd" stroke-dasharray="5,2" d="M182.89,-167.28C185.71,-137.02 186.9,-76.87 158.5,-38 152.35,-29.58 142.85,-23.65 133.46,-19.54"/>
<polygon fill="#9a32cd" stroke="#9a32cd" points="179.4,-166.98 181.79,-177.3 186.36,-167.74 179.4,-166.98"/>
<text text-anchor="middle" x="218.5" y="-151" font-family="Helvetica,sans-Serif" font-size="10.00"> wMaxButtons</text>
<text text-anchor="middle" x="218.5" y="-140" font-family="Helvetica,sans-Serif" font-size="10.00">wPeriodMin</text>
<text text-anchor="middle" x="218.5" y="-129" font-family="Helvetica,sans-Serif" font-size="10.00">wZmin</text>
<text text-anchor="middle" x="218.5" y="-118" font-family="Helvetica,sans-Serif" font-size="10.00">wZmax</text>
<text text-anchor="middle" x="218.5" y="-107" font-family="Helvetica,sans-Serif" font-size="10.00">wYmin</text>
<text text-anchor="middle" x="218.5" y="-96" font-family="Helvetica,sans-Serif" font-size="10.00">wYmax</text>
<text text-anchor="middle" x="218.5" y="-85" font-family="Helvetica,sans-Serif" font-size="10.00">wXmin</text>
<text text-anchor="middle" x="218.5" y="-74" font-family="Helvetica,sans-Serif" font-size="10.00">wXmax</text>
<text text-anchor="middle" x="218.5" y="-63" font-family="Helvetica,sans-Serif" font-size="10.00">wMaxAxes</text>
<text text-anchor="middle" x="218.5" y="-52" font-family="Helvetica,sans-Serif" font-size="10.00">wVmin</text>
<text text-anchor="middle" x="218.5" y="-41" font-family="Helvetica,sans-Serif" font-size="10.00">...</text>
</g>
</g>
</svg>
