<?xml version="1.0" encoding="UTF-8" standalone="no"?>
<!DOCTYPE svg PUBLIC "-//W3C//DTD SVG 1.1//EN"
 "http://www.w3.org/Graphics/SVG/1.1/DTD/svg11.dtd">
<!-- Generated by graphviz version 2.43.0 (0)
 -->
<!-- Title: __gnu_pbds::hash_load_check_resize_trigger&lt; External_Load_Access, Size_Type &gt; Pages: 1 -->
<svg width="474pt" height="139pt"
 viewBox="0.00 0.00 473.50 139.00" xmlns="http://www.w3.org/2000/svg" xmlns:xlink="http://www.w3.org/1999/xlink">
<g id="graph0" class="graph" transform="scale(1 1) rotate(0) translate(4 135)">
<title>__gnu_pbds::hash_load_check_resize_trigger&lt; External_Load_Access, Size_Type &gt;</title>
<!-- Node1 -->
<g id="node1" class="node">
<title>Node1</title>
<g id="a_node1"><a xlink:title=" ">
<polygon fill="#bfbfbf" stroke="black" points="156,-0.5 156,-52.5 295,-52.5 295,-0.5 156,-0.5"/>
<text text-anchor="start" x="164" y="-40.5" font-family="Helvetica,sans-Serif" font-size="10.00">__gnu_pbds::hash_load</text>
<text text-anchor="start" x="164" y="-29.5" font-family="Helvetica,sans-Serif" font-size="10.00">_check_resize_trigger</text>
<text text-anchor="start" x="164" y="-18.5" font-family="Helvetica,sans-Serif" font-size="10.00">&lt; External_Load_Access,</text>
<text text-anchor="middle" x="225.5" y="-7.5" font-family="Helvetica,sans-Serif" font-size="10.00"> Size_Type &gt;</text>
</a>
</g>
</g>
<!-- Node2 -->
<g id="node2" class="node">
<title>Node2</title>
<g id="a_node2"><a xlink:title=" ">
<polygon fill="none" stroke="#bfbfbf" points="0,-111.5 0,-130.5 143,-130.5 143,-111.5 0,-111.5"/>
<text text-anchor="middle" x="71.5" y="-118.5" font-family="Helvetica,sans-Serif" font-size="10.00">PB_DS_SIZE_BASE_C_DEC</text>
</a>
</g>
</g>
<!-- Node2&#45;&gt;Node1 -->
<g id="edge1" class="edge">
<title>Node2&#45;&gt;Node1</title>
<path fill="none" stroke="#8b1a1a" d="M94.6,-106.13C118.08,-92.02 154.98,-69.86 183.62,-52.65"/>
<polygon fill="#8b1a1a" stroke="#8b1a1a" points="92.48,-103.31 85.71,-111.46 96.09,-109.31 92.48,-103.31"/>
</g>
<!-- Node3 -->
<g id="node3" class="node">
<title>Node3</title>
<g id="a_node3"><a xlink:href="../../d4/dc3/classfloat.html" target="_top" xlink:title=" ">
<polygon fill="none" stroke="black" points="161.5,-111.5 161.5,-130.5 199.5,-130.5 199.5,-111.5 161.5,-111.5"/>
<text text-anchor="middle" x="180.5" y="-118.5" font-family="Helvetica,sans-Serif" font-size="10.00">float</text>
</a>
</g>
</g>
<!-- Node3&#45;&gt;Node1 -->
<g id="edge2" class="edge">
<title>Node3&#45;&gt;Node1</title>
<path fill="none" stroke="#9a32cd" stroke-dasharray="5,2" d="M177.65,-101.33C176.99,-91.88 177.44,-80.44 181.5,-71 184.38,-64.29 188.84,-58.07 193.83,-52.56"/>
<polygon fill="#9a32cd" stroke="#9a32cd" points="174.17,-101.72 178.77,-111.27 181.12,-100.94 174.17,-101.72"/>
<text text-anchor="middle" x="215" y="-85" font-family="Helvetica,sans-Serif" font-size="10.00"> m_load_max</text>
<text text-anchor="middle" x="215" y="-74" font-family="Helvetica,sans-Serif" font-size="10.00">m_load_min</text>
</g>
<!-- Node4 -->
<g id="node4" class="node">
<title>Node4</title>
<g id="a_node4"><a xlink:title=" ">
<polygon fill="none" stroke="#bfbfbf" points="251.5,-111.5 251.5,-130.5 289.5,-130.5 289.5,-111.5 251.5,-111.5"/>
<text text-anchor="middle" x="270.5" y="-118.5" font-family="Helvetica,sans-Serif" font-size="10.00">bool</text>
</a>
</g>
</g>
<!-- Node4&#45;&gt;Node1 -->
<g id="edge3" class="edge">
<title>Node4&#45;&gt;Node1</title>
<path fill="none" stroke="#9a32cd" stroke-dasharray="5,2" d="M262.69,-101.86C258.6,-92.57 253.43,-81.11 248.5,-71 245.58,-65.01 242.3,-58.63 239.16,-52.66"/>
<polygon fill="#9a32cd" stroke="#9a32cd" points="259.57,-103.47 266.77,-111.25 265.99,-100.68 259.57,-103.47"/>
<text text-anchor="middle" x="302" y="-79.5" font-family="Helvetica,sans-Serif" font-size="10.00"> m_resize_needed</text>
</g>
<!-- Node5 -->
<g id="node5" class="node">
<title>Node5</title>
<g id="a_node5"><a xlink:title=" ">
<polygon fill="none" stroke="#bfbfbf" points="360,-111.5 360,-130.5 405,-130.5 405,-111.5 360,-111.5"/>
<text text-anchor="middle" x="382.5" y="-118.5" font-family="Helvetica,sans-Serif" font-size="10.00">size_t</text>
</a>
</g>
</g>
<!-- Node5&#45;&gt;Node1 -->
<g id="edge4" class="edge">
<title>Node5&#45;&gt;Node1</title>
<path fill="none" stroke="#9a32cd" stroke-dasharray="5,2" d="M374.67,-102.43C369.23,-92 361.05,-79.25 350.5,-71 334.39,-58.4 314.37,-49.31 295.11,-42.8"/>
<polygon fill="#9a32cd" stroke="#9a32cd" points="371.54,-104 379.04,-111.49 377.85,-100.96 371.54,-104"/>
<text text-anchor="middle" x="417" y="-85" font-family="Helvetica,sans-Serif" font-size="10.00"> m_next_grow_size</text>
<text text-anchor="middle" x="417" y="-74" font-family="Helvetica,sans-Serif" font-size="10.00">m_next_shrink_size</text>
</g>
</g>
</svg>
