<?xml version="1.0" encoding="UTF-8" standalone="no"?>
<!DOCTYPE svg PUBLIC "-//W3C//DTD SVG 1.1//EN"
 "http://www.w3.org/Graphics/SVG/1.1/DTD/svg11.dtd">
<!-- Generated by graphviz version 2.43.0 (0)
 -->
<!-- Title: _FILE_LINK_INFORMATION Pages: 1 -->
<svg width="467pt" height="148pt"
 viewBox="0.00 0.00 467.00 148.00" xmlns="http://www.w3.org/2000/svg" xmlns:xlink="http://www.w3.org/1999/xlink">
<g id="graph0" class="graph" transform="scale(1 1) rotate(0) translate(4 144)">
<title>_FILE_LINK_INFORMATION</title>
<!-- Node1 -->
<g id="node1" class="node">
<title>Node1</title>
<g id="a_node1"><a xlink:title=" ">
<polygon fill="#bfbfbf" stroke="black" points="314,-71.5 314,-90.5 459,-90.5 459,-71.5 314,-71.5"/>
<text text-anchor="middle" x="386.5" y="-78.5" font-family="Helvetica,sans-Serif" font-size="10.00">_FILE_LINK_INFORMATION</text>
</a>
</g>
</g>
<!-- Node2 -->
<g id="node2" class="node">
<title>Node2</title>
<g id="a_node2"><a xlink:title=" ">
<polygon fill="none" stroke="#bfbfbf" points="54.5,-120.5 54.5,-139.5 143.5,-139.5 143.5,-120.5 54.5,-120.5"/>
<text text-anchor="middle" x="99" y="-127.5" font-family="Helvetica,sans-Serif" font-size="10.00">unsigned short</text>
</a>
</g>
</g>
<!-- Node2&#45;&gt;Node1 -->
<g id="edge1" class="edge">
<title>Node2&#45;&gt;Node1</title>
<path fill="none" stroke="#9a32cd" stroke-dasharray="5,2" d="M153.72,-120.78C204.11,-112.13 279.13,-99.26 330.07,-90.51"/>
<polygon fill="#9a32cd" stroke="#9a32cd" points="152.94,-117.36 143.67,-122.5 154.12,-124.26 152.94,-117.36"/>
<text text-anchor="middle" x="256" y="-112" font-family="Helvetica,sans-Serif" font-size="10.00"> FileName</text>
</g>
<!-- Node3 -->
<g id="node3" class="node">
<title>Node3</title>
<g id="a_node3"><a xlink:title=" ">
<polygon fill="none" stroke="#bfbfbf" points="18.5,-60.5 18.5,-101.5 179.5,-101.5 179.5,-60.5 18.5,-60.5"/>
<text text-anchor="start" x="26.5" y="-89.5" font-family="Helvetica,sans-Serif" font-size="10.00">PLDAP *typedef(__cdecl</text>
<text text-anchor="start" x="26.5" y="-78.5" font-family="Helvetica,sans-Serif" font-size="10.00"> NOTIFYOFNEWCONNECTION)</text>
<text text-anchor="middle" x="99" y="-67.5" font-family="Helvetica,sans-Serif" font-size="10.00">(PLDAP</text>
</a>
</g>
</g>
<!-- Node3&#45;&gt;Node1 -->
<g id="edge2" class="edge">
<title>Node3&#45;&gt;Node1</title>
<path fill="none" stroke="#9a32cd" stroke-dasharray="5,2" d="M189.55,-81C229.55,-81 276.05,-81 313.71,-81"/>
<polygon fill="#9a32cd" stroke="#9a32cd" points="189.53,-77.5 179.53,-81 189.53,-84.5 189.53,-77.5"/>
<text text-anchor="middle" x="256" y="-84" font-family="Helvetica,sans-Serif" font-size="10.00"> ReplaceIfExists</text>
</g>
<!-- Node4 -->
<g id="node4" class="node">
<title>Node4</title>
<g id="a_node4"><a xlink:title=" ">
<polygon fill="none" stroke="#bfbfbf" points="0,-0.5 0,-41.5 198,-41.5 198,-0.5 0,-0.5"/>
<text text-anchor="start" x="8" y="-29.5" font-family="Helvetica,sans-Serif" font-size="10.00">PSecurityUserData *typedef</text>
<text text-anchor="start" x="8" y="-18.5" font-family="Helvetica,sans-Serif" font-size="10.00"> PSECPKG_EXTENDED_INFORMATION</text>
<text text-anchor="middle" x="99" y="-7.5" font-family="Helvetica,sans-Serif" font-size="10.00"> *typedef</text>
</a>
</g>
</g>
<!-- Node4&#45;&gt;Node1 -->
<g id="edge3" class="edge">
<title>Node4&#45;&gt;Node1</title>
<path fill="none" stroke="#9a32cd" stroke-dasharray="5,2" d="M208.18,-37.55C236.85,-42.54 267.71,-48.46 296,-55 316.18,-59.67 338.55,-66.17 355.88,-71.5"/>
<polygon fill="#9a32cd" stroke="#9a32cd" points="208.58,-34.07 198.13,-35.83 207.39,-40.97 208.58,-34.07"/>
<text text-anchor="middle" x="256" y="-69" font-family="Helvetica,sans-Serif" font-size="10.00"> RootDirectory</text>
<text text-anchor="middle" x="256" y="-58" font-family="Helvetica,sans-Serif" font-size="10.00">FileNameLength</text>
</g>
</g>
</svg>
