<?xml version="1.0" encoding="UTF-8" standalone="no"?>
<!DOCTYPE svg PUBLIC "-//W3C//DTD SVG 1.1//EN"
 "http://www.w3.org/Graphics/SVG/1.1/DTD/svg11.dtd">
<!-- Generated by graphviz version 2.43.0 (0)
 -->
<!-- Title: chargeVoiceParseBuffer_t Pages: 1 -->
<svg width="148pt" height="95pt"
 viewBox="0.00 0.00 148.00 95.00" xmlns="http://www.w3.org/2000/svg" xmlns:xlink="http://www.w3.org/1999/xlink">
<g id="graph0" class="graph" transform="scale(1 1) rotate(0) translate(4 91)">
<title>chargeVoiceParseBuffer_t</title>
<!-- Node1 -->
<g id="node1" class="node">
<title>Node1</title>
<g id="a_node1"><a xlink:title=" ">
<polygon fill="#bfbfbf" stroke="black" points="0,-0.5 0,-19.5 140,-19.5 140,-0.5 0,-0.5"/>
<text text-anchor="middle" x="70" y="-7.5" font-family="Helvetica,sans-Serif" font-size="10.00">chargeVoiceParseBuffer_t</text>
</a>
</g>
</g>
<!-- Node2 -->
<g id="node2" class="node">
<title>Node2</title>
<g id="a_node2"><a xlink:href="../../d4/dc3/classfloat.html" target="_top" xlink:title=" ">
<polygon fill="none" stroke="black" points="19,-67.5 19,-86.5 57,-86.5 57,-67.5 19,-67.5"/>
<text text-anchor="middle" x="38" y="-74.5" font-family="Helvetica,sans-Serif" font-size="10.00">float</text>
</a>
</g>
</g>
<!-- Node2&#45;&gt;Node1 -->
<g id="edge1" class="edge">
<title>Node2&#45;&gt;Node1</title>
<path fill="none" stroke="#9a32cd" stroke-dasharray="5,2" d="M35.52,-57.03C35.46,-50.72 36.26,-43.82 39,-38 42.53,-30.51 49.22,-24.26 55.49,-19.67"/>
<polygon fill="#9a32cd" stroke="#9a32cd" points="32.06,-57.7 36.33,-67.4 39.04,-57.16 32.06,-57.7"/>
<text text-anchor="middle" x="59.5" y="-41" font-family="Helvetica,sans-Serif" font-size="10.00"> startPct</text>
</g>
<!-- Node3 -->
<g id="node3" class="node">
<title>Node3</title>
<g id="a_node3"><a xlink:title=" ">
<polygon fill="none" stroke="#bfbfbf" points="83,-67.5 83,-86.5 121,-86.5 121,-67.5 83,-67.5"/>
<text text-anchor="middle" x="102" y="-74.5" font-family="Helvetica,sans-Serif" font-size="10.00">char</text>
</a>
</g>
</g>
<!-- Node3&#45;&gt;Node1 -->
<g id="edge2" class="edge">
<title>Node3&#45;&gt;Node1</title>
<path fill="none" stroke="#9a32cd" stroke-dasharray="5,2" d="M93.22,-58.16C87.05,-45.63 79.06,-29.41 74.25,-19.63"/>
<polygon fill="#9a32cd" stroke="#9a32cd" points="90.13,-59.81 97.68,-67.23 96.41,-56.72 90.13,-59.81"/>
<text text-anchor="middle" x="102" y="-41" font-family="Helvetica,sans-Serif" font-size="10.00"> voice</text>
</g>
</g>
</svg>
