<?xml version="1.0" encoding="UTF-8" standalone="no"?>
<!DOCTYPE svg PUBLIC "-//W3C//DTD SVG 1.1//EN"
 "http://www.w3.org/Graphics/SVG/1.1/DTD/svg11.dtd">
<!-- Generated by graphviz version 2.43.0 (0)
 -->
<!-- Title: SDL_ResizeEvent Pages: 1 -->
<svg width="113pt" height="106pt"
 viewBox="0.00 0.00 112.50 106.00" xmlns="http://www.w3.org/2000/svg" xmlns:xlink="http://www.w3.org/1999/xlink">
<g id="graph0" class="graph" transform="scale(1 1) rotate(0) translate(4 102)">
<title>SDL_ResizeEvent</title>
<!-- Node1 -->
<g id="node1" class="node">
<title>Node1</title>
<g id="a_node1"><a xlink:title="The &quot;window resized&quot; event When you get this event, you are responsible for setting a new video mode ...">
<polygon fill="#bfbfbf" stroke="black" points="0,-0.5 0,-19.5 101,-19.5 101,-0.5 0,-0.5"/>
<text text-anchor="middle" x="50.5" y="-7.5" font-family="Helvetica,sans-Serif" font-size="10.00">SDL_ResizeEvent</text>
</a>
</g>
</g>
<!-- Node2 -->
<g id="node2" class="node">
<title>Node2</title>
<g id="a_node2"><a xlink:title=" ">
<polygon fill="none" stroke="#bfbfbf" points="7,-78.5 7,-97.5 36,-97.5 36,-78.5 7,-78.5"/>
<text text-anchor="middle" x="21.5" y="-85.5" font-family="Helvetica,sans-Serif" font-size="10.00">int</text>
</a>
</g>
</g>
<!-- Node2&#45;&gt;Node1 -->
<g id="edge1" class="edge">
<title>Node2&#45;&gt;Node1</title>
<path fill="none" stroke="#9a32cd" stroke-dasharray="5,2" d="M28.49,-68.67C34.43,-53.11 42.69,-31.47 47.21,-19.62"/>
<polygon fill="#9a32cd" stroke="#9a32cd" points="25.12,-67.69 24.83,-78.28 31.66,-70.19 25.12,-67.69"/>
<text text-anchor="middle" x="45.5" y="-52" font-family="Helvetica,sans-Serif" font-size="10.00"> w</text>
<text text-anchor="middle" x="45.5" y="-41" font-family="Helvetica,sans-Serif" font-size="10.00">h</text>
</g>
<!-- Node3 -->
<g id="node3" class="node">
<title>Node3</title>
<g id="a_node3"><a xlink:title=" ">
<polygon fill="none" stroke="#bfbfbf" points="54.5,-78.5 54.5,-97.5 104.5,-97.5 104.5,-78.5 54.5,-78.5"/>
<text text-anchor="middle" x="79.5" y="-85.5" font-family="Helvetica,sans-Serif" font-size="10.00">uint8_t</text>
</a>
</g>
</g>
<!-- Node3&#45;&gt;Node1 -->
<g id="edge2" class="edge">
<title>Node3&#45;&gt;Node1</title>
<path fill="none" stroke="#9a32cd" stroke-dasharray="5,2" d="M72.51,-68.67C66.57,-53.11 58.31,-31.47 53.79,-19.62"/>
<polygon fill="#9a32cd" stroke="#9a32cd" points="69.34,-70.19 76.17,-78.28 75.88,-67.69 69.34,-70.19"/>
<text text-anchor="middle" x="80" y="-46.5" font-family="Helvetica,sans-Serif" font-size="10.00"> type</text>
</g>
</g>
</svg>
