<?xml version="1.0" encoding="UTF-8" standalone="no"?>
<!DOCTYPE svg PUBLIC "-//W3C//DTD SVG 1.1//EN"
 "http://www.w3.org/Graphics/SVG/1.1/DTD/svg11.dtd">
<!-- Generated by graphviz version 2.43.0 (0)
 -->
<!-- Title: Source/Engine/SDL12/include/SDL_timer.h Pages: 1 -->
<!--zoomable 240 -->
<svg id="main" version="1.1" xmlns="http://www.w3.org/2000/svg" xmlns:xlink="http://www.w3.org/1999/xlink" xml:space="preserve" onload="init(evt)">
<style type="text/css"><![CDATA[
.edge:hover path { stroke: red; }
.edge:hover polygon { stroke: red; fill: red; }
]]></style>
<script type="text/javascript"><![CDATA[
var edges = document.getElementsByTagName('g');
if (edges && edges.length) {
  for (var i=0;i<edges.length;i++) {
    if (edges[i].id.substr(0,4)=='edge') {
      edges[i].setAttribute('class','edge');
    }
  }
}
]]></script>
        <defs>
                <circle id="rim" cx="0" cy="0" r="7"/>
                <circle id="rim2" cx="0" cy="0" r="3.5"/>
                <g id="zoomPlus">
                        <use xlink:href="#rim" fill="#404040">
                                <set attributeName="fill" to="#808080" begin="zoomplus.mouseover" end="zoomplus.mouseout"/>
                        </use>
                        <path d="M-4,0h8M0,-4v8" fill="none" stroke="white" stroke-width="1.5" pointer-events="none"/>
                </g>
                <g id="zoomMin">
                        <use xlink:href="#rim" fill="#404040">
                                <set attributeName="fill" to="#808080" begin="zoomminus.mouseover" end="zoomminus.mouseout"/>
                        </use>
                        <path d="M-4,0h8" fill="none" stroke="white" stroke-width="1.5" pointer-events="none"/>
                </g>
                <g id="dirArrow">
                        <path fill="none" stroke="white" stroke-width="1.5" d="M0,-3.0v7 M-2.5,-0.5L0,-3.0L2.5,-0.5"/>
                </g>
               <g id="resetDef">
                       <use xlink:href="#rim2" fill="#404040">
                               <set attributeName="fill" to="#808080" begin="reset.mouseover" end="reset.mouseout"/>
                       </use>
               </g>
        </defs>

<script type="text/javascript">
var viewWidth = 1533;
var viewHeight = 240;
var sectionId = 'dynsection-1';
</script>
<script xlink:href="../../svgpan.js"/>
<svg id="graph" class="graph">
<g id="viewport">
<title>Source/Engine/SDL12/include/SDL_timer.h</title>
<!-- Node1 -->
<g id="node1" class="node">
<title>Node1</title>
<g id="a_node1"><a xlink:title=" ">
<polygon fill="#bfbfbf" stroke="black" points="743,-201.5 743,-231.5 862,-231.5 862,-201.5 743,-201.5"/>
<text text-anchor="start" x="751" y="-219.5" font-family="Helvetica,sans-Serif" font-size="10.00">Source/Engine/SDL12</text>
<text text-anchor="middle" x="802.5" y="-208.5" font-family="Helvetica,sans-Serif" font-size="10.00">/include/SDL_timer.h</text>
</a>
</g>
</g>
<!-- Node2 -->
<g id="node2" class="node">
<title>Node2</title>
<g id="a_node2"><a xlink:href="../../dc/d5f/Source_2Engine_2SDL12_2include_2SDL_8h.html" target="_top" xlink:title=" ">
<polygon fill="none" stroke="black" points="743,-134.5 743,-164.5 862,-164.5 862,-134.5 743,-134.5"/>
<text text-anchor="start" x="751" y="-152.5" font-family="Helvetica,sans-Serif" font-size="10.00">Source/Engine/SDL12</text>
<text text-anchor="middle" x="802.5" y="-141.5" font-family="Helvetica,sans-Serif" font-size="10.00">/include/SDL.h</text>
</a>
</g>
</g>
<!-- Node1&#45;&gt;Node2 -->
<g id="edge1" class="edge">
<title>Node1&#45;&gt;Node2</title>
<path fill="none" stroke="midnightblue" d="M802.5,-191.11C802.5,-182.15 802.5,-172.32 802.5,-164.58"/>
<polygon fill="midnightblue" stroke="midnightblue" points="799,-191.4 802.5,-201.4 806,-191.4 799,-191.4"/>
</g>
<!-- Node3 -->
<g id="node3" class="node">
<title>Node3</title>
<g id="a_node3"><a xlink:href="../../d7/d97/Engine_2sys_2sys__loadlib_8h.html" target="_top" xlink:title=" ">
<polygon fill="none" stroke="black" points="46.5,-73 46.5,-92 182.5,-92 182.5,-73 46.5,-73"/>
<text text-anchor="middle" x="114.5" y="-80" font-family="Helvetica,sans-Serif" font-size="10.00">Engine/sys/sys_loadlib.h</text>
</a>
</g>
</g>
<!-- Node2&#45;&gt;Node3 -->
<g id="edge2" class="edge">
<title>Node2&#45;&gt;Node3</title>
<path fill="none" stroke="midnightblue" d="M732.72,-144.77C619.74,-138.27 389.91,-123.1 196.5,-98 184.17,-96.4 170.87,-94.24 158.64,-92.07"/>
<polygon fill="midnightblue" stroke="midnightblue" points="732.77,-148.28 742.96,-145.36 733.17,-141.29 732.77,-148.28"/>
</g>
<!-- Node5 -->
<g id="node5" class="node">
<title>Node5</title>
<g id="a_node5"><a xlink:href="../../d5/d3d/Engine_2sys_2sys__main_8c.html" target="_top" xlink:title=" ">
<polygon fill="none" stroke="black" points="147,-6 147,-25 274,-25 274,-6 147,-6"/>
<text text-anchor="middle" x="210.5" y="-13" font-family="Helvetica,sans-Serif" font-size="10.00">Engine/sys/sys_main.c</text>
</a>
</g>
</g>
<!-- Node2&#45;&gt;Node5 -->
<g id="edge9" class="edge">
<title>Node2&#45;&gt;Node5</title>
<path fill="none" stroke="midnightblue" d="M732.8,-146.87C588.39,-142.86 266.79,-130.36 229.5,-98 208.1,-79.43 208.28,-41.86 209.58,-25.01"/>
<polygon fill="midnightblue" stroke="midnightblue" points="732.79,-150.37 742.89,-147.15 732.98,-143.38 732.79,-150.37"/>
</g>
<!-- Node6 -->
<g id="node6" class="node">
<title>Node6</title>
<g id="a_node6"><a xlink:href="../../de/dc0/Engine_2sdl_2sdl__gamma_8c.html" target="_top" xlink:title=" ">
<polygon fill="none" stroke="black" points="239,-73 239,-92 374,-92 374,-73 239,-73"/>
<text text-anchor="middle" x="306.5" y="-80" font-family="Helvetica,sans-Serif" font-size="10.00">Engine/sdl/sdl_gamma.c</text>
</a>
</g>
</g>
<!-- Node2&#45;&gt;Node6 -->
<g id="edge5" class="edge">
<title>Node2&#45;&gt;Node6</title>
<path fill="none" stroke="midnightblue" d="M732.73,-141.6C649.23,-132.99 505.29,-117.07 382.5,-98 371.48,-96.29 359.62,-94.16 348.62,-92.07"/>
<polygon fill="midnightblue" stroke="midnightblue" points="732.55,-145.1 742.86,-142.64 733.26,-138.13 732.55,-145.1"/>
</g>
<!-- Node7 -->
<g id="node7" class="node">
<title>Node7</title>
<g id="a_node7"><a xlink:href="../../d4/d06/Engine_2sdl_2sdl__glimp_8c.html" target="_top" xlink:title=" ">
<polygon fill="none" stroke="black" points="392,-73 392,-92 517,-92 517,-73 392,-73"/>
<text text-anchor="middle" x="454.5" y="-80" font-family="Helvetica,sans-Serif" font-size="10.00">Engine/sdl/sdl_glimp.c</text>
</a>
</g>
</g>
<!-- Node2&#45;&gt;Node7 -->
<g id="edge6" class="edge">
<title>Node2&#45;&gt;Node7</title>
<path fill="none" stroke="midnightblue" d="M732.82,-136.1C676.97,-126.08 596.64,-111.48 526.5,-98 516.73,-96.12 506.23,-94.04 496.35,-92.06"/>
<polygon fill="midnightblue" stroke="midnightblue" points="732.49,-139.6 742.95,-137.92 733.73,-132.71 732.49,-139.6"/>
</g>
<!-- Node8 -->
<g id="node8" class="node">
<title>Node8</title>
<g id="a_node8"><a xlink:href="../../d4/dfd/Engine_2sdl_2sdl__input_8c.html" target="_top" xlink:title=" ">
<polygon fill="none" stroke="black" points="535.5,-73 535.5,-92 657.5,-92 657.5,-73 535.5,-73"/>
<text text-anchor="middle" x="596.5" y="-80" font-family="Helvetica,sans-Serif" font-size="10.00">Engine/sdl/sdl_input.c</text>
</a>
</g>
</g>
<!-- Node2&#45;&gt;Node8 -->
<g id="edge7" class="edge">
<title>Node2&#45;&gt;Node8</title>
<path fill="none" stroke="midnightblue" d="M748.4,-131.43C708.23,-118.75 655.13,-102 623.53,-92.03"/>
<polygon fill="midnightblue" stroke="midnightblue" points="747.46,-134.8 758.05,-134.48 749.57,-128.13 747.46,-134.8"/>
</g>
<!-- Node9 -->
<g id="node9" class="node">
<title>Node9</title>
<g id="a_node9"><a xlink:href="../../dd/dd6/Engine_2sdl_2sdl__snd_8c.html" target="_top" xlink:title=" ">
<polygon fill="none" stroke="black" points="676,-73 676,-92 791,-92 791,-73 676,-73"/>
<text text-anchor="middle" x="733.5" y="-80" font-family="Helvetica,sans-Serif" font-size="10.00">Engine/sdl/sdl_snd.c</text>
</a>
</g>
</g>
<!-- Node2&#45;&gt;Node9 -->
<g id="edge8" class="edge">
<title>Node2&#45;&gt;Node9</title>
<path fill="none" stroke="midnightblue" d="M780.03,-127.34C767.36,-115.4 752.22,-101.14 742.73,-92.19"/>
<polygon fill="midnightblue" stroke="midnightblue" points="777.85,-130.09 787.53,-134.4 782.65,-124.99 777.85,-130.09"/>
</g>
<!-- Node10 -->
<g id="node10" class="node">
<title>Node10</title>
<g id="a_node10"><a xlink:href="../../da/d51/Source_2Engine_2sys_2sys__loadlib_8h.html" target="_top" xlink:title=" ">
<polygon fill="none" stroke="black" points="809,-67.5 809,-97.5 934,-97.5 934,-67.5 809,-67.5"/>
<text text-anchor="start" x="817" y="-85.5" font-family="Helvetica,sans-Serif" font-size="10.00">Source/Engine/sys/sys</text>
<text text-anchor="middle" x="871.5" y="-74.5" font-family="Helvetica,sans-Serif" font-size="10.00">_loadlib.h</text>
</a>
</g>
</g>
<!-- Node2&#45;&gt;Node10 -->
<g id="edge10" class="edge">
<title>Node2&#45;&gt;Node10</title>
<path fill="none" stroke="midnightblue" d="M824.99,-127.31C835.34,-117.56 847.34,-106.26 856.56,-97.58"/>
<polygon fill="midnightblue" stroke="midnightblue" points="822.35,-124.99 817.47,-134.4 827.15,-130.09 822.35,-124.99"/>
</g>
<!-- Node12 -->
<g id="node12" class="node">
<title>Node12</title>
<g id="a_node12"><a xlink:href="../../d9/d31/Source_2Engine_2sys_2sys__main_8c.html" target="_top" xlink:title=" ">
<polygon fill="none" stroke="black" points="900,-0.5 900,-30.5 1025,-30.5 1025,-0.5 900,-0.5"/>
<text text-anchor="start" x="908" y="-18.5" font-family="Helvetica,sans-Serif" font-size="10.00">Source/Engine/sys/sys</text>
<text text-anchor="middle" x="962.5" y="-7.5" font-family="Helvetica,sans-Serif" font-size="10.00">_main.c</text>
</a>
</g>
</g>
<!-- Node2&#45;&gt;Node12 -->
<g id="edge17" class="edge">
<title>Node2&#45;&gt;Node12</title>
<path fill="none" stroke="midnightblue" d="M872.19,-137.58C897.51,-130.3 924.35,-118.18 942.5,-98 959.36,-79.26 962.56,-48.63 962.87,-30.74"/>
<polygon fill="midnightblue" stroke="midnightblue" points="870.97,-134.28 862.2,-140.23 872.77,-141.05 870.97,-134.28"/>
</g>
<!-- Node13 -->
<g id="node13" class="node">
<title>Node13</title>
<g id="a_node13"><a xlink:href="../../d3/d9c/Source_2Engine_2sdl_2sdl__gamma_8c.html" target="_top" xlink:title=" ">
<polygon fill="none" stroke="black" points="990.5,-67.5 990.5,-97.5 1110.5,-97.5 1110.5,-67.5 990.5,-67.5"/>
<text text-anchor="start" x="998.5" y="-85.5" font-family="Helvetica,sans-Serif" font-size="10.00">Source/Engine/sdl/sdl</text>
<text text-anchor="middle" x="1050.5" y="-74.5" font-family="Helvetica,sans-Serif" font-size="10.00">_gamma.c</text>
</a>
</g>
</g>
<!-- Node2&#45;&gt;Node13 -->
<g id="edge13" class="edge">
<title>Node2&#45;&gt;Node13</title>
<path fill="none" stroke="midnightblue" d="M865.77,-131.92C906.24,-121.31 958.17,-107.7 996.66,-97.61"/>
<polygon fill="midnightblue" stroke="midnightblue" points="864.79,-128.55 856.01,-134.48 866.57,-135.33 864.79,-128.55"/>
</g>
<!-- Node14 -->
<g id="node14" class="node">
<title>Node14</title>
<g id="a_node14"><a xlink:href="../../dd/deb/Source_2Engine_2sdl_2sdl__glimp_8c.html" target="_top" xlink:title=" ">
<polygon fill="none" stroke="black" points="1128.5,-67.5 1128.5,-97.5 1248.5,-97.5 1248.5,-67.5 1128.5,-67.5"/>
<text text-anchor="start" x="1136.5" y="-85.5" font-family="Helvetica,sans-Serif" font-size="10.00">Source/Engine/sdl/sdl</text>
<text text-anchor="middle" x="1188.5" y="-74.5" font-family="Helvetica,sans-Serif" font-size="10.00">_glimp.c</text>
</a>
</g>
</g>
<!-- Node2&#45;&gt;Node14 -->
<g id="edge14" class="edge">
<title>Node2&#45;&gt;Node14</title>
<path fill="none" stroke="midnightblue" d="M872.27,-138.39C936.62,-128.83 1034.71,-113.65 1119.5,-98 1122.39,-97.47 1125.34,-96.91 1128.32,-96.33"/>
<polygon fill="midnightblue" stroke="midnightblue" points="871.62,-134.95 862.24,-139.88 872.65,-141.87 871.62,-134.95"/>
</g>
<!-- Node15 -->
<g id="node15" class="node">
<title>Node15</title>
<g id="a_node15"><a xlink:href="../../d1/d36/Source_2Engine_2sdl_2sdl__input_8c.html" target="_top" xlink:title=" ">
<polygon fill="none" stroke="black" points="1266.5,-67.5 1266.5,-97.5 1386.5,-97.5 1386.5,-67.5 1266.5,-67.5"/>
<text text-anchor="start" x="1274.5" y="-85.5" font-family="Helvetica,sans-Serif" font-size="10.00">Source/Engine/sdl/sdl</text>
<text text-anchor="middle" x="1326.5" y="-74.5" font-family="Helvetica,sans-Serif" font-size="10.00">_input.c</text>
</a>
</g>
</g>
<!-- Node2&#45;&gt;Node15 -->
<g id="edge15" class="edge">
<title>Node2&#45;&gt;Node15</title>
<path fill="none" stroke="midnightblue" d="M872.03,-142.89C961.53,-135.18 1121.67,-119.76 1257.5,-98 1260.4,-97.54 1263.36,-97.03 1266.35,-96.5"/>
<polygon fill="midnightblue" stroke="midnightblue" points="871.67,-139.4 862.01,-143.74 872.27,-146.38 871.67,-139.4"/>
</g>
<!-- Node16 -->
<g id="node16" class="node">
<title>Node16</title>
<g id="a_node16"><a xlink:href="../../d2/d78/Source_2Engine_2sdl_2sdl__snd_8c.html" target="_top" xlink:title=" ">
<polygon fill="none" stroke="black" points="1404.5,-67.5 1404.5,-97.5 1524.5,-97.5 1524.5,-67.5 1404.5,-67.5"/>
<text text-anchor="start" x="1412.5" y="-85.5" font-family="Helvetica,sans-Serif" font-size="10.00">Source/Engine/sdl/sdl</text>
<text text-anchor="middle" x="1464.5" y="-74.5" font-family="Helvetica,sans-Serif" font-size="10.00">_snd.c</text>
</a>
</g>
</g>
<!-- Node2&#45;&gt;Node16 -->
<g id="edge16" class="edge">
<title>Node2&#45;&gt;Node16</title>
<path fill="none" stroke="midnightblue" d="M872.19,-145.33C983.34,-139.65 1207.4,-125.67 1395.5,-98 1398.41,-97.57 1401.37,-97.1 1404.37,-96.59"/>
<polygon fill="midnightblue" stroke="midnightblue" points="871.93,-141.84 862.12,-145.84 872.28,-148.83 871.93,-141.84"/>
</g>
<!-- Node4 -->
<g id="node4" class="node">
<title>Node4</title>
<g id="a_node4"><a xlink:href="../../df/dda/Engine_2client_2cl__main_8c.html" target="_top" xlink:title=" ">
<polygon fill="none" stroke="black" points="0,-6 0,-25 129,-25 129,-6 0,-6"/>
<text text-anchor="middle" x="64.5" y="-13" font-family="Helvetica,sans-Serif" font-size="10.00">Engine/client/cl_main.c</text>
</a>
</g>
</g>
<!-- Node3&#45;&gt;Node4 -->
<g id="edge3" class="edge">
<title>Node3&#45;&gt;Node4</title>
<path fill="none" stroke="midnightblue" d="M101.63,-64.77C91.88,-52.1 78.89,-35.2 71.14,-25.13"/>
<polygon fill="midnightblue" stroke="midnightblue" points="98.89,-66.94 107.76,-72.73 104.43,-62.67 98.89,-66.94"/>
</g>
<!-- Node3&#45;&gt;Node5 -->
<g id="edge4" class="edge">
<title>Node3&#45;&gt;Node5</title>
<path fill="none" stroke="midnightblue" d="M135.78,-67.09C154.77,-54.24 181.95,-35.83 197.76,-25.13"/>
<polygon fill="midnightblue" stroke="midnightblue" points="133.77,-64.23 127.45,-72.73 137.69,-70.03 133.77,-64.23"/>
</g>
<!-- Node11 -->
<g id="node11" class="node">
<title>Node11</title>
<g id="a_node11"><a xlink:href="../../d6/da4/Source_2Engine_2client_2cl__main_8c.html" target="_top" xlink:title=" ">
<polygon fill="none" stroke="black" points="765.5,-0.5 765.5,-30.5 881.5,-30.5 881.5,-0.5 765.5,-0.5"/>
<text text-anchor="start" x="773.5" y="-18.5" font-family="Helvetica,sans-Serif" font-size="10.00">Source/Engine/client</text>
<text text-anchor="middle" x="823.5" y="-7.5" font-family="Helvetica,sans-Serif" font-size="10.00">/cl_main.c</text>
</a>
</g>
</g>
<!-- Node10&#45;&gt;Node11 -->
<g id="edge11" class="edge">
<title>Node10&#45;&gt;Node11</title>
<path fill="none" stroke="midnightblue" d="M855,-59.16C848,-49.68 840.06,-38.92 833.89,-30.58"/>
<polygon fill="midnightblue" stroke="midnightblue" points="852.33,-61.43 861.08,-67.4 857.96,-57.27 852.33,-61.43"/>
</g>
<!-- Node10&#45;&gt;Node12 -->
<g id="edge12" class="edge">
<title>Node10&#45;&gt;Node12</title>
<path fill="none" stroke="midnightblue" d="M899.57,-61.45C913.57,-51.45 930.16,-39.6 942.79,-30.58"/>
<polygon fill="midnightblue" stroke="midnightblue" points="897.35,-58.74 891.25,-67.4 901.42,-64.43 897.35,-58.74"/>
</g>
</g>
</svg>
        <g id="navigator" transform="translate(0 0)" fill="#404254">
                <rect fill="#f2f5e9" fill-opacity="0.5" stroke="#606060" stroke-width=".5" x="0" y="0" width="60" height="60"/>
                <use id="zoomplus" xlink:href="#zoomPlus" x="17" y="9" onmousedown="handleZoom(evt,'in')"/>
                <use id="zoomminus" xlink:href="#zoomMin" x="42" y="9" onmousedown="handleZoom(evt,'out')"/>
                <use id="reset" xlink:href="#resetDef" x="30" y="36" onmousedown="handleReset()"/>
                <g id="arrowUp" xlink:href="#dirArrow" transform="translate(30 24)" onmousedown="handlePan(0,-1)">
                  <use xlink:href="#rim" fill="#404040">
                        <set attributeName="fill" to="#808080" begin="arrowUp.mouseover" end="arrowUp.mouseout"/>
                  </use>
                  <path fill="none" stroke="white" stroke-width="1.5" d="M0,-3.0v7 M-2.5,-0.5L0,-3.0L2.5,-0.5"/>
                </g>
                <g id="arrowRight" xlink:href="#dirArrow" transform="rotate(90) translate(36 -43)" onmousedown="handlePan(1,0)">
                  <use xlink:href="#rim" fill="#404040">
                        <set attributeName="fill" to="#808080" begin="arrowRight.mouseover" end="arrowRight.mouseout"/>
                  </use>
                  <path fill="none" stroke="white" stroke-width="1.5" d="M0,-3.0v7 M-2.5,-0.5L0,-3.0L2.5,-0.5"/>
                </g>
                <g id="arrowDown" xlink:href="#dirArrow" transform="rotate(180) translate(-30 -48)" onmousedown="handlePan(0,1)">
                  <use xlink:href="#rim" fill="#404040">
                        <set attributeName="fill" to="#808080" begin="arrowDown.mouseover" end="arrowDown.mouseout"/>
                  </use>
                  <path fill="none" stroke="white" stroke-width="1.5" d="M0,-3.0v7 M-2.5,-0.5L0,-3.0L2.5,-0.5"/>
                </g>
                <g id="arrowLeft" xlink:href="#dirArrow" transform="rotate(270) translate(-36 17)" onmousedown="handlePan(-1,0)">
                  <use xlink:href="#rim" fill="#404040">
                        <set attributeName="fill" to="#808080" begin="arrowLeft.mouseover" end="arrowLeft.mouseout"/>
                  </use>
                  <path fill="none" stroke="white" stroke-width="1.5" d="M0,-3.0v7 M-2.5,-0.5L0,-3.0L2.5,-0.5"/>
                </g>
        </g>
        <svg viewBox="0 0 15 15" width="100%" height="30px" preserveAspectRatio="xMaxYMin meet">
         <g id="arrow_out" transform="scale(0.3 0.3)">
          <a xlink:href="Source_2Engine_2SDL12_2include_2SDL__timer_8h__dep__incl_org.svg" target="_base">
           <rect id="button" ry="5" rx="5" y="6" x="6" height="38" width="38"
                fill="#f2f5e9" fill-opacity="0.5" stroke="#606060" stroke-width="1.0"/>
           <path id="arrow"
             d="M 11.500037,31.436501 C 11.940474,20.09759 22.043105,11.32322 32.158766,21.979434 L 37.068811,17.246167 C 37.068811,17.246167 37.088388,32 37.088388,32 L 22.160133,31.978069 C 22.160133,31.978069 26.997745,27.140456 26.997745,27.140456 C 18.528582,18.264221 13.291696,25.230495 11.500037,31.436501 z"
             style="fill:#404040;"/>
          </a>
         </g>
        </svg>
</svg>
