<?xml version="1.0" encoding="UTF-8" standalone="no"?>
<!DOCTYPE svg PUBLIC "-//W3C//DTD SVG 1.1//EN"
 "http://www.w3.org/Graphics/SVG/1.1/DTD/svg11.dtd">
<!-- Generated by graphviz version 2.43.0 (0)
 -->
<!-- Title: state Pages: 1 -->
<svg width="268pt" height="128pt"
 viewBox="0.00 0.00 267.50 128.00" xmlns="http://www.w3.org/2000/svg" xmlns:xlink="http://www.w3.org/1999/xlink">
<g id="graph0" class="graph" transform="scale(1 1) rotate(0) translate(4 124)">
<title>state</title>
<!-- Node1 -->
<g id="node1" class="node">
<title>Node1</title>
<g id="a_node1"><a xlink:title=" ">
<polygon fill="#bfbfbf" stroke="black" points="99.5,-0.5 99.5,-19.5 140.5,-19.5 140.5,-0.5 99.5,-0.5"/>
<text text-anchor="middle" x="120" y="-7.5" font-family="Helvetica,sans-Serif" font-size="10.00">state</text>
</a>
</g>
</g>
<!-- Node2 -->
<g id="node2" class="node">
<title>Node2</title>
<g id="a_node2"><a xlink:title=" ">
<polygon fill="none" stroke="#bfbfbf" points="0,-100.5 0,-119.5 56,-119.5 56,-100.5 0,-100.5"/>
<text text-anchor="middle" x="28" y="-107.5" font-family="Helvetica,sans-Serif" font-size="10.00">jmp_buf</text>
</a>
</g>
</g>
<!-- Node2&#45;&gt;Node1 -->
<g id="edge1" class="edge">
<title>Node2&#45;&gt;Node1</title>
<path fill="none" stroke="#9a32cd" stroke-dasharray="5,2" d="M33.19,-90.85C38.47,-75.16 48.04,-52.73 63,-38 73.07,-28.09 87.46,-21.31 99.27,-17.03"/>
<polygon fill="#9a32cd" stroke="#9a32cd" points="29.83,-89.88 30.2,-100.47 36.51,-91.96 29.83,-89.88"/>
<text text-anchor="middle" x="74" y="-57.5" font-family="Helvetica,sans-Serif" font-size="10.00"> env</text>
</g>
<!-- Node3 -->
<g id="node3" class="node">
<title>Node3</title>
<g id="a_node3"><a xlink:title=" ">
<polygon fill="none" stroke="#bfbfbf" points="74.5,-100.5 74.5,-119.5 103.5,-119.5 103.5,-100.5 74.5,-100.5"/>
<text text-anchor="middle" x="89" y="-107.5" font-family="Helvetica,sans-Serif" font-size="10.00">int</text>
</a>
</g>
</g>
<!-- Node3&#45;&gt;Node1 -->
<g id="edge2" class="edge">
<title>Node3&#45;&gt;Node1</title>
<path fill="none" stroke="#9a32cd" stroke-dasharray="5,2" d="M88.17,-89.9C88.23,-75.14 89.84,-54.52 97,-38 100.04,-30.99 105.53,-24.44 110.38,-19.54"/>
<polygon fill="#9a32cd" stroke="#9a32cd" points="84.68,-90.35 88.39,-100.28 91.68,-90.21 84.68,-90.35"/>
<text text-anchor="middle" x="113" y="-63" font-family="Helvetica,sans-Serif" font-size="10.00"> bitbuf</text>
<text text-anchor="middle" x="113" y="-52" font-family="Helvetica,sans-Serif" font-size="10.00">bitcnt</text>
</g>
<!-- Node4 -->
<g id="node4" class="node">
<title>Node4</title>
<g id="a_node4"><a xlink:title=" ">
<polygon fill="none" stroke="#bfbfbf" points="121.5,-100.5 121.5,-119.5 180.5,-119.5 180.5,-100.5 121.5,-100.5"/>
<text text-anchor="middle" x="151" y="-107.5" font-family="Helvetica,sans-Serif" font-size="10.00">uint8_t *</text>
</a>
</g>
</g>
<!-- Node4&#45;&gt;Node1 -->
<g id="edge3" class="edge">
<title>Node4&#45;&gt;Node1</title>
<path fill="none" stroke="#9a32cd" stroke-dasharray="5,2" d="M145.41,-90.59C141.03,-76.23 134.73,-55.82 129,-38 127.06,-31.98 124.81,-25.23 123.05,-19.98"/>
<polygon fill="#9a32cd" stroke="#9a32cd" points="142.09,-91.69 148.35,-100.24 148.79,-89.65 142.09,-91.69"/>
<text text-anchor="middle" x="150" y="-63" font-family="Helvetica,sans-Serif" font-size="10.00"> in</text>
<text text-anchor="middle" x="150" y="-52" font-family="Helvetica,sans-Serif" font-size="10.00">out</text>
</g>
<!-- Node5 -->
<g id="node5" class="node">
<title>Node5</title>
<g id="a_node5"><a xlink:title=" ">
<polygon fill="none" stroke="#bfbfbf" points="198.5,-100.5 198.5,-119.5 259.5,-119.5 259.5,-100.5 198.5,-100.5"/>
<text text-anchor="middle" x="229" y="-107.5" font-family="Helvetica,sans-Serif" font-size="10.00">unsigned</text>
</a>
</g>
</g>
<!-- Node5&#45;&gt;Node1 -->
<g id="edge4" class="edge">
<title>Node5&#45;&gt;Node1</title>
<path fill="none" stroke="#9a32cd" stroke-dasharray="5,2" d="M215.5,-92.54C202.64,-77.41 182.28,-54.83 162,-38 153.73,-31.13 143.62,-24.59 135.39,-19.66"/>
<polygon fill="#9a32cd" stroke="#9a32cd" points="213.05,-95.07 222.15,-100.49 218.42,-90.58 213.05,-95.07"/>
<text text-anchor="middle" x="221" y="-74" font-family="Helvetica,sans-Serif" font-size="10.00"> outlen</text>
<text text-anchor="middle" x="221" y="-63" font-family="Helvetica,sans-Serif" font-size="10.00">inlen</text>
<text text-anchor="middle" x="221" y="-52" font-family="Helvetica,sans-Serif" font-size="10.00">outcnt</text>
<text text-anchor="middle" x="221" y="-41" font-family="Helvetica,sans-Serif" font-size="10.00">incnt</text>
</g>
</g>
</svg>
