<?xml version="1.0" encoding="UTF-8" standalone="no"?>
<!DOCTYPE svg PUBLIC "-//W3C//DTD SVG 1.1//EN"
 "http://www.w3.org/Graphics/SVG/1.1/DTD/svg11.dtd">
<!-- Generated by graphviz version 2.43.0 (0)
 -->
<!-- Title: MapiFileDesc Pages: 1 -->
<svg width="337pt" height="139pt"
 viewBox="0.00 0.00 337.00 139.00" xmlns="http://www.w3.org/2000/svg" xmlns:xlink="http://www.w3.org/1999/xlink">
<g id="graph0" class="graph" transform="scale(1 1) rotate(0) translate(4 135)">
<title>MapiFileDesc</title>
<!-- Node1 -->
<g id="node1" class="node">
<title>Node1</title>
<g id="a_node1"><a xlink:title=" ">
<polygon fill="#bfbfbf" stroke="black" points="53,-0.5 53,-19.5 135,-19.5 135,-0.5 53,-0.5"/>
<text text-anchor="middle" x="94" y="-7.5" font-family="Helvetica,sans-Serif" font-size="10.00">MapiFileDesc</text>
</a>
</g>
</g>
<!-- Node2 -->
<g id="node2" class="node">
<title>Node2</title>
<g id="a_node2"><a xlink:title=" ">
<polygon fill="none" stroke="#bfbfbf" points="0,-100.5 0,-119.5 38,-119.5 38,-100.5 0,-100.5"/>
<text text-anchor="middle" x="19" y="-107.5" font-family="Helvetica,sans-Serif" font-size="10.00">void</text>
</a>
</g>
</g>
<!-- Node2&#45;&gt;Node1 -->
<g id="edge1" class="edge">
<title>Node2&#45;&gt;Node1</title>
<path fill="none" stroke="#9a32cd" stroke-dasharray="5,2" d="M19.81,-90.04C21.39,-74.49 25.82,-52.71 38,-38 44.88,-29.69 54.93,-23.75 64.63,-19.6"/>
<polygon fill="#9a32cd" stroke="#9a32cd" points="16.31,-89.85 19.09,-100.08 23.29,-90.35 16.31,-89.85"/>
<text text-anchor="middle" x="64" y="-52" font-family="Helvetica,sans-Serif" font-size="10.00"> lpFileType</text>
</g>
<!-- Node3 -->
<g id="node3" class="node">
<title>Node3</title>
<g id="a_node3"><a xlink:title=" ">
<polygon fill="none" stroke="#bfbfbf" points="75,-100.5 75,-119.5 113,-119.5 113,-100.5 75,-100.5"/>
<text text-anchor="middle" x="94" y="-107.5" font-family="Helvetica,sans-Serif" font-size="10.00">char</text>
</a>
</g>
</g>
<!-- Node3&#45;&gt;Node1 -->
<g id="edge2" class="edge">
<title>Node3&#45;&gt;Node1</title>
<path fill="none" stroke="#9a32cd" stroke-dasharray="5,2" d="M94,-90.22C94,-68.95 94,-35.22 94,-19.54"/>
<polygon fill="#9a32cd" stroke="#9a32cd" points="90.5,-90.3 94,-100.3 97.5,-90.3 90.5,-90.3"/>
<text text-anchor="middle" x="129" y="-57.5" font-family="Helvetica,sans-Serif" font-size="10.00"> lpszFileName</text>
<text text-anchor="middle" x="129" y="-46.5" font-family="Helvetica,sans-Serif" font-size="10.00">lpszPathName</text>
</g>
<!-- Node4 -->
<g id="node4" class="node">
<title>Node4</title>
<g id="a_node4"><a xlink:title=" ">
<polygon fill="none" stroke="#bfbfbf" points="131,-89.5 131,-130.5 329,-130.5 329,-89.5 131,-89.5"/>
<text text-anchor="start" x="139" y="-118.5" font-family="Helvetica,sans-Serif" font-size="10.00">PSecurityUserData *typedef</text>
<text text-anchor="start" x="139" y="-107.5" font-family="Helvetica,sans-Serif" font-size="10.00"> PSECPKG_EXTENDED_INFORMATION</text>
<text text-anchor="middle" x="230" y="-96.5" font-family="Helvetica,sans-Serif" font-size="10.00"> *typedef</text>
</a>
</g>
</g>
<!-- Node4&#45;&gt;Node1 -->
<g id="edge3" class="edge">
<title>Node4&#45;&gt;Node1</title>
<path fill="none" stroke="#9a32cd" stroke-dasharray="5,2" d="M211.04,-81.19C199.94,-66.65 184.81,-49.53 168,-38 156.16,-29.88 141.58,-23.87 128.51,-19.62"/>
<polygon fill="#9a32cd" stroke="#9a32cd" points="208.34,-83.42 217.1,-89.39 213.97,-79.27 208.34,-83.42"/>
<text text-anchor="middle" x="230" y="-63" font-family="Helvetica,sans-Serif" font-size="10.00"> ulReserved</text>
<text text-anchor="middle" x="230" y="-52" font-family="Helvetica,sans-Serif" font-size="10.00">nPosition</text>
<text text-anchor="middle" x="230" y="-41" font-family="Helvetica,sans-Serif" font-size="10.00">flFlags</text>
</g>
</g>
</svg>
