<?xml version="1.0" encoding="UTF-8" standalone="no"?>
<!DOCTYPE svg PUBLIC "-//W3C//DTD SVG 1.1//EN"
 "http://www.w3.org/Graphics/SVG/1.1/DTD/svg11.dtd">
<!-- Generated by graphviz version 2.43.0 (0)
 -->
<!-- Title: my_source_mgr Pages: 1 -->
<svg width="294pt" height="162pt"
 viewBox="0.00 0.00 294.00 162.00" xmlns="http://www.w3.org/2000/svg" xmlns:xlink="http://www.w3.org/1999/xlink">
<g id="graph0" class="graph" transform="scale(1 1) rotate(0) translate(4 158)">
<title>my_source_mgr</title>
<!-- Node1 -->
<g id="node1" class="node">
<title>Node1</title>
<g id="a_node1"><a xlink:title=" ">
<polygon fill="#bfbfbf" stroke="black" points="122.5,-0.5 122.5,-19.5 217.5,-19.5 217.5,-0.5 122.5,-0.5"/>
<text text-anchor="middle" x="170" y="-7.5" font-family="Helvetica,sans-Serif" font-size="10.00">my_source_mgr</text>
</a>
</g>
</g>
<!-- Node2 -->
<g id="node2" class="node">
<title>Node2</title>
<g id="a_node2"><a xlink:href="../../de/d73/structjpeg__source__mgr.html" target="_top" xlink:title=" ">
<polygon fill="none" stroke="black" points="52,-67.5 52,-86.5 152,-86.5 152,-67.5 52,-67.5"/>
<text text-anchor="middle" x="102" y="-74.5" font-family="Helvetica,sans-Serif" font-size="10.00">jpeg_source_mgr</text>
</a>
</g>
</g>
<!-- Node2&#45;&gt;Node1 -->
<g id="edge1" class="edge">
<title>Node2&#45;&gt;Node1</title>
<path fill="none" stroke="#9a32cd" stroke-dasharray="5,2" d="M118.74,-60C132.08,-47.25 150.23,-29.89 160.97,-19.63"/>
<polygon fill="#9a32cd" stroke="#9a32cd" points="115.98,-57.79 111.17,-67.23 120.82,-62.85 115.98,-57.79"/>
<text text-anchor="middle" x="151" y="-41" font-family="Helvetica,sans-Serif" font-size="10.00"> pub</text>
</g>
<!-- Node3 -->
<g id="node3" class="node">
<title>Node3</title>
<g id="a_node3"><a xlink:title=" ">
<polygon fill="none" stroke="#bfbfbf" points="0,-134.5 0,-153.5 38,-153.5 38,-134.5 0,-134.5"/>
<text text-anchor="middle" x="19" y="-141.5" font-family="Helvetica,sans-Serif" font-size="10.00">char</text>
</a>
</g>
</g>
<!-- Node3&#45;&gt;Node1 -->
<g id="edge4" class="edge">
<title>Node3&#45;&gt;Node1</title>
<path fill="none" stroke="#9a32cd" stroke-dasharray="5,2" d="M10.61,-124.43C4.5,-107.86 -0.82,-83.7 11,-67 36.03,-31.65 85.26,-18.46 122.34,-13.62"/>
<polygon fill="#9a32cd" stroke="#9a32cd" points="7.52,-126.14 14.56,-134.07 14,-123.49 7.52,-126.14"/>
<text text-anchor="middle" x="27" y="-74.5" font-family="Helvetica,sans-Serif" font-size="10.00"> buffer</text>
</g>
<!-- Node3&#45;&gt;Node2 -->
<g id="edge2" class="edge">
<title>Node3&#45;&gt;Node2</title>
<path fill="none" stroke="#9a32cd" stroke-dasharray="5,2" d="M21.93,-124.44C23.82,-117.62 26.92,-110.28 32,-105 40.22,-96.46 51.44,-90.58 62.49,-86.55"/>
<polygon fill="#9a32cd" stroke="#9a32cd" points="18.48,-123.86 19.85,-134.37 25.33,-125.3 18.48,-123.86"/>
<text text-anchor="middle" x="73" y="-108" font-family="Helvetica,sans-Serif" font-size="10.00"> next_input_byte</text>
</g>
<!-- Node4 -->
<g id="node4" class="node">
<title>Node4</title>
<g id="a_node4"><a xlink:title=" ">
<polygon fill="none" stroke="#bfbfbf" points="109.5,-134.5 109.5,-153.5 170.5,-153.5 170.5,-134.5 109.5,-134.5"/>
<text text-anchor="middle" x="140" y="-141.5" font-family="Helvetica,sans-Serif" font-size="10.00">unsigned</text>
</a>
</g>
</g>
<!-- Node4&#45;&gt;Node2 -->
<g id="edge3" class="edge">
<title>Node4&#45;&gt;Node2</title>
<path fill="none" stroke="#9a32cd" stroke-dasharray="5,2" d="M129.71,-125.14C126.03,-118.78 121.84,-111.56 118,-105 114.47,-98.98 110.47,-92.23 107.36,-86.99"/>
<polygon fill="#9a32cd" stroke="#9a32cd" points="126.93,-127.32 134.96,-134.23 132.99,-123.82 126.93,-127.32"/>
<text text-anchor="middle" x="163.5" y="-108" font-family="Helvetica,sans-Serif" font-size="10.00"> bytes_in_buffer</text>
</g>
<!-- Node5 -->
<g id="node5" class="node">
<title>Node5</title>
<g id="a_node5"><a xlink:title=" ">
<polygon fill="none" stroke="#bfbfbf" points="170.5,-67.5 170.5,-86.5 215.5,-86.5 215.5,-67.5 170.5,-67.5"/>
<text text-anchor="middle" x="193" y="-74.5" font-family="Helvetica,sans-Serif" font-size="10.00">FILE *</text>
</a>
</g>
</g>
<!-- Node5&#45;&gt;Node1 -->
<g id="edge5" class="edge">
<title>Node5&#45;&gt;Node1</title>
<path fill="none" stroke="#9a32cd" stroke-dasharray="5,2" d="M186.56,-57.79C182.14,-45.31 176.48,-29.31 173.05,-19.63"/>
<polygon fill="#9a32cd" stroke="#9a32cd" points="183.26,-58.97 189.9,-67.23 189.86,-56.64 183.26,-58.97"/>
<text text-anchor="middle" x="196" y="-41" font-family="Helvetica,sans-Serif" font-size="10.00"> infile</text>
</g>
<!-- Node6 -->
<g id="node6" class="node">
<title>Node6</title>
<g id="a_node6"><a xlink:title=" ">
<polygon fill="none" stroke="#bfbfbf" points="233.5,-67.5 233.5,-86.5 262.5,-86.5 262.5,-67.5 233.5,-67.5"/>
<text text-anchor="middle" x="248" y="-74.5" font-family="Helvetica,sans-Serif" font-size="10.00">int</text>
</a>
</g>
</g>
<!-- Node6&#45;&gt;Node1 -->
<g id="edge6" class="edge">
<title>Node6&#45;&gt;Node1</title>
<path fill="none" stroke="#9a32cd" stroke-dasharray="5,2" d="M234.91,-59.32C228.95,-52.29 221.55,-44.3 214,-38 205.61,-30.99 195.22,-24.53 186.65,-19.69"/>
<polygon fill="#9a32cd" stroke="#9a32cd" points="232.55,-61.96 241.59,-67.5 237.98,-57.54 232.55,-61.96"/>
<text text-anchor="middle" x="255.5" y="-41" font-family="Helvetica,sans-Serif" font-size="10.00"> start_of_file</text>
</g>
</g>
</svg>
