<?xml version="1.0" encoding="UTF-8" standalone="no"?>
<!DOCTYPE svg PUBLIC "-//W3C//DTD SVG 1.1//EN"
 "http://www.w3.org/Graphics/SVG/1.1/DTD/svg11.dtd">
<!-- Generated by graphviz version 2.43.0 (0)
 -->
<!-- Title: Source/Engine/libspeex/filters.c Pages: 1 -->
<svg width="431pt" height="207pt"
 viewBox="0.00 0.00 431.00 207.00" xmlns="http://www.w3.org/2000/svg" xmlns:xlink="http://www.w3.org/1999/xlink">
<g id="graph0" class="graph" transform="scale(1 1) rotate(0) translate(4 203)">
<title>Source/Engine/libspeex/filters.c</title>
<!-- Node1 -->
<g id="node1" class="node">
<title>Node1</title>
<g id="a_node1"><a xlink:title=" ">
<polygon fill="#bfbfbf" stroke="black" points="135.5,-168.5 135.5,-198.5 265.5,-198.5 265.5,-168.5 135.5,-168.5"/>
<text text-anchor="start" x="143.5" y="-186.5" font-family="Helvetica,sans-Serif" font-size="10.00">Source/Engine/libspeex</text>
<text text-anchor="middle" x="200.5" y="-175.5" font-family="Helvetica,sans-Serif" font-size="10.00">/filters.c</text>
</a>
</g>
</g>
<!-- Node2 -->
<g id="node2" class="node">
<title>Node2</title>
<g id="a_node2"><a xlink:href="../../d4/d4c/Source_2Engine_2libspeex_2filters_8h.html" target="_top" xlink:title="Various analysis/synthesis filters.">
<polygon fill="none" stroke="black" points="0,-112.5 0,-131.5 53,-131.5 53,-112.5 0,-112.5"/>
<text text-anchor="middle" x="26.5" y="-119.5" font-family="Helvetica,sans-Serif" font-size="10.00">filters.h</text>
</a>
</g>
</g>
<!-- Node1&#45;&gt;Node2 -->
<g id="edge1" class="edge">
<title>Node1&#45;&gt;Node2</title>
<path fill="none" stroke="midnightblue" d="M159.26,-168.4C129.33,-158.16 89.29,-144.47 61.03,-134.81"/>
<polygon fill="midnightblue" stroke="midnightblue" points="62.16,-131.49 51.56,-131.57 59.89,-138.12 62.16,-131.49"/>
</g>
<!-- Node3 -->
<g id="node3" class="node">
<title>Node3</title>
<g id="a_node3"><a xlink:href="../../d9/dce/Source_2Engine_2libspeex_2arch_8h.html" target="_top" xlink:title="Various architecture definitions Speex.">
<polygon fill="none" stroke="black" points="136,-56.5 136,-75.5 183,-75.5 183,-56.5 136,-56.5"/>
<text text-anchor="middle" x="159.5" y="-63.5" font-family="Helvetica,sans-Serif" font-size="10.00">arch.h</text>
</a>
</g>
</g>
<!-- Node1&#45;&gt;Node3 -->
<g id="edge5" class="edge">
<title>Node1&#45;&gt;Node3</title>
<path fill="none" stroke="midnightblue" d="M147.81,-168.45C129.59,-160.79 111.1,-149.23 100.5,-132 88.33,-112.21 111.57,-92.94 132.37,-80.59"/>
<polygon fill="midnightblue" stroke="midnightblue" points="134.3,-83.52 141.32,-75.58 130.88,-77.41 134.3,-83.52"/>
</g>
<!-- Node5 -->
<g id="node5" class="node">
<title>Node5</title>
<g id="a_node5"><a xlink:href="../../d0/dbf/Source_2Engine_2libspeex_2stack__alloc_8h.html" target="_top" xlink:title="Temporary memory allocation on stack.">
<polygon fill="none" stroke="black" points="109.5,-112.5 109.5,-131.5 189.5,-131.5 189.5,-112.5 109.5,-112.5"/>
<text text-anchor="middle" x="149.5" y="-119.5" font-family="Helvetica,sans-Serif" font-size="10.00">stack_alloc.h</text>
</a>
</g>
</g>
<!-- Node1&#45;&gt;Node5 -->
<g id="edge4" class="edge">
<title>Node1&#45;&gt;Node5</title>
<path fill="none" stroke="midnightblue" d="M188.41,-168.4C180.93,-159.66 171.28,-148.41 163.47,-139.3"/>
<polygon fill="midnightblue" stroke="midnightblue" points="166.09,-136.97 156.92,-131.66 160.77,-141.53 166.09,-136.97"/>
</g>
<!-- Node6 -->
<g id="node6" class="node">
<title>Node6</title>
<g id="a_node6"><a xlink:href="../../d3/d89/Source_2Engine_2libspeex_2math__approx_8h.html" target="_top" xlink:title="Various math approximation functions for Speex.">
<polygon fill="none" stroke="black" points="207.5,-112.5 207.5,-131.5 297.5,-131.5 297.5,-112.5 207.5,-112.5"/>
<text text-anchor="middle" x="252.5" y="-119.5" font-family="Helvetica,sans-Serif" font-size="10.00">math_approx.h</text>
</a>
</g>
</g>
<!-- Node1&#45;&gt;Node6 -->
<g id="edge6" class="edge">
<title>Node1&#45;&gt;Node6</title>
<path fill="none" stroke="midnightblue" d="M212.82,-168.4C220.46,-159.66 230.29,-148.41 238.26,-139.3"/>
<polygon fill="midnightblue" stroke="midnightblue" points="240.99,-141.49 244.93,-131.66 235.72,-136.88 240.99,-141.49"/>
</g>
<!-- Node7 -->
<g id="node7" class="node">
<title>Node7</title>
<g id="a_node7"><a xlink:href="../../d3/d58/Source_2Engine_2libspeex_2ltp_8h.html" target="_top" xlink:title="Long&#45;Term Prediction functions.">
<polygon fill="none" stroke="black" points="315.5,-112.5 315.5,-131.5 353.5,-131.5 353.5,-112.5 315.5,-112.5"/>
<text text-anchor="middle" x="334.5" y="-119.5" font-family="Helvetica,sans-Serif" font-size="10.00">ltp.h</text>
</a>
</g>
</g>
<!-- Node1&#45;&gt;Node7 -->
<g id="edge8" class="edge">
<title>Node1&#45;&gt;Node7</title>
<path fill="none" stroke="midnightblue" d="M232.26,-168.4C254.67,-158.45 284.45,-145.23 306.08,-135.62"/>
<polygon fill="midnightblue" stroke="midnightblue" points="307.67,-138.74 315.39,-131.48 304.83,-132.34 307.67,-138.74"/>
</g>
<!-- Node9 -->
<g id="node9" class="node">
<title>Node9</title>
<g id="a_node9"><a xlink:title=" ">
<polygon fill="none" stroke="#bfbfbf" points="372,-112.5 372,-131.5 423,-131.5 423,-112.5 372,-112.5"/>
<text text-anchor="middle" x="397.5" y="-119.5" font-family="Helvetica,sans-Serif" font-size="10.00">math.h</text>
</a>
</g>
</g>
<!-- Node1&#45;&gt;Node9 -->
<g id="edge11" class="edge">
<title>Node1&#45;&gt;Node9</title>
<path fill="none" stroke="midnightblue" d="M247.19,-168.4C282.4,-157.76 329.97,-143.4 362.09,-133.7"/>
<polygon fill="midnightblue" stroke="midnightblue" points="363.38,-136.96 371.94,-130.72 361.35,-130.26 363.38,-136.96"/>
</g>
<!-- Node2&#45;&gt;Node3 -->
<g id="edge2" class="edge">
<title>Node2&#45;&gt;Node3</title>
<path fill="none" stroke="midnightblue" d="M47.57,-112.44C69.56,-103.52 104.23,-89.44 129.16,-79.32"/>
<polygon fill="midnightblue" stroke="midnightblue" points="130.58,-82.52 138.52,-75.52 127.94,-76.04 130.58,-82.52"/>
</g>
<!-- Node4 -->
<g id="node4" class="node">
<title>Node4</title>
<g id="a_node4"><a xlink:title=" ">
<polygon fill="none" stroke="#bfbfbf" points="100,-0.5 100,-19.5 219,-19.5 219,-0.5 100,-0.5"/>
<text text-anchor="middle" x="159.5" y="-7.5" font-family="Helvetica,sans-Serif" font-size="10.00">speex/speex_types.h</text>
</a>
</g>
</g>
<!-- Node3&#45;&gt;Node4 -->
<g id="edge3" class="edge">
<title>Node3&#45;&gt;Node4</title>
<path fill="none" stroke="midnightblue" d="M159.5,-56.08C159.5,-49.01 159.5,-38.86 159.5,-29.99"/>
<polygon fill="midnightblue" stroke="midnightblue" points="163,-29.75 159.5,-19.75 156,-29.75 163,-29.75"/>
</g>
<!-- Node6&#45;&gt;Node3 -->
<g id="edge7" class="edge">
<title>Node6&#45;&gt;Node3</title>
<path fill="none" stroke="midnightblue" d="M237.56,-112.32C222.91,-103.82 200.37,-90.73 183.26,-80.8"/>
<polygon fill="midnightblue" stroke="midnightblue" points="184.81,-77.65 174.4,-75.65 181.3,-83.7 184.81,-77.65"/>
</g>
<!-- Node7&#45;&gt;Node3 -->
<g id="edge10" class="edge">
<title>Node7&#45;&gt;Node3</title>
<path fill="none" stroke="midnightblue" d="M315.23,-114.77C312.31,-113.83 309.33,-112.89 306.5,-112 267.66,-99.81 222.92,-86.18 193.1,-77.14"/>
<polygon fill="midnightblue" stroke="midnightblue" points="193.79,-73.69 183.21,-74.15 191.77,-80.39 193.79,-73.69"/>
</g>
<!-- Node8 -->
<g id="node8" class="node">
<title>Node8</title>
<g id="a_node8"><a xlink:title=" ">
<polygon fill="none" stroke="#bfbfbf" points="279.5,-56.5 279.5,-75.5 389.5,-75.5 389.5,-56.5 279.5,-56.5"/>
<text text-anchor="middle" x="334.5" y="-63.5" font-family="Helvetica,sans-Serif" font-size="10.00">speex/speex_bits.h</text>
</a>
</g>
</g>
<!-- Node7&#45;&gt;Node8 -->
<g id="edge9" class="edge">
<title>Node7&#45;&gt;Node8</title>
<path fill="none" stroke="midnightblue" d="M334.5,-112.08C334.5,-105.01 334.5,-94.86 334.5,-85.99"/>
<polygon fill="midnightblue" stroke="midnightblue" points="338,-85.75 334.5,-75.75 331,-85.75 338,-85.75"/>
</g>
</g>
</svg>
