<?xml version="1.0" encoding="UTF-8" standalone="no"?>
<!DOCTYPE svg PUBLIC "-//W3C//DTD SVG 1.1//EN"
 "http://www.w3.org/Graphics/SVG/1.1/DTD/svg11.dtd">
<!-- Generated by graphviz version 2.43.0 (0)
 -->
<!-- Title: _IMAGE_THUNK_DATA64 Pages: 1 -->
<svg width="205pt" height="128pt"
 viewBox="0.00 0.00 204.50 128.00" xmlns="http://www.w3.org/2000/svg" xmlns:xlink="http://www.w3.org/1999/xlink">
<g id="graph0" class="graph" transform="scale(1 1) rotate(0) translate(4 124)">
<title>_IMAGE_THUNK_DATA64</title>
<!-- Node1 -->
<g id="node1" class="node">
<title>Node1</title>
<g id="a_node1"><a xlink:title=" ">
<polygon fill="#bfbfbf" stroke="black" points="20,-0.5 20,-19.5 157,-19.5 157,-0.5 20,-0.5"/>
<text text-anchor="middle" x="88.5" y="-7.5" font-family="Helvetica,sans-Serif" font-size="10.00">_IMAGE_THUNK_DATA64</text>
</a>
</g>
</g>
<!-- Node2 -->
<g id="node2" class="node">
<title>Node2</title>
<g id="a_node2"><a xlink:title=" ">
<polygon fill="none" stroke="#bfbfbf" points="0,-100.5 0,-119.5 89,-119.5 89,-100.5 0,-100.5"/>
<text text-anchor="middle" x="44.5" y="-107.5" font-family="Helvetica,sans-Serif" font-size="10.00">anonymous:u1</text>
</a>
</g>
</g>
<!-- Node2&#45;&gt;Node1 -->
<g id="edge1" class="edge">
<title>Node2&#45;&gt;Node1</title>
<path fill="none" stroke="#9a32cd" stroke-dasharray="5,2" d="M52.54,-91.1C62.06,-69.89 77.53,-35.44 84.67,-19.54"/>
<polygon fill="#9a32cd" stroke="#9a32cd" points="49.31,-89.75 48.4,-100.3 55.69,-92.61 49.31,-89.75"/>
<text text-anchor="middle" x="83.5" y="-57.5" font-family="Helvetica,sans-Serif" font-size="10.00"> u1</text>
</g>
<!-- Node3 -->
<g id="node3" class="node">
<title>Node3</title>
<g id="a_node3"><a xlink:title=" ">
<polygon fill="none" stroke="#bfbfbf" points="107.5,-100.5 107.5,-119.5 157.5,-119.5 157.5,-100.5 107.5,-100.5"/>
<text text-anchor="middle" x="132.5" y="-107.5" font-family="Helvetica,sans-Serif" font-size="10.00">double</text>
</a>
</g>
</g>
<!-- Node3&#45;&gt;Node1 -->
<g id="edge2" class="edge">
<title>Node3&#45;&gt;Node1</title>
<path fill="none" stroke="#9a32cd" stroke-dasharray="5,2" d="M124.46,-91.1C114.94,-69.89 99.47,-35.44 92.33,-19.54"/>
<polygon fill="#9a32cd" stroke="#9a32cd" points="121.31,-92.61 128.6,-100.3 127.69,-89.75 121.31,-92.61"/>
<text text-anchor="middle" x="157.5" y="-74" font-family="Helvetica,sans-Serif" font-size="10.00"> AddressOfData</text>
<text text-anchor="middle" x="157.5" y="-63" font-family="Helvetica,sans-Serif" font-size="10.00">Ordinal</text>
<text text-anchor="middle" x="157.5" y="-52" font-family="Helvetica,sans-Serif" font-size="10.00">ForwarderString</text>
<text text-anchor="middle" x="157.5" y="-41" font-family="Helvetica,sans-Serif" font-size="10.00">Function</text>
</g>
</g>
</svg>
