<?xml version="1.0" encoding="UTF-8" standalone="no"?>
<!DOCTYPE svg PUBLIC "-//W3C//DTD SVG 1.1//EN"
 "http://www.w3.org/Graphics/SVG/1.1/DTD/svg11.dtd">
<!-- Generated by graphviz version 2.43.0 (0)
 -->
<!-- Title: _IMAGE_RELOCATION Pages: 1 -->
<svg width="321pt" height="128pt"
 viewBox="0.00 0.00 321.00 128.00" xmlns="http://www.w3.org/2000/svg" xmlns:xlink="http://www.w3.org/1999/xlink">
<g id="graph0" class="graph" transform="scale(1 1) rotate(0) translate(4 124)">
<title>_IMAGE_RELOCATION</title>
<!-- Node1 -->
<g id="node1" class="node">
<title>Node1</title>
<g id="a_node1"><a xlink:title=" ">
<polygon fill="#bfbfbf" stroke="black" points="97,-0.5 97,-19.5 219,-19.5 219,-0.5 97,-0.5"/>
<text text-anchor="middle" x="158" y="-7.5" font-family="Helvetica,sans-Serif" font-size="10.00">_IMAGE_RELOCATION</text>
</a>
</g>
</g>
<!-- Node2 -->
<g id="node2" class="node">
<title>Node2</title>
<g id="a_node2"><a xlink:title=" ">
<polygon fill="none" stroke="#bfbfbf" points="0,-100.5 0,-119.5 178,-119.5 178,-100.5 0,-100.5"/>
<text text-anchor="middle" x="89" y="-107.5" font-family="Helvetica,sans-Serif" font-size="10.00">anonymous:DUMMYUNIONNAME</text>
</a>
</g>
</g>
<!-- Node2&#45;&gt;Node1 -->
<g id="edge1" class="edge">
<title>Node2&#45;&gt;Node1</title>
<path fill="none" stroke="#9a32cd" stroke-dasharray="5,2" d="M87.31,-90.15C86.92,-74.67 88.78,-52.93 100,-38 106.34,-29.56 115.96,-23.67 125.55,-19.6"/>
<polygon fill="#9a32cd" stroke="#9a32cd" points="83.82,-90.36 87.89,-100.14 90.81,-89.95 83.82,-90.36"/>
<text text-anchor="middle" x="152.5" y="-57.5" font-family="Helvetica,sans-Serif" font-size="10.00"> DUMMYUNIONNAME</text>
</g>
<!-- Node3 -->
<g id="node3" class="node">
<title>Node3</title>
<g id="a_node3"><a xlink:title=" ">
<polygon fill="none" stroke="#bfbfbf" points="196.5,-100.5 196.5,-119.5 257.5,-119.5 257.5,-100.5 196.5,-100.5"/>
<text text-anchor="middle" x="227" y="-107.5" font-family="Helvetica,sans-Serif" font-size="10.00">unsigned</text>
</a>
</g>
</g>
<!-- Node3&#45;&gt;Node1 -->
<g id="edge2" class="edge">
<title>Node3&#45;&gt;Node1</title>
<path fill="none" stroke="#9a32cd" stroke-dasharray="5,2" d="M225.01,-90.23C222.55,-74.8 217.07,-53.08 205,-38 198.65,-30.07 189.29,-24.02 180.6,-19.68"/>
<polygon fill="#9a32cd" stroke="#9a32cd" points="221.55,-90.73 226.33,-100.18 228.49,-89.81 221.55,-90.73"/>
<text text-anchor="middle" x="268" y="-74" font-family="Helvetica,sans-Serif" font-size="10.00"> RelocCount</text>
<text text-anchor="middle" x="268" y="-63" font-family="Helvetica,sans-Serif" font-size="10.00">SymbolTableIndex</text>
<text text-anchor="middle" x="268" y="-52" font-family="Helvetica,sans-Serif" font-size="10.00">Type</text>
<text text-anchor="middle" x="268" y="-41" font-family="Helvetica,sans-Serif" font-size="10.00">VirtualAddress</text>
</g>
</g>
</svg>
