<?xml version="1.0" encoding="UTF-8" standalone="no"?>
<!DOCTYPE svg PUBLIC "-//W3C//DTD SVG 1.1//EN"
 "http://www.w3.org/Graphics/SVG/1.1/DTD/svg11.dtd">
<!-- Generated by graphviz version 2.43.0 (0)
 -->
<!-- Title: bfd_elf_version_expr Pages: 1 -->
<svg width="170pt" height="128pt"
 viewBox="0.00 0.00 170.00 128.00" xmlns="http://www.w3.org/2000/svg" xmlns:xlink="http://www.w3.org/1999/xlink">
<g id="graph0" class="graph" transform="scale(1 1) rotate(0) translate(4 124)">
<title>bfd_elf_version_expr</title>
<!-- Node1 -->
<g id="node1" class="node">
<title>Node1</title>
<g id="a_node1"><a xlink:title=" ">
<polygon fill="#bfbfbf" stroke="black" points="0,-0.5 0,-19.5 119,-19.5 119,-0.5 0,-0.5"/>
<text text-anchor="middle" x="59.5" y="-7.5" font-family="Helvetica,sans-Serif" font-size="10.00">bfd_elf_version_expr</text>
</a>
</g>
</g>
<!-- Node1&#45;&gt;Node1 -->
<g id="edge2" class="edge">
<title>Node1&#45;&gt;Node1</title>
<path fill="none" stroke="#9a32cd" stroke-dasharray="5,2" d="M129.13,-16.84C134.02,-15.28 137,-13 137,-10 137,-5.31 129.73,-2.38 119.29,-1.21"/>
<polygon fill="#9a32cd" stroke="#9a32cd" points="128.42,-13.42 119.29,-18.79 129.78,-20.28 128.42,-13.42"/>
<text text-anchor="middle" x="149.5" y="-7.5" font-family="Helvetica,sans-Serif" font-size="10.00"> next</text>
</g>
<!-- Node2 -->
<g id="node2" class="node">
<title>Node2</title>
<g id="a_node2"><a xlink:title=" ">
<polygon fill="none" stroke="#bfbfbf" points="6.5,-100.5 6.5,-119.5 44.5,-119.5 44.5,-100.5 6.5,-100.5"/>
<text text-anchor="middle" x="25.5" y="-107.5" font-family="Helvetica,sans-Serif" font-size="10.00">char</text>
</a>
</g>
</g>
<!-- Node2&#45;&gt;Node1 -->
<g id="edge1" class="edge">
<title>Node2&#45;&gt;Node1</title>
<path fill="none" stroke="#9a32cd" stroke-dasharray="5,2" d="M23.99,-90.18C23.57,-75.32 24.73,-54.42 32.5,-38 35.9,-30.81 42.05,-24.43 47.62,-19.68"/>
<polygon fill="#9a32cd" stroke="#9a32cd" points="20.5,-90.41 24.54,-100.2 27.49,-90.02 20.5,-90.41"/>
<text text-anchor="middle" x="52" y="-57.5" font-family="Helvetica,sans-Serif" font-size="10.00"> pattern</text>
</g>
<!-- Node3 -->
<g id="node3" class="node">
<title>Node3</title>
<g id="a_node3"><a xlink:title=" ">
<polygon fill="none" stroke="#bfbfbf" points="63,-100.5 63,-119.5 124,-119.5 124,-100.5 63,-100.5"/>
<text text-anchor="middle" x="93.5" y="-107.5" font-family="Helvetica,sans-Serif" font-size="10.00">unsigned</text>
</a>
</g>
</g>
<!-- Node3&#45;&gt;Node1 -->
<g id="edge3" class="edge">
<title>Node3&#45;&gt;Node1</title>
<path fill="none" stroke="#9a32cd" stroke-dasharray="5,2" d="M88.39,-90.42C84.27,-75.98 78.08,-55.52 71.5,-38 69.19,-31.85 66.19,-25.1 63.77,-19.89"/>
<polygon fill="#9a32cd" stroke="#9a32cd" points="85.05,-91.46 91.12,-100.14 91.79,-89.57 85.05,-91.46"/>
<text text-anchor="middle" x="104" y="-74" font-family="Helvetica,sans-Serif" font-size="10.00"> literal</text>
<text text-anchor="middle" x="104" y="-63" font-family="Helvetica,sans-Serif" font-size="10.00">symver</text>
<text text-anchor="middle" x="104" y="-52" font-family="Helvetica,sans-Serif" font-size="10.00">script</text>
<text text-anchor="middle" x="104" y="-41" font-family="Helvetica,sans-Serif" font-size="10.00">mask</text>
</g>
</g>
</svg>
