<?xml version="1.0" encoding="UTF-8" standalone="no"?>
<!DOCTYPE svg PUBLIC "-//W3C//DTD SVG 1.1//EN"
 "http://www.w3.org/Graphics/SVG/1.1/DTD/svg11.dtd">
<!-- Generated by graphviz version 2.43.0 (0)
 -->
<!-- Title: my_mem_destination_mgr Pages: 1 -->
<svg width="278pt" height="186pt"
 viewBox="0.00 0.00 278.00 186.00" xmlns="http://www.w3.org/2000/svg" xmlns:xlink="http://www.w3.org/1999/xlink">
<g id="graph0" class="graph" transform="scale(1 1) rotate(0) translate(4 182)">
<title>my_mem_destination_mgr</title>
<!-- Node1 -->
<g id="node1" class="node">
<title>Node1</title>
<g id="a_node1"><a xlink:title=" ">
<polygon fill="#bfbfbf" stroke="black" points="50,-0.5 50,-19.5 198,-19.5 198,-0.5 50,-0.5"/>
<text text-anchor="middle" x="124" y="-7.5" font-family="Helvetica,sans-Serif" font-size="10.00">my_mem_destination_mgr</text>
</a>
</g>
</g>
<!-- Node2 -->
<g id="node2" class="node">
<title>Node2</title>
<g id="a_node2"><a xlink:title=" ">
<polygon fill="none" stroke="#bfbfbf" points="0,-158.5 0,-177.5 38,-177.5 38,-158.5 0,-158.5"/>
<text text-anchor="middle" x="19" y="-165.5" font-family="Helvetica,sans-Serif" font-size="10.00">char</text>
</a>
</g>
</g>
<!-- Node2&#45;&gt;Node1 -->
<g id="edge1" class="edge">
<title>Node2&#45;&gt;Node1</title>
<path fill="none" stroke="#9a32cd" stroke-dasharray="5,2" d="M14.41,-148.43C10.23,-127.11 6.78,-91.86 22,-67 37.19,-42.19 67.56,-27.57 91.23,-19.53"/>
<polygon fill="#9a32cd" stroke="#9a32cd" points="11.04,-149.44 16.63,-158.44 17.88,-147.92 11.04,-149.44"/>
<text text-anchor="middle" x="38" y="-86.5" font-family="Helvetica,sans-Serif" font-size="10.00"> buffer</text>
</g>
<!-- Node3 -->
<g id="node3" class="node">
<title>Node3</title>
<g id="a_node3"><a xlink:href="../../dd/dce/structjpeg__destination__mgr.html" target="_top" xlink:title=" ">
<polygon fill="none" stroke="black" points="63,-79.5 63,-98.5 185,-98.5 185,-79.5 63,-79.5"/>
<text text-anchor="middle" x="124" y="-86.5" font-family="Helvetica,sans-Serif" font-size="10.00">jpeg_destination_mgr</text>
</a>
</g>
</g>
<!-- Node2&#45;&gt;Node3 -->
<g id="edge3" class="edge">
<title>Node2&#45;&gt;Node3</title>
<path fill="none" stroke="#9a32cd" stroke-dasharray="5,2" d="M29.89,-149.47C34.82,-142.5 41.09,-134.78 48,-129 63.93,-115.68 85.16,-105.26 101.14,-98.56"/>
<polygon fill="#9a32cd" stroke="#9a32cd" points="26.68,-147.99 24.07,-158.26 32.51,-151.85 26.68,-147.99"/>
<text text-anchor="middle" x="92.5" y="-132" font-family="Helvetica,sans-Serif" font-size="10.00"> next_output_byte</text>
</g>
<!-- Node3&#45;&gt;Node1 -->
<g id="edge2" class="edge">
<title>Node3&#45;&gt;Node1</title>
<path fill="none" stroke="#9a32cd" stroke-dasharray="5,2" d="M124,-69.31C124,-53.59 124,-31.81 124,-19.81"/>
<polygon fill="#9a32cd" stroke="#9a32cd" points="120.5,-69.47 124,-79.47 127.5,-69.47 120.5,-69.47"/>
<text text-anchor="middle" x="135" y="-41" font-family="Helvetica,sans-Serif" font-size="10.00"> pub</text>
</g>
<!-- Node4 -->
<g id="node4" class="node">
<title>Node4</title>
<g id="a_node4"><a xlink:title=" ">
<polygon fill="none" stroke="#bfbfbf" points="159.5,-158.5 159.5,-177.5 220.5,-177.5 220.5,-158.5 159.5,-158.5"/>
<text text-anchor="middle" x="190" y="-165.5" font-family="Helvetica,sans-Serif" font-size="10.00">unsigned</text>
</a>
</g>
</g>
<!-- Node4&#45;&gt;Node1 -->
<g id="edge5" class="edge">
<title>Node4&#45;&gt;Node1</title>
<path fill="none" stroke="#9a32cd" stroke-dasharray="5,2" d="M210.9,-151.68C214.19,-148.23 217.13,-144.3 219,-140 229.38,-116.15 221.93,-104.54 194,-67 178.76,-46.52 154.32,-29.3 138.72,-19.56"/>
<polygon fill="#9a32cd" stroke="#9a32cd" points="208.49,-149.13 203.37,-158.41 213.16,-154.35 208.49,-149.13"/>
<text text-anchor="middle" x="245.5" y="-103" font-family="Helvetica,sans-Serif" font-size="10.00"> bufsize</text>
<text text-anchor="middle" x="245.5" y="-92" font-family="Helvetica,sans-Serif" font-size="10.00">outsize</text>
<text text-anchor="middle" x="245.5" y="-81" font-family="Helvetica,sans-Serif" font-size="10.00">outbuffer</text>
<text text-anchor="middle" x="245.5" y="-70" font-family="Helvetica,sans-Serif" font-size="10.00">newbuffer</text>
</g>
<!-- Node4&#45;&gt;Node3 -->
<g id="edge4" class="edge">
<title>Node4&#45;&gt;Node3</title>
<path fill="none" stroke="#9a32cd" stroke-dasharray="5,2" d="M163.4,-153.07C157.85,-149.34 152.37,-144.95 148,-140 137.04,-127.59 129.97,-109.28 126.51,-98.61"/>
<polygon fill="#9a32cd" stroke="#9a32cd" points="161.68,-156.11 172.03,-158.37 165.34,-150.15 161.68,-156.11"/>
<text text-anchor="middle" x="183.5" y="-132" font-family="Helvetica,sans-Serif" font-size="10.00"> free_in_buffer</text>
</g>
</g>
</svg>
