<?xml version="1.0" encoding="UTF-8" standalone="no"?>
<!DOCTYPE svg PUBLIC "-//W3C//DTD SVG 1.1//EN"
 "http://www.w3.org/Graphics/SVG/1.1/DTD/svg11.dtd">
<!-- Generated by graphviz version 2.43.0 (0)
 -->
<!-- Title: _JOB_INFO_2A Pages: 1 -->
<!--zoomable 205 -->
<svg id="main" version="1.1" xmlns="http://www.w3.org/2000/svg" xmlns:xlink="http://www.w3.org/1999/xlink" xml:space="preserve" onload="init(evt)">
<style type="text/css"><![CDATA[
.edge:hover path { stroke: red; }
.edge:hover polygon { stroke: red; fill: red; }
]]></style>
<script type="text/javascript"><![CDATA[
var edges = document.getElementsByTagName('g');
if (edges && edges.length) {
  for (var i=0;i<edges.length;i++) {
    if (edges[i].id.substr(0,4)=='edge') {
      edges[i].setAttribute('class','edge');
    }
  }
}
]]></script>
        <defs>
                <circle id="rim" cx="0" cy="0" r="7"/>
                <circle id="rim2" cx="0" cy="0" r="3.5"/>
                <g id="zoomPlus">
                        <use xlink:href="#rim" fill="#404040">
                                <set attributeName="fill" to="#808080" begin="zoomplus.mouseover" end="zoomplus.mouseout"/>
                        </use>
                        <path d="M-4,0h8M0,-4v8" fill="none" stroke="white" stroke-width="1.5" pointer-events="none"/>
                </g>
                <g id="zoomMin">
                        <use xlink:href="#rim" fill="#404040">
                                <set attributeName="fill" to="#808080" begin="zoomminus.mouseover" end="zoomminus.mouseout"/>
                        </use>
                        <path d="M-4,0h8" fill="none" stroke="white" stroke-width="1.5" pointer-events="none"/>
                </g>
                <g id="dirArrow">
                        <path fill="none" stroke="white" stroke-width="1.5" d="M0,-3.0v7 M-2.5,-0.5L0,-3.0L2.5,-0.5"/>
                </g>
               <g id="resetDef">
                       <use xlink:href="#rim2" fill="#404040">
                               <set attributeName="fill" to="#808080" begin="reset.mouseover" end="reset.mouseout"/>
                       </use>
               </g>
        </defs>

<script type="text/javascript">
var viewWidth = 527;
var viewHeight = 205;
var sectionId = 'dynsection-0';
</script>
<script xlink:href="../../svgpan.js"/>
<svg id="graph" class="graph">
<g id="viewport">
<title>_JOB_INFO_2A</title>
<!-- Node1 -->
<g id="node1" class="node">
<title>Node1</title>
<g id="a_node1"><a xlink:title=" ">
<polygon fill="#bfbfbf" stroke="black" points="197,-0.5 197,-19.5 283,-19.5 283,-0.5 197,-0.5"/>
<text text-anchor="middle" x="240" y="-7.5" font-family="Helvetica,sans-Serif" font-size="10.00">_JOB_INFO_2A</text>
</a>
</g>
</g>
<!-- Node2 -->
<g id="node2" class="node">
<title>Node2</title>
<g id="a_node2"><a xlink:title=" ">
<polygon fill="none" stroke="#bfbfbf" points="0,-177.5 0,-196.5 80,-196.5 80,-177.5 0,-177.5"/>
<text text-anchor="middle" x="40" y="-184.5" font-family="Helvetica,sans-Serif" font-size="10.00">SYSTEMTIME</text>
</a>
</g>
</g>
<!-- Node2&#45;&gt;Node1 -->
<g id="edge1" class="edge">
<title>Node2&#45;&gt;Node1</title>
<path fill="none" stroke="#9a32cd" stroke-dasharray="5,2" d="M36.01,-167.1C30.59,-135.64 25.09,-72.61 59,-38 77.62,-18.99 149.36,-13.3 196.74,-11.64"/>
<polygon fill="#9a32cd" stroke="#9a32cd" points="32.62,-167.98 37.93,-177.15 39.49,-166.67 32.62,-167.98"/>
<text text-anchor="middle" x="86" y="-96" font-family="Helvetica,sans-Serif" font-size="10.00"> Submitted</text>
</g>
<!-- Node3 -->
<g id="node3" class="node">
<title>Node3</title>
<g id="a_node3"><a xlink:title=" ">
<polygon fill="none" stroke="#bfbfbf" points="98,-177.5 98,-196.5 136,-196.5 136,-177.5 98,-177.5"/>
<text text-anchor="middle" x="117" y="-184.5" font-family="Helvetica,sans-Serif" font-size="10.00">char</text>
</a>
</g>
</g>
<!-- Node3&#45;&gt;Node1 -->
<g id="edge2" class="edge">
<title>Node3&#45;&gt;Node1</title>
<path fill="none" stroke="#9a32cd" stroke-dasharray="5,2" d="M117,-167.02C118.04,-135.91 124.64,-73.95 159,-38 169.04,-27.5 183.26,-21.08 196.99,-17.16"/>
<polygon fill="#9a32cd" stroke="#9a32cd" points="113.5,-167.25 116.83,-177.31 120.5,-167.37 113.5,-167.25"/>
<text text-anchor="middle" x="197.5" y="-151" font-family="Helvetica,sans-Serif" font-size="10.00"> pStatus</text>
<text text-anchor="middle" x="197.5" y="-140" font-family="Helvetica,sans-Serif" font-size="10.00">pPrinterName</text>
<text text-anchor="middle" x="197.5" y="-129" font-family="Helvetica,sans-Serif" font-size="10.00">pDriverName</text>
<text text-anchor="middle" x="197.5" y="-118" font-family="Helvetica,sans-Serif" font-size="10.00">pMachineName</text>
<text text-anchor="middle" x="197.5" y="-107" font-family="Helvetica,sans-Serif" font-size="10.00">pParameters</text>
<text text-anchor="middle" x="197.5" y="-96" font-family="Helvetica,sans-Serif" font-size="10.00">pDatatype</text>
<text text-anchor="middle" x="197.5" y="-85" font-family="Helvetica,sans-Serif" font-size="10.00">pDocument</text>
<text text-anchor="middle" x="197.5" y="-74" font-family="Helvetica,sans-Serif" font-size="10.00">pNotifyName</text>
<text text-anchor="middle" x="197.5" y="-63" font-family="Helvetica,sans-Serif" font-size="10.00">pUserName</text>
<text text-anchor="middle" x="197.5" y="-52" font-family="Helvetica,sans-Serif" font-size="10.00">pPrintProcessor</text>
<text text-anchor="middle" x="197.5" y="-41" font-family="Helvetica,sans-Serif" font-size="10.00">...</text>
</g>
<!-- Node4 -->
<g id="node4" class="node">
<title>Node4</title>
<g id="a_node4"><a xlink:title=" ">
<polygon fill="none" stroke="#bfbfbf" points="154.5,-177.5 154.5,-196.5 325.5,-196.5 325.5,-177.5 154.5,-177.5"/>
<text text-anchor="middle" x="240" y="-184.5" font-family="Helvetica,sans-Serif" font-size="10.00">struct SECURITY_DESCRIPTOR *</text>
</a>
</g>
</g>
<!-- Node4&#45;&gt;Node1 -->
<g id="edge3" class="edge">
<title>Node4&#45;&gt;Node1</title>
<path fill="none" stroke="#9a32cd" stroke-dasharray="5,2" d="M240,-166.95C240,-129.3 240,-46.65 240,-19.69"/>
<polygon fill="#9a32cd" stroke="#9a32cd" points="236.5,-167.08 240,-177.08 243.5,-167.08 236.5,-167.08"/>
<text text-anchor="middle" x="290" y="-96" font-family="Helvetica,sans-Serif" font-size="10.00"> pSecurityDescriptor</text>
</g>
<!-- Node5 -->
<g id="node5" class="node">
<title>Node5</title>
<g id="a_node5"><a xlink:title=" ">
<polygon fill="none" stroke="#bfbfbf" points="344,-177.5 344,-196.5 382,-196.5 382,-177.5 344,-177.5"/>
<text text-anchor="middle" x="363" y="-184.5" font-family="Helvetica,sans-Serif" font-size="10.00">long</text>
</a>
</g>
</g>
<!-- Node5&#45;&gt;Node1 -->
<g id="edge4" class="edge">
<title>Node5&#45;&gt;Node1</title>
<path fill="none" stroke="#9a32cd" stroke-dasharray="5,2" d="M366.17,-167.05C370.2,-135.98 373.21,-74.09 341,-38 326.56,-21.82 303.59,-14.86 283.21,-12.04"/>
<polygon fill="#9a32cd" stroke="#9a32cd" points="362.65,-166.92 364.64,-177.32 369.57,-167.95 362.65,-166.92"/>
<text text-anchor="middle" x="400" y="-151" font-family="Helvetica,sans-Serif" font-size="10.00"> UntilTime</text>
<text text-anchor="middle" x="400" y="-140" font-family="Helvetica,sans-Serif" font-size="10.00">Size</text>
<text text-anchor="middle" x="400" y="-129" font-family="Helvetica,sans-Serif" font-size="10.00">JobId</text>
<text text-anchor="middle" x="400" y="-118" font-family="Helvetica,sans-Serif" font-size="10.00">TotalPages</text>
<text text-anchor="middle" x="400" y="-107" font-family="Helvetica,sans-Serif" font-size="10.00">Priority</text>
<text text-anchor="middle" x="400" y="-96" font-family="Helvetica,sans-Serif" font-size="10.00">Position</text>
<text text-anchor="middle" x="400" y="-85" font-family="Helvetica,sans-Serif" font-size="10.00">StartTime</text>
<text text-anchor="middle" x="400" y="-74" font-family="Helvetica,sans-Serif" font-size="10.00">PagesPrinted</text>
<text text-anchor="middle" x="400" y="-63" font-family="Helvetica,sans-Serif" font-size="10.00">Time</text>
<text text-anchor="middle" x="400" y="-52" font-family="Helvetica,sans-Serif" font-size="10.00">Status</text>
<text text-anchor="middle" x="400" y="-41" font-family="Helvetica,sans-Serif" font-size="10.00">...</text>
</g>
<!-- Node6 -->
<g id="node6" class="node">
<title>Node6</title>
<g id="a_node6"><a xlink:title=" ">
<polygon fill="none" stroke="#bfbfbf" points="400.5,-177.5 400.5,-196.5 513.5,-196.5 513.5,-177.5 400.5,-177.5"/>
<text text-anchor="middle" x="457" y="-184.5" font-family="Helvetica,sans-Serif" font-size="10.00">struct DEVMODEA *</text>
</a>
</g>
</g>
<!-- Node6&#45;&gt;Node1 -->
<g id="edge5" class="edge">
<title>Node6&#45;&gt;Node1</title>
<path fill="none" stroke="#9a32cd" stroke-dasharray="5,2" d="M460.52,-167.45C465.31,-136.02 469.69,-72.35 435,-38 414.23,-17.44 334.2,-12.3 283.35,-11.15"/>
<polygon fill="#9a32cd" stroke="#9a32cd" points="457.04,-167.02 458.81,-177.46 463.94,-168.2 457.04,-167.02"/>
<text text-anchor="middle" x="491" y="-96" font-family="Helvetica,sans-Serif" font-size="10.00"> pDevMode</text>
</g>
</g>
</svg>
        <g id="navigator" transform="translate(0 0)" fill="#404254">
                <rect fill="#f2f5e9" fill-opacity="0.5" stroke="#606060" stroke-width=".5" x="0" y="0" width="60" height="60"/>
                <use id="zoomplus" xlink:href="#zoomPlus" x="17" y="9" onmousedown="handleZoom(evt,'in')"/>
                <use id="zoomminus" xlink:href="#zoomMin" x="42" y="9" onmousedown="handleZoom(evt,'out')"/>
                <use id="reset" xlink:href="#resetDef" x="30" y="36" onmousedown="handleReset()"/>
                <g id="arrowUp" xlink:href="#dirArrow" transform="translate(30 24)" onmousedown="handlePan(0,-1)">
                  <use xlink:href="#rim" fill="#404040">
                        <set attributeName="fill" to="#808080" begin="arrowUp.mouseover" end="arrowUp.mouseout"/>
                  </use>
                  <path fill="none" stroke="white" stroke-width="1.5" d="M0,-3.0v7 M-2.5,-0.5L0,-3.0L2.5,-0.5"/>
                </g>
                <g id="arrowRight" xlink:href="#dirArrow" transform="rotate(90) translate(36 -43)" onmousedown="handlePan(1,0)">
                  <use xlink:href="#rim" fill="#404040">
                        <set attributeName="fill" to="#808080" begin="arrowRight.mouseover" end="arrowRight.mouseout"/>
                  </use>
                  <path fill="none" stroke="white" stroke-width="1.5" d="M0,-3.0v7 M-2.5,-0.5L0,-3.0L2.5,-0.5"/>
                </g>
                <g id="arrowDown" xlink:href="#dirArrow" transform="rotate(180) translate(-30 -48)" onmousedown="handlePan(0,1)">
                  <use xlink:href="#rim" fill="#404040">
                        <set attributeName="fill" to="#808080" begin="arrowDown.mouseover" end="arrowDown.mouseout"/>
                  </use>
                  <path fill="none" stroke="white" stroke-width="1.5" d="M0,-3.0v7 M-2.5,-0.5L0,-3.0L2.5,-0.5"/>
                </g>
                <g id="arrowLeft" xlink:href="#dirArrow" transform="rotate(270) translate(-36 17)" onmousedown="handlePan(-1,0)">
                  <use xlink:href="#rim" fill="#404040">
                        <set attributeName="fill" to="#808080" begin="arrowLeft.mouseover" end="arrowLeft.mouseout"/>
                  </use>
                  <path fill="none" stroke="white" stroke-width="1.5" d="M0,-3.0v7 M-2.5,-0.5L0,-3.0L2.5,-0.5"/>
                </g>
        </g>
        <svg viewBox="0 0 15 15" width="100%" height="30px" preserveAspectRatio="xMaxYMin meet">
         <g id="arrow_out" transform="scale(0.3 0.3)">
          <a xlink:href="struct__JOB__INFO__2A__coll__graph_org.svg" target="_base">
           <rect id="button" ry="5" rx="5" y="6" x="6" height="38" width="38"
                fill="#f2f5e9" fill-opacity="0.5" stroke="#606060" stroke-width="1.0"/>
           <path id="arrow"
             d="M 11.500037,31.436501 C 11.940474,20.09759 22.043105,11.32322 32.158766,21.979434 L 37.068811,17.246167 C 37.068811,17.246167 37.088388,32 37.088388,32 L 22.160133,31.978069 C 22.160133,31.978069 26.997745,27.140456 26.997745,27.140456 C 18.528582,18.264221 13.291696,25.230495 11.500037,31.436501 z"
             style="fill:#404040;"/>
          </a>
         </g>
        </svg>
</svg>
