<?xml version="1.0" encoding="UTF-8" standalone="no"?>
<!DOCTYPE svg PUBLIC "-//W3C//DTD SVG 1.1//EN"
 "http://www.w3.org/Graphics/SVG/1.1/DTD/svg11.dtd">
<!-- Generated by graphviz version 2.43.0 (0)
 -->
<!-- Title: _JOB_INFO_2A Pages: 1 -->
<svg width="527pt" height="205pt"
 viewBox="0.00 0.00 527.00 205.00" xmlns="http://www.w3.org/2000/svg" xmlns:xlink="http://www.w3.org/1999/xlink">
<g id="graph0" class="graph" transform="scale(1 1) rotate(0) translate(4 201)">
<title>_JOB_INFO_2A</title>
<!-- Node1 -->
<g id="node1" class="node">
<title>Node1</title>
<g id="a_node1"><a xlink:title=" ">
<polygon fill="#bfbfbf" stroke="black" points="197,-0.5 197,-19.5 283,-19.5 283,-0.5 197,-0.5"/>
<text text-anchor="middle" x="240" y="-7.5" font-family="Helvetica,sans-Serif" font-size="10.00">_JOB_INFO_2A</text>
</a>
</g>
</g>
<!-- Node2 -->
<g id="node2" class="node">
<title>Node2</title>
<g id="a_node2"><a xlink:title=" ">
<polygon fill="none" stroke="#bfbfbf" points="0,-177.5 0,-196.5 80,-196.5 80,-177.5 0,-177.5"/>
<text text-anchor="middle" x="40" y="-184.5" font-family="Helvetica,sans-Serif" font-size="10.00">SYSTEMTIME</text>
</a>
</g>
</g>
<!-- Node2&#45;&gt;Node1 -->
<g id="edge1" class="edge">
<title>Node2&#45;&gt;Node1</title>
<path fill="none" stroke="#9a32cd" stroke-dasharray="5,2" d="M36.01,-167.1C30.59,-135.64 25.09,-72.61 59,-38 77.62,-18.99 149.36,-13.3 196.74,-11.64"/>
<polygon fill="#9a32cd" stroke="#9a32cd" points="32.62,-167.98 37.93,-177.15 39.49,-166.67 32.62,-167.98"/>
<text text-anchor="middle" x="86" y="-96" font-family="Helvetica,sans-Serif" font-size="10.00"> Submitted</text>
</g>
<!-- Node3 -->
<g id="node3" class="node">
<title>Node3</title>
<g id="a_node3"><a xlink:title=" ">
<polygon fill="none" stroke="#bfbfbf" points="98,-177.5 98,-196.5 136,-196.5 136,-177.5 98,-177.5"/>
<text text-anchor="middle" x="117" y="-184.5" font-family="Helvetica,sans-Serif" font-size="10.00">char</text>
</a>
</g>
</g>
<!-- Node3&#45;&gt;Node1 -->
<g id="edge2" class="edge">
<title>Node3&#45;&gt;Node1</title>
<path fill="none" stroke="#9a32cd" stroke-dasharray="5,2" d="M117,-167.02C118.04,-135.91 124.64,-73.95 159,-38 169.04,-27.5 183.26,-21.08 196.99,-17.16"/>
<polygon fill="#9a32cd" stroke="#9a32cd" points="113.5,-167.25 116.83,-177.31 120.5,-167.37 113.5,-167.25"/>
<text text-anchor="middle" x="197.5" y="-151" font-family="Helvetica,sans-Serif" font-size="10.00"> pStatus</text>
<text text-anchor="middle" x="197.5" y="-140" font-family="Helvetica,sans-Serif" font-size="10.00">pPrinterName</text>
<text text-anchor="middle" x="197.5" y="-129" font-family="Helvetica,sans-Serif" font-size="10.00">pDriverName</text>
<text text-anchor="middle" x="197.5" y="-118" font-family="Helvetica,sans-Serif" font-size="10.00">pMachineName</text>
<text text-anchor="middle" x="197.5" y="-107" font-family="Helvetica,sans-Serif" font-size="10.00">pParameters</text>
<text text-anchor="middle" x="197.5" y="-96" font-family="Helvetica,sans-Serif" font-size="10.00">pDatatype</text>
<text text-anchor="middle" x="197.5" y="-85" font-family="Helvetica,sans-Serif" font-size="10.00">pDocument</text>
<text text-anchor="middle" x="197.5" y="-74" font-family="Helvetica,sans-Serif" font-size="10.00">pNotifyName</text>
<text text-anchor="middle" x="197.5" y="-63" font-family="Helvetica,sans-Serif" font-size="10.00">pUserName</text>
<text text-anchor="middle" x="197.5" y="-52" font-family="Helvetica,sans-Serif" font-size="10.00">pPrintProcessor</text>
<text text-anchor="middle" x="197.5" y="-41" font-family="Helvetica,sans-Serif" font-size="10.00">...</text>
</g>
<!-- Node4 -->
<g id="node4" class="node">
<title>Node4</title>
<g id="a_node4"><a xlink:title=" ">
<polygon fill="none" stroke="#bfbfbf" points="154.5,-177.5 154.5,-196.5 325.5,-196.5 325.5,-177.5 154.5,-177.5"/>
<text text-anchor="middle" x="240" y="-184.5" font-family="Helvetica,sans-Serif" font-size="10.00">struct SECURITY_DESCRIPTOR *</text>
</a>
</g>
</g>
<!-- Node4&#45;&gt;Node1 -->
<g id="edge3" class="edge">
<title>Node4&#45;&gt;Node1</title>
<path fill="none" stroke="#9a32cd" stroke-dasharray="5,2" d="M240,-166.95C240,-129.3 240,-46.65 240,-19.69"/>
<polygon fill="#9a32cd" stroke="#9a32cd" points="236.5,-167.08 240,-177.08 243.5,-167.08 236.5,-167.08"/>
<text text-anchor="middle" x="290" y="-96" font-family="Helvetica,sans-Serif" font-size="10.00"> pSecurityDescriptor</text>
</g>
<!-- Node5 -->
<g id="node5" class="node">
<title>Node5</title>
<g id="a_node5"><a xlink:title=" ">
<polygon fill="none" stroke="#bfbfbf" points="344,-177.5 344,-196.5 382,-196.5 382,-177.5 344,-177.5"/>
<text text-anchor="middle" x="363" y="-184.5" font-family="Helvetica,sans-Serif" font-size="10.00">long</text>
</a>
</g>
</g>
<!-- Node5&#45;&gt;Node1 -->
<g id="edge4" class="edge">
<title>Node5&#45;&gt;Node1</title>
<path fill="none" stroke="#9a32cd" stroke-dasharray="5,2" d="M366.17,-167.05C370.2,-135.98 373.21,-74.09 341,-38 326.56,-21.82 303.59,-14.86 283.21,-12.04"/>
<polygon fill="#9a32cd" stroke="#9a32cd" points="362.65,-166.92 364.64,-177.32 369.57,-167.95 362.65,-166.92"/>
<text text-anchor="middle" x="400" y="-151" font-family="Helvetica,sans-Serif" font-size="10.00"> UntilTime</text>
<text text-anchor="middle" x="400" y="-140" font-family="Helvetica,sans-Serif" font-size="10.00">Size</text>
<text text-anchor="middle" x="400" y="-129" font-family="Helvetica,sans-Serif" font-size="10.00">JobId</text>
<text text-anchor="middle" x="400" y="-118" font-family="Helvetica,sans-Serif" font-size="10.00">TotalPages</text>
<text text-anchor="middle" x="400" y="-107" font-family="Helvetica,sans-Serif" font-size="10.00">Priority</text>
<text text-anchor="middle" x="400" y="-96" font-family="Helvetica,sans-Serif" font-size="10.00">Position</text>
<text text-anchor="middle" x="400" y="-85" font-family="Helvetica,sans-Serif" font-size="10.00">StartTime</text>
<text text-anchor="middle" x="400" y="-74" font-family="Helvetica,sans-Serif" font-size="10.00">PagesPrinted</text>
<text text-anchor="middle" x="400" y="-63" font-family="Helvetica,sans-Serif" font-size="10.00">Time</text>
<text text-anchor="middle" x="400" y="-52" font-family="Helvetica,sans-Serif" font-size="10.00">Status</text>
<text text-anchor="middle" x="400" y="-41" font-family="Helvetica,sans-Serif" font-size="10.00">...</text>
</g>
<!-- Node6 -->
<g id="node6" class="node">
<title>Node6</title>
<g id="a_node6"><a xlink:title=" ">
<polygon fill="none" stroke="#bfbfbf" points="400.5,-177.5 400.5,-196.5 513.5,-196.5 513.5,-177.5 400.5,-177.5"/>
<text text-anchor="middle" x="457" y="-184.5" font-family="Helvetica,sans-Serif" font-size="10.00">struct DEVMODEA *</text>
</a>
</g>
</g>
<!-- Node6&#45;&gt;Node1 -->
<g id="edge5" class="edge">
<title>Node6&#45;&gt;Node1</title>
<path fill="none" stroke="#9a32cd" stroke-dasharray="5,2" d="M460.52,-167.45C465.31,-136.02 469.69,-72.35 435,-38 414.23,-17.44 334.2,-12.3 283.35,-11.15"/>
<polygon fill="#9a32cd" stroke="#9a32cd" points="457.04,-167.02 458.81,-177.46 463.94,-168.2 457.04,-167.02"/>
<text text-anchor="middle" x="491" y="-96" font-family="Helvetica,sans-Serif" font-size="10.00"> pDevMode</text>
</g>
</g>
</svg>
