<?xml version="1.0" encoding="UTF-8" standalone="no"?>
<!DOCTYPE svg PUBLIC "-//W3C//DTD SVG 1.1//EN"
 "http://www.w3.org/Graphics/SVG/1.1/DTD/svg11.dtd">
<!-- Generated by graphviz version 2.43.0 (0)
 -->
<!-- Title: _AMOVIESETUP_FILTER Pages: 1 -->
<!--zoomable 273 -->
<svg id="main" version="1.1" xmlns="http://www.w3.org/2000/svg" xmlns:xlink="http://www.w3.org/1999/xlink" xml:space="preserve" onload="init(evt)">
<style type="text/css"><![CDATA[
.edge:hover path { stroke: red; }
.edge:hover polygon { stroke: red; fill: red; }
]]></style>
<script type="text/javascript"><![CDATA[
var edges = document.getElementsByTagName('g');
if (edges && edges.length) {
  for (var i=0;i<edges.length;i++) {
    if (edges[i].id.substr(0,4)=='edge') {
      edges[i].setAttribute('class','edge');
    }
  }
}
]]></script>
        <defs>
                <circle id="rim" cx="0" cy="0" r="7"/>
                <circle id="rim2" cx="0" cy="0" r="3.5"/>
                <g id="zoomPlus">
                        <use xlink:href="#rim" fill="#404040">
                                <set attributeName="fill" to="#808080" begin="zoomplus.mouseover" end="zoomplus.mouseout"/>
                        </use>
                        <path d="M-4,0h8M0,-4v8" fill="none" stroke="white" stroke-width="1.5" pointer-events="none"/>
                </g>
                <g id="zoomMin">
                        <use xlink:href="#rim" fill="#404040">
                                <set attributeName="fill" to="#808080" begin="zoomminus.mouseover" end="zoomminus.mouseout"/>
                        </use>
                        <path d="M-4,0h8" fill="none" stroke="white" stroke-width="1.5" pointer-events="none"/>
                </g>
                <g id="dirArrow">
                        <path fill="none" stroke="white" stroke-width="1.5" d="M0,-3.0v7 M-2.5,-0.5L0,-3.0L2.5,-0.5"/>
                </g>
               <g id="resetDef">
                       <use xlink:href="#rim2" fill="#404040">
                               <set attributeName="fill" to="#808080" begin="reset.mouseover" end="reset.mouseout"/>
                       </use>
               </g>
        </defs>

<script type="text/javascript">
var viewWidth = 590;
var viewHeight = 273;
var sectionId = 'dynsection-0';
</script>
<script xlink:href="../../svgpan.js"/>
<svg id="graph" class="graph">
<g id="viewport">
<title>_AMOVIESETUP_FILTER</title>
<!-- Node1 -->
<g id="node1" class="node">
<title>Node1</title>
<g id="a_node1"><a xlink:title=" ">
<polygon fill="#bfbfbf" stroke="black" points="389.5,-0.5 389.5,-19.5 519.5,-19.5 519.5,-0.5 389.5,-0.5"/>
<text text-anchor="middle" x="454.5" y="-7.5" font-family="Helvetica,sans-Serif" font-size="10.00">_AMOVIESETUP_FILTER</text>
</a>
</g>
</g>
<!-- Node2 -->
<g id="node2" class="node">
<title>Node2</title>
<g id="a_node2"><a xlink:title=" ">
<polygon fill="none" stroke="#bfbfbf" points="0,-167.5 0,-186.5 89,-186.5 89,-167.5 0,-167.5"/>
<text text-anchor="middle" x="44.5" y="-174.5" font-family="Helvetica,sans-Serif" font-size="10.00">unsigned short</text>
</a>
</g>
</g>
<!-- Node2&#45;&gt;Node1 -->
<g id="edge1" class="edge">
<title>Node2&#45;&gt;Node1</title>
<path fill="none" stroke="#9a32cd" stroke-dasharray="5,2" d="M39.28,-157.17C36.18,-141.69 34.69,-119.95 45.5,-105 85.31,-49.95 284.19,-25.22 389.24,-15.85"/>
<polygon fill="#9a32cd" stroke="#9a32cd" points="35.94,-158.24 41.67,-167.15 42.74,-156.6 35.94,-158.24"/>
<text text-anchor="middle" x="127.5" y="-74.5" font-family="Helvetica,sans-Serif" font-size="10.00"> strName</text>
</g>
<!-- Node3 -->
<g id="node3" class="node">
<title>Node3</title>
<g id="a_node3"><a xlink:href="../../df/daf/structREGFILTERPINS.html" target="_top" xlink:title=" ">
<polygon fill="none" stroke="black" points="210.5,-67.5 210.5,-86.5 302.5,-86.5 302.5,-67.5 210.5,-67.5"/>
<text text-anchor="middle" x="256.5" y="-74.5" font-family="Helvetica,sans-Serif" font-size="10.00">REGFILTERPINS</text>
</a>
</g>
</g>
<!-- Node2&#45;&gt;Node3 -->
<g id="edge4" class="edge">
<title>Node2&#45;&gt;Node3</title>
<path fill="none" stroke="#9a32cd" stroke-dasharray="5,2" d="M46.66,-157.33C49.59,-140.91 56.47,-117.71 72.5,-105 93.24,-88.55 162.92,-82.1 210.33,-79.58"/>
<polygon fill="#9a32cd" stroke="#9a32cd" points="43.17,-156.99 45.19,-167.39 50.1,-158 43.17,-156.99"/>
<text text-anchor="middle" x="116" y="-130" font-family="Helvetica,sans-Serif" font-size="10.00"> strConnectsToPin</text>
<text text-anchor="middle" x="116" y="-119" font-family="Helvetica,sans-Serif" font-size="10.00">strName</text>
</g>
<!-- Node3&#45;&gt;Node1 -->
<g id="edge2" class="edge">
<title>Node3&#45;&gt;Node1</title>
<path fill="none" stroke="#9a32cd" stroke-dasharray="5,2" d="M292.5,-64.18C331.74,-51.3 393.59,-31 428.41,-19.56"/>
<polygon fill="#9a32cd" stroke="#9a32cd" points="291.2,-60.92 282.79,-67.37 293.39,-67.57 291.2,-60.92"/>
<text text-anchor="middle" x="381.5" y="-41" font-family="Helvetica,sans-Serif" font-size="10.00"> lpPin</text>
</g>
<!-- Node4 -->
<g id="node4" class="node">
<title>Node4</title>
<g id="a_node4"><a xlink:title=" ">
<polygon fill="none" stroke="#bfbfbf" points="138.5,-167.5 138.5,-186.5 202.5,-186.5 202.5,-167.5 138.5,-167.5"/>
<text text-anchor="middle" x="170.5" y="-174.5" font-family="Helvetica,sans-Serif" font-size="10.00">WINBOOL</text>
</a>
</g>
</g>
<!-- Node4&#45;&gt;Node3 -->
<g id="edge3" class="edge">
<title>Node4&#45;&gt;Node3</title>
<path fill="none" stroke="#9a32cd" stroke-dasharray="5,2" d="M165.18,-157.1C162.02,-141.58 160.5,-119.81 171.5,-105 180.64,-92.69 195.42,-85.87 210.11,-82.12"/>
<polygon fill="#9a32cd" stroke="#9a32cd" points="161.85,-158.22 167.62,-167.11 168.65,-156.56 161.85,-158.22"/>
<text text-anchor="middle" x="198" y="-141" font-family="Helvetica,sans-Serif" font-size="10.00"> bOutput</text>
<text text-anchor="middle" x="198" y="-130" font-family="Helvetica,sans-Serif" font-size="10.00">bZero</text>
<text text-anchor="middle" x="198" y="-119" font-family="Helvetica,sans-Serif" font-size="10.00">bRendered</text>
<text text-anchor="middle" x="198" y="-108" font-family="Helvetica,sans-Serif" font-size="10.00">bMany</text>
</g>
<!-- Node5 -->
<g id="node5" class="node">
<title>Node5</title>
<g id="a_node5"><a xlink:title=" ">
<polygon fill="none" stroke="#bfbfbf" points="455,-167.5 455,-186.5 484,-186.5 484,-167.5 455,-167.5"/>
<text text-anchor="middle" x="469.5" y="-174.5" font-family="Helvetica,sans-Serif" font-size="10.00">int</text>
</a>
</g>
</g>
<!-- Node5&#45;&gt;Node1 -->
<g id="edge9" class="edge">
<title>Node5&#45;&gt;Node1</title>
<path fill="none" stroke="#9a32cd" stroke-dasharray="5,2" d="M467.78,-157.04C464.52,-121.25 457.59,-45.03 455.27,-19.52"/>
<polygon fill="#9a32cd" stroke="#9a32cd" points="464.3,-157.49 468.69,-167.13 471.27,-156.85 464.3,-157.49"/>
<text text-anchor="middle" x="475.5" y="-74.5" font-family="Helvetica,sans-Serif" font-size="10.00"> nPins</text>
</g>
<!-- Node5&#45;&gt;Node3 -->
<g id="edge5" class="edge">
<title>Node5&#45;&gt;Node3</title>
<path fill="none" stroke="#9a32cd" stroke-dasharray="5,2" d="M444.77,-166.99C412.09,-158.72 398.01,-167.23 373.5,-149 355.27,-135.45 365.41,-118.98 347.5,-105 334.64,-94.96 318.12,-88.65 302.69,-84.68"/>
<polygon fill="#9a32cd" stroke="#9a32cd" points="443.93,-170.39 454.51,-169.81 445.87,-163.67 443.93,-170.39"/>
<text text-anchor="middle" x="407" y="-124.5" font-family="Helvetica,sans-Serif" font-size="10.00"> nMediaTypes</text>
</g>
<!-- Node6 -->
<g id="node6" class="node">
<title>Node6</title>
<g id="a_node6"><a xlink:title=" ">
<polygon fill="none" stroke="#bfbfbf" points="354,-245.5 354,-264.5 437,-264.5 437,-245.5 354,-245.5"/>
<text text-anchor="middle" x="395.5" y="-252.5" font-family="Helvetica,sans-Serif" font-size="10.00">const CLSID *</text>
</a>
</g>
</g>
<!-- Node6&#45;&gt;Node1 -->
<g id="edge10" class="edge">
<title>Node6&#45;&gt;Node1</title>
<path fill="none" stroke="#9a32cd" stroke-dasharray="5,2" d="M440.18,-241.8C449.46,-238 458.75,-233.14 466.5,-227 483.31,-213.68 487.12,-207.48 493.5,-187 509.36,-136.08 510.78,-117.79 494.5,-67 488.37,-47.89 473.06,-29.74 463.26,-19.53"/>
<polygon fill="#9a32cd" stroke="#9a32cd" points="438.73,-238.61 430.59,-245.39 441.18,-245.16 438.73,-238.61"/>
<text text-anchor="middle" x="519.5" y="-124.5" font-family="Helvetica,sans-Serif" font-size="10.00"> clsID</text>
</g>
<!-- Node6&#45;&gt;Node3 -->
<g id="edge6" class="edge">
<title>Node6&#45;&gt;Node3</title>
<path fill="none" stroke="#9a32cd" stroke-dasharray="5,2" d="M344.18,-245.42C310.44,-236.82 268.72,-219.9 247.5,-187 226.92,-155.09 243.99,-106.51 252.44,-86.78"/>
<polygon fill="#9a32cd" stroke="#9a32cd" points="343.38,-248.82 353.92,-247.73 345,-242.01 343.38,-248.82"/>
<text text-anchor="middle" x="296" y="-174.5" font-family="Helvetica,sans-Serif" font-size="10.00"> clsConnectsToFilter</text>
</g>
<!-- Node7 -->
<g id="node7" class="node">
<title>Node7</title>
<g id="a_node7"><a xlink:href="../../db/df5/structREGPINTYPES.html" target="_top" xlink:title=" ">
<polygon fill="none" stroke="black" points="354,-167.5 354,-186.5 437,-186.5 437,-167.5 354,-167.5"/>
<text text-anchor="middle" x="395.5" y="-174.5" font-family="Helvetica,sans-Serif" font-size="10.00">REGPINTYPES</text>
</a>
</g>
</g>
<!-- Node6&#45;&gt;Node7 -->
<g id="edge8" class="edge">
<title>Node6&#45;&gt;Node7</title>
<path fill="none" stroke="#9a32cd" stroke-dasharray="5,2" d="M395.5,-235.22C395.5,-219.7 395.5,-198.36 395.5,-186.62"/>
<polygon fill="#9a32cd" stroke="#9a32cd" points="392,-235.28 395.5,-245.28 399,-235.28 392,-235.28"/>
<text text-anchor="middle" x="429" y="-219" font-family="Helvetica,sans-Serif" font-size="10.00"> clsMajorType</text>
<text text-anchor="middle" x="429" y="-208" font-family="Helvetica,sans-Serif" font-size="10.00">clsMinorType</text>
</g>
<!-- Node7&#45;&gt;Node3 -->
<g id="edge7" class="edge">
<title>Node7&#45;&gt;Node3</title>
<path fill="none" stroke="#9a32cd" stroke-dasharray="5,2" d="M343.9,-165.99C316.47,-160.26 287.4,-153.36 282.5,-149 264.06,-132.6 258.68,-101.99 257.13,-86.89"/>
<polygon fill="#9a32cd" stroke="#9a32cd" points="343.39,-169.45 353.89,-168.04 344.8,-162.6 343.39,-169.45"/>
<text text-anchor="middle" x="315" y="-124.5" font-family="Helvetica,sans-Serif" font-size="10.00"> lpMediaType</text>
</g>
<!-- Node8 -->
<g id="node8" class="node">
<title>Node8</title>
<g id="a_node8"><a xlink:title=" ">
<polygon fill="none" stroke="#bfbfbf" points="540.5,-67.5 540.5,-86.5 578.5,-86.5 578.5,-67.5 540.5,-67.5"/>
<text text-anchor="middle" x="559.5" y="-74.5" font-family="Helvetica,sans-Serif" font-size="10.00">long</text>
</a>
</g>
</g>
<!-- Node8&#45;&gt;Node1 -->
<g id="edge11" class="edge">
<title>Node8&#45;&gt;Node1</title>
<path fill="none" stroke="#9a32cd" stroke-dasharray="5,2" d="M547.63,-58.85C541.92,-51.63 534.57,-43.61 526.5,-38 514.77,-29.85 500.27,-23.8 487.36,-19.51"/>
<polygon fill="#9a32cd" stroke="#9a32cd" points="545.14,-61.38 553.9,-67.34 550.77,-57.22 545.14,-61.38"/>
<text text-anchor="middle" x="560" y="-41" font-family="Helvetica,sans-Serif" font-size="10.00"> dwMerit</text>
</g>
</g>
</svg>
        <g id="navigator" transform="translate(0 0)" fill="#404254">
                <rect fill="#f2f5e9" fill-opacity="0.5" stroke="#606060" stroke-width=".5" x="0" y="0" width="60" height="60"/>
                <use id="zoomplus" xlink:href="#zoomPlus" x="17" y="9" onmousedown="handleZoom(evt,'in')"/>
                <use id="zoomminus" xlink:href="#zoomMin" x="42" y="9" onmousedown="handleZoom(evt,'out')"/>
                <use id="reset" xlink:href="#resetDef" x="30" y="36" onmousedown="handleReset()"/>
                <g id="arrowUp" xlink:href="#dirArrow" transform="translate(30 24)" onmousedown="handlePan(0,-1)">
                  <use xlink:href="#rim" fill="#404040">
                        <set attributeName="fill" to="#808080" begin="arrowUp.mouseover" end="arrowUp.mouseout"/>
                  </use>
                  <path fill="none" stroke="white" stroke-width="1.5" d="M0,-3.0v7 M-2.5,-0.5L0,-3.0L2.5,-0.5"/>
                </g>
                <g id="arrowRight" xlink:href="#dirArrow" transform="rotate(90) translate(36 -43)" onmousedown="handlePan(1,0)">
                  <use xlink:href="#rim" fill="#404040">
                        <set attributeName="fill" to="#808080" begin="arrowRight.mouseover" end="arrowRight.mouseout"/>
                  </use>
                  <path fill="none" stroke="white" stroke-width="1.5" d="M0,-3.0v7 M-2.5,-0.5L0,-3.0L2.5,-0.5"/>
                </g>
                <g id="arrowDown" xlink:href="#dirArrow" transform="rotate(180) translate(-30 -48)" onmousedown="handlePan(0,1)">
                  <use xlink:href="#rim" fill="#404040">
                        <set attributeName="fill" to="#808080" begin="arrowDown.mouseover" end="arrowDown.mouseout"/>
                  </use>
                  <path fill="none" stroke="white" stroke-width="1.5" d="M0,-3.0v7 M-2.5,-0.5L0,-3.0L2.5,-0.5"/>
                </g>
                <g id="arrowLeft" xlink:href="#dirArrow" transform="rotate(270) translate(-36 17)" onmousedown="handlePan(-1,0)">
                  <use xlink:href="#rim" fill="#404040">
                        <set attributeName="fill" to="#808080" begin="arrowLeft.mouseover" end="arrowLeft.mouseout"/>
                  </use>
                  <path fill="none" stroke="white" stroke-width="1.5" d="M0,-3.0v7 M-2.5,-0.5L0,-3.0L2.5,-0.5"/>
                </g>
        </g>
        <svg viewBox="0 0 15 15" width="100%" height="30px" preserveAspectRatio="xMaxYMin meet">
         <g id="arrow_out" transform="scale(0.3 0.3)">
          <a xlink:href="struct__AMOVIESETUP__FILTER__coll__graph_org.svg" target="_base">
           <rect id="button" ry="5" rx="5" y="6" x="6" height="38" width="38"
                fill="#f2f5e9" fill-opacity="0.5" stroke="#606060" stroke-width="1.0"/>
           <path id="arrow"
             d="M 11.500037,31.436501 C 11.940474,20.09759 22.043105,11.32322 32.158766,21.979434 L 37.068811,17.246167 C 37.068811,17.246167 37.088388,32 37.088388,32 L 22.160133,31.978069 C 22.160133,31.978069 26.997745,27.140456 26.997745,27.140456 C 18.528582,18.264221 13.291696,25.230495 11.500037,31.436501 z"
             style="fill:#404040;"/>
          </a>
         </g>
        </svg>
</svg>
