<?xml version="1.0" encoding="UTF-8" standalone="no"?>
<!DOCTYPE svg PUBLIC "-//W3C//DTD SVG 1.1//EN"
 "http://www.w3.org/Graphics/SVG/1.1/DTD/svg11.dtd">
<!-- Generated by graphviz version 2.43.0 (0)
 -->
<!-- Title: __gnu_profile::__map2umap_info Pages: 1 -->
<svg width="185pt" height="162pt"
 viewBox="0.00 0.00 185.00 162.00" xmlns="http://www.w3.org/2000/svg" xmlns:xlink="http://www.w3.org/1999/xlink">
<g id="graph0" class="graph" transform="scale(1 1) rotate(0) translate(4 158)">
<title>__gnu_profile::__map2umap_info</title>
<!-- Node1 -->
<g id="node1" class="node">
<title>Node1</title>
<g id="a_node1"><a xlink:title="A map&#45;to&#45;unordered_map instrumentation line in the object table.">
<polygon fill="#bfbfbf" stroke="black" points="0,-67.5 0,-86.5 177,-86.5 177,-67.5 0,-67.5"/>
<text text-anchor="middle" x="88.5" y="-74.5" font-family="Helvetica,sans-Serif" font-size="10.00">__gnu_profile::__map2umap_info</text>
</a>
</g>
</g>
<!-- Node3 -->
<g id="node3" class="node">
<title>Node3</title>
<g id="a_node3"><a xlink:href="../../de/dd4/class____gnu__profile_1_1____map2umap__stack__info.html" target="_top" xlink:title="A map&#45;to&#45;unordered_map instrumentation line in the stack table.">
<polygon fill="none" stroke="black" points="12,-0.5 12,-30.5 165,-30.5 165,-0.5 12,-0.5"/>
<text text-anchor="start" x="20" y="-18.5" font-family="Helvetica,sans-Serif" font-size="10.00">__gnu_profile::__map2umap</text>
<text text-anchor="middle" x="88.5" y="-7.5" font-family="Helvetica,sans-Serif" font-size="10.00">_stack_info</text>
</a>
</g>
</g>
<!-- Node1&#45;&gt;Node3 -->
<g id="edge2" class="edge">
<title>Node1&#45;&gt;Node3</title>
<path fill="none" stroke="midnightblue" d="M88.5,-57.23C88.5,-48.59 88.5,-38.5 88.5,-30.52"/>
<polygon fill="midnightblue" stroke="midnightblue" points="85,-57.48 88.5,-67.48 92,-57.48 85,-57.48"/>
</g>
<!-- Node2 -->
<g id="node2" class="node">
<title>Node2</title>
<g id="a_node2"><a xlink:href="../../d5/d76/class____gnu__profile_1_1____object__info__base.html" target="_top" xlink:title="Base class for a line in the object table.">
<polygon fill="none" stroke="black" points="24.5,-123.5 24.5,-153.5 152.5,-153.5 152.5,-123.5 24.5,-123.5"/>
<text text-anchor="start" x="32.5" y="-141.5" font-family="Helvetica,sans-Serif" font-size="10.00">__gnu_profile::__object</text>
<text text-anchor="middle" x="88.5" y="-130.5" font-family="Helvetica,sans-Serif" font-size="10.00">_info_base</text>
</a>
</g>
</g>
<!-- Node2&#45;&gt;Node1 -->
<g id="edge1" class="edge">
<title>Node2&#45;&gt;Node1</title>
<path fill="none" stroke="midnightblue" d="M88.5,-113.29C88.5,-103.86 88.5,-93.65 88.5,-86.66"/>
<polygon fill="midnightblue" stroke="midnightblue" points="85,-113.4 88.5,-123.4 92,-113.4 85,-113.4"/>
</g>
</g>
</svg>
