<?xml version="1.0" encoding="UTF-8" standalone="no"?>
<!DOCTYPE svg PUBLIC "-//W3C//DTD SVG 1.1//EN"
 "http://www.w3.org/Graphics/SVG/1.1/DTD/svg11.dtd">
<!-- Generated by graphviz version 2.43.0 (0)
 -->
<!-- Title: _CDB::_CDB6GENERIC Pages: 1 -->
<svg width="184pt" height="183pt"
 viewBox="0.00 0.00 183.50 183.00" xmlns="http://www.w3.org/2000/svg" xmlns:xlink="http://www.w3.org/1999/xlink">
<g id="graph0" class="graph" transform="scale(1 1) rotate(0) translate(4 179)">
<title>_CDB::_CDB6GENERIC</title>
<!-- Node1 -->
<g id="node1" class="node">
<title>Node1</title>
<g id="a_node1"><a xlink:title=" ">
<polygon fill="#bfbfbf" stroke="black" points="0,-0.5 0,-19.5 125,-19.5 125,-0.5 0,-0.5"/>
<text text-anchor="middle" x="62.5" y="-7.5" font-family="Helvetica,sans-Serif" font-size="10.00">_CDB::_CDB6GENERIC</text>
</a>
</g>
</g>
<!-- Node2 -->
<g id="node2" class="node">
<title>Node2</title>
<g id="a_node2"><a xlink:title=" ">
<polygon fill="none" stroke="#bfbfbf" points="32,-155.5 32,-174.5 93,-174.5 93,-155.5 32,-155.5"/>
<text text-anchor="middle" x="62.5" y="-162.5" font-family="Helvetica,sans-Serif" font-size="10.00">unsigned</text>
</a>
</g>
</g>
<!-- Node2&#45;&gt;Node1 -->
<g id="edge1" class="edge">
<title>Node2&#45;&gt;Node1</title>
<path fill="none" stroke="#9a32cd" stroke-dasharray="5,2" d="M62.5,-145.11C62.5,-111.72 62.5,-43.54 62.5,-19.57"/>
<polygon fill="#9a32cd" stroke="#9a32cd" points="59,-145.34 62.5,-155.34 66,-145.34 59,-145.34"/>
<text text-anchor="middle" x="119" y="-129" font-family="Helvetica,sans-Serif" font-size="10.00"> CommandUniqueBits</text>
<text text-anchor="middle" x="119" y="-118" font-family="Helvetica,sans-Serif" font-size="10.00">CommandUniqueBytes</text>
<text text-anchor="middle" x="119" y="-107" font-family="Helvetica,sans-Serif" font-size="10.00">Immediate</text>
<text text-anchor="middle" x="119" y="-96" font-family="Helvetica,sans-Serif" font-size="10.00">Link</text>
<text text-anchor="middle" x="119" y="-85" font-family="Helvetica,sans-Serif" font-size="10.00">Flag</text>
<text text-anchor="middle" x="119" y="-74" font-family="Helvetica,sans-Serif" font-size="10.00">VendorUnique</text>
<text text-anchor="middle" x="119" y="-63" font-family="Helvetica,sans-Serif" font-size="10.00">LogicalUnitNumber</text>
<text text-anchor="middle" x="119" y="-52" font-family="Helvetica,sans-Serif" font-size="10.00">OperationCode</text>
<text text-anchor="middle" x="119" y="-41" font-family="Helvetica,sans-Serif" font-size="10.00">Reserved</text>
</g>
</g>
</svg>
