<?xml version="1.0" encoding="UTF-8" standalone="no"?>
<!DOCTYPE svg PUBLIC "-//W3C//DTD SVG 1.1//EN"
 "http://www.w3.org/Graphics/SVG/1.1/DTD/svg11.dtd">
<!-- Generated by graphviz version 2.43.0 (0)
 -->
<!-- Title: _FILE_RENAME_INFORMATION Pages: 1 -->
<svg width="486pt" height="148pt"
 viewBox="0.00 0.00 486.00 148.00" xmlns="http://www.w3.org/2000/svg" xmlns:xlink="http://www.w3.org/1999/xlink">
<g id="graph0" class="graph" transform="scale(1 1) rotate(0) translate(4 144)">
<title>_FILE_RENAME_INFORMATION</title>
<!-- Node1 -->
<g id="node1" class="node">
<title>Node1</title>
<g id="a_node1"><a xlink:title=" ">
<polygon fill="#bfbfbf" stroke="black" points="314,-71.5 314,-90.5 478,-90.5 478,-71.5 314,-71.5"/>
<text text-anchor="middle" x="396" y="-78.5" font-family="Helvetica,sans-Serif" font-size="10.00">_FILE_RENAME_INFORMATION</text>
</a>
</g>
</g>
<!-- Node2 -->
<g id="node2" class="node">
<title>Node2</title>
<g id="a_node2"><a xlink:title=" ">
<polygon fill="none" stroke="#bfbfbf" points="54.5,-120.5 54.5,-139.5 143.5,-139.5 143.5,-120.5 54.5,-120.5"/>
<text text-anchor="middle" x="99" y="-127.5" font-family="Helvetica,sans-Serif" font-size="10.00">unsigned short</text>
</a>
</g>
</g>
<!-- Node2&#45;&gt;Node1 -->
<g id="edge1" class="edge">
<title>Node2&#45;&gt;Node1</title>
<path fill="none" stroke="#9a32cd" stroke-dasharray="5,2" d="M153.56,-121.1C205.59,-112.46 284.31,-99.39 337.6,-90.53"/>
<polygon fill="#9a32cd" stroke="#9a32cd" points="152.82,-117.68 143.53,-122.77 153.97,-124.58 152.82,-117.68"/>
<text text-anchor="middle" x="256" y="-112" font-family="Helvetica,sans-Serif" font-size="10.00"> FileName</text>
</g>
<!-- Node3 -->
<g id="node3" class="node">
<title>Node3</title>
<g id="a_node3"><a xlink:title=" ">
<polygon fill="none" stroke="#bfbfbf" points="18.5,-60.5 18.5,-101.5 179.5,-101.5 179.5,-60.5 18.5,-60.5"/>
<text text-anchor="start" x="26.5" y="-89.5" font-family="Helvetica,sans-Serif" font-size="10.00">PLDAP *typedef(__cdecl</text>
<text text-anchor="start" x="26.5" y="-78.5" font-family="Helvetica,sans-Serif" font-size="10.00"> NOTIFYOFNEWCONNECTION)</text>
<text text-anchor="middle" x="99" y="-67.5" font-family="Helvetica,sans-Serif" font-size="10.00">(PLDAP</text>
</a>
</g>
</g>
<!-- Node3&#45;&gt;Node1 -->
<g id="edge2" class="edge">
<title>Node3&#45;&gt;Node1</title>
<path fill="none" stroke="#9a32cd" stroke-dasharray="5,2" d="M189.98,-81C229.44,-81 275.42,-81 313.82,-81"/>
<polygon fill="#9a32cd" stroke="#9a32cd" points="189.83,-77.5 179.83,-81 189.83,-84.5 189.83,-77.5"/>
<text text-anchor="middle" x="256" y="-84" font-family="Helvetica,sans-Serif" font-size="10.00"> ReplaceIfExists</text>
</g>
<!-- Node4 -->
<g id="node4" class="node">
<title>Node4</title>
<g id="a_node4"><a xlink:title=" ">
<polygon fill="none" stroke="#bfbfbf" points="0,-0.5 0,-41.5 198,-41.5 198,-0.5 0,-0.5"/>
<text text-anchor="start" x="8" y="-29.5" font-family="Helvetica,sans-Serif" font-size="10.00">PSecurityUserData *typedef</text>
<text text-anchor="start" x="8" y="-18.5" font-family="Helvetica,sans-Serif" font-size="10.00"> PSECPKG_EXTENDED_INFORMATION</text>
<text text-anchor="middle" x="99" y="-7.5" font-family="Helvetica,sans-Serif" font-size="10.00"> *typedef</text>
</a>
</g>
</g>
<!-- Node4&#45;&gt;Node1 -->
<g id="edge3" class="edge">
<title>Node4&#45;&gt;Node1</title>
<path fill="none" stroke="#9a32cd" stroke-dasharray="5,2" d="M208.06,-38.05C236.74,-43.04 267.62,-48.82 296,-55 317.88,-59.76 342.2,-66.13 361.27,-71.38"/>
<polygon fill="#9a32cd" stroke="#9a32cd" points="208.47,-34.57 198.02,-36.32 207.28,-41.47 208.47,-34.57"/>
<text text-anchor="middle" x="256" y="-69" font-family="Helvetica,sans-Serif" font-size="10.00"> RootDirectory</text>
<text text-anchor="middle" x="256" y="-58" font-family="Helvetica,sans-Serif" font-size="10.00">FileNameLength</text>
</g>
</g>
</svg>
