<?xml version="1.0" encoding="UTF-8" standalone="no"?>
<!DOCTYPE svg PUBLIC "-//W3C//DTD SVG 1.1//EN"
 "http://www.w3.org/Graphics/SVG/1.1/DTD/svg11.dtd">
<!-- Generated by graphviz version 2.43.0 (0)
 -->
<!-- Title: Source/Engine/tools/lcc/cpp/cpp.c Pages: 1 -->
<svg width="440pt" height="151pt"
 viewBox="0.00 0.00 439.50 151.00" xmlns="http://www.w3.org/2000/svg" xmlns:xlink="http://www.w3.org/1999/xlink">
<g id="graph0" class="graph" transform="scale(1 1) rotate(0) translate(4 147)">
<title>Source/Engine/tools/lcc/cpp/cpp.c</title>
<!-- Node1 -->
<g id="node1" class="node">
<title>Node1</title>
<g id="a_node1"><a xlink:title=" ">
<polygon fill="#bfbfbf" stroke="black" points="143.5,-112.5 143.5,-142.5 256.5,-142.5 256.5,-112.5 143.5,-112.5"/>
<text text-anchor="start" x="151.5" y="-130.5" font-family="Helvetica,sans-Serif" font-size="10.00">Source/Engine/tools</text>
<text text-anchor="middle" x="200" y="-119.5" font-family="Helvetica,sans-Serif" font-size="10.00">/lcc/cpp/cpp.c</text>
</a>
</g>
</g>
<!-- Node2 -->
<g id="node2" class="node">
<title>Node2</title>
<g id="a_node2"><a xlink:title=" ">
<polygon fill="none" stroke="#bfbfbf" points="0,-56.5 0,-75.5 50,-75.5 50,-56.5 0,-56.5"/>
<text text-anchor="middle" x="25" y="-63.5" font-family="Helvetica,sans-Serif" font-size="10.00">stdio.h</text>
</a>
</g>
</g>
<!-- Node1&#45;&gt;Node2 -->
<g id="edge1" class="edge">
<title>Node1&#45;&gt;Node2</title>
<path fill="none" stroke="midnightblue" d="M158.53,-112.4C128.42,-102.16 88.15,-88.47 59.73,-78.81"/>
<polygon fill="midnightblue" stroke="midnightblue" points="60.8,-75.48 50.21,-75.57 58.55,-82.1 60.8,-75.48"/>
</g>
<!-- Node3 -->
<g id="node3" class="node">
<title>Node3</title>
<g id="a_node3"><a xlink:title=" ">
<polygon fill="none" stroke="#bfbfbf" points="68.5,-56.5 68.5,-75.5 121.5,-75.5 121.5,-56.5 68.5,-56.5"/>
<text text-anchor="middle" x="95" y="-63.5" font-family="Helvetica,sans-Serif" font-size="10.00">stdlib.h</text>
</a>
</g>
</g>
<!-- Node1&#45;&gt;Node3 -->
<g id="edge2" class="edge">
<title>Node1&#45;&gt;Node3</title>
<path fill="none" stroke="midnightblue" d="M175.12,-112.4C158.29,-102.86 136.16,-90.32 119.43,-80.84"/>
<polygon fill="midnightblue" stroke="midnightblue" points="120.7,-77.54 110.28,-75.66 117.25,-83.63 120.7,-77.54"/>
</g>
<!-- Node4 -->
<g id="node4" class="node">
<title>Node4</title>
<g id="a_node4"><a xlink:title=" ">
<polygon fill="none" stroke="#bfbfbf" points="139.5,-56.5 139.5,-75.5 192.5,-75.5 192.5,-56.5 139.5,-56.5"/>
<text text-anchor="middle" x="166" y="-63.5" font-family="Helvetica,sans-Serif" font-size="10.00">string.h</text>
</a>
</g>
</g>
<!-- Node1&#45;&gt;Node4 -->
<g id="edge3" class="edge">
<title>Node1&#45;&gt;Node4</title>
<path fill="none" stroke="midnightblue" d="M191.94,-112.4C187.15,-104.02 181.04,-93.33 175.96,-84.42"/>
<polygon fill="midnightblue" stroke="midnightblue" points="178.95,-82.6 170.95,-75.66 172.87,-86.08 178.95,-82.6"/>
</g>
<!-- Node5 -->
<g id="node5" class="node">
<title>Node5</title>
<g id="a_node5"><a xlink:title=" ">
<polygon fill="none" stroke="#bfbfbf" points="211,-56.5 211,-75.5 259,-75.5 259,-56.5 211,-56.5"/>
<text text-anchor="middle" x="235" y="-63.5" font-family="Helvetica,sans-Serif" font-size="10.00">time.h</text>
</a>
</g>
</g>
<!-- Node1&#45;&gt;Node5 -->
<g id="edge4" class="edge">
<title>Node1&#45;&gt;Node5</title>
<path fill="none" stroke="midnightblue" d="M208.29,-112.4C213.22,-104.02 219.51,-93.33 224.75,-84.42"/>
<polygon fill="midnightblue" stroke="midnightblue" points="227.85,-86.05 229.91,-75.66 221.82,-82.5 227.85,-86.05"/>
</g>
<!-- Node6 -->
<g id="node6" class="node">
<title>Node6</title>
<g id="a_node6"><a xlink:title=" ">
<polygon fill="none" stroke="#bfbfbf" points="277,-56.5 277,-75.5 333,-75.5 333,-56.5 277,-56.5"/>
<text text-anchor="middle" x="305" y="-63.5" font-family="Helvetica,sans-Serif" font-size="10.00">stdarg.h</text>
</a>
</g>
</g>
<!-- Node1&#45;&gt;Node6 -->
<g id="edge5" class="edge">
<title>Node1&#45;&gt;Node6</title>
<path fill="none" stroke="midnightblue" d="M224.88,-112.4C241.71,-102.86 263.84,-90.32 280.57,-80.84"/>
<polygon fill="midnightblue" stroke="midnightblue" points="282.75,-83.63 289.72,-75.66 279.3,-77.54 282.75,-83.63"/>
</g>
<!-- Node7 -->
<g id="node7" class="node">
<title>Node7</title>
<g id="a_node7"><a xlink:href="../../da/d4f/cpp_8h.html" target="_top" xlink:title=" ">
<polygon fill="none" stroke="black" points="351.5,-56.5 351.5,-75.5 394.5,-75.5 394.5,-56.5 351.5,-56.5"/>
<text text-anchor="middle" x="373" y="-63.5" font-family="Helvetica,sans-Serif" font-size="10.00">cpp.h</text>
</a>
</g>
</g>
<!-- Node1&#45;&gt;Node7 -->
<g id="edge6" class="edge">
<title>Node1&#45;&gt;Node7</title>
<path fill="none" stroke="midnightblue" d="M241,-112.4C271.79,-101.81 313.33,-87.52 341.53,-77.82"/>
<polygon fill="midnightblue" stroke="midnightblue" points="342.95,-81.03 351.27,-74.47 340.68,-74.42 342.95,-81.03"/>
</g>
<!-- Node8 -->
<g id="node8" class="node">
<title>Node8</title>
<g id="a_node8"><a xlink:title=" ">
<polygon fill="none" stroke="#bfbfbf" points="310,-0.5 310,-19.5 366,-19.5 366,-0.5 310,-0.5"/>
<text text-anchor="middle" x="338" y="-7.5" font-family="Helvetica,sans-Serif" font-size="10.00">unistd.h</text>
</a>
</g>
</g>
<!-- Node7&#45;&gt;Node8 -->
<g id="edge7" class="edge">
<title>Node7&#45;&gt;Node8</title>
<path fill="none" stroke="midnightblue" d="M367.22,-56.08C362.33,-48.53 355.17,-37.49 349.17,-28.23"/>
<polygon fill="midnightblue" stroke="midnightblue" points="352.05,-26.24 343.67,-19.75 346.17,-30.05 352.05,-26.24"/>
</g>
<!-- Node9 -->
<g id="node9" class="node">
<title>Node9</title>
<g id="a_node9"><a xlink:title=" ">
<polygon fill="none" stroke="#bfbfbf" points="384.5,-0.5 384.5,-19.5 431.5,-19.5 431.5,-0.5 384.5,-0.5"/>
<text text-anchor="middle" x="408" y="-7.5" font-family="Helvetica,sans-Serif" font-size="10.00">fcntl.h</text>
</a>
</g>
</g>
<!-- Node7&#45;&gt;Node9 -->
<g id="edge8" class="edge">
<title>Node7&#45;&gt;Node9</title>
<path fill="none" stroke="midnightblue" d="M378.78,-56.08C383.67,-48.53 390.83,-37.49 396.83,-28.23"/>
<polygon fill="midnightblue" stroke="midnightblue" points="399.83,-30.05 402.33,-19.75 393.95,-26.24 399.83,-30.05"/>
</g>
</g>
</svg>
