<?xml version="1.0" encoding="UTF-8" standalone="no"?>
<!DOCTYPE svg PUBLIC "-//W3C//DTD SVG 1.1//EN"
 "http://www.w3.org/Graphics/SVG/1.1/DTD/svg11.dtd">
<!-- Generated by graphviz version 2.43.0 (0)
 -->
<!-- Title: tagMETHODDATA Pages: 1 -->
<svg width="456pt" height="106pt"
 viewBox="0.00 0.00 455.50 106.00" xmlns="http://www.w3.org/2000/svg" xmlns:xlink="http://www.w3.org/1999/xlink">
<g id="graph0" class="graph" transform="scale(1 1) rotate(0) translate(4 102)">
<title>tagMETHODDATA</title>
<!-- Node1 -->
<g id="node1" class="node">
<title>Node1</title>
<g id="a_node1"><a xlink:title=" ">
<polygon fill="#bfbfbf" stroke="black" points="204,-0.5 204,-19.5 305,-19.5 305,-0.5 204,-0.5"/>
<text text-anchor="middle" x="254.5" y="-7.5" font-family="Helvetica,sans-Serif" font-size="10.00">tagMETHODDATA</text>
</a>
</g>
</g>
<!-- Node2 -->
<g id="node2" class="node">
<title>Node2</title>
<g id="a_node2"><a xlink:title=" ">
<polygon fill="none" stroke="#bfbfbf" points="0,-78.5 0,-97.5 85,-97.5 85,-78.5 0,-78.5"/>
<text text-anchor="middle" x="42.5" y="-85.5" font-family="Helvetica,sans-Serif" font-size="10.00">PARAMDATA *</text>
</a>
</g>
</g>
<!-- Node2&#45;&gt;Node1 -->
<g id="edge1" class="edge">
<title>Node2&#45;&gt;Node1</title>
<path fill="none" stroke="#9a32cd" stroke-dasharray="5,2" d="M58.92,-71.16C71.3,-60.14 89.21,-46.03 107.5,-38 137.91,-24.65 174.66,-17.9 203.81,-14.48"/>
<polygon fill="#9a32cd" stroke="#9a32cd" points="56.28,-68.83 51.3,-78.18 61.03,-73.98 56.28,-68.83"/>
<text text-anchor="middle" x="126" y="-46.5" font-family="Helvetica,sans-Serif" font-size="10.00"> ppdata</text>
</g>
<!-- Node3 -->
<g id="node3" class="node">
<title>Node3</title>
<g id="a_node3"><a xlink:title=" ">
<polygon fill="none" stroke="#bfbfbf" points="103,-78.5 103,-97.5 144,-97.5 144,-78.5 103,-78.5"/>
<text text-anchor="middle" x="123.5" y="-85.5" font-family="Helvetica,sans-Serif" font-size="10.00">short</text>
</a>
</g>
</g>
<!-- Node3&#45;&gt;Node1 -->
<g id="edge2" class="edge">
<title>Node3&#45;&gt;Node1</title>
<path fill="none" stroke="#9a32cd" stroke-dasharray="5,2" d="M137.98,-70.85C148.17,-60.29 162.59,-46.88 177.5,-38 190.89,-30.03 206.99,-23.92 221,-19.55"/>
<polygon fill="#9a32cd" stroke="#9a32cd" points="135.35,-68.54 131.08,-78.23 140.47,-73.31 135.35,-68.54"/>
<text text-anchor="middle" x="199" y="-52" font-family="Helvetica,sans-Serif" font-size="10.00"> wFlags</text>
<text text-anchor="middle" x="199" y="-41" font-family="Helvetica,sans-Serif" font-size="10.00">vtReturn</text>
</g>
<!-- Node4 -->
<g id="node4" class="node">
<title>Node4</title>
<g id="a_node4"><a xlink:title=" ">
<polygon fill="none" stroke="#bfbfbf" points="162,-78.5 162,-97.5 251,-97.5 251,-78.5 162,-78.5"/>
<text text-anchor="middle" x="206.5" y="-85.5" font-family="Helvetica,sans-Serif" font-size="10.00">unsigned short</text>
</a>
</g>
</g>
<!-- Node4&#45;&gt;Node1 -->
<g id="edge3" class="edge">
<title>Node4&#45;&gt;Node1</title>
<path fill="none" stroke="#9a32cd" stroke-dasharray="5,2" d="M217.51,-69.57C227.37,-53.95 241.43,-31.7 249.06,-19.62"/>
<polygon fill="#9a32cd" stroke="#9a32cd" points="214.39,-67.96 212.01,-78.28 220.31,-71.7 214.39,-67.96"/>
<text text-anchor="middle" x="257" y="-46.5" font-family="Helvetica,sans-Serif" font-size="10.00"> szName</text>
</g>
<!-- Node5 -->
<g id="node5" class="node">
<title>Node5</title>
<g id="a_node5"><a xlink:title=" ">
<polygon fill="none" stroke="#bfbfbf" points="269,-78.5 269,-97.5 338,-97.5 338,-78.5 269,-78.5"/>
<text text-anchor="middle" x="303.5" y="-85.5" font-family="Helvetica,sans-Serif" font-size="10.00">CALLCONV</text>
</a>
</g>
</g>
<!-- Node5&#45;&gt;Node1 -->
<g id="edge4" class="edge">
<title>Node5&#45;&gt;Node1</title>
<path fill="none" stroke="#9a32cd" stroke-dasharray="5,2" d="M297.16,-68.8C293.38,-59.19 288.03,-47.47 281.5,-38 276.83,-31.23 270.35,-24.69 264.91,-19.74"/>
<polygon fill="#9a32cd" stroke="#9a32cd" points="293.88,-70.02 300.64,-78.18 300.45,-67.59 293.88,-70.02"/>
<text text-anchor="middle" x="299.5" y="-46.5" font-family="Helvetica,sans-Serif" font-size="10.00"> cc</text>
</g>
<!-- Node6 -->
<g id="node6" class="node">
<title>Node6</title>
<g id="a_node6"><a xlink:title=" ">
<polygon fill="none" stroke="#bfbfbf" points="356,-78.5 356,-97.5 385,-97.5 385,-78.5 356,-78.5"/>
<text text-anchor="middle" x="370.5" y="-85.5" font-family="Helvetica,sans-Serif" font-size="10.00">int</text>
</a>
</g>
</g>
<!-- Node6&#45;&gt;Node1 -->
<g id="edge5" class="edge">
<title>Node6&#45;&gt;Node1</title>
<path fill="none" stroke="#9a32cd" stroke-dasharray="5,2" d="M353.68,-71.45C342.08,-61.19 326.02,-47.88 310.5,-38 299.3,-30.87 285.94,-24.36 275.07,-19.52"/>
<polygon fill="#9a32cd" stroke="#9a32cd" points="351.49,-74.19 361.26,-78.28 356.18,-68.99 351.49,-74.19"/>
<text text-anchor="middle" x="354" y="-52" font-family="Helvetica,sans-Serif" font-size="10.00"> cArgs</text>
<text text-anchor="middle" x="354" y="-41" font-family="Helvetica,sans-Serif" font-size="10.00">iMeth</text>
</g>
<!-- Node7 -->
<g id="node7" class="node">
<title>Node7</title>
<g id="a_node7"><a xlink:title=" ">
<polygon fill="none" stroke="#bfbfbf" points="403.5,-78.5 403.5,-97.5 447.5,-97.5 447.5,-78.5 403.5,-78.5"/>
<text text-anchor="middle" x="425.5" y="-85.5" font-family="Helvetica,sans-Serif" font-size="10.00">LONG</text>
</a>
</g>
</g>
<!-- Node7&#45;&gt;Node1 -->
<g id="edge6" class="edge">
<title>Node7&#45;&gt;Node1</title>
<path fill="none" stroke="#9a32cd" stroke-dasharray="5,2" d="M412.02,-70.33C402.4,-59.52 388.53,-46.01 373.5,-38 352.56,-26.85 327.16,-20.28 305.22,-16.43"/>
<polygon fill="#9a32cd" stroke="#9a32cd" points="409.63,-72.92 418.78,-78.26 414.96,-68.38 409.63,-72.92"/>
<text text-anchor="middle" x="417" y="-46.5" font-family="Helvetica,sans-Serif" font-size="10.00"> dispid</text>
</g>
</g>
</svg>
