<?xml version="1.0" encoding="UTF-8" standalone="no"?>
<!DOCTYPE svg PUBLIC "-//W3C//DTD SVG 1.1//EN"
 "http://www.w3.org/Graphics/SVG/1.1/DTD/svg11.dtd">
<!-- Generated by graphviz version 2.43.0 (0)
 -->
<!-- Title: file::func::caller Pages: 1 -->
<svg width="140pt" height="117pt"
 viewBox="0.00 0.00 140.00 117.00" xmlns="http://www.w3.org/2000/svg" xmlns:xlink="http://www.w3.org/1999/xlink">
<g id="graph0" class="graph" transform="scale(1 1) rotate(0) translate(4 113)">
<title>file::func::caller</title>
<!-- Node1 -->
<g id="node1" class="node">
<title>Node1</title>
<g id="a_node1"><a xlink:title=" ">
<polygon fill="#bfbfbf" stroke="black" points="0,-0.5 0,-19.5 92,-19.5 92,-0.5 0,-0.5"/>
<text text-anchor="middle" x="46" y="-7.5" font-family="Helvetica,sans-Serif" font-size="10.00">file::func::caller</text>
</a>
</g>
</g>
<!-- Node1&#45;&gt;Node1 -->
<g id="edge3" class="edge">
<title>Node1&#45;&gt;Node1</title>
<path fill="none" stroke="#9a32cd" stroke-dasharray="5,2" d="M101.91,-16.51C106.88,-15.14 110,-12.97 110,-10 110,-5.36 102.41,-2.68 92.02,-1.95"/>
<polygon fill="#9a32cd" stroke="#9a32cd" points="101.37,-13.05 92.02,-18.05 102.44,-19.97 101.37,-13.05"/>
<text text-anchor="middle" x="121" y="-7.5" font-family="Helvetica,sans-Serif" font-size="10.00"> link</text>
</g>
<!-- Node2 -->
<g id="node2" class="node">
<title>Node2</title>
<g id="a_node2"><a xlink:title=" ">
<polygon fill="none" stroke="#bfbfbf" points="1,-89.5 1,-108.5 39,-108.5 39,-89.5 1,-89.5"/>
<text text-anchor="middle" x="20" y="-96.5" font-family="Helvetica,sans-Serif" font-size="10.00">char</text>
</a>
</g>
</g>
<!-- Node2&#45;&gt;Node1 -->
<g id="edge1" class="edge">
<title>Node2&#45;&gt;Node1</title>
<path fill="none" stroke="#9a32cd" stroke-dasharray="5,2" d="M17.42,-79.19C16.51,-67.01 16.79,-51.06 22,-38 24.79,-31.01 30.24,-24.64 35.24,-19.85"/>
<polygon fill="#9a32cd" stroke="#9a32cd" points="13.98,-79.91 18.53,-89.48 20.94,-79.16 13.98,-79.91"/>
<text text-anchor="middle" x="36" y="-57.5" font-family="Helvetica,sans-Serif" font-size="10.00"> file</text>
<text text-anchor="middle" x="36" y="-46.5" font-family="Helvetica,sans-Serif" font-size="10.00">name</text>
</g>
<!-- Node3 -->
<g id="node3" class="node">
<title>Node3</title>
<g id="a_node3"><a xlink:title=" ">
<polygon fill="none" stroke="#bfbfbf" points="57.5,-89.5 57.5,-108.5 86.5,-108.5 86.5,-89.5 57.5,-89.5"/>
<text text-anchor="middle" x="72" y="-96.5" font-family="Helvetica,sans-Serif" font-size="10.00">int</text>
</a>
</g>
</g>
<!-- Node3&#45;&gt;Node1 -->
<g id="edge2" class="edge">
<title>Node3&#45;&gt;Node1</title>
<path fill="none" stroke="#9a32cd" stroke-dasharray="5,2" d="M66.54,-79.71C61.02,-61.25 52.74,-33.54 48.58,-19.62"/>
<polygon fill="#9a32cd" stroke="#9a32cd" points="63.2,-80.76 69.41,-89.34 69.9,-78.76 63.2,-80.76"/>
<text text-anchor="middle" x="77" y="-63" font-family="Helvetica,sans-Serif" font-size="10.00"> x</text>
<text text-anchor="middle" x="77" y="-52" font-family="Helvetica,sans-Serif" font-size="10.00">y</text>
<text text-anchor="middle" x="77" y="-41" font-family="Helvetica,sans-Serif" font-size="10.00">count</text>
</g>
</g>
</svg>
