<?xml version="1.0" encoding="UTF-8" standalone="no"?>
<!DOCTYPE svg PUBLIC "-//W3C//DTD SVG 1.1//EN"
 "http://www.w3.org/Graphics/SVG/1.1/DTD/svg11.dtd">
<!-- Generated by graphviz version 2.43.0 (0)
 -->
<!-- Title: Source/Engine/zlib/zutil.h Pages: 1 -->
<svg width="176pt" height="207pt"
 viewBox="0.00 0.00 175.50 207.00" xmlns="http://www.w3.org/2000/svg" xmlns:xlink="http://www.w3.org/1999/xlink">
<g id="graph0" class="graph" transform="scale(1 1) rotate(0) translate(4 203)">
<title>Source/Engine/zlib/zutil.h</title>
<!-- Node1 -->
<g id="node1" class="node">
<title>Node1</title>
<g id="a_node1"><a xlink:title=" ">
<polygon fill="#bfbfbf" stroke="black" points="56,-168.5 56,-198.5 162,-198.5 162,-168.5 56,-168.5"/>
<text text-anchor="start" x="64" y="-186.5" font-family="Helvetica,sans-Serif" font-size="10.00">Source/Engine/zlib</text>
<text text-anchor="middle" x="109" y="-175.5" font-family="Helvetica,sans-Serif" font-size="10.00">/zutil.h</text>
</a>
</g>
</g>
<!-- Node2 -->
<g id="node2" class="node">
<title>Node2</title>
<g id="a_node2"><a xlink:href="../../de/d99/Source_2Engine_2zlib_2zlib_8h.html" target="_top" xlink:title=" ">
<polygon fill="none" stroke="black" points="55.5,-112.5 55.5,-131.5 98.5,-131.5 98.5,-112.5 55.5,-112.5"/>
<text text-anchor="middle" x="77" y="-119.5" font-family="Helvetica,sans-Serif" font-size="10.00">zlib.h</text>
</a>
</g>
</g>
<!-- Node1&#45;&gt;Node2 -->
<g id="edge1" class="edge">
<title>Node1&#45;&gt;Node2</title>
<path fill="none" stroke="midnightblue" d="M101.42,-168.4C96.96,-160.11 91.28,-149.55 86.52,-140.71"/>
<polygon fill="midnightblue" stroke="midnightblue" points="89.48,-138.81 81.66,-131.66 83.31,-142.12 89.48,-138.81"/>
</g>
<!-- Node6 -->
<g id="node6" class="node">
<title>Node6</title>
<g id="a_node6"><a xlink:title=" ">
<polygon fill="none" stroke="#bfbfbf" points="116.5,-112.5 116.5,-131.5 167.5,-131.5 167.5,-112.5 116.5,-112.5"/>
<text text-anchor="middle" x="142" y="-119.5" font-family="Helvetica,sans-Serif" font-size="10.00">errno.h</text>
</a>
</g>
</g>
<!-- Node1&#45;&gt;Node6 -->
<g id="edge5" class="edge">
<title>Node1&#45;&gt;Node6</title>
<path fill="none" stroke="midnightblue" d="M116.82,-168.4C121.47,-160.02 127.4,-149.33 132.34,-140.42"/>
<polygon fill="midnightblue" stroke="midnightblue" points="135.41,-142.1 137.2,-131.66 129.29,-138.71 135.41,-142.1"/>
</g>
<!-- Node3 -->
<g id="node3" class="node">
<title>Node3</title>
<g id="a_node3"><a xlink:href="../../dd/d2b/Source_2Engine_2zlib_2zconf_8h.html" target="_top" xlink:title=" ">
<polygon fill="none" stroke="black" points="51.5,-56.5 51.5,-75.5 102.5,-75.5 102.5,-56.5 51.5,-56.5"/>
<text text-anchor="middle" x="77" y="-63.5" font-family="Helvetica,sans-Serif" font-size="10.00">zconf.h</text>
</a>
</g>
</g>
<!-- Node2&#45;&gt;Node3 -->
<g id="edge2" class="edge">
<title>Node2&#45;&gt;Node3</title>
<path fill="none" stroke="midnightblue" d="M77,-112.08C77,-105.01 77,-94.86 77,-85.99"/>
<polygon fill="midnightblue" stroke="midnightblue" points="80.5,-85.75 77,-75.75 73.5,-85.75 80.5,-85.75"/>
</g>
<!-- Node4 -->
<g id="node4" class="node">
<title>Node4</title>
<g id="a_node4"><a xlink:title=" ">
<polygon fill="none" stroke="#bfbfbf" points="0,-0.5 0,-19.5 72,-19.5 72,-0.5 0,-0.5"/>
<text text-anchor="middle" x="36" y="-7.5" font-family="Helvetica,sans-Serif" font-size="10.00">sys/types.h</text>
</a>
</g>
</g>
<!-- Node3&#45;&gt;Node4 -->
<g id="edge3" class="edge">
<title>Node3&#45;&gt;Node4</title>
<path fill="none" stroke="midnightblue" d="M70.23,-56.08C64.44,-48.46 55.94,-37.26 48.86,-27.94"/>
<polygon fill="midnightblue" stroke="midnightblue" points="51.48,-25.6 42.64,-19.75 45.9,-29.83 51.48,-25.6"/>
</g>
<!-- Node5 -->
<g id="node5" class="node">
<title>Node5</title>
<g id="a_node5"><a xlink:title=" ">
<polygon fill="none" stroke="#bfbfbf" points="90,-0.5 90,-19.5 146,-19.5 146,-0.5 90,-0.5"/>
<text text-anchor="middle" x="118" y="-7.5" font-family="Helvetica,sans-Serif" font-size="10.00">unistd.h</text>
</a>
</g>
</g>
<!-- Node3&#45;&gt;Node5 -->
<g id="edge4" class="edge">
<title>Node3&#45;&gt;Node5</title>
<path fill="none" stroke="midnightblue" d="M83.77,-56.08C89.56,-48.46 98.06,-37.26 105.14,-27.94"/>
<polygon fill="midnightblue" stroke="midnightblue" points="108.1,-29.83 111.36,-19.75 102.52,-25.6 108.1,-29.83"/>
</g>
</g>
</svg>
