<?xml version="1.0" encoding="UTF-8" standalone="no"?>
<!DOCTYPE svg PUBLIC "-//W3C//DTD SVG 1.1//EN"
 "http://www.w3.org/Graphics/SVG/1.1/DTD/svg11.dtd">
<!-- Generated by graphviz version 2.43.0 (0)
 -->
<!-- Title: _AVICOMPRESSOPTIONS Pages: 1 -->
<svg width="191pt" height="183pt"
 viewBox="0.00 0.00 191.00 183.00" xmlns="http://www.w3.org/2000/svg" xmlns:xlink="http://www.w3.org/1999/xlink">
<g id="graph0" class="graph" transform="scale(1 1) rotate(0) translate(4 179)">
<title>_AVICOMPRESSOPTIONS</title>
<!-- Node1 -->
<g id="node1" class="node">
<title>Node1</title>
<g id="a_node1"><a xlink:title=" ">
<polygon fill="#bfbfbf" stroke="black" points="9.5,-0.5 9.5,-19.5 144.5,-19.5 144.5,-0.5 9.5,-0.5"/>
<text text-anchor="middle" x="77" y="-7.5" font-family="Helvetica,sans-Serif" font-size="10.00">_AVICOMPRESSOPTIONS</text>
</a>
</g>
</g>
<!-- Node2 -->
<g id="node2" class="node">
<title>Node2</title>
<g id="a_node2"><a xlink:title=" ">
<polygon fill="none" stroke="#bfbfbf" points="0,-155.5 0,-174.5 38,-174.5 38,-155.5 0,-155.5"/>
<text text-anchor="middle" x="19" y="-162.5" font-family="Helvetica,sans-Serif" font-size="10.00">long</text>
</a>
</g>
</g>
<!-- Node2&#45;&gt;Node1 -->
<g id="edge1" class="edge">
<title>Node2&#45;&gt;Node1</title>
<path fill="none" stroke="#9a32cd" stroke-dasharray="5,2" d="M13.54,-145.78C6.87,-119.66 -1.11,-71.07 20,-38 25.42,-29.51 34.31,-23.63 43.47,-19.59"/>
<polygon fill="#9a32cd" stroke="#9a32cd" points="10.19,-146.79 16.23,-155.49 16.93,-144.92 10.19,-146.79"/>
<text text-anchor="middle" x="67" y="-129" font-family="Helvetica,sans-Serif" font-size="10.00"> fccHandler</text>
<text text-anchor="middle" x="67" y="-118" font-family="Helvetica,sans-Serif" font-size="10.00">dwInterleaveEvery</text>
<text text-anchor="middle" x="67" y="-107" font-family="Helvetica,sans-Serif" font-size="10.00">fccType</text>
<text text-anchor="middle" x="67" y="-96" font-family="Helvetica,sans-Serif" font-size="10.00">dwBytesPerSecond</text>
<text text-anchor="middle" x="67" y="-85" font-family="Helvetica,sans-Serif" font-size="10.00">cbParms</text>
<text text-anchor="middle" x="67" y="-74" font-family="Helvetica,sans-Serif" font-size="10.00">dwKeyFrameEvery</text>
<text text-anchor="middle" x="67" y="-63" font-family="Helvetica,sans-Serif" font-size="10.00">dwFlags</text>
<text text-anchor="middle" x="67" y="-52" font-family="Helvetica,sans-Serif" font-size="10.00">dwQuality</text>
<text text-anchor="middle" x="67" y="-41" font-family="Helvetica,sans-Serif" font-size="10.00">cbFormat</text>
</g>
<!-- Node3 -->
<g id="node3" class="node">
<title>Node3</title>
<g id="a_node3"><a xlink:title=" ">
<polygon fill="none" stroke="#bfbfbf" points="113,-155.5 113,-174.5 159,-174.5 159,-155.5 113,-155.5"/>
<text text-anchor="middle" x="136" y="-162.5" font-family="Helvetica,sans-Serif" font-size="10.00">void *</text>
</a>
</g>
</g>
<!-- Node3&#45;&gt;Node1 -->
<g id="edge2" class="edge">
<title>Node3&#45;&gt;Node1</title>
<path fill="none" stroke="#9a32cd" stroke-dasharray="5,2" d="M136.94,-145.25C137.35,-119.21 134.85,-71.5 114,-38 109.21,-30.3 101.35,-24.11 94.1,-19.6"/>
<polygon fill="#9a32cd" stroke="#9a32cd" points="133.44,-145.17 136.61,-155.28 140.43,-145.4 133.44,-145.17"/>
<text text-anchor="middle" x="159.5" y="-90.5" font-family="Helvetica,sans-Serif" font-size="10.00"> lpFormat</text>
<text text-anchor="middle" x="159.5" y="-79.5" font-family="Helvetica,sans-Serif" font-size="10.00">lpParms</text>
</g>
</g>
</svg>
