<?xml version="1.0" encoding="UTF-8" standalone="no"?>
<!DOCTYPE svg PUBLIC "-//W3C//DTD SVG 1.1//EN"
 "http://www.w3.org/Graphics/SVG/1.1/DTD/svg11.dtd">
<!-- Generated by graphviz version 2.43.0 (0)
 -->
<!-- Title: _D3DTRIPATCH_INFO Pages: 1 -->
<svg width="310pt" height="106pt"
 viewBox="0.00 0.00 310.00 106.00" xmlns="http://www.w3.org/2000/svg" xmlns:xlink="http://www.w3.org/1999/xlink">
<g id="graph0" class="graph" transform="scale(1 1) rotate(0) translate(4 102)">
<title>_D3DTRIPATCH_INFO</title>
<!-- Node1 -->
<g id="node1" class="node">
<title>Node1</title>
<g id="a_node1"><a xlink:title=" ">
<polygon fill="#bfbfbf" stroke="black" points="96.5,-0.5 96.5,-19.5 215.5,-19.5 215.5,-0.5 96.5,-0.5"/>
<text text-anchor="middle" x="156" y="-7.5" font-family="Helvetica,sans-Serif" font-size="10.00">_D3DTRIPATCH_INFO</text>
</a>
</g>
</g>
<!-- Node2 -->
<g id="node2" class="node">
<title>Node2</title>
<g id="a_node2"><a xlink:title=" ">
<polygon fill="none" stroke="#bfbfbf" points="0,-78.5 0,-97.5 90,-97.5 90,-78.5 0,-78.5"/>
<text text-anchor="middle" x="45" y="-85.5" font-family="Helvetica,sans-Serif" font-size="10.00">D3DBASISTYPE</text>
</a>
</g>
</g>
<!-- Node2&#45;&gt;Node1 -->
<g id="edge1" class="edge">
<title>Node2&#45;&gt;Node1</title>
<path fill="none" stroke="#9a32cd" stroke-dasharray="5,2" d="M66.08,-72.57C88.92,-56.93 124.6,-32.5 143.42,-19.62"/>
<polygon fill="#9a32cd" stroke="#9a32cd" points="64.01,-69.74 57.73,-78.28 67.96,-75.52 64.01,-69.74"/>
<text text-anchor="middle" x="129" y="-46.5" font-family="Helvetica,sans-Serif" font-size="10.00"> Basis</text>
</g>
<!-- Node3 -->
<g id="node3" class="node">
<title>Node3</title>
<g id="a_node3"><a xlink:title=" ">
<polygon fill="none" stroke="#bfbfbf" points="108.5,-78.5 108.5,-97.5 203.5,-97.5 203.5,-78.5 108.5,-78.5"/>
<text text-anchor="middle" x="156" y="-85.5" font-family="Helvetica,sans-Serif" font-size="10.00">D3DORDERTYPE</text>
</a>
</g>
</g>
<!-- Node3&#45;&gt;Node1 -->
<g id="edge2" class="edge">
<title>Node3&#45;&gt;Node1</title>
<path fill="none" stroke="#9a32cd" stroke-dasharray="5,2" d="M156,-68.22C156,-52.7 156,-31.36 156,-19.62"/>
<polygon fill="#9a32cd" stroke="#9a32cd" points="152.5,-68.28 156,-78.28 159.5,-68.28 152.5,-68.28"/>
<text text-anchor="middle" x="171.5" y="-46.5" font-family="Helvetica,sans-Serif" font-size="10.00"> Order</text>
</g>
<!-- Node4 -->
<g id="node4" class="node">
<title>Node4</title>
<g id="a_node4"><a xlink:title=" ">
<polygon fill="none" stroke="#bfbfbf" points="221.5,-78.5 221.5,-97.5 282.5,-97.5 282.5,-78.5 221.5,-78.5"/>
<text text-anchor="middle" x="252" y="-85.5" font-family="Helvetica,sans-Serif" font-size="10.00">unsigned</text>
</a>
</g>
</g>
<!-- Node4&#45;&gt;Node1 -->
<g id="edge3" class="edge">
<title>Node4&#45;&gt;Node1</title>
<path fill="none" stroke="#9a32cd" stroke-dasharray="5,2" d="M233.27,-71.8C221.24,-62.08 205.26,-49.22 191,-38 183.16,-31.83 174.26,-24.96 167.39,-19.7"/>
<polygon fill="#9a32cd" stroke="#9a32cd" points="231.28,-74.69 241.25,-78.26 235.68,-69.25 231.28,-74.69"/>
<text text-anchor="middle" x="259.5" y="-52" font-family="Helvetica,sans-Serif" font-size="10.00"> NumVertices</text>
<text text-anchor="middle" x="259.5" y="-41" font-family="Helvetica,sans-Serif" font-size="10.00">StartVertexOffset</text>
</g>
</g>
</svg>
