<?xml version="1.0" encoding="UTF-8" standalone="no"?>
<!DOCTYPE svg PUBLIC "-//W3C//DTD SVG 1.1//EN"
 "http://www.w3.org/Graphics/SVG/1.1/DTD/svg11.dtd">
<!-- Generated by graphviz version 2.43.0 (0)
 -->
<!-- Title: tagCStdStubBuffer Pages: 1 -->
<svg width="391pt" height="291pt"
 viewBox="0.00 0.00 391.00 291.00" xmlns="http://www.w3.org/2000/svg" xmlns:xlink="http://www.w3.org/1999/xlink">
<g id="graph0" class="graph" transform="scale(1 1) rotate(0) translate(4 287)">
<title>tagCStdStubBuffer</title>
<!-- Node1 -->
<g id="node1" class="node">
<title>Node1</title>
<g id="a_node1"><a xlink:title=" ">
<polygon fill="#bfbfbf" stroke="black" points="277,-126 277,-145 383,-145 383,-126 277,-126"/>
<text text-anchor="middle" x="330" y="-133" font-family="Helvetica,sans-Serif" font-size="10.00">tagCStdStubBuffer</text>
</a>
</g>
</g>
<!-- Node2 -->
<g id="node2" class="node">
<title>Node2</title>
<g id="a_node2"><a xlink:title=" ">
<polygon fill="none" stroke="#bfbfbf" points="12,-252.5 12,-282.5 146,-282.5 146,-252.5 12,-252.5"/>
<text text-anchor="start" x="20" y="-270.5" font-family="Helvetica,sans-Serif" font-size="10.00">const struct ICallFactory</text>
<text text-anchor="middle" x="79" y="-259.5" font-family="Helvetica,sans-Serif" font-size="10.00">Vtbl *</text>
</a>
</g>
</g>
<!-- Node2&#45;&gt;Node1 -->
<g id="edge1" class="edge">
<title>Node2&#45;&gt;Node1</title>
<path fill="none" stroke="#9a32cd" stroke-dasharray="5,2" d="M156.24,-257.69C189.71,-250.8 228.3,-239.14 259,-219.5 289.54,-199.96 313.48,-162.82 323.66,-145.22"/>
<polygon fill="#9a32cd" stroke="#9a32cd" points="155.18,-254.33 146.03,-259.68 156.52,-261.2 155.18,-254.33"/>
<text text-anchor="middle" x="217.5" y="-254.5" font-family="Helvetica,sans-Serif" font-size="10.00"> pCallFactoryVtbl</text>
</g>
<!-- Node3 -->
<g id="node3" class="node">
<title>Node3</title>
<g id="a_node3"><a xlink:title=" ">
<polygon fill="none" stroke="#bfbfbf" points="27,-214 27,-233 131,-233 131,-214 27,-214"/>
<text text-anchor="middle" x="79" y="-221" font-family="Helvetica,sans-Serif" font-size="10.00">struct IUnknown *</text>
</a>
</g>
</g>
<!-- Node3&#45;&gt;Node1 -->
<g id="edge2" class="edge">
<title>Node3&#45;&gt;Node1</title>
<path fill="none" stroke="#9a32cd" stroke-dasharray="5,2" d="M141.29,-213C176.58,-205.75 221.28,-194.51 259,-178.5 280.01,-169.58 302.1,-155.02 315.71,-145.34"/>
<polygon fill="#9a32cd" stroke="#9a32cd" points="140.24,-209.64 131.12,-215.03 141.62,-216.5 140.24,-209.64"/>
<text text-anchor="middle" x="217.5" y="-207.5" font-family="Helvetica,sans-Serif" font-size="10.00"> pvServerObject</text>
</g>
<!-- Node4 -->
<g id="node4" class="node">
<title>Node4</title>
<g id="a_node4"><a xlink:title=" ">
<polygon fill="none" stroke="#bfbfbf" points="0,-164.5 0,-194.5 158,-194.5 158,-164.5 0,-164.5"/>
<text text-anchor="start" x="8" y="-182.5" font-family="Helvetica,sans-Serif" font-size="10.00">const struct IReleaseMarshal</text>
<text text-anchor="middle" x="79" y="-171.5" font-family="Helvetica,sans-Serif" font-size="10.00">BuffersVtbl *</text>
</a>
</g>
</g>
<!-- Node4&#45;&gt;Node1 -->
<g id="edge3" class="edge">
<title>Node4&#45;&gt;Node1</title>
<path fill="none" stroke="#9a32cd" stroke-dasharray="5,2" d="M168.22,-166.11C197.2,-161.48 229.52,-156.04 259,-150.5 267.79,-148.85 277.18,-146.94 286.13,-145.05"/>
<polygon fill="#9a32cd" stroke="#9a32cd" points="167.45,-162.69 158.13,-167.72 168.55,-169.61 167.45,-162.69"/>
<text text-anchor="middle" x="217.5" y="-166.5" font-family="Helvetica,sans-Serif" font-size="10.00"> pRMBVtbl</text>
</g>
<!-- Node5 -->
<g id="node5" class="node">
<title>Node5</title>
<g id="a_node5"><a xlink:title=" ">
<polygon fill="none" stroke="#bfbfbf" points="45,-126 45,-145 113,-145 113,-126 45,-126"/>
<text text-anchor="middle" x="79" y="-133" font-family="Helvetica,sans-Serif" font-size="10.00">const IID *</text>
</a>
</g>
</g>
<!-- Node5&#45;&gt;Node1 -->
<g id="edge4" class="edge">
<title>Node5&#45;&gt;Node1</title>
<path fill="none" stroke="#9a32cd" stroke-dasharray="5,2" d="M123.13,-135.5C165.77,-135.5 231.08,-135.5 276.67,-135.5"/>
<polygon fill="#9a32cd" stroke="#9a32cd" points="123.07,-132 113.07,-135.5 123.07,-139 123.07,-132"/>
<text text-anchor="middle" x="217.5" y="-138.5" font-family="Helvetica,sans-Serif" font-size="10.00"> pAsyncIID</text>
</g>
<!-- Node6 -->
<g id="node6" class="node">
<title>Node6</title>
<g id="a_node6"><a xlink:title=" ">
<polygon fill="none" stroke="#bfbfbf" points="11.5,-88 11.5,-107 146.5,-107 146.5,-88 11.5,-88"/>
<text text-anchor="middle" x="79" y="-95" font-family="Helvetica,sans-Serif" font-size="10.00">struct IPSFactoryBuffer *</text>
</a>
</g>
</g>
<!-- Node6&#45;&gt;Node1 -->
<g id="edge5" class="edge">
<title>Node6&#45;&gt;Node1</title>
<path fill="none" stroke="#9a32cd" stroke-dasharray="5,2" d="M156.61,-105.92C188.38,-109.78 225.56,-114.78 259,-120.5 268.19,-122.07 278,-124.01 287.28,-125.97"/>
<polygon fill="#9a32cd" stroke="#9a32cd" points="156.85,-102.42 146.5,-104.71 156.01,-109.37 156.85,-102.42"/>
<text text-anchor="middle" x="217.5" y="-123.5" font-family="Helvetica,sans-Serif" font-size="10.00"> pPSFactory</text>
</g>
<!-- Node7 -->
<g id="node7" class="node">
<title>Node7</title>
<g id="a_node7"><a xlink:title=" ">
<polygon fill="none" stroke="#bfbfbf" points="60,-50 60,-69 98,-69 98,-50 60,-50"/>
<text text-anchor="middle" x="79" y="-57" font-family="Helvetica,sans-Serif" font-size="10.00">long</text>
</a>
</g>
</g>
<!-- Node7&#45;&gt;Node1 -->
<g id="edge6" class="edge">
<title>Node7&#45;&gt;Node1</title>
<path fill="none" stroke="#9a32cd" stroke-dasharray="5,2" d="M108.35,-61.78C144.36,-65.37 207.97,-74.05 259,-93.5 280.45,-101.68 302.79,-116.32 316.3,-125.98"/>
<polygon fill="#9a32cd" stroke="#9a32cd" points="108.38,-58.27 98.1,-60.82 107.73,-65.24 108.38,-58.27"/>
<text text-anchor="middle" x="217.5" y="-96.5" font-family="Helvetica,sans-Serif" font-size="10.00"> RefCount</text>
</g>
<!-- Node8 -->
<g id="node8" class="node">
<title>Node8</title>
<g id="a_node8"><a xlink:title=" ">
<polygon fill="none" stroke="#bfbfbf" points="4.5,-0.5 4.5,-30.5 153.5,-30.5 153.5,-0.5 4.5,-0.5"/>
<text text-anchor="start" x="12.5" y="-18.5" font-family="Helvetica,sans-Serif" font-size="10.00">const struct IRpcStubBuffer</text>
<text text-anchor="middle" x="79" y="-7.5" font-family="Helvetica,sans-Serif" font-size="10.00">Vtbl *</text>
</a>
</g>
</g>
<!-- Node8&#45;&gt;Node1 -->
<g id="edge7" class="edge">
<title>Node8&#45;&gt;Node1</title>
<path fill="none" stroke="#9a32cd" stroke-dasharray="5,2" d="M163.61,-23.69C195.14,-29.52 230.3,-39.47 259,-56.5 288.94,-74.26 313,-109.18 323.41,-126"/>
<polygon fill="#9a32cd" stroke="#9a32cd" points="163.96,-20.2 153.51,-21.94 162.77,-27.1 163.96,-20.2"/>
<text text-anchor="middle" x="217.5" y="-59.5" font-family="Helvetica,sans-Serif" font-size="10.00"> lpVtbl</text>
</g>
</g>
</svg>
