<?xml version="1.0" encoding="UTF-8" standalone="no"?>
<!DOCTYPE svg PUBLIC "-//W3C//DTD SVG 1.1//EN"
 "http://www.w3.org/Graphics/SVG/1.1/DTD/svg11.dtd">
<!-- Generated by graphviz version 2.43.0 (0)
 -->
<!-- Title: Source/Engine/zlib/zconf.h Pages: 1 -->
<svg width="1094pt" height="240pt"
 viewBox="0.00 0.00 1094.00 240.00" xmlns="http://www.w3.org/2000/svg" xmlns:xlink="http://www.w3.org/1999/xlink">
<g id="graph0" class="graph" transform="scale(1 1) rotate(0) translate(4 236)">
<title>Source/Engine/zlib/zconf.h</title>
<!-- Node1 -->
<g id="node1" class="node">
<title>Node1</title>
<g id="a_node1"><a xlink:title=" ">
<polygon fill="#bfbfbf" stroke="black" points="453,-201.5 453,-231.5 559,-231.5 559,-201.5 453,-201.5"/>
<text text-anchor="start" x="461" y="-219.5" font-family="Helvetica,sans-Serif" font-size="10.00">Source/Engine/zlib</text>
<text text-anchor="middle" x="506" y="-208.5" font-family="Helvetica,sans-Serif" font-size="10.00">/zconf.h</text>
</a>
</g>
</g>
<!-- Node2 -->
<g id="node2" class="node">
<title>Node2</title>
<g id="a_node2"><a xlink:href="../../de/d99/Source_2Engine_2zlib_2zlib_8h.html" target="_top" xlink:title=" ">
<polygon fill="none" stroke="black" points="453,-134.5 453,-164.5 559,-164.5 559,-134.5 453,-134.5"/>
<text text-anchor="start" x="461" y="-152.5" font-family="Helvetica,sans-Serif" font-size="10.00">Source/Engine/zlib</text>
<text text-anchor="middle" x="506" y="-141.5" font-family="Helvetica,sans-Serif" font-size="10.00">/zlib.h</text>
</a>
</g>
</g>
<!-- Node1&#45;&gt;Node2 -->
<g id="edge1" class="edge">
<title>Node1&#45;&gt;Node2</title>
<path fill="none" stroke="midnightblue" d="M506,-191.11C506,-182.15 506,-172.32 506,-164.58"/>
<polygon fill="midnightblue" stroke="midnightblue" points="502.5,-191.4 506,-201.4 509.5,-191.4 502.5,-191.4"/>
</g>
<!-- Node3 -->
<g id="node3" class="node">
<title>Node3</title>
<g id="a_node3"><a xlink:href="../../d5/d5a/Shared_2unzip_8h.html" target="_top" xlink:title=" ">
<polygon fill="none" stroke="black" points="99.5,-73 99.5,-92 188.5,-92 188.5,-73 99.5,-73"/>
<text text-anchor="middle" x="144" y="-80" font-family="Helvetica,sans-Serif" font-size="10.00">Shared/unzip.h</text>
</a>
</g>
</g>
<!-- Node2&#45;&gt;Node3 -->
<g id="edge2" class="edge">
<title>Node2&#45;&gt;Node3</title>
<path fill="none" stroke="midnightblue" d="M443.02,-137.19C370.29,-124.13 252.48,-102.98 188.61,-91.51"/>
<polygon fill="midnightblue" stroke="midnightblue" points="442.51,-140.66 452.97,-138.98 443.75,-133.77 442.51,-140.66"/>
</g>
<!-- Node6 -->
<g id="node6" class="node">
<title>Node6</title>
<g id="a_node6"><a xlink:href="../../d5/def/Shared_2ioapi_8c.html" target="_top" xlink:title=" ">
<polygon fill="none" stroke="black" points="287,-73 287,-92 373,-92 373,-73 287,-73"/>
<text text-anchor="middle" x="330" y="-80" font-family="Helvetica,sans-Serif" font-size="10.00">Shared/ioapi.c</text>
</a>
</g>
</g>
<!-- Node2&#45;&gt;Node6 -->
<g id="edge5" class="edge">
<title>Node2&#45;&gt;Node6</title>
<path fill="none" stroke="midnightblue" d="M458.03,-130.78C423.9,-118.18 379.57,-101.81 353.03,-92.01"/>
<polygon fill="midnightblue" stroke="midnightblue" points="457.22,-134.21 467.81,-134.4 459.64,-127.65 457.22,-134.21"/>
</g>
<!-- Node7 -->
<g id="node7" class="node">
<title>Node7</title>
<g id="a_node7"><a xlink:href="../../d0/d05/Source_2Engine_2zlib_2adler32_8c.html" target="_top" xlink:title=" ">
<polygon fill="none" stroke="black" points="391,-67.5 391,-97.5 497,-97.5 497,-67.5 391,-67.5"/>
<text text-anchor="start" x="399" y="-85.5" font-family="Helvetica,sans-Serif" font-size="10.00">Source/Engine/zlib</text>
<text text-anchor="middle" x="444" y="-74.5" font-family="Helvetica,sans-Serif" font-size="10.00">/adler32.c</text>
</a>
</g>
</g>
<!-- Node2&#45;&gt;Node7 -->
<g id="edge6" class="edge">
<title>Node2&#45;&gt;Node7</title>
<path fill="none" stroke="midnightblue" d="M485.52,-127.02C476.28,-117.34 465.63,-106.17 457.43,-97.58"/>
<polygon fill="midnightblue" stroke="midnightblue" points="483.11,-129.58 492.55,-134.4 488.18,-124.74 483.11,-129.58"/>
</g>
<!-- Node8 -->
<g id="node8" class="node">
<title>Node8</title>
<g id="a_node8"><a xlink:href="../../de/df5/Source_2Engine_2zlib_2zutil_8h.html" target="_top" xlink:title=" ">
<polygon fill="none" stroke="black" points="515,-67.5 515,-97.5 621,-97.5 621,-67.5 515,-67.5"/>
<text text-anchor="start" x="523" y="-85.5" font-family="Helvetica,sans-Serif" font-size="10.00">Source/Engine/zlib</text>
<text text-anchor="middle" x="568" y="-74.5" font-family="Helvetica,sans-Serif" font-size="10.00">/zutil.h</text>
</a>
</g>
</g>
<!-- Node2&#45;&gt;Node8 -->
<g id="edge7" class="edge">
<title>Node2&#45;&gt;Node8</title>
<path fill="none" stroke="midnightblue" d="M526.48,-127.02C535.72,-117.34 546.37,-106.17 554.57,-97.58"/>
<polygon fill="midnightblue" stroke="midnightblue" points="523.82,-124.74 519.45,-134.4 528.89,-129.58 523.82,-124.74"/>
</g>
<!-- Node14 -->
<g id="node14" class="node">
<title>Node14</title>
<g id="a_node14"><a xlink:href="../../de/da8/Source_2Shared_2unzip_8h.html" target="_top" xlink:title=" ">
<polygon fill="none" stroke="black" points="761.5,-73 761.5,-92 886.5,-92 886.5,-73 761.5,-73"/>
<text text-anchor="middle" x="824" y="-80" font-family="Helvetica,sans-Serif" font-size="10.00">Source/Shared/unzip.h</text>
</a>
</g>
</g>
<!-- Node2&#45;&gt;Node14 -->
<g id="edge13" class="edge">
<title>Node2&#45;&gt;Node14</title>
<path fill="none" stroke="midnightblue" d="M569.09,-135.6C632.34,-122.68 727.92,-103.14 782.29,-92.03"/>
<polygon fill="midnightblue" stroke="midnightblue" points="568.32,-132.19 559.23,-137.62 569.72,-139.05 568.32,-132.19"/>
</g>
<!-- Node17 -->
<g id="node17" class="node">
<title>Node17</title>
<g id="a_node17"><a xlink:href="../../d6/d4c/Source_2Shared_2ioapi_8c.html" target="_top" xlink:title=" ">
<polygon fill="none" stroke="black" points="905,-73 905,-92 1027,-92 1027,-73 905,-73"/>
<text text-anchor="middle" x="966" y="-80" font-family="Helvetica,sans-Serif" font-size="10.00">Source/Shared/ioapi.c</text>
</a>
</g>
</g>
<!-- Node2&#45;&gt;Node17 -->
<g id="edge16" class="edge">
<title>Node2&#45;&gt;Node17</title>
<path fill="none" stroke="midnightblue" d="M569.24,-141.8C646.56,-133.26 781.3,-117.28 896,-98 906.28,-96.27 917.35,-94.12 927.59,-92"/>
<polygon fill="midnightblue" stroke="midnightblue" points="568.73,-138.33 559.18,-142.9 569.5,-145.29 568.73,-138.33"/>
</g>
<!-- Node4 -->
<g id="node4" class="node">
<title>Node4</title>
<g id="a_node4"><a xlink:href="../../da/dc5/Shared_2files_8c.html" target="_top" xlink:title=" ">
<polygon fill="none" stroke="black" points="0,-6 0,-25 82,-25 82,-6 0,-6"/>
<text text-anchor="middle" x="41" y="-13" font-family="Helvetica,sans-Serif" font-size="10.00">Shared/files.c</text>
</a>
</g>
</g>
<!-- Node3&#45;&gt;Node4 -->
<g id="edge3" class="edge">
<title>Node3&#45;&gt;Node4</title>
<path fill="none" stroke="midnightblue" d="M121.45,-67.27C101.06,-54.4 71.71,-35.88 54.67,-25.13"/>
<polygon fill="midnightblue" stroke="midnightblue" points="119.78,-70.36 130.11,-72.73 123.52,-64.44 119.78,-70.36"/>
</g>
<!-- Node5 -->
<g id="node5" class="node">
<title>Node5</title>
<g id="a_node5"><a xlink:href="../../d4/d5f/Shared_2unzip_8c.html" target="_top" xlink:title=" ">
<polygon fill="none" stroke="black" points="100,-6 100,-25 188,-25 188,-6 100,-6"/>
<text text-anchor="middle" x="144" y="-13" font-family="Helvetica,sans-Serif" font-size="10.00">Shared/unzip.c</text>
</a>
</g>
</g>
<!-- Node3&#45;&gt;Node5 -->
<g id="edge4" class="edge">
<title>Node3&#45;&gt;Node5</title>
<path fill="none" stroke="midnightblue" d="M144,-62.54C144,-50.17 144,-34.62 144,-25.13"/>
<polygon fill="midnightblue" stroke="midnightblue" points="140.5,-62.73 144,-72.73 147.5,-62.73 140.5,-62.73"/>
</g>
<!-- Node9 -->
<g id="node9" class="node">
<title>Node9</title>
<g id="a_node9"><a xlink:href="../../da/d8d/Source_2Engine_2zlib_2crc32_8c.html" target="_top" xlink:title=" ">
<polygon fill="none" stroke="black" points="206,-0.5 206,-30.5 312,-30.5 312,-0.5 206,-0.5"/>
<text text-anchor="start" x="214" y="-18.5" font-family="Helvetica,sans-Serif" font-size="10.00">Source/Engine/zlib</text>
<text text-anchor="middle" x="259" y="-7.5" font-family="Helvetica,sans-Serif" font-size="10.00">/crc32.c</text>
</a>
</g>
</g>
<!-- Node8&#45;&gt;Node9 -->
<g id="edge8" class="edge">
<title>Node8&#45;&gt;Node9</title>
<path fill="none" stroke="midnightblue" d="M505.1,-66.86C422.44,-49.37 399.87,-47.89 321,-31 318.08,-30.37 315.09,-29.72 312.07,-29.05"/>
<polygon fill="midnightblue" stroke="midnightblue" points="504.42,-70.29 514.93,-68.95 505.88,-63.44 504.42,-70.29"/>
</g>
<!-- Node10 -->
<g id="node10" class="node">
<title>Node10</title>
<g id="a_node10"><a xlink:href="../../de/ded/Source_2Engine_2zlib_2inffast_8c.html" target="_top" xlink:title=" ">
<polygon fill="none" stroke="black" points="330,-0.5 330,-30.5 436,-30.5 436,-0.5 330,-0.5"/>
<text text-anchor="start" x="338" y="-18.5" font-family="Helvetica,sans-Serif" font-size="10.00">Source/Engine/zlib</text>
<text text-anchor="middle" x="383" y="-7.5" font-family="Helvetica,sans-Serif" font-size="10.00">/inffast.c</text>
</a>
</g>
</g>
<!-- Node8&#45;&gt;Node10 -->
<g id="edge9" class="edge">
<title>Node8&#45;&gt;Node10</title>
<path fill="none" stroke="midnightblue" d="M518.06,-63.96C488.26,-53.48 450.93,-40.37 423.06,-30.58"/>
<polygon fill="midnightblue" stroke="midnightblue" points="517.26,-67.38 527.86,-67.4 519.58,-60.78 517.26,-67.38"/>
</g>
<!-- Node11 -->
<g id="node11" class="node">
<title>Node11</title>
<g id="a_node11"><a xlink:href="../../dc/d8f/Source_2Engine_2zlib_2inflate_8c.html" target="_top" xlink:title=" ">
<polygon fill="none" stroke="black" points="454,-0.5 454,-30.5 560,-30.5 560,-0.5 454,-0.5"/>
<text text-anchor="start" x="462" y="-18.5" font-family="Helvetica,sans-Serif" font-size="10.00">Source/Engine/zlib</text>
<text text-anchor="middle" x="507" y="-7.5" font-family="Helvetica,sans-Serif" font-size="10.00">/inflate.c</text>
</a>
</g>
</g>
<!-- Node8&#45;&gt;Node11 -->
<g id="edge10" class="edge">
<title>Node8&#45;&gt;Node11</title>
<path fill="none" stroke="midnightblue" d="M547.85,-60.02C538.76,-50.34 528.28,-39.17 520.21,-30.58"/>
<polygon fill="midnightblue" stroke="midnightblue" points="545.37,-62.5 554.76,-67.4 550.47,-57.71 545.37,-62.5"/>
</g>
<!-- Node12 -->
<g id="node12" class="node">
<title>Node12</title>
<g id="a_node12"><a xlink:href="../../d9/d60/Source_2Engine_2zlib_2inftrees_8c.html" target="_top" xlink:title=" ">
<polygon fill="none" stroke="black" points="578,-0.5 578,-30.5 684,-30.5 684,-0.5 578,-0.5"/>
<text text-anchor="start" x="586" y="-18.5" font-family="Helvetica,sans-Serif" font-size="10.00">Source/Engine/zlib</text>
<text text-anchor="middle" x="631" y="-7.5" font-family="Helvetica,sans-Serif" font-size="10.00">/inftrees.c</text>
</a>
</g>
</g>
<!-- Node8&#45;&gt;Node12 -->
<g id="edge11" class="edge">
<title>Node8&#45;&gt;Node12</title>
<path fill="none" stroke="midnightblue" d="M588.81,-60.02C598.2,-50.34 609.02,-39.17 617.36,-30.58"/>
<polygon fill="midnightblue" stroke="midnightblue" points="586.12,-57.78 581.67,-67.4 591.14,-62.65 586.12,-57.78"/>
</g>
<!-- Node13 -->
<g id="node13" class="node">
<title>Node13</title>
<g id="a_node13"><a xlink:href="../../d9/d76/Source_2Engine_2zlib_2zutil_8c.html" target="_top" xlink:title=" ">
<polygon fill="none" stroke="black" points="702,-0.5 702,-30.5 808,-30.5 808,-0.5 702,-0.5"/>
<text text-anchor="start" x="710" y="-18.5" font-family="Helvetica,sans-Serif" font-size="10.00">Source/Engine/zlib</text>
<text text-anchor="middle" x="755" y="-7.5" font-family="Helvetica,sans-Serif" font-size="10.00">/zutil.c</text>
</a>
</g>
</g>
<!-- Node8&#45;&gt;Node13 -->
<g id="edge12" class="edge">
<title>Node8&#45;&gt;Node13</title>
<path fill="none" stroke="midnightblue" d="M618.08,-64.09C648.27,-53.6 686.22,-40.41 714.5,-30.58"/>
<polygon fill="midnightblue" stroke="midnightblue" points="616.87,-60.81 608.58,-67.4 619.17,-67.42 616.87,-60.81"/>
</g>
<!-- Node15 -->
<g id="node15" class="node">
<title>Node15</title>
<g id="a_node15"><a xlink:href="../../dd/d3e/Source_2Shared_2files_8c.html" target="_top" xlink:title=" ">
<polygon fill="none" stroke="black" points="826,-6 826,-25 944,-25 944,-6 826,-6"/>
<text text-anchor="middle" x="885" y="-13" font-family="Helvetica,sans-Serif" font-size="10.00">Source/Shared/files.c</text>
</a>
</g>
</g>
<!-- Node14&#45;&gt;Node15 -->
<g id="edge14" class="edge">
<title>Node14&#45;&gt;Node15</title>
<path fill="none" stroke="midnightblue" d="M839.36,-65.13C851.29,-52.42 867.36,-35.3 876.9,-25.13"/>
<polygon fill="midnightblue" stroke="midnightblue" points="836.52,-63.05 832.23,-72.73 841.62,-67.84 836.52,-63.05"/>
</g>
<!-- Node16 -->
<g id="node16" class="node">
<title>Node16</title>
<g id="a_node16"><a xlink:href="../../d3/dea/Source_2Shared_2unzip_8c.html" target="_top" xlink:title=" ">
<polygon fill="none" stroke="black" points="962,-6 962,-25 1086,-25 1086,-6 962,-6"/>
<text text-anchor="middle" x="1024" y="-13" font-family="Helvetica,sans-Serif" font-size="10.00">Source/Shared/unzip.c</text>
</a>
</g>
</g>
<!-- Node14&#45;&gt;Node16 -->
<g id="edge15" class="edge">
<title>Node14&#45;&gt;Node16</title>
<path fill="none" stroke="midnightblue" d="M860.11,-69.77C899.73,-56.89 962.4,-36.52 997.65,-25.06"/>
<polygon fill="midnightblue" stroke="midnightblue" points="858.99,-66.45 850.56,-72.87 861.15,-73.11 858.99,-66.45"/>
</g>
</g>
</svg>
