<?xml version="1.0" encoding="UTF-8" standalone="no"?>
<!DOCTYPE svg PUBLIC "-//W3C//DTD SVG 1.1//EN"
 "http://www.w3.org/Graphics/SVG/1.1/DTD/svg11.dtd">
<!-- Generated by graphviz version 2.43.0 (0)
 -->
<!-- Title: _IMAGE_AUX_SYMBOL Pages: 1 -->
<!--zoomable 528 -->
<svg id="main" version="1.1" xmlns="http://www.w3.org/2000/svg" xmlns:xlink="http://www.w3.org/1999/xlink" xml:space="preserve" onload="init(evt)">
<style type="text/css"><![CDATA[
.edge:hover path { stroke: red; }
.edge:hover polygon { stroke: red; fill: red; }
]]></style>
<script type="text/javascript"><![CDATA[
var edges = document.getElementsByTagName('g');
if (edges && edges.length) {
  for (var i=0;i<edges.length;i++) {
    if (edges[i].id.substr(0,4)=='edge') {
      edges[i].setAttribute('class','edge');
    }
  }
}
]]></script>
        <defs>
                <circle id="rim" cx="0" cy="0" r="7"/>
                <circle id="rim2" cx="0" cy="0" r="3.5"/>
                <g id="zoomPlus">
                        <use xlink:href="#rim" fill="#404040">
                                <set attributeName="fill" to="#808080" begin="zoomplus.mouseover" end="zoomplus.mouseout"/>
                        </use>
                        <path d="M-4,0h8M0,-4v8" fill="none" stroke="white" stroke-width="1.5" pointer-events="none"/>
                </g>
                <g id="zoomMin">
                        <use xlink:href="#rim" fill="#404040">
                                <set attributeName="fill" to="#808080" begin="zoomminus.mouseover" end="zoomminus.mouseout"/>
                        </use>
                        <path d="M-4,0h8" fill="none" stroke="white" stroke-width="1.5" pointer-events="none"/>
                </g>
                <g id="dirArrow">
                        <path fill="none" stroke="white" stroke-width="1.5" d="M0,-3.0v7 M-2.5,-0.5L0,-3.0L2.5,-0.5"/>
                </g>
               <g id="resetDef">
                       <use xlink:href="#rim2" fill="#404040">
                               <set attributeName="fill" to="#808080" begin="reset.mouseover" end="reset.mouseout"/>
                       </use>
               </g>
        </defs>

<script type="text/javascript">
var viewWidth = 402;
var viewHeight = 528;
var sectionId = 'dynsection-0';
</script>
<script xlink:href="../../svgpan.js"/>
<svg id="graph" class="graph">
<g id="viewport">
<title>_IMAGE_AUX_SYMBOL</title>
<!-- Node1 -->
<g id="node1" class="node">
<title>Node1</title>
<g id="a_node1"><a xlink:title=" ">
<polygon fill="#bfbfbf" stroke="black" points="268,-241.13 268,-260.13 394,-260.13 394,-241.13 268,-241.13"/>
<text text-anchor="middle" x="331" y="-248.13" font-family="Helvetica,sans-Serif" font-size="10.00">_IMAGE_AUX_SYMBOL</text>
</a>
</g>
</g>
<!-- Node2 -->
<g id="node2" class="node">
<title>Node2</title>
<g id="a_node2"><a xlink:title=" ">
<polygon fill="none" stroke="#bfbfbf" points="9.5,-492.13 9.5,-511.13 108.5,-511.13 108.5,-492.13 9.5,-492.13"/>
<text text-anchor="middle" x="59" y="-499.13" font-family="Helvetica,sans-Serif" font-size="10.00">anonymous:Misc</text>
</a>
</g>
</g>
<!-- Node2&#45;&gt;Node1 -->
<g id="edge1" class="edge">
<title>Node2&#45;&gt;Node1</title>
<path fill="none" stroke="#9a32cd" stroke-dasharray="5,2" d="M118.87,-508.92C159.92,-510.71 213.65,-506.07 250,-476.63 320.51,-419.53 328.95,-295.79 329.9,-260.32"/>
<polygon fill="#9a32cd" stroke="#9a32cd" points="118.91,-505.41 108.72,-508.33 118.51,-512.4 118.91,-505.41"/>
<text text-anchor="middle" x="193" y="-511.63" font-family="Helvetica,sans-Serif" font-size="10.00"> Misc</text>
</g>
<!-- Node3 -->
<g id="node3" class="node">
<title>Node3</title>
<g id="a_node3"><a xlink:title=" ">
<polygon fill="none" stroke="#bfbfbf" points="4,-454.13 4,-473.13 114,-473.13 114,-454.13 4,-454.13"/>
<text text-anchor="middle" x="59" y="-461.13" font-family="Helvetica,sans-Serif" font-size="10.00">anonymous:FcnAry</text>
</a>
</g>
</g>
<!-- Node3&#45;&gt;Node1 -->
<g id="edge2" class="edge">
<title>Node3&#45;&gt;Node1</title>
<path fill="none" stroke="#9a32cd" stroke-dasharray="5,2" d="M124.55,-463C171.71,-461.29 230.65,-456.18 250,-441.63 311.78,-395.18 326.22,-292.03 329.26,-260.18"/>
<polygon fill="#9a32cd" stroke="#9a32cd" points="124.27,-459.5 114.38,-463.32 124.49,-466.5 124.27,-459.5"/>
<text text-anchor="middle" x="193" y="-464.63" font-family="Helvetica,sans-Serif" font-size="10.00"> FcnAry</text>
</g>
<!-- Node4 -->
<g id="node4" class="node">
<title>Node4</title>
<g id="a_node4"><a xlink:title=" ">
<polygon fill="none" stroke="#bfbfbf" points="40,-409.13 40,-428.13 78,-428.13 78,-409.13 40,-409.13"/>
<text text-anchor="middle" x="59" y="-416.13" font-family="Helvetica,sans-Serif" font-size="10.00">char</text>
</a>
</g>
</g>
<!-- Node4&#45;&gt;Node1 -->
<g id="edge3" class="edge">
<title>Node4&#45;&gt;Node1</title>
<path fill="none" stroke="#9a32cd" stroke-dasharray="5,2" d="M88.35,-418.48C134.73,-417.71 224.24,-413.97 250,-396.63 300.11,-362.9 321.72,-286.93 327.97,-260.18"/>
<polygon fill="#9a32cd" stroke="#9a32cd" points="88.04,-414.98 78.08,-418.61 88.13,-421.98 88.04,-414.98"/>
<text text-anchor="middle" x="193" y="-430.63" font-family="Helvetica,sans-Serif" font-size="10.00"> Name</text>
<text text-anchor="middle" x="193" y="-419.63" font-family="Helvetica,sans-Serif" font-size="10.00">Selection</text>
</g>
<!-- Node5 -->
<g id="node5" class="node">
<title>Node5</title>
<g id="a_node5"><a xlink:title=" ">
<polygon fill="none" stroke="#bfbfbf" points="38.5,-317.13 38.5,-336.13 79.5,-336.13 79.5,-317.13 38.5,-317.13"/>
<text text-anchor="middle" x="59" y="-324.13" font-family="Helvetica,sans-Serif" font-size="10.00">short</text>
</a>
</g>
</g>
<!-- Node5&#45;&gt;Node1 -->
<g id="edge4" class="edge">
<title>Node5&#45;&gt;Node1</title>
<path fill="none" stroke="#9a32cd" stroke-dasharray="5,2" d="M90.02,-324.12C128.08,-320.29 195.33,-311.37 250,-292.63 273.89,-284.44 299.37,-269.94 315,-260.31"/>
<polygon fill="#9a32cd" stroke="#9a32cd" points="89.26,-320.68 79.64,-325.11 89.93,-327.64 89.26,-320.68"/>
<text text-anchor="middle" x="193" y="-386.63" font-family="Helvetica,sans-Serif" font-size="10.00"> Size</text>
<text text-anchor="middle" x="193" y="-375.63" font-family="Helvetica,sans-Serif" font-size="10.00">TvIndex</text>
<text text-anchor="middle" x="193" y="-364.63" font-family="Helvetica,sans-Serif" font-size="10.00">Number</text>
<text text-anchor="middle" x="193" y="-353.63" font-family="Helvetica,sans-Serif" font-size="10.00">Linenumber</text>
<text text-anchor="middle" x="193" y="-342.63" font-family="Helvetica,sans-Serif" font-size="10.00">NumberOfLinenumbers</text>
<text text-anchor="middle" x="193" y="-331.63" font-family="Helvetica,sans-Serif" font-size="10.00">NumberOfRelocations</text>
<text text-anchor="middle" x="193" y="-320.63" font-family="Helvetica,sans-Serif" font-size="10.00">Dimension</text>
</g>
<!-- Node6 -->
<g id="node6" class="node">
<title>Node6</title>
<g id="a_node6"><a xlink:title=" ">
<polygon fill="none" stroke="#bfbfbf" points="10,-279.13 10,-298.13 108,-298.13 108,-279.13 10,-279.13"/>
<text text-anchor="middle" x="59" y="-286.13" font-family="Helvetica,sans-Serif" font-size="10.00">anonymous:Sym</text>
</a>
</g>
</g>
<!-- Node6&#45;&gt;Node1 -->
<g id="edge5" class="edge">
<title>Node6&#45;&gt;Node1</title>
<path fill="none" stroke="#9a32cd" stroke-dasharray="5,2" d="M118.31,-280.85C155.92,-275.78 205.87,-268.96 250,-262.63 255.84,-261.79 261.92,-260.91 267.99,-260.01"/>
<polygon fill="#9a32cd" stroke="#9a32cd" points="117.49,-277.43 108.05,-282.23 118.43,-284.36 117.49,-277.43"/>
<text text-anchor="middle" x="193" y="-280.63" font-family="Helvetica,sans-Serif" font-size="10.00"> Sym</text>
</g>
<!-- Node7 -->
<g id="node7" class="node">
<title>Node7</title>
<g id="a_node7"><a xlink:title=" ">
<polygon fill="none" stroke="#bfbfbf" points="12,-241.13 12,-260.13 106,-260.13 106,-241.13 12,-241.13"/>
<text text-anchor="middle" x="59" y="-248.13" font-family="Helvetica,sans-Serif" font-size="10.00">anonymous:File</text>
</a>
</g>
</g>
<!-- Node7&#45;&gt;Node1 -->
<g id="edge6" class="edge">
<title>Node7&#45;&gt;Node1</title>
<path fill="none" stroke="#9a32cd" stroke-dasharray="5,2" d="M116.12,-250.63C160.4,-250.63 222.12,-250.63 267.88,-250.63"/>
<polygon fill="#9a32cd" stroke="#9a32cd" points="116.11,-247.13 106.11,-250.63 116.11,-254.13 116.11,-247.13"/>
<text text-anchor="middle" x="193" y="-253.63" font-family="Helvetica,sans-Serif" font-size="10.00"> File</text>
</g>
<!-- Node8 -->
<g id="node8" class="node">
<title>Node8</title>
<g id="a_node8"><a xlink:title=" ">
<polygon fill="none" stroke="#bfbfbf" points="9.5,-203.13 9.5,-222.13 108.5,-222.13 108.5,-203.13 9.5,-203.13"/>
<text text-anchor="middle" x="59" y="-210.13" font-family="Helvetica,sans-Serif" font-size="10.00">anonymous:LnSz</text>
</a>
</g>
</g>
<!-- Node8&#45;&gt;Node1 -->
<g id="edge7" class="edge">
<title>Node8&#45;&gt;Node1</title>
<path fill="none" stroke="#9a32cd" stroke-dasharray="5,2" d="M118.8,-218.75C156.41,-222.91 206.18,-228.88 250,-235.63 260.33,-237.22 271.38,-239.15 281.86,-241.08"/>
<polygon fill="#9a32cd" stroke="#9a32cd" points="118.86,-215.24 108.54,-217.63 118.1,-222.2 118.86,-215.24"/>
<text text-anchor="middle" x="193" y="-238.63" font-family="Helvetica,sans-Serif" font-size="10.00"> LnSz</text>
</g>
<!-- Node9 -->
<g id="node9" class="node">
<title>Node9</title>
<g id="a_node9"><a xlink:title=" ">
<polygon fill="none" stroke="#bfbfbf" points="2.5,-165.13 2.5,-184.13 115.5,-184.13 115.5,-165.13 2.5,-165.13"/>
<text text-anchor="middle" x="59" y="-172.13" font-family="Helvetica,sans-Serif" font-size="10.00">anonymous:Section</text>
</a>
</g>
</g>
<!-- Node9&#45;&gt;Node1 -->
<g id="edge8" class="edge">
<title>Node9&#45;&gt;Node1</title>
<path fill="none" stroke="#9a32cd" stroke-dasharray="5,2" d="M125.95,-179.66C163.17,-183.9 210.07,-191.64 250,-205.63 274.96,-214.38 301.19,-230.7 316.55,-241.1"/>
<polygon fill="#9a32cd" stroke="#9a32cd" points="126.05,-176.15 115.73,-178.55 125.29,-183.11 126.05,-176.15"/>
<text text-anchor="middle" x="193" y="-208.63" font-family="Helvetica,sans-Serif" font-size="10.00"> Section</text>
</g>
<!-- Node10 -->
<g id="node10" class="node">
<title>Node10</title>
<g id="a_node10"><a xlink:title=" ">
<polygon fill="none" stroke="#bfbfbf" points="0,-127.13 0,-146.13 118,-146.13 118,-127.13 0,-127.13"/>
<text text-anchor="middle" x="59" y="-134.13" font-family="Helvetica,sans-Serif" font-size="10.00">anonymous:Function</text>
</a>
</g>
</g>
<!-- Node10&#45;&gt;Node1 -->
<g id="edge9" class="edge">
<title>Node10&#45;&gt;Node1</title>
<path fill="none" stroke="#9a32cd" stroke-dasharray="5,2" d="M128.71,-136.37C166.4,-138.79 212.87,-146.13 250,-165.63 284.63,-183.82 312.51,-222.89 324.14,-241.02"/>
<polygon fill="#9a32cd" stroke="#9a32cd" points="128.51,-132.85 118.33,-135.81 128.13,-139.84 128.51,-132.85"/>
<text text-anchor="middle" x="193" y="-168.63" font-family="Helvetica,sans-Serif" font-size="10.00"> Function</text>
</g>
<!-- Node11 -->
<g id="node11" class="node">
<title>Node11</title>
<g id="a_node11"><a xlink:title=" ">
<polygon fill="none" stroke="#bfbfbf" points="40,-44.13 40,-63.13 78,-63.13 78,-44.13 40,-44.13"/>
<text text-anchor="middle" x="59" y="-51.13" font-family="Helvetica,sans-Serif" font-size="10.00">long</text>
</a>
</g>
</g>
<!-- Node11&#45;&gt;Node1 -->
<g id="edge10" class="edge">
<title>Node11&#45;&gt;Node1</title>
<path fill="none" stroke="#9a32cd" stroke-dasharray="5,2" d="M88.1,-47.19C128.01,-39.75 201.64,-32.51 250,-66.63 310.91,-109.61 325.89,-209.31 329.16,-240.87"/>
<polygon fill="#9a32cd" stroke="#9a32cd" points="87.37,-43.77 78.25,-49.16 88.74,-50.63 87.37,-43.77"/>
<text text-anchor="middle" x="193" y="-124.63" font-family="Helvetica,sans-Serif" font-size="10.00"> TotalSize</text>
<text text-anchor="middle" x="193" y="-113.63" font-family="Helvetica,sans-Serif" font-size="10.00">CheckSum</text>
<text text-anchor="middle" x="193" y="-102.63" font-family="Helvetica,sans-Serif" font-size="10.00">Length</text>
<text text-anchor="middle" x="193" y="-91.63" font-family="Helvetica,sans-Serif" font-size="10.00">TagIndex</text>
<text text-anchor="middle" x="193" y="-80.63" font-family="Helvetica,sans-Serif" font-size="10.00">PointerToNextFunction</text>
<text text-anchor="middle" x="193" y="-69.63" font-family="Helvetica,sans-Serif" font-size="10.00">PointerToLinenumber</text>
</g>
<!-- Node12 -->
<g id="node12" class="node">
<title>Node12</title>
<g id="a_node12"><a xlink:title=" ">
<polygon fill="none" stroke="#bfbfbf" points="7.5,-6.13 7.5,-25.13 110.5,-25.13 110.5,-6.13 7.5,-6.13"/>
<text text-anchor="middle" x="59" y="-13.13" font-family="Helvetica,sans-Serif" font-size="10.00">anonymous:Array</text>
</a>
</g>
</g>
<!-- Node12&#45;&gt;Node1 -->
<g id="edge11" class="edge">
<title>Node12&#45;&gt;Node1</title>
<path fill="none" stroke="#9a32cd" stroke-dasharray="5,2" d="M108.69,-4.37C150.34,2.29 209.76,4.38 250,-25.63 322.44,-79.67 329.52,-204.83 330.02,-240.8"/>
<polygon fill="#9a32cd" stroke="#9a32cd" points="108.03,-0.94 98.77,-6.1 109.23,-7.83 108.03,-0.94"/>
<text text-anchor="middle" x="193" y="-28.63" font-family="Helvetica,sans-Serif" font-size="10.00"> Array</text>
</g>
</g>
</svg>
        <g id="navigator" transform="translate(0 0)" fill="#404254">
                <rect fill="#f2f5e9" fill-opacity="0.5" stroke="#606060" stroke-width=".5" x="0" y="0" width="60" height="60"/>
                <use id="zoomplus" xlink:href="#zoomPlus" x="17" y="9" onmousedown="handleZoom(evt,'in')"/>
                <use id="zoomminus" xlink:href="#zoomMin" x="42" y="9" onmousedown="handleZoom(evt,'out')"/>
                <use id="reset" xlink:href="#resetDef" x="30" y="36" onmousedown="handleReset()"/>
                <g id="arrowUp" xlink:href="#dirArrow" transform="translate(30 24)" onmousedown="handlePan(0,-1)">
                  <use xlink:href="#rim" fill="#404040">
                        <set attributeName="fill" to="#808080" begin="arrowUp.mouseover" end="arrowUp.mouseout"/>
                  </use>
                  <path fill="none" stroke="white" stroke-width="1.5" d="M0,-3.0v7 M-2.5,-0.5L0,-3.0L2.5,-0.5"/>
                </g>
                <g id="arrowRight" xlink:href="#dirArrow" transform="rotate(90) translate(36 -43)" onmousedown="handlePan(1,0)">
                  <use xlink:href="#rim" fill="#404040">
                        <set attributeName="fill" to="#808080" begin="arrowRight.mouseover" end="arrowRight.mouseout"/>
                  </use>
                  <path fill="none" stroke="white" stroke-width="1.5" d="M0,-3.0v7 M-2.5,-0.5L0,-3.0L2.5,-0.5"/>
                </g>
                <g id="arrowDown" xlink:href="#dirArrow" transform="rotate(180) translate(-30 -48)" onmousedown="handlePan(0,1)">
                  <use xlink:href="#rim" fill="#404040">
                        <set attributeName="fill" to="#808080" begin="arrowDown.mouseover" end="arrowDown.mouseout"/>
                  </use>
                  <path fill="none" stroke="white" stroke-width="1.5" d="M0,-3.0v7 M-2.5,-0.5L0,-3.0L2.5,-0.5"/>
                </g>
                <g id="arrowLeft" xlink:href="#dirArrow" transform="rotate(270) translate(-36 17)" onmousedown="handlePan(-1,0)">
                  <use xlink:href="#rim" fill="#404040">
                        <set attributeName="fill" to="#808080" begin="arrowLeft.mouseover" end="arrowLeft.mouseout"/>
                  </use>
                  <path fill="none" stroke="white" stroke-width="1.5" d="M0,-3.0v7 M-2.5,-0.5L0,-3.0L2.5,-0.5"/>
                </g>
        </g>
        <svg viewBox="0 0 15 15" width="100%" height="30px" preserveAspectRatio="xMaxYMin meet">
         <g id="arrow_out" transform="scale(0.3 0.3)">
          <a xlink:href="union__IMAGE__AUX__SYMBOL__coll__graph_org.svg" target="_base">
           <rect id="button" ry="5" rx="5" y="6" x="6" height="38" width="38"
                fill="#f2f5e9" fill-opacity="0.5" stroke="#606060" stroke-width="1.0"/>
           <path id="arrow"
             d="M 11.500037,31.436501 C 11.940474,20.09759 22.043105,11.32322 32.158766,21.979434 L 37.068811,17.246167 C 37.068811,17.246167 37.088388,32 37.088388,32 L 22.160133,31.978069 C 22.160133,31.978069 26.997745,27.140456 26.997745,27.140456 C 18.528582,18.264221 13.291696,25.230495 11.500037,31.436501 z"
             style="fill:#404040;"/>
          </a>
         </g>
        </svg>
</svg>
