<?xml version="1.0" encoding="UTF-8" standalone="no"?>
<!DOCTYPE svg PUBLIC "-//W3C//DTD SVG 1.1//EN"
 "http://www.w3.org/Graphics/SVG/1.1/DTD/svg11.dtd">
<!-- Generated by graphviz version 2.43.0 (0)
 -->
<!-- Title: _SYSTEM_MEMORY_USAGE_INFORMATION Pages: 1 -->
<svg width="466pt" height="88pt"
 viewBox="0.00 0.00 466.00 88.00" xmlns="http://www.w3.org/2000/svg" xmlns:xlink="http://www.w3.org/1999/xlink">
<g id="graph0" class="graph" transform="scale(1 1) rotate(0) translate(4 84)">
<title>_SYSTEM_MEMORY_USAGE_INFORMATION</title>
<!-- Node1 -->
<g id="node1" class="node">
<title>Node1</title>
<g id="a_node1"><a xlink:title=" ">
<polygon fill="#bfbfbf" stroke="black" points="309,-30 309,-60 458,-60 458,-30 309,-30"/>
<text text-anchor="start" x="317" y="-48" font-family="Helvetica,sans-Serif" font-size="10.00">_SYSTEM_MEMORY_USAGE</text>
<text text-anchor="middle" x="383.5" y="-37" font-family="Helvetica,sans-Serif" font-size="10.00">_INFORMATION</text>
</a>
</g>
</g>
<!-- Node2 -->
<g id="node2" class="node">
<title>Node2</title>
<g id="a_node2"><a xlink:title=" ">
<polygon fill="none" stroke="#bfbfbf" points="27,-60.5 27,-79.5 171,-79.5 171,-60.5 27,-60.5"/>
<text text-anchor="middle" x="99" y="-67.5" font-family="Helvetica,sans-Serif" font-size="10.00">SYSTEM_MEMORY_USAGE</text>
</a>
</g>
</g>
<!-- Node2&#45;&gt;Node1 -->
<g id="edge1" class="edge">
<title>Node2&#45;&gt;Node1</title>
<path fill="none" stroke="#9a32cd" stroke-dasharray="5,2" d="M181.32,-62.8C221.52,-59.25 269.66,-54.99 308.77,-51.52"/>
<polygon fill="#9a32cd" stroke="#9a32cd" points="180.94,-59.32 171.29,-63.69 181.56,-66.3 180.94,-59.32"/>
<text text-anchor="middle" x="253.5" y="-61" font-family="Helvetica,sans-Serif" font-size="10.00"> MemoryUsage</text>
</g>
<!-- Node3 -->
<g id="node3" class="node">
<title>Node3</title>
<g id="a_node3"><a xlink:title=" ">
<polygon fill="none" stroke="#bfbfbf" points="0,-0.5 0,-41.5 198,-41.5 198,-0.5 0,-0.5"/>
<text text-anchor="start" x="8" y="-29.5" font-family="Helvetica,sans-Serif" font-size="10.00">PSecurityUserData *typedef</text>
<text text-anchor="start" x="8" y="-18.5" font-family="Helvetica,sans-Serif" font-size="10.00"> PSECPKG_EXTENDED_INFORMATION</text>
<text text-anchor="middle" x="99" y="-7.5" font-family="Helvetica,sans-Serif" font-size="10.00"> *typedef</text>
</a>
</g>
</g>
<!-- Node3&#45;&gt;Node1 -->
<g id="edge2" class="edge">
<title>Node3&#45;&gt;Node1</title>
<path fill="none" stroke="#9a32cd" stroke-dasharray="5,2" d="M208.63,-20.48C235.61,-21.28 264.41,-22.92 291,-26 299.54,-26.99 308.47,-28.39 317.25,-29.97"/>
<polygon fill="#9a32cd" stroke="#9a32cd" points="208.47,-16.98 198.39,-20.22 208.29,-23.98 208.47,-16.98"/>
<text text-anchor="middle" x="253.5" y="-40" font-family="Helvetica,sans-Serif" font-size="10.00"> EndOfData</text>
<text text-anchor="middle" x="253.5" y="-29" font-family="Helvetica,sans-Serif" font-size="10.00">Reserved</text>
</g>
</g>
</svg>
