<?xml version="1.0" encoding="UTF-8" standalone="no"?>
<!DOCTYPE svg PUBLIC "-//W3C//DTD SVG 1.1//EN"
 "http://www.w3.org/Graphics/SVG/1.1/DTD/svg11.dtd">
<!-- Generated by graphviz version 2.43.0 (0)
 -->
<!-- Title: Tools/MinGW/include/c++/4.6.1/ext/pb_ds/detail/eq_fn/hash_eq_fn.hpp Pages: 1 -->
<svg width="290pt" height="395pt"
 viewBox="0.00 0.00 289.50 395.00" xmlns="http://www.w3.org/2000/svg" xmlns:xlink="http://www.w3.org/1999/xlink">
<g id="graph0" class="graph" transform="scale(1 1) rotate(0) translate(4 391)">
<title>Tools/MinGW/include/c++/4.6.1/ext/pb_ds/detail/eq_fn/hash_eq_fn.hpp</title>
<!-- Node1 -->
<g id="node1" class="node">
<title>Node1</title>
<g id="a_node1"><a xlink:title=" ">
<polygon fill="#bfbfbf" stroke="black" points="80,-334.5 80,-386.5 201,-386.5 201,-334.5 80,-334.5"/>
<text text-anchor="start" x="88" y="-374.5" font-family="Helvetica,sans-Serif" font-size="10.00">Tools/MinGW/include</text>
<text text-anchor="start" x="88" y="-363.5" font-family="Helvetica,sans-Serif" font-size="10.00">/c++/4.6.1/ext/pb_ds</text>
<text text-anchor="start" x="88" y="-352.5" font-family="Helvetica,sans-Serif" font-size="10.00">/detail/eq_fn/hash_eq</text>
<text text-anchor="middle" x="140.5" y="-341.5" font-family="Helvetica,sans-Serif" font-size="10.00">_fn.hpp</text>
</a>
</g>
</g>
<!-- Node2 -->
<g id="node2" class="node">
<title>Node2</title>
<g id="a_node2"><a xlink:href="../../d6/d67/cc__ht__map___8hpp.html" target="_top" xlink:title=" ">
<polygon fill="none" stroke="black" points="0,-245.5 0,-297.5 131,-297.5 131,-245.5 0,-245.5"/>
<text text-anchor="start" x="8" y="-285.5" font-family="Helvetica,sans-Serif" font-size="10.00">Tools/MinGW/include</text>
<text text-anchor="start" x="8" y="-274.5" font-family="Helvetica,sans-Serif" font-size="10.00">/c++/4.6.1/ext/pb_ds</text>
<text text-anchor="start" x="8" y="-263.5" font-family="Helvetica,sans-Serif" font-size="10.00">/detail/cc_hash_table</text>
<text text-anchor="middle" x="65.5" y="-252.5" font-family="Helvetica,sans-Serif" font-size="10.00">_map_/cc_ht_map_.hpp</text>
</a>
</g>
</g>
<!-- Node1&#45;&gt;Node2 -->
<g id="edge1" class="edge">
<title>Node1&#45;&gt;Node2</title>
<path fill="none" stroke="midnightblue" d="M112.05,-326.5C103.8,-316.92 94.91,-306.62 87.14,-297.61"/>
<polygon fill="midnightblue" stroke="midnightblue" points="109.63,-329.05 118.81,-334.34 114.93,-324.48 109.63,-329.05"/>
</g>
<!-- Node6 -->
<g id="node6" class="node">
<title>Node6</title>
<g id="a_node6"><a xlink:href="../../d6/d56/gp__ht__map___8hpp.html" target="_top" xlink:title=" ">
<polygon fill="none" stroke="black" points="149.5,-245.5 149.5,-297.5 281.5,-297.5 281.5,-245.5 149.5,-245.5"/>
<text text-anchor="start" x="157.5" y="-285.5" font-family="Helvetica,sans-Serif" font-size="10.00">Tools/MinGW/include</text>
<text text-anchor="start" x="157.5" y="-274.5" font-family="Helvetica,sans-Serif" font-size="10.00">/c++/4.6.1/ext/pb_ds</text>
<text text-anchor="start" x="157.5" y="-263.5" font-family="Helvetica,sans-Serif" font-size="10.00">/detail/gp_hash_table</text>
<text text-anchor="middle" x="215.5" y="-252.5" font-family="Helvetica,sans-Serif" font-size="10.00">_map_/gp_ht_map_.hpp</text>
</a>
</g>
</g>
<!-- Node1&#45;&gt;Node6 -->
<g id="edge5" class="edge">
<title>Node1&#45;&gt;Node6</title>
<path fill="none" stroke="midnightblue" d="M168.95,-326.5C177.2,-316.92 186.09,-306.62 193.86,-297.61"/>
<polygon fill="midnightblue" stroke="midnightblue" points="166.07,-324.48 162.19,-334.34 171.37,-329.05 166.07,-324.48"/>
</g>
<!-- Node3 -->
<g id="node3" class="node">
<title>Node3</title>
<g id="a_node3"><a xlink:href="../../d9/dc3/container__base__dispatch_8hpp.html" target="_top" xlink:title=" ">
<polygon fill="none" stroke="black" points="78,-156.5 78,-208.5 203,-208.5 203,-156.5 78,-156.5"/>
<text text-anchor="start" x="86" y="-196.5" font-family="Helvetica,sans-Serif" font-size="10.00">Tools/MinGW/include</text>
<text text-anchor="start" x="86" y="-185.5" font-family="Helvetica,sans-Serif" font-size="10.00">/c++/4.6.1/ext/pb_ds</text>
<text text-anchor="start" x="86" y="-174.5" font-family="Helvetica,sans-Serif" font-size="10.00">/detail/container_base</text>
<text text-anchor="middle" x="140.5" y="-163.5" font-family="Helvetica,sans-Serif" font-size="10.00">_dispatch.hpp</text>
</a>
</g>
</g>
<!-- Node2&#45;&gt;Node3 -->
<g id="edge2" class="edge">
<title>Node2&#45;&gt;Node3</title>
<path fill="none" stroke="midnightblue" d="M93.95,-237.5C102.2,-227.92 111.09,-217.62 118.86,-208.61"/>
<polygon fill="midnightblue" stroke="midnightblue" points="91.07,-235.48 87.19,-245.34 96.37,-240.05 91.07,-235.48"/>
</g>
<!-- Node4 -->
<g id="node4" class="node">
<title>Node4</title>
<g id="a_node4"><a xlink:href="../../dc/d07/assoc__container_8hpp.html" target="_top" xlink:title=" ">
<polygon fill="none" stroke="black" points="81,-78.5 81,-119.5 200,-119.5 200,-78.5 81,-78.5"/>
<text text-anchor="start" x="89" y="-107.5" font-family="Helvetica,sans-Serif" font-size="10.00">Tools/MinGW/include</text>
<text text-anchor="start" x="89" y="-96.5" font-family="Helvetica,sans-Serif" font-size="10.00">/c++/4.6.1/ext/pb_ds</text>
<text text-anchor="middle" x="140.5" y="-85.5" font-family="Helvetica,sans-Serif" font-size="10.00">/assoc_container.hpp</text>
</a>
</g>
</g>
<!-- Node3&#45;&gt;Node4 -->
<g id="edge3" class="edge">
<title>Node3&#45;&gt;Node4</title>
<path fill="none" stroke="midnightblue" d="M140.5,-146.15C140.5,-137.05 140.5,-127.6 140.5,-119.63"/>
<polygon fill="midnightblue" stroke="midnightblue" points="137,-146.16 140.5,-156.16 144,-146.16 137,-146.16"/>
</g>
<!-- Node5 -->
<g id="node5" class="node">
<title>Node5</title>
<g id="a_node5"><a xlink:href="../../db/dad/extc_09_09_8h.html" target="_top" xlink:title=" ">
<polygon fill="none" stroke="black" points="62.5,-0.5 62.5,-41.5 218.5,-41.5 218.5,-0.5 62.5,-0.5"/>
<text text-anchor="start" x="70.5" y="-29.5" font-family="Helvetica,sans-Serif" font-size="10.00">Tools/MinGW/include</text>
<text text-anchor="start" x="70.5" y="-18.5" font-family="Helvetica,sans-Serif" font-size="10.00">/c++/4.6.1/i686&#45;pc&#45;mingw32</text>
<text text-anchor="middle" x="140.5" y="-7.5" font-family="Helvetica,sans-Serif" font-size="10.00">/bits/extc++.h</text>
</a>
</g>
</g>
<!-- Node4&#45;&gt;Node5 -->
<g id="edge4" class="edge">
<title>Node4&#45;&gt;Node5</title>
<path fill="none" stroke="midnightblue" d="M140.5,-68.3C140.5,-59.3 140.5,-49.65 140.5,-41.51"/>
<polygon fill="midnightblue" stroke="midnightblue" points="137,-68.43 140.5,-78.43 144,-68.43 137,-68.43"/>
</g>
<!-- Node6&#45;&gt;Node3 -->
<g id="edge6" class="edge">
<title>Node6&#45;&gt;Node3</title>
<path fill="none" stroke="midnightblue" d="M187.05,-237.5C178.8,-227.92 169.91,-217.62 162.14,-208.61"/>
<polygon fill="midnightblue" stroke="midnightblue" points="184.63,-240.05 193.81,-245.34 189.93,-235.48 184.63,-240.05"/>
</g>
</g>
</svg>
