<?xml version="1.0" encoding="UTF-8" standalone="no"?>
<!DOCTYPE svg PUBLIC "-//W3C//DTD SVG 1.1//EN"
 "http://www.w3.org/Graphics/SVG/1.1/DTD/svg11.dtd">
<!-- Generated by graphviz version 2.43.0 (0)
 -->
<!-- Title: _VERIFY_INFORMATION Pages: 1 -->
<svg width="186pt" height="95pt"
 viewBox="0.00 0.00 185.50 95.00" xmlns="http://www.w3.org/2000/svg" xmlns:xlink="http://www.w3.org/1999/xlink">
<g id="graph0" class="graph" transform="scale(1 1) rotate(0) translate(4 91)">
<title>_VERIFY_INFORMATION</title>
<!-- Node1 -->
<g id="node1" class="node">
<title>Node1</title>
<g id="a_node1"><a xlink:title=" ">
<polygon fill="#bfbfbf" stroke="black" points="32.5,-0.5 32.5,-19.5 163.5,-19.5 163.5,-0.5 32.5,-0.5"/>
<text text-anchor="middle" x="98" y="-7.5" font-family="Helvetica,sans-Serif" font-size="10.00">_VERIFY_INFORMATION</text>
</a>
</g>
</g>
<!-- Node2 -->
<g id="node2" class="node">
<title>Node2</title>
<g id="a_node2"><a xlink:title=" ">
<polygon fill="none" stroke="#bfbfbf" points="0,-67.5 0,-86.5 98,-86.5 98,-67.5 0,-67.5"/>
<text text-anchor="middle" x="49" y="-74.5" font-family="Helvetica,sans-Serif" font-size="10.00">LARGE_INTEGER</text>
</a>
</g>
</g>
<!-- Node2&#45;&gt;Node1 -->
<g id="edge1" class="edge">
<title>Node2&#45;&gt;Node1</title>
<path fill="none" stroke="#9a32cd" stroke-dasharray="5,2" d="M48.25,-57.32C48.78,-50.77 50.33,-43.65 54,-38 59.17,-30.03 67.6,-24.03 75.71,-19.74"/>
<polygon fill="#9a32cd" stroke="#9a32cd" points="44.75,-57.39 48.12,-67.43 51.75,-57.48 44.75,-57.39"/>
<text text-anchor="middle" x="89.5" y="-41" font-family="Helvetica,sans-Serif" font-size="10.00"> StartingOffset</text>
</g>
<!-- Node3 -->
<g id="node3" class="node">
<title>Node3</title>
<g id="a_node3"><a xlink:title=" ">
<polygon fill="none" stroke="#bfbfbf" points="116.5,-67.5 116.5,-86.5 177.5,-86.5 177.5,-67.5 116.5,-67.5"/>
<text text-anchor="middle" x="147" y="-74.5" font-family="Helvetica,sans-Serif" font-size="10.00">unsigned</text>
</a>
</g>
</g>
<!-- Node3&#45;&gt;Node1 -->
<g id="edge2" class="edge">
<title>Node3&#45;&gt;Node1</title>
<path fill="none" stroke="#9a32cd" stroke-dasharray="5,2" d="M138.14,-58.52C134.44,-51.85 129.87,-44.34 125,-38 119.91,-31.38 113.29,-24.73 107.88,-19.69"/>
<polygon fill="#9a32cd" stroke="#9a32cd" points="135.09,-60.25 142.87,-67.45 141.28,-56.98 135.09,-60.25"/>
<text text-anchor="middle" x="150.5" y="-41" font-family="Helvetica,sans-Serif" font-size="10.00"> Length</text>
</g>
</g>
</svg>
