<?xml version="1.0" encoding="UTF-8" standalone="no"?>
<!DOCTYPE svg PUBLIC "-//W3C//DTD SVG 1.1//EN"
 "http://www.w3.org/Graphics/SVG/1.1/DTD/svg11.dtd">
<!-- Generated by graphviz version 2.43.0 (0)
 -->
<!-- Title: PSOCKADDR_STORAGE Pages: 1 -->
<svg width="223pt" height="106pt"
 viewBox="0.00 0.00 223.00 106.00" xmlns="http://www.w3.org/2000/svg" xmlns:xlink="http://www.w3.org/1999/xlink">
<g id="graph0" class="graph" transform="scale(1 1) rotate(0) translate(4 102)">
<title>PSOCKADDR_STORAGE</title>
<!-- Node1 -->
<g id="node1" class="node">
<title>Node1</title>
<g id="a_node1"><a xlink:title=" ">
<polygon fill="#bfbfbf" stroke="black" points="31,-0.5 31,-19.5 161,-19.5 161,-0.5 31,-0.5"/>
<text text-anchor="middle" x="96" y="-7.5" font-family="Helvetica,sans-Serif" font-size="10.00">PSOCKADDR_STORAGE</text>
</a>
</g>
</g>
<!-- Node2 -->
<g id="node2" class="node">
<title>Node2</title>
<g id="a_node2"><a xlink:title=" ">
<polygon fill="none" stroke="#bfbfbf" points="0,-78.5 0,-97.5 38,-97.5 38,-78.5 0,-78.5"/>
<text text-anchor="middle" x="19" y="-85.5" font-family="Helvetica,sans-Serif" font-size="10.00">char</text>
</a>
</g>
</g>
<!-- Node2&#45;&gt;Node1 -->
<g id="edge1" class="edge">
<title>Node2&#45;&gt;Node1</title>
<path fill="none" stroke="#9a32cd" stroke-dasharray="5,2" d="M22.62,-68.49C25.39,-58.45 30.12,-46.41 38,-38 45.74,-29.73 56.52,-23.76 66.69,-19.58"/>
<polygon fill="#9a32cd" stroke="#9a32cd" points="19.19,-67.8 20.33,-78.34 26.01,-69.39 19.19,-67.8"/>
<text text-anchor="middle" x="65" y="-52" font-family="Helvetica,sans-Serif" font-size="10.00"> __ss_pad1</text>
<text text-anchor="middle" x="65" y="-41" font-family="Helvetica,sans-Serif" font-size="10.00">__ss_pad2</text>
</g>
<!-- Node3 -->
<g id="node3" class="node">
<title>Node3</title>
<g id="a_node3"><a xlink:title=" ">
<polygon fill="none" stroke="#bfbfbf" points="75.5,-78.5 75.5,-97.5 116.5,-97.5 116.5,-78.5 75.5,-78.5"/>
<text text-anchor="middle" x="96" y="-85.5" font-family="Helvetica,sans-Serif" font-size="10.00">short</text>
</a>
</g>
</g>
<!-- Node3&#45;&gt;Node1 -->
<g id="edge2" class="edge">
<title>Node3&#45;&gt;Node1</title>
<path fill="none" stroke="#9a32cd" stroke-dasharray="5,2" d="M96,-68.22C96,-52.7 96,-31.36 96,-19.62"/>
<polygon fill="#9a32cd" stroke="#9a32cd" points="92.5,-68.28 96,-78.28 99.5,-68.28 92.5,-68.28"/>
<text text-anchor="middle" x="121.5" y="-46.5" font-family="Helvetica,sans-Serif" font-size="10.00"> ss_family</text>
</g>
<!-- Node4 -->
<g id="node4" class="node">
<title>Node4</title>
<g id="a_node4"><a xlink:title=" ">
<polygon fill="none" stroke="#bfbfbf" points="144,-78.5 144,-97.5 196,-97.5 196,-78.5 144,-78.5"/>
<text text-anchor="middle" x="170" y="-85.5" font-family="Helvetica,sans-Serif" font-size="10.00">__int64</text>
</a>
</g>
</g>
<!-- Node4&#45;&gt;Node1 -->
<g id="edge3" class="edge">
<title>Node4&#45;&gt;Node1</title>
<path fill="none" stroke="#9a32cd" stroke-dasharray="5,2" d="M165.01,-68.61C161.55,-58.6 156.09,-46.56 148,-38 140.39,-29.94 129.83,-23.85 120.21,-19.51"/>
<polygon fill="#9a32cd" stroke="#9a32cd" points="161.73,-69.86 168.01,-78.4 168.43,-67.81 161.73,-69.86"/>
<text text-anchor="middle" x="188" y="-46.5" font-family="Helvetica,sans-Serif" font-size="10.00"> __ss_align</text>
</g>
</g>
</svg>
