<?xml version="1.0" encoding="UTF-8" standalone="no"?>
<!DOCTYPE svg PUBLIC "-//W3C//DTD SVG 1.1//EN"
 "http://www.w3.org/Graphics/SVG/1.1/DTD/svg11.dtd">
<!-- Generated by graphviz version 2.43.0 (0)
 -->
<!-- Title: Source/Game/CGame/cg_auras.h Pages: 1 -->
<!--zoomable 240 -->
<svg id="main" version="1.1" xmlns="http://www.w3.org/2000/svg" xmlns:xlink="http://www.w3.org/1999/xlink" xml:space="preserve" onload="init(evt)">
<style type="text/css"><![CDATA[
.edge:hover path { stroke: red; }
.edge:hover polygon { stroke: red; fill: red; }
]]></style>
<script type="text/javascript"><![CDATA[
var edges = document.getElementsByTagName('g');
if (edges && edges.length) {
  for (var i=0;i<edges.length;i++) {
    if (edges[i].id.substr(0,4)=='edge') {
      edges[i].setAttribute('class','edge');
    }
  }
}
]]></script>
        <defs>
                <circle id="rim" cx="0" cy="0" r="7"/>
                <circle id="rim2" cx="0" cy="0" r="3.5"/>
                <g id="zoomPlus">
                        <use xlink:href="#rim" fill="#404040">
                                <set attributeName="fill" to="#808080" begin="zoomplus.mouseover" end="zoomplus.mouseout"/>
                        </use>
                        <path d="M-4,0h8M0,-4v8" fill="none" stroke="white" stroke-width="1.5" pointer-events="none"/>
                </g>
                <g id="zoomMin">
                        <use xlink:href="#rim" fill="#404040">
                                <set attributeName="fill" to="#808080" begin="zoomminus.mouseover" end="zoomminus.mouseout"/>
                        </use>
                        <path d="M-4,0h8" fill="none" stroke="white" stroke-width="1.5" pointer-events="none"/>
                </g>
                <g id="dirArrow">
                        <path fill="none" stroke="white" stroke-width="1.5" d="M0,-3.0v7 M-2.5,-0.5L0,-3.0L2.5,-0.5"/>
                </g>
               <g id="resetDef">
                       <use xlink:href="#rim2" fill="#404040">
                               <set attributeName="fill" to="#808080" begin="reset.mouseover" end="reset.mouseout"/>
                       </use>
               </g>
        </defs>

<script type="text/javascript">
var viewWidth = 4888;
var viewHeight = 240;
var sectionId = 'dynsection-0';
</script>
<script xlink:href="../../svgpan.js"/>
<svg id="graph" class="graph">
<g id="viewport">
<title>Source/Game/CGame/cg_auras.h</title>
<!-- Node1 -->
<g id="node1" class="node">
<title>Node1</title>
<g id="a_node1"><a xlink:title=" ">
<polygon fill="#bfbfbf" stroke="black" points="2371,-201.5 2371,-231.5 2506,-231.5 2506,-201.5 2371,-201.5"/>
<text text-anchor="start" x="2379" y="-219.5" font-family="Helvetica,sans-Serif" font-size="10.00">Source/Game/CGame/cg</text>
<text text-anchor="middle" x="2438.5" y="-208.5" font-family="Helvetica,sans-Serif" font-size="10.00">_auras.h</text>
</a>
</g>
</g>
<!-- Node2 -->
<g id="node2" class="node">
<title>Node2</title>
<g id="a_node2"><a xlink:href="../../dc/d0c/Source_2Game_2CGame_2cg__local_8h.html" target="_top" xlink:title=" ">
<polygon fill="none" stroke="black" points="2371,-134.5 2371,-164.5 2506,-164.5 2506,-134.5 2371,-134.5"/>
<text text-anchor="start" x="2379" y="-152.5" font-family="Helvetica,sans-Serif" font-size="10.00">Source/Game/CGame/cg</text>
<text text-anchor="middle" x="2438.5" y="-141.5" font-family="Helvetica,sans-Serif" font-size="10.00">_local.h</text>
</a>
</g>
</g>
<!-- Node1&#45;&gt;Node2 -->
<g id="edge1" class="edge">
<title>Node1&#45;&gt;Node2</title>
<path fill="none" stroke="midnightblue" d="M2438.5,-191.11C2438.5,-182.15 2438.5,-172.32 2438.5,-164.58"/>
<polygon fill="midnightblue" stroke="midnightblue" points="2435,-191.4 2438.5,-201.4 2442,-191.4 2435,-191.4"/>
</g>
<!-- Node3 -->
<g id="node3" class="node">
<title>Node3</title>
<g id="a_node3"><a xlink:href="../../d9/df0/Source_2Game_2CGame_2cg__animationConfig_8c.html" target="_top" xlink:title=" ">
<polygon fill="none" stroke="black" points="0,-67.5 0,-97.5 135,-97.5 135,-67.5 0,-67.5"/>
<text text-anchor="start" x="8" y="-85.5" font-family="Helvetica,sans-Serif" font-size="10.00">Source/Game/CGame/cg</text>
<text text-anchor="middle" x="67.5" y="-74.5" font-family="Helvetica,sans-Serif" font-size="10.00">_animationConfig.c</text>
</a>
</g>
</g>
<!-- Node2&#45;&gt;Node3 -->
<g id="edge2" class="edge">
<title>Node2&#45;&gt;Node3</title>
<path fill="none" stroke="midnightblue" d="M2360.88,-148.53C2012.1,-148.39 587.47,-144.91 143.5,-98 140.83,-97.72 138.11,-97.39 135.37,-97.03"/>
<polygon fill="midnightblue" stroke="midnightblue" points="2360.89,-152.03 2370.89,-148.53 2360.89,-145.03 2360.89,-152.03"/>
</g>
<!-- Node4 -->
<g id="node4" class="node">
<title>Node4</title>
<g id="a_node4"><a xlink:href="../../df/d3d/Source_2Game_2CGame_2cg__animations_8c.html" target="_top" xlink:title=" ">
<polygon fill="none" stroke="black" points="153,-67.5 153,-97.5 288,-97.5 288,-67.5 153,-67.5"/>
<text text-anchor="start" x="161" y="-85.5" font-family="Helvetica,sans-Serif" font-size="10.00">Source/Game/CGame/cg</text>
<text text-anchor="middle" x="220.5" y="-74.5" font-family="Helvetica,sans-Serif" font-size="10.00">_animations.c</text>
</a>
</g>
</g>
<!-- Node2&#45;&gt;Node4 -->
<g id="edge3" class="edge">
<title>Node2&#45;&gt;Node4</title>
<path fill="none" stroke="midnightblue" d="M2360.91,-148.39C2026.75,-147.63 708.7,-141.88 296.5,-98 293.83,-97.72 291.11,-97.39 288.37,-97.02"/>
<polygon fill="midnightblue" stroke="midnightblue" points="2360.97,-151.89 2370.98,-148.41 2360.99,-144.89 2360.97,-151.89"/>
</g>
<!-- Node5 -->
<g id="node5" class="node">
<title>Node5</title>
<g id="a_node5"><a xlink:href="../../d5/d72/Source_2Game_2CGame_2cg__auras_8c.html" target="_top" xlink:title=" ">
<polygon fill="none" stroke="black" points="306,-67.5 306,-97.5 441,-97.5 441,-67.5 306,-67.5"/>
<text text-anchor="start" x="314" y="-85.5" font-family="Helvetica,sans-Serif" font-size="10.00">Source/Game/CGame/cg</text>
<text text-anchor="middle" x="373.5" y="-74.5" font-family="Helvetica,sans-Serif" font-size="10.00">_auras.c</text>
</a>
</g>
</g>
<!-- Node2&#45;&gt;Node5 -->
<g id="edge4" class="edge">
<title>Node2&#45;&gt;Node5</title>
<path fill="none" stroke="midnightblue" d="M2360.73,-148.22C2041.4,-146.82 829.93,-138.84 449.5,-98 446.83,-97.71 444.11,-97.38 441.37,-97.02"/>
<polygon fill="midnightblue" stroke="midnightblue" points="2360.8,-151.72 2370.81,-148.26 2360.83,-144.72 2360.8,-151.72"/>
</g>
<!-- Node6 -->
<g id="node6" class="node">
<title>Node6</title>
<g id="a_node6"><a xlink:href="../../da/d56/Source_2Game_2CGame_2cg__beamtables_8c.html" target="_top" xlink:title=" ">
<polygon fill="none" stroke="black" points="459,-67.5 459,-97.5 594,-97.5 594,-67.5 459,-67.5"/>
<text text-anchor="start" x="467" y="-85.5" font-family="Helvetica,sans-Serif" font-size="10.00">Source/Game/CGame/cg</text>
<text text-anchor="middle" x="526.5" y="-74.5" font-family="Helvetica,sans-Serif" font-size="10.00">_beamtables.c</text>
</a>
</g>
</g>
<!-- Node2&#45;&gt;Node6 -->
<g id="edge5" class="edge">
<title>Node2&#45;&gt;Node6</title>
<path fill="none" stroke="midnightblue" d="M2360.48,-148.03C2056.52,-145.93 951.22,-135.81 602.5,-98 599.83,-97.71 597.11,-97.38 594.37,-97.01"/>
<polygon fill="midnightblue" stroke="midnightblue" points="2360.5,-151.53 2370.53,-148.1 2360.55,-144.53 2360.5,-151.53"/>
</g>
<!-- Node7 -->
<g id="node7" class="node">
<title>Node7</title>
<g id="a_node7"><a xlink:href="../../dd/dfe/Source_2Game_2CGame_2cg__consolecmds_8c.html" target="_top" xlink:title=" ">
<polygon fill="none" stroke="black" points="612,-67.5 612,-97.5 747,-97.5 747,-67.5 612,-67.5"/>
<text text-anchor="start" x="620" y="-85.5" font-family="Helvetica,sans-Serif" font-size="10.00">Source/Game/CGame/cg</text>
<text text-anchor="middle" x="679.5" y="-74.5" font-family="Helvetica,sans-Serif" font-size="10.00">_consolecmds.c</text>
</a>
</g>
</g>
<!-- Node2&#45;&gt;Node7 -->
<g id="edge6" class="edge">
<title>Node2&#45;&gt;Node7</title>
<path fill="none" stroke="midnightblue" d="M2360.4,-147.8C2072.74,-144.97 1072.67,-132.79 755.5,-98 752.83,-97.71 750.11,-97.37 747.37,-97"/>
<polygon fill="midnightblue" stroke="midnightblue" points="2360.7,-151.3 2370.73,-147.9 2360.77,-144.3 2360.7,-151.3"/>
</g>
<!-- Node8 -->
<g id="node8" class="node">
<title>Node8</title>
<g id="a_node8"><a xlink:href="../../d3/d66/Source_2Game_2CGame_2cg__draw_8c.html" target="_top" xlink:title=" ">
<polygon fill="none" stroke="black" points="765,-67.5 765,-97.5 900,-97.5 900,-67.5 765,-67.5"/>
<text text-anchor="start" x="773" y="-85.5" font-family="Helvetica,sans-Serif" font-size="10.00">Source/Game/CGame/cg</text>
<text text-anchor="middle" x="832.5" y="-74.5" font-family="Helvetica,sans-Serif" font-size="10.00">_draw.c</text>
</a>
</g>
</g>
<!-- Node2&#45;&gt;Node8 -->
<g id="edge7" class="edge">
<title>Node2&#45;&gt;Node8</title>
<path fill="none" stroke="midnightblue" d="M2360.76,-147.53C2090.74,-143.93 1194.39,-129.79 908.5,-98 905.83,-97.7 903.11,-97.36 900.37,-96.99"/>
<polygon fill="midnightblue" stroke="midnightblue" points="2360.82,-151.03 2370.86,-147.67 2360.91,-144.04 2360.82,-151.03"/>
</g>
<!-- Node9 -->
<g id="node9" class="node">
<title>Node9</title>
<g id="a_node9"><a xlink:href="../../de/d4e/Source_2Game_2CGame_2cg__drawtools_8c.html" target="_top" xlink:title=" ">
<polygon fill="none" stroke="black" points="918,-67.5 918,-97.5 1053,-97.5 1053,-67.5 918,-67.5"/>
<text text-anchor="start" x="926" y="-85.5" font-family="Helvetica,sans-Serif" font-size="10.00">Source/Game/CGame/cg</text>
<text text-anchor="middle" x="985.5" y="-74.5" font-family="Helvetica,sans-Serif" font-size="10.00">_drawtools.c</text>
</a>
</g>
</g>
<!-- Node2&#45;&gt;Node9 -->
<g id="edge8" class="edge">
<title>Node2&#45;&gt;Node9</title>
<path fill="none" stroke="midnightblue" d="M2360.56,-147.2C2108.35,-142.75 1316.03,-126.78 1061.5,-98 1058.83,-97.7 1056.11,-97.35 1053.37,-96.98"/>
<polygon fill="midnightblue" stroke="midnightblue" points="2360.68,-150.7 2370.74,-147.38 2360.8,-143.7 2360.68,-150.7"/>
</g>
<!-- Node10 -->
<g id="node10" class="node">
<title>Node10</title>
<g id="a_node10"><a xlink:href="../../d6/dff/Source_2Game_2CGame_2cg__effects_8c.html" target="_top" xlink:title=" ">
<polygon fill="none" stroke="black" points="1071,-67.5 1071,-97.5 1206,-97.5 1206,-67.5 1071,-67.5"/>
<text text-anchor="start" x="1079" y="-85.5" font-family="Helvetica,sans-Serif" font-size="10.00">Source/Game/CGame/cg</text>
<text text-anchor="middle" x="1138.5" y="-74.5" font-family="Helvetica,sans-Serif" font-size="10.00">_effects.c</text>
</a>
</g>
</g>
<!-- Node2&#45;&gt;Node10 -->
<g id="edge9" class="edge">
<title>Node2&#45;&gt;Node10</title>
<path fill="none" stroke="midnightblue" d="M2360.79,-149.25C2166.72,-150.27 1645.46,-147.73 1214.5,-98 1211.83,-97.69 1209.12,-97.34 1206.38,-96.96"/>
<polygon fill="midnightblue" stroke="midnightblue" points="2360.91,-152.75 2370.89,-149.19 2360.87,-145.75 2360.91,-152.75"/>
</g>
<!-- Node11 -->
<g id="node11" class="node">
<title>Node11</title>
<g id="a_node11"><a xlink:href="../../d4/dd3/Source_2Game_2CGame_2cg__ents_8c.html" target="_top" xlink:title=" ">
<polygon fill="none" stroke="black" points="1224,-67.5 1224,-97.5 1359,-97.5 1359,-67.5 1224,-67.5"/>
<text text-anchor="start" x="1232" y="-85.5" font-family="Helvetica,sans-Serif" font-size="10.00">Source/Game/CGame/cg</text>
<text text-anchor="middle" x="1291.5" y="-74.5" font-family="Helvetica,sans-Serif" font-size="10.00">_ents.c</text>
</a>
</g>
</g>
<!-- Node2&#45;&gt;Node11 -->
<g id="edge10" class="edge">
<title>Node2&#45;&gt;Node11</title>
<path fill="none" stroke="midnightblue" d="M2360.61,-148.59C2183.55,-147.98 1737.46,-141.79 1367.5,-98 1364.83,-97.68 1362.12,-97.33 1359.38,-96.94"/>
<polygon fill="midnightblue" stroke="midnightblue" points="2360.86,-152.09 2370.87,-148.62 2360.88,-145.09 2360.86,-152.09"/>
</g>
<!-- Node12 -->
<g id="node12" class="node">
<title>Node12</title>
<g id="a_node12"><a xlink:href="../../d9/d29/Source_2Game_2CGame_2cg__event_8c.html" target="_top" xlink:title=" ">
<polygon fill="none" stroke="black" points="1377,-67.5 1377,-97.5 1512,-97.5 1512,-67.5 1377,-67.5"/>
<text text-anchor="start" x="1385" y="-85.5" font-family="Helvetica,sans-Serif" font-size="10.00">Source/Game/CGame/cg</text>
<text text-anchor="middle" x="1444.5" y="-74.5" font-family="Helvetica,sans-Serif" font-size="10.00">_event.c</text>
</a>
</g>
</g>
<!-- Node2&#45;&gt;Node12 -->
<g id="edge11" class="edge">
<title>Node2&#45;&gt;Node12</title>
<path fill="none" stroke="midnightblue" d="M2360.72,-147.72C2202.12,-145.36 1830.17,-135.89 1520.5,-98 1517.83,-97.67 1515.12,-97.31 1512.38,-96.92"/>
<polygon fill="midnightblue" stroke="midnightblue" points="2360.8,-151.22 2370.85,-147.87 2360.9,-144.22 2360.8,-151.22"/>
</g>
<!-- Node13 -->
<g id="node13" class="node">
<title>Node13</title>
<g id="a_node13"><a xlink:href="../../d7/d44/Source_2Game_2CGame_2cg__frameHist_8c.html" target="_top" xlink:title=" ">
<polygon fill="none" stroke="black" points="1530,-67.5 1530,-97.5 1665,-97.5 1665,-67.5 1530,-67.5"/>
<text text-anchor="start" x="1538" y="-85.5" font-family="Helvetica,sans-Serif" font-size="10.00">Source/Game/CGame/cg</text>
<text text-anchor="middle" x="1597.5" y="-74.5" font-family="Helvetica,sans-Serif" font-size="10.00">_frameHist.c</text>
</a>
</g>
</g>
<!-- Node2&#45;&gt;Node13 -->
<g id="edge12" class="edge">
<title>Node2&#45;&gt;Node13</title>
<path fill="none" stroke="midnightblue" d="M2360.85,-146.52C2222.3,-142.28 1923.54,-129.98 1673.5,-98 1670.84,-97.66 1668.12,-97.28 1665.39,-96.88"/>
<polygon fill="midnightblue" stroke="midnightblue" points="2360.85,-150.02 2370.95,-146.82 2361.06,-143.02 2360.85,-150.02"/>
</g>
<!-- Node14 -->
<g id="node14" class="node">
<title>Node14</title>
<g id="a_node14"><a xlink:href="../../d6/de0/Source_2Game_2CGame_2cg__info_8c.html" target="_top" xlink:title=" ">
<polygon fill="none" stroke="black" points="1683,-67.5 1683,-97.5 1818,-97.5 1818,-67.5 1683,-67.5"/>
<text text-anchor="start" x="1691" y="-85.5" font-family="Helvetica,sans-Serif" font-size="10.00">Source/Game/CGame/cg</text>
<text text-anchor="middle" x="1750.5" y="-74.5" font-family="Helvetica,sans-Serif" font-size="10.00">_info.c</text>
</a>
</g>
</g>
<!-- Node2&#45;&gt;Node14 -->
<g id="edge13" class="edge">
<title>Node2&#45;&gt;Node14</title>
<path fill="none" stroke="midnightblue" d="M2360.66,-144.66C2244.28,-138.33 2018.2,-123.77 1827.5,-98 1824.4,-97.58 1821.23,-97.12 1818.04,-96.63"/>
<polygon fill="midnightblue" stroke="midnightblue" points="2360.72,-148.16 2370.9,-145.21 2361.1,-141.18 2360.72,-148.16"/>
</g>
<!-- Node15 -->
<g id="node15" class="node">
<title>Node15</title>
<g id="a_node15"><a xlink:href="../../dc/d46/Source_2Game_2CGame_2cg__localents_8c.html" target="_top" xlink:title=" ">
<polygon fill="none" stroke="black" points="1836,-67.5 1836,-97.5 1971,-97.5 1971,-67.5 1836,-67.5"/>
<text text-anchor="start" x="1844" y="-85.5" font-family="Helvetica,sans-Serif" font-size="10.00">Source/Game/CGame/cg</text>
<text text-anchor="middle" x="1903.5" y="-74.5" font-family="Helvetica,sans-Serif" font-size="10.00">_localents.c</text>
</a>
</g>
</g>
<!-- Node2&#45;&gt;Node15 -->
<g id="edge14" class="edge">
<title>Node2&#45;&gt;Node15</title>
<path fill="none" stroke="midnightblue" d="M2360.79,-141.75C2269.49,-133.41 2113.58,-117.84 1980.5,-98 1977.41,-97.54 1974.25,-97.04 1971.06,-96.52"/>
<polygon fill="midnightblue" stroke="midnightblue" points="2360.5,-145.24 2370.78,-142.66 2361.14,-138.27 2360.5,-145.24"/>
</g>
<!-- Node16 -->
<g id="node16" class="node">
<title>Node16</title>
<g id="a_node16"><a xlink:href="../../d8/db3/Source_2Game_2CGame_2cg__main_8c.html" target="_top" xlink:title=" ">
<polygon fill="none" stroke="black" points="1989,-67.5 1989,-97.5 2124,-97.5 2124,-67.5 1989,-67.5"/>
<text text-anchor="start" x="1997" y="-85.5" font-family="Helvetica,sans-Serif" font-size="10.00">Source/Game/CGame/cg</text>
<text text-anchor="middle" x="2056.5" y="-74.5" font-family="Helvetica,sans-Serif" font-size="10.00">_main.c</text>
</a>
</g>
</g>
<!-- Node2&#45;&gt;Node16 -->
<g id="edge15" class="edge">
<title>Node2&#45;&gt;Node16</title>
<path fill="none" stroke="midnightblue" d="M2360.84,-136.13C2299.16,-126.18 2210.72,-111.66 2133.5,-98 2130.42,-97.45 2127.27,-96.89 2124.09,-96.32"/>
<polygon fill="midnightblue" stroke="midnightblue" points="2360.46,-139.61 2370.89,-137.74 2361.57,-132.7 2360.46,-139.61"/>
</g>
<!-- Node17 -->
<g id="node17" class="node">
<title>Node17</title>
<g id="a_node17"><a xlink:href="../../dc/d59/Source_2Game_2CGame_2cg__marks_8c.html" target="_top" xlink:title=" ">
<polygon fill="none" stroke="black" points="2142,-67.5 2142,-97.5 2277,-97.5 2277,-67.5 2142,-67.5"/>
<text text-anchor="start" x="2150" y="-85.5" font-family="Helvetica,sans-Serif" font-size="10.00">Source/Game/CGame/cg</text>
<text text-anchor="middle" x="2209.5" y="-74.5" font-family="Helvetica,sans-Serif" font-size="10.00">_marks.c</text>
</a>
</g>
</g>
<!-- Node2&#45;&gt;Node17 -->
<g id="edge16" class="edge">
<title>Node2&#45;&gt;Node17</title>
<path fill="none" stroke="midnightblue" d="M2379.36,-131.71C2342.1,-121.14 2294.53,-107.63 2259.21,-97.61"/>
<polygon fill="midnightblue" stroke="midnightblue" points="2378.52,-135.11 2389.09,-134.48 2380.43,-128.38 2378.52,-135.11"/>
</g>
<!-- Node18 -->
<g id="node18" class="node">
<title>Node18</title>
<g id="a_node18"><a xlink:href="../../db/d72/Source_2Game_2CGame_2cg__motionblur_8c.html" target="_top" xlink:title=" ">
<polygon fill="none" stroke="black" points="2295,-67.5 2295,-97.5 2430,-97.5 2430,-67.5 2295,-67.5"/>
<text text-anchor="start" x="2303" y="-85.5" font-family="Helvetica,sans-Serif" font-size="10.00">Source/Game/CGame/cg</text>
<text text-anchor="middle" x="2362.5" y="-74.5" font-family="Helvetica,sans-Serif" font-size="10.00">_motionblur.c</text>
</a>
</g>
</g>
<!-- Node2&#45;&gt;Node18 -->
<g id="edge17" class="edge">
<title>Node2&#45;&gt;Node18</title>
<path fill="none" stroke="midnightblue" d="M2414.39,-127.88C2402.84,-118.01 2389.31,-106.43 2378.96,-97.58"/>
<polygon fill="midnightblue" stroke="midnightblue" points="2412.13,-130.56 2422.01,-134.4 2416.68,-125.24 2412.13,-130.56"/>
</g>
<!-- Node19 -->
<g id="node19" class="node">
<title>Node19</title>
<g id="a_node19"><a xlink:href="../../de/d2b/Source_2Game_2CGame_2cg__music_8h.html" target="_top" xlink:title=" ">
<polygon fill="none" stroke="black" points="2448,-67.5 2448,-97.5 2583,-97.5 2583,-67.5 2448,-67.5"/>
<text text-anchor="start" x="2456" y="-85.5" font-family="Helvetica,sans-Serif" font-size="10.00">Source/Game/CGame/cg</text>
<text text-anchor="middle" x="2515.5" y="-74.5" font-family="Helvetica,sans-Serif" font-size="10.00">_music.h</text>
</a>
</g>
</g>
<!-- Node2&#45;&gt;Node19 -->
<g id="edge18" class="edge">
<title>Node2&#45;&gt;Node19</title>
<path fill="none" stroke="midnightblue" d="M2462.92,-127.88C2474.62,-118.01 2488.34,-106.43 2498.82,-97.58"/>
<polygon fill="midnightblue" stroke="midnightblue" points="2460.59,-125.27 2455.21,-134.4 2465.11,-130.62 2460.59,-125.27"/>
</g>
<!-- Node21 -->
<g id="node21" class="node">
<title>Node21</title>
<g id="a_node21"><a xlink:href="../../d5/d5f/Source_2Game_2CGame_2cg__particlesystem_8c.html" target="_top" xlink:title=" ">
<polygon fill="none" stroke="black" points="2601,-67.5 2601,-97.5 2736,-97.5 2736,-67.5 2601,-67.5"/>
<text text-anchor="start" x="2609" y="-85.5" font-family="Helvetica,sans-Serif" font-size="10.00">Source/Game/CGame/cg</text>
<text text-anchor="middle" x="2668.5" y="-74.5" font-family="Helvetica,sans-Serif" font-size="10.00">_particlesystem.c</text>
</a>
</g>
</g>
<!-- Node2&#45;&gt;Node21 -->
<g id="edge20" class="edge">
<title>Node2&#45;&gt;Node21</title>
<path fill="none" stroke="midnightblue" d="M2497.89,-131.71C2535.32,-121.14 2583.1,-107.63 2618.57,-97.61"/>
<polygon fill="midnightblue" stroke="midnightblue" points="2496.79,-128.39 2488.12,-134.48 2498.7,-135.12 2496.79,-128.39"/>
</g>
<!-- Node22 -->
<g id="node22" class="node">
<title>Node22</title>
<g id="a_node22"><a xlink:href="../../d5/dae/Source_2Game_2CGame_2cg__particlesystem__cache_8c.html" target="_top" xlink:title=" ">
<polygon fill="none" stroke="black" points="2754,-67.5 2754,-97.5 2891,-97.5 2891,-67.5 2754,-67.5"/>
<text text-anchor="start" x="2762" y="-85.5" font-family="Helvetica,sans-Serif" font-size="10.00">Source/Game/CGame/cg</text>
<text text-anchor="middle" x="2822.5" y="-74.5" font-family="Helvetica,sans-Serif" font-size="10.00">_particlesystem_cache.c</text>
</a>
</g>
</g>
<!-- Node2&#45;&gt;Node22 -->
<g id="edge21" class="edge">
<title>Node2&#45;&gt;Node22</title>
<path fill="none" stroke="midnightblue" d="M2516.37,-136.2C2578.48,-126.27 2667.65,-111.73 2745.5,-98 2748.18,-97.53 2750.91,-97.04 2753.67,-96.54"/>
<polygon fill="midnightblue" stroke="midnightblue" points="2515.58,-132.78 2506.25,-137.82 2516.68,-139.69 2515.58,-132.78"/>
</g>
<!-- Node23 -->
<g id="node23" class="node">
<title>Node23</title>
<g id="a_node23"><a xlink:href="../../d6/df7/Source_2Game_2CGame_2cg__players_8c.html" target="_top" xlink:title=" ">
<polygon fill="none" stroke="black" points="2909,-67.5 2909,-97.5 3044,-97.5 3044,-67.5 2909,-67.5"/>
<text text-anchor="start" x="2917" y="-85.5" font-family="Helvetica,sans-Serif" font-size="10.00">Source/Game/CGame/cg</text>
<text text-anchor="middle" x="2976.5" y="-74.5" font-family="Helvetica,sans-Serif" font-size="10.00">_players.c</text>
</a>
</g>
</g>
<!-- Node2&#45;&gt;Node23 -->
<g id="edge22" class="edge">
<title>Node2&#45;&gt;Node23</title>
<path fill="none" stroke="midnightblue" d="M2516.11,-141.92C2608.1,-133.68 2765.9,-118.16 2900.5,-98 2903.16,-97.6 2905.86,-97.18 2908.59,-96.73"/>
<polygon fill="midnightblue" stroke="midnightblue" points="2515.7,-138.44 2506.05,-142.82 2516.32,-145.41 2515.7,-138.44"/>
</g>
<!-- Node24 -->
<g id="node24" class="node">
<title>Node24</title>
<g id="a_node24"><a xlink:href="../../d5/d6b/Source_2Game_2CGame_2cg__playerstate_8c.html" target="_top" xlink:title=" ">
<polygon fill="none" stroke="black" points="3062,-67.5 3062,-97.5 3197,-97.5 3197,-67.5 3062,-67.5"/>
<text text-anchor="start" x="3070" y="-85.5" font-family="Helvetica,sans-Serif" font-size="10.00">Source/Game/CGame/cg</text>
<text text-anchor="middle" x="3129.5" y="-74.5" font-family="Helvetica,sans-Serif" font-size="10.00">_playerstate.c</text>
</a>
</g>
</g>
<!-- Node2&#45;&gt;Node24 -->
<g id="edge23" class="edge">
<title>Node2&#45;&gt;Node24</title>
<path fill="none" stroke="midnightblue" d="M2516.38,-144.77C2633.4,-138.57 2861.33,-124.15 3053.5,-98 3056.16,-97.64 3058.87,-97.24 3061.61,-96.82"/>
<polygon fill="midnightblue" stroke="midnightblue" points="2515.9,-141.29 2506.1,-145.31 2516.27,-148.28 2515.9,-141.29"/>
</g>
<!-- Node25 -->
<g id="node25" class="node">
<title>Node25</title>
<g id="a_node25"><a xlink:href="../../dc/dea/Source_2Game_2CGame_2cg__predict_8c.html" target="_top" xlink:title=" ">
<polygon fill="none" stroke="black" points="3215,-67.5 3215,-97.5 3350,-97.5 3350,-67.5 3215,-67.5"/>
<text text-anchor="start" x="3223" y="-85.5" font-family="Helvetica,sans-Serif" font-size="10.00">Source/Game/CGame/cg</text>
<text text-anchor="middle" x="3282.5" y="-74.5" font-family="Helvetica,sans-Serif" font-size="10.00">_predict.c</text>
</a>
</g>
</g>
<!-- Node2&#45;&gt;Node25 -->
<g id="edge24" class="edge">
<title>Node2&#45;&gt;Node25</title>
<path fill="none" stroke="midnightblue" d="M2516.18,-146.55C2655.16,-142.35 2955.32,-130.1 3206.5,-98 3209.16,-97.66 3211.88,-97.28 3214.61,-96.88"/>
<polygon fill="midnightblue" stroke="midnightblue" points="2515.95,-143.05 2506.06,-146.85 2516.16,-150.05 2515.95,-143.05"/>
</g>
<!-- Node26 -->
<g id="node26" class="node">
<title>Node26</title>
<g id="a_node26"><a xlink:href="../../d0/d55/Source_2Game_2CGame_2cg__radar_8c.html" target="_top" xlink:title=" ">
<polygon fill="none" stroke="black" points="3368,-67.5 3368,-97.5 3503,-97.5 3503,-67.5 3368,-67.5"/>
<text text-anchor="start" x="3376" y="-85.5" font-family="Helvetica,sans-Serif" font-size="10.00">Source/Game/CGame/cg</text>
<text text-anchor="middle" x="3435.5" y="-74.5" font-family="Helvetica,sans-Serif" font-size="10.00">_radar.c</text>
</a>
</g>
</g>
<!-- Node2&#45;&gt;Node26 -->
<g id="edge25" class="edge">
<title>Node2&#45;&gt;Node26</title>
<path fill="none" stroke="midnightblue" d="M2516.24,-147.74C2675.19,-145.42 3048.62,-136.01 3359.5,-98 3362.17,-97.67 3364.88,-97.31 3367.62,-96.92"/>
<polygon fill="midnightblue" stroke="midnightblue" points="2516.03,-144.24 2506.08,-147.88 2516.13,-151.24 2516.03,-144.24"/>
</g>
<!-- Node27 -->
<g id="node27" class="node">
<title>Node27</title>
<g id="a_node27"><a xlink:href="../../db/d14/Source_2Game_2CGame_2cg__servercmds_8c.html" target="_top" xlink:title=" ">
<polygon fill="none" stroke="black" points="3521,-67.5 3521,-97.5 3656,-97.5 3656,-67.5 3521,-67.5"/>
<text text-anchor="start" x="3529" y="-85.5" font-family="Helvetica,sans-Serif" font-size="10.00">Source/Game/CGame/cg</text>
<text text-anchor="middle" x="3588.5" y="-74.5" font-family="Helvetica,sans-Serif" font-size="10.00">_servercmds.c</text>
</a>
</g>
</g>
<!-- Node2&#45;&gt;Node27 -->
<g id="edge26" class="edge">
<title>Node2&#45;&gt;Node27</title>
<path fill="none" stroke="midnightblue" d="M2516.01,-148.61C2693.17,-148.03 3141.09,-141.94 3512.5,-98 3515.17,-97.68 3517.88,-97.33 3520.62,-96.94"/>
<polygon fill="midnightblue" stroke="midnightblue" points="2515.99,-145.11 2506,-148.63 2516.01,-152.11 2515.99,-145.11"/>
</g>
<!-- Node28 -->
<g id="node28" class="node">
<title>Node28</title>
<g id="a_node28"><a xlink:href="../../d3/d32/Source_2Game_2CGame_2cg__snapshot_8c.html" target="_top" xlink:title=" ">
<polygon fill="none" stroke="black" points="3674,-67.5 3674,-97.5 3809,-97.5 3809,-67.5 3674,-67.5"/>
<text text-anchor="start" x="3682" y="-85.5" font-family="Helvetica,sans-Serif" font-size="10.00">Source/Game/CGame/cg</text>
<text text-anchor="middle" x="3741.5" y="-74.5" font-family="Helvetica,sans-Serif" font-size="10.00">_snapshot.c</text>
</a>
</g>
</g>
<!-- Node2&#45;&gt;Node28 -->
<g id="edge27" class="edge">
<title>Node2&#45;&gt;Node28</title>
<path fill="none" stroke="midnightblue" d="M2516.4,-149.26C2710.94,-150.31 3233.49,-147.83 3665.5,-98 3668.17,-97.69 3670.88,-97.34 3673.62,-96.96"/>
<polygon fill="midnightblue" stroke="midnightblue" points="2516.3,-145.76 2506.27,-149.2 2516.25,-152.76 2516.3,-145.76"/>
</g>
<!-- Node29 -->
<g id="node29" class="node">
<title>Node29</title>
<g id="a_node29"><a xlink:href="../../d1/dc1/Source_2Game_2CGame_2cg__syscalls_8c.html" target="_top" xlink:title=" ">
<polygon fill="none" stroke="black" points="3827,-67.5 3827,-97.5 3962,-97.5 3962,-67.5 3827,-67.5"/>
<text text-anchor="start" x="3835" y="-85.5" font-family="Helvetica,sans-Serif" font-size="10.00">Source/Game/CGame/cg</text>
<text text-anchor="middle" x="3894.5" y="-74.5" font-family="Helvetica,sans-Serif" font-size="10.00">_syscalls.c</text>
</a>
</g>
</g>
<!-- Node2&#45;&gt;Node29 -->
<g id="edge28" class="edge">
<title>Node2&#45;&gt;Node29</title>
<path fill="none" stroke="midnightblue" d="M2516.61,-147.2C2769.37,-142.77 3563.41,-126.83 3818.5,-98 3821.17,-97.7 3823.89,-97.36 3826.63,-96.98"/>
<polygon fill="midnightblue" stroke="midnightblue" points="2516.35,-143.71 2506.41,-147.38 2516.47,-150.71 2516.35,-143.71"/>
</g>
<!-- Node30 -->
<g id="node30" class="node">
<title>Node30</title>
<g id="a_node30"><a xlink:href="../../d3/d02/Source_2Game_2CGame_2cg__tiers_8c.html" target="_top" xlink:title=" ">
<polygon fill="none" stroke="black" points="3980,-67.5 3980,-97.5 4115,-97.5 4115,-67.5 3980,-67.5"/>
<text text-anchor="start" x="3988" y="-85.5" font-family="Helvetica,sans-Serif" font-size="10.00">Source/Game/CGame/cg</text>
<text text-anchor="middle" x="4047.5" y="-74.5" font-family="Helvetica,sans-Serif" font-size="10.00">_tiers.c</text>
</a>
</g>
</g>
<!-- Node2&#45;&gt;Node30 -->
<g id="edge29" class="edge">
<title>Node2&#45;&gt;Node30</title>
<path fill="none" stroke="midnightblue" d="M2516.39,-147.54C2786.94,-143.94 3685.05,-129.85 3971.5,-98 3974.17,-97.7 3976.89,-97.36 3979.63,-96.99"/>
<polygon fill="midnightblue" stroke="midnightblue" points="2516.22,-144.04 2506.27,-147.67 2516.31,-151.04 2516.22,-144.04"/>
</g>
<!-- Node31 -->
<g id="node31" class="node">
<title>Node31</title>
<g id="a_node31"><a xlink:href="../../d7/d8c/Source_2Game_2CGame_2cg__trails_8c.html" target="_top" xlink:title=" ">
<polygon fill="none" stroke="black" points="4133,-67.5 4133,-97.5 4268,-97.5 4268,-67.5 4133,-67.5"/>
<text text-anchor="start" x="4141" y="-85.5" font-family="Helvetica,sans-Serif" font-size="10.00">Source/Game/CGame/cg</text>
<text text-anchor="middle" x="4200.5" y="-74.5" font-family="Helvetica,sans-Serif" font-size="10.00">_trails.c</text>
</a>
</g>
</g>
<!-- Node2&#45;&gt;Node31 -->
<g id="edge30" class="edge">
<title>Node2&#45;&gt;Node31</title>
<path fill="none" stroke="midnightblue" d="M2516.74,-147.8C2804.91,-144.98 3806.77,-132.85 4124.5,-98 4127.17,-97.71 4129.89,-97.37 4132.63,-97"/>
<polygon fill="midnightblue" stroke="midnightblue" points="2516.36,-144.31 2506.39,-147.9 2516.42,-151.31 2516.36,-144.31"/>
</g>
<!-- Node32 -->
<g id="node32" class="node">
<title>Node32</title>
<g id="a_node32"><a xlink:href="../../dd/dc2/Source_2Game_2CGame_2cg__userweapons_8c.html" target="_top" xlink:title=" ">
<polygon fill="none" stroke="black" points="4286,-67.5 4286,-97.5 4421,-97.5 4421,-67.5 4286,-67.5"/>
<text text-anchor="start" x="4294" y="-85.5" font-family="Helvetica,sans-Serif" font-size="10.00">Source/Game/CGame/cg</text>
<text text-anchor="middle" x="4353.5" y="-74.5" font-family="Helvetica,sans-Serif" font-size="10.00">_userweapons.c</text>
</a>
</g>
</g>
<!-- Node2&#45;&gt;Node32 -->
<g id="edge31" class="edge">
<title>Node2&#45;&gt;Node32</title>
<path fill="none" stroke="midnightblue" d="M2516.13,-148.03C2819.86,-145.96 3928.02,-135.89 4277.5,-98 4280.17,-97.71 4282.89,-97.38 4285.63,-97.01"/>
<polygon fill="midnightblue" stroke="midnightblue" points="2516.07,-144.54 2506.1,-148.1 2516.12,-151.53 2516.07,-144.54"/>
</g>
<!-- Node33 -->
<g id="node33" class="node">
<title>Node33</title>
<g id="a_node33"><a xlink:href="../../dd/da4/Source_2Game_2CGame_2cg__view_8c.html" target="_top" xlink:title=" ">
<polygon fill="none" stroke="black" points="4439,-67.5 4439,-97.5 4574,-97.5 4574,-67.5 4439,-67.5"/>
<text text-anchor="start" x="4447" y="-85.5" font-family="Helvetica,sans-Serif" font-size="10.00">Source/Game/CGame/cg</text>
<text text-anchor="middle" x="4506.5" y="-74.5" font-family="Helvetica,sans-Serif" font-size="10.00">_view.c</text>
</a>
</g>
</g>
<!-- Node2&#45;&gt;Node33 -->
<g id="edge32" class="edge">
<title>Node2&#45;&gt;Node33</title>
<path fill="none" stroke="midnightblue" d="M2516.12,-148.23C2835.52,-146.83 4049.39,-138.91 4430.5,-98 4433.17,-97.71 4435.89,-97.38 4438.63,-97.02"/>
<polygon fill="midnightblue" stroke="midnightblue" points="2516.02,-144.73 2506.04,-148.27 2516.05,-151.73 2516.02,-144.73"/>
</g>
<!-- Node34 -->
<g id="node34" class="node">
<title>Node34</title>
<g id="a_node34"><a xlink:href="../../d0/dbc/Source_2Game_2CGame_2cg__weapGfxParser_8h.html" target="_top" xlink:title=" ">
<polygon fill="none" stroke="black" points="4592,-67.5 4592,-97.5 4727,-97.5 4727,-67.5 4592,-67.5"/>
<text text-anchor="start" x="4600" y="-85.5" font-family="Helvetica,sans-Serif" font-size="10.00">Source/Game/CGame/cg</text>
<text text-anchor="middle" x="4659.5" y="-74.5" font-family="Helvetica,sans-Serif" font-size="10.00">_weapGfxParser.h</text>
</a>
</g>
</g>
<!-- Node2&#45;&gt;Node34 -->
<g id="edge33" class="edge">
<title>Node2&#45;&gt;Node34</title>
<path fill="none" stroke="midnightblue" d="M2516.2,-148.39C2850.83,-147.65 4170.72,-141.93 4583.5,-98 4586.17,-97.72 4588.89,-97.39 4591.63,-97.02"/>
<polygon fill="midnightblue" stroke="midnightblue" points="2516.11,-144.89 2506.12,-148.41 2516.12,-151.89 2516.11,-144.89"/>
</g>
<!-- Node38 -->
<g id="node38" class="node">
<title>Node38</title>
<g id="a_node38"><a xlink:href="../../da/dc7/Source_2Game_2CGame_2cg__weapons_8c.html" target="_top" xlink:title=" ">
<polygon fill="none" stroke="black" points="4745,-67.5 4745,-97.5 4880,-97.5 4880,-67.5 4745,-67.5"/>
<text text-anchor="start" x="4753" y="-85.5" font-family="Helvetica,sans-Serif" font-size="10.00">Source/Game/CGame/cg</text>
<text text-anchor="middle" x="4812.5" y="-74.5" font-family="Helvetica,sans-Serif" font-size="10.00">_weapons.c</text>
</a>
</g>
</g>
<!-- Node2&#45;&gt;Node38 -->
<g id="edge37" class="edge">
<title>Node2&#45;&gt;Node38</title>
<path fill="none" stroke="midnightblue" d="M2516.22,-148.53C2865.46,-148.4 4291.95,-144.96 4736.5,-98 4739.17,-97.72 4741.89,-97.39 4744.63,-97.03"/>
<polygon fill="midnightblue" stroke="midnightblue" points="2516.2,-145.03 2506.2,-148.53 2516.2,-152.03 2516.2,-145.03"/>
</g>
<!-- Node20 -->
<g id="node20" class="node">
<title>Node20</title>
<g id="a_node20"><a xlink:href="../../d1/dee/Source_2Game_2CGame_2cg__music_8c.html" target="_top" xlink:title=" ">
<polygon fill="none" stroke="black" points="2448,-0.5 2448,-30.5 2583,-30.5 2583,-0.5 2448,-0.5"/>
<text text-anchor="start" x="2456" y="-18.5" font-family="Helvetica,sans-Serif" font-size="10.00">Source/Game/CGame/cg</text>
<text text-anchor="middle" x="2515.5" y="-7.5" font-family="Helvetica,sans-Serif" font-size="10.00">_music.c</text>
</a>
</g>
</g>
<!-- Node19&#45;&gt;Node20 -->
<g id="edge19" class="edge">
<title>Node19&#45;&gt;Node20</title>
<path fill="none" stroke="midnightblue" d="M2515.5,-57.11C2515.5,-48.15 2515.5,-38.32 2515.5,-30.58"/>
<polygon fill="midnightblue" stroke="midnightblue" points="2512,-57.4 2515.5,-67.4 2519,-57.4 2512,-57.4"/>
</g>
<!-- Node35 -->
<g id="node35" class="node">
<title>Node35</title>
<g id="a_node35"><a xlink:href="../../d1/d62/Source_2Game_2CGame_2cg__weapGfxAttributes_8c.html" target="_top" xlink:title=" ">
<polygon fill="none" stroke="black" points="4439,-0.5 4439,-30.5 4574,-30.5 4574,-0.5 4439,-0.5"/>
<text text-anchor="start" x="4447" y="-18.5" font-family="Helvetica,sans-Serif" font-size="10.00">Source/Game/CGame/cg</text>
<text text-anchor="middle" x="4506.5" y="-7.5" font-family="Helvetica,sans-Serif" font-size="10.00">_weapGfxAttributes.c</text>
</a>
</g>
</g>
<!-- Node34&#45;&gt;Node35 -->
<g id="edge34" class="edge">
<title>Node34&#45;&gt;Node35</title>
<path fill="none" stroke="midnightblue" d="M4616.91,-63.41C4592.48,-53.03 4562.28,-40.2 4539.63,-30.58"/>
<polygon fill="midnightblue" stroke="midnightblue" points="4615.73,-66.71 4626.3,-67.4 4618.47,-60.26 4615.73,-66.71"/>
</g>
<!-- Node36 -->
<g id="node36" class="node">
<title>Node36</title>
<g id="a_node36"><a xlink:href="../../d7/d62/Source_2Game_2CGame_2cg__weapGfxParser_8c.html" target="_top" xlink:title=" ">
<polygon fill="none" stroke="black" points="4592,-0.5 4592,-30.5 4727,-30.5 4727,-0.5 4592,-0.5"/>
<text text-anchor="start" x="4600" y="-18.5" font-family="Helvetica,sans-Serif" font-size="10.00">Source/Game/CGame/cg</text>
<text text-anchor="middle" x="4659.5" y="-7.5" font-family="Helvetica,sans-Serif" font-size="10.00">_weapGfxParser.c</text>
</a>
</g>
</g>
<!-- Node34&#45;&gt;Node36 -->
<g id="edge35" class="edge">
<title>Node34&#45;&gt;Node36</title>
<path fill="none" stroke="midnightblue" d="M4659.5,-57.11C4659.5,-48.15 4659.5,-38.32 4659.5,-30.58"/>
<polygon fill="midnightblue" stroke="midnightblue" points="4656,-57.4 4659.5,-67.4 4663,-57.4 4656,-57.4"/>
</g>
<!-- Node37 -->
<g id="node37" class="node">
<title>Node37</title>
<g id="a_node37"><a xlink:href="../../db/d3a/Source_2Game_2CGame_2cg__weapGfxScanner_8c.html" target="_top" xlink:title=" ">
<polygon fill="none" stroke="black" points="4745,-0.5 4745,-30.5 4880,-30.5 4880,-0.5 4745,-0.5"/>
<text text-anchor="start" x="4753" y="-18.5" font-family="Helvetica,sans-Serif" font-size="10.00">Source/Game/CGame/cg</text>
<text text-anchor="middle" x="4812.5" y="-7.5" font-family="Helvetica,sans-Serif" font-size="10.00">_weapGfxScanner.c</text>
</a>
</g>
</g>
<!-- Node34&#45;&gt;Node37 -->
<g id="edge36" class="edge">
<title>Node34&#45;&gt;Node37</title>
<path fill="none" stroke="midnightblue" d="M4702.09,-63.41C4726.52,-53.03 4756.72,-40.2 4779.37,-30.58"/>
<polygon fill="midnightblue" stroke="midnightblue" points="4700.53,-60.26 4692.7,-67.4 4703.27,-66.71 4700.53,-60.26"/>
</g>
</g>
</svg>
        <g id="navigator" transform="translate(0 0)" fill="#404254">
                <rect fill="#f2f5e9" fill-opacity="0.5" stroke="#606060" stroke-width=".5" x="0" y="0" width="60" height="60"/>
                <use id="zoomplus" xlink:href="#zoomPlus" x="17" y="9" onmousedown="handleZoom(evt,'in')"/>
                <use id="zoomminus" xlink:href="#zoomMin" x="42" y="9" onmousedown="handleZoom(evt,'out')"/>
                <use id="reset" xlink:href="#resetDef" x="30" y="36" onmousedown="handleReset()"/>
                <g id="arrowUp" xlink:href="#dirArrow" transform="translate(30 24)" onmousedown="handlePan(0,-1)">
                  <use xlink:href="#rim" fill="#404040">
                        <set attributeName="fill" to="#808080" begin="arrowUp.mouseover" end="arrowUp.mouseout"/>
                  </use>
                  <path fill="none" stroke="white" stroke-width="1.5" d="M0,-3.0v7 M-2.5,-0.5L0,-3.0L2.5,-0.5"/>
                </g>
                <g id="arrowRight" xlink:href="#dirArrow" transform="rotate(90) translate(36 -43)" onmousedown="handlePan(1,0)">
                  <use xlink:href="#rim" fill="#404040">
                        <set attributeName="fill" to="#808080" begin="arrowRight.mouseover" end="arrowRight.mouseout"/>
                  </use>
                  <path fill="none" stroke="white" stroke-width="1.5" d="M0,-3.0v7 M-2.5,-0.5L0,-3.0L2.5,-0.5"/>
                </g>
                <g id="arrowDown" xlink:href="#dirArrow" transform="rotate(180) translate(-30 -48)" onmousedown="handlePan(0,1)">
                  <use xlink:href="#rim" fill="#404040">
                        <set attributeName="fill" to="#808080" begin="arrowDown.mouseover" end="arrowDown.mouseout"/>
                  </use>
                  <path fill="none" stroke="white" stroke-width="1.5" d="M0,-3.0v7 M-2.5,-0.5L0,-3.0L2.5,-0.5"/>
                </g>
                <g id="arrowLeft" xlink:href="#dirArrow" transform="rotate(270) translate(-36 17)" onmousedown="handlePan(-1,0)">
                  <use xlink:href="#rim" fill="#404040">
                        <set attributeName="fill" to="#808080" begin="arrowLeft.mouseover" end="arrowLeft.mouseout"/>
                  </use>
                  <path fill="none" stroke="white" stroke-width="1.5" d="M0,-3.0v7 M-2.5,-0.5L0,-3.0L2.5,-0.5"/>
                </g>
        </g>
        <svg viewBox="0 0 15 15" width="100%" height="30px" preserveAspectRatio="xMaxYMin meet">
         <g id="arrow_out" transform="scale(0.3 0.3)">
          <a xlink:href="Source_2Game_2CGame_2cg__auras_8h__dep__incl_org.svg" target="_base">
           <rect id="button" ry="5" rx="5" y="6" x="6" height="38" width="38"
                fill="#f2f5e9" fill-opacity="0.5" stroke="#606060" stroke-width="1.0"/>
           <path id="arrow"
             d="M 11.500037,31.436501 C 11.940474,20.09759 22.043105,11.32322 32.158766,21.979434 L 37.068811,17.246167 C 37.068811,17.246167 37.088388,32 37.088388,32 L 22.160133,31.978069 C 22.160133,31.978069 26.997745,27.140456 26.997745,27.140456 C 18.528582,18.264221 13.291696,25.230495 11.500037,31.436501 z"
             style="fill:#404040;"/>
          </a>
         </g>
        </svg>
</svg>
