<?xml version="1.0" encoding="UTF-8" standalone="no"?>
<!DOCTYPE svg PUBLIC "-//W3C//DTD SVG 1.1//EN"
 "http://www.w3.org/Graphics/SVG/1.1/DTD/svg11.dtd">
<!-- Generated by graphviz version 2.43.0 (0)
 -->
<!-- Title: PRETRIEVAL_POINTERS_BUFFER Pages: 1 -->
<svg width="337pt" height="128pt"
 viewBox="0.00 0.00 336.50 128.00" xmlns="http://www.w3.org/2000/svg" xmlns:xlink="http://www.w3.org/1999/xlink">
<g id="graph0" class="graph" transform="scale(1 1) rotate(0) translate(4 124)">
<title>PRETRIEVAL_POINTERS_BUFFER</title>
<!-- Node1 -->
<g id="node1" class="node">
<title>Node1</title>
<g id="a_node1"><a xlink:title=" ">
<polygon fill="#bfbfbf" stroke="black" points="116,-0.5 116,-30.5 245,-30.5 245,-0.5 116,-0.5"/>
<text text-anchor="start" x="124" y="-18.5" font-family="Helvetica,sans-Serif" font-size="10.00">PRETRIEVAL_POINTERS</text>
<text text-anchor="middle" x="180.5" y="-7.5" font-family="Helvetica,sans-Serif" font-size="10.00">_BUFFER</text>
</a>
</g>
</g>
<!-- Node2 -->
<g id="node2" class="node">
<title>Node2</title>
<g id="a_node2"><a xlink:title=" ">
<polygon fill="none" stroke="#bfbfbf" points="0,-100.5 0,-119.5 113,-119.5 113,-100.5 0,-100.5"/>
<text text-anchor="middle" x="56.5" y="-107.5" font-family="Helvetica,sans-Serif" font-size="10.00">anonymous:Extents</text>
</a>
</g>
</g>
<!-- Node2&#45;&gt;Node1 -->
<g id="edge1" class="edge">
<title>Node2&#45;&gt;Node1</title>
<path fill="none" stroke="#9a32cd" stroke-dasharray="5,2" d="M76.03,-94.29C92.21,-82.12 115.82,-64.39 136.5,-49 144.58,-42.99 153.51,-36.38 161.2,-30.71"/>
<polygon fill="#9a32cd" stroke="#9a32cd" points="73.76,-91.62 67.87,-100.43 77.97,-97.21 73.76,-91.62"/>
<text text-anchor="middle" x="156.5" y="-63" font-family="Helvetica,sans-Serif" font-size="10.00"> Extents</text>
</g>
<!-- Node3 -->
<g id="node3" class="node">
<title>Node3</title>
<g id="a_node3"><a xlink:title=" ">
<polygon fill="none" stroke="#bfbfbf" points="131.5,-100.5 131.5,-119.5 229.5,-119.5 229.5,-100.5 131.5,-100.5"/>
<text text-anchor="middle" x="180.5" y="-107.5" font-family="Helvetica,sans-Serif" font-size="10.00">LARGE_INTEGER</text>
</a>
</g>
</g>
<!-- Node3&#45;&gt;Node1 -->
<g id="edge2" class="edge">
<title>Node3&#45;&gt;Node1</title>
<path fill="none" stroke="#9a32cd" stroke-dasharray="5,2" d="M180.5,-90.29C180.5,-72.67 180.5,-46.67 180.5,-30.7"/>
<polygon fill="#9a32cd" stroke="#9a32cd" points="177,-90.46 180.5,-100.46 184,-90.46 177,-90.46"/>
<text text-anchor="middle" x="209" y="-74" font-family="Helvetica,sans-Serif" font-size="10.00"> Lcn</text>
<text text-anchor="middle" x="209" y="-63" font-family="Helvetica,sans-Serif" font-size="10.00">StartingVcn</text>
<text text-anchor="middle" x="209" y="-52" font-family="Helvetica,sans-Serif" font-size="10.00">NextVcn</text>
</g>
<!-- Node4 -->
<g id="node4" class="node">
<title>Node4</title>
<g id="a_node4"><a xlink:title=" ">
<polygon fill="none" stroke="#bfbfbf" points="248,-100.5 248,-119.5 309,-119.5 309,-100.5 248,-100.5"/>
<text text-anchor="middle" x="278.5" y="-107.5" font-family="Helvetica,sans-Serif" font-size="10.00">unsigned</text>
</a>
</g>
</g>
<!-- Node4&#45;&gt;Node1 -->
<g id="edge3" class="edge">
<title>Node4&#45;&gt;Node1</title>
<path fill="none" stroke="#9a32cd" stroke-dasharray="5,2" d="M270.56,-90.99C264.17,-78.06 254.17,-60.9 241.5,-49 233.71,-41.69 223.97,-35.53 214.57,-30.61"/>
<polygon fill="#9a32cd" stroke="#9a32cd" points="267.49,-92.68 274.9,-100.26 273.84,-89.72 267.49,-92.68"/>
<text text-anchor="middle" x="296.5" y="-63" font-family="Helvetica,sans-Serif" font-size="10.00"> ExtentCount</text>
</g>
</g>
</svg>
