<?xml version="1.0" encoding="UTF-8" standalone="no"?>
<!DOCTYPE svg PUBLIC "-//W3C//DTD SVG 1.1//EN"
 "http://www.w3.org/Graphics/SVG/1.1/DTD/svg11.dtd">
<!-- Generated by graphviz version 2.43.0 (0)
 -->
<!-- Title: Engine/libspeex/ltp.h Pages: 1 -->
<svg width="220pt" height="140pt"
 viewBox="0.00 0.00 219.50 140.00" xmlns="http://www.w3.org/2000/svg" xmlns:xlink="http://www.w3.org/1999/xlink">
<g id="graph0" class="graph" transform="scale(1 1) rotate(0) translate(4 136)">
<title>Engine/libspeex/ltp.h</title>
<!-- Node1 -->
<g id="node1" class="node">
<title>Node1</title>
<g id="a_node1"><a xlink:title="Long&#45;Term Prediction functions.">
<polygon fill="#bfbfbf" stroke="black" points="43.5,-112.5 43.5,-131.5 162.5,-131.5 162.5,-112.5 43.5,-112.5"/>
<text text-anchor="middle" x="103" y="-119.5" font-family="Helvetica,sans-Serif" font-size="10.00">Engine/libspeex/ltp.h</text>
</a>
</g>
</g>
<!-- Node2 -->
<g id="node2" class="node">
<title>Node2</title>
<g id="a_node2"><a xlink:title=" ">
<polygon fill="none" stroke="#bfbfbf" points="0,-56.5 0,-75.5 110,-75.5 110,-56.5 0,-56.5"/>
<text text-anchor="middle" x="55" y="-63.5" font-family="Helvetica,sans-Serif" font-size="10.00">speex/speex_bits.h</text>
</a>
</g>
</g>
<!-- Node1&#45;&gt;Node2 -->
<g id="edge1" class="edge">
<title>Node1&#45;&gt;Node2</title>
<path fill="none" stroke="midnightblue" d="M95.07,-112.08C88.15,-104.3 77.93,-92.8 69.55,-83.37"/>
<polygon fill="midnightblue" stroke="midnightblue" points="72.04,-80.9 62.78,-75.75 66.81,-85.55 72.04,-80.9"/>
</g>
<!-- Node3 -->
<g id="node3" class="node">
<title>Node3</title>
<g id="a_node3"><a xlink:href="../../df/dca/Engine_2libspeex_2arch_8h.html" target="_top" xlink:title="Various architecture definitions Speex.">
<polygon fill="none" stroke="black" points="128.5,-56.5 128.5,-75.5 175.5,-75.5 175.5,-56.5 128.5,-56.5"/>
<text text-anchor="middle" x="152" y="-63.5" font-family="Helvetica,sans-Serif" font-size="10.00">arch.h</text>
</a>
</g>
</g>
<!-- Node1&#45;&gt;Node3 -->
<g id="edge2" class="edge">
<title>Node1&#45;&gt;Node3</title>
<path fill="none" stroke="midnightblue" d="M111.09,-112.08C118.16,-104.3 128.59,-92.8 137.15,-83.37"/>
<polygon fill="midnightblue" stroke="midnightblue" points="139.93,-85.51 144.06,-75.75 134.75,-80.8 139.93,-85.51"/>
</g>
<!-- Node4 -->
<g id="node4" class="node">
<title>Node4</title>
<g id="a_node4"><a xlink:title=" ">
<polygon fill="none" stroke="#bfbfbf" points="92.5,-0.5 92.5,-19.5 211.5,-19.5 211.5,-0.5 92.5,-0.5"/>
<text text-anchor="middle" x="152" y="-7.5" font-family="Helvetica,sans-Serif" font-size="10.00">speex/speex_types.h</text>
</a>
</g>
</g>
<!-- Node3&#45;&gt;Node4 -->
<g id="edge3" class="edge">
<title>Node3&#45;&gt;Node4</title>
<path fill="none" stroke="midnightblue" d="M152,-56.08C152,-49.01 152,-38.86 152,-29.99"/>
<polygon fill="midnightblue" stroke="midnightblue" points="155.5,-29.75 152,-19.75 148.5,-29.75 155.5,-29.75"/>
</g>
</g>
</svg>
