<?xml version="1.0" encoding="UTF-8" standalone="no"?>
<!DOCTYPE svg PUBLIC "-//W3C//DTD SVG 1.1//EN"
 "http://www.w3.org/Graphics/SVG/1.1/DTD/svg11.dtd">
<!-- Generated by graphviz version 2.43.0 (0)
 -->
<!-- Title: _ATM_MEDIA_PARAMETERS Pages: 1 -->
<svg width="508pt" height="189pt"
 viewBox="0.00 0.00 508.00 189.00" xmlns="http://www.w3.org/2000/svg" xmlns:xlink="http://www.w3.org/1999/xlink">
<g id="graph0" class="graph" transform="scale(1 1) rotate(0) translate(4 185)">
<title>_ATM_MEDIA_PARAMETERS</title>
<!-- Node1 -->
<g id="node1" class="node">
<title>Node1</title>
<g id="a_node1"><a xlink:title=" ">
<polygon fill="#bfbfbf" stroke="black" points="349,-122.5 349,-141.5 500,-141.5 500,-122.5 349,-122.5"/>
<text text-anchor="middle" x="424.5" y="-129.5" font-family="Helvetica,sans-Serif" font-size="10.00">_ATM_MEDIA_PARAMETERS</text>
</a>
</g>
</g>
<!-- Node2 -->
<g id="node2" class="node">
<title>Node2</title>
<g id="a_node2"><a xlink:title=" ">
<polygon fill="none" stroke="#bfbfbf" points="28,-160.5 28,-179.5 170,-179.5 170,-160.5 28,-160.5"/>
<text text-anchor="middle" x="99" y="-167.5" font-family="Helvetica,sans-Serif" font-size="10.00">ATM_FLOW_PARAMETERS</text>
</a>
</g>
</g>
<!-- Node2&#45;&gt;Node1 -->
<g id="edge1" class="edge">
<title>Node2&#45;&gt;Node1</title>
<path fill="none" stroke="#9a32cd" stroke-dasharray="5,2" d="M180.31,-163.23C224.79,-159.17 281.04,-153.53 331,-147 343.1,-145.42 356.05,-143.48 368.31,-141.52"/>
<polygon fill="#9a32cd" stroke="#9a32cd" points="179.78,-159.76 170.13,-164.15 180.41,-166.73 179.78,-159.76"/>
<text text-anchor="middle" x="273.5" y="-173" font-family="Helvetica,sans-Serif" font-size="10.00"> Receive</text>
<text text-anchor="middle" x="273.5" y="-162" font-family="Helvetica,sans-Serif" font-size="10.00">Transmit</text>
</g>
<!-- Node3 -->
<g id="node3" class="node">
<title>Node3</title>
<g id="a_node3"><a xlink:title=" ">
<polygon fill="none" stroke="#bfbfbf" points="61.5,-122.5 61.5,-141.5 136.5,-141.5 136.5,-122.5 61.5,-122.5"/>
<text text-anchor="middle" x="99" y="-129.5" font-family="Helvetica,sans-Serif" font-size="10.00">ATM_VPIVCI</text>
</a>
</g>
</g>
<!-- Node3&#45;&gt;Node1 -->
<g id="edge2" class="edge">
<title>Node3&#45;&gt;Node1</title>
<path fill="none" stroke="#9a32cd" stroke-dasharray="5,2" d="M146.91,-132C199.81,-132 286.56,-132 348.8,-132"/>
<polygon fill="#9a32cd" stroke="#9a32cd" points="146.79,-128.5 136.79,-132 146.79,-135.5 146.79,-128.5"/>
<text text-anchor="middle" x="273.5" y="-135" font-family="Helvetica,sans-Serif" font-size="10.00"> ConnectionId</text>
</g>
<!-- Node4 -->
<g id="node4" class="node">
<title>Node4</title>
<g id="a_node4"><a xlink:title=" ">
<polygon fill="none" stroke="#bfbfbf" points="0,-0.5 0,-41.5 198,-41.5 198,-0.5 0,-0.5"/>
<text text-anchor="start" x="8" y="-29.5" font-family="Helvetica,sans-Serif" font-size="10.00">PSecurityUserData *typedef</text>
<text text-anchor="start" x="8" y="-18.5" font-family="Helvetica,sans-Serif" font-size="10.00"> PSECPKG_EXTENDED_INFORMATION</text>
<text text-anchor="middle" x="99" y="-7.5" font-family="Helvetica,sans-Serif" font-size="10.00"> *typedef</text>
</a>
</g>
</g>
<!-- Node4&#45;&gt;Node1 -->
<g id="edge3" class="edge">
<title>Node4&#45;&gt;Node1</title>
<path fill="none" stroke="#9a32cd" stroke-dasharray="5,2" d="M208.29,-14.63C248.41,-16.13 293.28,-22.59 331,-40 371.31,-58.6 404.12,-102.65 417.28,-122.27"/>
<polygon fill="#9a32cd" stroke="#9a32cd" points="208.29,-11.13 198.2,-14.35 208.1,-18.12 208.29,-11.13"/>
<text text-anchor="middle" x="273.5" y="-120" font-family="Helvetica,sans-Serif" font-size="10.00"> DefaultCLP</text>
<text text-anchor="middle" x="273.5" y="-109" font-family="Helvetica,sans-Serif" font-size="10.00">CellTransferDelayCLP0</text>
<text text-anchor="middle" x="273.5" y="-98" font-family="Helvetica,sans-Serif" font-size="10.00">CellTransferDelayCLP1</text>
<text text-anchor="middle" x="273.5" y="-87" font-family="Helvetica,sans-Serif" font-size="10.00">CellLossRatioCLP0</text>
<text text-anchor="middle" x="273.5" y="-76" font-family="Helvetica,sans-Serif" font-size="10.00">AALType</text>
<text text-anchor="middle" x="273.5" y="-65" font-family="Helvetica,sans-Serif" font-size="10.00">CellLossRatioCLP1</text>
<text text-anchor="middle" x="273.5" y="-54" font-family="Helvetica,sans-Serif" font-size="10.00">CellDelayVariationCLP0</text>
<text text-anchor="middle" x="273.5" y="-43" font-family="Helvetica,sans-Serif" font-size="10.00">CellDelayVariationCLP1</text>
</g>
</g>
</svg>
