<?xml version="1.0" encoding="UTF-8" standalone="no"?>
<!DOCTYPE svg PUBLIC "-//W3C//DTD SVG 1.1//EN"
 "http://www.w3.org/Graphics/SVG/1.1/DTD/svg11.dtd">
<!-- Generated by graphviz version 2.43.0 (0)
 -->
<!-- Title: ICDRAWBEGIN Pages: 1 -->
<svg width="471pt" height="172pt"
 viewBox="0.00 0.00 470.50 172.00" xmlns="http://www.w3.org/2000/svg" xmlns:xlink="http://www.w3.org/1999/xlink">
<g id="graph0" class="graph" transform="scale(1 1) rotate(0) translate(4 168)">
<title>ICDRAWBEGIN</title>
<!-- Node1 -->
<g id="node1" class="node">
<title>Node1</title>
<g id="a_node1"><a xlink:title=" ">
<polygon fill="#bfbfbf" stroke="black" points="227,-0.5 227,-19.5 314,-19.5 314,-0.5 227,-0.5"/>
<text text-anchor="middle" x="270.5" y="-7.5" font-family="Helvetica,sans-Serif" font-size="10.00">ICDRAWBEGIN</text>
</a>
</g>
</g>
<!-- Node2 -->
<g id="node2" class="node">
<title>Node2</title>
<g id="a_node2"><a xlink:title=" ">
<polygon fill="none" stroke="#bfbfbf" points="0,-144.5 0,-163.5 119,-163.5 119,-144.5 0,-144.5"/>
<text text-anchor="middle" x="59.5" y="-151.5" font-family="Helvetica,sans-Serif" font-size="10.00">BITMAPINFOHEADER</text>
</a>
</g>
</g>
<!-- Node2&#45;&gt;Node1 -->
<g id="edge1" class="edge">
<title>Node2&#45;&gt;Node1</title>
<path fill="none" stroke="#9a32cd" stroke-dasharray="5,2" d="M68.01,-135.46C81.4,-109.81 109.91,-62.46 148.5,-38 171.86,-23.19 202.21,-16.44 226.8,-13.39"/>
<polygon fill="#9a32cd" stroke="#9a32cd" points="64.87,-133.92 63.48,-144.43 71.11,-137.07 64.87,-133.92"/>
<text text-anchor="middle" x="159.5" y="-79.5" font-family="Helvetica,sans-Serif" font-size="10.00"> lpbi</text>
</g>
<!-- Node3 -->
<g id="node3" class="node">
<title>Node3</title>
<g id="a_node3"><a xlink:title=" ">
<polygon fill="none" stroke="#bfbfbf" points="137,-144.5 137,-163.5 202,-163.5 202,-144.5 137,-144.5"/>
<text text-anchor="middle" x="169.5" y="-151.5" font-family="Helvetica,sans-Serif" font-size="10.00">HPALETTE</text>
</a>
</g>
</g>
<!-- Node3&#45;&gt;Node1 -->
<g id="edge2" class="edge">
<title>Node3&#45;&gt;Node1</title>
<path fill="none" stroke="#9a32cd" stroke-dasharray="5,2" d="M172.01,-134.41C176.25,-109.59 187.02,-65.55 212.5,-38 220.19,-29.68 230.96,-23.71 241.14,-19.53"/>
<polygon fill="#9a32cd" stroke="#9a32cd" points="168.54,-133.92 170.49,-144.34 175.46,-134.98 168.54,-133.92"/>
<text text-anchor="middle" x="225" y="-79.5" font-family="Helvetica,sans-Serif" font-size="10.00"> hpal</text>
</g>
<!-- Node4 -->
<g id="node4" class="node">
<title>Node4</title>
<g id="a_node4"><a xlink:title=" ">
<polygon fill="none" stroke="#bfbfbf" points="220.5,-144.5 220.5,-163.5 258.5,-163.5 258.5,-144.5 220.5,-144.5"/>
<text text-anchor="middle" x="239.5" y="-151.5" font-family="Helvetica,sans-Serif" font-size="10.00">HDC</text>
</a>
</g>
</g>
<!-- Node4&#45;&gt;Node1 -->
<g id="edge3" class="edge">
<title>Node4&#45;&gt;Node1</title>
<path fill="none" stroke="#9a32cd" stroke-dasharray="5,2" d="M241.11,-134.39C243.42,-111.37 248.57,-71.17 258.5,-38 260.38,-31.71 263.38,-24.96 265.91,-19.78"/>
<polygon fill="#9a32cd" stroke="#9a32cd" points="237.61,-134.18 240.16,-144.46 244.58,-134.83 237.61,-134.18"/>
<text text-anchor="middle" x="269" y="-79.5" font-family="Helvetica,sans-Serif" font-size="10.00"> hdc</text>
</g>
<!-- Node5 -->
<g id="node5" class="node">
<title>Node5</title>
<g id="a_node5"><a xlink:title=" ">
<polygon fill="none" stroke="#bfbfbf" points="277,-144.5 277,-163.5 326,-163.5 326,-144.5 277,-144.5"/>
<text text-anchor="middle" x="301.5" y="-151.5" font-family="Helvetica,sans-Serif" font-size="10.00">HWND</text>
</a>
</g>
</g>
<!-- Node5&#45;&gt;Node1 -->
<g id="edge4" class="edge">
<title>Node5&#45;&gt;Node1</title>
<path fill="none" stroke="#9a32cd" stroke-dasharray="5,2" d="M298.69,-134.2C295.09,-111.29 288.24,-71.48 279.5,-38 277.9,-31.88 275.65,-25.13 273.8,-19.91"/>
<polygon fill="#9a32cd" stroke="#9a32cd" points="295.26,-134.9 300.23,-144.26 302.18,-133.84 295.26,-134.9"/>
<text text-anchor="middle" x="311.5" y="-79.5" font-family="Helvetica,sans-Serif" font-size="10.00"> hwnd</text>
</g>
<!-- Node6 -->
<g id="node6" class="node">
<title>Node6</title>
<g id="a_node6"><a xlink:title=" ">
<polygon fill="none" stroke="#bfbfbf" points="344,-144.5 344,-163.5 373,-163.5 373,-144.5 344,-144.5"/>
<text text-anchor="middle" x="358.5" y="-151.5" font-family="Helvetica,sans-Serif" font-size="10.00">int</text>
</a>
</g>
</g>
<!-- Node6&#45;&gt;Node1 -->
<g id="edge5" class="edge">
<title>Node6&#45;&gt;Node1</title>
<path fill="none" stroke="#9a32cd" stroke-dasharray="5,2" d="M358.77,-134.16C358.14,-109.36 353.52,-65.7 330.5,-38 323.49,-29.57 313.3,-23.66 303.3,-19.57"/>
<polygon fill="#9a32cd" stroke="#9a32cd" points="355.27,-134.4 358.82,-144.38 362.27,-134.36 355.27,-134.4"/>
<text text-anchor="middle" x="372" y="-118" font-family="Helvetica,sans-Serif" font-size="10.00"> xDst</text>
<text text-anchor="middle" x="372" y="-107" font-family="Helvetica,sans-Serif" font-size="10.00">dySrc</text>
<text text-anchor="middle" x="372" y="-96" font-family="Helvetica,sans-Serif" font-size="10.00">dxSrc</text>
<text text-anchor="middle" x="372" y="-85" font-family="Helvetica,sans-Serif" font-size="10.00">dyDst</text>
<text text-anchor="middle" x="372" y="-74" font-family="Helvetica,sans-Serif" font-size="10.00">ySrc</text>
<text text-anchor="middle" x="372" y="-63" font-family="Helvetica,sans-Serif" font-size="10.00">dxDst</text>
<text text-anchor="middle" x="372" y="-52" font-family="Helvetica,sans-Serif" font-size="10.00">xSrc</text>
<text text-anchor="middle" x="372" y="-41" font-family="Helvetica,sans-Serif" font-size="10.00">yDst</text>
</g>
<!-- Node7 -->
<g id="node7" class="node">
<title>Node7</title>
<g id="a_node7"><a xlink:title=" ">
<polygon fill="none" stroke="#bfbfbf" points="391,-144.5 391,-163.5 452,-163.5 452,-144.5 391,-144.5"/>
<text text-anchor="middle" x="421.5" y="-151.5" font-family="Helvetica,sans-Serif" font-size="10.00">unsigned</text>
</a>
</g>
</g>
<!-- Node7&#45;&gt;Node1 -->
<g id="edge6" class="edge">
<title>Node7&#45;&gt;Node1</title>
<path fill="none" stroke="#9a32cd" stroke-dasharray="5,2" d="M422.01,-134.1C421.62,-108.56 416.9,-63.32 390.5,-38 379.56,-27.51 343.83,-20.35 314.19,-16.05"/>
<polygon fill="#9a32cd" stroke="#9a32cd" points="418.51,-134.29 421.95,-144.31 425.51,-134.33 418.51,-134.29"/>
<text text-anchor="middle" x="442" y="-90.5" font-family="Helvetica,sans-Serif" font-size="10.00"> dwRate</text>
<text text-anchor="middle" x="442" y="-79.5" font-family="Helvetica,sans-Serif" font-size="10.00">dwScale</text>
<text text-anchor="middle" x="442" y="-68.5" font-family="Helvetica,sans-Serif" font-size="10.00">dwFlags</text>
</g>
</g>
</svg>
