<?xml version="1.0" encoding="UTF-8" standalone="no"?>
<!DOCTYPE svg PUBLIC "-//W3C//DTD SVG 1.1//EN"
 "http://www.w3.org/Graphics/SVG/1.1/DTD/svg11.dtd">
<!-- Generated by graphviz version 2.43.0 (0)
 -->
<!-- Title: Game/CGame/cg_consolecmds.c Pages: 1 -->
<svg width="1320pt" height="207pt"
 viewBox="0.00 0.00 1320.00 207.00" xmlns="http://www.w3.org/2000/svg" xmlns:xlink="http://www.w3.org/1999/xlink">
<g id="graph0" class="graph" transform="scale(1 1) rotate(0) translate(4 203)">
<title>Game/CGame/cg_consolecmds.c</title>
<!-- Node1 -->
<g id="node1" class="node">
<title>Node1</title>
<g id="a_node1"><a xlink:title=" ">
<polygon fill="#bfbfbf" stroke="black" points="391.5,-179.5 391.5,-198.5 567.5,-198.5 567.5,-179.5 391.5,-179.5"/>
<text text-anchor="middle" x="479.5" y="-186.5" font-family="Helvetica,sans-Serif" font-size="10.00">Game/CGame/cg_consolecmds.c</text>
</a>
</g>
</g>
<!-- Node2 -->
<g id="node2" class="node">
<title>Node2</title>
<g id="a_node2"><a xlink:href="../../d9/d79/cg__local_8h.html" target="_top" xlink:title=" ">
<polygon fill="none" stroke="black" points="670,-123.5 670,-142.5 735,-142.5 735,-123.5 670,-123.5"/>
<text text-anchor="middle" x="702.5" y="-130.5" font-family="Helvetica,sans-Serif" font-size="10.00">cg_local.h</text>
</a>
</g>
</g>
<!-- Node1&#45;&gt;Node2 -->
<g id="edge1" class="edge">
<title>Node1&#45;&gt;Node2</title>
<path fill="none" stroke="midnightblue" d="M514.84,-179.44C554.2,-169.91 617.84,-154.5 659.93,-144.31"/>
<polygon fill="midnightblue" stroke="midnightblue" points="660.97,-147.66 669.87,-141.9 659.33,-140.85 660.97,-147.66"/>
</g>
<!-- Node24 -->
<g id="node24" class="node">
<title>Node24</title>
<g id="a_node24"><a xlink:href="../../d7/d1a/ui__shared_8h.html" target="_top" xlink:title=" ">
<polygon fill="none" stroke="black" points="264,-123.5 264,-142.5 359,-142.5 359,-123.5 264,-123.5"/>
<text text-anchor="middle" x="311.5" y="-130.5" font-family="Helvetica,sans-Serif" font-size="10.00">../UI/ui_shared.h</text>
</a>
</g>
</g>
<!-- Node1&#45;&gt;Node24 -->
<g id="edge23" class="edge">
<title>Node1&#45;&gt;Node24</title>
<path fill="none" stroke="midnightblue" d="M452.88,-179.44C424.49,-170.32 379.36,-155.81 347.75,-145.65"/>
<polygon fill="midnightblue" stroke="midnightblue" points="348.59,-142.24 338,-142.52 346.44,-148.91 348.59,-142.24"/>
</g>
<!-- Node3 -->
<g id="node3" class="node">
<title>Node3</title>
<g id="a_node3"><a xlink:href="../../de/d01/q__shared_8h.html" target="_top" xlink:title=" ">
<polygon fill="none" stroke="black" points="386,-62 386,-81 511,-81 511,-62 386,-62"/>
<text text-anchor="middle" x="448.5" y="-69" font-family="Helvetica,sans-Serif" font-size="10.00">../../Shared/q_shared.h</text>
</a>
</g>
</g>
<!-- Node2&#45;&gt;Node3 -->
<g id="edge2" class="edge">
<title>Node2&#45;&gt;Node3</title>
<path fill="none" stroke="midnightblue" d="M669.81,-124.34C625.44,-113.95 545.87,-95.31 495.21,-83.44"/>
<polygon fill="midnightblue" stroke="midnightblue" points="495.7,-79.96 485.17,-81.09 494.11,-86.78 495.7,-79.96"/>
</g>
<!-- Node16 -->
<g id="node16" class="node">
<title>Node16</title>
<g id="a_node16"><a xlink:href="../../d3/d66/tr__types_8h.html" target="_top" xlink:title=" ">
<polygon fill="none" stroke="black" points="255.5,-56.5 255.5,-86.5 367.5,-86.5 367.5,-56.5 255.5,-56.5"/>
<text text-anchor="start" x="263.5" y="-74.5" font-family="Helvetica,sans-Serif" font-size="10.00">../../Engine/renderer</text>
<text text-anchor="middle" x="311.5" y="-63.5" font-family="Helvetica,sans-Serif" font-size="10.00">/tr_types.h</text>
</a>
</g>
</g>
<!-- Node2&#45;&gt;Node16 -->
<g id="edge15" class="edge">
<title>Node2&#45;&gt;Node16</title>
<path fill="none" stroke="midnightblue" d="M669.97,-128.41C612.88,-121.91 490.76,-107.15 378,-87.18"/>
<polygon fill="midnightblue" stroke="midnightblue" points="378.27,-83.68 367.81,-85.36 377.04,-90.57 378.27,-83.68"/>
</g>
<!-- Node17 -->
<g id="node17" class="node">
<title>Node17</title>
<g id="a_node17"><a xlink:href="../../d6/daa/bg__public_8h.html" target="_top" xlink:title=" ">
<polygon fill="none" stroke="black" points="701,-62 701,-81 814,-81 814,-62 701,-62"/>
<text text-anchor="middle" x="757.5" y="-69" font-family="Helvetica,sans-Serif" font-size="10.00">../Game/bg_public.h</text>
</a>
</g>
</g>
<!-- Node2&#45;&gt;Node17 -->
<g id="edge16" class="edge">
<title>Node2&#45;&gt;Node17</title>
<path fill="none" stroke="midnightblue" d="M710.38,-123.48C718.79,-114.37 732.32,-99.74 742.73,-88.48"/>
<polygon fill="midnightblue" stroke="midnightblue" points="745.42,-90.73 749.63,-81.01 740.28,-85.98 745.42,-90.73"/>
</g>
<!-- Node18 -->
<g id="node18" class="node">
<title>Node18</title>
<g id="a_node18"><a xlink:href="../../de/df7/bg__userweapons_8h.html" target="_top" xlink:title=" ">
<polygon fill="none" stroke="black" points="832,-62 832,-81 981,-81 981,-62 832,-62"/>
<text text-anchor="middle" x="906.5" y="-69" font-family="Helvetica,sans-Serif" font-size="10.00">../Game/bg_userweapons.h</text>
</a>
</g>
</g>
<!-- Node2&#45;&gt;Node18 -->
<g id="edge17" class="edge">
<title>Node2&#45;&gt;Node18</title>
<path fill="none" stroke="midnightblue" d="M731.73,-123.48C767.4,-113.07 827.86,-95.44 867.48,-83.88"/>
<polygon fill="midnightblue" stroke="midnightblue" points="868.71,-87.17 877.33,-81.01 866.75,-80.45 868.71,-87.17"/>
</g>
<!-- Node19 -->
<g id="node19" class="node">
<title>Node19</title>
<g id="a_node19"><a xlink:href="../../d6/dca/g__tiers_8h.html" target="_top" xlink:title=" ">
<polygon fill="none" stroke="black" points="999.5,-62 999.5,-81 1099.5,-81 1099.5,-62 999.5,-62"/>
<text text-anchor="middle" x="1049.5" y="-69" font-family="Helvetica,sans-Serif" font-size="10.00">../Game/g_tiers.h</text>
</a>
</g>
</g>
<!-- Node2&#45;&gt;Node19 -->
<g id="edge18" class="edge">
<title>Node2&#45;&gt;Node19</title>
<path fill="none" stroke="midnightblue" d="M735.05,-127.84C788.59,-120.8 898.46,-105.47 990.5,-87 995.86,-85.92 1001.48,-84.69 1007.02,-83.4"/>
<polygon fill="midnightblue" stroke="midnightblue" points="1007.93,-86.78 1016.84,-81.06 1006.3,-79.97 1007.93,-86.78"/>
</g>
<!-- Node20 -->
<g id="node20" class="node">
<title>Node20</title>
<g id="a_node20"><a xlink:href="../../d3/d35/cg__userweapons_8h.html" target="_top" xlink:title=" ">
<polygon fill="none" stroke="black" points="1118,-62 1118,-81 1225,-81 1225,-62 1118,-62"/>
<text text-anchor="middle" x="1171.5" y="-69" font-family="Helvetica,sans-Serif" font-size="10.00">cg_userweapons.h</text>
</a>
</g>
</g>
<!-- Node2&#45;&gt;Node20 -->
<g id="edge19" class="edge">
<title>Node2&#45;&gt;Node20</title>
<path fill="none" stroke="midnightblue" d="M735.04,-129.68C804.17,-124.47 970.59,-110.43 1108.5,-87 1114.74,-85.94 1121.3,-84.64 1127.72,-83.26"/>
<polygon fill="midnightblue" stroke="midnightblue" points="1128.64,-86.64 1137.64,-81.05 1127.12,-79.81 1128.64,-86.64"/>
</g>
<!-- Node21 -->
<g id="node21" class="node">
<title>Node21</title>
<g id="a_node21"><a xlink:href="../../de/d77/cg__auras_8h.html" target="_top" xlink:title=" ">
<polygon fill="none" stroke="black" points="1243,-62 1243,-81 1312,-81 1312,-62 1243,-62"/>
<text text-anchor="middle" x="1277.5" y="-69" font-family="Helvetica,sans-Serif" font-size="10.00">cg_auras.h</text>
</a>
</g>
</g>
<!-- Node2&#45;&gt;Node21 -->
<g id="edge20" class="edge">
<title>Node2&#45;&gt;Node21</title>
<path fill="none" stroke="midnightblue" d="M735.28,-131.96C819.23,-131.25 1048.45,-125.65 1234.5,-87 1238.19,-86.23 1242,-85.25 1245.76,-84.15"/>
<polygon fill="midnightblue" stroke="midnightblue" points="1247,-87.43 1255.46,-81.06 1244.87,-80.76 1247,-87.43"/>
</g>
<!-- Node22 -->
<g id="node22" class="node">
<title>Node22</title>
<g id="a_node22"><a xlink:href="../../dc/da7/cg__tiers_8h.html" target="_top" xlink:title=" ">
<polygon fill="none" stroke="black" points="529.5,-62 529.5,-81 593.5,-81 593.5,-62 529.5,-62"/>
<text text-anchor="middle" x="561.5" y="-69" font-family="Helvetica,sans-Serif" font-size="10.00">cg_tiers.h</text>
</a>
</g>
</g>
<!-- Node2&#45;&gt;Node22 -->
<g id="edge21" class="edge">
<title>Node2&#45;&gt;Node22</title>
<path fill="none" stroke="midnightblue" d="M682.3,-123.48C658.43,-113.4 618.5,-96.55 591.13,-85"/>
<polygon fill="midnightblue" stroke="midnightblue" points="592.24,-81.67 581.66,-81.01 589.52,-88.12 592.24,-81.67"/>
</g>
<!-- Node23 -->
<g id="node23" class="node">
<title>Node23</title>
<g id="a_node23"><a xlink:href="../../d2/d3d/cg__public_8h.html" target="_top" xlink:title=" ">
<polygon fill="none" stroke="black" points="612,-62 612,-81 683,-81 683,-62 612,-62"/>
<text text-anchor="middle" x="647.5" y="-69" font-family="Helvetica,sans-Serif" font-size="10.00">cg_public.h</text>
</a>
</g>
</g>
<!-- Node2&#45;&gt;Node23 -->
<g id="edge22" class="edge">
<title>Node2&#45;&gt;Node23</title>
<path fill="none" stroke="midnightblue" d="M694.62,-123.48C686.21,-114.37 672.68,-99.74 662.27,-88.48"/>
<polygon fill="midnightblue" stroke="midnightblue" points="664.72,-85.98 655.37,-81.01 659.58,-90.73 664.72,-85.98"/>
</g>
<!-- Node4 -->
<g id="node4" class="node">
<title>Node4</title>
<g id="a_node4"><a xlink:title=" ">
<polygon fill="none" stroke="#bfbfbf" points="30.5,-0.5 30.5,-19.5 86.5,-19.5 86.5,-0.5 30.5,-0.5"/>
<text text-anchor="middle" x="58.5" y="-7.5" font-family="Helvetica,sans-Serif" font-size="10.00">assert.h</text>
</a>
</g>
</g>
<!-- Node3&#45;&gt;Node4 -->
<g id="edge3" class="edge">
<title>Node3&#45;&gt;Node4</title>
<path fill="none" stroke="midnightblue" d="M408.6,-61.94C398.18,-59.85 386.94,-57.72 376.5,-56 255.42,-36.08 221.04,-42.56 96.62,-20.03"/>
<polygon fill="midnightblue" stroke="midnightblue" points="97.18,-16.57 86.71,-18.2 95.91,-23.45 97.18,-16.57"/>
</g>
<!-- Node5 -->
<g id="node5" class="node">
<title>Node5</title>
<g id="a_node5"><a xlink:title=" ">
<polygon fill="none" stroke="#bfbfbf" points="105,-0.5 105,-19.5 156,-19.5 156,-0.5 105,-0.5"/>
<text text-anchor="middle" x="130.5" y="-7.5" font-family="Helvetica,sans-Serif" font-size="10.00">math.h</text>
</a>
</g>
</g>
<!-- Node3&#45;&gt;Node5 -->
<g id="edge4" class="edge">
<title>Node3&#45;&gt;Node5</title>
<path fill="none" stroke="midnightblue" d="M407.04,-61.93C397.05,-59.93 386.4,-57.84 376.5,-56 286.08,-39.18 260.23,-39.8 166.01,-19.95"/>
<polygon fill="midnightblue" stroke="midnightblue" points="166.57,-16.49 156.06,-17.83 165.11,-23.34 166.57,-16.49"/>
</g>
<!-- Node6 -->
<g id="node6" class="node">
<title>Node6</title>
<g id="a_node6"><a xlink:title=" ">
<polygon fill="none" stroke="#bfbfbf" points="174.5,-0.5 174.5,-19.5 224.5,-19.5 224.5,-0.5 174.5,-0.5"/>
<text text-anchor="middle" x="199.5" y="-7.5" font-family="Helvetica,sans-Serif" font-size="10.00">stdio.h</text>
</a>
</g>
</g>
<!-- Node3&#45;&gt;Node6 -->
<g id="edge5" class="edge">
<title>Node3&#45;&gt;Node6</title>
<path fill="none" stroke="midnightblue" d="M410.75,-61.97C369.77,-52.64 302.15,-37.02 234.68,-20.25"/>
<polygon fill="midnightblue" stroke="midnightblue" points="235.28,-16.79 224.73,-17.76 233.59,-23.58 235.28,-16.79"/>
</g>
<!-- Node7 -->
<g id="node7" class="node">
<title>Node7</title>
<g id="a_node7"><a xlink:title=" ">
<polygon fill="none" stroke="#bfbfbf" points="242.5,-0.5 242.5,-19.5 298.5,-19.5 298.5,-0.5 242.5,-0.5"/>
<text text-anchor="middle" x="270.5" y="-7.5" font-family="Helvetica,sans-Serif" font-size="10.00">stdarg.h</text>
</a>
</g>
</g>
<!-- Node3&#45;&gt;Node7 -->
<g id="edge6" class="edge">
<title>Node3&#45;&gt;Node7</title>
<path fill="none" stroke="midnightblue" d="M423,-61.98C392.2,-51.68 340.23,-34.31 305.65,-22.75"/>
<polygon fill="midnightblue" stroke="midnightblue" points="306.55,-19.36 295.96,-19.51 304.33,-26 306.55,-19.36"/>
</g>
<!-- Node8 -->
<g id="node8" class="node">
<title>Node8</title>
<g id="a_node8"><a xlink:title=" ">
<polygon fill="none" stroke="#bfbfbf" points="317,-0.5 317,-19.5 370,-19.5 370,-0.5 317,-0.5"/>
<text text-anchor="middle" x="343.5" y="-7.5" font-family="Helvetica,sans-Serif" font-size="10.00">string.h</text>
</a>
</g>
</g>
<!-- Node3&#45;&gt;Node8 -->
<g id="edge7" class="edge">
<title>Node3&#45;&gt;Node8</title>
<path fill="none" stroke="midnightblue" d="M433.46,-61.98C416.22,-52.21 387.76,-36.08 367.47,-24.58"/>
<polygon fill="midnightblue" stroke="midnightblue" points="368.94,-21.39 358.52,-19.51 365.49,-27.48 368.94,-21.39"/>
</g>
<!-- Node9 -->
<g id="node9" class="node">
<title>Node9</title>
<g id="a_node9"><a xlink:title=" ">
<polygon fill="none" stroke="#bfbfbf" points="388,-0.5 388,-19.5 441,-19.5 441,-0.5 388,-0.5"/>
<text text-anchor="middle" x="414.5" y="-7.5" font-family="Helvetica,sans-Serif" font-size="10.00">stdlib.h</text>
</a>
</g>
</g>
<!-- Node3&#45;&gt;Node9 -->
<g id="edge8" class="edge">
<title>Node3&#45;&gt;Node9</title>
<path fill="none" stroke="midnightblue" d="M443.63,-61.98C438.63,-53.23 430.71,-39.37 424.39,-28.31"/>
<polygon fill="midnightblue" stroke="midnightblue" points="427.36,-26.46 419.36,-19.51 421.28,-29.93 427.36,-26.46"/>
</g>
<!-- Node10 -->
<g id="node10" class="node">
<title>Node10</title>
<g id="a_node10"><a xlink:title=" ">
<polygon fill="none" stroke="#bfbfbf" points="459.5,-0.5 459.5,-19.5 507.5,-19.5 507.5,-0.5 459.5,-0.5"/>
<text text-anchor="middle" x="483.5" y="-7.5" font-family="Helvetica,sans-Serif" font-size="10.00">time.h</text>
</a>
</g>
</g>
<!-- Node3&#45;&gt;Node10 -->
<g id="edge9" class="edge">
<title>Node3&#45;&gt;Node10</title>
<path fill="none" stroke="midnightblue" d="M453.51,-61.98C458.66,-53.23 466.81,-39.37 473.32,-28.31"/>
<polygon fill="midnightblue" stroke="midnightblue" points="476.44,-29.9 478.49,-19.51 470.41,-26.35 476.44,-29.9"/>
</g>
<!-- Node11 -->
<g id="node11" class="node">
<title>Node11</title>
<g id="a_node11"><a xlink:title=" ">
<polygon fill="none" stroke="#bfbfbf" points="526,-0.5 526,-19.5 579,-19.5 579,-0.5 526,-0.5"/>
<text text-anchor="middle" x="552.5" y="-7.5" font-family="Helvetica,sans-Serif" font-size="10.00">ctype.h</text>
</a>
</g>
</g>
<!-- Node3&#45;&gt;Node11 -->
<g id="edge10" class="edge">
<title>Node3&#45;&gt;Node11</title>
<path fill="none" stroke="midnightblue" d="M463.4,-61.98C480.47,-52.21 508.66,-36.08 528.76,-24.58"/>
<polygon fill="midnightblue" stroke="midnightblue" points="530.69,-27.51 537.63,-19.51 527.21,-21.44 530.69,-27.51"/>
</g>
<!-- Node12 -->
<g id="node12" class="node">
<title>Node12</title>
<g id="a_node12"><a xlink:title=" ">
<polygon fill="none" stroke="#bfbfbf" points="597,-0.5 597,-19.5 650,-19.5 650,-0.5 597,-0.5"/>
<text text-anchor="middle" x="623.5" y="-7.5" font-family="Helvetica,sans-Serif" font-size="10.00">limits.h</text>
</a>
</g>
</g>
<!-- Node3&#45;&gt;Node12 -->
<g id="edge11" class="edge">
<title>Node3&#45;&gt;Node12</title>
<path fill="none" stroke="midnightblue" d="M473.57,-61.98C503.85,-51.68 554.94,-34.31 588.94,-22.75"/>
<polygon fill="midnightblue" stroke="midnightblue" points="590.13,-26.04 598.47,-19.51 587.88,-19.41 590.13,-26.04"/>
</g>
<!-- Node13 -->
<g id="node13" class="node">
<title>Node13</title>
<g id="a_node13"><a xlink:title=" ">
<polygon fill="none" stroke="#bfbfbf" points="668,-0.5 668,-19.5 721,-19.5 721,-0.5 668,-0.5"/>
<text text-anchor="middle" x="694.5" y="-7.5" font-family="Helvetica,sans-Serif" font-size="10.00">stdint.h</text>
</a>
</g>
</g>
<!-- Node3&#45;&gt;Node13 -->
<g id="edge12" class="edge">
<title>Node3&#45;&gt;Node13</title>
<path fill="none" stroke="midnightblue" d="M485.14,-61.93C525.28,-52.49 591.84,-36.72 658,-20.35"/>
<polygon fill="midnightblue" stroke="midnightblue" points="658.9,-23.73 667.76,-17.93 657.21,-16.94 658.9,-23.73"/>
</g>
<!-- Node14 -->
<g id="node14" class="node">
<title>Node14</title>
<g id="a_node14"><a xlink:href="../../d7/de2/q__platform_8h.html" target="_top" xlink:title=" ">
<polygon fill="none" stroke="black" points="739,-0.5 739,-19.5 818,-19.5 818,-0.5 739,-0.5"/>
<text text-anchor="middle" x="778.5" y="-7.5" font-family="Helvetica,sans-Serif" font-size="10.00">q_platform.h</text>
</a>
</g>
</g>
<!-- Node3&#45;&gt;Node14 -->
<g id="edge13" class="edge">
<title>Node3&#45;&gt;Node14</title>
<path fill="none" stroke="midnightblue" d="M489.96,-61.94C499.95,-59.93 510.6,-57.85 520.5,-56 610.5,-39.23 635.64,-36.87 729.08,-20.23"/>
<polygon fill="midnightblue" stroke="midnightblue" points="729.73,-23.67 738.96,-18.46 728.5,-16.78 729.73,-23.67"/>
</g>
<!-- Node15 -->
<g id="node15" class="node">
<title>Node15</title>
<g id="a_node15"><a xlink:href="../../d2/d56/surfaceflags_8h.html" target="_top" xlink:title=" ">
<polygon fill="none" stroke="black" points="836,-0.5 836,-19.5 921,-19.5 921,-0.5 836,-0.5"/>
<text text-anchor="middle" x="878.5" y="-7.5" font-family="Helvetica,sans-Serif" font-size="10.00">surfaceflags.h</text>
</a>
</g>
</g>
<!-- Node3&#45;&gt;Node15 -->
<g id="edge14" class="edge">
<title>Node3&#45;&gt;Node15</title>
<path fill="none" stroke="midnightblue" d="M488.01,-61.94C498.53,-59.82 509.92,-57.68 520.5,-56 652.99,-34.93 689.86,-39.7 825.98,-20.15"/>
<polygon fill="midnightblue" stroke="midnightblue" points="826.56,-23.6 835.95,-18.7 825.55,-16.67 826.56,-23.6"/>
</g>
<!-- Node24&#45;&gt;Node3 -->
<g id="edge24" class="edge">
<title>Node24&#45;&gt;Node3</title>
<path fill="none" stroke="midnightblue" d="M331.13,-123.48C354.32,-113.4 393.12,-96.55 419.71,-85"/>
<polygon fill="midnightblue" stroke="midnightblue" points="421.13,-88.2 428.91,-81.01 418.34,-81.78 421.13,-88.2"/>
</g>
<!-- Node24&#45;&gt;Node16 -->
<g id="edge25" class="edge">
<title>Node24&#45;&gt;Node16</title>
<path fill="none" stroke="midnightblue" d="M311.5,-123.48C311.5,-116.47 311.5,-106.19 311.5,-96.7"/>
<polygon fill="midnightblue" stroke="midnightblue" points="315,-96.52 311.5,-86.52 308,-96.52 315,-96.52"/>
</g>
<!-- Node25 -->
<g id="node25" class="node">
<title>Node25</title>
<g id="a_node25"><a xlink:href="../../dc/d0e/keycodes_8h.html" target="_top" xlink:title=" ">
<polygon fill="none" stroke="black" points="139.5,-56.5 139.5,-86.5 237.5,-86.5 237.5,-56.5 139.5,-56.5"/>
<text text-anchor="start" x="147.5" y="-74.5" font-family="Helvetica,sans-Serif" font-size="10.00">../../Engine/client</text>
<text text-anchor="middle" x="188.5" y="-63.5" font-family="Helvetica,sans-Serif" font-size="10.00">/keycodes.h</text>
</a>
</g>
</g>
<!-- Node24&#45;&gt;Node25 -->
<g id="edge26" class="edge">
<title>Node24&#45;&gt;Node25</title>
<path fill="none" stroke="midnightblue" d="M293.88,-123.48C276.44,-115.04 249.18,-101.86 226.76,-91.01"/>
<polygon fill="midnightblue" stroke="midnightblue" points="228.01,-87.73 217.49,-86.52 224.97,-94.03 228.01,-87.73"/>
</g>
<!-- Node26 -->
<g id="node26" class="node">
<title>Node26</title>
<g id="a_node26"><a xlink:href="../../db/d51/menudef_8h.html" target="_top" xlink:title=" ">
<polygon fill="none" stroke="black" points="0,-62 0,-81 121,-81 121,-62 0,-62"/>
<text text-anchor="middle" x="60.5" y="-69" font-family="Helvetica,sans-Serif" font-size="10.00">./menudef/menudef.h</text>
</a>
</g>
</g>
<!-- Node24&#45;&gt;Node26 -->
<g id="edge27" class="edge">
<title>Node24&#45;&gt;Node26</title>
<path fill="none" stroke="midnightblue" d="M275.54,-123.48C230.99,-112.92 155.04,-94.91 106.35,-83.37"/>
<polygon fill="midnightblue" stroke="midnightblue" points="106.93,-79.91 96.4,-81.01 105.32,-86.72 106.93,-79.91"/>
</g>
</g>
</svg>
