<?xml version="1.0" encoding="UTF-8" standalone="no"?>
<!DOCTYPE svg PUBLIC "-//W3C//DTD SVG 1.1//EN"
 "http://www.w3.org/Graphics/SVG/1.1/DTD/svg11.dtd">
<!-- Generated by graphviz version 2.43.0 (0)
 -->
<!-- Title: Game/CGame/cg_consolecmds.c Pages: 1 -->
<!--zoomable 263 -->
<svg id="main" version="1.1" xmlns="http://www.w3.org/2000/svg" xmlns:xlink="http://www.w3.org/1999/xlink" xml:space="preserve" onload="init(evt)">
<style type="text/css"><![CDATA[
.edge:hover path { stroke: red; }
.edge:hover polygon { stroke: red; fill: red; }
]]></style>
<script type="text/javascript"><![CDATA[
var edges = document.getElementsByTagName('g');
if (edges && edges.length) {
  for (var i=0;i<edges.length;i++) {
    if (edges[i].id.substr(0,4)=='edge') {
      edges[i].setAttribute('class','edge');
    }
  }
}
]]></script>
        <defs>
                <circle id="rim" cx="0" cy="0" r="7"/>
                <circle id="rim2" cx="0" cy="0" r="3.5"/>
                <g id="zoomPlus">
                        <use xlink:href="#rim" fill="#404040">
                                <set attributeName="fill" to="#808080" begin="zoomplus.mouseover" end="zoomplus.mouseout"/>
                        </use>
                        <path d="M-4,0h8M0,-4v8" fill="none" stroke="white" stroke-width="1.5" pointer-events="none"/>
                </g>
                <g id="zoomMin">
                        <use xlink:href="#rim" fill="#404040">
                                <set attributeName="fill" to="#808080" begin="zoomminus.mouseover" end="zoomminus.mouseout"/>
                        </use>
                        <path d="M-4,0h8" fill="none" stroke="white" stroke-width="1.5" pointer-events="none"/>
                </g>
                <g id="dirArrow">
                        <path fill="none" stroke="white" stroke-width="1.5" d="M0,-3.0v7 M-2.5,-0.5L0,-3.0L2.5,-0.5"/>
                </g>
               <g id="resetDef">
                       <use xlink:href="#rim2" fill="#404040">
                               <set attributeName="fill" to="#808080" begin="reset.mouseover" end="reset.mouseout"/>
                       </use>
               </g>
        </defs>

<script type="text/javascript">
var viewWidth = 1513;
var viewHeight = 263;
var sectionId = 'dynsection-0';
</script>
<script xlink:href="../../svgpan.js"/>
<svg id="graph" class="graph">
<g id="viewport">
<title>Game/CGame/cg_consolecmds.c</title>
<!-- Node1 -->
<g id="node1" class="node">
<title>Node1</title>
<g id="a_node1"><a xlink:title=" ">
<polygon fill="#bfbfbf" stroke="black" points="541.5,-235.5 541.5,-254.5 717.5,-254.5 717.5,-235.5 541.5,-235.5"/>
<text text-anchor="middle" x="629.5" y="-242.5" font-family="Helvetica,sans-Serif" font-size="10.00">Game/CGame/cg_consolecmds.c</text>
</a>
</g>
</g>
<!-- Node2 -->
<g id="node2" class="node">
<title>Node2</title>
<g id="a_node2"><a xlink:href="../../d9/d79/cg__local_8h.html" target="_top" xlink:title=" ">
<polygon fill="none" stroke="black" points="806,-179.5 806,-198.5 871,-198.5 871,-179.5 806,-179.5"/>
<text text-anchor="middle" x="838.5" y="-186.5" font-family="Helvetica,sans-Serif" font-size="10.00">cg_local.h</text>
</a>
</g>
</g>
<!-- Node1&#45;&gt;Node2 -->
<g id="edge1" class="edge">
<title>Node1&#45;&gt;Node2</title>
<path fill="none" stroke="midnightblue" d="M662.62,-235.44C698.72,-226.11 756.61,-211.16 796.03,-200.97"/>
<polygon fill="midnightblue" stroke="midnightblue" points="797.08,-204.32 805.88,-198.43 795.32,-197.54 797.08,-204.32"/>
</g>
<!-- Node26 -->
<g id="node26" class="node">
<title>Node26</title>
<g id="a_node26"><a xlink:href="../../d7/d1a/ui__shared_8h.html" target="_top" xlink:title=" ">
<polygon fill="none" stroke="black" points="374,-179.5 374,-198.5 469,-198.5 469,-179.5 374,-179.5"/>
<text text-anchor="middle" x="421.5" y="-186.5" font-family="Helvetica,sans-Serif" font-size="10.00">../UI/ui_shared.h</text>
</a>
</g>
</g>
<!-- Node1&#45;&gt;Node26 -->
<g id="edge25" class="edge">
<title>Node1&#45;&gt;Node26</title>
<path fill="none" stroke="midnightblue" d="M596.54,-235.44C560.71,-226.14 503.34,-211.25 464.11,-201.06"/>
<polygon fill="midnightblue" stroke="midnightblue" points="464.86,-197.64 454.3,-198.52 463.1,-204.42 464.86,-197.64"/>
</g>
<!-- Node3 -->
<g id="node3" class="node">
<title>Node3</title>
<g id="a_node3"><a xlink:href="../../de/d01/q__shared_8h.html" target="_top" xlink:title=" ">
<polygon fill="none" stroke="black" points="359,-118 359,-137 484,-137 484,-118 359,-118"/>
<text text-anchor="middle" x="421.5" y="-125" font-family="Helvetica,sans-Serif" font-size="10.00">../../Shared/q_shared.h</text>
</a>
</g>
</g>
<!-- Node2&#45;&gt;Node3 -->
<g id="edge2" class="edge">
<title>Node2&#45;&gt;Node3</title>
<path fill="none" stroke="midnightblue" d="M805.57,-184.47C744.06,-177.71 607.62,-161.91 493.5,-143 486.32,-141.81 478.77,-140.43 471.36,-139"/>
<polygon fill="midnightblue" stroke="midnightblue" points="471.89,-135.54 461.4,-137.05 470.53,-142.41 471.89,-135.54"/>
</g>
<!-- Node17 -->
<g id="node17" class="node">
<title>Node17</title>
<g id="a_node17"><a xlink:href="../../d3/d66/tr__types_8h.html" target="_top" xlink:title=" ">
<polygon fill="none" stroke="black" points="502.5,-112.5 502.5,-142.5 614.5,-142.5 614.5,-112.5 502.5,-112.5"/>
<text text-anchor="start" x="510.5" y="-130.5" font-family="Helvetica,sans-Serif" font-size="10.00">../../Engine/renderer</text>
<text text-anchor="middle" x="558.5" y="-119.5" font-family="Helvetica,sans-Serif" font-size="10.00">/tr_types.h</text>
</a>
</g>
</g>
<!-- Node2&#45;&gt;Node17 -->
<g id="edge16" class="edge">
<title>Node2&#45;&gt;Node17</title>
<path fill="none" stroke="midnightblue" d="M805.85,-181.23C763.87,-172.5 688.71,-156.8 624.5,-143 624.4,-142.98 624.3,-142.96 624.2,-142.94"/>
<polygon fill="midnightblue" stroke="midnightblue" points="625.18,-139.57 614.66,-140.87 623.7,-146.41 625.18,-139.57"/>
</g>
<!-- Node18 -->
<g id="node18" class="node">
<title>Node18</title>
<g id="a_node18"><a xlink:href="../../d6/daa/bg__public_8h.html" target="_top" xlink:title=" ">
<polygon fill="none" stroke="black" points="981,-118 981,-137 1094,-137 1094,-118 981,-118"/>
<text text-anchor="middle" x="1037.5" y="-125" font-family="Helvetica,sans-Serif" font-size="10.00">../Game/bg_public.h</text>
</a>
</g>
</g>
<!-- Node2&#45;&gt;Node18 -->
<g id="edge17" class="edge">
<title>Node2&#45;&gt;Node18</title>
<path fill="none" stroke="midnightblue" d="M867.01,-179.48C901.74,-169.09 960.54,-151.51 999.19,-139.95"/>
<polygon fill="midnightblue" stroke="midnightblue" points="1000.46,-143.23 1009.04,-137.01 998.46,-136.52 1000.46,-143.23"/>
</g>
<!-- Node19 -->
<g id="node19" class="node">
<title>Node19</title>
<g id="a_node19"><a xlink:href="../../de/df7/bg__userweapons_8h.html" target="_top" xlink:title=" ">
<polygon fill="none" stroke="black" points="1112,-118 1112,-137 1261,-137 1261,-118 1112,-118"/>
<text text-anchor="middle" x="1186.5" y="-125" font-family="Helvetica,sans-Serif" font-size="10.00">../Game/bg_userweapons.h</text>
</a>
</g>
</g>
<!-- Node2&#45;&gt;Node19 -->
<g id="edge18" class="edge">
<title>Node2&#45;&gt;Node19</title>
<path fill="none" stroke="midnightblue" d="M871.15,-182.51C921.17,-174.08 1019.8,-157.42 1103.5,-143 1111.39,-141.64 1119.7,-140.2 1127.89,-138.77"/>
<polygon fill="midnightblue" stroke="midnightblue" points="1128.54,-142.21 1137.79,-137.05 1127.34,-135.32 1128.54,-142.21"/>
</g>
<!-- Node20 -->
<g id="node20" class="node">
<title>Node20</title>
<g id="a_node20"><a xlink:href="../../d6/dca/g__tiers_8h.html" target="_top" xlink:title=" ">
<polygon fill="none" stroke="black" points="1279.5,-118 1279.5,-137 1379.5,-137 1379.5,-118 1279.5,-118"/>
<text text-anchor="middle" x="1329.5" y="-125" font-family="Helvetica,sans-Serif" font-size="10.00">../Game/g_tiers.h</text>
</a>
</g>
</g>
<!-- Node2&#45;&gt;Node20 -->
<g id="edge19" class="edge">
<title>Node2&#45;&gt;Node20</title>
<path fill="none" stroke="midnightblue" d="M871.23,-186.13C943.63,-181.65 1122.67,-168.74 1270.5,-143 1276.29,-141.99 1282.36,-140.73 1288.3,-139.39"/>
<polygon fill="midnightblue" stroke="midnightblue" points="1289.21,-142.77 1298.13,-137.06 1287.59,-135.96 1289.21,-142.77"/>
</g>
<!-- Node21 -->
<g id="node21" class="node">
<title>Node21</title>
<g id="a_node21"><a xlink:href="../../d3/d35/cg__userweapons_8h.html" target="_top" xlink:title=" ">
<polygon fill="none" stroke="black" points="1398,-118 1398,-137 1505,-137 1505,-118 1398,-118"/>
<text text-anchor="middle" x="1451.5" y="-125" font-family="Helvetica,sans-Serif" font-size="10.00">cg_userweapons.h</text>
</a>
</g>
</g>
<!-- Node2&#45;&gt;Node21 -->
<g id="edge20" class="edge">
<title>Node2&#45;&gt;Node21</title>
<path fill="none" stroke="midnightblue" d="M871.24,-186.97C956.76,-183.93 1193.71,-173.22 1388.5,-143 1394.98,-141.99 1401.78,-140.69 1408.42,-139.28"/>
<polygon fill="midnightblue" stroke="midnightblue" points="1409.65,-142.6 1418.65,-137.01 1408.13,-135.76 1409.65,-142.6"/>
</g>
<!-- Node22 -->
<g id="node22" class="node">
<title>Node22</title>
<g id="a_node22"><a xlink:href="../../de/d77/cg__auras_8h.html" target="_top" xlink:title=" ">
<polygon fill="none" stroke="black" points="633,-118 633,-137 702,-137 702,-118 633,-118"/>
<text text-anchor="middle" x="667.5" y="-125" font-family="Helvetica,sans-Serif" font-size="10.00">cg_auras.h</text>
</a>
</g>
</g>
<!-- Node2&#45;&gt;Node22 -->
<g id="edge21" class="edge">
<title>Node2&#45;&gt;Node22</title>
<path fill="none" stroke="midnightblue" d="M814,-179.48C784.54,-169.22 734.92,-151.96 701.7,-140.4"/>
<polygon fill="midnightblue" stroke="midnightblue" points="702.55,-136.99 691.95,-137.01 700.25,-143.6 702.55,-136.99"/>
</g>
<!-- Node23 -->
<g id="node23" class="node">
<title>Node23</title>
<g id="a_node23"><a xlink:href="../../dc/da7/cg__tiers_8h.html" target="_top" xlink:title=" ">
<polygon fill="none" stroke="black" points="720.5,-118 720.5,-137 784.5,-137 784.5,-118 720.5,-118"/>
<text text-anchor="middle" x="752.5" y="-125" font-family="Helvetica,sans-Serif" font-size="10.00">cg_tiers.h</text>
</a>
</g>
</g>
<!-- Node2&#45;&gt;Node23 -->
<g id="edge22" class="edge">
<title>Node2&#45;&gt;Node23</title>
<path fill="none" stroke="midnightblue" d="M826.18,-179.48C812.38,-169.93 789.8,-154.31 773.27,-142.87"/>
<polygon fill="midnightblue" stroke="midnightblue" points="775.01,-139.82 764.8,-137.01 771.03,-145.58 775.01,-139.82"/>
</g>
<!-- Node24 -->
<g id="node24" class="node">
<title>Node24</title>
<g id="a_node24"><a xlink:href="../../d8/db5/cg__music_8h.html" target="_top" xlink:title=" ">
<polygon fill="none" stroke="black" points="803,-118 803,-137 874,-137 874,-118 803,-118"/>
<text text-anchor="middle" x="838.5" y="-125" font-family="Helvetica,sans-Serif" font-size="10.00">cg_music.h</text>
</a>
</g>
</g>
<!-- Node2&#45;&gt;Node24 -->
<g id="edge23" class="edge">
<title>Node2&#45;&gt;Node24</title>
<path fill="none" stroke="midnightblue" d="M838.5,-179.48C838.5,-171.08 838.5,-157.98 838.5,-147.16"/>
<polygon fill="midnightblue" stroke="midnightblue" points="842,-147.01 838.5,-137.01 835,-147.01 842,-147.01"/>
</g>
<!-- Node25 -->
<g id="node25" class="node">
<title>Node25</title>
<g id="a_node25"><a xlink:href="../../d2/d3d/cg__public_8h.html" target="_top" xlink:title=" ">
<polygon fill="none" stroke="black" points="892,-118 892,-137 963,-137 963,-118 892,-118"/>
<text text-anchor="middle" x="927.5" y="-125" font-family="Helvetica,sans-Serif" font-size="10.00">cg_public.h</text>
</a>
</g>
</g>
<!-- Node2&#45;&gt;Node25 -->
<g id="edge24" class="edge">
<title>Node2&#45;&gt;Node25</title>
<path fill="none" stroke="midnightblue" d="M851.25,-179.48C865.53,-169.93 888.9,-154.31 906.01,-142.87"/>
<polygon fill="midnightblue" stroke="midnightblue" points="908.4,-145.48 914.77,-137.01 904.51,-139.66 908.4,-145.48"/>
</g>
<!-- Node4 -->
<g id="node4" class="node">
<title>Node4</title>
<g id="a_node4"><a xlink:href="../../dc/da7/assert_8h.html" target="_top" xlink:title=" ">
<polygon fill="none" stroke="black" points="3.5,-56.5 3.5,-75.5 59.5,-75.5 59.5,-56.5 3.5,-56.5"/>
<text text-anchor="middle" x="31.5" y="-63.5" font-family="Helvetica,sans-Serif" font-size="10.00">assert.h</text>
</a>
</g>
</g>
<!-- Node3&#45;&gt;Node4 -->
<g id="edge3" class="edge">
<title>Node3&#45;&gt;Node4</title>
<path fill="none" stroke="midnightblue" d="M382.54,-118C372.15,-115.88 360.93,-113.73 350.5,-112 229.01,-91.87 194.49,-98.6 69.66,-76.03"/>
<polygon fill="midnightblue" stroke="midnightblue" points="70.18,-72.57 59.71,-74.21 68.92,-79.45 70.18,-72.57"/>
</g>
<!-- Node6 -->
<g id="node6" class="node">
<title>Node6</title>
<g id="a_node6"><a xlink:title=" ">
<polygon fill="none" stroke="#bfbfbf" points="78,-56.5 78,-75.5 129,-75.5 129,-56.5 78,-56.5"/>
<text text-anchor="middle" x="103.5" y="-63.5" font-family="Helvetica,sans-Serif" font-size="10.00">math.h</text>
</a>
</g>
</g>
<!-- Node3&#45;&gt;Node6 -->
<g id="edge5" class="edge">
<title>Node3&#45;&gt;Node6</title>
<path fill="none" stroke="midnightblue" d="M381,-117.99C371.04,-115.96 360.39,-113.85 350.5,-112 259.68,-95.02 233.68,-95.84 139.05,-75.96"/>
<polygon fill="midnightblue" stroke="midnightblue" points="139.57,-72.49 129.06,-73.83 138.11,-79.34 139.57,-72.49"/>
</g>
<!-- Node7 -->
<g id="node7" class="node">
<title>Node7</title>
<g id="a_node7"><a xlink:title=" ">
<polygon fill="none" stroke="#bfbfbf" points="147.5,-56.5 147.5,-75.5 197.5,-75.5 197.5,-56.5 147.5,-56.5"/>
<text text-anchor="middle" x="172.5" y="-63.5" font-family="Helvetica,sans-Serif" font-size="10.00">stdio.h</text>
</a>
</g>
</g>
<!-- Node3&#45;&gt;Node7 -->
<g id="edge6" class="edge">
<title>Node3&#45;&gt;Node7</title>
<path fill="none" stroke="midnightblue" d="M383.75,-117.97C342.77,-108.64 275.15,-93.02 207.68,-76.25"/>
<polygon fill="midnightblue" stroke="midnightblue" points="208.28,-72.79 197.73,-73.76 206.59,-79.58 208.28,-72.79"/>
</g>
<!-- Node8 -->
<g id="node8" class="node">
<title>Node8</title>
<g id="a_node8"><a xlink:title=" ">
<polygon fill="none" stroke="#bfbfbf" points="215.5,-56.5 215.5,-75.5 271.5,-75.5 271.5,-56.5 215.5,-56.5"/>
<text text-anchor="middle" x="243.5" y="-63.5" font-family="Helvetica,sans-Serif" font-size="10.00">stdarg.h</text>
</a>
</g>
</g>
<!-- Node3&#45;&gt;Node8 -->
<g id="edge7" class="edge">
<title>Node3&#45;&gt;Node8</title>
<path fill="none" stroke="midnightblue" d="M396,-117.98C365.2,-107.68 313.23,-90.31 278.65,-78.75"/>
<polygon fill="midnightblue" stroke="midnightblue" points="279.55,-75.36 268.96,-75.51 277.33,-82 279.55,-75.36"/>
</g>
<!-- Node9 -->
<g id="node9" class="node">
<title>Node9</title>
<g id="a_node9"><a xlink:title=" ">
<polygon fill="none" stroke="#bfbfbf" points="290,-56.5 290,-75.5 343,-75.5 343,-56.5 290,-56.5"/>
<text text-anchor="middle" x="316.5" y="-63.5" font-family="Helvetica,sans-Serif" font-size="10.00">string.h</text>
</a>
</g>
</g>
<!-- Node3&#45;&gt;Node9 -->
<g id="edge8" class="edge">
<title>Node3&#45;&gt;Node9</title>
<path fill="none" stroke="midnightblue" d="M406.46,-117.98C389.22,-108.21 360.76,-92.08 340.47,-80.58"/>
<polygon fill="midnightblue" stroke="midnightblue" points="341.94,-77.39 331.52,-75.51 338.49,-83.48 341.94,-77.39"/>
</g>
<!-- Node10 -->
<g id="node10" class="node">
<title>Node10</title>
<g id="a_node10"><a xlink:title=" ">
<polygon fill="none" stroke="#bfbfbf" points="361,-56.5 361,-75.5 414,-75.5 414,-56.5 361,-56.5"/>
<text text-anchor="middle" x="387.5" y="-63.5" font-family="Helvetica,sans-Serif" font-size="10.00">stdlib.h</text>
</a>
</g>
</g>
<!-- Node3&#45;&gt;Node10 -->
<g id="edge9" class="edge">
<title>Node3&#45;&gt;Node10</title>
<path fill="none" stroke="midnightblue" d="M416.63,-117.98C411.63,-109.23 403.71,-95.37 397.39,-84.31"/>
<polygon fill="midnightblue" stroke="midnightblue" points="400.36,-82.46 392.36,-75.51 394.28,-85.93 400.36,-82.46"/>
</g>
<!-- Node11 -->
<g id="node11" class="node">
<title>Node11</title>
<g id="a_node11"><a xlink:title=" ">
<polygon fill="none" stroke="#bfbfbf" points="432.5,-56.5 432.5,-75.5 480.5,-75.5 480.5,-56.5 432.5,-56.5"/>
<text text-anchor="middle" x="456.5" y="-63.5" font-family="Helvetica,sans-Serif" font-size="10.00">time.h</text>
</a>
</g>
</g>
<!-- Node3&#45;&gt;Node11 -->
<g id="edge10" class="edge">
<title>Node3&#45;&gt;Node11</title>
<path fill="none" stroke="midnightblue" d="M426.51,-117.98C431.66,-109.23 439.81,-95.37 446.32,-84.31"/>
<polygon fill="midnightblue" stroke="midnightblue" points="449.44,-85.9 451.49,-75.51 443.41,-82.35 449.44,-85.9"/>
</g>
<!-- Node12 -->
<g id="node12" class="node">
<title>Node12</title>
<g id="a_node12"><a xlink:title=" ">
<polygon fill="none" stroke="#bfbfbf" points="499,-56.5 499,-75.5 552,-75.5 552,-56.5 499,-56.5"/>
<text text-anchor="middle" x="525.5" y="-63.5" font-family="Helvetica,sans-Serif" font-size="10.00">ctype.h</text>
</a>
</g>
</g>
<!-- Node3&#45;&gt;Node12 -->
<g id="edge11" class="edge">
<title>Node3&#45;&gt;Node12</title>
<path fill="none" stroke="midnightblue" d="M436.4,-117.98C453.47,-108.21 481.66,-92.08 501.76,-80.58"/>
<polygon fill="midnightblue" stroke="midnightblue" points="503.69,-83.51 510.63,-75.51 500.21,-77.44 503.69,-83.51"/>
</g>
<!-- Node13 -->
<g id="node13" class="node">
<title>Node13</title>
<g id="a_node13"><a xlink:title=" ">
<polygon fill="none" stroke="#bfbfbf" points="570,-56.5 570,-75.5 623,-75.5 623,-56.5 570,-56.5"/>
<text text-anchor="middle" x="596.5" y="-63.5" font-family="Helvetica,sans-Serif" font-size="10.00">limits.h</text>
</a>
</g>
</g>
<!-- Node3&#45;&gt;Node13 -->
<g id="edge12" class="edge">
<title>Node3&#45;&gt;Node13</title>
<path fill="none" stroke="midnightblue" d="M446.57,-117.98C476.85,-107.68 527.94,-90.31 561.94,-78.75"/>
<polygon fill="midnightblue" stroke="midnightblue" points="563.13,-82.04 571.47,-75.51 560.88,-75.41 563.13,-82.04"/>
</g>
<!-- Node14 -->
<g id="node14" class="node">
<title>Node14</title>
<g id="a_node14"><a xlink:title=" ">
<polygon fill="none" stroke="#bfbfbf" points="641,-56.5 641,-75.5 694,-75.5 694,-56.5 641,-56.5"/>
<text text-anchor="middle" x="667.5" y="-63.5" font-family="Helvetica,sans-Serif" font-size="10.00">stdint.h</text>
</a>
</g>
</g>
<!-- Node3&#45;&gt;Node14 -->
<g id="edge13" class="edge">
<title>Node3&#45;&gt;Node14</title>
<path fill="none" stroke="midnightblue" d="M458.14,-117.93C498.28,-108.49 564.84,-92.72 631,-76.35"/>
<polygon fill="midnightblue" stroke="midnightblue" points="631.9,-79.73 640.76,-73.93 630.21,-72.94 631.9,-79.73"/>
</g>
<!-- Node15 -->
<g id="node15" class="node">
<title>Node15</title>
<g id="a_node15"><a xlink:href="../../d7/de2/q__platform_8h.html" target="_top" xlink:title=" ">
<polygon fill="none" stroke="black" points="712,-56.5 712,-75.5 791,-75.5 791,-56.5 712,-56.5"/>
<text text-anchor="middle" x="751.5" y="-63.5" font-family="Helvetica,sans-Serif" font-size="10.00">q_platform.h</text>
</a>
</g>
</g>
<!-- Node3&#45;&gt;Node15 -->
<g id="edge14" class="edge">
<title>Node3&#45;&gt;Node15</title>
<path fill="none" stroke="midnightblue" d="M462.96,-117.94C472.95,-115.93 483.6,-113.85 493.5,-112 583.5,-95.23 608.64,-92.87 702.08,-76.23"/>
<polygon fill="midnightblue" stroke="midnightblue" points="702.73,-79.67 711.96,-74.46 701.5,-72.78 702.73,-79.67"/>
</g>
<!-- Node16 -->
<g id="node16" class="node">
<title>Node16</title>
<g id="a_node16"><a xlink:href="../../d2/d56/surfaceflags_8h.html" target="_top" xlink:title=" ">
<polygon fill="none" stroke="black" points="809,-56.5 809,-75.5 894,-75.5 894,-56.5 809,-56.5"/>
<text text-anchor="middle" x="851.5" y="-63.5" font-family="Helvetica,sans-Serif" font-size="10.00">surfaceflags.h</text>
</a>
</g>
</g>
<!-- Node3&#45;&gt;Node16 -->
<g id="edge15" class="edge">
<title>Node3&#45;&gt;Node16</title>
<path fill="none" stroke="midnightblue" d="M461.01,-117.94C471.53,-115.82 482.92,-113.68 493.5,-112 625.99,-90.93 662.86,-95.7 798.98,-76.15"/>
<polygon fill="midnightblue" stroke="midnightblue" points="799.56,-79.6 808.95,-74.7 798.55,-72.67 799.56,-79.6"/>
</g>
<!-- Node5 -->
<g id="node5" class="node">
<title>Node5</title>
<g id="a_node5"><a xlink:href="../../da/d3d/__mingw_8h.html" target="_top" xlink:title=" ">
<polygon fill="none" stroke="black" points="0,-0.5 0,-19.5 63,-19.5 63,-0.5 0,-0.5"/>
<text text-anchor="middle" x="31.5" y="-7.5" font-family="Helvetica,sans-Serif" font-size="10.00">_mingw.h</text>
</a>
</g>
</g>
<!-- Node4&#45;&gt;Node5 -->
<g id="edge4" class="edge">
<title>Node4&#45;&gt;Node5</title>
<path fill="none" stroke="midnightblue" d="M31.5,-56.08C31.5,-49.01 31.5,-38.86 31.5,-29.99"/>
<polygon fill="midnightblue" stroke="midnightblue" points="35,-29.75 31.5,-19.75 28,-29.75 35,-29.75"/>
</g>
<!-- Node26&#45;&gt;Node3 -->
<g id="edge26" class="edge">
<title>Node26&#45;&gt;Node3</title>
<path fill="none" stroke="midnightblue" d="M421.5,-179.48C421.5,-171.08 421.5,-157.98 421.5,-147.16"/>
<polygon fill="midnightblue" stroke="midnightblue" points="425,-147.01 421.5,-137.01 418,-147.01 425,-147.01"/>
</g>
<!-- Node26&#45;&gt;Node17 -->
<g id="edge27" class="edge">
<title>Node26&#45;&gt;Node17</title>
<path fill="none" stroke="midnightblue" d="M441.13,-179.48C460.81,-170.93 491.72,-157.5 516.89,-146.57"/>
<polygon fill="midnightblue" stroke="midnightblue" points="518.43,-149.72 526.21,-142.52 515.65,-143.3 518.43,-149.72"/>
</g>
<!-- Node27 -->
<g id="node27" class="node">
<title>Node27</title>
<g id="a_node27"><a xlink:href="../../dc/d0e/keycodes_8h.html" target="_top" xlink:title=" ">
<polygon fill="none" stroke="black" points="103.5,-112.5 103.5,-142.5 201.5,-142.5 201.5,-112.5 103.5,-112.5"/>
<text text-anchor="start" x="111.5" y="-130.5" font-family="Helvetica,sans-Serif" font-size="10.00">../../Engine/client</text>
<text text-anchor="middle" x="152.5" y="-119.5" font-family="Helvetica,sans-Serif" font-size="10.00">/keycodes.h</text>
</a>
</g>
</g>
<!-- Node26&#45;&gt;Node27 -->
<g id="edge28" class="edge">
<title>Node26&#45;&gt;Node27</title>
<path fill="none" stroke="midnightblue" d="M379.98,-179.48C337.56,-170.69 269.82,-156.41 211.5,-143 211.4,-142.98 211.3,-142.95 211.2,-142.93"/>
<polygon fill="midnightblue" stroke="midnightblue" points="212.26,-139.59 201.73,-140.72 210.67,-146.4 212.26,-139.59"/>
</g>
<!-- Node28 -->
<g id="node28" class="node">
<title>Node28</title>
<g id="a_node28"><a xlink:href="../../db/d51/menudef_8h.html" target="_top" xlink:title=" ">
<polygon fill="none" stroke="black" points="220,-118 220,-137 341,-137 341,-118 220,-118"/>
<text text-anchor="middle" x="280.5" y="-125" font-family="Helvetica,sans-Serif" font-size="10.00">./menudef/menudef.h</text>
</a>
</g>
</g>
<!-- Node26&#45;&gt;Node28 -->
<g id="edge29" class="edge">
<title>Node26&#45;&gt;Node28</title>
<path fill="none" stroke="midnightblue" d="M401.3,-179.48C377.43,-169.4 337.5,-152.55 310.13,-141"/>
<polygon fill="midnightblue" stroke="midnightblue" points="311.24,-137.67 300.66,-137.01 308.52,-144.12 311.24,-137.67"/>
</g>
</g>
</svg>
        <g id="navigator" transform="translate(0 0)" fill="#404254">
                <rect fill="#f2f5e9" fill-opacity="0.5" stroke="#606060" stroke-width=".5" x="0" y="0" width="60" height="60"/>
                <use id="zoomplus" xlink:href="#zoomPlus" x="17" y="9" onmousedown="handleZoom(evt,'in')"/>
                <use id="zoomminus" xlink:href="#zoomMin" x="42" y="9" onmousedown="handleZoom(evt,'out')"/>
                <use id="reset" xlink:href="#resetDef" x="30" y="36" onmousedown="handleReset()"/>
                <g id="arrowUp" xlink:href="#dirArrow" transform="translate(30 24)" onmousedown="handlePan(0,-1)">
                  <use xlink:href="#rim" fill="#404040">
                        <set attributeName="fill" to="#808080" begin="arrowUp.mouseover" end="arrowUp.mouseout"/>
                  </use>
                  <path fill="none" stroke="white" stroke-width="1.5" d="M0,-3.0v7 M-2.5,-0.5L0,-3.0L2.5,-0.5"/>
                </g>
                <g id="arrowRight" xlink:href="#dirArrow" transform="rotate(90) translate(36 -43)" onmousedown="handlePan(1,0)">
                  <use xlink:href="#rim" fill="#404040">
                        <set attributeName="fill" to="#808080" begin="arrowRight.mouseover" end="arrowRight.mouseout"/>
                  </use>
                  <path fill="none" stroke="white" stroke-width="1.5" d="M0,-3.0v7 M-2.5,-0.5L0,-3.0L2.5,-0.5"/>
                </g>
                <g id="arrowDown" xlink:href="#dirArrow" transform="rotate(180) translate(-30 -48)" onmousedown="handlePan(0,1)">
                  <use xlink:href="#rim" fill="#404040">
                        <set attributeName="fill" to="#808080" begin="arrowDown.mouseover" end="arrowDown.mouseout"/>
                  </use>
                  <path fill="none" stroke="white" stroke-width="1.5" d="M0,-3.0v7 M-2.5,-0.5L0,-3.0L2.5,-0.5"/>
                </g>
                <g id="arrowLeft" xlink:href="#dirArrow" transform="rotate(270) translate(-36 17)" onmousedown="handlePan(-1,0)">
                  <use xlink:href="#rim" fill="#404040">
                        <set attributeName="fill" to="#808080" begin="arrowLeft.mouseover" end="arrowLeft.mouseout"/>
                  </use>
                  <path fill="none" stroke="white" stroke-width="1.5" d="M0,-3.0v7 M-2.5,-0.5L0,-3.0L2.5,-0.5"/>
                </g>
        </g>
        <svg viewBox="0 0 15 15" width="100%" height="30px" preserveAspectRatio="xMaxYMin meet">
         <g id="arrow_out" transform="scale(0.3 0.3)">
          <a xlink:href="cg__consolecmds_8c__incl_org.svg" target="_base">
           <rect id="button" ry="5" rx="5" y="6" x="6" height="38" width="38"
                fill="#f2f5e9" fill-opacity="0.5" stroke="#606060" stroke-width="1.0"/>
           <path id="arrow"
             d="M 11.500037,31.436501 C 11.940474,20.09759 22.043105,11.32322 32.158766,21.979434 L 37.068811,17.246167 C 37.068811,17.246167 37.088388,32 37.088388,32 L 22.160133,31.978069 C 22.160133,31.978069 26.997745,27.140456 26.997745,27.140456 C 18.528582,18.264221 13.291696,25.230495 11.500037,31.436501 z"
             style="fill:#404040;"/>
          </a>
         </g>
        </svg>
</svg>
