<?xml version="1.0" encoding="UTF-8" standalone="no"?>
<!DOCTYPE svg PUBLIC "-//W3C//DTD SVG 1.1//EN"
 "http://www.w3.org/Graphics/SVG/1.1/DTD/svg11.dtd">
<!-- Generated by graphviz version 2.43.0 (0)
 -->
<!-- Title: _PCI_COMMON_CONFIG Pages: 1 -->
<!--zoomable 467 -->
<svg id="main" version="1.1" xmlns="http://www.w3.org/2000/svg" xmlns:xlink="http://www.w3.org/1999/xlink" xml:space="preserve" onload="init(evt)">
<style type="text/css"><![CDATA[
.edge:hover path { stroke: red; }
.edge:hover polygon { stroke: red; fill: red; }
]]></style>
<script type="text/javascript"><![CDATA[
var edges = document.getElementsByTagName('g');
if (edges && edges.length) {
  for (var i=0;i<edges.length;i++) {
    if (edges[i].id.substr(0,4)=='edge') {
      edges[i].setAttribute('class','edge');
    }
  }
}
]]></script>
        <defs>
                <circle id="rim" cx="0" cy="0" r="7"/>
                <circle id="rim2" cx="0" cy="0" r="3.5"/>
                <g id="zoomPlus">
                        <use xlink:href="#rim" fill="#404040">
                                <set attributeName="fill" to="#808080" begin="zoomplus.mouseover" end="zoomplus.mouseout"/>
                        </use>
                        <path d="M-4,0h8M0,-4v8" fill="none" stroke="white" stroke-width="1.5" pointer-events="none"/>
                </g>
                <g id="zoomMin">
                        <use xlink:href="#rim" fill="#404040">
                                <set attributeName="fill" to="#808080" begin="zoomminus.mouseover" end="zoomminus.mouseout"/>
                        </use>
                        <path d="M-4,0h8" fill="none" stroke="white" stroke-width="1.5" pointer-events="none"/>
                </g>
                <g id="dirArrow">
                        <path fill="none" stroke="white" stroke-width="1.5" d="M0,-3.0v7 M-2.5,-0.5L0,-3.0L2.5,-0.5"/>
                </g>
               <g id="resetDef">
                       <use xlink:href="#rim2" fill="#404040">
                               <set attributeName="fill" to="#808080" begin="reset.mouseover" end="reset.mouseout"/>
                       </use>
               </g>
        </defs>

<script type="text/javascript">
var viewWidth = 483;
var viewHeight = 467;
var sectionId = 'dynsection-0';
</script>
<script xlink:href="../../svgpan.js"/>
<svg id="graph" class="graph">
<g id="viewport">
<title>_PCI_COMMON_CONFIG</title>
<!-- Node1 -->
<g id="node1" class="node">
<title>Node1</title>
<g id="a_node1"><a xlink:title=" ">
<polygon fill="#bfbfbf" stroke="black" points="341,-329.58 341,-348.58 475,-348.58 475,-329.58 341,-329.58"/>
<text text-anchor="middle" x="408" y="-336.58" font-family="Helvetica,sans-Serif" font-size="10.00">_PCI_COMMON_CONFIG</text>
</a>
</g>
</g>
<!-- Node2 -->
<g id="node2" class="node">
<title>Node2</title>
<g id="a_node2"><a xlink:title=" ">
<polygon fill="none" stroke="#bfbfbf" points="57.5,-439.58 57.5,-458.58 140.5,-458.58 140.5,-439.58 57.5,-439.58"/>
<text text-anchor="middle" x="99" y="-446.58" font-family="Helvetica,sans-Serif" font-size="10.00">anonymous:u</text>
</a>
</g>
</g>
<!-- Node2&#45;&gt;Node1 -->
<g id="edge1" class="edge">
<title>Node2&#45;&gt;Node1</title>
<path fill="none" stroke="#9a32cd" stroke-dasharray="5,2" d="M150.84,-448.82C197.64,-446.78 267.94,-439.08 323,-413.08 356.04,-397.48 385.85,-364.89 399.36,-348.67"/>
<polygon fill="#9a32cd" stroke="#9a32cd" points="150.51,-445.33 140.64,-449.19 150.76,-452.33 150.51,-445.33"/>
<text text-anchor="middle" x="269.5" y="-445.08" font-family="Helvetica,sans-Serif" font-size="10.00"> u</text>
</g>
<!-- Node3 -->
<g id="node3" class="node">
<title>Node3</title>
<g id="a_node3"><a xlink:title=" ">
<polygon fill="none" stroke="#bfbfbf" points="45.5,-401.58 45.5,-420.58 152.5,-420.58 152.5,-401.58 45.5,-401.58"/>
<text text-anchor="middle" x="99" y="-408.58" font-family="Helvetica,sans-Serif" font-size="10.00">anonymous:Range</text>
</a>
</g>
</g>
<!-- Node3&#45;&gt;Node1 -->
<g id="edge2" class="edge">
<title>Node3&#45;&gt;Node1</title>
<path fill="none" stroke="#9a32cd" stroke-dasharray="5,2" d="M162.67,-406.15C207.92,-401.47 270.11,-392.75 323,-377.08 346.94,-369.99 372.9,-357.43 389.52,-348.7"/>
<polygon fill="#9a32cd" stroke="#9a32cd" points="162.31,-402.66 152.7,-407.14 163,-409.63 162.31,-402.66"/>
<text text-anchor="middle" x="269.5" y="-401.08" font-family="Helvetica,sans-Serif" font-size="10.00"> Range</text>
</g>
<!-- Node4 -->
<g id="node4" class="node">
<title>Node4</title>
<g id="a_node4"><a xlink:title=" ">
<polygon fill="none" stroke="#bfbfbf" points="47,-363.58 47,-382.58 151,-382.58 151,-363.58 47,-363.58"/>
<text text-anchor="middle" x="99" y="-370.58" font-family="Helvetica,sans-Serif" font-size="10.00">anonymous:type0</text>
</a>
</g>
</g>
<!-- Node4&#45;&gt;Node1 -->
<g id="edge3" class="edge">
<title>Node4&#45;&gt;Node1</title>
<path fill="none" stroke="#9a32cd" stroke-dasharray="5,2" d="M161.59,-367.73C206.41,-363.66 268.54,-357.66 323,-351.08 329.29,-350.32 335.83,-349.48 342.37,-348.6"/>
<polygon fill="#9a32cd" stroke="#9a32cd" points="161.09,-364.26 151.44,-368.65 161.72,-371.24 161.09,-364.26"/>
<text text-anchor="middle" x="269.5" y="-365.08" font-family="Helvetica,sans-Serif" font-size="10.00"> type0</text>
</g>
<!-- Node5 -->
<g id="node5" class="node">
<title>Node5</title>
<g id="a_node5"><a xlink:title=" ">
<polygon fill="none" stroke="#bfbfbf" points="47,-325.58 47,-344.58 151,-344.58 151,-325.58 47,-325.58"/>
<text text-anchor="middle" x="99" y="-332.58" font-family="Helvetica,sans-Serif" font-size="10.00">anonymous:type1</text>
</a>
</g>
</g>
<!-- Node5&#45;&gt;Node1 -->
<g id="edge4" class="edge">
<title>Node5&#45;&gt;Node1</title>
<path fill="none" stroke="#9a32cd" stroke-dasharray="5,2" d="M161.12,-335.88C213.06,-336.56 287.48,-337.53 340.82,-338.22"/>
<polygon fill="#9a32cd" stroke="#9a32cd" points="161.08,-332.38 151.04,-335.75 160.99,-339.38 161.08,-332.38"/>
<text text-anchor="middle" x="269.5" y="-340.08" font-family="Helvetica,sans-Serif" font-size="10.00"> type1</text>
</g>
<!-- Node6 -->
<g id="node6" class="node">
<title>Node6</title>
<g id="a_node6"><a xlink:title=" ">
<polygon fill="none" stroke="#bfbfbf" points="68.5,-186.58 68.5,-205.58 129.5,-205.58 129.5,-186.58 68.5,-186.58"/>
<text text-anchor="middle" x="99" y="-193.58" font-family="Helvetica,sans-Serif" font-size="10.00">unsigned</text>
</a>
</g>
</g>
<!-- Node6&#45;&gt;Node1 -->
<g id="edge5" class="edge">
<title>Node6&#45;&gt;Node1</title>
<path fill="none" stroke="#9a32cd" stroke-dasharray="5,2" d="M139.97,-188.67C187.14,-182.08 266.31,-177.97 323,-211.08 370.28,-238.7 395.86,-304.75 404.05,-329.5"/>
<polygon fill="#9a32cd" stroke="#9a32cd" points="139.21,-185.24 129.84,-190.19 140.25,-192.16 139.21,-185.24"/>
<text text-anchor="middle" x="269.5" y="-324.08" font-family="Helvetica,sans-Serif" font-size="10.00"> IOLimit</text>
<text text-anchor="middle" x="269.5" y="-313.08" font-family="Helvetica,sans-Serif" font-size="10.00">InterruptPin</text>
<text text-anchor="middle" x="269.5" y="-302.08" font-family="Helvetica,sans-Serif" font-size="10.00">Command</text>
<text text-anchor="middle" x="269.5" y="-291.08" font-family="Helvetica,sans-Serif" font-size="10.00">PrefetchLimit</text>
<text text-anchor="middle" x="269.5" y="-280.08" font-family="Helvetica,sans-Serif" font-size="10.00">SecondaryBus</text>
<text text-anchor="middle" x="269.5" y="-269.08" font-family="Helvetica,sans-Serif" font-size="10.00">VendorID</text>
<text text-anchor="middle" x="269.5" y="-258.08" font-family="Helvetica,sans-Serif" font-size="10.00">MemoryLimit</text>
<text text-anchor="middle" x="269.5" y="-247.08" font-family="Helvetica,sans-Serif" font-size="10.00">InterruptLine</text>
<text text-anchor="middle" x="269.5" y="-236.08" font-family="Helvetica,sans-Serif" font-size="10.00">SubVendorID</text>
<text text-anchor="middle" x="269.5" y="-225.08" font-family="Helvetica,sans-Serif" font-size="10.00">ProgIf</text>
<text text-anchor="middle" x="269.5" y="-214.08" font-family="Helvetica,sans-Serif" font-size="10.00">...</text>
</g>
<!-- Node7 -->
<g id="node7" class="node">
<title>Node7</title>
<g id="a_node7"><a xlink:title=" ">
<polygon fill="none" stroke="#bfbfbf" points="47,-148.58 47,-167.58 151,-167.58 151,-148.58 47,-148.58"/>
<text text-anchor="middle" x="99" y="-155.58" font-family="Helvetica,sans-Serif" font-size="10.00">anonymous:type2</text>
</a>
</g>
</g>
<!-- Node7&#45;&gt;Node1 -->
<g id="edge6" class="edge">
<title>Node7&#45;&gt;Node1</title>
<path fill="none" stroke="#9a32cd" stroke-dasharray="5,2" d="M150.71,-146.88C199.05,-139.16 271.86,-135.54 323,-169.08 381.63,-207.54 400.85,-299.69 405.65,-329.56"/>
<polygon fill="#9a32cd" stroke="#9a32cd" points="150.05,-143.45 140.78,-148.58 151.23,-150.34 150.05,-143.45"/>
<text text-anchor="middle" x="269.5" y="-172.08" font-family="Helvetica,sans-Serif" font-size="10.00"> type2</text>
</g>
<!-- Node8 -->
<g id="node8" class="node">
<title>Node8</title>
<g id="a_node8"><a xlink:title=" ">
<polygon fill="none" stroke="#bfbfbf" points="0,-6.58 0,-47.58 198,-47.58 198,-6.58 0,-6.58"/>
<text text-anchor="start" x="8" y="-35.58" font-family="Helvetica,sans-Serif" font-size="10.00">PSecurityUserData *typedef</text>
<text text-anchor="start" x="8" y="-24.58" font-family="Helvetica,sans-Serif" font-size="10.00"> PSECPKG_EXTENDED_INFORMATION</text>
<text text-anchor="middle" x="99" y="-13.58" font-family="Helvetica,sans-Serif" font-size="10.00"> *typedef</text>
</a>
</g>
</g>
<!-- Node8&#45;&gt;Node1 -->
<g id="edge7" class="edge">
<title>Node8&#45;&gt;Node1</title>
<path fill="none" stroke="#9a32cd" stroke-dasharray="5,2" d="M180.39,-4.74C226.61,3.06 283.21,3.41 323,-27.08 373.53,-65.81 400.5,-281.17 405.96,-329.47"/>
<polygon fill="#9a32cd" stroke="#9a32cd" points="179.6,-1.33 170.4,-6.57 180.86,-8.21 179.6,-1.33"/>
<text text-anchor="middle" x="269.5" y="-129.08" font-family="Helvetica,sans-Serif" font-size="10.00"> Base</text>
<text text-anchor="start" x="216" y="-118.08" font-family="Helvetica,sans-Serif" font-size="10.00">SocketRegistersBase</text>
<text text-anchor="middle" x="269.5" y="-107.08" font-family="Helvetica,sans-Serif" font-size="10.00">Address</text>
<text text-anchor="middle" x="269.5" y="-96.08" font-family="Helvetica,sans-Serif" font-size="10.00">BaseAddresses</text>
<text text-anchor="middle" x="269.5" y="-85.08" font-family="Helvetica,sans-Serif" font-size="10.00">Limit</text>
<text text-anchor="middle" x="269.5" y="-74.08" font-family="Helvetica,sans-Serif" font-size="10.00">Reserved2</text>
<text text-anchor="middle" x="269.5" y="-63.08" font-family="Helvetica,sans-Serif" font-size="10.00">CIS</text>
<text text-anchor="middle" x="269.5" y="-52.08" font-family="Helvetica,sans-Serif" font-size="10.00">ROMBaseAddress</text>
<text text-anchor="middle" x="269.5" y="-41.08" font-family="Helvetica,sans-Serif" font-size="10.00">PrefetchBaseUpper32</text>
<text text-anchor="middle" x="269.5" y="-30.08" font-family="Helvetica,sans-Serif" font-size="10.00">PrefetchLimitUpper32</text>
</g>
</g>
</svg>
        <g id="navigator" transform="translate(0 0)" fill="#404254">
                <rect fill="#f2f5e9" fill-opacity="0.5" stroke="#606060" stroke-width=".5" x="0" y="0" width="60" height="60"/>
                <use id="zoomplus" xlink:href="#zoomPlus" x="17" y="9" onmousedown="handleZoom(evt,'in')"/>
                <use id="zoomminus" xlink:href="#zoomMin" x="42" y="9" onmousedown="handleZoom(evt,'out')"/>
                <use id="reset" xlink:href="#resetDef" x="30" y="36" onmousedown="handleReset()"/>
                <g id="arrowUp" xlink:href="#dirArrow" transform="translate(30 24)" onmousedown="handlePan(0,-1)">
                  <use xlink:href="#rim" fill="#404040">
                        <set attributeName="fill" to="#808080" begin="arrowUp.mouseover" end="arrowUp.mouseout"/>
                  </use>
                  <path fill="none" stroke="white" stroke-width="1.5" d="M0,-3.0v7 M-2.5,-0.5L0,-3.0L2.5,-0.5"/>
                </g>
                <g id="arrowRight" xlink:href="#dirArrow" transform="rotate(90) translate(36 -43)" onmousedown="handlePan(1,0)">
                  <use xlink:href="#rim" fill="#404040">
                        <set attributeName="fill" to="#808080" begin="arrowRight.mouseover" end="arrowRight.mouseout"/>
                  </use>
                  <path fill="none" stroke="white" stroke-width="1.5" d="M0,-3.0v7 M-2.5,-0.5L0,-3.0L2.5,-0.5"/>
                </g>
                <g id="arrowDown" xlink:href="#dirArrow" transform="rotate(180) translate(-30 -48)" onmousedown="handlePan(0,1)">
                  <use xlink:href="#rim" fill="#404040">
                        <set attributeName="fill" to="#808080" begin="arrowDown.mouseover" end="arrowDown.mouseout"/>
                  </use>
                  <path fill="none" stroke="white" stroke-width="1.5" d="M0,-3.0v7 M-2.5,-0.5L0,-3.0L2.5,-0.5"/>
                </g>
                <g id="arrowLeft" xlink:href="#dirArrow" transform="rotate(270) translate(-36 17)" onmousedown="handlePan(-1,0)">
                  <use xlink:href="#rim" fill="#404040">
                        <set attributeName="fill" to="#808080" begin="arrowLeft.mouseover" end="arrowLeft.mouseout"/>
                  </use>
                  <path fill="none" stroke="white" stroke-width="1.5" d="M0,-3.0v7 M-2.5,-0.5L0,-3.0L2.5,-0.5"/>
                </g>
        </g>
        <svg viewBox="0 0 15 15" width="100%" height="30px" preserveAspectRatio="xMaxYMin meet">
         <g id="arrow_out" transform="scale(0.3 0.3)">
          <a xlink:href="struct__PCI__COMMON__CONFIG__coll__graph_org.svg" target="_base">
           <rect id="button" ry="5" rx="5" y="6" x="6" height="38" width="38"
                fill="#f2f5e9" fill-opacity="0.5" stroke="#606060" stroke-width="1.0"/>
           <path id="arrow"
             d="M 11.500037,31.436501 C 11.940474,20.09759 22.043105,11.32322 32.158766,21.979434 L 37.068811,17.246167 C 37.068811,17.246167 37.088388,32 37.088388,32 L 22.160133,31.978069 C 22.160133,31.978069 26.997745,27.140456 26.997745,27.140456 C 18.528582,18.264221 13.291696,25.230495 11.500037,31.436501 z"
             style="fill:#404040;"/>
          </a>
         </g>
        </svg>
</svg>
