<?xml version="1.0" encoding="UTF-8" standalone="no"?>
<!DOCTYPE svg PUBLIC "-//W3C//DTD SVG 1.1//EN"
 "http://www.w3.org/Graphics/SVG/1.1/DTD/svg11.dtd">
<!-- Generated by graphviz version 2.43.0 (0)
 -->
<!-- Title: _SERVICE_INFOW Pages: 1 -->
<svg width="551pt" height="128pt"
 viewBox="0.00 0.00 550.50 128.00" xmlns="http://www.w3.org/2000/svg" xmlns:xlink="http://www.w3.org/1999/xlink">
<g id="graph0" class="graph" transform="scale(1 1) rotate(0) translate(4 124)">
<title>_SERVICE_INFOW</title>
<!-- Node1 -->
<g id="node1" class="node">
<title>Node1</title>
<g id="a_node1"><a xlink:title=" ">
<polygon fill="#bfbfbf" stroke="black" points="190.5,-0.5 190.5,-19.5 292.5,-19.5 292.5,-0.5 190.5,-0.5"/>
<text text-anchor="middle" x="241.5" y="-7.5" font-family="Helvetica,sans-Serif" font-size="10.00">_SERVICE_INFOW</text>
</a>
</g>
</g>
<!-- Node2 -->
<g id="node2" class="node">
<title>Node2</title>
<g id="a_node2"><a xlink:title=" ">
<polygon fill="none" stroke="#bfbfbf" points="0,-100.5 0,-119.5 89,-119.5 89,-100.5 0,-100.5"/>
<text text-anchor="middle" x="44.5" y="-107.5" font-family="Helvetica,sans-Serif" font-size="10.00">unsigned short</text>
</a>
</g>
</g>
<!-- Node2&#45;&gt;Node1 -->
<g id="edge1" class="edge">
<title>Node2&#45;&gt;Node1</title>
<path fill="none" stroke="#9a32cd" stroke-dasharray="5,2" d="M44.48,-90.03C45.55,-73.77 49.83,-50.97 64.5,-38 82.73,-21.89 144.82,-15.39 190.33,-12.77"/>
<polygon fill="#9a32cd" stroke="#9a32cd" points="40.97,-90.39 44.17,-100.49 47.96,-90.6 40.97,-90.39"/>
<text text-anchor="middle" x="104.5" y="-74" font-family="Helvetica,sans-Serif" font-size="10.00"> lpLocale</text>
<text text-anchor="middle" x="104.5" y="-63" font-family="Helvetica,sans-Serif" font-size="10.00">lpServiceName</text>
<text text-anchor="middle" x="104.5" y="-52" font-family="Helvetica,sans-Serif" font-size="10.00">lpMachineName</text>
<text text-anchor="middle" x="104.5" y="-41" font-family="Helvetica,sans-Serif" font-size="10.00">lpComment</text>
</g>
<!-- Node3 -->
<g id="node3" class="node">
<title>Node3</title>
<g id="a_node3"><a xlink:title=" ">
<polygon fill="none" stroke="#bfbfbf" points="126.5,-100.5 126.5,-119.5 168.5,-119.5 168.5,-100.5 126.5,-100.5"/>
<text text-anchor="middle" x="147.5" y="-107.5" font-family="Helvetica,sans-Serif" font-size="10.00">GUID</text>
</a>
</g>
</g>
<!-- Node3&#45;&gt;Node1 -->
<g id="edge2" class="edge">
<title>Node3&#45;&gt;Node1</title>
<path fill="none" stroke="#9a32cd" stroke-dasharray="5,2" d="M147.88,-90.21C149.18,-74.42 153.44,-52.21 166.5,-38 174.37,-29.44 185.15,-23.59 196.08,-19.6"/>
<polygon fill="#9a32cd" stroke="#9a32cd" points="144.37,-90.21 147.37,-100.37 151.37,-90.56 144.37,-90.21"/>
<text text-anchor="middle" x="202" y="-57.5" font-family="Helvetica,sans-Serif" font-size="10.00"> lpServiceType</text>
</g>
<!-- Node4 -->
<g id="node4" class="node">
<title>Node4</title>
<g id="a_node4"><a xlink:title=" ">
<polygon fill="none" stroke="#bfbfbf" points="222.5,-100.5 222.5,-119.5 260.5,-119.5 260.5,-100.5 222.5,-100.5"/>
<text text-anchor="middle" x="241.5" y="-107.5" font-family="Helvetica,sans-Serif" font-size="10.00">long</text>
</a>
</g>
</g>
<!-- Node4&#45;&gt;Node1 -->
<g id="edge3" class="edge">
<title>Node4&#45;&gt;Node1</title>
<path fill="none" stroke="#9a32cd" stroke-dasharray="5,2" d="M241.5,-90.22C241.5,-68.95 241.5,-35.22 241.5,-19.54"/>
<polygon fill="#9a32cd" stroke="#9a32cd" points="238,-90.3 241.5,-100.3 245,-90.3 238,-90.3"/>
<text text-anchor="middle" x="277.5" y="-68.5" font-family="Helvetica,sans-Serif" font-size="10.00"> dwVersion</text>
<text text-anchor="middle" x="277.5" y="-57.5" font-family="Helvetica,sans-Serif" font-size="10.00">dwDisplayHint</text>
<text text-anchor="middle" x="277.5" y="-46.5" font-family="Helvetica,sans-Serif" font-size="10.00">dwTime</text>
</g>
<!-- Node5 -->
<g id="node5" class="node">
<title>Node5</title>
<g id="a_node5"><a xlink:title=" ">
<polygon fill="none" stroke="#bfbfbf" points="315,-100.5 315,-119.5 358,-119.5 358,-100.5 315,-100.5"/>
<text text-anchor="middle" x="336.5" y="-107.5" font-family="Helvetica,sans-Serif" font-size="10.00">BLOB</text>
</a>
</g>
</g>
<!-- Node5&#45;&gt;Node1 -->
<g id="edge4" class="edge">
<title>Node5&#45;&gt;Node1</title>
<path fill="none" stroke="#9a32cd" stroke-dasharray="5,2" d="M335.21,-90.19C333.17,-74.39 327.93,-52.17 314.5,-38 306.41,-29.47 295.39,-23.62 284.37,-19.61"/>
<polygon fill="#9a32cd" stroke="#9a32cd" points="331.75,-90.75 336.2,-100.36 338.71,-90.07 331.75,-90.75"/>
<text text-anchor="middle" x="381.5" y="-57.5" font-family="Helvetica,sans-Serif" font-size="10.00"> ServiceSpecificInfo</text>
</g>
<!-- Node6 -->
<g id="node6" class="node">
<title>Node6</title>
<g id="a_node6"><a xlink:title=" ">
<polygon fill="none" stroke="#bfbfbf" points="376,-100.5 376,-119.5 537,-119.5 537,-100.5 376,-100.5"/>
<text text-anchor="middle" x="456.5" y="-107.5" font-family="Helvetica,sans-Serif" font-size="10.00">struct SERVICE_ADDRESSES *</text>
</a>
</g>
</g>
<!-- Node6&#45;&gt;Node1 -->
<g id="edge5" class="edge">
<title>Node6&#45;&gt;Node1</title>
<path fill="none" stroke="#9a32cd" stroke-dasharray="5,2" d="M455.75,-90.4C454.02,-74.03 448.82,-50.86 433.5,-38 412.75,-20.57 342.16,-14.39 292.63,-12.19"/>
<polygon fill="#9a32cd" stroke="#9a32cd" points="452.26,-90.71 456.46,-100.43 459.24,-90.21 452.26,-90.71"/>
<text text-anchor="middle" x="498.5" y="-57.5" font-family="Helvetica,sans-Serif" font-size="10.00"> lpServiceAddress</text>
</g>
</g>
</svg>
