<?xml version="1.0" encoding="UTF-8" standalone="no"?>
<!DOCTYPE svg PUBLIC "-//W3C//DTD SVG 1.1//EN"
 "http://www.w3.org/Graphics/SVG/1.1/DTD/svg11.dtd">
<!-- Generated by graphviz version 2.43.0 (0)
 -->
<!-- Title: Engine/libspeex/sb_celp.c Pages: 1 -->
<svg width="1142pt" height="319pt"
 viewBox="0.00 0.00 1142.00 319.00" xmlns="http://www.w3.org/2000/svg" xmlns:xlink="http://www.w3.org/1999/xlink">
<g id="graph0" class="graph" transform="scale(1 1) rotate(0) translate(4 315)">
<title>Engine/libspeex/sb_celp.c</title>
<!-- Node1 -->
<g id="node1" class="node">
<title>Node1</title>
<g id="a_node1"><a xlink:title=" ">
<polygon fill="#bfbfbf" stroke="black" points="577.5,-280.5 577.5,-310.5 685.5,-310.5 685.5,-280.5 577.5,-280.5"/>
<text text-anchor="start" x="585.5" y="-298.5" font-family="Helvetica,sans-Serif" font-size="10.00">Engine/libspeex/sb</text>
<text text-anchor="middle" x="631.5" y="-287.5" font-family="Helvetica,sans-Serif" font-size="10.00">_celp.c</text>
</a>
</g>
</g>
<!-- Node2 -->
<g id="node2" class="node">
<title>Node2</title>
<g id="a_node2"><a xlink:title=" ">
<polygon fill="none" stroke="#bfbfbf" points="98,-224.5 98,-243.5 149,-243.5 149,-224.5 98,-224.5"/>
<text text-anchor="middle" x="123.5" y="-231.5" font-family="Helvetica,sans-Serif" font-size="10.00">math.h</text>
</a>
</g>
</g>
<!-- Node1&#45;&gt;Node2 -->
<g id="edge1" class="edge">
<title>Node1&#45;&gt;Node2</title>
<path fill="none" stroke="midnightblue" d="M577.22,-291.28C490.72,-285.58 316.19,-271.79 158.88,-243.8"/>
<polygon fill="midnightblue" stroke="midnightblue" points="159.48,-240.35 149.02,-242.02 158.24,-247.24 159.48,-240.35"/>
</g>
<!-- Node3 -->
<g id="node3" class="node">
<title>Node3</title>
<g id="a_node3"><a xlink:href="../../d1/db5/Engine_2libspeex_2sb__celp_8h.html" target="_top" xlink:title="Sub&#45;band CELP mode used for wideband encoding.">
<polygon fill="none" stroke="black" points="167.5,-224.5 167.5,-243.5 229.5,-243.5 229.5,-224.5 167.5,-224.5"/>
<text text-anchor="middle" x="198.5" y="-231.5" font-family="Helvetica,sans-Serif" font-size="10.00">sb_celp.h</text>
</a>
</g>
</g>
<!-- Node1&#45;&gt;Node3 -->
<g id="edge2" class="edge">
<title>Node1&#45;&gt;Node3</title>
<path fill="none" stroke="midnightblue" d="M577.1,-287.02C489.28,-274.96 318.19,-251.45 239.68,-240.66"/>
<polygon fill="midnightblue" stroke="midnightblue" points="240.06,-237.18 229.68,-239.28 239.11,-244.11 240.06,-237.18"/>
</g>
<!-- Node7 -->
<g id="node7" class="node">
<title>Node7</title>
<g id="a_node7"><a xlink:href="../../df/dca/Engine_2libspeex_2arch_8h.html" target="_top" xlink:title="Various architecture definitions Speex.">
<polygon fill="none" stroke="black" points="588,-56.5 588,-75.5 635,-75.5 635,-56.5 588,-56.5"/>
<text text-anchor="middle" x="611.5" y="-63.5" font-family="Helvetica,sans-Serif" font-size="10.00">arch.h</text>
</a>
</g>
</g>
<!-- Node1&#45;&gt;Node7 -->
<g id="edge34" class="edge">
<title>Node1&#45;&gt;Node7</title>
<path fill="none" stroke="midnightblue" d="M634.11,-280.42C640.78,-243.24 657.18,-143.12 646.5,-112 642.78,-101.16 635.27,-90.92 628.15,-82.96"/>
<polygon fill="midnightblue" stroke="midnightblue" points="630.5,-80.35 621.06,-75.55 625.45,-85.19 630.5,-80.35"/>
</g>
<!-- Node12 -->
<g id="node12" class="node">
<title>Node12</title>
<g id="a_node12"><a xlink:href="../../dc/dda/Engine_2libspeex_2filters_8h.html" target="_top" xlink:title="Various analysis/synthesis filters.">
<polygon fill="none" stroke="black" points="585,-112.5 585,-131.5 638,-131.5 638,-112.5 585,-112.5"/>
<text text-anchor="middle" x="611.5" y="-119.5" font-family="Helvetica,sans-Serif" font-size="10.00">filters.h</text>
</a>
</g>
</g>
<!-- Node1&#45;&gt;Node12 -->
<g id="edge17" class="edge">
<title>Node1&#45;&gt;Node12</title>
<path fill="none" stroke="midnightblue" d="M626.59,-280.1C623.41,-270.1 619.5,-256.39 617.5,-244 611.71,-208.13 611,-165.58 611.15,-141.69"/>
<polygon fill="midnightblue" stroke="midnightblue" points="614.66,-141.62 611.28,-131.58 607.66,-141.53 614.66,-141.62"/>
</g>
<!-- Node13 -->
<g id="node13" class="node">
<title>Node13</title>
<g id="a_node13"><a xlink:href="../../d9/d7d/Engine_2libspeex_2lpc_8h.html" target="_top" xlink:title="Functions for LPC (Linear Prediction Coefficients) analysis.">
<polygon fill="none" stroke="black" points="659.5,-168.5 659.5,-187.5 699.5,-187.5 699.5,-168.5 659.5,-168.5"/>
<text text-anchor="middle" x="679.5" y="-175.5" font-family="Helvetica,sans-Serif" font-size="10.00">lpc.h</text>
</a>
</g>
</g>
<!-- Node1&#45;&gt;Node13 -->
<g id="edge18" class="edge">
<title>Node1&#45;&gt;Node13</title>
<path fill="none" stroke="midnightblue" d="M637.39,-280.34C646.11,-259.34 662.48,-219.96 672.04,-196.96"/>
<polygon fill="midnightblue" stroke="midnightblue" points="675.29,-198.25 675.9,-187.67 668.83,-195.56 675.29,-198.25"/>
</g>
<!-- Node14 -->
<g id="node14" class="node">
<title>Node14</title>
<g id="a_node14"><a xlink:href="../../d9/deb/Engine_2libspeex_2lsp_8h.html" target="_top" xlink:title="Line Spectral Pair (LSP) functions.">
<polygon fill="none" stroke="black" points="717.5,-168.5 717.5,-187.5 757.5,-187.5 757.5,-168.5 717.5,-168.5"/>
<text text-anchor="middle" x="737.5" y="-175.5" font-family="Helvetica,sans-Serif" font-size="10.00">lsp.h</text>
</a>
</g>
</g>
<!-- Node1&#45;&gt;Node14 -->
<g id="edge20" class="edge">
<title>Node1&#45;&gt;Node14</title>
<path fill="none" stroke="midnightblue" d="M644.5,-280.34C664.29,-258.77 701.88,-217.81 722.7,-195.13"/>
<polygon fill="midnightblue" stroke="midnightblue" points="725.36,-197.4 729.54,-187.67 720.2,-192.67 725.36,-197.4"/>
</g>
<!-- Node15 -->
<g id="node15" class="node">
<title>Node15</title>
<g id="a_node15"><a xlink:href="../../d6/d0c/Engine_2libspeex_2stack__alloc_8h.html" target="_top" xlink:title="Temporary memory allocation on stack.">
<polygon fill="none" stroke="black" points="899.5,-224.5 899.5,-243.5 979.5,-243.5 979.5,-224.5 899.5,-224.5"/>
<text text-anchor="middle" x="939.5" y="-231.5" font-family="Helvetica,sans-Serif" font-size="10.00">stack_alloc.h</text>
</a>
</g>
</g>
<!-- Node1&#45;&gt;Node15 -->
<g id="edge22" class="edge">
<title>Node1&#45;&gt;Node15</title>
<path fill="none" stroke="midnightblue" d="M685.5,-284.07C743,-272.96 833.26,-255.52 889.27,-244.7"/>
<polygon fill="midnightblue" stroke="midnightblue" points="890.16,-248.1 899.31,-242.76 888.83,-241.22 890.16,-248.1"/>
</g>
<!-- Node16 -->
<g id="node16" class="node">
<title>Node16</title>
<g id="a_node16"><a xlink:href="../../df/d79/Engine_2libspeex_2cb__search_8h.html" target="_top" xlink:title="Overlapped codebook search.">
<polygon fill="none" stroke="black" points="285.5,-112.5 285.5,-131.5 359.5,-131.5 359.5,-112.5 285.5,-112.5"/>
<text text-anchor="middle" x="322.5" y="-119.5" font-family="Helvetica,sans-Serif" font-size="10.00">cb_search.h</text>
</a>
</g>
</g>
<!-- Node1&#45;&gt;Node16 -->
<g id="edge23" class="edge">
<title>Node1&#45;&gt;Node16</title>
<path fill="none" stroke="midnightblue" d="M606.21,-280.47C547.9,-248.1 404.58,-168.56 347.02,-136.61"/>
<polygon fill="midnightblue" stroke="midnightblue" points="348.36,-133.35 337.92,-131.56 344.97,-139.47 348.36,-133.35"/>
</g>
<!-- Node17 -->
<g id="node17" class="node">
<title>Node17</title>
<g id="a_node17"><a xlink:href="../../da/dcc/Engine_2libspeex_2quant__lsp_8h.html" target="_top" xlink:title="LSP vector quantization.">
<polygon fill="none" stroke="black" points="378,-112.5 378,-131.5 451,-131.5 451,-112.5 378,-112.5"/>
<text text-anchor="middle" x="414.5" y="-119.5" font-family="Helvetica,sans-Serif" font-size="10.00">quant_lsp.h</text>
</a>
</g>
</g>
<!-- Node1&#45;&gt;Node17 -->
<g id="edge26" class="edge">
<title>Node1&#45;&gt;Node17</title>
<path fill="none" stroke="midnightblue" d="M613.74,-280.47C573.3,-248.5 474.63,-170.52 433.25,-137.82"/>
<polygon fill="midnightblue" stroke="midnightblue" points="435.35,-135.01 425.33,-131.56 431.01,-140.51 435.35,-135.01"/>
</g>
<!-- Node18 -->
<g id="node18" class="node">
<title>Node18</title>
<g id="a_node18"><a xlink:href="../../d0/d27/Engine_2libspeex_2vq_8h.html" target="_top" xlink:title="Vector quantization.">
<polygon fill="none" stroke="black" points="735.5,-224.5 735.5,-243.5 773.5,-243.5 773.5,-224.5 735.5,-224.5"/>
<text text-anchor="middle" x="754.5" y="-231.5" font-family="Helvetica,sans-Serif" font-size="10.00">vq.h</text>
</a>
</g>
</g>
<!-- Node1&#45;&gt;Node18 -->
<g id="edge29" class="edge">
<title>Node1&#45;&gt;Node18</title>
<path fill="none" stroke="midnightblue" d="M660.65,-280.4C680.92,-270.59 707.74,-257.62 727.52,-248.05"/>
<polygon fill="midnightblue" stroke="midnightblue" points="729.12,-251.16 736.6,-243.66 726.08,-244.86 729.12,-251.16"/>
</g>
<!-- Node19 -->
<g id="node19" class="node">
<title>Node19</title>
<g id="a_node19"><a xlink:href="../../d3/d3b/Engine_2libspeex_2ltp_8h.html" target="_top" xlink:title="Long&#45;Term Prediction functions.">
<polygon fill="none" stroke="black" points="528.5,-112.5 528.5,-131.5 566.5,-131.5 566.5,-112.5 528.5,-112.5"/>
<text text-anchor="middle" x="547.5" y="-119.5" font-family="Helvetica,sans-Serif" font-size="10.00">ltp.h</text>
</a>
</g>
</g>
<!-- Node1&#45;&gt;Node19 -->
<g id="edge31" class="edge">
<title>Node1&#45;&gt;Node19</title>
<path fill="none" stroke="midnightblue" d="M624.63,-280.47C609.43,-249.44 572.99,-175.05 556.22,-140.81"/>
<polygon fill="midnightblue" stroke="midnightblue" points="559.23,-139 551.69,-131.56 552.95,-142.08 559.23,-139"/>
</g>
<!-- Node20 -->
<g id="node20" class="node">
<title>Node20</title>
<g id="a_node20"><a xlink:href="../../db/de5/Engine_2libspeex_2math__approx_8h.html" target="_top" xlink:title="Various math approximation functions for Speex.">
<polygon fill="none" stroke="black" points="791.5,-224.5 791.5,-243.5 881.5,-243.5 881.5,-224.5 791.5,-224.5"/>
<text text-anchor="middle" x="836.5" y="-231.5" font-family="Helvetica,sans-Serif" font-size="10.00">math_approx.h</text>
</a>
</g>
</g>
<!-- Node1&#45;&gt;Node20 -->
<g id="edge35" class="edge">
<title>Node1&#45;&gt;Node20</title>
<path fill="none" stroke="midnightblue" d="M679.82,-280.47C715.65,-270.08 763.88,-256.08 797.32,-246.37"/>
<polygon fill="midnightblue" stroke="midnightblue" points="798.56,-249.66 807.19,-243.51 796.61,-242.93 798.56,-249.66"/>
</g>
<!-- Node21 -->
<g id="node21" class="node">
<title>Node21</title>
<g id="a_node21"><a xlink:href="../../d9/d2a/Engine_2libspeex_2os__support_8h.html" target="_top" xlink:title=" ">
<polygon fill="none" stroke="black" points="998,-224.5 998,-243.5 1077,-243.5 1077,-224.5 998,-224.5"/>
<text text-anchor="middle" x="1037.5" y="-231.5" font-family="Helvetica,sans-Serif" font-size="10.00">os_support.h</text>
</a>
</g>
</g>
<!-- Node1&#45;&gt;Node21 -->
<g id="edge37" class="edge">
<title>Node1&#45;&gt;Node21</title>
<path fill="none" stroke="midnightblue" d="M685.74,-287.53C753.81,-278.63 874.38,-262.35 988.03,-244.02"/>
<polygon fill="midnightblue" stroke="midnightblue" points="988.63,-247.47 997.94,-242.41 987.51,-240.56 988.63,-247.47"/>
</g>
<!-- Node4 -->
<g id="node4" class="node">
<title>Node4</title>
<g id="a_node4"><a xlink:href="../../d5/db0/Engine_2libspeex_2modes_8h.html" target="_top" xlink:title="Describes the different modes of the codec.">
<polygon fill="none" stroke="black" points="14,-112.5 14,-131.5 73,-131.5 73,-112.5 14,-112.5"/>
<text text-anchor="middle" x="43.5" y="-119.5" font-family="Helvetica,sans-Serif" font-size="10.00">modes.h</text>
</a>
</g>
</g>
<!-- Node3&#45;&gt;Node4 -->
<g id="edge3" class="edge">
<title>Node3&#45;&gt;Node4</title>
<path fill="none" stroke="midnightblue" d="M186.34,-224.37C159.85,-205.57 96.72,-160.77 63.98,-137.53"/>
<polygon fill="midnightblue" stroke="midnightblue" points="65.79,-134.52 55.61,-131.59 61.74,-140.23 65.79,-134.52"/>
</g>
<!-- Node6 -->
<g id="node6" class="node">
<title>Node6</title>
<g id="a_node6"><a xlink:title=" ">
<polygon fill="none" stroke="#bfbfbf" points="186.5,-56.5 186.5,-75.5 296.5,-75.5 296.5,-56.5 186.5,-56.5"/>
<text text-anchor="middle" x="241.5" y="-63.5" font-family="Helvetica,sans-Serif" font-size="10.00">speex/speex_bits.h</text>
</a>
</g>
</g>
<!-- Node3&#45;&gt;Node6 -->
<g id="edge8" class="edge">
<title>Node3&#45;&gt;Node6</title>
<path fill="none" stroke="midnightblue" d="M174.98,-224.39C127.54,-206.49 23.3,-164.23 4.5,-132 0.02,-124.32 -1.17,-118.85 4.5,-112 25.94,-86.1 113.72,-74.99 176.18,-70.3"/>
<polygon fill="midnightblue" stroke="midnightblue" points="176.64,-73.78 186.36,-69.58 176.14,-66.8 176.64,-73.78"/>
</g>
<!-- Node9 -->
<g id="node9" class="node">
<title>Node9</title>
<g id="a_node9"><a xlink:href="../../dc/d9d/Engine_2libspeex_2nb__celp_8h.html" target="_top" xlink:title="Narrowband CELP encoder/decoder.">
<polygon fill="none" stroke="black" points="167,-168.5 167,-187.5 230,-187.5 230,-168.5 167,-168.5"/>
<text text-anchor="middle" x="198.5" y="-175.5" font-family="Helvetica,sans-Serif" font-size="10.00">nb_celp.h</text>
</a>
</g>
</g>
<!-- Node3&#45;&gt;Node9 -->
<g id="edge9" class="edge">
<title>Node3&#45;&gt;Node9</title>
<path fill="none" stroke="midnightblue" d="M198.5,-224.08C198.5,-217.01 198.5,-206.86 198.5,-197.99"/>
<polygon fill="midnightblue" stroke="midnightblue" points="202,-197.75 198.5,-187.75 195,-197.75 202,-197.75"/>
</g>
<!-- Node5 -->
<g id="node5" class="node">
<title>Node5</title>
<g id="a_node5"><a xlink:title=" ">
<polygon fill="none" stroke="#bfbfbf" points="0,-56.5 0,-75.5 87,-75.5 87,-56.5 0,-56.5"/>
<text text-anchor="middle" x="43.5" y="-63.5" font-family="Helvetica,sans-Serif" font-size="10.00">speex/speex.h</text>
</a>
</g>
</g>
<!-- Node4&#45;&gt;Node5 -->
<g id="edge4" class="edge">
<title>Node4&#45;&gt;Node5</title>
<path fill="none" stroke="midnightblue" d="M43.5,-112.08C43.5,-105.01 43.5,-94.86 43.5,-85.99"/>
<polygon fill="midnightblue" stroke="midnightblue" points="47,-85.75 43.5,-75.75 40,-85.75 47,-85.75"/>
</g>
<!-- Node4&#45;&gt;Node6 -->
<g id="edge5" class="edge">
<title>Node4&#45;&gt;Node6</title>
<path fill="none" stroke="midnightblue" d="M73.14,-112.92C106.91,-103.71 162.32,-88.59 200.28,-78.24"/>
<polygon fill="midnightblue" stroke="midnightblue" points="201.29,-81.59 210.02,-75.59 199.45,-74.84 201.29,-81.59"/>
</g>
<!-- Node4&#45;&gt;Node7 -->
<g id="edge6" class="edge">
<title>Node4&#45;&gt;Node7</title>
<path fill="none" stroke="midnightblue" d="M73.1,-117.37C87.41,-115.65 104.84,-113.63 120.5,-112 292.07,-94.11 497.78,-76.5 577.57,-69.82"/>
<polygon fill="midnightblue" stroke="midnightblue" points="578.3,-73.27 587.97,-68.95 577.71,-66.29 578.3,-73.27"/>
</g>
<!-- Node8 -->
<g id="node8" class="node">
<title>Node8</title>
<g id="a_node8"><a xlink:title=" ">
<polygon fill="none" stroke="#bfbfbf" points="552,-0.5 552,-19.5 671,-19.5 671,-0.5 552,-0.5"/>
<text text-anchor="middle" x="611.5" y="-7.5" font-family="Helvetica,sans-Serif" font-size="10.00">speex/speex_types.h</text>
</a>
</g>
</g>
<!-- Node7&#45;&gt;Node8 -->
<g id="edge7" class="edge">
<title>Node7&#45;&gt;Node8</title>
<path fill="none" stroke="midnightblue" d="M611.5,-56.08C611.5,-49.01 611.5,-38.86 611.5,-29.99"/>
<polygon fill="midnightblue" stroke="midnightblue" points="615,-29.75 611.5,-19.75 608,-29.75 615,-29.75"/>
</g>
<!-- Node9&#45;&gt;Node4 -->
<g id="edge10" class="edge">
<title>Node9&#45;&gt;Node4</title>
<path fill="none" stroke="midnightblue" d="M173.94,-168.44C147.98,-159.4 106.83,-145.06 77.7,-134.92"/>
<polygon fill="midnightblue" stroke="midnightblue" points="78.54,-131.5 67.95,-131.52 76.24,-138.11 78.54,-131.5"/>
</g>
<!-- Node9&#45;&gt;Node6 -->
<g id="edge11" class="edge">
<title>Node9&#45;&gt;Node6</title>
<path fill="none" stroke="midnightblue" d="M172.72,-168.45C143.88,-157.44 103.3,-136.75 120.5,-112 133.48,-93.33 155.18,-82.39 176.64,-75.98"/>
<polygon fill="midnightblue" stroke="midnightblue" points="177.71,-79.32 186.46,-73.35 175.89,-72.56 177.71,-79.32"/>
</g>
<!-- Node10 -->
<g id="node10" class="node">
<title>Node10</title>
<g id="a_node10"><a xlink:title=" ">
<polygon fill="none" stroke="#bfbfbf" points="129.5,-112.5 129.5,-131.5 267.5,-131.5 267.5,-112.5 129.5,-112.5"/>
<text text-anchor="middle" x="198.5" y="-119.5" font-family="Helvetica,sans-Serif" font-size="10.00">speex/speex_callbacks.h</text>
</a>
</g>
</g>
<!-- Node9&#45;&gt;Node10 -->
<g id="edge12" class="edge">
<title>Node9&#45;&gt;Node10</title>
<path fill="none" stroke="midnightblue" d="M198.5,-168.08C198.5,-161.01 198.5,-150.86 198.5,-141.99"/>
<polygon fill="midnightblue" stroke="midnightblue" points="202,-141.75 198.5,-131.75 195,-141.75 202,-141.75"/>
</g>
<!-- Node11 -->
<g id="node11" class="node">
<title>Node11</title>
<g id="a_node11"><a xlink:href="../../d9/d96/Engine_2libspeex_2vbr_8h.html" target="_top" xlink:title="Variable Bit&#45;Rate (VBR) related routines.">
<polygon fill="none" stroke="black" points="469,-112.5 469,-131.5 510,-131.5 510,-112.5 469,-112.5"/>
<text text-anchor="middle" x="489.5" y="-119.5" font-family="Helvetica,sans-Serif" font-size="10.00">vbr.h</text>
</a>
</g>
</g>
<!-- Node9&#45;&gt;Node11 -->
<g id="edge13" class="edge">
<title>Node9&#45;&gt;Node11</title>
<path fill="none" stroke="midnightblue" d="M230.08,-172.81C277.63,-166.23 370.56,-152.33 459.01,-131.86"/>
<polygon fill="midnightblue" stroke="midnightblue" points="460,-135.22 468.93,-129.53 458.4,-128.4 460,-135.22"/>
</g>
<!-- Node9&#45;&gt;Node12 -->
<g id="edge15" class="edge">
<title>Node9&#45;&gt;Node12</title>
<path fill="none" stroke="midnightblue" d="M230.23,-174.57C293.75,-169.43 441.17,-156.02 574.84,-131.89"/>
<polygon fill="midnightblue" stroke="midnightblue" points="575.64,-135.3 584.85,-130.06 574.38,-128.42 575.64,-135.3"/>
</g>
<!-- Node11&#45;&gt;Node7 -->
<g id="edge14" class="edge">
<title>Node11&#45;&gt;Node7</title>
<path fill="none" stroke="midnightblue" d="M508.83,-112.44C528.82,-103.6 560.24,-89.69 583.06,-79.59"/>
<polygon fill="midnightblue" stroke="midnightblue" points="584.53,-82.76 592.26,-75.52 581.7,-76.36 584.53,-82.76"/>
</g>
<!-- Node12&#45;&gt;Node7 -->
<g id="edge16" class="edge">
<title>Node12&#45;&gt;Node7</title>
<path fill="none" stroke="midnightblue" d="M611.5,-112.08C611.5,-105.01 611.5,-94.86 611.5,-85.99"/>
<polygon fill="midnightblue" stroke="midnightblue" points="615,-85.75 611.5,-75.75 608,-85.75 615,-85.75"/>
</g>
<!-- Node13&#45;&gt;Node7 -->
<g id="edge19" class="edge">
<title>Node13&#45;&gt;Node7</title>
<path fill="none" stroke="midnightblue" d="M682.15,-168.37C685.65,-155.29 690.28,-130.06 680.5,-112 672.75,-97.7 658.27,-87.22 644.56,-79.99"/>
<polygon fill="midnightblue" stroke="midnightblue" points="645.81,-76.71 635.29,-75.5 642.76,-83.01 645.81,-76.71"/>
</g>
<!-- Node14&#45;&gt;Node7 -->
<g id="edge21" class="edge">
<title>Node14&#45;&gt;Node7</title>
<path fill="none" stroke="midnightblue" d="M734.02,-168.41C728.19,-154.93 715.33,-128.63 697.5,-112 682.36,-97.88 661.94,-86.94 644.79,-79.39"/>
<polygon fill="midnightblue" stroke="midnightblue" points="645.72,-75.98 635.14,-75.34 643.01,-82.44 645.72,-75.98"/>
</g>
<!-- Node16&#45;&gt;Node6 -->
<g id="edge24" class="edge">
<title>Node16&#45;&gt;Node6</title>
<path fill="none" stroke="midnightblue" d="M309.49,-112.32C296.97,-103.98 277.82,-91.21 263.03,-81.35"/>
<polygon fill="midnightblue" stroke="midnightblue" points="264.74,-78.29 254.48,-75.65 260.86,-84.11 264.74,-78.29"/>
</g>
<!-- Node16&#45;&gt;Node7 -->
<g id="edge25" class="edge">
<title>Node16&#45;&gt;Node7</title>
<path fill="none" stroke="midnightblue" d="M359.65,-113.7C362.64,-113.12 365.62,-112.55 368.5,-112 443.15,-97.79 530.81,-81.7 577.76,-73.14"/>
<polygon fill="midnightblue" stroke="midnightblue" points="578.48,-76.56 587.69,-71.33 577.22,-69.68 578.48,-76.56"/>
</g>
<!-- Node17&#45;&gt;Node6 -->
<g id="edge27" class="edge">
<title>Node17&#45;&gt;Node6</title>
<path fill="none" stroke="midnightblue" d="M387.09,-112.44C357.73,-103.28 310.98,-88.69 278.4,-78.52"/>
<polygon fill="midnightblue" stroke="midnightblue" points="279.37,-75.16 268.78,-75.52 277.29,-81.84 279.37,-75.16"/>
</g>
<!-- Node17&#45;&gt;Node7 -->
<g id="edge28" class="edge">
<title>Node17&#45;&gt;Node7</title>
<path fill="none" stroke="midnightblue" d="M445.72,-112.44C481.81,-102.55 541.01,-86.32 578.03,-76.17"/>
<polygon fill="midnightblue" stroke="midnightblue" points="579.13,-79.5 587.85,-73.48 577.28,-72.75 579.13,-79.5"/>
</g>
<!-- Node18&#45;&gt;Node7 -->
<g id="edge30" class="edge">
<title>Node18&#45;&gt;Node7</title>
<path fill="none" stroke="midnightblue" d="M758.89,-224.36C764.7,-211.68 773.46,-187.45 766.5,-168 755.64,-137.68 746.39,-131.17 720.5,-112 697.71,-95.13 667.68,-83.34 644.9,-76.07"/>
<polygon fill="midnightblue" stroke="midnightblue" points="645.91,-72.72 635.32,-73.14 643.86,-79.41 645.91,-72.72"/>
</g>
<!-- Node19&#45;&gt;Node6 -->
<g id="edge32" class="edge">
<title>Node19&#45;&gt;Node6</title>
<path fill="none" stroke="midnightblue" d="M528.26,-114.62C525.02,-113.66 521.68,-112.75 518.5,-112 446.84,-95.15 363.28,-82.51 306.82,-74.99"/>
<polygon fill="midnightblue" stroke="midnightblue" points="306.98,-71.48 296.61,-73.64 306.06,-78.42 306.98,-71.48"/>
</g>
<!-- Node19&#45;&gt;Node7 -->
<g id="edge33" class="edge">
<title>Node19&#45;&gt;Node7</title>
<path fill="none" stroke="midnightblue" d="M557.78,-112.32C567.34,-104.26 581.78,-92.08 593.28,-82.37"/>
<polygon fill="midnightblue" stroke="midnightblue" points="595.64,-84.96 601.03,-75.83 591.13,-79.61 595.64,-84.96"/>
</g>
<!-- Node20&#45;&gt;Node7 -->
<g id="edge36" class="edge">
<title>Node20&#45;&gt;Node7</title>
<path fill="none" stroke="midnightblue" d="M832.46,-224.25C821.81,-202.11 790.76,-143.41 747.5,-112 716.85,-89.74 674.54,-78.04 645.28,-72.21"/>
<polygon fill="midnightblue" stroke="midnightblue" points="645.61,-68.72 635.14,-70.32 644.33,-75.6 645.61,-68.72"/>
</g>
<!-- Node22 -->
<g id="node22" class="node">
<title>Node22</title>
<g id="a_node22"><a xlink:title=" ">
<polygon fill="none" stroke="#bfbfbf" points="941,-168.5 941,-187.5 994,-187.5 994,-168.5 941,-168.5"/>
<text text-anchor="middle" x="967.5" y="-175.5" font-family="Helvetica,sans-Serif" font-size="10.00">string.h</text>
</a>
</g>
</g>
<!-- Node21&#45;&gt;Node22 -->
<g id="edge38" class="edge">
<title>Node21&#45;&gt;Node22</title>
<path fill="none" stroke="midnightblue" d="M1026.25,-224.32C1015.7,-216.18 999.7,-203.84 987.06,-194.09"/>
<polygon fill="midnightblue" stroke="midnightblue" points="989.01,-191.17 978.95,-187.83 984.73,-196.71 989.01,-191.17"/>
</g>
<!-- Node23 -->
<g id="node23" class="node">
<title>Node23</title>
<g id="a_node23"><a xlink:title=" ">
<polygon fill="none" stroke="#bfbfbf" points="1012.5,-168.5 1012.5,-187.5 1062.5,-187.5 1062.5,-168.5 1012.5,-168.5"/>
<text text-anchor="middle" x="1037.5" y="-175.5" font-family="Helvetica,sans-Serif" font-size="10.00">stdio.h</text>
</a>
</g>
</g>
<!-- Node21&#45;&gt;Node23 -->
<g id="edge39" class="edge">
<title>Node21&#45;&gt;Node23</title>
<path fill="none" stroke="midnightblue" d="M1037.5,-224.08C1037.5,-217.01 1037.5,-206.86 1037.5,-197.99"/>
<polygon fill="midnightblue" stroke="midnightblue" points="1041,-197.75 1037.5,-187.75 1034,-197.75 1041,-197.75"/>
</g>
<!-- Node24 -->
<g id="node24" class="node">
<title>Node24</title>
<g id="a_node24"><a xlink:title=" ">
<polygon fill="none" stroke="#bfbfbf" points="1081,-168.5 1081,-187.5 1134,-187.5 1134,-168.5 1081,-168.5"/>
<text text-anchor="middle" x="1107.5" y="-175.5" font-family="Helvetica,sans-Serif" font-size="10.00">stdlib.h</text>
</a>
</g>
</g>
<!-- Node21&#45;&gt;Node24 -->
<g id="edge40" class="edge">
<title>Node21&#45;&gt;Node24</title>
<path fill="none" stroke="midnightblue" d="M1048.75,-224.32C1059.3,-216.18 1075.3,-203.84 1087.94,-194.09"/>
<polygon fill="midnightblue" stroke="midnightblue" points="1090.27,-196.71 1096.05,-187.83 1085.99,-191.17 1090.27,-196.71"/>
</g>
</g>
</svg>
