<?xml version="1.0" encoding="UTF-8" standalone="no"?>
<!DOCTYPE svg PUBLIC "-//W3C//DTD SVG 1.1//EN"
 "http://www.w3.org/Graphics/SVG/1.1/DTD/svg11.dtd">
<!-- Generated by graphviz version 2.43.0 (0)
 -->
<!-- Title: _ACCESS_INFO_1 Pages: 1 -->
<svg width="201pt" height="106pt"
 viewBox="0.00 0.00 201.00 106.00" xmlns="http://www.w3.org/2000/svg" xmlns:xlink="http://www.w3.org/1999/xlink">
<g id="graph0" class="graph" transform="scale(1 1) rotate(0) translate(4 102)">
<title>_ACCESS_INFO_1</title>
<!-- Node1 -->
<g id="node1" class="node">
<title>Node1</title>
<g id="a_node1"><a xlink:title=" ">
<polygon fill="#bfbfbf" stroke="black" points="32.5,-0.5 32.5,-19.5 133.5,-19.5 133.5,-0.5 32.5,-0.5"/>
<text text-anchor="middle" x="83" y="-7.5" font-family="Helvetica,sans-Serif" font-size="10.00">_ACCESS_INFO_1</text>
</a>
</g>
</g>
<!-- Node2 -->
<g id="node2" class="node">
<title>Node2</title>
<g id="a_node2"><a xlink:title=" ">
<polygon fill="none" stroke="#bfbfbf" points="0,-78.5 0,-97.5 38,-97.5 38,-78.5 0,-78.5"/>
<text text-anchor="middle" x="19" y="-85.5" font-family="Helvetica,sans-Serif" font-size="10.00">char</text>
</a>
</g>
</g>
<!-- Node2&#45;&gt;Node1 -->
<g id="edge1" class="edge">
<title>Node2&#45;&gt;Node1</title>
<path fill="none" stroke="#9a32cd" stroke-dasharray="5,2" d="M14.81,-68.21C13.69,-58.43 14.13,-46.71 20,-38 25.79,-29.42 34.92,-23.55 44.45,-19.54"/>
<polygon fill="#9a32cd" stroke="#9a32cd" points="11.38,-68.93 16.53,-78.19 18.28,-67.74 11.38,-68.93"/>
<text text-anchor="middle" x="73" y="-46.5" font-family="Helvetica,sans-Serif" font-size="10.00"> acc1_resource_name</text>
</g>
<!-- Node3 -->
<g id="node3" class="node">
<title>Node3</title>
<g id="a_node3"><a xlink:title=" ">
<polygon fill="none" stroke="#bfbfbf" points="129,-78.5 129,-97.5 167,-97.5 167,-78.5 129,-78.5"/>
<text text-anchor="middle" x="148" y="-85.5" font-family="Helvetica,sans-Serif" font-size="10.00">long</text>
</a>
</g>
</g>
<!-- Node3&#45;&gt;Node1 -->
<g id="edge2" class="edge">
<title>Node3&#45;&gt;Node1</title>
<path fill="none" stroke="#9a32cd" stroke-dasharray="5,2" d="M142.61,-68.51C139.06,-58.65 133.64,-46.78 126,-38 119.4,-30.42 110.16,-24.24 101.92,-19.71"/>
<polygon fill="#9a32cd" stroke="#9a32cd" points="139.33,-69.74 145.74,-78.17 145.99,-67.58 139.33,-69.74"/>
<text text-anchor="middle" x="165.5" y="-52" font-family="Helvetica,sans-Serif" font-size="10.00"> acc1_attr</text>
<text text-anchor="middle" x="165.5" y="-41" font-family="Helvetica,sans-Serif" font-size="10.00">acc1_count</text>
</g>
</g>
</svg>
