<?xml version="1.0" encoding="UTF-8" standalone="no"?>
<!DOCTYPE svg PUBLIC "-//W3C//DTD SVG 1.1//EN"
 "http://www.w3.org/Graphics/SVG/1.1/DTD/svg11.dtd">
<!-- Generated by graphviz version 2.43.0 (0)
 -->
<!-- Title: tagCOMBOBOXEXITEMA Pages: 1 -->
<svg width="306pt" height="150pt"
 viewBox="0.00 0.00 305.50 150.00" xmlns="http://www.w3.org/2000/svg" xmlns:xlink="http://www.w3.org/1999/xlink">
<g id="graph0" class="graph" transform="scale(1 1) rotate(0) translate(4 146)">
<title>tagCOMBOBOXEXITEMA</title>
<!-- Node1 -->
<g id="node1" class="node">
<title>Node1</title>
<g id="a_node1"><a xlink:title=" ">
<polygon fill="#bfbfbf" stroke="black" points="69,-0.5 69,-19.5 203,-19.5 203,-0.5 69,-0.5"/>
<text text-anchor="middle" x="136" y="-7.5" font-family="Helvetica,sans-Serif" font-size="10.00">tagCOMBOBOXEXITEMA</text>
</a>
</g>
</g>
<!-- Node2 -->
<g id="node2" class="node">
<title>Node2</title>
<g id="a_node2"><a xlink:title=" ">
<polygon fill="none" stroke="#bfbfbf" points="0,-122.5 0,-141.5 68,-141.5 68,-122.5 0,-122.5"/>
<text text-anchor="middle" x="34" y="-129.5" font-family="Helvetica,sans-Serif" font-size="10.00">LONG_PTR</text>
</a>
</g>
</g>
<!-- Node2&#45;&gt;Node1 -->
<g id="edge1" class="edge">
<title>Node2&#45;&gt;Node1</title>
<path fill="none" stroke="#9a32cd" stroke-dasharray="5,2" d="M33.61,-112.23C34.2,-91.5 38.32,-58.38 57,-38 64.84,-29.45 75.49,-23.61 86.43,-19.62"/>
<polygon fill="#9a32cd" stroke="#9a32cd" points="30.11,-112.29 33.57,-122.31 37.11,-112.32 30.11,-112.29"/>
<text text-anchor="middle" x="75.5" y="-68.5" font-family="Helvetica,sans-Serif" font-size="10.00"> lParam</text>
</g>
<!-- Node3 -->
<g id="node3" class="node">
<title>Node3</title>
<g id="a_node3"><a xlink:title=" ">
<polygon fill="none" stroke="#bfbfbf" points="86,-122.5 86,-141.5 124,-141.5 124,-122.5 86,-122.5"/>
<text text-anchor="middle" x="105" y="-129.5" font-family="Helvetica,sans-Serif" font-size="10.00">char</text>
</a>
</g>
</g>
<!-- Node3&#45;&gt;Node1 -->
<g id="edge2" class="edge">
<title>Node3&#45;&gt;Node1</title>
<path fill="none" stroke="#9a32cd" stroke-dasharray="5,2" d="M100.96,-112.3C97.7,-92.81 95.22,-61.86 106,-38 109.4,-30.47 116.04,-24.14 122.21,-19.51"/>
<polygon fill="#9a32cd" stroke="#9a32cd" points="97.56,-113.14 102.88,-122.3 104.43,-111.82 97.56,-113.14"/>
<text text-anchor="middle" x="126" y="-68.5" font-family="Helvetica,sans-Serif" font-size="10.00"> pszText</text>
</g>
<!-- Node4 -->
<g id="node4" class="node">
<title>Node4</title>
<g id="a_node4"><a xlink:title=" ">
<polygon fill="none" stroke="#bfbfbf" points="153.5,-122.5 153.5,-141.5 182.5,-141.5 182.5,-122.5 153.5,-122.5"/>
<text text-anchor="middle" x="168" y="-129.5" font-family="Helvetica,sans-Serif" font-size="10.00">int</text>
</a>
</g>
</g>
<!-- Node4&#45;&gt;Node1 -->
<g id="edge3" class="edge">
<title>Node4&#45;&gt;Node1</title>
<path fill="none" stroke="#9a32cd" stroke-dasharray="5,2" d="M164.26,-112.21C160.33,-93.29 153.67,-63.37 146,-38 144.15,-31.88 141.65,-25.13 139.61,-19.91"/>
<polygon fill="#9a32cd" stroke="#9a32cd" points="160.87,-113.08 166.29,-122.19 167.73,-111.69 160.87,-113.08"/>
<text text-anchor="middle" x="200" y="-96" font-family="Helvetica,sans-Serif" font-size="10.00"> cchTextMax</text>
<text text-anchor="middle" x="200" y="-85" font-family="Helvetica,sans-Serif" font-size="10.00">iItem</text>
<text text-anchor="middle" x="200" y="-74" font-family="Helvetica,sans-Serif" font-size="10.00">iIndent</text>
<text text-anchor="middle" x="200" y="-63" font-family="Helvetica,sans-Serif" font-size="10.00">iOverlay</text>
<text text-anchor="middle" x="200" y="-52" font-family="Helvetica,sans-Serif" font-size="10.00">iImage</text>
<text text-anchor="middle" x="200" y="-41" font-family="Helvetica,sans-Serif" font-size="10.00">iSelectedImage</text>
</g>
<!-- Node5 -->
<g id="node5" class="node">
<title>Node5</title>
<g id="a_node5"><a xlink:title=" ">
<polygon fill="none" stroke="#bfbfbf" points="236.5,-122.5 236.5,-141.5 297.5,-141.5 297.5,-122.5 236.5,-122.5"/>
<text text-anchor="middle" x="267" y="-129.5" font-family="Helvetica,sans-Serif" font-size="10.00">unsigned</text>
</a>
</g>
</g>
<!-- Node5&#45;&gt;Node1 -->
<g id="edge4" class="edge">
<title>Node5&#45;&gt;Node1</title>
<path fill="none" stroke="#9a32cd" stroke-dasharray="5,2" d="M267.24,-112.23C266.46,-91.24 261.88,-57.62 242,-38 231.46,-27.6 217.5,-21.02 203.18,-16.92"/>
<polygon fill="#9a32cd" stroke="#9a32cd" points="263.75,-112.46 267.36,-122.42 270.74,-112.38 263.75,-112.46"/>
<text text-anchor="middle" x="281.5" y="-68.5" font-family="Helvetica,sans-Serif" font-size="10.00"> mask</text>
</g>
</g>
</svg>
