<?xml version="1.0" encoding="UTF-8" standalone="no"?>
<!DOCTYPE svg PUBLIC "-//W3C//DTD SVG 1.1//EN"
 "http://www.w3.org/Graphics/SVG/1.1/DTD/svg11.dtd">
<!-- Generated by graphviz version 2.43.0 (0)
 -->
<!-- Title: Node Pages: 1 -->
<svg width="302pt" height="241pt"
 viewBox="0.00 0.00 301.50 241.00" xmlns="http://www.w3.org/2000/svg" xmlns:xlink="http://www.w3.org/1999/xlink">
<g id="graph0" class="graph" transform="scale(1 1) rotate(0) translate(4 237)">
<title>Node</title>
<!-- Node1 -->
<g id="node1" class="node">
<title>Node1</title>
<g id="a_node1"><a xlink:title=" ">
<polygon fill="#bfbfbf" stroke="black" points="59.5,-134.5 59.5,-153.5 101.5,-153.5 101.5,-134.5 59.5,-134.5"/>
<text text-anchor="middle" x="80.5" y="-141.5" font-family="Helvetica,sans-Serif" font-size="10.00">Node</text>
</a>
</g>
</g>
<!-- Node1&#45;&gt;Node1 -->
<g id="edge1" class="edge">
<title>Node1&#45;&gt;Node1</title>
<path fill="none" stroke="#9a32cd" stroke-dasharray="5,2" d="M111.91,-150.76C116.45,-149.68 119.5,-147.43 119.5,-144 119.5,-138.38 111.27,-135.91 101.76,-136.62"/>
<polygon fill="#9a32cd" stroke="#9a32cd" points="111.53,-147.27 101.76,-151.38 111.96,-154.26 111.53,-147.27"/>
<text text-anchor="middle" x="130.5" y="-147" font-family="Helvetica,sans-Serif" font-size="10.00"> link</text>
<text text-anchor="middle" x="130.5" y="-136" font-family="Helvetica,sans-Serif" font-size="10.00">kids</text>
</g>
<!-- Node2 -->
<g id="node2" class="node">
<title>Node2</title>
<g id="a_node2"><a xlink:href="../../db/d11/structXnode.html" target="_top" xlink:title=" ">
<polygon fill="none" stroke="black" points="90,-0.5 90,-19.5 137,-19.5 137,-0.5 90,-0.5"/>
<text text-anchor="middle" x="113.5" y="-7.5" font-family="Helvetica,sans-Serif" font-size="10.00">Xnode</text>
</a>
</g>
</g>
<!-- Node1&#45;&gt;Node2 -->
<g id="edge3" class="edge">
<title>Node1&#45;&gt;Node2</title>
<path fill="none" stroke="#9a32cd" stroke-dasharray="5,2" d="M88.16,-124.77C89.37,-121.55 90.54,-118.2 91.5,-115 101.89,-80.35 109.27,-37.8 112.15,-19.75"/>
<polygon fill="#9a32cd" stroke="#9a32cd" points="84.81,-123.72 84.35,-134.3 91.31,-126.32 84.81,-123.72"/>
<text text-anchor="middle" x="130" y="-90.5" font-family="Helvetica,sans-Serif" font-size="10.00"> prevuse</text>
<text text-anchor="middle" x="130" y="-79.5" font-family="Helvetica,sans-Serif" font-size="10.00">prev</text>
<text text-anchor="middle" x="130" y="-68.5" font-family="Helvetica,sans-Serif" font-size="10.00">next</text>
<text text-anchor="middle" x="130" y="-57.5" font-family="Helvetica,sans-Serif" font-size="10.00">kids</text>
</g>
<!-- Node2&#45;&gt;Node1 -->
<g id="edge2" class="edge">
<title>Node2&#45;&gt;Node1</title>
<path fill="none" stroke="#9a32cd" stroke-dasharray="5,2" d="M90.62,-25.93C86.93,-29.42 83.63,-33.47 81.5,-38 66.13,-70.66 73.94,-115.61 78.26,-134.3"/>
<polygon fill="#9a32cd" stroke="#9a32cd" points="92.92,-28.57 98.48,-19.55 88.51,-23.13 92.92,-28.57"/>
<text text-anchor="middle" x="86.5" y="-74" font-family="Helvetica,sans-Serif" font-size="10.00"> x</text>
</g>
<!-- Node3 -->
<g id="node3" class="node">
<title>Node3</title>
<g id="a_node3"><a xlink:title=" ">
<polygon fill="none" stroke="#bfbfbf" points="0,-213.5 0,-232.5 41,-232.5 41,-213.5 0,-213.5"/>
<text text-anchor="middle" x="20.5" y="-220.5" font-family="Helvetica,sans-Serif" font-size="10.00">short</text>
</a>
</g>
</g>
<!-- Node3&#45;&gt;Node1 -->
<g id="edge7" class="edge">
<title>Node3&#45;&gt;Node1</title>
<path fill="none" stroke="#9a32cd" stroke-dasharray="5,2" d="M31.57,-204.79C37.96,-195.19 46.32,-183.17 54.5,-173 59.99,-166.18 66.73,-158.95 71.97,-153.54"/>
<polygon fill="#9a32cd" stroke="#9a32cd" points="28.47,-203.13 25.93,-213.42 34.33,-206.97 28.47,-203.13"/>
<text text-anchor="middle" x="68.5" y="-187" font-family="Helvetica,sans-Serif" font-size="10.00"> op</text>
<text text-anchor="middle" x="68.5" y="-176" font-family="Helvetica,sans-Serif" font-size="10.00">count</text>
</g>
<!-- Node3&#45;&gt;Node2 -->
<g id="edge4" class="edge">
<title>Node3&#45;&gt;Node2</title>
<path fill="none" stroke="#9a32cd" stroke-dasharray="5,2" d="M17.65,-203.38C15.48,-185.16 13.73,-156.76 19.5,-133 30.71,-86.83 36,-72.65 68.5,-38 75.6,-30.42 85.31,-24.24 93.88,-19.71"/>
<polygon fill="#9a32cd" stroke="#9a32cd" points="14.21,-204.06 19.03,-213.5 21.15,-203.12 14.21,-204.06"/>
<text text-anchor="middle" x="35" y="-147" font-family="Helvetica,sans-Serif" font-size="10.00"> argno</text>
<text text-anchor="middle" x="35" y="-136" font-family="Helvetica,sans-Serif" font-size="10.00">inst</text>
</g>
<!-- Node4 -->
<g id="node4" class="node">
<title>Node4</title>
<g id="a_node4"><a xlink:title=" ">
<polygon fill="none" stroke="#bfbfbf" points="160,-134.5 160,-153.5 221,-153.5 221,-134.5 160,-134.5"/>
<text text-anchor="middle" x="190.5" y="-141.5" font-family="Helvetica,sans-Serif" font-size="10.00">unsigned</text>
</a>
</g>
</g>
<!-- Node4&#45;&gt;Node2 -->
<g id="edge5" class="edge">
<title>Node4&#45;&gt;Node2</title>
<path fill="none" stroke="#9a32cd" stroke-dasharray="5,2" d="M188.16,-124.58C184.51,-102.12 175.67,-63.96 155.5,-38 149.44,-30.2 140.44,-23.99 132.33,-19.5"/>
<polygon fill="#9a32cd" stroke="#9a32cd" points="184.7,-125.09 189.59,-134.48 191.63,-124.08 184.7,-125.09"/>
<text text-anchor="middle" x="212" y="-107" font-family="Helvetica,sans-Serif" font-size="10.00"> registered</text>
<text text-anchor="middle" x="212" y="-96" font-family="Helvetica,sans-Serif" font-size="10.00">mayrecalc</text>
<text text-anchor="middle" x="212" y="-85" font-family="Helvetica,sans-Serif" font-size="10.00">copy</text>
<text text-anchor="middle" x="212" y="-74" font-family="Helvetica,sans-Serif" font-size="10.00">spills</text>
<text text-anchor="middle" x="212" y="-63" font-family="Helvetica,sans-Serif" font-size="10.00">equatable</text>
<text text-anchor="middle" x="212" y="-52" font-family="Helvetica,sans-Serif" font-size="10.00">listed</text>
<text text-anchor="middle" x="212" y="-41" font-family="Helvetica,sans-Serif" font-size="10.00">emitted</text>
</g>
<!-- Node5 -->
<g id="node5" class="node">
<title>Node5</title>
<g id="a_node5"><a xlink:title=" ">
<polygon fill="none" stroke="#bfbfbf" points="241.5,-134.5 241.5,-153.5 287.5,-153.5 287.5,-134.5 241.5,-134.5"/>
<text text-anchor="middle" x="264.5" y="-141.5" font-family="Helvetica,sans-Serif" font-size="10.00">void *</text>
</a>
</g>
</g>
<!-- Node5&#45;&gt;Node2 -->
<g id="edge6" class="edge">
<title>Node5&#45;&gt;Node2</title>
<path fill="none" stroke="#9a32cd" stroke-dasharray="5,2" d="M266.25,-124.12C267.32,-100.6 265.25,-60.75 242.5,-38 227.94,-23.44 170.08,-16.01 137.01,-12.88"/>
<polygon fill="#9a32cd" stroke="#9a32cd" points="262.75,-123.99 265.56,-134.21 269.74,-124.47 262.75,-123.99"/>
<text text-anchor="middle" x="279.5" y="-74" font-family="Helvetica,sans-Serif" font-size="10.00"> state</text>
</g>
<!-- Node6 -->
<g id="node6" class="node">
<title>Node6</title>
<g id="a_node6"><a xlink:title=" ">
<polygon fill="none" stroke="#bfbfbf" points="68,-213.5 68,-232.5 121,-232.5 121,-213.5 68,-213.5"/>
<text text-anchor="middle" x="94.5" y="-220.5" font-family="Helvetica,sans-Serif" font-size="10.00">Symbol</text>
</a>
</g>
</g>
<!-- Node6&#45;&gt;Node1 -->
<g id="edge8" class="edge">
<title>Node6&#45;&gt;Node1</title>
<path fill="none" stroke="#9a32cd" stroke-dasharray="5,2" d="M91.1,-203.31C88.24,-187.59 84.28,-165.81 82.1,-153.81"/>
<polygon fill="#9a32cd" stroke="#9a32cd" points="87.72,-204.25 92.95,-213.47 94.6,-203 87.72,-204.25"/>
<text text-anchor="middle" x="105.5" y="-181.5" font-family="Helvetica,sans-Serif" font-size="10.00"> syms</text>
</g>
</g>
</svg>
