<?xml version="1.0" encoding="UTF-8" standalone="no"?>
<!DOCTYPE svg PUBLIC "-//W3C//DTD SVG 1.1//EN"
 "http://www.w3.org/Graphics/SVG/1.1/DTD/svg11.dtd">
<!-- Generated by graphviz version 2.43.0 (0)
 -->
<!-- Title: _CDB::_CLOSE_TRACK Pages: 1 -->
<svg width="143pt" height="205pt"
 viewBox="0.00 0.00 143.00 205.00" xmlns="http://www.w3.org/2000/svg" xmlns:xlink="http://www.w3.org/1999/xlink">
<g id="graph0" class="graph" transform="scale(1 1) rotate(0) translate(4 201)">
<title>_CDB::_CLOSE_TRACK</title>
<!-- Node1 -->
<g id="node1" class="node">
<title>Node1</title>
<g id="a_node1"><a xlink:title=" ">
<polygon fill="#bfbfbf" stroke="black" points="0,-0.5 0,-19.5 124,-19.5 124,-0.5 0,-0.5"/>
<text text-anchor="middle" x="62" y="-7.5" font-family="Helvetica,sans-Serif" font-size="10.00">_CDB::_CLOSE_TRACK</text>
</a>
</g>
</g>
<!-- Node2 -->
<g id="node2" class="node">
<title>Node2</title>
<g id="a_node2"><a xlink:title=" ">
<polygon fill="none" stroke="#bfbfbf" points="31.5,-177.5 31.5,-196.5 92.5,-196.5 92.5,-177.5 31.5,-177.5"/>
<text text-anchor="middle" x="62" y="-184.5" font-family="Helvetica,sans-Serif" font-size="10.00">unsigned</text>
</a>
</g>
</g>
<!-- Node2&#45;&gt;Node1 -->
<g id="edge1" class="edge">
<title>Node2&#45;&gt;Node1</title>
<path fill="none" stroke="#9a32cd" stroke-dasharray="5,2" d="M62,-166.95C62,-129.3 62,-46.65 62,-19.69"/>
<polygon fill="#9a32cd" stroke="#9a32cd" points="58.5,-167.08 62,-177.08 65.5,-167.08 58.5,-167.08"/>
<text text-anchor="middle" x="98.5" y="-151" font-family="Helvetica,sans-Serif" font-size="10.00"> Control</text>
<text text-anchor="middle" x="98.5" y="-140" font-family="Helvetica,sans-Serif" font-size="10.00">TrackNumber</text>
<text text-anchor="middle" x="98.5" y="-129" font-family="Helvetica,sans-Serif" font-size="10.00">Track</text>
<text text-anchor="middle" x="98.5" y="-118" font-family="Helvetica,sans-Serif" font-size="10.00">Reserved1</text>
<text text-anchor="middle" x="98.5" y="-107" font-family="Helvetica,sans-Serif" font-size="10.00">Reserved2</text>
<text text-anchor="middle" x="98.5" y="-96" font-family="Helvetica,sans-Serif" font-size="10.00">Immediate</text>
<text text-anchor="middle" x="98.5" y="-85" font-family="Helvetica,sans-Serif" font-size="10.00">Reserved3</text>
<text text-anchor="middle" x="98.5" y="-74" font-family="Helvetica,sans-Serif" font-size="10.00">Reserved4</text>
<text text-anchor="middle" x="98.5" y="-63" font-family="Helvetica,sans-Serif" font-size="10.00">Session</text>
<text text-anchor="middle" x="98.5" y="-52" font-family="Helvetica,sans-Serif" font-size="10.00">OperationCode</text>
<text text-anchor="middle" x="98.5" y="-41" font-family="Helvetica,sans-Serif" font-size="10.00">...</text>
</g>
</g>
</svg>
