<?xml version="1.0" encoding="UTF-8" standalone="no"?>
<!DOCTYPE svg PUBLIC "-//W3C//DTD SVG 1.1//EN"
 "http://www.w3.org/Graphics/SVG/1.1/DTD/svg11.dtd">
<!-- Generated by graphviz version 2.43.0 (0)
 -->
<!-- Title: _FILEDESCRIPTORA Pages: 1 -->
<svg width="483pt" height="128pt"
 viewBox="0.00 0.00 482.50 128.00" xmlns="http://www.w3.org/2000/svg" xmlns:xlink="http://www.w3.org/1999/xlink">
<g id="graph0" class="graph" transform="scale(1 1) rotate(0) translate(4 124)">
<title>_FILEDESCRIPTORA</title>
<!-- Node1 -->
<g id="node1" class="node">
<title>Node1</title>
<g id="a_node1"><a xlink:title=" ">
<polygon fill="#bfbfbf" stroke="black" points="186,-0.5 186,-19.5 297,-19.5 297,-0.5 186,-0.5"/>
<text text-anchor="middle" x="241.5" y="-7.5" font-family="Helvetica,sans-Serif" font-size="10.00">_FILEDESCRIPTORA</text>
</a>
</g>
</g>
<!-- Node2 -->
<g id="node2" class="node">
<title>Node2</title>
<g id="a_node2"><a xlink:title=" ">
<polygon fill="none" stroke="#bfbfbf" points="0,-100.5 0,-119.5 61,-119.5 61,-100.5 0,-100.5"/>
<text text-anchor="middle" x="30.5" y="-107.5" font-family="Helvetica,sans-Serif" font-size="10.00">FILETIME</text>
</a>
</g>
</g>
<!-- Node2&#45;&gt;Node1 -->
<g id="edge1" class="edge">
<title>Node2&#45;&gt;Node1</title>
<path fill="none" stroke="#9a32cd" stroke-dasharray="5,2" d="M28.97,-89.6C28.85,-73.42 31.55,-50.99 45.5,-38 65.3,-19.57 134.92,-13.6 185.57,-11.73"/>
<polygon fill="#9a32cd" stroke="#9a32cd" points="25.5,-90.22 29.44,-100.05 32.49,-89.9 25.5,-90.22"/>
<text text-anchor="middle" x="88.5" y="-68.5" font-family="Helvetica,sans-Serif" font-size="10.00"> ftCreationTime</text>
<text text-anchor="middle" x="88.5" y="-57.5" font-family="Helvetica,sans-Serif" font-size="10.00">ftLastAccessTime</text>
<text text-anchor="middle" x="88.5" y="-46.5" font-family="Helvetica,sans-Serif" font-size="10.00">ftLastWriteTime</text>
</g>
<!-- Node3 -->
<g id="node3" class="node">
<title>Node3</title>
<g id="a_node3"><a xlink:title=" ">
<polygon fill="none" stroke="#bfbfbf" points="120.5,-100.5 120.5,-119.5 158.5,-119.5 158.5,-100.5 120.5,-100.5"/>
<text text-anchor="middle" x="139.5" y="-107.5" font-family="Helvetica,sans-Serif" font-size="10.00">char</text>
</a>
</g>
</g>
<!-- Node3&#45;&gt;Node1 -->
<g id="edge2" class="edge">
<title>Node3&#45;&gt;Node1</title>
<path fill="none" stroke="#9a32cd" stroke-dasharray="5,2" d="M136.34,-90.27C134.8,-74.52 135.39,-52.33 147.5,-38 157.14,-26.59 171.27,-19.83 185.65,-15.88"/>
<polygon fill="#9a32cd" stroke="#9a32cd" points="132.9,-90.96 137.71,-100.4 139.84,-90.02 132.9,-90.96"/>
<text text-anchor="middle" x="175" y="-57.5" font-family="Helvetica,sans-Serif" font-size="10.00"> cFileName</text>
</g>
<!-- Node4 -->
<g id="node4" class="node">
<title>Node4</title>
<g id="a_node4"><a xlink:title=" ">
<polygon fill="none" stroke="#bfbfbf" points="183.5,-100.5 183.5,-119.5 227.5,-119.5 227.5,-100.5 183.5,-100.5"/>
<text text-anchor="middle" x="205.5" y="-107.5" font-family="Helvetica,sans-Serif" font-size="10.00">SIZEL</text>
</a>
</g>
</g>
<!-- Node4&#45;&gt;Node1 -->
<g id="edge3" class="edge">
<title>Node4&#45;&gt;Node1</title>
<path fill="none" stroke="#9a32cd" stroke-dasharray="5,2" d="M206.31,-89.85C207.56,-75.07 210.7,-54.44 218.5,-38 221.78,-31.1 227.27,-24.55 232.07,-19.63"/>
<polygon fill="#9a32cd" stroke="#9a32cd" points="202.79,-90.05 205.66,-100.25 209.78,-90.49 202.79,-90.05"/>
<text text-anchor="middle" x="231.5" y="-57.5" font-family="Helvetica,sans-Serif" font-size="10.00"> sizel</text>
</g>
<!-- Node5 -->
<g id="node5" class="node">
<title>Node5</title>
<g id="a_node5"><a xlink:title=" ">
<polygon fill="none" stroke="#bfbfbf" points="245.5,-100.5 245.5,-119.5 287.5,-119.5 287.5,-100.5 245.5,-100.5"/>
<text text-anchor="middle" x="266.5" y="-107.5" font-family="Helvetica,sans-Serif" font-size="10.00">GUID</text>
</a>
</g>
</g>
<!-- Node5&#45;&gt;Node1 -->
<g id="edge4" class="edge">
<title>Node5&#45;&gt;Node1</title>
<path fill="none" stroke="#9a32cd" stroke-dasharray="5,2" d="M261.78,-90.51C256.36,-69.26 247.7,-35.29 243.68,-19.54"/>
<polygon fill="#9a32cd" stroke="#9a32cd" points="258.42,-91.48 264.28,-100.3 265.2,-89.75 258.42,-91.48"/>
<text text-anchor="middle" x="271.5" y="-57.5" font-family="Helvetica,sans-Serif" font-size="10.00"> clsid</text>
</g>
<!-- Node6 -->
<g id="node6" class="node">
<title>Node6</title>
<g id="a_node6"><a xlink:title=" ">
<polygon fill="none" stroke="#bfbfbf" points="305.5,-100.5 305.5,-119.5 357.5,-119.5 357.5,-100.5 305.5,-100.5"/>
<text text-anchor="middle" x="331.5" y="-107.5" font-family="Helvetica,sans-Serif" font-size="10.00">POINTL</text>
</a>
</g>
</g>
<!-- Node6&#45;&gt;Node1 -->
<g id="edge5" class="edge">
<title>Node6&#45;&gt;Node1</title>
<path fill="none" stroke="#9a32cd" stroke-dasharray="5,2" d="M323.61,-90.68C316.25,-75.21 304.08,-53.22 288.5,-38 280.69,-30.37 270.31,-24.11 261.29,-19.55"/>
<polygon fill="#9a32cd" stroke="#9a32cd" points="320.6,-92.52 327.91,-100.18 326.97,-89.63 320.6,-92.52"/>
<text text-anchor="middle" x="334" y="-57.5" font-family="Helvetica,sans-Serif" font-size="10.00"> pointl</text>
</g>
<!-- Node7 -->
<g id="node7" class="node">
<title>Node7</title>
<g id="a_node7"><a xlink:title=" ">
<polygon fill="none" stroke="#bfbfbf" points="376,-100.5 376,-119.5 437,-119.5 437,-100.5 376,-100.5"/>
<text text-anchor="middle" x="406.5" y="-107.5" font-family="Helvetica,sans-Serif" font-size="10.00">unsigned</text>
</a>
</g>
</g>
<!-- Node7&#45;&gt;Node1 -->
<g id="edge6" class="edge">
<title>Node7&#45;&gt;Node1</title>
<path fill="none" stroke="#9a32cd" stroke-dasharray="5,2" d="M397.95,-91.43C389.09,-75.09 373.7,-51.33 353.5,-38 336.89,-27.04 316.27,-20.52 297.27,-16.65"/>
<polygon fill="#9a32cd" stroke="#9a32cd" points="394.93,-93.19 402.61,-100.48 401.15,-89.99 394.93,-93.19"/>
<text text-anchor="middle" x="433" y="-74" font-family="Helvetica,sans-Serif" font-size="10.00"> dwFileAttributes</text>
<text text-anchor="middle" x="433" y="-63" font-family="Helvetica,sans-Serif" font-size="10.00">nFileSizeLow</text>
<text text-anchor="middle" x="433" y="-52" font-family="Helvetica,sans-Serif" font-size="10.00">dwFlags</text>
<text text-anchor="middle" x="433" y="-41" font-family="Helvetica,sans-Serif" font-size="10.00">nFileSizeHigh</text>
</g>
</g>
</svg>
