<?xml version="1.0" encoding="UTF-8" standalone="no"?>
<!DOCTYPE svg PUBLIC "-//W3C//DTD SVG 1.1//EN"
 "http://www.w3.org/Graphics/SVG/1.1/DTD/svg11.dtd">
<!-- Generated by graphviz version 2.43.0 (0)
 -->
<!-- Title: _DOCINFOA Pages: 1 -->
<svg width="215pt" height="117pt"
 viewBox="0.00 0.00 214.50 117.00" xmlns="http://www.w3.org/2000/svg" xmlns:xlink="http://www.w3.org/1999/xlink">
<g id="graph0" class="graph" transform="scale(1 1) rotate(0) translate(4 113)">
<title>_DOCINFOA</title>
<!-- Node1 -->
<g id="node1" class="node">
<title>Node1</title>
<g id="a_node1"><a xlink:title=" ">
<polygon fill="#bfbfbf" stroke="black" points="76,-0.5 76,-19.5 150,-19.5 150,-0.5 76,-0.5"/>
<text text-anchor="middle" x="113" y="-7.5" font-family="Helvetica,sans-Serif" font-size="10.00">_DOCINFOA</text>
</a>
</g>
</g>
<!-- Node2 -->
<g id="node2" class="node">
<title>Node2</title>
<g id="a_node2"><a xlink:title=" ">
<polygon fill="none" stroke="#bfbfbf" points="0,-89.5 0,-108.5 38,-108.5 38,-89.5 0,-89.5"/>
<text text-anchor="middle" x="19" y="-96.5" font-family="Helvetica,sans-Serif" font-size="10.00">char</text>
</a>
</g>
</g>
<!-- Node2&#45;&gt;Node1 -->
<g id="edge1" class="edge">
<title>Node2&#45;&gt;Node1</title>
<path fill="none" stroke="#9a32cd" stroke-dasharray="5,2" d="M20.6,-79.21C22.66,-66.12 27.34,-49.09 38,-38 47.98,-27.63 62.23,-21.23 75.63,-17.28"/>
<polygon fill="#9a32cd" stroke="#9a32cd" points="17.09,-79.11 19.39,-89.45 24.04,-79.93 17.09,-79.11"/>
<text text-anchor="middle" x="73.5" y="-63" font-family="Helvetica,sans-Serif" font-size="10.00"> lpszDocName</text>
<text text-anchor="middle" x="73.5" y="-52" font-family="Helvetica,sans-Serif" font-size="10.00">lpszDatatype</text>
<text text-anchor="middle" x="73.5" y="-41" font-family="Helvetica,sans-Serif" font-size="10.00">lpszOutput</text>
</g>
<!-- Node3 -->
<g id="node3" class="node">
<title>Node3</title>
<g id="a_node3"><a xlink:title=" ">
<polygon fill="none" stroke="#bfbfbf" points="98.5,-89.5 98.5,-108.5 127.5,-108.5 127.5,-89.5 98.5,-89.5"/>
<text text-anchor="middle" x="113" y="-96.5" font-family="Helvetica,sans-Serif" font-size="10.00">int</text>
</a>
</g>
</g>
<!-- Node3&#45;&gt;Node1 -->
<g id="edge2" class="edge">
<title>Node3&#45;&gt;Node1</title>
<path fill="none" stroke="#9a32cd" stroke-dasharray="5,2" d="M113,-79.19C113,-60.74 113,-33.41 113,-19.62"/>
<polygon fill="#9a32cd" stroke="#9a32cd" points="109.5,-79.34 113,-89.34 116.5,-79.34 109.5,-79.34"/>
<text text-anchor="middle" x="130.5" y="-52" font-family="Helvetica,sans-Serif" font-size="10.00"> cbSize</text>
</g>
<!-- Node4 -->
<g id="node4" class="node">
<title>Node4</title>
<g id="a_node4"><a xlink:title=" ">
<polygon fill="none" stroke="#bfbfbf" points="145.5,-89.5 145.5,-108.5 206.5,-108.5 206.5,-89.5 145.5,-89.5"/>
<text text-anchor="middle" x="176" y="-96.5" font-family="Helvetica,sans-Serif" font-size="10.00">unsigned</text>
</a>
</g>
</g>
<!-- Node4&#45;&gt;Node1 -->
<g id="edge3" class="edge">
<title>Node4&#45;&gt;Node1</title>
<path fill="none" stroke="#9a32cd" stroke-dasharray="5,2" d="M171.65,-79.56C167.98,-66.89 161.73,-50.21 152,-38 146.05,-30.53 137.48,-24.29 129.89,-19.69"/>
<polygon fill="#9a32cd" stroke="#9a32cd" points="168.32,-80.66 174.24,-89.45 175.09,-78.89 168.32,-80.66"/>
<text text-anchor="middle" x="186.5" y="-52" font-family="Helvetica,sans-Serif" font-size="10.00"> fwType</text>
</g>
</g>
</svg>
