<?xml version="1.0" encoding="UTF-8" standalone="no"?>
<!DOCTYPE svg PUBLIC "-//W3C//DTD SVG 1.1//EN"
 "http://www.w3.org/Graphics/SVG/1.1/DTD/svg11.dtd">
<!-- Generated by graphviz version 2.43.0 (0)
 -->
<!-- Title: MIB_IPSTATS Pages: 1 -->
<svg width="128pt" height="205pt"
 viewBox="0.00 0.00 127.50 205.00" xmlns="http://www.w3.org/2000/svg" xmlns:xlink="http://www.w3.org/1999/xlink">
<g id="graph0" class="graph" transform="scale(1 1) rotate(0) translate(4 201)">
<title>MIB_IPSTATS</title>
<!-- Node1 -->
<g id="node1" class="node">
<title>Node1</title>
<g id="a_node1"><a xlink:title=" ">
<polygon fill="#bfbfbf" stroke="black" points="0,-0.5 0,-19.5 79,-19.5 79,-0.5 0,-0.5"/>
<text text-anchor="middle" x="39.5" y="-7.5" font-family="Helvetica,sans-Serif" font-size="10.00">MIB_IPSTATS</text>
</a>
</g>
</g>
<!-- Node2 -->
<g id="node2" class="node">
<title>Node2</title>
<g id="a_node2"><a xlink:title=" ">
<polygon fill="none" stroke="#bfbfbf" points="9,-177.5 9,-196.5 70,-196.5 70,-177.5 9,-177.5"/>
<text text-anchor="middle" x="39.5" y="-184.5" font-family="Helvetica,sans-Serif" font-size="10.00">unsigned</text>
</a>
</g>
</g>
<!-- Node2&#45;&gt;Node1 -->
<g id="edge1" class="edge">
<title>Node2&#45;&gt;Node1</title>
<path fill="none" stroke="#9a32cd" stroke-dasharray="5,2" d="M39.5,-166.95C39.5,-129.3 39.5,-46.65 39.5,-19.69"/>
<polygon fill="#9a32cd" stroke="#9a32cd" points="36,-167.08 39.5,-177.08 43,-167.08 36,-167.08"/>
<text text-anchor="middle" x="79.5" y="-151" font-family="Helvetica,sans-Serif" font-size="10.00"> dwOutRequests</text>
<text text-anchor="middle" x="79.5" y="-140" font-family="Helvetica,sans-Serif" font-size="10.00">dwNumRoutes</text>
<text text-anchor="middle" x="79.5" y="-129" font-family="Helvetica,sans-Serif" font-size="10.00">dwFragFails</text>
<text text-anchor="middle" x="79.5" y="-118" font-family="Helvetica,sans-Serif" font-size="10.00">dwOutNoRoutes</text>
<text text-anchor="middle" x="79.5" y="-107" font-family="Helvetica,sans-Serif" font-size="10.00">dwInDelivers</text>
<text text-anchor="middle" x="79.5" y="-96" font-family="Helvetica,sans-Serif" font-size="10.00">dwInHdrErrors</text>
<text text-anchor="middle" x="79.5" y="-85" font-family="Helvetica,sans-Serif" font-size="10.00">dwFragCreates</text>
<text text-anchor="middle" x="79.5" y="-74" font-family="Helvetica,sans-Serif" font-size="10.00">dwReasmReqds</text>
<text text-anchor="middle" x="79.5" y="-63" font-family="Helvetica,sans-Serif" font-size="10.00">dwNumAddr</text>
<text text-anchor="middle" x="79.5" y="-52" font-family="Helvetica,sans-Serif" font-size="10.00">dwNumIf</text>
<text text-anchor="middle" x="79.5" y="-41" font-family="Helvetica,sans-Serif" font-size="10.00">...</text>
</g>
</g>
</svg>
