<?xml version="1.0" encoding="UTF-8" standalone="no"?>
<!DOCTYPE svg PUBLIC "-//W3C//DTD SVG 1.1//EN"
 "http://www.w3.org/Graphics/SVG/1.1/DTD/svg11.dtd">
<!-- Generated by graphviz version 2.43.0 (0)
 -->
<!-- Title: _avimainheader Pages: 1 -->
<svg width="253pt" height="205pt"
 viewBox="0.00 0.00 252.50 205.00" xmlns="http://www.w3.org/2000/svg" xmlns:xlink="http://www.w3.org/1999/xlink">
<g id="graph0" class="graph" transform="scale(1 1) rotate(0) translate(4 201)">
<title>_avimainheader</title>
<!-- Node1 -->
<g id="node1" class="node">
<title>Node1</title>
<g id="a_node1"><a xlink:title=" ">
<polygon fill="#bfbfbf" stroke="black" points="40,-0.5 40,-19.5 135,-19.5 135,-0.5 40,-0.5"/>
<text text-anchor="middle" x="87.5" y="-7.5" font-family="Helvetica,sans-Serif" font-size="10.00">_avimainheader</text>
</a>
</g>
</g>
<!-- Node2 -->
<g id="node2" class="node">
<title>Node2</title>
<g id="a_node2"><a xlink:title=" ">
<polygon fill="none" stroke="#bfbfbf" points="0,-177.5 0,-196.5 85,-196.5 85,-177.5 0,-177.5"/>
<text text-anchor="middle" x="42.5" y="-184.5" font-family="Helvetica,sans-Serif" font-size="10.00">unsigned long</text>
</a>
</g>
</g>
<!-- Node2&#45;&gt;Node1 -->
<g id="edge1" class="edge">
<title>Node2&#45;&gt;Node1</title>
<path fill="none" stroke="#9a32cd" stroke-dasharray="5,2" d="M47.4,-166.95C57.08,-129.3 78.33,-46.65 85.26,-19.69"/>
<polygon fill="#9a32cd" stroke="#9a32cd" points="43.89,-166.52 44.79,-177.08 50.67,-168.27 43.89,-166.52"/>
<text text-anchor="middle" x="89.5" y="-96" font-family="Helvetica,sans-Serif" font-size="10.00"> fcc</text>
</g>
<!-- Node3 -->
<g id="node3" class="node">
<title>Node3</title>
<g id="a_node3"><a xlink:title=" ">
<polygon fill="none" stroke="#bfbfbf" points="103,-177.5 103,-196.5 164,-196.5 164,-177.5 103,-177.5"/>
<text text-anchor="middle" x="133.5" y="-184.5" font-family="Helvetica,sans-Serif" font-size="10.00">unsigned</text>
</a>
</g>
</g>
<!-- Node3&#45;&gt;Node1 -->
<g id="edge2" class="edge">
<title>Node3&#45;&gt;Node1</title>
<path fill="none" stroke="#9a32cd" stroke-dasharray="5,2" d="M131.41,-167.24C127.81,-138.65 119.18,-82.75 102.5,-38 100.1,-31.57 96.35,-24.82 93.2,-19.68"/>
<polygon fill="#9a32cd" stroke="#9a32cd" points="127.96,-167.89 132.61,-177.41 134.91,-167.06 127.96,-167.89"/>
<text text-anchor="middle" x="187" y="-151" font-family="Helvetica,sans-Serif" font-size="10.00"> dwStreams</text>
<text text-anchor="middle" x="187" y="-140" font-family="Helvetica,sans-Serif" font-size="10.00">dwMaxBytesPerSec</text>
<text text-anchor="middle" x="187" y="-129" font-family="Helvetica,sans-Serif" font-size="10.00">dwHeight</text>
<text text-anchor="middle" x="187" y="-118" font-family="Helvetica,sans-Serif" font-size="10.00">dwWidth</text>
<text text-anchor="middle" x="187" y="-107" font-family="Helvetica,sans-Serif" font-size="10.00">dwPaddingGranularity</text>
<text text-anchor="middle" x="187" y="-96" font-family="Helvetica,sans-Serif" font-size="10.00">dwTotalFrames</text>
<text text-anchor="middle" x="187" y="-85" font-family="Helvetica,sans-Serif" font-size="10.00">dwMicroSecPerFrame</text>
<text text-anchor="middle" x="187" y="-74" font-family="Helvetica,sans-Serif" font-size="10.00">dwReserved</text>
<text text-anchor="middle" x="187" y="-63" font-family="Helvetica,sans-Serif" font-size="10.00">dwFlags</text>
<text text-anchor="middle" x="187" y="-52" font-family="Helvetica,sans-Serif" font-size="10.00">dwSuggestedBufferSize</text>
<text text-anchor="middle" x="187" y="-41" font-family="Helvetica,sans-Serif" font-size="10.00">...</text>
</g>
</g>
</svg>
