<?xml version="1.0" encoding="UTF-8" standalone="no"?>
<!DOCTYPE svg PUBLIC "-//W3C//DTD SVG 1.1//EN"
 "http://www.w3.org/Graphics/SVG/1.1/DTD/svg11.dtd">
<!-- Generated by graphviz version 2.43.0 (0)
 -->
<!-- Title: tagEMRSETPIXELV Pages: 1 -->
<svg width="220pt" height="95pt"
 viewBox="0.00 0.00 219.50 95.00" xmlns="http://www.w3.org/2000/svg" xmlns:xlink="http://www.w3.org/1999/xlink">
<g id="graph0" class="graph" transform="scale(1 1) rotate(0) translate(4 91)">
<title>tagEMRSETPIXELV</title>
<!-- Node1 -->
<g id="node1" class="node">
<title>Node1</title>
<g id="a_node1"><a xlink:title=" ">
<polygon fill="#bfbfbf" stroke="black" points="70,-0.5 70,-19.5 175,-19.5 175,-0.5 70,-0.5"/>
<text text-anchor="middle" x="122.5" y="-7.5" font-family="Helvetica,sans-Serif" font-size="10.00">tagEMRSETPIXELV</text>
</a>
</g>
</g>
<!-- Node2 -->
<g id="node2" class="node">
<title>Node2</title>
<g id="a_node2"><a xlink:title=" ">
<polygon fill="none" stroke="#bfbfbf" points="0,-67.5 0,-86.5 85,-86.5 85,-67.5 0,-67.5"/>
<text text-anchor="middle" x="42.5" y="-74.5" font-family="Helvetica,sans-Serif" font-size="10.00">unsigned long</text>
</a>
</g>
</g>
<!-- Node2&#45;&gt;Node1 -->
<g id="edge1" class="edge">
<title>Node2&#45;&gt;Node1</title>
<path fill="none" stroke="#9a32cd" stroke-dasharray="5,2" d="M57.3,-59.7C64.06,-52.67 72.35,-44.56 80.5,-38 89,-31.15 99.31,-24.5 107.59,-19.51"/>
<polygon fill="#9a32cd" stroke="#9a32cd" points="54.45,-57.62 50.18,-67.32 59.57,-62.4 54.45,-57.62"/>
<text text-anchor="middle" x="99.5" y="-41" font-family="Helvetica,sans-Serif" font-size="10.00"> crColor</text>
</g>
<!-- Node3 -->
<g id="node3" class="node">
<title>Node3</title>
<g id="a_node3"><a xlink:title=" ">
<polygon fill="none" stroke="#bfbfbf" points="103.5,-67.5 103.5,-86.5 141.5,-86.5 141.5,-67.5 103.5,-67.5"/>
<text text-anchor="middle" x="122.5" y="-74.5" font-family="Helvetica,sans-Serif" font-size="10.00">EMR</text>
</a>
</g>
</g>
<!-- Node3&#45;&gt;Node1 -->
<g id="edge2" class="edge">
<title>Node3&#45;&gt;Node1</title>
<path fill="none" stroke="#9a32cd" stroke-dasharray="5,2" d="M122.5,-57.04C122.5,-44.67 122.5,-29.12 122.5,-19.63"/>
<polygon fill="#9a32cd" stroke="#9a32cd" points="119,-57.23 122.5,-67.23 126,-57.23 119,-57.23"/>
<text text-anchor="middle" x="134" y="-41" font-family="Helvetica,sans-Serif" font-size="10.00"> emr</text>
</g>
<!-- Node4 -->
<g id="node4" class="node">
<title>Node4</title>
<g id="a_node4"><a xlink:title=" ">
<polygon fill="none" stroke="#bfbfbf" points="159.5,-67.5 159.5,-86.5 211.5,-86.5 211.5,-67.5 159.5,-67.5"/>
<text text-anchor="middle" x="185.5" y="-74.5" font-family="Helvetica,sans-Serif" font-size="10.00">POINTL</text>
</a>
</g>
</g>
<!-- Node4&#45;&gt;Node1 -->
<g id="edge3" class="edge">
<title>Node4&#45;&gt;Node1</title>
<path fill="none" stroke="#9a32cd" stroke-dasharray="5,2" d="M170.65,-60.14C164.2,-53.29 156.52,-45.21 149.5,-38 143.58,-31.92 136.83,-25.17 131.56,-19.94"/>
<polygon fill="#9a32cd" stroke="#9a32cd" points="168.16,-62.59 177.56,-67.49 173.26,-57.8 168.16,-62.59"/>
<text text-anchor="middle" x="178.5" y="-41" font-family="Helvetica,sans-Serif" font-size="10.00"> ptlPixel</text>
</g>
</g>
</svg>
