<?xml version="1.0" encoding="UTF-8" standalone="no"?>
<!DOCTYPE svg PUBLIC "-//W3C//DTD SVG 1.1//EN"
 "http://www.w3.org/Graphics/SVG/1.1/DTD/svg11.dtd">
<!-- Generated by graphviz version 2.43.0 (0)
 -->
<!-- Title: _paraformat2 Pages: 1 -->
<svg width="297pt" height="205pt"
 viewBox="0.00 0.00 296.50 205.00" xmlns="http://www.w3.org/2000/svg" xmlns:xlink="http://www.w3.org/1999/xlink">
<g id="graph0" class="graph" transform="scale(1 1) rotate(0) translate(4 201)">
<title>_paraformat2</title>
<!-- Node1 -->
<g id="node1" class="node">
<title>Node1</title>
<g id="a_node1"><a xlink:title=" ">
<polygon fill="#bfbfbf" stroke="black" points="56,-0.5 56,-19.5 139,-19.5 139,-0.5 56,-0.5"/>
<text text-anchor="middle" x="97.5" y="-7.5" font-family="Helvetica,sans-Serif" font-size="10.00">_paraformat2</text>
</a>
</g>
</g>
<!-- Node2 -->
<g id="node2" class="node">
<title>Node2</title>
<g id="a_node2"><a xlink:title=" ">
<polygon fill="none" stroke="#bfbfbf" points="0,-177.5 0,-196.5 41,-196.5 41,-177.5 0,-177.5"/>
<text text-anchor="middle" x="20.5" y="-184.5" font-family="Helvetica,sans-Serif" font-size="10.00">short</text>
</a>
</g>
</g>
<!-- Node2&#45;&gt;Node1 -->
<g id="edge1" class="edge">
<title>Node2&#45;&gt;Node1</title>
<path fill="none" stroke="#9a32cd" stroke-dasharray="5,2" d="M17.57,-167.25C13.9,-136.96 11.16,-76.75 39.5,-38 45.66,-29.57 55.12,-23.69 64.62,-19.63"/>
<polygon fill="#9a32cd" stroke="#9a32cd" points="14.12,-167.86 18.95,-177.29 21.05,-166.9 14.12,-167.86"/>
<text text-anchor="middle" x="66.5" y="-101.5" font-family="Helvetica,sans-Serif" font-size="10.00"> cTabCount</text>
<text text-anchor="middle" x="66.5" y="-90.5" font-family="Helvetica,sans-Serif" font-size="10.00">sStype</text>
</g>
<!-- Node3 -->
<g id="node3" class="node">
<title>Node3</title>
<g id="a_node3"><a xlink:title=" ">
<polygon fill="none" stroke="#bfbfbf" points="78.5,-177.5 78.5,-196.5 116.5,-196.5 116.5,-177.5 78.5,-177.5"/>
<text text-anchor="middle" x="97.5" y="-184.5" font-family="Helvetica,sans-Serif" font-size="10.00">long</text>
</a>
</g>
</g>
<!-- Node3&#45;&gt;Node1 -->
<g id="edge2" class="edge">
<title>Node3&#45;&gt;Node1</title>
<path fill="none" stroke="#9a32cd" stroke-dasharray="5,2" d="M97.5,-166.95C97.5,-129.3 97.5,-46.65 97.5,-19.69"/>
<polygon fill="#9a32cd" stroke="#9a32cd" points="94,-167.08 97.5,-177.08 101,-167.08 94,-167.08"/>
<text text-anchor="middle" x="134.5" y="-129" font-family="Helvetica,sans-Serif" font-size="10.00"> dySpaceAfter</text>
<text text-anchor="middle" x="134.5" y="-118" font-family="Helvetica,sans-Serif" font-size="10.00">dySpaceBefore</text>
<text text-anchor="middle" x="134.5" y="-107" font-family="Helvetica,sans-Serif" font-size="10.00">dxOffset</text>
<text text-anchor="middle" x="134.5" y="-96" font-family="Helvetica,sans-Serif" font-size="10.00">dxRightIndent</text>
<text text-anchor="middle" x="134.5" y="-85" font-family="Helvetica,sans-Serif" font-size="10.00">rgxTabs</text>
<text text-anchor="middle" x="134.5" y="-74" font-family="Helvetica,sans-Serif" font-size="10.00">dxStartIndent</text>
<text text-anchor="middle" x="134.5" y="-63" font-family="Helvetica,sans-Serif" font-size="10.00">dyLineSpacing</text>
</g>
<!-- Node4 -->
<g id="node4" class="node">
<title>Node4</title>
<g id="a_node4"><a xlink:title=" ">
<polygon fill="none" stroke="#bfbfbf" points="164,-177.5 164,-196.5 225,-196.5 225,-177.5 164,-177.5"/>
<text text-anchor="middle" x="194.5" y="-184.5" font-family="Helvetica,sans-Serif" font-size="10.00">unsigned</text>
</a>
</g>
</g>
<!-- Node4&#45;&gt;Node1 -->
<g id="edge3" class="edge">
<title>Node4&#45;&gt;Node1</title>
<path fill="none" stroke="#9a32cd" stroke-dasharray="5,2" d="M197.32,-167.34C200.85,-136.71 203.16,-75.42 172.5,-38 164.17,-27.83 151.69,-21.49 139.29,-17.54"/>
<polygon fill="#9a32cd" stroke="#9a32cd" points="193.82,-167.09 195.97,-177.47 200.76,-168.02 193.82,-167.09"/>
<text text-anchor="middle" x="243.5" y="-151" font-family="Helvetica,sans-Serif" font-size="10.00"> bLineSpacingRule</text>
<text text-anchor="middle" x="243.5" y="-140" font-family="Helvetica,sans-Serif" font-size="10.00">cbSize</text>
<text text-anchor="middle" x="243.5" y="-129" font-family="Helvetica,sans-Serif" font-size="10.00">wBorderSpace</text>
<text text-anchor="middle" x="243.5" y="-118" font-family="Helvetica,sans-Serif" font-size="10.00">bOutlineLevel</text>
<text text-anchor="middle" x="243.5" y="-107" font-family="Helvetica,sans-Serif" font-size="10.00">wNumberingStyle</text>
<text text-anchor="middle" x="243.5" y="-96" font-family="Helvetica,sans-Serif" font-size="10.00">wBorderWidth</text>
<text text-anchor="middle" x="243.5" y="-85" font-family="Helvetica,sans-Serif" font-size="10.00">wNumberingStart</text>
<text text-anchor="middle" x="243.5" y="-74" font-family="Helvetica,sans-Serif" font-size="10.00">wShadingWeight</text>
<text text-anchor="middle" x="243.5" y="-63" font-family="Helvetica,sans-Serif" font-size="10.00">wNumberingTab</text>
<text text-anchor="middle" x="243.5" y="-52" font-family="Helvetica,sans-Serif" font-size="10.00">wShadingStyle</text>
<text text-anchor="middle" x="243.5" y="-41" font-family="Helvetica,sans-Serif" font-size="10.00">...</text>
</g>
</g>
</svg>
