<?xml version="1.0" encoding="UTF-8" standalone="no"?>
<!DOCTYPE svg PUBLIC "-//W3C//DTD SVG 1.1//EN"
 "http://www.w3.org/Graphics/SVG/1.1/DTD/svg11.dtd">
<!-- Generated by graphviz version 2.43.0 (0)
 -->
<!-- Title: _IMAGE_FILE_HEADER Pages: 1 -->
<svg width="265pt" height="128pt"
 viewBox="0.00 0.00 264.50 128.00" xmlns="http://www.w3.org/2000/svg" xmlns:xlink="http://www.w3.org/1999/xlink">
<g id="graph0" class="graph" transform="scale(1 1) rotate(0) translate(4 124)">
<title>_IMAGE_FILE_HEADER</title>
<!-- Node1 -->
<g id="node1" class="node">
<title>Node1</title>
<g id="a_node1"><a xlink:title=" ">
<polygon fill="#bfbfbf" stroke="black" points="24,-0.5 24,-19.5 149,-19.5 149,-0.5 24,-0.5"/>
<text text-anchor="middle" x="86.5" y="-7.5" font-family="Helvetica,sans-Serif" font-size="10.00">_IMAGE_FILE_HEADER</text>
</a>
</g>
</g>
<!-- Node2 -->
<g id="node2" class="node">
<title>Node2</title>
<g id="a_node2"><a xlink:title=" ">
<polygon fill="none" stroke="#bfbfbf" points="0,-100.5 0,-119.5 41,-119.5 41,-100.5 0,-100.5"/>
<text text-anchor="middle" x="20.5" y="-107.5" font-family="Helvetica,sans-Serif" font-size="10.00">short</text>
</a>
</g>
</g>
<!-- Node2&#45;&gt;Node1 -->
<g id="edge1" class="edge">
<title>Node2&#45;&gt;Node1</title>
<path fill="none" stroke="#9a32cd" stroke-dasharray="5,2" d="M15.52,-90.33C12.56,-74.96 11.15,-53.27 21.5,-38 27.33,-29.4 36.45,-23.54 46.04,-19.54"/>
<polygon fill="#9a32cd" stroke="#9a32cd" points="12.14,-91.28 17.8,-100.24 18.96,-89.7 12.14,-91.28"/>
<text text-anchor="middle" x="76" y="-74" font-family="Helvetica,sans-Serif" font-size="10.00"> NumberOfSections</text>
<text text-anchor="middle" x="76" y="-63" font-family="Helvetica,sans-Serif" font-size="10.00">Characteristics</text>
<text text-anchor="middle" x="76" y="-52" font-family="Helvetica,sans-Serif" font-size="10.00">SizeOfOptionalHeader</text>
<text text-anchor="middle" x="76" y="-41" font-family="Helvetica,sans-Serif" font-size="10.00">Machine</text>
</g>
<!-- Node3 -->
<g id="node3" class="node">
<title>Node3</title>
<g id="a_node3"><a xlink:title=" ">
<polygon fill="none" stroke="#bfbfbf" points="133.5,-100.5 133.5,-119.5 171.5,-119.5 171.5,-100.5 133.5,-100.5"/>
<text text-anchor="middle" x="152.5" y="-107.5" font-family="Helvetica,sans-Serif" font-size="10.00">long</text>
</a>
</g>
</g>
<!-- Node3&#45;&gt;Node1 -->
<g id="edge2" class="edge">
<title>Node3&#45;&gt;Node1</title>
<path fill="none" stroke="#9a32cd" stroke-dasharray="5,2" d="M150.32,-89.87C147.76,-74.52 142.23,-53.1 130.5,-38 124.45,-30.21 115.48,-24.13 107.21,-19.73"/>
<polygon fill="#9a32cd" stroke="#9a32cd" points="146.92,-90.81 151.77,-100.23 153.85,-89.84 146.92,-90.81"/>
<text text-anchor="middle" x="202.5" y="-68.5" font-family="Helvetica,sans-Serif" font-size="10.00"> TimeDateStamp</text>
<text text-anchor="middle" x="202.5" y="-57.5" font-family="Helvetica,sans-Serif" font-size="10.00">PointerToSymbolTable</text>
<text text-anchor="middle" x="202.5" y="-46.5" font-family="Helvetica,sans-Serif" font-size="10.00">NumberOfSymbols</text>
</g>
</g>
</svg>
