<?xml version="1.0" encoding="UTF-8" standalone="no"?>
<!DOCTYPE svg PUBLIC "-//W3C//DTD SVG 1.1//EN"
 "http://www.w3.org/Graphics/SVG/1.1/DTD/svg11.dtd">
<!-- Generated by graphviz version 2.43.0 (0)
 -->
<!-- Title: trail_t Pages: 1 -->
<svg width="135pt" height="139pt"
 viewBox="0.00 0.00 135.00 139.00" xmlns="http://www.w3.org/2000/svg" xmlns:xlink="http://www.w3.org/1999/xlink">
<g id="graph0" class="graph" transform="scale(1 1) rotate(0) translate(4 135)">
<title>trail_t</title>
<!-- Node1 -->
<g id="node1" class="node">
<title>Node1</title>
<g id="a_node1"><a xlink:title=" ">
<polygon fill="#bfbfbf" stroke="black" points="34.5,-0.5 34.5,-19.5 79.5,-19.5 79.5,-0.5 34.5,-0.5"/>
<text text-anchor="middle" x="57" y="-7.5" font-family="Helvetica,sans-Serif" font-size="10.00">trail_t</text>
</a>
</g>
</g>
<!-- Node2 -->
<g id="node2" class="node">
<title>Node2</title>
<g id="a_node2"><a xlink:href="../../d4/dc3/classfloat.html" target="_top" xlink:title=" ">
<polygon fill="none" stroke="black" points="0,-111.5 0,-130.5 38,-130.5 38,-111.5 0,-111.5"/>
<text text-anchor="middle" x="19" y="-118.5" font-family="Helvetica,sans-Serif" font-size="10.00">float</text>
</a>
</g>
</g>
<!-- Node2&#45;&gt;Node1 -->
<g id="edge1" class="edge">
<title>Node2&#45;&gt;Node1</title>
<path fill="none" stroke="#9a32cd" stroke-dasharray="5,2" d="M14.72,-101.5C11.69,-84.1 9.77,-57.82 20,-38 24.08,-30.08 31.68,-23.93 38.93,-19.5"/>
<polygon fill="#9a32cd" stroke="#9a32cd" points="11.33,-102.4 16.75,-111.5 18.19,-101 11.33,-102.4"/>
<text text-anchor="middle" x="47" y="-85" font-family="Helvetica,sans-Serif" font-size="10.00"> width</text>
<text text-anchor="middle" x="47" y="-74" font-family="Helvetica,sans-Serif" font-size="10.00">tangent</text>
<text text-anchor="middle" x="47" y="-63" font-family="Helvetica,sans-Serif" font-size="10.00">baseSpeed</text>
<text text-anchor="middle" x="47" y="-52" font-family="Helvetica,sans-Serif" font-size="10.00">color</text>
<text text-anchor="middle" x="47" y="-41" font-family="Helvetica,sans-Serif" font-size="10.00">pos</text>
</g>
<!-- Node3 -->
<g id="node3" class="node">
<title>Node3</title>
<g id="a_node3"><a xlink:title=" ">
<polygon fill="none" stroke="#bfbfbf" points="81.5,-111.5 81.5,-130.5 110.5,-130.5 110.5,-111.5 81.5,-111.5"/>
<text text-anchor="middle" x="96" y="-118.5" font-family="Helvetica,sans-Serif" font-size="10.00">int</text>
</a>
</g>
</g>
<!-- Node3&#45;&gt;Node1 -->
<g id="edge2" class="edge">
<title>Node3&#45;&gt;Node1</title>
<path fill="none" stroke="#9a32cd" stroke-dasharray="5,2" d="M92.55,-100.81C89.11,-83.84 83.02,-58.63 74,-38 71.16,-31.5 66.91,-24.75 63.37,-19.63"/>
<polygon fill="#9a32cd" stroke="#9a32cd" points="89.2,-101.93 94.52,-111.09 96.08,-100.61 89.2,-101.93"/>
<text text-anchor="middle" x="108.5" y="-63" font-family="Helvetica,sans-Serif" font-size="10.00"> shader</text>
</g>
</g>
</svg>
