<?xml version="1.0" encoding="UTF-8" standalone="no"?>
<!DOCTYPE svg PUBLIC "-//W3C//DTD SVG 1.1//EN"
 "http://www.w3.org/Graphics/SVG/1.1/DTD/svg11.dtd">
<!-- Generated by graphviz version 2.43.0 (0)
 -->
<!-- Title: Engine/SDL12/include/SDL_syswm.h Pages: 1 -->
<svg width="293pt" height="319pt"
 viewBox="0.00 0.00 292.50 319.00" xmlns="http://www.w3.org/2000/svg" xmlns:xlink="http://www.w3.org/1999/xlink">
<g id="graph0" class="graph" transform="scale(1 1) rotate(0) translate(4 315)">
<title>Engine/SDL12/include/SDL_syswm.h</title>
<!-- Node1 -->
<g id="node1" class="node">
<title>Node1</title>
<g id="a_node1"><a xlink:title=" ">
<polygon fill="#bfbfbf" stroke="black" points="56.5,-280.5 56.5,-310.5 178.5,-310.5 178.5,-280.5 56.5,-280.5"/>
<text text-anchor="start" x="64.5" y="-298.5" font-family="Helvetica,sans-Serif" font-size="10.00">Engine/SDL12/include</text>
<text text-anchor="middle" x="117.5" y="-287.5" font-family="Helvetica,sans-Serif" font-size="10.00">/SDL_syswm.h</text>
</a>
</g>
</g>
<!-- Node2 -->
<g id="node2" class="node">
<title>Node2</title>
<g id="a_node2"><a xlink:href="../../d2/d5b/SDL__stdinc_8h.html" target="_top" xlink:title=" ">
<polygon fill="none" stroke="black" points="69,-168.5 69,-187.5 148,-187.5 148,-168.5 69,-168.5"/>
<text text-anchor="middle" x="108.5" y="-175.5" font-family="Helvetica,sans-Serif" font-size="10.00">SDL_stdinc.h</text>
</a>
</g>
</g>
<!-- Node1&#45;&gt;Node2 -->
<g id="edge1" class="edge">
<title>Node1&#45;&gt;Node2</title>
<path fill="none" stroke="midnightblue" d="M99.48,-280.21C89.45,-271.07 77.93,-258.27 72.5,-244 65.81,-226.43 78.4,-207.8 90.5,-195.01"/>
<polygon fill="midnightblue" stroke="midnightblue" points="93.09,-197.36 97.78,-187.86 88.19,-192.36 93.09,-197.36"/>
</g>
<!-- Node7 -->
<g id="node7" class="node">
<title>Node7</title>
<g id="a_node7"><a xlink:href="../../d1/d90/begin__code_8h.html" target="_top" xlink:title=" ">
<polygon fill="none" stroke="black" points="0,-112.5 0,-131.5 81,-131.5 81,-112.5 0,-112.5"/>
<text text-anchor="middle" x="40.5" y="-119.5" font-family="Helvetica,sans-Serif" font-size="10.00">begin_code.h</text>
</a>
</g>
</g>
<!-- Node1&#45;&gt;Node7 -->
<g id="edge17" class="edge">
<title>Node1&#45;&gt;Node7</title>
<path fill="none" stroke="midnightblue" d="M99.85,-280.09C89.3,-270.71 76.28,-257.71 67.5,-244 47.07,-212.09 41.97,-166.85 40.78,-141.7"/>
<polygon fill="midnightblue" stroke="midnightblue" points="44.27,-141.57 40.46,-131.68 37.28,-141.78 44.27,-141.57"/>
</g>
<!-- Node8 -->
<g id="node8" class="node">
<title>Node8</title>
<g id="a_node8"><a xlink:href="../../d0/d2e/close__code_8h.html" target="_top" xlink:title=" ">
<polygon fill="none" stroke="black" points="204.5,-112.5 204.5,-131.5 284.5,-131.5 284.5,-112.5 204.5,-112.5"/>
<text text-anchor="middle" x="244.5" y="-119.5" font-family="Helvetica,sans-Serif" font-size="10.00">close_code.h</text>
</a>
</g>
</g>
<!-- Node1&#45;&gt;Node8 -->
<g id="edge18" class="edge">
<title>Node1&#45;&gt;Node8</title>
<path fill="none" stroke="midnightblue" d="M178.61,-290.23C210.33,-284.54 246.53,-271.86 266.5,-244 288.91,-212.75 268.9,-165.58 255.06,-140.36"/>
<polygon fill="midnightblue" stroke="midnightblue" points="258.02,-138.48 250,-131.57 251.96,-141.98 258.02,-138.48"/>
</g>
<!-- Node9 -->
<g id="node9" class="node">
<title>Node9</title>
<g id="a_node9"><a xlink:href="../../da/d16/SDL__error_8h.html" target="_top" xlink:title=" ">
<polygon fill="none" stroke="black" points="81.5,-224.5 81.5,-243.5 153.5,-243.5 153.5,-224.5 81.5,-224.5"/>
<text text-anchor="middle" x="117.5" y="-231.5" font-family="Helvetica,sans-Serif" font-size="10.00">SDL_error.h</text>
</a>
</g>
</g>
<!-- Node1&#45;&gt;Node9 -->
<g id="edge9" class="edge">
<title>Node1&#45;&gt;Node9</title>
<path fill="none" stroke="midnightblue" d="M117.5,-280.4C117.5,-272.47 117.5,-262.46 117.5,-253.86"/>
<polygon fill="midnightblue" stroke="midnightblue" points="121,-253.66 117.5,-243.66 114,-253.66 121,-253.66"/>
</g>
<!-- Node10 -->
<g id="node10" class="node">
<title>Node10</title>
<g id="a_node10"><a xlink:href="../../d3/de3/SDL__version_8h.html" target="_top" xlink:title=" ">
<polygon fill="none" stroke="black" points="171.5,-224.5 171.5,-243.5 257.5,-243.5 257.5,-224.5 171.5,-224.5"/>
<text text-anchor="middle" x="214.5" y="-231.5" font-family="Helvetica,sans-Serif" font-size="10.00">SDL_version.h</text>
</a>
</g>
</g>
<!-- Node1&#45;&gt;Node10 -->
<g id="edge13" class="edge">
<title>Node1&#45;&gt;Node10</title>
<path fill="none" stroke="midnightblue" d="M140.49,-280.4C155.89,-270.95 176.09,-258.56 191.5,-249.11"/>
<polygon fill="midnightblue" stroke="midnightblue" points="193.69,-251.87 200.39,-243.66 190.03,-245.9 193.69,-251.87"/>
</g>
<!-- Node3 -->
<g id="node3" class="node">
<title>Node3</title>
<g id="a_node3"><a xlink:href="../../d3/dfb/SDL__config_8h.html" target="_top" xlink:title=" ">
<polygon fill="none" stroke="black" points="99,-112.5 99,-131.5 178,-131.5 178,-112.5 99,-112.5"/>
<text text-anchor="middle" x="138.5" y="-119.5" font-family="Helvetica,sans-Serif" font-size="10.00">SDL_config.h</text>
</a>
</g>
</g>
<!-- Node2&#45;&gt;Node3 -->
<g id="edge2" class="edge">
<title>Node2&#45;&gt;Node3</title>
<path fill="none" stroke="midnightblue" d="M113.45,-168.08C117.6,-160.61 123.65,-149.72 128.77,-140.52"/>
<polygon fill="midnightblue" stroke="midnightblue" points="131.84,-142.19 133.64,-131.75 125.72,-138.79 131.84,-142.19"/>
</g>
<!-- Node2&#45;&gt;Node7 -->
<g id="edge7" class="edge">
<title>Node2&#45;&gt;Node7</title>
<path fill="none" stroke="midnightblue" d="M97.57,-168.32C87.33,-160.18 71.78,-147.84 59.5,-138.09"/>
<polygon fill="midnightblue" stroke="midnightblue" points="61.63,-135.31 51.62,-131.83 57.28,-140.79 61.63,-135.31"/>
</g>
<!-- Node2&#45;&gt;Node8 -->
<g id="edge8" class="edge">
<title>Node2&#45;&gt;Node8</title>
<path fill="none" stroke="midnightblue" d="M130.05,-168.44C152.53,-159.52 187.99,-145.44 213.48,-135.32"/>
<polygon fill="midnightblue" stroke="midnightblue" points="215.05,-138.46 223.05,-131.52 212.47,-131.95 215.05,-138.46"/>
</g>
<!-- Node4 -->
<g id="node4" class="node">
<title>Node4</title>
<g id="a_node4"><a xlink:href="../../d3/df1/SDL__platform_8h.html" target="_top" xlink:title=" ">
<polygon fill="none" stroke="black" points="46.5,-0.5 46.5,-19.5 138.5,-19.5 138.5,-0.5 46.5,-0.5"/>
<text text-anchor="middle" x="92.5" y="-7.5" font-family="Helvetica,sans-Serif" font-size="10.00">SDL_platform.h</text>
</a>
</g>
</g>
<!-- Node3&#45;&gt;Node4 -->
<g id="edge3" class="edge">
<title>Node3&#45;&gt;Node4</title>
<path fill="none" stroke="midnightblue" d="M132.42,-112.4C126.43,-103.59 117.34,-89.36 111.5,-76 104.87,-60.85 99.79,-42.73 96.56,-29.48"/>
<polygon fill="midnightblue" stroke="midnightblue" points="99.95,-28.61 94.29,-19.66 93.13,-30.19 99.95,-28.61"/>
</g>
<!-- Node5 -->
<g id="node5" class="node">
<title>Node5</title>
<g id="a_node5"><a xlink:href="../../da/d7f/SDL__config__minimal_8h.html" target="_top" xlink:title=" ">
<polygon fill="none" stroke="black" points="121,-56.5 121,-75.5 246,-75.5 246,-56.5 121,-56.5"/>
<text text-anchor="middle" x="183.5" y="-63.5" font-family="Helvetica,sans-Serif" font-size="10.00">SDL_config_minimal.h</text>
</a>
</g>
</g>
<!-- Node3&#45;&gt;Node5 -->
<g id="edge4" class="edge">
<title>Node3&#45;&gt;Node5</title>
<path fill="none" stroke="midnightblue" d="M145.93,-112.08C152.35,-104.38 161.81,-93.03 169.62,-83.65"/>
<polygon fill="midnightblue" stroke="midnightblue" points="172.49,-85.67 176.21,-75.75 167.12,-81.19 172.49,-85.67"/>
</g>
<!-- Node5&#45;&gt;Node4 -->
<g id="edge5" class="edge">
<title>Node5&#45;&gt;Node4</title>
<path fill="none" stroke="midnightblue" d="M168.88,-56.32C154.55,-47.82 132.49,-34.73 115.75,-24.8"/>
<polygon fill="midnightblue" stroke="midnightblue" points="117.47,-21.75 107.08,-19.65 113.9,-27.77 117.47,-21.75"/>
</g>
<!-- Node6 -->
<g id="node6" class="node">
<title>Node6</title>
<g id="a_node6"><a xlink:title=" ">
<polygon fill="none" stroke="#bfbfbf" points="156.5,-0.5 156.5,-19.5 212.5,-19.5 212.5,-0.5 156.5,-0.5"/>
<text text-anchor="middle" x="184.5" y="-7.5" font-family="Helvetica,sans-Serif" font-size="10.00">stdarg.h</text>
</a>
</g>
</g>
<!-- Node5&#45;&gt;Node6 -->
<g id="edge6" class="edge">
<title>Node5&#45;&gt;Node6</title>
<path fill="none" stroke="midnightblue" d="M183.67,-56.08C183.8,-49.01 183.98,-38.86 184.15,-29.99"/>
<polygon fill="midnightblue" stroke="midnightblue" points="187.65,-29.81 184.34,-19.75 180.65,-29.68 187.65,-29.81"/>
</g>
<!-- Node9&#45;&gt;Node2 -->
<g id="edge10" class="edge">
<title>Node9&#45;&gt;Node2</title>
<path fill="none" stroke="midnightblue" d="M116.01,-224.08C114.82,-216.93 113.11,-206.64 111.62,-197.69"/>
<polygon fill="midnightblue" stroke="midnightblue" points="115.05,-197.04 109.96,-187.75 108.15,-198.19 115.05,-197.04"/>
</g>
<!-- Node9&#45;&gt;Node7 -->
<g id="edge11" class="edge">
<title>Node9&#45;&gt;Node7</title>
<path fill="none" stroke="midnightblue" d="M101.44,-224.37C88.32,-216.54 70.26,-203.8 59.5,-188 50.09,-174.18 45.27,-155.66 42.85,-141.92"/>
<polygon fill="midnightblue" stroke="midnightblue" points="46.26,-141.09 41.33,-131.72 39.34,-142.13 46.26,-141.09"/>
</g>
<!-- Node9&#45;&gt;Node8 -->
<g id="edge12" class="edge">
<title>Node9&#45;&gt;Node8</title>
<path fill="none" stroke="midnightblue" d="M127.47,-224.37C148.89,-205.81 199.57,-161.91 226.68,-138.44"/>
<polygon fill="midnightblue" stroke="midnightblue" points="229.31,-140.78 234.58,-131.59 224.73,-135.49 229.31,-140.78"/>
</g>
<!-- Node10&#45;&gt;Node2 -->
<g id="edge14" class="edge">
<title>Node10&#45;&gt;Node2</title>
<path fill="none" stroke="midnightblue" d="M197.47,-224.32C180.47,-215.66 154.12,-202.24 134.51,-192.25"/>
<polygon fill="midnightblue" stroke="midnightblue" points="135.99,-189.08 125.49,-187.65 132.81,-195.31 135.99,-189.08"/>
</g>
<!-- Node10&#45;&gt;Node7 -->
<g id="edge15" class="edge">
<title>Node10&#45;&gt;Node7</title>
<path fill="none" stroke="midnightblue" d="M208.74,-224.23C199.33,-210.5 179.37,-183.85 156.5,-168 134.62,-152.83 106.92,-141.84 84.07,-134.51"/>
<polygon fill="midnightblue" stroke="midnightblue" points="84.87,-131.1 74.28,-131.5 82.81,-137.79 84.87,-131.1"/>
</g>
<!-- Node10&#45;&gt;Node8 -->
<g id="edge16" class="edge">
<title>Node10&#45;&gt;Node8</title>
<path fill="none" stroke="midnightblue" d="M217.34,-224.42C220.28,-215.4 224.95,-200.77 228.5,-188 232.79,-172.59 237.09,-154.95 240.15,-141.94"/>
<polygon fill="midnightblue" stroke="midnightblue" points="243.64,-142.41 242.49,-131.88 236.82,-140.82 243.64,-142.41"/>
</g>
</g>
</svg>
