<?xml version="1.0" encoding="UTF-8" standalone="no"?>
<!DOCTYPE svg PUBLIC "-//W3C//DTD SVG 1.1//EN"
 "http://www.w3.org/Graphics/SVG/1.1/DTD/svg11.dtd">
<!-- Generated by graphviz version 2.43.0 (0)
 -->
<!-- Title: _DISK_SIGNATURE Pages: 1 -->
<svg width="454pt" height="207pt"
 viewBox="0.00 0.00 454.00 207.00" xmlns="http://www.w3.org/2000/svg" xmlns:xlink="http://www.w3.org/1999/xlink">
<g id="graph0" class="graph" transform="scale(1 1) rotate(0) translate(4 203)">
<title>_DISK_SIGNATURE</title>
<!-- Node1 -->
<g id="node1" class="node">
<title>Node1</title>
<g id="a_node1"><a xlink:title=" ">
<polygon fill="#bfbfbf" stroke="black" points="339,-103.5 339,-122.5 446,-122.5 446,-103.5 339,-103.5"/>
<text text-anchor="middle" x="392.5" y="-110.5" font-family="Helvetica,sans-Serif" font-size="10.00">_DISK_SIGNATURE</text>
</a>
</g>
</g>
<!-- Node2 -->
<g id="node2" class="node">
<title>Node2</title>
<g id="a_node2"><a xlink:title=" ">
<polygon fill="none" stroke="#bfbfbf" points="78,-179.5 78,-198.5 120,-198.5 120,-179.5 78,-179.5"/>
<text text-anchor="middle" x="99" y="-186.5" font-family="Helvetica,sans-Serif" font-size="10.00">GUID</text>
</a>
</g>
</g>
<!-- Node2&#45;&gt;Node1 -->
<g id="edge1" class="edge">
<title>Node2&#45;&gt;Node1</title>
<path fill="none" stroke="#9a32cd" stroke-dasharray="5,2" d="M130.35,-188.26C173.83,-186.37 255.78,-179.66 321,-156 343.1,-147.98 365.82,-132.59 379.29,-122.56"/>
<polygon fill="#9a32cd" stroke="#9a32cd" points="130.02,-184.77 120.16,-188.65 130.29,-191.77 130.02,-184.77"/>
<text text-anchor="middle" x="268.5" y="-182" font-family="Helvetica,sans-Serif" font-size="10.00"> DiskId</text>
</g>
<!-- Node3 -->
<g id="node3" class="node">
<title>Node3</title>
<g id="a_node3"><a xlink:title=" ">
<polygon fill="none" stroke="#bfbfbf" points="10,-141.5 10,-160.5 188,-160.5 188,-141.5 10,-141.5"/>
<text text-anchor="middle" x="99" y="-148.5" font-family="Helvetica,sans-Serif" font-size="10.00">anonymous:DUMMYUNIONNAME</text>
</a>
</g>
</g>
<!-- Node3&#45;&gt;Node1 -->
<g id="edge2" class="edge">
<title>Node3&#45;&gt;Node1</title>
<path fill="none" stroke="#9a32cd" stroke-dasharray="5,2" d="M198.34,-143.02C236.73,-139.31 281.04,-134.31 321,-128 330.52,-126.5 340.69,-124.54 350.26,-122.54"/>
<polygon fill="#9a32cd" stroke="#9a32cd" points="197.82,-139.55 188.2,-143.98 198.48,-146.52 197.82,-139.55"/>
<text text-anchor="middle" x="268.5" y="-144" font-family="Helvetica,sans-Serif" font-size="10.00"> DUMMYUNIONNAME</text>
</g>
<!-- Node4 -->
<g id="node4" class="node">
<title>Node4</title>
<g id="a_node4"><a xlink:title=" ">
<polygon fill="none" stroke="#bfbfbf" points="51.5,-103.5 51.5,-122.5 146.5,-122.5 146.5,-103.5 51.5,-103.5"/>
<text text-anchor="middle" x="99" y="-110.5" font-family="Helvetica,sans-Serif" font-size="10.00">anonymous:Mbr</text>
</a>
</g>
</g>
<!-- Node4&#45;&gt;Node1 -->
<g id="edge3" class="edge">
<title>Node4&#45;&gt;Node1</title>
<path fill="none" stroke="#9a32cd" stroke-dasharray="5,2" d="M156.72,-113C209.52,-113 287.59,-113 338.99,-113"/>
<polygon fill="#9a32cd" stroke="#9a32cd" points="156.51,-109.5 146.51,-113 156.51,-116.5 156.51,-109.5"/>
<text text-anchor="middle" x="268.5" y="-116" font-family="Helvetica,sans-Serif" font-size="10.00"> Mbr</text>
</g>
<!-- Node5 -->
<g id="node5" class="node">
<title>Node5</title>
<g id="a_node5"><a xlink:title=" ">
<polygon fill="none" stroke="#bfbfbf" points="52,-65.5 52,-84.5 146,-84.5 146,-65.5 52,-65.5"/>
<text text-anchor="middle" x="99" y="-72.5" font-family="Helvetica,sans-Serif" font-size="10.00">anonymous:Gpt</text>
</a>
</g>
</g>
<!-- Node5&#45;&gt;Node1 -->
<g id="edge4" class="edge">
<title>Node5&#45;&gt;Node1</title>
<path fill="none" stroke="#9a32cd" stroke-dasharray="5,2" d="M156.42,-79.21C201.21,-82.96 265.32,-89.21 321,-98 330.52,-99.5 340.69,-101.46 350.26,-103.46"/>
<polygon fill="#9a32cd" stroke="#9a32cd" points="156.58,-75.71 146.32,-78.38 156,-82.69 156.58,-75.71"/>
<text text-anchor="middle" x="268.5" y="-101" font-family="Helvetica,sans-Serif" font-size="10.00"> Gpt</text>
</g>
<!-- Node6 -->
<g id="node6" class="node">
<title>Node6</title>
<g id="a_node6"><a xlink:title=" ">
<polygon fill="none" stroke="#bfbfbf" points="0,-0.5 0,-41.5 198,-41.5 198,-0.5 0,-0.5"/>
<text text-anchor="start" x="8" y="-29.5" font-family="Helvetica,sans-Serif" font-size="10.00">PSecurityUserData *typedef</text>
<text text-anchor="start" x="8" y="-18.5" font-family="Helvetica,sans-Serif" font-size="10.00"> PSECPKG_EXTENDED_INFORMATION</text>
<text text-anchor="middle" x="99" y="-7.5" font-family="Helvetica,sans-Serif" font-size="10.00"> *typedef</text>
</a>
</g>
</g>
<!-- Node6&#45;&gt;Node1 -->
<g id="edge5" class="edge">
<title>Node6&#45;&gt;Node1</title>
<path fill="none" stroke="#9a32cd" stroke-dasharray="5,2" d="M208.59,-20.19C245.63,-23.4 286.41,-30.94 321,-47 348.98,-59.99 373.16,-88.4 384.55,-103.36"/>
<polygon fill="#9a32cd" stroke="#9a32cd" points="208.48,-16.67 198.24,-19.4 207.95,-23.65 208.48,-16.67"/>
<text text-anchor="middle" x="268.5" y="-72" font-family="Helvetica,sans-Serif" font-size="10.00"> CheckSum</text>
<text text-anchor="middle" x="268.5" y="-61" font-family="Helvetica,sans-Serif" font-size="10.00">Signature</text>
<text text-anchor="middle" x="268.5" y="-50" font-family="Helvetica,sans-Serif" font-size="10.00">PartitionStyle</text>
</g>
</g>
</svg>
