<?xml version="1.0" encoding="UTF-8" standalone="no"?>
<!DOCTYPE svg PUBLIC "-//W3C//DTD SVG 1.1//EN"
 "http://www.w3.org/Graphics/SVG/1.1/DTD/svg11.dtd">
<!-- Generated by graphviz version 2.43.0 (0)
 -->
<!-- Title: SpeexPreprocessState Pages: 1 -->
<svg width="526pt" height="296pt"
 viewBox="0.00 0.00 526.01 296.00" xmlns="http://www.w3.org/2000/svg" xmlns:xlink="http://www.w3.org/1999/xlink">
<g id="graph0" class="graph" transform="scale(1 1) rotate(0) translate(4 292)">
<title>SpeexPreprocessState</title>
<!-- Node1 -->
<g id="node1" class="node">
<title>Node1</title>
<g id="a_node1"><a xlink:title="Speex pre&#45;processor state.">
<polygon fill="#bfbfbf" stroke="black" points="169.51,-0.5 169.51,-19.5 294.51,-19.5 294.51,-0.5 169.51,-0.5"/>
<text text-anchor="middle" x="232.01" y="-7.5" font-family="Helvetica,sans-Serif" font-size="10.00">SpeexPreprocessState</text>
</a>
</g>
</g>
<!-- Node2 -->
<g id="node2" class="node">
<title>Node2</title>
<g id="a_node2"><a xlink:title=" ">
<polygon fill="none" stroke="#bfbfbf" points="14.01,-268.5 14.01,-287.5 52.01,-287.5 52.01,-268.5 14.01,-268.5"/>
<text text-anchor="middle" x="33.01" y="-275.5" font-family="Helvetica,sans-Serif" font-size="10.00">float</text>
</a>
</g>
</g>
<!-- Node2&#45;&gt;Node1 -->
<g id="edge1" class="edge">
<title>Node2&#45;&gt;Node1</title>
<path fill="none" stroke="#9a32cd" stroke-dasharray="5,2" d="M25.11,-258.84C9.29,-219.34 -21.16,-124.56 23.01,-67 40.85,-43.75 114.55,-28.04 169.42,-19.32"/>
<polygon fill="#9a32cd" stroke="#9a32cd" points="21.95,-260.35 29.03,-268.24 28.41,-257.66 21.95,-260.35"/>
<text text-anchor="middle" x="72.01" y="-180" font-family="Helvetica,sans-Serif" font-size="10.00"> max_increase_step</text>
<text text-anchor="middle" x="72.01" y="-169" font-family="Helvetica,sans-Serif" font-size="10.00">post</text>
<text text-anchor="middle" x="72.01" y="-158" font-family="Helvetica,sans-Serif" font-size="10.00">gain2</text>
<text text-anchor="middle" x="72.01" y="-147" font-family="Helvetica,sans-Serif" font-size="10.00">window</text>
<text text-anchor="middle" x="72.01" y="-136" font-family="Helvetica,sans-Serif" font-size="10.00">reverb_decay</text>
<text text-anchor="middle" x="72.01" y="-125" font-family="Helvetica,sans-Serif" font-size="10.00">Stmp</text>
<text text-anchor="middle" x="72.01" y="-114" font-family="Helvetica,sans-Serif" font-size="10.00">agc_gain</text>
<text text-anchor="middle" x="72.01" y="-103" font-family="Helvetica,sans-Serif" font-size="10.00">ps</text>
<text text-anchor="middle" x="72.01" y="-92" font-family="Helvetica,sans-Serif" font-size="10.00">prior</text>
<text text-anchor="middle" x="72.01" y="-81" font-family="Helvetica,sans-Serif" font-size="10.00">gain_floor</text>
<text text-anchor="middle" x="72.01" y="-70" font-family="Helvetica,sans-Serif" font-size="10.00">...</text>
</g>
<!-- Node3 -->
<g id="node3" class="node">
<title>Node3</title>
<g id="a_node3"><a xlink:href="../../d5/d6a/structFilterBank.html" target="_top" xlink:title=" ">
<polygon fill="none" stroke="black" points="130.01,-118 130.01,-137 196.01,-137 196.01,-118 130.01,-118"/>
<text text-anchor="middle" x="163.01" y="-125" font-family="Helvetica,sans-Serif" font-size="10.00">FilterBank</text>
</a>
</g>
</g>
<!-- Node2&#45;&gt;Node3 -->
<g id="edge3" class="edge">
<title>Node2&#45;&gt;Node3</title>
<path fill="none" stroke="#9a32cd" stroke-dasharray="5,2" d="M47.74,-260.49C60.79,-245.98 80.43,-224.37 98.01,-206 105.83,-197.83 108.49,-196.45 116.01,-188 131.41,-170.69 147.85,-149.06 156.62,-137.23"/>
<polygon fill="#9a32cd" stroke="#9a32cd" points="44.96,-258.36 40.89,-268.14 50.17,-263.03 44.96,-258.36"/>
<text text-anchor="middle" x="123.51" y="-236.5" font-family="Helvetica,sans-Serif" font-size="10.00"> filter_left</text>
<text text-anchor="middle" x="123.51" y="-225.5" font-family="Helvetica,sans-Serif" font-size="10.00">scaling</text>
<text text-anchor="middle" x="123.51" y="-214.5" font-family="Helvetica,sans-Serif" font-size="10.00">filter_right</text>
</g>
<!-- Node3&#45;&gt;Node1 -->
<g id="edge2" class="edge">
<title>Node3&#45;&gt;Node1</title>
<path fill="none" stroke="#9a32cd" stroke-dasharray="5,2" d="M164.94,-107.65C167.71,-88.46 174.36,-58.68 190.01,-38 195.87,-30.26 204.64,-24.12 212.65,-19.67"/>
<polygon fill="#9a32cd" stroke="#9a32cd" points="161.43,-107.46 163.68,-117.81 168.38,-108.32 161.43,-107.46"/>
<text text-anchor="middle" x="204.01" y="-41" font-family="Helvetica,sans-Serif" font-size="10.00"> bank</text>
</g>
<!-- Node4 -->
<g id="node4" class="node">
<title>Node4</title>
<g id="a_node4"><a xlink:title=" ">
<polygon fill="none" stroke="#bfbfbf" points="182.51,-268.5 182.51,-287.5 211.51,-287.5 211.51,-268.5 182.51,-268.5"/>
<text text-anchor="middle" x="197.01" y="-275.5" font-family="Helvetica,sans-Serif" font-size="10.00">int</text>
</a>
</g>
</g>
<!-- Node4&#45;&gt;Node1 -->
<g id="edge5" class="edge">
<title>Node4&#45;&gt;Node1</title>
<path fill="none" stroke="#9a32cd" stroke-dasharray="5,2" d="M212.27,-260.5C214.57,-257.23 216.63,-253.66 218.01,-250 249.91,-165.19 237.63,-51.51 233.28,-19.63"/>
<polygon fill="#9a32cd" stroke="#9a32cd" points="209.49,-258.38 205.93,-268.36 214.94,-262.78 209.49,-258.38"/>
<text text-anchor="middle" x="294.01" y="-180" font-family="Helvetica,sans-Serif" font-size="10.00"> nb_loudness_adapt</text>
<text text-anchor="middle" x="294.01" y="-169" font-family="Helvetica,sans-Serif" font-size="10.00">denoise_enabled</text>
<text text-anchor="middle" x="294.01" y="-158" font-family="Helvetica,sans-Serif" font-size="10.00">was_speech</text>
<text text-anchor="middle" x="294.01" y="-147" font-family="Helvetica,sans-Serif" font-size="10.00">echo_suppress_active</text>
<text text-anchor="middle" x="294.01" y="-136" font-family="Helvetica,sans-Serif" font-size="10.00">vad_enabled</text>
<text text-anchor="middle" x="294.01" y="-125" font-family="Helvetica,sans-Serif" font-size="10.00">agc_enabled</text>
<text text-anchor="middle" x="294.01" y="-114" font-family="Helvetica,sans-Serif" font-size="10.00">min_count</text>
<text text-anchor="middle" x="294.01" y="-103" font-family="Helvetica,sans-Serif" font-size="10.00">sampling_rate</text>
<text text-anchor="middle" x="294.01" y="-92" font-family="Helvetica,sans-Serif" font-size="10.00">noise_suppress</text>
<text text-anchor="middle" x="294.01" y="-81" font-family="Helvetica,sans-Serif" font-size="10.00">ps_size</text>
<text text-anchor="middle" x="294.01" y="-70" font-family="Helvetica,sans-Serif" font-size="10.00">...</text>
</g>
<!-- Node4&#45;&gt;Node3 -->
<g id="edge4" class="edge">
<title>Node4&#45;&gt;Node3</title>
<path fill="none" stroke="#9a32cd" stroke-dasharray="5,2" d="M174.18,-263.6C169.67,-259.81 165.55,-255.26 163.01,-250 144.39,-211.44 155.3,-157.63 160.62,-137.01"/>
<polygon fill="#9a32cd" stroke="#9a32cd" points="172.3,-266.56 182.45,-269.58 176.4,-260.89 172.3,-266.56"/>
<text text-anchor="middle" x="190.51" y="-242" font-family="Helvetica,sans-Serif" font-size="10.00"> bank_right</text>
<text text-anchor="middle" x="190.51" y="-231" font-family="Helvetica,sans-Serif" font-size="10.00">nb_banks</text>
<text text-anchor="middle" x="190.51" y="-220" font-family="Helvetica,sans-Serif" font-size="10.00">bank_left</text>
<text text-anchor="middle" x="190.51" y="-209" font-family="Helvetica,sans-Serif" font-size="10.00">len</text>
</g>
<!-- Node5 -->
<g id="node5" class="node">
<title>Node5</title>
<g id="a_node5"><a xlink:href="../../da/dd8/classSpeexEchoState.html" target="_top" xlink:title=" ">
<polygon fill="none" stroke="black" points="358.51,-118 358.51,-137 453.51,-137 453.51,-118 358.51,-118"/>
<text text-anchor="middle" x="406.01" y="-125" font-family="Helvetica,sans-Serif" font-size="10.00">SpeexEchoState</text>
</a>
</g>
</g>
<!-- Node5&#45;&gt;Node1 -->
<g id="edge6" class="edge">
<title>Node5&#45;&gt;Node1</title>
<path fill="none" stroke="#9a32cd" stroke-dasharray="5,2" d="M391.77,-110.37C379.87,-97.54 362.01,-79.7 344.01,-67 314.87,-46.45 277.1,-29.25 253.72,-19.54"/>
<polygon fill="#9a32cd" stroke="#9a32cd" points="389.35,-112.92 398.66,-117.97 394.54,-108.22 389.35,-112.92"/>
<text text-anchor="middle" x="342.51" y="-41" font-family="Helvetica,sans-Serif" font-size="10.00"> echo_state</text>
</g>
<!-- Node6 -->
<g id="node6" class="node">
<title>Node6</title>
<g id="a_node6"><a xlink:title=" ">
<polygon fill="none" stroke="#bfbfbf" points="472.01,-118 472.01,-137 518.01,-137 518.01,-118 472.01,-118"/>
<text text-anchor="middle" x="495.01" y="-125" font-family="Helvetica,sans-Serif" font-size="10.00">void *</text>
</a>
</g>
</g>
<!-- Node6&#45;&gt;Node1 -->
<g id="edge7" class="edge">
<title>Node6&#45;&gt;Node1</title>
<path fill="none" stroke="#9a32cd" stroke-dasharray="5,2" d="M489.38,-108.42C484.41,-95.23 475.92,-77.82 463.01,-67 415.9,-27.49 345.37,-15 294.65,-11.46"/>
<polygon fill="#9a32cd" stroke="#9a32cd" points="486.08,-109.57 492.63,-117.9 492.7,-107.3 486.08,-109.57"/>
<text text-anchor="middle" x="462.01" y="-41" font-family="Helvetica,sans-Serif" font-size="10.00"> fft_lookup</text>
</g>
</g>
</svg>
