<?xml version="1.0" encoding="UTF-8" standalone="no"?>
<!DOCTYPE svg PUBLIC "-//W3C//DTD SVG 1.1//EN"
 "http://www.w3.org/Graphics/SVG/1.1/DTD/svg11.dtd">
<!-- Generated by graphviz version 2.43.0 (0)
 -->
<!-- Title: areaParms_t Pages: 1 -->
<svg width="124pt" height="117pt"
 viewBox="0.00 0.00 124.00 117.00" xmlns="http://www.w3.org/2000/svg" xmlns:xlink="http://www.w3.org/1999/xlink">
<g id="graph0" class="graph" transform="scale(1 1) rotate(0) translate(4 113)">
<title>areaParms_t</title>
<!-- Node1 -->
<g id="node1" class="node">
<title>Node1</title>
<g id="a_node1"><a xlink:title=" ">
<polygon fill="#bfbfbf" stroke="black" points="7.5,-0.5 7.5,-19.5 84.5,-19.5 84.5,-0.5 7.5,-0.5"/>
<text text-anchor="middle" x="46" y="-7.5" font-family="Helvetica,sans-Serif" font-size="10.00">areaParms_t</text>
</a>
</g>
</g>
<!-- Node2 -->
<g id="node2" class="node">
<title>Node2</title>
<g id="a_node2"><a xlink:href="../../d4/dc3/classfloat.html" target="_top" xlink:title=" ">
<polygon fill="none" stroke="black" points="0,-89.5 0,-108.5 38,-108.5 38,-89.5 0,-89.5"/>
<text text-anchor="middle" x="19" y="-96.5" font-family="Helvetica,sans-Serif" font-size="10.00">float</text>
</a>
</g>
</g>
<!-- Node2&#45;&gt;Node1 -->
<g id="edge1" class="edge">
<title>Node2&#45;&gt;Node1</title>
<path fill="none" stroke="#9a32cd" stroke-dasharray="5,2" d="M15.9,-79.52C14.65,-67.28 14.58,-51.12 20,-38 22.98,-30.78 28.88,-24.4 34.31,-19.65"/>
<polygon fill="#9a32cd" stroke="#9a32cd" points="12.43,-80.02 17.25,-89.46 19.37,-79.08 12.43,-80.02"/>
<text text-anchor="middle" x="35.5" y="-57.5" font-family="Helvetica,sans-Serif" font-size="10.00"> maxs</text>
<text text-anchor="middle" x="35.5" y="-46.5" font-family="Helvetica,sans-Serif" font-size="10.00">mins</text>
</g>
<!-- Node3 -->
<g id="node3" class="node">
<title>Node3</title>
<g id="a_node3"><a xlink:title=" ">
<polygon fill="none" stroke="#bfbfbf" points="58.5,-89.5 58.5,-108.5 87.5,-108.5 87.5,-89.5 58.5,-89.5"/>
<text text-anchor="middle" x="73" y="-96.5" font-family="Helvetica,sans-Serif" font-size="10.00">int</text>
</a>
</g>
</g>
<!-- Node3&#45;&gt;Node1 -->
<g id="edge2" class="edge">
<title>Node3&#45;&gt;Node1</title>
<path fill="none" stroke="#9a32cd" stroke-dasharray="5,2" d="M67.33,-79.71C61.6,-61.25 53,-33.54 48.68,-19.62"/>
<polygon fill="#9a32cd" stroke="#9a32cd" points="64.01,-80.83 70.31,-89.34 70.69,-78.75 64.01,-80.83"/>
<text text-anchor="middle" x="90" y="-63" font-family="Helvetica,sans-Serif" font-size="10.00"> maxcount</text>
<text text-anchor="middle" x="90" y="-52" font-family="Helvetica,sans-Serif" font-size="10.00">count</text>
<text text-anchor="middle" x="90" y="-41" font-family="Helvetica,sans-Serif" font-size="10.00">list</text>
</g>
</g>
</svg>
