<?xml version="1.0" encoding="UTF-8" standalone="no"?>
<!DOCTYPE svg PUBLIC "-//W3C//DTD SVG 1.1//EN"
 "http://www.w3.org/Graphics/SVG/1.1/DTD/svg11.dtd">
<!-- Generated by graphviz version 2.43.0 (0)
 -->
<!-- Title: backEndCounters_t Pages: 1 -->
<svg width="191pt" height="205pt"
 viewBox="0.00 0.00 191.00 205.00" xmlns="http://www.w3.org/2000/svg" xmlns:xlink="http://www.w3.org/1999/xlink">
<g id="graph0" class="graph" transform="scale(1 1) rotate(0) translate(4 201)">
<title>backEndCounters_t</title>
<!-- Node1 -->
<g id="node1" class="node">
<title>Node1</title>
<g id="a_node1"><a xlink:title=" ">
<polygon fill="#bfbfbf" stroke="black" points="6,-0.5 6,-19.5 116,-19.5 116,-0.5 6,-0.5"/>
<text text-anchor="middle" x="61" y="-7.5" font-family="Helvetica,sans-Serif" font-size="10.00">backEndCounters_t</text>
</a>
</g>
</g>
<!-- Node2 -->
<g id="node2" class="node">
<title>Node2</title>
<g id="a_node2"><a xlink:title=" ">
<polygon fill="none" stroke="#bfbfbf" points="0,-177.5 0,-196.5 38,-196.5 38,-177.5 0,-177.5"/>
<text text-anchor="middle" x="19" y="-184.5" font-family="Helvetica,sans-Serif" font-size="10.00">float</text>
</a>
</g>
</g>
<!-- Node2&#45;&gt;Node1 -->
<g id="edge1" class="edge">
<title>Node2&#45;&gt;Node1</title>
<path fill="none" stroke="#9a32cd" stroke-dasharray="5,2" d="M13.89,-167.53C6.83,-138.1 -2.62,-79.64 20,-38 24.39,-29.91 32.38,-23.84 40.14,-19.53"/>
<polygon fill="#9a32cd" stroke="#9a32cd" points="10.52,-168.48 16.4,-177.3 17.3,-166.74 10.52,-168.48"/>
<text text-anchor="middle" x="50.5" y="-96" font-family="Helvetica,sans-Serif" font-size="10.00"> c_overDraw</text>
</g>
<!-- Node3 -->
<g id="node3" class="node">
<title>Node3</title>
<g id="a_node3"><a xlink:title=" ">
<polygon fill="none" stroke="#bfbfbf" points="88.5,-177.5 88.5,-196.5 117.5,-196.5 117.5,-177.5 88.5,-177.5"/>
<text text-anchor="middle" x="103" y="-184.5" font-family="Helvetica,sans-Serif" font-size="10.00">int</text>
</a>
</g>
</g>
<!-- Node3&#45;&gt;Node1 -->
<g id="edge2" class="edge">
<title>Node3&#45;&gt;Node1</title>
<path fill="none" stroke="#9a32cd" stroke-dasharray="5,2" d="M103.08,-166.97C102.57,-138.02 99.08,-81.67 81,-38 78.23,-31.32 73.45,-24.77 69.26,-19.8"/>
<polygon fill="#9a32cd" stroke="#9a32cd" points="99.58,-167.29 103.15,-177.27 106.58,-167.25 99.58,-167.29"/>
<text text-anchor="middle" x="142.5" y="-151" font-family="Helvetica,sans-Serif" font-size="10.00"> c_shaders</text>
<text text-anchor="middle" x="142.5" y="-140" font-family="Helvetica,sans-Serif" font-size="10.00">msec</text>
<text text-anchor="middle" x="142.5" y="-129" font-family="Helvetica,sans-Serif" font-size="10.00">c_vertexes</text>
<text text-anchor="middle" x="142.5" y="-118" font-family="Helvetica,sans-Serif" font-size="10.00">c_flareRenders</text>
<text text-anchor="middle" x="142.5" y="-107" font-family="Helvetica,sans-Serif" font-size="10.00">c_dlightIndexes</text>
<text text-anchor="middle" x="142.5" y="-96" font-family="Helvetica,sans-Serif" font-size="10.00">c_flareAdds</text>
<text text-anchor="middle" x="142.5" y="-85" font-family="Helvetica,sans-Serif" font-size="10.00">c_dlightVertexes</text>
<text text-anchor="middle" x="142.5" y="-74" font-family="Helvetica,sans-Serif" font-size="10.00">c_totalIndexes</text>
<text text-anchor="middle" x="142.5" y="-63" font-family="Helvetica,sans-Serif" font-size="10.00">c_surfaces</text>
<text text-anchor="middle" x="142.5" y="-52" font-family="Helvetica,sans-Serif" font-size="10.00">c_indexes</text>
<text text-anchor="middle" x="142.5" y="-41" font-family="Helvetica,sans-Serif" font-size="10.00">...</text>
</g>
</g>
</svg>
