<?xml version="1.0" encoding="UTF-8" standalone="no"?>
<!DOCTYPE svg PUBLIC "-//W3C//DTD SVG 1.1//EN"
 "http://www.w3.org/Graphics/SVG/1.1/DTD/svg11.dtd">
<!-- Generated by graphviz version 2.43.0 (0)
 -->
<!-- Title: Tools/MinGW/include/ddk/usb.h Pages: 1 -->
<svg width="771pt" height="375pt"
 viewBox="0.00 0.00 771.01 375.00" xmlns="http://www.w3.org/2000/svg" xmlns:xlink="http://www.w3.org/1999/xlink">
<g id="graph0" class="graph" transform="scale(1 1) rotate(0) translate(4 371)">
<title>Tools/MinGW/include/ddk/usb.h</title>
<!-- Node1 -->
<g id="node1" class="node">
<title>Node1</title>
<g id="a_node1"><a xlink:title=" ">
<polygon fill="#bfbfbf" stroke="black" points="152.01,-336.5 152.01,-366.5 270.01,-366.5 270.01,-336.5 152.01,-336.5"/>
<text text-anchor="start" x="160.01" y="-354.5" font-family="Helvetica,sans-Serif" font-size="10.00">Tools/MinGW/include</text>
<text text-anchor="middle" x="211.01" y="-343.5" font-family="Helvetica,sans-Serif" font-size="10.00">/ddk/usb.h</text>
</a>
</g>
</g>
<!-- Node2 -->
<g id="node2" class="node">
<title>Node2</title>
<g id="a_node2"><a xlink:href="../../d2/d49/ntddk_8h.html" target="_top" xlink:title=" ">
<polygon fill="none" stroke="black" points="375.51,-224.5 375.51,-243.5 428.51,-243.5 428.51,-224.5 375.51,-224.5"/>
<text text-anchor="middle" x="402.01" y="-231.5" font-family="Helvetica,sans-Serif" font-size="10.00">ntddk.h</text>
</a>
</g>
</g>
<!-- Node1&#45;&gt;Node2 -->
<g id="edge1" class="edge">
<title>Node1&#45;&gt;Node2</title>
<path fill="none" stroke="midnightblue" d="M234.43,-336.34C271.19,-314.11 342.02,-271.28 378.71,-249.09"/>
<polygon fill="midnightblue" stroke="midnightblue" points="380.93,-251.84 387.68,-243.67 377.31,-245.85 380.93,-251.84"/>
</g>
<!-- Node21 -->
<g id="node21" class="node">
<title>Node21</title>
<g id="a_node21"><a xlink:href="../../d2/da3/usb100_8h.html" target="_top" xlink:title=" ">
<polygon fill="none" stroke="black" points="151.51,-280.5 151.51,-299.5 212.51,-299.5 212.51,-280.5 151.51,-280.5"/>
<text text-anchor="middle" x="182.01" y="-287.5" font-family="Helvetica,sans-Serif" font-size="10.00">usb100.h</text>
</a>
</g>
</g>
<!-- Node1&#45;&gt;Node21 -->
<g id="edge24" class="edge">
<title>Node1&#45;&gt;Node21</title>
<path fill="none" stroke="midnightblue" d="M204.14,-336.4C200.1,-328.11 194.95,-317.55 190.64,-308.71"/>
<polygon fill="midnightblue" stroke="midnightblue" points="193.76,-307.11 186.23,-299.66 187.47,-310.18 193.76,-307.11"/>
</g>
<!-- Node3 -->
<g id="node3" class="node">
<title>Node3</title>
<g id="a_node3"><a xlink:title=" ">
<polygon fill="none" stroke="#bfbfbf" points="525.01,-168.5 525.01,-187.5 581.01,-187.5 581.01,-168.5 525.01,-168.5"/>
<text text-anchor="middle" x="553.01" y="-175.5" font-family="Helvetica,sans-Serif" font-size="10.00">stdarg.h</text>
</a>
</g>
</g>
<!-- Node2&#45;&gt;Node3 -->
<g id="edge2" class="edge">
<title>Node2&#45;&gt;Node3</title>
<path fill="none" stroke="midnightblue" d="M425.94,-224.44C451.23,-215.4 491.31,-201.06 519.69,-190.92"/>
<polygon fill="midnightblue" stroke="midnightblue" points="520.96,-194.18 529.2,-187.52 518.6,-187.59 520.96,-194.18"/>
</g>
<!-- Node4 -->
<g id="node4" class="node">
<title>Node4</title>
<g id="a_node4"><a xlink:href="../../db/d06/windef_8h.html" target="_top" xlink:title=" ">
<polygon fill="none" stroke="black" points="637.01,-168.5 637.01,-187.5 695.01,-187.5 695.01,-168.5 637.01,-168.5"/>
<text text-anchor="middle" x="666.01" y="-175.5" font-family="Helvetica,sans-Serif" font-size="10.00">windef.h</text>
</a>
</g>
</g>
<!-- Node2&#45;&gt;Node4 -->
<g id="edge3" class="edge">
<title>Node2&#45;&gt;Node4</title>
<path fill="none" stroke="midnightblue" d="M428.56,-227.64C470.06,-219.26 552.84,-202.49 623.01,-188 624.27,-187.74 625.55,-187.47 626.85,-187.21"/>
<polygon fill="midnightblue" stroke="midnightblue" points="627.79,-190.58 636.87,-185.12 626.37,-183.73 627.79,-190.58"/>
</g>
<!-- Node5 -->
<g id="node5" class="node">
<title>Node5</title>
<g id="a_node5"><a xlink:href="../../d9/dfa/winnt_8h.html" target="_top" xlink:title=" ">
<polygon fill="none" stroke="black" points="522.51,-112.5 522.51,-131.5 575.51,-131.5 575.51,-112.5 522.51,-112.5"/>
<text text-anchor="middle" x="549.01" y="-119.5" font-family="Helvetica,sans-Serif" font-size="10.00">winnt.h</text>
</a>
</g>
</g>
<!-- Node2&#45;&gt;Node5 -->
<g id="edge15" class="edge">
<title>Node2&#45;&gt;Node5</title>
<path fill="none" stroke="midnightblue" d="M428.75,-230.6C475.78,-225.76 570.21,-213.1 590.01,-188 602.75,-171.85 585.29,-151.59 569.37,-138.02"/>
<polygon fill="midnightblue" stroke="midnightblue" points="571.35,-135.11 561.36,-131.59 566.97,-140.57 571.35,-135.11"/>
</g>
<!-- Node13 -->
<g id="node13" class="node">
<title>Node13</title>
<g id="a_node13"><a xlink:href="../../d0/d54/ntdef_8h.html" target="_top" xlink:title=" ">
<polygon fill="none" stroke="black" points="713.01,-168.5 713.01,-187.5 763.01,-187.5 763.01,-168.5 713.01,-168.5"/>
<text text-anchor="middle" x="738.01" y="-175.5" font-family="Helvetica,sans-Serif" font-size="10.00">ntdef.h</text>
</a>
</g>
</g>
<!-- Node2&#45;&gt;Node13 -->
<g id="edge12" class="edge">
<title>Node2&#45;&gt;Node13</title>
<path fill="none" stroke="midnightblue" d="M428.85,-230.01C480.19,-224.09 596,-209.68 702.86,-188.04"/>
<polygon fill="midnightblue" stroke="midnightblue" points="703.74,-191.44 712.84,-186 702.34,-184.58 703.74,-191.44"/>
</g>
<!-- Node14 -->
<g id="node14" class="node">
<title>Node14</title>
<g id="a_node14"><a xlink:href="../../d3/d89/basetyps_8h.html" target="_top" xlink:title=" ">
<polygon fill="none" stroke="black" points="130.01,-168.5 130.01,-187.5 200.01,-187.5 200.01,-168.5 130.01,-168.5"/>
<text text-anchor="middle" x="165.01" y="-175.5" font-family="Helvetica,sans-Serif" font-size="10.00">basetyps.h</text>
</a>
</g>
</g>
<!-- Node2&#45;&gt;Node14 -->
<g id="edge13" class="edge">
<title>Node2&#45;&gt;Node14</title>
<path fill="none" stroke="midnightblue" d="M375.29,-226.91C335.16,-217.77 258.88,-200.39 210.06,-189.26"/>
<polygon fill="midnightblue" stroke="midnightblue" points="210.61,-185.8 200.08,-186.99 209.05,-192.62 210.61,-185.8"/>
</g>
<!-- Node15 -->
<g id="node15" class="node">
<title>Node15</title>
<g id="a_node15"><a xlink:href="../../d3/d93/ntstatus_8h.html" target="_top" xlink:title=" ">
<polygon fill="none" stroke="black" points="218.51,-168.5 218.51,-187.5 283.51,-187.5 283.51,-168.5 218.51,-168.5"/>
<text text-anchor="middle" x="251.01" y="-175.5" font-family="Helvetica,sans-Serif" font-size="10.00">ntstatus.h</text>
</a>
</g>
</g>
<!-- Node2&#45;&gt;Node15 -->
<g id="edge14" class="edge">
<title>Node2&#45;&gt;Node15</title>
<path fill="none" stroke="midnightblue" d="M378.09,-224.44C352.79,-215.4 312.71,-201.06 284.33,-190.92"/>
<polygon fill="midnightblue" stroke="midnightblue" points="285.42,-187.59 274.83,-187.52 283.06,-194.18 285.42,-187.59"/>
</g>
<!-- Node16 -->
<g id="node16" class="node">
<title>Node16</title>
<g id="a_node16"><a xlink:href="../../d6/d93/winddk_8h.html" target="_top" xlink:title=" ">
<polygon fill="none" stroke="black" points="50.51,-168.5 50.51,-187.5 111.51,-187.5 111.51,-168.5 50.51,-168.5"/>
<text text-anchor="middle" x="81.01" y="-175.5" font-family="Helvetica,sans-Serif" font-size="10.00">winddk.h</text>
</a>
</g>
</g>
<!-- Node2&#45;&gt;Node16 -->
<g id="edge16" class="edge">
<title>Node2&#45;&gt;Node16</title>
<path fill="none" stroke="midnightblue" d="M375.18,-229.27C326.69,-222.42 221.02,-206.92 121.47,-187.98"/>
<polygon fill="midnightblue" stroke="midnightblue" points="122.03,-184.52 111.55,-186.08 120.71,-191.4 122.03,-184.52"/>
</g>
<!-- Node18 -->
<g id="node18" class="node">
<title>Node18</title>
<g id="a_node18"><a xlink:href="../../d5/d53/winxp_8h.html" target="_top" xlink:title=" ">
<polygon fill="none" stroke="black" points="301.51,-168.5 301.51,-187.5 356.51,-187.5 356.51,-168.5 301.51,-168.5"/>
<text text-anchor="middle" x="329.01" y="-175.5" font-family="Helvetica,sans-Serif" font-size="10.00">winxp.h</text>
</a>
</g>
</g>
<!-- Node2&#45;&gt;Node18 -->
<g id="edge20" class="edge">
<title>Node2&#45;&gt;Node18</title>
<path fill="none" stroke="midnightblue" d="M390.28,-224.32C379.17,-216.11 362.27,-203.6 349.03,-193.81"/>
<polygon fill="midnightblue" stroke="midnightblue" points="351.08,-190.97 340.95,-187.83 346.91,-196.59 351.08,-190.97"/>
</g>
<!-- Node19 -->
<g id="node19" class="node">
<title>Node19</title>
<g id="a_node19"><a xlink:href="../../d2/db1/win2k_8h.html" target="_top" xlink:title=" ">
<polygon fill="none" stroke="black" points="374.51,-168.5 374.51,-187.5 429.51,-187.5 429.51,-168.5 374.51,-168.5"/>
<text text-anchor="middle" x="402.01" y="-175.5" font-family="Helvetica,sans-Serif" font-size="10.00">win2k.h</text>
</a>
</g>
</g>
<!-- Node2&#45;&gt;Node19 -->
<g id="edge21" class="edge">
<title>Node2&#45;&gt;Node19</title>
<path fill="none" stroke="midnightblue" d="M396.85,-224.08C395.34,-216.93 394.91,-206.64 395.55,-197.69"/>
<polygon fill="midnightblue" stroke="midnightblue" points="399.03,-198.13 396.88,-187.75 392.09,-197.2 399.03,-198.13"/>
</g>
<!-- Node20 -->
<g id="node20" class="node">
<title>Node20</title>
<g id="a_node20"><a xlink:href="../../d8/dbb/winnt4_8h.html" target="_top" xlink:title=" ">
<polygon fill="none" stroke="black" points="447.51,-168.5 447.51,-187.5 506.51,-187.5 506.51,-168.5 447.51,-168.5"/>
<text text-anchor="middle" x="477.01" y="-175.5" font-family="Helvetica,sans-Serif" font-size="10.00">winnt4.h</text>
</a>
</g>
</g>
<!-- Node2&#45;&gt;Node20 -->
<g id="edge23" class="edge">
<title>Node2&#45;&gt;Node20</title>
<path fill="none" stroke="midnightblue" d="M414.06,-224.32C425.48,-216.11 442.84,-203.6 456.45,-193.81"/>
<polygon fill="midnightblue" stroke="midnightblue" points="458.67,-196.52 464.74,-187.83 454.58,-190.84 458.67,-196.52"/>
</g>
<!-- Node4&#45;&gt;Node5 -->
<g id="edge4" class="edge">
<title>Node4&#45;&gt;Node5</title>
<path fill="none" stroke="midnightblue" d="M647.47,-168.44C628.39,-159.64 598.44,-145.81 576.58,-135.72"/>
<polygon fill="midnightblue" stroke="midnightblue" points="578.01,-132.53 567.46,-131.52 575.08,-138.88 578.01,-132.53"/>
</g>
<!-- Node6 -->
<g id="node6" class="node">
<title>Node6</title>
<g id="a_node6"><a xlink:href="../../d4/ded/winerror_8h.html" target="_top" xlink:title=" ">
<polygon fill="none" stroke="black" points="516.51,-56.5 516.51,-75.5 581.51,-75.5 581.51,-56.5 516.51,-56.5"/>
<text text-anchor="middle" x="549.01" y="-63.5" font-family="Helvetica,sans-Serif" font-size="10.00">winerror.h</text>
</a>
</g>
</g>
<!-- Node5&#45;&gt;Node6 -->
<g id="edge5" class="edge">
<title>Node5&#45;&gt;Node6</title>
<path fill="none" stroke="midnightblue" d="M549.01,-112.08C549.01,-105.01 549.01,-94.86 549.01,-85.99"/>
<polygon fill="midnightblue" stroke="midnightblue" points="552.51,-85.75 549.01,-75.75 545.51,-85.75 552.51,-85.75"/>
</g>
<!-- Node7 -->
<g id="node7" class="node">
<title>Node7</title>
<g id="a_node7"><a xlink:href="../../d7/de6/include_2string_8h.html" target="_top" xlink:title=" ">
<polygon fill="none" stroke="black" points="599.51,-56.5 599.51,-75.5 652.51,-75.5 652.51,-56.5 599.51,-56.5"/>
<text text-anchor="middle" x="626.01" y="-63.5" font-family="Helvetica,sans-Serif" font-size="10.00">string.h</text>
</a>
</g>
</g>
<!-- Node5&#45;&gt;Node7 -->
<g id="edge6" class="edge">
<title>Node5&#45;&gt;Node7</title>
<path fill="none" stroke="midnightblue" d="M561.38,-112.32C573.17,-104.06 591.14,-91.45 605.15,-81.63"/>
<polygon fill="midnightblue" stroke="midnightblue" points="607.49,-84.26 613.67,-75.65 603.47,-78.53 607.49,-84.26"/>
</g>
<!-- Node10 -->
<g id="node10" class="node">
<title>Node10</title>
<g id="a_node10"><a xlink:href="../../db/de8/basetsd_8h.html" target="_top" xlink:title=" ">
<polygon fill="none" stroke="black" points="434.01,-56.5 434.01,-75.5 498.01,-75.5 498.01,-56.5 434.01,-56.5"/>
<text text-anchor="middle" x="466.01" y="-63.5" font-family="Helvetica,sans-Serif" font-size="10.00">basetsd.h</text>
</a>
</g>
</g>
<!-- Node5&#45;&gt;Node10 -->
<g id="edge9" class="edge">
<title>Node5&#45;&gt;Node10</title>
<path fill="none" stroke="midnightblue" d="M535.68,-112.32C522.85,-103.98 503.23,-91.21 488.07,-81.35"/>
<polygon fill="midnightblue" stroke="midnightblue" points="489.61,-78.17 479.31,-75.65 485.79,-84.04 489.61,-78.17"/>
</g>
<!-- Node11 -->
<g id="node11" class="node">
<title>Node11</title>
<g id="a_node11"><a xlink:href="../../dd/d76/pshpack4_8h.html" target="_top" xlink:title=" ">
<polygon fill="none" stroke="black" points="284.01,-56.5 284.01,-75.5 356.01,-75.5 356.01,-56.5 284.01,-56.5"/>
<text text-anchor="middle" x="320.01" y="-63.5" font-family="Helvetica,sans-Serif" font-size="10.00">pshpack4.h</text>
</a>
</g>
</g>
<!-- Node5&#45;&gt;Node11 -->
<g id="edge10" class="edge">
<title>Node5&#45;&gt;Node11</title>
<path fill="none" stroke="midnightblue" d="M522.29,-114.7C484.04,-105.68 413.13,-88.96 366.25,-77.9"/>
<polygon fill="midnightblue" stroke="midnightblue" points="366.88,-74.46 356.34,-75.57 365.27,-81.27 366.88,-74.46"/>
</g>
<!-- Node12 -->
<g id="node12" class="node">
<title>Node12</title>
<g id="a_node12"><a xlink:href="../../d3/df1/poppack_8h.html" target="_top" xlink:title=" ">
<polygon fill="none" stroke="black" points="78.51,-56.5 78.51,-75.5 145.51,-75.5 145.51,-56.5 78.51,-56.5"/>
<text text-anchor="middle" x="112.01" y="-63.5" font-family="Helvetica,sans-Serif" font-size="10.00">poppack.h</text>
</a>
</g>
</g>
<!-- Node5&#45;&gt;Node12 -->
<g id="edge11" class="edge">
<title>Node5&#45;&gt;Node12</title>
<path fill="none" stroke="midnightblue" d="M522.33,-117.7C449.34,-108.68 245.8,-83.53 155.78,-72.41"/>
<polygon fill="midnightblue" stroke="midnightblue" points="155.99,-68.91 145.64,-71.16 155.13,-75.86 155.99,-68.91"/>
</g>
<!-- Node8 -->
<g id="node8" class="node">
<title>Node8</title>
<g id="a_node8"><a xlink:href="../../da/d3d/__mingw_8h.html" target="_top" xlink:title=" ">
<polygon fill="none" stroke="black" points="555.51,-0.5 555.51,-19.5 618.51,-19.5 618.51,-0.5 555.51,-0.5"/>
<text text-anchor="middle" x="587.01" y="-7.5" font-family="Helvetica,sans-Serif" font-size="10.00">_mingw.h</text>
</a>
</g>
</g>
<!-- Node7&#45;&gt;Node8 -->
<g id="edge7" class="edge">
<title>Node7&#45;&gt;Node8</title>
<path fill="none" stroke="midnightblue" d="M619.57,-56.08C614.06,-48.46 605.98,-37.26 599.25,-27.94"/>
<polygon fill="midnightblue" stroke="midnightblue" points="602.02,-25.81 593.33,-19.75 596.35,-29.91 602.02,-25.81"/>
</g>
<!-- Node9 -->
<g id="node9" class="node">
<title>Node9</title>
<g id="a_node9"><a xlink:href="../../d3/dce/stddef_8h.html" target="_top" xlink:title=" ">
<polygon fill="none" stroke="black" points="637.01,-0.5 637.01,-19.5 693.01,-19.5 693.01,-0.5 637.01,-0.5"/>
<text text-anchor="middle" x="665.01" y="-7.5" font-family="Helvetica,sans-Serif" font-size="10.00">stddef.h</text>
</a>
</g>
</g>
<!-- Node7&#45;&gt;Node9 -->
<g id="edge8" class="edge">
<title>Node7&#45;&gt;Node9</title>
<path fill="none" stroke="midnightblue" d="M632.45,-56.08C637.96,-48.46 646.04,-37.26 652.78,-27.94"/>
<polygon fill="midnightblue" stroke="midnightblue" points="655.67,-29.91 658.69,-19.75 650,-25.81 655.67,-29.91"/>
</g>
<!-- Node16&#45;&gt;Node11 -->
<g id="edge19" class="edge">
<title>Node16&#45;&gt;Node11</title>
<path fill="none" stroke="midnightblue" d="M99.77,-168.37C141.65,-149.09 242.98,-102.45 292.22,-79.79"/>
<polygon fill="midnightblue" stroke="midnightblue" points="293.72,-82.95 301.35,-75.59 290.8,-76.59 293.72,-82.95"/>
</g>
<!-- Node16&#45;&gt;Node12 -->
<g id="edge18" class="edge">
<title>Node16&#45;&gt;Node12</title>
<path fill="none" stroke="midnightblue" d="M83.44,-168.37C88.47,-150.54 100.09,-109.3 106.86,-85.27"/>
<polygon fill="midnightblue" stroke="midnightblue" points="110.25,-86.17 109.59,-75.59 103.51,-84.27 110.25,-86.17"/>
</g>
<!-- Node17 -->
<g id="node17" class="node">
<title>Node17</title>
<g id="a_node17"><a xlink:href="../../d8/dc9/pshpack1_8h.html" target="_top" xlink:title=" ">
<polygon fill="none" stroke="black" points="12.01,-112.5 12.01,-131.5 84.01,-131.5 84.01,-112.5 12.01,-112.5"/>
<text text-anchor="middle" x="48.01" y="-119.5" font-family="Helvetica,sans-Serif" font-size="10.00">pshpack1.h</text>
</a>
</g>
</g>
<!-- Node16&#45;&gt;Node17 -->
<g id="edge17" class="edge">
<title>Node16&#45;&gt;Node17</title>
<path fill="none" stroke="midnightblue" d="M75.56,-168.08C71,-160.61 64.34,-149.72 58.72,-140.52"/>
<polygon fill="midnightblue" stroke="midnightblue" points="61.56,-138.46 53.36,-131.75 55.59,-142.11 61.56,-138.46"/>
</g>
<!-- Node19&#45;&gt;Node2 -->
<g id="edge22" class="edge">
<title>Node19&#45;&gt;Node2</title>
<path fill="none" stroke="midnightblue" d="M407.14,-187.75C408.67,-194.86 409.12,-205.14 408.48,-214.1"/>
<polygon fill="midnightblue" stroke="midnightblue" points="405.01,-213.71 407.18,-224.08 411.95,-214.62 405.01,-213.71"/>
</g>
<!-- Node21&#45;&gt;Node2 -->
<g id="edge25" class="edge">
<title>Node21&#45;&gt;Node2</title>
<path fill="none" stroke="midnightblue" d="M212.6,-281.49C252.72,-271.65 323,-254.39 365.75,-243.9"/>
<polygon fill="midnightblue" stroke="midnightblue" points="366.59,-247.3 375.47,-241.52 364.92,-240.5 366.59,-247.3"/>
</g>
<!-- Node21&#45;&gt;Node12 -->
<g id="edge27" class="edge">
<title>Node21&#45;&gt;Node12</title>
<path fill="none" stroke="midnightblue" d="M151.27,-282.97C126.05,-276.74 90.62,-264.91 66.01,-244 22.48,-207.03 16.92,-187.39 3.01,-132 0.85,-123.38 -1.93,-119.39 3.01,-112 17.61,-90.19 44.91,-78.94 68.54,-73.14"/>
<polygon fill="midnightblue" stroke="midnightblue" points="69.38,-76.54 78.4,-70.97 67.88,-69.7 69.38,-76.54"/>
</g>
<!-- Node21&#45;&gt;Node17 -->
<g id="edge26" class="edge">
<title>Node21&#45;&gt;Node17</title>
<path fill="none" stroke="midnightblue" d="M158.94,-280.44C125.76,-266.73 65.85,-236.34 41.01,-188 33.56,-173.5 36.67,-154.81 40.84,-141.2"/>
<polygon fill="midnightblue" stroke="midnightblue" points="44.22,-142.14 44.23,-131.55 37.62,-139.83 44.22,-142.14"/>
</g>
</g>
</svg>
