<?xml version="1.0" encoding="UTF-8" standalone="no"?>
<!DOCTYPE svg PUBLIC "-//W3C//DTD SVG 1.1//EN"
 "http://www.w3.org/Graphics/SVG/1.1/DTD/svg11.dtd">
<!-- Generated by graphviz version 2.43.0 (0)
 -->
<!-- Title: savable_state Pages: 1 -->
<svg width="217pt" height="106pt"
 viewBox="0.00 0.00 216.50 106.00" xmlns="http://www.w3.org/2000/svg" xmlns:xlink="http://www.w3.org/1999/xlink">
<g id="graph0" class="graph" transform="scale(1 1) rotate(0) translate(4 102)">
<title>savable_state</title>
<!-- Node1 -->
<g id="node1" class="node">
<title>Node1</title>
<g id="a_node1"><a xlink:title=" ">
<polygon fill="#bfbfbf" stroke="black" points="53,-0.5 53,-19.5 138,-19.5 138,-0.5 53,-0.5"/>
<text text-anchor="middle" x="95.5" y="-7.5" font-family="Helvetica,sans-Serif" font-size="10.00">savable_state</text>
</a>
</g>
</g>
<!-- Node2 -->
<g id="node2" class="node">
<title>Node2</title>
<g id="a_node2"><a xlink:title=" ">
<polygon fill="none" stroke="#bfbfbf" points="0,-78.5 0,-97.5 29,-97.5 29,-78.5 0,-78.5"/>
<text text-anchor="middle" x="14.5" y="-85.5" font-family="Helvetica,sans-Serif" font-size="10.00">int</text>
</a>
</g>
</g>
<!-- Node2&#45;&gt;Node1 -->
<g id="edge1" class="edge">
<title>Node2&#45;&gt;Node1</title>
<path fill="none" stroke="#9a32cd" stroke-dasharray="5,2" d="M18.04,-68.42C20.79,-58.35 25.52,-46.31 33.5,-38 41.55,-29.62 52.65,-23.68 63.23,-19.55"/>
<polygon fill="#9a32cd" stroke="#9a32cd" points="14.6,-67.76 15.78,-78.29 21.43,-69.32 14.6,-67.76"/>
<text text-anchor="middle" x="62.5" y="-52" font-family="Helvetica,sans-Serif" font-size="10.00"> last_dc_val</text>
<text text-anchor="middle" x="62.5" y="-41" font-family="Helvetica,sans-Serif" font-size="10.00">put_bits</text>
</g>
<!-- Node3 -->
<g id="node3" class="node">
<title>Node3</title>
<g id="a_node3"><a xlink:title=" ">
<polygon fill="none" stroke="#bfbfbf" points="76.5,-78.5 76.5,-97.5 114.5,-97.5 114.5,-78.5 76.5,-78.5"/>
<text text-anchor="middle" x="95.5" y="-85.5" font-family="Helvetica,sans-Serif" font-size="10.00">long</text>
</a>
</g>
</g>
<!-- Node3&#45;&gt;Node1 -->
<g id="edge2" class="edge">
<title>Node3&#45;&gt;Node1</title>
<path fill="none" stroke="#9a32cd" stroke-dasharray="5,2" d="M95.5,-68.22C95.5,-52.7 95.5,-31.36 95.5,-19.62"/>
<polygon fill="#9a32cd" stroke="#9a32cd" points="92,-68.28 95.5,-78.28 99,-68.28 92,-68.28"/>
<text text-anchor="middle" x="122" y="-46.5" font-family="Helvetica,sans-Serif" font-size="10.00"> put_buffer</text>
</g>
<!-- Node4 -->
<g id="node4" class="node">
<title>Node4</title>
<g id="a_node4"><a xlink:title=" ">
<polygon fill="none" stroke="#bfbfbf" points="141,-78.5 141,-97.5 202,-97.5 202,-78.5 141,-78.5"/>
<text text-anchor="middle" x="171.5" y="-85.5" font-family="Helvetica,sans-Serif" font-size="10.00">unsigned</text>
</a>
</g>
</g>
<!-- Node4&#45;&gt;Node1 -->
<g id="edge3" class="edge">
<title>Node4&#45;&gt;Node1</title>
<path fill="none" stroke="#9a32cd" stroke-dasharray="5,2" d="M166.56,-68.56C163.12,-58.54 157.65,-46.5 149.5,-38 141.74,-29.91 131.03,-23.86 121.19,-19.57"/>
<polygon fill="#9a32cd" stroke="#9a32cd" points="163.28,-69.82 169.53,-78.37 169.98,-67.79 163.28,-69.82"/>
<text text-anchor="middle" x="185.5" y="-46.5" font-family="Helvetica,sans-Serif" font-size="10.00"> EOBRUN</text>
</g>
</g>
</svg>
