<?xml version="1.0" encoding="UTF-8" standalone="no"?>
<!DOCTYPE svg PUBLIC "-//W3C//DTD SVG 1.1//EN"
 "http://www.w3.org/Graphics/SVG/1.1/DTD/svg11.dtd">
<!-- Generated by graphviz version 2.43.0 (0)
 -->
<!-- Title: _SERENUM_PORT_DESC Pages: 1 -->
<svg width="437pt" height="126pt"
 viewBox="0.00 0.00 437.00 126.00" xmlns="http://www.w3.org/2000/svg" xmlns:xlink="http://www.w3.org/1999/xlink">
<g id="graph0" class="graph" transform="scale(1 1) rotate(0) translate(4 122)">
<title>_SERENUM_PORT_DESC</title>
<!-- Node1 -->
<g id="node1" class="node">
<title>Node1</title>
<g id="a_node1"><a xlink:title=" ">
<polygon fill="#bfbfbf" stroke="black" points="296,-60.5 296,-79.5 429,-79.5 429,-60.5 296,-60.5"/>
<text text-anchor="middle" x="362.5" y="-67.5" font-family="Helvetica,sans-Serif" font-size="10.00">_SERENUM_PORT_DESC</text>
</a>
</g>
</g>
<!-- Node2 -->
<g id="node2" class="node">
<title>Node2</title>
<g id="a_node2"><a xlink:title=" ">
<polygon fill="none" stroke="#bfbfbf" points="50,-98.5 50,-117.5 148,-117.5 148,-98.5 50,-98.5"/>
<text text-anchor="middle" x="99" y="-105.5" font-family="Helvetica,sans-Serif" font-size="10.00">LARGE_INTEGER</text>
</a>
</g>
</g>
<!-- Node2&#45;&gt;Node1 -->
<g id="edge1" class="edge">
<title>Node2&#45;&gt;Node1</title>
<path fill="none" stroke="#9a32cd" stroke-dasharray="5,2" d="M158.06,-101.23C192.9,-96.99 238.06,-91.16 278,-85 288.63,-83.36 299.98,-81.44 310.79,-79.52"/>
<polygon fill="#9a32cd" stroke="#9a32cd" points="157.57,-97.76 148.06,-102.44 158.41,-104.71 157.57,-97.76"/>
<text text-anchor="middle" x="247" y="-96" font-family="Helvetica,sans-Serif" font-size="10.00"> PortAddress</text>
</g>
<!-- Node3 -->
<g id="node3" class="node">
<title>Node3</title>
<g id="a_node3"><a xlink:title=" ">
<polygon fill="none" stroke="#bfbfbf" points="68.5,-60.5 68.5,-79.5 129.5,-79.5 129.5,-60.5 68.5,-60.5"/>
<text text-anchor="middle" x="99" y="-67.5" font-family="Helvetica,sans-Serif" font-size="10.00">unsigned</text>
</a>
</g>
</g>
<!-- Node3&#45;&gt;Node1 -->
<g id="edge2" class="edge">
<title>Node3&#45;&gt;Node1</title>
<path fill="none" stroke="#9a32cd" stroke-dasharray="5,2" d="M139.99,-70C181.42,-70 246.83,-70 295.86,-70"/>
<polygon fill="#9a32cd" stroke="#9a32cd" points="139.74,-66.5 129.74,-70 139.74,-73.5 139.74,-66.5"/>
<text text-anchor="middle" x="247" y="-73" font-family="Helvetica,sans-Serif" font-size="10.00"> Reserved</text>
</g>
<!-- Node4 -->
<g id="node4" class="node">
<title>Node4</title>
<g id="a_node4"><a xlink:title=" ">
<polygon fill="none" stroke="#bfbfbf" points="0,-0.5 0,-41.5 198,-41.5 198,-0.5 0,-0.5"/>
<text text-anchor="start" x="8" y="-29.5" font-family="Helvetica,sans-Serif" font-size="10.00">PSecurityUserData *typedef</text>
<text text-anchor="start" x="8" y="-18.5" font-family="Helvetica,sans-Serif" font-size="10.00"> PSECPKG_EXTENDED_INFORMATION</text>
<text text-anchor="middle" x="99" y="-7.5" font-family="Helvetica,sans-Serif" font-size="10.00"> *typedef</text>
</a>
</g>
</g>
<!-- Node4&#45;&gt;Node1 -->
<g id="edge3" class="edge">
<title>Node4&#45;&gt;Node1</title>
<path fill="none" stroke="#9a32cd" stroke-dasharray="5,2" d="M208.6,-31.99C231.64,-35.17 255.73,-39.13 278,-44 297.43,-48.25 318.84,-54.96 335.12,-60.49"/>
<polygon fill="#9a32cd" stroke="#9a32cd" points="208.83,-28.49 198.45,-30.63 207.9,-35.42 208.83,-28.49"/>
<text text-anchor="middle" x="247" y="-58" font-family="Helvetica,sans-Serif" font-size="10.00"> PortHandle</text>
<text text-anchor="middle" x="247" y="-47" font-family="Helvetica,sans-Serif" font-size="10.00">Size</text>
</g>
</g>
</svg>
