<?xml version="1.0" encoding="UTF-8" standalone="no"?>
<!DOCTYPE svg PUBLIC "-//W3C//DTD SVG 1.1//EN"
 "http://www.w3.org/Graphics/SVG/1.1/DTD/svg11.dtd">
<!-- Generated by graphviz version 2.43.0 (0)
 -->
<!-- Title: _SecPkgInfoW Pages: 1 -->
<svg width="392pt" height="134pt"
 viewBox="0.00 0.00 392.00 134.00" xmlns="http://www.w3.org/2000/svg" xmlns:xlink="http://www.w3.org/1999/xlink">
<g id="graph0" class="graph" transform="scale(1 1) rotate(0) translate(4 130)">
<title>_SecPkgInfoW</title>
<!-- Node1 -->
<g id="node1" class="node">
<title>Node1</title>
<g id="a_node1"><a xlink:title=" ">
<polygon fill="#bfbfbf" stroke="black" points="298,-60.5 298,-79.5 384,-79.5 384,-60.5 298,-60.5"/>
<text text-anchor="middle" x="341" y="-67.5" font-family="Helvetica,sans-Serif" font-size="10.00">_SecPkgInfoW</text>
</a>
</g>
</g>
<!-- Node2 -->
<g id="node2" class="node">
<title>Node2</title>
<g id="a_node2"><a xlink:title=" ">
<polygon fill="none" stroke="#bfbfbf" points="78.5,-105.5 78.5,-124.5 119.5,-124.5 119.5,-105.5 78.5,-105.5"/>
<text text-anchor="middle" x="99" y="-112.5" font-family="Helvetica,sans-Serif" font-size="10.00">short</text>
</a>
</g>
</g>
<!-- Node2&#45;&gt;Node1 -->
<g id="edge1" class="edge">
<title>Node2&#45;&gt;Node1</title>
<path fill="none" stroke="#9a32cd" stroke-dasharray="5,2" d="M130.05,-113.57C166.12,-111.35 228.23,-105.88 280,-93 293.21,-89.71 307.45,-84.34 318.75,-79.61"/>
<polygon fill="#9a32cd" stroke="#9a32cd" points="129.51,-110.1 119.73,-114.16 129.91,-117.09 129.51,-110.1"/>
<text text-anchor="middle" x="248" y="-118" font-family="Helvetica,sans-Serif" font-size="10.00"> wRPCID</text>
<text text-anchor="middle" x="248" y="-107" font-family="Helvetica,sans-Serif" font-size="10.00">wVersion</text>
</g>
<!-- Node3 -->
<g id="node3" class="node">
<title>Node3</title>
<g id="a_node3"><a xlink:title=" ">
<polygon fill="none" stroke="#bfbfbf" points="54.5,-60.5 54.5,-79.5 143.5,-79.5 143.5,-60.5 54.5,-60.5"/>
<text text-anchor="middle" x="99" y="-67.5" font-family="Helvetica,sans-Serif" font-size="10.00">unsigned short</text>
</a>
</g>
</g>
<!-- Node3&#45;&gt;Node1 -->
<g id="edge2" class="edge">
<title>Node3&#45;&gt;Node1</title>
<path fill="none" stroke="#9a32cd" stroke-dasharray="5,2" d="M153.86,-70C197.35,-70 257.71,-70 297.77,-70"/>
<polygon fill="#9a32cd" stroke="#9a32cd" points="153.74,-66.5 143.74,-70 153.74,-73.5 153.74,-66.5"/>
<text text-anchor="middle" x="248" y="-84" font-family="Helvetica,sans-Serif" font-size="10.00"> Comment</text>
<text text-anchor="middle" x="248" y="-73" font-family="Helvetica,sans-Serif" font-size="10.00">Name</text>
</g>
<!-- Node4 -->
<g id="node4" class="node">
<title>Node4</title>
<g id="a_node4"><a xlink:title=" ">
<polygon fill="none" stroke="#bfbfbf" points="0,-0.5 0,-41.5 198,-41.5 198,-0.5 0,-0.5"/>
<text text-anchor="start" x="8" y="-29.5" font-family="Helvetica,sans-Serif" font-size="10.00">PSecurityUserData *typedef</text>
<text text-anchor="start" x="8" y="-18.5" font-family="Helvetica,sans-Serif" font-size="10.00"> PSECPKG_EXTENDED_INFORMATION</text>
<text text-anchor="middle" x="99" y="-7.5" font-family="Helvetica,sans-Serif" font-size="10.00"> *typedef</text>
</a>
</g>
</g>
<!-- Node4&#45;&gt;Node1 -->
<g id="edge3" class="edge">
<title>Node4&#45;&gt;Node1</title>
<path fill="none" stroke="#9a32cd" stroke-dasharray="5,2" d="M208.3,-29.82C232.17,-33.15 257.14,-37.72 280,-44 294.45,-47.97 309.95,-54.76 321.58,-60.4"/>
<polygon fill="#9a32cd" stroke="#9a32cd" points="208.52,-26.32 198.14,-28.47 207.59,-33.26 208.52,-26.32"/>
<text text-anchor="middle" x="248" y="-58" font-family="Helvetica,sans-Serif" font-size="10.00"> cbMaxToken</text>
<text text-anchor="middle" x="248" y="-47" font-family="Helvetica,sans-Serif" font-size="10.00">fCapabilities</text>
</g>
</g>
</svg>
