<?xml version="1.0" encoding="UTF-8" standalone="no"?>
<!DOCTYPE svg PUBLIC "-//W3C//DTD SVG 1.1//EN"
 "http://www.w3.org/Graphics/SVG/1.1/DTD/svg11.dtd">
<!-- Generated by graphviz version 2.43.0 (0)
 -->
<!-- Title: _MSV1_0_INTERACTIVE_PROFILE Pages: 1 -->
<svg width="480pt" height="318pt"
 viewBox="0.00 0.00 480.00 318.00" xmlns="http://www.w3.org/2000/svg" xmlns:xlink="http://www.w3.org/1999/xlink">
<g id="graph0" class="graph" transform="scale(1 1) rotate(0) translate(4 314)">
<title>_MSV1_0_INTERACTIVE_PROFILE</title>
<!-- Node1 -->
<g id="node1" class="node">
<title>Node1</title>
<g id="a_node1"><a xlink:title=" ">
<polygon fill="#bfbfbf" stroke="black" points="341,-91 341,-121 472,-121 472,-91 341,-91"/>
<text text-anchor="start" x="349" y="-109" font-family="Helvetica,sans-Serif" font-size="10.00">_MSV1_0_INTERACTIVE</text>
<text text-anchor="middle" x="406.5" y="-98" font-family="Helvetica,sans-Serif" font-size="10.00">_PROFILE</text>
</a>
</g>
</g>
<!-- Node2 -->
<g id="node2" class="node">
<title>Node2</title>
<g id="a_node2"><a xlink:title=" ">
<polygon fill="none" stroke="#bfbfbf" points="47,-230.5 47,-249.5 151,-249.5 151,-230.5 47,-230.5"/>
<text text-anchor="middle" x="99" y="-237.5" font-family="Helvetica,sans-Serif" font-size="10.00">UNICODE_STRING</text>
</a>
</g>
</g>
<!-- Node2&#45;&gt;Node1 -->
<g id="edge1" class="edge">
<title>Node2&#45;&gt;Node1</title>
<path fill="none" stroke="#9a32cd" stroke-dasharray="5,2" d="M161.4,-245.72C208.58,-247.26 273.79,-243 323,-215 361.37,-193.17 387.53,-145.52 398.97,-121.1"/>
<polygon fill="#9a32cd" stroke="#9a32cd" points="161.46,-242.22 151.32,-245.29 161.16,-249.21 161.46,-242.22"/>
<text text-anchor="middle" x="269.5" y="-302" font-family="Helvetica,sans-Serif" font-size="10.00"> FullName</text>
<text text-anchor="middle" x="269.5" y="-291" font-family="Helvetica,sans-Serif" font-size="10.00">LogonScript</text>
<text text-anchor="middle" x="269.5" y="-280" font-family="Helvetica,sans-Serif" font-size="10.00">LogonServer</text>
<text text-anchor="middle" x="269.5" y="-269" font-family="Helvetica,sans-Serif" font-size="10.00">ProfilePath</text>
<text text-anchor="middle" x="269.5" y="-258" font-family="Helvetica,sans-Serif" font-size="10.00">HomeDirectory</text>
<text text-anchor="middle" x="269.5" y="-247" font-family="Helvetica,sans-Serif" font-size="10.00">HomeDirectoryDrive</text>
</g>
<!-- Node3 -->
<g id="node3" class="node">
<title>Node3</title>
<g id="a_node3"><a xlink:title=" ">
<polygon fill="none" stroke="#bfbfbf" points="78.5,-185.5 78.5,-204.5 119.5,-204.5 119.5,-185.5 78.5,-185.5"/>
<text text-anchor="middle" x="99" y="-192.5" font-family="Helvetica,sans-Serif" font-size="10.00">short</text>
</a>
</g>
</g>
<!-- Node3&#45;&gt;Node1 -->
<g id="edge2" class="edge">
<title>Node3&#45;&gt;Node1</title>
<path fill="none" stroke="#9a32cd" stroke-dasharray="5,2" d="M129.69,-194.18C182.11,-192.39 288.75,-187.09 323,-173 350.99,-161.49 376.97,-137.23 392.04,-121.28"/>
<polygon fill="#9a32cd" stroke="#9a32cd" points="129.55,-190.68 119.67,-194.5 129.78,-197.68 129.55,-190.68"/>
<text text-anchor="middle" x="269.5" y="-203" font-family="Helvetica,sans-Serif" font-size="10.00"> LogonCount</text>
<text text-anchor="middle" x="269.5" y="-192" font-family="Helvetica,sans-Serif" font-size="10.00">BadPasswordCount</text>
</g>
<!-- Node4 -->
<g id="node4" class="node">
<title>Node4</title>
<g id="a_node4"><a xlink:title=" ">
<polygon fill="none" stroke="#bfbfbf" points="50,-98.5 50,-117.5 148,-117.5 148,-98.5 50,-98.5"/>
<text text-anchor="middle" x="99" y="-105.5" font-family="Helvetica,sans-Serif" font-size="10.00">LARGE_INTEGER</text>
</a>
</g>
</g>
<!-- Node4&#45;&gt;Node1 -->
<g id="edge3" class="edge">
<title>Node4&#45;&gt;Node1</title>
<path fill="none" stroke="#9a32cd" stroke-dasharray="5,2" d="M158.28,-107.46C176.74,-107.3 197.22,-107.13 216,-107 257.45,-106.71 304.01,-106.47 340.6,-106.29"/>
<polygon fill="#9a32cd" stroke="#9a32cd" points="158.22,-103.96 148.25,-107.55 158.28,-110.96 158.22,-103.96"/>
<text text-anchor="middle" x="269.5" y="-165" font-family="Helvetica,sans-Serif" font-size="10.00"> LogoffTime</text>
<text text-anchor="middle" x="269.5" y="-154" font-family="Helvetica,sans-Serif" font-size="10.00">PasswordCanChange</text>
<text text-anchor="middle" x="269.5" y="-143" font-family="Helvetica,sans-Serif" font-size="10.00">PasswordMustChange</text>
<text text-anchor="middle" x="269.5" y="-132" font-family="Helvetica,sans-Serif" font-size="10.00">LogonTime</text>
<text text-anchor="middle" x="269.5" y="-121" font-family="Helvetica,sans-Serif" font-size="10.00">KickOffTime</text>
<text text-anchor="middle" x="269.5" y="-110" font-family="Helvetica,sans-Serif" font-size="10.00">PasswordLastSet</text>
</g>
<!-- Node5 -->
<g id="node5" class="node">
<title>Node5</title>
<g id="a_node5"><a xlink:title=" ">
<polygon fill="none" stroke="#bfbfbf" points="11.5,-60.5 11.5,-79.5 186.5,-79.5 186.5,-60.5 11.5,-60.5"/>
<text text-anchor="middle" x="99" y="-67.5" font-family="Helvetica,sans-Serif" font-size="10.00">MSV1_0_PROFILE_BUFFER_TYPE</text>
</a>
</g>
</g>
<!-- Node5&#45;&gt;Node1 -->
<g id="edge4" class="edge">
<title>Node5&#45;&gt;Node1</title>
<path fill="none" stroke="#9a32cd" stroke-dasharray="5,2" d="M196.61,-77.27C235.91,-80.71 281.71,-85.31 323,-91 328.77,-91.79 334.75,-92.71 340.73,-93.68"/>
<polygon fill="#9a32cd" stroke="#9a32cd" points="196.77,-73.78 186.51,-76.4 196.17,-80.75 196.77,-73.78"/>
<text text-anchor="middle" x="269.5" y="-94" font-family="Helvetica,sans-Serif" font-size="10.00"> MessageType</text>
</g>
<!-- Node6 -->
<g id="node6" class="node">
<title>Node6</title>
<g id="a_node6"><a xlink:title=" ">
<polygon fill="none" stroke="#bfbfbf" points="0,-0.5 0,-41.5 198,-41.5 198,-0.5 0,-0.5"/>
<text text-anchor="start" x="8" y="-29.5" font-family="Helvetica,sans-Serif" font-size="10.00">PSecurityUserData *typedef</text>
<text text-anchor="start" x="8" y="-18.5" font-family="Helvetica,sans-Serif" font-size="10.00"> PSECPKG_EXTENDED_INFORMATION</text>
<text text-anchor="middle" x="99" y="-7.5" font-family="Helvetica,sans-Serif" font-size="10.00"> *typedef</text>
</a>
</g>
</g>
<!-- Node6&#45;&gt;Node1 -->
<g id="edge5" class="edge">
<title>Node6&#45;&gt;Node1</title>
<path fill="none" stroke="#9a32cd" stroke-dasharray="5,2" d="M208.44,-35.62C245.37,-42.25 286.53,-51.48 323,-64 343.07,-70.89 364.37,-81.84 380.31,-90.83"/>
<polygon fill="#9a32cd" stroke="#9a32cd" points="208.59,-32.1 198.14,-33.82 207.39,-38.99 208.59,-32.1"/>
<text text-anchor="middle" x="269.5" y="-67" font-family="Helvetica,sans-Serif" font-size="10.00"> UserFlags</text>
</g>
</g>
</svg>
