<?xml version="1.0" encoding="UTF-8" standalone="no"?>
<!DOCTYPE svg PUBLIC "-//W3C//DTD SVG 1.1//EN"
 "http://www.w3.org/Graphics/SVG/1.1/DTD/svg11.dtd">
<!-- Generated by graphviz version 2.43.0 (0)
 -->
<!-- Title: _GDIINFO Pages: 1 -->
<svg width="452pt" height="389pt"
 viewBox="0.00 0.00 452.00 388.74" xmlns="http://www.w3.org/2000/svg" xmlns:xlink="http://www.w3.org/1999/xlink">
<g id="graph0" class="graph" transform="scale(1 1) rotate(0) translate(4 384.74)">
<title>_GDIINFO</title>
<!-- Node1 -->
<g id="node1" class="node">
<title>Node1</title>
<g id="a_node1"><a xlink:title=" ">
<polygon fill="#bfbfbf" stroke="black" points="380,-238.24 380,-257.24 444,-257.24 444,-238.24 380,-238.24"/>
<text text-anchor="middle" x="412" y="-245.24" font-family="Helvetica,sans-Serif" font-size="10.00">_GDIINFO</text>
</a>
</g>
</g>
<!-- Node2 -->
<g id="node2" class="node">
<title>Node2</title>
<g id="a_node2"><a xlink:title=" ">
<polygon fill="none" stroke="#bfbfbf" points="74.5,-331.24 74.5,-350.24 123.5,-350.24 123.5,-331.24 74.5,-331.24"/>
<text text-anchor="middle" x="99" y="-338.24" font-family="Helvetica,sans-Serif" font-size="10.00">BYTE *</text>
</a>
</g>
</g>
<!-- Node2&#45;&gt;Node1 -->
<g id="edge1" class="edge">
<title>Node2&#45;&gt;Node1</title>
<path fill="none" stroke="#9a32cd" stroke-dasharray="5,2" d="M133.68,-345.25C186.17,-350.58 289.03,-354.1 362,-312.74 384.38,-300.06 399.7,-272.56 406.69,-257.72"/>
<polygon fill="#9a32cd" stroke="#9a32cd" points="133.9,-341.75 123.58,-344.14 133.13,-348.71 133.9,-341.75"/>
<text text-anchor="middle" x="289" y="-372.74" font-family="Helvetica,sans-Serif" font-size="10.00"> pHTPatA</text>
<text text-anchor="middle" x="289" y="-361.74" font-family="Helvetica,sans-Serif" font-size="10.00">pHTPatB</text>
<text text-anchor="middle" x="289" y="-350.74" font-family="Helvetica,sans-Serif" font-size="10.00">pHTPatC</text>
</g>
<!-- Node3 -->
<g id="node3" class="node">
<title>Node3</title>
<g id="a_node3"><a xlink:title=" ">
<polygon fill="none" stroke="#bfbfbf" points="62,-293.24 62,-312.24 136,-312.24 136,-293.24 62,-293.24"/>
<text text-anchor="middle" x="99" y="-300.24" font-family="Helvetica,sans-Serif" font-size="10.00">COLORINFO</text>
</a>
</g>
</g>
<!-- Node3&#45;&gt;Node1 -->
<g id="edge2" class="edge">
<title>Node3&#45;&gt;Node1</title>
<path fill="none" stroke="#9a32cd" stroke-dasharray="5,2" d="M146.56,-302.39C199.74,-300.85 288.85,-294.8 362,-272.74 373.89,-269.16 386.34,-262.77 395.71,-257.34"/>
<polygon fill="#9a32cd" stroke="#9a32cd" points="146.33,-298.89 136.42,-302.64 146.5,-305.89 146.33,-298.89"/>
<text text-anchor="middle" x="289" y="-300.74" font-family="Helvetica,sans-Serif" font-size="10.00"> ciDevice</text>
</g>
<!-- Node4 -->
<g id="node4" class="node">
<title>Node4</title>
<g id="a_node4"><a xlink:title=" ">
<polygon fill="none" stroke="#bfbfbf" points="77,-255.24 77,-274.24 121,-274.24 121,-255.24 77,-255.24"/>
<text text-anchor="middle" x="99" y="-262.24" font-family="Helvetica,sans-Serif" font-size="10.00">SIZEL</text>
</a>
</g>
</g>
<!-- Node4&#45;&gt;Node1 -->
<g id="edge3" class="edge">
<title>Node4&#45;&gt;Node1</title>
<path fill="none" stroke="#9a32cd" stroke-dasharray="5,2" d="M131.7,-263.01C191.45,-259.74 320.07,-252.71 379.59,-249.46"/>
<polygon fill="#9a32cd" stroke="#9a32cd" points="131.17,-259.53 121.38,-263.57 131.55,-266.52 131.17,-259.53"/>
<text text-anchor="middle" x="289" y="-260.74" font-family="Helvetica,sans-Serif" font-size="10.00"> szlPhysSize</text>
</g>
<!-- Node5 -->
<g id="node5" class="node">
<title>Node5</title>
<g id="a_node5"><a xlink:title=" ">
<polygon fill="none" stroke="#bfbfbf" points="73,-217.24 73,-236.24 125,-236.24 125,-217.24 73,-217.24"/>
<text text-anchor="middle" x="99" y="-224.24" font-family="Helvetica,sans-Serif" font-size="10.00">POINTL</text>
</a>
</g>
</g>
<!-- Node5&#45;&gt;Node1 -->
<g id="edge4" class="edge">
<title>Node5&#45;&gt;Node1</title>
<path fill="none" stroke="#9a32cd" stroke-dasharray="5,2" d="M135.16,-225.28C185.65,-223.75 281.49,-222.99 362,-234.74 367.84,-235.59 373.97,-236.89 379.85,-238.34"/>
<polygon fill="#9a32cd" stroke="#9a32cd" points="134.97,-221.78 125.09,-225.61 135.2,-228.78 134.97,-221.78"/>
<text text-anchor="middle" x="289" y="-237.74" font-family="Helvetica,sans-Serif" font-size="10.00"> ptlPhysOffset</text>
</g>
<!-- Node6 -->
<g id="node6" class="node">
<title>Node6</title>
<g id="a_node6"><a xlink:title=" ">
<polygon fill="none" stroke="#bfbfbf" points="80,-165.24 80,-184.24 118,-184.24 118,-165.24 80,-165.24"/>
<text text-anchor="middle" x="99" y="-172.24" font-family="Helvetica,sans-Serif" font-size="10.00">long</text>
</a>
</g>
</g>
<!-- Node6&#45;&gt;Node1 -->
<g id="edge5" class="edge">
<title>Node6&#45;&gt;Node1</title>
<path fill="none" stroke="#9a32cd" stroke-dasharray="5,2" d="M128.21,-168.85C178.37,-159.88 285.03,-147.65 362,-186.74 384.04,-197.94 399.51,-224.05 406.61,-238.2"/>
<polygon fill="#9a32cd" stroke="#9a32cd" points="127.29,-165.47 118.11,-170.76 128.59,-172.34 127.29,-165.47"/>
<text text-anchor="middle" x="289" y="-211.74" font-family="Helvetica,sans-Serif" font-size="10.00"> xStyleStep</text>
<text text-anchor="middle" x="289" y="-200.74" font-family="Helvetica,sans-Serif" font-size="10.00">yStyleStep</text>
<text text-anchor="middle" x="289" y="-189.74" font-family="Helvetica,sans-Serif" font-size="10.00">denStyleStep</text>
</g>
<!-- Node7 -->
<g id="node7" class="node">
<title>Node7</title>
<g id="a_node7"><a xlink:title=" ">
<polygon fill="none" stroke="#bfbfbf" points="0,-10.24 0,-51.24 198,-51.24 198,-10.24 0,-10.24"/>
<text text-anchor="start" x="8" y="-39.24" font-family="Helvetica,sans-Serif" font-size="10.00">PSecurityUserData *typedef</text>
<text text-anchor="start" x="8" y="-28.24" font-family="Helvetica,sans-Serif" font-size="10.00"> PSECPKG_EXTENDED_INFORMATION</text>
<text text-anchor="middle" x="99" y="-17.24" font-family="Helvetica,sans-Serif" font-size="10.00"> *typedef</text>
</a>
</g>
</g>
<!-- Node7&#45;&gt;Node1 -->
<g id="edge6" class="edge">
<title>Node7&#45;&gt;Node1</title>
<path fill="none" stroke="#9a32cd" stroke-dasharray="5,2" d="M178.58,-8.09C235.63,3.24 311.39,7.06 362,-33.74 394.71,-60.12 407.42,-199.82 410.32,-238.06"/>
<polygon fill="#9a32cd" stroke="#9a32cd" points="177.58,-4.73 168.51,-10.21 179.02,-11.58 177.58,-4.73"/>
<text text-anchor="middle" x="289" y="-146.74" font-family="Helvetica,sans-Serif" font-size="10.00"> ulHTPatternSize</text>
<text text-anchor="middle" x="289" y="-135.74" font-family="Helvetica,sans-Serif" font-size="10.00">ulPanningHorzRes</text>
<text text-anchor="middle" x="289" y="-124.74" font-family="Helvetica,sans-Serif" font-size="10.00">ulDACRed</text>
<text text-anchor="middle" x="289" y="-113.74" font-family="Helvetica,sans-Serif" font-size="10.00">ulPhysicalPixelCharacteristics</text>
<text text-anchor="middle" x="289" y="-102.74" font-family="Helvetica,sans-Serif" font-size="10.00">ulPanningVertRes</text>
<text text-anchor="middle" x="289" y="-91.74" font-family="Helvetica,sans-Serif" font-size="10.00">ulHTOutputFormat</text>
<text text-anchor="middle" x="289" y="-80.74" font-family="Helvetica,sans-Serif" font-size="10.00">ulDACBlue</text>
<text text-anchor="middle" x="289" y="-69.74" font-family="Helvetica,sans-Serif" font-size="10.00">xPanningAlignment</text>
<text text-anchor="middle" x="289" y="-58.74" font-family="Helvetica,sans-Serif" font-size="10.00">flRaster</text>
<text text-anchor="middle" x="289" y="-47.74" font-family="Helvetica,sans-Serif" font-size="10.00">yPanningAlignment</text>
<text text-anchor="middle" x="289" y="-36.74" font-family="Helvetica,sans-Serif" font-size="10.00">...</text>
</g>
</g>
</svg>
