<?xml version="1.0" encoding="UTF-8" standalone="no"?>
<!DOCTYPE svg PUBLIC "-//W3C//DTD SVG 1.1//EN"
 "http://www.w3.org/Graphics/SVG/1.1/DTD/svg11.dtd">
<!-- Generated by graphviz version 2.43.0 (0)
 -->
<!-- Title: tagOCPFIPARAMS Pages: 1 -->
<svg width="446pt" height="323pt"
 viewBox="0.00 0.00 446.00 323.00" xmlns="http://www.w3.org/2000/svg" xmlns:xlink="http://www.w3.org/1999/xlink">
<g id="graph0" class="graph" transform="scale(1 1) rotate(0) translate(4 319)">
<title>tagOCPFIPARAMS</title>
<!-- Node1 -->
<g id="node1" class="node">
<title>Node1</title>
<g id="a_node1"><a xlink:title=" ">
<polygon fill="#bfbfbf" stroke="black" points="336,-160.5 336,-179.5 438,-179.5 438,-160.5 336,-160.5"/>
<text text-anchor="middle" x="387" y="-167.5" font-family="Helvetica,sans-Serif" font-size="10.00">tagOCPFIPARAMS</text>
</a>
</g>
</g>
<!-- Node2 -->
<g id="node2" class="node">
<title>Node2</title>
<g id="a_node2"><a xlink:title=" ">
<polygon fill="none" stroke="#bfbfbf" points="56.5,-293.5 56.5,-312.5 141.5,-312.5 141.5,-293.5 56.5,-293.5"/>
<text text-anchor="middle" x="99" y="-300.5" font-family="Helvetica,sans-Serif" font-size="10.00">unsigned long</text>
</a>
</g>
</g>
<!-- Node2&#45;&gt;Node1 -->
<g id="edge1" class="edge">
<title>Node2&#45;&gt;Node1</title>
<path fill="none" stroke="#9a32cd" stroke-dasharray="5,2" d="M151.81,-307.42C198.73,-308.89 267.96,-304.51 318,-273 354.08,-250.28 375.16,-200.64 382.75,-179.67"/>
<polygon fill="#9a32cd" stroke="#9a32cd" points="151.7,-303.91 141.57,-306.99 151.42,-310.9 151.7,-303.91"/>
<text text-anchor="middle" x="267" y="-307" font-family="Helvetica,sans-Serif" font-size="10.00"> lcid</text>
</g>
<!-- Node3 -->
<g id="node3" class="node">
<title>Node3</title>
<g id="a_node3"><a xlink:title=" ">
<polygon fill="none" stroke="#bfbfbf" points="54,-255.5 54,-274.5 144,-274.5 144,-255.5 54,-255.5"/>
<text text-anchor="middle" x="99" y="-262.5" font-family="Helvetica,sans-Serif" font-size="10.00">LPUNKNOWN *</text>
</a>
</g>
</g>
<!-- Node3&#45;&gt;Node1 -->
<g id="edge2" class="edge">
<title>Node3&#45;&gt;Node1</title>
<path fill="none" stroke="#9a32cd" stroke-dasharray="5,2" d="M154.3,-264.6C199.97,-262.36 265.96,-254.57 318,-230 343.63,-217.9 366.83,-193.15 378.35,-179.53"/>
<polygon fill="#9a32cd" stroke="#9a32cd" points="154.15,-261.1 144.3,-265.02 154.44,-268.1 154.15,-261.1"/>
<text text-anchor="middle" x="267" y="-261" font-family="Helvetica,sans-Serif" font-size="10.00"> lplpUnk</text>
</g>
<!-- Node4 -->
<g id="node4" class="node">
<title>Node4</title>
<g id="a_node4"><a xlink:title=" ">
<polygon fill="none" stroke="#bfbfbf" points="74.5,-217.5 74.5,-236.5 123.5,-236.5 123.5,-217.5 74.5,-217.5"/>
<text text-anchor="middle" x="99" y="-224.5" font-family="Helvetica,sans-Serif" font-size="10.00">HWND</text>
</a>
</g>
</g>
<!-- Node4&#45;&gt;Node1 -->
<g id="edge3" class="edge">
<title>Node4&#45;&gt;Node1</title>
<path fill="none" stroke="#9a32cd" stroke-dasharray="5,2" d="M133.81,-224.55C177.06,-220.89 254.03,-212.55 318,-196 334.03,-191.85 351.46,-185.14 364.66,-179.58"/>
<polygon fill="#9a32cd" stroke="#9a32cd" points="133.25,-221.09 123.57,-225.39 133.82,-228.06 133.25,-221.09"/>
<text text-anchor="middle" x="267" y="-218" font-family="Helvetica,sans-Serif" font-size="10.00"> hWndOwner</text>
</g>
<!-- Node5 -->
<g id="node5" class="node">
<title>Node5</title>
<g id="a_node5"><a xlink:title=" ">
<polygon fill="none" stroke="#bfbfbf" points="67.5,-179.5 67.5,-198.5 130.5,-198.5 130.5,-179.5 67.5,-179.5"/>
<text text-anchor="middle" x="99" y="-186.5" font-family="Helvetica,sans-Serif" font-size="10.00">LPCWSTR</text>
</a>
</g>
</g>
<!-- Node5&#45;&gt;Node1 -->
<g id="edge4" class="edge">
<title>Node5&#45;&gt;Node1</title>
<path fill="none" stroke="#9a32cd" stroke-dasharray="5,2" d="M140.67,-186.3C191.99,-182.89 280.26,-177.02 335.75,-173.34"/>
<polygon fill="#9a32cd" stroke="#9a32cd" points="140.35,-182.81 130.61,-186.97 140.82,-189.8 140.35,-182.81"/>
<text text-anchor="middle" x="267" y="-184" font-family="Helvetica,sans-Serif" font-size="10.00"> lpszCaption</text>
</g>
<!-- Node6 -->
<g id="node6" class="node">
<title>Node6</title>
<g id="a_node6"><a xlink:title=" ">
<polygon fill="none" stroke="#bfbfbf" points="84.5,-141.5 84.5,-160.5 113.5,-160.5 113.5,-141.5 84.5,-141.5"/>
<text text-anchor="middle" x="99" y="-148.5" font-family="Helvetica,sans-Serif" font-size="10.00">int</text>
</a>
</g>
</g>
<!-- Node6&#45;&gt;Node1 -->
<g id="edge5" class="edge">
<title>Node6&#45;&gt;Node1</title>
<path fill="none" stroke="#9a32cd" stroke-dasharray="5,2" d="M124.08,-148.02C164.47,-143.62 248.28,-137 318,-148 333.2,-150.4 349.63,-155.63 362.53,-160.4"/>
<polygon fill="#9a32cd" stroke="#9a32cd" points="123.43,-144.57 113.89,-149.19 124.22,-151.53 123.43,-144.57"/>
<text text-anchor="middle" x="267" y="-162" font-family="Helvetica,sans-Serif" font-size="10.00"> x</text>
<text text-anchor="middle" x="267" y="-151" font-family="Helvetica,sans-Serif" font-size="10.00">y</text>
</g>
<!-- Node7 -->
<g id="node7" class="node">
<title>Node7</title>
<g id="a_node7"><a xlink:title=" ">
<polygon fill="none" stroke="#bfbfbf" points="72.5,-103.5 72.5,-122.5 125.5,-122.5 125.5,-103.5 72.5,-103.5"/>
<text text-anchor="middle" x="99" y="-110.5" font-family="Helvetica,sans-Serif" font-size="10.00">CLSID *</text>
</a>
</g>
</g>
<!-- Node7&#45;&gt;Node1 -->
<g id="edge6" class="edge">
<title>Node7&#45;&gt;Node1</title>
<path fill="none" stroke="#9a32cd" stroke-dasharray="5,2" d="M135.84,-109.66C179.91,-106.78 256.43,-105.81 318,-126 340.18,-133.27 362.19,-149.62 374.92,-160.21"/>
<polygon fill="#9a32cd" stroke="#9a32cd" points="135.35,-106.19 125.62,-110.4 135.85,-113.17 135.35,-106.19"/>
<text text-anchor="middle" x="267" y="-129" font-family="Helvetica,sans-Serif" font-size="10.00"> lpPages</text>
</g>
<!-- Node8 -->
<g id="node8" class="node">
<title>Node8</title>
<g id="a_node8"><a xlink:title=" ">
<polygon fill="none" stroke="#bfbfbf" points="77,-65.5 77,-84.5 121,-84.5 121,-65.5 77,-65.5"/>
<text text-anchor="middle" x="99" y="-72.5" font-family="Helvetica,sans-Serif" font-size="10.00">LONG</text>
</a>
</g>
</g>
<!-- Node8&#45;&gt;Node1 -->
<g id="edge7" class="edge">
<title>Node8&#45;&gt;Node1</title>
<path fill="none" stroke="#9a32cd" stroke-dasharray="5,2" d="M131.32,-70.81C175.48,-66.38 257.42,-63.69 318,-94 348.08,-109.05 370.97,-143.63 380.77,-160.45"/>
<polygon fill="#9a32cd" stroke="#9a32cd" points="130.75,-67.35 121.2,-71.92 131.52,-74.31 130.75,-67.35"/>
<text text-anchor="middle" x="267" y="-97" font-family="Helvetica,sans-Serif" font-size="10.00"> dispidInitialProperty</text>
</g>
<!-- Node9 -->
<g id="node9" class="node">
<title>Node9</title>
<g id="a_node9"><a xlink:title=" ">
<polygon fill="none" stroke="#bfbfbf" points="0,-0.5 0,-41.5 198,-41.5 198,-0.5 0,-0.5"/>
<text text-anchor="start" x="8" y="-29.5" font-family="Helvetica,sans-Serif" font-size="10.00">PSecurityUserData *typedef</text>
<text text-anchor="start" x="8" y="-18.5" font-family="Helvetica,sans-Serif" font-size="10.00"> PSECPKG_EXTENDED_INFORMATION</text>
<text text-anchor="middle" x="99" y="-7.5" font-family="Helvetica,sans-Serif" font-size="10.00"> *typedef</text>
</a>
</g>
</g>
<!-- Node9&#45;&gt;Node1 -->
<g id="edge8" class="edge">
<title>Node9&#45;&gt;Node1</title>
<path fill="none" stroke="#9a32cd" stroke-dasharray="5,2" d="M208.57,-5.08C245.89,-4.91 286.24,-11.11 318,-32 364.42,-62.52 380.3,-134.55 384.62,-160.48"/>
<polygon fill="#9a32cd" stroke="#9a32cd" points="208.06,-1.59 198.13,-5.29 208.2,-8.59 208.06,-1.59"/>
<text text-anchor="middle" x="267" y="-57" font-family="Helvetica,sans-Serif" font-size="10.00"> cPages</text>
<text text-anchor="middle" x="267" y="-46" font-family="Helvetica,sans-Serif" font-size="10.00">cbStructSize</text>
<text text-anchor="middle" x="267" y="-35" font-family="Helvetica,sans-Serif" font-size="10.00">cObjects</text>
</g>
</g>
</svg>
