<?xml version="1.0" encoding="UTF-8" standalone="no"?>
<!DOCTYPE svg PUBLIC "-//W3C//DTD SVG 1.1//EN"
 "http://www.w3.org/Graphics/SVG/1.1/DTD/svg11.dtd">
<!-- Generated by graphviz version 2.43.0 (0)
 -->
<!-- Title: tagBIND_OPTS2 Pages: 1 -->
<svg width="366pt" height="150pt"
 viewBox="0.00 0.00 365.50 150.00" xmlns="http://www.w3.org/2000/svg" xmlns:xlink="http://www.w3.org/1999/xlink">
<g id="graph0" class="graph" transform="scale(1 1) rotate(0) translate(4 146)">
<title>tagBIND_OPTS2</title>
<!-- Node1 -->
<g id="node1" class="node">
<title>Node1</title>
<g id="a_node1"><a xlink:title=" ">
<polygon fill="#bfbfbf" stroke="black" points="106.5,-0.5 106.5,-19.5 200.5,-19.5 200.5,-0.5 106.5,-0.5"/>
<text text-anchor="middle" x="153.5" y="-7.5" font-family="Helvetica,sans-Serif" font-size="10.00">tagBIND_OPTS2</text>
</a>
</g>
</g>
<!-- Node2 -->
<g id="node2" class="node">
<title>Node2</title>
<g id="a_node2"><a xlink:title=" ">
<polygon fill="none" stroke="#bfbfbf" points="0,-122.5 0,-141.5 85,-141.5 85,-122.5 0,-122.5"/>
<text text-anchor="middle" x="42.5" y="-129.5" font-family="Helvetica,sans-Serif" font-size="10.00">unsigned long</text>
</a>
</g>
</g>
<!-- Node2&#45;&gt;Node1 -->
<g id="edge1" class="edge">
<title>Node2&#45;&gt;Node1</title>
<path fill="none" stroke="#9a32cd" stroke-dasharray="5,2" d="M53.95,-113.95C67.55,-94.38 91.55,-61.93 116.5,-38 123.62,-31.17 132.52,-24.63 139.81,-19.69"/>
<polygon fill="#9a32cd" stroke="#9a32cd" points="50.92,-112.19 48.16,-122.42 56.69,-116.14 50.92,-112.19"/>
<text text-anchor="middle" x="133" y="-68.5" font-family="Helvetica,sans-Serif" font-size="10.00"> locale</text>
</g>
<!-- Node3 -->
<g id="node3" class="node">
<title>Node3</title>
<g id="a_node3"><a xlink:title=" ">
<polygon fill="none" stroke="#bfbfbf" points="103,-122.5 103,-141.5 204,-141.5 204,-122.5 103,-122.5"/>
<text text-anchor="middle" x="153.5" y="-129.5" font-family="Helvetica,sans-Serif" font-size="10.00">COSERVERINFO *</text>
</a>
</g>
</g>
<!-- Node3&#45;&gt;Node1 -->
<g id="edge2" class="edge">
<title>Node3&#45;&gt;Node1</title>
<path fill="none" stroke="#9a32cd" stroke-dasharray="5,2" d="M153.5,-112.15C153.5,-85.72 153.5,-38.76 153.5,-19.55"/>
<polygon fill="#9a32cd" stroke="#9a32cd" points="150,-112.37 153.5,-122.37 157,-112.37 150,-112.37"/>
<text text-anchor="middle" x="183.5" y="-68.5" font-family="Helvetica,sans-Serif" font-size="10.00"> pServerInfo</text>
</g>
<!-- Node4 -->
<g id="node4" class="node">
<title>Node4</title>
<g id="a_node4"><a xlink:title=" ">
<polygon fill="none" stroke="#bfbfbf" points="222,-122.5 222,-141.5 283,-141.5 283,-122.5 222,-122.5"/>
<text text-anchor="middle" x="252.5" y="-129.5" font-family="Helvetica,sans-Serif" font-size="10.00">unsigned</text>
</a>
</g>
</g>
<!-- Node4&#45;&gt;Node1 -->
<g id="edge3" class="edge">
<title>Node4&#45;&gt;Node1</title>
<path fill="none" stroke="#9a32cd" stroke-dasharray="5,2" d="M249.94,-112.33C246.2,-91.71 237.37,-58.67 217.5,-38 209.39,-29.57 198.24,-23.65 187.52,-19.55"/>
<polygon fill="#9a32cd" stroke="#9a32cd" points="246.51,-113.04 251.53,-122.36 253.42,-111.94 246.51,-113.04"/>
<text text-anchor="middle" x="302.5" y="-96" font-family="Helvetica,sans-Serif" font-size="10.00"> dwTickCountDeadline</text>
<text text-anchor="middle" x="302.5" y="-85" font-family="Helvetica,sans-Serif" font-size="10.00">dwClassContext</text>
<text text-anchor="middle" x="302.5" y="-74" font-family="Helvetica,sans-Serif" font-size="10.00">grfMode</text>
<text text-anchor="middle" x="302.5" y="-63" font-family="Helvetica,sans-Serif" font-size="10.00">dwTrackFlags</text>
<text text-anchor="middle" x="302.5" y="-52" font-family="Helvetica,sans-Serif" font-size="10.00">grfFlags</text>
<text text-anchor="middle" x="302.5" y="-41" font-family="Helvetica,sans-Serif" font-size="10.00">cbStruct</text>
</g>
</g>
</svg>
