<?xml version="1.0" encoding="UTF-8" standalone="no"?>
<!DOCTYPE svg PUBLIC "-//W3C//DTD SVG 1.1//EN"
 "http://www.w3.org/Graphics/SVG/1.1/DTD/svg11.dtd">
<!-- Generated by graphviz version 2.43.0 (0)
 -->
<!-- Title: _EMULATOR_ACCESS_ENTRY Pages: 1 -->
<svg width="508pt" height="140pt"
 viewBox="0.00 0.00 508.00 140.00" xmlns="http://www.w3.org/2000/svg" xmlns:xlink="http://www.w3.org/1999/xlink">
<g id="graph0" class="graph" transform="scale(1 1) rotate(0) translate(4 136)">
<title>_EMULATOR_ACCESS_ENTRY</title>
<!-- Node1 -->
<g id="node1" class="node">
<title>Node1</title>
<g id="a_node1"><a xlink:title=" ">
<polygon fill="#bfbfbf" stroke="black" points="343,-67.5 343,-86.5 500,-86.5 500,-67.5 343,-67.5"/>
<text text-anchor="middle" x="421.5" y="-74.5" font-family="Helvetica,sans-Serif" font-size="10.00">_EMULATOR_ACCESS_ENTRY</text>
</a>
</g>
</g>
<!-- Node2 -->
<g id="node2" class="node">
<title>Node2</title>
<g id="a_node2"><a xlink:title=" ">
<polygon fill="none" stroke="#bfbfbf" points="11.5,-112.5 11.5,-131.5 186.5,-131.5 186.5,-112.5 11.5,-112.5"/>
<text text-anchor="middle" x="99" y="-119.5" font-family="Helvetica,sans-Serif" font-size="10.00">EMULATOR_PORT_ACCESS_TYPE</text>
</a>
</g>
</g>
<!-- Node2&#45;&gt;Node1 -->
<g id="edge1" class="edge">
<title>Node2&#45;&gt;Node1</title>
<path fill="none" stroke="#9a32cd" stroke-dasharray="5,2" d="M196.64,-115.51C236.55,-112.07 283.17,-107.05 325,-100 345.35,-96.57 367.8,-91.25 385.81,-86.58"/>
<polygon fill="#9a32cd" stroke="#9a32cd" points="196.32,-112.03 186.65,-116.35 196.91,-119 196.32,-112.03"/>
<text text-anchor="middle" x="270.5" y="-116" font-family="Helvetica,sans-Serif" font-size="10.00"> AccessType</text>
</g>
<!-- Node3 -->
<g id="node3" class="node">
<title>Node3</title>
<g id="a_node3"><a xlink:title=" ">
<polygon fill="none" stroke="#bfbfbf" points="68.5,-67.5 68.5,-86.5 129.5,-86.5 129.5,-67.5 68.5,-67.5"/>
<text text-anchor="middle" x="99" y="-74.5" font-family="Helvetica,sans-Serif" font-size="10.00">unsigned</text>
</a>
</g>
</g>
<!-- Node3&#45;&gt;Node1 -->
<g id="edge2" class="edge">
<title>Node3&#45;&gt;Node1</title>
<path fill="none" stroke="#9a32cd" stroke-dasharray="5,2" d="M139.77,-77C190.31,-77 278.69,-77 342.81,-77"/>
<polygon fill="#9a32cd" stroke="#9a32cd" points="139.58,-73.5 129.58,-77 139.58,-80.5 139.58,-73.5"/>
<text text-anchor="middle" x="270.5" y="-91" font-family="Helvetica,sans-Serif" font-size="10.00"> StringSupport</text>
<text text-anchor="middle" x="270.5" y="-80" font-family="Helvetica,sans-Serif" font-size="10.00">AccessMode</text>
</g>
<!-- Node4 -->
<g id="node4" class="node">
<title>Node4</title>
<g id="a_node4"><a xlink:title=" ">
<polygon fill="none" stroke="#bfbfbf" points="0,-0.5 0,-41.5 198,-41.5 198,-0.5 0,-0.5"/>
<text text-anchor="start" x="8" y="-29.5" font-family="Helvetica,sans-Serif" font-size="10.00">PSecurityUserData *typedef</text>
<text text-anchor="start" x="8" y="-18.5" font-family="Helvetica,sans-Serif" font-size="10.00"> PSECPKG_EXTENDED_INFORMATION</text>
<text text-anchor="middle" x="99" y="-7.5" font-family="Helvetica,sans-Serif" font-size="10.00"> *typedef</text>
</a>
</g>
</g>
<!-- Node4&#45;&gt;Node1 -->
<g id="edge3" class="edge">
<title>Node4&#45;&gt;Node1</title>
<path fill="none" stroke="#9a32cd" stroke-dasharray="5,2" d="M208.51,-23.9C245.79,-26.54 287.55,-31.35 325,-40 352.2,-46.28 381.96,-58.77 400.9,-67.5"/>
<polygon fill="#9a32cd" stroke="#9a32cd" points="208.33,-20.38 198.12,-23.21 207.87,-27.36 208.33,-20.38"/>
<text text-anchor="middle" x="270.5" y="-65" font-family="Helvetica,sans-Serif" font-size="10.00"> BasePort</text>
<text text-anchor="middle" x="270.5" y="-54" font-family="Helvetica,sans-Serif" font-size="10.00">Routine</text>
<text text-anchor="middle" x="270.5" y="-43" font-family="Helvetica,sans-Serif" font-size="10.00">NumConsecutivePorts</text>
</g>
</g>
</svg>
