<?xml version="1.0" encoding="UTF-8" standalone="no"?>
<!DOCTYPE svg PUBLIC "-//W3C//DTD SVG 1.1//EN"
 "http://www.w3.org/Graphics/SVG/1.1/DTD/svg11.dtd">
<!-- Generated by graphviz version 2.43.0 (0)
 -->
<!-- Title: MIB_IPNETROW Pages: 1 -->
<svg width="176pt" height="128pt"
 viewBox="0.00 0.00 176.00 128.00" xmlns="http://www.w3.org/2000/svg" xmlns:xlink="http://www.w3.org/1999/xlink">
<g id="graph0" class="graph" transform="scale(1 1) rotate(0) translate(4 124)">
<title>MIB_IPNETROW</title>
<!-- Node1 -->
<g id="node1" class="node">
<title>Node1</title>
<g id="a_node1"><a xlink:title=" ">
<polygon fill="#bfbfbf" stroke="black" points="11.5,-0.5 11.5,-19.5 104.5,-19.5 104.5,-0.5 11.5,-0.5"/>
<text text-anchor="middle" x="58" y="-7.5" font-family="Helvetica,sans-Serif" font-size="10.00">MIB_IPNETROW</text>
</a>
</g>
</g>
<!-- Node2 -->
<g id="node2" class="node">
<title>Node2</title>
<g id="a_node2"><a xlink:title=" ">
<polygon fill="none" stroke="#bfbfbf" points="0,-100.5 0,-119.5 38,-119.5 38,-100.5 0,-100.5"/>
<text text-anchor="middle" x="19" y="-107.5" font-family="Helvetica,sans-Serif" font-size="10.00">char</text>
</a>
</g>
</g>
<!-- Node2&#45;&gt;Node1 -->
<g id="edge1" class="edge">
<title>Node2&#45;&gt;Node1</title>
<path fill="none" stroke="#9a32cd" stroke-dasharray="5,2" d="M14.79,-89.96C12.49,-74.97 11.6,-54 20,-38 24.14,-30.12 31.74,-24.03 39.06,-19.64"/>
<polygon fill="#9a32cd" stroke="#9a32cd" points="11.4,-90.89 16.69,-100.08 18.28,-89.6 11.4,-90.89"/>
<text text-anchor="middle" x="47.5" y="-57.5" font-family="Helvetica,sans-Serif" font-size="10.00"> bPhysAddr</text>
</g>
<!-- Node3 -->
<g id="node3" class="node">
<title>Node3</title>
<g id="a_node3"><a xlink:title=" ">
<polygon fill="none" stroke="#bfbfbf" points="78,-100.5 78,-119.5 116,-119.5 116,-100.5 78,-100.5"/>
<text text-anchor="middle" x="97" y="-107.5" font-family="Helvetica,sans-Serif" font-size="10.00">long</text>
</a>
</g>
</g>
<!-- Node3&#45;&gt;Node1 -->
<g id="edge2" class="edge">
<title>Node3&#45;&gt;Node1</title>
<path fill="none" stroke="#9a32cd" stroke-dasharray="5,2" d="M92.71,-90.61C88.97,-75.98 82.91,-55.19 75,-38 72.04,-31.56 67.79,-24.81 64.28,-19.67"/>
<polygon fill="#9a32cd" stroke="#9a32cd" points="89.34,-91.55 95.11,-100.43 96.14,-89.88 89.34,-91.55"/>
<text text-anchor="middle" x="129" y="-74" font-family="Helvetica,sans-Serif" font-size="10.00"> dwAddr</text>
<text text-anchor="middle" x="129" y="-63" font-family="Helvetica,sans-Serif" font-size="10.00">dwPhysAddrLen</text>
<text text-anchor="middle" x="129" y="-52" font-family="Helvetica,sans-Serif" font-size="10.00">dwIndex</text>
<text text-anchor="middle" x="129" y="-41" font-family="Helvetica,sans-Serif" font-size="10.00">dwType</text>
</g>
</g>
</svg>
