<?xml version="1.0" encoding="UTF-8" standalone="no"?>
<!DOCTYPE svg PUBLIC "-//W3C//DTD SVG 1.1//EN"
 "http://www.w3.org/Graphics/SVG/1.1/DTD/svg11.dtd">
<!-- Generated by graphviz version 2.43.0 (0)
 -->
<!-- Title: _CHARDEVQ_INFO_1 Pages: 1 -->
<svg width="201pt" height="117pt"
 viewBox="0.00 0.00 200.50 117.00" xmlns="http://www.w3.org/2000/svg" xmlns:xlink="http://www.w3.org/1999/xlink">
<g id="graph0" class="graph" transform="scale(1 1) rotate(0) translate(4 113)">
<title>_CHARDEVQ_INFO_1</title>
<!-- Node1 -->
<g id="node1" class="node">
<title>Node1</title>
<g id="a_node1"><a xlink:title=" ">
<polygon fill="#bfbfbf" stroke="black" points="26.5,-0.5 26.5,-19.5 144.5,-19.5 144.5,-0.5 26.5,-0.5"/>
<text text-anchor="middle" x="85.5" y="-7.5" font-family="Helvetica,sans-Serif" font-size="10.00">_CHARDEVQ_INFO_1</text>
</a>
</g>
</g>
<!-- Node2 -->
<g id="node2" class="node">
<title>Node2</title>
<g id="a_node2"><a xlink:title=" ">
<polygon fill="none" stroke="#bfbfbf" points="0,-89.5 0,-108.5 89,-108.5 89,-89.5 0,-89.5"/>
<text text-anchor="middle" x="44.5" y="-96.5" font-family="Helvetica,sans-Serif" font-size="10.00">unsigned short</text>
</a>
</g>
</g>
<!-- Node2&#45;&gt;Node1 -->
<g id="edge1" class="edge">
<title>Node2&#45;&gt;Node1</title>
<path fill="none" stroke="#9a32cd" stroke-dasharray="5,2" d="M46.18,-79.27C47.91,-66.92 51.42,-50.74 58.5,-38 62.43,-30.93 68.75,-24.47 74.28,-19.64"/>
<polygon fill="#9a32cd" stroke="#9a32cd" points="42.68,-78.99 45.03,-89.32 49.64,-79.78 42.68,-78.99"/>
<text text-anchor="middle" x="81.5" y="-57.5" font-family="Helvetica,sans-Serif" font-size="10.00"> cq1_dev</text>
<text text-anchor="middle" x="81.5" y="-46.5" font-family="Helvetica,sans-Serif" font-size="10.00">cq1_devs</text>
</g>
<!-- Node3 -->
<g id="node3" class="node">
<title>Node3</title>
<g id="a_node3"><a xlink:title=" ">
<polygon fill="none" stroke="#bfbfbf" points="107.5,-89.5 107.5,-108.5 145.5,-108.5 145.5,-89.5 107.5,-89.5"/>
<text text-anchor="middle" x="126.5" y="-96.5" font-family="Helvetica,sans-Serif" font-size="10.00">long</text>
</a>
</g>
</g>
<!-- Node3&#45;&gt;Node1 -->
<g id="edge2" class="edge">
<title>Node3&#45;&gt;Node1</title>
<path fill="none" stroke="#9a32cd" stroke-dasharray="5,2" d="M121.04,-79.28C117.16,-67.17 111.43,-51.24 104.5,-38 101.1,-31.5 96.35,-24.75 92.45,-19.63"/>
<polygon fill="#9a32cd" stroke="#9a32cd" points="117.78,-80.61 124.05,-89.15 124.48,-78.57 117.78,-80.61"/>
<text text-anchor="middle" x="155" y="-63" font-family="Helvetica,sans-Serif" font-size="10.00"> cq1_numusers</text>
<text text-anchor="middle" x="155" y="-52" font-family="Helvetica,sans-Serif" font-size="10.00">cq1_numahead</text>
<text text-anchor="middle" x="155" y="-41" font-family="Helvetica,sans-Serif" font-size="10.00">cq1_priority</text>
</g>
</g>
</svg>
