<?xml version="1.0" encoding="UTF-8" standalone="no"?>
<!DOCTYPE svg PUBLIC "-//W3C//DTD SVG 1.1//EN"
 "http://www.w3.org/Graphics/SVG/1.1/DTD/svg11.dtd">
<!-- Generated by graphviz version 2.43.0 (0)
 -->
<!-- Title: Normal Distributions Pages: 1 -->
<svg width="481pt" height="27pt"
 viewBox="0.00 0.00 481.00 27.00" xmlns="http://www.w3.org/2000/svg" xmlns:xlink="http://www.w3.org/1999/xlink">
<g id="graph0" class="graph" transform="scale(1 1) rotate(0) translate(4 23)">
<title>Normal Distributions</title>
<!-- Node2 -->
<g id="node1" class="node">
<title>Node2</title>
<g id="a_node1"><a xlink:href="../../d2/d8f/group__random__distributions.html" target="_top" xlink:title=" ">
<polygon fill="none" stroke="black" points="164,-19 0,-19 0,0 164,0 164,-19"/>
<text text-anchor="middle" x="82" y="-7" font-family="Helvetica,sans-Serif" font-size="10.00">Random Number Distributions</text>
</a>
</g>
</g>
<!-- Node1 -->
<g id="node2" class="node">
<title>Node1</title>
<g id="a_node2"><a xlink:title=" ">
<polygon fill="#bfbfbf" stroke="black" points="318,-19 200,-19 200,0 318,0 318,-19"/>
<text text-anchor="middle" x="259" y="-7" font-family="Helvetica,sans-Serif" font-size="10.00">Normal Distributions</text>
</a>
</g>
</g>
<!-- Node2&#45;&gt;Node1 -->
<g id="edge1" class="edge">
<title>Node2&#45;&gt;Node1</title>
<path fill="none" stroke="black" d="M174.3,-9.5C182.99,-9.5 191.63,-9.5 199.87,-9.5"/>
<polygon fill="black" stroke="black" points="174.1,-6 164.1,-9.5 174.1,-13 174.1,-6"/>
</g>
<!-- Node3 -->
<g id="node3" class="node">
<title>Node3</title>
<g id="a_node3"><a xlink:href="../../d3/d6a/group__random__distributions__poisson.html" target="_top" xlink:title=" ">
<polygon fill="none" stroke="black" points="473,-19 354,-19 354,0 473,0 473,-19"/>
<text text-anchor="middle" x="413.5" y="-7" font-family="Helvetica,sans-Serif" font-size="10.00">Poisson Distributions</text>
</a>
</g>
</g>
<!-- Node1&#45;&gt;Node3 -->
<g id="edge2" class="edge">
<title>Node1&#45;&gt;Node3</title>
<path fill="none" stroke="black" d="M328.36,-9.5C336.85,-9.5 345.48,-9.5 353.81,-9.5"/>
<polygon fill="black" stroke="black" points="328.09,-6 318.09,-9.5 328.09,-13 328.09,-6"/>
</g>
</g>
</svg>
