<?xml version="1.0" encoding="UTF-8" standalone="no"?>
<!DOCTYPE svg PUBLIC "-//W3C//DTD SVG 1.1//EN"
 "http://www.w3.org/Graphics/SVG/1.1/DTD/svg11.dtd">
<!-- Generated by graphviz version 2.43.0 (0)
 -->
<!-- Title: _DVD_LAYER_DESCRIPTOR Pages: 1 -->
<svg width="293pt" height="227pt"
 viewBox="0.00 0.00 292.50 227.00" xmlns="http://www.w3.org/2000/svg" xmlns:xlink="http://www.w3.org/1999/xlink">
<g id="graph0" class="graph" transform="scale(1 1) rotate(0) translate(4 223)">
<title>_DVD_LAYER_DESCRIPTOR</title>
<!-- Node1 -->
<g id="node1" class="node">
<title>Node1</title>
<g id="a_node1"><a xlink:title=" ">
<polygon fill="#bfbfbf" stroke="black" points="31,-0.5 31,-19.5 178,-19.5 178,-0.5 31,-0.5"/>
<text text-anchor="middle" x="104.5" y="-7.5" font-family="Helvetica,sans-Serif" font-size="10.00">_DVD_LAYER_DESCRIPTOR</text>
</a>
</g>
</g>
<!-- Node2 -->
<g id="node2" class="node">
<title>Node2</title>
<g id="a_node2"><a xlink:title=" ">
<polygon fill="none" stroke="#bfbfbf" points="0,-188.5 0,-207.5 61,-207.5 61,-188.5 0,-188.5"/>
<text text-anchor="middle" x="30.5" y="-195.5" font-family="Helvetica,sans-Serif" font-size="10.00">unsigned</text>
</a>
</g>
</g>
<!-- Node2&#45;&gt;Node1 -->
<g id="edge1" class="edge">
<title>Node2&#45;&gt;Node1</title>
<path fill="none" stroke="#9a32cd" stroke-dasharray="5,2" d="M32.05,-178.06C35.35,-146.74 45.25,-83.14 73.5,-38 78.04,-30.74 85.14,-24.35 91.4,-19.62"/>
<polygon fill="#9a32cd" stroke="#9a32cd" points="28.53,-178.09 31.08,-188.37 35.5,-178.74 28.53,-178.09"/>
<text text-anchor="middle" x="115" y="-151" font-family="Helvetica,sans-Serif" font-size="10.00"> TrackPath</text>
<text text-anchor="middle" x="115" y="-140" font-family="Helvetica,sans-Serif" font-size="10.00">LinearDensity</text>
<text text-anchor="middle" x="115" y="-129" font-family="Helvetica,sans-Serif" font-size="10.00">NumberOfLayers</text>
<text text-anchor="middle" x="115" y="-118" font-family="Helvetica,sans-Serif" font-size="10.00">LayerType</text>
<text text-anchor="middle" x="115" y="-107" font-family="Helvetica,sans-Serif" font-size="10.00">Reserved1</text>
<text text-anchor="middle" x="115" y="-96" font-family="Helvetica,sans-Serif" font-size="10.00">BookVersion</text>
<text text-anchor="middle" x="115" y="-85" font-family="Helvetica,sans-Serif" font-size="10.00">TrackDensity</text>
<text text-anchor="middle" x="115" y="-74" font-family="Helvetica,sans-Serif" font-size="10.00">Reserved5</text>
<text text-anchor="middle" x="115" y="-63" font-family="Helvetica,sans-Serif" font-size="10.00">Reserved6</text>
<text text-anchor="middle" x="115" y="-52" font-family="Helvetica,sans-Serif" font-size="10.00">MinimumRate</text>
<text text-anchor="middle" x="115" y="-41" font-family="Helvetica,sans-Serif" font-size="10.00">...</text>
</g>
<!-- Node3 -->
<g id="node3" class="node">
<title>Node3</title>
<g id="a_node3"><a xlink:title=" ">
<polygon fill="none" stroke="#bfbfbf" points="79.5,-177.5 79.5,-218.5 277.5,-218.5 277.5,-177.5 79.5,-177.5"/>
<text text-anchor="start" x="87.5" y="-206.5" font-family="Helvetica,sans-Serif" font-size="10.00">PSecurityUserData *typedef</text>
<text text-anchor="start" x="87.5" y="-195.5" font-family="Helvetica,sans-Serif" font-size="10.00"> PSECPKG_EXTENDED_INFORMATION</text>
<text text-anchor="middle" x="178.5" y="-184.5" font-family="Helvetica,sans-Serif" font-size="10.00"> *typedef</text>
</a>
</g>
</g>
<!-- Node3&#45;&gt;Node1 -->
<g id="edge2" class="edge">
<title>Node3&#45;&gt;Node1</title>
<path fill="none" stroke="#9a32cd" stroke-dasharray="5,2" d="M182.07,-167.01C184.53,-132.66 183.47,-76.21 156.5,-38 150.63,-29.69 141.42,-23.75 132.36,-19.6"/>
<polygon fill="#9a32cd" stroke="#9a32cd" points="178.55,-167.07 181.17,-177.34 185.52,-167.68 178.55,-167.07"/>
<text text-anchor="middle" x="233.5" y="-107" font-family="Helvetica,sans-Serif" font-size="10.00"> EndLayerZeroSector</text>
<text text-anchor="middle" x="233.5" y="-96" font-family="Helvetica,sans-Serif" font-size="10.00">EndDataSector</text>
<text text-anchor="middle" x="233.5" y="-85" font-family="Helvetica,sans-Serif" font-size="10.00">StartingDataSector</text>
</g>
</g>
</svg>
