<?xml version="1.0" encoding="UTF-8" standalone="no"?>
<!DOCTYPE svg PUBLIC "-//W3C//DTD SVG 1.1//EN"
 "http://www.w3.org/Graphics/SVG/1.1/DTD/svg11.dtd">
<!-- Generated by graphviz version 2.43.0 (0)
 -->
<!-- Title: Engine/libogg/include/ogg/os_types.h Pages: 1 -->
<svg width="269pt" height="207pt"
 viewBox="0.00 0.00 269.00 207.00" xmlns="http://www.w3.org/2000/svg" xmlns:xlink="http://www.w3.org/1999/xlink">
<g id="graph0" class="graph" transform="scale(1 1) rotate(0) translate(4 203)">
<title>Engine/libogg/include/ogg/os_types.h</title>
<!-- Node1 -->
<g id="node1" class="node">
<title>Node1</title>
<g id="a_node1"><a xlink:title=" ">
<polygon fill="#bfbfbf" stroke="black" points="53,-168.5 53,-198.5 174,-198.5 174,-168.5 53,-168.5"/>
<text text-anchor="start" x="61" y="-186.5" font-family="Helvetica,sans-Serif" font-size="10.00">Engine/libogg/include</text>
<text text-anchor="middle" x="113.5" y="-175.5" font-family="Helvetica,sans-Serif" font-size="10.00">/ogg/os_types.h</text>
</a>
</g>
</g>
<!-- Node2 -->
<g id="node2" class="node">
<title>Node2</title>
<g id="a_node2"><a xlink:href="../../dc/d8f/Tools_2MinGW_2include_2sys_2types_8h.html" target="_top" xlink:title=" ">
<polygon fill="none" stroke="black" points="34.5,-56.5 34.5,-75.5 106.5,-75.5 106.5,-56.5 34.5,-56.5"/>
<text text-anchor="middle" x="70.5" y="-63.5" font-family="Helvetica,sans-Serif" font-size="10.00">sys/types.h</text>
</a>
</g>
</g>
<!-- Node1&#45;&gt;Node2 -->
<g id="edge1" class="edge">
<title>Node1&#45;&gt;Node2</title>
<path fill="none" stroke="midnightblue" d="M107.36,-168.45C103.03,-158.38 97.19,-144.44 92.5,-132 86.66,-116.5 80.67,-98.66 76.42,-85.59"/>
<polygon fill="midnightblue" stroke="midnightblue" points="79.7,-84.34 73.3,-75.9 73.03,-86.49 79.7,-84.34"/>
</g>
<!-- Node5 -->
<g id="node5" class="node">
<title>Node5</title>
<g id="a_node5"><a xlink:href="../../d0/d70/config__types_8h.html" target="_top" xlink:title=" ">
<polygon fill="none" stroke="black" points="101.5,-112.5 101.5,-131.5 209.5,-131.5 209.5,-112.5 101.5,-112.5"/>
<text text-anchor="middle" x="155.5" y="-119.5" font-family="Helvetica,sans-Serif" font-size="10.00">ogg/config_types.h</text>
</a>
</g>
</g>
<!-- Node1&#45;&gt;Node5 -->
<g id="edge4" class="edge">
<title>Node1&#45;&gt;Node5</title>
<path fill="none" stroke="midnightblue" d="M123.45,-168.4C129.49,-159.84 137.24,-148.87 143.6,-139.86"/>
<polygon fill="midnightblue" stroke="midnightblue" points="146.48,-141.85 149.39,-131.66 140.76,-137.81 146.48,-141.85"/>
</g>
<!-- Node3 -->
<g id="node3" class="node">
<title>Node3</title>
<g id="a_node3"><a xlink:href="../../da/d3d/__mingw_8h.html" target="_top" xlink:title=" ">
<polygon fill="none" stroke="black" points="0,-0.5 0,-19.5 63,-19.5 63,-0.5 0,-0.5"/>
<text text-anchor="middle" x="31.5" y="-7.5" font-family="Helvetica,sans-Serif" font-size="10.00">_mingw.h</text>
</a>
</g>
</g>
<!-- Node2&#45;&gt;Node3 -->
<g id="edge2" class="edge">
<title>Node2&#45;&gt;Node3</title>
<path fill="none" stroke="midnightblue" d="M64.06,-56.08C58.55,-48.46 50.47,-37.26 43.74,-27.94"/>
<polygon fill="midnightblue" stroke="midnightblue" points="46.51,-25.81 37.82,-19.75 40.84,-29.91 46.51,-25.81"/>
</g>
<!-- Node4 -->
<g id="node4" class="node">
<title>Node4</title>
<g id="a_node4"><a xlink:href="../../d3/dce/stddef_8h.html" target="_top" xlink:title=" ">
<polygon fill="none" stroke="black" points="81.5,-0.5 81.5,-19.5 137.5,-19.5 137.5,-0.5 81.5,-0.5"/>
<text text-anchor="middle" x="109.5" y="-7.5" font-family="Helvetica,sans-Serif" font-size="10.00">stddef.h</text>
</a>
</g>
</g>
<!-- Node2&#45;&gt;Node4 -->
<g id="edge3" class="edge">
<title>Node2&#45;&gt;Node4</title>
<path fill="none" stroke="midnightblue" d="M76.94,-56.08C82.45,-48.46 90.53,-37.26 97.26,-27.94"/>
<polygon fill="midnightblue" stroke="midnightblue" points="100.16,-29.91 103.18,-19.75 94.49,-25.81 100.16,-29.91"/>
</g>
<!-- Node5&#45;&gt;Node2 -->
<g id="edge7" class="edge">
<title>Node5&#45;&gt;Node2</title>
<path fill="none" stroke="midnightblue" d="M141.84,-112.32C128.58,-103.9 108.23,-90.97 92.65,-81.07"/>
<polygon fill="midnightblue" stroke="midnightblue" points="94.44,-78.06 84.12,-75.65 90.69,-83.97 94.44,-78.06"/>
</g>
<!-- Node6 -->
<g id="node6" class="node">
<title>Node6</title>
<g id="a_node6"><a xlink:title=" ">
<polygon fill="none" stroke="#bfbfbf" points="125,-56.5 125,-75.5 190,-75.5 190,-56.5 125,-56.5"/>
<text text-anchor="middle" x="157.5" y="-63.5" font-family="Helvetica,sans-Serif" font-size="10.00">inttypes.h</text>
</a>
</g>
</g>
<!-- Node5&#45;&gt;Node6 -->
<g id="edge5" class="edge">
<title>Node5&#45;&gt;Node6</title>
<path fill="none" stroke="midnightblue" d="M155.83,-112.08C156.09,-105.01 156.47,-94.86 156.8,-85.99"/>
<polygon fill="midnightblue" stroke="midnightblue" points="160.3,-85.87 157.18,-75.75 153.31,-85.61 160.3,-85.87"/>
</g>
<!-- Node7 -->
<g id="node7" class="node">
<title>Node7</title>
<g id="a_node7"><a xlink:title=" ">
<polygon fill="none" stroke="#bfbfbf" points="208,-56.5 208,-75.5 261,-75.5 261,-56.5 208,-56.5"/>
<text text-anchor="middle" x="234.5" y="-63.5" font-family="Helvetica,sans-Serif" font-size="10.00">stdint.h</text>
</a>
</g>
</g>
<!-- Node5&#45;&gt;Node7 -->
<g id="edge6" class="edge">
<title>Node5&#45;&gt;Node7</title>
<path fill="none" stroke="midnightblue" d="M168.19,-112.32C180.4,-103.98 199.08,-91.21 213.5,-81.35"/>
<polygon fill="midnightblue" stroke="midnightblue" points="215.56,-84.19 221.84,-75.65 211.61,-78.41 215.56,-84.19"/>
</g>
</g>
</svg>
