<?xml version="1.0" encoding="UTF-8" standalone="no"?>
<!DOCTYPE svg PUBLIC "-//W3C//DTD SVG 1.1//EN"
 "http://www.w3.org/Graphics/SVG/1.1/DTD/svg11.dtd">
<!-- Generated by graphviz version 2.43.0 (0)
 -->
<!-- Title: Engine/tools/lcc/lburg/lburg.c Pages: 1 -->
<svg width="560pt" height="151pt"
 viewBox="0.00 0.00 559.50 151.00" xmlns="http://www.w3.org/2000/svg" xmlns:xlink="http://www.w3.org/1999/xlink">
<g id="graph0" class="graph" transform="scale(1 1) rotate(0) translate(4 147)">
<title>Engine/tools/lcc/lburg/lburg.c</title>
<!-- Node1 -->
<g id="node1" class="node">
<title>Node1</title>
<g id="a_node1"><a xlink:title=" ">
<polygon fill="#bfbfbf" stroke="black" points="225,-112.5 225,-142.5 346,-142.5 346,-112.5 225,-112.5"/>
<text text-anchor="start" x="233" y="-130.5" font-family="Helvetica,sans-Serif" font-size="10.00">Engine/tools/lcc/lburg</text>
<text text-anchor="middle" x="285.5" y="-119.5" font-family="Helvetica,sans-Serif" font-size="10.00">/lburg.c</text>
</a>
</g>
</g>
<!-- Node2 -->
<g id="node2" class="node">
<title>Node2</title>
<g id="a_node2"><a xlink:href="../../dc/da7/assert_8h.html" target="_top" xlink:title=" ">
<polygon fill="none" stroke="black" points="3.5,-56.5 3.5,-75.5 59.5,-75.5 59.5,-56.5 3.5,-56.5"/>
<text text-anchor="middle" x="31.5" y="-63.5" font-family="Helvetica,sans-Serif" font-size="10.00">assert.h</text>
</a>
</g>
</g>
<!-- Node1&#45;&gt;Node2 -->
<g id="edge1" class="edge">
<title>Node1&#45;&gt;Node2</title>
<path fill="none" stroke="midnightblue" d="M224.97,-112.4C181.66,-102.3 121.98,-88.35 69.5,-76 69.4,-75.98 69.3,-75.95 69.2,-75.93"/>
<polygon fill="midnightblue" stroke="midnightblue" points="70.26,-72.58 59.72,-73.69 68.65,-79.4 70.26,-72.58"/>
</g>
<!-- Node4 -->
<g id="node4" class="node">
<title>Node4</title>
<g id="a_node4"><a xlink:title=" ">
<polygon fill="none" stroke="#bfbfbf" points="78,-56.5 78,-75.5 131,-75.5 131,-56.5 78,-56.5"/>
<text text-anchor="middle" x="104.5" y="-63.5" font-family="Helvetica,sans-Serif" font-size="10.00">ctype.h</text>
</a>
</g>
</g>
<!-- Node1&#45;&gt;Node4 -->
<g id="edge3" class="edge">
<title>Node1&#45;&gt;Node4</title>
<path fill="none" stroke="midnightblue" d="M242.61,-112.4C211.47,-102.16 169.81,-88.47 140.42,-78.81"/>
<polygon fill="midnightblue" stroke="midnightblue" points="141.17,-75.37 130.57,-75.57 138.98,-82.02 141.17,-75.37"/>
</g>
<!-- Node5 -->
<g id="node5" class="node">
<title>Node5</title>
<g id="a_node5"><a xlink:title=" ">
<polygon fill="none" stroke="#bfbfbf" points="149.5,-56.5 149.5,-75.5 205.5,-75.5 205.5,-56.5 149.5,-56.5"/>
<text text-anchor="middle" x="177.5" y="-63.5" font-family="Helvetica,sans-Serif" font-size="10.00">stdarg.h</text>
</a>
</g>
</g>
<!-- Node1&#45;&gt;Node5 -->
<g id="edge4" class="edge">
<title>Node1&#45;&gt;Node5</title>
<path fill="none" stroke="midnightblue" d="M259.91,-112.4C242.43,-102.77 219.41,-90.09 202.14,-80.58"/>
<polygon fill="midnightblue" stroke="midnightblue" points="203.66,-77.42 193.21,-75.66 200.28,-83.55 203.66,-77.42"/>
</g>
<!-- Node6 -->
<g id="node6" class="node">
<title>Node6</title>
<g id="a_node6"><a xlink:title=" ">
<polygon fill="none" stroke="#bfbfbf" points="224,-56.5 224,-75.5 277,-75.5 277,-56.5 224,-56.5"/>
<text text-anchor="middle" x="250.5" y="-63.5" font-family="Helvetica,sans-Serif" font-size="10.00">stdlib.h</text>
</a>
</g>
</g>
<!-- Node1&#45;&gt;Node6 -->
<g id="edge5" class="edge">
<title>Node1&#45;&gt;Node6</title>
<path fill="none" stroke="midnightblue" d="M277.21,-112.4C272.28,-104.02 265.99,-93.33 260.75,-84.42"/>
<polygon fill="midnightblue" stroke="midnightblue" points="263.68,-82.5 255.59,-75.66 257.65,-86.05 263.68,-82.5"/>
</g>
<!-- Node7 -->
<g id="node7" class="node">
<title>Node7</title>
<g id="a_node7"><a xlink:title=" ">
<polygon fill="none" stroke="#bfbfbf" points="295.5,-56.5 295.5,-75.5 345.5,-75.5 345.5,-56.5 295.5,-56.5"/>
<text text-anchor="middle" x="320.5" y="-63.5" font-family="Helvetica,sans-Serif" font-size="10.00">stdio.h</text>
</a>
</g>
</g>
<!-- Node1&#45;&gt;Node7 -->
<g id="edge6" class="edge">
<title>Node1&#45;&gt;Node7</title>
<path fill="none" stroke="midnightblue" d="M293.79,-112.4C298.72,-104.02 305.01,-93.33 310.25,-84.42"/>
<polygon fill="midnightblue" stroke="midnightblue" points="313.35,-86.05 315.41,-75.66 307.32,-82.5 313.35,-86.05"/>
</g>
<!-- Node8 -->
<g id="node8" class="node">
<title>Node8</title>
<g id="a_node8"><a xlink:title=" ">
<polygon fill="none" stroke="#bfbfbf" points="364,-56.5 364,-75.5 417,-75.5 417,-56.5 364,-56.5"/>
<text text-anchor="middle" x="390.5" y="-63.5" font-family="Helvetica,sans-Serif" font-size="10.00">string.h</text>
</a>
</g>
</g>
<!-- Node1&#45;&gt;Node8 -->
<g id="edge7" class="edge">
<title>Node1&#45;&gt;Node8</title>
<path fill="none" stroke="midnightblue" d="M310.38,-112.4C327.21,-102.86 349.34,-90.32 366.07,-80.84"/>
<polygon fill="midnightblue" stroke="midnightblue" points="368.25,-83.63 375.22,-75.66 364.8,-77.54 368.25,-83.63"/>
</g>
<!-- Node9 -->
<g id="node9" class="node">
<title>Node9</title>
<g id="a_node9"><a xlink:title=" ">
<polygon fill="none" stroke="#bfbfbf" points="435.5,-56.5 435.5,-75.5 483.5,-75.5 483.5,-56.5 435.5,-56.5"/>
<text text-anchor="middle" x="459.5" y="-63.5" font-family="Helvetica,sans-Serif" font-size="10.00">time.h</text>
</a>
</g>
</g>
<!-- Node1&#45;&gt;Node9 -->
<g id="edge8" class="edge">
<title>Node1&#45;&gt;Node9</title>
<path fill="none" stroke="midnightblue" d="M326.74,-112.4C356.94,-102.07 397.44,-88.22 425.73,-78.55"/>
<polygon fill="midnightblue" stroke="midnightblue" points="426.86,-81.86 435.19,-75.31 424.6,-75.24 426.86,-81.86"/>
</g>
<!-- Node10 -->
<g id="node10" class="node">
<title>Node10</title>
<g id="a_node10"><a xlink:href="../../d2/d68/lburg_8h.html" target="_top" xlink:title=" ">
<polygon fill="none" stroke="black" points="501.5,-56.5 501.5,-75.5 551.5,-75.5 551.5,-56.5 501.5,-56.5"/>
<text text-anchor="middle" x="526.5" y="-63.5" font-family="Helvetica,sans-Serif" font-size="10.00">lburg.h</text>
</a>
</g>
</g>
<!-- Node1&#45;&gt;Node10 -->
<g id="edge9" class="edge">
<title>Node1&#45;&gt;Node10</title>
<path fill="none" stroke="midnightblue" d="M344.46,-112.44C383.58,-103.04 436.29,-90.22 491.33,-76.26"/>
<polygon fill="midnightblue" stroke="midnightblue" points="492.43,-79.59 501.26,-73.74 490.71,-72.81 492.43,-79.59"/>
</g>
<!-- Node3 -->
<g id="node3" class="node">
<title>Node3</title>
<g id="a_node3"><a xlink:href="../../da/d3d/__mingw_8h.html" target="_top" xlink:title=" ">
<polygon fill="none" stroke="black" points="0,-0.5 0,-19.5 63,-19.5 63,-0.5 0,-0.5"/>
<text text-anchor="middle" x="31.5" y="-7.5" font-family="Helvetica,sans-Serif" font-size="10.00">_mingw.h</text>
</a>
</g>
</g>
<!-- Node2&#45;&gt;Node3 -->
<g id="edge2" class="edge">
<title>Node2&#45;&gt;Node3</title>
<path fill="none" stroke="midnightblue" d="M31.5,-56.08C31.5,-49.01 31.5,-38.86 31.5,-29.99"/>
<polygon fill="midnightblue" stroke="midnightblue" points="35,-29.75 31.5,-19.75 28,-29.75 35,-29.75"/>
</g>
</g>
</svg>
