<?xml version="1.0" encoding="UTF-8" standalone="no"?>
<!DOCTYPE svg PUBLIC "-//W3C//DTD SVG 1.1//EN"
 "http://www.w3.org/Graphics/SVG/1.1/DTD/svg11.dtd">
<!-- Generated by graphviz version 2.43.0 (0)
 -->
<!-- Title: _TDI_REQUEST_KERNEL Pages: 1 -->
<svg width="527pt" height="100pt"
 viewBox="0.00 0.00 527.00 99.50" xmlns="http://www.w3.org/2000/svg" xmlns:xlink="http://www.w3.org/1999/xlink">
<g id="graph0" class="graph" transform="scale(1 1) rotate(0) translate(4 95.5)">
<title>_TDI_REQUEST_KERNEL</title>
<!-- Node1 -->
<g id="node1" class="node">
<title>Node1</title>
<g id="a_node1"><a xlink:title=" ">
<polygon fill="#bfbfbf" stroke="black" points="386,-38.5 386,-57.5 519,-57.5 519,-38.5 386,-38.5"/>
<text text-anchor="middle" x="452.5" y="-45.5" font-family="Helvetica,sans-Serif" font-size="10.00">_TDI_REQUEST_KERNEL</text>
</a>
</g>
</g>
<!-- Node2 -->
<g id="node2" class="node">
<title>Node2</title>
<g id="a_node2"><a xlink:title=" ">
<polygon fill="none" stroke="#bfbfbf" points="31.5,-61 31.5,-91 166.5,-91 166.5,-61 31.5,-61"/>
<text text-anchor="start" x="39.5" y="-79" font-family="Helvetica,sans-Serif" font-size="10.00">struct TDI_CONNECTION</text>
<text text-anchor="middle" x="99" y="-68" font-family="Helvetica,sans-Serif" font-size="10.00">_INFORMATION *</text>
</a>
</g>
</g>
<!-- Node2&#45;&gt;Node1 -->
<g id="edge1" class="edge">
<title>Node2&#45;&gt;Node1</title>
<path fill="none" stroke="#9a32cd" stroke-dasharray="5,2" d="M176.73,-69.89C239.23,-64.91 326.53,-57.95 385.84,-53.23"/>
<polygon fill="#9a32cd" stroke="#9a32cd" points="176.22,-66.42 166.53,-70.7 176.77,-73.4 176.22,-66.42"/>
<text text-anchor="middle" x="292" y="-80" font-family="Helvetica,sans-Serif" font-size="10.00"> ReturnConnectionInformation</text>
<text text-anchor="middle" x="292" y="-69" font-family="Helvetica,sans-Serif" font-size="10.00">RequestConnectionInformation</text>
</g>
<!-- Node3 -->
<g id="node3" class="node">
<title>Node3</title>
<g id="a_node3"><a xlink:title=" ">
<polygon fill="none" stroke="#bfbfbf" points="0,-0.5 0,-41.5 198,-41.5 198,-0.5 0,-0.5"/>
<text text-anchor="start" x="8" y="-29.5" font-family="Helvetica,sans-Serif" font-size="10.00">PSecurityUserData *typedef</text>
<text text-anchor="start" x="8" y="-18.5" font-family="Helvetica,sans-Serif" font-size="10.00"> PSECPKG_EXTENDED_INFORMATION</text>
<text text-anchor="middle" x="99" y="-7.5" font-family="Helvetica,sans-Serif" font-size="10.00"> *typedef</text>
</a>
</g>
</g>
<!-- Node3&#45;&gt;Node1 -->
<g id="edge2" class="edge">
<title>Node3&#45;&gt;Node1</title>
<path fill="none" stroke="#9a32cd" stroke-dasharray="5,2" d="M208.56,-21.8C257.42,-23.1 315.74,-25.95 368,-32 381.2,-33.53 395.43,-35.96 408.35,-38.47"/>
<polygon fill="#9a32cd" stroke="#9a32cd" points="208.37,-18.3 198.28,-21.55 208.19,-25.3 208.37,-18.3"/>
<text text-anchor="middle" x="292" y="-46" font-family="Helvetica,sans-Serif" font-size="10.00"> RequestFlags</text>
<text text-anchor="middle" x="292" y="-35" font-family="Helvetica,sans-Serif" font-size="10.00">RequestSpecific</text>
</g>
</g>
</svg>
