<?xml version="1.0" encoding="UTF-8" standalone="no"?>
<!DOCTYPE svg PUBLIC "-//W3C//DTD SVG 1.1//EN"
 "http://www.w3.org/Graphics/SVG/1.1/DTD/svg11.dtd">
<!-- Generated by graphviz version 2.43.0 (0)
 -->
<!-- Title: token Pages: 1 -->
<svg width="140pt" height="139pt"
 viewBox="0.00 0.00 139.50 139.00" xmlns="http://www.w3.org/2000/svg" xmlns:xlink="http://www.w3.org/1999/xlink">
<g id="graph0" class="graph" transform="scale(1 1) rotate(0) translate(4 135)">
<title>token</title>
<!-- Node1 -->
<g id="node1" class="node">
<title>Node1</title>
<g id="a_node1"><a xlink:title="Tokens.">
<polygon fill="#bfbfbf" stroke="black" points="41,-0.5 41,-19.5 85,-19.5 85,-0.5 41,-0.5"/>
<text text-anchor="middle" x="63" y="-7.5" font-family="Helvetica,sans-Serif" font-size="10.00">token</text>
</a>
</g>
</g>
<!-- Node2 -->
<g id="node2" class="node">
<title>Node2</title>
<g id="a_node2"><a xlink:title=" ">
<polygon fill="none" stroke="#bfbfbf" points="0,-111.5 0,-130.5 52,-130.5 52,-111.5 0,-111.5"/>
<text text-anchor="middle" x="26" y="-118.5" font-family="Helvetica,sans-Serif" font-size="10.00">uchar *</text>
</a>
</g>
</g>
<!-- Node2&#45;&gt;Node1 -->
<g id="edge1" class="edge">
<title>Node2&#45;&gt;Node1</title>
<path fill="none" stroke="#9a32cd" stroke-dasharray="5,2" d="M32.16,-101.84C40.25,-78.01 54.12,-37.15 60.11,-19.51"/>
<polygon fill="#9a32cd" stroke="#9a32cd" points="28.8,-100.85 28.9,-111.45 35.43,-103.1 28.8,-100.85"/>
<text text-anchor="middle" x="57.5" y="-63" font-family="Helvetica,sans-Serif" font-size="10.00"> t</text>
</g>
<!-- Node3 -->
<g id="node3" class="node">
<title>Node3</title>
<g id="a_node3"><a xlink:title=" ">
<polygon fill="none" stroke="#bfbfbf" points="70.5,-111.5 70.5,-130.5 131.5,-130.5 131.5,-111.5 70.5,-111.5"/>
<text text-anchor="middle" x="101" y="-118.5" font-family="Helvetica,sans-Serif" font-size="10.00">unsigned</text>
</a>
</g>
</g>
<!-- Node3&#45;&gt;Node1 -->
<g id="edge2" class="edge">
<title>Node3&#45;&gt;Node1</title>
<path fill="none" stroke="#9a32cd" stroke-dasharray="5,2" d="M94.67,-101.84C86.36,-78.01 72.12,-37.15 65.97,-19.51"/>
<polygon fill="#9a32cd" stroke="#9a32cd" points="91.42,-103.16 98.02,-111.45 98.03,-100.85 91.42,-103.16"/>
<text text-anchor="middle" x="110" y="-85" font-family="Helvetica,sans-Serif" font-size="10.00"> hideset</text>
<text text-anchor="middle" x="110" y="-74" font-family="Helvetica,sans-Serif" font-size="10.00">wslen</text>
<text text-anchor="middle" x="110" y="-63" font-family="Helvetica,sans-Serif" font-size="10.00">type</text>
<text text-anchor="middle" x="110" y="-52" font-family="Helvetica,sans-Serif" font-size="10.00">flag</text>
<text text-anchor="middle" x="110" y="-41" font-family="Helvetica,sans-Serif" font-size="10.00">len</text>
</g>
</g>
</svg>
