<?xml version="1.0" encoding="UTF-8" standalone="no"?>
<!DOCTYPE svg PUBLIC "-//W3C//DTD SVG 1.1//EN"
 "http://www.w3.org/Graphics/SVG/1.1/DTD/svg11.dtd">
<!-- Generated by graphviz version 2.43.0 (0)
 -->
<!-- Title: _STAT_WORKSTATION_0 Pages: 1 -->
<svg width="381pt" height="205pt"
 viewBox="0.00 0.00 381.00 205.00" xmlns="http://www.w3.org/2000/svg" xmlns:xlink="http://www.w3.org/1999/xlink">
<g id="graph0" class="graph" transform="scale(1 1) rotate(0) translate(4 201)">
<title>_STAT_WORKSTATION_0</title>
<!-- Node1 -->
<g id="node1" class="node">
<title>Node1</title>
<g id="a_node1"><a xlink:title=" ">
<polygon fill="#bfbfbf" stroke="black" points="72,-0.5 72,-19.5 206,-19.5 206,-0.5 72,-0.5"/>
<text text-anchor="middle" x="139" y="-7.5" font-family="Helvetica,sans-Serif" font-size="10.00">_STAT_WORKSTATION_0</text>
</a>
</g>
</g>
<!-- Node2 -->
<g id="node2" class="node">
<title>Node2</title>
<g id="a_node2"><a xlink:title=" ">
<polygon fill="none" stroke="#bfbfbf" points="0,-177.5 0,-196.5 98,-196.5 98,-177.5 0,-177.5"/>
<text text-anchor="middle" x="49" y="-184.5" font-family="Helvetica,sans-Serif" font-size="10.00">LARGE_INTEGER</text>
</a>
</g>
</g>
<!-- Node2&#45;&gt;Node1 -->
<g id="edge1" class="edge">
<title>Node2&#45;&gt;Node1</title>
<path fill="none" stroke="#9a32cd" stroke-dasharray="5,2" d="M42.79,-167.51C33.85,-137.16 21.38,-76.32 50,-38 56.28,-29.59 65.11,-23.71 74.79,-19.62"/>
<polygon fill="#9a32cd" stroke="#9a32cd" points="39.5,-168.73 45.84,-177.22 46.18,-166.63 39.5,-168.73"/>
<text text-anchor="middle" x="129" y="-151" font-family="Helvetica,sans-Serif" font-size="10.00"> BytesReceived</text>
<text text-anchor="middle" x="129" y="-140" font-family="Helvetica,sans-Serif" font-size="10.00">NonPagingWriteBytesRequested</text>
<text text-anchor="middle" x="129" y="-129" font-family="Helvetica,sans-Serif" font-size="10.00">PagingWriteBytesRequested</text>
<text text-anchor="middle" x="129" y="-118" font-family="Helvetica,sans-Serif" font-size="10.00">BytesTransmitted</text>
<text text-anchor="middle" x="129" y="-107" font-family="Helvetica,sans-Serif" font-size="10.00">NonPagingReadBytesRequested</text>
<text text-anchor="middle" x="129" y="-96" font-family="Helvetica,sans-Serif" font-size="10.00">StatisticsStartTime</text>
<text text-anchor="middle" x="129" y="-85" font-family="Helvetica,sans-Serif" font-size="10.00">NetworkWriteBytesRequested</text>
<text text-anchor="middle" x="129" y="-74" font-family="Helvetica,sans-Serif" font-size="10.00">SmbsTransmitted</text>
<text text-anchor="middle" x="129" y="-63" font-family="Helvetica,sans-Serif" font-size="10.00">PagingReadBytesRequested</text>
<text text-anchor="middle" x="129" y="-52" font-family="Helvetica,sans-Serif" font-size="10.00">CacheWriteBytesRequested</text>
<text text-anchor="middle" x="129" y="-41" font-family="Helvetica,sans-Serif" font-size="10.00">...</text>
</g>
<!-- Node3 -->
<g id="node3" class="node">
<title>Node3</title>
<g id="a_node3"><a xlink:title=" ">
<polygon fill="none" stroke="#bfbfbf" points="199.5,-177.5 199.5,-196.5 260.5,-196.5 260.5,-177.5 199.5,-177.5"/>
<text text-anchor="middle" x="230" y="-184.5" font-family="Helvetica,sans-Serif" font-size="10.00">unsigned</text>
</a>
</g>
</g>
<!-- Node3&#45;&gt;Node1 -->
<g id="edge2" class="edge">
<title>Node3&#45;&gt;Node1</title>
<path fill="none" stroke="#9a32cd" stroke-dasharray="5,2" d="M232.75,-167C236.09,-136.35 238,-75.65 208,-38 201.19,-29.45 191.29,-23.6 181.11,-19.6"/>
<polygon fill="#9a32cd" stroke="#9a32cd" points="229.25,-166.8 231.47,-177.16 236.2,-167.68 229.25,-166.8"/>
<text text-anchor="middle" x="303.5" y="-151" font-family="Helvetica,sans-Serif" font-size="10.00"> LanmanNtConnects</text>
<text text-anchor="middle" x="303.5" y="-140" font-family="Helvetica,sans-Serif" font-size="10.00">LargeWriteSmbs</text>
<text text-anchor="middle" x="303.5" y="-129" font-family="Helvetica,sans-Serif" font-size="10.00">Lanman20Connects</text>
<text text-anchor="middle" x="303.5" y="-118" font-family="Helvetica,sans-Serif" font-size="10.00">Reconnects</text>
<text text-anchor="middle" x="303.5" y="-107" font-family="Helvetica,sans-Serif" font-size="10.00">SmallWriteSmbs</text>
<text text-anchor="middle" x="303.5" y="-96" font-family="Helvetica,sans-Serif" font-size="10.00">Lanman21Connects</text>
<text text-anchor="middle" x="303.5" y="-85" font-family="Helvetica,sans-Serif" font-size="10.00">WriteSmbs</text>
<text text-anchor="middle" x="303.5" y="-74" font-family="Helvetica,sans-Serif" font-size="10.00">FailedCompletionOperations</text>
<text text-anchor="middle" x="303.5" y="-63" font-family="Helvetica,sans-Serif" font-size="10.00">Sessions</text>
<text text-anchor="middle" x="303.5" y="-52" font-family="Helvetica,sans-Serif" font-size="10.00">CurrentCommands</text>
<text text-anchor="middle" x="303.5" y="-41" font-family="Helvetica,sans-Serif" font-size="10.00">...</text>
</g>
</g>
</svg>
