<?xml version="1.0" encoding="UTF-8" standalone="no"?>
<!DOCTYPE svg PUBLIC "-//W3C//DTD SVG 1.1//EN"
 "http://www.w3.org/Graphics/SVG/1.1/DTD/svg11.dtd">
<!-- Generated by graphviz version 2.43.0 (0)
 -->
<!-- Title: cinematics_t Pages: 1 -->
<svg width="353pt" height="128pt"
 viewBox="0.00 0.00 353.00 128.00" xmlns="http://www.w3.org/2000/svg" xmlns:xlink="http://www.w3.org/1999/xlink">
<g id="graph0" class="graph" transform="scale(1 1) rotate(0) translate(4 124)">
<title>cinematics_t</title>
<!-- Node1 -->
<g id="node1" class="node">
<title>Node1</title>
<g id="a_node1"><a xlink:title=" ">
<polygon fill="#bfbfbf" stroke="black" points="114,-0.5 114,-19.5 193,-19.5 193,-0.5 114,-0.5"/>
<text text-anchor="middle" x="153.5" y="-7.5" font-family="Helvetica,sans-Serif" font-size="10.00">cinematics_t</text>
</a>
</g>
</g>
<!-- Node2 -->
<g id="node2" class="node">
<title>Node2</title>
<g id="a_node2"><a xlink:title=" ">
<polygon fill="none" stroke="#bfbfbf" points="0,-100.5 0,-119.5 47,-119.5 47,-100.5 0,-100.5"/>
<text text-anchor="middle" x="23.5" y="-107.5" font-family="Helvetica,sans-Serif" font-size="10.00">byte *</text>
</a>
</g>
</g>
<!-- Node2&#45;&gt;Node1 -->
<g id="edge1" class="edge">
<title>Node2&#45;&gt;Node1</title>
<path fill="none" stroke="#9a32cd" stroke-dasharray="5,2" d="M24.11,-89.82C25.67,-73.79 30.45,-51.44 44.5,-38 62.89,-20.42 90.85,-13.74 113.85,-11.43"/>
<polygon fill="#9a32cd" stroke="#9a32cd" points="20.6,-89.97 23.46,-100.17 27.58,-90.41 20.6,-89.97"/>
<text text-anchor="middle" x="64.5" y="-57.5" font-family="Helvetica,sans-Serif" font-size="10.00"> qStatus</text>
</g>
<!-- Node3 -->
<g id="node3" class="node">
<title>Node3</title>
<g id="a_node3"><a xlink:title=" ">
<polygon fill="none" stroke="#bfbfbf" points="66,-100.5 66,-119.5 107,-119.5 107,-100.5 66,-100.5"/>
<text text-anchor="middle" x="86.5" y="-107.5" font-family="Helvetica,sans-Serif" font-size="10.00">short</text>
</a>
</g>
</g>
<!-- Node3&#45;&gt;Node1 -->
<g id="edge2" class="edge">
<title>Node3&#45;&gt;Node1</title>
<path fill="none" stroke="#9a32cd" stroke-dasharray="5,2" d="M87.6,-89.79C89.37,-74.38 93.91,-52.94 105.5,-38 111.71,-29.99 121.01,-23.99 129.77,-19.7"/>
<polygon fill="#9a32cd" stroke="#9a32cd" points="84.08,-89.92 86.72,-100.18 91.05,-90.51 84.08,-89.92"/>
<text text-anchor="middle" x="127.5" y="-57.5" font-family="Helvetica,sans-Serif" font-size="10.00"> sqrTable</text>
</g>
<!-- Node4 -->
<g id="node4" class="node">
<title>Node4</title>
<g id="a_node4"><a xlink:title=" ">
<polygon fill="none" stroke="#bfbfbf" points="139,-100.5 139,-119.5 168,-119.5 168,-100.5 139,-100.5"/>
<text text-anchor="middle" x="153.5" y="-107.5" font-family="Helvetica,sans-Serif" font-size="10.00">int</text>
</a>
</g>
</g>
<!-- Node4&#45;&gt;Node1 -->
<g id="edge3" class="edge">
<title>Node4&#45;&gt;Node1</title>
<path fill="none" stroke="#9a32cd" stroke-dasharray="5,2" d="M153.5,-90.22C153.5,-68.95 153.5,-35.22 153.5,-19.54"/>
<polygon fill="#9a32cd" stroke="#9a32cd" points="150,-90.3 153.5,-100.3 157,-90.3 150,-90.3"/>
<text text-anchor="middle" x="188.5" y="-63" font-family="Helvetica,sans-Serif" font-size="10.00"> mcomp</text>
<text text-anchor="middle" x="188.5" y="-52" font-family="Helvetica,sans-Serif" font-size="10.00">currentHandle</text>
</g>
<!-- Node5 -->
<g id="node5" class="node">
<title>Node5</title>
<g id="a_node5"><a xlink:title=" ">
<polygon fill="none" stroke="#bfbfbf" points="227.5,-100.5 227.5,-119.5 265.5,-119.5 265.5,-100.5 227.5,-100.5"/>
<text text-anchor="middle" x="246.5" y="-107.5" font-family="Helvetica,sans-Serif" font-size="10.00">long</text>
</a>
</g>
</g>
<!-- Node5&#45;&gt;Node1 -->
<g id="edge4" class="edge">
<title>Node5&#45;&gt;Node1</title>
<path fill="none" stroke="#9a32cd" stroke-dasharray="5,2" d="M245.18,-90.22C243.12,-74.44 237.86,-52.23 224.5,-38 216.2,-29.16 204.69,-23.18 193.36,-19.16"/>
<polygon fill="#9a32cd" stroke="#9a32cd" points="241.71,-90.77 246.18,-100.38 248.68,-90.08 241.71,-90.77"/>
<text text-anchor="middle" x="264" y="-74" font-family="Helvetica,sans-Serif" font-size="10.00"> oldXOff</text>
<text text-anchor="middle" x="264" y="-63" font-family="Helvetica,sans-Serif" font-size="10.00">oldxsize</text>
<text text-anchor="middle" x="264" y="-52" font-family="Helvetica,sans-Serif" font-size="10.00">oldysize</text>
<text text-anchor="middle" x="264" y="-41" font-family="Helvetica,sans-Serif" font-size="10.00">oldYOff</text>
</g>
<!-- Node6 -->
<g id="node6" class="node">
<title>Node6</title>
<g id="a_node6"><a xlink:title=" ">
<polygon fill="none" stroke="#bfbfbf" points="284,-100.5 284,-119.5 345,-119.5 345,-100.5 284,-100.5"/>
<text text-anchor="middle" x="314.5" y="-107.5" font-family="Helvetica,sans-Serif" font-size="10.00">unsigned</text>
</a>
</g>
</g>
<!-- Node6&#45;&gt;Node1 -->
<g id="edge5" class="edge">
<title>Node6&#45;&gt;Node1</title>
<path fill="none" stroke="#9a32cd" stroke-dasharray="5,2" d="M312.65,-90.04C310.04,-73.8 303.72,-51.05 288.5,-38 274.39,-25.91 227.61,-18.54 193.06,-14.62"/>
<polygon fill="#9a32cd" stroke="#9a32cd" points="309.19,-90.56 313.94,-100.03 316.13,-89.67 309.19,-90.56"/>
<text text-anchor="middle" x="326" y="-63" font-family="Helvetica,sans-Serif" font-size="10.00"> linbuf</text>
<text text-anchor="middle" x="326" y="-52" font-family="Helvetica,sans-Serif" font-size="10.00">file</text>
</g>
</g>
</svg>
