<?xml version="1.0" encoding="UTF-8" standalone="no"?>
<!DOCTYPE svg PUBLIC "-//W3C//DTD SVG 1.1//EN"
 "http://www.w3.org/Graphics/SVG/1.1/DTD/svg11.dtd">
<!-- Generated by graphviz version 2.43.0 (0)
 -->
<!-- Title: tagMONITORINFOEXA Pages: 1 -->
<svg width="202pt" height="106pt"
 viewBox="0.00 0.00 202.00 106.00" xmlns="http://www.w3.org/2000/svg" xmlns:xlink="http://www.w3.org/1999/xlink">
<g id="graph0" class="graph" transform="scale(1 1) rotate(0) translate(4 102)">
<title>tagMONITORINFOEXA</title>
<!-- Node1 -->
<g id="node1" class="node">
<title>Node1</title>
<g id="a_node1"><a xlink:title=" ">
<polygon fill="#bfbfbf" stroke="black" points="29.5,-0.5 29.5,-19.5 152.5,-19.5 152.5,-0.5 29.5,-0.5"/>
<text text-anchor="middle" x="91" y="-7.5" font-family="Helvetica,sans-Serif" font-size="10.00">tagMONITORINFOEXA</text>
</a>
</g>
</g>
<!-- Node2 -->
<g id="node2" class="node">
<title>Node2</title>
<g id="a_node2"><a xlink:title=" ">
<polygon fill="none" stroke="#bfbfbf" points="0,-78.5 0,-97.5 42,-97.5 42,-78.5 0,-78.5"/>
<text text-anchor="middle" x="21" y="-85.5" font-family="Helvetica,sans-Serif" font-size="10.00">RECT</text>
</a>
</g>
</g>
<!-- Node2&#45;&gt;Node1 -->
<g id="edge1" class="edge">
<title>Node2&#45;&gt;Node1</title>
<path fill="none" stroke="#9a32cd" stroke-dasharray="5,2" d="M24.79,-68.65C27.61,-58.65 32.34,-46.61 40,-38 47.19,-29.91 57.39,-23.85 66.78,-19.53"/>
<polygon fill="#9a32cd" stroke="#9a32cd" points="21.38,-67.88 22.43,-78.42 28.18,-69.53 21.38,-67.88"/>
<text text-anchor="middle" x="63.5" y="-52" font-family="Helvetica,sans-Serif" font-size="10.00"> rcWork</text>
<text text-anchor="middle" x="63.5" y="-41" font-family="Helvetica,sans-Serif" font-size="10.00">rcMonitor</text>
</g>
<!-- Node3 -->
<g id="node3" class="node">
<title>Node3</title>
<g id="a_node3"><a xlink:title=" ">
<polygon fill="none" stroke="#bfbfbf" points="72,-78.5 72,-97.5 110,-97.5 110,-78.5 72,-78.5"/>
<text text-anchor="middle" x="91" y="-85.5" font-family="Helvetica,sans-Serif" font-size="10.00">char</text>
</a>
</g>
</g>
<!-- Node3&#45;&gt;Node1 -->
<g id="edge2" class="edge">
<title>Node3&#45;&gt;Node1</title>
<path fill="none" stroke="#9a32cd" stroke-dasharray="5,2" d="M91,-68.22C91,-52.7 91,-31.36 91,-19.62"/>
<polygon fill="#9a32cd" stroke="#9a32cd" points="87.5,-68.28 91,-78.28 94.5,-68.28 87.5,-68.28"/>
<text text-anchor="middle" x="115" y="-46.5" font-family="Helvetica,sans-Serif" font-size="10.00"> szDevice</text>
</g>
<!-- Node4 -->
<g id="node4" class="node">
<title>Node4</title>
<g id="a_node4"><a xlink:title=" ">
<polygon fill="none" stroke="#bfbfbf" points="143,-78.5 143,-97.5 181,-97.5 181,-78.5 143,-78.5"/>
<text text-anchor="middle" x="162" y="-85.5" font-family="Helvetica,sans-Serif" font-size="10.00">long</text>
</a>
</g>
</g>
<!-- Node4&#45;&gt;Node1 -->
<g id="edge3" class="edge">
<title>Node4&#45;&gt;Node1</title>
<path fill="none" stroke="#9a32cd" stroke-dasharray="5,2" d="M156.93,-68.68C153.44,-58.7 147.98,-46.66 140,-38 132.76,-30.14 122.69,-24.05 113.57,-19.66"/>
<polygon fill="#9a32cd" stroke="#9a32cd" points="153.65,-69.93 159.96,-78.44 160.34,-67.86 153.65,-69.93"/>
<text text-anchor="middle" x="173.5" y="-52" font-family="Helvetica,sans-Serif" font-size="10.00"> cbSize</text>
<text text-anchor="middle" x="173.5" y="-41" font-family="Helvetica,sans-Serif" font-size="10.00">dwFlags</text>
</g>
</g>
</svg>
