<?xml version="1.0" encoding="UTF-8" standalone="no"?>
<!DOCTYPE svg PUBLIC "-//W3C//DTD SVG 1.1//EN"
 "http://www.w3.org/Graphics/SVG/1.1/DTD/svg11.dtd">
<!-- Generated by graphviz version 2.43.0 (0)
 -->
<!-- Title: Engine/libspeex/sb_celp.h Pages: 1 -->
<svg width="417pt" height="386pt"
 viewBox="0.00 0.00 416.50 386.00" xmlns="http://www.w3.org/2000/svg" xmlns:xlink="http://www.w3.org/1999/xlink">
<g id="graph0" class="graph" transform="scale(1 1) rotate(0) translate(4 382)">
<title>Engine/libspeex/sb_celp.h</title>
<!-- Node1 -->
<g id="node1" class="node">
<title>Node1</title>
<g id="a_node1"><a xlink:title="Sub&#45;band CELP mode used for wideband encoding.">
<polygon fill="#bfbfbf" stroke="black" points="38,-347.5 38,-377.5 146,-377.5 146,-347.5 38,-347.5"/>
<text text-anchor="start" x="46" y="-365.5" font-family="Helvetica,sans-Serif" font-size="10.00">Engine/libspeex/sb</text>
<text text-anchor="middle" x="92" y="-354.5" font-family="Helvetica,sans-Serif" font-size="10.00">_celp.h</text>
</a>
</g>
</g>
<!-- Node2 -->
<g id="node2" class="node">
<title>Node2</title>
<g id="a_node2"><a xlink:href="../../d9/daa/modes_8h.html" target="_top" xlink:title="Describes the different modes of the codec.">
<polygon fill="none" stroke="black" points="62.5,-235.5 62.5,-254.5 121.5,-254.5 121.5,-235.5 62.5,-235.5"/>
<text text-anchor="middle" x="92" y="-242.5" font-family="Helvetica,sans-Serif" font-size="10.00">modes.h</text>
</a>
</g>
</g>
<!-- Node1&#45;&gt;Node2 -->
<g id="edge1" class="edge">
<title>Node1&#45;&gt;Node2</title>
<path fill="none" stroke="midnightblue" d="M92,-347.34C92,-326.62 92,-288.02 92,-264.9"/>
<polygon fill="midnightblue" stroke="midnightblue" points="95.5,-264.67 92,-254.67 88.5,-264.67 95.5,-264.67"/>
</g>
<!-- Node4 -->
<g id="node4" class="node">
<title>Node4</title>
<g id="a_node4"><a xlink:href="../../d6/d21/speex__bits_8h.html" target="_top" xlink:title="Handles bit packing/unpacking.">
<polygon fill="none" stroke="black" points="0,-123.5 0,-142.5 110,-142.5 110,-123.5 0,-123.5"/>
<text text-anchor="middle" x="55" y="-130.5" font-family="Helvetica,sans-Serif" font-size="10.00">speex/speex_bits.h</text>
</a>
</g>
</g>
<!-- Node1&#45;&gt;Node4 -->
<g id="edge10" class="edge">
<title>Node1&#45;&gt;Node4</title>
<path fill="none" stroke="midnightblue" d="M82.9,-347.38C70.7,-327.62 49.46,-290.17 40,-255 31.21,-222.34 29.29,-212.15 36,-179 37.89,-169.65 41.79,-159.83 45.57,-151.75"/>
<polygon fill="midnightblue" stroke="midnightblue" points="48.79,-153.14 50.12,-142.63 42.53,-150.01 48.79,-153.14"/>
</g>
<!-- Node9 -->
<g id="node9" class="node">
<title>Node9</title>
<g id="a_node9"><a xlink:href="../../d1/df9/nb__celp_8h.html" target="_top" xlink:title="Narrowband CELP encoder/decoder.">
<polygon fill="none" stroke="black" points="148.5,-291.5 148.5,-310.5 211.5,-310.5 211.5,-291.5 148.5,-291.5"/>
<text text-anchor="middle" x="180" y="-298.5" font-family="Helvetica,sans-Serif" font-size="10.00">nb_celp.h</text>
</a>
</g>
</g>
<!-- Node1&#45;&gt;Node9 -->
<g id="edge11" class="edge">
<title>Node1&#45;&gt;Node9</title>
<path fill="none" stroke="midnightblue" d="M112.85,-347.4C126.7,-338.04 144.81,-325.79 158.74,-316.38"/>
<polygon fill="midnightblue" stroke="midnightblue" points="160.87,-319.16 167.2,-310.66 156.95,-313.36 160.87,-319.16"/>
</g>
<!-- Node3 -->
<g id="node3" class="node">
<title>Node3</title>
<g id="a_node3"><a xlink:href="../../d9/d8f/speex_8h.html" target="_top" xlink:title="Describes the different modes of the codec.">
<polygon fill="none" stroke="black" points="132.5,-179.5 132.5,-198.5 219.5,-198.5 219.5,-179.5 132.5,-179.5"/>
<text text-anchor="middle" x="176" y="-186.5" font-family="Helvetica,sans-Serif" font-size="10.00">speex/speex.h</text>
</a>
</g>
</g>
<!-- Node2&#45;&gt;Node3 -->
<g id="edge2" class="edge">
<title>Node2&#45;&gt;Node3</title>
<path fill="none" stroke="midnightblue" d="M105.5,-235.32C118.6,-226.9 138.71,-213.97 154.11,-204.07"/>
<polygon fill="midnightblue" stroke="midnightblue" points="156.02,-207.01 162.54,-198.65 152.23,-201.12 156.02,-207.01"/>
</g>
<!-- Node2&#45;&gt;Node4 -->
<g id="edge7" class="edge">
<title>Node2&#45;&gt;Node4</title>
<path fill="none" stroke="midnightblue" d="M89.1,-235.37C83.1,-217.54 69.23,-176.3 61.15,-152.27"/>
<polygon fill="midnightblue" stroke="midnightblue" points="64.4,-150.95 57.89,-142.59 57.76,-153.19 64.4,-150.95"/>
</g>
<!-- Node8 -->
<g id="node8" class="node">
<title>Node8</title>
<g id="a_node8"><a xlink:href="../../d2/d2d/arch_8h.html" target="_top" xlink:title="Various architecture definitions Speex.">
<polygon fill="none" stroke="black" points="259.5,-179.5 259.5,-198.5 306.5,-198.5 306.5,-179.5 259.5,-179.5"/>
<text text-anchor="middle" x="283" y="-186.5" font-family="Helvetica,sans-Serif" font-size="10.00">arch.h</text>
</a>
</g>
</g>
<!-- Node2&#45;&gt;Node8 -->
<g id="edge8" class="edge">
<title>Node2&#45;&gt;Node8</title>
<path fill="none" stroke="midnightblue" d="M121.84,-235.56C156.41,-225.79 213.23,-209.73 249.34,-199.52"/>
<polygon fill="midnightblue" stroke="midnightblue" points="250.72,-202.76 259.39,-196.68 248.81,-196.03 250.72,-202.76"/>
</g>
<!-- Node3&#45;&gt;Node4 -->
<g id="edge3" class="edge">
<title>Node3&#45;&gt;Node4</title>
<path fill="none" stroke="midnightblue" d="M156.83,-179.44C137.09,-170.64 106.11,-156.81 83.51,-146.72"/>
<polygon fill="midnightblue" stroke="midnightblue" points="84.64,-143.4 74.08,-142.52 81.79,-149.79 84.64,-143.4"/>
</g>
<!-- Node5 -->
<g id="node5" class="node">
<title>Node5</title>
<g id="a_node5"><a xlink:href="../../d8/df4/speex__types_8h.html" target="_top" xlink:title="Speex types.">
<polygon fill="none" stroke="black" points="138.5,-123.5 138.5,-142.5 257.5,-142.5 257.5,-123.5 138.5,-123.5"/>
<text text-anchor="middle" x="198" y="-130.5" font-family="Helvetica,sans-Serif" font-size="10.00">speex/speex_types.h</text>
</a>
</g>
</g>
<!-- Node3&#45;&gt;Node5 -->
<g id="edge4" class="edge">
<title>Node3&#45;&gt;Node5</title>
<path fill="none" stroke="midnightblue" d="M179.63,-179.08C182.61,-171.77 186.93,-161.18 190.62,-152.1"/>
<polygon fill="midnightblue" stroke="midnightblue" points="193.9,-153.33 194.43,-142.75 187.42,-150.69 193.9,-153.33"/>
</g>
<!-- Node6 -->
<g id="node6" class="node">
<title>Node6</title>
<g id="a_node6"><a xlink:href="../../d8/d6d/speex__config__types_8h.html" target="_top" xlink:title=" ">
<polygon fill="none" stroke="black" points="141.5,-56.5 141.5,-86.5 254.5,-86.5 254.5,-56.5 141.5,-56.5"/>
<text text-anchor="start" x="149.5" y="-74.5" font-family="Helvetica,sans-Serif" font-size="10.00">speex/speex_config</text>
<text text-anchor="middle" x="198" y="-63.5" font-family="Helvetica,sans-Serif" font-size="10.00">_types.h</text>
</a>
</g>
</g>
<!-- Node5&#45;&gt;Node6 -->
<g id="edge5" class="edge">
<title>Node5&#45;&gt;Node6</title>
<path fill="none" stroke="midnightblue" d="M198,-123.48C198,-116.47 198,-106.19 198,-96.7"/>
<polygon fill="midnightblue" stroke="midnightblue" points="201.5,-96.52 198,-86.52 194.5,-96.52 201.5,-96.52"/>
</g>
<!-- Node7 -->
<g id="node7" class="node">
<title>Node7</title>
<g id="a_node7"><a xlink:title=" ">
<polygon fill="none" stroke="#bfbfbf" points="171.5,-0.5 171.5,-19.5 224.5,-19.5 224.5,-0.5 171.5,-0.5"/>
<text text-anchor="middle" x="198" y="-7.5" font-family="Helvetica,sans-Serif" font-size="10.00">stdint.h</text>
</a>
</g>
</g>
<!-- Node6&#45;&gt;Node7 -->
<g id="edge6" class="edge">
<title>Node6&#45;&gt;Node7</title>
<path fill="none" stroke="midnightblue" d="M198,-56.4C198,-48.47 198,-38.46 198,-29.86"/>
<polygon fill="midnightblue" stroke="midnightblue" points="201.5,-29.66 198,-19.66 194.5,-29.66 201.5,-29.66"/>
</g>
<!-- Node8&#45;&gt;Node5 -->
<g id="edge9" class="edge">
<title>Node8&#45;&gt;Node5</title>
<path fill="none" stroke="midnightblue" d="M269.34,-179.32C256.08,-170.9 235.73,-157.97 220.15,-148.07"/>
<polygon fill="midnightblue" stroke="midnightblue" points="221.94,-145.06 211.62,-142.65 218.19,-150.97 221.94,-145.06"/>
</g>
<!-- Node9&#45;&gt;Node2 -->
<g id="edge12" class="edge">
<title>Node9&#45;&gt;Node2</title>
<path fill="none" stroke="midnightblue" d="M165.86,-291.32C152.13,-282.9 131.06,-269.97 114.94,-260.07"/>
<polygon fill="midnightblue" stroke="midnightblue" points="116.46,-256.9 106.1,-254.65 112.8,-262.87 116.46,-256.9"/>
</g>
<!-- Node9&#45;&gt;Node4 -->
<g id="edge13" class="edge">
<title>Node9&#45;&gt;Node4</title>
<path fill="none" stroke="midnightblue" d="M148.36,-298.6C118.26,-295.38 74.46,-285.38 53,-255 31.36,-224.37 40.87,-177.63 48.61,-152.13"/>
<polygon fill="midnightblue" stroke="midnightblue" points="51.94,-153.21 51.72,-142.62 45.29,-151.03 51.94,-153.21"/>
</g>
<!-- Node10 -->
<g id="node10" class="node">
<title>Node10</title>
<g id="a_node10"><a xlink:href="../../d7/d0c/speex__callbacks_8h.html" target="_top" xlink:title="Describes callback handling and in&#45;band signalling.">
<polygon fill="none" stroke="black" points="140,-235.5 140,-254.5 278,-254.5 278,-235.5 140,-235.5"/>
<text text-anchor="middle" x="209" y="-242.5" font-family="Helvetica,sans-Serif" font-size="10.00">speex/speex_callbacks.h</text>
</a>
</g>
</g>
<!-- Node9&#45;&gt;Node10 -->
<g id="edge14" class="edge">
<title>Node9&#45;&gt;Node10</title>
<path fill="none" stroke="midnightblue" d="M184.79,-291.08C188.76,-283.69 194.53,-272.95 199.43,-263.81"/>
<polygon fill="midnightblue" stroke="midnightblue" points="202.65,-265.22 204.3,-254.75 196.49,-261.91 202.65,-265.22"/>
</g>
<!-- Node11 -->
<g id="node11" class="node">
<title>Node11</title>
<g id="a_node11"><a xlink:href="../../d8/d1c/vbr_8h.html" target="_top" xlink:title="Variable Bit&#45;Rate (VBR) related routines.">
<polygon fill="none" stroke="black" points="296.5,-235.5 296.5,-254.5 337.5,-254.5 337.5,-235.5 296.5,-235.5"/>
<text text-anchor="middle" x="317" y="-242.5" font-family="Helvetica,sans-Serif" font-size="10.00">vbr.h</text>
</a>
</g>
</g>
<!-- Node9&#45;&gt;Node11 -->
<g id="edge16" class="edge">
<title>Node9&#45;&gt;Node11</title>
<path fill="none" stroke="midnightblue" d="M201.71,-291.44C224.62,-282.41 260.91,-268.11 286.65,-257.96"/>
<polygon fill="midnightblue" stroke="midnightblue" points="288.27,-261.09 296.29,-254.16 285.7,-254.57 288.27,-261.09"/>
</g>
<!-- Node12 -->
<g id="node12" class="node">
<title>Node12</title>
<g id="a_node12"><a xlink:href="../../dc/ddd/filters_8h.html" target="_top" xlink:title="Various analysis/synthesis filters.">
<polygon fill="none" stroke="black" points="355.5,-235.5 355.5,-254.5 408.5,-254.5 408.5,-235.5 355.5,-235.5"/>
<text text-anchor="middle" x="382" y="-242.5" font-family="Helvetica,sans-Serif" font-size="10.00">filters.h</text>
</a>
</g>
</g>
<!-- Node9&#45;&gt;Node12 -->
<g id="edge18" class="edge">
<title>Node9&#45;&gt;Node12</title>
<path fill="none" stroke="midnightblue" d="M211.56,-291.56C247.93,-281.84 307.57,-265.9 345.79,-255.68"/>
<polygon fill="midnightblue" stroke="midnightblue" points="346.73,-259.05 355.49,-253.09 344.92,-252.29 346.73,-259.05"/>
</g>
<!-- Node10&#45;&gt;Node3 -->
<g id="edge15" class="edge">
<title>Node10&#45;&gt;Node3</title>
<path fill="none" stroke="midnightblue" d="M203.55,-235.08C198.99,-227.61 192.33,-216.72 186.71,-207.52"/>
<polygon fill="midnightblue" stroke="midnightblue" points="189.55,-205.46 181.35,-198.75 183.58,-209.11 189.55,-205.46"/>
</g>
<!-- Node11&#45;&gt;Node8 -->
<g id="edge17" class="edge">
<title>Node11&#45;&gt;Node8</title>
<path fill="none" stroke="midnightblue" d="M311.39,-235.08C306.63,-227.53 299.68,-216.49 293.85,-207.23"/>
<polygon fill="midnightblue" stroke="midnightblue" points="296.8,-205.35 288.51,-198.75 290.88,-209.08 296.8,-205.35"/>
</g>
<!-- Node12&#45;&gt;Node8 -->
<g id="edge19" class="edge">
<title>Node12&#45;&gt;Node8</title>
<path fill="none" stroke="midnightblue" d="M366.09,-235.32C350.36,-226.74 326.06,-213.49 307.79,-203.52"/>
<polygon fill="midnightblue" stroke="midnightblue" points="309.32,-200.37 298.87,-198.65 305.97,-206.52 309.32,-200.37"/>
</g>
</g>
</svg>
