<?xml version="1.0" encoding="UTF-8" standalone="no"?>
<!DOCTYPE svg PUBLIC "-//W3C//DTD SVG 1.1//EN"
 "http://www.w3.org/Graphics/SVG/1.1/DTD/svg11.dtd">
<!-- Generated by graphviz version 2.43.0 (0)
 -->
<!-- Title: Mem_Resource_s Pages: 1 -->
<svg width="172pt" height="95pt"
 viewBox="0.00 0.00 171.50 95.00" xmlns="http://www.w3.org/2000/svg" xmlns:xlink="http://www.w3.org/1999/xlink">
<g id="graph0" class="graph" transform="scale(1 1) rotate(0) translate(4 91)">
<title>Mem_Resource_s</title>
<!-- Node1 -->
<g id="node1" class="node">
<title>Node1</title>
<g id="a_node1"><a xlink:title=" ">
<polygon fill="#bfbfbf" stroke="black" points="26.5,-0.5 26.5,-19.5 128.5,-19.5 128.5,-0.5 26.5,-0.5"/>
<text text-anchor="middle" x="77.5" y="-7.5" font-family="Helvetica,sans-Serif" font-size="10.00">Mem_Resource_s</text>
</a>
</g>
</g>
<!-- Node2 -->
<g id="node2" class="node">
<title>Node2</title>
<g id="a_node2"><a xlink:title=" ">
<polygon fill="none" stroke="#bfbfbf" points="0,-67.5 0,-86.5 65,-86.5 65,-67.5 0,-67.5"/>
<text text-anchor="middle" x="32.5" y="-74.5" font-family="Helvetica,sans-Serif" font-size="10.00">MEM_DES</text>
</a>
</g>
</g>
<!-- Node2&#45;&gt;Node1 -->
<g id="edge1" class="edge">
<title>Node2&#45;&gt;Node1</title>
<path fill="none" stroke="#9a32cd" stroke-dasharray="5,2" d="M29.49,-57.22C29.33,-50.76 30.2,-43.71 33.5,-38 38.16,-29.93 46.29,-23.96 54.31,-19.71"/>
<polygon fill="#9a32cd" stroke="#9a32cd" points="26.01,-57.61 30.48,-67.22 32.97,-56.92 26.01,-57.61"/>
<text text-anchor="middle" x="67.5" y="-41" font-family="Helvetica,sans-Serif" font-size="10.00"> MEM_Header</text>
</g>
<!-- Node3 -->
<g id="node3" class="node">
<title>Node3</title>
<g id="a_node3"><a xlink:title=" ">
<polygon fill="none" stroke="#bfbfbf" points="83.5,-67.5 83.5,-86.5 163.5,-86.5 163.5,-67.5 83.5,-67.5"/>
<text text-anchor="middle" x="123.5" y="-74.5" font-family="Helvetica,sans-Serif" font-size="10.00">MEM_RANGE</text>
</a>
</g>
</g>
<!-- Node3&#45;&gt;Node1 -->
<g id="edge2" class="edge">
<title>Node3&#45;&gt;Node1</title>
<path fill="none" stroke="#9a32cd" stroke-dasharray="5,2" d="M114.3,-58.41C110.6,-51.83 106.12,-44.39 101.5,-38 96.8,-31.49 90.8,-24.74 85.97,-19.62"/>
<polygon fill="#9a32cd" stroke="#9a32cd" points="111.24,-60.12 119.08,-67.24 117.39,-56.78 111.24,-60.12"/>
<text text-anchor="middle" x="135.5" y="-41" font-family="Helvetica,sans-Serif" font-size="10.00"> MEM_Data</text>
</g>
</g>
</svg>
