<?xml version="1.0" encoding="UTF-8" standalone="no"?>
<!DOCTYPE svg PUBLIC "-//W3C//DTD SVG 1.1//EN"
 "http://www.w3.org/Graphics/SVG/1.1/DTD/svg11.dtd">
<!-- Generated by graphviz version 2.43.0 (0)
 -->
<!-- Title: _AMVPDIMINFO Pages: 1 -->
<svg width="186pt" height="128pt"
 viewBox="0.00 0.00 186.00 128.00" xmlns="http://www.w3.org/2000/svg" xmlns:xlink="http://www.w3.org/1999/xlink">
<g id="graph0" class="graph" transform="scale(1 1) rotate(0) translate(4 124)">
<title>_AMVPDIMINFO</title>
<!-- Node1 -->
<g id="node1" class="node">
<title>Node1</title>
<g id="a_node1"><a xlink:title=" ">
<polygon fill="#bfbfbf" stroke="black" points="20,-0.5 20,-19.5 114,-19.5 114,-0.5 20,-0.5"/>
<text text-anchor="middle" x="67" y="-7.5" font-family="Helvetica,sans-Serif" font-size="10.00">_AMVPDIMINFO</text>
</a>
</g>
</g>
<!-- Node2 -->
<g id="node2" class="node">
<title>Node2</title>
<g id="a_node2"><a xlink:title=" ">
<polygon fill="none" stroke="#bfbfbf" points="0,-100.5 0,-119.5 42,-119.5 42,-100.5 0,-100.5"/>
<text text-anchor="middle" x="21" y="-107.5" font-family="Helvetica,sans-Serif" font-size="10.00">RECT</text>
</a>
</g>
</g>
<!-- Node2&#45;&gt;Node1 -->
<g id="edge1" class="edge">
<title>Node2&#45;&gt;Node1</title>
<path fill="none" stroke="#9a32cd" stroke-dasharray="5,2" d="M16.54,-90.26C13.99,-75.14 12.89,-53.84 22,-38 26.73,-29.79 35.04,-23.79 43.24,-19.57"/>
<polygon fill="#9a32cd" stroke="#9a32cd" points="13.18,-91.34 18.62,-100.44 20.04,-89.94 13.18,-91.34"/>
<text text-anchor="middle" x="57" y="-57.5" font-family="Helvetica,sans-Serif" font-size="10.00"> rcValidRegion</text>
</g>
<!-- Node3 -->
<g id="node3" class="node">
<title>Node3</title>
<g id="a_node3"><a xlink:title=" ">
<polygon fill="none" stroke="#bfbfbf" points="95,-100.5 95,-119.5 133,-119.5 133,-100.5 95,-100.5"/>
<text text-anchor="middle" x="114" y="-107.5" font-family="Helvetica,sans-Serif" font-size="10.00">long</text>
</a>
</g>
</g>
<!-- Node3&#45;&gt;Node1 -->
<g id="edge2" class="edge">
<title>Node3&#45;&gt;Node1</title>
<path fill="none" stroke="#9a32cd" stroke-dasharray="5,2" d="M110.57,-90.17C107.3,-75.29 101.46,-54.39 92,-38 88.04,-31.14 82.05,-24.59 76.93,-19.66"/>
<polygon fill="#9a32cd" stroke="#9a32cd" points="107.18,-91.07 112.58,-100.19 114.04,-89.7 107.18,-91.07"/>
<text text-anchor="middle" x="143" y="-74" font-family="Helvetica,sans-Serif" font-size="10.00"> dwVBIHeight</text>
<text text-anchor="middle" x="143" y="-63" font-family="Helvetica,sans-Serif" font-size="10.00">dwFieldWidth</text>
<text text-anchor="middle" x="143" y="-52" font-family="Helvetica,sans-Serif" font-size="10.00">dwVBIWidth</text>
<text text-anchor="middle" x="143" y="-41" font-family="Helvetica,sans-Serif" font-size="10.00">dwFieldHeight</text>
</g>
</g>
</svg>
