<?xml version="1.0" encoding="UTF-8" standalone="no"?>
<!DOCTYPE svg PUBLIC "-//W3C//DTD SVG 1.1//EN"
 "http://www.w3.org/Graphics/SVG/1.1/DTD/svg11.dtd">
<!-- Generated by graphviz version 2.43.0 (0)
 -->
<!-- Title: _NDIS_TAPI_OPEN Pages: 1 -->
<svg width="310pt" height="128pt"
 viewBox="0.00 0.00 309.50 128.00" xmlns="http://www.w3.org/2000/svg" xmlns:xlink="http://www.w3.org/1999/xlink">
<g id="graph0" class="graph" transform="scale(1 1) rotate(0) translate(4 124)">
<title>_NDIS_TAPI_OPEN</title>
<!-- Node1 -->
<g id="node1" class="node">
<title>Node1</title>
<g id="a_node1"><a xlink:title=" ">
<polygon fill="#bfbfbf" stroke="black" points="70.5,-0.5 70.5,-19.5 174.5,-19.5 174.5,-0.5 70.5,-0.5"/>
<text text-anchor="middle" x="122.5" y="-7.5" font-family="Helvetica,sans-Serif" font-size="10.00">_NDIS_TAPI_OPEN</text>
</a>
</g>
</g>
<!-- Node2 -->
<g id="node2" class="node">
<title>Node2</title>
<g id="a_node2"><a xlink:title=" ">
<polygon fill="none" stroke="#bfbfbf" points="0,-89.5 0,-108.5 85,-108.5 85,-89.5 0,-89.5"/>
<text text-anchor="middle" x="42.5" y="-96.5" font-family="Helvetica,sans-Serif" font-size="10.00">unsigned long</text>
</a>
</g>
</g>
<!-- Node2&#45;&gt;Node1 -->
<g id="edge1" class="edge">
<title>Node2&#45;&gt;Node1</title>
<path fill="none" stroke="#9a32cd" stroke-dasharray="5,2" d="M57.45,-81.74C74.37,-63.35 101.29,-34.06 114.57,-19.62"/>
<polygon fill="#9a32cd" stroke="#9a32cd" points="54.66,-79.61 50.46,-89.34 59.81,-84.35 54.66,-79.61"/>
<text text-anchor="middle" x="114.5" y="-52" font-family="Helvetica,sans-Serif" font-size="10.00"> htLine</text>
<text text-anchor="middle" x="114.5" y="-41" font-family="Helvetica,sans-Serif" font-size="10.00">hdLine</text>
</g>
<!-- Node3 -->
<g id="node3" class="node">
<title>Node3</title>
<g id="a_node3"><a xlink:title=" ">
<polygon fill="none" stroke="#bfbfbf" points="103.5,-78.5 103.5,-119.5 301.5,-119.5 301.5,-78.5 103.5,-78.5"/>
<text text-anchor="start" x="111.5" y="-107.5" font-family="Helvetica,sans-Serif" font-size="10.00">PSecurityUserData *typedef</text>
<text text-anchor="start" x="111.5" y="-96.5" font-family="Helvetica,sans-Serif" font-size="10.00"> PSECPKG_EXTENDED_INFORMATION</text>
<text text-anchor="middle" x="202.5" y="-85.5" font-family="Helvetica,sans-Serif" font-size="10.00"> *typedef</text>
</a>
</g>
</g>
<!-- Node3&#45;&gt;Node1 -->
<g id="edge2" class="edge">
<title>Node3&#45;&gt;Node1</title>
<path fill="none" stroke="#9a32cd" stroke-dasharray="5,2" d="M177.23,-70.52C161.08,-52.96 141.2,-31.34 130.4,-19.59"/>
<polygon fill="#9a32cd" stroke="#9a32cd" points="175,-73.27 184.35,-78.26 180.15,-68.53 175,-73.27"/>
<text text-anchor="middle" x="198" y="-52" font-family="Helvetica,sans-Serif" font-size="10.00"> ulRequestID</text>
<text text-anchor="middle" x="198" y="-41" font-family="Helvetica,sans-Serif" font-size="10.00">ulDeviceID</text>
</g>
</g>
</svg>
