<?xml version="1.0" encoding="UTF-8" standalone="no"?>
<!DOCTYPE svg PUBLIC "-//W3C//DTD SVG 1.1//EN"
 "http://www.w3.org/Graphics/SVG/1.1/DTD/svg11.dtd">
<!-- Generated by graphviz version 2.43.0 (0)
 -->
<!-- Title: Source/Shared/qcommon.h Pages: 1 -->
<svg width="155pt" height="140pt"
 viewBox="0.00 0.00 155.00 140.00" xmlns="http://www.w3.org/2000/svg" xmlns:xlink="http://www.w3.org/1999/xlink">
<g id="graph0" class="graph" transform="scale(1 1) rotate(0) translate(4 136)">
<title>Source/Shared/qcommon.h</title>
<!-- Node1 -->
<g id="node1" class="node">
<title>Node1</title>
<g id="a_node1"><a xlink:title=" ">
<polygon fill="#bfbfbf" stroke="black" points="0,-112.5 0,-131.5 147,-131.5 147,-112.5 0,-112.5"/>
<text text-anchor="middle" x="73.5" y="-119.5" font-family="Helvetica,sans-Serif" font-size="10.00">Source/Shared/qcommon.h</text>
</a>
</g>
</g>
<!-- Node2 -->
<g id="node2" class="node">
<title>Node2</title>
<g id="a_node2"><a xlink:href="../../d6/dff/Shared_2cm__public_8h.html" target="_top" xlink:title=" ">
<polygon fill="none" stroke="black" points="8.5,-56.5 8.5,-75.5 138.5,-75.5 138.5,-56.5 8.5,-56.5"/>
<text text-anchor="middle" x="73.5" y="-63.5" font-family="Helvetica,sans-Serif" font-size="10.00">../../Shared/cm_public.h</text>
</a>
</g>
</g>
<!-- Node1&#45;&gt;Node2 -->
<g id="edge1" class="edge">
<title>Node1&#45;&gt;Node2</title>
<path fill="none" stroke="midnightblue" d="M73.5,-112.08C73.5,-105.01 73.5,-94.86 73.5,-85.99"/>
<polygon fill="midnightblue" stroke="midnightblue" points="77,-85.75 73.5,-75.75 70,-85.75 77,-85.75"/>
</g>
<!-- Node3 -->
<g id="node3" class="node">
<title>Node3</title>
<g id="a_node3"><a xlink:href="../../dc/d28/Shared_2qfiles_8h.html" target="_top" xlink:title=" ">
<polygon fill="none" stroke="black" points="47.5,-0.5 47.5,-19.5 99.5,-19.5 99.5,-0.5 47.5,-0.5"/>
<text text-anchor="middle" x="73.5" y="-7.5" font-family="Helvetica,sans-Serif" font-size="10.00">qfiles.h</text>
</a>
</g>
</g>
<!-- Node2&#45;&gt;Node3 -->
<g id="edge2" class="edge">
<title>Node2&#45;&gt;Node3</title>
<path fill="none" stroke="midnightblue" d="M73.5,-56.08C73.5,-49.01 73.5,-38.86 73.5,-29.99"/>
<polygon fill="midnightblue" stroke="midnightblue" points="77,-29.75 73.5,-19.75 70,-29.75 77,-29.75"/>
</g>
</g>
</svg>
