<?xml version="1.0" encoding="UTF-8" standalone="no"?>
<!DOCTYPE svg PUBLIC "-//W3C//DTD SVG 1.1//EN"
 "http://www.w3.org/Graphics/SVG/1.1/DTD/svg11.dtd">
<!-- Generated by graphviz version 2.43.0 (0)
 -->
<!-- Title: Tools/MinGW/include/c++/4.6.1/bits/stl_iterator.h Pages: 1 -->
<svg width="344pt" height="274pt"
 viewBox="0.00 0.00 343.50 274.00" xmlns="http://www.w3.org/2000/svg" xmlns:xlink="http://www.w3.org/1999/xlink">
<g id="graph0" class="graph" transform="scale(1 1) rotate(0) translate(4 270)">
<title>Tools/MinGW/include/c++/4.6.1/bits/stl_iterator.h</title>
<!-- Node1 -->
<g id="node1" class="node">
<title>Node1</title>
<g id="a_node1"><a xlink:title=" ">
<polygon fill="#bfbfbf" stroke="black" points="79,-224.5 79,-265.5 197,-265.5 197,-224.5 79,-224.5"/>
<text text-anchor="start" x="87" y="-253.5" font-family="Helvetica,sans-Serif" font-size="10.00">Tools/MinGW/include</text>
<text text-anchor="start" x="87" y="-242.5" font-family="Helvetica,sans-Serif" font-size="10.00">/c++/4.6.1/bits/stl</text>
<text text-anchor="middle" x="138" y="-231.5" font-family="Helvetica,sans-Serif" font-size="10.00">_iterator.h</text>
</a>
</g>
</g>
<!-- Node2 -->
<g id="node2" class="node">
<title>Node2</title>
<g id="a_node2"><a xlink:href="../../da/db4/cpp__type__traits_8h.html" target="_top" xlink:title=" ">
<polygon fill="none" stroke="black" points="0,-112.5 0,-131.5 122,-131.5 122,-112.5 0,-112.5"/>
<text text-anchor="middle" x="61" y="-119.5" font-family="Helvetica,sans-Serif" font-size="10.00">bits/cpp_type_traits.h</text>
</a>
</g>
</g>
<!-- Node1&#45;&gt;Node2 -->
<g id="edge1" class="edge">
<title>Node1&#45;&gt;Node2</title>
<path fill="none" stroke="midnightblue" d="M112.17,-224.29C100.88,-214.48 88.33,-201.78 80,-188 71.35,-173.69 66.45,-155.23 63.8,-141.64"/>
<polygon fill="midnightblue" stroke="midnightblue" points="67.21,-140.83 62.07,-131.56 60.31,-142.01 67.21,-140.83"/>
</g>
<!-- Node6 -->
<g id="node6" class="node">
<title>Node6</title>
<g id="a_node6"><a xlink:href="../../df/d63/type__traits_8h.html" target="_top" xlink:title=" ">
<polygon fill="none" stroke="black" points="89.5,-168.5 89.5,-187.5 186.5,-187.5 186.5,-168.5 89.5,-168.5"/>
<text text-anchor="middle" x="138" y="-175.5" font-family="Helvetica,sans-Serif" font-size="10.00">ext/type_traits.h</text>
</a>
</g>
</g>
<!-- Node1&#45;&gt;Node6 -->
<g id="edge5" class="edge">
<title>Node1&#45;&gt;Node6</title>
<path fill="none" stroke="midnightblue" d="M138,-224.5C138,-216.07 138,-206.24 138,-197.87"/>
<polygon fill="midnightblue" stroke="midnightblue" points="141.5,-197.65 138,-187.65 134.5,-197.65 141.5,-197.65"/>
</g>
<!-- Node7 -->
<g id="node7" class="node">
<title>Node7</title>
<g id="a_node7"><a xlink:href="../../d9/d83/move_8h.html" target="_top" xlink:title=" ">
<polygon fill="none" stroke="black" points="205,-168.5 205,-187.5 279,-187.5 279,-168.5 205,-168.5"/>
<text text-anchor="middle" x="242" y="-175.5" font-family="Helvetica,sans-Serif" font-size="10.00">bits/move.h</text>
</a>
</g>
</g>
<!-- Node1&#45;&gt;Node7 -->
<g id="edge8" class="edge">
<title>Node1&#45;&gt;Node7</title>
<path fill="none" stroke="midnightblue" d="M169.2,-224.5C185.3,-214.44 204.58,-202.38 219.26,-193.21"/>
<polygon fill="midnightblue" stroke="midnightblue" points="221.53,-195.92 228.16,-187.65 217.82,-189.98 221.53,-195.92"/>
</g>
<!-- Node3 -->
<g id="node3" class="node">
<title>Node3</title>
<g id="a_node3"><a xlink:href="../../d1/db9/c_09_09config_8h.html" target="_top" xlink:title=" ">
<polygon fill="none" stroke="black" points="120,-56.5 120,-75.5 218,-75.5 218,-56.5 120,-56.5"/>
<text text-anchor="middle" x="169" y="-63.5" font-family="Helvetica,sans-Serif" font-size="10.00">bits/c++config.h</text>
</a>
</g>
</g>
<!-- Node2&#45;&gt;Node3 -->
<g id="edge2" class="edge">
<title>Node2&#45;&gt;Node3</title>
<path fill="none" stroke="midnightblue" d="M78.35,-112.32C95.67,-103.66 122.52,-90.24 142.5,-80.25"/>
<polygon fill="midnightblue" stroke="midnightblue" points="144.31,-83.26 151.69,-75.65 141.18,-77 144.31,-83.26"/>
</g>
<!-- Node4 -->
<g id="node4" class="node">
<title>Node4</title>
<g id="a_node4"><a xlink:href="../../d5/d0b/os__defines_8h.html" target="_top" xlink:title=" ">
<polygon fill="none" stroke="black" points="61,-0.5 61,-19.5 159,-19.5 159,-0.5 61,-0.5"/>
<text text-anchor="middle" x="110" y="-7.5" font-family="Helvetica,sans-Serif" font-size="10.00">bits/os_defines.h</text>
</a>
</g>
</g>
<!-- Node3&#45;&gt;Node4 -->
<g id="edge3" class="edge">
<title>Node3&#45;&gt;Node4</title>
<path fill="none" stroke="midnightblue" d="M159.52,-56.32C150.8,-48.34 137.66,-36.31 127.1,-26.65"/>
<polygon fill="midnightblue" stroke="midnightblue" points="129.39,-24 119.65,-19.83 124.67,-29.17 129.39,-24"/>
</g>
<!-- Node5 -->
<g id="node5" class="node">
<title>Node5</title>
<g id="a_node5"><a xlink:href="../../d0/d75/cpu__defines_8h.html" target="_top" xlink:title=" ">
<polygon fill="none" stroke="black" points="177,-0.5 177,-19.5 281,-19.5 281,-0.5 177,-0.5"/>
<text text-anchor="middle" x="229" y="-7.5" font-family="Helvetica,sans-Serif" font-size="10.00">bits/cpu_defines.h</text>
</a>
</g>
</g>
<!-- Node3&#45;&gt;Node5 -->
<g id="edge4" class="edge">
<title>Node3&#45;&gt;Node5</title>
<path fill="none" stroke="midnightblue" d="M178.64,-56.32C187.51,-48.34 200.87,-36.31 211.61,-26.65"/>
<polygon fill="midnightblue" stroke="midnightblue" points="214.09,-29.13 219.18,-19.83 209.41,-23.92 214.09,-29.13"/>
</g>
<!-- Node6&#45;&gt;Node2 -->
<g id="edge7" class="edge">
<title>Node6&#45;&gt;Node2</title>
<path fill="none" stroke="midnightblue" d="M125.63,-168.32C113.84,-160.06 95.87,-147.45 81.86,-137.63"/>
<polygon fill="midnightblue" stroke="midnightblue" points="83.54,-134.53 73.34,-131.65 79.52,-140.26 83.54,-134.53"/>
</g>
<!-- Node6&#45;&gt;Node3 -->
<g id="edge6" class="edge">
<title>Node6&#45;&gt;Node3</title>
<path fill="none" stroke="midnightblue" d="M140.43,-168.37C145.46,-150.54 157.08,-109.3 163.85,-85.27"/>
<polygon fill="midnightblue" stroke="midnightblue" points="167.23,-86.17 166.58,-75.59 160.5,-84.27 167.23,-86.17"/>
</g>
<!-- Node7&#45;&gt;Node3 -->
<g id="edge9" class="edge">
<title>Node7&#45;&gt;Node3</title>
<path fill="none" stroke="midnightblue" d="M234.67,-168.29C227.33,-159.41 215.88,-145.11 207,-132 196.49,-116.47 185.83,-97.94 178.48,-84.64"/>
<polygon fill="midnightblue" stroke="midnightblue" points="181.43,-82.74 173.57,-75.63 175.29,-86.09 181.43,-82.74"/>
</g>
<!-- Node8 -->
<g id="node8" class="node">
<title>Node8</title>
<g id="a_node8"><a xlink:href="../../df/d30/concept__check_8h.html" target="_top" xlink:title=" ">
<polygon fill="none" stroke="black" points="216.5,-112.5 216.5,-131.5 335.5,-131.5 335.5,-112.5 216.5,-112.5"/>
<text text-anchor="middle" x="276" y="-119.5" font-family="Helvetica,sans-Serif" font-size="10.00">bits/concept_check.h</text>
</a>
</g>
</g>
<!-- Node7&#45;&gt;Node8 -->
<g id="edge10" class="edge">
<title>Node7&#45;&gt;Node8</title>
<path fill="none" stroke="midnightblue" d="M247.61,-168.08C252.37,-160.53 259.32,-149.49 265.15,-140.23"/>
<polygon fill="midnightblue" stroke="midnightblue" points="268.12,-142.08 270.49,-131.75 262.2,-138.35 268.12,-142.08"/>
</g>
<!-- Node8&#45;&gt;Node3 -->
<g id="edge11" class="edge">
<title>Node8&#45;&gt;Node3</title>
<path fill="none" stroke="midnightblue" d="M258.81,-112.32C241.65,-103.66 215.05,-90.24 195.25,-80.25"/>
<polygon fill="midnightblue" stroke="midnightblue" points="196.65,-77.04 186.15,-75.65 193.5,-83.28 196.65,-77.04"/>
</g>
</g>
</svg>
