<?xml version="1.0" encoding="UTF-8" standalone="no"?>
<!DOCTYPE svg PUBLIC "-//W3C//DTD SVG 1.1//EN"
 "http://www.w3.org/Graphics/SVG/1.1/DTD/svg11.dtd">
<!-- Generated by graphviz version 2.43.0 (0)
 -->
<!-- Title: _MSG_INFO_1 Pages: 1 -->
<svg width="242pt" height="106pt"
 viewBox="0.00 0.00 241.50 106.00" xmlns="http://www.w3.org/2000/svg" xmlns:xlink="http://www.w3.org/1999/xlink">
<g id="graph0" class="graph" transform="scale(1 1) rotate(0) translate(4 102)">
<title>_MSG_INFO_1</title>
<!-- Node1 -->
<g id="node1" class="node">
<title>Node1</title>
<g id="a_node1"><a xlink:title=" ">
<polygon fill="#bfbfbf" stroke="black" points="51,-0.5 51,-19.5 136,-19.5 136,-0.5 51,-0.5"/>
<text text-anchor="middle" x="93.5" y="-7.5" font-family="Helvetica,sans-Serif" font-size="10.00">_MSG_INFO_1</text>
</a>
</g>
</g>
<!-- Node2 -->
<g id="node2" class="node">
<title>Node2</title>
<g id="a_node2"><a xlink:title=" ">
<polygon fill="none" stroke="#bfbfbf" points="0,-78.5 0,-97.5 89,-97.5 89,-78.5 0,-78.5"/>
<text text-anchor="middle" x="44.5" y="-85.5" font-family="Helvetica,sans-Serif" font-size="10.00">unsigned short</text>
</a>
</g>
</g>
<!-- Node2&#45;&gt;Node1 -->
<g id="edge1" class="edge">
<title>Node2&#45;&gt;Node1</title>
<path fill="none" stroke="#9a32cd" stroke-dasharray="5,2" d="M40.66,-68.14C39.69,-58.49 40.16,-46.92 45.5,-38 50.46,-29.71 58.98,-23.76 67.47,-19.6"/>
<polygon fill="#9a32cd" stroke="#9a32cd" points="37.25,-68.99 42.25,-78.33 44.16,-67.91 37.25,-68.99"/>
<text text-anchor="middle" x="83.5" y="-52" font-family="Helvetica,sans-Serif" font-size="10.00"> msgi1_forward</text>
<text text-anchor="middle" x="83.5" y="-41" font-family="Helvetica,sans-Serif" font-size="10.00">msgi1_name</text>
</g>
<!-- Node3 -->
<g id="node3" class="node">
<title>Node3</title>
<g id="a_node3"><a xlink:title=" ">
<polygon fill="none" stroke="#bfbfbf" points="124.5,-78.5 124.5,-97.5 162.5,-97.5 162.5,-78.5 124.5,-78.5"/>
<text text-anchor="middle" x="143.5" y="-85.5" font-family="Helvetica,sans-Serif" font-size="10.00">long</text>
</a>
</g>
</g>
<!-- Node3&#45;&gt;Node1 -->
<g id="edge2" class="edge">
<title>Node3&#45;&gt;Node1</title>
<path fill="none" stroke="#9a32cd" stroke-dasharray="5,2" d="M137.23,-68.75C133.47,-59.13 128.12,-47.41 121.5,-38 116.68,-31.15 109.96,-24.6 104.31,-19.67"/>
<polygon fill="#9a32cd" stroke="#9a32cd" points="133.95,-69.97 140.68,-78.15 140.52,-67.56 133.95,-69.97"/>
<text text-anchor="middle" x="183.5" y="-46.5" font-family="Helvetica,sans-Serif" font-size="10.00"> msgi1_forward_flag</text>
</g>
</g>
</svg>
