<?xml version="1.0" encoding="UTF-8" standalone="no"?>
<!DOCTYPE svg PUBLIC "-//W3C//DTD SVG 1.1//EN"
 "http://www.w3.org/Graphics/SVG/1.1/DTD/svg11.dtd">
<!-- Generated by graphviz version 2.43.0 (0)
 -->
<!-- Title: _TDI_ADDRESS_NS Pages: 1 -->
<svg width="286pt" height="128pt"
 viewBox="0.00 0.00 285.50 128.00" xmlns="http://www.w3.org/2000/svg" xmlns:xlink="http://www.w3.org/1999/xlink">
<g id="graph0" class="graph" transform="scale(1 1) rotate(0) translate(4 124)">
<title>_TDI_ADDRESS_NS</title>
<!-- Node1 -->
<g id="node1" class="node">
<title>Node1</title>
<g id="a_node1"><a xlink:title=" ">
<polygon fill="#bfbfbf" stroke="black" points="50,-0.5 50,-19.5 159,-19.5 159,-0.5 50,-0.5"/>
<text text-anchor="middle" x="104.5" y="-7.5" font-family="Helvetica,sans-Serif" font-size="10.00">_TDI_ADDRESS_NS</text>
</a>
</g>
</g>
<!-- Node2 -->
<g id="node2" class="node">
<title>Node2</title>
<g id="a_node2"><a xlink:title=" ">
<polygon fill="none" stroke="#bfbfbf" points="0,-89.5 0,-108.5 61,-108.5 61,-89.5 0,-89.5"/>
<text text-anchor="middle" x="30.5" y="-96.5" font-family="Helvetica,sans-Serif" font-size="10.00">unsigned</text>
</a>
</g>
</g>
<!-- Node2&#45;&gt;Node1 -->
<g id="edge1" class="edge">
<title>Node2&#45;&gt;Node1</title>
<path fill="none" stroke="#9a32cd" stroke-dasharray="5,2" d="M44.75,-81.24C60.42,-62.82 84.99,-33.93 97.16,-19.62"/>
<polygon fill="#9a32cd" stroke="#9a32cd" points="41.68,-79.46 37.87,-89.34 47.01,-83.99 41.68,-79.46"/>
<text text-anchor="middle" x="114" y="-52" font-family="Helvetica,sans-Serif" font-size="10.00"> Socket</text>
<text text-anchor="middle" x="114" y="-41" font-family="Helvetica,sans-Serif" font-size="10.00">NodeAddress</text>
</g>
<!-- Node3 -->
<g id="node3" class="node">
<title>Node3</title>
<g id="a_node3"><a xlink:title=" ">
<polygon fill="none" stroke="#bfbfbf" points="79.5,-78.5 79.5,-119.5 277.5,-119.5 277.5,-78.5 79.5,-78.5"/>
<text text-anchor="start" x="87.5" y="-107.5" font-family="Helvetica,sans-Serif" font-size="10.00">PSecurityUserData *typedef</text>
<text text-anchor="start" x="87.5" y="-96.5" font-family="Helvetica,sans-Serif" font-size="10.00"> PSECPKG_EXTENDED_INFORMATION</text>
<text text-anchor="middle" x="178.5" y="-85.5" font-family="Helvetica,sans-Serif" font-size="10.00"> *typedef</text>
</a>
</g>
</g>
<!-- Node3&#45;&gt;Node1 -->
<g id="edge2" class="edge">
<title>Node3&#45;&gt;Node1</title>
<path fill="none" stroke="#9a32cd" stroke-dasharray="5,2" d="M169.13,-69.05C164.69,-58.43 158.56,-46.85 150.5,-38 143.52,-30.33 133.84,-24.2 125.16,-19.74"/>
<polygon fill="#9a32cd" stroke="#9a32cd" points="165.89,-70.36 172.75,-78.43 172.42,-67.84 165.89,-70.36"/>
<text text-anchor="middle" x="205.5" y="-46.5" font-family="Helvetica,sans-Serif" font-size="10.00"> NetworkAddress</text>
</g>
</g>
</svg>
