<?xml version="1.0" encoding="UTF-8" standalone="no"?>
<!DOCTYPE svg PUBLIC "-//W3C//DTD SVG 1.1//EN"
 "http://www.w3.org/Graphics/SVG/1.1/DTD/svg11.dtd">
<!-- Generated by graphviz version 2.43.0 (0)
 -->
<!-- Title: dsurface_t Pages: 1 -->
<svg width="200pt" height="205pt"
 viewBox="0.00 0.00 200.00 205.00" xmlns="http://www.w3.org/2000/svg" xmlns:xlink="http://www.w3.org/1999/xlink">
<g id="graph0" class="graph" transform="scale(1 1) rotate(0) translate(4 201)">
<title>dsurface_t</title>
<!-- Node1 -->
<g id="node1" class="node">
<title>Node1</title>
<g id="a_node1"><a xlink:title=" ">
<polygon fill="#bfbfbf" stroke="black" points="34,-0.5 34,-19.5 102,-19.5 102,-0.5 34,-0.5"/>
<text text-anchor="middle" x="68" y="-7.5" font-family="Helvetica,sans-Serif" font-size="10.00">dsurface_t</text>
</a>
</g>
</g>
<!-- Node2 -->
<g id="node2" class="node">
<title>Node2</title>
<g id="a_node2"><a xlink:href="../../d4/dc3/classfloat.html" target="_top" xlink:title=" ">
<polygon fill="none" stroke="black" points="0,-177.5 0,-196.5 38,-196.5 38,-177.5 0,-177.5"/>
<text text-anchor="middle" x="19" y="-184.5" font-family="Helvetica,sans-Serif" font-size="10.00">float</text>
</a>
</g>
</g>
<!-- Node2&#45;&gt;Node1 -->
<g id="edge1" class="edge">
<title>Node2&#45;&gt;Node1</title>
<path fill="none" stroke="#9a32cd" stroke-dasharray="5,2" d="M13.55,-167.34C6.03,-137.65 -4.06,-78.83 20,-38 24.9,-29.68 33.41,-23.72 41.91,-19.56"/>
<polygon fill="#9a32cd" stroke="#9a32cd" points="10.23,-168.47 16.23,-177.2 16.98,-166.63 10.23,-168.47"/>
<text text-anchor="middle" x="58" y="-101.5" font-family="Helvetica,sans-Serif" font-size="10.00"> lightmapOrigin</text>
<text text-anchor="middle" x="58" y="-90.5" font-family="Helvetica,sans-Serif" font-size="10.00">lightmapVecs</text>
</g>
<!-- Node3 -->
<g id="node3" class="node">
<title>Node3</title>
<g id="a_node3"><a xlink:title=" ">
<polygon fill="none" stroke="#bfbfbf" points="103.5,-177.5 103.5,-196.5 132.5,-196.5 132.5,-177.5 103.5,-177.5"/>
<text text-anchor="middle" x="118" y="-184.5" font-family="Helvetica,sans-Serif" font-size="10.00">int</text>
</a>
</g>
</g>
<!-- Node3&#45;&gt;Node1 -->
<g id="edge2" class="edge">
<title>Node3&#45;&gt;Node1</title>
<path fill="none" stroke="#9a32cd" stroke-dasharray="5,2" d="M118.96,-167.37C119.67,-138.12 117.84,-80.41 96,-38 92.29,-30.8 85.91,-24.41 80.17,-19.66"/>
<polygon fill="#9a32cd" stroke="#9a32cd" points="115.46,-167.28 118.58,-177.41 122.45,-167.55 115.46,-167.28"/>
<text text-anchor="middle" x="155.5" y="-151" font-family="Helvetica,sans-Serif" font-size="10.00"> lightmapNum</text>
<text text-anchor="middle" x="155.5" y="-140" font-family="Helvetica,sans-Serif" font-size="10.00">surfaceType</text>
<text text-anchor="middle" x="155.5" y="-129" font-family="Helvetica,sans-Serif" font-size="10.00">patchWidth</text>
<text text-anchor="middle" x="155.5" y="-118" font-family="Helvetica,sans-Serif" font-size="10.00">numIndexes</text>
<text text-anchor="middle" x="155.5" y="-107" font-family="Helvetica,sans-Serif" font-size="10.00">fogNum</text>
<text text-anchor="middle" x="155.5" y="-96" font-family="Helvetica,sans-Serif" font-size="10.00">shaderNum</text>
<text text-anchor="middle" x="155.5" y="-85" font-family="Helvetica,sans-Serif" font-size="10.00">lightmapWidth</text>
<text text-anchor="middle" x="155.5" y="-74" font-family="Helvetica,sans-Serif" font-size="10.00">firstVert</text>
<text text-anchor="middle" x="155.5" y="-63" font-family="Helvetica,sans-Serif" font-size="10.00">lightmapX</text>
<text text-anchor="middle" x="155.5" y="-52" font-family="Helvetica,sans-Serif" font-size="10.00">numVerts</text>
<text text-anchor="middle" x="155.5" y="-41" font-family="Helvetica,sans-Serif" font-size="10.00">...</text>
</g>
</g>
</svg>
