<?xml version="1.0" encoding="UTF-8" standalone="no"?>
<!DOCTYPE svg PUBLIC "-//W3C//DTD SVG 1.1//EN"
 "http://www.w3.org/Graphics/SVG/1.1/DTD/svg11.dtd">
<!-- Generated by graphviz version 2.43.0 (0)
 -->
<!-- Title: _URB_HEADER Pages: 1 -->
<svg width="348pt" height="128pt"
 viewBox="0.00 0.00 348.00 128.00" xmlns="http://www.w3.org/2000/svg" xmlns:xlink="http://www.w3.org/1999/xlink">
<g id="graph0" class="graph" transform="scale(1 1) rotate(0) translate(4 124)">
<title>_URB_HEADER</title>
<!-- Node1 -->
<g id="node1" class="node">
<title>Node1</title>
<g id="a_node1"><a xlink:title=" ">
<polygon fill="#bfbfbf" stroke="black" points="48.5,-0.5 48.5,-19.5 137.5,-19.5 137.5,-0.5 48.5,-0.5"/>
<text text-anchor="middle" x="93" y="-7.5" font-family="Helvetica,sans-Serif" font-size="10.00">_URB_HEADER</text>
</a>
</g>
</g>
<!-- Node2 -->
<g id="node2" class="node">
<title>Node2</title>
<g id="a_node2"><a xlink:title=" ">
<polygon fill="none" stroke="#bfbfbf" points="0,-89.5 0,-108.5 44,-108.5 44,-89.5 0,-89.5"/>
<text text-anchor="middle" x="22" y="-96.5" font-family="Helvetica,sans-Serif" font-size="10.00">LONG</text>
</a>
</g>
</g>
<!-- Node2&#45;&gt;Node1 -->
<g id="edge1" class="edge">
<title>Node2&#45;&gt;Node1</title>
<path fill="none" stroke="#9a32cd" stroke-dasharray="5,2" d="M29.29,-80.03C35.02,-67.35 43.88,-50.48 55,-38 61.46,-30.75 70.21,-24.36 77.69,-19.63"/>
<polygon fill="#9a32cd" stroke="#9a32cd" points="25.95,-78.93 25.23,-89.5 32.39,-81.68 25.95,-78.93"/>
<text text-anchor="middle" x="72" y="-46.5" font-family="Helvetica,sans-Serif" font-size="10.00"> Status</text>
</g>
<!-- Node3 -->
<g id="node3" class="node">
<title>Node3</title>
<g id="a_node3"><a xlink:title=" ">
<polygon fill="none" stroke="#bfbfbf" points="62.5,-89.5 62.5,-108.5 123.5,-108.5 123.5,-89.5 62.5,-89.5"/>
<text text-anchor="middle" x="93" y="-96.5" font-family="Helvetica,sans-Serif" font-size="10.00">unsigned</text>
</a>
</g>
</g>
<!-- Node3&#45;&gt;Node1 -->
<g id="edge2" class="edge">
<title>Node3&#45;&gt;Node1</title>
<path fill="none" stroke="#9a32cd" stroke-dasharray="5,2" d="M93,-79.19C93,-60.74 93,-33.41 93,-19.62"/>
<polygon fill="#9a32cd" stroke="#9a32cd" points="89.5,-79.34 93,-89.34 96.5,-79.34 89.5,-79.34"/>
<text text-anchor="middle" x="114" y="-52" font-family="Helvetica,sans-Serif" font-size="10.00"> Length</text>
<text text-anchor="middle" x="114" y="-41" font-family="Helvetica,sans-Serif" font-size="10.00">Function</text>
</g>
<!-- Node4 -->
<g id="node4" class="node">
<title>Node4</title>
<g id="a_node4"><a xlink:title=" ">
<polygon fill="none" stroke="#bfbfbf" points="142,-78.5 142,-119.5 340,-119.5 340,-78.5 142,-78.5"/>
<text text-anchor="start" x="150" y="-107.5" font-family="Helvetica,sans-Serif" font-size="10.00">PSecurityUserData *typedef</text>
<text text-anchor="start" x="150" y="-96.5" font-family="Helvetica,sans-Serif" font-size="10.00"> PSECPKG_EXTENDED_INFORMATION</text>
<text text-anchor="middle" x="241" y="-85.5" font-family="Helvetica,sans-Serif" font-size="10.00"> *typedef</text>
</a>
</g>
</g>
<!-- Node4&#45;&gt;Node1 -->
<g id="edge3" class="edge">
<title>Node4&#45;&gt;Node1</title>
<path fill="none" stroke="#9a32cd" stroke-dasharray="5,2" d="M198.75,-73.14C180.39,-62.34 158.64,-49.54 139,-38 128.46,-31.81 116.56,-24.82 107.5,-19.51"/>
<polygon fill="#9a32cd" stroke="#9a32cd" points="197.07,-76.21 207.47,-78.26 200.62,-70.18 197.07,-76.21"/>
<text text-anchor="middle" x="223.5" y="-52" font-family="Helvetica,sans-Serif" font-size="10.00"> UsbdDeviceHandle</text>
<text text-anchor="middle" x="223.5" y="-41" font-family="Helvetica,sans-Serif" font-size="10.00">UsbdFlags</text>
</g>
</g>
</svg>
