<?xml version="1.0" encoding="UTF-8" standalone="no"?>
<!DOCTYPE svg PUBLIC "-//W3C//DTD SVG 1.1//EN"
 "http://www.w3.org/Graphics/SVG/1.1/DTD/svg11.dtd">
<!-- Generated by graphviz version 2.43.0 (0)
 -->
<!-- Title: Engine/libspeex/filters.h Pages: 1 -->
<!--zoomable 229 -->
<svg id="main" version="1.1" xmlns="http://www.w3.org/2000/svg" xmlns:xlink="http://www.w3.org/1999/xlink" xml:space="preserve" onload="init(evt)">
<style type="text/css"><![CDATA[
.edge:hover path { stroke: red; }
.edge:hover polygon { stroke: red; fill: red; }
]]></style>
<script type="text/javascript"><![CDATA[
var edges = document.getElementsByTagName('g');
if (edges && edges.length) {
  for (var i=0;i<edges.length;i++) {
    if (edges[i].id.substr(0,4)=='edge') {
      edges[i].setAttribute('class','edge');
    }
  }
}
]]></script>
        <defs>
                <circle id="rim" cx="0" cy="0" r="7"/>
                <circle id="rim2" cx="0" cy="0" r="3.5"/>
                <g id="zoomPlus">
                        <use xlink:href="#rim" fill="#404040">
                                <set attributeName="fill" to="#808080" begin="zoomplus.mouseover" end="zoomplus.mouseout"/>
                        </use>
                        <path d="M-4,0h8M0,-4v8" fill="none" stroke="white" stroke-width="1.5" pointer-events="none"/>
                </g>
                <g id="zoomMin">
                        <use xlink:href="#rim" fill="#404040">
                                <set attributeName="fill" to="#808080" begin="zoomminus.mouseover" end="zoomminus.mouseout"/>
                        </use>
                        <path d="M-4,0h8" fill="none" stroke="white" stroke-width="1.5" pointer-events="none"/>
                </g>
                <g id="dirArrow">
                        <path fill="none" stroke="white" stroke-width="1.5" d="M0,-3.0v7 M-2.5,-0.5L0,-3.0L2.5,-0.5"/>
                </g>
               <g id="resetDef">
                       <use xlink:href="#rim2" fill="#404040">
                               <set attributeName="fill" to="#808080" begin="reset.mouseover" end="reset.mouseout"/>
                       </use>
               </g>
        </defs>

<script type="text/javascript">
var viewWidth = 685;
var viewHeight = 229;
var sectionId = 'dynsection-1';
</script>
<script xlink:href="../../svgpan.js"/>
<svg id="graph" class="graph">
<g id="viewport">
<title>Engine/libspeex/filters.h</title>
<!-- Node1 -->
<g id="node1" class="node">
<title>Node1</title>
<g id="a_node1"><a xlink:title="Various analysis/synthesis filters.">
<polygon fill="#bfbfbf" stroke="black" points="336,-201.5 336,-220.5 470,-220.5 470,-201.5 336,-201.5"/>
<text text-anchor="middle" x="403" y="-208.5" font-family="Helvetica,sans-Serif" font-size="10.00">Engine/libspeex/filters.h</text>
</a>
</g>
</g>
<!-- Node2 -->
<g id="node2" class="node">
<title>Node2</title>
<g id="a_node2"><a xlink:href="../../d5/dbd/cb__search_8c.html" target="_top" xlink:title=" ">
<polygon fill="none" stroke="black" points="0,-134.5 0,-164.5 108,-164.5 108,-134.5 0,-134.5"/>
<text text-anchor="start" x="8" y="-152.5" font-family="Helvetica,sans-Serif" font-size="10.00">Engine/libspeex/cb</text>
<text text-anchor="middle" x="54" y="-141.5" font-family="Helvetica,sans-Serif" font-size="10.00">_search.c</text>
</a>
</g>
</g>
<!-- Node1&#45;&gt;Node2 -->
<g id="edge1" class="edge">
<title>Node1&#45;&gt;Node2</title>
<path fill="none" stroke="midnightblue" d="M330.42,-200.01C272.46,-191.7 189.27,-178.99 117,-165 114.14,-164.45 111.2,-163.85 108.24,-163.24"/>
<polygon fill="midnightblue" stroke="midnightblue" points="330.18,-203.52 340.57,-201.46 331.17,-196.59 330.18,-203.52"/>
</g>
<!-- Node3 -->
<g id="node3" class="node">
<title>Node3</title>
<g id="a_node3"><a xlink:href="../../d6/d44/filters_8c.html" target="_top" xlink:title=" ">
<polygon fill="none" stroke="black" points="126.5,-140 126.5,-159 259.5,-159 259.5,-140 126.5,-140"/>
<text text-anchor="middle" x="193" y="-147" font-family="Helvetica,sans-Serif" font-size="10.00">Engine/libspeex/filters.c</text>
</a>
</g>
</g>
<!-- Node1&#45;&gt;Node3 -->
<g id="edge2" class="edge">
<title>Node1&#45;&gt;Node3</title>
<path fill="none" stroke="midnightblue" d="M363.03,-198.68C322.23,-187.11 259.81,-169.43 223.03,-159.01"/>
<polygon fill="midnightblue" stroke="midnightblue" points="362.34,-202.12 372.91,-201.48 364.24,-195.38 362.34,-202.12"/>
</g>
<!-- Node4 -->
<g id="node4" class="node">
<title>Node4</title>
<g id="a_node4"><a xlink:href="../../d2/d5a/ltp_8c.html" target="_top" xlink:title=" ">
<polygon fill="none" stroke="black" points="278,-140 278,-159 396,-159 396,-140 278,-140"/>
<text text-anchor="middle" x="337" y="-147" font-family="Helvetica,sans-Serif" font-size="10.00">Engine/libspeex/ltp.c</text>
</a>
</g>
</g>
<!-- Node1&#45;&gt;Node4 -->
<g id="edge3" class="edge">
<title>Node1&#45;&gt;Node4</title>
<path fill="none" stroke="midnightblue" d="M385.97,-194.65C373.39,-183.31 356.72,-168.28 346.44,-159.01"/>
<polygon fill="midnightblue" stroke="midnightblue" points="383.77,-197.38 393.54,-201.48 388.46,-192.18 383.77,-197.38"/>
</g>
<!-- Node5 -->
<g id="node5" class="node">
<title>Node5</title>
<g id="a_node5"><a xlink:href="../../d1/df9/nb__celp_8h.html" target="_top" xlink:title="Narrowband CELP encoder/decoder.">
<polygon fill="none" stroke="black" points="414.5,-134.5 414.5,-164.5 523.5,-164.5 523.5,-134.5 414.5,-134.5"/>
<text text-anchor="start" x="422.5" y="-152.5" font-family="Helvetica,sans-Serif" font-size="10.00">Engine/libspeex/nb</text>
<text text-anchor="middle" x="469" y="-141.5" font-family="Helvetica,sans-Serif" font-size="10.00">_celp.h</text>
</a>
</g>
</g>
<!-- Node1&#45;&gt;Node5 -->
<g id="edge4" class="edge">
<title>Node1&#45;&gt;Node5</title>
<path fill="none" stroke="midnightblue" d="M420.03,-194.65C430.35,-185.35 443.41,-173.57 453.45,-164.52"/>
<polygon fill="midnightblue" stroke="midnightblue" points="417.54,-192.18 412.46,-201.48 422.23,-197.38 417.54,-192.18"/>
</g>
<!-- Node9 -->
<g id="node9" class="node">
<title>Node9</title>
<g id="a_node9"><a xlink:href="../../d8/d9b/sb__celp_8c.html" target="_top" xlink:title=" ">
<polygon fill="none" stroke="black" points="569,-0.5 569,-30.5 677,-30.5 677,-0.5 569,-0.5"/>
<text text-anchor="start" x="577" y="-18.5" font-family="Helvetica,sans-Serif" font-size="10.00">Engine/libspeex/sb</text>
<text text-anchor="middle" x="623" y="-7.5" font-family="Helvetica,sans-Serif" font-size="10.00">_celp.c</text>
</a>
</g>
</g>
<!-- Node1&#45;&gt;Node9 -->
<g id="edge13" class="edge">
<title>Node1&#45;&gt;Node9</title>
<path fill="none" stroke="midnightblue" d="M465.7,-199.21C494.14,-192.39 527.31,-181.62 554,-165 588.44,-143.56 599.6,-135.11 616,-98 625.7,-76.05 625.65,-47.56 624.49,-30.73"/>
<polygon fill="midnightblue" stroke="midnightblue" points="464.82,-195.82 455.85,-201.46 466.38,-202.64 464.82,-195.82"/>
</g>
<!-- Node10 -->
<g id="node10" class="node">
<title>Node10</title>
<g id="a_node10"><a xlink:href="../../d6/dc4/nb__celp_8c.html" target="_top" xlink:title=" ">
<polygon fill="none" stroke="black" points="497.5,-67.5 497.5,-97.5 606.5,-97.5 606.5,-67.5 497.5,-67.5"/>
<text text-anchor="start" x="505.5" y="-85.5" font-family="Helvetica,sans-Serif" font-size="10.00">Engine/libspeex/nb</text>
<text text-anchor="middle" x="552" y="-74.5" font-family="Helvetica,sans-Serif" font-size="10.00">_celp.c</text>
</a>
</g>
</g>
<!-- Node1&#45;&gt;Node10 -->
<g id="edge12" class="edge">
<title>Node1&#45;&gt;Node10</title>
<path fill="none" stroke="midnightblue" d="M474.22,-198.67C495.39,-192.06 516.92,-181.59 532,-165 548.96,-146.35 552.13,-115.69 552.4,-97.77"/>
<polygon fill="midnightblue" stroke="midnightblue" points="473.2,-195.33 464.55,-201.45 475.13,-202.06 473.2,-195.33"/>
</g>
<!-- Node6 -->
<g id="node6" class="node">
<title>Node6</title>
<g id="a_node6"><a xlink:href="../../d4/d9a/sb__celp_8h.html" target="_top" xlink:title="Sub&#45;band CELP mode used for wideband encoding.">
<polygon fill="none" stroke="black" points="333,-67.5 333,-97.5 441,-97.5 441,-67.5 333,-67.5"/>
<text text-anchor="start" x="341" y="-85.5" font-family="Helvetica,sans-Serif" font-size="10.00">Engine/libspeex/sb</text>
<text text-anchor="middle" x="387" y="-74.5" font-family="Helvetica,sans-Serif" font-size="10.00">_celp.h</text>
</a>
</g>
</g>
<!-- Node5&#45;&gt;Node6 -->
<g id="edge5" class="edge">
<title>Node5&#45;&gt;Node6</title>
<path fill="none" stroke="midnightblue" d="M443.35,-128.17C430.81,-118.23 416.03,-106.51 404.76,-97.58"/>
<polygon fill="midnightblue" stroke="midnightblue" points="441.2,-130.93 451.21,-134.4 445.54,-125.44 441.2,-130.93"/>
</g>
<!-- Node7 -->
<g id="node7" class="node">
<title>Node7</title>
<g id="a_node7"><a xlink:href="../../d2/d21/modes_8c.html" target="_top" xlink:title=" ">
<polygon fill="none" stroke="black" points="401,-6 401,-25 539,-25 539,-6 401,-6"/>
<text text-anchor="middle" x="470" y="-13" font-family="Helvetica,sans-Serif" font-size="10.00">Engine/libspeex/modes.c</text>
</a>
</g>
</g>
<!-- Node5&#45;&gt;Node7 -->
<g id="edge9" class="edge">
<title>Node5&#45;&gt;Node7</title>
<path fill="none" stroke="midnightblue" d="M469.18,-124.32C469.41,-94.38 469.78,-44.91 469.93,-25.1"/>
<polygon fill="midnightblue" stroke="midnightblue" points="465.68,-124.35 469.11,-134.37 472.68,-124.4 465.68,-124.35"/>
</g>
<!-- Node8 -->
<g id="node8" class="node">
<title>Node8</title>
<g id="a_node8"><a xlink:href="../../d0/db3/modes__wb_8c.html" target="_top" xlink:title=" ">
<polygon fill="none" stroke="black" points="225,-6 225,-25 383,-25 383,-6 225,-6"/>
<text text-anchor="middle" x="304" y="-13" font-family="Helvetica,sans-Serif" font-size="10.00">Engine/libspeex/modes_wb.c</text>
</a>
</g>
</g>
<!-- Node5&#45;&gt;Node8 -->
<g id="edge10" class="edge">
<title>Node5&#45;&gt;Node8</title>
<path fill="none" stroke="midnightblue" d="M404.66,-132.59C371.4,-123.13 335.43,-110.56 324,-98 305.18,-77.31 303.34,-41.81 303.6,-25.35"/>
<polygon fill="midnightblue" stroke="midnightblue" points="403.83,-135.99 414.4,-135.29 405.7,-129.24 403.83,-135.99"/>
</g>
<!-- Node5&#45;&gt;Node10 -->
<g id="edge11" class="edge">
<title>Node5&#45;&gt;Node10</title>
<path fill="none" stroke="midnightblue" d="M494.96,-128.17C507.65,-118.23 522.61,-106.51 534.03,-97.58"/>
<polygon fill="midnightblue" stroke="midnightblue" points="492.72,-125.47 487.01,-134.4 497.04,-130.99 492.72,-125.47"/>
</g>
<!-- Node6&#45;&gt;Node7 -->
<g id="edge6" class="edge">
<title>Node6&#45;&gt;Node7</title>
<path fill="none" stroke="midnightblue" d="M413.17,-61.01C428.58,-48.94 447.26,-34.3 458.9,-25.19"/>
<polygon fill="midnightblue" stroke="midnightblue" points="410.72,-58.47 405.01,-67.4 415.04,-63.99 410.72,-58.47"/>
</g>
<!-- Node6&#45;&gt;Node8 -->
<g id="edge7" class="edge">
<title>Node6&#45;&gt;Node8</title>
<path fill="none" stroke="midnightblue" d="M360.83,-61.01C345.42,-48.94 326.74,-34.3 315.1,-25.19"/>
<polygon fill="midnightblue" stroke="midnightblue" points="358.96,-63.99 368.99,-67.4 363.28,-58.47 358.96,-63.99"/>
</g>
<!-- Node6&#45;&gt;Node9 -->
<g id="edge8" class="edge">
<title>Node6&#45;&gt;Node9</title>
<path fill="none" stroke="midnightblue" d="M447.94,-64.71C486.35,-54.14 535.37,-40.63 571.77,-30.61"/>
<polygon fill="midnightblue" stroke="midnightblue" points="446.63,-61.45 437.92,-67.48 448.49,-68.19 446.63,-61.45"/>
</g>
</g>
</svg>
        <g id="navigator" transform="translate(0 0)" fill="#404254">
                <rect fill="#f2f5e9" fill-opacity="0.5" stroke="#606060" stroke-width=".5" x="0" y="0" width="60" height="60"/>
                <use id="zoomplus" xlink:href="#zoomPlus" x="17" y="9" onmousedown="handleZoom(evt,'in')"/>
                <use id="zoomminus" xlink:href="#zoomMin" x="42" y="9" onmousedown="handleZoom(evt,'out')"/>
                <use id="reset" xlink:href="#resetDef" x="30" y="36" onmousedown="handleReset()"/>
                <g id="arrowUp" xlink:href="#dirArrow" transform="translate(30 24)" onmousedown="handlePan(0,-1)">
                  <use xlink:href="#rim" fill="#404040">
                        <set attributeName="fill" to="#808080" begin="arrowUp.mouseover" end="arrowUp.mouseout"/>
                  </use>
                  <path fill="none" stroke="white" stroke-width="1.5" d="M0,-3.0v7 M-2.5,-0.5L0,-3.0L2.5,-0.5"/>
                </g>
                <g id="arrowRight" xlink:href="#dirArrow" transform="rotate(90) translate(36 -43)" onmousedown="handlePan(1,0)">
                  <use xlink:href="#rim" fill="#404040">
                        <set attributeName="fill" to="#808080" begin="arrowRight.mouseover" end="arrowRight.mouseout"/>
                  </use>
                  <path fill="none" stroke="white" stroke-width="1.5" d="M0,-3.0v7 M-2.5,-0.5L0,-3.0L2.5,-0.5"/>
                </g>
                <g id="arrowDown" xlink:href="#dirArrow" transform="rotate(180) translate(-30 -48)" onmousedown="handlePan(0,1)">
                  <use xlink:href="#rim" fill="#404040">
                        <set attributeName="fill" to="#808080" begin="arrowDown.mouseover" end="arrowDown.mouseout"/>
                  </use>
                  <path fill="none" stroke="white" stroke-width="1.5" d="M0,-3.0v7 M-2.5,-0.5L0,-3.0L2.5,-0.5"/>
                </g>
                <g id="arrowLeft" xlink:href="#dirArrow" transform="rotate(270) translate(-36 17)" onmousedown="handlePan(-1,0)">
                  <use xlink:href="#rim" fill="#404040">
                        <set attributeName="fill" to="#808080" begin="arrowLeft.mouseover" end="arrowLeft.mouseout"/>
                  </use>
                  <path fill="none" stroke="white" stroke-width="1.5" d="M0,-3.0v7 M-2.5,-0.5L0,-3.0L2.5,-0.5"/>
                </g>
        </g>
        <svg viewBox="0 0 15 15" width="100%" height="30px" preserveAspectRatio="xMaxYMin meet">
         <g id="arrow_out" transform="scale(0.3 0.3)">
          <a xlink:href="filters_8h__dep__incl_org.svg" target="_base">
           <rect id="button" ry="5" rx="5" y="6" x="6" height="38" width="38"
                fill="#f2f5e9" fill-opacity="0.5" stroke="#606060" stroke-width="1.0"/>
           <path id="arrow"
             d="M 11.500037,31.436501 C 11.940474,20.09759 22.043105,11.32322 32.158766,21.979434 L 37.068811,17.246167 C 37.068811,17.246167 37.088388,32 37.088388,32 L 22.160133,31.978069 C 22.160133,31.978069 26.997745,27.140456 26.997745,27.140456 C 18.528582,18.264221 13.291696,25.230495 11.500037,31.436501 z"
             style="fill:#404040;"/>
          </a>
         </g>
        </svg>
</svg>
