<?xml version="1.0" encoding="UTF-8" standalone="no"?>
<!DOCTYPE svg PUBLIC "-//W3C//DTD SVG 1.1//EN"
 "http://www.w3.org/Graphics/SVG/1.1/DTD/svg11.dtd">
<!-- Generated by graphviz version 2.43.0 (0)
 -->
<!-- Title: tagRASDIALPARAMSA Pages: 1 -->
<svg width="178pt" height="150pt"
 viewBox="0.00 0.00 178.00 150.00" xmlns="http://www.w3.org/2000/svg" xmlns:xlink="http://www.w3.org/1999/xlink">
<g id="graph0" class="graph" transform="scale(1 1) rotate(0) translate(4 146)">
<title>tagRASDIALPARAMSA</title>
<!-- Node1 -->
<g id="node1" class="node">
<title>Node1</title>
<g id="a_node1"><a xlink:title=" ">
<polygon fill="#bfbfbf" stroke="black" points="15,-0.5 15,-19.5 137,-19.5 137,-0.5 15,-0.5"/>
<text text-anchor="middle" x="76" y="-7.5" font-family="Helvetica,sans-Serif" font-size="10.00">tagRASDIALPARAMSA</text>
</a>
</g>
</g>
<!-- Node2 -->
<g id="node2" class="node">
<title>Node2</title>
<g id="a_node2"><a xlink:title=" ">
<polygon fill="none" stroke="#bfbfbf" points="0,-122.5 0,-141.5 38,-141.5 38,-122.5 0,-122.5"/>
<text text-anchor="middle" x="19" y="-129.5" font-family="Helvetica,sans-Serif" font-size="10.00">char</text>
</a>
</g>
</g>
<!-- Node2&#45;&gt;Node1 -->
<g id="edge1" class="edge">
<title>Node2&#45;&gt;Node1</title>
<path fill="none" stroke="#9a32cd" stroke-dasharray="5,2" d="M13.9,-112.76C9.44,-92.77 5.68,-60.54 20,-38 25.38,-29.53 34.25,-23.65 43.35,-19.6"/>
<polygon fill="#9a32cd" stroke="#9a32cd" points="10.51,-113.62 16.34,-122.47 17.3,-111.92 10.51,-113.62"/>
<text text-anchor="middle" x="66" y="-96" font-family="Helvetica,sans-Serif" font-size="10.00"> szUserName</text>
<text text-anchor="middle" x="66" y="-85" font-family="Helvetica,sans-Serif" font-size="10.00">szPassword</text>
<text text-anchor="middle" x="66" y="-74" font-family="Helvetica,sans-Serif" font-size="10.00">szEntryName</text>
<text text-anchor="middle" x="66" y="-63" font-family="Helvetica,sans-Serif" font-size="10.00">szCallbackNumber</text>
<text text-anchor="middle" x="66" y="-52" font-family="Helvetica,sans-Serif" font-size="10.00">szPhoneNumber</text>
<text text-anchor="middle" x="66" y="-41" font-family="Helvetica,sans-Serif" font-size="10.00">szDomain</text>
</g>
<!-- Node3 -->
<g id="node3" class="node">
<title>Node3</title>
<g id="a_node3"><a xlink:title=" ">
<polygon fill="none" stroke="#bfbfbf" points="103.5,-122.5 103.5,-141.5 164.5,-141.5 164.5,-122.5 103.5,-122.5"/>
<text text-anchor="middle" x="134" y="-129.5" font-family="Helvetica,sans-Serif" font-size="10.00">unsigned</text>
</a>
</g>
</g>
<!-- Node3&#45;&gt;Node1 -->
<g id="edge2" class="edge">
<title>Node3&#45;&gt;Node1</title>
<path fill="none" stroke="#9a32cd" stroke-dasharray="5,2" d="M133.27,-112.06C131.68,-92.14 126.82,-60.63 112,-38 107.04,-30.42 99.18,-24.16 92.07,-19.59"/>
<polygon fill="#9a32cd" stroke="#9a32cd" points="129.79,-112.51 133.87,-122.29 136.77,-112.1 129.79,-112.51"/>
<text text-anchor="middle" x="151" y="-68.5" font-family="Helvetica,sans-Serif" font-size="10.00"> dwSize</text>
</g>
</g>
</svg>
