<?xml version="1.0" encoding="UTF-8" standalone="no"?>
<!DOCTYPE svg PUBLIC "-//W3C//DTD SVG 1.1//EN"
 "http://www.w3.org/Graphics/SVG/1.1/DTD/svg11.dtd">
<!-- Generated by graphviz version 2.43.0 (0)
 -->
<!-- Title: Engine/libspeex/_kiss_fft_guts.h Pages: 1 -->
<svg width="244pt" height="330pt"
 viewBox="0.00 0.00 244.00 330.00" xmlns="http://www.w3.org/2000/svg" xmlns:xlink="http://www.w3.org/1999/xlink">
<g id="graph0" class="graph" transform="scale(1 1) rotate(0) translate(4 326)">
<title>Engine/libspeex/_kiss_fft_guts.h</title>
<!-- Node1 -->
<g id="node1" class="node">
<title>Node1</title>
<g id="a_node1"><a xlink:title=" ">
<polygon fill="#bfbfbf" stroke="black" points="75.5,-291.5 75.5,-321.5 197.5,-321.5 197.5,-291.5 75.5,-291.5"/>
<text text-anchor="start" x="83.5" y="-309.5" font-family="Helvetica,sans-Serif" font-size="10.00">Engine/libspeex/_kiss</text>
<text text-anchor="middle" x="136.5" y="-298.5" font-family="Helvetica,sans-Serif" font-size="10.00">_fft_guts.h</text>
</a>
</g>
</g>
<!-- Node2 -->
<g id="node2" class="node">
<title>Node2</title>
<g id="a_node2"><a xlink:href="../../d0/dc9/kiss__fft_8h.html" target="_top" xlink:title=" ">
<polygon fill="none" stroke="black" points="59,-235.5 59,-254.5 120,-254.5 120,-235.5 59,-235.5"/>
<text text-anchor="middle" x="89.5" y="-242.5" font-family="Helvetica,sans-Serif" font-size="10.00">kiss_fft.h</text>
</a>
</g>
</g>
<!-- Node1&#45;&gt;Node2 -->
<g id="edge1" class="edge">
<title>Node1&#45;&gt;Node2</title>
<path fill="none" stroke="midnightblue" d="M125.36,-291.4C118.53,-282.75 109.76,-271.64 102.59,-262.58"/>
<polygon fill="midnightblue" stroke="midnightblue" points="105.28,-260.34 96.34,-254.66 99.79,-264.67 105.28,-260.34"/>
</g>
<!-- Node9 -->
<g id="node9" class="node">
<title>Node9</title>
<g id="a_node9"><a xlink:href="../../d9/d28/math__approx_8h.html" target="_top" xlink:title="Various math approximation functions for Speex.">
<polygon fill="none" stroke="black" points="138.5,-235.5 138.5,-254.5 228.5,-254.5 228.5,-235.5 138.5,-235.5"/>
<text text-anchor="middle" x="183.5" y="-242.5" font-family="Helvetica,sans-Serif" font-size="10.00">math_approx.h</text>
</a>
</g>
</g>
<!-- Node1&#45;&gt;Node9 -->
<g id="edge8" class="edge">
<title>Node1&#45;&gt;Node9</title>
<path fill="none" stroke="midnightblue" d="M147.64,-291.4C154.47,-282.75 163.24,-271.64 170.41,-262.58"/>
<polygon fill="midnightblue" stroke="midnightblue" points="173.21,-264.67 176.66,-254.66 167.72,-260.34 173.21,-264.67"/>
</g>
<!-- Node3 -->
<g id="node3" class="node">
<title>Node3</title>
<g id="a_node3"><a xlink:title=" ">
<polygon fill="none" stroke="#bfbfbf" points="0,-179.5 0,-198.5 53,-198.5 53,-179.5 0,-179.5"/>
<text text-anchor="middle" x="26.5" y="-186.5" font-family="Helvetica,sans-Serif" font-size="10.00">stdlib.h</text>
</a>
</g>
</g>
<!-- Node2&#45;&gt;Node3 -->
<g id="edge2" class="edge">
<title>Node2&#45;&gt;Node3</title>
<path fill="none" stroke="midnightblue" d="M79.38,-235.32C69.97,-227.26 55.76,-215.08 44.43,-205.37"/>
<polygon fill="midnightblue" stroke="midnightblue" points="46.68,-202.68 36.81,-198.83 42.12,-208 46.68,-202.68"/>
</g>
<!-- Node4 -->
<g id="node4" class="node">
<title>Node4</title>
<g id="a_node4"><a xlink:title=" ">
<polygon fill="none" stroke="#bfbfbf" points="71,-179.5 71,-198.5 122,-198.5 122,-179.5 71,-179.5"/>
<text text-anchor="middle" x="96.5" y="-186.5" font-family="Helvetica,sans-Serif" font-size="10.00">math.h</text>
</a>
</g>
</g>
<!-- Node2&#45;&gt;Node4 -->
<g id="edge3" class="edge">
<title>Node2&#45;&gt;Node4</title>
<path fill="none" stroke="midnightblue" d="M90.66,-235.08C91.58,-227.93 92.92,-217.64 94.08,-208.69"/>
<polygon fill="midnightblue" stroke="midnightblue" points="97.55,-209.12 95.37,-198.75 90.61,-208.22 97.55,-209.12"/>
</g>
<!-- Node5 -->
<g id="node5" class="node">
<title>Node5</title>
<g id="a_node5"><a xlink:href="../../d2/d2d/arch_8h.html" target="_top" xlink:title="Various architecture definitions Speex.">
<polygon fill="none" stroke="black" points="153,-179.5 153,-198.5 200,-198.5 200,-179.5 153,-179.5"/>
<text text-anchor="middle" x="176.5" y="-186.5" font-family="Helvetica,sans-Serif" font-size="10.00">arch.h</text>
</a>
</g>
</g>
<!-- Node2&#45;&gt;Node5 -->
<g id="edge4" class="edge">
<title>Node2&#45;&gt;Node5</title>
<path fill="none" stroke="midnightblue" d="M103.48,-235.32C117.05,-226.9 137.88,-213.97 153.82,-204.07"/>
<polygon fill="midnightblue" stroke="midnightblue" points="155.91,-206.9 162.56,-198.65 152.21,-200.95 155.91,-206.9"/>
</g>
<!-- Node6 -->
<g id="node6" class="node">
<title>Node6</title>
<g id="a_node6"><a xlink:href="../../d8/df4/speex__types_8h.html" target="_top" xlink:title="Speex types.">
<polygon fill="none" stroke="black" points="117,-123.5 117,-142.5 236,-142.5 236,-123.5 117,-123.5"/>
<text text-anchor="middle" x="176.5" y="-130.5" font-family="Helvetica,sans-Serif" font-size="10.00">speex/speex_types.h</text>
</a>
</g>
</g>
<!-- Node5&#45;&gt;Node6 -->
<g id="edge5" class="edge">
<title>Node5&#45;&gt;Node6</title>
<path fill="none" stroke="midnightblue" d="M176.5,-179.08C176.5,-172.01 176.5,-161.86 176.5,-152.99"/>
<polygon fill="midnightblue" stroke="midnightblue" points="180,-152.75 176.5,-142.75 173,-152.75 180,-152.75"/>
</g>
<!-- Node7 -->
<g id="node7" class="node">
<title>Node7</title>
<g id="a_node7"><a xlink:href="../../d8/d6d/speex__config__types_8h.html" target="_top" xlink:title=" ">
<polygon fill="none" stroke="black" points="120,-56.5 120,-86.5 233,-86.5 233,-56.5 120,-56.5"/>
<text text-anchor="start" x="128" y="-74.5" font-family="Helvetica,sans-Serif" font-size="10.00">speex/speex_config</text>
<text text-anchor="middle" x="176.5" y="-63.5" font-family="Helvetica,sans-Serif" font-size="10.00">_types.h</text>
</a>
</g>
</g>
<!-- Node6&#45;&gt;Node7 -->
<g id="edge6" class="edge">
<title>Node6&#45;&gt;Node7</title>
<path fill="none" stroke="midnightblue" d="M176.5,-123.48C176.5,-116.47 176.5,-106.19 176.5,-96.7"/>
<polygon fill="midnightblue" stroke="midnightblue" points="180,-96.52 176.5,-86.52 173,-96.52 180,-96.52"/>
</g>
<!-- Node8 -->
<g id="node8" class="node">
<title>Node8</title>
<g id="a_node8"><a xlink:title=" ">
<polygon fill="none" stroke="#bfbfbf" points="150,-0.5 150,-19.5 203,-19.5 203,-0.5 150,-0.5"/>
<text text-anchor="middle" x="176.5" y="-7.5" font-family="Helvetica,sans-Serif" font-size="10.00">stdint.h</text>
</a>
</g>
</g>
<!-- Node7&#45;&gt;Node8 -->
<g id="edge7" class="edge">
<title>Node7&#45;&gt;Node8</title>
<path fill="none" stroke="midnightblue" d="M176.5,-56.4C176.5,-48.47 176.5,-38.46 176.5,-29.86"/>
<polygon fill="midnightblue" stroke="midnightblue" points="180,-29.66 176.5,-19.66 173,-29.66 180,-29.66"/>
</g>
<!-- Node9&#45;&gt;Node5 -->
<g id="edge9" class="edge">
<title>Node9&#45;&gt;Node5</title>
<path fill="none" stroke="midnightblue" d="M182.34,-235.08C181.42,-227.93 180.08,-217.64 178.92,-208.69"/>
<polygon fill="midnightblue" stroke="midnightblue" points="182.39,-208.22 177.63,-198.75 175.45,-209.12 182.39,-208.22"/>
</g>
</g>
</svg>
