<?xml version="1.0" encoding="UTF-8" standalone="no"?>
<!DOCTYPE svg PUBLIC "-//W3C//DTD SVG 1.1//EN"
 "http://www.w3.org/Graphics/SVG/1.1/DTD/svg11.dtd">
<!-- Generated by graphviz version 2.43.0 (0)
 -->
<!-- Title: Engine/sys/sys_main.c Pages: 1 -->
<!--zoomable 196 -->
<svg id="main" version="1.1" xmlns="http://www.w3.org/2000/svg" xmlns:xlink="http://www.w3.org/1999/xlink" xml:space="preserve" onload="init(evt)">
<style type="text/css"><![CDATA[
.edge:hover path { stroke: red; }
.edge:hover polygon { stroke: red; fill: red; }
]]></style>
<script type="text/javascript"><![CDATA[
var edges = document.getElementsByTagName('g');
if (edges && edges.length) {
  for (var i=0;i<edges.length;i++) {
    if (edges[i].id.substr(0,4)=='edge') {
      edges[i].setAttribute('class','edge');
    }
  }
}
]]></script>
        <defs>
                <circle id="rim" cx="0" cy="0" r="7"/>
                <circle id="rim2" cx="0" cy="0" r="3.5"/>
                <g id="zoomPlus">
                        <use xlink:href="#rim" fill="#404040">
                                <set attributeName="fill" to="#808080" begin="zoomplus.mouseover" end="zoomplus.mouseout"/>
                        </use>
                        <path d="M-4,0h8M0,-4v8" fill="none" stroke="white" stroke-width="1.5" pointer-events="none"/>
                </g>
                <g id="zoomMin">
                        <use xlink:href="#rim" fill="#404040">
                                <set attributeName="fill" to="#808080" begin="zoomminus.mouseover" end="zoomminus.mouseout"/>
                        </use>
                        <path d="M-4,0h8" fill="none" stroke="white" stroke-width="1.5" pointer-events="none"/>
                </g>
                <g id="dirArrow">
                        <path fill="none" stroke="white" stroke-width="1.5" d="M0,-3.0v7 M-2.5,-0.5L0,-3.0L2.5,-0.5"/>
                </g>
               <g id="resetDef">
                       <use xlink:href="#rim2" fill="#404040">
                               <set attributeName="fill" to="#808080" begin="reset.mouseover" end="reset.mouseout"/>
                       </use>
               </g>
        </defs>

<script type="text/javascript">
var viewWidth = 1048;
var viewHeight = 196;
var sectionId = 'dynsection-0';
</script>
<script xlink:href="../../svgpan.js"/>
<svg id="graph" class="graph">
<g id="viewport">
<title>Engine/sys/sys_main.c</title>
<!-- Node1 -->
<g id="node1" class="node">
<title>Node1</title>
<g id="a_node1"><a xlink:title=" ">
<polygon fill="#bfbfbf" stroke="black" points="370,-168.5 370,-187.5 497,-187.5 497,-168.5 370,-168.5"/>
<text text-anchor="middle" x="433.5" y="-175.5" font-family="Helvetica,sans-Serif" font-size="10.00">Engine/sys/sys_main.c</text>
</a>
</g>
</g>
<!-- Node2 -->
<g id="node2" class="node">
<title>Node2</title>
<g id="a_node2"><a xlink:title=" ">
<polygon fill="none" stroke="#bfbfbf" points="56,-112.5 56,-131.5 111,-131.5 111,-112.5 56,-112.5"/>
<text text-anchor="middle" x="83.5" y="-119.5" font-family="Helvetica,sans-Serif" font-size="10.00">signal.h</text>
</a>
</g>
</g>
<!-- Node1&#45;&gt;Node2 -->
<g id="edge1" class="edge">
<title>Node1&#45;&gt;Node2</title>
<path fill="none" stroke="midnightblue" d="M369.89,-168.95C307.47,-160.76 209.67,-147.15 125.5,-132 124.03,-131.74 122.54,-131.46 121.03,-131.17"/>
<polygon fill="midnightblue" stroke="midnightblue" points="121.5,-127.7 111.01,-129.17 120.13,-134.56 121.5,-127.7"/>
</g>
<!-- Node3 -->
<g id="node3" class="node">
<title>Node3</title>
<g id="a_node3"><a xlink:title=" ">
<polygon fill="none" stroke="#bfbfbf" points="0,-0.5 0,-19.5 53,-19.5 53,-0.5 0,-0.5"/>
<text text-anchor="middle" x="26.5" y="-7.5" font-family="Helvetica,sans-Serif" font-size="10.00">stdlib.h</text>
</a>
</g>
</g>
<!-- Node1&#45;&gt;Node3 -->
<g id="edge2" class="edge">
<title>Node1&#45;&gt;Node3</title>
<path fill="none" stroke="midnightblue" d="M374.19,-168.46C333.87,-161.48 279.83,-149.82 234.5,-132 161.02,-103.11 82.68,-50.93 46.69,-25.59"/>
<polygon fill="midnightblue" stroke="midnightblue" points="48.67,-22.7 38.49,-19.76 44.61,-28.41 48.67,-22.7"/>
</g>
<!-- Node4 -->
<g id="node4" class="node">
<title>Node4</title>
<g id="a_node4"><a xlink:title=" ">
<polygon fill="none" stroke="#bfbfbf" points="71,-0.5 71,-19.5 124,-19.5 124,-0.5 71,-0.5"/>
<text text-anchor="middle" x="97.5" y="-7.5" font-family="Helvetica,sans-Serif" font-size="10.00">limits.h</text>
</a>
</g>
</g>
<!-- Node1&#45;&gt;Node4 -->
<g id="edge3" class="edge">
<title>Node1&#45;&gt;Node4</title>
<path fill="none" stroke="midnightblue" d="M385.67,-168.43C352.11,-161.34 306.76,-149.56 269.5,-132 237.4,-116.87 154.86,-54.94 117,-26.01"/>
<polygon fill="midnightblue" stroke="midnightblue" points="118.87,-23.04 108.81,-19.73 114.61,-28.59 118.87,-23.04"/>
</g>
<!-- Node5 -->
<g id="node5" class="node">
<title>Node5</title>
<g id="a_node5"><a xlink:title=" ">
<polygon fill="none" stroke="#bfbfbf" points="531.5,-112.5 531.5,-131.5 603.5,-131.5 603.5,-112.5 531.5,-112.5"/>
<text text-anchor="middle" x="567.5" y="-119.5" font-family="Helvetica,sans-Serif" font-size="10.00">sys/types.h</text>
</a>
</g>
</g>
<!-- Node1&#45;&gt;Node5 -->
<g id="edge4" class="edge">
<title>Node1&#45;&gt;Node5</title>
<path fill="none" stroke="midnightblue" d="M454.73,-168.44C476.88,-159.52 511.82,-145.44 536.94,-135.32"/>
<polygon fill="midnightblue" stroke="midnightblue" points="538.4,-138.5 546.37,-131.52 535.78,-132.01 538.4,-138.5"/>
</g>
<!-- Node6 -->
<g id="node6" class="node">
<title>Node6</title>
<g id="a_node6"><a xlink:title=" ">
<polygon fill="none" stroke="#bfbfbf" points="142.5,-0.5 142.5,-19.5 198.5,-19.5 198.5,-0.5 142.5,-0.5"/>
<text text-anchor="middle" x="170.5" y="-7.5" font-family="Helvetica,sans-Serif" font-size="10.00">stdarg.h</text>
</a>
</g>
</g>
<!-- Node1&#45;&gt;Node6 -->
<g id="edge5" class="edge">
<title>Node1&#45;&gt;Node6</title>
<path fill="none" stroke="midnightblue" d="M395.28,-168.49C367.9,-161.35 330.83,-149.47 301.5,-132 252.51,-102.82 206.2,-53 184.08,-27.34"/>
<polygon fill="midnightblue" stroke="midnightblue" points="186.67,-24.99 177.53,-19.63 181.34,-29.52 186.67,-24.99"/>
</g>
<!-- Node7 -->
<g id="node7" class="node">
<title>Node7</title>
<g id="a_node7"><a xlink:title=" ">
<polygon fill="none" stroke="#bfbfbf" points="216.5,-0.5 216.5,-19.5 266.5,-19.5 266.5,-0.5 216.5,-0.5"/>
<text text-anchor="middle" x="241.5" y="-7.5" font-family="Helvetica,sans-Serif" font-size="10.00">stdio.h</text>
</a>
</g>
</g>
<!-- Node1&#45;&gt;Node7 -->
<g id="edge6" class="edge">
<title>Node1&#45;&gt;Node7</title>
<path fill="none" stroke="midnightblue" d="M399.72,-168.36C376.99,-161.31 347.31,-149.61 325.5,-132 289.5,-102.92 262.42,-54.49 249.64,-28.59"/>
<polygon fill="midnightblue" stroke="midnightblue" points="252.79,-27.08 245.32,-19.57 246.48,-30.1 252.79,-27.08"/>
</g>
<!-- Node8 -->
<g id="node8" class="node">
<title>Node8</title>
<g id="a_node8"><a xlink:title=" ">
<polygon fill="none" stroke="#bfbfbf" points="621.5,-112.5 621.5,-131.5 685.5,-131.5 685.5,-112.5 621.5,-112.5"/>
<text text-anchor="middle" x="653.5" y="-119.5" font-family="Helvetica,sans-Serif" font-size="10.00">sys/stat.h</text>
</a>
</g>
</g>
<!-- Node1&#45;&gt;Node8 -->
<g id="edge7" class="edge">
<title>Node1&#45;&gt;Node8</title>
<path fill="none" stroke="midnightblue" d="M468.36,-168.44C507.2,-158.91 569.98,-143.5 611.5,-133.31"/>
<polygon fill="midnightblue" stroke="midnightblue" points="612.43,-136.68 621.31,-130.9 610.76,-129.89 612.43,-136.68"/>
</g>
<!-- Node9 -->
<g id="node9" class="node">
<title>Node9</title>
<g id="a_node9"><a xlink:title=" ">
<polygon fill="none" stroke="#bfbfbf" points="285,-0.5 285,-19.5 338,-19.5 338,-0.5 285,-0.5"/>
<text text-anchor="middle" x="311.5" y="-7.5" font-family="Helvetica,sans-Serif" font-size="10.00">string.h</text>
</a>
</g>
</g>
<!-- Node1&#45;&gt;Node9 -->
<g id="edge8" class="edge">
<title>Node1&#45;&gt;Node9</title>
<path fill="none" stroke="midnightblue" d="M411.03,-168.42C393.01,-160.77 367.79,-148.28 349.5,-132 326.84,-111.84 319.58,-104.94 310.5,-76 305.79,-61.01 306.5,-43.1 308.13,-29.88"/>
<polygon fill="midnightblue" stroke="midnightblue" points="311.64,-30.07 309.68,-19.66 304.72,-29.02 311.64,-30.07"/>
</g>
<!-- Node10 -->
<g id="node10" class="node">
<title>Node10</title>
<g id="a_node10"><a xlink:title=" ">
<polygon fill="none" stroke="#bfbfbf" points="838,-0.5 838,-19.5 891,-19.5 891,-0.5 838,-0.5"/>
<text text-anchor="middle" x="864.5" y="-7.5" font-family="Helvetica,sans-Serif" font-size="10.00">ctype.h</text>
</a>
</g>
</g>
<!-- Node1&#45;&gt;Node10 -->
<g id="edge9" class="edge">
<title>Node1&#45;&gt;Node10</title>
<path fill="none" stroke="midnightblue" d="M436.46,-168.41C445.32,-143.18 472.32,-70.16 492.5,-56 551.63,-14.51 739.49,-31.69 827.84,-19.67"/>
<polygon fill="midnightblue" stroke="midnightblue" points="828.52,-23.11 837.85,-18.1 827.43,-16.19 828.52,-23.11"/>
</g>
<!-- Node11 -->
<g id="node11" class="node">
<title>Node11</title>
<g id="a_node11"><a xlink:title=" ">
<polygon fill="none" stroke="#bfbfbf" points="704,-112.5 704,-131.5 755,-131.5 755,-112.5 704,-112.5"/>
<text text-anchor="middle" x="729.5" y="-119.5" font-family="Helvetica,sans-Serif" font-size="10.00">errno.h</text>
</a>
</g>
</g>
<!-- Node1&#45;&gt;Node11 -->
<g id="edge10" class="edge">
<title>Node1&#45;&gt;Node11</title>
<path fill="none" stroke="midnightblue" d="M490.78,-168.49C541.55,-160.64 617.91,-148.08 693.73,-132.01"/>
<polygon fill="midnightblue" stroke="midnightblue" points="694.9,-135.34 703.94,-129.83 693.43,-128.5 694.9,-135.34"/>
</g>
<!-- Node12 -->
<g id="node12" class="node">
<title>Node12</title>
<g id="a_node12"><a xlink:title=" ">
<polygon fill="none" stroke="#bfbfbf" points="761.5,-56.5 761.5,-75.5 805.5,-75.5 805.5,-56.5 761.5,-56.5"/>
<text text-anchor="middle" x="783.5" y="-63.5" font-family="Helvetica,sans-Serif" font-size="10.00">SDL.h</text>
</a>
</g>
</g>
<!-- Node1&#45;&gt;Node12 -->
<g id="edge11" class="edge">
<title>Node1&#45;&gt;Node12</title>
<path fill="none" stroke="midnightblue" d="M497.24,-176.25C581.67,-173.95 724.49,-165.12 763.5,-132 776.84,-120.67 781.44,-100.67 782.94,-85.84"/>
<polygon fill="midnightblue" stroke="midnightblue" points="786.44,-85.94 783.59,-75.73 779.46,-85.49 786.44,-85.94"/>
</g>
<!-- Node13 -->
<g id="node13" class="node">
<title>Node13</title>
<g id="a_node13"><a xlink:title=" ">
<polygon fill="none" stroke="#bfbfbf" points="909.5,-112.5 909.5,-131.5 995.5,-131.5 995.5,-112.5 909.5,-112.5"/>
<text text-anchor="middle" x="952.5" y="-119.5" font-family="Helvetica,sans-Serif" font-size="10.00">SDL_cpuinfo.h</text>
</a>
</g>
</g>
<!-- Node1&#45;&gt;Node13 -->
<g id="edge12" class="edge">
<title>Node1&#45;&gt;Node13</title>
<path fill="none" stroke="midnightblue" d="M497.12,-172.4C585.14,-165.69 749.23,-151.96 899.1,-132.09"/>
<polygon fill="midnightblue" stroke="midnightblue" points="899.96,-135.51 909.41,-130.72 899.03,-128.57 899.96,-135.51"/>
</g>
<!-- Node14 -->
<g id="node14" class="node">
<title>Node14</title>
<g id="a_node14"><a xlink:href="../../d7/dcd/Engine_2sys_2sys__local_8h.html" target="_top" xlink:title=" ">
<polygon fill="none" stroke="black" points="366,-112.5 366,-131.5 437,-131.5 437,-112.5 366,-112.5"/>
<text text-anchor="middle" x="401.5" y="-119.5" font-family="Helvetica,sans-Serif" font-size="10.00">sys_local.h</text>
</a>
</g>
</g>
<!-- Node1&#45;&gt;Node14 -->
<g id="edge13" class="edge">
<title>Node1&#45;&gt;Node14</title>
<path fill="none" stroke="midnightblue" d="M428.22,-168.08C423.79,-160.61 417.34,-149.72 411.88,-140.52"/>
<polygon fill="midnightblue" stroke="midnightblue" points="414.79,-138.57 406.69,-131.75 408.77,-142.14 414.79,-138.57"/>
</g>
<!-- Node15 -->
<g id="node15" class="node">
<title>Node15</title>
<g id="a_node15"><a xlink:href="../../d1/d12/Shared_2q__shared_8h.html" target="_top" xlink:title=" ">
<polygon fill="none" stroke="black" points="320,-56.5 320,-75.5 445,-75.5 445,-56.5 320,-56.5"/>
<text text-anchor="middle" x="382.5" y="-63.5" font-family="Helvetica,sans-Serif" font-size="10.00">../../Shared/q_shared.h</text>
</a>
</g>
</g>
<!-- Node1&#45;&gt;Node15 -->
<g id="edge32" class="edge">
<title>Node1&#45;&gt;Node15</title>
<path fill="none" stroke="midnightblue" d="M405.13,-168.49C387.75,-161.65 366.9,-150.13 356.5,-132 347.57,-116.43 357.59,-97.2 367.67,-83.71"/>
<polygon fill="midnightblue" stroke="midnightblue" points="370.53,-85.74 374.11,-75.77 365.09,-81.33 370.53,-85.74"/>
</g>
<!-- Node22 -->
<g id="node22" class="node">
<title>Node22</title>
<g id="a_node22"><a xlink:href="../../dd/de8/Shared_2qcommon_8h.html" target="_top" xlink:title=" ">
<polygon fill="none" stroke="black" points="502,-56.5 502,-75.5 631,-75.5 631,-56.5 502,-56.5"/>
<text text-anchor="middle" x="566.5" y="-63.5" font-family="Helvetica,sans-Serif" font-size="10.00">../../Shared/qcommon.h</text>
</a>
</g>
</g>
<!-- Node1&#45;&gt;Node22 -->
<g id="edge33" class="edge">
<title>Node1&#45;&gt;Node22</title>
<path fill="none" stroke="midnightblue" d="M443.94,-168.37C466.47,-149.73 519.91,-105.53 548.2,-82.13"/>
<polygon fill="midnightblue" stroke="midnightblue" points="550.64,-84.66 556.11,-75.59 546.18,-79.27 550.64,-84.66"/>
</g>
<!-- Node24 -->
<g id="node24" class="node">
<title>Node24</title>
<g id="a_node24"><a xlink:href="../../d7/d97/Engine_2sys_2sys__loadlib_8h.html" target="_top" xlink:title=" ">
<polygon fill="none" stroke="black" points="811.5,-112.5 811.5,-131.5 891.5,-131.5 891.5,-112.5 811.5,-112.5"/>
<text text-anchor="middle" x="851.5" y="-119.5" font-family="Helvetica,sans-Serif" font-size="10.00">sys_loadlib.h</text>
</a>
</g>
</g>
<!-- Node1&#45;&gt;Node24 -->
<g id="edge29" class="edge">
<title>Node1&#45;&gt;Node24</title>
<path fill="none" stroke="midnightblue" d="M497.06,-169.96C569.79,-161.72 692.42,-147.24 797.5,-132 798.77,-131.82 800.06,-131.63 801.35,-131.43"/>
<polygon fill="midnightblue" stroke="midnightblue" points="802.08,-134.86 811.42,-129.87 801.01,-127.94 802.08,-134.86"/>
</g>
<!-- Node14&#45;&gt;Node15 -->
<g id="edge14" class="edge">
<title>Node14&#45;&gt;Node15</title>
<path fill="none" stroke="midnightblue" d="M398.36,-112.08C395.82,-104.85 392.14,-94.41 388.97,-85.4"/>
<polygon fill="midnightblue" stroke="midnightblue" points="392.2,-84.02 385.58,-75.75 385.6,-86.35 392.2,-84.02"/>
</g>
<!-- Node14&#45;&gt;Node22 -->
<g id="edge27" class="edge">
<title>Node14&#45;&gt;Node22</title>
<path fill="none" stroke="midnightblue" d="M427.64,-112.44C455.52,-103.32 499.85,-88.81 530.9,-78.65"/>
<polygon fill="midnightblue" stroke="midnightblue" points="532.06,-81.95 540.48,-75.52 529.88,-75.3 532.06,-81.95"/>
</g>
<!-- Node15&#45;&gt;Node3 -->
<g id="edge20" class="edge">
<title>Node15&#45;&gt;Node3</title>
<path fill="none" stroke="midnightblue" d="M319.71,-58.31C256.97,-51.15 157.59,-38.53 63.18,-20.16"/>
<polygon fill="midnightblue" stroke="midnightblue" points="63.67,-16.69 53.18,-18.19 62.32,-23.56 63.67,-16.69"/>
</g>
<!-- Node15&#45;&gt;Node4 -->
<g id="edge23" class="edge">
<title>Node15&#45;&gt;Node4</title>
<path fill="none" stroke="midnightblue" d="M329.35,-56.44C280.98,-48.42 207.37,-35.62 134.06,-20"/>
<polygon fill="midnightblue" stroke="midnightblue" points="134.7,-16.56 124.19,-17.88 133.23,-23.4 134.7,-16.56"/>
</g>
<!-- Node15&#45;&gt;Node6 -->
<g id="edge18" class="edge">
<title>Node15&#45;&gt;Node6</title>
<path fill="none" stroke="midnightblue" d="M348.91,-56.44C310.67,-46.7 248.36,-30.83 208.41,-20.66"/>
<polygon fill="midnightblue" stroke="midnightblue" points="209.07,-17.21 198.52,-18.14 207.35,-24 209.07,-17.21"/>
</g>
<!-- Node15&#45;&gt;Node7 -->
<g id="edge17" class="edge">
<title>Node15&#45;&gt;Node7</title>
<path fill="none" stroke="midnightblue" d="M360.16,-56.44C336.75,-47.48 299.76,-33.31 273.31,-23.18"/>
<polygon fill="midnightblue" stroke="midnightblue" points="274.33,-19.82 263.74,-19.52 271.82,-26.36 274.33,-19.82"/>
</g>
<!-- Node15&#45;&gt;Node9 -->
<g id="edge19" class="edge">
<title>Node15&#45;&gt;Node9</title>
<path fill="none" stroke="midnightblue" d="M371.09,-56.32C360.39,-48.18 344.16,-35.84 331.34,-26.09"/>
<polygon fill="midnightblue" stroke="midnightblue" points="333.19,-23.1 323.11,-19.83 328.96,-28.67 333.19,-23.1"/>
</g>
<!-- Node15&#45;&gt;Node10 -->
<g id="edge22" class="edge">
<title>Node15&#45;&gt;Node10</title>
<path fill="none" stroke="midnightblue" d="M445.1,-57.58C449.97,-57.04 454.82,-56.5 459.5,-56 620.14,-38.78 664.41,-47.69 827.94,-19.84"/>
<polygon fill="midnightblue" stroke="midnightblue" points="828.6,-23.27 837.86,-18.13 827.41,-16.38 828.6,-23.27"/>
</g>
<!-- Node16 -->
<g id="node16" class="node">
<title>Node16</title>
<g id="a_node16"><a xlink:title=" ">
<polygon fill="none" stroke="#bfbfbf" points="627.5,-0.5 627.5,-19.5 683.5,-19.5 683.5,-0.5 627.5,-0.5"/>
<text text-anchor="middle" x="655.5" y="-7.5" font-family="Helvetica,sans-Serif" font-size="10.00">assert.h</text>
</a>
</g>
</g>
<!-- Node15&#45;&gt;Node16 -->
<g id="edge15" class="edge">
<title>Node15&#45;&gt;Node16</title>
<path fill="none" stroke="midnightblue" d="M430.33,-56.47C477.9,-47.84 552.91,-33.83 617.5,-20 617.6,-19.98 617.7,-19.96 617.8,-19.94"/>
<polygon fill="midnightblue" stroke="midnightblue" points="618.31,-23.41 627.31,-17.82 616.79,-16.58 618.31,-23.41"/>
</g>
<!-- Node17 -->
<g id="node17" class="node">
<title>Node17</title>
<g id="a_node17"><a xlink:title=" ">
<polygon fill="none" stroke="#bfbfbf" points="702,-0.5 702,-19.5 753,-19.5 753,-0.5 702,-0.5"/>
<text text-anchor="middle" x="727.5" y="-7.5" font-family="Helvetica,sans-Serif" font-size="10.00">math.h</text>
</a>
</g>
</g>
<!-- Node15&#45;&gt;Node17 -->
<g id="edge16" class="edge">
<title>Node15&#45;&gt;Node17</title>
<path fill="none" stroke="midnightblue" d="M445.25,-56.7C517.41,-47.03 632.53,-31.15 691.89,-19.88"/>
<polygon fill="midnightblue" stroke="midnightblue" points="692.82,-23.27 701.96,-17.91 691.47,-16.4 692.82,-23.27"/>
</g>
<!-- Node18 -->
<g id="node18" class="node">
<title>Node18</title>
<g id="a_node18"><a xlink:title=" ">
<polygon fill="none" stroke="#bfbfbf" points="771.5,-0.5 771.5,-19.5 819.5,-19.5 819.5,-0.5 771.5,-0.5"/>
<text text-anchor="middle" x="795.5" y="-7.5" font-family="Helvetica,sans-Serif" font-size="10.00">time.h</text>
</a>
</g>
</g>
<!-- Node15&#45;&gt;Node18 -->
<g id="edge21" class="edge">
<title>Node15&#45;&gt;Node18</title>
<path fill="none" stroke="midnightblue" d="M445.21,-57.67C550.9,-45.3 753.81,-21.47 761.5,-20 761.6,-19.98 761.7,-19.96 761.8,-19.94"/>
<polygon fill="midnightblue" stroke="midnightblue" points="762.44,-23.39 771.45,-17.81 760.93,-16.55 762.44,-23.39"/>
</g>
<!-- Node19 -->
<g id="node19" class="node">
<title>Node19</title>
<g id="a_node19"><a xlink:title=" ">
<polygon fill="none" stroke="#bfbfbf" points="356,-0.5 356,-19.5 409,-19.5 409,-0.5 356,-0.5"/>
<text text-anchor="middle" x="382.5" y="-7.5" font-family="Helvetica,sans-Serif" font-size="10.00">stdint.h</text>
</a>
</g>
</g>
<!-- Node15&#45;&gt;Node19 -->
<g id="edge24" class="edge">
<title>Node15&#45;&gt;Node19</title>
<path fill="none" stroke="midnightblue" d="M382.5,-56.08C382.5,-49.01 382.5,-38.86 382.5,-29.99"/>
<polygon fill="midnightblue" stroke="midnightblue" points="386,-29.75 382.5,-19.75 379,-29.75 386,-29.75"/>
</g>
<!-- Node20 -->
<g id="node20" class="node">
<title>Node20</title>
<g id="a_node20"><a xlink:href="../../dc/d14/Shared_2q__platform_8h.html" target="_top" xlink:title=" ">
<polygon fill="none" stroke="black" points="427,-0.5 427,-19.5 506,-19.5 506,-0.5 427,-0.5"/>
<text text-anchor="middle" x="466.5" y="-7.5" font-family="Helvetica,sans-Serif" font-size="10.00">q_platform.h</text>
</a>
</g>
</g>
<!-- Node15&#45;&gt;Node20 -->
<g id="edge25" class="edge">
<title>Node15&#45;&gt;Node20</title>
<path fill="none" stroke="midnightblue" d="M396,-56.32C409.1,-47.9 429.21,-34.97 444.61,-25.07"/>
<polygon fill="midnightblue" stroke="midnightblue" points="446.52,-28.01 453.04,-19.65 442.73,-22.12 446.52,-28.01"/>
</g>
<!-- Node21 -->
<g id="node21" class="node">
<title>Node21</title>
<g id="a_node21"><a xlink:href="../../de/df2/Shared_2surfaceflags_8h.html" target="_top" xlink:title=" ">
<polygon fill="none" stroke="black" points="524,-0.5 524,-19.5 609,-19.5 609,-0.5 524,-0.5"/>
<text text-anchor="middle" x="566.5" y="-7.5" font-family="Helvetica,sans-Serif" font-size="10.00">surfaceflags.h</text>
</a>
</g>
</g>
<!-- Node15&#45;&gt;Node21 -->
<g id="edge26" class="edge">
<title>Node15&#45;&gt;Node21</title>
<path fill="none" stroke="midnightblue" d="M411.66,-56.44C443.01,-47.24 493.03,-32.56 527.7,-22.39"/>
<polygon fill="midnightblue" stroke="midnightblue" points="528.87,-25.69 537.48,-19.52 526.9,-18.97 528.87,-25.69"/>
</g>
<!-- Node23 -->
<g id="node23" class="node">
<title>Node23</title>
<g id="a_node23"><a xlink:title=" ">
<polygon fill="none" stroke="#bfbfbf" points="909.5,-0.5 909.5,-19.5 1039.5,-19.5 1039.5,-0.5 909.5,-0.5"/>
<text text-anchor="middle" x="974.5" y="-7.5" font-family="Helvetica,sans-Serif" font-size="10.00">../../Shared/cm_public.h</text>
</a>
</g>
</g>
<!-- Node22&#45;&gt;Node23 -->
<g id="edge28" class="edge">
<title>Node22&#45;&gt;Node23</title>
<path fill="none" stroke="midnightblue" d="M631.15,-56.44C704.26,-46.77 823.12,-31.04 900.05,-20.85"/>
<polygon fill="midnightblue" stroke="midnightblue" points="900.7,-24.3 910.15,-19.52 899.78,-17.36 900.7,-24.3"/>
</g>
<!-- Node24&#45;&gt;Node12 -->
<g id="edge30" class="edge">
<title>Node24&#45;&gt;Node12</title>
<path fill="none" stroke="midnightblue" d="M840.57,-112.32C830.33,-104.18 814.78,-91.84 802.5,-82.09"/>
<polygon fill="midnightblue" stroke="midnightblue" points="804.63,-79.31 794.62,-75.83 800.28,-84.79 804.63,-79.31"/>
</g>
<!-- Node25 -->
<g id="node25" class="node">
<title>Node25</title>
<g id="a_node25"><a xlink:title=" ">
<polygon fill="none" stroke="#bfbfbf" points="823.5,-56.5 823.5,-75.5 905.5,-75.5 905.5,-56.5 823.5,-56.5"/>
<text text-anchor="middle" x="864.5" y="-63.5" font-family="Helvetica,sans-Serif" font-size="10.00">SDL_loadso.h</text>
</a>
</g>
</g>
<!-- Node24&#45;&gt;Node25 -->
<g id="edge31" class="edge">
<title>Node24&#45;&gt;Node25</title>
<path fill="none" stroke="midnightblue" d="M853.65,-112.08C855.37,-104.93 857.85,-94.64 860,-85.69"/>
<polygon fill="midnightblue" stroke="midnightblue" points="863.46,-86.29 862.39,-75.75 856.65,-84.65 863.46,-86.29"/>
</g>
</g>
</svg>
        <g id="navigator" transform="translate(0 0)" fill="#404254">
                <rect fill="#f2f5e9" fill-opacity="0.5" stroke="#606060" stroke-width=".5" x="0" y="0" width="60" height="60"/>
                <use id="zoomplus" xlink:href="#zoomPlus" x="17" y="9" onmousedown="handleZoom(evt,'in')"/>
                <use id="zoomminus" xlink:href="#zoomMin" x="42" y="9" onmousedown="handleZoom(evt,'out')"/>
                <use id="reset" xlink:href="#resetDef" x="30" y="36" onmousedown="handleReset()"/>
                <g id="arrowUp" xlink:href="#dirArrow" transform="translate(30 24)" onmousedown="handlePan(0,-1)">
                  <use xlink:href="#rim" fill="#404040">
                        <set attributeName="fill" to="#808080" begin="arrowUp.mouseover" end="arrowUp.mouseout"/>
                  </use>
                  <path fill="none" stroke="white" stroke-width="1.5" d="M0,-3.0v7 M-2.5,-0.5L0,-3.0L2.5,-0.5"/>
                </g>
                <g id="arrowRight" xlink:href="#dirArrow" transform="rotate(90) translate(36 -43)" onmousedown="handlePan(1,0)">
                  <use xlink:href="#rim" fill="#404040">
                        <set attributeName="fill" to="#808080" begin="arrowRight.mouseover" end="arrowRight.mouseout"/>
                  </use>
                  <path fill="none" stroke="white" stroke-width="1.5" d="M0,-3.0v7 M-2.5,-0.5L0,-3.0L2.5,-0.5"/>
                </g>
                <g id="arrowDown" xlink:href="#dirArrow" transform="rotate(180) translate(-30 -48)" onmousedown="handlePan(0,1)">
                  <use xlink:href="#rim" fill="#404040">
                        <set attributeName="fill" to="#808080" begin="arrowDown.mouseover" end="arrowDown.mouseout"/>
                  </use>
                  <path fill="none" stroke="white" stroke-width="1.5" d="M0,-3.0v7 M-2.5,-0.5L0,-3.0L2.5,-0.5"/>
                </g>
                <g id="arrowLeft" xlink:href="#dirArrow" transform="rotate(270) translate(-36 17)" onmousedown="handlePan(-1,0)">
                  <use xlink:href="#rim" fill="#404040">
                        <set attributeName="fill" to="#808080" begin="arrowLeft.mouseover" end="arrowLeft.mouseout"/>
                  </use>
                  <path fill="none" stroke="white" stroke-width="1.5" d="M0,-3.0v7 M-2.5,-0.5L0,-3.0L2.5,-0.5"/>
                </g>
        </g>
        <svg viewBox="0 0 15 15" width="100%" height="30px" preserveAspectRatio="xMaxYMin meet">
         <g id="arrow_out" transform="scale(0.3 0.3)">
          <a xlink:href="Engine_2sys_2sys__main_8c__incl_org.svg" target="_base">
           <rect id="button" ry="5" rx="5" y="6" x="6" height="38" width="38"
                fill="#f2f5e9" fill-opacity="0.5" stroke="#606060" stroke-width="1.0"/>
           <path id="arrow"
             d="M 11.500037,31.436501 C 11.940474,20.09759 22.043105,11.32322 32.158766,21.979434 L 37.068811,17.246167 C 37.068811,17.246167 37.088388,32 37.088388,32 L 22.160133,31.978069 C 22.160133,31.978069 26.997745,27.140456 26.997745,27.140456 C 18.528582,18.264221 13.291696,25.230495 11.500037,31.436501 z"
             style="fill:#404040;"/>
          </a>
         </g>
        </svg>
</svg>
