<?xml version="1.0" encoding="UTF-8" standalone="no"?>
<!DOCTYPE svg PUBLIC "-//W3C//DTD SVG 1.1//EN"
 "http://www.w3.org/Graphics/SVG/1.1/DTD/svg11.dtd">
<!-- Generated by graphviz version 2.43.0 (0)
 -->
<!-- Title: _DDLOCKOUT Pages: 1 -->
<svg width="436pt" height="342pt"
 viewBox="0.00 0.00 436.00 342.00" xmlns="http://www.w3.org/2000/svg" xmlns:xlink="http://www.w3.org/1999/xlink">
<g id="graph0" class="graph" transform="scale(1 1) rotate(0) translate(4 338)">
<title>_DDLOCKOUT</title>
<!-- Node1 -->
<g id="node1" class="node">
<title>Node1</title>
<g id="a_node1"><a xlink:title=" ">
<polygon fill="#bfbfbf" stroke="black" points="345,-221.5 345,-240.5 428,-240.5 428,-221.5 345,-221.5"/>
<text text-anchor="middle" x="386.5" y="-228.5" font-family="Helvetica,sans-Serif" font-size="10.00">_DDLOCKOUT</text>
</a>
</g>
</g>
<!-- Node2 -->
<g id="node2" class="node">
<title>Node2</title>
<g id="a_node2"><a xlink:title=" ">
<polygon fill="none" stroke="#bfbfbf" points="10,-314.5 10,-333.5 188,-333.5 188,-314.5 10,-314.5"/>
<text text-anchor="middle" x="99" y="-321.5" font-family="Helvetica,sans-Serif" font-size="10.00">anonymous:DUMMYUNIONNAME</text>
</a>
</g>
</g>
<!-- Node2&#45;&gt;Node1 -->
<g id="edge1" class="edge">
<title>Node2&#45;&gt;Node1</title>
<path fill="none" stroke="#9a32cd" stroke-dasharray="5,2" d="M198.23,-323.53C239.83,-319.91 287.66,-311.04 327,-291 350.33,-279.11 369.78,-254.28 379.26,-240.58"/>
<polygon fill="#9a32cd" stroke="#9a32cd" points="197.77,-320.06 188.07,-324.32 198.32,-327.04 197.77,-320.06"/>
<text text-anchor="middle" x="271.5" y="-324" font-family="Helvetica,sans-Serif" font-size="10.00"> DUMMYUNIONNAME</text>
</g>
<!-- Node3 -->
<g id="node3" class="node">
<title>Node3</title>
<g id="a_node3"><a xlink:title=" ">
<polygon fill="none" stroke="#bfbfbf" points="7,-276.5 7,-295.5 191,-295.5 191,-276.5 7,-276.5"/>
<text text-anchor="middle" x="99" y="-283.5" font-family="Helvetica,sans-Serif" font-size="10.00">anonymous:DUMMYUNIONNAME2</text>
</a>
</g>
</g>
<!-- Node3&#45;&gt;Node1 -->
<g id="edge2" class="edge">
<title>Node3&#45;&gt;Node1</title>
<path fill="none" stroke="#9a32cd" stroke-dasharray="5,2" d="M201.12,-278.59C240.84,-274.14 286.53,-267.1 327,-256 340.74,-252.23 355.49,-245.91 366.74,-240.57"/>
<polygon fill="#9a32cd" stroke="#9a32cd" points="200.72,-275.11 191.16,-279.67 201.47,-282.07 200.72,-275.11"/>
<text text-anchor="middle" x="271.5" y="-279" font-family="Helvetica,sans-Serif" font-size="10.00"> DUMMYUNIONNAME2</text>
</g>
<!-- Node4 -->
<g id="node4" class="node">
<title>Node4</title>
<g id="a_node4"><a xlink:title=" ">
<polygon fill="none" stroke="#bfbfbf" points="7,-238.5 7,-257.5 191,-257.5 191,-238.5 7,-238.5"/>
<text text-anchor="middle" x="99" y="-245.5" font-family="Helvetica,sans-Serif" font-size="10.00">anonymous:DUMMYUNIONNAME3</text>
</a>
</g>
</g>
<!-- Node4&#45;&gt;Node1 -->
<g id="edge3" class="edge">
<title>Node4&#45;&gt;Node1</title>
<path fill="none" stroke="#9a32cd" stroke-dasharray="5,2" d="M201.24,-241.97C250.77,-239.02 307.61,-235.64 344.9,-233.42"/>
<polygon fill="#9a32cd" stroke="#9a32cd" points="200.89,-238.49 191.12,-242.57 201.31,-245.47 200.89,-238.49"/>
<text text-anchor="middle" x="271.5" y="-244" font-family="Helvetica,sans-Serif" font-size="10.00"> DUMMYUNIONNAME3</text>
</g>
<!-- Node5 -->
<g id="node5" class="node">
<title>Node5</title>
<g id="a_node5"><a xlink:title=" ">
<polygon fill="none" stroke="#bfbfbf" points="80,-200.5 80,-219.5 118,-219.5 118,-200.5 80,-200.5"/>
<text text-anchor="middle" x="99" y="-207.5" font-family="Helvetica,sans-Serif" font-size="10.00">long</text>
</a>
</g>
</g>
<!-- Node5&#45;&gt;Node1 -->
<g id="edge4" class="edge">
<title>Node5&#45;&gt;Node1</title>
<path fill="none" stroke="#9a32cd" stroke-dasharray="5,2" d="M128.3,-209.65C171.36,-209.45 255.87,-210.35 327,-219 332.76,-219.7 338.8,-220.67 344.73,-221.75"/>
<polygon fill="#9a32cd" stroke="#9a32cd" points="128,-206.15 118.03,-209.72 128.05,-213.15 128,-206.15"/>
<text text-anchor="middle" x="271.5" y="-222" font-family="Helvetica,sans-Serif" font-size="10.00"> lSurfPitch</text>
</g>
<!-- Node6 -->
<g id="node6" class="node">
<title>Node6</title>
<g id="a_node6"><a xlink:title=" ">
<polygon fill="none" stroke="#bfbfbf" points="68.5,-60.5 68.5,-79.5 129.5,-79.5 129.5,-60.5 68.5,-60.5"/>
<text text-anchor="middle" x="99" y="-67.5" font-family="Helvetica,sans-Serif" font-size="10.00">unsigned</text>
</a>
</g>
</g>
<!-- Node6&#45;&gt;Node1 -->
<g id="edge5" class="edge">
<title>Node6&#45;&gt;Node1</title>
<path fill="none" stroke="#9a32cd" stroke-dasharray="5,2" d="M139.72,-61.09C188.68,-52.53 272.12,-46.08 327,-86 372.66,-119.21 382.74,-194.18 384.92,-221.12"/>
<polygon fill="#9a32cd" stroke="#9a32cd" points="139.01,-57.67 129.82,-62.94 140.29,-64.55 139.01,-57.67"/>
<text text-anchor="middle" x="271.5" y="-199" font-family="Helvetica,sans-Serif" font-size="10.00"> dwSurfWidth</text>
<text text-anchor="middle" x="271.5" y="-188" font-family="Helvetica,sans-Serif" font-size="10.00">SurfaceCaps</text>
<text text-anchor="middle" x="271.5" y="-177" font-family="Helvetica,sans-Serif" font-size="10.00">dwFormatFlags</text>
<text text-anchor="middle" x="271.5" y="-166" font-family="Helvetica,sans-Serif" font-size="10.00">dwFormatBitCount</text>
<text text-anchor="middle" x="271.5" y="-155" font-family="Helvetica,sans-Serif" font-size="10.00">dwSurfHeight</text>
<text text-anchor="middle" x="271.5" y="-144" font-family="Helvetica,sans-Serif" font-size="10.00">dwYBitMask</text>
<text text-anchor="middle" x="271.5" y="-133" font-family="Helvetica,sans-Serif" font-size="10.00">dwVBitMask</text>
<text text-anchor="middle" x="271.5" y="-122" font-family="Helvetica,sans-Serif" font-size="10.00">dwGBitMask</text>
<text text-anchor="middle" x="271.5" y="-111" font-family="Helvetica,sans-Serif" font-size="10.00">dwUBitMask</text>
<text text-anchor="middle" x="271.5" y="-100" font-family="Helvetica,sans-Serif" font-size="10.00">dwBBitMask</text>
<text text-anchor="middle" x="271.5" y="-89" font-family="Helvetica,sans-Serif" font-size="10.00">...</text>
</g>
<!-- Node7 -->
<g id="node7" class="node">
<title>Node7</title>
<g id="a_node7"><a xlink:title=" ">
<polygon fill="none" stroke="#bfbfbf" points="0,-0.5 0,-41.5 198,-41.5 198,-0.5 0,-0.5"/>
<text text-anchor="start" x="8" y="-29.5" font-family="Helvetica,sans-Serif" font-size="10.00">PSecurityUserData *typedef</text>
<text text-anchor="start" x="8" y="-18.5" font-family="Helvetica,sans-Serif" font-size="10.00"> PSECPKG_EXTENDED_INFORMATION</text>
<text text-anchor="middle" x="99" y="-7.5" font-family="Helvetica,sans-Serif" font-size="10.00"> *typedef</text>
</a>
</g>
</g>
<!-- Node7&#45;&gt;Node1 -->
<g id="edge6" class="edge">
<title>Node7&#45;&gt;Node1</title>
<path fill="none" stroke="#9a32cd" stroke-dasharray="5,2" d="M208.29,-5.26C249.41,-5.08 294.19,-12.63 327,-39 385.39,-85.94 386.97,-189.46 385.97,-221.42"/>
<polygon fill="#9a32cd" stroke="#9a32cd" points="208.13,-1.76 198.2,-5.45 208.26,-8.76 208.13,-1.76"/>
<text text-anchor="middle" x="271.5" y="-42" font-family="Helvetica,sans-Serif" font-size="10.00"> lpSurface</text>
</g>
</g>
</svg>
