<?xml version="1.0" encoding="UTF-8" standalone="no"?>
<!DOCTYPE svg PUBLIC "-//W3C//DTD SVG 1.1//EN"
 "http://www.w3.org/Graphics/SVG/1.1/DTD/svg11.dtd">
<!-- Generated by graphviz version 2.43.0 (0)
 -->
<!-- Title: Tools/MinGW/include/inttypes.h Pages: 1 -->
<svg width="175pt" height="151pt"
 viewBox="0.00 0.00 174.50 151.00" xmlns="http://www.w3.org/2000/svg" xmlns:xlink="http://www.w3.org/1999/xlink">
<g id="graph0" class="graph" transform="scale(1 1) rotate(0) translate(4 147)">
<title>Tools/MinGW/include/inttypes.h</title>
<!-- Node1 -->
<g id="node1" class="node">
<title>Node1</title>
<g id="a_node1"><a xlink:title=" ">
<polygon fill="#bfbfbf" stroke="black" points="48.5,-112.5 48.5,-142.5 166.5,-142.5 166.5,-112.5 48.5,-112.5"/>
<text text-anchor="start" x="56.5" y="-130.5" font-family="Helvetica,sans-Serif" font-size="10.00">Tools/MinGW/include</text>
<text text-anchor="middle" x="107.5" y="-119.5" font-family="Helvetica,sans-Serif" font-size="10.00">/inttypes.h</text>
</a>
</g>
</g>
<!-- Node2 -->
<g id="node2" class="node">
<title>Node2</title>
<g id="a_node2"><a xlink:href="../../da/d3d/__mingw_8h.html" target="_top" xlink:title=" ">
<polygon fill="none" stroke="black" points="0,-56.5 0,-75.5 63,-75.5 63,-56.5 0,-56.5"/>
<text text-anchor="middle" x="31.5" y="-63.5" font-family="Helvetica,sans-Serif" font-size="10.00">_mingw.h</text>
</a>
</g>
</g>
<!-- Node1&#45;&gt;Node2 -->
<g id="edge1" class="edge">
<title>Node1&#45;&gt;Node2</title>
<path fill="none" stroke="midnightblue" d="M89.49,-112.4C77.76,-103.22 62.48,-91.26 50.56,-81.92"/>
<polygon fill="midnightblue" stroke="midnightblue" points="52.59,-79.07 42.56,-75.66 48.28,-84.58 52.59,-79.07"/>
</g>
<!-- Node3 -->
<g id="node3" class="node">
<title>Node3</title>
<g id="a_node3"><a xlink:href="../../dc/d69/include_2stdint_8h.html" target="_top" xlink:title=" ">
<polygon fill="none" stroke="black" points="81,-56.5 81,-75.5 134,-75.5 134,-56.5 81,-56.5"/>
<text text-anchor="middle" x="107.5" y="-63.5" font-family="Helvetica,sans-Serif" font-size="10.00">stdint.h</text>
</a>
</g>
</g>
<!-- Node1&#45;&gt;Node3 -->
<g id="edge2" class="edge">
<title>Node1&#45;&gt;Node3</title>
<path fill="none" stroke="midnightblue" d="M107.5,-112.4C107.5,-104.47 107.5,-94.46 107.5,-85.86"/>
<polygon fill="midnightblue" stroke="midnightblue" points="111,-85.66 107.5,-75.66 104,-85.66 111,-85.66"/>
</g>
<!-- Node4 -->
<g id="node4" class="node">
<title>Node4</title>
<g id="a_node4"><a xlink:href="../../d3/dce/stddef_8h.html" target="_top" xlink:title=" ">
<polygon fill="none" stroke="black" points="106.5,-0.5 106.5,-19.5 162.5,-19.5 162.5,-0.5 106.5,-0.5"/>
<text text-anchor="middle" x="134.5" y="-7.5" font-family="Helvetica,sans-Serif" font-size="10.00">stddef.h</text>
</a>
</g>
</g>
<!-- Node1&#45;&gt;Node4 -->
<g id="edge4" class="edge">
<title>Node1&#45;&gt;Node4</title>
<path fill="none" stroke="midnightblue" d="M121.24,-112.39C129.45,-102.93 139.1,-89.74 143.5,-76 148.38,-60.74 145.18,-42.63 141.31,-29.41"/>
<polygon fill="midnightblue" stroke="midnightblue" points="144.53,-28.01 138.06,-19.62 137.89,-30.21 144.53,-28.01"/>
</g>
<!-- Node3&#45;&gt;Node4 -->
<g id="edge3" class="edge">
<title>Node3&#45;&gt;Node4</title>
<path fill="none" stroke="midnightblue" d="M111.96,-56.08C115.65,-48.69 121.02,-37.95 125.59,-28.81"/>
<polygon fill="midnightblue" stroke="midnightblue" points="128.78,-30.26 130.12,-19.75 122.52,-27.13 128.78,-30.26"/>
</g>
</g>
</svg>
