<?xml version="1.0" encoding="UTF-8" standalone="no"?>
<!DOCTYPE svg PUBLIC "-//W3C//DTD SVG 1.1//EN"
 "http://www.w3.org/Graphics/SVG/1.1/DTD/svg11.dtd">
<!-- Generated by graphviz version 2.43.0 (0)
 -->
<!-- Title: _DVD_COPY_PROTECT_KEY Pages: 1 -->
<svg width="450pt" height="218pt"
 viewBox="0.00 0.00 450.00 218.00" xmlns="http://www.w3.org/2000/svg" xmlns:xlink="http://www.w3.org/1999/xlink">
<g id="graph0" class="graph" transform="scale(1 1) rotate(0) translate(4 214)">
<title>_DVD_COPY_PROTECT_KEY</title>
<!-- Node1 -->
<g id="node1" class="node">
<title>Node1</title>
<g id="a_node1"><a xlink:title=" ">
<polygon fill="#bfbfbf" stroke="black" points="293,-114.5 293,-133.5 442,-133.5 442,-114.5 293,-114.5"/>
<text text-anchor="middle" x="367.5" y="-121.5" font-family="Helvetica,sans-Serif" font-size="10.00">_DVD_COPY_PROTECT_KEY</text>
</a>
</g>
</g>
<!-- Node2 -->
<g id="node2" class="node">
<title>Node2</title>
<g id="a_node2"><a xlink:title=" ">
<polygon fill="none" stroke="#bfbfbf" points="33,-190.5 33,-209.5 165,-209.5 165,-190.5 33,-190.5"/>
<text text-anchor="middle" x="99" y="-197.5" font-family="Helvetica,sans-Serif" font-size="10.00">anonymous:Parameters</text>
</a>
</g>
</g>
<!-- Node2&#45;&gt;Node1 -->
<g id="edge1" class="edge">
<title>Node2&#45;&gt;Node1</title>
<path fill="none" stroke="#9a32cd" stroke-dasharray="5,2" d="M168.27,-188.59C200.99,-182.27 240.47,-173.36 275,-162 300,-153.78 327.8,-141.81 346.12,-133.51"/>
<polygon fill="#9a32cd" stroke="#9a32cd" points="167.52,-185.17 158.35,-190.47 168.82,-192.05 167.52,-185.17"/>
<text text-anchor="middle" x="245.5" y="-180" font-family="Helvetica,sans-Serif" font-size="10.00"> Parameters</text>
</g>
<!-- Node3 -->
<g id="node3" class="node">
<title>Node3</title>
<g id="a_node3"><a xlink:title=" ">
<polygon fill="none" stroke="#bfbfbf" points="53,-152.5 53,-171.5 145,-171.5 145,-152.5 53,-152.5"/>
<text text-anchor="middle" x="99" y="-159.5" font-family="Helvetica,sans-Serif" font-size="10.00">DVD_KEY_TYPE</text>
</a>
</g>
</g>
<!-- Node3&#45;&gt;Node1 -->
<g id="edge2" class="edge">
<title>Node3&#45;&gt;Node1</title>
<path fill="none" stroke="#9a32cd" stroke-dasharray="5,2" d="M155.34,-155.18C189.8,-150.83 235.03,-144.9 275,-139 286.31,-137.33 298.38,-135.43 309.92,-133.56"/>
<polygon fill="#9a32cd" stroke="#9a32cd" points="154.5,-151.76 145.01,-156.48 155.37,-158.71 154.5,-151.76"/>
<text text-anchor="middle" x="245.5" y="-150" font-family="Helvetica,sans-Serif" font-size="10.00"> KeyType</text>
</g>
<!-- Node4 -->
<g id="node4" class="node">
<title>Node4</title>
<g id="a_node4"><a xlink:title=" ">
<polygon fill="none" stroke="#bfbfbf" points="50,-114.5 50,-133.5 148,-133.5 148,-114.5 50,-114.5"/>
<text text-anchor="middle" x="99" y="-121.5" font-family="Helvetica,sans-Serif" font-size="10.00">LARGE_INTEGER</text>
</a>
</g>
</g>
<!-- Node4&#45;&gt;Node1 -->
<g id="edge3" class="edge">
<title>Node4&#45;&gt;Node1</title>
<path fill="none" stroke="#9a32cd" stroke-dasharray="5,2" d="M158.28,-124C197.85,-124 250.5,-124 292.95,-124"/>
<polygon fill="#9a32cd" stroke="#9a32cd" points="158.26,-120.5 148.26,-124 158.26,-127.5 158.26,-120.5"/>
<text text-anchor="middle" x="245.5" y="-127" font-family="Helvetica,sans-Serif" font-size="10.00"> TitleOffset</text>
</g>
<!-- Node5 -->
<g id="node5" class="node">
<title>Node5</title>
<g id="a_node5"><a xlink:title=" ">
<polygon fill="none" stroke="#bfbfbf" points="68.5,-76.5 68.5,-95.5 129.5,-95.5 129.5,-76.5 68.5,-76.5"/>
<text text-anchor="middle" x="99" y="-83.5" font-family="Helvetica,sans-Serif" font-size="10.00">unsigned</text>
</a>
</g>
</g>
<!-- Node5&#45;&gt;Node1 -->
<g id="edge4" class="edge">
<title>Node5&#45;&gt;Node1</title>
<path fill="none" stroke="#9a32cd" stroke-dasharray="5,2" d="M139.73,-90.86C175.23,-95.28 228.65,-102.16 275,-109 286.31,-110.67 298.38,-112.57 309.92,-114.44"/>
<polygon fill="#9a32cd" stroke="#9a32cd" points="140.12,-87.38 129.77,-89.62 139.26,-94.32 140.12,-87.38"/>
<text text-anchor="middle" x="245.5" y="-112" font-family="Helvetica,sans-Serif" font-size="10.00"> KeyData</text>
</g>
<!-- Node6 -->
<g id="node6" class="node">
<title>Node6</title>
<g id="a_node6"><a xlink:title=" ">
<polygon fill="none" stroke="#bfbfbf" points="0,-0.5 0,-41.5 198,-41.5 198,-0.5 0,-0.5"/>
<text text-anchor="start" x="8" y="-29.5" font-family="Helvetica,sans-Serif" font-size="10.00">PSecurityUserData *typedef</text>
<text text-anchor="start" x="8" y="-18.5" font-family="Helvetica,sans-Serif" font-size="10.00"> PSECPKG_EXTENDED_INFORMATION</text>
<text text-anchor="middle" x="99" y="-7.5" font-family="Helvetica,sans-Serif" font-size="10.00"> *typedef</text>
</a>
</g>
</g>
<!-- Node6&#45;&gt;Node1 -->
<g id="edge5" class="edge">
<title>Node6&#45;&gt;Node1</title>
<path fill="none" stroke="#9a32cd" stroke-dasharray="5,2" d="M208.35,-31.65C231,-36.21 254.27,-42.72 275,-52 309.5,-67.45 342.42,-98.75 357.66,-114.49"/>
<polygon fill="#9a32cd" stroke="#9a32cd" points="208.83,-28.18 198.35,-29.75 207.52,-35.06 208.83,-28.18"/>
<text text-anchor="middle" x="245.5" y="-88" font-family="Helvetica,sans-Serif" font-size="10.00"> KeyFlags</text>
<text text-anchor="middle" x="245.5" y="-77" font-family="Helvetica,sans-Serif" font-size="10.00">FileHandle</text>
<text text-anchor="middle" x="245.5" y="-66" font-family="Helvetica,sans-Serif" font-size="10.00">KeyLength</text>
<text text-anchor="middle" x="245.5" y="-55" font-family="Helvetica,sans-Serif" font-size="10.00">SessionId</text>
</g>
</g>
</svg>
