<?xml version="1.0" encoding="UTF-8" standalone="no"?>
<!DOCTYPE svg PUBLIC "-//W3C//DTD SVG 1.1//EN"
 "http://www.w3.org/Graphics/SVG/1.1/DTD/svg11.dtd">
<!-- Generated by graphviz version 2.43.0 (0)
 -->
<!-- Title: tagDVD_AudioAttributes Pages: 1 -->
<svg width="782pt" height="106pt"
 viewBox="0.00 0.00 781.50 106.00" xmlns="http://www.w3.org/2000/svg" xmlns:xlink="http://www.w3.org/1999/xlink">
<g id="graph0" class="graph" transform="scale(1 1) rotate(0) translate(4 102)">
<title>tagDVD_AudioAttributes</title>
<!-- Node1 -->
<g id="node1" class="node">
<title>Node1</title>
<g id="a_node1"><a xlink:title=" ">
<polygon fill="#bfbfbf" stroke="black" points="321,-0.5 321,-19.5 456,-19.5 456,-0.5 321,-0.5"/>
<text text-anchor="middle" x="388.5" y="-7.5" font-family="Helvetica,sans-Serif" font-size="10.00">tagDVD_AudioAttributes</text>
</a>
</g>
</g>
<!-- Node2 -->
<g id="node2" class="node">
<title>Node2</title>
<g id="a_node2"><a xlink:title=" ">
<polygon fill="none" stroke="#bfbfbf" points="0,-78.5 0,-97.5 85,-97.5 85,-78.5 0,-78.5"/>
<text text-anchor="middle" x="42.5" y="-85.5" font-family="Helvetica,sans-Serif" font-size="10.00">unsigned long</text>
</a>
</g>
</g>
<!-- Node2&#45;&gt;Node1 -->
<g id="edge1" class="edge">
<title>Node2&#45;&gt;Node1</title>
<path fill="none" stroke="#9a32cd" stroke-dasharray="5,2" d="M53.35,-69.74C61.34,-58.65 73.26,-45.03 87.5,-38 127.13,-18.43 245,-12.92 320.94,-11.45"/>
<polygon fill="#9a32cd" stroke="#9a32cd" points="50.28,-68.02 47.6,-78.27 56.09,-71.94 50.28,-68.02"/>
<text text-anchor="middle" x="113" y="-46.5" font-family="Helvetica,sans-Serif" font-size="10.00"> Language</text>
</g>
<!-- Node3 -->
<g id="node3" class="node">
<title>Node3</title>
<g id="a_node3"><a xlink:title=" ">
<polygon fill="none" stroke="#bfbfbf" points="103.5,-78.5 103.5,-97.5 167.5,-97.5 167.5,-78.5 103.5,-78.5"/>
<text text-anchor="middle" x="135.5" y="-85.5" font-family="Helvetica,sans-Serif" font-size="10.00">WINBOOL</text>
</a>
</g>
</g>
<!-- Node3&#45;&gt;Node1 -->
<g id="edge2" class="edge">
<title>Node3&#45;&gt;Node1</title>
<path fill="none" stroke="#9a32cd" stroke-dasharray="5,2" d="M139.76,-68.74C143.24,-58.03 149.3,-45.23 159.5,-38 184.73,-20.12 262.92,-13.99 320.95,-11.94"/>
<polygon fill="#9a32cd" stroke="#9a32cd" points="136.36,-67.89 137.08,-78.46 143.11,-69.75 136.36,-67.89"/>
<text text-anchor="middle" x="213.5" y="-46.5" font-family="Helvetica,sans-Serif" font-size="10.00"> fHasMultichannelInfo</text>
</g>
<!-- Node4 -->
<g id="node4" class="node">
<title>Node4</title>
<g id="a_node4"><a xlink:title=" ">
<polygon fill="none" stroke="#bfbfbf" points="200,-78.5 200,-97.5 333,-97.5 333,-78.5 200,-78.5"/>
<text text-anchor="middle" x="266.5" y="-85.5" font-family="Helvetica,sans-Serif" font-size="10.00">DVD_AUDIO_LANG_EXT</text>
</a>
</g>
</g>
<!-- Node4&#45;&gt;Node1 -->
<g id="edge3" class="edge">
<title>Node4&#45;&gt;Node1</title>
<path fill="none" stroke="#9a32cd" stroke-dasharray="5,2" d="M269.48,-68.28C272.05,-57.98 276.8,-45.76 285.5,-38 295.43,-29.14 307.92,-23.12 320.75,-19.06"/>
<polygon fill="#9a32cd" stroke="#9a32cd" points="265.98,-67.9 267.45,-78.39 272.85,-69.27 265.98,-67.9"/>
<text text-anchor="middle" x="335" y="-46.5" font-family="Helvetica,sans-Serif" font-size="10.00"> LanguageExtension</text>
</g>
<!-- Node5 -->
<g id="node5" class="node">
<title>Node5</title>
<g id="a_node5"><a xlink:title=" ">
<polygon fill="none" stroke="#bfbfbf" points="369.5,-78.5 369.5,-97.5 407.5,-97.5 407.5,-78.5 369.5,-78.5"/>
<text text-anchor="middle" x="388.5" y="-85.5" font-family="Helvetica,sans-Serif" font-size="10.00">char</text>
</a>
</g>
</g>
<!-- Node5&#45;&gt;Node1 -->
<g id="edge4" class="edge">
<title>Node5&#45;&gt;Node1</title>
<path fill="none" stroke="#9a32cd" stroke-dasharray="5,2" d="M388.5,-68.22C388.5,-52.7 388.5,-31.36 388.5,-19.62"/>
<polygon fill="#9a32cd" stroke="#9a32cd" points="385,-68.28 388.5,-78.28 392,-68.28 385,-68.28"/>
<text text-anchor="middle" x="439.5" y="-52" font-family="Helvetica,sans-Serif" font-size="10.00"> bQuantization</text>
<text text-anchor="middle" x="439.5" y="-41" font-family="Helvetica,sans-Serif" font-size="10.00">bNumberOfChannels</text>
</g>
<!-- Node6 -->
<g id="node6" class="node">
<title>Node6</title>
<g id="a_node6"><a xlink:title=" ">
<polygon fill="none" stroke="#bfbfbf" points="447.5,-78.5 447.5,-97.5 569.5,-97.5 569.5,-78.5 447.5,-78.5"/>
<text text-anchor="middle" x="508.5" y="-85.5" font-family="Helvetica,sans-Serif" font-size="10.00">DVD_AUDIO_FORMAT</text>
</a>
</g>
</g>
<!-- Node6&#45;&gt;Node1 -->
<g id="edge5" class="edge">
<title>Node6&#45;&gt;Node1</title>
<path fill="none" stroke="#9a32cd" stroke-dasharray="5,2" d="M506.33,-68.32C504.2,-58.04 499.95,-45.81 491.5,-38 481.66,-28.9 469.14,-22.79 456.23,-18.7"/>
<polygon fill="#9a32cd" stroke="#9a32cd" points="502.91,-69.08 507.92,-78.41 509.83,-67.99 502.91,-69.08"/>
<text text-anchor="middle" x="536.5" y="-46.5" font-family="Helvetica,sans-Serif" font-size="10.00"> AudioFormat</text>
</g>
<!-- Node7 -->
<g id="node7" class="node">
<title>Node7</title>
<g id="a_node7"><a xlink:title=" ">
<polygon fill="none" stroke="#bfbfbf" points="587.5,-78.5 587.5,-97.5 625.5,-97.5 625.5,-78.5 587.5,-78.5"/>
<text text-anchor="middle" x="606.5" y="-85.5" font-family="Helvetica,sans-Serif" font-size="10.00">long</text>
</a>
</g>
</g>
<!-- Node7&#45;&gt;Node1 -->
<g id="edge6" class="edge">
<title>Node7&#45;&gt;Node1</title>
<path fill="none" stroke="#9a32cd" stroke-dasharray="5,2" d="M599.01,-69.06C593.55,-58.28 585.08,-45.28 573.5,-38 554.27,-25.9 500.74,-18.96 456.18,-15.16"/>
<polygon fill="#9a32cd" stroke="#9a32cd" points="595.97,-70.82 603.32,-78.45 602.33,-67.9 595.97,-70.82"/>
<text text-anchor="middle" x="626" y="-52" font-family="Helvetica,sans-Serif" font-size="10.00"> dwReserved</text>
<text text-anchor="middle" x="626" y="-41" font-family="Helvetica,sans-Serif" font-size="10.00">dwFrequency</text>
</g>
<!-- Node8 -->
<g id="node8" class="node">
<title>Node8</title>
<g id="a_node8"><a xlink:title=" ">
<polygon fill="none" stroke="#bfbfbf" points="643.5,-78.5 643.5,-97.5 773.5,-97.5 773.5,-78.5 643.5,-78.5"/>
<text text-anchor="middle" x="708.5" y="-85.5" font-family="Helvetica,sans-Serif" font-size="10.00">DVD_AUDIO_APPMODE</text>
</a>
</g>
</g>
<!-- Node8&#45;&gt;Node1 -->
<g id="edge7" class="edge">
<title>Node8&#45;&gt;Node1</title>
<path fill="none" stroke="#9a32cd" stroke-dasharray="5,2" d="M697.31,-69.78C689.1,-58.7 676.89,-45.09 662.5,-38 627.44,-20.74 525.4,-14.51 456.24,-12.27"/>
<polygon fill="#9a32cd" stroke="#9a32cd" points="694.65,-72.08 703.23,-78.29 700.39,-68.08 694.65,-72.08"/>
<text text-anchor="middle" x="713" y="-46.5" font-family="Helvetica,sans-Serif" font-size="10.00"> AppMode</text>
</g>
</g>
</svg>
