<?xml version="1.0" encoding="UTF-8" standalone="no"?>
<!DOCTYPE svg PUBLIC "-//W3C//DTD SVG 1.1//EN"
 "http://www.w3.org/Graphics/SVG/1.1/DTD/svg11.dtd">
<!-- Generated by graphviz version 2.43.0 (0)
 -->
<!-- Title: _DEVHTINFO Pages: 1 -->
<svg width="191pt" height="117pt"
 viewBox="0.00 0.00 191.00 117.00" xmlns="http://www.w3.org/2000/svg" xmlns:xlink="http://www.w3.org/1999/xlink">
<g id="graph0" class="graph" transform="scale(1 1) rotate(0) translate(4 113)">
<title>_DEVHTINFO</title>
<!-- Node1 -->
<g id="node1" class="node">
<title>Node1</title>
<g id="a_node1"><a xlink:title=" ">
<polygon fill="#bfbfbf" stroke="black" points="40,-0.5 40,-19.5 120,-19.5 120,-0.5 40,-0.5"/>
<text text-anchor="middle" x="80" y="-7.5" font-family="Helvetica,sans-Serif" font-size="10.00">_DEVHTINFO</text>
</a>
</g>
</g>
<!-- Node2 -->
<g id="node2" class="node">
<title>Node2</title>
<g id="a_node2"><a xlink:title=" ">
<polygon fill="none" stroke="#bfbfbf" points="0,-89.5 0,-108.5 74,-108.5 74,-89.5 0,-89.5"/>
<text text-anchor="middle" x="37" y="-96.5" font-family="Helvetica,sans-Serif" font-size="10.00">COLORINFO</text>
</a>
</g>
</g>
<!-- Node2&#45;&gt;Node1 -->
<g id="edge1" class="edge">
<title>Node2&#45;&gt;Node1</title>
<path fill="none" stroke="#9a32cd" stroke-dasharray="5,2" d="M39.41,-79.26C41.6,-66.91 45.66,-50.73 53,-38 57.04,-30.99 63.36,-24.53 68.87,-19.69"/>
<polygon fill="#9a32cd" stroke="#9a32cd" points="35.92,-78.9 37.88,-89.31 42.84,-79.95 35.92,-78.9"/>
<text text-anchor="middle" x="77" y="-52" font-family="Helvetica,sans-Serif" font-size="10.00"> ColorInfo</text>
</g>
<!-- Node3 -->
<g id="node3" class="node">
<title>Node3</title>
<g id="a_node3"><a xlink:title=" ">
<polygon fill="none" stroke="#bfbfbf" points="92.5,-89.5 92.5,-108.5 153.5,-108.5 153.5,-89.5 92.5,-89.5"/>
<text text-anchor="middle" x="123" y="-96.5" font-family="Helvetica,sans-Serif" font-size="10.00">unsigned</text>
</a>
</g>
</g>
<!-- Node3&#45;&gt;Node1 -->
<g id="edge2" class="edge">
<title>Node3&#45;&gt;Node1</title>
<path fill="none" stroke="#9a32cd" stroke-dasharray="5,2" d="M117.88,-79.58C114.09,-67.37 108.33,-51.22 101,-38 97.31,-31.35 92.06,-24.6 87.74,-19.51"/>
<polygon fill="#9a32cd" stroke="#9a32cd" points="114.61,-80.88 120.78,-89.49 121.33,-78.91 114.61,-80.88"/>
<text text-anchor="middle" x="148.5" y="-63" font-family="Helvetica,sans-Serif" font-size="10.00"> DevPelsDPI</text>
<text text-anchor="middle" x="148.5" y="-52" font-family="Helvetica,sans-Serif" font-size="10.00">HTPatternSize</text>
<text text-anchor="middle" x="148.5" y="-41" font-family="Helvetica,sans-Serif" font-size="10.00">HTFlags</text>
</g>
</g>
</svg>
