<?xml version="1.0" encoding="UTF-8" standalone="no"?>
<!DOCTYPE svg PUBLIC "-//W3C//DTD SVG 1.1//EN"
 "http://www.w3.org/Graphics/SVG/1.1/DTD/svg11.dtd">
<!-- Generated by graphviz version 2.43.0 (0)
 -->
<!-- Title: _TAPE_WRITE_MARKS Pages: 1 -->
<svg width="226pt" height="128pt"
 viewBox="0.00 0.00 225.50 128.00" xmlns="http://www.w3.org/2000/svg" xmlns:xlink="http://www.w3.org/1999/xlink">
<g id="graph0" class="graph" transform="scale(1 1) rotate(0) translate(4 124)">
<title>_TAPE_WRITE_MARKS</title>
<!-- Node1 -->
<g id="node1" class="node">
<title>Node1</title>
<g id="a_node1"><a xlink:title=" ">
<polygon fill="#bfbfbf" stroke="black" points="78,-0.5 78,-19.5 201,-19.5 201,-0.5 78,-0.5"/>
<text text-anchor="middle" x="139.5" y="-7.5" font-family="Helvetica,sans-Serif" font-size="10.00">_TAPE_WRITE_MARKS</text>
</a>
</g>
</g>
<!-- Node2 -->
<g id="node2" class="node">
<title>Node2</title>
<g id="a_node2"><a xlink:title=" ">
<polygon fill="none" stroke="#bfbfbf" points="0,-78.5 0,-119.5 161,-119.5 161,-78.5 0,-78.5"/>
<text text-anchor="start" x="8" y="-107.5" font-family="Helvetica,sans-Serif" font-size="10.00">PLDAP *typedef(__cdecl</text>
<text text-anchor="start" x="8" y="-96.5" font-family="Helvetica,sans-Serif" font-size="10.00"> NOTIFYOFNEWCONNECTION)</text>
<text text-anchor="middle" x="80.5" y="-85.5" font-family="Helvetica,sans-Serif" font-size="10.00">(PLDAP</text>
</a>
</g>
</g>
<!-- Node2&#45;&gt;Node1 -->
<g id="edge1" class="edge">
<title>Node2&#45;&gt;Node1</title>
<path fill="none" stroke="#9a32cd" stroke-dasharray="5,2" d="M98.3,-69.85C104.83,-59.72 112.38,-48.26 119.5,-38 123.76,-31.87 128.76,-25.12 132.69,-19.9"/>
<polygon fill="#9a32cd" stroke="#9a32cd" points="95.3,-68.04 92.85,-78.34 101.19,-71.81 95.3,-68.04"/>
<text text-anchor="middle" x="148" y="-46.5" font-family="Helvetica,sans-Serif" font-size="10.00"> Immediate</text>
</g>
<!-- Node3 -->
<g id="node3" class="node">
<title>Node3</title>
<g id="a_node3"><a xlink:title=" ">
<polygon fill="none" stroke="#bfbfbf" points="179.5,-89.5 179.5,-108.5 217.5,-108.5 217.5,-89.5 179.5,-89.5"/>
<text text-anchor="middle" x="198.5" y="-96.5" font-family="Helvetica,sans-Serif" font-size="10.00">long</text>
</a>
</g>
</g>
<!-- Node3&#45;&gt;Node1 -->
<g id="edge2" class="edge">
<title>Node3&#45;&gt;Node1</title>
<path fill="none" stroke="#9a32cd" stroke-dasharray="5,2" d="M194.75,-79.63C191.49,-67 185.8,-50.33 176.5,-38 170.85,-30.51 162.55,-24.18 155.24,-19.55"/>
<polygon fill="#9a32cd" stroke="#9a32cd" points="191.36,-80.53 197.01,-89.49 198.18,-78.96 191.36,-80.53"/>
<text text-anchor="middle" x="202" y="-52" font-family="Helvetica,sans-Serif" font-size="10.00"> Type</text>
<text text-anchor="middle" x="202" y="-41" font-family="Helvetica,sans-Serif" font-size="10.00">Count</text>
</g>
</g>
</svg>
