<?xml version="1.0" encoding="UTF-8" standalone="no"?>
<!DOCTYPE svg PUBLIC "-//W3C//DTD SVG 1.1//EN"
 "http://www.w3.org/Graphics/SVG/1.1/DTD/svg11.dtd">
<!-- Generated by graphviz version 2.43.0 (0)
 -->
<!-- Title: Engine/AL/alc.h Pages: 1 -->
<svg width="156pt" height="84pt"
 viewBox="0.00 0.00 155.50 84.00" xmlns="http://www.w3.org/2000/svg" xmlns:xlink="http://www.w3.org/1999/xlink">
<g id="graph0" class="graph" transform="scale(1 1) rotate(0) translate(4 80)">
<title>Engine/AL/alc.h</title>
<!-- Node1 -->
<g id="node1" class="node">
<title>Node1</title>
<g id="a_node1"><a xlink:title=" ">
<polygon fill="#bfbfbf" stroke="black" points="26.5,-56.5 26.5,-75.5 117.5,-75.5 117.5,-56.5 26.5,-56.5"/>
<text text-anchor="middle" x="72" y="-63.5" font-family="Helvetica,sans-Serif" font-size="10.00">Engine/AL/alc.h</text>
</a>
</g>
</g>
<!-- Node2 -->
<g id="node2" class="node">
<title>Node2</title>
<g id="a_node2"><a xlink:href="../../da/da9/Engine_2AL_2altypes_8h.html" target="_top" xlink:title=" ">
<polygon fill="none" stroke="black" points="0,-0.5 0,-19.5 62,-19.5 62,-0.5 0,-0.5"/>
<text text-anchor="middle" x="31" y="-7.5" font-family="Helvetica,sans-Serif" font-size="10.00">altypes.h</text>
</a>
</g>
</g>
<!-- Node1&#45;&gt;Node2 -->
<g id="edge1" class="edge">
<title>Node1&#45;&gt;Node2</title>
<path fill="none" stroke="midnightblue" d="M65.23,-56.08C59.44,-48.46 50.94,-37.26 43.86,-27.94"/>
<polygon fill="midnightblue" stroke="midnightblue" points="46.48,-25.6 37.64,-19.75 40.9,-29.83 46.48,-25.6"/>
</g>
<!-- Node3 -->
<g id="node3" class="node">
<title>Node3</title>
<g id="a_node3"><a xlink:href="../../d4/d4d/Engine_2AL_2alctypes_8h.html" target="_top" xlink:title=" ">
<polygon fill="none" stroke="black" points="80.5,-0.5 80.5,-19.5 147.5,-19.5 147.5,-0.5 80.5,-0.5"/>
<text text-anchor="middle" x="114" y="-7.5" font-family="Helvetica,sans-Serif" font-size="10.00">alctypes.h</text>
</a>
</g>
</g>
<!-- Node1&#45;&gt;Node3 -->
<g id="edge2" class="edge">
<title>Node1&#45;&gt;Node3</title>
<path fill="none" stroke="midnightblue" d="M78.94,-56.08C84.93,-48.38 93.75,-37.03 101.05,-27.65"/>
<polygon fill="midnightblue" stroke="midnightblue" points="103.82,-29.79 107.19,-19.75 98.29,-25.5 103.82,-29.79"/>
</g>
</g>
</svg>
