<?xml version="1.0" encoding="UTF-8" standalone="no"?>
<!DOCTYPE svg PUBLIC "-//W3C//DTD SVG 1.1//EN"
 "http://www.w3.org/Graphics/SVG/1.1/DTD/svg11.dtd">
<!-- Generated by graphviz version 2.43.0 (0)
 -->
<!-- Title: SDL_UserEvent Pages: 1 -->
<svg width="170pt" height="106pt"
 viewBox="0.00 0.00 169.50 106.00" xmlns="http://www.w3.org/2000/svg" xmlns:xlink="http://www.w3.org/1999/xlink">
<g id="graph0" class="graph" transform="scale(1 1) rotate(0) translate(4 102)">
<title>SDL_UserEvent</title>
<!-- Node1 -->
<g id="node1" class="node">
<title>Node1</title>
<g id="a_node1"><a xlink:title="A user&#45;defined event type.">
<polygon fill="#bfbfbf" stroke="black" points="27,-0.5 27,-19.5 118,-19.5 118,-0.5 27,-0.5"/>
<text text-anchor="middle" x="72.5" y="-7.5" font-family="Helvetica,sans-Serif" font-size="10.00">SDL_UserEvent</text>
</a>
</g>
</g>
<!-- Node2 -->
<g id="node2" class="node">
<title>Node2</title>
<g id="a_node2"><a xlink:title=" ">
<polygon fill="none" stroke="#bfbfbf" points="0,-78.5 0,-97.5 29,-97.5 29,-78.5 0,-78.5"/>
<text text-anchor="middle" x="14.5" y="-85.5" font-family="Helvetica,sans-Serif" font-size="10.00">int</text>
</a>
</g>
</g>
<!-- Node2&#45;&gt;Node1 -->
<g id="edge1" class="edge">
<title>Node2&#45;&gt;Node1</title>
<path fill="none" stroke="#9a32cd" stroke-dasharray="5,2" d="M22.35,-69.33C27.14,-59.58 33.8,-47.54 41.5,-38 47.06,-31.11 54.5,-24.56 60.71,-19.64"/>
<polygon fill="#9a32cd" stroke="#9a32cd" points="19.14,-67.93 18.08,-78.48 25.48,-70.9 19.14,-67.93"/>
<text text-anchor="middle" x="55" y="-46.5" font-family="Helvetica,sans-Serif" font-size="10.00"> code</text>
</g>
<!-- Node3 -->
<g id="node3" class="node">
<title>Node3</title>
<g id="a_node3"><a xlink:title=" ">
<polygon fill="none" stroke="#bfbfbf" points="47.5,-78.5 47.5,-97.5 97.5,-97.5 97.5,-78.5 47.5,-78.5"/>
<text text-anchor="middle" x="72.5" y="-85.5" font-family="Helvetica,sans-Serif" font-size="10.00">uint8_t</text>
</a>
</g>
</g>
<!-- Node3&#45;&gt;Node1 -->
<g id="edge2" class="edge">
<title>Node3&#45;&gt;Node1</title>
<path fill="none" stroke="#9a32cd" stroke-dasharray="5,2" d="M72.5,-68.22C72.5,-52.7 72.5,-31.36 72.5,-19.62"/>
<polygon fill="#9a32cd" stroke="#9a32cd" points="69,-68.28 72.5,-78.28 76,-68.28 69,-68.28"/>
<text text-anchor="middle" x="85" y="-46.5" font-family="Helvetica,sans-Serif" font-size="10.00"> type</text>
</g>
<!-- Node4 -->
<g id="node4" class="node">
<title>Node4</title>
<g id="a_node4"><a xlink:title=" ">
<polygon fill="none" stroke="#bfbfbf" points="115.5,-78.5 115.5,-97.5 161.5,-97.5 161.5,-78.5 115.5,-78.5"/>
<text text-anchor="middle" x="138.5" y="-85.5" font-family="Helvetica,sans-Serif" font-size="10.00">void *</text>
</a>
</g>
</g>
<!-- Node4&#45;&gt;Node1 -->
<g id="edge3" class="edge">
<title>Node4&#45;&gt;Node1</title>
<path fill="none" stroke="#9a32cd" stroke-dasharray="5,2" d="M126.74,-69.94C119.79,-60.25 110.59,-48.08 101.5,-38 95.6,-31.46 88.35,-24.71 82.58,-19.6"/>
<polygon fill="#9a32cd" stroke="#9a32cd" points="124.02,-72.16 132.64,-78.32 129.75,-68.13 124.02,-72.16"/>
<text text-anchor="middle" x="134" y="-52" font-family="Helvetica,sans-Serif" font-size="10.00"> data1</text>
<text text-anchor="middle" x="134" y="-41" font-family="Helvetica,sans-Serif" font-size="10.00">data2</text>
</g>
</g>
</svg>
