<?xml version="1.0" encoding="UTF-8" standalone="no"?>
<!DOCTYPE svg PUBLIC "-//W3C//DTD SVG 1.1//EN"
 "http://www.w3.org/Graphics/SVG/1.1/DTD/svg11.dtd">
<!-- Generated by graphviz version 2.43.0 (0)
 -->
<!-- Title: _ERROR_LOG Pages: 1 -->
<svg width="262pt" height="150pt"
 viewBox="0.00 0.00 261.50 150.00" xmlns="http://www.w3.org/2000/svg" xmlns:xlink="http://www.w3.org/1999/xlink">
<g id="graph0" class="graph" transform="scale(1 1) rotate(0) translate(4 146)">
<title>_ERROR_LOG</title>
<!-- Node1 -->
<g id="node1" class="node">
<title>Node1</title>
<g id="a_node1"><a xlink:title=" ">
<polygon fill="#bfbfbf" stroke="black" points="71,-0.5 71,-19.5 152,-19.5 152,-0.5 71,-0.5"/>
<text text-anchor="middle" x="111.5" y="-7.5" font-family="Helvetica,sans-Serif" font-size="10.00">_ERROR_LOG</text>
</a>
</g>
</g>
<!-- Node2 -->
<g id="node2" class="node">
<title>Node2</title>
<g id="a_node2"><a xlink:title=" ">
<polygon fill="none" stroke="#bfbfbf" points="0,-122.5 0,-141.5 49,-141.5 49,-122.5 0,-122.5"/>
<text text-anchor="middle" x="24.5" y="-129.5" font-family="Helvetica,sans-Serif" font-size="10.00">BYTE *</text>
</a>
</g>
</g>
<!-- Node2&#45;&gt;Node1 -->
<g id="edge1" class="edge">
<title>Node2&#45;&gt;Node1</title>
<path fill="none" stroke="#9a32cd" stroke-dasharray="5,2" d="M29.5,-112.55C35.72,-92.38 47.95,-59.98 67.5,-38 74.29,-30.36 83.76,-24.17 92.17,-19.66"/>
<polygon fill="#9a32cd" stroke="#9a32cd" points="26.08,-111.78 26.66,-122.36 32.81,-113.73 26.08,-111.78"/>
<text text-anchor="middle" x="87.5" y="-68.5" font-family="Helvetica,sans-Serif" font-size="10.00"> el_data</text>
</g>
<!-- Node3 -->
<g id="node3" class="node">
<title>Node3</title>
<g id="a_node3"><a xlink:title=" ">
<polygon fill="none" stroke="#bfbfbf" points="67,-122.5 67,-141.5 156,-141.5 156,-122.5 67,-122.5"/>
<text text-anchor="middle" x="111.5" y="-129.5" font-family="Helvetica,sans-Serif" font-size="10.00">unsigned short</text>
</a>
</g>
</g>
<!-- Node3&#45;&gt;Node1 -->
<g id="edge2" class="edge">
<title>Node3&#45;&gt;Node1</title>
<path fill="none" stroke="#9a32cd" stroke-dasharray="5,2" d="M111.5,-112.15C111.5,-85.72 111.5,-38.76 111.5,-19.55"/>
<polygon fill="#9a32cd" stroke="#9a32cd" points="108,-112.37 111.5,-122.37 115,-112.37 108,-112.37"/>
<text text-anchor="middle" x="134.5" y="-74" font-family="Helvetica,sans-Serif" font-size="10.00"> el_name</text>
<text text-anchor="middle" x="134.5" y="-63" font-family="Helvetica,sans-Serif" font-size="10.00">el_text</text>
</g>
<!-- Node4 -->
<g id="node4" class="node">
<title>Node4</title>
<g id="a_node4"><a xlink:title=" ">
<polygon fill="none" stroke="#bfbfbf" points="174.5,-122.5 174.5,-141.5 212.5,-141.5 212.5,-122.5 174.5,-122.5"/>
<text text-anchor="middle" x="193.5" y="-129.5" font-family="Helvetica,sans-Serif" font-size="10.00">long</text>
</a>
</g>
</g>
<!-- Node4&#45;&gt;Node1 -->
<g id="edge3" class="edge">
<title>Node4&#45;&gt;Node1</title>
<path fill="none" stroke="#9a32cd" stroke-dasharray="5,2" d="M191.13,-112.1C187.71,-91.75 179.68,-59.43 161.5,-38 154.67,-29.95 144.82,-23.91 135.66,-19.61"/>
<polygon fill="#9a32cd" stroke="#9a32cd" points="187.71,-112.89 192.62,-122.27 194.63,-111.87 187.71,-112.89"/>
<text text-anchor="middle" x="221.5" y="-96" font-family="Helvetica,sans-Serif" font-size="10.00"> el_data_size</text>
<text text-anchor="middle" x="221.5" y="-85" font-family="Helvetica,sans-Serif" font-size="10.00">el_time</text>
<text text-anchor="middle" x="221.5" y="-74" font-family="Helvetica,sans-Serif" font-size="10.00">el_error</text>
<text text-anchor="middle" x="221.5" y="-63" font-family="Helvetica,sans-Serif" font-size="10.00">el_len</text>
<text text-anchor="middle" x="221.5" y="-52" font-family="Helvetica,sans-Serif" font-size="10.00">el_reserved</text>
<text text-anchor="middle" x="221.5" y="-41" font-family="Helvetica,sans-Serif" font-size="10.00">el_nstrings</text>
</g>
</g>
</svg>
