<?xml version="1.0" encoding="UTF-8" standalone="no"?>
<!DOCTYPE svg PUBLIC "-//W3C//DTD SVG 1.1//EN"
 "http://www.w3.org/Graphics/SVG/1.1/DTD/svg11.dtd">
<!-- Generated by graphviz version 2.43.0 (0)
 -->
<!-- Title: tagOLEUIGNRLPROPSA Pages: 1 -->
<!--zoomable 358 -->
<svg id="main" version="1.1" xmlns="http://www.w3.org/2000/svg" xmlns:xlink="http://www.w3.org/1999/xlink" xml:space="preserve" onload="init(evt)">
<style type="text/css"><![CDATA[
.edge:hover path { stroke: red; }
.edge:hover polygon { stroke: red; fill: red; }
]]></style>
<script type="text/javascript"><![CDATA[
var edges = document.getElementsByTagName('g');
if (edges && edges.length) {
  for (var i=0;i<edges.length;i++) {
    if (edges[i].id.substr(0,4)=='edge') {
      edges[i].setAttribute('class','edge');
    }
  }
}
]]></script>
        <defs>
                <circle id="rim" cx="0" cy="0" r="7"/>
                <circle id="rim2" cx="0" cy="0" r="3.5"/>
                <g id="zoomPlus">
                        <use xlink:href="#rim" fill="#404040">
                                <set attributeName="fill" to="#808080" begin="zoomplus.mouseover" end="zoomplus.mouseout"/>
                        </use>
                        <path d="M-4,0h8M0,-4v8" fill="none" stroke="white" stroke-width="1.5" pointer-events="none"/>
                </g>
                <g id="zoomMin">
                        <use xlink:href="#rim" fill="#404040">
                                <set attributeName="fill" to="#808080" begin="zoomminus.mouseover" end="zoomminus.mouseout"/>
                        </use>
                        <path d="M-4,0h8" fill="none" stroke="white" stroke-width="1.5" pointer-events="none"/>
                </g>
                <g id="dirArrow">
                        <path fill="none" stroke="white" stroke-width="1.5" d="M0,-3.0v7 M-2.5,-0.5L0,-3.0L2.5,-0.5"/>
                </g>
               <g id="resetDef">
                       <use xlink:href="#rim2" fill="#404040">
                               <set attributeName="fill" to="#808080" begin="reset.mouseover" end="reset.mouseout"/>
                       </use>
               </g>
        </defs>

<script type="text/javascript">
var viewWidth = 610;
var viewHeight = 358;
var sectionId = 'dynsection-0';
</script>
<script xlink:href="../../svgpan.js"/>
<svg id="graph" class="graph">
<g id="viewport">
<title>tagOLEUIGNRLPROPSA</title>
<!-- Node1 -->
<g id="node1" class="node">
<title>Node1</title>
<g id="a_node1"><a xlink:title=" ">
<polygon fill="#bfbfbf" stroke="black" points="474,-113.5 474,-132.5 602,-132.5 602,-113.5 474,-113.5"/>
<text text-anchor="middle" x="538" y="-120.5" font-family="Helvetica,sans-Serif" font-size="10.00">tagOLEUIGNRLPROPSA</text>
</a>
</g>
</g>
<!-- Node2 -->
<g id="node2" class="node">
<title>Node2</title>
<g id="a_node2"><a xlink:title=" ">
<polygon fill="none" stroke="#bfbfbf" points="283.5,-218.5 283.5,-237.5 351.5,-237.5 351.5,-218.5 283.5,-218.5"/>
<text text-anchor="middle" x="317.5" y="-225.5" font-family="Helvetica,sans-Serif" font-size="10.00">LONG_PTR</text>
</a>
</g>
</g>
<!-- Node2&#45;&gt;Node1 -->
<g id="edge1" class="edge">
<title>Node2&#45;&gt;Node1</title>
<path fill="none" stroke="#9a32cd" stroke-dasharray="5,2" d="M361.58,-216.95C369.76,-214.55 378.2,-211.86 386,-209 418.12,-197.22 426.12,-193.65 456,-177 480.95,-163.1 508.26,-144.02 523.94,-132.65"/>
<polygon fill="#9a32cd" stroke="#9a32cd" points="360.45,-213.63 351.78,-219.73 362.36,-220.36 360.45,-213.63"/>
<text text-anchor="middle" x="430" y="-205" font-family="Helvetica,sans-Serif" font-size="10.00"> lCustData</text>
</g>
<!-- Node3 -->
<g id="node3" class="node">
<title>Node3</title>
<g id="a_node3"><a xlink:href="../../dc/da5/structtagOLEUIOBJECTPROPSA.html" target="_top" xlink:title=" ">
<polygon fill="none" stroke="black" points="249,-180.5 249,-199.5 386,-199.5 386,-180.5 249,-180.5"/>
<text text-anchor="middle" x="317.5" y="-187.5" font-family="Helvetica,sans-Serif" font-size="10.00">tagOLEUIOBJECTPROPSA</text>
</a>
</g>
</g>
<!-- Node3&#45;&gt;Node1 -->
<g id="edge2" class="edge">
<title>Node3&#45;&gt;Node1</title>
<path fill="none" stroke="#9a32cd" stroke-dasharray="5,2" d="M359.55,-177.41C401.99,-164.4 467.33,-144.36 505.75,-132.58"/>
<polygon fill="#9a32cd" stroke="#9a32cd" points="358.34,-174.12 349.81,-180.4 360.39,-180.82 358.34,-174.12"/>
<text text-anchor="middle" x="430" y="-165" font-family="Helvetica,sans-Serif" font-size="10.00"> lpOP</text>
</g>
<!-- Node4 -->
<g id="node4" class="node">
<title>Node4</title>
<g id="a_node4"><a xlink:title=" ">
<polygon fill="none" stroke="#bfbfbf" points="32,-292.5 32,-311.5 129,-311.5 129,-292.5 32,-292.5"/>
<text text-anchor="middle" x="80.5" y="-299.5" font-family="Helvetica,sans-Serif" font-size="10.00">IOleUIObjInfoA *</text>
</a>
</g>
</g>
<!-- Node4&#45;&gt;Node3 -->
<g id="edge3" class="edge">
<title>Node4&#45;&gt;Node3</title>
<path fill="none" stroke="#9a32cd" stroke-dasharray="5,2" d="M135.79,-290.05C144.28,-287.89 152.92,-285.51 161,-283 192.84,-273.1 207.45,-279.61 231,-256 246.8,-240.16 232.48,-224.08 249,-209 253.23,-205.14 258.18,-202.06 263.44,-199.6"/>
<polygon fill="#9a32cd" stroke="#9a32cd" points="134.81,-286.69 125.94,-292.49 136.49,-293.48 134.81,-286.69"/>
<text text-anchor="middle" x="205" y="-281" font-family="Helvetica,sans-Serif" font-size="10.00"> lpObjInfo</text>
</g>
<!-- Node5 -->
<g id="node5" class="node">
<title>Node5</title>
<g id="a_node5"><a xlink:title=" ">
<polygon fill="none" stroke="#bfbfbf" points="0,-254.5 0,-273.5 161,-273.5 161,-254.5 0,-254.5"/>
<text text-anchor="middle" x="80.5" y="-261.5" font-family="Helvetica,sans-Serif" font-size="10.00">struct PROPSHEETHEADERA *</text>
</a>
</g>
</g>
<!-- Node5&#45;&gt;Node3 -->
<g id="edge4" class="edge">
<title>Node5&#45;&gt;Node3</title>
<path fill="none" stroke="#9a32cd" stroke-dasharray="5,2" d="M132.22,-252.12C141.79,-249.81 151.71,-247.37 161,-245 192.24,-237.03 202.88,-241.76 231,-226 240.6,-220.62 239.43,-214.43 249,-209 255.78,-205.16 263.39,-202.05 270.99,-199.55"/>
<polygon fill="#9a32cd" stroke="#9a32cd" points="131.32,-248.74 122.41,-254.47 132.95,-255.55 131.32,-248.74"/>
<text text-anchor="middle" x="205" y="-244" font-family="Helvetica,sans-Serif" font-size="10.00"> lpPS</text>
</g>
<!-- Node6 -->
<g id="node6" class="node">
<title>Node6</title>
<g id="a_node6"><a xlink:title=" ">
<polygon fill="none" stroke="#bfbfbf" points="5.5,-216.5 5.5,-235.5 155.5,-235.5 155.5,-216.5 5.5,-216.5"/>
<text text-anchor="middle" x="80.5" y="-223.5" font-family="Helvetica,sans-Serif" font-size="10.00">struct OLEUIVIEWPROPSA *</text>
</a>
</g>
</g>
<!-- Node6&#45;&gt;Node3 -->
<g id="edge5" class="edge">
<title>Node6&#45;&gt;Node3</title>
<path fill="none" stroke="#9a32cd" stroke-dasharray="5,2" d="M157.69,-215.03C181.21,-211.58 207.18,-207.7 231,-204 240.07,-202.59 249.67,-201.06 259.03,-199.54"/>
<polygon fill="#9a32cd" stroke="#9a32cd" points="157.16,-211.57 147.77,-216.48 158.17,-218.5 157.16,-211.57"/>
<text text-anchor="middle" x="205" y="-214" font-family="Helvetica,sans-Serif" font-size="10.00"> lpVP</text>
</g>
<!-- Node7 -->
<g id="node7" class="node">
<title>Node7</title>
<g id="a_node7"><a xlink:title=" ">
<polygon fill="none" stroke="#bfbfbf" points="4.5,-178.5 4.5,-197.5 156.5,-197.5 156.5,-178.5 4.5,-178.5"/>
<text text-anchor="middle" x="80.5" y="-185.5" font-family="Helvetica,sans-Serif" font-size="10.00">struct OLEUIGNRLPROPSA *</text>
</a>
</g>
</g>
<!-- Node7&#45;&gt;Node3 -->
<g id="edge6" class="edge">
<title>Node7&#45;&gt;Node3</title>
<path fill="none" stroke="#9a32cd" stroke-dasharray="5,2" d="M166.74,-188.73C193.8,-188.96 223.33,-189.21 248.97,-189.43"/>
<polygon fill="#9a32cd" stroke="#9a32cd" points="166.53,-185.22 156.5,-188.64 166.47,-192.22 166.53,-185.22"/>
<text text-anchor="middle" x="205" y="-192" font-family="Helvetica,sans-Serif" font-size="10.00"> lpGP</text>
</g>
<!-- Node8 -->
<g id="node8" class="node">
<title>Node8</title>
<g id="a_node8"><a xlink:title=" ">
<polygon fill="none" stroke="#bfbfbf" points="30,-140.5 30,-159.5 131,-159.5 131,-140.5 30,-140.5"/>
<text text-anchor="middle" x="80.5" y="-147.5" font-family="Helvetica,sans-Serif" font-size="10.00">IOleUILinkInfoA *</text>
</a>
</g>
</g>
<!-- Node8&#45;&gt;Node3 -->
<g id="edge7" class="edge">
<title>Node8&#45;&gt;Node3</title>
<path fill="none" stroke="#9a32cd" stroke-dasharray="5,2" d="M141.29,-158.59C168.68,-162.68 201.53,-167.81 231,-173 243.82,-175.26 257.67,-177.92 270.42,-180.46"/>
<polygon fill="#9a32cd" stroke="#9a32cd" points="141.49,-155.08 131.08,-157.07 140.46,-162 141.49,-155.08"/>
<text text-anchor="middle" x="205" y="-176" font-family="Helvetica,sans-Serif" font-size="10.00"> lpLinkInfo</text>
</g>
<!-- Node9 -->
<g id="node9" class="node">
<title>Node9</title>
<g id="a_node9"><a xlink:title=" ">
<polygon fill="none" stroke="#bfbfbf" points="61.5,-62.5 61.5,-81.5 99.5,-81.5 99.5,-62.5 61.5,-62.5"/>
<text text-anchor="middle" x="80.5" y="-69.5" font-family="Helvetica,sans-Serif" font-size="10.00">long</text>
</a>
</g>
</g>
<!-- Node9&#45;&gt;Node1 -->
<g id="edge11" class="edge">
<title>Node9&#45;&gt;Node1</title>
<path fill="none" stroke="#9a32cd" stroke-dasharray="5,2" d="M109.76,-75.16C181.8,-83.23 373.71,-104.72 473.99,-115.94"/>
<polygon fill="#9a32cd" stroke="#9a32cd" points="109.96,-71.67 99.64,-74.03 109.19,-78.62 109.96,-71.67"/>
<text text-anchor="middle" x="317.5" y="-141" font-family="Helvetica,sans-Serif" font-size="10.00"> dwReserved1</text>
<text text-anchor="middle" x="317.5" y="-130" font-family="Helvetica,sans-Serif" font-size="10.00">dwReserved2</text>
<text text-anchor="middle" x="317.5" y="-119" font-family="Helvetica,sans-Serif" font-size="10.00">dwFlags</text>
<text text-anchor="middle" x="317.5" y="-108" font-family="Helvetica,sans-Serif" font-size="10.00">cbStruct</text>
</g>
<!-- Node9&#45;&gt;Node3 -->
<g id="edge8" class="edge">
<title>Node9&#45;&gt;Node3</title>
<path fill="none" stroke="#9a32cd" stroke-dasharray="5,2" d="M110.12,-76.66C141.29,-82.57 191.92,-94.66 231,-116 263.05,-133.5 293.66,-164.63 308.01,-180.35"/>
<polygon fill="#9a32cd" stroke="#9a32cd" points="110.42,-73.16 99.96,-74.82 109.17,-80.05 110.42,-73.16"/>
<text text-anchor="middle" x="205" y="-152" font-family="Helvetica,sans-Serif" font-size="10.00"> dwLink</text>
<text text-anchor="middle" x="205" y="-141" font-family="Helvetica,sans-Serif" font-size="10.00">dwFlags</text>
<text text-anchor="middle" x="205" y="-130" font-family="Helvetica,sans-Serif" font-size="10.00">cbStruct</text>
<text text-anchor="middle" x="205" y="-119" font-family="Helvetica,sans-Serif" font-size="10.00">dwObject</text>
</g>
<!-- Node10 -->
<g id="node10" class="node">
<title>Node10</title>
<g id="a_node10"><a xlink:title=" ">
<polygon fill="none" stroke="#bfbfbf" points="7,-330.5 7,-349.5 154,-349.5 154,-330.5 7,-330.5"/>
<text text-anchor="middle" x="80.5" y="-337.5" font-family="Helvetica,sans-Serif" font-size="10.00">struct OLEUILINKPROPSA *</text>
</a>
</g>
</g>
<!-- Node10&#45;&gt;Node3 -->
<g id="edge9" class="edge">
<title>Node10&#45;&gt;Node3</title>
<path fill="none" stroke="#9a32cd" stroke-dasharray="5,2" d="M164.13,-331.22C189.04,-324.51 214.2,-312.92 231,-293 255.62,-263.81 222.87,-236.84 249,-209 252.58,-205.18 256.87,-202.11 261.51,-199.64"/>
<polygon fill="#9a32cd" stroke="#9a32cd" points="163.12,-327.87 154.24,-333.64 164.79,-334.66 163.12,-327.87"/>
<text text-anchor="middle" x="205" y="-328" font-family="Helvetica,sans-Serif" font-size="10.00"> lpLP</text>
</g>
<!-- Node11 -->
<g id="node11" class="node">
<title>Node11</title>
<g id="a_node11"><a xlink:href="../../d2/d5f/classunsigned_01int.html" target="_top" xlink:title=" ">
<polygon fill="none" stroke="black" points="279,-0.5 279,-19.5 356,-19.5 356,-0.5 279,-0.5"/>
<text text-anchor="middle" x="317.5" y="-7.5" font-family="Helvetica,sans-Serif" font-size="10.00">unsigned int</text>
</a>
</g>
</g>
<!-- Node11&#45;&gt;Node1 -->
<g id="edge10" class="edge">
<title>Node11&#45;&gt;Node1</title>
<path fill="none" stroke="#9a32cd" stroke-dasharray="5,2" d="M366.25,-9.35C393.96,-10.84 428.66,-16.06 456,-31 492.41,-50.9 520.35,-93.86 531.6,-113.21"/>
<polygon fill="#9a32cd" stroke="#9a32cd" points="366.14,-5.84 356.01,-8.94 365.86,-12.83 366.14,-5.84"/>
<text text-anchor="middle" x="430" y="-34" font-family="Helvetica,sans-Serif" font-size="10.00"> lpfnHook</text>
</g>
</g>
</svg>
        <g id="navigator" transform="translate(0 0)" fill="#404254">
                <rect fill="#f2f5e9" fill-opacity="0.5" stroke="#606060" stroke-width=".5" x="0" y="0" width="60" height="60"/>
                <use id="zoomplus" xlink:href="#zoomPlus" x="17" y="9" onmousedown="handleZoom(evt,'in')"/>
                <use id="zoomminus" xlink:href="#zoomMin" x="42" y="9" onmousedown="handleZoom(evt,'out')"/>
                <use id="reset" xlink:href="#resetDef" x="30" y="36" onmousedown="handleReset()"/>
                <g id="arrowUp" xlink:href="#dirArrow" transform="translate(30 24)" onmousedown="handlePan(0,-1)">
                  <use xlink:href="#rim" fill="#404040">
                        <set attributeName="fill" to="#808080" begin="arrowUp.mouseover" end="arrowUp.mouseout"/>
                  </use>
                  <path fill="none" stroke="white" stroke-width="1.5" d="M0,-3.0v7 M-2.5,-0.5L0,-3.0L2.5,-0.5"/>
                </g>
                <g id="arrowRight" xlink:href="#dirArrow" transform="rotate(90) translate(36 -43)" onmousedown="handlePan(1,0)">
                  <use xlink:href="#rim" fill="#404040">
                        <set attributeName="fill" to="#808080" begin="arrowRight.mouseover" end="arrowRight.mouseout"/>
                  </use>
                  <path fill="none" stroke="white" stroke-width="1.5" d="M0,-3.0v7 M-2.5,-0.5L0,-3.0L2.5,-0.5"/>
                </g>
                <g id="arrowDown" xlink:href="#dirArrow" transform="rotate(180) translate(-30 -48)" onmousedown="handlePan(0,1)">
                  <use xlink:href="#rim" fill="#404040">
                        <set attributeName="fill" to="#808080" begin="arrowDown.mouseover" end="arrowDown.mouseout"/>
                  </use>
                  <path fill="none" stroke="white" stroke-width="1.5" d="M0,-3.0v7 M-2.5,-0.5L0,-3.0L2.5,-0.5"/>
                </g>
                <g id="arrowLeft" xlink:href="#dirArrow" transform="rotate(270) translate(-36 17)" onmousedown="handlePan(-1,0)">
                  <use xlink:href="#rim" fill="#404040">
                        <set attributeName="fill" to="#808080" begin="arrowLeft.mouseover" end="arrowLeft.mouseout"/>
                  </use>
                  <path fill="none" stroke="white" stroke-width="1.5" d="M0,-3.0v7 M-2.5,-0.5L0,-3.0L2.5,-0.5"/>
                </g>
        </g>
        <svg viewBox="0 0 15 15" width="100%" height="30px" preserveAspectRatio="xMaxYMin meet">
         <g id="arrow_out" transform="scale(0.3 0.3)">
          <a xlink:href="structtagOLEUIGNRLPROPSA__coll__graph_org.svg" target="_base">
           <rect id="button" ry="5" rx="5" y="6" x="6" height="38" width="38"
                fill="#f2f5e9" fill-opacity="0.5" stroke="#606060" stroke-width="1.0"/>
           <path id="arrow"
             d="M 11.500037,31.436501 C 11.940474,20.09759 22.043105,11.32322 32.158766,21.979434 L 37.068811,17.246167 C 37.068811,17.246167 37.088388,32 37.088388,32 L 22.160133,31.978069 C 22.160133,31.978069 26.997745,27.140456 26.997745,27.140456 C 18.528582,18.264221 13.291696,25.230495 11.500037,31.436501 z"
             style="fill:#404040;"/>
          </a>
         </g>
        </svg>
</svg>
