<?xml version="1.0" encoding="UTF-8" standalone="no"?>
<!DOCTYPE svg PUBLIC "-//W3C//DTD SVG 1.1//EN"
 "http://www.w3.org/Graphics/SVG/1.1/DTD/svg11.dtd">
<!-- Generated by graphviz version 2.43.0 (0)
 -->
<!-- Title: ARRAY_INFO Pages: 1 -->
<svg width="220pt" height="139pt"
 viewBox="0.00 0.00 220.00 139.00" xmlns="http://www.w3.org/2000/svg" xmlns:xlink="http://www.w3.org/1999/xlink">
<g id="graph0" class="graph" transform="scale(1 1) rotate(0) translate(4 135)">
<title>ARRAY_INFO</title>
<!-- Node1 -->
<g id="node1" class="node">
<title>Node1</title>
<g id="a_node1"><a xlink:title=" ">
<polygon fill="#bfbfbf" stroke="black" points="19,-0.5 19,-19.5 97,-19.5 97,-0.5 19,-0.5"/>
<text text-anchor="middle" x="58" y="-7.5" font-family="Helvetica,sans-Serif" font-size="10.00">ARRAY_INFO</text>
</a>
</g>
</g>
<!-- Node2 -->
<g id="node2" class="node">
<title>Node2</title>
<g id="a_node2"><a xlink:title=" ">
<polygon fill="none" stroke="#bfbfbf" points="0,-111.5 0,-130.5 38,-130.5 38,-111.5 0,-111.5"/>
<text text-anchor="middle" x="19" y="-118.5" font-family="Helvetica,sans-Serif" font-size="10.00">long</text>
</a>
</g>
</g>
<!-- Node2&#45;&gt;Node1 -->
<g id="edge1" class="edge">
<title>Node2&#45;&gt;Node1</title>
<path fill="none" stroke="#9a32cd" stroke-dasharray="5,2" d="M14.66,-101.47C11.59,-84.05 9.65,-57.76 20,-38 24.13,-30.11 31.73,-24.02 39.05,-19.63"/>
<polygon fill="#9a32cd" stroke="#9a32cd" points="11.28,-102.39 16.72,-111.48 18.13,-100.98 11.28,-102.39"/>
<text text-anchor="middle" x="48" y="-63" font-family="Helvetica,sans-Serif" font-size="10.00"> Dimension</text>
</g>
<!-- Node3 -->
<g id="node3" class="node">
<title>Node3</title>
<g id="a_node3"><a xlink:title=" ">
<polygon fill="none" stroke="#bfbfbf" points="67.5,-111.5 67.5,-130.5 128.5,-130.5 128.5,-111.5 67.5,-111.5"/>
<text text-anchor="middle" x="98" y="-118.5" font-family="Helvetica,sans-Serif" font-size="10.00">unsigned</text>
</a>
</g>
</g>
<!-- Node3&#45;&gt;Node1 -->
<g id="edge2" class="edge">
<title>Node3&#45;&gt;Node1</title>
<path fill="none" stroke="#9a32cd" stroke-dasharray="5,2" d="M94.68,-100.75C91.32,-83.74 85.28,-58.51 76,-38 73.03,-31.43 68.53,-24.68 64.77,-19.57"/>
<polygon fill="#9a32cd" stroke="#9a32cd" points="91.33,-101.86 96.59,-111.06 98.21,-100.59 91.33,-101.86"/>
<text text-anchor="middle" x="152" y="-85" font-family="Helvetica,sans-Serif" font-size="10.00"> BufferVarianceMark</text>
<text text-anchor="middle" x="152" y="-74" font-family="Helvetica,sans-Serif" font-size="10.00">OffsetArray</text>
<text text-anchor="middle" x="152" y="-63" font-family="Helvetica,sans-Serif" font-size="10.00">BufferConformanceMark</text>
<text text-anchor="middle" x="152" y="-52" font-family="Helvetica,sans-Serif" font-size="10.00">MaxCountArray</text>
<text text-anchor="middle" x="152" y="-41" font-family="Helvetica,sans-Serif" font-size="10.00">ActualCountArray</text>
</g>
</g>
</svg>
