<?xml version="1.0" encoding="UTF-8" standalone="no"?>
<!DOCTYPE svg PUBLIC "-//W3C//DTD SVG 1.1//EN"
 "http://www.w3.org/Graphics/SVG/1.1/DTD/svg11.dtd">
<!-- Generated by graphviz version 2.43.0 (0)
 -->
<!-- Title: Tools/MinGW/include/c++/4.6.1/ext/stdio_sync_filebuf.h Pages: 1 -->
<svg width="301pt" height="218pt"
 viewBox="0.00 0.00 301.00 218.00" xmlns="http://www.w3.org/2000/svg" xmlns:xlink="http://www.w3.org/1999/xlink">
<g id="graph0" class="graph" transform="scale(1 1) rotate(0) translate(4 214)">
<title>Tools/MinGW/include/c++/4.6.1/ext/stdio_sync_filebuf.h</title>
<!-- Node1 -->
<g id="node1" class="node">
<title>Node1</title>
<g id="a_node1"><a xlink:title=" ">
<polygon fill="#bfbfbf" stroke="black" points="82.5,-168.5 82.5,-209.5 200.5,-209.5 200.5,-168.5 82.5,-168.5"/>
<text text-anchor="start" x="90.5" y="-197.5" font-family="Helvetica,sans-Serif" font-size="10.00">Tools/MinGW/include</text>
<text text-anchor="start" x="90.5" y="-186.5" font-family="Helvetica,sans-Serif" font-size="10.00">/c++/4.6.1/ext/stdio</text>
<text text-anchor="middle" x="141.5" y="-175.5" font-family="Helvetica,sans-Serif" font-size="10.00">_sync_filebuf.h</text>
</a>
</g>
</g>
<!-- Node2 -->
<g id="node2" class="node">
<title>Node2</title>
<g id="a_node2"><a xlink:title=" ">
<polygon fill="none" stroke="#bfbfbf" points="0,-112.5 0,-131.5 67,-131.5 67,-112.5 0,-112.5"/>
<text text-anchor="middle" x="33.5" y="-119.5" font-family="Helvetica,sans-Serif" font-size="10.00">streambuf</text>
</a>
</g>
</g>
<!-- Node1&#45;&gt;Node2 -->
<g id="edge1" class="edge">
<title>Node1&#45;&gt;Node2</title>
<path fill="none" stroke="midnightblue" d="M109.1,-168.5C92.22,-158.34 71.97,-146.16 56.68,-136.95"/>
<polygon fill="midnightblue" stroke="midnightblue" points="58.25,-133.81 47.88,-131.65 54.64,-139.81 58.25,-133.81"/>
</g>
<!-- Node3 -->
<g id="node3" class="node">
<title>Node3</title>
<g id="a_node3"><a xlink:title=" ">
<polygon fill="none" stroke="#bfbfbf" points="85.5,-112.5 85.5,-131.5 141.5,-131.5 141.5,-112.5 85.5,-112.5"/>
<text text-anchor="middle" x="113.5" y="-119.5" font-family="Helvetica,sans-Serif" font-size="10.00">unistd.h</text>
</a>
</g>
</g>
<!-- Node1&#45;&gt;Node3 -->
<g id="edge2" class="edge">
<title>Node1&#45;&gt;Node3</title>
<path fill="none" stroke="midnightblue" d="M133.1,-168.5C129.34,-159.78 124.94,-149.56 121.26,-141.02"/>
<polygon fill="midnightblue" stroke="midnightblue" points="124.4,-139.45 117.23,-131.65 117.97,-142.22 124.4,-139.45"/>
</g>
<!-- Node4 -->
<g id="node4" class="node">
<title>Node4</title>
<g id="a_node4"><a xlink:title=" ">
<polygon fill="none" stroke="#bfbfbf" points="146.5,-56.5 146.5,-75.5 192.5,-75.5 192.5,-56.5 146.5,-56.5"/>
<text text-anchor="middle" x="169.5" y="-63.5" font-family="Helvetica,sans-Serif" font-size="10.00">cstdio</text>
</a>
</g>
</g>
<!-- Node1&#45;&gt;Node4 -->
<g id="edge3" class="edge">
<title>Node1&#45;&gt;Node4</title>
<path fill="none" stroke="midnightblue" d="M146.06,-168.29C151.36,-145.37 160.05,-107.85 165.23,-85.47"/>
<polygon fill="midnightblue" stroke="midnightblue" points="168.67,-86.11 167.52,-75.57 161.85,-84.53 168.67,-86.11"/>
</g>
<!-- Node5 -->
<g id="node5" class="node">
<title>Node5</title>
<g id="a_node5"><a xlink:href="../../d0/da3/c_09_09io_8h.html" target="_top" xlink:title=" ">
<polygon fill="none" stroke="black" points="198,-112.5 198,-131.5 275,-131.5 275,-112.5 198,-112.5"/>
<text text-anchor="middle" x="236.5" y="-119.5" font-family="Helvetica,sans-Serif" font-size="10.00">bits/c++io.h</text>
</a>
</g>
</g>
<!-- Node1&#45;&gt;Node5 -->
<g id="edge4" class="edge">
<title>Node1&#45;&gt;Node5</title>
<path fill="none" stroke="midnightblue" d="M170,-168.5C184.57,-158.53 201.99,-146.61 215.34,-137.48"/>
<polygon fill="midnightblue" stroke="midnightblue" points="217.58,-140.19 223.85,-131.65 213.62,-134.41 217.58,-140.19"/>
</g>
<!-- Node5&#45;&gt;Node4 -->
<g id="edge5" class="edge">
<title>Node5&#45;&gt;Node4</title>
<path fill="none" stroke="midnightblue" d="M225.74,-112.32C215.73,-104.26 200.61,-92.08 188.57,-82.37"/>
<polygon fill="midnightblue" stroke="midnightblue" points="190.44,-79.38 180.46,-75.83 186.05,-84.83 190.44,-79.38"/>
</g>
<!-- Node6 -->
<g id="node6" class="node">
<title>Node6</title>
<g id="a_node6"><a xlink:href="../../d7/d2b/gthr_8h.html" target="_top" xlink:title=" ">
<polygon fill="none" stroke="black" points="211,-56.5 211,-75.5 276,-75.5 276,-56.5 211,-56.5"/>
<text text-anchor="middle" x="243.5" y="-63.5" font-family="Helvetica,sans-Serif" font-size="10.00">bits/gthr.h</text>
</a>
</g>
</g>
<!-- Node5&#45;&gt;Node6 -->
<g id="edge6" class="edge">
<title>Node5&#45;&gt;Node6</title>
<path fill="none" stroke="midnightblue" d="M237.66,-112.08C238.58,-104.93 239.92,-94.64 241.08,-85.69"/>
<polygon fill="midnightblue" stroke="midnightblue" points="244.55,-86.12 242.37,-75.75 237.61,-85.22 244.55,-86.12"/>
</g>
<!-- Node7 -->
<g id="node7" class="node">
<title>Node7</title>
<g id="a_node7"><a xlink:href="../../d6/d85/gthr-single_8h.html" target="_top" xlink:title=" ">
<polygon fill="none" stroke="black" points="194,-0.5 194,-19.5 293,-19.5 293,-0.5 194,-0.5"/>
<text text-anchor="middle" x="243.5" y="-7.5" font-family="Helvetica,sans-Serif" font-size="10.00">bits/gthr&#45;single.h</text>
</a>
</g>
</g>
<!-- Node6&#45;&gt;Node7 -->
<g id="edge7" class="edge">
<title>Node6&#45;&gt;Node7</title>
<path fill="none" stroke="midnightblue" d="M243.5,-56.08C243.5,-49.01 243.5,-38.86 243.5,-29.99"/>
<polygon fill="midnightblue" stroke="midnightblue" points="247,-29.75 243.5,-19.75 240,-29.75 247,-29.75"/>
</g>
</g>
</svg>
