<?xml version="1.0" encoding="UTF-8" standalone="no"?>
<!DOCTYPE svg PUBLIC "-//W3C//DTD SVG 1.1//EN"
 "http://www.w3.org/Graphics/SVG/1.1/DTD/svg11.dtd">
<!-- Generated by graphviz version 2.43.0 (0)
 -->
<!-- Title: Source/Engine/renderer/tr_main.c Pages: 1 -->
<svg width="1302pt" height="375pt"
 viewBox="0.00 0.00 1302.00 375.00" xmlns="http://www.w3.org/2000/svg" xmlns:xlink="http://www.w3.org/1999/xlink">
<g id="graph0" class="graph" transform="scale(1 1) rotate(0) translate(4 371)">
<title>Source/Engine/renderer/tr_main.c</title>
<!-- Node1 -->
<g id="node1" class="node">
<title>Node1</title>
<g id="a_node1"><a xlink:title=" ">
<polygon fill="#bfbfbf" stroke="black" points="584.5,-336.5 584.5,-366.5 714.5,-366.5 714.5,-336.5 584.5,-336.5"/>
<text text-anchor="start" x="592.5" y="-354.5" font-family="Helvetica,sans-Serif" font-size="10.00">Source/Engine/renderer</text>
<text text-anchor="middle" x="649.5" y="-343.5" font-family="Helvetica,sans-Serif" font-size="10.00">/tr_main.c</text>
</a>
</g>
</g>
<!-- Node2 -->
<g id="node2" class="node">
<title>Node2</title>
<g id="a_node2"><a xlink:href="../../d2/df2/tr__local_8h.html" target="_top" xlink:title=" ">
<polygon fill="none" stroke="black" points="348.5,-280.5 348.5,-299.5 410.5,-299.5 410.5,-280.5 348.5,-280.5"/>
<text text-anchor="middle" x="379.5" y="-287.5" font-family="Helvetica,sans-Serif" font-size="10.00">tr_local.h</text>
</a>
</g>
</g>
<!-- Node1&#45;&gt;Node2 -->
<g id="edge1" class="edge">
<title>Node1&#45;&gt;Node2</title>
<path fill="none" stroke="midnightblue" d="M585.86,-336.47C534.76,-325.21 464.53,-309.74 420.59,-300.06"/>
<polygon fill="midnightblue" stroke="midnightblue" points="421.08,-296.58 410.56,-297.84 419.57,-303.41 421.08,-296.58"/>
</g>
<!-- Node8 -->
<g id="node8" class="node">
<title>Node8</title>
<g id="a_node8"><a xlink:title=" ">
<polygon fill="none" stroke="#bfbfbf" points="1241,-168.5 1241,-187.5 1294,-187.5 1294,-168.5 1241,-168.5"/>
<text text-anchor="middle" x="1267.5" y="-175.5" font-family="Helvetica,sans-Serif" font-size="10.00">string.h</text>
</a>
</g>
</g>
<!-- Node1&#45;&gt;Node8 -->
<g id="edge31" class="edge">
<title>Node1&#45;&gt;Node8</title>
<path fill="none" stroke="midnightblue" d="M700.07,-336.47C821.15,-302.86 1125.43,-218.42 1230.86,-189.17"/>
<polygon fill="midnightblue" stroke="midnightblue" points="1232.02,-192.48 1240.72,-186.43 1230.14,-185.73 1232.02,-192.48"/>
</g>
<!-- Node3 -->
<g id="node3" class="node">
<title>Node3</title>
<g id="a_node3"><a xlink:href="../../de/d01/q__shared_8h.html" target="_top" xlink:title=" ">
<polygon fill="none" stroke="black" points="767,-224.5 767,-243.5 892,-243.5 892,-224.5 767,-224.5"/>
<text text-anchor="middle" x="829.5" y="-231.5" font-family="Helvetica,sans-Serif" font-size="10.00">../../Shared/q_shared.h</text>
</a>
</g>
</g>
<!-- Node2&#45;&gt;Node3 -->
<g id="edge2" class="edge">
<title>Node2&#45;&gt;Node3</title>
<path fill="none" stroke="midnightblue" d="M410.79,-285.25C481.89,-276.71 657.19,-255.68 756.96,-243.7"/>
<polygon fill="midnightblue" stroke="midnightblue" points="757.46,-247.17 766.97,-242.5 756.62,-240.22 757.46,-247.17"/>
</g>
<!-- Node16 -->
<g id="node16" class="node">
<title>Node16</title>
<g id="a_node16"><a xlink:href="../../db/d01/qfiles_8h.html" target="_top" xlink:title=" ">
<polygon fill="none" stroke="black" points="0,-224.5 0,-243.5 107,-243.5 107,-224.5 0,-224.5"/>
<text text-anchor="middle" x="53.5" y="-231.5" font-family="Helvetica,sans-Serif" font-size="10.00">../../Shared/qfiles.h</text>
</a>
</g>
</g>
<!-- Node2&#45;&gt;Node16 -->
<g id="edge15" class="edge">
<title>Node2&#45;&gt;Node16</title>
<path fill="none" stroke="midnightblue" d="M348.24,-283.82C294.62,-274.94 184.2,-256.65 114.78,-245.15"/>
<polygon fill="midnightblue" stroke="midnightblue" points="115.28,-241.69 104.84,-243.5 114.14,-248.59 115.28,-241.69"/>
</g>
<!-- Node17 -->
<g id="node17" class="node">
<title>Node17</title>
<g id="a_node17"><a xlink:href="../../d1/df7/qcommon_8h.html" target="_top" xlink:title=" ">
<polygon fill="none" stroke="black" points="125,-224.5 125,-243.5 254,-243.5 254,-224.5 125,-224.5"/>
<text text-anchor="middle" x="189.5" y="-231.5" font-family="Helvetica,sans-Serif" font-size="10.00">../../Shared/qcommon.h</text>
</a>
</g>
</g>
<!-- Node2&#45;&gt;Node17 -->
<g id="edge16" class="edge">
<title>Node2&#45;&gt;Node17</title>
<path fill="none" stroke="midnightblue" d="M349.39,-280.44C316.87,-271.2 264.92,-256.44 229.11,-246.26"/>
<polygon fill="midnightblue" stroke="midnightblue" points="230.04,-242.88 219.47,-243.52 228.13,-249.62 230.04,-242.88"/>
</g>
<!-- Node19 -->
<g id="node19" class="node">
<title>Node19</title>
<g id="a_node19"><a xlink:href="../../d3/d69/tr__public_8h.html" target="_top" xlink:title=" ">
<polygon fill="none" stroke="black" points="272.5,-224.5 272.5,-243.5 340.5,-243.5 340.5,-224.5 272.5,-224.5"/>
<text text-anchor="middle" x="306.5" y="-231.5" font-family="Helvetica,sans-Serif" font-size="10.00">tr_public.h</text>
</a>
</g>
</g>
<!-- Node2&#45;&gt;Node19 -->
<g id="edge18" class="edge">
<title>Node2&#45;&gt;Node19</title>
<path fill="none" stroke="midnightblue" d="M367.77,-280.32C356.66,-272.11 339.76,-259.6 326.52,-249.81"/>
<polygon fill="midnightblue" stroke="midnightblue" points="328.56,-246.97 318.44,-243.83 324.4,-252.59 328.56,-246.97"/>
</g>
<!-- Node21 -->
<g id="node21" class="node">
<title>Node21</title>
<g id="a_node21"><a xlink:href="../../d9/d11/qgl_8h.html" target="_top" xlink:title=" ">
<polygon fill="none" stroke="black" points="359,-224.5 359,-243.5 400,-243.5 400,-224.5 359,-224.5"/>
<text text-anchor="middle" x="379.5" y="-231.5" font-family="Helvetica,sans-Serif" font-size="10.00">qgl.h</text>
</a>
</g>
</g>
<!-- Node2&#45;&gt;Node21 -->
<g id="edge20" class="edge">
<title>Node2&#45;&gt;Node21</title>
<path fill="none" stroke="midnightblue" d="M379.5,-280.08C379.5,-273.01 379.5,-262.86 379.5,-253.99"/>
<polygon fill="midnightblue" stroke="midnightblue" points="383,-253.75 379.5,-243.75 376,-253.75 383,-253.75"/>
</g>
<!-- Node29 -->
<g id="node29" class="node">
<title>Node29</title>
<g id="a_node29"><a xlink:href="../../d8/dcf/iqm_8h.html" target="_top" xlink:title=" ">
<polygon fill="none" stroke="black" points="418.5,-224.5 418.5,-243.5 462.5,-243.5 462.5,-224.5 418.5,-224.5"/>
<text text-anchor="middle" x="440.5" y="-231.5" font-family="Helvetica,sans-Serif" font-size="10.00">iqm.h</text>
</a>
</g>
</g>
<!-- Node2&#45;&gt;Node29 -->
<g id="edge30" class="edge">
<title>Node2&#45;&gt;Node29</title>
<path fill="none" stroke="midnightblue" d="M389.3,-280.32C398.32,-272.34 411.91,-260.31 422.82,-250.65"/>
<polygon fill="midnightblue" stroke="midnightblue" points="425.35,-253.08 430.52,-243.83 420.71,-247.84 425.35,-253.08"/>
</g>
<!-- Node4 -->
<g id="node4" class="node">
<title>Node4</title>
<g id="a_node4"><a xlink:title=" ">
<polygon fill="none" stroke="#bfbfbf" points="990.5,-168.5 990.5,-187.5 1046.5,-187.5 1046.5,-168.5 990.5,-168.5"/>
<text text-anchor="middle" x="1018.5" y="-175.5" font-family="Helvetica,sans-Serif" font-size="10.00">assert.h</text>
</a>
</g>
</g>
<!-- Node3&#45;&gt;Node4 -->
<g id="edge3" class="edge">
<title>Node3&#45;&gt;Node4</title>
<path fill="none" stroke="midnightblue" d="M859.45,-224.44C892.13,-215.11 944.55,-200.13 980.2,-189.94"/>
<polygon fill="midnightblue" stroke="midnightblue" points="981.58,-193.19 990.24,-187.08 979.66,-186.46 981.58,-193.19"/>
</g>
<!-- Node5 -->
<g id="node5" class="node">
<title>Node5</title>
<g id="a_node5"><a xlink:title=" ">
<polygon fill="none" stroke="#bfbfbf" points="1065,-168.5 1065,-187.5 1116,-187.5 1116,-168.5 1065,-168.5"/>
<text text-anchor="middle" x="1090.5" y="-175.5" font-family="Helvetica,sans-Serif" font-size="10.00">math.h</text>
</a>
</g>
</g>
<!-- Node3&#45;&gt;Node5 -->
<g id="edge4" class="edge">
<title>Node3&#45;&gt;Node5</title>
<path fill="none" stroke="midnightblue" d="M876.41,-224.44C920.08,-216.3 987.21,-203.33 1054.93,-188.03"/>
<polygon fill="midnightblue" stroke="midnightblue" points="1055.95,-191.38 1064.93,-185.75 1054.4,-184.56 1055.95,-191.38"/>
</g>
<!-- Node6 -->
<g id="node6" class="node">
<title>Node6</title>
<g id="a_node6"><a xlink:title=" ">
<polygon fill="none" stroke="#bfbfbf" points="1134.5,-168.5 1134.5,-187.5 1184.5,-187.5 1184.5,-168.5 1134.5,-168.5"/>
<text text-anchor="middle" x="1159.5" y="-175.5" font-family="Helvetica,sans-Serif" font-size="10.00">stdio.h</text>
</a>
</g>
</g>
<!-- Node3&#45;&gt;Node6 -->
<g id="edge5" class="edge">
<title>Node3&#45;&gt;Node6</title>
<path fill="none" stroke="midnightblue" d="M892.22,-225.46C950.14,-218.05 1038.72,-205.57 1124.43,-188.04"/>
<polygon fill="midnightblue" stroke="midnightblue" points="1125.24,-191.44 1134.32,-185.99 1123.82,-184.59 1125.24,-191.44"/>
</g>
<!-- Node7 -->
<g id="node7" class="node">
<title>Node7</title>
<g id="a_node7"><a xlink:title=" ">
<polygon fill="none" stroke="#bfbfbf" points="794.5,-0.5 794.5,-19.5 850.5,-19.5 850.5,-0.5 794.5,-0.5"/>
<text text-anchor="middle" x="822.5" y="-7.5" font-family="Helvetica,sans-Serif" font-size="10.00">stdarg.h</text>
</a>
</g>
</g>
<!-- Node3&#45;&gt;Node7 -->
<g id="edge6" class="edge">
<title>Node3&#45;&gt;Node7</title>
<path fill="none" stroke="midnightblue" d="M892.26,-229.7C991.11,-223.85 1173.92,-210.15 1193.5,-188 1293.65,-74.71 973.86,-27.7 860.68,-14.86"/>
<polygon fill="midnightblue" stroke="midnightblue" points="861.02,-11.38 850.7,-13.76 860.25,-18.34 861.02,-11.38"/>
</g>
<!-- Node3&#45;&gt;Node8 -->
<g id="edge7" class="edge">
<title>Node3&#45;&gt;Node8</title>
<path fill="none" stroke="midnightblue" d="M892.01,-227.92C970.45,-221.09 1108.97,-207.51 1226.5,-188 1227.79,-187.79 1229.11,-187.56 1230.44,-187.32"/>
<polygon fill="midnightblue" stroke="midnightblue" points="1231.53,-190.67 1240.67,-185.31 1230.18,-183.8 1231.53,-190.67"/>
</g>
<!-- Node9 -->
<g id="node9" class="node">
<title>Node9</title>
<g id="a_node9"><a xlink:title=" ">
<polygon fill="none" stroke="#bfbfbf" points="439,-168.5 439,-187.5 492,-187.5 492,-168.5 439,-168.5"/>
<text text-anchor="middle" x="465.5" y="-175.5" font-family="Helvetica,sans-Serif" font-size="10.00">stdlib.h</text>
</a>
</g>
</g>
<!-- Node3&#45;&gt;Node9 -->
<g id="edge8" class="edge">
<title>Node3&#45;&gt;Node9</title>
<path fill="none" stroke="midnightblue" d="M766.9,-226.46C702.85,-219.31 600.3,-206.58 502.25,-187.95"/>
<polygon fill="midnightblue" stroke="midnightblue" points="502.65,-184.46 492.16,-186.01 501.32,-191.34 502.65,-184.46"/>
</g>
<!-- Node10 -->
<g id="node10" class="node">
<title>Node10</title>
<g id="a_node10"><a xlink:title=" ">
<polygon fill="none" stroke="#bfbfbf" points="510.5,-168.5 510.5,-187.5 558.5,-187.5 558.5,-168.5 510.5,-168.5"/>
<text text-anchor="middle" x="534.5" y="-175.5" font-family="Helvetica,sans-Serif" font-size="10.00">time.h</text>
</a>
</g>
</g>
<!-- Node3&#45;&gt;Node10 -->
<g id="edge9" class="edge">
<title>Node3&#45;&gt;Node10</title>
<path fill="none" stroke="midnightblue" d="M771.42,-224.49C718.34,-216.35 637.8,-203.11 568.5,-188 568.4,-187.98 568.3,-187.96 568.2,-187.93"/>
<polygon fill="midnightblue" stroke="midnightblue" points="569.12,-184.56 558.58,-185.66 567.51,-191.37 569.12,-184.56"/>
</g>
<!-- Node11 -->
<g id="node11" class="node">
<title>Node11</title>
<g id="a_node11"><a xlink:title=" ">
<polygon fill="none" stroke="#bfbfbf" points="577,-168.5 577,-187.5 630,-187.5 630,-168.5 577,-168.5"/>
<text text-anchor="middle" x="603.5" y="-175.5" font-family="Helvetica,sans-Serif" font-size="10.00">ctype.h</text>
</a>
</g>
</g>
<!-- Node3&#45;&gt;Node11 -->
<g id="edge10" class="edge">
<title>Node3&#45;&gt;Node11</title>
<path fill="none" stroke="midnightblue" d="M792.69,-224.42C756.41,-215.94 699.14,-202.46 640.1,-188.12"/>
<polygon fill="midnightblue" stroke="midnightblue" points="640.77,-184.68 630.23,-185.72 639.12,-191.49 640.77,-184.68"/>
</g>
<!-- Node12 -->
<g id="node12" class="node">
<title>Node12</title>
<g id="a_node12"><a xlink:title=" ">
<polygon fill="none" stroke="#bfbfbf" points="648,-168.5 648,-187.5 701,-187.5 701,-168.5 648,-168.5"/>
<text text-anchor="middle" x="674.5" y="-175.5" font-family="Helvetica,sans-Serif" font-size="10.00">limits.h</text>
</a>
</g>
</g>
<!-- Node3&#45;&gt;Node12 -->
<g id="edge11" class="edge">
<title>Node3&#45;&gt;Node12</title>
<path fill="none" stroke="midnightblue" d="M804.94,-224.44C778.98,-215.4 737.83,-201.06 708.7,-190.92"/>
<polygon fill="midnightblue" stroke="midnightblue" points="709.54,-187.5 698.95,-187.52 707.24,-194.11 709.54,-187.5"/>
</g>
<!-- Node13 -->
<g id="node13" class="node">
<title>Node13</title>
<g id="a_node13"><a xlink:title=" ">
<polygon fill="none" stroke="#bfbfbf" points="719,-168.5 719,-187.5 772,-187.5 772,-168.5 719,-168.5"/>
<text text-anchor="middle" x="745.5" y="-175.5" font-family="Helvetica,sans-Serif" font-size="10.00">stdint.h</text>
</a>
</g>
</g>
<!-- Node3&#45;&gt;Node13 -->
<g id="edge12" class="edge">
<title>Node3&#45;&gt;Node13</title>
<path fill="none" stroke="midnightblue" d="M816,-224.32C802.9,-215.9 782.79,-202.97 767.39,-193.07"/>
<polygon fill="midnightblue" stroke="midnightblue" points="769.27,-190.12 758.96,-187.65 765.48,-196.01 769.27,-190.12"/>
</g>
<!-- Node14 -->
<g id="node14" class="node">
<title>Node14</title>
<g id="a_node14"><a xlink:href="../../d7/de2/q__platform_8h.html" target="_top" xlink:title=" ">
<polygon fill="none" stroke="black" points="790,-168.5 790,-187.5 869,-187.5 869,-168.5 790,-168.5"/>
<text text-anchor="middle" x="829.5" y="-175.5" font-family="Helvetica,sans-Serif" font-size="10.00">q_platform.h</text>
</a>
</g>
</g>
<!-- Node3&#45;&gt;Node14 -->
<g id="edge13" class="edge">
<title>Node3&#45;&gt;Node14</title>
<path fill="none" stroke="midnightblue" d="M829.5,-224.08C829.5,-217.01 829.5,-206.86 829.5,-197.99"/>
<polygon fill="midnightblue" stroke="midnightblue" points="833,-197.75 829.5,-187.75 826,-197.75 833,-197.75"/>
</g>
<!-- Node15 -->
<g id="node15" class="node">
<title>Node15</title>
<g id="a_node15"><a xlink:href="../../d2/d56/surfaceflags_8h.html" target="_top" xlink:title=" ">
<polygon fill="none" stroke="black" points="887,-168.5 887,-187.5 972,-187.5 972,-168.5 887,-168.5"/>
<text text-anchor="middle" x="929.5" y="-175.5" font-family="Helvetica,sans-Serif" font-size="10.00">surfaceflags.h</text>
</a>
</g>
</g>
<!-- Node3&#45;&gt;Node15 -->
<g id="edge14" class="edge">
<title>Node3&#45;&gt;Node15</title>
<path fill="none" stroke="midnightblue" d="M845.57,-224.32C861.46,-215.74 886.01,-202.49 904.46,-192.52"/>
<polygon fill="midnightblue" stroke="midnightblue" points="906.34,-195.49 913.47,-187.65 903.01,-189.33 906.34,-195.49"/>
</g>
<!-- Node18 -->
<g id="node18" class="node">
<title>Node18</title>
<g id="a_node18"><a xlink:title=" ">
<polygon fill="none" stroke="#bfbfbf" points="106.5,-168.5 106.5,-187.5 236.5,-187.5 236.5,-168.5 106.5,-168.5"/>
<text text-anchor="middle" x="171.5" y="-175.5" font-family="Helvetica,sans-Serif" font-size="10.00">../../Shared/cm_public.h</text>
</a>
</g>
</g>
<!-- Node17&#45;&gt;Node18 -->
<g id="edge17" class="edge">
<title>Node17&#45;&gt;Node18</title>
<path fill="none" stroke="midnightblue" d="M186.53,-224.08C184.12,-216.85 180.64,-206.41 177.63,-197.4"/>
<polygon fill="midnightblue" stroke="midnightblue" points="180.9,-196.13 174.42,-187.75 174.26,-198.34 180.9,-196.13"/>
</g>
<!-- Node20 -->
<g id="node20" class="node">
<title>Node20</title>
<g id="a_node20"><a xlink:href="../../d3/d66/tr__types_8h.html" target="_top" xlink:title=" ">
<polygon fill="none" stroke="black" points="255,-168.5 255,-187.5 320,-187.5 320,-168.5 255,-168.5"/>
<text text-anchor="middle" x="287.5" y="-175.5" font-family="Helvetica,sans-Serif" font-size="10.00">tr_types.h</text>
</a>
</g>
</g>
<!-- Node19&#45;&gt;Node20 -->
<g id="edge19" class="edge">
<title>Node19&#45;&gt;Node20</title>
<path fill="none" stroke="midnightblue" d="M303.36,-224.08C300.82,-216.85 297.14,-206.41 293.97,-197.4"/>
<polygon fill="midnightblue" stroke="midnightblue" points="297.2,-196.02 290.58,-187.75 290.6,-198.35 297.2,-196.02"/>
</g>
<!-- Node22 -->
<g id="node22" class="node">
<title>Node22</title>
<g id="a_node22"><a xlink:href="../../d7/d69/SDL__opengl_8h.html" target="_top" xlink:title=" ">
<polygon fill="none" stroke="black" points="338,-168.5 338,-187.5 421,-187.5 421,-168.5 338,-168.5"/>
<text text-anchor="middle" x="379.5" y="-175.5" font-family="Helvetica,sans-Serif" font-size="10.00">SDL_opengl.h</text>
</a>
</g>
</g>
<!-- Node21&#45;&gt;Node22 -->
<g id="edge21" class="edge">
<title>Node21&#45;&gt;Node22</title>
<path fill="none" stroke="midnightblue" d="M379.5,-224.08C379.5,-217.01 379.5,-206.86 379.5,-197.99"/>
<polygon fill="midnightblue" stroke="midnightblue" points="383,-197.75 379.5,-187.75 376,-197.75 383,-197.75"/>
</g>
<!-- Node23 -->
<g id="node23" class="node">
<title>Node23</title>
<g id="a_node23"><a xlink:href="../../d3/dfb/SDL__config_8h.html" target="_top" xlink:title=" ">
<polygon fill="none" stroke="black" points="257,-112.5 257,-131.5 336,-131.5 336,-112.5 257,-112.5"/>
<text text-anchor="middle" x="296.5" y="-119.5" font-family="Helvetica,sans-Serif" font-size="10.00">SDL_config.h</text>
</a>
</g>
</g>
<!-- Node22&#45;&gt;Node23 -->
<g id="edge22" class="edge">
<title>Node22&#45;&gt;Node23</title>
<path fill="none" stroke="midnightblue" d="M366.16,-168.32C353.34,-159.98 333.72,-147.21 318.56,-137.35"/>
<polygon fill="midnightblue" stroke="midnightblue" points="320.09,-134.17 309.8,-131.65 316.28,-140.04 320.09,-134.17"/>
</g>
<!-- Node26 -->
<g id="node26" class="node">
<title>Node26</title>
<g id="a_node26"><a xlink:title=" ">
<polygon fill="none" stroke="#bfbfbf" points="354.5,-112.5 354.5,-131.5 404.5,-131.5 404.5,-112.5 354.5,-112.5"/>
<text text-anchor="middle" x="379.5" y="-119.5" font-family="Helvetica,sans-Serif" font-size="10.00">GL/gl.h</text>
</a>
</g>
</g>
<!-- Node22&#45;&gt;Node26 -->
<g id="edge27" class="edge">
<title>Node22&#45;&gt;Node26</title>
<path fill="none" stroke="midnightblue" d="M379.5,-168.08C379.5,-161.01 379.5,-150.86 379.5,-141.99"/>
<polygon fill="midnightblue" stroke="midnightblue" points="383,-141.75 379.5,-131.75 376,-141.75 383,-141.75"/>
</g>
<!-- Node27 -->
<g id="node27" class="node">
<title>Node27</title>
<g id="a_node27"><a xlink:title=" ">
<polygon fill="none" stroke="#bfbfbf" points="422.5,-112.5 422.5,-131.5 478.5,-131.5 478.5,-112.5 422.5,-112.5"/>
<text text-anchor="middle" x="450.5" y="-119.5" font-family="Helvetica,sans-Serif" font-size="10.00">GL/glu.h</text>
</a>
</g>
</g>
<!-- Node22&#45;&gt;Node27 -->
<g id="edge28" class="edge">
<title>Node22&#45;&gt;Node27</title>
<path fill="none" stroke="midnightblue" d="M390.91,-168.32C401.61,-160.18 417.84,-147.84 430.66,-138.09"/>
<polygon fill="midnightblue" stroke="midnightblue" points="433.04,-140.67 438.89,-131.83 428.81,-135.1 433.04,-140.67"/>
</g>
<!-- Node28 -->
<g id="node28" class="node">
<title>Node28</title>
<g id="a_node28"><a xlink:title=" ">
<polygon fill="none" stroke="#bfbfbf" points="496.5,-112.5 496.5,-131.5 552.5,-131.5 552.5,-112.5 496.5,-112.5"/>
<text text-anchor="middle" x="524.5" y="-119.5" font-family="Helvetica,sans-Serif" font-size="10.00">stddef.h</text>
</a>
</g>
</g>
<!-- Node22&#45;&gt;Node28 -->
<g id="edge29" class="edge">
<title>Node22&#45;&gt;Node28</title>
<path fill="none" stroke="midnightblue" d="M402.48,-168.44C426.66,-159.44 464.92,-145.19 492.15,-135.05"/>
<polygon fill="midnightblue" stroke="midnightblue" points="493.48,-138.29 501.63,-131.52 491.04,-131.73 493.48,-138.29"/>
</g>
<!-- Node24 -->
<g id="node24" class="node">
<title>Node24</title>
<g id="a_node24"><a xlink:href="../../d3/df1/SDL__platform_8h.html" target="_top" xlink:title=" ">
<polygon fill="none" stroke="black" points="295.5,-0.5 295.5,-19.5 387.5,-19.5 387.5,-0.5 295.5,-0.5"/>
<text text-anchor="middle" x="341.5" y="-7.5" font-family="Helvetica,sans-Serif" font-size="10.00">SDL_platform.h</text>
</a>
</g>
</g>
<!-- Node23&#45;&gt;Node24 -->
<g id="edge23" class="edge">
<title>Node23&#45;&gt;Node24</title>
<path fill="none" stroke="midnightblue" d="M298.54,-112.38C301.67,-99.74 308.17,-75.55 316.5,-56 320.53,-46.54 325.98,-36.5 330.77,-28.31"/>
<polygon fill="midnightblue" stroke="midnightblue" points="333.8,-30.06 335.95,-19.69 327.8,-26.45 333.8,-30.06"/>
</g>
<!-- Node25 -->
<g id="node25" class="node">
<title>Node25</title>
<g id="a_node25"><a xlink:href="../../da/d7f/SDL__config__minimal_8h.html" target="_top" xlink:title=" ">
<polygon fill="none" stroke="black" points="325,-56.5 325,-75.5 450,-75.5 450,-56.5 325,-56.5"/>
<text text-anchor="middle" x="387.5" y="-63.5" font-family="Helvetica,sans-Serif" font-size="10.00">SDL_config_minimal.h</text>
</a>
</g>
</g>
<!-- Node23&#45;&gt;Node25 -->
<g id="edge24" class="edge">
<title>Node23&#45;&gt;Node25</title>
<path fill="none" stroke="midnightblue" d="M311.12,-112.32C325.45,-103.82 347.51,-90.73 364.25,-80.8"/>
<polygon fill="midnightblue" stroke="midnightblue" points="366.1,-83.77 372.92,-75.65 362.53,-77.75 366.1,-83.77"/>
</g>
<!-- Node25&#45;&gt;Node7 -->
<g id="edge26" class="edge">
<title>Node25&#45;&gt;Node7</title>
<path fill="none" stroke="midnightblue" d="M450.29,-57.21C541.86,-45.84 709.29,-25.05 784.34,-15.74"/>
<polygon fill="midnightblue" stroke="midnightblue" points="784.8,-19.21 794.3,-14.5 783.94,-12.26 784.8,-19.21"/>
</g>
<!-- Node25&#45;&gt;Node24 -->
<g id="edge25" class="edge">
<title>Node25&#45;&gt;Node24</title>
<path fill="none" stroke="midnightblue" d="M379.9,-56.08C373.27,-48.3 363.48,-36.8 355.44,-27.37"/>
<polygon fill="midnightblue" stroke="midnightblue" points="358.1,-25.09 348.95,-19.75 352.77,-29.63 358.1,-25.09"/>
</g>
</g>
</svg>
