<?xml version="1.0" encoding="UTF-8" standalone="no"?>
<!DOCTYPE svg PUBLIC "-//W3C//DTD SVG 1.1//EN"
 "http://www.w3.org/Graphics/SVG/1.1/DTD/svg11.dtd">
<!-- Generated by graphviz version 2.43.0 (0)
 -->
<!-- Title: serverBan_t Pages: 1 -->
<svg width="262pt" height="195pt"
 viewBox="0.00 0.00 261.50 195.00" xmlns="http://www.w3.org/2000/svg" xmlns:xlink="http://www.w3.org/1999/xlink">
<g id="graph0" class="graph" transform="scale(1 1) rotate(0) translate(4 191)">
<title>serverBan_t</title>
<!-- Node1 -->
<g id="node1" class="node">
<title>Node1</title>
<g id="a_node1"><a xlink:title=" ">
<polygon fill="#bfbfbf" stroke="black" points="107,-0.5 107,-19.5 182,-19.5 182,-0.5 107,-0.5"/>
<text text-anchor="middle" x="144.5" y="-7.5" font-family="Helvetica,sans-Serif" font-size="10.00">serverBan_t</text>
</a>
</g>
</g>
<!-- Node2 -->
<g id="node2" class="node">
<title>Node2</title>
<g id="a_node2"><a xlink:href="../../dc/d06/structnetadr__t.html" target="_top" xlink:title=" ">
<polygon fill="none" stroke="black" points="55,-67.5 55,-86.5 112,-86.5 112,-67.5 55,-67.5"/>
<text text-anchor="middle" x="83.5" y="-74.5" font-family="Helvetica,sans-Serif" font-size="10.00">netadr_t</text>
</a>
</g>
</g>
<!-- Node2&#45;&gt;Node1 -->
<g id="edge1" class="edge">
<title>Node2&#45;&gt;Node1</title>
<path fill="none" stroke="#9a32cd" stroke-dasharray="5,2" d="M98.86,-59.63C110.79,-46.92 126.86,-29.8 136.4,-19.63"/>
<polygon fill="#9a32cd" stroke="#9a32cd" points="96.02,-57.55 91.73,-67.23 101.12,-62.34 96.02,-57.55"/>
<text text-anchor="middle" x="124" y="-41" font-family="Helvetica,sans-Serif" font-size="10.00"> ip</text>
</g>
<!-- Node3 -->
<g id="node3" class="node">
<title>Node3</title>
<g id="a_node3"><a xlink:title=" ">
<polygon fill="none" stroke="#bfbfbf" points="0,-167.5 0,-186.5 79,-186.5 79,-167.5 0,-167.5"/>
<text text-anchor="middle" x="39.5" y="-174.5" font-family="Helvetica,sans-Serif" font-size="10.00">netadrtype_t</text>
</a>
</g>
</g>
<!-- Node3&#45;&gt;Node2 -->
<g id="edge2" class="edge">
<title>Node3&#45;&gt;Node2</title>
<path fill="none" stroke="#9a32cd" stroke-dasharray="5,2" d="M47.54,-158.1C57.06,-136.89 72.53,-102.44 79.67,-86.54"/>
<polygon fill="#9a32cd" stroke="#9a32cd" points="44.31,-156.75 43.4,-167.3 50.69,-159.61 44.31,-156.75"/>
<text text-anchor="middle" x="83" y="-124.5" font-family="Helvetica,sans-Serif" font-size="10.00"> type</text>
</g>
<!-- Node4 -->
<g id="node4" class="node">
<title>Node4</title>
<g id="a_node4"><a xlink:title=" ">
<polygon fill="none" stroke="#bfbfbf" points="97,-167.5 97,-186.5 158,-186.5 158,-167.5 97,-167.5"/>
<text text-anchor="middle" x="127.5" y="-174.5" font-family="Helvetica,sans-Serif" font-size="10.00">unsigned</text>
</a>
</g>
</g>
<!-- Node4&#45;&gt;Node2 -->
<g id="edge3" class="edge">
<title>Node4&#45;&gt;Node2</title>
<path fill="none" stroke="#9a32cd" stroke-dasharray="5,2" d="M121.04,-157.27C115.81,-142.75 107.95,-122.26 99.5,-105 96.43,-98.74 92.43,-91.99 89.2,-86.8"/>
<polygon fill="#9a32cd" stroke="#9a32cd" points="117.87,-158.79 124.49,-167.06 124.47,-156.47 117.87,-158.79"/>
<text text-anchor="middle" x="139" y="-141" font-family="Helvetica,sans-Serif" font-size="10.00"> port</text>
<text text-anchor="middle" x="139" y="-130" font-family="Helvetica,sans-Serif" font-size="10.00">ip</text>
<text text-anchor="middle" x="139" y="-119" font-family="Helvetica,sans-Serif" font-size="10.00">ip6</text>
<text text-anchor="middle" x="139" y="-108" font-family="Helvetica,sans-Serif" font-size="10.00">scope_id</text>
</g>
<!-- Node5 -->
<g id="node5" class="node">
<title>Node5</title>
<g id="a_node5"><a xlink:title=" ">
<polygon fill="none" stroke="#bfbfbf" points="130,-67.5 130,-86.5 159,-86.5 159,-67.5 130,-67.5"/>
<text text-anchor="middle" x="144.5" y="-74.5" font-family="Helvetica,sans-Serif" font-size="10.00">int</text>
</a>
</g>
</g>
<!-- Node5&#45;&gt;Node1 -->
<g id="edge4" class="edge">
<title>Node5&#45;&gt;Node1</title>
<path fill="none" stroke="#9a32cd" stroke-dasharray="5,2" d="M144.5,-57.04C144.5,-44.67 144.5,-29.12 144.5,-19.63"/>
<polygon fill="#9a32cd" stroke="#9a32cd" points="141,-57.23 144.5,-67.23 148,-57.23 141,-57.23"/>
<text text-anchor="middle" x="163" y="-41" font-family="Helvetica,sans-Serif" font-size="10.00"> subnet</text>
</g>
<!-- Node6 -->
<g id="node6" class="node">
<title>Node6</title>
<g id="a_node6"><a xlink:title=" ">
<polygon fill="none" stroke="#bfbfbf" points="177.5,-67.5 177.5,-86.5 239.5,-86.5 239.5,-67.5 177.5,-67.5"/>
<text text-anchor="middle" x="208.5" y="-74.5" font-family="Helvetica,sans-Serif" font-size="10.00">qboolean</text>
</a>
</g>
</g>
<!-- Node6&#45;&gt;Node1 -->
<g id="edge5" class="edge">
<title>Node6&#45;&gt;Node1</title>
<path fill="none" stroke="#9a32cd" stroke-dasharray="5,2" d="M199.92,-58.25C196.1,-51.44 191.18,-43.9 185.5,-38 178.41,-30.63 168.95,-24.24 160.91,-19.53"/>
<polygon fill="#9a32cd" stroke="#9a32cd" points="196.97,-60.16 204.68,-67.42 203.18,-56.93 196.97,-60.16"/>
<text text-anchor="middle" x="223.5" y="-41" font-family="Helvetica,sans-Serif" font-size="10.00"> isexception</text>
</g>
</g>
</svg>
