<?xml version="1.0" encoding="UTF-8" standalone="no"?>
<!DOCTYPE svg PUBLIC "-//W3C//DTD SVG 1.1//EN"
 "http://www.w3.org/Graphics/SVG/1.1/DTD/svg11.dtd">
<!-- Generated by graphviz version 2.43.0 (0)
 -->
<!-- Title: _JOB_INFO_1A Pages: 1 -->
<svg width="289pt" height="150pt"
 viewBox="0.00 0.00 289.00 150.00" xmlns="http://www.w3.org/2000/svg" xmlns:xlink="http://www.w3.org/1999/xlink">
<g id="graph0" class="graph" transform="scale(1 1) rotate(0) translate(4 146)">
<title>_JOB_INFO_1A</title>
<!-- Node1 -->
<g id="node1" class="node">
<title>Node1</title>
<g id="a_node1"><a xlink:title=" ">
<polygon fill="#bfbfbf" stroke="black" points="74,-0.5 74,-19.5 160,-19.5 160,-0.5 74,-0.5"/>
<text text-anchor="middle" x="117" y="-7.5" font-family="Helvetica,sans-Serif" font-size="10.00">_JOB_INFO_1A</text>
</a>
</g>
</g>
<!-- Node2 -->
<g id="node2" class="node">
<title>Node2</title>
<g id="a_node2"><a xlink:title=" ">
<polygon fill="none" stroke="#bfbfbf" points="0,-122.5 0,-141.5 80,-141.5 80,-122.5 0,-122.5"/>
<text text-anchor="middle" x="40" y="-129.5" font-family="Helvetica,sans-Serif" font-size="10.00">SYSTEMTIME</text>
</a>
</g>
</g>
<!-- Node2&#45;&gt;Node1 -->
<g id="edge1" class="edge">
<title>Node2&#45;&gt;Node1</title>
<path fill="none" stroke="#9a32cd" stroke-dasharray="5,2" d="M39.11,-112.05C39.14,-91.65 42.19,-59.29 59,-38 65.68,-29.54 75.62,-23.62 85.4,-19.52"/>
<polygon fill="#9a32cd" stroke="#9a32cd" points="35.61,-112.33 39.34,-122.25 42.61,-112.17 35.61,-112.33"/>
<text text-anchor="middle" x="86" y="-68.5" font-family="Helvetica,sans-Serif" font-size="10.00"> Submitted</text>
</g>
<!-- Node3 -->
<g id="node3" class="node">
<title>Node3</title>
<g id="a_node3"><a xlink:title=" ">
<polygon fill="none" stroke="#bfbfbf" points="98,-122.5 98,-141.5 136,-141.5 136,-122.5 98,-122.5"/>
<text text-anchor="middle" x="117" y="-129.5" font-family="Helvetica,sans-Serif" font-size="10.00">char</text>
</a>
</g>
</g>
<!-- Node3&#45;&gt;Node1 -->
<g id="edge2" class="edge">
<title>Node3&#45;&gt;Node1</title>
<path fill="none" stroke="#9a32cd" stroke-dasharray="5,2" d="M117,-112.15C117,-85.72 117,-38.76 117,-19.55"/>
<polygon fill="#9a32cd" stroke="#9a32cd" points="113.5,-112.37 117,-122.37 120.5,-112.37 113.5,-112.37"/>
<text text-anchor="middle" x="155.5" y="-96" font-family="Helvetica,sans-Serif" font-size="10.00"> pStatus</text>
<text text-anchor="middle" x="155.5" y="-85" font-family="Helvetica,sans-Serif" font-size="10.00">pPrinterName</text>
<text text-anchor="middle" x="155.5" y="-74" font-family="Helvetica,sans-Serif" font-size="10.00">pMachineName</text>
<text text-anchor="middle" x="155.5" y="-63" font-family="Helvetica,sans-Serif" font-size="10.00">pDatatype</text>
<text text-anchor="middle" x="155.5" y="-52" font-family="Helvetica,sans-Serif" font-size="10.00">pDocument</text>
<text text-anchor="middle" x="155.5" y="-41" font-family="Helvetica,sans-Serif" font-size="10.00">pUserName</text>
</g>
<!-- Node4 -->
<g id="node4" class="node">
<title>Node4</title>
<g id="a_node4"><a xlink:title=" ">
<polygon fill="none" stroke="#bfbfbf" points="186.5,-122.5 186.5,-141.5 247.5,-141.5 247.5,-122.5 186.5,-122.5"/>
<text text-anchor="middle" x="217" y="-129.5" font-family="Helvetica,sans-Serif" font-size="10.00">unsigned</text>
</a>
</g>
</g>
<!-- Node4&#45;&gt;Node1 -->
<g id="edge3" class="edge">
<title>Node4&#45;&gt;Node1</title>
<path fill="none" stroke="#9a32cd" stroke-dasharray="5,2" d="M217.6,-112.26C217.25,-91.56 213.49,-58.46 195,-38 185.97,-28.01 173.05,-21.71 160.32,-17.75"/>
<polygon fill="#9a32cd" stroke="#9a32cd" points="214.1,-112.29 217.53,-122.32 221.1,-112.35 214.1,-112.29"/>
<text text-anchor="middle" x="249" y="-96" font-family="Helvetica,sans-Serif" font-size="10.00"> JobId</text>
<text text-anchor="middle" x="249" y="-85" font-family="Helvetica,sans-Serif" font-size="10.00">TotalPages</text>
<text text-anchor="middle" x="249" y="-74" font-family="Helvetica,sans-Serif" font-size="10.00">Priority</text>
<text text-anchor="middle" x="249" y="-63" font-family="Helvetica,sans-Serif" font-size="10.00">Position</text>
<text text-anchor="middle" x="249" y="-52" font-family="Helvetica,sans-Serif" font-size="10.00">PagesPrinted</text>
<text text-anchor="middle" x="249" y="-41" font-family="Helvetica,sans-Serif" font-size="10.00">Status</text>
</g>
</g>
</svg>
