<?xml version="1.0" encoding="UTF-8" standalone="no"?>
<!DOCTYPE svg PUBLIC "-//W3C//DTD SVG 1.1//EN"
 "http://www.w3.org/Graphics/SVG/1.1/DTD/svg11.dtd">
<!-- Generated by graphviz version 2.43.0 (0)
 -->
<!-- Title: _FILE_MAILSLOT_QUERY_INFORMATION Pages: 1 -->
<svg width="325pt" height="161pt"
 viewBox="0.00 0.00 325.00 161.00" xmlns="http://www.w3.org/2000/svg" xmlns:xlink="http://www.w3.org/1999/xlink">
<g id="graph0" class="graph" transform="scale(1 1) rotate(0) translate(4 157)">
<title>_FILE_MAILSLOT_QUERY_INFORMATION</title>
<!-- Node1 -->
<g id="node1" class="node">
<title>Node1</title>
<g id="a_node1"><a xlink:title=" ">
<polygon fill="#bfbfbf" stroke="black" points="65,-0.5 65,-30.5 199,-30.5 199,-0.5 65,-0.5"/>
<text text-anchor="start" x="73" y="-18.5" font-family="Helvetica,sans-Serif" font-size="10.00">_FILE_MAILSLOT_QUERY</text>
<text text-anchor="middle" x="132" y="-7.5" font-family="Helvetica,sans-Serif" font-size="10.00">_INFORMATION</text>
</a>
</g>
</g>
<!-- Node2 -->
<g id="node2" class="node">
<title>Node2</title>
<g id="a_node2"><a xlink:title=" ">
<polygon fill="none" stroke="#bfbfbf" points="0,-122.5 0,-141.5 98,-141.5 98,-122.5 0,-122.5"/>
<text text-anchor="middle" x="49" y="-129.5" font-family="Helvetica,sans-Serif" font-size="10.00">LARGE_INTEGER</text>
</a>
</g>
</g>
<!-- Node2&#45;&gt;Node1 -->
<g id="edge1" class="edge">
<title>Node2&#45;&gt;Node1</title>
<path fill="none" stroke="#9a32cd" stroke-dasharray="5,2" d="M61.23,-114.13C77.58,-91.58 106.28,-51.98 121.63,-30.81"/>
<polygon fill="#9a32cd" stroke="#9a32cd" points="58.27,-112.24 55.24,-122.39 63.94,-116.35 58.27,-112.24"/>
<text text-anchor="middle" x="142.5" y="-68.5" font-family="Helvetica,sans-Serif" font-size="10.00"> ReadTimeout</text>
</g>
<!-- Node3 -->
<g id="node3" class="node">
<title>Node3</title>
<g id="a_node3"><a xlink:title=" ">
<polygon fill="none" stroke="#bfbfbf" points="116,-111.5 116,-152.5 314,-152.5 314,-111.5 116,-111.5"/>
<text text-anchor="start" x="124" y="-140.5" font-family="Helvetica,sans-Serif" font-size="10.00">PSecurityUserData *typedef</text>
<text text-anchor="start" x="124" y="-129.5" font-family="Helvetica,sans-Serif" font-size="10.00"> PSECPKG_EXTENDED_INFORMATION</text>
<text text-anchor="middle" x="215" y="-118.5" font-family="Helvetica,sans-Serif" font-size="10.00"> *typedef</text>
</a>
</g>
</g>
<!-- Node3&#45;&gt;Node1 -->
<g id="edge2" class="edge">
<title>Node3&#45;&gt;Node1</title>
<path fill="none" stroke="#9a32cd" stroke-dasharray="5,2" d="M207.45,-101.56C202.09,-84.84 193.58,-64.27 181,-49 175.03,-41.75 167.02,-35.52 159.21,-30.5"/>
<polygon fill="#9a32cd" stroke="#9a32cd" points="204.17,-102.81 210.39,-111.39 210.88,-100.81 204.17,-102.81"/>
<text text-anchor="middle" x="260" y="-85" font-family="Helvetica,sans-Serif" font-size="10.00"> MessagesAvailable</text>
<text text-anchor="middle" x="260" y="-74" font-family="Helvetica,sans-Serif" font-size="10.00">MaximumMessageSize</text>
<text text-anchor="middle" x="260" y="-63" font-family="Helvetica,sans-Serif" font-size="10.00">NextMessageSize</text>
<text text-anchor="middle" x="260" y="-52" font-family="Helvetica,sans-Serif" font-size="10.00">MailslotQuota</text>
</g>
</g>
</svg>
