<?xml version="1.0" encoding="UTF-8" standalone="no"?>
<!DOCTYPE svg PUBLIC "-//W3C//DTD SVG 1.1//EN"
 "http://www.w3.org/Graphics/SVG/1.1/DTD/svg11.dtd">
<!-- Generated by graphviz version 2.43.0 (0)
 -->
<!-- Title: glyphInfo_t Pages: 1 -->
<svg width="225pt" height="172pt"
 viewBox="0.00 0.00 225.00 172.00" xmlns="http://www.w3.org/2000/svg" xmlns:xlink="http://www.w3.org/1999/xlink">
<g id="graph0" class="graph" transform="scale(1 1) rotate(0) translate(4 168)">
<title>glyphInfo_t</title>
<!-- Node1 -->
<g id="node1" class="node">
<title>Node1</title>
<g id="a_node1"><a xlink:title=" ">
<polygon fill="#bfbfbf" stroke="black" points="72.5,-0.5 72.5,-19.5 143.5,-19.5 143.5,-0.5 72.5,-0.5"/>
<text text-anchor="middle" x="108" y="-7.5" font-family="Helvetica,sans-Serif" font-size="10.00">glyphInfo_t</text>
</a>
</g>
</g>
<!-- Node2 -->
<g id="node2" class="node">
<title>Node2</title>
<g id="a_node2"><a xlink:title=" ">
<polygon fill="none" stroke="#bfbfbf" points="0,-144.5 0,-163.5 38,-163.5 38,-144.5 0,-144.5"/>
<text text-anchor="middle" x="19" y="-151.5" font-family="Helvetica,sans-Serif" font-size="10.00">char</text>
</a>
</g>
</g>
<!-- Node2&#45;&gt;Node1 -->
<g id="edge1" class="edge">
<title>Node2&#45;&gt;Node1</title>
<path fill="none" stroke="#9a32cd" stroke-dasharray="5,2" d="M16.8,-134.1C14.97,-109.24 15.61,-65.5 38,-38 46.55,-27.49 59.71,-21.07 72.32,-17.14"/>
<polygon fill="#9a32cd" stroke="#9a32cd" points="13.34,-134.73 17.77,-144.35 20.31,-134.06 13.34,-134.73"/>
<text text-anchor="middle" x="71" y="-79.5" font-family="Helvetica,sans-Serif" font-size="10.00"> shaderName</text>
</g>
<!-- Node3 -->
<g id="node3" class="node">
<title>Node3</title>
<g id="a_node3"><a xlink:href="../../d4/dc3/classfloat.html" target="_top" xlink:title=" ">
<polygon fill="none" stroke="black" points="89,-144.5 89,-163.5 127,-163.5 127,-144.5 89,-144.5"/>
<text text-anchor="middle" x="108" y="-151.5" font-family="Helvetica,sans-Serif" font-size="10.00">float</text>
</a>
</g>
</g>
<!-- Node3&#45;&gt;Node1 -->
<g id="edge2" class="edge">
<title>Node3&#45;&gt;Node1</title>
<path fill="none" stroke="#9a32cd" stroke-dasharray="5,2" d="M108,-134.11C108,-102.93 108,-41.93 108,-19.52"/>
<polygon fill="#9a32cd" stroke="#9a32cd" points="104.5,-134.12 108,-144.12 111.5,-134.12 104.5,-134.12"/>
<text text-anchor="middle" x="114.5" y="-96" font-family="Helvetica,sans-Serif" font-size="10.00"> t2</text>
<text text-anchor="middle" x="114.5" y="-85" font-family="Helvetica,sans-Serif" font-size="10.00">s2</text>
<text text-anchor="middle" x="114.5" y="-74" font-family="Helvetica,sans-Serif" font-size="10.00">s</text>
<text text-anchor="middle" x="114.5" y="-63" font-family="Helvetica,sans-Serif" font-size="10.00">t</text>
</g>
<!-- Node4 -->
<g id="node4" class="node">
<title>Node4</title>
<g id="a_node4"><a xlink:title=" ">
<polygon fill="none" stroke="#bfbfbf" points="145.5,-144.5 145.5,-163.5 174.5,-163.5 174.5,-144.5 145.5,-144.5"/>
<text text-anchor="middle" x="160" y="-151.5" font-family="Helvetica,sans-Serif" font-size="10.00">int</text>
</a>
</g>
</g>
<!-- Node4&#45;&gt;Node1 -->
<g id="edge3" class="edge">
<title>Node4&#45;&gt;Node1</title>
<path fill="none" stroke="#9a32cd" stroke-dasharray="5,2" d="M155.98,-134.48C150.58,-111.28 139.91,-70.62 125,-38 122.05,-31.55 117.8,-24.8 114.29,-19.66"/>
<polygon fill="#9a32cd" stroke="#9a32cd" points="152.59,-135.36 158.2,-144.35 159.42,-133.82 152.59,-135.36"/>
<text text-anchor="middle" x="185" y="-118" font-family="Helvetica,sans-Serif" font-size="10.00"> imageWidth</text>
<text text-anchor="middle" x="185" y="-107" font-family="Helvetica,sans-Serif" font-size="10.00">glyph</text>
<text text-anchor="middle" x="185" y="-96" font-family="Helvetica,sans-Serif" font-size="10.00">height</text>
<text text-anchor="middle" x="185" y="-85" font-family="Helvetica,sans-Serif" font-size="10.00">pitch</text>
<text text-anchor="middle" x="185" y="-74" font-family="Helvetica,sans-Serif" font-size="10.00">imageHeight</text>
<text text-anchor="middle" x="185" y="-63" font-family="Helvetica,sans-Serif" font-size="10.00">bottom</text>
<text text-anchor="middle" x="185" y="-52" font-family="Helvetica,sans-Serif" font-size="10.00">xSkip</text>
<text text-anchor="middle" x="185" y="-41" font-family="Helvetica,sans-Serif" font-size="10.00">top</text>
</g>
</g>
</svg>
