<?xml version="1.0" encoding="UTF-8" standalone="no"?>
<!DOCTYPE svg PUBLIC "-//W3C//DTD SVG 1.1//EN"
 "http://www.w3.org/Graphics/SVG/1.1/DTD/svg11.dtd">
<!-- Generated by graphviz version 2.43.0 (0)
 -->
<!-- Title: Tools/MinGW/include/ws2tcpip.h Pages: 1 -->
<!--zoomable 375 -->
<svg id="main" version="1.1" xmlns="http://www.w3.org/2000/svg" xmlns:xlink="http://www.w3.org/1999/xlink" xml:space="preserve" onload="init(evt)">
<style type="text/css"><![CDATA[
.edge:hover path { stroke: red; }
.edge:hover polygon { stroke: red; fill: red; }
]]></style>
<script type="text/javascript"><![CDATA[
var edges = document.getElementsByTagName('g');
if (edges && edges.length) {
  for (var i=0;i<edges.length;i++) {
    if (edges[i].id.substr(0,4)=='edge') {
      edges[i].setAttribute('class','edge');
    }
  }
}
]]></script>
        <defs>
                <circle id="rim" cx="0" cy="0" r="7"/>
                <circle id="rim2" cx="0" cy="0" r="3.5"/>
                <g id="zoomPlus">
                        <use xlink:href="#rim" fill="#404040">
                                <set attributeName="fill" to="#808080" begin="zoomplus.mouseover" end="zoomplus.mouseout"/>
                        </use>
                        <path d="M-4,0h8M0,-4v8" fill="none" stroke="white" stroke-width="1.5" pointer-events="none"/>
                </g>
                <g id="zoomMin">
                        <use xlink:href="#rim" fill="#404040">
                                <set attributeName="fill" to="#808080" begin="zoomminus.mouseover" end="zoomminus.mouseout"/>
                        </use>
                        <path d="M-4,0h8" fill="none" stroke="white" stroke-width="1.5" pointer-events="none"/>
                </g>
                <g id="dirArrow">
                        <path fill="none" stroke="white" stroke-width="1.5" d="M0,-3.0v7 M-2.5,-0.5L0,-3.0L2.5,-0.5"/>
                </g>
               <g id="resetDef">
                       <use xlink:href="#rim2" fill="#404040">
                               <set attributeName="fill" to="#808080" begin="reset.mouseover" end="reset.mouseout"/>
                       </use>
               </g>
        </defs>

<script type="text/javascript">
var viewWidth = 2038;
var viewHeight = 375;
var sectionId = 'dynsection-0';
</script>
<script xlink:href="../../svgpan.js"/>
<svg id="graph" class="graph">
<g id="viewport">
<title>Tools/MinGW/include/ws2tcpip.h</title>
<!-- Node1 -->
<g id="node1" class="node">
<title>Node1</title>
<g id="a_node1"><a xlink:title=" ">
<polygon fill="#bfbfbf" stroke="black" points="1017.5,-336.5 1017.5,-366.5 1135.5,-366.5 1135.5,-336.5 1017.5,-336.5"/>
<text text-anchor="start" x="1025.5" y="-354.5" font-family="Helvetica,sans-Serif" font-size="10.00">Tools/MinGW/include</text>
<text text-anchor="middle" x="1076.5" y="-343.5" font-family="Helvetica,sans-Serif" font-size="10.00">/ws2tcpip.h</text>
</a>
</g>
</g>
<!-- Node2 -->
<g id="node2" class="node">
<title>Node2</title>
<g id="a_node2"><a xlink:href="../../dd/d21/winsock2_8h.html" target="_top" xlink:title=" ">
<polygon fill="none" stroke="black" points="1041,-280.5 1041,-299.5 1112,-299.5 1112,-280.5 1041,-280.5"/>
<text text-anchor="middle" x="1076.5" y="-287.5" font-family="Helvetica,sans-Serif" font-size="10.00">winsock2.h</text>
</a>
</g>
</g>
<!-- Node1&#45;&gt;Node2 -->
<g id="edge1" class="edge">
<title>Node1&#45;&gt;Node2</title>
<path fill="none" stroke="midnightblue" d="M1076.5,-336.4C1076.5,-328.47 1076.5,-318.46 1076.5,-309.86"/>
<polygon fill="midnightblue" stroke="midnightblue" points="1080,-309.66 1076.5,-299.66 1073,-309.66 1080,-309.66"/>
</g>
<!-- Node3 -->
<g id="node3" class="node">
<title>Node3</title>
<g id="a_node3"><a xlink:href="../../d9/d43/windows_8h.html" target="_top" xlink:title=" ">
<polygon fill="none" stroke="black" points="1042.5,-224.5 1042.5,-243.5 1110.5,-243.5 1110.5,-224.5 1042.5,-224.5"/>
<text text-anchor="middle" x="1076.5" y="-231.5" font-family="Helvetica,sans-Serif" font-size="10.00">windows.h</text>
</a>
</g>
</g>
<!-- Node2&#45;&gt;Node3 -->
<g id="edge2" class="edge">
<title>Node2&#45;&gt;Node3</title>
<path fill="none" stroke="midnightblue" d="M1071.33,-280.08C1069.82,-272.93 1069.39,-262.64 1070.04,-253.69"/>
<polygon fill="midnightblue" stroke="midnightblue" points="1073.52,-254.13 1071.37,-243.75 1066.58,-253.2 1073.52,-254.13"/>
</g>
<!-- Node3&#45;&gt;Node2 -->
<g id="edge44" class="edge">
<title>Node3&#45;&gt;Node2</title>
<path fill="none" stroke="midnightblue" d="M1081.63,-243.75C1083.16,-250.86 1083.6,-261.14 1082.97,-270.1"/>
<polygon fill="midnightblue" stroke="midnightblue" points="1079.49,-269.71 1081.67,-280.08 1086.43,-270.62 1079.49,-269.71"/>
</g>
<!-- Node4 -->
<g id="node4" class="node">
<title>Node4</title>
<g id="a_node4"><a xlink:title=" ">
<polygon fill="none" stroke="#bfbfbf" points="192.5,-168.5 192.5,-187.5 248.5,-187.5 248.5,-168.5 192.5,-168.5"/>
<text text-anchor="middle" x="220.5" y="-175.5" font-family="Helvetica,sans-Serif" font-size="10.00">stdarg.h</text>
</a>
</g>
</g>
<!-- Node3&#45;&gt;Node4 -->
<g id="edge3" class="edge">
<title>Node3&#45;&gt;Node4</title>
<path fill="none" stroke="midnightblue" d="M1042.34,-233.36C930.8,-234.06 567.24,-232.64 258.71,-187.89"/>
<polygon fill="midnightblue" stroke="midnightblue" points="259.08,-184.41 248.68,-186.42 258.06,-191.33 259.08,-184.41"/>
</g>
<!-- Node5 -->
<g id="node5" class="node">
<title>Node5</title>
<g id="a_node5"><a xlink:href="../../db/d06/windef_8h.html" target="_top" xlink:title=" ">
<polygon fill="none" stroke="black" points="266.5,-168.5 266.5,-187.5 324.5,-187.5 324.5,-168.5 266.5,-168.5"/>
<text text-anchor="middle" x="295.5" y="-175.5" font-family="Helvetica,sans-Serif" font-size="10.00">windef.h</text>
</a>
</g>
</g>
<!-- Node3&#45;&gt;Node5 -->
<g id="edge4" class="edge">
<title>Node3&#45;&gt;Node5</title>
<path fill="none" stroke="midnightblue" d="M1042.22,-233.01C937.5,-232.62 612.59,-228.11 335.13,-187.99"/>
<polygon fill="midnightblue" stroke="midnightblue" points="335.26,-184.47 324.86,-186.48 334.25,-191.39 335.26,-184.47"/>
</g>
<!-- Node14 -->
<g id="node14" class="node">
<title>Node14</title>
<g id="a_node14"><a xlink:href="../../d8/d14/wincon_8h.html" target="_top" xlink:title=" ">
<polygon fill="none" stroke="black" points="484.5,-168.5 484.5,-187.5 544.5,-187.5 544.5,-168.5 484.5,-168.5"/>
<text text-anchor="middle" x="514.5" y="-175.5" font-family="Helvetica,sans-Serif" font-size="10.00">wincon.h</text>
</a>
</g>
</g>
<!-- Node3&#45;&gt;Node14 -->
<g id="edge13" class="edge">
<title>Node3&#45;&gt;Node14</title>
<path fill="none" stroke="midnightblue" d="M1042.34,-231.73C960.05,-228.31 744.24,-217.24 554.79,-187.99"/>
<polygon fill="midnightblue" stroke="midnightblue" points="555.07,-184.49 544.65,-186.4 553.99,-191.4 555.07,-184.49"/>
</g>
<!-- Node15 -->
<g id="node15" class="node">
<title>Node15</title>
<g id="a_node15"><a xlink:href="../../db/dbb/winbase_8h.html" target="_top" xlink:title=" ">
<polygon fill="none" stroke="black" points="562.5,-168.5 562.5,-187.5 628.5,-187.5 628.5,-168.5 562.5,-168.5"/>
<text text-anchor="middle" x="595.5" y="-175.5" font-family="Helvetica,sans-Serif" font-size="10.00">winbase.h</text>
</a>
</g>
</g>
<!-- Node3&#45;&gt;Node15 -->
<g id="edge14" class="edge">
<title>Node3&#45;&gt;Node15</title>
<path fill="none" stroke="midnightblue" d="M1042.46,-230.78C970.05,-225.79 795.25,-212.29 639.16,-188.11"/>
<polygon fill="midnightblue" stroke="midnightblue" points="639.33,-184.59 628.91,-186.5 638.25,-191.51 639.33,-184.59"/>
</g>
<!-- Node16 -->
<g id="node16" class="node">
<title>Node16</title>
<g id="a_node16"><a xlink:href="../../de/da2/wingdi_8h.html" target="_top" xlink:title=" ">
<polygon fill="none" stroke="black" points="646.5,-168.5 646.5,-187.5 704.5,-187.5 704.5,-168.5 646.5,-168.5"/>
<text text-anchor="middle" x="675.5" y="-175.5" font-family="Helvetica,sans-Serif" font-size="10.00">wingdi.h</text>
</a>
</g>
</g>
<!-- Node3&#45;&gt;Node16 -->
<g id="edge15" class="edge">
<title>Node3&#45;&gt;Node16</title>
<path fill="none" stroke="midnightblue" d="M1042.39,-229.94C979.63,-224.07 841.48,-209.94 714.7,-187.85"/>
<polygon fill="midnightblue" stroke="midnightblue" points="715.28,-184.4 704.82,-186.11 714.06,-191.29 715.28,-184.4"/>
</g>
<!-- Node17 -->
<g id="node17" class="node">
<title>Node17</title>
<g id="a_node17"><a xlink:href="../../da/d64/winuser_8h.html" target="_top" xlink:title=" ">
<polygon fill="none" stroke="black" points="723,-168.5 723,-187.5 786,-187.5 786,-168.5 723,-168.5"/>
<text text-anchor="middle" x="754.5" y="-175.5" font-family="Helvetica,sans-Serif" font-size="10.00">winuser.h</text>
</a>
</g>
</g>
<!-- Node3&#45;&gt;Node17 -->
<g id="edge16" class="edge">
<title>Node3&#45;&gt;Node17</title>
<path fill="none" stroke="midnightblue" d="M1042.22,-228.16C990.99,-220.78 891.21,-205.87 796.3,-188.06"/>
<polygon fill="midnightblue" stroke="midnightblue" points="796.72,-184.58 786.25,-186.16 795.42,-191.45 796.72,-184.58"/>
</g>
<!-- Node18 -->
<g id="node18" class="node">
<title>Node18</title>
<g id="a_node18"><a xlink:href="../../d4/de8/winnls_8h.html" target="_top" xlink:title=" ">
<polygon fill="none" stroke="black" points="804,-168.5 804,-187.5 861,-187.5 861,-168.5 804,-168.5"/>
<text text-anchor="middle" x="832.5" y="-175.5" font-family="Helvetica,sans-Serif" font-size="10.00">winnls.h</text>
</a>
</g>
</g>
<!-- Node3&#45;&gt;Node18 -->
<g id="edge17" class="edge">
<title>Node3&#45;&gt;Node18</title>
<path fill="none" stroke="midnightblue" d="M1042.2,-225.7C1003.2,-217.35 937.36,-203.14 870.93,-188.07"/>
<polygon fill="midnightblue" stroke="midnightblue" points="871.65,-184.64 861.12,-185.84 870.1,-191.47 871.65,-184.64"/>
</g>
<!-- Node19 -->
<g id="node19" class="node">
<title>Node19</title>
<g id="a_node19"><a xlink:href="../../de/dc6/winver_8h.html" target="_top" xlink:title=" ">
<polygon fill="none" stroke="black" points="879.5,-168.5 879.5,-187.5 937.5,-187.5 937.5,-168.5 879.5,-168.5"/>
<text text-anchor="middle" x="908.5" y="-175.5" font-family="Helvetica,sans-Serif" font-size="10.00">winver.h</text>
</a>
</g>
</g>
<!-- Node3&#45;&gt;Node19 -->
<g id="edge18" class="edge">
<title>Node3&#45;&gt;Node19</title>
<path fill="none" stroke="midnightblue" d="M1049.88,-224.44C1021.49,-215.32 976.36,-200.81 944.75,-190.65"/>
<polygon fill="midnightblue" stroke="midnightblue" points="945.59,-187.24 935,-187.52 943.44,-193.91 945.59,-187.24"/>
</g>
<!-- Node20 -->
<g id="node20" class="node">
<title>Node20</title>
<g id="a_node20"><a xlink:href="../../d0/de1/winnetwk_8h.html" target="_top" xlink:title=" ">
<polygon fill="none" stroke="black" points="956,-168.5 956,-187.5 1029,-187.5 1029,-168.5 956,-168.5"/>
<text text-anchor="middle" x="992.5" y="-175.5" font-family="Helvetica,sans-Serif" font-size="10.00">winnetwk.h</text>
</a>
</g>
</g>
<!-- Node3&#45;&gt;Node20 -->
<g id="edge19" class="edge">
<title>Node3&#45;&gt;Node20</title>
<path fill="none" stroke="midnightblue" d="M1063,-224.32C1049.9,-215.9 1029.79,-202.97 1014.39,-193.07"/>
<polygon fill="midnightblue" stroke="midnightblue" points="1016.27,-190.12 1005.96,-187.65 1012.48,-196.01 1016.27,-190.12"/>
</g>
<!-- Node21 -->
<g id="node21" class="node">
<title>Node21</title>
<g id="a_node21"><a xlink:href="../../d0/d77/winreg_8h.html" target="_top" xlink:title=" ">
<polygon fill="none" stroke="black" points="1047,-168.5 1047,-187.5 1106,-187.5 1106,-168.5 1047,-168.5"/>
<text text-anchor="middle" x="1076.5" y="-175.5" font-family="Helvetica,sans-Serif" font-size="10.00">winreg.h</text>
</a>
</g>
</g>
<!-- Node3&#45;&gt;Node21 -->
<g id="edge20" class="edge">
<title>Node3&#45;&gt;Node21</title>
<path fill="none" stroke="midnightblue" d="M1076.5,-224.08C1076.5,-217.01 1076.5,-206.86 1076.5,-197.99"/>
<polygon fill="midnightblue" stroke="midnightblue" points="1080,-197.75 1076.5,-187.75 1073,-197.75 1080,-197.75"/>
</g>
<!-- Node22 -->
<g id="node22" class="node">
<title>Node22</title>
<g id="a_node22"><a xlink:href="../../d8/df3/winsvc_8h.html" target="_top" xlink:title=" ">
<polygon fill="none" stroke="black" points="1124,-168.5 1124,-187.5 1183,-187.5 1183,-168.5 1124,-168.5"/>
<text text-anchor="middle" x="1153.5" y="-175.5" font-family="Helvetica,sans-Serif" font-size="10.00">winsvc.h</text>
</a>
</g>
</g>
<!-- Node3&#45;&gt;Node22 -->
<g id="edge21" class="edge">
<title>Node3&#45;&gt;Node22</title>
<path fill="none" stroke="midnightblue" d="M1088.87,-224.32C1100.66,-216.06 1118.63,-203.45 1132.64,-193.63"/>
<polygon fill="midnightblue" stroke="midnightblue" points="1134.98,-196.26 1141.16,-187.65 1130.96,-190.53 1134.98,-196.26"/>
</g>
<!-- Node23 -->
<g id="node23" class="node">
<title>Node23</title>
<g id="a_node23"><a xlink:href="../../d2/d28/cderr_8h.html" target="_top" xlink:title=" ">
<polygon fill="none" stroke="black" points="1201.5,-168.5 1201.5,-187.5 1251.5,-187.5 1251.5,-168.5 1201.5,-168.5"/>
<text text-anchor="middle" x="1226.5" y="-175.5" font-family="Helvetica,sans-Serif" font-size="10.00">cderr.h</text>
</a>
</g>
</g>
<!-- Node3&#45;&gt;Node23 -->
<g id="edge22" class="edge">
<title>Node3&#45;&gt;Node23</title>
<path fill="none" stroke="midnightblue" d="M1100.27,-224.44C1125.39,-215.4 1165.21,-201.06 1193.4,-190.92"/>
<polygon fill="midnightblue" stroke="midnightblue" points="1194.62,-194.2 1202.84,-187.52 1192.25,-187.61 1194.62,-194.2"/>
</g>
<!-- Node24 -->
<g id="node24" class="node">
<title>Node24</title>
<g id="a_node24"><a xlink:href="../../d1/df0/dde_8h.html" target="_top" xlink:title=" ">
<polygon fill="none" stroke="black" points="1269.5,-168.5 1269.5,-187.5 1313.5,-187.5 1313.5,-168.5 1269.5,-168.5"/>
<text text-anchor="middle" x="1291.5" y="-175.5" font-family="Helvetica,sans-Serif" font-size="10.00">dde.h</text>
</a>
</g>
</g>
<!-- Node3&#45;&gt;Node24 -->
<g id="edge23" class="edge">
<title>Node3&#45;&gt;Node24</title>
<path fill="none" stroke="midnightblue" d="M1110.52,-225.14C1145.51,-216.95 1201.81,-203.5 1259.21,-188.26"/>
<polygon fill="midnightblue" stroke="midnightblue" points="1260.42,-191.56 1269.18,-185.6 1258.62,-184.8 1260.42,-191.56"/>
</g>
<!-- Node25 -->
<g id="node25" class="node">
<title>Node25</title>
<g id="a_node25"><a xlink:href="../../d4/d66/ddeml_8h.html" target="_top" xlink:title=" ">
<polygon fill="none" stroke="black" points="1331.5,-168.5 1331.5,-187.5 1387.5,-187.5 1387.5,-168.5 1331.5,-168.5"/>
<text text-anchor="middle" x="1359.5" y="-175.5" font-family="Helvetica,sans-Serif" font-size="10.00">ddeml.h</text>
</a>
</g>
</g>
<!-- Node3&#45;&gt;Node25 -->
<g id="edge24" class="edge">
<title>Node3&#45;&gt;Node25</title>
<path fill="none" stroke="midnightblue" d="M1110.85,-227.36C1156.65,-219.7 1240.46,-205.19 1321.4,-188.14"/>
<polygon fill="midnightblue" stroke="midnightblue" points="1322.2,-191.55 1331.26,-186.05 1320.75,-184.7 1322.2,-191.55"/>
</g>
<!-- Node26 -->
<g id="node26" class="node">
<title>Node26</title>
<g id="a_node26"><a xlink:href="../../d8/d45/dlgs_8h.html" target="_top" xlink:title=" ">
<polygon fill="none" stroke="black" points="1405.5,-168.5 1405.5,-187.5 1451.5,-187.5 1451.5,-168.5 1405.5,-168.5"/>
<text text-anchor="middle" x="1428.5" y="-175.5" font-family="Helvetica,sans-Serif" font-size="10.00">dlgs.h</text>
</a>
</g>
</g>
<!-- Node3&#45;&gt;Node26 -->
<g id="edge25" class="edge">
<title>Node3&#45;&gt;Node26</title>
<path fill="none" stroke="midnightblue" d="M1110.86,-229.7C1168.02,-223.88 1286.35,-210.43 1395.33,-188.01"/>
<polygon fill="midnightblue" stroke="midnightblue" points="1396.1,-191.42 1405.17,-185.95 1394.67,-184.57 1396.1,-191.42"/>
</g>
<!-- Node27 -->
<g id="node27" class="node">
<title>Node27</title>
<g id="a_node27"><a xlink:href="../../d6/d69/imm_8h.html" target="_top" xlink:title=" ">
<polygon fill="none" stroke="black" points="1469.5,-168.5 1469.5,-187.5 1517.5,-187.5 1517.5,-168.5 1469.5,-168.5"/>
<text text-anchor="middle" x="1493.5" y="-175.5" font-family="Helvetica,sans-Serif" font-size="10.00">imm.h</text>
</a>
</g>
</g>
<!-- Node3&#45;&gt;Node27 -->
<g id="edge26" class="edge">
<title>Node3&#45;&gt;Node27</title>
<path fill="none" stroke="midnightblue" d="M1110.67,-230.72C1176.41,-225.96 1325.16,-213.41 1459.4,-187.94"/>
<polygon fill="midnightblue" stroke="midnightblue" points="1460.29,-191.34 1469.45,-186.01 1458.97,-184.46 1460.29,-191.34"/>
</g>
<!-- Node28 -->
<g id="node28" class="node">
<title>Node28</title>
<g id="a_node28"><a xlink:href="../../d1/d29/lzexpand_8h.html" target="_top" xlink:title=" ">
<polygon fill="none" stroke="black" points="1535.5,-168.5 1535.5,-187.5 1605.5,-187.5 1605.5,-168.5 1535.5,-168.5"/>
<text text-anchor="middle" x="1570.5" y="-175.5" font-family="Helvetica,sans-Serif" font-size="10.00">lzexpand.h</text>
</a>
</g>
</g>
<!-- Node3&#45;&gt;Node28 -->
<g id="edge27" class="edge">
<title>Node3&#45;&gt;Node28</title>
<path fill="none" stroke="midnightblue" d="M1110.52,-230.79C1184.25,-225.74 1364.44,-212.04 1525.41,-188.02"/>
<polygon fill="midnightblue" stroke="midnightblue" points="1526.13,-191.45 1535.49,-186.5 1525.08,-184.53 1526.13,-191.45"/>
</g>
<!-- Node29 -->
<g id="node29" class="node">
<title>Node29</title>
<g id="a_node29"><a xlink:href="../../dd/d24/mmsystem_8h.html" target="_top" xlink:title=" ">
<polygon fill="none" stroke="black" points="1624,-168.5 1624,-187.5 1705,-187.5 1705,-168.5 1624,-168.5"/>
<text text-anchor="middle" x="1664.5" y="-175.5" font-family="Helvetica,sans-Serif" font-size="10.00">mmsystem.h</text>
</a>
</g>
</g>
<!-- Node3&#45;&gt;Node29 -->
<g id="edge28" class="edge">
<title>Node3&#45;&gt;Node29</title>
<path fill="none" stroke="midnightblue" d="M1110.61,-231.27C1194.44,-226.78 1417.36,-213.39 1613.96,-187.94"/>
<polygon fill="midnightblue" stroke="midnightblue" points="1614.43,-191.41 1623.89,-186.64 1613.52,-184.47 1614.43,-191.41"/>
</g>
<!-- Node30 -->
<g id="node30" class="node">
<title>Node30</title>
<g id="a_node30"><a xlink:href="../../d3/d10/nb30_8h.html" target="_top" xlink:title=" ">
<polygon fill="none" stroke="black" points="1723.5,-168.5 1723.5,-187.5 1773.5,-187.5 1773.5,-168.5 1723.5,-168.5"/>
<text text-anchor="middle" x="1748.5" y="-175.5" font-family="Helvetica,sans-Serif" font-size="10.00">nb30.h</text>
</a>
</g>
</g>
<!-- Node3&#45;&gt;Node30 -->
<g id="edge29" class="edge">
<title>Node3&#45;&gt;Node30</title>
<path fill="none" stroke="midnightblue" d="M1110.65,-232.85C1205.18,-231.94 1478.23,-226.1 1713.26,-187.89"/>
<polygon fill="midnightblue" stroke="midnightblue" points="1714.07,-191.3 1723.36,-186.22 1712.93,-184.39 1714.07,-191.3"/>
</g>
<!-- Node31 -->
<g id="node31" class="node">
<title>Node31</title>
<g id="a_node31"><a xlink:href="../../d0/d44/rpc_8h.html" target="_top" xlink:title=" ">
<polygon fill="none" stroke="black" points="343,-168.5 343,-187.5 384,-187.5 384,-168.5 343,-168.5"/>
<text text-anchor="middle" x="363.5" y="-175.5" font-family="Helvetica,sans-Serif" font-size="10.00">rpc.h</text>
</a>
</g>
</g>
<!-- Node3&#45;&gt;Node31 -->
<g id="edge30" class="edge">
<title>Node3&#45;&gt;Node31</title>
<path fill="none" stroke="midnightblue" d="M1042.43,-233.42C942.34,-234.25 641.66,-233.01 392.2,-189.33"/>
<polygon fill="midnightblue" stroke="midnightblue" points="392.69,-185.86 382.23,-187.56 391.47,-192.76 392.69,-185.86"/>
</g>
<!-- Node37 -->
<g id="node37" class="node">
<title>Node37</title>
<g id="a_node37"><a xlink:href="../../df/dd3/shellapi_8h.html" target="_top" xlink:title=" ">
<polygon fill="none" stroke="black" points="402.5,-168.5 402.5,-187.5 466.5,-187.5 466.5,-168.5 402.5,-168.5"/>
<text text-anchor="middle" x="434.5" y="-175.5" font-family="Helvetica,sans-Serif" font-size="10.00">shellapi.h</text>
</a>
</g>
</g>
<!-- Node3&#45;&gt;Node37 -->
<g id="edge38" class="edge">
<title>Node3&#45;&gt;Node37</title>
<path fill="none" stroke="midnightblue" d="M1042.43,-232.13C951.88,-229.48 697.66,-219.69 476.81,-187.98"/>
<polygon fill="midnightblue" stroke="midnightblue" points="477.05,-184.48 466.65,-186.51 476.04,-191.41 477.05,-184.48"/>
</g>
<!-- Node39 -->
<g id="node39" class="node">
<title>Node39</title>
<g id="a_node39"><a xlink:href="../../d4/ddc/winperf_8h.html" target="_top" xlink:title=" ">
<polygon fill="none" stroke="black" points="1791.5,-168.5 1791.5,-187.5 1853.5,-187.5 1853.5,-168.5 1791.5,-168.5"/>
<text text-anchor="middle" x="1822.5" y="-175.5" font-family="Helvetica,sans-Serif" font-size="10.00">winperf.h</text>
</a>
</g>
</g>
<!-- Node3&#45;&gt;Node39 -->
<g id="edge41" class="edge">
<title>Node3&#45;&gt;Node39</title>
<path fill="none" stroke="midnightblue" d="M1110.86,-232.72C1212.15,-231.51 1518.37,-224.93 1781.03,-187.99"/>
<polygon fill="midnightblue" stroke="midnightblue" points="1781.74,-191.42 1791.14,-186.55 1780.75,-184.49 1781.74,-191.42"/>
</g>
<!-- Node40 -->
<g id="node40" class="node">
<title>Node40</title>
<g id="a_node40"><a xlink:href="../../d5/ded/commdlg_8h.html" target="_top" xlink:title=" ">
<polygon fill="none" stroke="black" points="1872,-168.5 1872,-187.5 1943,-187.5 1943,-168.5 1872,-168.5"/>
<text text-anchor="middle" x="1907.5" y="-175.5" font-family="Helvetica,sans-Serif" font-size="10.00">commdlg.h</text>
</a>
</g>
</g>
<!-- Node3&#45;&gt;Node40 -->
<g id="edge42" class="edge">
<title>Node3&#45;&gt;Node40</title>
<path fill="none" stroke="midnightblue" d="M1110.75,-232.75C1219.3,-231.6 1565.49,-225.15 1861.64,-187.91"/>
<polygon fill="midnightblue" stroke="midnightblue" points="1862.23,-191.36 1871.71,-186.63 1861.35,-184.42 1862.23,-191.36"/>
</g>
<!-- Node41 -->
<g id="node41" class="node">
<title>Node41</title>
<g id="a_node41"><a xlink:href="../../d4/d0c/winspool_8h.html" target="_top" xlink:title=" ">
<polygon fill="none" stroke="black" points="1961,-168.5 1961,-187.5 2030,-187.5 2030,-168.5 1961,-168.5"/>
<text text-anchor="middle" x="1995.5" y="-175.5" font-family="Helvetica,sans-Serif" font-size="10.00">winspool.h</text>
</a>
</g>
</g>
<!-- Node3&#45;&gt;Node41 -->
<g id="edge43" class="edge">
<title>Node3&#45;&gt;Node41</title>
<path fill="none" stroke="midnightblue" d="M1110.9,-233.14C1227.56,-233.23 1618.91,-230.22 1950.56,-188.06"/>
<polygon fill="midnightblue" stroke="midnightblue" points="1951.37,-191.48 1960.84,-186.73 1950.48,-184.54 1951.37,-191.48"/>
</g>
<!-- Node6 -->
<g id="node6" class="node">
<title>Node6</title>
<g id="a_node6"><a xlink:href="../../d9/dfa/winnt_8h.html" target="_top" xlink:title=" ">
<polygon fill="none" stroke="black" points="161,-112.5 161,-131.5 214,-131.5 214,-112.5 161,-112.5"/>
<text text-anchor="middle" x="187.5" y="-119.5" font-family="Helvetica,sans-Serif" font-size="10.00">winnt.h</text>
</a>
</g>
</g>
<!-- Node5&#45;&gt;Node6 -->
<g id="edge5" class="edge">
<title>Node5&#45;&gt;Node6</title>
<path fill="none" stroke="midnightblue" d="M278.15,-168.32C260.83,-159.66 233.98,-146.24 214,-136.25"/>
<polygon fill="midnightblue" stroke="midnightblue" points="215.32,-133 204.81,-131.65 212.19,-139.26 215.32,-133"/>
</g>
<!-- Node7 -->
<g id="node7" class="node">
<title>Node7</title>
<g id="a_node7"><a xlink:href="../../d4/ded/winerror_8h.html" target="_top" xlink:title=" ">
<polygon fill="none" stroke="black" points="288,-56.5 288,-75.5 353,-75.5 353,-56.5 288,-56.5"/>
<text text-anchor="middle" x="320.5" y="-63.5" font-family="Helvetica,sans-Serif" font-size="10.00">winerror.h</text>
</a>
</g>
</g>
<!-- Node6&#45;&gt;Node7 -->
<g id="edge6" class="edge">
<title>Node6&#45;&gt;Node7</title>
<path fill="none" stroke="midnightblue" d="M208.57,-112.44C230.56,-103.52 265.23,-89.44 290.16,-79.32"/>
<polygon fill="midnightblue" stroke="midnightblue" points="291.58,-82.52 299.52,-75.52 288.94,-76.04 291.58,-82.52"/>
</g>
<!-- Node8 -->
<g id="node8" class="node">
<title>Node8</title>
<g id="a_node8"><a xlink:href="../../d7/de6/include_2string_8h.html" target="_top" xlink:title=" ">
<polygon fill="none" stroke="black" points="44,-56.5 44,-75.5 97,-75.5 97,-56.5 44,-56.5"/>
<text text-anchor="middle" x="70.5" y="-63.5" font-family="Helvetica,sans-Serif" font-size="10.00">string.h</text>
</a>
</g>
</g>
<!-- Node6&#45;&gt;Node8 -->
<g id="edge7" class="edge">
<title>Node6&#45;&gt;Node8</title>
<path fill="none" stroke="midnightblue" d="M168.96,-112.44C149.88,-103.64 119.93,-89.81 98.06,-79.72"/>
<polygon fill="midnightblue" stroke="midnightblue" points="99.5,-76.53 88.95,-75.52 96.57,-82.88 99.5,-76.53"/>
</g>
<!-- Node11 -->
<g id="node11" class="node">
<title>Node11</title>
<g id="a_node11"><a xlink:href="../../db/de8/basetsd_8h.html" target="_top" xlink:title=" ">
<polygon fill="none" stroke="black" points="115.5,-56.5 115.5,-75.5 179.5,-75.5 179.5,-56.5 115.5,-56.5"/>
<text text-anchor="middle" x="147.5" y="-63.5" font-family="Helvetica,sans-Serif" font-size="10.00">basetsd.h</text>
</a>
</g>
</g>
<!-- Node6&#45;&gt;Node11 -->
<g id="edge10" class="edge">
<title>Node6&#45;&gt;Node11</title>
<path fill="none" stroke="midnightblue" d="M180.89,-112.08C175.24,-104.46 166.96,-93.26 160.05,-83.94"/>
<polygon fill="midnightblue" stroke="midnightblue" points="162.75,-81.7 153.98,-75.75 157.12,-85.87 162.75,-81.7"/>
</g>
<!-- Node12 -->
<g id="node12" class="node">
<title>Node12</title>
<g id="a_node12"><a xlink:href="../../dd/d76/pshpack4_8h.html" target="_top" xlink:title=" ">
<polygon fill="none" stroke="black" points="197.5,-56.5 197.5,-75.5 269.5,-75.5 269.5,-56.5 197.5,-56.5"/>
<text text-anchor="middle" x="233.5" y="-63.5" font-family="Helvetica,sans-Serif" font-size="10.00">pshpack4.h</text>
</a>
</g>
</g>
<!-- Node6&#45;&gt;Node12 -->
<g id="edge11" class="edge">
<title>Node6&#45;&gt;Node12</title>
<path fill="none" stroke="midnightblue" d="M195.1,-112.08C201.73,-104.3 211.52,-92.8 219.56,-83.37"/>
<polygon fill="midnightblue" stroke="midnightblue" points="222.23,-85.63 226.05,-75.75 216.9,-81.09 222.23,-85.63"/>
</g>
<!-- Node13 -->
<g id="node13" class="node">
<title>Node13</title>
<g id="a_node13"><a xlink:href="../../d3/df1/poppack_8h.html" target="_top" xlink:title=" ">
<polygon fill="none" stroke="black" points="371,-56.5 371,-75.5 438,-75.5 438,-56.5 371,-56.5"/>
<text text-anchor="middle" x="404.5" y="-63.5" font-family="Helvetica,sans-Serif" font-size="10.00">poppack.h</text>
</a>
</g>
</g>
<!-- Node6&#45;&gt;Node13 -->
<g id="edge12" class="edge">
<title>Node6&#45;&gt;Node13</title>
<path fill="none" stroke="midnightblue" d="M214.25,-114.1C217.03,-113.38 219.82,-112.68 222.5,-112 269.81,-100.07 324.12,-86.68 361.01,-77.63"/>
<polygon fill="midnightblue" stroke="midnightblue" points="362.05,-80.98 370.93,-75.2 360.39,-74.18 362.05,-80.98"/>
</g>
<!-- Node9 -->
<g id="node9" class="node">
<title>Node9</title>
<g id="a_node9"><a xlink:href="../../da/d3d/__mingw_8h.html" target="_top" xlink:title=" ">
<polygon fill="none" stroke="black" points="0,-0.5 0,-19.5 63,-19.5 63,-0.5 0,-0.5"/>
<text text-anchor="middle" x="31.5" y="-7.5" font-family="Helvetica,sans-Serif" font-size="10.00">_mingw.h</text>
</a>
</g>
</g>
<!-- Node8&#45;&gt;Node9 -->
<g id="edge8" class="edge">
<title>Node8&#45;&gt;Node9</title>
<path fill="none" stroke="midnightblue" d="M64.06,-56.08C58.55,-48.46 50.47,-37.26 43.74,-27.94"/>
<polygon fill="midnightblue" stroke="midnightblue" points="46.51,-25.81 37.82,-19.75 40.84,-29.91 46.51,-25.81"/>
</g>
<!-- Node10 -->
<g id="node10" class="node">
<title>Node10</title>
<g id="a_node10"><a xlink:href="../../d3/dce/stddef_8h.html" target="_top" xlink:title=" ">
<polygon fill="none" stroke="black" points="81.5,-0.5 81.5,-19.5 137.5,-19.5 137.5,-0.5 81.5,-0.5"/>
<text text-anchor="middle" x="109.5" y="-7.5" font-family="Helvetica,sans-Serif" font-size="10.00">stddef.h</text>
</a>
</g>
</g>
<!-- Node8&#45;&gt;Node10 -->
<g id="edge9" class="edge">
<title>Node8&#45;&gt;Node10</title>
<path fill="none" stroke="midnightblue" d="M76.94,-56.08C82.45,-48.46 90.53,-37.26 97.26,-27.94"/>
<polygon fill="midnightblue" stroke="midnightblue" points="100.16,-29.91 103.18,-19.75 94.49,-25.81 100.16,-29.91"/>
</g>
<!-- Node31&#45;&gt;Node3 -->
<g id="edge31" class="edge">
<title>Node31&#45;&gt;Node3</title>
<path fill="none" stroke="midnightblue" d="M384.19,-183.41C390.25,-185.13 396.61,-186.94 402.5,-188 637.05,-230.35 923.32,-233.96 1031.97,-233.54"/>
<polygon fill="midnightblue" stroke="midnightblue" points="1032.24,-237.04 1042.22,-233.49 1032.2,-230.04 1032.24,-237.04"/>
</g>
<!-- Node31&#45;&gt;Node7 -->
<g id="edge37" class="edge">
<title>Node31&#45;&gt;Node7</title>
<path fill="none" stroke="midnightblue" d="M368.62,-168.15C375.39,-155.23 385.45,-130.68 376.5,-112 370.25,-98.95 358.16,-88.49 346.82,-80.95"/>
<polygon fill="midnightblue" stroke="midnightblue" points="348.35,-77.79 338,-75.54 344.69,-83.75 348.35,-77.79"/>
</g>
<!-- Node32 -->
<g id="node32" class="node">
<title>Node32</title>
<g id="a_node32"><a xlink:href="../../df/def/rpcdce_8h.html" target="_top" xlink:title=" ">
<polygon fill="none" stroke="black" points="462.5,-112.5 462.5,-131.5 520.5,-131.5 520.5,-112.5 462.5,-112.5"/>
<text text-anchor="middle" x="491.5" y="-119.5" font-family="Helvetica,sans-Serif" font-size="10.00">rpcdce.h</text>
</a>
</g>
</g>
<!-- Node31&#45;&gt;Node32 -->
<g id="edge32" class="edge">
<title>Node31&#45;&gt;Node32</title>
<path fill="none" stroke="midnightblue" d="M383.78,-168.44C404.85,-159.56 438.02,-145.56 461.99,-135.45"/>
<polygon fill="midnightblue" stroke="midnightblue" points="463.46,-138.63 471.31,-131.52 460.74,-132.18 463.46,-138.63"/>
</g>
<!-- Node35 -->
<g id="node35" class="node">
<title>Node35</title>
<g id="a_node35"><a xlink:href="../../d5/dd9/rpcnsi_8h.html" target="_top" xlink:title=" ">
<polygon fill="none" stroke="black" points="232,-112.5 232,-131.5 287,-131.5 287,-112.5 232,-112.5"/>
<text text-anchor="middle" x="259.5" y="-119.5" font-family="Helvetica,sans-Serif" font-size="10.00">rpcnsi.h</text>
</a>
</g>
</g>
<!-- Node31&#45;&gt;Node35 -->
<g id="edge35" class="edge">
<title>Node31&#45;&gt;Node35</title>
<path fill="none" stroke="midnightblue" d="M346.79,-168.32C330.19,-159.7 304.5,-146.36 285.28,-136.39"/>
<polygon fill="midnightblue" stroke="midnightblue" points="286.66,-133.16 276.17,-131.65 283.43,-139.37 286.66,-133.16"/>
</g>
<!-- Node36 -->
<g id="node36" class="node">
<title>Node36</title>
<g id="a_node36"><a xlink:href="../../d7/d87/rpcnterr_8h.html" target="_top" xlink:title=" ">
<polygon fill="none" stroke="black" points="305,-112.5 305,-131.5 368,-131.5 368,-112.5 305,-112.5"/>
<text text-anchor="middle" x="336.5" y="-119.5" font-family="Helvetica,sans-Serif" font-size="10.00">rpcnterr.h</text>
</a>
</g>
</g>
<!-- Node31&#45;&gt;Node36 -->
<g id="edge36" class="edge">
<title>Node31&#45;&gt;Node36</title>
<path fill="none" stroke="midnightblue" d="M359.04,-168.08C355.35,-160.69 349.98,-149.95 345.41,-140.81"/>
<polygon fill="midnightblue" stroke="midnightblue" points="348.48,-139.13 340.88,-131.75 342.22,-142.26 348.48,-139.13"/>
</g>
<!-- Node33 -->
<g id="node33" class="node">
<title>Node33</title>
<g id="a_node33"><a xlink:href="../../d3/d89/basetyps_8h.html" target="_top" xlink:title=" ">
<polygon fill="none" stroke="black" points="456.5,-56.5 456.5,-75.5 526.5,-75.5 526.5,-56.5 456.5,-56.5"/>
<text text-anchor="middle" x="491.5" y="-63.5" font-family="Helvetica,sans-Serif" font-size="10.00">basetyps.h</text>
</a>
</g>
</g>
<!-- Node32&#45;&gt;Node33 -->
<g id="edge33" class="edge">
<title>Node32&#45;&gt;Node33</title>
<path fill="none" stroke="midnightblue" d="M491.5,-112.08C491.5,-105.01 491.5,-94.86 491.5,-85.99"/>
<polygon fill="midnightblue" stroke="midnightblue" points="495,-85.75 491.5,-75.75 488,-85.75 495,-85.75"/>
</g>
<!-- Node34 -->
<g id="node34" class="node">
<title>Node34</title>
<g id="a_node34"><a xlink:href="../../d3/de5/rpcdcep_8h.html" target="_top" xlink:title=" ">
<polygon fill="none" stroke="black" points="544.5,-56.5 544.5,-75.5 608.5,-75.5 608.5,-56.5 544.5,-56.5"/>
<text text-anchor="middle" x="576.5" y="-63.5" font-family="Helvetica,sans-Serif" font-size="10.00">rpcdcep.h</text>
</a>
</g>
</g>
<!-- Node32&#45;&gt;Node34 -->
<g id="edge34" class="edge">
<title>Node32&#45;&gt;Node34</title>
<path fill="none" stroke="midnightblue" d="M505.16,-112.32C518.42,-103.9 538.77,-90.97 554.35,-81.07"/>
<polygon fill="midnightblue" stroke="midnightblue" points="556.31,-83.97 562.88,-75.65 552.56,-78.06 556.31,-83.97"/>
</g>
<!-- Node37&#45;&gt;Node13 -->
<g id="edge40" class="edge">
<title>Node37&#45;&gt;Node13</title>
<path fill="none" stroke="midnightblue" d="M432.15,-168.37C427.28,-150.54 416.04,-109.3 409.48,-85.27"/>
<polygon fill="midnightblue" stroke="midnightblue" points="412.85,-84.32 406.84,-75.59 406.1,-86.16 412.85,-84.32"/>
</g>
<!-- Node38 -->
<g id="node38" class="node">
<title>Node38</title>
<g id="a_node38"><a xlink:href="../../da/d4f/pshpack2_8h.html" target="_top" xlink:title=" ">
<polygon fill="none" stroke="black" points="538.5,-112.5 538.5,-131.5 610.5,-131.5 610.5,-112.5 538.5,-112.5"/>
<text text-anchor="middle" x="574.5" y="-119.5" font-family="Helvetica,sans-Serif" font-size="10.00">pshpack2.h</text>
</a>
</g>
</g>
<!-- Node37&#45;&gt;Node38 -->
<g id="edge39" class="edge">
<title>Node37&#45;&gt;Node38</title>
<path fill="none" stroke="midnightblue" d="M456.68,-168.44C479.93,-159.48 516.65,-145.31 542.92,-135.18"/>
<polygon fill="midnightblue" stroke="midnightblue" points="544.35,-138.38 552.42,-131.52 541.83,-131.85 544.35,-138.38"/>
</g>
</g>
</svg>
        <g id="navigator" transform="translate(0 0)" fill="#404254">
                <rect fill="#f2f5e9" fill-opacity="0.5" stroke="#606060" stroke-width=".5" x="0" y="0" width="60" height="60"/>
                <use id="zoomplus" xlink:href="#zoomPlus" x="17" y="9" onmousedown="handleZoom(evt,'in')"/>
                <use id="zoomminus" xlink:href="#zoomMin" x="42" y="9" onmousedown="handleZoom(evt,'out')"/>
                <use id="reset" xlink:href="#resetDef" x="30" y="36" onmousedown="handleReset()"/>
                <g id="arrowUp" xlink:href="#dirArrow" transform="translate(30 24)" onmousedown="handlePan(0,-1)">
                  <use xlink:href="#rim" fill="#404040">
                        <set attributeName="fill" to="#808080" begin="arrowUp.mouseover" end="arrowUp.mouseout"/>
                  </use>
                  <path fill="none" stroke="white" stroke-width="1.5" d="M0,-3.0v7 M-2.5,-0.5L0,-3.0L2.5,-0.5"/>
                </g>
                <g id="arrowRight" xlink:href="#dirArrow" transform="rotate(90) translate(36 -43)" onmousedown="handlePan(1,0)">
                  <use xlink:href="#rim" fill="#404040">
                        <set attributeName="fill" to="#808080" begin="arrowRight.mouseover" end="arrowRight.mouseout"/>
                  </use>
                  <path fill="none" stroke="white" stroke-width="1.5" d="M0,-3.0v7 M-2.5,-0.5L0,-3.0L2.5,-0.5"/>
                </g>
                <g id="arrowDown" xlink:href="#dirArrow" transform="rotate(180) translate(-30 -48)" onmousedown="handlePan(0,1)">
                  <use xlink:href="#rim" fill="#404040">
                        <set attributeName="fill" to="#808080" begin="arrowDown.mouseover" end="arrowDown.mouseout"/>
                  </use>
                  <path fill="none" stroke="white" stroke-width="1.5" d="M0,-3.0v7 M-2.5,-0.5L0,-3.0L2.5,-0.5"/>
                </g>
                <g id="arrowLeft" xlink:href="#dirArrow" transform="rotate(270) translate(-36 17)" onmousedown="handlePan(-1,0)">
                  <use xlink:href="#rim" fill="#404040">
                        <set attributeName="fill" to="#808080" begin="arrowLeft.mouseover" end="arrowLeft.mouseout"/>
                  </use>
                  <path fill="none" stroke="white" stroke-width="1.5" d="M0,-3.0v7 M-2.5,-0.5L0,-3.0L2.5,-0.5"/>
                </g>
        </g>
        <svg viewBox="0 0 15 15" width="100%" height="30px" preserveAspectRatio="xMaxYMin meet">
         <g id="arrow_out" transform="scale(0.3 0.3)">
          <a xlink:href="ws2tcpip_8h__incl_org.svg" target="_base">
           <rect id="button" ry="5" rx="5" y="6" x="6" height="38" width="38"
                fill="#f2f5e9" fill-opacity="0.5" stroke="#606060" stroke-width="1.0"/>
           <path id="arrow"
             d="M 11.500037,31.436501 C 11.940474,20.09759 22.043105,11.32322 32.158766,21.979434 L 37.068811,17.246167 C 37.068811,17.246167 37.088388,32 37.088388,32 L 22.160133,31.978069 C 22.160133,31.978069 26.997745,27.140456 26.997745,27.140456 C 18.528582,18.264221 13.291696,25.230495 11.500037,31.436501 z"
             style="fill:#404040;"/>
          </a>
         </g>
        </svg>
</svg>
