<?xml version="1.0" encoding="UTF-8" standalone="no"?>
<!DOCTYPE svg PUBLIC "-//W3C//DTD SVG 1.1//EN"
 "http://www.w3.org/Graphics/SVG/1.1/DTD/svg11.dtd">
<!-- Generated by graphviz version 2.43.0 (0)
 -->
<!-- Title: _COMMPROP Pages: 1 -->
<svg width="337pt" height="205pt"
 viewBox="0.00 0.00 336.50 205.00" xmlns="http://www.w3.org/2000/svg" xmlns:xlink="http://www.w3.org/1999/xlink">
<g id="graph0" class="graph" transform="scale(1 1) rotate(0) translate(4 201)">
<title>_COMMPROP</title>
<!-- Node1 -->
<g id="node1" class="node">
<title>Node1</title>
<g id="a_node1"><a xlink:title=" ">
<polygon fill="#bfbfbf" stroke="black" points="105.5,-0.5 105.5,-19.5 185.5,-19.5 185.5,-0.5 105.5,-0.5"/>
<text text-anchor="middle" x="145.5" y="-7.5" font-family="Helvetica,sans-Serif" font-size="10.00">_COMMPROP</text>
</a>
</g>
</g>
<!-- Node2 -->
<g id="node2" class="node">
<title>Node2</title>
<g id="a_node2"><a xlink:title=" ">
<polygon fill="none" stroke="#bfbfbf" points="0,-177.5 0,-196.5 41,-196.5 41,-177.5 0,-177.5"/>
<text text-anchor="middle" x="20.5" y="-184.5" font-family="Helvetica,sans-Serif" font-size="10.00">short</text>
</a>
</g>
</g>
<!-- Node2&#45;&gt;Node1 -->
<g id="edge1" class="edge">
<title>Node2&#45;&gt;Node1</title>
<path fill="none" stroke="#9a32cd" stroke-dasharray="5,2" d="M16.9,-167.46C12.06,-136.55 7.39,-74.28 39.5,-38 48.31,-28.05 79.19,-20.9 105.36,-16.48"/>
<polygon fill="#9a32cd" stroke="#9a32cd" points="13.46,-168.08 18.63,-177.33 20.35,-166.87 13.46,-168.08"/>
<text text-anchor="middle" x="90.5" y="-112.5" font-family="Helvetica,sans-Serif" font-size="10.00"> wSettableStopParity</text>
<text text-anchor="middle" x="90.5" y="-101.5" font-family="Helvetica,sans-Serif" font-size="10.00">wPacketLength</text>
<text text-anchor="middle" x="90.5" y="-90.5" font-family="Helvetica,sans-Serif" font-size="10.00">wSettableData</text>
<text text-anchor="middle" x="90.5" y="-79.5" font-family="Helvetica,sans-Serif" font-size="10.00">wPacketVersion</text>
</g>
<!-- Node3 -->
<g id="node3" class="node">
<title>Node3</title>
<g id="a_node3"><a xlink:title=" ">
<polygon fill="none" stroke="#bfbfbf" points="101,-177.5 101,-196.5 190,-196.5 190,-177.5 101,-177.5"/>
<text text-anchor="middle" x="145.5" y="-184.5" font-family="Helvetica,sans-Serif" font-size="10.00">unsigned short</text>
</a>
</g>
</g>
<!-- Node3&#45;&gt;Node1 -->
<g id="edge2" class="edge">
<title>Node3&#45;&gt;Node1</title>
<path fill="none" stroke="#9a32cd" stroke-dasharray="5,2" d="M145.5,-166.95C145.5,-129.3 145.5,-46.65 145.5,-19.69"/>
<polygon fill="#9a32cd" stroke="#9a32cd" points="142,-167.08 145.5,-177.08 149,-167.08 142,-167.08"/>
<text text-anchor="middle" x="176" y="-96" font-family="Helvetica,sans-Serif" font-size="10.00"> wcProvChar</text>
</g>
<!-- Node4 -->
<g id="node4" class="node">
<title>Node4</title>
<g id="a_node4"><a xlink:title=" ">
<polygon fill="none" stroke="#bfbfbf" points="210.5,-177.5 210.5,-196.5 248.5,-196.5 248.5,-177.5 210.5,-177.5"/>
<text text-anchor="middle" x="229.5" y="-184.5" font-family="Helvetica,sans-Serif" font-size="10.00">long</text>
</a>
</g>
</g>
<!-- Node4&#45;&gt;Node1 -->
<g id="edge3" class="edge">
<title>Node4&#45;&gt;Node1</title>
<path fill="none" stroke="#9a32cd" stroke-dasharray="5,2" d="M232.09,-167.13C235.2,-136.66 236.78,-76.21 207.5,-38 201,-29.52 191.29,-23.66 181.47,-19.62"/>
<polygon fill="#9a32cd" stroke="#9a32cd" points="228.6,-166.88 230.89,-177.22 235.55,-167.71 228.6,-166.88"/>
<text text-anchor="middle" x="281" y="-151" font-family="Helvetica,sans-Serif" font-size="10.00"> dwProvSpec2</text>
<text text-anchor="middle" x="281" y="-140" font-family="Helvetica,sans-Serif" font-size="10.00">dwSettableParams</text>
<text text-anchor="middle" x="281" y="-129" font-family="Helvetica,sans-Serif" font-size="10.00">dwMaxTxQueue</text>
<text text-anchor="middle" x="281" y="-118" font-family="Helvetica,sans-Serif" font-size="10.00">dwProvSubType</text>
<text text-anchor="middle" x="281" y="-107" font-family="Helvetica,sans-Serif" font-size="10.00">dwMaxRxQueue</text>
<text text-anchor="middle" x="281" y="-96" font-family="Helvetica,sans-Serif" font-size="10.00">dwMaxBaud</text>
<text text-anchor="middle" x="281" y="-85" font-family="Helvetica,sans-Serif" font-size="10.00">dwReserved1</text>
<text text-anchor="middle" x="281" y="-74" font-family="Helvetica,sans-Serif" font-size="10.00">dwServiceMask</text>
<text text-anchor="middle" x="281" y="-63" font-family="Helvetica,sans-Serif" font-size="10.00">dwCurrentRxQueue</text>
<text text-anchor="middle" x="281" y="-52" font-family="Helvetica,sans-Serif" font-size="10.00">dwSettableBaud</text>
<text text-anchor="middle" x="281" y="-41" font-family="Helvetica,sans-Serif" font-size="10.00">...</text>
</g>
</g>
</svg>
