<?xml version="1.0" encoding="UTF-8" standalone="no"?>
<!DOCTYPE svg PUBLIC "-//W3C//DTD SVG 1.1//EN"
 "http://www.w3.org/Graphics/SVG/1.1/DTD/svg11.dtd">
<!-- Generated by graphviz version 2.43.0 (0)
 -->
<!-- Title: auraState_s Pages: 1 -->
<svg width="525pt" height="150pt"
 viewBox="0.00 0.00 525.00 150.00" xmlns="http://www.w3.org/2000/svg" xmlns:xlink="http://www.w3.org/1999/xlink">
<g id="graph0" class="graph" transform="scale(1 1) rotate(0) translate(4 146)">
<title>auraState_s</title>
<!-- Node1 -->
<g id="node1" class="node">
<title>Node1</title>
<g id="a_node1"><a xlink:title=" ">
<polygon fill="#bfbfbf" stroke="black" points="248,-0.5 248,-19.5 322,-19.5 322,-0.5 248,-0.5"/>
<text text-anchor="middle" x="285" y="-7.5" font-family="Helvetica,sans-Serif" font-size="10.00">auraState_s</text>
</a>
</g>
</g>
<!-- Node2 -->
<g id="node2" class="node">
<title>Node2</title>
<g id="a_node2"><a xlink:title=" ">
<polygon fill="none" stroke="#bfbfbf" points="0,-122.5 0,-141.5 78,-141.5 78,-122.5 0,-122.5"/>
<text text-anchor="middle" x="39" y="-129.5" font-family="Helvetica,sans-Serif" font-size="10.00">auraConfig_t</text>
</a>
</g>
</g>
<!-- Node2&#45;&gt;Node1 -->
<g id="edge1" class="edge">
<title>Node2&#45;&gt;Node1</title>
<path fill="none" stroke="#9a32cd" stroke-dasharray="5,2" d="M36.74,-112.19C35.34,-90.91 36.78,-56.79 57,-38 83.94,-12.97 190.47,-9.99 247.88,-10.28"/>
<polygon fill="#9a32cd" stroke="#9a32cd" points="33.26,-112.62 37.68,-122.26 40.23,-111.97 33.26,-112.62"/>
<text text-anchor="middle" x="93.5" y="-68.5" font-family="Helvetica,sans-Serif" font-size="10.00"> configurations</text>
</g>
<!-- Node3 -->
<g id="node3" class="node">
<title>Node3</title>
<g id="a_node3"><a xlink:href="../../d4/dc3/classfloat.html" target="_top" xlink:title=" ">
<polygon fill="none" stroke="black" points="116,-122.5 116,-141.5 154,-141.5 154,-122.5 116,-122.5"/>
<text text-anchor="middle" x="135" y="-129.5" font-family="Helvetica,sans-Serif" font-size="10.00">float</text>
</a>
</g>
</g>
<!-- Node3&#45;&gt;Node1 -->
<g id="edge2" class="edge">
<title>Node3&#45;&gt;Node1</title>
<path fill="none" stroke="#9a32cd" stroke-dasharray="5,2" d="M133.24,-112.18C132.39,-91.14 134.55,-57.48 154,-38 166.96,-25.02 213.82,-17.78 247.8,-14.13"/>
<polygon fill="#9a32cd" stroke="#9a32cd" points="129.77,-112.66 133.93,-122.4 136.75,-112.18 129.77,-112.66"/>
<text text-anchor="middle" x="217.5" y="-96" font-family="Helvetica,sans-Serif" font-size="10.00"> origin</text>
<text text-anchor="middle" x="217.5" y="-85" font-family="Helvetica,sans-Serif" font-size="10.00">lightAmt</text>
<text text-anchor="middle" x="217.5" y="-74" font-family="Helvetica,sans-Serif" font-size="10.00">rootPos</text>
<text text-anchor="middle" x="217.5" y="-63" font-family="Helvetica,sans-Serif" font-size="10.00">convexHullCircumference</text>
<text text-anchor="middle" x="217.5" y="-52" font-family="Helvetica,sans-Serif" font-size="10.00">modulate</text>
<text text-anchor="middle" x="217.5" y="-41" font-family="Helvetica,sans-Serif" font-size="10.00">tailPos</text>
</g>
<!-- Node4 -->
<g id="node4" class="node">
<title>Node4</title>
<g id="a_node4"><a xlink:title=" ">
<polygon fill="none" stroke="#bfbfbf" points="270.5,-122.5 270.5,-141.5 299.5,-141.5 299.5,-122.5 270.5,-122.5"/>
<text text-anchor="middle" x="285" y="-129.5" font-family="Helvetica,sans-Serif" font-size="10.00">int</text>
</a>
</g>
</g>
<!-- Node4&#45;&gt;Node1 -->
<g id="edge3" class="edge">
<title>Node4&#45;&gt;Node1</title>
<path fill="none" stroke="#9a32cd" stroke-dasharray="5,2" d="M285,-112.15C285,-85.72 285,-38.76 285,-19.55"/>
<polygon fill="#9a32cd" stroke="#9a32cd" points="281.5,-112.37 285,-122.37 288.5,-112.37 281.5,-112.37"/>
<text text-anchor="middle" x="327" y="-74" font-family="Helvetica,sans-Serif" font-size="10.00"> lightDev</text>
<text text-anchor="middle" x="327" y="-63" font-family="Helvetica,sans-Serif" font-size="10.00">convexHullCount</text>
</g>
<!-- Node5 -->
<g id="node5" class="node">
<title>Node5</title>
<g id="a_node5"><a xlink:title=" ">
<polygon fill="none" stroke="#bfbfbf" points="360,-122.5 360,-141.5 424,-141.5 424,-122.5 360,-122.5"/>
<text text-anchor="middle" x="392" y="-129.5" font-family="Helvetica,sans-Serif" font-size="10.00">auraTag_t</text>
</a>
</g>
</g>
<!-- Node5&#45;&gt;Node1 -->
<g id="edge4" class="edge">
<title>Node5&#45;&gt;Node1</title>
<path fill="none" stroke="#9a32cd" stroke-dasharray="5,2" d="M392.7,-112.17C392.43,-91.39 388.75,-58.22 370,-38 357.68,-24.72 338.87,-17.94 322.07,-14.49"/>
<polygon fill="#9a32cd" stroke="#9a32cd" points="389.2,-112.23 392.57,-122.28 396.2,-112.32 389.2,-112.23"/>
<text text-anchor="middle" x="421" y="-68.5" font-family="Helvetica,sans-Serif" font-size="10.00"> convexHull</text>
</g>
<!-- Node6 -->
<g id="node6" class="node">
<title>Node6</title>
<g id="a_node6"><a xlink:title=" ">
<polygon fill="none" stroke="#bfbfbf" points="442,-122.5 442,-141.5 504,-141.5 504,-122.5 442,-122.5"/>
<text text-anchor="middle" x="473" y="-129.5" font-family="Helvetica,sans-Serif" font-size="10.00">qboolean</text>
</a>
</g>
</g>
<!-- Node6&#45;&gt;Node1 -->
<g id="edge5" class="edge">
<title>Node6&#45;&gt;Node1</title>
<path fill="none" stroke="#9a32cd" stroke-dasharray="5,2" d="M474.22,-112.26C474.49,-91.05 471.38,-56.98 451,-38 432.79,-21.04 365.2,-14.69 322.09,-12.35"/>
<polygon fill="#9a32cd" stroke="#9a32cd" points="470.72,-112.16 473.83,-122.29 477.72,-112.43 470.72,-112.16"/>
<text text-anchor="middle" x="495.5" y="-68.5" font-family="Helvetica,sans-Serif" font-size="10.00"> isActive</text>
</g>
</g>
</svg>
