<?xml version="1.0" encoding="UTF-8" standalone="no"?>
<!DOCTYPE svg PUBLIC "-//W3C//DTD SVG 1.1//EN"
 "http://www.w3.org/Graphics/SVG/1.1/DTD/svg11.dtd">
<!-- Generated by graphviz version 2.43.0 (0)
 -->
<!-- Title: tagMENUGETOBJECTINFO Pages: 1 -->
<svg width="358pt" height="128pt"
 viewBox="0.00 0.00 358.00 128.00" xmlns="http://www.w3.org/2000/svg" xmlns:xlink="http://www.w3.org/1999/xlink">
<g id="graph0" class="graph" transform="scale(1 1) rotate(0) translate(4 124)">
<title>tagMENUGETOBJECTINFO</title>
<!-- Node1 -->
<g id="node1" class="node">
<title>Node1</title>
<g id="a_node1"><a xlink:title=" ">
<polygon fill="#bfbfbf" stroke="black" points="32,-0.5 32,-19.5 174,-19.5 174,-0.5 32,-0.5"/>
<text text-anchor="middle" x="103" y="-7.5" font-family="Helvetica,sans-Serif" font-size="10.00">tagMENUGETOBJECTINFO</text>
</a>
</g>
</g>
<!-- Node2 -->
<g id="node2" class="node">
<title>Node2</title>
<g id="a_node2"><a xlink:title=" ">
<polygon fill="none" stroke="#bfbfbf" points="0,-89.5 0,-108.5 54,-108.5 54,-89.5 0,-89.5"/>
<text text-anchor="middle" x="27" y="-96.5" font-family="Helvetica,sans-Serif" font-size="10.00">HMENU</text>
</a>
</g>
</g>
<!-- Node2&#45;&gt;Node1 -->
<g id="edge1" class="edge">
<title>Node2&#45;&gt;Node1</title>
<path fill="none" stroke="#9a32cd" stroke-dasharray="5,2" d="M34.63,-80.31C40.74,-67.54 50.22,-50.44 62,-38 68.92,-30.7 78.17,-24.39 86.13,-19.71"/>
<polygon fill="#9a32cd" stroke="#9a32cd" points="31.43,-78.89 30.48,-89.44 37.8,-81.79 31.43,-78.89"/>
<text text-anchor="middle" x="80.5" y="-46.5" font-family="Helvetica,sans-Serif" font-size="10.00"> hmenu</text>
</g>
<!-- Node3 -->
<g id="node3" class="node">
<title>Node3</title>
<g id="a_node3"><a xlink:title=" ">
<polygon fill="none" stroke="#bfbfbf" points="72.5,-89.5 72.5,-108.5 133.5,-108.5 133.5,-89.5 72.5,-89.5"/>
<text text-anchor="middle" x="103" y="-96.5" font-family="Helvetica,sans-Serif" font-size="10.00">unsigned</text>
</a>
</g>
</g>
<!-- Node3&#45;&gt;Node1 -->
<g id="edge2" class="edge">
<title>Node3&#45;&gt;Node1</title>
<path fill="none" stroke="#9a32cd" stroke-dasharray="5,2" d="M103,-79.19C103,-60.74 103,-33.41 103,-19.62"/>
<polygon fill="#9a32cd" stroke="#9a32cd" points="99.5,-79.34 103,-89.34 106.5,-79.34 99.5,-79.34"/>
<text text-anchor="middle" x="123.5" y="-52" font-family="Helvetica,sans-Serif" font-size="10.00"> uPos</text>
<text text-anchor="middle" x="123.5" y="-41" font-family="Helvetica,sans-Serif" font-size="10.00">dwFlags</text>
</g>
<!-- Node4 -->
<g id="node4" class="node">
<title>Node4</title>
<g id="a_node4"><a xlink:title=" ">
<polygon fill="none" stroke="#bfbfbf" points="152,-78.5 152,-119.5 350,-119.5 350,-78.5 152,-78.5"/>
<text text-anchor="start" x="160" y="-107.5" font-family="Helvetica,sans-Serif" font-size="10.00">PSecurityUserData *typedef</text>
<text text-anchor="start" x="160" y="-96.5" font-family="Helvetica,sans-Serif" font-size="10.00"> PSECPKG_EXTENDED_INFORMATION</text>
<text text-anchor="middle" x="251" y="-85.5" font-family="Helvetica,sans-Serif" font-size="10.00"> *typedef</text>
</a>
</g>
</g>
<!-- Node4&#45;&gt;Node1 -->
<g id="edge3" class="edge">
<title>Node4&#45;&gt;Node1</title>
<path fill="none" stroke="#9a32cd" stroke-dasharray="5,2" d="M209.01,-73.32C178.41,-55.33 138.77,-32.02 117.69,-19.63"/>
<polygon fill="#9a32cd" stroke="#9a32cd" points="207.39,-76.43 217.79,-78.48 210.94,-70.39 207.39,-76.43"/>
<text text-anchor="middle" x="199.5" y="-52" font-family="Helvetica,sans-Serif" font-size="10.00"> riid</text>
<text text-anchor="middle" x="199.5" y="-41" font-family="Helvetica,sans-Serif" font-size="10.00">pvObj</text>
</g>
</g>
</svg>
