<?xml version="1.0" encoding="UTF-8" standalone="no"?>
<!DOCTYPE svg PUBLIC "-//W3C//DTD SVG 1.1//EN"
 "http://www.w3.org/Graphics/SVG/1.1/DTD/svg11.dtd">
<!-- Generated by graphviz version 2.43.0 (0)
 -->
<!-- Title: ACMFORMATDETAILSA Pages: 1 -->
<svg width="329pt" height="139pt"
 viewBox="0.00 0.00 328.50 139.00" xmlns="http://www.w3.org/2000/svg" xmlns:xlink="http://www.w3.org/1999/xlink">
<g id="graph0" class="graph" transform="scale(1 1) rotate(0) translate(4 135)">
<title>ACMFORMATDETAILSA</title>
<!-- Node1 -->
<g id="node1" class="node">
<title>Node1</title>
<g id="a_node1"><a xlink:title=" ">
<polygon fill="#bfbfbf" stroke="black" points="110.5,-0.5 110.5,-19.5 238.5,-19.5 238.5,-0.5 110.5,-0.5"/>
<text text-anchor="middle" x="174.5" y="-7.5" font-family="Helvetica,sans-Serif" font-size="10.00">ACMFORMATDETAILSA</text>
</a>
</g>
</g>
<!-- Node2 -->
<g id="node2" class="node">
<title>Node2</title>
<g id="a_node2"><a xlink:title=" ">
<polygon fill="none" stroke="#bfbfbf" points="0,-111.5 0,-130.5 137,-130.5 137,-111.5 0,-111.5"/>
<text text-anchor="middle" x="68.5" y="-118.5" font-family="Helvetica,sans-Serif" font-size="10.00">struct WAVEFORMATEX *</text>
</a>
</g>
</g>
<!-- Node2&#45;&gt;Node1 -->
<g id="edge1" class="edge">
<title>Node2&#45;&gt;Node1</title>
<path fill="none" stroke="#9a32cd" stroke-dasharray="5,2" d="M82.58,-103.08C97.03,-86.06 120.43,-59.34 142.5,-38 149.19,-31.53 157.19,-24.78 163.52,-19.65"/>
<polygon fill="#9a32cd" stroke="#9a32cd" points="79.67,-101.12 75.9,-111.02 85.02,-105.62 79.67,-101.12"/>
<text text-anchor="middle" x="156.5" y="-63" font-family="Helvetica,sans-Serif" font-size="10.00"> pwfx</text>
</g>
<!-- Node3 -->
<g id="node3" class="node">
<title>Node3</title>
<g id="a_node3"><a xlink:title=" ">
<polygon fill="none" stroke="#bfbfbf" points="155.5,-111.5 155.5,-130.5 193.5,-130.5 193.5,-111.5 155.5,-111.5"/>
<text text-anchor="middle" x="174.5" y="-118.5" font-family="Helvetica,sans-Serif" font-size="10.00">char</text>
</a>
</g>
</g>
<!-- Node3&#45;&gt;Node1 -->
<g id="edge2" class="edge">
<title>Node3&#45;&gt;Node1</title>
<path fill="none" stroke="#9a32cd" stroke-dasharray="5,2" d="M174.5,-101.19C174.5,-77.28 174.5,-36.99 174.5,-19.51"/>
<polygon fill="#9a32cd" stroke="#9a32cd" points="171,-101.45 174.5,-111.45 178,-101.45 171,-101.45"/>
<text text-anchor="middle" x="199" y="-63" font-family="Helvetica,sans-Serif" font-size="10.00"> szFormat</text>
</g>
<!-- Node4 -->
<g id="node4" class="node">
<title>Node4</title>
<g id="a_node4"><a xlink:title=" ">
<polygon fill="none" stroke="#bfbfbf" points="227.5,-111.5 227.5,-130.5 265.5,-130.5 265.5,-111.5 227.5,-111.5"/>
<text text-anchor="middle" x="246.5" y="-118.5" font-family="Helvetica,sans-Serif" font-size="10.00">long</text>
</a>
</g>
</g>
<!-- Node4&#45;&gt;Node1 -->
<g id="edge3" class="edge">
<title>Node4&#45;&gt;Node1</title>
<path fill="none" stroke="#9a32cd" stroke-dasharray="5,2" d="M245.65,-101.27C243.95,-83.31 238.96,-56.3 224.5,-38 218.08,-29.87 208.51,-23.87 199.46,-19.62"/>
<polygon fill="#9a32cd" stroke="#9a32cd" points="242.17,-101.62 246.35,-111.35 249.15,-101.13 242.17,-101.62"/>
<text text-anchor="middle" x="282.5" y="-85" font-family="Helvetica,sans-Serif" font-size="10.00"> fdwSupport</text>
<text text-anchor="middle" x="282.5" y="-74" font-family="Helvetica,sans-Serif" font-size="10.00">dwFormatTag</text>
<text text-anchor="middle" x="282.5" y="-63" font-family="Helvetica,sans-Serif" font-size="10.00">cbwfx</text>
<text text-anchor="middle" x="282.5" y="-52" font-family="Helvetica,sans-Serif" font-size="10.00">dwFormatIndex</text>
<text text-anchor="middle" x="282.5" y="-41" font-family="Helvetica,sans-Serif" font-size="10.00">cbStruct</text>
</g>
</g>
</svg>
