<?xml version="1.0" encoding="UTF-8" standalone="no"?>
<!DOCTYPE svg PUBLIC "-//W3C//DTD SVG 1.1//EN"
 "http://www.w3.org/Graphics/SVG/1.1/DTD/svg11.dtd">
<!-- Generated by graphviz version 2.43.0 (0)
 -->
<!-- Title: jpeg_source_mgr Pages: 1 -->
<svg width="196pt" height="95pt"
 viewBox="0.00 0.00 196.00 95.00" xmlns="http://www.w3.org/2000/svg" xmlns:xlink="http://www.w3.org/1999/xlink">
<g id="graph0" class="graph" transform="scale(1 1) rotate(0) translate(4 91)">
<title>jpeg_source_mgr</title>
<!-- Node1 -->
<g id="node1" class="node">
<title>Node1</title>
<g id="a_node1"><a xlink:title=" ">
<polygon fill="#bfbfbf" stroke="black" points="21,-0.5 21,-19.5 121,-19.5 121,-0.5 21,-0.5"/>
<text text-anchor="middle" x="71" y="-7.5" font-family="Helvetica,sans-Serif" font-size="10.00">jpeg_source_mgr</text>
</a>
</g>
</g>
<!-- Node2 -->
<g id="node2" class="node">
<title>Node2</title>
<g id="a_node2"><a xlink:title=" ">
<polygon fill="none" stroke="#bfbfbf" points="0,-67.5 0,-86.5 38,-86.5 38,-67.5 0,-67.5"/>
<text text-anchor="middle" x="19" y="-74.5" font-family="Helvetica,sans-Serif" font-size="10.00">char</text>
</a>
</g>
</g>
<!-- Node2&#45;&gt;Node1 -->
<g id="edge1" class="edge">
<title>Node2&#45;&gt;Node1</title>
<path fill="none" stroke="#9a32cd" stroke-dasharray="5,2" d="M15.79,-57.35C15.59,-50.81 16.48,-43.68 20,-38 25.17,-29.66 33.86,-23.74 42.61,-19.62"/>
<polygon fill="#9a32cd" stroke="#9a32cd" points="12.33,-57.9 16.91,-67.45 19.29,-57.13 12.33,-57.9"/>
<text text-anchor="middle" x="61" y="-41" font-family="Helvetica,sans-Serif" font-size="10.00"> next_input_byte</text>
</g>
<!-- Node3 -->
<g id="node3" class="node">
<title>Node3</title>
<g id="a_node3"><a xlink:title=" ">
<polygon fill="none" stroke="#bfbfbf" points="93.5,-67.5 93.5,-86.5 154.5,-86.5 154.5,-67.5 93.5,-67.5"/>
<text text-anchor="middle" x="124" y="-74.5" font-family="Helvetica,sans-Serif" font-size="10.00">unsigned</text>
</a>
</g>
</g>
<!-- Node3&#45;&gt;Node1 -->
<g id="edge2" class="edge">
<title>Node3&#45;&gt;Node1</title>
<path fill="none" stroke="#9a32cd" stroke-dasharray="5,2" d="M115.36,-58.34C111.69,-51.65 107.08,-44.16 102,-38 96.37,-31.17 88.92,-24.62 82.74,-19.69"/>
<polygon fill="#9a32cd" stroke="#9a32cd" points="112.31,-60.06 120.01,-67.34 118.53,-56.85 112.31,-60.06"/>
<text text-anchor="middle" x="148.5" y="-41" font-family="Helvetica,sans-Serif" font-size="10.00"> bytes_in_buffer</text>
</g>
</g>
</svg>
