<?xml version="1.0" encoding="UTF-8" standalone="no"?>
<!DOCTYPE svg PUBLIC "-//W3C//DTD SVG 1.1//EN"
 "http://www.w3.org/Graphics/SVG/1.1/DTD/svg11.dtd">
<!-- Generated by graphviz version 2.43.0 (0)
 -->
<!-- Title: _SCSI_SUPPORTED_CONTROL_TYPE_LIST Pages: 1 -->
<svg width="495pt" height="110pt"
 viewBox="0.00 0.00 495.00 110.00" xmlns="http://www.w3.org/2000/svg" xmlns:xlink="http://www.w3.org/1999/xlink">
<g id="graph0" class="graph" transform="scale(1 1) rotate(0) translate(4 106)">
<title>_SCSI_SUPPORTED_CONTROL_TYPE_LIST</title>
<!-- Node1 -->
<g id="node1" class="node">
<title>Node1</title>
<g id="a_node1"><a xlink:title=" ">
<polygon fill="#bfbfbf" stroke="black" points="327,-36 327,-66 487,-66 487,-36 327,-36"/>
<text text-anchor="start" x="335" y="-54" font-family="Helvetica,sans-Serif" font-size="10.00">_SCSI_SUPPORTED_CONTROL</text>
<text text-anchor="middle" x="407" y="-43" font-family="Helvetica,sans-Serif" font-size="10.00">_TYPE_LIST</text>
</a>
</g>
</g>
<!-- Node2 -->
<g id="node2" class="node">
<title>Node2</title>
<g id="a_node2"><a xlink:title=" ">
<polygon fill="none" stroke="#bfbfbf" points="18.5,-60.5 18.5,-101.5 179.5,-101.5 179.5,-60.5 18.5,-60.5"/>
<text text-anchor="start" x="26.5" y="-89.5" font-family="Helvetica,sans-Serif" font-size="10.00">PLDAP *typedef(__cdecl</text>
<text text-anchor="start" x="26.5" y="-78.5" font-family="Helvetica,sans-Serif" font-size="10.00"> NOTIFYOFNEWCONNECTION)</text>
<text text-anchor="middle" x="99" y="-67.5" font-family="Helvetica,sans-Serif" font-size="10.00">(PLDAP</text>
</a>
</g>
</g>
<!-- Node2&#45;&gt;Node1 -->
<g id="edge1" class="edge">
<title>Node2&#45;&gt;Node1</title>
<path fill="none" stroke="#9a32cd" stroke-dasharray="5,2" d="M189.6,-72.22C233.05,-67.96 284.8,-62.88 326.8,-58.76"/>
<polygon fill="#9a32cd" stroke="#9a32cd" points="189.21,-68.74 179.6,-73.2 189.89,-75.7 189.21,-68.74"/>
<text text-anchor="middle" x="262.5" y="-72" font-family="Helvetica,sans-Serif" font-size="10.00"> SupportedTypeList</text>
</g>
<!-- Node3 -->
<g id="node3" class="node">
<title>Node3</title>
<g id="a_node3"><a xlink:title=" ">
<polygon fill="none" stroke="#bfbfbf" points="0,-0.5 0,-41.5 198,-41.5 198,-0.5 0,-0.5"/>
<text text-anchor="start" x="8" y="-29.5" font-family="Helvetica,sans-Serif" font-size="10.00">PSecurityUserData *typedef</text>
<text text-anchor="start" x="8" y="-18.5" font-family="Helvetica,sans-Serif" font-size="10.00"> PSECPKG_EXTENDED_INFORMATION</text>
<text text-anchor="middle" x="99" y="-7.5" font-family="Helvetica,sans-Serif" font-size="10.00"> *typedef</text>
</a>
</g>
</g>
<!-- Node3&#45;&gt;Node1 -->
<g id="edge2" class="edge">
<title>Node3&#45;&gt;Node1</title>
<path fill="none" stroke="#9a32cd" stroke-dasharray="5,2" d="M208.44,-31.63C247.48,-35.46 290.76,-39.7 326.84,-43.24"/>
<polygon fill="#9a32cd" stroke="#9a32cd" points="208.38,-28.11 198.08,-30.62 207.69,-35.08 208.38,-28.11"/>
<text text-anchor="middle" x="262.5" y="-44" font-family="Helvetica,sans-Serif" font-size="10.00"> MaxControlType</text>
</g>
</g>
</svg>
