<?xml version="1.0" encoding="UTF-8" standalone="no"?>
<!DOCTYPE svg PUBLIC "-//W3C//DTD SVG 1.1//EN"
 "http://www.w3.org/Graphics/SVG/1.1/DTD/svg11.dtd">
<!-- Generated by graphviz version 2.43.0 (0)
 -->
<!-- Title: _LVCOLUMNW Pages: 1 -->
<svg width="244pt" height="128pt"
 viewBox="0.00 0.00 244.00 128.00" xmlns="http://www.w3.org/2000/svg" xmlns:xlink="http://www.w3.org/1999/xlink">
<g id="graph0" class="graph" transform="scale(1 1) rotate(0) translate(4 124)">
<title>_LVCOLUMNW</title>
<!-- Node1 -->
<g id="node1" class="node">
<title>Node1</title>
<g id="a_node1"><a xlink:title=" ">
<polygon fill="#bfbfbf" stroke="black" points="78.5,-0.5 78.5,-19.5 164.5,-19.5 164.5,-0.5 78.5,-0.5"/>
<text text-anchor="middle" x="121.5" y="-7.5" font-family="Helvetica,sans-Serif" font-size="10.00">_LVCOLUMNW</text>
</a>
</g>
</g>
<!-- Node2 -->
<g id="node2" class="node">
<title>Node2</title>
<g id="a_node2"><a xlink:title=" ">
<polygon fill="none" stroke="#bfbfbf" points="0,-100.5 0,-119.5 89,-119.5 89,-100.5 0,-100.5"/>
<text text-anchor="middle" x="44.5" y="-107.5" font-family="Helvetica,sans-Serif" font-size="10.00">unsigned short</text>
</a>
</g>
</g>
<!-- Node2&#45;&gt;Node1 -->
<g id="edge1" class="edge">
<title>Node2&#45;&gt;Node1</title>
<path fill="none" stroke="#9a32cd" stroke-dasharray="5,2" d="M49.85,-90.29C54.98,-74.89 63.97,-53.19 77.5,-38 84.3,-30.37 93.77,-24.18 102.18,-19.66"/>
<polygon fill="#9a32cd" stroke="#9a32cd" points="46.39,-89.62 46.78,-100.21 53.08,-91.69 46.39,-89.62"/>
<text text-anchor="middle" x="97.5" y="-57.5" font-family="Helvetica,sans-Serif" font-size="10.00"> pszText</text>
</g>
<!-- Node3 -->
<g id="node3" class="node">
<title>Node3</title>
<g id="a_node3"><a xlink:title=" ">
<polygon fill="none" stroke="#bfbfbf" points="107,-100.5 107,-119.5 136,-119.5 136,-100.5 107,-100.5"/>
<text text-anchor="middle" x="121.5" y="-107.5" font-family="Helvetica,sans-Serif" font-size="10.00">int</text>
</a>
</g>
</g>
<!-- Node3&#45;&gt;Node1 -->
<g id="edge2" class="edge">
<title>Node3&#45;&gt;Node1</title>
<path fill="none" stroke="#9a32cd" stroke-dasharray="5,2" d="M121.5,-90.22C121.5,-68.95 121.5,-35.22 121.5,-19.54"/>
<polygon fill="#9a32cd" stroke="#9a32cd" points="118,-90.3 121.5,-100.3 125,-90.3 118,-90.3"/>
<text text-anchor="middle" x="152" y="-74" font-family="Helvetica,sans-Serif" font-size="10.00"> cchTextMax</text>
<text text-anchor="middle" x="152" y="-63" font-family="Helvetica,sans-Serif" font-size="10.00">cx</text>
<text text-anchor="middle" x="152" y="-52" font-family="Helvetica,sans-Serif" font-size="10.00">fmt</text>
<text text-anchor="middle" x="152" y="-41" font-family="Helvetica,sans-Serif" font-size="10.00">iSubItem</text>
</g>
<!-- Node4 -->
<g id="node4" class="node">
<title>Node4</title>
<g id="a_node4"><a xlink:title=" ">
<polygon fill="none" stroke="#bfbfbf" points="175,-100.5 175,-119.5 236,-119.5 236,-100.5 175,-100.5"/>
<text text-anchor="middle" x="205.5" y="-107.5" font-family="Helvetica,sans-Serif" font-size="10.00">unsigned</text>
</a>
</g>
</g>
<!-- Node4&#45;&gt;Node1 -->
<g id="edge3" class="edge">
<title>Node4&#45;&gt;Node1</title>
<path fill="none" stroke="#9a32cd" stroke-dasharray="5,2" d="M204.01,-90.38C201.84,-74.69 196.52,-52.54 183.5,-38 175.98,-29.6 165.38,-23.71 155.07,-19.62"/>
<polygon fill="#9a32cd" stroke="#9a32cd" points="200.54,-90.89 205.09,-100.46 207.5,-90.14 200.54,-90.89"/>
<text text-anchor="middle" x="217" y="-57.5" font-family="Helvetica,sans-Serif" font-size="10.00"> mask</text>
</g>
</g>
</svg>
