<?xml version="1.0" encoding="UTF-8" standalone="no"?>
<!DOCTYPE svg PUBLIC "-//W3C//DTD SVG 1.1//EN"
 "http://www.w3.org/Graphics/SVG/1.1/DTD/svg11.dtd">
<!-- Generated by graphviz version 2.43.0 (0)
 -->
<!-- Title: JitterBuffer Pages: 1 -->
<svg width="690pt" height="307pt"
 viewBox="0.00 0.00 689.50 307.00" xmlns="http://www.w3.org/2000/svg" xmlns:xlink="http://www.w3.org/1999/xlink">
<g id="graph0" class="graph" transform="scale(1 1) rotate(0) translate(4 303)">
<title>JitterBuffer</title>
<!-- Node1 -->
<g id="node1" class="node">
<title>Node1</title>
<g id="a_node1"><a xlink:title="Jitter buffer structure.">
<polygon fill="#bfbfbf" stroke="black" points="250,-0.5 250,-19.5 319,-19.5 319,-0.5 250,-0.5"/>
<text text-anchor="middle" x="284.5" y="-7.5" font-family="Helvetica,sans-Serif" font-size="10.00">JitterBuffer</text>
</a>
</g>
</g>
<!-- Node2 -->
<g id="node2" class="node">
<title>Node2</title>
<g id="a_node2"><a xlink:title=" ">
<polygon fill="none" stroke="#bfbfbf" points="0,-151 0,-170 87,-170 87,-151 0,-151"/>
<text text-anchor="middle" x="43.5" y="-158" font-family="Helvetica,sans-Serif" font-size="10.00">void(*)(void *)</text>
</a>
</g>
</g>
<!-- Node2&#45;&gt;Node1 -->
<g id="edge1" class="edge">
<title>Node2&#45;&gt;Node1</title>
<path fill="none" stroke="#9a32cd" stroke-dasharray="5,2" d="M49.44,-141.17C59.31,-113.87 81.81,-63.07 119.5,-38 140.34,-24.13 208.02,-16.69 249.94,-13.32"/>
<polygon fill="#9a32cd" stroke="#9a32cd" points="46.01,-140.39 46.07,-150.99 52.63,-142.66 46.01,-140.39"/>
<text text-anchor="middle" x="139.5" y="-57.5" font-family="Helvetica,sans-Serif" font-size="10.00"> destroy</text>
</g>
<!-- Node3 -->
<g id="node3" class="node">
<title>Node3</title>
<g id="a_node3"><a xlink:title=" ">
<polygon fill="none" stroke="#bfbfbf" points="105,-151 105,-170 206,-170 206,-151 105,-151"/>
<text text-anchor="middle" x="155.5" y="-158" font-family="Helvetica,sans-Serif" font-size="10.00">JitterBufferPacket</text>
</a>
</g>
</g>
<!-- Node3&#45;&gt;Node1 -->
<g id="edge2" class="edge">
<title>Node3&#45;&gt;Node1</title>
<path fill="none" stroke="#9a32cd" stroke-dasharray="5,2" d="M155.01,-140.49C155.39,-113.9 160.15,-65.74 187.5,-38 203.7,-21.57 228.98,-14.91 249.68,-12.3"/>
<polygon fill="#9a32cd" stroke="#9a32cd" points="151.51,-140.77 155.07,-150.75 158.51,-140.73 151.51,-140.77"/>
<text text-anchor="middle" x="208" y="-57.5" font-family="Helvetica,sans-Serif" font-size="10.00"> packets</text>
</g>
<!-- Node4 -->
<g id="node4" class="node">
<title>Node4</title>
<g id="a_node4"><a xlink:href="../../de/d8e/structTimingBuffer.html" target="_top" xlink:title="Buffer that keeps the time of arrival of the latest packets.">
<polygon fill="none" stroke="black" points="343.5,-151 343.5,-170 423.5,-170 423.5,-151 343.5,-151"/>
<text text-anchor="middle" x="383.5" y="-158" font-family="Helvetica,sans-Serif" font-size="10.00">TimingBuffer</text>
</a>
</g>
</g>
<!-- Node4&#45;&gt;Node1 -->
<g id="edge3" class="edge">
<title>Node4&#45;&gt;Node1</title>
<path fill="none" stroke="#9a32cd" stroke-dasharray="5,2" d="M371.78,-141.93C350.46,-109.94 306.05,-43.33 290.24,-19.61"/>
<polygon fill="#9a32cd" stroke="#9a32cd" points="369.14,-144.28 377.6,-150.66 374.97,-140.39 369.14,-144.28"/>
<text text-anchor="middle" x="359.5" y="-63" font-family="Helvetica,sans-Serif" font-size="10.00"> _tb</text>
<text text-anchor="middle" x="359.5" y="-52" font-family="Helvetica,sans-Serif" font-size="10.00">timeBuffers</text>
</g>
<!-- Node5 -->
<g id="node5" class="node">
<title>Node5</title>
<g id="a_node5"><a xlink:title=" ">
<polygon fill="none" stroke="#bfbfbf" points="245,-279.5 245,-298.5 274,-298.5 274,-279.5 245,-279.5"/>
<text text-anchor="middle" x="259.5" y="-286.5" font-family="Helvetica,sans-Serif" font-size="10.00">int</text>
</a>
</g>
</g>
<!-- Node5&#45;&gt;Node1 -->
<g id="edge7" class="edge">
<title>Node5&#45;&gt;Node1</title>
<path fill="none" stroke="#9a32cd" stroke-dasharray="5,2" d="M256.04,-269.39C250.3,-235.43 240.51,-161.25 251.5,-100 257.03,-69.18 272.53,-35.08 280.15,-19.55"/>
<polygon fill="#9a32cd" stroke="#9a32cd" points="252.6,-270.05 257.79,-279.29 259.49,-268.83 252.6,-270.05"/>
<text text-anchor="middle" x="293" y="-213" font-family="Helvetica,sans-Serif" font-size="10.00"> auto_tradeoff</text>
<text text-anchor="middle" x="293" y="-202" font-family="Helvetica,sans-Serif" font-size="10.00">late_cutoff</text>
<text text-anchor="middle" x="293" y="-191" font-family="Helvetica,sans-Serif" font-size="10.00">lost_count</text>
<text text-anchor="middle" x="293" y="-180" font-family="Helvetica,sans-Serif" font-size="10.00">interp_requested</text>
<text text-anchor="middle" x="293" y="-169" font-family="Helvetica,sans-Serif" font-size="10.00">latency_tradeoff</text>
<text text-anchor="middle" x="293" y="-158" font-family="Helvetica,sans-Serif" font-size="10.00">reset_state</text>
<text text-anchor="middle" x="293" y="-147" font-family="Helvetica,sans-Serif" font-size="10.00">auto_adjust</text>
<text text-anchor="middle" x="293" y="-136" font-family="Helvetica,sans-Serif" font-size="10.00">buffer_margin</text>
<text text-anchor="middle" x="293" y="-125" font-family="Helvetica,sans-Serif" font-size="10.00">window_size</text>
<text text-anchor="middle" x="293" y="-114" font-family="Helvetica,sans-Serif" font-size="10.00">max_late_rate</text>
<text text-anchor="middle" x="293" y="-103" font-family="Helvetica,sans-Serif" font-size="10.00">...</text>
</g>
<!-- Node5&#45;&gt;Node4 -->
<g id="edge4" class="edge">
<title>Node5&#45;&gt;Node4</title>
<path fill="none" stroke="#9a32cd" stroke-dasharray="5,2" d="M276.86,-272.03C291.23,-258.65 312.04,-238.93 329.5,-221 346.63,-203.41 365.73,-181.88 375.99,-170.15"/>
<polygon fill="#9a32cd" stroke="#9a32cd" points="274.17,-269.74 269.22,-279.11 278.93,-274.88 274.17,-269.74"/>
<text text-anchor="middle" x="336.5" y="-253" font-family="Helvetica,sans-Serif" font-size="10.00"> filled</text>
<text text-anchor="middle" x="336.5" y="-242" font-family="Helvetica,sans-Serif" font-size="10.00">curr_count</text>
</g>
<!-- Node6 -->
<g id="node6" class="node">
<title>Node6</title>
<g id="a_node6"><a xlink:title=" ">
<polygon fill="none" stroke="#bfbfbf" points="345,-279.5 345,-298.5 422,-298.5 422,-279.5 345,-279.5"/>
<text text-anchor="middle" x="383.5" y="-286.5" font-family="Helvetica,sans-Serif" font-size="10.00">signed short</text>
</a>
</g>
</g>
<!-- Node6&#45;&gt;Node4 -->
<g id="edge5" class="edge">
<title>Node6&#45;&gt;Node4</title>
<path fill="none" stroke="#9a32cd" stroke-dasharray="5,2" d="M383.5,-268.94C383.5,-241.12 383.5,-190.54 383.5,-170.26"/>
<polygon fill="#9a32cd" stroke="#9a32cd" points="380,-269.31 383.5,-279.31 387,-269.31 380,-269.31"/>
<text text-anchor="middle" x="401.5" y="-253" font-family="Helvetica,sans-Serif" font-size="10.00"> counts</text>
<text text-anchor="middle" x="401.5" y="-242" font-family="Helvetica,sans-Serif" font-size="10.00">timing</text>
</g>
<!-- Node7 -->
<g id="node7" class="node">
<title>Node7</title>
<g id="a_node7"><a xlink:title=" ">
<polygon fill="none" stroke="#bfbfbf" points="442,-151 442,-170 507,-170 507,-151 442,-151"/>
<text text-anchor="middle" x="474.5" y="-158" font-family="Helvetica,sans-Serif" font-size="10.00">signed int</text>
</a>
</g>
</g>
<!-- Node7&#45;&gt;Node1 -->
<g id="edge6" class="edge">
<title>Node7&#45;&gt;Node1</title>
<path fill="none" stroke="#9a32cd" stroke-dasharray="5,2" d="M467.39,-141.51C455.84,-114.69 430.41,-64.55 392.5,-38 370.97,-22.92 341.84,-16.24 319.25,-13.3"/>
<polygon fill="#9a32cd" stroke="#9a32cd" points="464.19,-142.95 471.25,-150.85 470.66,-140.27 464.19,-142.95"/>
<text text-anchor="middle" x="477.5" y="-68.5" font-family="Helvetica,sans-Serif" font-size="10.00"> delay_step</text>
<text text-anchor="middle" x="477.5" y="-57.5" font-family="Helvetica,sans-Serif" font-size="10.00">concealment_size</text>
<text text-anchor="middle" x="477.5" y="-46.5" font-family="Helvetica,sans-Serif" font-size="10.00">buffered</text>
</g>
<!-- Node8 -->
<g id="node8" class="node">
<title>Node8</title>
<g id="a_node8"><a xlink:title=" ">
<polygon fill="none" stroke="#bfbfbf" points="531,-151 531,-170 608,-170 608,-151 531,-151"/>
<text text-anchor="middle" x="569.5" y="-158" font-family="Helvetica,sans-Serif" font-size="10.00">unsigned int</text>
</a>
</g>
</g>
<!-- Node8&#45;&gt;Node1 -->
<g id="edge8" class="edge">
<title>Node8&#45;&gt;Node1</title>
<path fill="none" stroke="#9a32cd" stroke-dasharray="5,2" d="M568.56,-140.46C566.11,-113.05 557.26,-63.03 525.5,-38 494.33,-13.44 378.4,-10.41 319.43,-10.52"/>
<polygon fill="#9a32cd" stroke="#9a32cd" points="565.09,-140.95 569.27,-150.68 572.07,-140.46 565.09,-140.95"/>
<text text-anchor="middle" x="618" y="-74" font-family="Helvetica,sans-Serif" font-size="10.00"> last_returned_timestamp</text>
<text text-anchor="middle" x="618" y="-63" font-family="Helvetica,sans-Serif" font-size="10.00">pointer_timestamp</text>
<text text-anchor="middle" x="618" y="-52" font-family="Helvetica,sans-Serif" font-size="10.00">next_stop</text>
<text text-anchor="middle" x="618" y="-41" font-family="Helvetica,sans-Serif" font-size="10.00">arrival</text>
</g>
</g>
</svg>
