<?xml version="1.0" encoding="UTF-8" standalone="no"?>
<!DOCTYPE svg PUBLIC "-//W3C//DTD SVG 1.1//EN"
 "http://www.w3.org/Graphics/SVG/1.1/DTD/svg11.dtd">
<!-- Generated by graphviz version 2.43.0 (0)
 -->
<!-- Title: MENUITEMTEMPLATE Pages: 1 -->
<svg width="156pt" height="106pt"
 viewBox="0.00 0.00 156.00 106.00" xmlns="http://www.w3.org/2000/svg" xmlns:xlink="http://www.w3.org/1999/xlink">
<g id="graph0" class="graph" transform="scale(1 1) rotate(0) translate(4 102)">
<title>MENUITEMTEMPLATE</title>
<!-- Node1 -->
<g id="node1" class="node">
<title>Node1</title>
<g id="a_node1"><a xlink:title=" ">
<polygon fill="#bfbfbf" stroke="black" points="0.5,-0.5 0.5,-19.5 122.5,-19.5 122.5,-0.5 0.5,-0.5"/>
<text text-anchor="middle" x="61.5" y="-7.5" font-family="Helvetica,sans-Serif" font-size="10.00">MENUITEMTEMPLATE</text>
</a>
</g>
</g>
<!-- Node2 -->
<g id="node2" class="node">
<title>Node2</title>
<g id="a_node2"><a xlink:title=" ">
<polygon fill="none" stroke="#bfbfbf" points="0,-78.5 0,-97.5 41,-97.5 41,-78.5 0,-78.5"/>
<text text-anchor="middle" x="20.5" y="-85.5" font-family="Helvetica,sans-Serif" font-size="10.00">short</text>
</a>
</g>
</g>
<!-- Node2&#45;&gt;Node1 -->
<g id="edge1" class="edge">
<title>Node2&#45;&gt;Node1</title>
<path fill="none" stroke="#9a32cd" stroke-dasharray="5,2" d="M24.08,-68.17C26.41,-58.69 30.05,-47.26 35.5,-38 39.59,-31.05 45.82,-24.49 51.15,-19.59"/>
<polygon fill="#9a32cd" stroke="#9a32cd" points="20.6,-67.66 21.91,-78.18 27.45,-69.14 20.6,-67.66"/>
<text text-anchor="middle" x="58.5" y="-52" font-family="Helvetica,sans-Serif" font-size="10.00"> mtID</text>
<text text-anchor="middle" x="58.5" y="-41" font-family="Helvetica,sans-Serif" font-size="10.00">mtOption</text>
</g>
<!-- Node3 -->
<g id="node3" class="node">
<title>Node3</title>
<g id="a_node3"><a xlink:title=" ">
<polygon fill="none" stroke="#bfbfbf" points="59,-78.5 59,-97.5 148,-97.5 148,-78.5 59,-78.5"/>
<text text-anchor="middle" x="103.5" y="-85.5" font-family="Helvetica,sans-Serif" font-size="10.00">unsigned short</text>
</a>
</g>
</g>
<!-- Node3&#45;&gt;Node1 -->
<g id="edge2" class="edge">
<title>Node3&#45;&gt;Node1</title>
<path fill="none" stroke="#9a32cd" stroke-dasharray="5,2" d="M96.46,-68.86C92.52,-59.42 87.25,-47.82 81.5,-38 77.73,-31.56 72.73,-24.81 68.67,-19.67"/>
<polygon fill="#9a32cd" stroke="#9a32cd" points="93.32,-70.43 100.29,-78.4 99.81,-67.82 93.32,-70.43"/>
<text text-anchor="middle" x="114.5" y="-46.5" font-family="Helvetica,sans-Serif" font-size="10.00"> mtString</text>
</g>
</g>
</svg>
