<?xml version="1.0" encoding="UTF-8" standalone="no"?>
<!DOCTYPE svg PUBLIC "-//W3C//DTD SVG 1.1//EN"
 "http://www.w3.org/Graphics/SVG/1.1/DTD/svg11.dtd">
<!-- Generated by graphviz version 2.43.0 (0)
 -->
<!-- Title: Tools/MinGW/include/SDL/SDL_mouse.h Pages: 1 -->
<svg width="879pt" height="431pt"
 viewBox="0.00 0.00 878.50 431.00" xmlns="http://www.w3.org/2000/svg" xmlns:xlink="http://www.w3.org/1999/xlink">
<g id="graph0" class="graph" transform="scale(1 1) rotate(0) translate(4 427)">
<title>Tools/MinGW/include/SDL/SDL_mouse.h</title>
<!-- Node1 -->
<g id="node1" class="node">
<title>Node1</title>
<g id="a_node1"><a xlink:title=" ">
<polygon fill="#bfbfbf" stroke="black" points="342,-392.5 342,-422.5 460,-422.5 460,-392.5 342,-392.5"/>
<text text-anchor="start" x="350" y="-410.5" font-family="Helvetica,sans-Serif" font-size="10.00">Tools/MinGW/include</text>
<text text-anchor="middle" x="401" y="-399.5" font-family="Helvetica,sans-Serif" font-size="10.00">/SDL/SDL_mouse.h</text>
</a>
</g>
</g>
<!-- Node2 -->
<g id="node2" class="node">
<title>Node2</title>
<g id="a_node2"><a xlink:href="../../de/d55/Tools_2MinGW_2include_2SDL_2SDL__stdinc_8h.html" target="_top" xlink:title=" ">
<polygon fill="none" stroke="black" points="385.5,-168.5 385.5,-187.5 464.5,-187.5 464.5,-168.5 385.5,-168.5"/>
<text text-anchor="middle" x="425" y="-175.5" font-family="Helvetica,sans-Serif" font-size="10.00">SDL_stdinc.h</text>
</a>
</g>
</g>
<!-- Node1&#45;&gt;Node2 -->
<g id="edge1" class="edge">
<title>Node1&#45;&gt;Node2</title>
<path fill="none" stroke="midnightblue" d="M382.45,-392.17C372,-383.01 359.73,-370.21 353,-356 338.48,-325.34 340.21,-313.42 346,-280 350.51,-253.96 350.41,-245.34 366,-224 375.15,-211.48 388.73,-200.79 400.56,-192.98"/>
<polygon fill="midnightblue" stroke="midnightblue" points="402.55,-195.86 409.16,-187.57 398.83,-189.93 402.55,-195.86"/>
</g>
<!-- Node16 -->
<g id="node16" class="node">
<title>Node16</title>
<g id="a_node16"><a xlink:href="../../db/d13/Tools_2MinGW_2include_2SDL_2begin__code_8h.html" target="_top" xlink:title=" ">
<polygon fill="none" stroke="black" points="789.5,-112.5 789.5,-131.5 870.5,-131.5 870.5,-112.5 789.5,-112.5"/>
<text text-anchor="middle" x="830" y="-119.5" font-family="Helvetica,sans-Serif" font-size="10.00">begin_code.h</text>
</a>
</g>
</g>
<!-- Node1&#45;&gt;Node16 -->
<g id="edge34" class="edge">
<title>Node1&#45;&gt;Node16</title>
<path fill="none" stroke="midnightblue" d="M460.02,-399.65C560.97,-386.28 756,-352.49 756,-291 756,-291 756,-291 756,-233 756,-193.61 789.07,-157.73 811,-138.26"/>
<polygon fill="midnightblue" stroke="midnightblue" points="813.43,-140.79 818.76,-131.64 808.88,-135.47 813.43,-140.79"/>
</g>
<!-- Node17 -->
<g id="node17" class="node">
<title>Node17</title>
<g id="a_node17"><a xlink:href="../../d4/df6/Tools_2MinGW_2include_2SDL_2close__code_8h.html" target="_top" xlink:title=" ">
<polygon fill="none" stroke="black" points="0,-112.5 0,-131.5 80,-131.5 80,-112.5 0,-112.5"/>
<text text-anchor="middle" x="40" y="-119.5" font-family="Helvetica,sans-Serif" font-size="10.00">close_code.h</text>
</a>
</g>
</g>
<!-- Node1&#45;&gt;Node17 -->
<g id="edge35" class="edge">
<title>Node1&#45;&gt;Node17</title>
<path fill="none" stroke="midnightblue" d="M341.86,-405.73C263.76,-401.22 136,-380.21 136,-291 136,-291 136,-291 136,-233 136,-189.54 92.94,-154.96 64.5,-136.85"/>
<polygon fill="midnightblue" stroke="midnightblue" points="66.21,-133.79 55.85,-131.56 62.56,-139.77 66.21,-133.79"/>
</g>
<!-- Node18 -->
<g id="node18" class="node">
<title>Node18</title>
<g id="a_node18"><a xlink:href="../../d8/de4/Tools_2MinGW_2include_2SDL_2SDL__error_8h.html" target="_top" xlink:title=" ">
<polygon fill="none" stroke="black" points="431,-224.5 431,-243.5 503,-243.5 503,-224.5 431,-224.5"/>
<text text-anchor="middle" x="467" y="-231.5" font-family="Helvetica,sans-Serif" font-size="10.00">SDL_error.h</text>
</a>
</g>
</g>
<!-- Node1&#45;&gt;Node18 -->
<g id="edge20" class="edge">
<title>Node1&#45;&gt;Node18</title>
<path fill="none" stroke="midnightblue" d="M417.17,-392.37C427.18,-382.91 439.66,-369.71 448,-356 461.73,-333.42 463.49,-326.04 468,-300 469.52,-291.24 468.1,-288.89 468,-280 467.9,-271.4 467.71,-261.87 467.51,-253.8"/>
<polygon fill="midnightblue" stroke="midnightblue" points="471.01,-253.53 467.25,-243.63 464.01,-253.71 471.01,-253.53"/>
</g>
<!-- Node19 -->
<g id="node19" class="node">
<title>Node19</title>
<g id="a_node19"><a xlink:href="../../d3/d2f/Tools_2MinGW_2include_2SDL_2SDL__video_8h.html" target="_top" xlink:title=" ">
<polygon fill="none" stroke="black" points="362.5,-336.5 362.5,-355.5 439.5,-355.5 439.5,-336.5 362.5,-336.5"/>
<text text-anchor="middle" x="401" y="-343.5" font-family="Helvetica,sans-Serif" font-size="10.00">SDL_video.h</text>
</a>
</g>
</g>
<!-- Node1&#45;&gt;Node19 -->
<g id="edge24" class="edge">
<title>Node1&#45;&gt;Node19</title>
<path fill="none" stroke="midnightblue" d="M401,-392.4C401,-384.47 401,-374.46 401,-365.86"/>
<polygon fill="midnightblue" stroke="midnightblue" points="404.5,-365.66 401,-355.66 397.5,-365.66 404.5,-365.66"/>
</g>
<!-- Node3 -->
<g id="node3" class="node">
<title>Node3</title>
<g id="a_node3"><a xlink:href="../../da/db6/Tools_2MinGW_2include_2SDL_2SDL__config_8h.html" target="_top" xlink:title=" ">
<polygon fill="none" stroke="black" points="508.5,-112.5 508.5,-131.5 587.5,-131.5 587.5,-112.5 508.5,-112.5"/>
<text text-anchor="middle" x="548" y="-119.5" font-family="Helvetica,sans-Serif" font-size="10.00">SDL_config.h</text>
</a>
</g>
</g>
<!-- Node2&#45;&gt;Node3 -->
<g id="edge2" class="edge">
<title>Node2&#45;&gt;Node3</title>
<path fill="none" stroke="midnightblue" d="M444.49,-168.44C464.64,-159.6 496.32,-145.69 519.33,-135.59"/>
<polygon fill="midnightblue" stroke="midnightblue" points="520.85,-138.74 528.6,-131.52 518.04,-132.33 520.85,-138.74"/>
</g>
<!-- Node5 -->
<g id="node5" class="node">
<title>Node5</title>
<g id="a_node5"><a xlink:href="../../dc/d8f/Tools_2MinGW_2include_2sys_2types_8h.html" target="_top" xlink:title=" ">
<polygon fill="none" stroke="black" points="668,-56.5 668,-75.5 740,-75.5 740,-56.5 668,-56.5"/>
<text text-anchor="middle" x="704" y="-63.5" font-family="Helvetica,sans-Serif" font-size="10.00">sys/types.h</text>
</a>
</g>
</g>
<!-- Node2&#45;&gt;Node5 -->
<g id="edge4" class="edge">
<title>Node2&#45;&gt;Node5</title>
<path fill="none" stroke="midnightblue" d="M464.58,-170.29C533.55,-158.54 668.86,-135.16 673,-132 687.72,-120.75 695.79,-100.73 699.97,-85.88"/>
<polygon fill="midnightblue" stroke="midnightblue" points="703.47,-86.3 702.46,-75.75 696.67,-84.63 703.47,-86.3"/>
</g>
<!-- Node7 -->
<g id="node7" class="node">
<title>Node7</title>
<g id="a_node7"><a xlink:href="../../d3/dce/stddef_8h.html" target="_top" xlink:title=" ">
<polygon fill="none" stroke="black" points="595,-0.5 595,-19.5 651,-19.5 651,-0.5 595,-0.5"/>
<text text-anchor="middle" x="623" y="-7.5" font-family="Helvetica,sans-Serif" font-size="10.00">stddef.h</text>
</a>
</g>
</g>
<!-- Node2&#45;&gt;Node7 -->
<g id="edge9" class="edge">
<title>Node2&#45;&gt;Node7</title>
<path fill="none" stroke="midnightblue" d="M398.04,-168.41C368.76,-157.59 328.26,-137.29 345,-112 397.92,-32.06 521.51,-15 584.55,-11.62"/>
<polygon fill="midnightblue" stroke="midnightblue" points="585.02,-15.11 594.85,-11.16 584.71,-8.11 585.02,-15.11"/>
</g>
<!-- Node8 -->
<g id="node8" class="node">
<title>Node8</title>
<g id="a_node8"><a xlink:title=" ">
<polygon fill="none" stroke="#bfbfbf" points="721,-112.5 721,-131.5 771,-131.5 771,-112.5 721,-112.5"/>
<text text-anchor="middle" x="746" y="-119.5" font-family="Helvetica,sans-Serif" font-size="10.00">stdio.h</text>
</a>
</g>
</g>
<!-- Node2&#45;&gt;Node8 -->
<g id="edge7" class="edge">
<title>Node2&#45;&gt;Node8</title>
<path fill="none" stroke="midnightblue" d="M464.51,-170.37C469.39,-169.57 474.31,-168.76 479,-168 580.26,-151.57 606.29,-151.55 707,-132 708.27,-131.75 709.55,-131.5 710.85,-131.23"/>
<polygon fill="midnightblue" stroke="midnightblue" points="711.84,-134.6 720.88,-129.07 710.37,-127.76 711.84,-134.6"/>
</g>
<!-- Node9 -->
<g id="node9" class="node">
<title>Node9</title>
<g id="a_node9"><a xlink:title=" ">
<polygon fill="none" stroke="#bfbfbf" points="98.5,-112.5 98.5,-131.5 151.5,-131.5 151.5,-112.5 98.5,-112.5"/>
<text text-anchor="middle" x="125" y="-119.5" font-family="Helvetica,sans-Serif" font-size="10.00">stdlib.h</text>
</a>
</g>
</g>
<!-- Node2&#45;&gt;Node9 -->
<g id="edge8" class="edge">
<title>Node2&#45;&gt;Node9</title>
<path fill="none" stroke="midnightblue" d="M385.24,-170.31C321.57,-159.57 200.59,-139.14 161.67,-131.87"/>
<polygon fill="midnightblue" stroke="midnightblue" points="162.17,-128.4 151.68,-129.91 160.82,-135.27 162.17,-128.4"/>
</g>
<!-- Node10 -->
<g id="node10" class="node">
<title>Node10</title>
<g id="a_node10"><a xlink:title=" ">
<polygon fill="none" stroke="#bfbfbf" points="170,-112.5 170,-131.5 226,-131.5 226,-112.5 170,-112.5"/>
<text text-anchor="middle" x="198" y="-119.5" font-family="Helvetica,sans-Serif" font-size="10.00">stdarg.h</text>
</a>
</g>
</g>
<!-- Node2&#45;&gt;Node10 -->
<g id="edge10" class="edge">
<title>Node2&#45;&gt;Node10</title>
<path fill="none" stroke="midnightblue" d="M388.56,-168.44C352.32,-159.91 294.86,-146.34 236.1,-132.25"/>
<polygon fill="midnightblue" stroke="midnightblue" points="236.82,-128.83 226.28,-129.9 235.18,-135.63 236.82,-128.83"/>
</g>
<!-- Node11 -->
<g id="node11" class="node">
<title>Node11</title>
<g id="a_node11"><a xlink:title=" ">
<polygon fill="none" stroke="#bfbfbf" points="244.5,-112.5 244.5,-131.5 297.5,-131.5 297.5,-112.5 244.5,-112.5"/>
<text text-anchor="middle" x="271" y="-119.5" font-family="Helvetica,sans-Serif" font-size="10.00">string.h</text>
</a>
</g>
</g>
<!-- Node2&#45;&gt;Node11 -->
<g id="edge11" class="edge">
<title>Node2&#45;&gt;Node11</title>
<path fill="none" stroke="midnightblue" d="M400.6,-168.44C374.8,-159.4 333.92,-145.06 304.98,-134.92"/>
<polygon fill="midnightblue" stroke="midnightblue" points="305.88,-131.52 295.29,-131.52 303.57,-138.13 305.88,-131.52"/>
</g>
<!-- Node12 -->
<g id="node12" class="node">
<title>Node12</title>
<g id="a_node12"><a xlink:href="../../d6/d90/strings_8h.html" target="_top" xlink:title=" ">
<polygon fill="none" stroke="black" points="605.5,-112.5 605.5,-131.5 664.5,-131.5 664.5,-112.5 605.5,-112.5"/>
<text text-anchor="middle" x="635" y="-119.5" font-family="Helvetica,sans-Serif" font-size="10.00">strings.h</text>
</a>
</g>
</g>
<!-- Node2&#45;&gt;Node12 -->
<g id="edge12" class="edge">
<title>Node2&#45;&gt;Node12</title>
<path fill="none" stroke="midnightblue" d="M458.28,-168.44C495.51,-158.87 555.8,-143.36 595.43,-133.18"/>
<polygon fill="midnightblue" stroke="midnightblue" points="596.46,-136.52 605.28,-130.64 594.72,-129.74 596.46,-136.52"/>
</g>
<!-- Node14 -->
<g id="node14" class="node">
<title>Node14</title>
<g id="a_node14"><a xlink:title=" ">
<polygon fill="none" stroke="#bfbfbf" points="354.5,-112.5 354.5,-131.5 419.5,-131.5 419.5,-112.5 354.5,-112.5"/>
<text text-anchor="middle" x="387" y="-119.5" font-family="Helvetica,sans-Serif" font-size="10.00">inttypes.h</text>
</a>
</g>
</g>
<!-- Node2&#45;&gt;Node14 -->
<g id="edge16" class="edge">
<title>Node2&#45;&gt;Node14</title>
<path fill="none" stroke="midnightblue" d="M418.73,-168.08C413.36,-160.46 405.48,-149.26 398.92,-139.94"/>
<polygon fill="midnightblue" stroke="midnightblue" points="401.78,-137.91 393.16,-131.75 396.05,-141.94 401.78,-137.91"/>
</g>
<!-- Node15 -->
<g id="node15" class="node">
<title>Node15</title>
<g id="a_node15"><a xlink:title=" ">
<polygon fill="none" stroke="#bfbfbf" points="437.5,-112.5 437.5,-131.5 490.5,-131.5 490.5,-112.5 437.5,-112.5"/>
<text text-anchor="middle" x="464" y="-119.5" font-family="Helvetica,sans-Serif" font-size="10.00">ctype.h</text>
</a>
</g>
</g>
<!-- Node2&#45;&gt;Node15 -->
<g id="edge17" class="edge">
<title>Node2&#45;&gt;Node15</title>
<path fill="none" stroke="midnightblue" d="M431.44,-168.08C436.95,-160.46 445.03,-149.26 451.76,-139.94"/>
<polygon fill="midnightblue" stroke="midnightblue" points="454.66,-141.91 457.68,-131.75 448.99,-137.81 454.66,-141.91"/>
</g>
<!-- Node2&#45;&gt;Node16 -->
<g id="edge18" class="edge">
<title>Node2&#45;&gt;Node16</title>
<path fill="none" stroke="midnightblue" d="M464.78,-170.16C469.57,-169.4 474.39,-168.66 479,-168 609.12,-149.39 645.02,-151.81 779.12,-132.05"/>
<polygon fill="midnightblue" stroke="midnightblue" points="780,-135.45 789.37,-130.52 778.97,-128.53 780,-135.45"/>
</g>
<!-- Node2&#45;&gt;Node17 -->
<g id="edge19" class="edge">
<title>Node2&#45;&gt;Node17</title>
<path fill="none" stroke="midnightblue" d="M385.22,-170.19C380.43,-169.43 375.61,-168.68 371,-168 249.17,-150.08 215.54,-151.34 90.08,-132.09"/>
<polygon fill="midnightblue" stroke="midnightblue" points="90.5,-128.62 80.08,-130.55 89.43,-135.53 90.5,-128.62"/>
</g>
<!-- Node4 -->
<g id="node4" class="node">
<title>Node4</title>
<g id="a_node4"><a xlink:href="../../df/d75/Tools_2MinGW_2include_2SDL_2SDL__platform_8h.html" target="_top" xlink:title=" ">
<polygon fill="none" stroke="black" points="486,-56.5 486,-75.5 578,-75.5 578,-56.5 486,-56.5"/>
<text text-anchor="middle" x="532" y="-63.5" font-family="Helvetica,sans-Serif" font-size="10.00">SDL_platform.h</text>
</a>
</g>
</g>
<!-- Node3&#45;&gt;Node4 -->
<g id="edge3" class="edge">
<title>Node3&#45;&gt;Node4</title>
<path fill="none" stroke="midnightblue" d="M545.36,-112.08C543.21,-104.85 540.12,-94.41 537.45,-85.4"/>
<polygon fill="midnightblue" stroke="midnightblue" points="540.79,-84.34 534.59,-75.75 534.08,-86.33 540.79,-84.34"/>
</g>
<!-- Node6 -->
<g id="node6" class="node">
<title>Node6</title>
<g id="a_node6"><a xlink:href="../../da/d3d/__mingw_8h.html" target="_top" xlink:title=" ">
<polygon fill="none" stroke="black" points="670.5,-0.5 670.5,-19.5 733.5,-19.5 733.5,-0.5 670.5,-0.5"/>
<text text-anchor="middle" x="702" y="-7.5" font-family="Helvetica,sans-Serif" font-size="10.00">_mingw.h</text>
</a>
</g>
</g>
<!-- Node5&#45;&gt;Node6 -->
<g id="edge5" class="edge">
<title>Node5&#45;&gt;Node6</title>
<path fill="none" stroke="midnightblue" d="M703.67,-56.08C703.41,-49.01 703.03,-38.86 702.7,-29.99"/>
<polygon fill="midnightblue" stroke="midnightblue" points="706.19,-29.61 702.32,-19.75 699.2,-29.87 706.19,-29.61"/>
</g>
<!-- Node5&#45;&gt;Node7 -->
<g id="edge6" class="edge">
<title>Node5&#45;&gt;Node7</title>
<path fill="none" stroke="midnightblue" d="M690.99,-56.32C678.47,-47.98 659.32,-35.21 644.53,-25.35"/>
<polygon fill="midnightblue" stroke="midnightblue" points="646.24,-22.29 635.98,-19.65 642.36,-28.11 646.24,-22.29"/>
</g>
<!-- Node13 -->
<g id="node13" class="node">
<title>Node13</title>
<g id="a_node13"><a xlink:href="../../d7/de6/include_2string_8h.html" target="_top" xlink:title=" ">
<polygon fill="none" stroke="black" points="596.5,-56.5 596.5,-75.5 649.5,-75.5 649.5,-56.5 596.5,-56.5"/>
<text text-anchor="middle" x="623" y="-63.5" font-family="Helvetica,sans-Serif" font-size="10.00">string.h</text>
</a>
</g>
</g>
<!-- Node12&#45;&gt;Node13 -->
<g id="edge13" class="edge">
<title>Node12&#45;&gt;Node13</title>
<path fill="none" stroke="midnightblue" d="M633.02,-112.08C631.43,-104.93 629.14,-94.64 627.15,-85.69"/>
<polygon fill="midnightblue" stroke="midnightblue" points="630.53,-84.75 624.94,-75.75 623.7,-86.27 630.53,-84.75"/>
</g>
<!-- Node13&#45;&gt;Node6 -->
<g id="edge14" class="edge">
<title>Node13&#45;&gt;Node6</title>
<path fill="none" stroke="midnightblue" d="M635.69,-56.32C647.9,-47.98 666.58,-35.21 681,-25.35"/>
<polygon fill="midnightblue" stroke="midnightblue" points="683.06,-28.19 689.34,-19.65 679.11,-22.41 683.06,-28.19"/>
</g>
<!-- Node13&#45;&gt;Node7 -->
<g id="edge15" class="edge">
<title>Node13&#45;&gt;Node7</title>
<path fill="none" stroke="midnightblue" d="M623,-56.08C623,-49.01 623,-38.86 623,-29.99"/>
<polygon fill="midnightblue" stroke="midnightblue" points="626.5,-29.75 623,-19.75 619.5,-29.75 626.5,-29.75"/>
</g>
<!-- Node18&#45;&gt;Node2 -->
<g id="edge21" class="edge">
<title>Node18&#45;&gt;Node2</title>
<path fill="none" stroke="midnightblue" d="M460.06,-224.08C454.07,-216.38 445.25,-205.03 437.95,-195.65"/>
<polygon fill="midnightblue" stroke="midnightblue" points="440.71,-193.5 431.81,-187.75 435.18,-197.79 440.71,-193.5"/>
</g>
<!-- Node18&#45;&gt;Node16 -->
<g id="edge22" class="edge">
<title>Node18&#45;&gt;Node16</title>
<path fill="none" stroke="midnightblue" d="M471.03,-224.06C478.08,-209.58 494.09,-181.29 517,-168 616.27,-110.43 661,-148.25 779.22,-131.97"/>
<polygon fill="midnightblue" stroke="midnightblue" points="779.99,-135.39 789.37,-130.46 778.96,-128.47 779.99,-135.39"/>
</g>
<!-- Node18&#45;&gt;Node17 -->
<g id="edge23" class="edge">
<title>Node18&#45;&gt;Node17</title>
<path fill="none" stroke="midnightblue" d="M449.63,-224.4C414.77,-207.17 339.07,-169.87 333,-168 231.32,-136.65 199.03,-149.11 90.16,-132.1"/>
<polygon fill="midnightblue" stroke="midnightblue" points="90.52,-128.62 80.09,-130.48 89.41,-135.53 90.52,-128.62"/>
</g>
<!-- Node19&#45;&gt;Node2 -->
<g id="edge25" class="edge">
<title>Node19&#45;&gt;Node2</title>
<path fill="none" stroke="midnightblue" d="M386.34,-336.4C374.59,-328.58 358.97,-315.86 352,-300 348.42,-291.86 349.26,-288.46 352,-280 363.08,-245.75 390.59,-213.36 408.5,-194.88"/>
<polygon fill="midnightblue" stroke="midnightblue" points="411.15,-197.18 415.73,-187.62 406.19,-192.23 411.15,-197.18"/>
</g>
<!-- Node19&#45;&gt;Node16 -->
<g id="edge32" class="edge">
<title>Node19&#45;&gt;Node16</title>
<path fill="none" stroke="midnightblue" d="M417.31,-336.49C466.36,-310.9 616.89,-232.46 742,-168 762.85,-157.26 786.52,-145.16 804.06,-136.21"/>
<polygon fill="midnightblue" stroke="midnightblue" points="805.8,-139.26 813.11,-131.6 802.62,-133.02 805.8,-139.26"/>
</g>
<!-- Node19&#45;&gt;Node17 -->
<g id="edge33" class="edge">
<title>Node19&#45;&gt;Node17</title>
<path fill="none" stroke="midnightblue" d="M390.56,-336.32C357.22,-308.87 249.6,-222.58 150,-168 125.99,-154.84 97.32,-143.24 75.27,-135.11"/>
<polygon fill="midnightblue" stroke="midnightblue" points="76.24,-131.74 65.65,-131.62 73.86,-138.32 76.24,-131.74"/>
</g>
<!-- Node19&#45;&gt;Node18 -->
<g id="edge26" class="edge">
<title>Node19&#45;&gt;Node18</title>
<path fill="none" stroke="midnightblue" d="M413.45,-336.43C424.38,-328.28 439.9,-315.05 449,-300 457.62,-285.75 462.21,-267.28 464.6,-253.67"/>
<polygon fill="midnightblue" stroke="midnightblue" points="468.09,-253.99 466.12,-243.58 461.17,-252.95 468.09,-253.99"/>
</g>
<!-- Node20 -->
<g id="node20" class="node">
<title>Node20</title>
<g id="a_node20"><a xlink:href="../../de/d7a/Tools_2MinGW_2include_2SDL_2SDL__rwops_8h.html" target="_top" xlink:title=" ">
<polygon fill="none" stroke="black" points="361.5,-280.5 361.5,-299.5 440.5,-299.5 440.5,-280.5 361.5,-280.5"/>
<text text-anchor="middle" x="401" y="-287.5" font-family="Helvetica,sans-Serif" font-size="10.00">SDL_rwops.h</text>
</a>
</g>
</g>
<!-- Node19&#45;&gt;Node20 -->
<g id="edge27" class="edge">
<title>Node19&#45;&gt;Node20</title>
<path fill="none" stroke="midnightblue" d="M401,-336.08C401,-329.01 401,-318.86 401,-309.99"/>
<polygon fill="midnightblue" stroke="midnightblue" points="404.5,-309.75 401,-299.75 397.5,-309.75 404.5,-309.75"/>
</g>
<!-- Node20&#45;&gt;Node2 -->
<g id="edge28" class="edge">
<title>Node20&#45;&gt;Node2</title>
<path fill="none" stroke="midnightblue" d="M402.88,-280.37C406.76,-262.62 415.69,-221.67 420.94,-197.6"/>
<polygon fill="midnightblue" stroke="midnightblue" points="424.41,-198.11 423.13,-187.59 417.57,-196.62 424.41,-198.11"/>
</g>
<!-- Node20&#45;&gt;Node16 -->
<g id="edge30" class="edge">
<title>Node20&#45;&gt;Node16</title>
<path fill="none" stroke="midnightblue" d="M438.86,-280.45C462.07,-273.68 491.22,-262.25 512,-244 541.16,-218.39 523.13,-190.15 555,-168 635.57,-112.02 677.5,-146.64 779.31,-131.96"/>
<polygon fill="midnightblue" stroke="midnightblue" points="780.02,-135.4 789.35,-130.38 778.93,-128.48 780.02,-135.4"/>
</g>
<!-- Node20&#45;&gt;Node17 -->
<g id="edge31" class="edge">
<title>Node20&#45;&gt;Node17</title>
<path fill="none" stroke="midnightblue" d="M392.86,-280.38C371.23,-258.02 309.66,-197.89 246,-168 231.97,-161.41 146.37,-143.85 90.02,-132.72"/>
<polygon fill="midnightblue" stroke="midnightblue" points="90.7,-129.28 80.21,-130.78 89.34,-136.15 90.7,-129.28"/>
</g>
<!-- Node20&#45;&gt;Node18 -->
<g id="edge29" class="edge">
<title>Node20&#45;&gt;Node18</title>
<path fill="none" stroke="midnightblue" d="M411.6,-280.32C421.46,-272.26 436.35,-260.08 448.22,-250.37"/>
<polygon fill="midnightblue" stroke="midnightblue" points="450.68,-252.88 456.2,-243.83 446.25,-247.46 450.68,-252.88"/>
</g>
</g>
</svg>
