<?xml version="1.0" encoding="UTF-8" standalone="no"?>
<!DOCTYPE svg PUBLIC "-//W3C//DTD SVG 1.1//EN"
 "http://www.w3.org/Graphics/SVG/1.1/DTD/svg11.dtd">
<!-- Generated by graphviz version 2.43.0 (0)
 -->
<!-- Title: Engine/SDL12/include/SDL_types.h Pages: 1 -->
<svg width="336pt" height="263pt"
 viewBox="0.00 0.00 336.00 263.00" xmlns="http://www.w3.org/2000/svg" xmlns:xlink="http://www.w3.org/1999/xlink">
<g id="graph0" class="graph" transform="scale(1 1) rotate(0) translate(4 259)">
<title>Engine/SDL12/include/SDL_types.h</title>
<!-- Node1 -->
<g id="node1" class="node">
<title>Node1</title>
<g id="a_node1"><a xlink:title=" ">
<polygon fill="#bfbfbf" stroke="black" points="128,-224.5 128,-254.5 250,-254.5 250,-224.5 128,-224.5"/>
<text text-anchor="start" x="136" y="-242.5" font-family="Helvetica,sans-Serif" font-size="10.00">Engine/SDL12/include</text>
<text text-anchor="middle" x="189" y="-231.5" font-family="Helvetica,sans-Serif" font-size="10.00">/SDL_types.h</text>
</a>
</g>
</g>
<!-- Node2 -->
<g id="node2" class="node">
<title>Node2</title>
<g id="a_node2"><a xlink:href="../../d2/d5b/SDL__stdinc_8h.html" target="_top" xlink:title=" ">
<polygon fill="none" stroke="black" points="149.5,-168.5 149.5,-187.5 228.5,-187.5 228.5,-168.5 149.5,-168.5"/>
<text text-anchor="middle" x="189" y="-175.5" font-family="Helvetica,sans-Serif" font-size="10.00">SDL_stdinc.h</text>
</a>
</g>
</g>
<!-- Node1&#45;&gt;Node2 -->
<g id="edge1" class="edge">
<title>Node1&#45;&gt;Node2</title>
<path fill="none" stroke="midnightblue" d="M189,-224.4C189,-216.47 189,-206.46 189,-197.86"/>
<polygon fill="midnightblue" stroke="midnightblue" points="192.5,-197.66 189,-187.66 185.5,-197.66 192.5,-197.66"/>
</g>
<!-- Node3 -->
<g id="node3" class="node">
<title>Node3</title>
<g id="a_node3"><a xlink:href="../../d3/dfb/SDL__config_8h.html" target="_top" xlink:title=" ">
<polygon fill="none" stroke="black" points="51.5,-112.5 51.5,-131.5 130.5,-131.5 130.5,-112.5 51.5,-112.5"/>
<text text-anchor="middle" x="91" y="-119.5" font-family="Helvetica,sans-Serif" font-size="10.00">SDL_config.h</text>
</a>
</g>
</g>
<!-- Node2&#45;&gt;Node3 -->
<g id="edge2" class="edge">
<title>Node2&#45;&gt;Node3</title>
<path fill="none" stroke="midnightblue" d="M173.25,-168.32C157.68,-159.74 133.62,-146.49 115.54,-136.52"/>
<polygon fill="midnightblue" stroke="midnightblue" points="117.15,-133.42 106.71,-131.65 113.78,-139.55 117.15,-133.42"/>
</g>
<!-- Node7 -->
<g id="node7" class="node">
<title>Node7</title>
<g id="a_node7"><a xlink:href="../../d1/d90/begin__code_8h.html" target="_top" xlink:title=" ">
<polygon fill="none" stroke="black" points="148.5,-112.5 148.5,-131.5 229.5,-131.5 229.5,-112.5 148.5,-112.5"/>
<text text-anchor="middle" x="189" y="-119.5" font-family="Helvetica,sans-Serif" font-size="10.00">begin_code.h</text>
</a>
</g>
</g>
<!-- Node2&#45;&gt;Node7 -->
<g id="edge7" class="edge">
<title>Node2&#45;&gt;Node7</title>
<path fill="none" stroke="midnightblue" d="M189,-168.08C189,-161.01 189,-150.86 189,-141.99"/>
<polygon fill="midnightblue" stroke="midnightblue" points="192.5,-141.75 189,-131.75 185.5,-141.75 192.5,-141.75"/>
</g>
<!-- Node8 -->
<g id="node8" class="node">
<title>Node8</title>
<g id="a_node8"><a xlink:href="../../d0/d2e/close__code_8h.html" target="_top" xlink:title=" ">
<polygon fill="none" stroke="black" points="248,-112.5 248,-131.5 328,-131.5 328,-112.5 248,-112.5"/>
<text text-anchor="middle" x="288" y="-119.5" font-family="Helvetica,sans-Serif" font-size="10.00">close_code.h</text>
</a>
</g>
</g>
<!-- Node2&#45;&gt;Node8 -->
<g id="edge8" class="edge">
<title>Node2&#45;&gt;Node8</title>
<path fill="none" stroke="midnightblue" d="M204.91,-168.32C220.64,-159.74 244.94,-146.49 263.21,-136.52"/>
<polygon fill="midnightblue" stroke="midnightblue" points="265.03,-139.52 272.13,-131.65 261.68,-133.37 265.03,-139.52"/>
</g>
<!-- Node4 -->
<g id="node4" class="node">
<title>Node4</title>
<g id="a_node4"><a xlink:href="../../d3/df1/SDL__platform_8h.html" target="_top" xlink:title=" ">
<polygon fill="none" stroke="black" points="0,-0.5 0,-19.5 92,-19.5 92,-0.5 0,-0.5"/>
<text text-anchor="middle" x="46" y="-7.5" font-family="Helvetica,sans-Serif" font-size="10.00">SDL_platform.h</text>
</a>
</g>
</g>
<!-- Node3&#45;&gt;Node4 -->
<g id="edge3" class="edge">
<title>Node3&#45;&gt;Node4</title>
<path fill="none" stroke="midnightblue" d="M85.45,-112.31C79.97,-103.44 71.61,-89.16 66,-76 59.49,-60.73 54.1,-42.62 50.56,-29.4"/>
<polygon fill="midnightblue" stroke="midnightblue" points="53.92,-28.43 48.04,-19.62 47.14,-30.17 53.92,-28.43"/>
</g>
<!-- Node5 -->
<g id="node5" class="node">
<title>Node5</title>
<g id="a_node5"><a xlink:href="../../da/d7f/SDL__config__minimal_8h.html" target="_top" xlink:title=" ">
<polygon fill="none" stroke="black" points="74.5,-56.5 74.5,-75.5 199.5,-75.5 199.5,-56.5 74.5,-56.5"/>
<text text-anchor="middle" x="137" y="-63.5" font-family="Helvetica,sans-Serif" font-size="10.00">SDL_config_minimal.h</text>
</a>
</g>
</g>
<!-- Node3&#45;&gt;Node5 -->
<g id="edge4" class="edge">
<title>Node3&#45;&gt;Node5</title>
<path fill="none" stroke="midnightblue" d="M98.6,-112.08C105.23,-104.3 115.02,-92.8 123.06,-83.37"/>
<polygon fill="midnightblue" stroke="midnightblue" points="125.73,-85.63 129.55,-75.75 120.4,-81.09 125.73,-85.63"/>
</g>
<!-- Node5&#45;&gt;Node4 -->
<g id="edge5" class="edge">
<title>Node5&#45;&gt;Node4</title>
<path fill="none" stroke="midnightblue" d="M122.38,-56.32C108.05,-47.82 85.99,-34.73 69.25,-24.8"/>
<polygon fill="midnightblue" stroke="midnightblue" points="70.97,-21.75 60.58,-19.65 67.4,-27.77 70.97,-21.75"/>
</g>
<!-- Node6 -->
<g id="node6" class="node">
<title>Node6</title>
<g id="a_node6"><a xlink:title=" ">
<polygon fill="none" stroke="#bfbfbf" points="110,-0.5 110,-19.5 166,-19.5 166,-0.5 110,-0.5"/>
<text text-anchor="middle" x="138" y="-7.5" font-family="Helvetica,sans-Serif" font-size="10.00">stdarg.h</text>
</a>
</g>
</g>
<!-- Node5&#45;&gt;Node6 -->
<g id="edge6" class="edge">
<title>Node5&#45;&gt;Node6</title>
<path fill="none" stroke="midnightblue" d="M137.17,-56.08C137.3,-49.01 137.48,-38.86 137.65,-29.99"/>
<polygon fill="midnightblue" stroke="midnightblue" points="141.15,-29.81 137.84,-19.75 134.15,-29.68 141.15,-29.81"/>
</g>
</g>
</svg>
