<?xml version="1.0" encoding="UTF-8" standalone="no"?>
<!DOCTYPE svg PUBLIC "-//W3C//DTD SVG 1.1//EN"
 "http://www.w3.org/Graphics/SVG/1.1/DTD/svg11.dtd">
<!-- Generated by graphviz version 2.43.0 (0)
 -->
<!-- Title: menuradiobutton_s Pages: 1 -->
<!--zoomable 261 -->
<svg id="main" version="1.1" xmlns="http://www.w3.org/2000/svg" xmlns:xlink="http://www.w3.org/1999/xlink" xml:space="preserve" onload="init(evt)">
<style type="text/css"><![CDATA[
.edge:hover path { stroke: red; }
.edge:hover polygon { stroke: red; fill: red; }
]]></style>
<script type="text/javascript"><![CDATA[
var edges = document.getElementsByTagName('g');
if (edges && edges.length) {
  for (var i=0;i<edges.length;i++) {
    if (edges[i].id.substr(0,4)=='edge') {
      edges[i].setAttribute('class','edge');
    }
  }
}
]]></script>
        <defs>
                <circle id="rim" cx="0" cy="0" r="7"/>
                <circle id="rim2" cx="0" cy="0" r="3.5"/>
                <g id="zoomPlus">
                        <use xlink:href="#rim" fill="#404040">
                                <set attributeName="fill" to="#808080" begin="zoomplus.mouseover" end="zoomplus.mouseout"/>
                        </use>
                        <path d="M-4,0h8M0,-4v8" fill="none" stroke="white" stroke-width="1.5" pointer-events="none"/>
                </g>
                <g id="zoomMin">
                        <use xlink:href="#rim" fill="#404040">
                                <set attributeName="fill" to="#808080" begin="zoomminus.mouseover" end="zoomminus.mouseout"/>
                        </use>
                        <path d="M-4,0h8" fill="none" stroke="white" stroke-width="1.5" pointer-events="none"/>
                </g>
                <g id="dirArrow">
                        <path fill="none" stroke="white" stroke-width="1.5" d="M0,-3.0v7 M-2.5,-0.5L0,-3.0L2.5,-0.5"/>
                </g>
               <g id="resetDef">
                       <use xlink:href="#rim2" fill="#404040">
                               <set attributeName="fill" to="#808080" begin="reset.mouseover" end="reset.mouseout"/>
                       </use>
               </g>
        </defs>

<script type="text/javascript">
var viewWidth = 561;
var viewHeight = 261;
var sectionId = 'dynsection-0';
</script>
<script xlink:href="../../svgpan.js"/>
<svg id="graph" class="graph">
<g id="viewport">
<title>menuradiobutton_s</title>
<!-- Node1 -->
<g id="node1" class="node">
<title>Node1</title>
<g id="a_node1"><a xlink:title=" ">
<polygon fill="#bfbfbf" stroke="black" points="320.5,-0.5 320.5,-19.5 431.5,-19.5 431.5,-0.5 320.5,-0.5"/>
<text text-anchor="middle" x="376" y="-7.5" font-family="Helvetica,sans-Serif" font-size="10.00">menuradiobutton_s</text>
</a>
</g>
</g>
<!-- Node2 -->
<g id="node2" class="node">
<title>Node2</title>
<g id="a_node2"><a xlink:href="../../d5/d57/structmenucommon__s.html" target="_top" xlink:title=" ">
<polygon fill="none" stroke="black" points="261,-67.5 261,-86.5 359,-86.5 359,-67.5 261,-67.5"/>
<text text-anchor="middle" x="310" y="-74.5" font-family="Helvetica,sans-Serif" font-size="10.00">menucommon_s</text>
</a>
</g>
</g>
<!-- Node2&#45;&gt;Node1 -->
<g id="edge1" class="edge">
<title>Node2&#45;&gt;Node1</title>
<path fill="none" stroke="#9a32cd" stroke-dasharray="5,2" d="M326.25,-60C339.19,-47.25 356.81,-29.89 367.24,-19.63"/>
<polygon fill="#9a32cd" stroke="#9a32cd" points="323.57,-57.72 318.9,-67.23 328.48,-62.71 323.57,-57.72"/>
<text text-anchor="middle" x="366" y="-41" font-family="Helvetica,sans-Serif" font-size="10.00"> generic</text>
</g>
<!-- Node3 -->
<g id="node3" class="node">
<title>Node3</title>
<g id="a_node3"><a xlink:title=" ">
<polygon fill="none" stroke="#bfbfbf" points="0,-228 0,-247 108,-247 108,-228 0,-228"/>
<text text-anchor="middle" x="54" y="-235" font-family="Helvetica,sans-Serif" font-size="10.00">menuframework_s</text>
</a>
</g>
</g>
<!-- Node3&#45;&gt;Node2 -->
<g id="edge2" class="edge">
<title>Node3&#45;&gt;Node2</title>
<path fill="none" stroke="#9a32cd" stroke-dasharray="5,2" d="M55.9,-217.55C59.93,-188.31 72.12,-132.68 108,-105 131.18,-87.12 208.82,-81.07 260.81,-79.03"/>
<polygon fill="#9a32cd" stroke="#9a32cd" points="52.41,-217.33 54.7,-227.67 59.36,-218.16 52.41,-217.33"/>
<text text-anchor="middle" x="125.5" y="-152" font-family="Helvetica,sans-Serif" font-size="10.00"> parent</text>
</g>
<!-- Node4 -->
<g id="node4" class="node">
<title>Node4</title>
<g id="a_node4"><a xlink:title=" ">
<polygon fill="none" stroke="#bfbfbf" points="126,-228 126,-247 164,-247 164,-228 126,-228"/>
<text text-anchor="middle" x="145" y="-235" font-family="Helvetica,sans-Serif" font-size="10.00">char</text>
</a>
</g>
</g>
<!-- Node4&#45;&gt;Node2 -->
<g id="edge3" class="edge">
<title>Node4&#45;&gt;Node2</title>
<path fill="none" stroke="#9a32cd" stroke-dasharray="5,2" d="M145.72,-217.63C147.87,-188.91 156.31,-134.47 189,-105 199.67,-95.38 232.12,-88.45 260.73,-84.02"/>
<polygon fill="#9a32cd" stroke="#9a32cd" points="142.21,-217.72 145.14,-227.9 149.2,-218.11 142.21,-217.72"/>
<text text-anchor="middle" x="204.5" y="-152" font-family="Helvetica,sans-Serif" font-size="10.00"> name</text>
</g>
<!-- Node5 -->
<g id="node5" class="node">
<title>Node5</title>
<g id="a_node5"><a xlink:title=" ">
<polygon fill="none" stroke="#bfbfbf" points="182.5,-228 182.5,-247 287.5,-247 287.5,-228 182.5,-228"/>
<text text-anchor="middle" x="235" y="-235" font-family="Helvetica,sans-Serif" font-size="10.00">void(*)(void *self)</text>
</a>
</g>
</g>
<!-- Node5&#45;&gt;Node2 -->
<g id="edge4" class="edge">
<title>Node5&#45;&gt;Node2</title>
<path fill="none" stroke="#9a32cd" stroke-dasharray="5,2" d="M230.05,-217.94C223.89,-190.47 216.9,-138.64 241,-105 247.14,-96.43 256.43,-90.57 266.22,-86.58"/>
<polygon fill="#9a32cd" stroke="#9a32cd" points="226.68,-218.91 232.46,-227.79 233.48,-217.24 226.68,-218.91"/>
<text text-anchor="middle" x="270" y="-157.5" font-family="Helvetica,sans-Serif" font-size="10.00"> ownerdraw</text>
<text text-anchor="middle" x="270" y="-146.5" font-family="Helvetica,sans-Serif" font-size="10.00">statusbar</text>
</g>
<!-- Node6 -->
<g id="node6" class="node">
<title>Node6</title>
<g id="a_node6"><a xlink:title=" ">
<polygon fill="none" stroke="#bfbfbf" points="316.5,-228 316.5,-247 345.5,-247 345.5,-228 316.5,-228"/>
<text text-anchor="middle" x="331" y="-235" font-family="Helvetica,sans-Serif" font-size="10.00">int</text>
</a>
</g>
</g>
<!-- Node6&#45;&gt;Node1 -->
<g id="edge8" class="edge">
<title>Node6&#45;&gt;Node1</title>
<path fill="none" stroke="#9a32cd" stroke-dasharray="5,2" d="M355.19,-224.34C357.14,-223.5 359.09,-222.71 361,-222 389.9,-211.24 409.24,-228.47 428,-204 473.4,-144.79 405.86,-48.91 383.07,-19.71"/>
<polygon fill="#9a32cd" stroke="#9a32cd" points="353.33,-221.34 345.71,-228.71 356.26,-227.7 353.33,-221.34"/>
<text text-anchor="middle" x="447" y="-74.5" font-family="Helvetica,sans-Serif" font-size="10.00"> curvalue</text>
</g>
<!-- Node6&#45;&gt;Node2 -->
<g id="edge5" class="edge">
<title>Node6&#45;&gt;Node2</title>
<path fill="none" stroke="#9a32cd" stroke-dasharray="5,2" d="M318.14,-219.46C315.22,-214.7 312.54,-209.35 311,-204 298.8,-161.53 305.23,-107.63 308.49,-86.78"/>
<polygon fill="#9a32cd" stroke="#9a32cd" points="315.26,-221.45 323.78,-227.75 321.05,-217.51 315.26,-221.45"/>
<text text-anchor="middle" x="344.5" y="-196" font-family="Helvetica,sans-Serif" font-size="10.00"> x</text>
<text text-anchor="middle" x="344.5" y="-185" font-family="Helvetica,sans-Serif" font-size="10.00">y</text>
<text text-anchor="middle" x="344.5" y="-174" font-family="Helvetica,sans-Serif" font-size="10.00">menuPosition</text>
<text text-anchor="middle" x="344.5" y="-163" font-family="Helvetica,sans-Serif" font-size="10.00">right</text>
<text text-anchor="middle" x="344.5" y="-152" font-family="Helvetica,sans-Serif" font-size="10.00">left</text>
<text text-anchor="middle" x="344.5" y="-141" font-family="Helvetica,sans-Serif" font-size="10.00">bottom</text>
<text text-anchor="middle" x="344.5" y="-130" font-family="Helvetica,sans-Serif" font-size="10.00">type</text>
<text text-anchor="middle" x="344.5" y="-119" font-family="Helvetica,sans-Serif" font-size="10.00">id</text>
<text text-anchor="middle" x="344.5" y="-108" font-family="Helvetica,sans-Serif" font-size="10.00">top</text>
</g>
<!-- Node7 -->
<g id="node7" class="node">
<title>Node7</title>
<g id="a_node7"><a xlink:title=" ">
<polygon fill="none" stroke="#bfbfbf" points="369.5,-228 369.5,-247 430.5,-247 430.5,-228 369.5,-228"/>
<text text-anchor="middle" x="400" y="-235" font-family="Helvetica,sans-Serif" font-size="10.00">unsigned</text>
</a>
</g>
</g>
<!-- Node7&#45;&gt;Node2 -->
<g id="edge6" class="edge">
<title>Node7&#45;&gt;Node2</title>
<path fill="none" stroke="#9a32cd" stroke-dasharray="5,2" d="M402.21,-217.7C404.42,-189.91 404.34,-137.62 378,-105 371.06,-96.4 360.98,-90.53 350.7,-86.52"/>
<polygon fill="#9a32cd" stroke="#9a32cd" points="398.7,-217.69 401.2,-227.99 405.66,-218.38 398.7,-217.69"/>
<text text-anchor="middle" x="416.5" y="-152" font-family="Helvetica,sans-Serif" font-size="10.00"> flags</text>
</g>
<!-- Node8 -->
<g id="node8" class="node">
<title>Node8</title>
<g id="a_node8"><a xlink:title=" ">
<polygon fill="none" stroke="#bfbfbf" points="449,-222.5 449,-252.5 553,-252.5 553,-222.5 449,-222.5"/>
<text text-anchor="start" x="457" y="-240.5" font-family="Helvetica,sans-Serif" font-size="10.00">void(*)(void *self,</text>
<text text-anchor="middle" x="501" y="-229.5" font-family="Helvetica,sans-Serif" font-size="10.00"> int event)</text>
</a>
</g>
</g>
<!-- Node8&#45;&gt;Node2 -->
<g id="edge7" class="edge">
<title>Node8&#45;&gt;Node2</title>
<path fill="none" stroke="#9a32cd" stroke-dasharray="5,2" d="M495.48,-212.42C487.31,-182.48 469.06,-132.04 434,-105 412.8,-88.65 383.8,-81.74 359.17,-78.99"/>
<polygon fill="#9a32cd" stroke="#9a32cd" points="492.17,-213.62 498.04,-222.44 498.95,-211.88 492.17,-213.62"/>
<text text-anchor="middle" x="514" y="-152" font-family="Helvetica,sans-Serif" font-size="10.00"> callback</text>
</g>
</g>
</svg>
        <g id="navigator" transform="translate(0 0)" fill="#404254">
                <rect fill="#f2f5e9" fill-opacity="0.5" stroke="#606060" stroke-width=".5" x="0" y="0" width="60" height="60"/>
                <use id="zoomplus" xlink:href="#zoomPlus" x="17" y="9" onmousedown="handleZoom(evt,'in')"/>
                <use id="zoomminus" xlink:href="#zoomMin" x="42" y="9" onmousedown="handleZoom(evt,'out')"/>
                <use id="reset" xlink:href="#resetDef" x="30" y="36" onmousedown="handleReset()"/>
                <g id="arrowUp" xlink:href="#dirArrow" transform="translate(30 24)" onmousedown="handlePan(0,-1)">
                  <use xlink:href="#rim" fill="#404040">
                        <set attributeName="fill" to="#808080" begin="arrowUp.mouseover" end="arrowUp.mouseout"/>
                  </use>
                  <path fill="none" stroke="white" stroke-width="1.5" d="M0,-3.0v7 M-2.5,-0.5L0,-3.0L2.5,-0.5"/>
                </g>
                <g id="arrowRight" xlink:href="#dirArrow" transform="rotate(90) translate(36 -43)" onmousedown="handlePan(1,0)">
                  <use xlink:href="#rim" fill="#404040">
                        <set attributeName="fill" to="#808080" begin="arrowRight.mouseover" end="arrowRight.mouseout"/>
                  </use>
                  <path fill="none" stroke="white" stroke-width="1.5" d="M0,-3.0v7 M-2.5,-0.5L0,-3.0L2.5,-0.5"/>
                </g>
                <g id="arrowDown" xlink:href="#dirArrow" transform="rotate(180) translate(-30 -48)" onmousedown="handlePan(0,1)">
                  <use xlink:href="#rim" fill="#404040">
                        <set attributeName="fill" to="#808080" begin="arrowDown.mouseover" end="arrowDown.mouseout"/>
                  </use>
                  <path fill="none" stroke="white" stroke-width="1.5" d="M0,-3.0v7 M-2.5,-0.5L0,-3.0L2.5,-0.5"/>
                </g>
                <g id="arrowLeft" xlink:href="#dirArrow" transform="rotate(270) translate(-36 17)" onmousedown="handlePan(-1,0)">
                  <use xlink:href="#rim" fill="#404040">
                        <set attributeName="fill" to="#808080" begin="arrowLeft.mouseover" end="arrowLeft.mouseout"/>
                  </use>
                  <path fill="none" stroke="white" stroke-width="1.5" d="M0,-3.0v7 M-2.5,-0.5L0,-3.0L2.5,-0.5"/>
                </g>
        </g>
        <svg viewBox="0 0 15 15" width="100%" height="30px" preserveAspectRatio="xMaxYMin meet">
         <g id="arrow_out" transform="scale(0.3 0.3)">
          <a xlink:href="structmenuradiobutton__s__coll__graph_org.svg" target="_base">
           <rect id="button" ry="5" rx="5" y="6" x="6" height="38" width="38"
                fill="#f2f5e9" fill-opacity="0.5" stroke="#606060" stroke-width="1.0"/>
           <path id="arrow"
             d="M 11.500037,31.436501 C 11.940474,20.09759 22.043105,11.32322 32.158766,21.979434 L 37.068811,17.246167 C 37.068811,17.246167 37.088388,32 37.088388,32 L 22.160133,31.978069 C 22.160133,31.978069 26.997745,27.140456 26.997745,27.140456 C 18.528582,18.264221 13.291696,25.230495 11.500037,31.436501 z"
             style="fill:#404040;"/>
          </a>
         </g>
        </svg>
</svg>
