<?xml version="1.0" encoding="UTF-8" standalone="no"?>
<!DOCTYPE svg PUBLIC "-//W3C//DTD SVG 1.1//EN"
 "http://www.w3.org/Graphics/SVG/1.1/DTD/svg11.dtd">
<!-- Generated by graphviz version 2.43.0 (0)
 -->
<!-- Title: tagDVD_SubpictureAttributes Pages: 1 -->
<svg width="596pt" height="95pt"
 viewBox="0.00 0.00 596.00 95.00" xmlns="http://www.w3.org/2000/svg" xmlns:xlink="http://www.w3.org/1999/xlink">
<g id="graph0" class="graph" transform="scale(1 1) rotate(0) translate(4 91)">
<title>tagDVD_SubpictureAttributes</title>
<!-- Node1 -->
<g id="node1" class="node">
<title>Node1</title>
<g id="a_node1"><a xlink:title=" ">
<polygon fill="#bfbfbf" stroke="black" points="208,-0.5 208,-19.5 367,-19.5 367,-0.5 208,-0.5"/>
<text text-anchor="middle" x="287.5" y="-7.5" font-family="Helvetica,sans-Serif" font-size="10.00">tagDVD_SubpictureAttributes</text>
</a>
</g>
</g>
<!-- Node2 -->
<g id="node2" class="node">
<title>Node2</title>
<g id="a_node2"><a xlink:title=" ">
<polygon fill="none" stroke="#bfbfbf" points="0,-67.5 0,-86.5 163,-86.5 163,-67.5 0,-67.5"/>
<text text-anchor="middle" x="81.5" y="-74.5" font-family="Helvetica,sans-Serif" font-size="10.00">DVD_SUBPICTURE_LANG_EXT</text>
</a>
</g>
</g>
<!-- Node2&#45;&gt;Node1 -->
<g id="edge1" class="edge">
<title>Node2&#45;&gt;Node1</title>
<path fill="none" stroke="#9a32cd" stroke-dasharray="5,2" d="M102.6,-61.91C115.62,-53.81 132.95,-44.07 149.5,-38 172.31,-29.64 198.23,-23.7 221.41,-19.56"/>
<polygon fill="#9a32cd" stroke="#9a32cd" points="100.49,-59.11 93.95,-67.44 104.26,-65 100.49,-59.11"/>
<text text-anchor="middle" x="199" y="-41" font-family="Helvetica,sans-Serif" font-size="10.00"> LanguageExtension</text>
</g>
<!-- Node3 -->
<g id="node3" class="node">
<title>Node3</title>
<g id="a_node3"><a xlink:title=" ">
<polygon fill="none" stroke="#bfbfbf" points="181,-67.5 181,-86.5 266,-86.5 266,-67.5 181,-67.5"/>
<text text-anchor="middle" x="223.5" y="-74.5" font-family="Helvetica,sans-Serif" font-size="10.00">unsigned long</text>
</a>
</g>
</g>
<!-- Node3&#45;&gt;Node1 -->
<g id="edge2" class="edge">
<title>Node3&#45;&gt;Node1</title>
<path fill="none" stroke="#9a32cd" stroke-dasharray="5,2" d="M239.26,-60C251.81,-47.25 268.9,-29.89 279.01,-19.63"/>
<polygon fill="#9a32cd" stroke="#9a32cd" points="236.65,-57.65 232.13,-67.23 241.64,-62.56 236.65,-57.65"/>
<text text-anchor="middle" x="285" y="-41" font-family="Helvetica,sans-Serif" font-size="10.00"> Language</text>
</g>
<!-- Node4 -->
<g id="node4" class="node">
<title>Node4</title>
<g id="a_node4"><a xlink:title=" ">
<polygon fill="none" stroke="#bfbfbf" points="284,-67.5 284,-86.5 419,-86.5 419,-67.5 284,-67.5"/>
<text text-anchor="middle" x="351.5" y="-74.5" font-family="Helvetica,sans-Serif" font-size="10.00">DVD_SUBPICTURE_TYPE</text>
</a>
</g>
</g>
<!-- Node4&#45;&gt;Node1 -->
<g id="edge3" class="edge">
<title>Node4&#45;&gt;Node1</title>
<path fill="none" stroke="#9a32cd" stroke-dasharray="5,2" d="M335.93,-59.91C329.34,-53.13 321.57,-45.16 314.5,-38 308.54,-31.96 301.79,-25.21 296.53,-19.97"/>
<polygon fill="#9a32cd" stroke="#9a32cd" points="333.53,-62.47 343.01,-67.21 338.56,-57.6 333.53,-62.47"/>
<text text-anchor="middle" x="337.5" y="-41" font-family="Helvetica,sans-Serif" font-size="10.00"> Type</text>
</g>
<!-- Node5 -->
<g id="node5" class="node">
<title>Node5</title>
<g id="a_node5"><a xlink:title=" ">
<polygon fill="none" stroke="#bfbfbf" points="437,-67.5 437,-86.5 588,-86.5 588,-67.5 437,-67.5"/>
<text text-anchor="middle" x="512.5" y="-74.5" font-family="Helvetica,sans-Serif" font-size="10.00">DVD_SUBPICTURE_CODING</text>
</a>
</g>
</g>
<!-- Node5&#45;&gt;Node1 -->
<g id="edge4" class="edge">
<title>Node5&#45;&gt;Node1</title>
<path fill="none" stroke="#9a32cd" stroke-dasharray="5,2" d="M473.01,-64.59C428.5,-51.73 357.14,-31.12 317.14,-19.56"/>
<polygon fill="#9a32cd" stroke="#9a32cd" points="472.04,-67.96 482.62,-67.37 473.99,-61.23 472.04,-67.96"/>
<text text-anchor="middle" x="444.5" y="-41" font-family="Helvetica,sans-Serif" font-size="10.00"> CodingMode</text>
</g>
</g>
</svg>
