<?xml version="1.0" encoding="UTF-8" standalone="no"?>
<!DOCTYPE svg PUBLIC "-//W3C//DTD SVG 1.1//EN"
 "http://www.w3.org/Graphics/SVG/1.1/DTD/svg11.dtd">
<!-- Generated by graphviz version 2.43.0 (0)
 -->
<!-- Title: _SP_UNREMOVEDEVICE_PARAMS Pages: 1 -->
<svg width="241pt" height="117pt"
 viewBox="0.00 0.00 241.00 117.00" xmlns="http://www.w3.org/2000/svg" xmlns:xlink="http://www.w3.org/1999/xlink">
<g id="graph0" class="graph" transform="scale(1 1) rotate(0) translate(4 113)">
<title>_SP_UNREMOVEDEVICE_PARAMS</title>
<!-- Node1 -->
<g id="node1" class="node">
<title>Node1</title>
<g id="a_node1"><a xlink:title=" ">
<polygon fill="#bfbfbf" stroke="black" points="68,-0.5 68,-30.5 200,-30.5 200,-0.5 68,-0.5"/>
<text text-anchor="start" x="76" y="-18.5" font-family="Helvetica,sans-Serif" font-size="10.00">_SP_UNREMOVEDEVICE</text>
<text text-anchor="middle" x="134" y="-7.5" font-family="Helvetica,sans-Serif" font-size="10.00">_PARAMS</text>
</a>
</g>
</g>
<!-- Node2 -->
<g id="node2" class="node">
<title>Node2</title>
<g id="a_node2"><a xlink:title=" ">
<polygon fill="none" stroke="#bfbfbf" points="0,-89.5 0,-108.5 150,-108.5 150,-89.5 0,-89.5"/>
<text text-anchor="middle" x="75" y="-96.5" font-family="Helvetica,sans-Serif" font-size="10.00">SP_CLASSINSTALL_HEADER</text>
</a>
</g>
</g>
<!-- Node2&#45;&gt;Node1 -->
<g id="edge1" class="edge">
<title>Node2&#45;&gt;Node1</title>
<path fill="none" stroke="#9a32cd" stroke-dasharray="5,2" d="M71.15,-79.14C70.18,-69.48 70.65,-57.92 76,-49 80.63,-41.28 87.82,-35.25 95.59,-30.59"/>
<polygon fill="#9a32cd" stroke="#9a32cd" points="67.74,-79.99 72.74,-89.33 74.66,-78.9 67.74,-79.99"/>
<text text-anchor="middle" x="123.5" y="-57.5" font-family="Helvetica,sans-Serif" font-size="10.00"> ClassInstallHeader</text>
</g>
<!-- Node3 -->
<g id="node3" class="node">
<title>Node3</title>
<g id="a_node3"><a xlink:title=" ">
<polygon fill="none" stroke="#bfbfbf" points="174,-89.5 174,-108.5 212,-108.5 212,-89.5 174,-89.5"/>
<text text-anchor="middle" x="193" y="-96.5" font-family="Helvetica,sans-Serif" font-size="10.00">long</text>
</a>
</g>
</g>
<!-- Node3&#45;&gt;Node1 -->
<g id="edge2" class="edge">
<title>Node3&#45;&gt;Node1</title>
<path fill="none" stroke="#9a32cd" stroke-dasharray="5,2" d="M187.04,-79.97C183.32,-70.25 177.92,-58.37 171,-49 166.02,-42.26 159.43,-35.92 153.2,-30.66"/>
<polygon fill="#9a32cd" stroke="#9a32cd" points="183.76,-81.19 190.41,-89.44 190.36,-78.85 183.76,-81.19"/>
<text text-anchor="middle" x="208" y="-63" font-family="Helvetica,sans-Serif" font-size="10.00"> HwProfile</text>
<text text-anchor="middle" x="208" y="-52" font-family="Helvetica,sans-Serif" font-size="10.00">Scope</text>
</g>
</g>
</svg>
