<?xml version="1.0" encoding="UTF-8" standalone="no"?>
<!DOCTYPE svg PUBLIC "-//W3C//DTD SVG 1.1//EN"
 "http://www.w3.org/Graphics/SVG/1.1/DTD/svg11.dtd">
<!-- Generated by graphviz version 2.43.0 (0)
 -->
<!-- Title: my_marker_reader Pages: 1 -->
<!--zoomable 208 -->
<svg id="main" version="1.1" xmlns="http://www.w3.org/2000/svg" xmlns:xlink="http://www.w3.org/1999/xlink" xml:space="preserve" onload="init(evt)">
<style type="text/css"><![CDATA[
.edge:hover path { stroke: red; }
.edge:hover polygon { stroke: red; fill: red; }
]]></style>
<script type="text/javascript"><![CDATA[
var edges = document.getElementsByTagName('g');
if (edges && edges.length) {
  for (var i=0;i<edges.length;i++) {
    if (edges[i].id.substr(0,4)=='edge') {
      edges[i].setAttribute('class','edge');
    }
  }
}
]]></script>
        <defs>
                <circle id="rim" cx="0" cy="0" r="7"/>
                <circle id="rim2" cx="0" cy="0" r="3.5"/>
                <g id="zoomPlus">
                        <use xlink:href="#rim" fill="#404040">
                                <set attributeName="fill" to="#808080" begin="zoomplus.mouseover" end="zoomplus.mouseout"/>
                        </use>
                        <path d="M-4,0h8M0,-4v8" fill="none" stroke="white" stroke-width="1.5" pointer-events="none"/>
                </g>
                <g id="zoomMin">
                        <use xlink:href="#rim" fill="#404040">
                                <set attributeName="fill" to="#808080" begin="zoomminus.mouseover" end="zoomminus.mouseout"/>
                        </use>
                        <path d="M-4,0h8" fill="none" stroke="white" stroke-width="1.5" pointer-events="none"/>
                </g>
                <g id="dirArrow">
                        <path fill="none" stroke="white" stroke-width="1.5" d="M0,-3.0v7 M-2.5,-0.5L0,-3.0L2.5,-0.5"/>
                </g>
               <g id="resetDef">
                       <use xlink:href="#rim2" fill="#404040">
                               <set attributeName="fill" to="#808080" begin="reset.mouseover" end="reset.mouseout"/>
                       </use>
               </g>
        </defs>

<script type="text/javascript">
var viewWidth = 603;
var viewHeight = 208;
var sectionId = 'dynsection-0';
</script>
<script xlink:href="../../svgpan.js"/>
<svg id="graph" class="graph">
<g id="viewport">
<title>my_marker_reader</title>
<!-- Node1 -->
<g id="node1" class="node">
<title>Node1</title>
<g id="a_node1"><a xlink:title=" ">
<polygon fill="#bfbfbf" stroke="black" points="159,-0.5 159,-19.5 268,-19.5 268,-0.5 159,-0.5"/>
<text text-anchor="middle" x="213.5" y="-7.5" font-family="Helvetica,sans-Serif" font-size="10.00">my_marker_reader</text>
</a>
</g>
</g>
<!-- Node2 -->
<g id="node2" class="node">
<title>Node2</title>
<g id="a_node2"><a xlink:title=" ">
<polygon fill="none" stroke="#bfbfbf" points="0,-74 0,-93 131,-93 131,-74 0,-74"/>
<text text-anchor="middle" x="65.5" y="-81" font-family="Helvetica,sans-Serif" font-size="10.00">jpeg_saved_marker_ptr</text>
</a>
</g>
</g>
<!-- Node2&#45;&gt;Node1 -->
<g id="edge1" class="edge">
<title>Node2&#45;&gt;Node1</title>
<path fill="none" stroke="#9a32cd" stroke-dasharray="5,2" d="M73.5,-64.61C78.54,-55.33 85.91,-44.58 95.5,-38 114.04,-25.28 137.7,-18.48 158.96,-14.86"/>
<polygon fill="#9a32cd" stroke="#9a32cd" points="70.23,-63.32 68.96,-73.84 76.51,-66.41 70.23,-63.32"/>
<text text-anchor="middle" x="124.5" y="-41" font-family="Helvetica,sans-Serif" font-size="10.00"> cur_marker</text>
</g>
<!-- Node3 -->
<g id="node3" class="node">
<title>Node3</title>
<g id="a_node3"><a xlink:title=" ">
<polygon fill="none" stroke="#bfbfbf" points="128,-169.5 128,-199.5 241,-199.5 241,-169.5 128,-169.5"/>
<text text-anchor="start" x="136" y="-187.5" font-family="Helvetica,sans-Serif" font-size="10.00">jpeg_marker_parser</text>
<text text-anchor="middle" x="184.5" y="-176.5" font-family="Helvetica,sans-Serif" font-size="10.00">_method</text>
</a>
</g>
</g>
<!-- Node3&#45;&gt;Node1 -->
<g id="edge2" class="edge">
<title>Node3&#45;&gt;Node1</title>
<path fill="none" stroke="#9a32cd" stroke-dasharray="5,2" d="M180.79,-159.3C177.94,-135.44 175.69,-98.13 183.5,-67 188.06,-48.81 199.8,-30.09 207.16,-19.56"/>
<polygon fill="#9a32cd" stroke="#9a32cd" points="177.32,-159.79 182.1,-169.24 184.26,-158.87 177.32,-159.79"/>
<text text-anchor="middle" x="219" y="-86.5" font-family="Helvetica,sans-Serif" font-size="10.00"> process_APPn</text>
<text text-anchor="middle" x="219" y="-75.5" font-family="Helvetica,sans-Serif" font-size="10.00">process_COM</text>
</g>
<!-- Node4 -->
<g id="node4" class="node">
<title>Node4</title>
<g id="a_node4"><a xlink:href="../../da/deb/structjpeg__marker__reader.html" target="_top" xlink:title=" ">
<polygon fill="none" stroke="black" points="263.5,-74 263.5,-93 377.5,-93 377.5,-74 263.5,-74"/>
<text text-anchor="middle" x="320.5" y="-81" font-family="Helvetica,sans-Serif" font-size="10.00">jpeg_marker_reader</text>
</a>
</g>
</g>
<!-- Node3&#45;&gt;Node4 -->
<g id="edge4" class="edge">
<title>Node3&#45;&gt;Node4</title>
<path fill="none" stroke="#9a32cd" stroke-dasharray="5,2" d="M191.01,-159.57C195.92,-145.67 204,-128.83 216.5,-118 230.62,-105.76 249.27,-97.98 266.88,-93.04"/>
<polygon fill="#9a32cd" stroke="#9a32cd" points="187.56,-158.88 187.85,-169.47 194.23,-161.01 187.56,-158.88"/>
<text text-anchor="middle" x="268" y="-132" font-family="Helvetica,sans-Serif" font-size="10.00"> read_restart_marker</text>
</g>
<!-- Node4&#45;&gt;Node1 -->
<g id="edge3" class="edge">
<title>Node4&#45;&gt;Node1</title>
<path fill="none" stroke="#9a32cd" stroke-dasharray="5,2" d="M298.81,-68.01C277.08,-53.48 244.34,-31.61 226.39,-19.62"/>
<polygon fill="#9a32cd" stroke="#9a32cd" points="297.12,-71.09 307.38,-73.73 301.01,-65.27 297.12,-71.09"/>
<text text-anchor="middle" x="281.5" y="-41" font-family="Helvetica,sans-Serif" font-size="10.00"> pub</text>
</g>
<!-- Node5 -->
<g id="node5" class="node">
<title>Node5</title>
<g id="a_node5"><a xlink:title=" ">
<polygon fill="none" stroke="#bfbfbf" points="312,-175 312,-194 341,-194 341,-175 312,-175"/>
<text text-anchor="middle" x="326.5" y="-182" font-family="Helvetica,sans-Serif" font-size="10.00">int</text>
</a>
</g>
</g>
<!-- Node5&#45;&gt;Node4 -->
<g id="edge5" class="edge">
<title>Node5&#45;&gt;Node4</title>
<path fill="none" stroke="#9a32cd" stroke-dasharray="5,2" d="M325.35,-164.53C324.05,-143.04 321.98,-108.97 321.02,-93.12"/>
<polygon fill="#9a32cd" stroke="#9a32cd" points="321.87,-164.94 325.97,-174.71 328.86,-164.52 321.87,-164.94"/>
<text text-anchor="middle" x="368" y="-143" font-family="Helvetica,sans-Serif" font-size="10.00"> saw_SOF</text>
<text text-anchor="middle" x="368" y="-132" font-family="Helvetica,sans-Serif" font-size="10.00">saw_SOI</text>
<text text-anchor="middle" x="368" y="-121" font-family="Helvetica,sans-Serif" font-size="10.00">next_restart_num</text>
</g>
<!-- Node6 -->
<g id="node6" class="node">
<title>Node6</title>
<g id="a_node6"><a xlink:title=" ">
<polygon fill="none" stroke="#bfbfbf" points="455,-175 455,-194 516,-194 516,-175 455,-175"/>
<text text-anchor="middle" x="485.5" y="-182" font-family="Helvetica,sans-Serif" font-size="10.00">unsigned</text>
</a>
</g>
</g>
<!-- Node6&#45;&gt;Node1 -->
<g id="edge7" class="edge">
<title>Node6&#45;&gt;Node1</title>
<path fill="none" stroke="#9a32cd" stroke-dasharray="5,2" d="M507.29,-168.41C512.61,-163.53 517.6,-157.64 520.5,-151 526.36,-137.56 528.82,-130.08 520.5,-118 464.12,-36.21 340.15,-16.31 268.19,-11.86"/>
<polygon fill="#9a32cd" stroke="#9a32cd" points="504.99,-165.77 499.46,-174.81 509.42,-171.19 504.99,-165.77"/>
<text text-anchor="middle" x="550" y="-92" font-family="Helvetica,sans-Serif" font-size="10.00"> bytes_read</text>
<text text-anchor="middle" x="550" y="-81" font-family="Helvetica,sans-Serif" font-size="10.00">length_limit_COM</text>
<text text-anchor="middle" x="550" y="-70" font-family="Helvetica,sans-Serif" font-size="10.00">length_limit_APPn</text>
</g>
<!-- Node6&#45;&gt;Node4 -->
<g id="edge6" class="edge">
<title>Node6&#45;&gt;Node4</title>
<path fill="none" stroke="#9a32cd" stroke-dasharray="5,2" d="M461.08,-169.45C453.09,-164.23 444.47,-157.88 437.5,-151 424.77,-138.44 428.71,-128.85 414.5,-118 398.94,-106.12 378.8,-98.2 361.16,-93.06"/>
<polygon fill="#9a32cd" stroke="#9a32cd" points="459.39,-172.52 469.73,-174.84 463.09,-166.58 459.39,-172.52"/>
<text text-anchor="middle" x="479" y="-132" font-family="Helvetica,sans-Serif" font-size="10.00"> discarded_bytes</text>
</g>
</g>
</svg>
        <g id="navigator" transform="translate(0 0)" fill="#404254">
                <rect fill="#f2f5e9" fill-opacity="0.5" stroke="#606060" stroke-width=".5" x="0" y="0" width="60" height="60"/>
                <use id="zoomplus" xlink:href="#zoomPlus" x="17" y="9" onmousedown="handleZoom(evt,'in')"/>
                <use id="zoomminus" xlink:href="#zoomMin" x="42" y="9" onmousedown="handleZoom(evt,'out')"/>
                <use id="reset" xlink:href="#resetDef" x="30" y="36" onmousedown="handleReset()"/>
                <g id="arrowUp" xlink:href="#dirArrow" transform="translate(30 24)" onmousedown="handlePan(0,-1)">
                  <use xlink:href="#rim" fill="#404040">
                        <set attributeName="fill" to="#808080" begin="arrowUp.mouseover" end="arrowUp.mouseout"/>
                  </use>
                  <path fill="none" stroke="white" stroke-width="1.5" d="M0,-3.0v7 M-2.5,-0.5L0,-3.0L2.5,-0.5"/>
                </g>
                <g id="arrowRight" xlink:href="#dirArrow" transform="rotate(90) translate(36 -43)" onmousedown="handlePan(1,0)">
                  <use xlink:href="#rim" fill="#404040">
                        <set attributeName="fill" to="#808080" begin="arrowRight.mouseover" end="arrowRight.mouseout"/>
                  </use>
                  <path fill="none" stroke="white" stroke-width="1.5" d="M0,-3.0v7 M-2.5,-0.5L0,-3.0L2.5,-0.5"/>
                </g>
                <g id="arrowDown" xlink:href="#dirArrow" transform="rotate(180) translate(-30 -48)" onmousedown="handlePan(0,1)">
                  <use xlink:href="#rim" fill="#404040">
                        <set attributeName="fill" to="#808080" begin="arrowDown.mouseover" end="arrowDown.mouseout"/>
                  </use>
                  <path fill="none" stroke="white" stroke-width="1.5" d="M0,-3.0v7 M-2.5,-0.5L0,-3.0L2.5,-0.5"/>
                </g>
                <g id="arrowLeft" xlink:href="#dirArrow" transform="rotate(270) translate(-36 17)" onmousedown="handlePan(-1,0)">
                  <use xlink:href="#rim" fill="#404040">
                        <set attributeName="fill" to="#808080" begin="arrowLeft.mouseover" end="arrowLeft.mouseout"/>
                  </use>
                  <path fill="none" stroke="white" stroke-width="1.5" d="M0,-3.0v7 M-2.5,-0.5L0,-3.0L2.5,-0.5"/>
                </g>
        </g>
        <svg viewBox="0 0 15 15" width="100%" height="30px" preserveAspectRatio="xMaxYMin meet">
         <g id="arrow_out" transform="scale(0.3 0.3)">
          <a xlink:href="structmy__marker__reader__coll__graph_org.svg" target="_base">
           <rect id="button" ry="5" rx="5" y="6" x="6" height="38" width="38"
                fill="#f2f5e9" fill-opacity="0.5" stroke="#606060" stroke-width="1.0"/>
           <path id="arrow"
             d="M 11.500037,31.436501 C 11.940474,20.09759 22.043105,11.32322 32.158766,21.979434 L 37.068811,17.246167 C 37.068811,17.246167 37.088388,32 37.088388,32 L 22.160133,31.978069 C 22.160133,31.978069 26.997745,27.140456 26.997745,27.140456 C 18.528582,18.264221 13.291696,25.230495 11.500037,31.436501 z"
             style="fill:#404040;"/>
          </a>
         </g>
        </svg>
</svg>
