<?xml version="1.0" encoding="UTF-8" standalone="no"?>
<!DOCTYPE svg PUBLIC "-//W3C//DTD SVG 1.1//EN"
 "http://www.w3.org/Graphics/SVG/1.1/DTD/svg11.dtd">
<!-- Generated by graphviz version 2.43.0 (0)
 -->
<!-- Title: cg_weapGfxImportRef_t Pages: 1 -->
<svg width="142pt" height="117pt"
 viewBox="0.00 0.00 142.00 117.00" xmlns="http://www.w3.org/2000/svg" xmlns:xlink="http://www.w3.org/1999/xlink">
<g id="graph0" class="graph" transform="scale(1 1) rotate(0) translate(4 113)">
<title>cg_weapGfxImportRef_t</title>
<!-- Node1 -->
<g id="node1" class="node">
<title>Node1</title>
<g id="a_node1"><a xlink:title=" ">
<polygon fill="#bfbfbf" stroke="black" points="0,-0.5 0,-19.5 134,-19.5 134,-0.5 0,-0.5"/>
<text text-anchor="middle" x="67" y="-7.5" font-family="Helvetica,sans-Serif" font-size="10.00">cg_weapGfxImportRef_t</text>
</a>
</g>
</g>
<!-- Node2 -->
<g id="node2" class="node">
<title>Node2</title>
<g id="a_node2"><a xlink:title=" ">
<polygon fill="none" stroke="#bfbfbf" points="14,-89.5 14,-108.5 52,-108.5 52,-89.5 14,-89.5"/>
<text text-anchor="middle" x="33" y="-96.5" font-family="Helvetica,sans-Serif" font-size="10.00">char</text>
</a>
</g>
</g>
<!-- Node2&#45;&gt;Node1 -->
<g id="edge1" class="edge">
<title>Node2&#45;&gt;Node1</title>
<path fill="none" stroke="#9a32cd" stroke-dasharray="5,2" d="M29.39,-79.29C27.93,-66.96 27.81,-50.78 34,-38 37.68,-30.4 44.62,-24.22 51.2,-19.7"/>
<polygon fill="#9a32cd" stroke="#9a32cd" points="25.96,-80 30.97,-89.33 32.88,-78.91 25.96,-80"/>
<text text-anchor="middle" x="56.5" y="-63" font-family="Helvetica,sans-Serif" font-size="10.00"> refname</text>
<text text-anchor="middle" x="56.5" y="-52" font-family="Helvetica,sans-Serif" font-size="10.00">defname</text>
<text text-anchor="middle" x="56.5" y="-41" font-family="Helvetica,sans-Serif" font-size="10.00">filename</text>
</g>
<!-- Node3 -->
<g id="node3" class="node">
<title>Node3</title>
<g id="a_node3"><a xlink:title=" ">
<polygon fill="none" stroke="#bfbfbf" points="70,-89.5 70,-108.5 132,-108.5 132,-89.5 70,-89.5"/>
<text text-anchor="middle" x="101" y="-96.5" font-family="Helvetica,sans-Serif" font-size="10.00">qboolean</text>
</a>
</g>
</g>
<!-- Node3&#45;&gt;Node1 -->
<g id="edge2" class="edge">
<title>Node3&#45;&gt;Node1</title>
<path fill="none" stroke="#9a32cd" stroke-dasharray="5,2" d="M94.65,-79.7C90.41,-67.75 84.61,-51.86 79,-38 76.54,-31.91 73.54,-25.16 71.15,-19.94"/>
<polygon fill="#9a32cd" stroke="#9a32cd" points="91.43,-81.11 98.05,-89.39 98.04,-78.79 91.43,-81.11"/>
<text text-anchor="middle" x="108" y="-52" font-family="Helvetica,sans-Serif" font-size="10.00"> active</text>
</g>
</g>
</svg>
