<?xml version="1.0" encoding="UTF-8" standalone="no"?>
<!DOCTYPE svg PUBLIC "-//W3C//DTD SVG 1.1//EN"
 "http://www.w3.org/Graphics/SVG/1.1/DTD/svg11.dtd">
<!-- Generated by graphviz version 2.43.0 (0)
 -->
<!-- Title: _FILEPATHS_W Pages: 1 -->
<svg width="232pt" height="106pt"
 viewBox="0.00 0.00 231.50 106.00" xmlns="http://www.w3.org/2000/svg" xmlns:xlink="http://www.w3.org/1999/xlink">
<g id="graph0" class="graph" transform="scale(1 1) rotate(0) translate(4 102)">
<title>_FILEPATHS_W</title>
<!-- Node1 -->
<g id="node1" class="node">
<title>Node1</title>
<g id="a_node1"><a xlink:title=" ">
<polygon fill="#bfbfbf" stroke="black" points="77.5,-0.5 77.5,-19.5 165.5,-19.5 165.5,-0.5 77.5,-0.5"/>
<text text-anchor="middle" x="121.5" y="-7.5" font-family="Helvetica,sans-Serif" font-size="10.00">_FILEPATHS_W</text>
</a>
</g>
</g>
<!-- Node2 -->
<g id="node2" class="node">
<title>Node2</title>
<g id="a_node2"><a xlink:title=" ">
<polygon fill="none" stroke="#bfbfbf" points="0,-78.5 0,-97.5 89,-97.5 89,-78.5 0,-78.5"/>
<text text-anchor="middle" x="44.5" y="-85.5" font-family="Helvetica,sans-Serif" font-size="10.00">unsigned short</text>
</a>
</g>
</g>
<!-- Node2&#45;&gt;Node1 -->
<g id="edge1" class="edge">
<title>Node2&#45;&gt;Node1</title>
<path fill="none" stroke="#9a32cd" stroke-dasharray="5,2" d="M56.06,-70.17C63.32,-60.23 73.22,-47.73 83.5,-38 90.79,-31.1 99.93,-24.55 107.42,-19.63"/>
<polygon fill="#9a32cd" stroke="#9a32cd" points="53.13,-68.25 50.2,-78.43 58.84,-72.3 53.13,-68.25"/>
<text text-anchor="middle" x="100.5" y="-52" font-family="Helvetica,sans-Serif" font-size="10.00"> Target</text>
<text text-anchor="middle" x="100.5" y="-41" font-family="Helvetica,sans-Serif" font-size="10.00">Source</text>
</g>
<!-- Node3 -->
<g id="node3" class="node">
<title>Node3</title>
<g id="a_node3"><a xlink:title=" ">
<polygon fill="none" stroke="#bfbfbf" points="107,-78.5 107,-97.5 136,-97.5 136,-78.5 107,-78.5"/>
<text text-anchor="middle" x="121.5" y="-85.5" font-family="Helvetica,sans-Serif" font-size="10.00">int</text>
</a>
</g>
</g>
<!-- Node3&#45;&gt;Node1 -->
<g id="edge2" class="edge">
<title>Node3&#45;&gt;Node1</title>
<path fill="none" stroke="#9a32cd" stroke-dasharray="5,2" d="M121.5,-68.22C121.5,-52.7 121.5,-31.36 121.5,-19.62"/>
<polygon fill="#9a32cd" stroke="#9a32cd" points="118,-68.28 121.5,-78.28 125,-68.28 118,-68.28"/>
<text text-anchor="middle" x="150.5" y="-46.5" font-family="Helvetica,sans-Serif" font-size="10.00"> Win32Error</text>
</g>
<!-- Node4 -->
<g id="node4" class="node">
<title>Node4</title>
<g id="a_node4"><a xlink:title=" ">
<polygon fill="none" stroke="#bfbfbf" points="183.5,-78.5 183.5,-97.5 221.5,-97.5 221.5,-78.5 183.5,-78.5"/>
<text text-anchor="middle" x="202.5" y="-85.5" font-family="Helvetica,sans-Serif" font-size="10.00">long</text>
</a>
</g>
</g>
<!-- Node4&#45;&gt;Node1 -->
<g id="edge3" class="edge">
<title>Node4&#45;&gt;Node1</title>
<path fill="none" stroke="#9a32cd" stroke-dasharray="5,2" d="M197.67,-68.45C194.26,-58.4 188.8,-46.36 180.5,-38 172.33,-29.77 161.18,-23.79 150.77,-19.58"/>
<polygon fill="#9a32cd" stroke="#9a32cd" points="194.4,-69.72 200.6,-78.31 201.11,-67.73 194.4,-69.72"/>
<text text-anchor="middle" x="208.5" y="-46.5" font-family="Helvetica,sans-Serif" font-size="10.00"> Flags</text>
</g>
</g>
</svg>
