<?xml version="1.0" encoding="UTF-8" standalone="no"?>
<!DOCTYPE svg PUBLIC "-//W3C//DTD SVG 1.1//EN"
 "http://www.w3.org/Graphics/SVG/1.1/DTD/svg11.dtd">
<!-- Generated by graphviz version 2.43.0 (0)
 -->
<!-- Title: _tag_menuframework Pages: 1 -->
<svg width="439pt" height="117pt"
 viewBox="0.00 0.00 439.00 117.00" xmlns="http://www.w3.org/2000/svg" xmlns:xlink="http://www.w3.org/1999/xlink">
<g id="graph0" class="graph" transform="scale(1 1) rotate(0) translate(4 113)">
<title>_tag_menuframework</title>
<!-- Node1 -->
<g id="node1" class="node">
<title>Node1</title>
<g id="a_node1"><a xlink:title=" ">
<polygon fill="#bfbfbf" stroke="black" points="180,-0.5 180,-19.5 304,-19.5 304,-0.5 180,-0.5"/>
<text text-anchor="middle" x="242" y="-7.5" font-family="Helvetica,sans-Serif" font-size="10.00">_tag_menuframework</text>
</a>
</g>
</g>
<!-- Node2 -->
<g id="node2" class="node">
<title>Node2</title>
<g id="a_node2"><a xlink:title=" ">
<polygon fill="none" stroke="#bfbfbf" points="0,-89.5 0,-108.5 128,-108.5 128,-89.5 0,-89.5"/>
<text text-anchor="middle" x="64" y="-96.5" font-family="Helvetica,sans-Serif" font-size="10.00">sfxHandle_t(*)(int key)</text>
</a>
</g>
</g>
<!-- Node2&#45;&gt;Node1 -->
<g id="edge1" class="edge">
<title>Node2&#45;&gt;Node1</title>
<path fill="none" stroke="#9a32cd" stroke-dasharray="5,2" d="M79.57,-81.99C93.64,-68.4 115.54,-49.34 138,-38 154.57,-29.63 173.97,-23.69 191.5,-19.55"/>
<polygon fill="#9a32cd" stroke="#9a32cd" points="76.87,-79.73 72.24,-89.26 81.8,-84.7 76.87,-79.73"/>
<text text-anchor="middle" x="148.5" y="-52" font-family="Helvetica,sans-Serif" font-size="10.00"> key</text>
</g>
<!-- Node3 -->
<g id="node3" class="node">
<title>Node3</title>
<g id="a_node3"><a xlink:title=" ">
<polygon fill="none" stroke="#bfbfbf" points="146.5,-89.5 146.5,-108.5 175.5,-108.5 175.5,-89.5 146.5,-89.5"/>
<text text-anchor="middle" x="161" y="-96.5" font-family="Helvetica,sans-Serif" font-size="10.00">int</text>
</a>
</g>
</g>
<!-- Node3&#45;&gt;Node1 -->
<g id="edge2" class="edge">
<title>Node3&#45;&gt;Node1</title>
<path fill="none" stroke="#9a32cd" stroke-dasharray="5,2" d="M161.78,-78.99C163.25,-66.05 167.12,-49.3 177,-38 184.4,-29.54 194.88,-23.67 205.27,-19.63"/>
<polygon fill="#9a32cd" stroke="#9a32cd" points="158.28,-78.9 161.01,-89.14 165.26,-79.43 158.28,-78.9"/>
<text text-anchor="middle" x="206" y="-63" font-family="Helvetica,sans-Serif" font-size="10.00"> nitems</text>
<text text-anchor="middle" x="206" y="-52" font-family="Helvetica,sans-Serif" font-size="10.00">cursor</text>
<text text-anchor="middle" x="206" y="-41" font-family="Helvetica,sans-Serif" font-size="10.00">cursor_prev</text>
</g>
<!-- Node4 -->
<g id="node4" class="node">
<title>Node4</title>
<g id="a_node4"><a xlink:title=" ">
<polygon fill="none" stroke="#bfbfbf" points="198.5,-89.5 198.5,-108.5 277.5,-108.5 277.5,-89.5 198.5,-89.5"/>
<text text-anchor="middle" x="238" y="-96.5" font-family="Helvetica,sans-Serif" font-size="10.00">void(*)(void)</text>
</a>
</g>
</g>
<!-- Node4&#45;&gt;Node1 -->
<g id="edge3" class="edge">
<title>Node4&#45;&gt;Node1</title>
<path fill="none" stroke="#9a32cd" stroke-dasharray="5,2" d="M238.86,-79.19C239.71,-60.74 240.97,-33.41 241.6,-19.62"/>
<polygon fill="#9a32cd" stroke="#9a32cd" points="235.36,-79.19 238.4,-89.34 242.35,-79.51 235.36,-79.19"/>
<text text-anchor="middle" x="254" y="-52" font-family="Helvetica,sans-Serif" font-size="10.00"> draw</text>
</g>
<!-- Node5 -->
<g id="node5" class="node">
<title>Node5</title>
<g id="a_node5"><a xlink:title=" ">
<polygon fill="none" stroke="#bfbfbf" points="296,-89.5 296,-108.5 342,-108.5 342,-89.5 296,-89.5"/>
<text text-anchor="middle" x="319" y="-96.5" font-family="Helvetica,sans-Serif" font-size="10.00">void *</text>
</a>
</g>
</g>
<!-- Node5&#45;&gt;Node1 -->
<g id="edge4" class="edge">
<title>Node5&#45;&gt;Node1</title>
<path fill="none" stroke="#9a32cd" stroke-dasharray="5,2" d="M306.94,-81.03C297.85,-68.65 284.81,-51.72 272,-38 265.88,-31.44 258.38,-24.69 252.41,-19.58"/>
<polygon fill="#9a32cd" stroke="#9a32cd" points="304.35,-83.42 313.05,-89.48 310.02,-79.32 304.35,-83.42"/>
<text text-anchor="middle" x="313.5" y="-52" font-family="Helvetica,sans-Serif" font-size="10.00"> items</text>
</g>
<!-- Node6 -->
<g id="node6" class="node">
<title>Node6</title>
<g id="a_node6"><a xlink:title=" ">
<polygon fill="none" stroke="#bfbfbf" points="360,-89.5 360,-108.5 422,-108.5 422,-89.5 360,-89.5"/>
<text text-anchor="middle" x="391" y="-96.5" font-family="Helvetica,sans-Serif" font-size="10.00">qboolean</text>
</a>
</g>
</g>
<!-- Node6&#45;&gt;Node1 -->
<g id="edge5" class="edge">
<title>Node6&#45;&gt;Node1</title>
<path fill="none" stroke="#9a32cd" stroke-dasharray="5,2" d="M378.81,-81.27C368.14,-67.76 351.49,-49.22 333,-38 319.19,-29.62 302.62,-23.7 287.43,-19.59"/>
<polygon fill="#9a32cd" stroke="#9a32cd" points="376.07,-83.45 384.91,-89.29 381.64,-79.21 376.07,-83.45"/>
<text text-anchor="middle" x="400" y="-63" font-family="Helvetica,sans-Serif" font-size="10.00"> wrapAround</text>
<text text-anchor="middle" x="400" y="-52" font-family="Helvetica,sans-Serif" font-size="10.00">fullscreen</text>
<text text-anchor="middle" x="400" y="-41" font-family="Helvetica,sans-Serif" font-size="10.00">showlogo</text>
</g>
</g>
</svg>
