<?xml version="1.0" encoding="UTF-8" standalone="no"?>
<!DOCTYPE svg PUBLIC "-//W3C//DTD SVG 1.1//EN"
 "http://www.w3.org/Graphics/SVG/1.1/DTD/svg11.dtd">
<!-- Generated by graphviz version 2.43.0 (0)
 -->
<!-- Title: Shared/net_ip.c Pages: 1 -->
<svg width="1173pt" height="84pt"
 viewBox="0.00 0.00 1173.00 84.00" xmlns="http://www.w3.org/2000/svg" xmlns:xlink="http://www.w3.org/1999/xlink">
<g id="graph0" class="graph" transform="scale(1 1) rotate(0) translate(4 80)">
<title>Shared/net_ip.c</title>
<!-- Node1 -->
<g id="node1" class="node">
<title>Node1</title>
<g id="a_node1"><a xlink:title=" ">
<polygon fill="#bfbfbf" stroke="black" points="604.5,-56.5 604.5,-75.5 696.5,-75.5 696.5,-56.5 604.5,-56.5"/>
<text text-anchor="middle" x="650.5" y="-63.5" font-family="Helvetica,sans-Serif" font-size="10.00">Shared/net_ip.c</text>
</a>
</g>
</g>
<!-- Node2 -->
<g id="node2" class="node">
<title>Node2</title>
<g id="a_node2"><a xlink:title=" ">
<polygon fill="none" stroke="#bfbfbf" points="0,-0.5 0,-19.5 125,-19.5 125,-0.5 0,-0.5"/>
<text text-anchor="middle" x="62.5" y="-7.5" font-family="Helvetica,sans-Serif" font-size="10.00">../../Shared/q_shared.h</text>
</a>
</g>
</g>
<!-- Node1&#45;&gt;Node2 -->
<g id="edge1" class="edge">
<title>Node1&#45;&gt;Node2</title>
<path fill="none" stroke="midnightblue" d="M604.45,-61.6C515.73,-54.92 314.71,-39.15 135.35,-20.16"/>
<polygon fill="midnightblue" stroke="midnightblue" points="135.52,-16.66 125.2,-19.08 134.78,-23.62 135.52,-16.66"/>
</g>
<!-- Node3 -->
<g id="node3" class="node">
<title>Node3</title>
<g id="a_node3"><a xlink:title=" ">
<polygon fill="none" stroke="#bfbfbf" points="143,-0.5 143,-19.5 272,-19.5 272,-0.5 143,-0.5"/>
<text text-anchor="middle" x="207.5" y="-7.5" font-family="Helvetica,sans-Serif" font-size="10.00">../../Shared/qcommon.h</text>
</a>
</g>
</g>
<!-- Node1&#45;&gt;Node3 -->
<g id="edge2" class="edge">
<title>Node1&#45;&gt;Node3</title>
<path fill="none" stroke="midnightblue" d="M604.35,-59.41C536.25,-51.16 404.53,-35.18 282.63,-20.26"/>
<polygon fill="midnightblue" stroke="midnightblue" points="282.73,-16.75 272.38,-19 281.88,-23.69 282.73,-16.75"/>
</g>
<!-- Node4 -->
<g id="node4" class="node">
<title>Node4</title>
<g id="a_node4"><a xlink:title=" ">
<polygon fill="none" stroke="#bfbfbf" points="290,-0.5 290,-19.5 367,-19.5 367,-0.5 290,-0.5"/>
<text text-anchor="middle" x="328.5" y="-7.5" font-family="Helvetica,sans-Serif" font-size="10.00">sys/socket.h</text>
</a>
</g>
</g>
<!-- Node1&#45;&gt;Node4 -->
<g id="edge3" class="edge">
<title>Node1&#45;&gt;Node4</title>
<path fill="none" stroke="midnightblue" d="M604.21,-57.82C551.54,-49.55 462.67,-35.35 377.09,-20.25"/>
<polygon fill="midnightblue" stroke="midnightblue" points="377.67,-16.8 367.21,-18.5 376.45,-23.69 377.67,-16.8"/>
</g>
<!-- Node5 -->
<g id="node5" class="node">
<title>Node5</title>
<g id="a_node5"><a xlink:title=" ">
<polygon fill="none" stroke="#bfbfbf" points="385,-0.5 385,-19.5 436,-19.5 436,-0.5 385,-0.5"/>
<text text-anchor="middle" x="410.5" y="-7.5" font-family="Helvetica,sans-Serif" font-size="10.00">errno.h</text>
</a>
</g>
</g>
<!-- Node1&#45;&gt;Node5 -->
<g id="edge4" class="edge">
<title>Node1&#45;&gt;Node5</title>
<path fill="none" stroke="midnightblue" d="M608.95,-56.48C569.37,-48.24 507.9,-35.12 446.02,-20.3"/>
<polygon fill="midnightblue" stroke="midnightblue" points="446.63,-16.84 436.09,-17.9 444.99,-23.65 446.63,-16.84"/>
</g>
<!-- Node6 -->
<g id="node6" class="node">
<title>Node6</title>
<g id="a_node6"><a xlink:title=" ">
<polygon fill="none" stroke="#bfbfbf" points="454,-0.5 454,-19.5 507,-19.5 507,-0.5 454,-0.5"/>
<text text-anchor="middle" x="480.5" y="-7.5" font-family="Helvetica,sans-Serif" font-size="10.00">netdb.h</text>
</a>
</g>
</g>
<!-- Node1&#45;&gt;Node6 -->
<g id="edge5" class="edge">
<title>Node1&#45;&gt;Node6</title>
<path fill="none" stroke="midnightblue" d="M623.56,-56.44C594.76,-47.29 548.9,-32.73 516.9,-22.56"/>
<polygon fill="midnightblue" stroke="midnightblue" points="517.62,-19.12 507.03,-19.43 515.5,-25.79 517.62,-19.12"/>
</g>
<!-- Node7 -->
<g id="node7" class="node">
<title>Node7</title>
<g id="a_node7"><a xlink:title=" ">
<polygon fill="none" stroke="#bfbfbf" points="525.5,-0.5 525.5,-19.5 597.5,-19.5 597.5,-0.5 525.5,-0.5"/>
<text text-anchor="middle" x="561.5" y="-7.5" font-family="Helvetica,sans-Serif" font-size="10.00">netinet/in.h</text>
</a>
</g>
</g>
<!-- Node1&#45;&gt;Node7 -->
<g id="edge6" class="edge">
<title>Node1&#45;&gt;Node7</title>
<path fill="none" stroke="midnightblue" d="M636.2,-56.32C622.32,-47.9 601.01,-34.97 584.7,-25.07"/>
<polygon fill="midnightblue" stroke="midnightblue" points="586.13,-21.85 575.76,-19.65 582.5,-27.83 586.13,-21.85"/>
</g>
<!-- Node8 -->
<g id="node8" class="node">
<title>Node8</title>
<g id="a_node8"><a xlink:title=" ">
<polygon fill="none" stroke="#bfbfbf" points="616,-0.5 616,-19.5 685,-19.5 685,-0.5 616,-0.5"/>
<text text-anchor="middle" x="650.5" y="-7.5" font-family="Helvetica,sans-Serif" font-size="10.00">arpa/inet.h</text>
</a>
</g>
</g>
<!-- Node1&#45;&gt;Node8 -->
<g id="edge7" class="edge">
<title>Node1&#45;&gt;Node8</title>
<path fill="none" stroke="midnightblue" d="M650.5,-56.08C650.5,-49.01 650.5,-38.86 650.5,-29.99"/>
<polygon fill="midnightblue" stroke="midnightblue" points="654,-29.75 650.5,-19.75 647,-29.75 654,-29.75"/>
</g>
<!-- Node9 -->
<g id="node9" class="node">
<title>Node9</title>
<g id="a_node9"><a xlink:title=" ">
<polygon fill="none" stroke="#bfbfbf" points="703.5,-0.5 703.5,-19.5 753.5,-19.5 753.5,-0.5 703.5,-0.5"/>
<text text-anchor="middle" x="728.5" y="-7.5" font-family="Helvetica,sans-Serif" font-size="10.00">net/if.h</text>
</a>
</g>
</g>
<!-- Node1&#45;&gt;Node9 -->
<g id="edge8" class="edge">
<title>Node1&#45;&gt;Node9</title>
<path fill="none" stroke="midnightblue" d="M663.03,-56.32C675.09,-47.98 693.53,-35.21 707.77,-25.35"/>
<polygon fill="midnightblue" stroke="midnightblue" points="709.77,-28.22 716,-19.65 705.78,-22.47 709.77,-28.22"/>
</g>
<!-- Node10 -->
<g id="node10" class="node">
<title>Node10</title>
<g id="a_node10"><a xlink:title=" ">
<polygon fill="none" stroke="#bfbfbf" points="771.5,-0.5 771.5,-19.5 837.5,-19.5 837.5,-0.5 771.5,-0.5"/>
<text text-anchor="middle" x="804.5" y="-7.5" font-family="Helvetica,sans-Serif" font-size="10.00">sys/ioctl.h</text>
</a>
</g>
</g>
<!-- Node1&#45;&gt;Node10 -->
<g id="edge9" class="edge">
<title>Node1&#45;&gt;Node10</title>
<path fill="none" stroke="midnightblue" d="M674.9,-56.44C700.7,-47.4 741.58,-33.06 770.52,-22.92"/>
<polygon fill="midnightblue" stroke="midnightblue" points="771.93,-26.13 780.21,-19.52 769.62,-19.52 771.93,-26.13"/>
</g>
<!-- Node11 -->
<g id="node11" class="node">
<title>Node11</title>
<g id="a_node11"><a xlink:title=" ">
<polygon fill="none" stroke="#bfbfbf" points="855.5,-0.5 855.5,-19.5 927.5,-19.5 927.5,-0.5 855.5,-0.5"/>
<text text-anchor="middle" x="891.5" y="-7.5" font-family="Helvetica,sans-Serif" font-size="10.00">sys/types.h</text>
</a>
</g>
</g>
<!-- Node1&#45;&gt;Node11 -->
<g id="edge10" class="edge">
<title>Node1&#45;&gt;Node11</title>
<path fill="none" stroke="midnightblue" d="M688.69,-56.44C731.26,-46.9 800.08,-31.48 845.56,-21.29"/>
<polygon fill="midnightblue" stroke="midnightblue" points="846.47,-24.68 855.46,-19.08 844.94,-17.85 846.47,-24.68"/>
</g>
<!-- Node12 -->
<g id="node12" class="node">
<title>Node12</title>
<g id="a_node12"><a xlink:title=" ">
<polygon fill="none" stroke="#bfbfbf" points="945.5,-0.5 945.5,-19.5 1013.5,-19.5 1013.5,-0.5 945.5,-0.5"/>
<text text-anchor="middle" x="979.5" y="-7.5" font-family="Helvetica,sans-Serif" font-size="10.00">sys/time.h</text>
</a>
</g>
</g>
<!-- Node1&#45;&gt;Node12 -->
<g id="edge11" class="edge">
<title>Node1&#45;&gt;Node12</title>
<path fill="none" stroke="midnightblue" d="M696.69,-58.46C751.28,-50.57 845.11,-36.51 935.15,-20.17"/>
<polygon fill="midnightblue" stroke="midnightblue" points="936.05,-23.57 945.26,-18.33 934.8,-16.68 936.05,-23.57"/>
</g>
<!-- Node13 -->
<g id="node13" class="node">
<title>Node13</title>
<g id="a_node13"><a xlink:title=" ">
<polygon fill="none" stroke="#bfbfbf" points="1031.5,-0.5 1031.5,-19.5 1087.5,-19.5 1087.5,-0.5 1031.5,-0.5"/>
<text text-anchor="middle" x="1059.5" y="-7.5" font-family="Helvetica,sans-Serif" font-size="10.00">unistd.h</text>
</a>
</g>
</g>
<!-- Node1&#45;&gt;Node13 -->
<g id="edge12" class="edge">
<title>Node1&#45;&gt;Node13</title>
<path fill="none" stroke="midnightblue" d="M696.58,-61.19C765.27,-55.13 898.73,-41.86 1021.35,-20.02"/>
<polygon fill="midnightblue" stroke="midnightblue" points="1022.07,-23.45 1031.29,-18.23 1020.83,-16.56 1022.07,-23.45"/>
</g>
<!-- Node14 -->
<g id="node14" class="node">
<title>Node14</title>
<g id="a_node14"><a xlink:title=" ">
<polygon fill="none" stroke="#bfbfbf" points="1106,-0.5 1106,-19.5 1165,-19.5 1165,-0.5 1106,-0.5"/>
<text text-anchor="middle" x="1135.5" y="-7.5" font-family="Helvetica,sans-Serif" font-size="10.00">ifaddrs.h</text>
</a>
</g>
</g>
<!-- Node1&#45;&gt;Node14 -->
<g id="edge13" class="edge">
<title>Node1&#45;&gt;Node14</title>
<path fill="none" stroke="midnightblue" d="M696.66,-62.27C776.16,-57.15 944.15,-44.5 1095.8,-19.91"/>
<polygon fill="midnightblue" stroke="midnightblue" points="1096.47,-23.34 1105.77,-18.27 1095.33,-16.44 1096.47,-23.34"/>
</g>
</g>
</svg>
