<?xml version="1.0" encoding="UTF-8" standalone="no"?>
<!DOCTYPE svg PUBLIC "-//W3C//DTD SVG 1.1//EN"
 "http://www.w3.org/Graphics/SVG/1.1/DTD/svg11.dtd">
<!-- Generated by graphviz version 2.43.0 (0)
 -->
<!-- Title: PLSA_DISPATCH_TABLE Pages: 1 -->
<svg width="275pt" height="172pt"
 viewBox="0.00 0.00 275.00 172.00" xmlns="http://www.w3.org/2000/svg" xmlns:xlink="http://www.w3.org/1999/xlink">
<g id="graph0" class="graph" transform="scale(1 1) rotate(0) translate(4 168)">
<title>PLSA_DISPATCH_TABLE</title>
<!-- Node1 -->
<g id="node1" class="node">
<title>Node1</title>
<g id="a_node1"><a xlink:title=" ">
<polygon fill="#bfbfbf" stroke="black" points="23.5,-0.5 23.5,-19.5 152.5,-19.5 152.5,-0.5 23.5,-0.5"/>
<text text-anchor="middle" x="88" y="-7.5" font-family="Helvetica,sans-Serif" font-size="10.00">PLSA_DISPATCH_TABLE</text>
</a>
</g>
</g>
<!-- Node2 -->
<g id="node2" class="node">
<title>Node2</title>
<g id="a_node2"><a xlink:title=" ">
<polygon fill="none" stroke="#bfbfbf" points="0,-133.5 0,-152.5 40,-152.5 40,-133.5 0,-133.5"/>
<text text-anchor="middle" x="20" y="-140.5" font-family="Helvetica,sans-Serif" font-size="10.00">LUID</text>
</a>
</g>
</g>
<!-- Node2&#45;&gt;Node1 -->
<g id="edge1" class="edge">
<title>Node2&#45;&gt;Node1</title>
<path fill="none" stroke="#9a32cd" stroke-dasharray="5,2" d="M17.81,-123C16.26,-100.56 17,-63.13 35,-38 41.01,-29.6 50.41,-23.65 59.64,-19.51"/>
<polygon fill="#9a32cd" stroke="#9a32cd" points="14.35,-123.58 18.76,-133.22 21.32,-122.94 14.35,-123.58"/>
<text text-anchor="middle" x="85" y="-90.5" font-family="Helvetica,sans-Serif" font-size="10.00"> AddCredential</text>
<text text-anchor="middle" x="85" y="-79.5" font-family="Helvetica,sans-Serif" font-size="10.00">DeleteLogonSession</text>
<text text-anchor="middle" x="85" y="-68.5" font-family="Helvetica,sans-Serif" font-size="10.00">DeleteCredential</text>
<text text-anchor="middle" x="85" y="-57.5" font-family="Helvetica,sans-Serif" font-size="10.00">GetCredentials</text>
<text text-anchor="middle" x="85" y="-46.5" font-family="Helvetica,sans-Serif" font-size="10.00">CreateLogonSession</text>
</g>
<!-- Node3 -->
<g id="node3" class="node">
<title>Node3</title>
<g id="a_node3"><a xlink:title=" ">
<polygon fill="none" stroke="#bfbfbf" points="58,-122.5 58,-163.5 256,-163.5 256,-122.5 58,-122.5"/>
<text text-anchor="start" x="66" y="-151.5" font-family="Helvetica,sans-Serif" font-size="10.00">PSecurityUserData *typedef</text>
<text text-anchor="start" x="66" y="-140.5" font-family="Helvetica,sans-Serif" font-size="10.00"> PSECPKG_EXTENDED_INFORMATION</text>
<text text-anchor="middle" x="157" y="-129.5" font-family="Helvetica,sans-Serif" font-size="10.00"> *typedef</text>
</a>
</g>
</g>
<!-- Node3&#45;&gt;Node1 -->
<g id="edge2" class="edge">
<title>Node3&#45;&gt;Node1</title>
<path fill="none" stroke="#9a32cd" stroke-dasharray="5,2" d="M157.04,-112.21C155.67,-89.87 150.67,-59.55 135,-38 129.13,-29.93 120.07,-23.92 111.46,-19.64"/>
<polygon fill="#9a32cd" stroke="#9a32cd" points="153.55,-112.62 157.45,-122.47 160.55,-112.34 153.55,-112.62"/>
<text text-anchor="middle" x="211.5" y="-96" font-family="Helvetica,sans-Serif" font-size="10.00"> CopyFromClientBuffer</text>
<text text-anchor="middle" x="211.5" y="-85" font-family="Helvetica,sans-Serif" font-size="10.00">AllocateLsaHeap</text>
<text text-anchor="middle" x="211.5" y="-74" font-family="Helvetica,sans-Serif" font-size="10.00">FreeClientBuffer</text>
<text text-anchor="middle" x="211.5" y="-63" font-family="Helvetica,sans-Serif" font-size="10.00">CopyToClientBuffer</text>
<text text-anchor="middle" x="211.5" y="-52" font-family="Helvetica,sans-Serif" font-size="10.00">FreeLsaHeap</text>
<text text-anchor="middle" x="211.5" y="-41" font-family="Helvetica,sans-Serif" font-size="10.00">AllocateClientBuffer</text>
</g>
</g>
</svg>
