<?xml version="1.0" encoding="UTF-8" standalone="no"?>
<!DOCTYPE svg PUBLIC "-//W3C//DTD SVG 1.1//EN"
 "http://www.w3.org/Graphics/SVG/1.1/DTD/svg11.dtd">
<!-- Generated by graphviz version 2.43.0 (0)
 -->
<!-- Title: _HD_NOTIFYW Pages: 1 -->
<svg width="208pt" height="106pt"
 viewBox="0.00 0.00 207.50 106.00" xmlns="http://www.w3.org/2000/svg" xmlns:xlink="http://www.w3.org/1999/xlink">
<g id="graph0" class="graph" transform="scale(1 1) rotate(0) translate(4 102)">
<title>_HD_NOTIFYW</title>
<!-- Node1 -->
<g id="node1" class="node">
<title>Node1</title>
<g id="a_node1"><a xlink:title=" ">
<polygon fill="#bfbfbf" stroke="black" points="80.5,-0.5 80.5,-19.5 168.5,-19.5 168.5,-0.5 80.5,-0.5"/>
<text text-anchor="middle" x="124.5" y="-7.5" font-family="Helvetica,sans-Serif" font-size="10.00">_HD_NOTIFYW</text>
</a>
</g>
</g>
<!-- Node2 -->
<g id="node2" class="node">
<title>Node2</title>
<g id="a_node2"><a xlink:title=" ">
<polygon fill="none" stroke="#bfbfbf" points="0,-78.5 0,-97.5 79,-97.5 79,-78.5 0,-78.5"/>
<text text-anchor="middle" x="39.5" y="-85.5" font-family="Helvetica,sans-Serif" font-size="10.00">HD_ITEMW *</text>
</a>
</g>
</g>
<!-- Node2&#45;&gt;Node1 -->
<g id="edge1" class="edge">
<title>Node2&#45;&gt;Node1</title>
<path fill="none" stroke="#9a32cd" stroke-dasharray="5,2" d="M54.57,-70.8C63.99,-60.96 76.57,-48.35 88.5,-38 96.05,-31.45 105.05,-24.7 112.17,-19.59"/>
<polygon fill="#9a32cd" stroke="#9a32cd" points="51.8,-68.63 47.48,-78.3 56.89,-73.44 51.8,-68.63"/>
<text text-anchor="middle" x="104.5" y="-46.5" font-family="Helvetica,sans-Serif" font-size="10.00"> pitem</text>
</g>
<!-- Node3 -->
<g id="node3" class="node">
<title>Node3</title>
<g id="a_node3"><a xlink:title=" ">
<polygon fill="none" stroke="#bfbfbf" points="97,-78.5 97,-97.5 152,-97.5 152,-78.5 97,-78.5"/>
<text text-anchor="middle" x="124.5" y="-85.5" font-family="Helvetica,sans-Serif" font-size="10.00">NMHDR</text>
</a>
</g>
</g>
<!-- Node3&#45;&gt;Node1 -->
<g id="edge2" class="edge">
<title>Node3&#45;&gt;Node1</title>
<path fill="none" stroke="#9a32cd" stroke-dasharray="5,2" d="M124.5,-68.22C124.5,-52.7 124.5,-31.36 124.5,-19.62"/>
<polygon fill="#9a32cd" stroke="#9a32cd" points="121,-68.28 124.5,-78.28 128,-68.28 121,-68.28"/>
<text text-anchor="middle" x="134" y="-46.5" font-family="Helvetica,sans-Serif" font-size="10.00"> hdr</text>
</g>
<!-- Node4 -->
<g id="node4" class="node">
<title>Node4</title>
<g id="a_node4"><a xlink:title=" ">
<polygon fill="none" stroke="#bfbfbf" points="170,-78.5 170,-97.5 199,-97.5 199,-78.5 170,-78.5"/>
<text text-anchor="middle" x="184.5" y="-85.5" font-family="Helvetica,sans-Serif" font-size="10.00">int</text>
</a>
</g>
</g>
<!-- Node4&#45;&gt;Node1 -->
<g id="edge3" class="edge">
<title>Node4&#45;&gt;Node1</title>
<path fill="none" stroke="#9a32cd" stroke-dasharray="5,2" d="M172.03,-69.98C164.97,-60.47 155.89,-48.46 147.5,-38 142.57,-31.85 136.82,-25.1 132.3,-19.89"/>
<polygon fill="#9a32cd" stroke="#9a32cd" points="169.35,-72.24 178.1,-78.21 174.98,-68.08 169.35,-72.24"/>
<text text-anchor="middle" x="181.5" y="-52" font-family="Helvetica,sans-Serif" font-size="10.00"> iItem</text>
<text text-anchor="middle" x="181.5" y="-41" font-family="Helvetica,sans-Serif" font-size="10.00">iButton</text>
</g>
</g>
</svg>
