<?xml version="1.0" encoding="UTF-8" standalone="no"?>
<!DOCTYPE svg PUBLIC "-//W3C//DTD SVG 1.1//EN"
 "http://www.w3.org/Graphics/SVG/1.1/DTD/svg11.dtd">
<!-- Generated by graphviz version 2.43.0 (0)
 -->
<!-- Title: Source/Engine/SDL12/include/SDL_loadso.h Pages: 1 -->
<svg width="767pt" height="240pt"
 viewBox="0.00 0.00 767.00 240.00" xmlns="http://www.w3.org/2000/svg" xmlns:xlink="http://www.w3.org/1999/xlink">
<g id="graph0" class="graph" transform="scale(1 1) rotate(0) translate(4 236)">
<title>Source/Engine/SDL12/include/SDL_loadso.h</title>
<!-- Node1 -->
<g id="node1" class="node">
<title>Node1</title>
<g id="a_node1"><a xlink:title=" ">
<polygon fill="#bfbfbf" stroke="black" points="134.5,-201.5 134.5,-231.5 257.5,-231.5 257.5,-201.5 134.5,-201.5"/>
<text text-anchor="start" x="142.5" y="-219.5" font-family="Helvetica,sans-Serif" font-size="10.00">Source/Engine/SDL12</text>
<text text-anchor="middle" x="196" y="-208.5" font-family="Helvetica,sans-Serif" font-size="10.00">/include/SDL_loadso.h</text>
</a>
</g>
</g>
<!-- Node2 -->
<g id="node2" class="node">
<title>Node2</title>
<g id="a_node2"><a xlink:href="../../d6/d3c/sys__loadlib_8h.html" target="_top" xlink:title=" ">
<polygon fill="none" stroke="black" points="43.5,-67.5 43.5,-97.5 168.5,-97.5 168.5,-67.5 43.5,-67.5"/>
<text text-anchor="start" x="51.5" y="-85.5" font-family="Helvetica,sans-Serif" font-size="10.00">Source/Engine/sys/sys</text>
<text text-anchor="middle" x="106" y="-74.5" font-family="Helvetica,sans-Serif" font-size="10.00">_loadlib.h</text>
</a>
</g>
</g>
<!-- Node1&#45;&gt;Node2 -->
<g id="edge1" class="edge">
<title>Node1&#45;&gt;Node2</title>
<path fill="none" stroke="midnightblue" d="M180.55,-192.83C161.89,-165.47 131.08,-120.28 115.56,-97.52"/>
<polygon fill="midnightblue" stroke="midnightblue" points="177.84,-195.08 186.37,-201.37 183.63,-191.14 177.84,-195.08"/>
</g>
<!-- Node5 -->
<g id="node5" class="node">
<title>Node5</title>
<g id="a_node5"><a xlink:href="../../d4/db9/SDL_8h.html" target="_top" xlink:title=" ">
<polygon fill="none" stroke="black" points="225.5,-134.5 225.5,-164.5 344.5,-164.5 344.5,-134.5 225.5,-134.5"/>
<text text-anchor="start" x="233.5" y="-152.5" font-family="Helvetica,sans-Serif" font-size="10.00">Source/Engine/SDL12</text>
<text text-anchor="middle" x="285" y="-141.5" font-family="Helvetica,sans-Serif" font-size="10.00">/include/SDL.h</text>
</a>
</g>
</g>
<!-- Node1&#45;&gt;Node5 -->
<g id="edge4" class="edge">
<title>Node1&#45;&gt;Node5</title>
<path fill="none" stroke="midnightblue" d="M223.45,-195.45C237.14,-185.45 253.37,-173.6 265.73,-164.58"/>
<polygon fill="midnightblue" stroke="midnightblue" points="221.32,-192.67 215.31,-201.4 225.45,-198.32 221.32,-192.67"/>
</g>
<!-- Node3 -->
<g id="node3" class="node">
<title>Node3</title>
<g id="a_node3"><a xlink:href="../../d3/d38/cl__main_8c.html" target="_top" xlink:title=" ">
<polygon fill="none" stroke="black" points="0,-0.5 0,-30.5 116,-30.5 116,-0.5 0,-0.5"/>
<text text-anchor="start" x="8" y="-18.5" font-family="Helvetica,sans-Serif" font-size="10.00">Source/Engine/client</text>
<text text-anchor="middle" x="58" y="-7.5" font-family="Helvetica,sans-Serif" font-size="10.00">/cl_main.c</text>
</a>
</g>
</g>
<!-- Node2&#45;&gt;Node3 -->
<g id="edge2" class="edge">
<title>Node2&#45;&gt;Node3</title>
<path fill="none" stroke="midnightblue" d="M89.5,-59.16C82.5,-49.68 74.56,-38.92 68.39,-30.58"/>
<polygon fill="midnightblue" stroke="midnightblue" points="86.83,-61.43 95.58,-67.4 92.46,-57.27 86.83,-61.43"/>
</g>
<!-- Node4 -->
<g id="node4" class="node">
<title>Node4</title>
<g id="a_node4"><a xlink:href="../../d5/dd6/sys__main_8c.html" target="_top" xlink:title=" ">
<polygon fill="none" stroke="black" points="134.5,-0.5 134.5,-30.5 259.5,-30.5 259.5,-0.5 134.5,-0.5"/>
<text text-anchor="start" x="142.5" y="-18.5" font-family="Helvetica,sans-Serif" font-size="10.00">Source/Engine/sys/sys</text>
<text text-anchor="middle" x="197" y="-7.5" font-family="Helvetica,sans-Serif" font-size="10.00">_main.c</text>
</a>
</g>
</g>
<!-- Node2&#45;&gt;Node4 -->
<g id="edge3" class="edge">
<title>Node2&#45;&gt;Node4</title>
<path fill="none" stroke="midnightblue" d="M134.07,-61.45C148.07,-51.45 164.66,-39.6 177.29,-30.58"/>
<polygon fill="midnightblue" stroke="midnightblue" points="131.85,-58.74 125.75,-67.4 135.92,-64.43 131.85,-58.74"/>
</g>
<!-- Node5&#45;&gt;Node2 -->
<g id="edge5" class="edge">
<title>Node5&#45;&gt;Node2</title>
<path fill="none" stroke="midnightblue" d="M236.68,-130.96C207.85,-120.48 171.72,-107.37 144.76,-97.58"/>
<polygon fill="midnightblue" stroke="midnightblue" points="235.57,-134.27 246.16,-134.4 237.95,-127.69 235.57,-134.27"/>
</g>
<!-- Node5&#45;&gt;Node4 -->
<g id="edge10" class="edge">
<title>Node5&#45;&gt;Node4</title>
<path fill="none" stroke="midnightblue" d="M248.4,-128.84C236.45,-120.75 224.17,-110.36 216,-98 202.3,-77.27 198.43,-47.87 197.36,-30.63"/>
<polygon fill="midnightblue" stroke="midnightblue" points="246.67,-131.89 256.98,-134.32 250.43,-125.99 246.67,-131.89"/>
</g>
<!-- Node6 -->
<g id="node6" class="node">
<title>Node6</title>
<g id="a_node6"><a xlink:href="../../d7/dbb/sdl__gamma_8c.html" target="_top" xlink:title=" ">
<polygon fill="none" stroke="black" points="225,-67.5 225,-97.5 345,-97.5 345,-67.5 225,-67.5"/>
<text text-anchor="start" x="233" y="-85.5" font-family="Helvetica,sans-Serif" font-size="10.00">Source/Engine/sdl/sdl</text>
<text text-anchor="middle" x="285" y="-74.5" font-family="Helvetica,sans-Serif" font-size="10.00">_gamma.c</text>
</a>
</g>
</g>
<!-- Node5&#45;&gt;Node6 -->
<g id="edge6" class="edge">
<title>Node5&#45;&gt;Node6</title>
<path fill="none" stroke="midnightblue" d="M285,-124.11C285,-115.15 285,-105.32 285,-97.58"/>
<polygon fill="midnightblue" stroke="midnightblue" points="281.5,-124.4 285,-134.4 288.5,-124.4 281.5,-124.4"/>
</g>
<!-- Node7 -->
<g id="node7" class="node">
<title>Node7</title>
<g id="a_node7"><a xlink:href="../../d6/d3e/sdl__glimp_8c.html" target="_top" xlink:title=" ">
<polygon fill="none" stroke="black" points="363,-67.5 363,-97.5 483,-97.5 483,-67.5 363,-67.5"/>
<text text-anchor="start" x="371" y="-85.5" font-family="Helvetica,sans-Serif" font-size="10.00">Source/Engine/sdl/sdl</text>
<text text-anchor="middle" x="423" y="-74.5" font-family="Helvetica,sans-Serif" font-size="10.00">_glimp.c</text>
</a>
</g>
</g>
<!-- Node5&#45;&gt;Node7 -->
<g id="edge7" class="edge">
<title>Node5&#45;&gt;Node7</title>
<path fill="none" stroke="midnightblue" d="M324,-130.13C345.93,-119.8 372.87,-107.11 393.11,-97.58"/>
<polygon fill="midnightblue" stroke="midnightblue" points="322.5,-126.97 314.94,-134.4 325.48,-133.3 322.5,-126.97"/>
</g>
<!-- Node8 -->
<g id="node8" class="node">
<title>Node8</title>
<g id="a_node8"><a xlink:href="../../d7/d16/sdl__input_8c.html" target="_top" xlink:title=" ">
<polygon fill="none" stroke="black" points="501,-67.5 501,-97.5 621,-97.5 621,-67.5 501,-67.5"/>
<text text-anchor="start" x="509" y="-85.5" font-family="Helvetica,sans-Serif" font-size="10.00">Source/Engine/sdl/sdl</text>
<text text-anchor="middle" x="561" y="-74.5" font-family="Helvetica,sans-Serif" font-size="10.00">_input.c</text>
</a>
</g>
</g>
<!-- Node5&#45;&gt;Node8 -->
<g id="edge8" class="edge">
<title>Node5&#45;&gt;Node8</title>
<path fill="none" stroke="midnightblue" d="M354.56,-132.12C399.72,-121.48 457.98,-107.76 501.08,-97.61"/>
<polygon fill="midnightblue" stroke="midnightblue" points="353.48,-128.78 344.55,-134.48 355.08,-135.59 353.48,-128.78"/>
</g>
<!-- Node9 -->
<g id="node9" class="node">
<title>Node9</title>
<g id="a_node9"><a xlink:href="../../d0/d47/sdl__snd_8c.html" target="_top" xlink:title=" ">
<polygon fill="none" stroke="black" points="639,-67.5 639,-97.5 759,-97.5 759,-67.5 639,-67.5"/>
<text text-anchor="start" x="647" y="-85.5" font-family="Helvetica,sans-Serif" font-size="10.00">Source/Engine/sdl/sdl</text>
<text text-anchor="middle" x="699" y="-74.5" font-family="Helvetica,sans-Serif" font-size="10.00">_snd.c</text>
</a>
</g>
</g>
<!-- Node5&#45;&gt;Node9 -->
<g id="edge9" class="edge">
<title>Node5&#45;&gt;Node9</title>
<path fill="none" stroke="midnightblue" d="M354.71,-139.58C424.54,-130.35 535,-114.92 630,-98 632.89,-97.48 635.85,-96.94 638.83,-96.37"/>
<polygon fill="midnightblue" stroke="midnightblue" points="354.16,-136.12 344.7,-140.9 355.08,-143.06 354.16,-136.12"/>
</g>
</g>
</svg>
