<?xml version="1.0" encoding="UTF-8" standalone="no"?>
<!DOCTYPE svg PUBLIC "-//W3C//DTD SVG 1.1//EN"
 "http://www.w3.org/Graphics/SVG/1.1/DTD/svg11.dtd">
<!-- Generated by graphviz version 2.43.0 (0)
 -->
<!-- Title: SBEncState Pages: 1 -->
<svg width="843pt" height="362pt"
 viewBox="0.00 0.00 843.00 362.00" xmlns="http://www.w3.org/2000/svg" xmlns:xlink="http://www.w3.org/1999/xlink">
<g id="graph0" class="graph" transform="scale(1 1) rotate(0) translate(4 358)">
<title>SBEncState</title>
<!-- Node1 -->
<g id="node1" class="node">
<title>Node1</title>
<g id="a_node1"><a xlink:title="Structure representing the full state of the sub&#45;band encoder.">
<polygon fill="#bfbfbf" stroke="black" points="423,-0.5 423,-19.5 495,-19.5 495,-0.5 423,-0.5"/>
<text text-anchor="middle" x="459" y="-7.5" font-family="Helvetica,sans-Serif" font-size="10.00">SBEncState</text>
</a>
</g>
</g>
<!-- Node2 -->
<g id="node2" class="node">
<title>Node2</title>
<g id="a_node2"><a xlink:title=" ">
<polygon fill="none" stroke="#bfbfbf" points="0,-334.5 0,-353.5 38,-353.5 38,-334.5 0,-334.5"/>
<text text-anchor="middle" x="19" y="-341.5" font-family="Helvetica,sans-Serif" font-size="10.00">char</text>
</a>
</g>
</g>
<!-- Node2&#45;&gt;Node1 -->
<g id="edge1" class="edge">
<title>Node2&#45;&gt;Node1</title>
<path fill="none" stroke="#9a32cd" stroke-dasharray="5,2" d="M16.86,-324.27C15.06,-303.12 13.91,-267.91 22,-239 41.15,-170.57 50.57,-150.06 101,-100 141.1,-60.19 158.17,-55.19 212,-38 284.32,-14.9 373.95,-10.8 422.9,-10.5"/>
<polygon fill="#9a32cd" stroke="#9a32cd" points="13.4,-324.83 17.88,-334.43 20.37,-324.14 13.4,-324.83"/>
<text text-anchor="middle" x="116" y="-158" font-family="Helvetica,sans-Serif" font-size="10.00"> stack</text>
</g>
<!-- Node8 -->
<g id="node8" class="node">
<title>Node8</title>
<g id="a_node8"><a xlink:href="../../da/dcd/structSpeexMode.html" target="_top" xlink:title="Struct defining a Speex mode.">
<polygon fill="none" stroke="black" points="237,-151 237,-170 311,-170 311,-151 237,-151"/>
<text text-anchor="middle" x="274" y="-158" font-family="Helvetica,sans-Serif" font-size="10.00">SpeexMode</text>
</a>
</g>
</g>
<!-- Node2&#45;&gt;Node8 -->
<g id="edge11" class="edge">
<title>Node2&#45;&gt;Node8</title>
<path fill="none" stroke="#9a32cd" stroke-dasharray="5,2" d="M22.85,-324.65C28.78,-301.11 42.47,-260.72 70,-239 98.61,-216.42 115.57,-232.96 150,-221 190.83,-206.82 235.91,-182.95 258.82,-170.18"/>
<polygon fill="#9a32cd" stroke="#9a32cd" points="19.43,-323.9 20.59,-334.43 26.25,-325.47 19.43,-323.9"/>
<text text-anchor="middle" x="100.5" y="-275" font-family="Helvetica,sans-Serif" font-size="10.00"> modeName</text>
</g>
<!-- Node3 -->
<g id="node3" class="node">
<title>Node3</title>
<g id="a_node3"><a xlink:href="../../d4/dc3/classfloat.html" target="_top" xlink:title=" ">
<polygon fill="none" stroke="black" points="631,-334.5 631,-353.5 669,-353.5 669,-334.5 631,-334.5"/>
<text text-anchor="middle" x="650" y="-341.5" font-family="Helvetica,sans-Serif" font-size="10.00">float</text>
</a>
</g>
</g>
<!-- Node3&#45;&gt;Node1 -->
<g id="edge2" class="edge">
<title>Node3&#45;&gt;Node1</title>
<path fill="none" stroke="#9a32cd" stroke-dasharray="5,2" d="M667.14,-326.42C669.54,-323.21 671.64,-319.68 673,-316 687.05,-277.85 667.51,-109.83 661,-100 623.87,-43.92 542.72,-22.9 495.35,-15.23"/>
<polygon fill="#9a32cd" stroke="#9a32cd" points="664.36,-324.28 660.42,-334.11 669.63,-328.88 664.36,-324.28"/>
<text text-anchor="middle" x="716" y="-213" font-family="Helvetica,sans-Serif" font-size="10.00"> vbr_quality</text>
<text text-anchor="middle" x="716" y="-202" font-family="Helvetica,sans-Serif" font-size="10.00">h0_mem</text>
<text text-anchor="middle" x="716" y="-191" font-family="Helvetica,sans-Serif" font-size="10.00">abr_count</text>
<text text-anchor="middle" x="716" y="-180" font-family="Helvetica,sans-Serif" font-size="10.00">window</text>
<text text-anchor="middle" x="716" y="-169" font-family="Helvetica,sans-Serif" font-size="10.00">h1_mem</text>
<text text-anchor="middle" x="716" y="-158" font-family="Helvetica,sans-Serif" font-size="10.00">high</text>
<text text-anchor="middle" x="716" y="-147" font-family="Helvetica,sans-Serif" font-size="10.00">lpc_floor</text>
<text text-anchor="middle" x="716" y="-136" font-family="Helvetica,sans-Serif" font-size="10.00">abr_drift2</text>
<text text-anchor="middle" x="716" y="-125" font-family="Helvetica,sans-Serif" font-size="10.00">abr_drift</text>
<text text-anchor="middle" x="716" y="-114" font-family="Helvetica,sans-Serif" font-size="10.00">innov_rms_save</text>
<text text-anchor="middle" x="716" y="-103" font-family="Helvetica,sans-Serif" font-size="10.00">...</text>
</g>
<!-- Node7 -->
<g id="node7" class="node">
<title>Node7</title>
<g id="a_node7"><a xlink:href="../../da/d07/structSpeexSubmode.html" target="_top" xlink:title="Description of a Speex sub&#45;mode (wither narrowband or wideband.">
<polygon fill="none" stroke="black" points="413,-151 413,-170 505,-170 505,-151 413,-151"/>
<text text-anchor="middle" x="459" y="-158" font-family="Helvetica,sans-Serif" font-size="10.00">SpeexSubmode</text>
</a>
</g>
</g>
<!-- Node3&#45;&gt;Node7 -->
<g id="edge7" class="edge">
<title>Node3&#45;&gt;Node7</title>
<path fill="none" stroke="#9a32cd" stroke-dasharray="5,2" d="M629.19,-328.23C624.6,-324.5 619.93,-320.32 616,-316 588.55,-285.81 594.11,-268.58 566,-239 537.56,-209.07 496.21,-182.92 474.17,-170.02"/>
<polygon fill="#9a32cd" stroke="#9a32cd" points="627.15,-331.08 637.22,-334.38 631.41,-325.52 627.15,-331.08"/>
<text text-anchor="middle" x="644.5" y="-275" font-family="Helvetica,sans-Serif" font-size="10.00"> comb_gain</text>
</g>
<!-- Node4 -->
<g id="node4" class="node">
<title>Node4</title>
<g id="a_node4"><a xlink:title=" ">
<polygon fill="none" stroke="#bfbfbf" points="125,-334.5 125,-353.5 163,-353.5 163,-334.5 125,-334.5"/>
<text text-anchor="middle" x="144" y="-341.5" font-family="Helvetica,sans-Serif" font-size="10.00">void</text>
</a>
</g>
</g>
<!-- Node4&#45;&gt;Node1 -->
<g id="edge3" class="edge">
<title>Node4&#45;&gt;Node1</title>
<path fill="none" stroke="#9a32cd" stroke-dasharray="5,2" d="M134.15,-325.4C132.85,-322.35 131.72,-319.14 131,-316 123.39,-282.64 123.87,-272.47 131,-239 145.09,-172.84 143.36,-145.95 193,-100 258.58,-39.3 366.81,-19.89 422.86,-13.77"/>
<polygon fill="#9a32cd" stroke="#9a32cd" points="131.03,-326.97 138.61,-334.37 137.29,-323.86 131.03,-326.97"/>
<text text-anchor="middle" x="210.5" y="-158" font-family="Helvetica,sans-Serif" font-size="10.00"> st_low</text>
</g>
<!-- Node4&#45;&gt;Node7 -->
<g id="edge8" class="edge">
<title>Node4&#45;&gt;Node7</title>
<path fill="none" stroke="#9a32cd" stroke-dasharray="5,2" d="M172.96,-336.18C184.44,-332.1 196.83,-325.74 205,-316 227.65,-289 198.38,-263.21 224,-239 255.55,-209.18 278.46,-233.62 320,-221 365.71,-207.11 416.68,-182.9 442.33,-170.06"/>
<polygon fill="#9a32cd" stroke="#9a32cd" points="171.74,-332.89 163.23,-339.2 173.82,-339.57 171.74,-332.89"/>
<text text-anchor="middle" x="272.5" y="-308" font-family="Helvetica,sans-Serif" font-size="10.00"> ltp_params</text>
<text text-anchor="middle" x="272.5" y="-297" font-family="Helvetica,sans-Serif" font-size="10.00">lsp_unquant</text>
<text text-anchor="middle" x="272.5" y="-286" font-family="Helvetica,sans-Serif" font-size="10.00">ltp_unquant</text>
<text text-anchor="middle" x="272.5" y="-275" font-family="Helvetica,sans-Serif" font-size="10.00">lsp_quant</text>
<text text-anchor="middle" x="272.5" y="-264" font-family="Helvetica,sans-Serif" font-size="10.00">innovation_params</text>
<text text-anchor="middle" x="272.5" y="-253" font-family="Helvetica,sans-Serif" font-size="10.00">innovation_unquant</text>
<text text-anchor="middle" x="272.5" y="-242" font-family="Helvetica,sans-Serif" font-size="10.00">innovation_quant</text>
</g>
<!-- Node4&#45;&gt;Node8 -->
<g id="edge12" class="edge">
<title>Node4&#45;&gt;Node8</title>
<path fill="none" stroke="#9a32cd" stroke-dasharray="5,2" d="M139.06,-324.49C134.29,-302.53 129.8,-265.56 145,-239 166.21,-201.92 212.95,-180.59 243.95,-170.02"/>
<polygon fill="#9a32cd" stroke="#9a32cd" points="135.72,-325.57 141.47,-334.47 142.52,-323.92 135.72,-325.57"/>
<text text-anchor="middle" x="175" y="-297" font-family="Helvetica,sans-Serif" font-size="10.00"> mode</text>
<text text-anchor="middle" x="175" y="-286" font-family="Helvetica,sans-Serif" font-size="10.00">dec_init</text>
<text text-anchor="middle" x="175" y="-275" font-family="Helvetica,sans-Serif" font-size="10.00">dec_destroy</text>
<text text-anchor="middle" x="175" y="-264" font-family="Helvetica,sans-Serif" font-size="10.00">enc_init</text>
<text text-anchor="middle" x="175" y="-253" font-family="Helvetica,sans-Serif" font-size="10.00">enc_destroy</text>
</g>
<!-- Node5 -->
<g id="node5" class="node">
<title>Node5</title>
<g id="a_node5"><a xlink:title=" ">
<polygon fill="none" stroke="#bfbfbf" points="785,-151 785,-170 835,-170 835,-151 785,-151"/>
<text text-anchor="middle" x="810" y="-158" font-family="Helvetica,sans-Serif" font-size="10.00">int32_t</text>
</a>
</g>
</g>
<!-- Node5&#45;&gt;Node1 -->
<g id="edge4" class="edge">
<title>Node5&#45;&gt;Node1</title>
<path fill="none" stroke="#9a32cd" stroke-dasharray="5,2" d="M800.62,-141.67C784.6,-113.4 748.98,-59.31 701,-38 665.07,-22.04 553.6,-15.02 495.33,-12.37"/>
<polygon fill="#9a32cd" stroke="#9a32cd" points="797.75,-143.72 805.62,-150.81 803.89,-140.36 797.75,-143.72"/>
<text text-anchor="middle" x="791" y="-74" font-family="Helvetica,sans-Serif" font-size="10.00"> vbr_max</text>
<text text-anchor="middle" x="791" y="-63" font-family="Helvetica,sans-Serif" font-size="10.00">vbr_max_high</text>
<text text-anchor="middle" x="791" y="-52" font-family="Helvetica,sans-Serif" font-size="10.00">sampling_rate</text>
<text text-anchor="middle" x="791" y="-41" font-family="Helvetica,sans-Serif" font-size="10.00">abr_enabled</text>
</g>
<!-- Node6 -->
<g id="node6" class="node">
<title>Node6</title>
<g id="a_node6"><a xlink:title=" ">
<polygon fill="none" stroke="#bfbfbf" points="444.5,-334.5 444.5,-353.5 473.5,-353.5 473.5,-334.5 444.5,-334.5"/>
<text text-anchor="middle" x="459" y="-341.5" font-family="Helvetica,sans-Serif" font-size="10.00">int</text>
</a>
</g>
</g>
<!-- Node6&#45;&gt;Node1 -->
<g id="edge5" class="edge">
<title>Node6&#45;&gt;Node1</title>
<path fill="none" stroke="#9a32cd" stroke-dasharray="5,2" d="M483.72,-340.06C511.31,-336.21 553.38,-328.44 563,-316 607.92,-257.93 568.33,-101.46 517,-38 510.23,-29.62 500.26,-23.72 490.49,-19.61"/>
<polygon fill="#9a32cd" stroke="#9a32cd" points="483.06,-336.61 473.6,-341.39 483.97,-343.55 483.06,-336.61"/>
<text text-anchor="middle" x="619" y="-213" font-family="Helvetica,sans-Serif" font-size="10.00"> vbr_enabled</text>
<text text-anchor="middle" x="619" y="-202" font-family="Helvetica,sans-Serif" font-size="10.00">vad_enabled</text>
<text text-anchor="middle" x="619" y="-191" font-family="Helvetica,sans-Serif" font-size="10.00">subframeSize</text>
<text text-anchor="middle" x="619" y="-180" font-family="Helvetica,sans-Serif" font-size="10.00">submodeSelect</text>
<text text-anchor="middle" x="619" y="-169" font-family="Helvetica,sans-Serif" font-size="10.00">full_frame_size</text>
<text text-anchor="middle" x="619" y="-158" font-family="Helvetica,sans-Serif" font-size="10.00">complexity</text>
<text text-anchor="middle" x="619" y="-147" font-family="Helvetica,sans-Serif" font-size="10.00">first</text>
<text text-anchor="middle" x="619" y="-136" font-family="Helvetica,sans-Serif" font-size="10.00">windowSize</text>
<text text-anchor="middle" x="619" y="-125" font-family="Helvetica,sans-Serif" font-size="10.00">frame_size</text>
<text text-anchor="middle" x="619" y="-114" font-family="Helvetica,sans-Serif" font-size="10.00">lpcSize</text>
<text text-anchor="middle" x="619" y="-103" font-family="Helvetica,sans-Serif" font-size="10.00">...</text>
</g>
<!-- Node6&#45;&gt;Node7 -->
<g id="edge9" class="edge">
<title>Node6&#45;&gt;Node7</title>
<path fill="none" stroke="#9a32cd" stroke-dasharray="5,2" d="M459,-323.82C459,-284.88 459,-197.89 459,-170.17"/>
<polygon fill="#9a32cd" stroke="#9a32cd" points="455.5,-324.25 459,-334.25 462.5,-324.25 455.5,-324.25"/>
<text text-anchor="middle" x="510.5" y="-302.5" font-family="Helvetica,sans-Serif" font-size="10.00"> lbr_pitch</text>
<text text-anchor="middle" x="510.5" y="-291.5" font-family="Helvetica,sans-Serif" font-size="10.00">bits_per_frame</text>
<text text-anchor="middle" x="510.5" y="-280.5" font-family="Helvetica,sans-Serif" font-size="10.00">ltp_quant</text>
<text text-anchor="middle" x="510.5" y="-269.5" font-family="Helvetica,sans-Serif" font-size="10.00">forced_pitch_gain</text>
<text text-anchor="middle" x="510.5" y="-258.5" font-family="Helvetica,sans-Serif" font-size="10.00">double_codebook</text>
<text text-anchor="middle" x="510.5" y="-247.5" font-family="Helvetica,sans-Serif" font-size="10.00">have_subframe_gain</text>
</g>
<!-- Node6&#45;&gt;Node8 -->
<g id="edge13" class="edge">
<title>Node6&#45;&gt;Node8</title>
<path fill="none" stroke="#9a32cd" stroke-dasharray="5,2" d="M434.45,-341.12C414.15,-338.44 385.58,-331.9 366,-316 335.9,-291.56 344.79,-272.34 325,-239 309.87,-213.51 290.14,-184.63 280.24,-170.39"/>
<polygon fill="#9a32cd" stroke="#9a32cd" points="434.17,-344.61 444.5,-342.23 434.94,-337.66 434.17,-344.61"/>
<text text-anchor="middle" x="410.5" y="-308" font-family="Helvetica,sans-Serif" font-size="10.00"> query</text>
<text text-anchor="middle" x="410.5" y="-297" font-family="Helvetica,sans-Serif" font-size="10.00">enc_ctl</text>
<text text-anchor="middle" x="410.5" y="-286" font-family="Helvetica,sans-Serif" font-size="10.00">enc</text>
<text text-anchor="middle" x="410.5" y="-275" font-family="Helvetica,sans-Serif" font-size="10.00">bitstream_version</text>
<text text-anchor="middle" x="410.5" y="-264" font-family="Helvetica,sans-Serif" font-size="10.00">dec_ctl</text>
<text text-anchor="middle" x="410.5" y="-253" font-family="Helvetica,sans-Serif" font-size="10.00">dec</text>
<text text-anchor="middle" x="410.5" y="-242" font-family="Helvetica,sans-Serif" font-size="10.00">modeID</text>
</g>
<!-- Node7&#45;&gt;Node1 -->
<g id="edge6" class="edge">
<title>Node7&#45;&gt;Node1</title>
<path fill="none" stroke="#9a32cd" stroke-dasharray="5,2" d="M459,-140.24C459,-107.66 459,-42.92 459,-19.61"/>
<polygon fill="#9a32cd" stroke="#9a32cd" points="455.5,-140.66 459,-150.66 462.5,-140.66 455.5,-140.66"/>
<text text-anchor="middle" x="486" y="-57.5" font-family="Helvetica,sans-Serif" font-size="10.00"> submodes</text>
</g>
<!-- Node8&#45;&gt;Node1 -->
<g id="edge10" class="edge">
<title>Node8&#45;&gt;Node1</title>
<path fill="none" stroke="#9a32cd" stroke-dasharray="5,2" d="M292.29,-144.45C320.43,-121.36 376.11,-75.86 424,-38 431.83,-31.81 440.73,-24.95 447.6,-19.69"/>
<polygon fill="#9a32cd" stroke="#9a32cd" points="289.98,-141.82 284.48,-150.87 294.43,-147.23 289.98,-141.82"/>
<text text-anchor="middle" x="439.5" y="-57.5" font-family="Helvetica,sans-Serif" font-size="10.00"> mode</text>
</g>
</g>
</svg>
