<?xml version="1.0" encoding="UTF-8" standalone="no"?>
<!DOCTYPE svg PUBLIC "-//W3C//DTD SVG 1.1//EN"
 "http://www.w3.org/Graphics/SVG/1.1/DTD/svg11.dtd">
<!-- Generated by graphviz version 2.43.0 (0)
 -->
<!-- Title: Source/Game/CGame/cg_weapGfxParser.h Pages: 1 -->
<svg width="449pt" height="106pt"
 viewBox="0.00 0.00 449.00 106.00" xmlns="http://www.w3.org/2000/svg" xmlns:xlink="http://www.w3.org/1999/xlink">
<g id="graph0" class="graph" transform="scale(1 1) rotate(0) translate(4 102)">
<title>Source/Game/CGame/cg_weapGfxParser.h</title>
<!-- Node1 -->
<g id="node1" class="node">
<title>Node1</title>
<g id="a_node1"><a xlink:title=" ">
<polygon fill="#bfbfbf" stroke="black" points="153,-67.5 153,-97.5 288,-97.5 288,-67.5 153,-67.5"/>
<text text-anchor="start" x="161" y="-85.5" font-family="Helvetica,sans-Serif" font-size="10.00">Source/Game/CGame/cg</text>
<text text-anchor="middle" x="220.5" y="-74.5" font-family="Helvetica,sans-Serif" font-size="10.00">_weapGfxParser.h</text>
</a>
</g>
</g>
<!-- Node2 -->
<g id="node2" class="node">
<title>Node2</title>
<g id="a_node2"><a xlink:href="../../d1/dc9/cg__weapGfxAttributes_8c.html" target="_top" xlink:title=" ">
<polygon fill="none" stroke="black" points="0,-0.5 0,-30.5 135,-30.5 135,-0.5 0,-0.5"/>
<text text-anchor="start" x="8" y="-18.5" font-family="Helvetica,sans-Serif" font-size="10.00">Source/Game/CGame/cg</text>
<text text-anchor="middle" x="67.5" y="-7.5" font-family="Helvetica,sans-Serif" font-size="10.00">_weapGfxAttributes.c</text>
</a>
</g>
</g>
<!-- Node1&#45;&gt;Node2 -->
<g id="edge1" class="edge">
<title>Node1&#45;&gt;Node2</title>
<path fill="none" stroke="midnightblue" d="M177.91,-63.41C153.48,-53.03 123.28,-40.2 100.63,-30.58"/>
<polygon fill="midnightblue" stroke="midnightblue" points="176.73,-66.71 187.3,-67.4 179.47,-60.26 176.73,-66.71"/>
</g>
<!-- Node3 -->
<g id="node3" class="node">
<title>Node3</title>
<g id="a_node3"><a xlink:href="../../de/d46/cg__weapGfxParser_8c.html" target="_top" xlink:title=" ">
<polygon fill="none" stroke="black" points="153,-0.5 153,-30.5 288,-30.5 288,-0.5 153,-0.5"/>
<text text-anchor="start" x="161" y="-18.5" font-family="Helvetica,sans-Serif" font-size="10.00">Source/Game/CGame/cg</text>
<text text-anchor="middle" x="220.5" y="-7.5" font-family="Helvetica,sans-Serif" font-size="10.00">_weapGfxParser.c</text>
</a>
</g>
</g>
<!-- Node1&#45;&gt;Node3 -->
<g id="edge2" class="edge">
<title>Node1&#45;&gt;Node3</title>
<path fill="none" stroke="midnightblue" d="M220.5,-57.11C220.5,-48.15 220.5,-38.32 220.5,-30.58"/>
<polygon fill="midnightblue" stroke="midnightblue" points="217,-57.4 220.5,-67.4 224,-57.4 217,-57.4"/>
</g>
<!-- Node4 -->
<g id="node4" class="node">
<title>Node4</title>
<g id="a_node4"><a xlink:href="../../d5/d80/cg__weapGfxScanner_8c.html" target="_top" xlink:title=" ">
<polygon fill="none" stroke="black" points="306,-0.5 306,-30.5 441,-30.5 441,-0.5 306,-0.5"/>
<text text-anchor="start" x="314" y="-18.5" font-family="Helvetica,sans-Serif" font-size="10.00">Source/Game/CGame/cg</text>
<text text-anchor="middle" x="373.5" y="-7.5" font-family="Helvetica,sans-Serif" font-size="10.00">_weapGfxScanner.c</text>
</a>
</g>
</g>
<!-- Node1&#45;&gt;Node4 -->
<g id="edge3" class="edge">
<title>Node1&#45;&gt;Node4</title>
<path fill="none" stroke="midnightblue" d="M263.09,-63.41C287.52,-53.03 317.72,-40.2 340.37,-30.58"/>
<polygon fill="midnightblue" stroke="midnightblue" points="261.53,-60.26 253.7,-67.4 264.27,-66.71 261.53,-60.26"/>
</g>
</g>
</svg>
