<?xml version="1.0" encoding="UTF-8" standalone="no"?>
<!DOCTYPE svg PUBLIC "-//W3C//DTD SVG 1.1//EN"
 "http://www.w3.org/Graphics/SVG/1.1/DTD/svg11.dtd">
<!-- Generated by graphviz version 2.43.0 (0)
 -->
<!-- Title: _CAPINFOCHUNK Pages: 1 -->
<svg width="213pt" height="95pt"
 viewBox="0.00 0.00 212.50 95.00" xmlns="http://www.w3.org/2000/svg" xmlns:xlink="http://www.w3.org/1999/xlink">
<g id="graph0" class="graph" transform="scale(1 1) rotate(0) translate(4 91)">
<title>_CAPINFOCHUNK</title>
<!-- Node1 -->
<g id="node1" class="node">
<title>Node1</title>
<g id="a_node1"><a xlink:title=" ">
<polygon fill="#bfbfbf" stroke="black" points="72,-0.5 72,-19.5 173,-19.5 173,-0.5 72,-0.5"/>
<text text-anchor="middle" x="122.5" y="-7.5" font-family="Helvetica,sans-Serif" font-size="10.00">_CAPINFOCHUNK</text>
</a>
</g>
</g>
<!-- Node2 -->
<g id="node2" class="node">
<title>Node2</title>
<g id="a_node2"><a xlink:title=" ">
<polygon fill="none" stroke="#bfbfbf" points="0,-67.5 0,-86.5 85,-86.5 85,-67.5 0,-67.5"/>
<text text-anchor="middle" x="42.5" y="-74.5" font-family="Helvetica,sans-Serif" font-size="10.00">unsigned long</text>
</a>
</g>
</g>
<!-- Node2&#45;&gt;Node1 -->
<g id="edge1" class="edge">
<title>Node2&#45;&gt;Node1</title>
<path fill="none" stroke="#9a32cd" stroke-dasharray="5,2" d="M53.43,-58.51C58.36,-51.55 64.62,-43.83 71.5,-38 80.44,-30.42 91.86,-24.13 101.63,-19.53"/>
<polygon fill="#9a32cd" stroke="#9a32cd" points="50.22,-57.02 47.6,-67.28 56.05,-60.89 50.22,-57.02"/>
<text text-anchor="middle" x="95" y="-41" font-family="Helvetica,sans-Serif" font-size="10.00"> fccInfoID</text>
</g>
<!-- Node3 -->
<g id="node3" class="node">
<title>Node3</title>
<g id="a_node3"><a xlink:title=" ">
<polygon fill="none" stroke="#bfbfbf" points="103.5,-67.5 103.5,-86.5 141.5,-86.5 141.5,-67.5 103.5,-67.5"/>
<text text-anchor="middle" x="122.5" y="-74.5" font-family="Helvetica,sans-Serif" font-size="10.00">void</text>
</a>
</g>
</g>
<!-- Node3&#45;&gt;Node1 -->
<g id="edge2" class="edge">
<title>Node3&#45;&gt;Node1</title>
<path fill="none" stroke="#9a32cd" stroke-dasharray="5,2" d="M122.5,-57.04C122.5,-44.67 122.5,-29.12 122.5,-19.63"/>
<polygon fill="#9a32cd" stroke="#9a32cd" points="119,-57.23 122.5,-67.23 126,-57.23 119,-57.23"/>
<text text-anchor="middle" x="140.5" y="-41" font-family="Helvetica,sans-Serif" font-size="10.00"> lpData</text>
</g>
<!-- Node4 -->
<g id="node4" class="node">
<title>Node4</title>
<g id="a_node4"><a xlink:title=" ">
<polygon fill="none" stroke="#bfbfbf" points="162.5,-67.5 162.5,-86.5 200.5,-86.5 200.5,-67.5 162.5,-67.5"/>
<text text-anchor="middle" x="181.5" y="-74.5" font-family="Helvetica,sans-Serif" font-size="10.00">long</text>
</a>
</g>
</g>
<!-- Node4&#45;&gt;Node1 -->
<g id="edge3" class="edge">
<title>Node4&#45;&gt;Node1</title>
<path fill="none" stroke="#9a32cd" stroke-dasharray="5,2" d="M173.27,-58.37C169.62,-51.58 164.91,-44.02 159.5,-38 153.01,-30.79 144.3,-24.32 136.97,-19.52"/>
<polygon fill="#9a32cd" stroke="#9a32cd" points="170.24,-60.12 177.84,-67.49 176.5,-56.98 170.24,-60.12"/>
<text text-anchor="middle" x="185.5" y="-41" font-family="Helvetica,sans-Serif" font-size="10.00"> cbData</text>
</g>
</g>
</svg>
