<?xml version="1.0" encoding="UTF-8" standalone="no"?>
<!DOCTYPE svg PUBLIC "-//W3C//DTD SVG 1.1//EN"
 "http://www.w3.org/Graphics/SVG/1.1/DTD/svg11.dtd">
<!-- Generated by graphviz version 2.43.0 (0)
 -->
<!-- Title: bfd_link_callbacks Pages: 1 -->
<svg width="503pt" height="1071pt"
 viewBox="0.00 0.00 503.00 1070.50" xmlns="http://www.w3.org/2000/svg" xmlns:xlink="http://www.w3.org/1999/xlink">
<g id="graph0" class="graph" transform="scale(1 1) rotate(0) translate(4 1066.5)">
<title>bfd_link_callbacks</title>
<!-- Node1 -->
<g id="node1" class="node">
<title>Node1</title>
<g id="a_node1"><a xlink:title=" ">
<polygon fill="#bfbfbf" stroke="black" points="388,-527 388,-546 495,-546 495,-527 388,-527"/>
<text text-anchor="middle" x="441.5" y="-534" font-family="Helvetica,sans-Serif" font-size="10.00">bfd_link_callbacks</text>
</a>
</g>
</g>
<!-- Node2 -->
<g id="node2" class="node">
<title>Node2</title>
<g id="a_node2"><a xlink:title=" ">
<polygon fill="none" stroke="#bfbfbf" points="33.5,-999 33.5,-1062 164.5,-1062 164.5,-999 33.5,-999"/>
<text text-anchor="start" x="41.5" y="-1050" font-family="Helvetica,sans-Serif" font-size="10.00">bfd_boolean(*)(struct</text>
<text text-anchor="start" x="41.5" y="-1039" font-family="Helvetica,sans-Serif" font-size="10.00"> bfd_link_info *, const</text>
<text text-anchor="start" x="41.5" y="-1028" font-family="Helvetica,sans-Serif" font-size="10.00"> char *name, bfd *abfd,</text>
<text text-anchor="start" x="41.5" y="-1017" font-family="Helvetica,sans-Serif" font-size="10.00"> asection *section, bfd</text>
<text text-anchor="middle" x="99" y="-1006" font-family="Helvetica,sans-Serif" font-size="10.00">_vma address)</text>
</a>
</g>
</g>
<!-- Node2&#45;&gt;Node1 -->
<g id="edge1" class="edge">
<title>Node2&#45;&gt;Node1</title>
<path fill="none" stroke="#9a32cd" stroke-dasharray="5,2" d="M174.83,-1027.48C236.44,-1020.81 321.29,-1001.23 370,-945.5 424.65,-882.97 438.04,-601.47 440.17,-546"/>
<polygon fill="#9a32cd" stroke="#9a32cd" points="174.37,-1024.01 164.77,-1028.48 175.07,-1030.97 174.37,-1024.01"/>
<text text-anchor="middle" x="293" y="-1023.5" font-family="Helvetica,sans-Serif" font-size="10.00"> unattached_reloc</text>
</g>
<!-- Node3 -->
<g id="node3" class="node">
<title>Node3</title>
<g id="a_node3"><a xlink:title=" ">
<polygon fill="none" stroke="#bfbfbf" points="12.5,-895 12.5,-980 185.5,-980 185.5,-895 12.5,-895"/>
<text text-anchor="start" x="20.5" y="-968" font-family="Helvetica,sans-Serif" font-size="10.00">bfd_boolean(*)(struct</text>
<text text-anchor="start" x="20.5" y="-957" font-family="Helvetica,sans-Serif" font-size="10.00"> bfd_link_info *, struct</text>
<text text-anchor="start" x="20.5" y="-946" font-family="Helvetica,sans-Serif" font-size="10.00"> bfd_link_hash_entry *entry,</text>
<text text-anchor="start" x="20.5" y="-935" font-family="Helvetica,sans-Serif" font-size="10.00"> const char *name, const char</text>
<text text-anchor="start" x="20.5" y="-924" font-family="Helvetica,sans-Serif" font-size="10.00"> *reloc_name, bfd_vma addend,</text>
<text text-anchor="start" x="20.5" y="-913" font-family="Helvetica,sans-Serif" font-size="10.00"> bfd *abfd, asection *section,</text>
<text text-anchor="middle" x="99" y="-902" font-family="Helvetica,sans-Serif" font-size="10.00"> bfd_vma address)</text>
</a>
</g>
</g>
<!-- Node3&#45;&gt;Node1 -->
<g id="edge2" class="edge">
<title>Node3&#45;&gt;Node1</title>
<path fill="none" stroke="#9a32cd" stroke-dasharray="5,2" d="M195.67,-934.47C253.91,-927.48 325.44,-908.85 370,-861.5 414.91,-813.78 435.61,-595.15 439.72,-546.23"/>
<polygon fill="#9a32cd" stroke="#9a32cd" points="195.26,-931 185.7,-935.57 196.02,-937.96 195.26,-931"/>
<text text-anchor="middle" x="293" y="-933.5" font-family="Helvetica,sans-Serif" font-size="10.00"> reloc_overflow</text>
</g>
<!-- Node4 -->
<g id="node4" class="node">
<title>Node4</title>
<g id="a_node4"><a xlink:title=" ">
<polygon fill="none" stroke="#bfbfbf" points="29,-801.5 29,-875.5 169,-875.5 169,-801.5 29,-801.5"/>
<text text-anchor="start" x="37" y="-863.5" font-family="Helvetica,sans-Serif" font-size="10.00">bfd_boolean(*)(struct</text>
<text text-anchor="start" x="37" y="-852.5" font-family="Helvetica,sans-Serif" font-size="10.00"> bfd_link_info *, bfd</text>
<text text-anchor="start" x="37" y="-841.5" font-family="Helvetica,sans-Serif" font-size="10.00">_boolean constructor,</text>
<text text-anchor="start" x="37" y="-830.5" font-family="Helvetica,sans-Serif" font-size="10.00"> const char *name, bfd</text>
<text text-anchor="start" x="37" y="-819.5" font-family="Helvetica,sans-Serif" font-size="10.00"> *abfd, asection *sec, bfd</text>
<text text-anchor="middle" x="99" y="-808.5" font-family="Helvetica,sans-Serif" font-size="10.00">_vma value)</text>
</a>
</g>
</g>
<!-- Node4&#45;&gt;Node1 -->
<g id="edge3" class="edge">
<title>Node4&#45;&gt;Node1</title>
<path fill="none" stroke="#9a32cd" stroke-dasharray="5,2" d="M179.23,-847.53C238.82,-849.77 318.71,-842.41 370,-796.5 409.03,-761.56 433.73,-588.7 439.3,-546.03"/>
<polygon fill="#9a32cd" stroke="#9a32cd" points="179.25,-844.03 169.1,-847.05 178.92,-851.02 179.25,-844.03"/>
<text text-anchor="middle" x="293" y="-849.5" font-family="Helvetica,sans-Serif" font-size="10.00"> constructor</text>
</g>
<!-- Node5 -->
<g id="node5" class="node">
<title>Node5</title>
<g id="a_node5"><a xlink:title=" ">
<polygon fill="none" stroke="#bfbfbf" points="80,-763 80,-782 118,-782 118,-763 80,-763"/>
<text text-anchor="middle" x="99" y="-770" font-family="Helvetica,sans-Serif" font-size="10.00">void</text>
</a>
</g>
</g>
<!-- Node5&#45;&gt;Node1 -->
<g id="edge4" class="edge">
<title>Node5&#45;&gt;Node1</title>
<path fill="none" stroke="#9a32cd" stroke-dasharray="5,2" d="M128.23,-771.96C182.12,-769.43 300.48,-756.44 370,-692.5 415.72,-650.45 433.78,-573.08 438.87,-546.09"/>
<polygon fill="#9a32cd" stroke="#9a32cd" points="127.91,-768.47 118.05,-772.35 128.17,-775.47 127.91,-768.47"/>
<text text-anchor="middle" x="293" y="-784.5" font-family="Helvetica,sans-Serif" font-size="10.00"> minfo</text>
<text text-anchor="middle" x="293" y="-773.5" font-family="Helvetica,sans-Serif" font-size="10.00">einfo</text>
<text text-anchor="middle" x="293" y="-762.5" font-family="Helvetica,sans-Serif" font-size="10.00">info</text>
</g>
<!-- Node6 -->
<g id="node6" class="node">
<title>Node6</title>
<g id="a_node6"><a xlink:title=" ">
<polygon fill="none" stroke="#bfbfbf" points="22.5,-681 22.5,-744 175.5,-744 175.5,-681 22.5,-681"/>
<text text-anchor="start" x="30.5" y="-732" font-family="Helvetica,sans-Serif" font-size="10.00">bfd_boolean(*)(struct</text>
<text text-anchor="start" x="30.5" y="-721" font-family="Helvetica,sans-Serif" font-size="10.00"> bfd_link_info *, const</text>
<text text-anchor="start" x="30.5" y="-710" font-family="Helvetica,sans-Serif" font-size="10.00"> char *message, bfd *abfd,</text>
<text text-anchor="start" x="30.5" y="-699" font-family="Helvetica,sans-Serif" font-size="10.00"> asection *section, bfd_vma</text>
<text text-anchor="middle" x="99" y="-688" font-family="Helvetica,sans-Serif" font-size="10.00"> address)</text>
</a>
</g>
</g>
<!-- Node6&#45;&gt;Node1 -->
<g id="edge5" class="edge">
<title>Node6&#45;&gt;Node1</title>
<path fill="none" stroke="#9a32cd" stroke-dasharray="5,2" d="M185.51,-689.88C240.96,-672.8 313.19,-645.87 370,-608.5 396.89,-590.81 421.55,-561.35 433.29,-546.18"/>
<polygon fill="#9a32cd" stroke="#9a32cd" points="184.26,-686.6 175.71,-692.85 186.29,-693.3 184.26,-686.6"/>
<text text-anchor="middle" x="293" y="-680.5" font-family="Helvetica,sans-Serif" font-size="10.00"> reloc_dangerous</text>
</g>
<!-- Node7 -->
<g id="node7" class="node">
<title>Node7</title>
<g id="a_node7"><a xlink:title=" ">
<polygon fill="none" stroke="#bfbfbf" points="23.5,-587.5 23.5,-661.5 174.5,-661.5 174.5,-587.5 23.5,-587.5"/>
<text text-anchor="start" x="31.5" y="-649.5" font-family="Helvetica,sans-Serif" font-size="10.00">bfd_boolean(*)(struct</text>
<text text-anchor="start" x="31.5" y="-638.5" font-family="Helvetica,sans-Serif" font-size="10.00"> bfd_link_info *, const</text>
<text text-anchor="start" x="31.5" y="-627.5" font-family="Helvetica,sans-Serif" font-size="10.00"> char *name, bfd *abfd,</text>
<text text-anchor="start" x="31.5" y="-616.5" font-family="Helvetica,sans-Serif" font-size="10.00"> asection *section, bfd</text>
<text text-anchor="start" x="31.5" y="-605.5" font-family="Helvetica,sans-Serif" font-size="10.00">_vma address, bfd_boolean</text>
<text text-anchor="middle" x="99" y="-594.5" font-family="Helvetica,sans-Serif" font-size="10.00"> is_fatal)</text>
</a>
</g>
</g>
<!-- Node7&#45;&gt;Node1 -->
<g id="edge6" class="edge">
<title>Node7&#45;&gt;Node1</title>
<path fill="none" stroke="#9a32cd" stroke-dasharray="5,2" d="M184.46,-602.67C254.79,-584.49 351.56,-559.49 403.68,-546.02"/>
<polygon fill="#9a32cd" stroke="#9a32cd" points="183.53,-599.3 174.72,-605.19 185.28,-606.07 183.53,-599.3"/>
<text text-anchor="middle" x="293" y="-596.5" font-family="Helvetica,sans-Serif" font-size="10.00"> undefined_symbol</text>
</g>
<!-- Node8 -->
<g id="node8" class="node">
<title>Node8</title>
<g id="a_node8"><a xlink:title=" ">
<polygon fill="none" stroke="#bfbfbf" points="0,-505 0,-568 198,-568 198,-505 0,-505"/>
<text text-anchor="start" x="8" y="-556" font-family="Helvetica,sans-Serif" font-size="10.00">bfd_boolean(*)(struct</text>
<text text-anchor="start" x="8" y="-545" font-family="Helvetica,sans-Serif" font-size="10.00"> bfd_link_info *, bfd</text>
<text text-anchor="start" x="8" y="-534" font-family="Helvetica,sans-Serif" font-size="10.00"> *abfd, asection *current</text>
<text text-anchor="start" x="8" y="-523" font-family="Helvetica,sans-Serif" font-size="10.00">_section, asection *previous</text>
<text text-anchor="middle" x="99" y="-512" font-family="Helvetica,sans-Serif" font-size="10.00">_section, bfd_boolean new_segment)</text>
</a>
</g>
</g>
<!-- Node8&#45;&gt;Node1 -->
<g id="edge7" class="edge">
<title>Node8&#45;&gt;Node1</title>
<path fill="none" stroke="#9a32cd" stroke-dasharray="5,2" d="M208.32,-536.5C268.31,-536.5 340.19,-536.5 387.92,-536.5"/>
<polygon fill="#9a32cd" stroke="#9a32cd" points="208.03,-533 198.03,-536.5 208.03,-540 208.03,-533"/>
<text text-anchor="middle" x="293" y="-539.5" font-family="Helvetica,sans-Serif" font-size="10.00"> override_segment_assignment</text>
</g>
<!-- Node9 -->
<g id="node9" class="node">
<title>Node9</title>
<g id="a_node9"><a xlink:title=" ">
<polygon fill="none" stroke="#bfbfbf" points="19,-423 19,-486 179,-486 179,-423 19,-423"/>
<text text-anchor="start" x="27" y="-474" font-family="Helvetica,sans-Serif" font-size="10.00">bfd_boolean(*)(struct</text>
<text text-anchor="start" x="27" y="-463" font-family="Helvetica,sans-Serif" font-size="10.00"> bfd_link_info *, const</text>
<text text-anchor="start" x="27" y="-452" font-family="Helvetica,sans-Serif" font-size="10.00"> char *warning, const char</text>
<text text-anchor="start" x="27" y="-441" font-family="Helvetica,sans-Serif" font-size="10.00"> *symbol, bfd *abfd, asection</text>
<text text-anchor="middle" x="99" y="-430" font-family="Helvetica,sans-Serif" font-size="10.00"> *section, bfd_vma address)</text>
</a>
</g>
</g>
<!-- Node9&#45;&gt;Node1 -->
<g id="edge8" class="edge">
<title>Node9&#45;&gt;Node1</title>
<path fill="none" stroke="#9a32cd" stroke-dasharray="5,2" d="M189.34,-476.01C257.85,-492.51 349.13,-514.5 400.67,-526.91"/>
<polygon fill="#9a32cd" stroke="#9a32cd" points="189.94,-472.56 179.4,-473.62 188.3,-479.37 189.94,-472.56"/>
<text text-anchor="middle" x="293" y="-521.5" font-family="Helvetica,sans-Serif" font-size="10.00"> warning</text>
</g>
<!-- Node10 -->
<g id="node10" class="node">
<title>Node10</title>
<g id="a_node10"><a xlink:title=" ">
<polygon fill="none" stroke="#bfbfbf" points="26,-341 26,-404 172,-404 172,-341 26,-341"/>
<text text-anchor="start" x="34" y="-392" font-family="Helvetica,sans-Serif" font-size="10.00">bfd_boolean(*)(struct</text>
<text text-anchor="start" x="34" y="-381" font-family="Helvetica,sans-Serif" font-size="10.00"> bfd_link_info *, struct</text>
<text text-anchor="start" x="34" y="-370" font-family="Helvetica,sans-Serif" font-size="10.00"> bfd_link_hash_entry *h,</text>
<text text-anchor="start" x="34" y="-359" font-family="Helvetica,sans-Serif" font-size="10.00"> bfd *nbfd, asection *nsec,</text>
<text text-anchor="middle" x="99" y="-348" font-family="Helvetica,sans-Serif" font-size="10.00"> bfd_vma nval)</text>
</a>
</g>
</g>
<!-- Node10&#45;&gt;Node1 -->
<g id="edge9" class="edge">
<title>Node10&#45;&gt;Node1</title>
<path fill="none" stroke="#9a32cd" stroke-dasharray="5,2" d="M181.85,-391.29C237.65,-406.43 311.69,-431.23 370,-467.5 396.47,-483.96 420.93,-511.89 432.87,-526.66"/>
<polygon fill="#9a32cd" stroke="#9a32cd" points="182.57,-387.86 172.01,-388.67 180.77,-394.62 182.57,-387.86"/>
<text text-anchor="middle" x="293" y="-470.5" font-family="Helvetica,sans-Serif" font-size="10.00"> multiple_definition</text>
</g>
<!-- Node11 -->
<g id="node11" class="node">
<title>Node11</title>
<g id="a_node11"><a xlink:title=" ">
<polygon fill="none" stroke="#bfbfbf" points="28,-269.5 28,-321.5 170,-321.5 170,-269.5 28,-269.5"/>
<text text-anchor="start" x="36" y="-309.5" font-family="Helvetica,sans-Serif" font-size="10.00">bfd_boolean(*)(struct</text>
<text text-anchor="start" x="36" y="-298.5" font-family="Helvetica,sans-Serif" font-size="10.00"> bfd_link_info *, bfd</text>
<text text-anchor="start" x="36" y="-287.5" font-family="Helvetica,sans-Serif" font-size="10.00"> *abfd, const char *name,</text>
<text text-anchor="middle" x="99" y="-276.5" font-family="Helvetica,sans-Serif" font-size="10.00"> bfd **subsbfd)</text>
</a>
</g>
</g>
<!-- Node11&#45;&gt;Node1 -->
<g id="edge10" class="edge">
<title>Node11&#45;&gt;Node1</title>
<path fill="none" stroke="#9a32cd" stroke-dasharray="5,2" d="M180.23,-305.84C238.87,-317.1 317.09,-340.28 370,-387.5 414.41,-427.13 433.19,-500.73 438.68,-526.93"/>
<polygon fill="#9a32cd" stroke="#9a32cd" points="180.73,-302.37 170.26,-304 179.46,-309.26 180.73,-302.37"/>
<text text-anchor="middle" x="293" y="-390.5" font-family="Helvetica,sans-Serif" font-size="10.00"> add_archive_element</text>
</g>
<!-- Node12 -->
<g id="node12" class="node">
<title>Node12</title>
<g id="a_node12"><a xlink:title=" ">
<polygon fill="none" stroke="#bfbfbf" points="8.5,-176.5 8.5,-250.5 189.5,-250.5 189.5,-176.5 8.5,-176.5"/>
<text text-anchor="start" x="16.5" y="-238.5" font-family="Helvetica,sans-Serif" font-size="10.00">bfd_boolean(*)(struct</text>
<text text-anchor="start" x="16.5" y="-227.5" font-family="Helvetica,sans-Serif" font-size="10.00"> bfd_link_info *, struct</text>
<text text-anchor="start" x="16.5" y="-216.5" font-family="Helvetica,sans-Serif" font-size="10.00"> bfd_link_hash_entry *h,</text>
<text text-anchor="start" x="16.5" y="-205.5" font-family="Helvetica,sans-Serif" font-size="10.00"> bfd *abfd, asection *section,</text>
<text text-anchor="start" x="16.5" y="-194.5" font-family="Helvetica,sans-Serif" font-size="10.00"> bfd_vma address, flagword flags,</text>
<text text-anchor="middle" x="99" y="-183.5" font-family="Helvetica,sans-Serif" font-size="10.00"> const char *string)</text>
</a>
</g>
</g>
<!-- Node12&#45;&gt;Node1 -->
<g id="edge11" class="edge">
<title>Node12&#45;&gt;Node1</title>
<path fill="none" stroke="#9a32cd" stroke-dasharray="5,2" d="M199.67,-222.38C256.59,-232.48 325.31,-253.95 370,-299.5 435.53,-366.31 440.58,-491.2 440.63,-526.8"/>
<polygon fill="#9a32cd" stroke="#9a32cd" points="199.99,-218.89 189.55,-220.68 198.83,-225.79 199.99,-218.89"/>
<text text-anchor="middle" x="293" y="-302.5" font-family="Helvetica,sans-Serif" font-size="10.00"> notice</text>
</g>
<!-- Node13 -->
<g id="node13" class="node">
<title>Node13</title>
<g id="a_node13"><a xlink:title=" ">
<polygon fill="none" stroke="#bfbfbf" points="7,-94 7,-157 191,-157 191,-94 7,-94"/>
<text text-anchor="start" x="15" y="-145" font-family="Helvetica,sans-Serif" font-size="10.00">bfd_boolean(*)(struct</text>
<text text-anchor="start" x="15" y="-134" font-family="Helvetica,sans-Serif" font-size="10.00"> bfd_link_info *, struct</text>
<text text-anchor="start" x="15" y="-123" font-family="Helvetica,sans-Serif" font-size="10.00"> bfd_link_hash_entry *h,</text>
<text text-anchor="start" x="15" y="-112" font-family="Helvetica,sans-Serif" font-size="10.00"> bfd *nbfd, enum bfd_link</text>
<text text-anchor="middle" x="99" y="-101" font-family="Helvetica,sans-Serif" font-size="10.00">_hash_type ntype, bfd_vma nsize)</text>
</a>
</g>
</g>
<!-- Node13&#45;&gt;Node1 -->
<g id="edge12" class="edge">
<title>Node13&#45;&gt;Node1</title>
<path fill="none" stroke="#9a32cd" stroke-dasharray="5,2" d="M201.26,-133.22C258.57,-142.92 327.14,-164.38 370,-211.5 414.09,-259.98 435.42,-478.02 439.69,-526.8"/>
<polygon fill="#9a32cd" stroke="#9a32cd" points="201.49,-129.72 191.07,-131.6 200.39,-136.63 201.49,-129.72"/>
<text text-anchor="middle" x="293" y="-214.5" font-family="Helvetica,sans-Serif" font-size="10.00"> multiple_common</text>
</g>
<!-- Node14 -->
<g id="node14" class="node">
<title>Node14</title>
<g id="a_node14"><a xlink:title=" ">
<polygon fill="none" stroke="#bfbfbf" points="12,-0.5 12,-74.5 186,-74.5 186,-0.5 12,-0.5"/>
<text text-anchor="start" x="20" y="-62.5" font-family="Helvetica,sans-Serif" font-size="10.00">bfd_boolean(*)(struct</text>
<text text-anchor="start" x="20" y="-51.5" font-family="Helvetica,sans-Serif" font-size="10.00"> bfd_link_info *, struct</text>
<text text-anchor="start" x="20" y="-40.5" font-family="Helvetica,sans-Serif" font-size="10.00"> bfd_link_hash_entry *entry,</text>
<text text-anchor="start" x="20" y="-29.5" font-family="Helvetica,sans-Serif" font-size="10.00"> bfd_reloc_code_real_type reloc,</text>
<text text-anchor="start" x="20" y="-18.5" font-family="Helvetica,sans-Serif" font-size="10.00"> bfd *abfd, asection *sec, bfd</text>
<text text-anchor="middle" x="99" y="-7.5" font-family="Helvetica,sans-Serif" font-size="10.00">_vma value)</text>
</a>
</g>
</g>
<!-- Node14&#45;&gt;Node1 -->
<g id="edge13" class="edge">
<title>Node14&#45;&gt;Node1</title>
<path fill="none" stroke="#9a32cd" stroke-dasharray="5,2" d="M196.3,-42.47C254.97,-50.75 326.74,-71.19 370,-120.5 425.68,-183.96 438.25,-470.39 440.2,-526.83"/>
<polygon fill="#9a32cd" stroke="#9a32cd" points="196.63,-38.99 186.26,-41.16 195.71,-45.93 196.63,-38.99"/>
<text text-anchor="middle" x="293" y="-123.5" font-family="Helvetica,sans-Serif" font-size="10.00"> add_to_set</text>
</g>
</g>
</svg>
