<?xml version="1.0" encoding="UTF-8" standalone="no"?>
<!DOCTYPE svg PUBLIC "-//W3C//DTD SVG 1.1//EN"
 "http://www.w3.org/Graphics/SVG/1.1/DTD/svg11.dtd">
<!-- Generated by graphviz version 2.43.0 (0)
 -->
<!-- Title: _MSV1_0_LM20_LOGON_PROFILE Pages: 1 -->
<svg width="473pt" height="232pt"
 viewBox="0.00 0.00 473.00 232.00" xmlns="http://www.w3.org/2000/svg" xmlns:xlink="http://www.w3.org/1999/xlink">
<g id="graph0" class="graph" transform="scale(1 1) rotate(0) translate(4 228)">
<title>_MSV1_0_LM20_LOGON_PROFILE</title>
<!-- Node1 -->
<g id="node1" class="node">
<title>Node1</title>
<g id="a_node1"><a xlink:title=" ">
<polygon fill="#bfbfbf" stroke="black" points="332,-91 332,-121 465,-121 465,-91 332,-91"/>
<text text-anchor="start" x="340" y="-109" font-family="Helvetica,sans-Serif" font-size="10.00">_MSV1_0_LM20_LOGON</text>
<text text-anchor="middle" x="398.5" y="-98" font-family="Helvetica,sans-Serif" font-size="10.00">_PROFILE</text>
</a>
</g>
</g>
<!-- Node2 -->
<g id="node2" class="node">
<title>Node2</title>
<g id="a_node2"><a xlink:title=" ">
<polygon fill="none" stroke="#bfbfbf" points="47,-186.5 47,-205.5 151,-205.5 151,-186.5 47,-186.5"/>
<text text-anchor="middle" x="99" y="-193.5" font-family="Helvetica,sans-Serif" font-size="10.00">UNICODE_STRING</text>
</a>
</g>
</g>
<!-- Node2&#45;&gt;Node1 -->
<g id="edge1" class="edge">
<title>Node2&#45;&gt;Node1</title>
<path fill="none" stroke="#9a32cd" stroke-dasharray="5,2" d="M161.37,-196.11C205.32,-194.27 265.12,-187.77 314,-168 340.78,-157.17 366.7,-135.66 382.38,-121.05"/>
<polygon fill="#9a32cd" stroke="#9a32cd" points="160.99,-192.62 151.12,-196.47 161.23,-199.62 160.99,-192.62"/>
<text text-anchor="middle" x="265" y="-216" font-family="Helvetica,sans-Serif" font-size="10.00"> LogonServer</text>
<text text-anchor="middle" x="265" y="-205" font-family="Helvetica,sans-Serif" font-size="10.00">UserParameters</text>
<text text-anchor="middle" x="265" y="-194" font-family="Helvetica,sans-Serif" font-size="10.00">LogonDomainName</text>
</g>
<!-- Node3 -->
<g id="node3" class="node">
<title>Node3</title>
<g id="a_node3"><a xlink:title=" ">
<polygon fill="none" stroke="#bfbfbf" points="50,-141.5 50,-160.5 148,-160.5 148,-141.5 50,-141.5"/>
<text text-anchor="middle" x="99" y="-148.5" font-family="Helvetica,sans-Serif" font-size="10.00">LARGE_INTEGER</text>
</a>
</g>
</g>
<!-- Node3&#45;&gt;Node1 -->
<g id="edge2" class="edge">
<title>Node3&#45;&gt;Node1</title>
<path fill="none" stroke="#9a32cd" stroke-dasharray="5,2" d="M158.41,-147.63C201.64,-144.49 261.84,-138.8 314,-129 325.08,-126.92 336.84,-124.08 347.92,-121.11"/>
<polygon fill="#9a32cd" stroke="#9a32cd" points="158.08,-144.14 148.35,-148.33 158.57,-151.12 158.08,-144.14"/>
<text text-anchor="middle" x="265" y="-156" font-family="Helvetica,sans-Serif" font-size="10.00"> LogoffTime</text>
<text text-anchor="middle" x="265" y="-145" font-family="Helvetica,sans-Serif" font-size="10.00">KickOffTime</text>
</g>
<!-- Node4 -->
<g id="node4" class="node">
<title>Node4</title>
<g id="a_node4"><a xlink:title=" ">
<polygon fill="none" stroke="#bfbfbf" points="68.5,-98.5 68.5,-117.5 129.5,-117.5 129.5,-98.5 68.5,-98.5"/>
<text text-anchor="middle" x="99" y="-105.5" font-family="Helvetica,sans-Serif" font-size="10.00">unsigned</text>
</a>
</g>
</g>
<!-- Node4&#45;&gt;Node1 -->
<g id="edge3" class="edge">
<title>Node4&#45;&gt;Node1</title>
<path fill="none" stroke="#9a32cd" stroke-dasharray="5,2" d="M139.71,-107.63C162.11,-107.42 190.62,-107.18 216,-107 254.44,-106.73 297.47,-106.49 331.97,-106.31"/>
<polygon fill="#9a32cd" stroke="#9a32cd" points="139.53,-104.13 129.56,-107.72 139.59,-111.13 139.53,-104.13"/>
<text text-anchor="middle" x="265" y="-121" font-family="Helvetica,sans-Serif" font-size="10.00"> LanmanSessionKey</text>
<text text-anchor="middle" x="265" y="-110" font-family="Helvetica,sans-Serif" font-size="10.00">UserSessionKey</text>
</g>
<!-- Node5 -->
<g id="node5" class="node">
<title>Node5</title>
<g id="a_node5"><a xlink:title=" ">
<polygon fill="none" stroke="#bfbfbf" points="11.5,-60.5 11.5,-79.5 186.5,-79.5 186.5,-60.5 11.5,-60.5"/>
<text text-anchor="middle" x="99" y="-67.5" font-family="Helvetica,sans-Serif" font-size="10.00">MSV1_0_PROFILE_BUFFER_TYPE</text>
</a>
</g>
</g>
<!-- Node5&#45;&gt;Node1 -->
<g id="edge4" class="edge">
<title>Node5&#45;&gt;Node1</title>
<path fill="none" stroke="#9a32cd" stroke-dasharray="5,2" d="M196.83,-77.85C233.6,-81.26 275.81,-85.7 314,-91 319.84,-91.81 325.89,-92.73 331.94,-93.71"/>
<polygon fill="#9a32cd" stroke="#9a32cd" points="196.89,-74.34 186.61,-76.91 196.25,-81.31 196.89,-74.34"/>
<text text-anchor="middle" x="265" y="-94" font-family="Helvetica,sans-Serif" font-size="10.00"> MessageType</text>
</g>
<!-- Node6 -->
<g id="node6" class="node">
<title>Node6</title>
<g id="a_node6"><a xlink:title=" ">
<polygon fill="none" stroke="#bfbfbf" points="0,-0.5 0,-41.5 198,-41.5 198,-0.5 0,-0.5"/>
<text text-anchor="start" x="8" y="-29.5" font-family="Helvetica,sans-Serif" font-size="10.00">PSecurityUserData *typedef</text>
<text text-anchor="start" x="8" y="-18.5" font-family="Helvetica,sans-Serif" font-size="10.00"> PSECPKG_EXTENDED_INFORMATION</text>
<text text-anchor="middle" x="99" y="-7.5" font-family="Helvetica,sans-Serif" font-size="10.00"> *typedef</text>
</a>
</g>
</g>
<!-- Node6&#45;&gt;Node1 -->
<g id="edge5" class="edge">
<title>Node6&#45;&gt;Node1</title>
<path fill="none" stroke="#9a32cd" stroke-dasharray="5,2" d="M208.13,-37.7C242.47,-44.47 280.27,-53.46 314,-65 333.86,-71.8 355.09,-82.26 371.16,-90.92"/>
<polygon fill="#9a32cd" stroke="#9a32cd" points="208.55,-34.22 198.07,-35.76 207.23,-41.09 208.55,-34.22"/>
<text text-anchor="middle" x="265" y="-68" font-family="Helvetica,sans-Serif" font-size="10.00"> UserFlags</text>
</g>
</g>
</svg>
