<?xml version="1.0" encoding="UTF-8" standalone="no"?>
<!DOCTYPE svg PUBLIC "-//W3C//DTD SVG 1.1//EN"
 "http://www.w3.org/Graphics/SVG/1.1/DTD/svg11.dtd">
<!-- Generated by graphviz version 2.43.0 (0)
 -->
<!-- Title: LdapReferralCallback Pages: 1 -->
<svg width="466pt" height="164pt"
 viewBox="0.00 0.00 466.00 164.00" xmlns="http://www.w3.org/2000/svg" xmlns:xlink="http://www.w3.org/1999/xlink">
<g id="graph0" class="graph" transform="scale(1 1) rotate(0) translate(4 160)">
<title>LdapReferralCallback</title>
<!-- Node1 -->
<g id="node1" class="node">
<title>Node1</title>
<g id="a_node1"><a xlink:title=" ">
<polygon fill="#bfbfbf" stroke="black" points="337,-79.5 337,-98.5 458,-98.5 458,-79.5 337,-79.5"/>
<text text-anchor="middle" x="397.5" y="-86.5" font-family="Helvetica,sans-Serif" font-size="10.00">LdapReferralCallback</text>
</a>
</g>
</g>
<!-- Node2 -->
<g id="node2" class="node">
<title>Node2</title>
<g id="a_node2"><a xlink:title=" ">
<polygon fill="none" stroke="#bfbfbf" points="18,-136.5 18,-155.5 180,-155.5 180,-136.5 18,-136.5"/>
<text text-anchor="middle" x="99" y="-143.5" font-family="Helvetica,sans-Serif" font-size="10.00">DEREFERENCECONNECTION *</text>
</a>
</g>
</g>
<!-- Node2&#45;&gt;Node1 -->
<g id="edge1" class="edge">
<title>Node2&#45;&gt;Node1</title>
<path fill="none" stroke="#9a32cd" stroke-dasharray="5,2" d="M190.19,-137C229.99,-132.07 277.14,-124.9 319,-115 336.95,-110.76 356.66,-104.12 371.71,-98.61"/>
<polygon fill="#9a32cd" stroke="#9a32cd" points="189.74,-133.53 180.23,-138.21 190.58,-140.48 189.74,-133.53"/>
<text text-anchor="middle" x="267.5" y="-136" font-family="Helvetica,sans-Serif" font-size="10.00"> DereferenceRoutine</text>
</g>
<!-- Node3 -->
<g id="node3" class="node">
<title>Node3</title>
<g id="a_node3"><a xlink:title=" ">
<polygon fill="none" stroke="#bfbfbf" points="17.5,-98.5 17.5,-117.5 180.5,-117.5 180.5,-98.5 17.5,-98.5"/>
<text text-anchor="middle" x="99" y="-105.5" font-family="Helvetica,sans-Serif" font-size="10.00">NOTIFYOFNEWCONNECTION *</text>
</a>
</g>
</g>
<!-- Node3&#45;&gt;Node1 -->
<g id="edge2" class="edge">
<title>Node3&#45;&gt;Node1</title>
<path fill="none" stroke="#9a32cd" stroke-dasharray="5,2" d="M190.89,-102.18C238.22,-99.14 294.78,-95.52 336.59,-92.84"/>
<polygon fill="#9a32cd" stroke="#9a32cd" points="190.38,-98.7 180.63,-102.83 190.83,-105.69 190.38,-98.7"/>
<text text-anchor="middle" x="267.5" y="-103" font-family="Helvetica,sans-Serif" font-size="10.00"> NotifyRoutine</text>
</g>
<!-- Node4 -->
<g id="node4" class="node">
<title>Node4</title>
<g id="a_node4"><a xlink:title=" ">
<polygon fill="none" stroke="#bfbfbf" points="27,-60.5 27,-79.5 171,-79.5 171,-60.5 27,-60.5"/>
<text text-anchor="middle" x="99" y="-67.5" font-family="Helvetica,sans-Serif" font-size="10.00">QUERYFORCONNECTION *</text>
</a>
</g>
</g>
<!-- Node4&#45;&gt;Node1 -->
<g id="edge3" class="edge">
<title>Node4&#45;&gt;Node1</title>
<path fill="none" stroke="#9a32cd" stroke-dasharray="5,2" d="M181.13,-71.65C222.45,-72.91 273.46,-75.13 319,-79 324.81,-79.49 330.86,-80.1 336.9,-80.78"/>
<polygon fill="#9a32cd" stroke="#9a32cd" points="181.21,-68.15 171.11,-71.35 181,-75.15 181.21,-68.15"/>
<text text-anchor="middle" x="267.5" y="-82" font-family="Helvetica,sans-Serif" font-size="10.00"> QueryForConnection</text>
</g>
<!-- Node5 -->
<g id="node5" class="node">
<title>Node5</title>
<g id="a_node5"><a xlink:title=" ">
<polygon fill="none" stroke="#bfbfbf" points="0,-0.5 0,-41.5 198,-41.5 198,-0.5 0,-0.5"/>
<text text-anchor="start" x="8" y="-29.5" font-family="Helvetica,sans-Serif" font-size="10.00">PSecurityUserData *typedef</text>
<text text-anchor="start" x="8" y="-18.5" font-family="Helvetica,sans-Serif" font-size="10.00"> PSECPKG_EXTENDED_INFORMATION</text>
<text text-anchor="middle" x="99" y="-7.5" font-family="Helvetica,sans-Serif" font-size="10.00"> *typedef</text>
</a>
</g>
</g>
<!-- Node5&#45;&gt;Node1 -->
<g id="edge4" class="edge">
<title>Node5&#45;&gt;Node1</title>
<path fill="none" stroke="#9a32cd" stroke-dasharray="5,2" d="M208.04,-33.75C243.75,-39.29 283.43,-46.88 319,-57 339.3,-62.78 361.47,-72.28 376.87,-79.43"/>
<polygon fill="#9a32cd" stroke="#9a32cd" points="208.49,-30.28 198.08,-32.24 207.44,-37.2 208.49,-30.28"/>
<text text-anchor="middle" x="267.5" y="-60" font-family="Helvetica,sans-Serif" font-size="10.00"> SizeOfCallbacks</text>
</g>
</g>
</svg>
