<?xml version="1.0" encoding="UTF-8" standalone="no"?>
<!DOCTYPE svg PUBLIC "-//W3C//DTD SVG 1.1//EN"
 "http://www.w3.org/Graphics/SVG/1.1/DTD/svg11.dtd">
<!-- Generated by graphviz version 2.43.0 (0)
 -->
<!-- Title: _ACCESS_RANGE Pages: 1 -->
<svg width="426pt" height="148pt"
 viewBox="0.00 0.00 426.00 148.00" xmlns="http://www.w3.org/2000/svg" xmlns:xlink="http://www.w3.org/1999/xlink">
<g id="graph0" class="graph" transform="scale(1 1) rotate(0) translate(4 144)">
<title>_ACCESS_RANGE</title>
<!-- Node1 -->
<g id="node1" class="node">
<title>Node1</title>
<g id="a_node1"><a xlink:title=" ">
<polygon fill="#bfbfbf" stroke="black" points="318,-60.5 318,-79.5 418,-79.5 418,-60.5 318,-60.5"/>
<text text-anchor="middle" x="368" y="-67.5" font-family="Helvetica,sans-Serif" font-size="10.00">_ACCESS_RANGE</text>
</a>
</g>
</g>
<!-- Node2 -->
<g id="node2" class="node">
<title>Node2</title>
<g id="a_node2"><a xlink:title=" ">
<polygon fill="none" stroke="#bfbfbf" points="18.5,-98.5 18.5,-139.5 179.5,-139.5 179.5,-98.5 18.5,-98.5"/>
<text text-anchor="start" x="26.5" y="-127.5" font-family="Helvetica,sans-Serif" font-size="10.00">PLDAP *typedef(__cdecl</text>
<text text-anchor="start" x="26.5" y="-116.5" font-family="Helvetica,sans-Serif" font-size="10.00"> NOTIFYOFNEWCONNECTION)</text>
<text text-anchor="middle" x="99" y="-105.5" font-family="Helvetica,sans-Serif" font-size="10.00">(PLDAP</text>
</a>
</g>
</g>
<!-- Node2&#45;&gt;Node1 -->
<g id="edge1" class="edge">
<title>Node2&#45;&gt;Node1</title>
<path fill="none" stroke="#9a32cd" stroke-dasharray="5,2" d="M190.03,-104.72C224.5,-98.98 264.14,-92.06 300,-85 308.42,-83.34 317.4,-81.43 325.97,-79.54"/>
<polygon fill="#9a32cd" stroke="#9a32cd" points="189.27,-101.29 179.98,-106.38 190.41,-108.2 189.27,-101.29"/>
<text text-anchor="middle" x="258" y="-103" font-family="Helvetica,sans-Serif" font-size="10.00"> RangeInMemory</text>
</g>
<!-- Node3 -->
<g id="node3" class="node">
<title>Node3</title>
<g id="a_node3"><a xlink:title=" ">
<polygon fill="none" stroke="#bfbfbf" points="50,-60.5 50,-79.5 148,-79.5 148,-60.5 50,-60.5"/>
<text text-anchor="middle" x="99" y="-67.5" font-family="Helvetica,sans-Serif" font-size="10.00">LARGE_INTEGER</text>
</a>
</g>
</g>
<!-- Node3&#45;&gt;Node1 -->
<g id="edge2" class="edge">
<title>Node3&#45;&gt;Node1</title>
<path fill="none" stroke="#9a32cd" stroke-dasharray="5,2" d="M158.24,-70C206.02,-70 272.91,-70 317.99,-70"/>
<polygon fill="#9a32cd" stroke="#9a32cd" points="158.04,-66.5 148.04,-70 158.04,-73.5 158.04,-66.5"/>
<text text-anchor="middle" x="258" y="-73" font-family="Helvetica,sans-Serif" font-size="10.00"> RangeStart</text>
</g>
<!-- Node4 -->
<g id="node4" class="node">
<title>Node4</title>
<g id="a_node4"><a xlink:title=" ">
<polygon fill="none" stroke="#bfbfbf" points="0,-0.5 0,-41.5 198,-41.5 198,-0.5 0,-0.5"/>
<text text-anchor="start" x="8" y="-29.5" font-family="Helvetica,sans-Serif" font-size="10.00">PSecurityUserData *typedef</text>
<text text-anchor="start" x="8" y="-18.5" font-family="Helvetica,sans-Serif" font-size="10.00"> PSECPKG_EXTENDED_INFORMATION</text>
<text text-anchor="middle" x="99" y="-7.5" font-family="Helvetica,sans-Serif" font-size="10.00"> *typedef</text>
</a>
</g>
</g>
<!-- Node4&#45;&gt;Node1 -->
<g id="edge3" class="edge">
<title>Node4&#45;&gt;Node1</title>
<path fill="none" stroke="#9a32cd" stroke-dasharray="5,2" d="M208.11,-38.32C237.94,-43.39 270.27,-49.15 300,-55 308.42,-56.66 317.4,-58.57 325.97,-60.46"/>
<polygon fill="#9a32cd" stroke="#9a32cd" points="208.54,-34.85 198.1,-36.63 207.37,-41.75 208.54,-34.85"/>
<text text-anchor="middle" x="258" y="-58" font-family="Helvetica,sans-Serif" font-size="10.00"> RangeLength</text>
</g>
</g>
</svg>
