<?xml version="1.0" encoding="UTF-8" standalone="no"?>
<!DOCTYPE svg PUBLIC "-//W3C//DTD SVG 1.1//EN"
 "http://www.w3.org/Graphics/SVG/1.1/DTD/svg11.dtd">
<!-- Generated by graphviz version 2.43.0 (0)
 -->
<!-- Title: ingamemenu_t Pages: 1 -->
<svg width="748pt" height="429pt"
 viewBox="0.00 0.00 748.00 429.00" xmlns="http://www.w3.org/2000/svg" xmlns:xlink="http://www.w3.org/1999/xlink">
<g id="graph0" class="graph" transform="scale(1 1) rotate(0) translate(4 425)">
<title>ingamemenu_t</title>
<!-- Node1 -->
<g id="node1" class="node">
<title>Node1</title>
<g id="a_node1"><a xlink:title=" ">
<polygon fill="#bfbfbf" stroke="black" points="430,-0.5 430,-19.5 520,-19.5 520,-0.5 430,-0.5"/>
<text text-anchor="middle" x="475" y="-7.5" font-family="Helvetica,sans-Serif" font-size="10.00">ingamemenu_t</text>
</a>
</g>
</g>
<!-- Node2 -->
<g id="node2" class="node">
<title>Node2</title>
<g id="a_node2"><a xlink:href="../../d8/da6/structmenubitmap__s.html" target="_top" xlink:title=" ">
<polygon fill="none" stroke="black" points="430.5,-144.5 430.5,-163.5 519.5,-163.5 519.5,-144.5 430.5,-144.5"/>
<text text-anchor="middle" x="475" y="-151.5" font-family="Helvetica,sans-Serif" font-size="10.00">menubitmap_s</text>
</a>
</g>
</g>
<!-- Node2&#45;&gt;Node1 -->
<g id="edge1" class="edge">
<title>Node2&#45;&gt;Node1</title>
<path fill="none" stroke="#9a32cd" stroke-dasharray="5,2" d="M475,-134.11C475,-102.93 475,-41.93 475,-19.52"/>
<polygon fill="#9a32cd" stroke="#9a32cd" points="471.5,-134.12 475,-144.12 478.5,-134.12 471.5,-134.12"/>
<text text-anchor="middle" x="491.5" y="-79.5" font-family="Helvetica,sans-Serif" font-size="10.00"> frame</text>
</g>
<!-- Node3 -->
<g id="node3" class="node">
<title>Node3</title>
<g id="a_node3"><a xlink:href="../../d5/d57/structmenucommon__s.html" target="_top" xlink:title=" ">
<polygon fill="none" stroke="black" points="278,-223.5 278,-242.5 376,-242.5 376,-223.5 278,-223.5"/>
<text text-anchor="middle" x="327" y="-230.5" font-family="Helvetica,sans-Serif" font-size="10.00">menucommon_s</text>
</a>
</g>
</g>
<!-- Node3&#45;&gt;Node2 -->
<g id="edge2" class="edge">
<title>Node3&#45;&gt;Node2</title>
<path fill="none" stroke="#9a32cd" stroke-dasharray="5,2" d="M321.21,-213.67C319.13,-203.25 318.81,-190.61 326,-182 339.1,-166.31 391.26,-159.72 430.2,-156.96"/>
<polygon fill="#9a32cd" stroke="#9a32cd" points="317.86,-214.68 323.78,-223.47 324.63,-212.9 317.86,-214.68"/>
<text text-anchor="middle" x="346" y="-185" font-family="Helvetica,sans-Serif" font-size="10.00"> generic</text>
</g>
<!-- Node11 -->
<g id="node11" class="node">
<title>Node11</title>
<g id="a_node11"><a xlink:href="../../d0/de7/structmenutext__s.html" target="_top" xlink:title=" ">
<polygon fill="none" stroke="black" points="592,-144.5 592,-163.5 666,-163.5 666,-144.5 592,-144.5"/>
<text text-anchor="middle" x="629" y="-151.5" font-family="Helvetica,sans-Serif" font-size="10.00">menutext_s</text>
</a>
</g>
</g>
<!-- Node3&#45;&gt;Node11 -->
<g id="edge14" class="edge">
<title>Node3&#45;&gt;Node11</title>
<path fill="none" stroke="#9a32cd" stroke-dasharray="5,2" d="M360.94,-220.14C393.11,-209.21 442.93,-193.04 487,-182 522.3,-173.16 563.16,-165.67 591.97,-160.84"/>
<polygon fill="#9a32cd" stroke="#9a32cd" points="359.48,-216.95 351.15,-223.5 361.74,-223.57 359.48,-216.95"/>
<text text-anchor="middle" x="507" y="-185" font-family="Helvetica,sans-Serif" font-size="10.00"> generic</text>
</g>
<!-- Node4 -->
<g id="node4" class="node">
<title>Node4</title>
<g id="a_node4"><a xlink:title=" ">
<polygon fill="none" stroke="#bfbfbf" points="0,-396 0,-415 108,-415 108,-396 0,-396"/>
<text text-anchor="middle" x="54" y="-403" font-family="Helvetica,sans-Serif" font-size="10.00">menuframework_s</text>
</a>
</g>
</g>
<!-- Node4&#45;&gt;Node1 -->
<g id="edge12" class="edge">
<title>Node4&#45;&gt;Node1</title>
<path fill="none" stroke="#9a32cd" stroke-dasharray="5,2" d="M52.83,-385.95C52.03,-358.86 54.08,-307.92 77,-273 171.99,-128.29 377.6,-45.1 449.53,-19.54"/>
<polygon fill="#9a32cd" stroke="#9a32cd" points="49.33,-386.15 53.29,-395.98 56.33,-385.83 49.33,-386.15"/>
<text text-anchor="middle" x="171.5" y="-185" font-family="Helvetica,sans-Serif" font-size="10.00"> menu</text>
</g>
<!-- Node4&#45;&gt;Node3 -->
<g id="edge3" class="edge">
<title>Node4&#45;&gt;Node3</title>
<path fill="none" stroke="#9a32cd" stroke-dasharray="5,2" d="M66.27,-387.55C69.79,-382.58 73.6,-377.11 77,-372 105.78,-328.79 96.39,-302.65 139,-273 179.91,-244.54 237.15,-236.02 277.7,-233.85"/>
<polygon fill="#9a32cd" stroke="#9a32cd" points="63.36,-385.6 60.38,-395.77 69.05,-389.67 63.36,-385.6"/>
<text text-anchor="middle" x="156.5" y="-320" font-family="Helvetica,sans-Serif" font-size="10.00"> parent</text>
</g>
<!-- Node5 -->
<g id="node5" class="node">
<title>Node5</title>
<g id="a_node5"><a xlink:title=" ">
<polygon fill="none" stroke="#bfbfbf" points="451,-396 451,-415 489,-415 489,-396 451,-396"/>
<text text-anchor="middle" x="470" y="-403" font-family="Helvetica,sans-Serif" font-size="10.00">char</text>
</a>
</g>
</g>
<!-- Node5&#45;&gt;Node2 -->
<g id="edge10" class="edge">
<title>Node5&#45;&gt;Node2</title>
<path fill="none" stroke="#9a32cd" stroke-dasharray="5,2" d="M461.46,-386.66C459.62,-382 457.94,-376.9 457,-372 443.47,-301.74 445.92,-281.69 457,-211 459.72,-193.65 466.91,-174.33 471.34,-163.53"/>
<polygon fill="#9a32cd" stroke="#9a32cd" points="458.31,-388.2 465.53,-395.95 464.72,-385.38 458.31,-388.2"/>
<text text-anchor="middle" x="477.5" y="-236" font-family="Helvetica,sans-Serif" font-size="10.00"> errorpic</text>
<text text-anchor="middle" x="477.5" y="-225" font-family="Helvetica,sans-Serif" font-size="10.00">focuspic</text>
</g>
<!-- Node5&#45;&gt;Node3 -->
<g id="edge4" class="edge">
<title>Node5&#45;&gt;Node3</title>
<path fill="none" stroke="#9a32cd" stroke-dasharray="5,2" d="M445.02,-391.42C444,-390.94 442.99,-390.46 442,-390 422.82,-381.13 411.7,-388.09 398,-372 368.71,-337.61 398.93,-311.31 375,-273 366.92,-260.07 353.04,-249.48 342.27,-242.62"/>
<polygon fill="#9a32cd" stroke="#9a32cd" points="443.62,-394.64 454.13,-395.97 446.75,-388.37 443.62,-394.64"/>
<text text-anchor="middle" x="413.5" y="-320" font-family="Helvetica,sans-Serif" font-size="10.00"> name</text>
</g>
<!-- Node5&#45;&gt;Node11 -->
<g id="edge16" class="edge">
<title>Node5&#45;&gt;Node11</title>
<path fill="none" stroke="#9a32cd" stroke-dasharray="5,2" d="M498.6,-395.81C513.16,-390.47 530.58,-382.59 544,-372 587.33,-337.8 579.14,-311.19 619,-273 629.15,-263.28 637.41,-266.83 645,-255 662.72,-227.38 668.56,-212.31 656,-182 652.96,-174.65 646.83,-168.26 641.19,-163.54"/>
<polygon fill="#9a32cd" stroke="#9a32cd" points="497.37,-392.53 489.06,-399.11 499.65,-399.15 497.37,-392.53"/>
<text text-anchor="middle" x="677.5" y="-230.5" font-family="Helvetica,sans-Serif" font-size="10.00"> string</text>
</g>
<!-- Node6 -->
<g id="node6" class="node">
<title>Node6</title>
<g id="a_node6"><a xlink:title=" ">
<polygon fill="none" stroke="#bfbfbf" points="126.5,-396 126.5,-415 231.5,-415 231.5,-396 126.5,-396"/>
<text text-anchor="middle" x="179" y="-403" font-family="Helvetica,sans-Serif" font-size="10.00">void(*)(void *self)</text>
</a>
</g>
</g>
<!-- Node6&#45;&gt;Node3 -->
<g id="edge5" class="edge">
<title>Node6&#45;&gt;Node3</title>
<path fill="none" stroke="#9a32cd" stroke-dasharray="5,2" d="M177.54,-385.77C176.41,-357.67 178.58,-304.55 207,-273 224.96,-253.06 253.21,-243.27 277.79,-238.49"/>
<polygon fill="#9a32cd" stroke="#9a32cd" points="174.05,-386.06 178.13,-395.84 181.04,-385.65 174.05,-386.06"/>
<text text-anchor="middle" x="236" y="-325.5" font-family="Helvetica,sans-Serif" font-size="10.00"> ownerdraw</text>
<text text-anchor="middle" x="236" y="-314.5" font-family="Helvetica,sans-Serif" font-size="10.00">statusbar</text>
</g>
<!-- Node7 -->
<g id="node7" class="node">
<title>Node7</title>
<g id="a_node7"><a xlink:title=" ">
<polygon fill="none" stroke="#bfbfbf" points="568.5,-396 568.5,-415 597.5,-415 597.5,-396 568.5,-396"/>
<text text-anchor="middle" x="583" y="-403" font-family="Helvetica,sans-Serif" font-size="10.00">int</text>
</a>
</g>
</g>
<!-- Node7&#45;&gt;Node2 -->
<g id="edge11" class="edge">
<title>Node7&#45;&gt;Node2</title>
<path fill="none" stroke="#9a32cd" stroke-dasharray="5,2" d="M586.43,-385.58C590.31,-358.02 593.28,-306.51 569,-273 557.56,-257.21 543.27,-268.28 529,-255 514.19,-241.23 488.47,-185.39 478.81,-163.69"/>
<polygon fill="#9a32cd" stroke="#9a32cd" points="582.91,-385.36 584.78,-395.79 589.83,-386.48 582.91,-385.36"/>
<text text-anchor="middle" x="559" y="-247" font-family="Helvetica,sans-Serif" font-size="10.00"> width</text>
<text text-anchor="middle" x="559" y="-236" font-family="Helvetica,sans-Serif" font-size="10.00">shader</text>
<text text-anchor="middle" x="559" y="-225" font-family="Helvetica,sans-Serif" font-size="10.00">height</text>
<text text-anchor="middle" x="559" y="-214" font-family="Helvetica,sans-Serif" font-size="10.00">focusshader</text>
</g>
<!-- Node7&#45;&gt;Node3 -->
<g id="edge6" class="edge">
<title>Node7&#45;&gt;Node3</title>
<path fill="none" stroke="#9a32cd" stroke-dasharray="5,2" d="M558.39,-398.66C541.26,-393.68 518.6,-385.2 502,-372 460.02,-338.62 475.46,-305.77 433,-273 413.75,-258.14 388.28,-248.53 367.13,-242.56"/>
<polygon fill="#9a32cd" stroke="#9a32cd" points="557.67,-402.09 568.24,-401.31 559.49,-395.33 557.67,-402.09"/>
<text text-anchor="middle" x="535.5" y="-364" font-family="Helvetica,sans-Serif" font-size="10.00"> x</text>
<text text-anchor="middle" x="535.5" y="-353" font-family="Helvetica,sans-Serif" font-size="10.00">y</text>
<text text-anchor="middle" x="535.5" y="-342" font-family="Helvetica,sans-Serif" font-size="10.00">menuPosition</text>
<text text-anchor="middle" x="535.5" y="-331" font-family="Helvetica,sans-Serif" font-size="10.00">right</text>
<text text-anchor="middle" x="535.5" y="-320" font-family="Helvetica,sans-Serif" font-size="10.00">left</text>
<text text-anchor="middle" x="535.5" y="-309" font-family="Helvetica,sans-Serif" font-size="10.00">bottom</text>
<text text-anchor="middle" x="535.5" y="-298" font-family="Helvetica,sans-Serif" font-size="10.00">type</text>
<text text-anchor="middle" x="535.5" y="-287" font-family="Helvetica,sans-Serif" font-size="10.00">id</text>
<text text-anchor="middle" x="535.5" y="-276" font-family="Helvetica,sans-Serif" font-size="10.00">top</text>
</g>
<!-- Node7&#45;&gt;Node11 -->
<g id="edge17" class="edge">
<title>Node7&#45;&gt;Node11</title>
<path fill="none" stroke="#9a32cd" stroke-dasharray="5,2" d="M601.98,-389.47C631.19,-364.98 685.96,-313.32 707,-255 718.46,-223.24 711.97,-203.57 686,-182 676.57,-174.16 664.48,-168.02 653.86,-163.58"/>
<polygon fill="#9a32cd" stroke="#9a32cd" points="599.65,-386.85 594.14,-395.9 604.09,-392.26 599.65,-386.85"/>
<text text-anchor="middle" x="726" y="-230.5" font-family="Helvetica,sans-Serif" font-size="10.00"> style</text>
</g>
<!-- Node8 -->
<g id="node8" class="node">
<title>Node8</title>
<g id="a_node8"><a xlink:title=" ">
<polygon fill="none" stroke="#bfbfbf" points="249.5,-396 249.5,-415 310.5,-415 310.5,-396 249.5,-396"/>
<text text-anchor="middle" x="280" y="-403" font-family="Helvetica,sans-Serif" font-size="10.00">unsigned</text>
</a>
</g>
</g>
<!-- Node8&#45;&gt;Node3 -->
<g id="edge7" class="edge">
<title>Node8&#45;&gt;Node3</title>
<path fill="none" stroke="#9a32cd" stroke-dasharray="5,2" d="M275.55,-386.18C270.12,-359.77 263.65,-310.09 281,-273 287.21,-259.72 300.39,-249.3 311.05,-242.59"/>
<polygon fill="#9a32cd" stroke="#9a32cd" points="272.14,-386.98 277.74,-395.97 278.97,-385.45 272.14,-386.98"/>
<text text-anchor="middle" x="294.5" y="-320" font-family="Helvetica,sans-Serif" font-size="10.00"> flags</text>
</g>
<!-- Node9 -->
<g id="node9" class="node">
<title>Node9</title>
<g id="a_node9"><a xlink:title=" ">
<polygon fill="none" stroke="#bfbfbf" points="329,-390.5 329,-420.5 433,-420.5 433,-390.5 329,-390.5"/>
<text text-anchor="start" x="337" y="-408.5" font-family="Helvetica,sans-Serif" font-size="10.00">void(*)(void *self,</text>
<text text-anchor="middle" x="381" y="-397.5" font-family="Helvetica,sans-Serif" font-size="10.00"> int event)</text>
</a>
</g>
</g>
<!-- Node9&#45;&gt;Node3 -->
<g id="edge8" class="edge">
<title>Node9&#45;&gt;Node3</title>
<path fill="none" stroke="#9a32cd" stroke-dasharray="5,2" d="M341.18,-384.25C337.15,-380.69 333.59,-376.62 331,-372 306.82,-328.95 318.97,-265.83 324.63,-242.81"/>
<polygon fill="#9a32cd" stroke="#9a32cd" points="339.3,-387.22 349.38,-390.47 343.53,-381.64 339.3,-387.22"/>
<text text-anchor="middle" x="353" y="-320" font-family="Helvetica,sans-Serif" font-size="10.00"> callback</text>
</g>
<!-- Node10 -->
<g id="node10" class="node">
<title>Node10</title>
<g id="a_node10"><a xlink:title=" ">
<polygon fill="none" stroke="#bfbfbf" points="598,-223.5 598,-242.5 636,-242.5 636,-223.5 598,-223.5"/>
<text text-anchor="middle" x="617" y="-230.5" font-family="Helvetica,sans-Serif" font-size="10.00">float</text>
</a>
</g>
</g>
<!-- Node10&#45;&gt;Node2 -->
<g id="edge9" class="edge">
<title>Node10&#45;&gt;Node2</title>
<path fill="none" stroke="#9a32cd" stroke-dasharray="5,2" d="M595.51,-218C591.7,-215.62 587.76,-213.2 584,-211 552.79,-192.72 514.96,-174.03 493.07,-163.53"/>
<polygon fill="#9a32cd" stroke="#9a32cd" points="593.66,-220.97 603.97,-223.4 597.42,-215.07 593.66,-220.97"/>
<text text-anchor="middle" x="575" y="-185" font-family="Helvetica,sans-Serif" font-size="10.00"> focuscolor</text>
</g>
<!-- Node10&#45;&gt;Node11 -->
<g id="edge15" class="edge">
<title>Node10&#45;&gt;Node11</title>
<path fill="none" stroke="#9a32cd" stroke-dasharray="5,2" d="M619.91,-213.31C622.36,-197.59 625.76,-175.81 627.63,-163.81"/>
<polygon fill="#9a32cd" stroke="#9a32cd" points="616.41,-213.05 618.33,-223.47 623.33,-214.12 616.41,-213.05"/>
<text text-anchor="middle" x="638" y="-185" font-family="Helvetica,sans-Serif" font-size="10.00"> color</text>
</g>
<!-- Node11&#45;&gt;Node1 -->
<g id="edge13" class="edge">
<title>Node11&#45;&gt;Node1</title>
<path fill="none" stroke="#9a32cd" stroke-dasharray="5,2" d="M614.17,-137C592.6,-114.07 550.88,-70.99 512,-38 504.24,-31.41 494.99,-24.66 487.68,-19.56"/>
<polygon fill="#9a32cd" stroke="#9a32cd" points="611.78,-139.57 621.16,-144.49 616.89,-134.79 611.78,-139.57"/>
<text text-anchor="middle" x="619.5" y="-118" font-family="Helvetica,sans-Serif" font-size="10.00"> leave</text>
<text text-anchor="middle" x="619.5" y="-107" font-family="Helvetica,sans-Serif" font-size="10.00">server</text>
<text text-anchor="middle" x="619.5" y="-96" font-family="Helvetica,sans-Serif" font-size="10.00">setup</text>
<text text-anchor="middle" x="619.5" y="-85" font-family="Helvetica,sans-Serif" font-size="10.00">camera</text>
<text text-anchor="middle" x="619.5" y="-74" font-family="Helvetica,sans-Serif" font-size="10.00">restart</text>
<text text-anchor="middle" x="619.5" y="-63" font-family="Helvetica,sans-Serif" font-size="10.00">team</text>
<text text-anchor="middle" x="619.5" y="-52" font-family="Helvetica,sans-Serif" font-size="10.00">quit</text>
<text text-anchor="middle" x="619.5" y="-41" font-family="Helvetica,sans-Serif" font-size="10.00">player</text>
</g>
</g>
</svg>
