<?xml version="1.0" encoding="UTF-8" standalone="no"?>
<!DOCTYPE svg PUBLIC "-//W3C//DTD SVG 1.1//EN"
 "http://www.w3.org/Graphics/SVG/1.1/DTD/svg11.dtd">
<!-- Generated by graphviz version 2.43.0 (0)
 -->
<!-- Title: _SYSTEM_POOL_BLOCKS_INFORMATION Pages: 1 -->
<svg width="465pt" height="133pt"
 viewBox="0.00 0.00 465.00 133.00" xmlns="http://www.w3.org/2000/svg" xmlns:xlink="http://www.w3.org/1999/xlink">
<g id="graph0" class="graph" transform="scale(1 1) rotate(0) translate(4 129)">
<title>_SYSTEM_POOL_BLOCKS_INFORMATION</title>
<!-- Node1 -->
<g id="node1" class="node">
<title>Node1</title>
<g id="a_node1"><a xlink:title=" ">
<polygon fill="#bfbfbf" stroke="black" points="320,-62 320,-92 457,-92 457,-62 320,-62"/>
<text text-anchor="start" x="328" y="-80" font-family="Helvetica,sans-Serif" font-size="10.00">_SYSTEM_POOL_BLOCKS</text>
<text text-anchor="middle" x="388.5" y="-69" font-family="Helvetica,sans-Serif" font-size="10.00">_INFORMATION</text>
</a>
</g>
</g>
<!-- Node2 -->
<g id="node2" class="node">
<title>Node2</title>
<g id="a_node2"><a xlink:title=" ">
<polygon fill="none" stroke="#bfbfbf" points="68.5,-105.5 68.5,-124.5 129.5,-124.5 129.5,-105.5 68.5,-105.5"/>
<text text-anchor="middle" x="99" y="-112.5" font-family="Helvetica,sans-Serif" font-size="10.00">unsigned</text>
</a>
</g>
</g>
<!-- Node2&#45;&gt;Node1 -->
<g id="edge1" class="edge">
<title>Node2&#45;&gt;Node1</title>
<path fill="none" stroke="#9a32cd" stroke-dasharray="5,2" d="M139.58,-111.21C180.37,-107.13 245.76,-100.13 302,-92 307.82,-91.16 313.85,-90.23 319.89,-89.25"/>
<polygon fill="#9a32cd" stroke="#9a32cd" points="139.12,-107.73 129.51,-112.2 139.81,-114.7 139.12,-107.73"/>
<text text-anchor="middle" x="259" y="-105" font-family="Helvetica,sans-Serif" font-size="10.00"> Unknown</text>
</g>
<!-- Node3 -->
<g id="node3" class="node">
<title>Node3</title>
<g id="a_node3"><a xlink:title=" ">
<polygon fill="none" stroke="#bfbfbf" points="36.5,-67.5 36.5,-86.5 161.5,-86.5 161.5,-67.5 36.5,-67.5"/>
<text text-anchor="middle" x="99" y="-74.5" font-family="Helvetica,sans-Serif" font-size="10.00">SYSTEM_POOL_BLOCK</text>
</a>
</g>
</g>
<!-- Node3&#45;&gt;Node1 -->
<g id="edge2" class="edge">
<title>Node3&#45;&gt;Node1</title>
<path fill="none" stroke="#9a32cd" stroke-dasharray="5,2" d="M171.73,-77C217.09,-77 275.35,-77 319.9,-77"/>
<polygon fill="#9a32cd" stroke="#9a32cd" points="171.68,-73.5 161.68,-77 171.68,-80.5 171.68,-73.5"/>
<text text-anchor="middle" x="259" y="-80" font-family="Helvetica,sans-Serif" font-size="10.00"> PoolBlocks</text>
</g>
<!-- Node4 -->
<g id="node4" class="node">
<title>Node4</title>
<g id="a_node4"><a xlink:title=" ">
<polygon fill="none" stroke="#bfbfbf" points="0,-0.5 0,-41.5 198,-41.5 198,-0.5 0,-0.5"/>
<text text-anchor="start" x="8" y="-29.5" font-family="Helvetica,sans-Serif" font-size="10.00">PSecurityUserData *typedef</text>
<text text-anchor="start" x="8" y="-18.5" font-family="Helvetica,sans-Serif" font-size="10.00"> PSECPKG_EXTENDED_INFORMATION</text>
<text text-anchor="middle" x="99" y="-7.5" font-family="Helvetica,sans-Serif" font-size="10.00"> *typedef</text>
</a>
</g>
</g>
<!-- Node4&#45;&gt;Node1 -->
<g id="edge3" class="edge">
<title>Node4&#45;&gt;Node1</title>
<path fill="none" stroke="#9a32cd" stroke-dasharray="5,2" d="M208.43,-24.9C239.03,-27.69 272.11,-32.33 302,-40 321.74,-45.06 342.76,-54.11 359.02,-61.98"/>
<polygon fill="#9a32cd" stroke="#9a32cd" points="208.42,-21.38 198.16,-24.02 207.83,-28.36 208.42,-21.38"/>
<text text-anchor="middle" x="259" y="-65" font-family="Helvetica,sans-Serif" font-size="10.00"> NumberOfBlocks</text>
<text text-anchor="middle" x="259" y="-54" font-family="Helvetica,sans-Serif" font-size="10.00">PoolSize</text>
<text text-anchor="middle" x="259" y="-43" font-family="Helvetica,sans-Serif" font-size="10.00">PoolBase</text>
</g>
</g>
</svg>
