<?xml version="1.0" encoding="UTF-8" standalone="no"?>
<!DOCTYPE svg PUBLIC "-//W3C//DTD SVG 1.1//EN"
 "http://www.w3.org/Graphics/SVG/1.1/DTD/svg11.dtd">
<!-- Generated by graphviz version 2.43.0 (0)
 -->
<!-- Title: tagEMRMODIFYWORLDTRANSFORM Pages: 1 -->
<svg width="200pt" height="95pt"
 viewBox="0.00 0.00 200.00 95.00" xmlns="http://www.w3.org/2000/svg" xmlns:xlink="http://www.w3.org/1999/xlink">
<g id="graph0" class="graph" transform="scale(1 1) rotate(0) translate(4 91)">
<title>tagEMRMODIFYWORLDTRANSFORM</title>
<!-- Node1 -->
<g id="node1" class="node">
<title>Node1</title>
<g id="a_node1"><a xlink:title=" ">
<polygon fill="#bfbfbf" stroke="black" points="0,-0.5 0,-19.5 192,-19.5 192,-0.5 0,-0.5"/>
<text text-anchor="middle" x="96" y="-7.5" font-family="Helvetica,sans-Serif" font-size="10.00">tagEMRMODIFYWORLDTRANSFORM</text>
</a>
</g>
</g>
<!-- Node2 -->
<g id="node2" class="node">
<title>Node2</title>
<g id="a_node2"><a xlink:title=" ">
<polygon fill="none" stroke="#bfbfbf" points="13,-67.5 13,-86.5 51,-86.5 51,-67.5 13,-67.5"/>
<text text-anchor="middle" x="32" y="-74.5" font-family="Helvetica,sans-Serif" font-size="10.00">EMR</text>
</a>
</g>
</g>
<!-- Node2&#45;&gt;Node1 -->
<g id="edge1" class="edge">
<title>Node2&#45;&gt;Node1</title>
<path fill="none" stroke="#9a32cd" stroke-dasharray="5,2" d="M47.57,-59.91C54.16,-53.13 61.93,-45.16 69,-38 74.96,-31.96 81.71,-25.21 86.97,-19.97"/>
<polygon fill="#9a32cd" stroke="#9a32cd" points="44.94,-57.6 40.49,-67.21 49.97,-62.47 44.94,-57.6"/>
<text text-anchor="middle" x="80.5" y="-41" font-family="Helvetica,sans-Serif" font-size="10.00"> emr</text>
</g>
<!-- Node3 -->
<g id="node3" class="node">
<title>Node3</title>
<g id="a_node3"><a xlink:title=" ">
<polygon fill="none" stroke="#bfbfbf" points="69.5,-67.5 69.5,-86.5 122.5,-86.5 122.5,-67.5 69.5,-67.5"/>
<text text-anchor="middle" x="96" y="-74.5" font-family="Helvetica,sans-Serif" font-size="10.00">XFORM</text>
</a>
</g>
</g>
<!-- Node3&#45;&gt;Node1 -->
<g id="edge2" class="edge">
<title>Node3&#45;&gt;Node1</title>
<path fill="none" stroke="#9a32cd" stroke-dasharray="5,2" d="M96,-57.04C96,-44.67 96,-29.12 96,-19.63"/>
<polygon fill="#9a32cd" stroke="#9a32cd" points="92.5,-57.23 96,-67.23 99.5,-57.23 92.5,-57.23"/>
<text text-anchor="middle" x="112.5" y="-41" font-family="Helvetica,sans-Serif" font-size="10.00"> xform</text>
</g>
<!-- Node4 -->
<g id="node4" class="node">
<title>Node4</title>
<g id="a_node4"><a xlink:title=" ">
<polygon fill="none" stroke="#bfbfbf" points="141,-67.5 141,-86.5 179,-86.5 179,-67.5 141,-67.5"/>
<text text-anchor="middle" x="160" y="-74.5" font-family="Helvetica,sans-Serif" font-size="10.00">long</text>
</a>
</g>
</g>
<!-- Node4&#45;&gt;Node1 -->
<g id="edge3" class="edge">
<title>Node4&#45;&gt;Node1</title>
<path fill="none" stroke="#9a32cd" stroke-dasharray="5,2" d="M149.42,-58.68C144.83,-51.85 139.1,-44.18 133,-38 126.07,-30.98 117.17,-24.43 109.84,-19.54"/>
<polygon fill="#9a32cd" stroke="#9a32cd" points="146.58,-60.72 154.92,-67.25 152.47,-56.94 146.58,-60.72"/>
<text text-anchor="middle" x="159" y="-41" font-family="Helvetica,sans-Serif" font-size="10.00"> iMode</text>
</g>
</g>
</svg>
