<?xml version="1.0" encoding="UTF-8" standalone="no"?>
<!DOCTYPE svg PUBLIC "-//W3C//DTD SVG 1.1//EN"
 "http://www.w3.org/Graphics/SVG/1.1/DTD/svg11.dtd">
<!-- Generated by graphviz version 2.43.0 (0)
 -->
<!-- Title: Engine/libspeex/kiss_fft.c Pages: 1 -->
<svg width="371pt" height="386pt"
 viewBox="0.00 0.00 370.50 386.00" xmlns="http://www.w3.org/2000/svg" xmlns:xlink="http://www.w3.org/1999/xlink">
<g id="graph0" class="graph" transform="scale(1 1) rotate(0) translate(4 382)">
<title>Engine/libspeex/kiss_fft.c</title>
<!-- Node1 -->
<g id="node1" class="node">
<title>Node1</title>
<g id="a_node1"><a xlink:title=" ">
<polygon fill="#bfbfbf" stroke="black" points="26.5,-347.5 26.5,-377.5 142.5,-377.5 142.5,-347.5 26.5,-347.5"/>
<text text-anchor="start" x="34.5" y="-365.5" font-family="Helvetica,sans-Serif" font-size="10.00">Engine/libspeex/kiss</text>
<text text-anchor="middle" x="84.5" y="-354.5" font-family="Helvetica,sans-Serif" font-size="10.00">_fft.c</text>
</a>
</g>
</g>
<!-- Node2 -->
<g id="node2" class="node">
<title>Node2</title>
<g id="a_node2"><a xlink:href="../../d3/d74/__kiss__fft__guts_8h.html" target="_top" xlink:title=" ">
<polygon fill="none" stroke="black" points="38.5,-291.5 38.5,-310.5 130.5,-310.5 130.5,-291.5 38.5,-291.5"/>
<text text-anchor="middle" x="84.5" y="-298.5" font-family="Helvetica,sans-Serif" font-size="10.00">_kiss_fft_guts.h</text>
</a>
</g>
</g>
<!-- Node1&#45;&gt;Node2 -->
<g id="edge1" class="edge">
<title>Node1&#45;&gt;Node2</title>
<path fill="none" stroke="midnightblue" d="M84.5,-347.4C84.5,-339.47 84.5,-329.46 84.5,-320.86"/>
<polygon fill="midnightblue" stroke="midnightblue" points="88,-320.66 84.5,-310.66 81,-320.66 88,-320.66"/>
</g>
<!-- Node6 -->
<g id="node6" class="node">
<title>Node6</title>
<g id="a_node6"><a xlink:href="../../d2/d2d/arch_8h.html" target="_top" xlink:title="Various architecture definitions Speex.">
<polygon fill="none" stroke="black" points="36,-179.5 36,-198.5 83,-198.5 83,-179.5 36,-179.5"/>
<text text-anchor="middle" x="59.5" y="-186.5" font-family="Helvetica,sans-Serif" font-size="10.00">arch.h</text>
</a>
</g>
</g>
<!-- Node1&#45;&gt;Node6 -->
<g id="edge11" class="edge">
<title>Node1&#45;&gt;Node6</title>
<path fill="none" stroke="midnightblue" d="M65.51,-347.47C53.92,-338.15 39.47,-325.07 29.5,-311 13.84,-288.91 10.94,-281.53 5.5,-255 3.71,-246.29 1.73,-243.05 5.5,-235 11.54,-222.09 23.31,-211.6 34.32,-204"/>
<polygon fill="midnightblue" stroke="midnightblue" points="36.33,-206.87 42.87,-198.54 32.56,-200.97 36.33,-206.87"/>
</g>
<!-- Node11 -->
<g id="node11" class="node">
<title>Node11</title>
<g id="a_node11"><a xlink:href="../../d8/dbc/os__support_8h.html" target="_top" xlink:title=" ">
<polygon fill="none" stroke="black" points="200,-291.5 200,-310.5 279,-310.5 279,-291.5 200,-291.5"/>
<text text-anchor="middle" x="239.5" y="-298.5" font-family="Helvetica,sans-Serif" font-size="10.00">os_support.h</text>
</a>
</g>
</g>
<!-- Node1&#45;&gt;Node11 -->
<g id="edge12" class="edge">
<title>Node1&#45;&gt;Node11</title>
<path fill="none" stroke="midnightblue" d="M121.23,-347.4C147.47,-337.33 182.43,-323.91 207.52,-314.28"/>
<polygon fill="midnightblue" stroke="midnightblue" points="208.86,-317.51 216.95,-310.66 206.36,-310.97 208.86,-317.51"/>
</g>
<!-- Node3 -->
<g id="node3" class="node">
<title>Node3</title>
<g id="a_node3"><a xlink:href="../../d0/dc9/kiss__fft_8h.html" target="_top" xlink:title=" ">
<polygon fill="none" stroke="black" points="123,-235.5 123,-254.5 184,-254.5 184,-235.5 123,-235.5"/>
<text text-anchor="middle" x="153.5" y="-242.5" font-family="Helvetica,sans-Serif" font-size="10.00">kiss_fft.h</text>
</a>
</g>
</g>
<!-- Node2&#45;&gt;Node3 -->
<g id="edge2" class="edge">
<title>Node2&#45;&gt;Node3</title>
<path fill="none" stroke="midnightblue" d="M95.59,-291.32C105.99,-283.18 121.76,-270.84 134.22,-261.09"/>
<polygon fill="midnightblue" stroke="midnightblue" points="136.49,-263.75 142.21,-254.83 132.18,-258.24 136.49,-263.75"/>
</g>
<!-- Node10 -->
<g id="node10" class="node">
<title>Node10</title>
<g id="a_node10"><a xlink:href="../../d9/d28/math__approx_8h.html" target="_top" xlink:title="Various math approximation functions for Speex.">
<polygon fill="none" stroke="black" points="14.5,-235.5 14.5,-254.5 104.5,-254.5 104.5,-235.5 14.5,-235.5"/>
<text text-anchor="middle" x="59.5" y="-242.5" font-family="Helvetica,sans-Serif" font-size="10.00">math_approx.h</text>
</a>
</g>
</g>
<!-- Node2&#45;&gt;Node10 -->
<g id="edge9" class="edge">
<title>Node2&#45;&gt;Node10</title>
<path fill="none" stroke="midnightblue" d="M80.37,-291.08C76.99,-283.77 72.08,-273.18 67.88,-264.1"/>
<polygon fill="midnightblue" stroke="midnightblue" points="70.93,-262.36 63.55,-254.75 64.58,-265.3 70.93,-262.36"/>
</g>
<!-- Node4 -->
<g id="node4" class="node">
<title>Node4</title>
<g id="a_node4"><a xlink:title=" ">
<polygon fill="none" stroke="#bfbfbf" points="186,-179.5 186,-198.5 239,-198.5 239,-179.5 186,-179.5"/>
<text text-anchor="middle" x="212.5" y="-186.5" font-family="Helvetica,sans-Serif" font-size="10.00">stdlib.h</text>
</a>
</g>
</g>
<!-- Node3&#45;&gt;Node4 -->
<g id="edge3" class="edge">
<title>Node3&#45;&gt;Node4</title>
<path fill="none" stroke="midnightblue" d="M162.98,-235.32C171.7,-227.34 184.84,-215.31 195.4,-205.65"/>
<polygon fill="midnightblue" stroke="midnightblue" points="197.83,-208.17 202.85,-198.83 193.11,-203 197.83,-208.17"/>
</g>
<!-- Node5 -->
<g id="node5" class="node">
<title>Node5</title>
<g id="a_node5"><a xlink:title=" ">
<polygon fill="none" stroke="#bfbfbf" points="117,-179.5 117,-198.5 168,-198.5 168,-179.5 117,-179.5"/>
<text text-anchor="middle" x="142.5" y="-186.5" font-family="Helvetica,sans-Serif" font-size="10.00">math.h</text>
</a>
</g>
</g>
<!-- Node3&#45;&gt;Node5 -->
<g id="edge4" class="edge">
<title>Node3&#45;&gt;Node5</title>
<path fill="none" stroke="midnightblue" d="M151.68,-235.08C150.23,-227.93 148.13,-217.64 146.31,-208.69"/>
<polygon fill="midnightblue" stroke="midnightblue" points="149.71,-207.85 144.28,-198.75 142.85,-209.25 149.71,-207.85"/>
</g>
<!-- Node3&#45;&gt;Node6 -->
<g id="edge5" class="edge">
<title>Node3&#45;&gt;Node6</title>
<path fill="none" stroke="midnightblue" d="M138.4,-235.32C123.6,-226.82 100.81,-213.73 83.52,-203.8"/>
<polygon fill="midnightblue" stroke="midnightblue" points="84.98,-200.6 74.57,-198.65 81.49,-206.67 84.98,-200.6"/>
</g>
<!-- Node7 -->
<g id="node7" class="node">
<title>Node7</title>
<g id="a_node7"><a xlink:href="../../d8/df4/speex__types_8h.html" target="_top" xlink:title="Speex types.">
<polygon fill="none" stroke="black" points="0,-123.5 0,-142.5 119,-142.5 119,-123.5 0,-123.5"/>
<text text-anchor="middle" x="59.5" y="-130.5" font-family="Helvetica,sans-Serif" font-size="10.00">speex/speex_types.h</text>
</a>
</g>
</g>
<!-- Node6&#45;&gt;Node7 -->
<g id="edge6" class="edge">
<title>Node6&#45;&gt;Node7</title>
<path fill="none" stroke="midnightblue" d="M59.5,-179.08C59.5,-172.01 59.5,-161.86 59.5,-152.99"/>
<polygon fill="midnightblue" stroke="midnightblue" points="63,-152.75 59.5,-142.75 56,-152.75 63,-152.75"/>
</g>
<!-- Node8 -->
<g id="node8" class="node">
<title>Node8</title>
<g id="a_node8"><a xlink:href="../../d8/d6d/speex__config__types_8h.html" target="_top" xlink:title=" ">
<polygon fill="none" stroke="black" points="3,-56.5 3,-86.5 116,-86.5 116,-56.5 3,-56.5"/>
<text text-anchor="start" x="11" y="-74.5" font-family="Helvetica,sans-Serif" font-size="10.00">speex/speex_config</text>
<text text-anchor="middle" x="59.5" y="-63.5" font-family="Helvetica,sans-Serif" font-size="10.00">_types.h</text>
</a>
</g>
</g>
<!-- Node7&#45;&gt;Node8 -->
<g id="edge7" class="edge">
<title>Node7&#45;&gt;Node8</title>
<path fill="none" stroke="midnightblue" d="M59.5,-123.48C59.5,-116.47 59.5,-106.19 59.5,-96.7"/>
<polygon fill="midnightblue" stroke="midnightblue" points="63,-96.52 59.5,-86.52 56,-96.52 63,-96.52"/>
</g>
<!-- Node9 -->
<g id="node9" class="node">
<title>Node9</title>
<g id="a_node9"><a xlink:title=" ">
<polygon fill="none" stroke="#bfbfbf" points="33,-0.5 33,-19.5 86,-19.5 86,-0.5 33,-0.5"/>
<text text-anchor="middle" x="59.5" y="-7.5" font-family="Helvetica,sans-Serif" font-size="10.00">stdint.h</text>
</a>
</g>
</g>
<!-- Node8&#45;&gt;Node9 -->
<g id="edge8" class="edge">
<title>Node8&#45;&gt;Node9</title>
<path fill="none" stroke="midnightblue" d="M59.5,-56.4C59.5,-48.47 59.5,-38.46 59.5,-29.86"/>
<polygon fill="midnightblue" stroke="midnightblue" points="63,-29.66 59.5,-19.66 56,-29.66 63,-29.66"/>
</g>
<!-- Node10&#45;&gt;Node6 -->
<g id="edge10" class="edge">
<title>Node10&#45;&gt;Node6</title>
<path fill="none" stroke="midnightblue" d="M59.5,-235.08C59.5,-228.01 59.5,-217.86 59.5,-208.99"/>
<polygon fill="midnightblue" stroke="midnightblue" points="63,-208.75 59.5,-198.75 56,-208.75 63,-208.75"/>
</g>
<!-- Node11&#45;&gt;Node4 -->
<g id="edge15" class="edge">
<title>Node11&#45;&gt;Node4</title>
<path fill="none" stroke="midnightblue" d="M237.38,-291.37C233.02,-273.62 222.97,-232.67 217.06,-208.6"/>
<polygon fill="midnightblue" stroke="midnightblue" points="220.39,-207.47 214.61,-198.59 213.59,-209.14 220.39,-207.47"/>
</g>
<!-- Node12 -->
<g id="node12" class="node">
<title>Node12</title>
<g id="a_node12"><a xlink:title=" ">
<polygon fill="none" stroke="#bfbfbf" points="241,-235.5 241,-254.5 294,-254.5 294,-235.5 241,-235.5"/>
<text text-anchor="middle" x="267.5" y="-242.5" font-family="Helvetica,sans-Serif" font-size="10.00">string.h</text>
</a>
</g>
</g>
<!-- Node11&#45;&gt;Node12 -->
<g id="edge13" class="edge">
<title>Node11&#45;&gt;Node12</title>
<path fill="none" stroke="midnightblue" d="M244.12,-291.08C247.96,-283.69 253.52,-272.95 258.26,-263.81"/>
<polygon fill="midnightblue" stroke="midnightblue" points="261.47,-265.24 262.96,-254.75 255.25,-262.02 261.47,-265.24"/>
</g>
<!-- Node13 -->
<g id="node13" class="node">
<title>Node13</title>
<g id="a_node13"><a xlink:title=" ">
<polygon fill="none" stroke="#bfbfbf" points="312.5,-235.5 312.5,-254.5 362.5,-254.5 362.5,-235.5 312.5,-235.5"/>
<text text-anchor="middle" x="337.5" y="-242.5" font-family="Helvetica,sans-Serif" font-size="10.00">stdio.h</text>
</a>
</g>
</g>
<!-- Node11&#45;&gt;Node13 -->
<g id="edge14" class="edge">
<title>Node11&#45;&gt;Node13</title>
<path fill="none" stroke="midnightblue" d="M255.25,-291.32C270.82,-282.74 294.88,-269.49 312.96,-259.52"/>
<polygon fill="midnightblue" stroke="midnightblue" points="314.72,-262.55 321.79,-254.65 311.35,-256.42 314.72,-262.55"/>
</g>
</g>
</svg>
