<?xml version="1.0" encoding="UTF-8" standalone="no"?>
<!DOCTYPE svg PUBLIC "-//W3C//DTD SVG 1.1//EN"
 "http://www.w3.org/Graphics/SVG/1.1/DTD/svg11.dtd">
<!-- Generated by graphviz version 2.43.0 (0)
 -->
<!-- Title: TT_MaxProfile_ Pages: 1 -->
<svg width="211pt" height="205pt"
 viewBox="0.00 0.00 211.00 205.00" xmlns="http://www.w3.org/2000/svg" xmlns:xlink="http://www.w3.org/1999/xlink">
<g id="graph0" class="graph" transform="scale(1 1) rotate(0) translate(4 201)">
<title>TT_MaxProfile_</title>
<!-- Node1 -->
<g id="node1" class="node">
<title>Node1</title>
<g id="a_node1"><a xlink:title=" ">
<polygon fill="#bfbfbf" stroke="black" points="7.5,-0.5 7.5,-19.5 98.5,-19.5 98.5,-0.5 7.5,-0.5"/>
<text text-anchor="middle" x="53" y="-7.5" font-family="Helvetica,sans-Serif" font-size="10.00">TT_MaxProfile_</text>
</a>
</g>
</g>
<!-- Node2 -->
<g id="node2" class="node">
<title>Node2</title>
<g id="a_node2"><a xlink:title=" ">
<polygon fill="none" stroke="#bfbfbf" points="0,-177.5 0,-196.5 38,-196.5 38,-177.5 0,-177.5"/>
<text text-anchor="middle" x="19" y="-184.5" font-family="Helvetica,sans-Serif" font-size="10.00">long</text>
</a>
</g>
</g>
<!-- Node2&#45;&gt;Node1 -->
<g id="edge1" class="edge">
<title>Node2&#45;&gt;Node1</title>
<path fill="none" stroke="#9a32cd" stroke-dasharray="5,2" d="M15.53,-167.53C10.98,-138.5 5.66,-81.08 25,-38 28.32,-30.61 34.68,-24.21 40.5,-19.5"/>
<polygon fill="#9a32cd" stroke="#9a32cd" points="12.1,-168.23 17.24,-177.49 19,-167.04 12.1,-168.23"/>
<text text-anchor="middle" x="45" y="-96" font-family="Helvetica,sans-Serif" font-size="10.00"> version</text>
</g>
<!-- Node3 -->
<g id="node3" class="node">
<title>Node3</title>
<g id="a_node3"><a xlink:title=" ">
<polygon fill="none" stroke="#bfbfbf" points="56.5,-177.5 56.5,-196.5 117.5,-196.5 117.5,-177.5 56.5,-177.5"/>
<text text-anchor="middle" x="87" y="-184.5" font-family="Helvetica,sans-Serif" font-size="10.00">unsigned</text>
</a>
</g>
</g>
<!-- Node3&#45;&gt;Node1 -->
<g id="edge2" class="edge">
<title>Node3&#45;&gt;Node1</title>
<path fill="none" stroke="#9a32cd" stroke-dasharray="5,2" d="M85.85,-167.4C83.74,-139.01 78.19,-83.38 65,-38 63.17,-31.7 60.17,-24.95 57.63,-19.77"/>
<polygon fill="#9a32cd" stroke="#9a32cd" points="82.37,-167.75 86.54,-177.48 89.35,-167.27 82.37,-167.75"/>
<text text-anchor="middle" x="144" y="-151" font-family="Helvetica,sans-Serif" font-size="10.00"> maxComponentDepth</text>
<text text-anchor="middle" x="144" y="-140" font-family="Helvetica,sans-Serif" font-size="10.00">maxStackElements</text>
<text text-anchor="middle" x="144" y="-129" font-family="Helvetica,sans-Serif" font-size="10.00">maxContours</text>
<text text-anchor="middle" x="144" y="-118" font-family="Helvetica,sans-Serif" font-size="10.00">maxCompositeContours</text>
<text text-anchor="middle" x="144" y="-107" font-family="Helvetica,sans-Serif" font-size="10.00">maxSizeOfInstructions</text>
<text text-anchor="middle" x="144" y="-96" font-family="Helvetica,sans-Serif" font-size="10.00">maxCompositePoints</text>
<text text-anchor="middle" x="144" y="-85" font-family="Helvetica,sans-Serif" font-size="10.00">numGlyphs</text>
<text text-anchor="middle" x="144" y="-74" font-family="Helvetica,sans-Serif" font-size="10.00">maxFunctionDefs</text>
<text text-anchor="middle" x="144" y="-63" font-family="Helvetica,sans-Serif" font-size="10.00">maxPoints</text>
<text text-anchor="middle" x="144" y="-52" font-family="Helvetica,sans-Serif" font-size="10.00">maxStorage</text>
<text text-anchor="middle" x="144" y="-41" font-family="Helvetica,sans-Serif" font-size="10.00">...</text>
</g>
</g>
</svg>
