<?xml version="1.0" encoding="UTF-8" standalone="no"?>
<!DOCTYPE svg PUBLIC "-//W3C//DTD SVG 1.1//EN"
 "http://www.w3.org/Graphics/SVG/1.1/DTD/svg11.dtd">
<!-- Generated by graphviz version 2.43.0 (0)
 -->
<!-- Title: _WINDOWPLACEMENT Pages: 1 -->
<svg width="279pt" height="117pt"
 viewBox="0.00 0.00 279.00 117.00" xmlns="http://www.w3.org/2000/svg" xmlns:xlink="http://www.w3.org/1999/xlink">
<g id="graph0" class="graph" transform="scale(1 1) rotate(0) translate(4 113)">
<title>_WINDOWPLACEMENT</title>
<!-- Node1 -->
<g id="node1" class="node">
<title>Node1</title>
<g id="a_node1"><a xlink:title=" ">
<polygon fill="#bfbfbf" stroke="black" points="68.5,-0.5 68.5,-19.5 195.5,-19.5 195.5,-0.5 68.5,-0.5"/>
<text text-anchor="middle" x="132" y="-7.5" font-family="Helvetica,sans-Serif" font-size="10.00">_WINDOWPLACEMENT</text>
</a>
</g>
</g>
<!-- Node2 -->
<g id="node2" class="node">
<title>Node2</title>
<g id="a_node2"><a xlink:title=" ">
<polygon fill="none" stroke="#bfbfbf" points="0,-89.5 0,-108.5 42,-108.5 42,-89.5 0,-89.5"/>
<text text-anchor="middle" x="21" y="-96.5" font-family="Helvetica,sans-Serif" font-size="10.00">RECT</text>
</a>
</g>
</g>
<!-- Node2&#45;&gt;Node1 -->
<g id="edge1" class="edge">
<title>Node2&#45;&gt;Node1</title>
<path fill="none" stroke="#9a32cd" stroke-dasharray="5,2" d="M22.4,-79.01C24.36,-65.83 29.01,-48.76 40,-38 48.68,-29.5 59.89,-23.65 71.49,-19.63"/>
<polygon fill="#9a32cd" stroke="#9a32cd" points="18.88,-79.03 21.28,-89.35 25.84,-79.78 18.88,-79.03"/>
<text text-anchor="middle" x="84" y="-52" font-family="Helvetica,sans-Serif" font-size="10.00"> rcNormalPosition</text>
</g>
<!-- Node3 -->
<g id="node3" class="node">
<title>Node3</title>
<g id="a_node3"><a xlink:title=" ">
<polygon fill="none" stroke="#bfbfbf" points="117.5,-89.5 117.5,-108.5 146.5,-108.5 146.5,-89.5 117.5,-89.5"/>
<text text-anchor="middle" x="132" y="-96.5" font-family="Helvetica,sans-Serif" font-size="10.00">int</text>
</a>
</g>
</g>
<!-- Node3&#45;&gt;Node1 -->
<g id="edge2" class="edge">
<title>Node3&#45;&gt;Node1</title>
<path fill="none" stroke="#9a32cd" stroke-dasharray="5,2" d="M132,-79.19C132,-60.74 132,-33.41 132,-19.62"/>
<polygon fill="#9a32cd" stroke="#9a32cd" points="128.5,-79.34 132,-89.34 135.5,-79.34 128.5,-79.34"/>
<text text-anchor="middle" x="156.5" y="-63" font-family="Helvetica,sans-Serif" font-size="10.00"> flags</text>
<text text-anchor="middle" x="156.5" y="-52" font-family="Helvetica,sans-Serif" font-size="10.00">length</text>
<text text-anchor="middle" x="156.5" y="-41" font-family="Helvetica,sans-Serif" font-size="10.00">showCmd</text>
</g>
<!-- Node4 -->
<g id="node4" class="node">
<title>Node4</title>
<g id="a_node4"><a xlink:title=" ">
<polygon fill="none" stroke="#bfbfbf" points="180.5,-89.5 180.5,-108.5 227.5,-108.5 227.5,-89.5 180.5,-89.5"/>
<text text-anchor="middle" x="204" y="-96.5" font-family="Helvetica,sans-Serif" font-size="10.00">POINT</text>
</a>
</g>
</g>
<!-- Node4&#45;&gt;Node1 -->
<g id="edge3" class="edge">
<title>Node4&#45;&gt;Node1</title>
<path fill="none" stroke="#9a32cd" stroke-dasharray="5,2" d="M200.75,-79.22C197.73,-66.4 192.11,-49.68 182,-38 175.03,-29.94 165.04,-23.88 155.82,-19.56"/>
<polygon fill="#9a32cd" stroke="#9a32cd" points="197.37,-80.16 202.79,-89.27 204.23,-78.77 197.37,-80.16"/>
<text text-anchor="middle" x="234.5" y="-57.5" font-family="Helvetica,sans-Serif" font-size="10.00"> ptMaxPosition</text>
<text text-anchor="middle" x="234.5" y="-46.5" font-family="Helvetica,sans-Serif" font-size="10.00">ptMinPosition</text>
</g>
</g>
</svg>
