<?xml version="1.0" encoding="UTF-8" standalone="no"?>
<!DOCTYPE svg PUBLIC "-//W3C//DTD SVG 1.1//EN"
 "http://www.w3.org/Graphics/SVG/1.1/DTD/svg11.dtd">
<!-- Generated by graphviz version 2.43.0 (0)
 -->
<!-- Title: Tools/MinGW/include/strings.h Pages: 1 -->
<svg width="2252pt" height="620pt"
 viewBox="0.00 0.00 2251.50 620.00" xmlns="http://www.w3.org/2000/svg" xmlns:xlink="http://www.w3.org/1999/xlink">
<g id="graph0" class="graph" transform="scale(1 1) rotate(0) translate(4 616)">
<title>Tools/MinGW/include/strings.h</title>
<!-- Node1 -->
<g id="node1" class="node">
<title>Node1</title>
<g id="a_node1"><a xlink:title=" ">
<polygon fill="#bfbfbf" stroke="black" points="1064.5,-581.5 1064.5,-611.5 1182.5,-611.5 1182.5,-581.5 1064.5,-581.5"/>
<text text-anchor="start" x="1072.5" y="-599.5" font-family="Helvetica,sans-Serif" font-size="10.00">Tools/MinGW/include</text>
<text text-anchor="middle" x="1123.5" y="-588.5" font-family="Helvetica,sans-Serif" font-size="10.00">/strings.h</text>
</a>
</g>
</g>
<!-- Node2 -->
<g id="node2" class="node">
<title>Node2</title>
<g id="a_node2"><a xlink:href="../../de/d55/Tools_2MinGW_2include_2SDL_2SDL__stdinc_8h.html" target="_top" xlink:title=" ">
<polygon fill="none" stroke="black" points="1064.5,-514.5 1064.5,-544.5 1182.5,-544.5 1182.5,-514.5 1064.5,-514.5"/>
<text text-anchor="start" x="1072.5" y="-532.5" font-family="Helvetica,sans-Serif" font-size="10.00">Tools/MinGW/include</text>
<text text-anchor="middle" x="1123.5" y="-521.5" font-family="Helvetica,sans-Serif" font-size="10.00">/SDL/SDL_stdinc.h</text>
</a>
</g>
</g>
<!-- Node1&#45;&gt;Node2 -->
<g id="edge1" class="edge">
<title>Node1&#45;&gt;Node2</title>
<path fill="none" stroke="midnightblue" d="M1123.5,-571.11C1123.5,-562.15 1123.5,-552.32 1123.5,-544.58"/>
<polygon fill="midnightblue" stroke="midnightblue" points="1120,-571.4 1123.5,-581.4 1127,-571.4 1120,-571.4"/>
</g>
<!-- Node3 -->
<g id="node3" class="node">
<title>Node3</title>
<g id="a_node3"><a xlink:href="../../d2/ddb/Tools_2MinGW_2include_2SDL_2SDL__main_8h.html" target="_top" xlink:title=" ">
<polygon fill="none" stroke="black" points="1750.5,-313.5 1750.5,-343.5 1868.5,-343.5 1868.5,-313.5 1750.5,-313.5"/>
<text text-anchor="start" x="1758.5" y="-331.5" font-family="Helvetica,sans-Serif" font-size="10.00">Tools/MinGW/include</text>
<text text-anchor="middle" x="1809.5" y="-320.5" font-family="Helvetica,sans-Serif" font-size="10.00">/SDL/SDL_main.h</text>
</a>
</g>
</g>
<!-- Node2&#45;&gt;Node3 -->
<g id="edge2" class="edge">
<title>Node2&#45;&gt;Node3</title>
<path fill="none" stroke="midnightblue" d="M1192.79,-526.92C1345.99,-522.84 1703.44,-509.99 1747.5,-478 1792.26,-445.5 1804.87,-374.44 1808.29,-343.91"/>
<polygon fill="midnightblue" stroke="midnightblue" points="1192.47,-523.42 1182.56,-527.18 1192.65,-530.42 1192.47,-523.42"/>
</g>
<!-- Node4 -->
<g id="node4" class="node">
<title>Node4</title>
<g id="a_node4"><a xlink:href="../../d7/da3/Tools_2MinGW_2include_2SDL_2SDL_8h.html" target="_top" xlink:title=" ">
<polygon fill="none" stroke="black" points="1451.5,-112.5 1451.5,-142.5 1569.5,-142.5 1569.5,-112.5 1451.5,-112.5"/>
<text text-anchor="start" x="1459.5" y="-130.5" font-family="Helvetica,sans-Serif" font-size="10.00">Tools/MinGW/include</text>
<text text-anchor="middle" x="1510.5" y="-119.5" font-family="Helvetica,sans-Serif" font-size="10.00">/SDL/SDL.h</text>
</a>
</g>
</g>
<!-- Node2&#45;&gt;Node4 -->
<g id="edge12" class="edge">
<title>Node2&#45;&gt;Node4</title>
<path fill="none" stroke="midnightblue" d="M1193.02,-525.43C1334.89,-517.55 1649.86,-491.21 1714.5,-411 1794.4,-311.84 1604.97,-184.75 1535.11,-142.7"/>
<polygon fill="midnightblue" stroke="midnightblue" points="1192.49,-521.96 1182.7,-525.99 1192.87,-528.94 1192.49,-521.96"/>
</g>
<!-- Node12 -->
<g id="node12" class="node">
<title>Node12</title>
<g id="a_node12"><a xlink:href="../../d6/d58/Tools_2MinGW_2include_2SDL_2SDL__audio_8h.html" target="_top" xlink:title=" ">
<polygon fill="none" stroke="black" points="318.5,-246.5 318.5,-276.5 436.5,-276.5 436.5,-246.5 318.5,-246.5"/>
<text text-anchor="start" x="326.5" y="-264.5" font-family="Helvetica,sans-Serif" font-size="10.00">Tools/MinGW/include</text>
<text text-anchor="middle" x="377.5" y="-253.5" font-family="Helvetica,sans-Serif" font-size="10.00">/SDL/SDL_audio.h</text>
</a>
</g>
</g>
<!-- Node2&#45;&gt;Node12 -->
<g id="edge13" class="edge">
<title>Node2&#45;&gt;Node12</title>
<path fill="none" stroke="midnightblue" d="M1054.28,-529.31C915.98,-529.87 610.95,-525.49 519.5,-478 436,-434.63 393.94,-317.4 381.52,-276.67"/>
<polygon fill="midnightblue" stroke="midnightblue" points="1054.36,-532.81 1064.34,-529.26 1054.32,-525.81 1054.36,-532.81"/>
</g>
<!-- Node14 -->
<g id="node14" class="node">
<title>Node14</title>
<g id="a_node14"><a xlink:href="../../d8/de4/Tools_2MinGW_2include_2SDL_2SDL__error_8h.html" target="_top" xlink:title=" ">
<polygon fill="none" stroke="black" points="977.5,-447.5 977.5,-477.5 1095.5,-477.5 1095.5,-447.5 977.5,-447.5"/>
<text text-anchor="start" x="985.5" y="-465.5" font-family="Helvetica,sans-Serif" font-size="10.00">Tools/MinGW/include</text>
<text text-anchor="middle" x="1036.5" y="-454.5" font-family="Helvetica,sans-Serif" font-size="10.00">/SDL/SDL_error.h</text>
</a>
</g>
</g>
<!-- Node2&#45;&gt;Node14 -->
<g id="edge16" class="edge">
<title>Node2&#45;&gt;Node14</title>
<path fill="none" stroke="midnightblue" d="M1096.29,-508.17C1082.98,-498.23 1067.3,-486.51 1055.34,-477.58"/>
<polygon fill="midnightblue" stroke="midnightblue" points="1094.52,-511.21 1104.62,-514.4 1098.71,-505.61 1094.52,-511.21"/>
</g>
<!-- Node15 -->
<g id="node15" class="node">
<title>Node15</title>
<g id="a_node15"><a xlink:href="../../d2/dbd/Tools_2MinGW_2include_2SDL_2SDL__mutex_8h.html" target="_top" xlink:title=" ">
<polygon fill="none" stroke="black" points="215.5,-380.5 215.5,-410.5 333.5,-410.5 333.5,-380.5 215.5,-380.5"/>
<text text-anchor="start" x="223.5" y="-398.5" font-family="Helvetica,sans-Serif" font-size="10.00">Tools/MinGW/include</text>
<text text-anchor="middle" x="274.5" y="-387.5" font-family="Helvetica,sans-Serif" font-size="10.00">/SDL/SDL_mutex.h</text>
</a>
</g>
</g>
<!-- Node2&#45;&gt;Node15 -->
<g id="edge59" class="edge">
<title>Node2&#45;&gt;Node15</title>
<path fill="none" stroke="midnightblue" d="M1054.09,-528.65C894.74,-528.22 507.05,-522.48 385.5,-478 345.54,-463.37 307.48,-429.69 288,-410.51"/>
<polygon fill="midnightblue" stroke="midnightblue" points="1054.25,-532.15 1064.26,-528.68 1054.26,-525.16 1054.25,-532.15"/>
</g>
<!-- Node16 -->
<g id="node16" class="node">
<title>Node16</title>
<g id="a_node16"><a xlink:href="../../da/d6a/Tools_2MinGW_2include_2SDL_2SDL__thread_8h.html" target="_top" xlink:title=" ">
<polygon fill="none" stroke="black" points="215.5,-313.5 215.5,-343.5 333.5,-343.5 333.5,-313.5 215.5,-313.5"/>
<text text-anchor="start" x="223.5" y="-331.5" font-family="Helvetica,sans-Serif" font-size="10.00">Tools/MinGW/include</text>
<text text-anchor="middle" x="274.5" y="-320.5" font-family="Helvetica,sans-Serif" font-size="10.00">/SDL/SDL_thread.h</text>
</a>
</g>
</g>
<!-- Node2&#45;&gt;Node16 -->
<g id="edge60" class="edge">
<title>Node2&#45;&gt;Node16</title>
<path fill="none" stroke="midnightblue" d="M1054.33,-527.92C887.07,-525.91 464.6,-517.02 329.5,-478 269.69,-460.73 238.29,-464.52 206.5,-411 199.46,-399.15 200.31,-392.31 206.5,-380 214.49,-364.1 230.12,-351.95 244.38,-343.56"/>
<polygon fill="midnightblue" stroke="midnightblue" points="1054.45,-531.42 1064.49,-528.04 1054.53,-524.42 1054.45,-531.42"/>
</g>
<!-- Node17 -->
<g id="node17" class="node">
<title>Node17</title>
<g id="a_node17"><a xlink:href="../../de/d7a/Tools_2MinGW_2include_2SDL_2SDL__rwops_8h.html" target="_top" xlink:title=" ">
<polygon fill="none" stroke="black" points="503.5,-380.5 503.5,-410.5 621.5,-410.5 621.5,-380.5 503.5,-380.5"/>
<text text-anchor="start" x="511.5" y="-398.5" font-family="Helvetica,sans-Serif" font-size="10.00">Tools/MinGW/include</text>
<text text-anchor="middle" x="562.5" y="-387.5" font-family="Helvetica,sans-Serif" font-size="10.00">/SDL/SDL_rwops.h</text>
</a>
</g>
</g>
<!-- Node2&#45;&gt;Node17 -->
<g id="edge61" class="edge">
<title>Node2&#45;&gt;Node17</title>
<path fill="none" stroke="midnightblue" d="M1054.18,-527.42C937.34,-524.6 706.94,-514.45 635.5,-478 605.55,-462.72 582.12,-429.61 570.51,-410.63"/>
<polygon fill="midnightblue" stroke="midnightblue" points="1054.37,-530.92 1064.44,-527.66 1054.53,-523.93 1054.37,-530.92"/>
</g>
<!-- Node18 -->
<g id="node18" class="node">
<title>Node18</title>
<g id="a_node18"><a xlink:href="../../d3/d2f/Tools_2MinGW_2include_2SDL_2SDL__video_8h.html" target="_top" xlink:title=" ">
<polygon fill="none" stroke="black" points="704.5,-313.5 704.5,-343.5 822.5,-343.5 822.5,-313.5 704.5,-313.5"/>
<text text-anchor="start" x="712.5" y="-331.5" font-family="Helvetica,sans-Serif" font-size="10.00">Tools/MinGW/include</text>
<text text-anchor="middle" x="763.5" y="-320.5" font-family="Helvetica,sans-Serif" font-size="10.00">/SDL/SDL_video.h</text>
</a>
</g>
</g>
<!-- Node2&#45;&gt;Node18 -->
<g id="edge70" class="edge">
<title>Node2&#45;&gt;Node18</title>
<path fill="none" stroke="midnightblue" d="M1054.1,-519.72C945.92,-504.36 745.42,-468.68 706.5,-411 690.37,-387.1 719.54,-359.7 741.77,-343.54"/>
<polygon fill="midnightblue" stroke="midnightblue" points="1053.88,-523.22 1064.27,-521.14 1054.85,-516.29 1053.88,-523.22"/>
</g>
<!-- Node19 -->
<g id="node19" class="node">
<title>Node19</title>
<g id="a_node19"><a xlink:href="../../d6/dcf/Tools_2MinGW_2include_2SDL_2SDL__mouse_8h.html" target="_top" xlink:title=" ">
<polygon fill="none" stroke="black" points="1021.5,-246.5 1021.5,-276.5 1139.5,-276.5 1139.5,-246.5 1021.5,-246.5"/>
<text text-anchor="start" x="1029.5" y="-264.5" font-family="Helvetica,sans-Serif" font-size="10.00">Tools/MinGW/include</text>
<text text-anchor="middle" x="1080.5" y="-253.5" font-family="Helvetica,sans-Serif" font-size="10.00">/SDL/SDL_mouse.h</text>
</a>
</g>
</g>
<!-- Node2&#45;&gt;Node19 -->
<g id="edge69" class="edge">
<title>Node2&#45;&gt;Node19</title>
<path fill="none" stroke="midnightblue" d="M1119.55,-504.07C1110.74,-449.57 1089.72,-319.52 1082.77,-276.55"/>
<polygon fill="midnightblue" stroke="midnightblue" points="1116.14,-504.89 1121.19,-514.2 1123.05,-503.77 1116.14,-504.89"/>
</g>
<!-- Node20 -->
<g id="node20" class="node">
<title>Node20</title>
<g id="a_node20"><a xlink:href="../../db/d76/Tools_2MinGW_2include_2SDL_2SDL__events_8h.html" target="_top" xlink:title=" ">
<polygon fill="none" stroke="black" points="1064.5,-179.5 1064.5,-209.5 1182.5,-209.5 1182.5,-179.5 1064.5,-179.5"/>
<text text-anchor="start" x="1072.5" y="-197.5" font-family="Helvetica,sans-Serif" font-size="10.00">Tools/MinGW/include</text>
<text text-anchor="middle" x="1123.5" y="-186.5" font-family="Helvetica,sans-Serif" font-size="10.00">/SDL/SDL_events.h</text>
</a>
</g>
</g>
<!-- Node2&#45;&gt;Node20 -->
<g id="edge66" class="edge">
<title>Node2&#45;&gt;Node20</title>
<path fill="none" stroke="midnightblue" d="M1054.25,-524.97C962,-519.25 804.6,-505.72 754.5,-478 686.35,-440.3 648.58,-375.16 695.5,-313 739.95,-254.11 957.39,-217.58 1064.15,-202.9"/>
<polygon fill="midnightblue" stroke="midnightblue" points="1054.14,-528.47 1064.34,-525.57 1054.57,-521.48 1054.14,-528.47"/>
</g>
<!-- Node21 -->
<g id="node21" class="node">
<title>Node21</title>
<g id="a_node21"><a xlink:href="../../d2/df3/Tools_2MinGW_2include_2SDL_2SDL__cdrom_8h.html" target="_top" xlink:title=" ">
<polygon fill="none" stroke="black" points="1451.5,-380.5 1451.5,-410.5 1569.5,-410.5 1569.5,-380.5 1451.5,-380.5"/>
<text text-anchor="start" x="1459.5" y="-398.5" font-family="Helvetica,sans-Serif" font-size="10.00">Tools/MinGW/include</text>
<text text-anchor="middle" x="1510.5" y="-387.5" font-family="Helvetica,sans-Serif" font-size="10.00">/SDL/SDL_cdrom.h</text>
</a>
</g>
</g>
<!-- Node2&#45;&gt;Node21 -->
<g id="edge62" class="edge">
<title>Node2&#45;&gt;Node21</title>
<path fill="none" stroke="midnightblue" d="M1174.09,-511.24C1251.52,-484.83 1397.91,-434.9 1469.29,-410.56"/>
<polygon fill="midnightblue" stroke="midnightblue" points="1172.88,-507.96 1164.55,-514.5 1175.14,-514.58 1172.88,-507.96"/>
</g>
<!-- Node22 -->
<g id="node22" class="node">
<title>Node22</title>
<g id="a_node22"><a xlink:href="../../dd/dc0/Tools_2MinGW_2include_2SDL_2SDL__active_8h.html" target="_top" xlink:title=" ">
<polygon fill="none" stroke="black" points="715.5,-380.5 715.5,-410.5 833.5,-410.5 833.5,-380.5 715.5,-380.5"/>
<text text-anchor="start" x="723.5" y="-398.5" font-family="Helvetica,sans-Serif" font-size="10.00">Tools/MinGW/include</text>
<text text-anchor="middle" x="774.5" y="-387.5" font-family="Helvetica,sans-Serif" font-size="10.00">/SDL/SDL_active.h</text>
</a>
</g>
</g>
<!-- Node2&#45;&gt;Node22 -->
<g id="edge67" class="edge">
<title>Node2&#45;&gt;Node22</title>
<path fill="none" stroke="midnightblue" d="M1057.21,-511.83C1024.42,-502.94 984.46,-491.13 949.5,-478 895.53,-457.74 835.09,-427.91 801.23,-410.52"/>
<polygon fill="midnightblue" stroke="midnightblue" points="1056.58,-515.29 1067.15,-514.5 1058.4,-508.53 1056.58,-515.29"/>
</g>
<!-- Node23 -->
<g id="node23" class="node">
<title>Node23</title>
<g id="a_node23"><a xlink:href="../../d2/d26/Tools_2MinGW_2include_2SDL_2SDL__keyboard_8h.html" target="_top" xlink:title=" ">
<polygon fill="none" stroke="black" points="890,-380.5 890,-410.5 1009,-410.5 1009,-380.5 890,-380.5"/>
<text text-anchor="start" x="898" y="-398.5" font-family="Helvetica,sans-Serif" font-size="10.00">Tools/MinGW/include</text>
<text text-anchor="middle" x="949.5" y="-387.5" font-family="Helvetica,sans-Serif" font-size="10.00">/SDL/SDL_keyboard.h</text>
</a>
</g>
</g>
<!-- Node2&#45;&gt;Node23 -->
<g id="edge68" class="edge">
<title>Node2&#45;&gt;Node23</title>
<path fill="none" stroke="midnightblue" d="M1054.26,-521.24C1024.02,-514.61 990.5,-501.98 968.5,-478 951.51,-459.48 948.8,-428.77 948.84,-410.81"/>
<polygon fill="midnightblue" stroke="midnightblue" points="1053.88,-524.73 1064.37,-523.27 1055.25,-517.87 1053.88,-524.73"/>
</g>
<!-- Node24 -->
<g id="node24" class="node">
<title>Node24</title>
<g id="a_node24"><a xlink:href="../../d2/daa/Tools_2MinGW_2include_2SDL_2SDL__joystick_8h.html" target="_top" xlink:title=" ">
<polygon fill="none" stroke="black" points="1179.5,-380.5 1179.5,-410.5 1297.5,-410.5 1297.5,-380.5 1179.5,-380.5"/>
<text text-anchor="start" x="1187.5" y="-398.5" font-family="Helvetica,sans-Serif" font-size="10.00">Tools/MinGW/include</text>
<text text-anchor="middle" x="1238.5" y="-387.5" font-family="Helvetica,sans-Serif" font-size="10.00">/SDL/SDL_joystick.h</text>
</a>
</g>
</g>
<!-- Node2&#45;&gt;Node24 -->
<g id="edge71" class="edge">
<title>Node2&#45;&gt;Node24</title>
<path fill="none" stroke="midnightblue" d="M1142.63,-506.54C1166.4,-479.25 1206.28,-433.48 1226.28,-410.52"/>
<polygon fill="midnightblue" stroke="midnightblue" points="1139.74,-504.53 1135.81,-514.37 1145.01,-509.13 1139.74,-504.53"/>
</g>
<!-- Node25 -->
<g id="node25" class="node">
<title>Node25</title>
<g id="a_node25"><a xlink:href="../../d0/d2c/Tools_2MinGW_2include_2SDL_2SDL__quit_8h.html" target="_top" xlink:title=" ">
<polygon fill="none" stroke="black" points="1315.5,-380.5 1315.5,-410.5 1433.5,-410.5 1433.5,-380.5 1315.5,-380.5"/>
<text text-anchor="start" x="1323.5" y="-398.5" font-family="Helvetica,sans-Serif" font-size="10.00">Tools/MinGW/include</text>
<text text-anchor="middle" x="1374.5" y="-387.5" font-family="Helvetica,sans-Serif" font-size="10.00">/SDL/SDL_quit.h</text>
</a>
</g>
</g>
<!-- Node2&#45;&gt;Node25 -->
<g id="edge72" class="edge">
<title>Node2&#45;&gt;Node25</title>
<path fill="none" stroke="midnightblue" d="M1159.37,-509.63C1210.33,-482.84 1302.48,-434.37 1347.83,-410.52"/>
<polygon fill="midnightblue" stroke="midnightblue" points="1157.58,-506.62 1150.36,-514.37 1160.84,-512.82 1157.58,-506.62"/>
</g>
<!-- Node26 -->
<g id="node26" class="node">
<title>Node26</title>
<g id="a_node26"><a xlink:href="../../d9/d97/Tools_2MinGW_2include_2SDL_2SDL__loadso_8h.html" target="_top" xlink:title=" ">
<polygon fill="none" stroke="black" points="1868.5,-179.5 1868.5,-209.5 1986.5,-209.5 1986.5,-179.5 1868.5,-179.5"/>
<text text-anchor="start" x="1876.5" y="-197.5" font-family="Helvetica,sans-Serif" font-size="10.00">Tools/MinGW/include</text>
<text text-anchor="middle" x="1927.5" y="-186.5" font-family="Helvetica,sans-Serif" font-size="10.00">/SDL/SDL_loadso.h</text>
</a>
</g>
</g>
<!-- Node2&#45;&gt;Node26 -->
<g id="edge73" class="edge">
<title>Node2&#45;&gt;Node26</title>
<path fill="none" stroke="midnightblue" d="M1192.82,-529.03C1393.55,-529.97 1965.21,-528.15 2031.5,-478 2062.04,-454.89 2059.5,-434.8 2059.5,-396.5 2059.5,-396.5 2059.5,-396.5 2059.5,-327.5 2059.5,-270.62 1997.46,-229.69 1958.45,-209.58"/>
<polygon fill="midnightblue" stroke="midnightblue" points="1192.71,-525.53 1182.69,-528.98 1192.67,-532.53 1192.71,-525.53"/>
</g>
<!-- Node27 -->
<g id="node27" class="node">
<title>Node27</title>
<g id="a_node27"><a xlink:href="../../d5/ddc/Tools_2MinGW_2include_2SDL_2SDL__timer_8h.html" target="_top" xlink:title=" ">
<polygon fill="none" stroke="black" points="1587.5,-380.5 1587.5,-410.5 1705.5,-410.5 1705.5,-380.5 1587.5,-380.5"/>
<text text-anchor="start" x="1595.5" y="-398.5" font-family="Helvetica,sans-Serif" font-size="10.00">Tools/MinGW/include</text>
<text text-anchor="middle" x="1646.5" y="-387.5" font-family="Helvetica,sans-Serif" font-size="10.00">/SDL/SDL_timer.h</text>
</a>
</g>
</g>
<!-- Node2&#45;&gt;Node27 -->
<g id="edge74" class="edge">
<title>Node2&#45;&gt;Node27</title>
<path fill="none" stroke="midnightblue" d="M1192.07,-512.13C1232.65,-502.37 1285.05,-489.65 1331.5,-478 1423.69,-454.88 1530.76,-426.95 1593.34,-410.51"/>
<polygon fill="midnightblue" stroke="midnightblue" points="1191.19,-508.74 1182.28,-514.48 1192.82,-515.54 1191.19,-508.74"/>
</g>
<!-- Node28 -->
<g id="node28" class="node">
<title>Node28</title>
<g id="a_node28"><a xlink:href="../../dd/d90/Tools_2MinGW_2include_2SDL_2SDL__syswm_8h.html" target="_top" xlink:title=" ">
<polygon fill="none" stroke="black" points="1837.5,-380.5 1837.5,-410.5 1955.5,-410.5 1955.5,-380.5 1837.5,-380.5"/>
<text text-anchor="start" x="1845.5" y="-398.5" font-family="Helvetica,sans-Serif" font-size="10.00">Tools/MinGW/include</text>
<text text-anchor="middle" x="1896.5" y="-387.5" font-family="Helvetica,sans-Serif" font-size="10.00">/SDL/SDL_syswm.h</text>
</a>
</g>
</g>
<!-- Node2&#45;&gt;Node28 -->
<g id="edge82" class="edge">
<title>Node2&#45;&gt;Node28</title>
<path fill="none" stroke="midnightblue" d="M1192.75,-526.44C1358.39,-521.11 1767.85,-505.31 1823.5,-478 1853.68,-463.19 1877.03,-429.9 1888.56,-410.76"/>
<polygon fill="midnightblue" stroke="midnightblue" points="1192.55,-522.95 1182.67,-526.77 1192.78,-529.94 1192.55,-522.95"/>
</g>
<!-- Node29 -->
<g id="node29" class="node">
<title>Node29</title>
<g id="a_node29"><a xlink:href="../../d6/d91/Tools_2MinGW_2include_2SDL_2SDL__endian_8h.html" target="_top" xlink:title=" ">
<polygon fill="none" stroke="black" points="41.5,-313.5 41.5,-343.5 159.5,-343.5 159.5,-313.5 41.5,-313.5"/>
<text text-anchor="start" x="49.5" y="-331.5" font-family="Helvetica,sans-Serif" font-size="10.00">Tools/MinGW/include</text>
<text text-anchor="middle" x="100.5" y="-320.5" font-family="Helvetica,sans-Serif" font-size="10.00">/SDL/SDL_endian.h</text>
</a>
</g>
</g>
<!-- Node2&#45;&gt;Node29 -->
<g id="edge54" class="edge">
<title>Node2&#45;&gt;Node29</title>
<path fill="none" stroke="midnightblue" d="M1054.17,-527.56C858.02,-524.49 308.59,-512.85 235.5,-478 172.91,-448.16 126.05,-374.98 108.29,-343.87"/>
<polygon fill="midnightblue" stroke="midnightblue" points="1054.3,-531.07 1064.35,-527.72 1054.41,-524.07 1054.3,-531.07"/>
</g>
<!-- Node31 -->
<g id="node31" class="node">
<title>Node31</title>
<g id="a_node31"><a xlink:href="../../d8/df7/Tools_2MinGW_2include_2SDL_2SDL__cpuinfo_8h.html" target="_top" xlink:title=" ">
<polygon fill="none" stroke="black" points="2004.5,-179.5 2004.5,-209.5 2122.5,-209.5 2122.5,-179.5 2004.5,-179.5"/>
<text text-anchor="start" x="2012.5" y="-197.5" font-family="Helvetica,sans-Serif" font-size="10.00">Tools/MinGW/include</text>
<text text-anchor="middle" x="2063.5" y="-186.5" font-family="Helvetica,sans-Serif" font-size="10.00">/SDL/SDL_cpuinfo.h</text>
</a>
</g>
</g>
<!-- Node2&#45;&gt;Node31 -->
<g id="edge63" class="edge">
<title>Node2&#45;&gt;Node31</title>
<path fill="none" stroke="midnightblue" d="M1192.82,-528.78C1397.12,-529.07 1987.14,-525.7 2058.5,-478 2091.88,-455.69 2097.5,-436.66 2097.5,-396.5 2097.5,-396.5 2097.5,-396.5 2097.5,-327.5 2097.5,-283.48 2079.55,-233.75 2069.74,-209.84"/>
<polygon fill="midnightblue" stroke="midnightblue" points="1192.52,-525.28 1182.51,-528.77 1192.51,-532.28 1192.52,-525.28"/>
</g>
<!-- Node32 -->
<g id="node32" class="node">
<title>Node32</title>
<g id="a_node32"><a xlink:href="../../d3/d47/Tools_2MinGW_2include_2SDL_2SDL__version_8h.html" target="_top" xlink:title=" ">
<polygon fill="none" stroke="black" points="1904.5,-447.5 1904.5,-477.5 2022.5,-477.5 2022.5,-447.5 1904.5,-447.5"/>
<text text-anchor="start" x="1912.5" y="-465.5" font-family="Helvetica,sans-Serif" font-size="10.00">Tools/MinGW/include</text>
<text text-anchor="middle" x="1963.5" y="-454.5" font-family="Helvetica,sans-Serif" font-size="10.00">/SDL/SDL_version.h</text>
</a>
</g>
</g>
<!-- Node2&#45;&gt;Node32 -->
<g id="edge75" class="edge">
<title>Node2&#45;&gt;Node32</title>
<path fill="none" stroke="midnightblue" d="M1192.81,-525.88C1325.08,-520.43 1622.53,-505.97 1871.5,-478 1882.11,-476.81 1893.36,-475.27 1904.22,-473.64"/>
<polygon fill="midnightblue" stroke="midnightblue" points="1192.66,-522.38 1182.81,-526.29 1192.94,-529.38 1192.66,-522.38"/>
</g>
<!-- Node33 -->
<g id="node33" class="node">
<title>Node33</title>
<g id="a_node33"><a xlink:href="../../d3/d21/Tools_2MinGW_2include_2SDL_2SDL__getenv_8h.html" target="_top" xlink:title=" ">
<polygon fill="none" stroke="black" points="2125.5,-447.5 2125.5,-477.5 2243.5,-477.5 2243.5,-447.5 2125.5,-447.5"/>
<text text-anchor="start" x="2133.5" y="-465.5" font-family="Helvetica,sans-Serif" font-size="10.00">Tools/MinGW/include</text>
<text text-anchor="middle" x="2184.5" y="-454.5" font-family="Helvetica,sans-Serif" font-size="10.00">/SDL/SDL_getenv.h</text>
</a>
</g>
</g>
<!-- Node2&#45;&gt;Node33 -->
<g id="edge79" class="edge">
<title>Node2&#45;&gt;Node33</title>
<path fill="none" stroke="midnightblue" d="M1192.78,-528.4C1354.37,-527.43 1768.56,-520.6 2111.5,-478 2115.99,-477.44 2120.61,-476.77 2125.25,-476.01"/>
<polygon fill="midnightblue" stroke="midnightblue" points="1192.48,-524.91 1182.5,-528.46 1192.52,-531.91 1192.48,-524.91"/>
</g>
<!-- Node34 -->
<g id="node34" class="node">
<title>Node34</title>
<g id="a_node34"><a xlink:href="../../d8/df7/Tools_2MinGW_2include_2SDL_2SDL__types_8h.html" target="_top" xlink:title=" ">
<polygon fill="none" stroke="black" points="454.5,-246.5 454.5,-276.5 572.5,-276.5 572.5,-246.5 454.5,-246.5"/>
<text text-anchor="start" x="462.5" y="-264.5" font-family="Helvetica,sans-Serif" font-size="10.00">Tools/MinGW/include</text>
<text text-anchor="middle" x="513.5" y="-253.5" font-family="Helvetica,sans-Serif" font-size="10.00">/SDL/SDL_types.h</text>
</a>
</g>
</g>
<!-- Node2&#45;&gt;Node34 -->
<g id="edge80" class="edge">
<title>Node2&#45;&gt;Node34</title>
<path fill="none" stroke="midnightblue" d="M1054,-526.04C930.56,-520.97 678.24,-507.32 595.5,-478 544.73,-460.01 519.97,-458.46 494.5,-411 470.66,-366.57 493.86,-304.2 506.5,-276.59"/>
<polygon fill="midnightblue" stroke="midnightblue" points="1053.97,-529.54 1064.1,-526.45 1054.25,-522.55 1053.97,-529.54"/>
</g>
<!-- Node3&#45;&gt;Node4 -->
<g id="edge3" class="edge">
<title>Node3&#45;&gt;Node4</title>
<path fill="none" stroke="midnightblue" d="M1798.23,-303.79C1781.27,-270.74 1746.07,-211.24 1698.5,-179 1660.17,-153.02 1609.03,-140.39 1569.76,-134.25"/>
<polygon fill="midnightblue" stroke="midnightblue" points="1795.3,-305.76 1802.89,-313.14 1801.56,-302.63 1795.3,-305.76"/>
</g>
<!-- Node5 -->
<g id="node5" class="node">
<title>Node5</title>
<g id="a_node5"><a xlink:href="../../d6/d3c/sys__loadlib_8h.html" target="_top" xlink:title=" ">
<polygon fill="none" stroke="black" points="1799.5,-56.5 1799.5,-75.5 1935.5,-75.5 1935.5,-56.5 1799.5,-56.5"/>
<text text-anchor="middle" x="1867.5" y="-63.5" font-family="Helvetica,sans-Serif" font-size="10.00">Engine/sys/sys_loadlib.h</text>
</a>
</g>
</g>
<!-- Node4&#45;&gt;Node5 -->
<g id="edge4" class="edge">
<title>Node4&#45;&gt;Node5</title>
<path fill="none" stroke="midnightblue" d="M1579.82,-114.95C1649.19,-103.38 1754.29,-85.87 1816.4,-75.52"/>
<polygon fill="midnightblue" stroke="midnightblue" points="1579.14,-111.51 1569.85,-116.61 1580.29,-118.42 1579.14,-111.51"/>
</g>
<!-- Node7 -->
<g id="node7" class="node">
<title>Node7</title>
<g id="a_node7"><a xlink:href="../../d5/dd6/sys__main_8c.html" target="_top" xlink:title=" ">
<polygon fill="none" stroke="black" points="1684,-0.5 1684,-19.5 1811,-19.5 1811,-0.5 1684,-0.5"/>
<text text-anchor="middle" x="1747.5" y="-7.5" font-family="Helvetica,sans-Serif" font-size="10.00">Engine/sys/sys_main.c</text>
</a>
</g>
</g>
<!-- Node4&#45;&gt;Node7 -->
<g id="edge11" class="edge">
<title>Node4&#45;&gt;Node7</title>
<path fill="none" stroke="midnightblue" d="M1579.69,-124.59C1623.5,-120.05 1678.95,-107.74 1717.5,-76 1735.35,-61.31 1743.1,-33.65 1746,-19.63"/>
<polygon fill="midnightblue" stroke="midnightblue" points="1579.32,-121.11 1569.68,-125.52 1579.96,-128.08 1579.32,-121.11"/>
</g>
<!-- Node8 -->
<g id="node8" class="node">
<title>Node8</title>
<g id="a_node8"><a xlink:href="../../d7/dbb/sdl__gamma_8c.html" target="_top" xlink:title=" ">
<polygon fill="none" stroke="black" points="1157,-56.5 1157,-75.5 1292,-75.5 1292,-56.5 1157,-56.5"/>
<text text-anchor="middle" x="1224.5" y="-63.5" font-family="Helvetica,sans-Serif" font-size="10.00">Engine/sdl/sdl_gamma.c</text>
</a>
</g>
</g>
<!-- Node4&#45;&gt;Node8 -->
<g id="edge7" class="edge">
<title>Node4&#45;&gt;Node8</title>
<path fill="none" stroke="midnightblue" d="M1441.24,-112.09C1386.35,-100.67 1311.5,-85.1 1265.67,-75.56"/>
<polygon fill="midnightblue" stroke="midnightblue" points="1440.74,-115.56 1451.24,-114.17 1442.16,-108.71 1440.74,-115.56"/>
</g>
<!-- Node9 -->
<g id="node9" class="node">
<title>Node9</title>
<g id="a_node9"><a xlink:href="../../d6/d3e/sdl__glimp_8c.html" target="_top" xlink:title=" ">
<polygon fill="none" stroke="black" points="1310,-56.5 1310,-75.5 1435,-75.5 1435,-56.5 1310,-56.5"/>
<text text-anchor="middle" x="1372.5" y="-63.5" font-family="Helvetica,sans-Serif" font-size="10.00">Engine/sdl/sdl_glimp.c</text>
</a>
</g>
</g>
<!-- Node4&#45;&gt;Node9 -->
<g id="edge8" class="edge">
<title>Node4&#45;&gt;Node9</title>
<path fill="none" stroke="midnightblue" d="M1468.45,-108.37C1443.26,-97.51 1412.39,-84.2 1392.58,-75.66"/>
<polygon fill="midnightblue" stroke="midnightblue" points="1467.23,-111.65 1477.8,-112.4 1470,-105.23 1467.23,-111.65"/>
</g>
<!-- Node10 -->
<g id="node10" class="node">
<title>Node10</title>
<g id="a_node10"><a xlink:href="../../d7/d16/sdl__input_8c.html" target="_top" xlink:title=" ">
<polygon fill="none" stroke="black" points="1453.5,-56.5 1453.5,-75.5 1575.5,-75.5 1575.5,-56.5 1453.5,-56.5"/>
<text text-anchor="middle" x="1514.5" y="-63.5" font-family="Helvetica,sans-Serif" font-size="10.00">Engine/sdl/sdl_input.c</text>
</a>
</g>
</g>
<!-- Node4&#45;&gt;Node10 -->
<g id="edge9" class="edge">
<title>Node4&#45;&gt;Node10</title>
<path fill="none" stroke="midnightblue" d="M1512.13,-102.29C1512.76,-92.86 1513.45,-82.65 1513.92,-75.66"/>
<polygon fill="midnightblue" stroke="midnightblue" points="1508.63,-102.19 1511.45,-112.4 1515.61,-102.66 1508.63,-102.19"/>
</g>
<!-- Node11 -->
<g id="node11" class="node">
<title>Node11</title>
<g id="a_node11"><a xlink:href="../../d0/d47/sdl__snd_8c.html" target="_top" xlink:title=" ">
<polygon fill="none" stroke="black" points="1594,-56.5 1594,-75.5 1709,-75.5 1709,-56.5 1594,-56.5"/>
<text text-anchor="middle" x="1651.5" y="-63.5" font-family="Helvetica,sans-Serif" font-size="10.00">Engine/sdl/sdl_snd.c</text>
</a>
</g>
</g>
<!-- Node4&#45;&gt;Node11 -->
<g id="edge10" class="edge">
<title>Node4&#45;&gt;Node11</title>
<path fill="none" stroke="midnightblue" d="M1553.46,-108.37C1579.2,-97.51 1610.75,-84.2 1630.98,-75.66"/>
<polygon fill="midnightblue" stroke="midnightblue" points="1551.77,-105.29 1543.92,-112.4 1554.49,-111.74 1551.77,-105.29"/>
</g>
<!-- Node6 -->
<g id="node6" class="node">
<title>Node6</title>
<g id="a_node6"><a xlink:href="../../d3/d38/cl__main_8c.html" target="_top" xlink:title=" ">
<polygon fill="none" stroke="black" points="1829,-0.5 1829,-19.5 1958,-19.5 1958,-0.5 1829,-0.5"/>
<text text-anchor="middle" x="1893.5" y="-7.5" font-family="Helvetica,sans-Serif" font-size="10.00">Engine/client/cl_main.c</text>
</a>
</g>
</g>
<!-- Node5&#45;&gt;Node6 -->
<g id="edge5" class="edge">
<title>Node5&#45;&gt;Node6</title>
<path fill="none" stroke="midnightblue" d="M1876.17,-46.98C1880.59,-37.82 1885.75,-27.09 1889.29,-19.75"/>
<polygon fill="midnightblue" stroke="midnightblue" points="1872.98,-45.55 1871.79,-56.08 1879.29,-48.59 1872.98,-45.55"/>
</g>
<!-- Node5&#45;&gt;Node7 -->
<g id="edge6" class="edge">
<title>Node5&#45;&gt;Node7</title>
<path fill="none" stroke="midnightblue" d="M1839.13,-52.23C1816.68,-42.13 1785.96,-28.31 1766.43,-19.52"/>
<polygon fill="midnightblue" stroke="midnightblue" points="1837.93,-55.53 1848.49,-56.44 1840.8,-49.15 1837.93,-55.53"/>
</g>
<!-- Node12&#45;&gt;Node4 -->
<g id="edge14" class="edge">
<title>Node12&#45;&gt;Node4</title>
<path fill="none" stroke="midnightblue" d="M389.41,-237.62C400.9,-218.2 420.26,-191.55 445.5,-179 535.57,-134.21 1240.55,-129.07 1451.23,-128.54"/>
<polygon fill="midnightblue" stroke="midnightblue" points="386.28,-236.05 384.41,-246.48 392.38,-239.49 386.28,-236.05"/>
</g>
<!-- Node13 -->
<g id="node13" class="node">
<title>Node13</title>
<g id="a_node13"><a xlink:href="../../d1/d81/SDL__mixer_8h.html" target="_top" xlink:title=" ">
<polygon fill="none" stroke="black" points="454.5,-179.5 454.5,-209.5 572.5,-209.5 572.5,-179.5 454.5,-179.5"/>
<text text-anchor="start" x="462.5" y="-197.5" font-family="Helvetica,sans-Serif" font-size="10.00">Tools/MinGW/include</text>
<text text-anchor="middle" x="513.5" y="-186.5" font-family="Helvetica,sans-Serif" font-size="10.00">/SDL/SDL_mixer.h</text>
</a>
</g>
</g>
<!-- Node12&#45;&gt;Node13 -->
<g id="edge15" class="edge">
<title>Node12&#45;&gt;Node13</title>
<path fill="none" stroke="midnightblue" d="M416.22,-241.99C437.78,-231.69 464.19,-219.07 484.05,-209.58"/>
<polygon fill="midnightblue" stroke="midnightblue" points="414.52,-238.93 407.01,-246.4 417.54,-245.24 414.52,-238.93"/>
</g>
<!-- Node14&#45;&gt;Node4 -->
<g id="edge36" class="edge">
<title>Node14&#45;&gt;Node4</title>
<path fill="none" stroke="midnightblue" d="M1031.48,-437.49C1021.73,-389.1 1002.11,-281.43 1012.5,-246 1022.46,-212.05 1025.44,-197.66 1055.5,-179 1120.25,-138.82 1343.27,-130.5 1451.14,-128.85"/>
<polygon fill="midnightblue" stroke="midnightblue" points="1028.07,-438.3 1033.5,-447.4 1034.93,-436.9 1028.07,-438.3"/>
</g>
<!-- Node14&#45;&gt;Node12 -->
<g id="edge17" class="edge">
<title>Node14&#45;&gt;Node12</title>
<path fill="none" stroke="midnightblue" d="M967.34,-461.74C840.03,-461.1 574.32,-454.42 494.5,-411 479.69,-402.94 413.26,-312.13 387.63,-276.62"/>
<polygon fill="midnightblue" stroke="midnightblue" points="967.36,-465.24 977.37,-461.78 967.38,-458.24 967.36,-465.24"/>
</g>
<!-- Node14&#45;&gt;Node15 -->
<g id="edge18" class="edge">
<title>Node14&#45;&gt;Node15</title>
<path fill="none" stroke="midnightblue" d="M967.1,-459.24C842.53,-454.54 572.93,-441.53 347.5,-411 343.02,-410.39 338.4,-409.68 333.76,-408.9"/>
<polygon fill="midnightblue" stroke="midnightblue" points="967.14,-462.74 977.26,-459.61 967.4,-455.74 967.14,-462.74"/>
</g>
<!-- Node14&#45;&gt;Node16 -->
<g id="edge24" class="edge">
<title>Node14&#45;&gt;Node16</title>
<path fill="none" stroke="midnightblue" d="M966.95,-459.4C828.58,-454.64 523.54,-441 423.5,-411 373.51,-396.01 321.42,-362.79 294.03,-343.71"/>
<polygon fill="midnightblue" stroke="midnightblue" points="966.9,-462.9 977.02,-459.74 967.14,-455.91 966.9,-462.9"/>
</g>
<!-- Node14&#45;&gt;Node17 -->
<g id="edge25" class="edge">
<title>Node14&#45;&gt;Node17</title>
<path fill="none" stroke="midnightblue" d="M967.24,-452C873.9,-439.2 709.36,-416.64 621.57,-404.6"/>
<polygon fill="midnightblue" stroke="midnightblue" points="967.04,-455.51 977.43,-453.4 967.99,-448.57 967.04,-455.51"/>
</g>
<!-- Node14&#45;&gt;Node18 -->
<g id="edge43" class="edge">
<title>Node14&#45;&gt;Node18</title>
<path fill="none" stroke="midnightblue" d="M967.63,-445.18C939.62,-437.04 907.56,-425.74 880.5,-411 861.36,-400.58 860.16,-392.78 842.5,-380 824.43,-366.92 803.08,-353.38 787.13,-343.61"/>
<polygon fill="midnightblue" stroke="midnightblue" points="966.77,-448.57 977.34,-447.92 968.67,-441.84 966.77,-448.57"/>
</g>
<!-- Node14&#45;&gt;Node19 -->
<g id="edge42" class="edge">
<title>Node14&#45;&gt;Node19</title>
<path fill="none" stroke="midnightblue" d="M1044.03,-437.87C1046.58,-429.44 1049.33,-419.84 1051.5,-411 1063.53,-362.02 1073.83,-302.98 1078.22,-276.52"/>
<polygon fill="midnightblue" stroke="midnightblue" points="1040.68,-436.86 1041.07,-447.45 1047.36,-438.93 1040.68,-436.86"/>
</g>
<!-- Node14&#45;&gt;Node20 -->
<g id="edge37" class="edge">
<title>Node14&#45;&gt;Node20</title>
<path fill="none" stroke="midnightblue" d="M1056.01,-439.03C1083.12,-406.13 1130.85,-341.71 1148.5,-277 1152.13,-263.71 1151.64,-259.42 1148.5,-246 1145.47,-233.05 1138.6,-219.6 1132.83,-209.85"/>
<polygon fill="midnightblue" stroke="midnightblue" points="1053.01,-437.16 1049.27,-447.07 1058.38,-441.66 1053.01,-437.16"/>
</g>
<!-- Node14&#45;&gt;Node21 -->
<g id="edge34" class="edge">
<title>Node14&#45;&gt;Node21</title>
<path fill="none" stroke="midnightblue" d="M1105.64,-454.74C1186.65,-446.39 1324.79,-430.83 1442.5,-411 1445.36,-410.52 1448.28,-410 1451.22,-409.46"/>
<polygon fill="midnightblue" stroke="midnightblue" points="1105.15,-451.27 1095.56,-455.77 1105.87,-458.23 1105.15,-451.27"/>
</g>
<!-- Node14&#45;&gt;Node22 -->
<g id="edge38" class="edge">
<title>Node14&#45;&gt;Node22</title>
<path fill="none" stroke="midnightblue" d="M970.2,-445.05C927.37,-434.43 872.21,-420.74 831.38,-410.61"/>
<polygon fill="midnightblue" stroke="midnightblue" points="969.42,-448.47 979.97,-447.48 971.11,-441.67 969.42,-448.47"/>
</g>
<!-- Node14&#45;&gt;Node23 -->
<g id="edge40" class="edge">
<title>Node14&#45;&gt;Node23</title>
<path fill="none" stroke="midnightblue" d="M1009.29,-441.17C995.98,-431.23 980.3,-419.51 968.34,-410.58"/>
<polygon fill="midnightblue" stroke="midnightblue" points="1007.52,-444.21 1017.62,-447.4 1011.71,-438.61 1007.52,-444.21"/>
</g>
<!-- Node14&#45;&gt;Node24 -->
<g id="edge44" class="edge">
<title>Node14&#45;&gt;Node24</title>
<path fill="none" stroke="midnightblue" d="M1090.18,-444.23C1122.85,-433.71 1164.07,-420.45 1194.75,-410.58"/>
<polygon fill="midnightblue" stroke="midnightblue" points="1088.78,-441 1080.33,-447.4 1090.92,-447.66 1088.78,-441"/>
</g>
<!-- Node14&#45;&gt;Node25 -->
<g id="edge46" class="edge">
<title>Node14&#45;&gt;Node25</title>
<path fill="none" stroke="midnightblue" d="M1105.49,-449.09C1160.1,-439.15 1238.27,-424.65 1306.5,-411 1309.34,-410.43 1312.25,-409.84 1315.18,-409.24"/>
<polygon fill="midnightblue" stroke="midnightblue" points="1104.79,-445.66 1095.57,-450.89 1106.04,-452.55 1104.79,-445.66"/>
</g>
<!-- Node14&#45;&gt;Node26 -->
<g id="edge48" class="edge">
<title>Node14&#45;&gt;Node26</title>
<path fill="none" stroke="midnightblue" d="M1105.98,-459.1C1254.85,-453.51 1600.36,-437.99 1714.5,-411 1752.61,-401.99 1850.73,-372.58 1877.5,-344 1913.95,-305.09 1923.9,-238.71 1926.55,-209.74"/>
<polygon fill="midnightblue" stroke="midnightblue" points="1105.47,-455.62 1095.6,-459.49 1105.73,-462.61 1105.47,-455.62"/>
</g>
<!-- Node14&#45;&gt;Node27 -->
<g id="edge51" class="edge">
<title>Node14&#45;&gt;Node27</title>
<path fill="none" stroke="midnightblue" d="M1105.72,-457.66C1209.07,-451.33 1409.66,-436.78 1578.5,-411 1581.36,-410.56 1584.29,-410.08 1587.24,-409.56"/>
<polygon fill="midnightblue" stroke="midnightblue" points="1105.5,-454.16 1095.73,-458.26 1105.92,-461.15 1105.5,-454.16"/>
</g>
<!-- Node14&#45;&gt;Node28 -->
<g id="edge53" class="edge">
<title>Node14&#45;&gt;Node28</title>
<path fill="none" stroke="midnightblue" d="M1105.84,-458.28C1238.18,-451.81 1535.85,-435.7 1785.5,-411 1802.33,-409.34 1820.54,-407.13 1837.24,-404.94"/>
<polygon fill="midnightblue" stroke="midnightblue" points="1105.65,-454.78 1095.83,-458.76 1105.99,-461.77 1105.65,-454.78"/>
</g>
<!-- Node15&#45;&gt;Node4 -->
<g id="edge23" class="edge">
<title>Node15&#45;&gt;Node4</title>
<path fill="none" stroke="midnightblue" d="M235.6,-374.86C224.09,-366.96 212.87,-356.67 206.5,-344 200.31,-331.69 201.23,-325.73 206.5,-313 238.73,-235.19 263.4,-212.9 340.5,-179 442.51,-134.14 1227.98,-129.08 1451.4,-128.55"/>
<polygon fill="midnightblue" stroke="midnightblue" points="234.07,-378.03 244.38,-380.44 237.82,-372.13 234.07,-378.03"/>
</g>
<!-- Node15&#45;&gt;Node12 -->
<g id="edge19" class="edge">
<title>Node15&#45;&gt;Node12</title>
<path fill="none" stroke="midnightblue" d="M308.27,-374.68C320.27,-366.38 333.11,-355.88 342.5,-344 358.83,-323.34 368.96,-293.92 373.89,-276.66"/>
<polygon fill="midnightblue" stroke="midnightblue" points="306.15,-371.89 299.75,-380.33 310.02,-377.72 306.15,-371.89"/>
</g>
<!-- Node15&#45;&gt;Node16 -->
<g id="edge20" class="edge">
<title>Node15&#45;&gt;Node16</title>
<path fill="none" stroke="midnightblue" d="M274.5,-370.11C274.5,-361.15 274.5,-351.32 274.5,-343.58"/>
<polygon fill="midnightblue" stroke="midnightblue" points="271,-370.4 274.5,-380.4 278,-370.4 271,-370.4"/>
</g>
<!-- Node16&#45;&gt;Node4 -->
<g id="edge22" class="edge">
<title>Node16&#45;&gt;Node4</title>
<path fill="none" stroke="midnightblue" d="M280.95,-303.33C286.45,-286.02 295.69,-262.87 309.5,-246 342.69,-205.46 356.85,-195.73 406.5,-179 505.59,-145.6 1236.49,-132.46 1451.3,-129.3"/>
<polygon fill="midnightblue" stroke="midnightblue" points="277.49,-302.67 278,-313.25 284.2,-304.66 277.49,-302.67"/>
</g>
<!-- Node16&#45;&gt;Node12 -->
<g id="edge21" class="edge">
<title>Node16&#45;&gt;Node12</title>
<path fill="none" stroke="midnightblue" d="M305.38,-308.02C321.4,-297.9 340.63,-285.77 355.19,-276.58"/>
<polygon fill="midnightblue" stroke="midnightblue" points="303.44,-305.1 296.85,-313.4 307.17,-311.02 303.44,-305.1"/>
</g>
<!-- Node17&#45;&gt;Node4 -->
<g id="edge32" class="edge">
<title>Node17&#45;&gt;Node4</title>
<path fill="none" stroke="midnightblue" d="M584.23,-373.27C632.77,-327.45 755.76,-220.11 882.5,-179 987.32,-145 1316.2,-133.24 1451.48,-129.77"/>
<polygon fill="midnightblue" stroke="midnightblue" points="581.65,-370.9 576.82,-380.33 586.48,-375.96 581.65,-370.9"/>
</g>
<!-- Node17&#45;&gt;Node12 -->
<g id="edge26" class="edge">
<title>Node17&#45;&gt;Node12</title>
<path fill="none" stroke="midnightblue" d="M535.76,-374.47C513.39,-357.81 480.57,-333.58 451.5,-313 433.86,-300.51 413.56,-286.69 398.69,-276.67"/>
<polygon fill="midnightblue" stroke="midnightblue" points="533.68,-377.28 543.79,-380.46 537.87,-371.67 533.68,-377.28"/>
</g>
<!-- Node17&#45;&gt;Node13 -->
<g id="edge33" class="edge">
<title>Node17&#45;&gt;Node13</title>
<path fill="none" stroke="midnightblue" d="M573.48,-370.67C585.85,-340.11 601.75,-286.26 581.5,-246 573.51,-230.1 557.88,-217.95 543.62,-209.56"/>
<polygon fill="midnightblue" stroke="midnightblue" points="570.17,-369.52 569.48,-380.09 576.61,-372.25 570.17,-369.52"/>
</g>
<!-- Node17&#45;&gt;Node18 -->
<g id="edge27" class="edge">
<title>Node17&#45;&gt;Node18</title>
<path fill="none" stroke="midnightblue" d="M615.91,-377.23C648.43,-366.71 689.44,-353.45 719.97,-343.58"/>
<polygon fill="midnightblue" stroke="midnightblue" points="614.55,-373.99 606.11,-380.4 616.71,-380.65 614.55,-373.99"/>
</g>
<!-- Node18&#45;&gt;Node4 -->
<g id="edge31" class="edge">
<title>Node18&#45;&gt;Node4</title>
<path fill="none" stroke="midnightblue" d="M781.84,-305.28C811.42,-271.24 873.27,-207.2 941.5,-179 1032.47,-141.4 1324.46,-131.75 1451.05,-129.31"/>
<polygon fill="midnightblue" stroke="midnightblue" points="778.87,-303.37 775.04,-313.24 784.19,-307.91 778.87,-303.37"/>
</g>
<!-- Node18&#45;&gt;Node19 -->
<g id="edge28" class="edge">
<title>Node18&#45;&gt;Node19</title>
<path fill="none" stroke="midnightblue" d="M832.65,-313.32C889.02,-301.76 967.77,-285.61 1021.27,-274.65"/>
<polygon fill="midnightblue" stroke="midnightblue" points="831.85,-309.91 822.75,-315.35 833.25,-316.77 831.85,-309.91"/>
</g>
<!-- Node19&#45;&gt;Node20 -->
<g id="edge29" class="edge">
<title>Node19&#45;&gt;Node20</title>
<path fill="none" stroke="midnightblue" d="M1095.47,-237.87C1101.7,-228.46 1108.73,-217.83 1114.19,-209.58"/>
<polygon fill="midnightblue" stroke="midnightblue" points="1092.43,-236.12 1089.83,-246.4 1098.27,-239.99 1092.43,-236.12"/>
</g>
<!-- Node20&#45;&gt;Node4 -->
<g id="edge30" class="edge">
<title>Node20&#45;&gt;Node4</title>
<path fill="none" stroke="midnightblue" d="M1192.81,-181.86C1266.48,-169.49 1381.75,-150.13 1451.31,-138.44"/>
<polygon fill="midnightblue" stroke="midnightblue" points="1191.98,-178.45 1182.7,-183.56 1193.14,-185.35 1191.98,-178.45"/>
</g>
<!-- Node21&#45;&gt;Node4 -->
<g id="edge35" class="edge">
<title>Node21&#45;&gt;Node4</title>
<path fill="none" stroke="midnightblue" d="M1510.5,-370.07C1510.5,-315.57 1510.5,-185.52 1510.5,-142.55"/>
<polygon fill="midnightblue" stroke="midnightblue" points="1507,-370.2 1510.5,-380.2 1514,-370.2 1507,-370.2"/>
</g>
<!-- Node22&#45;&gt;Node20 -->
<g id="edge39" class="edge">
<title>Node22&#45;&gt;Node20</title>
<path fill="none" stroke="midnightblue" d="M799.39,-373.83C837.66,-342.82 914.13,-283.87 986.5,-246 1015.14,-231.02 1049.23,-218.43 1076.24,-209.57"/>
<polygon fill="midnightblue" stroke="midnightblue" points="796.92,-371.33 791.38,-380.36 801.34,-376.75 796.92,-371.33"/>
</g>
<!-- Node23&#45;&gt;Node20 -->
<g id="edge41" class="edge">
<title>Node23&#45;&gt;Node20</title>
<path fill="none" stroke="midnightblue" d="M954.02,-370.45C961.2,-338.31 978.08,-281.32 1012.5,-246 1028.9,-229.17 1051.95,-217.44 1072.79,-209.55"/>
<polygon fill="midnightblue" stroke="midnightblue" points="950.58,-369.82 951.95,-380.33 957.43,-371.26 950.58,-369.82"/>
</g>
<!-- Node24&#45;&gt;Node20 -->
<g id="edge45" class="edge">
<title>Node24&#45;&gt;Node20</title>
<path fill="none" stroke="midnightblue" d="M1233.12,-370.43C1225.39,-339.54 1208.97,-285.27 1181.5,-246 1171.47,-231.67 1156.52,-218.78 1144.31,-209.61"/>
<polygon fill="midnightblue" stroke="midnightblue" points="1229.75,-371.41 1235.49,-380.31 1236.56,-369.77 1229.75,-371.41"/>
</g>
<!-- Node25&#45;&gt;Node20 -->
<g id="edge47" class="edge">
<title>Node25&#45;&gt;Node20</title>
<path fill="none" stroke="midnightblue" d="M1352.34,-373.07C1320.79,-343.05 1260.52,-287.51 1204.5,-246 1186.39,-232.58 1164.66,-219.17 1148.27,-209.54"/>
<polygon fill="midnightblue" stroke="midnightblue" points="1350.07,-375.75 1359.72,-380.13 1354.91,-370.69 1350.07,-375.75"/>
</g>
<!-- Node26&#45;&gt;Node4 -->
<g id="edge50" class="edge">
<title>Node26&#45;&gt;Node4</title>
<path fill="none" stroke="midnightblue" d="M1858.29,-179.66C1857.02,-179.44 1855.75,-179.22 1854.5,-179 1754.87,-161.8 1638.34,-145.49 1569.69,-136.27"/>
<polygon fill="midnightblue" stroke="midnightblue" points="1857.72,-183.12 1868.18,-181.46 1858.97,-176.23 1857.72,-183.12"/>
</g>
<!-- Node26&#45;&gt;Node5 -->
<g id="edge49" class="edge">
<title>Node26&#45;&gt;Node5</title>
<path fill="none" stroke="midnightblue" d="M1916.48,-170.26C1902.99,-141.83 1880.83,-95.11 1871.67,-75.79"/>
<polygon fill="midnightblue" stroke="midnightblue" points="1913.4,-171.94 1920.85,-179.48 1919.73,-168.94 1913.4,-171.94"/>
</g>
<!-- Node27&#45;&gt;Node4 -->
<g id="edge52" class="edge">
<title>Node27&#45;&gt;Node4</title>
<path fill="none" stroke="midnightblue" d="M1634.53,-371.08C1606.98,-317.2 1539.79,-185.79 1517.68,-142.55"/>
<polygon fill="midnightblue" stroke="midnightblue" points="1631.52,-372.89 1639.19,-380.2 1637.75,-369.7 1631.52,-372.89"/>
</g>
<!-- Node29&#45;&gt;Node4 -->
<g id="edge56" class="edge">
<title>Node29&#45;&gt;Node4</title>
<path fill="none" stroke="midnightblue" d="M114.37,-304.47C119.33,-295.94 124.84,-286.13 129.5,-277 151.19,-234.47 133.91,-205.69 173.5,-179 227.12,-142.84 1199.68,-131.37 1451.41,-129"/>
<polygon fill="midnightblue" stroke="midnightblue" points="111.33,-302.73 109.26,-313.12 117.36,-306.29 111.33,-302.73"/>
</g>
<!-- Node29&#45;&gt;Node12 -->
<g id="edge55" class="edge">
<title>Node29&#45;&gt;Node12</title>
<path fill="none" stroke="midnightblue" d="M169.41,-311.33C215.09,-300.61 274.42,-286.69 318.03,-276.46"/>
<polygon fill="midnightblue" stroke="midnightblue" points="168.52,-307.94 159.58,-313.64 170.12,-314.76 168.52,-307.94"/>
</g>
<!-- Node29&#45;&gt;Node13 -->
<g id="edge58" class="edge">
<title>Node29&#45;&gt;Node13</title>
<path fill="none" stroke="midnightblue" d="M141.91,-309.52C183.67,-291.82 250.26,-264.79 309.5,-246 357.67,-230.72 413.43,-217.19 454.46,-207.99"/>
<polygon fill="midnightblue" stroke="midnightblue" points="140.45,-306.34 132.62,-313.48 143.19,-312.78 140.45,-306.34"/>
</g>
<!-- Node30 -->
<g id="node30" class="node">
<title>Node30</title>
<g id="a_node30"><a xlink:href="../../de/d2d/Tools_2MinGW_2include_2SDL_2SDL__byteorder_8h.html" target="_top" xlink:title=" ">
<polygon fill="none" stroke="black" points="0,-246.5 0,-276.5 121,-276.5 121,-246.5 0,-246.5"/>
<text text-anchor="start" x="8" y="-264.5" font-family="Helvetica,sans-Serif" font-size="10.00">Tools/MinGW/include</text>
<text text-anchor="middle" x="60.5" y="-253.5" font-family="Helvetica,sans-Serif" font-size="10.00">/SDL/SDL_byteorder.h</text>
</a>
</g>
</g>
<!-- Node29&#45;&gt;Node30 -->
<g id="edge57" class="edge">
<title>Node29&#45;&gt;Node30</title>
<path fill="none" stroke="midnightblue" d="M86.57,-304.87C80.78,-295.46 74.24,-284.83 69.16,-276.58"/>
<polygon fill="midnightblue" stroke="midnightblue" points="83.6,-306.71 91.82,-313.4 89.56,-303.05 83.6,-306.71"/>
</g>
<!-- Node31&#45;&gt;Node4 -->
<g id="edge65" class="edge">
<title>Node31&#45;&gt;Node4</title>
<path fill="none" stroke="midnightblue" d="M1994.28,-178.91C1835.49,-154.23 1659.51,-139.33 1569.74,-132.63"/>
<polygon fill="midnightblue" stroke="midnightblue" points="1993.81,-182.38 2004.23,-180.47 1994.9,-175.46 1993.81,-182.38"/>
</g>
<!-- Node31&#45;&gt;Node7 -->
<g id="edge64" class="edge">
<title>Node31&#45;&gt;Node7</title>
<path fill="none" stroke="midnightblue" d="M2050.09,-170.37C2030.83,-139.32 1992.32,-84.73 1944.5,-56 1920.82,-41.77 1851.71,-28.02 1802.03,-19.54"/>
<polygon fill="midnightblue" stroke="midnightblue" points="2047.26,-172.46 2055.44,-179.2 2053.25,-168.83 2047.26,-172.46"/>
</g>
<!-- Node32&#45;&gt;Node4 -->
<g id="edge76" class="edge">
<title>Node32&#45;&gt;Node4</title>
<path fill="none" stroke="midnightblue" d="M1977.79,-438.26C1986.16,-421.47 1993.49,-398.58 1984.5,-380 1921.79,-250.41 1860.28,-241.3 1730.5,-179 1679.27,-154.41 1615.5,-141.47 1569.82,-134.88"/>
<polygon fill="midnightblue" stroke="midnightblue" points="1974.55,-436.9 1972.85,-447.36 1980.7,-440.24 1974.55,-436.9"/>
</g>
<!-- Node32&#45;&gt;Node13 -->
<g id="edge77" class="edge">
<title>Node32&#45;&gt;Node13</title>
<path fill="none" stroke="midnightblue" d="M1971.44,-437.49C1975.73,-419.57 1977.77,-395.58 1964.5,-380 1931.96,-341.78 1791.04,-352.09 1741.5,-344 1477.86,-300.94 1413.66,-278.4 1148.5,-246 937.46,-220.22 685.27,-204.68 572.76,-198.54"/>
<polygon fill="midnightblue" stroke="midnightblue" points="1968.04,-436.66 1968.75,-447.23 1974.78,-438.52 1968.04,-436.66"/>
</g>
<!-- Node32&#45;&gt;Node28 -->
<g id="edge78" class="edge">
<title>Node32&#45;&gt;Node28</title>
<path fill="none" stroke="midnightblue" d="M1941.66,-440.31C1931.61,-430.56 1919.96,-419.26 1911.01,-410.58"/>
<polygon fill="midnightblue" stroke="midnightblue" points="1939.35,-442.94 1948.96,-447.4 1944.22,-437.92 1939.35,-442.94"/>
</g>
<!-- Node34&#45;&gt;Node13 -->
<g id="edge81" class="edge">
<title>Node34&#45;&gt;Node13</title>
<path fill="none" stroke="midnightblue" d="M513.5,-236.11C513.5,-227.15 513.5,-217.32 513.5,-209.58"/>
<polygon fill="midnightblue" stroke="midnightblue" points="510,-236.4 513.5,-246.4 517,-236.4 510,-236.4"/>
</g>
</g>
</svg>
