<?xml version="1.0" encoding="UTF-8" standalone="no"?>
<!DOCTYPE svg PUBLIC "-//W3C//DTD SVG 1.1//EN"
 "http://www.w3.org/Graphics/SVG/1.1/DTD/svg11.dtd">
<!-- Generated by graphviz version 2.43.0 (0)
 -->
<!-- Title: tagTIMESTAMP_STRUCT Pages: 1 -->
<svg width="417pt" height="154pt"
 viewBox="0.00 0.00 417.00 154.00" xmlns="http://www.w3.org/2000/svg" xmlns:xlink="http://www.w3.org/1999/xlink">
<g id="graph0" class="graph" transform="scale(1 1) rotate(0) translate(4 150)">
<title>tagTIMESTAMP_STRUCT</title>
<!-- Node1 -->
<g id="node1" class="node">
<title>Node1</title>
<g id="a_node1"><a xlink:title=" ">
<polygon fill="#bfbfbf" stroke="black" points="275,-60.5 275,-79.5 409,-79.5 409,-60.5 275,-60.5"/>
<text text-anchor="middle" x="342" y="-67.5" font-family="Helvetica,sans-Serif" font-size="10.00">tagTIMESTAMP_STRUCT</text>
</a>
</g>
</g>
<!-- Node2 -->
<g id="node2" class="node">
<title>Node2</title>
<g id="a_node2"><a xlink:title=" ">
<polygon fill="none" stroke="#bfbfbf" points="54.5,-98.5 54.5,-117.5 143.5,-117.5 143.5,-98.5 54.5,-98.5"/>
<text text-anchor="middle" x="99" y="-105.5" font-family="Helvetica,sans-Serif" font-size="10.00">unsigned short</text>
</a>
</g>
</g>
<!-- Node2&#45;&gt;Node1 -->
<g id="edge1" class="edge">
<title>Node2&#45;&gt;Node1</title>
<path fill="none" stroke="#9a32cd" stroke-dasharray="5,2" d="M153.67,-100.56C184.03,-96.25 222.68,-90.58 257,-85 267.38,-83.31 278.47,-81.41 289.06,-79.54"/>
<polygon fill="#9a32cd" stroke="#9a32cd" points="153.12,-97.1 143.71,-101.97 154.1,-104.03 153.12,-97.1"/>
<text text-anchor="middle" x="236.5" y="-138" font-family="Helvetica,sans-Serif" font-size="10.00"> hour</text>
<text text-anchor="middle" x="236.5" y="-127" font-family="Helvetica,sans-Serif" font-size="10.00">second</text>
<text text-anchor="middle" x="236.5" y="-116" font-family="Helvetica,sans-Serif" font-size="10.00">minute</text>
<text text-anchor="middle" x="236.5" y="-105" font-family="Helvetica,sans-Serif" font-size="10.00">day</text>
<text text-anchor="middle" x="236.5" y="-94" font-family="Helvetica,sans-Serif" font-size="10.00">month</text>
</g>
<!-- Node3 -->
<g id="node3" class="node">
<title>Node3</title>
<g id="a_node3"><a xlink:title=" ">
<polygon fill="none" stroke="#bfbfbf" points="72,-60.5 72,-79.5 126,-79.5 126,-60.5 72,-60.5"/>
<text text-anchor="middle" x="99" y="-67.5" font-family="Helvetica,sans-Serif" font-size="10.00">SWORD</text>
</a>
</g>
</g>
<!-- Node3&#45;&gt;Node1 -->
<g id="edge2" class="edge">
<title>Node3&#45;&gt;Node1</title>
<path fill="none" stroke="#9a32cd" stroke-dasharray="5,2" d="M136.45,-70C173.04,-70 230.23,-70 274.84,-70"/>
<polygon fill="#9a32cd" stroke="#9a32cd" points="136.25,-66.5 126.25,-70 136.25,-73.5 136.25,-66.5"/>
<text text-anchor="middle" x="236.5" y="-73" font-family="Helvetica,sans-Serif" font-size="10.00"> year</text>
</g>
<!-- Node4 -->
<g id="node4" class="node">
<title>Node4</title>
<g id="a_node4"><a xlink:title=" ">
<polygon fill="none" stroke="#bfbfbf" points="0,-0.5 0,-41.5 198,-41.5 198,-0.5 0,-0.5"/>
<text text-anchor="start" x="8" y="-29.5" font-family="Helvetica,sans-Serif" font-size="10.00">PSecurityUserData *typedef</text>
<text text-anchor="start" x="8" y="-18.5" font-family="Helvetica,sans-Serif" font-size="10.00"> PSECPKG_EXTENDED_INFORMATION</text>
<text text-anchor="middle" x="99" y="-7.5" font-family="Helvetica,sans-Serif" font-size="10.00"> *typedef</text>
</a>
</g>
</g>
<!-- Node4&#45;&gt;Node1 -->
<g id="edge3" class="edge">
<title>Node4&#45;&gt;Node1</title>
<path fill="none" stroke="#9a32cd" stroke-dasharray="5,2" d="M208.21,-43C238.4,-49.14 269.63,-55.49 294.21,-60.49"/>
<polygon fill="#9a32cd" stroke="#9a32cd" points="208.52,-39.49 198.02,-40.93 207.13,-46.35 208.52,-39.49"/>
<text text-anchor="middle" x="236.5" y="-55" font-family="Helvetica,sans-Serif" font-size="10.00"> fraction</text>
</g>
</g>
</svg>
