<?xml version="1.0" encoding="UTF-8" standalone="no"?>
<!DOCTYPE svg PUBLIC "-//W3C//DTD SVG 1.1//EN"
 "http://www.w3.org/Graphics/SVG/1.1/DTD/svg11.dtd">
<!-- Generated by graphviz version 2.43.0 (0)
 -->
<!-- Title: _CLIENT_CALL_RETURN Pages: 1 -->
<svg width="139pt" height="95pt"
 viewBox="0.00 0.00 139.00 95.00" xmlns="http://www.w3.org/2000/svg" xmlns:xlink="http://www.w3.org/1999/xlink">
<g id="graph0" class="graph" transform="scale(1 1) rotate(0) translate(4 91)">
<title>_CLIENT_CALL_RETURN</title>
<!-- Node1 -->
<g id="node1" class="node">
<title>Node1</title>
<g id="a_node1"><a xlink:title=" ">
<polygon fill="#bfbfbf" stroke="black" points="0,-0.5 0,-19.5 131,-19.5 131,-0.5 0,-0.5"/>
<text text-anchor="middle" x="65.5" y="-7.5" font-family="Helvetica,sans-Serif" font-size="10.00">_CLIENT_CALL_RETURN</text>
</a>
</g>
</g>
<!-- Node2 -->
<g id="node2" class="node">
<title>Node2</title>
<g id="a_node2"><a xlink:title=" ">
<polygon fill="none" stroke="#bfbfbf" points="16.5,-67.5 16.5,-86.5 54.5,-86.5 54.5,-67.5 16.5,-67.5"/>
<text text-anchor="middle" x="35.5" y="-74.5" font-family="Helvetica,sans-Serif" font-size="10.00">void</text>
</a>
</g>
</g>
<!-- Node2&#45;&gt;Node1 -->
<g id="edge1" class="edge">
<title>Node2&#45;&gt;Node1</title>
<path fill="none" stroke="#9a32cd" stroke-dasharray="5,2" d="M33.13,-57.08C33.08,-50.78 33.85,-43.87 36.5,-38 39.84,-30.6 46.26,-24.29 52.21,-19.63"/>
<polygon fill="#9a32cd" stroke="#9a32cd" points="29.67,-57.72 33.9,-67.43 36.65,-57.2 29.67,-57.72"/>
<text text-anchor="middle" x="55.5" y="-41" font-family="Helvetica,sans-Serif" font-size="10.00"> Pointer</text>
</g>
<!-- Node3 -->
<g id="node3" class="node">
<title>Node3</title>
<g id="a_node3"><a xlink:title=" ">
<polygon fill="none" stroke="#bfbfbf" points="77.5,-67.5 77.5,-86.5 115.5,-86.5 115.5,-67.5 77.5,-67.5"/>
<text text-anchor="middle" x="96.5" y="-74.5" font-family="Helvetica,sans-Serif" font-size="10.00">long</text>
</a>
</g>
</g>
<!-- Node3&#45;&gt;Node1 -->
<g id="edge2" class="edge">
<title>Node3&#45;&gt;Node1</title>
<path fill="none" stroke="#9a32cd" stroke-dasharray="5,2" d="M87.99,-58.16C82.01,-45.63 74.28,-29.41 69.61,-19.63"/>
<polygon fill="#9a32cd" stroke="#9a32cd" points="84.86,-59.71 92.32,-67.23 91.17,-56.7 84.86,-59.71"/>
<text text-anchor="middle" x="101" y="-41" font-family="Helvetica,sans-Serif" font-size="10.00"> Simple</text>
</g>
</g>
</svg>
