<?xml version="1.0" encoding="UTF-8" standalone="no"?>
<!DOCTYPE svg PUBLIC "-//W3C//DTD SVG 1.1//EN"
 "http://www.w3.org/Graphics/SVG/1.1/DTD/svg11.dtd">
<!-- Generated by graphviz version 2.43.0 (0)
 -->
<!-- Title: Engine/libcurl/curl/multi.h Pages: 1 -->
<svg width="496pt" height="207pt"
 viewBox="0.00 0.00 496.00 207.00" xmlns="http://www.w3.org/2000/svg" xmlns:xlink="http://www.w3.org/1999/xlink">
<g id="graph0" class="graph" transform="scale(1 1) rotate(0) translate(4 203)">
<title>Engine/libcurl/curl/multi.h</title>
<!-- Node1 -->
<g id="node1" class="node">
<title>Node1</title>
<g id="a_node1"><a xlink:title=" ">
<polygon fill="#bfbfbf" stroke="black" points="157.5,-168.5 157.5,-198.5 261.5,-198.5 261.5,-168.5 157.5,-168.5"/>
<text text-anchor="start" x="165.5" y="-186.5" font-family="Helvetica,sans-Serif" font-size="10.00">Engine/libcurl/curl</text>
<text text-anchor="middle" x="209.5" y="-175.5" font-family="Helvetica,sans-Serif" font-size="10.00">/multi.h</text>
</a>
</g>
</g>
<!-- Node2 -->
<g id="node2" class="node">
<title>Node2</title>
<g id="a_node2"><a xlink:title=" ">
<polygon fill="none" stroke="#bfbfbf" points="0,-112.5 0,-131.5 77,-131.5 77,-112.5 0,-112.5"/>
<text text-anchor="middle" x="38.5" y="-119.5" font-family="Helvetica,sans-Serif" font-size="10.00">sys/socket.h</text>
</a>
</g>
</g>
<!-- Node1&#45;&gt;Node2 -->
<g id="edge1" class="edge">
<title>Node1&#45;&gt;Node2</title>
<path fill="none" stroke="midnightblue" d="M168.98,-168.4C139.77,-158.24 100.78,-144.67 73.05,-135.02"/>
<polygon fill="midnightblue" stroke="midnightblue" points="73.98,-131.64 63.38,-131.66 71.68,-138.25 73.98,-131.64"/>
</g>
<!-- Node3 -->
<g id="node3" class="node">
<title>Node3</title>
<g id="a_node3"><a xlink:href="../../d4/ded/sys_2time_8h.html" target="_top" xlink:title=" ">
<polygon fill="none" stroke="black" points="95.5,-112.5 95.5,-131.5 163.5,-131.5 163.5,-112.5 95.5,-112.5"/>
<text text-anchor="middle" x="129.5" y="-119.5" font-family="Helvetica,sans-Serif" font-size="10.00">sys/time.h</text>
</a>
</g>
</g>
<!-- Node1&#45;&gt;Node3 -->
<g id="edge2" class="edge">
<title>Node1&#45;&gt;Node3</title>
<path fill="none" stroke="midnightblue" d="M190.54,-168.4C178.08,-159.13 161.8,-147.03 149.19,-137.65"/>
<polygon fill="midnightblue" stroke="midnightblue" points="151.25,-134.82 141.14,-131.66 147.08,-140.43 151.25,-134.82"/>
</g>
<!-- Node4 -->
<g id="node4" class="node">
<title>Node4</title>
<g id="a_node4"><a xlink:href="../../dc/d8f/Tools_2MinGW_2include_2sys_2types_8h.html" target="_top" xlink:title=" ">
<polygon fill="none" stroke="black" points="66.5,-56.5 66.5,-75.5 138.5,-75.5 138.5,-56.5 66.5,-56.5"/>
<text text-anchor="middle" x="102.5" y="-63.5" font-family="Helvetica,sans-Serif" font-size="10.00">sys/types.h</text>
</a>
</g>
</g>
<!-- Node1&#45;&gt;Node4 -->
<g id="edge4" class="edge">
<title>Node1&#45;&gt;Node4</title>
<path fill="none" stroke="midnightblue" d="M208.99,-168.27C207.75,-152.84 203.66,-128.25 190.5,-112 178.31,-96.95 159.77,-86.42 142.84,-79.36"/>
<polygon fill="midnightblue" stroke="midnightblue" points="143.71,-75.94 133.12,-75.59 141.18,-82.47 143.71,-75.94"/>
</g>
<!-- Node7 -->
<g id="node7" class="node">
<title>Node7</title>
<g id="a_node7"><a xlink:href="../../d2/dd2/curl_8h.html" target="_top" xlink:title=" ">
<polygon fill="none" stroke="black" points="237.5,-112.5 237.5,-131.5 281.5,-131.5 281.5,-112.5 237.5,-112.5"/>
<text text-anchor="middle" x="259.5" y="-119.5" font-family="Helvetica,sans-Serif" font-size="10.00">curl.h</text>
</a>
</g>
</g>
<!-- Node1&#45;&gt;Node7 -->
<g id="edge7" class="edge">
<title>Node1&#45;&gt;Node7</title>
<path fill="none" stroke="midnightblue" d="M215.51,-168.4C221.79,-159.58 231.29,-148.18 239.97,-139.02"/>
<polygon fill="midnightblue" stroke="midnightblue" points="242.72,-141.22 247.3,-131.66 237.76,-136.28 242.72,-141.22"/>
</g>
<!-- Node3&#45;&gt;Node3 -->
<g id="edge3" class="edge">
<title>Node3&#45;&gt;Node3</title>
<path fill="none" stroke="midnightblue" d="M151.68,-131.53C166.75,-134.31 181.5,-131.13 181.5,-122 181.5,-114.94 172.67,-111.44 161.7,-111.5"/>
<polygon fill="midnightblue" stroke="midnightblue" points="161.29,-108.02 151.68,-112.47 161.97,-114.99 161.29,-108.02"/>
</g>
<!-- Node5 -->
<g id="node5" class="node">
<title>Node5</title>
<g id="a_node5"><a xlink:href="../../da/d3d/__mingw_8h.html" target="_top" xlink:title=" ">
<polygon fill="none" stroke="black" points="32,-0.5 32,-19.5 95,-19.5 95,-0.5 32,-0.5"/>
<text text-anchor="middle" x="63.5" y="-7.5" font-family="Helvetica,sans-Serif" font-size="10.00">_mingw.h</text>
</a>
</g>
</g>
<!-- Node4&#45;&gt;Node5 -->
<g id="edge5" class="edge">
<title>Node4&#45;&gt;Node5</title>
<path fill="none" stroke="midnightblue" d="M96.06,-56.08C90.55,-48.46 82.47,-37.26 75.74,-27.94"/>
<polygon fill="midnightblue" stroke="midnightblue" points="78.51,-25.81 69.82,-19.75 72.84,-29.91 78.51,-25.81"/>
</g>
<!-- Node6 -->
<g id="node6" class="node">
<title>Node6</title>
<g id="a_node6"><a xlink:href="../../d3/dce/stddef_8h.html" target="_top" xlink:title=" ">
<polygon fill="none" stroke="black" points="113.5,-0.5 113.5,-19.5 169.5,-19.5 169.5,-0.5 113.5,-0.5"/>
<text text-anchor="middle" x="141.5" y="-7.5" font-family="Helvetica,sans-Serif" font-size="10.00">stddef.h</text>
</a>
</g>
</g>
<!-- Node4&#45;&gt;Node6 -->
<g id="edge6" class="edge">
<title>Node4&#45;&gt;Node6</title>
<path fill="none" stroke="midnightblue" d="M108.94,-56.08C114.45,-48.46 122.53,-37.26 129.26,-27.94"/>
<polygon fill="midnightblue" stroke="midnightblue" points="132.16,-29.91 135.18,-19.75 126.49,-25.81 132.16,-29.91"/>
</g>
<!-- Node7&#45;&gt;Node1 -->
<g id="edge14" class="edge">
<title>Node7&#45;&gt;Node1</title>
<path fill="none" stroke="midnightblue" d="M257.15,-131.66C252.36,-139.33 243.2,-150.86 234.08,-161"/>
<polygon fill="midnightblue" stroke="midnightblue" points="231.44,-158.7 227.19,-168.4 236.57,-163.47 231.44,-158.7"/>
</g>
<!-- Node7&#45;&gt;Node4 -->
<g id="edge11" class="edge">
<title>Node7&#45;&gt;Node4</title>
<path fill="none" stroke="midnightblue" d="M237.34,-113.38C211.29,-104.42 167.75,-89.44 137.21,-78.94"/>
<polygon fill="midnightblue" stroke="midnightblue" points="137.99,-75.51 127.4,-75.56 135.72,-82.13 137.99,-75.51"/>
</g>
<!-- Node8 -->
<g id="node8" class="node">
<title>Node8</title>
<g id="a_node8"><a xlink:href="../../d7/d19/curlver_8h.html" target="_top" xlink:title=" ">
<polygon fill="none" stroke="black" points="157,-56.5 157,-75.5 216,-75.5 216,-56.5 157,-56.5"/>
<text text-anchor="middle" x="186.5" y="-63.5" font-family="Helvetica,sans-Serif" font-size="10.00">curlver.h</text>
</a>
</g>
</g>
<!-- Node7&#45;&gt;Node8 -->
<g id="edge8" class="edge">
<title>Node7&#45;&gt;Node8</title>
<path fill="none" stroke="midnightblue" d="M247.77,-112.32C236.66,-104.11 219.76,-91.6 206.52,-81.81"/>
<polygon fill="midnightblue" stroke="midnightblue" points="208.56,-78.97 198.44,-75.83 204.4,-84.59 208.56,-78.97"/>
</g>
<!-- Node9 -->
<g id="node9" class="node">
<title>Node9</title>
<g id="a_node9"><a xlink:title=" ">
<polygon fill="none" stroke="#bfbfbf" points="234.5,-56.5 234.5,-75.5 284.5,-75.5 284.5,-56.5 234.5,-56.5"/>
<text text-anchor="middle" x="259.5" y="-63.5" font-family="Helvetica,sans-Serif" font-size="10.00">stdio.h</text>
</a>
</g>
</g>
<!-- Node7&#45;&gt;Node9 -->
<g id="edge9" class="edge">
<title>Node7&#45;&gt;Node9</title>
<path fill="none" stroke="midnightblue" d="M259.5,-112.08C259.5,-105.01 259.5,-94.86 259.5,-85.99"/>
<polygon fill="midnightblue" stroke="midnightblue" points="263,-85.75 259.5,-75.75 256,-85.75 263,-85.75"/>
</g>
<!-- Node10 -->
<g id="node10" class="node">
<title>Node10</title>
<g id="a_node10"><a xlink:title=" ">
<polygon fill="none" stroke="#bfbfbf" points="303,-56.5 303,-75.5 356,-75.5 356,-56.5 303,-56.5"/>
<text text-anchor="middle" x="329.5" y="-63.5" font-family="Helvetica,sans-Serif" font-size="10.00">limits.h</text>
</a>
</g>
</g>
<!-- Node7&#45;&gt;Node10 -->
<g id="edge10" class="edge">
<title>Node7&#45;&gt;Node10</title>
<path fill="none" stroke="midnightblue" d="M270.75,-112.32C281.3,-104.18 297.3,-91.84 309.94,-82.09"/>
<polygon fill="midnightblue" stroke="midnightblue" points="312.27,-84.71 318.05,-75.83 307.99,-79.17 312.27,-84.71"/>
</g>
<!-- Node11 -->
<g id="node11" class="node">
<title>Node11</title>
<g id="a_node11"><a xlink:title=" ">
<polygon fill="none" stroke="#bfbfbf" points="374.5,-56.5 374.5,-75.5 422.5,-75.5 422.5,-56.5 374.5,-56.5"/>
<text text-anchor="middle" x="398.5" y="-63.5" font-family="Helvetica,sans-Serif" font-size="10.00">time.h</text>
</a>
</g>
</g>
<!-- Node7&#45;&gt;Node11 -->
<g id="edge12" class="edge">
<title>Node7&#45;&gt;Node11</title>
<path fill="none" stroke="midnightblue" d="M281.52,-112.44C304.6,-103.48 341.06,-89.31 367.14,-79.18"/>
<polygon fill="midnightblue" stroke="midnightblue" points="368.52,-82.4 376.58,-75.52 365.99,-75.88 368.52,-82.4"/>
</g>
<!-- Node12 -->
<g id="node12" class="node">
<title>Node12</title>
<g id="a_node12"><a xlink:href="../../d1/d83/easy_8h.html" target="_top" xlink:title=" ">
<polygon fill="none" stroke="black" points="441,-56.5 441,-75.5 488,-75.5 488,-56.5 441,-56.5"/>
<text text-anchor="middle" x="464.5" y="-63.5" font-family="Helvetica,sans-Serif" font-size="10.00">easy.h</text>
</a>
</g>
</g>
<!-- Node7&#45;&gt;Node12 -->
<g id="edge13" class="edge">
<title>Node7&#45;&gt;Node12</title>
<path fill="none" stroke="midnightblue" d="M281.51,-115.32C312.52,-107.3 371.07,-92.1 430.74,-76.18"/>
<polygon fill="midnightblue" stroke="midnightblue" points="431.96,-79.48 440.71,-73.52 430.15,-72.72 431.96,-79.48"/>
</g>
</g>
</svg>
