<?xml version="1.0" encoding="UTF-8" standalone="no"?>
<!DOCTYPE svg PUBLIC "-//W3C//DTD SVG 1.1//EN"
 "http://www.w3.org/Graphics/SVG/1.1/DTD/svg11.dtd">
<!-- Generated by graphviz version 2.43.0 (0)
 -->
<!-- Title: tagOLEUIPASTEENTRYW Pages: 1 -->
<svg width="305pt" height="106pt"
 viewBox="0.00 0.00 304.50 106.00" xmlns="http://www.w3.org/2000/svg" xmlns:xlink="http://www.w3.org/1999/xlink">
<g id="graph0" class="graph" transform="scale(1 1) rotate(0) translate(4 102)">
<title>tagOLEUIPASTEENTRYW</title>
<!-- Node1 -->
<g id="node1" class="node">
<title>Node1</title>
<g id="a_node1"><a xlink:title=" ">
<polygon fill="#bfbfbf" stroke="black" points="90,-0.5 90,-19.5 223,-19.5 223,-0.5 90,-0.5"/>
<text text-anchor="middle" x="156.5" y="-7.5" font-family="Helvetica,sans-Serif" font-size="10.00">tagOLEUIPASTEENTRYW</text>
</a>
</g>
</g>
<!-- Node2 -->
<g id="node2" class="node">
<title>Node2</title>
<g id="a_node2"><a xlink:title=" ">
<polygon fill="none" stroke="#bfbfbf" points="0,-78.5 0,-97.5 89,-97.5 89,-78.5 0,-78.5"/>
<text text-anchor="middle" x="44.5" y="-85.5" font-family="Helvetica,sans-Serif" font-size="10.00">unsigned short</text>
</a>
</g>
</g>
<!-- Node2&#45;&gt;Node1 -->
<g id="edge1" class="edge">
<title>Node2&#45;&gt;Node1</title>
<path fill="none" stroke="#9a32cd" stroke-dasharray="5,2" d="M47.56,-68.36C50.16,-58.1 54.9,-45.88 63.5,-38 72.8,-29.48 84.63,-23.64 96.71,-19.63"/>
<polygon fill="#9a32cd" stroke="#9a32cd" points="44.07,-67.94 45.5,-78.44 50.93,-69.34 44.07,-67.94"/>
<text text-anchor="middle" x="108" y="-52" font-family="Helvetica,sans-Serif" font-size="10.00"> lpstrFormatName</text>
<text text-anchor="middle" x="108" y="-41" font-family="Helvetica,sans-Serif" font-size="10.00">lpstrResultText</text>
</g>
<!-- Node3 -->
<g id="node3" class="node">
<title>Node3</title>
<g id="a_node3"><a xlink:title=" ">
<polygon fill="none" stroke="#bfbfbf" points="118.5,-78.5 118.5,-97.5 194.5,-97.5 194.5,-78.5 118.5,-78.5"/>
<text text-anchor="middle" x="156.5" y="-85.5" font-family="Helvetica,sans-Serif" font-size="10.00">FORMATETC</text>
</a>
</g>
</g>
<!-- Node3&#45;&gt;Node1 -->
<g id="edge2" class="edge">
<title>Node3&#45;&gt;Node1</title>
<path fill="none" stroke="#9a32cd" stroke-dasharray="5,2" d="M156.5,-68.22C156.5,-52.7 156.5,-31.36 156.5,-19.62"/>
<polygon fill="#9a32cd" stroke="#9a32cd" points="153,-68.28 156.5,-78.28 160,-68.28 153,-68.28"/>
<text text-anchor="middle" x="174.5" y="-46.5" font-family="Helvetica,sans-Serif" font-size="10.00"> fmtetc</text>
</g>
<!-- Node4 -->
<g id="node4" class="node">
<title>Node4</title>
<g id="a_node4"><a xlink:title=" ">
<polygon fill="none" stroke="#bfbfbf" points="212.5,-78.5 212.5,-97.5 250.5,-97.5 250.5,-78.5 212.5,-78.5"/>
<text text-anchor="middle" x="231.5" y="-85.5" font-family="Helvetica,sans-Serif" font-size="10.00">long</text>
</a>
</g>
</g>
<!-- Node4&#45;&gt;Node1 -->
<g id="edge3" class="edge">
<title>Node4&#45;&gt;Node1</title>
<path fill="none" stroke="#9a32cd" stroke-dasharray="5,2" d="M221.31,-69.69C214.95,-59.74 206.15,-47.4 196.5,-38 189.18,-30.87 179.75,-24.4 171.89,-19.59"/>
<polygon fill="#9a32cd" stroke="#9a32cd" points="218.4,-71.64 226.61,-78.32 224.36,-67.97 218.4,-71.64"/>
<text text-anchor="middle" x="255" y="-52" font-family="Helvetica,sans-Serif" font-size="10.00"> dwScratchSpace</text>
<text text-anchor="middle" x="255" y="-41" font-family="Helvetica,sans-Serif" font-size="10.00">dwFlags</text>
</g>
</g>
</svg>
