<?xml version="1.0" encoding="UTF-8" standalone="no"?>
<!DOCTYPE svg PUBLIC "-//W3C//DTD SVG 1.1//EN"
 "http://www.w3.org/Graphics/SVG/1.1/DTD/svg11.dtd">
<!-- Generated by graphviz version 2.43.0 (0)
 -->
<!-- Title: Engine/tools/lcc/src/sym.c Pages: 1 -->
<svg width="564pt" height="151pt"
 viewBox="0.00 0.00 563.50 151.00" xmlns="http://www.w3.org/2000/svg" xmlns:xlink="http://www.w3.org/1999/xlink">
<g id="graph0" class="graph" transform="scale(1 1) rotate(0) translate(4 147)">
<title>Engine/tools/lcc/src/sym.c</title>
<!-- Node1 -->
<g id="node1" class="node">
<title>Node1</title>
<g id="a_node1"><a xlink:title=" ">
<polygon fill="#bfbfbf" stroke="black" points="79,-112.5 79,-142.5 189,-142.5 189,-112.5 79,-112.5"/>
<text text-anchor="start" x="87" y="-130.5" font-family="Helvetica,sans-Serif" font-size="10.00">Engine/tools/lcc/src</text>
<text text-anchor="middle" x="134" y="-119.5" font-family="Helvetica,sans-Serif" font-size="10.00">/sym.c</text>
</a>
</g>
</g>
<!-- Node2 -->
<g id="node2" class="node">
<title>Node2</title>
<g id="a_node2"><a xlink:href="../../d2/dc5/c_8h.html" target="_top" xlink:title=" ">
<polygon fill="none" stroke="black" points="227.5,-56.5 227.5,-75.5 258.5,-75.5 258.5,-56.5 227.5,-56.5"/>
<text text-anchor="middle" x="243" y="-63.5" font-family="Helvetica,sans-Serif" font-size="10.00">c.h</text>
</a>
</g>
</g>
<!-- Node1&#45;&gt;Node2 -->
<g id="edge1" class="edge">
<title>Node1&#45;&gt;Node2</title>
<path fill="none" stroke="midnightblue" d="M159.83,-112.4C177.57,-102.71 200.98,-89.94 218.44,-80.41"/>
<polygon fill="midnightblue" stroke="midnightblue" points="220.36,-83.35 227.46,-75.48 217,-77.2 220.36,-83.35"/>
</g>
<!-- Node5 -->
<g id="node5" class="node">
<title>Node5</title>
<g id="a_node5"><a xlink:title=" ">
<polygon fill="none" stroke="#bfbfbf" points="0,-0.5 0,-19.5 50,-19.5 50,-0.5 0,-0.5"/>
<text text-anchor="middle" x="25" y="-7.5" font-family="Helvetica,sans-Serif" font-size="10.00">stdio.h</text>
</a>
</g>
</g>
<!-- Node1&#45;&gt;Node5 -->
<g id="edge10" class="edge">
<title>Node1&#45;&gt;Node5</title>
<path fill="none" stroke="midnightblue" d="M120.63,-112.34C100.28,-90.77 61.63,-49.81 40.22,-27.13"/>
<polygon fill="midnightblue" stroke="midnightblue" points="42.59,-24.54 33.18,-19.67 37.5,-29.34 42.59,-24.54"/>
</g>
<!-- Node3 -->
<g id="node3" class="node">
<title>Node3</title>
<g id="a_node3"><a xlink:title=" ">
<polygon fill="none" stroke="#bfbfbf" points="68,-0.5 68,-19.5 124,-19.5 124,-0.5 68,-0.5"/>
<text text-anchor="middle" x="96" y="-7.5" font-family="Helvetica,sans-Serif" font-size="10.00">assert.h</text>
</a>
</g>
</g>
<!-- Node2&#45;&gt;Node3 -->
<g id="edge2" class="edge">
<title>Node2&#45;&gt;Node3</title>
<path fill="none" stroke="midnightblue" d="M227.27,-59.22C203.88,-50.63 159.4,-34.29 128.74,-23.03"/>
<polygon fill="midnightblue" stroke="midnightblue" points="129.92,-19.73 119.32,-19.57 127.5,-26.3 129.92,-19.73"/>
</g>
<!-- Node4 -->
<g id="node4" class="node">
<title>Node4</title>
<g id="a_node4"><a xlink:title=" ">
<polygon fill="none" stroke="#bfbfbf" points="142,-0.5 142,-19.5 198,-19.5 198,-0.5 142,-0.5"/>
<text text-anchor="middle" x="170" y="-7.5" font-family="Helvetica,sans-Serif" font-size="10.00">stdarg.h</text>
</a>
</g>
</g>
<!-- Node2&#45;&gt;Node4 -->
<g id="edge3" class="edge">
<title>Node2&#45;&gt;Node4</title>
<path fill="none" stroke="midnightblue" d="M231.27,-56.32C220.16,-48.11 203.26,-35.6 190.02,-25.81"/>
<polygon fill="midnightblue" stroke="midnightblue" points="192.06,-22.97 181.94,-19.83 187.9,-28.59 192.06,-22.97"/>
</g>
<!-- Node2&#45;&gt;Node5 -->
<g id="edge4" class="edge">
<title>Node2&#45;&gt;Node5</title>
<path fill="none" stroke="midnightblue" d="M227.22,-61.25C196.87,-54.01 128.01,-37.47 60.23,-20.28"/>
<polygon fill="midnightblue" stroke="midnightblue" points="60.79,-16.81 50.24,-17.74 59.07,-23.59 60.79,-16.81"/>
</g>
<!-- Node6 -->
<g id="node6" class="node">
<title>Node6</title>
<g id="a_node6"><a xlink:title=" ">
<polygon fill="none" stroke="#bfbfbf" points="216.5,-0.5 216.5,-19.5 269.5,-19.5 269.5,-0.5 216.5,-0.5"/>
<text text-anchor="middle" x="243" y="-7.5" font-family="Helvetica,sans-Serif" font-size="10.00">stdlib.h</text>
</a>
</g>
</g>
<!-- Node2&#45;&gt;Node6 -->
<g id="edge5" class="edge">
<title>Node2&#45;&gt;Node6</title>
<path fill="none" stroke="midnightblue" d="M243,-56.08C243,-49.01 243,-38.86 243,-29.99"/>
<polygon fill="midnightblue" stroke="midnightblue" points="246.5,-29.75 243,-19.75 239.5,-29.75 246.5,-29.75"/>
</g>
<!-- Node7 -->
<g id="node7" class="node">
<title>Node7</title>
<g id="a_node7"><a xlink:title=" ">
<polygon fill="none" stroke="#bfbfbf" points="287.5,-0.5 287.5,-19.5 340.5,-19.5 340.5,-0.5 287.5,-0.5"/>
<text text-anchor="middle" x="314" y="-7.5" font-family="Helvetica,sans-Serif" font-size="10.00">limits.h</text>
</a>
</g>
</g>
<!-- Node2&#45;&gt;Node7 -->
<g id="edge6" class="edge">
<title>Node2&#45;&gt;Node7</title>
<path fill="none" stroke="midnightblue" d="M254.41,-56.32C265.11,-48.18 281.34,-35.84 294.16,-26.09"/>
<polygon fill="midnightblue" stroke="midnightblue" points="296.54,-28.67 302.39,-19.83 292.31,-23.1 296.54,-28.67"/>
</g>
<!-- Node8 -->
<g id="node8" class="node">
<title>Node8</title>
<g id="a_node8"><a xlink:title=" ">
<polygon fill="none" stroke="#bfbfbf" points="358.5,-0.5 358.5,-19.5 411.5,-19.5 411.5,-0.5 358.5,-0.5"/>
<text text-anchor="middle" x="385" y="-7.5" font-family="Helvetica,sans-Serif" font-size="10.00">string.h</text>
</a>
</g>
</g>
<!-- Node2&#45;&gt;Node8 -->
<g id="edge7" class="edge">
<title>Node2&#45;&gt;Node8</title>
<path fill="none" stroke="midnightblue" d="M258.74,-59.01C281.32,-50.43 323.4,-34.42 352.75,-23.26"/>
<polygon fill="midnightblue" stroke="midnightblue" points="354.07,-26.51 362.17,-19.68 351.58,-19.96 354.07,-26.51"/>
</g>
<!-- Node9 -->
<g id="node9" class="node">
<title>Node9</title>
<g id="a_node9"><a xlink:href="../../d4/dc6/tools_2lcc_2src_2config_8h.html" target="_top" xlink:title=" ">
<polygon fill="none" stroke="black" points="429.5,-0.5 429.5,-19.5 484.5,-19.5 484.5,-0.5 429.5,-0.5"/>
<text text-anchor="middle" x="457" y="-7.5" font-family="Helvetica,sans-Serif" font-size="10.00">config.h</text>
</a>
</g>
</g>
<!-- Node2&#45;&gt;Node9 -->
<g id="edge8" class="edge">
<title>Node2&#45;&gt;Node9</title>
<path fill="none" stroke="midnightblue" d="M258.74,-61.03C292.37,-52.54 372.05,-32.44 419.52,-20.46"/>
<polygon fill="midnightblue" stroke="midnightblue" points="420.58,-23.8 429.42,-17.96 418.87,-17.01 420.58,-23.8"/>
</g>
<!-- Node10 -->
<g id="node10" class="node">
<title>Node10</title>
<g id="a_node10"><a xlink:href="../../d1/d07/token_8h.html" target="_top" xlink:title=" ">
<polygon fill="none" stroke="black" points="502.5,-0.5 502.5,-19.5 555.5,-19.5 555.5,-0.5 502.5,-0.5"/>
<text text-anchor="middle" x="529" y="-7.5" font-family="Helvetica,sans-Serif" font-size="10.00">token.h</text>
</a>
</g>
</g>
<!-- Node2&#45;&gt;Node10 -->
<g id="edge9" class="edge">
<title>Node2&#45;&gt;Node10</title>
<path fill="none" stroke="midnightblue" d="M258.65,-62.61C296.89,-56.68 398.29,-40.44 492.34,-20.24"/>
<polygon fill="midnightblue" stroke="midnightblue" points="493.26,-23.62 502.3,-18.08 491.78,-16.78 493.26,-23.62"/>
</g>
</g>
</svg>
