<?xml version="1.0" encoding="UTF-8" standalone="no"?>
<!DOCTYPE svg PUBLIC "-//W3C//DTD SVG 1.1//EN"
 "http://www.w3.org/Graphics/SVG/1.1/DTD/svg11.dtd">
<!-- Generated by graphviz version 2.43.0 (0)
 -->
<!-- Title: Engine/libspeex/fftwrap.c Pages: 1 -->
<svg width="308pt" height="252pt"
 viewBox="0.00 0.00 307.82 252.00" xmlns="http://www.w3.org/2000/svg" xmlns:xlink="http://www.w3.org/1999/xlink">
<g id="graph0" class="graph" transform="scale(1 1) rotate(0) translate(4 248)">
<title>Engine/libspeex/fftwrap.c</title>
<!-- Node1 -->
<g id="node1" class="node">
<title>Node1</title>
<g id="a_node1"><a xlink:title=" ">
<polygon fill="#bfbfbf" stroke="black" points="65.5,-224.5 65.5,-243.5 205.5,-243.5 205.5,-224.5 65.5,-224.5"/>
<text text-anchor="middle" x="135.5" y="-231.5" font-family="Helvetica,sans-Serif" font-size="10.00">Engine/libspeex/fftwrap.c</text>
</a>
</g>
</g>
<!-- Node2 -->
<g id="node2" class="node">
<title>Node2</title>
<g id="a_node2"><a xlink:href="../../df/dca/Engine_2libspeex_2arch_8h.html" target="_top" xlink:title="Various architecture definitions Speex.">
<polygon fill="none" stroke="black" points="36,-56.5 36,-75.5 83,-75.5 83,-56.5 36,-56.5"/>
<text text-anchor="middle" x="59.5" y="-63.5" font-family="Helvetica,sans-Serif" font-size="10.00">arch.h</text>
</a>
</g>
</g>
<!-- Node1&#45;&gt;Node2 -->
<g id="edge1" class="edge">
<title>Node1&#45;&gt;Node2</title>
<path fill="none" stroke="midnightblue" d="M129.76,-224.43C118.59,-207.44 93.68,-167.99 78.5,-132 72.08,-116.77 66.98,-98.65 63.68,-85.42"/>
<polygon fill="midnightblue" stroke="midnightblue" points="67.07,-84.55 61.36,-75.63 60.26,-86.17 67.07,-84.55"/>
</g>
<!-- Node4 -->
<g id="node4" class="node">
<title>Node4</title>
<g id="a_node4"><a xlink:href="../../d9/d2a/Engine_2libspeex_2os__support_8h.html" target="_top" xlink:title=" ">
<polygon fill="none" stroke="black" points="220,-168.5 220,-187.5 299,-187.5 299,-168.5 220,-168.5"/>
<text text-anchor="middle" x="259.5" y="-175.5" font-family="Helvetica,sans-Serif" font-size="10.00">os_support.h</text>
</a>
</g>
</g>
<!-- Node1&#45;&gt;Node4 -->
<g id="edge3" class="edge">
<title>Node1&#45;&gt;Node4</title>
<path fill="none" stroke="midnightblue" d="M155.15,-224.44C175.46,-215.6 207.4,-201.69 230.6,-191.59"/>
<polygon fill="midnightblue" stroke="midnightblue" points="232.17,-194.72 239.94,-187.52 229.38,-188.3 232.17,-194.72"/>
</g>
<!-- Node8 -->
<g id="node8" class="node">
<title>Node8</title>
<g id="a_node8"><a xlink:href="../../d1/dbc/Engine_2libspeex_2kiss__fftr_8h.html" target="_top" xlink:title=" ">
<polygon fill="none" stroke="black" points="133.5,-168.5 133.5,-187.5 197.5,-187.5 197.5,-168.5 133.5,-168.5"/>
<text text-anchor="middle" x="165.5" y="-175.5" font-family="Helvetica,sans-Serif" font-size="10.00">kiss_fftr.h</text>
</a>
</g>
</g>
<!-- Node1&#45;&gt;Node8 -->
<g id="edge7" class="edge">
<title>Node1&#45;&gt;Node8</title>
<path fill="none" stroke="midnightblue" d="M140.45,-224.08C144.6,-216.61 150.65,-205.72 155.77,-196.52"/>
<polygon fill="midnightblue" stroke="midnightblue" points="158.84,-198.19 160.64,-187.75 152.72,-194.79 158.84,-198.19"/>
</g>
<!-- Node9 -->
<g id="node9" class="node">
<title>Node9</title>
<g id="a_node9"><a xlink:href="../../df/d1b/Engine_2libspeex_2kiss__fft_8h.html" target="_top" xlink:title=" ">
<polygon fill="none" stroke="black" points="88,-112.5 88,-131.5 149,-131.5 149,-112.5 88,-112.5"/>
<text text-anchor="middle" x="118.5" y="-119.5" font-family="Helvetica,sans-Serif" font-size="10.00">kiss_fft.h</text>
</a>
</g>
</g>
<!-- Node1&#45;&gt;Node9 -->
<g id="edge12" class="edge">
<title>Node1&#45;&gt;Node9</title>
<path fill="none" stroke="midnightblue" d="M133.01,-224.45C130.48,-215.46 126.65,-200.85 124.5,-188 121.92,-172.61 120.38,-154.98 119.51,-141.96"/>
<polygon fill="midnightblue" stroke="midnightblue" points="123,-141.66 118.9,-131.88 116.01,-142.08 123,-141.66"/>
</g>
<!-- Node3 -->
<g id="node3" class="node">
<title>Node3</title>
<g id="a_node3"><a xlink:title=" ">
<polygon fill="none" stroke="#bfbfbf" points="0,-0.5 0,-19.5 119,-19.5 119,-0.5 0,-0.5"/>
<text text-anchor="middle" x="59.5" y="-7.5" font-family="Helvetica,sans-Serif" font-size="10.00">speex/speex_types.h</text>
</a>
</g>
</g>
<!-- Node2&#45;&gt;Node3 -->
<g id="edge2" class="edge">
<title>Node2&#45;&gt;Node3</title>
<path fill="none" stroke="midnightblue" d="M59.5,-56.08C59.5,-49.01 59.5,-38.86 59.5,-29.99"/>
<polygon fill="midnightblue" stroke="midnightblue" points="63,-29.75 59.5,-19.75 56,-29.75 63,-29.75"/>
</g>
<!-- Node5 -->
<g id="node5" class="node">
<title>Node5</title>
<g id="a_node5"><a xlink:title=" ">
<polygon fill="none" stroke="#bfbfbf" points="167,-112.5 167,-131.5 220,-131.5 220,-112.5 167,-112.5"/>
<text text-anchor="middle" x="193.5" y="-119.5" font-family="Helvetica,sans-Serif" font-size="10.00">string.h</text>
</a>
</g>
</g>
<!-- Node4&#45;&gt;Node5 -->
<g id="edge4" class="edge">
<title>Node4&#45;&gt;Node5</title>
<path fill="none" stroke="midnightblue" d="M248.9,-168.32C239.04,-160.26 224.15,-148.08 212.28,-138.37"/>
<polygon fill="midnightblue" stroke="midnightblue" points="214.25,-135.46 204.3,-131.83 209.82,-140.88 214.25,-135.46"/>
</g>
<!-- Node6 -->
<g id="node6" class="node">
<title>Node6</title>
<g id="a_node6"><a xlink:title=" ">
<polygon fill="none" stroke="#bfbfbf" points="238.5,-112.5 238.5,-131.5 288.5,-131.5 288.5,-112.5 238.5,-112.5"/>
<text text-anchor="middle" x="263.5" y="-119.5" font-family="Helvetica,sans-Serif" font-size="10.00">stdio.h</text>
</a>
</g>
</g>
<!-- Node4&#45;&gt;Node6 -->
<g id="edge5" class="edge">
<title>Node4&#45;&gt;Node6</title>
<path fill="none" stroke="midnightblue" d="M260.16,-168.08C260.68,-161.01 261.44,-150.86 262.09,-141.99"/>
<polygon fill="midnightblue" stroke="midnightblue" points="265.6,-141.98 262.85,-131.75 258.62,-141.47 265.6,-141.98"/>
</g>
<!-- Node7 -->
<g id="node7" class="node">
<title>Node7</title>
<g id="a_node7"><a xlink:title=" ">
<polygon fill="none" stroke="#bfbfbf" points="230,-56.5 230,-75.5 283,-75.5 283,-56.5 230,-56.5"/>
<text text-anchor="middle" x="256.5" y="-63.5" font-family="Helvetica,sans-Serif" font-size="10.00">stdlib.h</text>
</a>
</g>
</g>
<!-- Node4&#45;&gt;Node7 -->
<g id="edge6" class="edge">
<title>Node4&#45;&gt;Node7</title>
<path fill="none" stroke="midnightblue" d="M270.75,-168.21C284.73,-156.13 305.81,-133.45 297.5,-112 293.05,-100.5 284.13,-90.13 275.75,-82.25"/>
<polygon fill="midnightblue" stroke="midnightblue" points="277.87,-79.46 268.04,-75.51 273.26,-84.73 277.87,-79.46"/>
</g>
<!-- Node8&#45;&gt;Node9 -->
<g id="edge8" class="edge">
<title>Node8&#45;&gt;Node9</title>
<path fill="none" stroke="midnightblue" d="M157.74,-168.08C150.96,-160.3 140.96,-148.8 132.74,-139.37"/>
<polygon fill="midnightblue" stroke="midnightblue" points="135.32,-137 126.12,-131.75 130.04,-141.59 135.32,-137"/>
</g>
<!-- Node9&#45;&gt;Node2 -->
<g id="edge11" class="edge">
<title>Node9&#45;&gt;Node2</title>
<path fill="none" stroke="midnightblue" d="M109.02,-112.32C100.3,-104.34 87.16,-92.31 76.6,-82.65"/>
<polygon fill="midnightblue" stroke="midnightblue" points="78.89,-80 69.15,-75.83 74.17,-85.17 78.89,-80"/>
</g>
<!-- Node9&#45;&gt;Node7 -->
<g id="edge9" class="edge">
<title>Node9&#45;&gt;Node7</title>
<path fill="none" stroke="midnightblue" d="M140.37,-112.44C163.28,-103.48 199.48,-89.31 225.37,-79.18"/>
<polygon fill="midnightblue" stroke="midnightblue" points="226.7,-82.42 234.74,-75.52 224.15,-75.9 226.7,-82.42"/>
</g>
<!-- Node10 -->
<g id="node10" class="node">
<title>Node10</title>
<g id="a_node10"><a xlink:title=" ">
<polygon fill="none" stroke="#bfbfbf" points="101,-56.5 101,-75.5 152,-75.5 152,-56.5 101,-56.5"/>
<text text-anchor="middle" x="126.5" y="-63.5" font-family="Helvetica,sans-Serif" font-size="10.00">math.h</text>
</a>
</g>
</g>
<!-- Node9&#45;&gt;Node10 -->
<g id="edge10" class="edge">
<title>Node9&#45;&gt;Node10</title>
<path fill="none" stroke="midnightblue" d="M119.82,-112.08C120.88,-104.93 122.41,-94.64 123.73,-85.69"/>
<polygon fill="midnightblue" stroke="midnightblue" points="127.2,-86.16 125.2,-75.75 120.28,-85.13 127.2,-86.16"/>
</g>
</g>
</svg>
