<?xml version="1.0" encoding="UTF-8" standalone="no"?>
<!DOCTYPE svg PUBLIC "-//W3C//DTD SVG 1.1//EN"
 "http://www.w3.org/Graphics/SVG/1.1/DTD/svg11.dtd">
<!-- Generated by graphviz version 2.43.0 (0)
 -->
<!-- Title: Engine/libspeex/modes.h Pages: 1 -->
<svg width="325pt" height="140pt"
 viewBox="0.00 0.00 325.00 140.00" xmlns="http://www.w3.org/2000/svg" xmlns:xlink="http://www.w3.org/1999/xlink">
<g id="graph0" class="graph" transform="scale(1 1) rotate(0) translate(4 136)">
<title>Engine/libspeex/modes.h</title>
<!-- Node1 -->
<g id="node1" class="node">
<title>Node1</title>
<g id="a_node1"><a xlink:title="Describes the different modes of the codec.">
<polygon fill="#bfbfbf" stroke="black" points="91,-112.5 91,-131.5 230,-131.5 230,-112.5 91,-112.5"/>
<text text-anchor="middle" x="160.5" y="-119.5" font-family="Helvetica,sans-Serif" font-size="10.00">Engine/libspeex/modes.h</text>
</a>
</g>
</g>
<!-- Node2 -->
<g id="node2" class="node">
<title>Node2</title>
<g id="a_node2"><a xlink:title=" ">
<polygon fill="none" stroke="#bfbfbf" points="0,-56.5 0,-75.5 87,-75.5 87,-56.5 0,-56.5"/>
<text text-anchor="middle" x="43.5" y="-63.5" font-family="Helvetica,sans-Serif" font-size="10.00">speex/speex.h</text>
</a>
</g>
</g>
<!-- Node1&#45;&gt;Node2 -->
<g id="edge1" class="edge">
<title>Node1&#45;&gt;Node2</title>
<path fill="none" stroke="midnightblue" d="M141.96,-112.44C122.88,-103.64 92.93,-89.81 71.06,-79.72"/>
<polygon fill="midnightblue" stroke="midnightblue" points="72.5,-76.53 61.95,-75.52 69.57,-82.88 72.5,-76.53"/>
</g>
<!-- Node3 -->
<g id="node3" class="node">
<title>Node3</title>
<g id="a_node3"><a xlink:title=" ">
<polygon fill="none" stroke="#bfbfbf" points="105.5,-56.5 105.5,-75.5 215.5,-75.5 215.5,-56.5 105.5,-56.5"/>
<text text-anchor="middle" x="160.5" y="-63.5" font-family="Helvetica,sans-Serif" font-size="10.00">speex/speex_bits.h</text>
</a>
</g>
</g>
<!-- Node1&#45;&gt;Node3 -->
<g id="edge2" class="edge">
<title>Node1&#45;&gt;Node3</title>
<path fill="none" stroke="midnightblue" d="M160.5,-112.08C160.5,-105.01 160.5,-94.86 160.5,-85.99"/>
<polygon fill="midnightblue" stroke="midnightblue" points="164,-85.75 160.5,-75.75 157,-85.75 164,-85.75"/>
</g>
<!-- Node4 -->
<g id="node4" class="node">
<title>Node4</title>
<g id="a_node4"><a xlink:href="../../df/dca/Engine_2libspeex_2arch_8h.html" target="_top" xlink:title="Various architecture definitions Speex.">
<polygon fill="none" stroke="black" points="234,-56.5 234,-75.5 281,-75.5 281,-56.5 234,-56.5"/>
<text text-anchor="middle" x="257.5" y="-63.5" font-family="Helvetica,sans-Serif" font-size="10.00">arch.h</text>
</a>
</g>
</g>
<!-- Node1&#45;&gt;Node4 -->
<g id="edge3" class="edge">
<title>Node1&#45;&gt;Node4</title>
<path fill="none" stroke="midnightblue" d="M176.08,-112.32C191.5,-103.74 215.31,-90.49 233.21,-80.52"/>
<polygon fill="midnightblue" stroke="midnightblue" points="234.92,-83.58 241.95,-75.65 231.51,-77.46 234.92,-83.58"/>
</g>
<!-- Node5 -->
<g id="node5" class="node">
<title>Node5</title>
<g id="a_node5"><a xlink:title=" ">
<polygon fill="none" stroke="#bfbfbf" points="198,-0.5 198,-19.5 317,-19.5 317,-0.5 198,-0.5"/>
<text text-anchor="middle" x="257.5" y="-7.5" font-family="Helvetica,sans-Serif" font-size="10.00">speex/speex_types.h</text>
</a>
</g>
</g>
<!-- Node4&#45;&gt;Node5 -->
<g id="edge4" class="edge">
<title>Node4&#45;&gt;Node5</title>
<path fill="none" stroke="midnightblue" d="M257.5,-56.08C257.5,-49.01 257.5,-38.86 257.5,-29.99"/>
<polygon fill="midnightblue" stroke="midnightblue" points="261,-29.75 257.5,-19.75 254,-29.75 261,-29.75"/>
</g>
</g>
</svg>
