<?xml version="1.0" encoding="UTF-8" standalone="no"?>
<!DOCTYPE svg PUBLIC "-//W3C//DTD SVG 1.1//EN"
 "http://www.w3.org/Graphics/SVG/1.1/DTD/svg11.dtd">
<!-- Generated by graphviz version 2.43.0 (0)
 -->
<!-- Title: _DISK_GROW_PARTITION Pages: 1 -->
<svg width="463pt" height="126pt"
 viewBox="0.00 0.00 463.00 126.00" xmlns="http://www.w3.org/2000/svg" xmlns:xlink="http://www.w3.org/1999/xlink">
<g id="graph0" class="graph" transform="scale(1 1) rotate(0) translate(4 122)">
<title>_DISK_GROW_PARTITION</title>
<!-- Node1 -->
<g id="node1" class="node">
<title>Node1</title>
<g id="a_node1"><a xlink:title=" ">
<polygon fill="#bfbfbf" stroke="black" points="317,-60.5 317,-79.5 455,-79.5 455,-60.5 317,-60.5"/>
<text text-anchor="middle" x="386" y="-67.5" font-family="Helvetica,sans-Serif" font-size="10.00">_DISK_GROW_PARTITION</text>
</a>
</g>
</g>
<!-- Node2 -->
<g id="node2" class="node">
<title>Node2</title>
<g id="a_node2"><a xlink:title=" ">
<polygon fill="none" stroke="#bfbfbf" points="50,-98.5 50,-117.5 148,-117.5 148,-98.5 50,-98.5"/>
<text text-anchor="middle" x="99" y="-105.5" font-family="Helvetica,sans-Serif" font-size="10.00">LARGE_INTEGER</text>
</a>
</g>
</g>
<!-- Node2&#45;&gt;Node1 -->
<g id="edge1" class="edge">
<title>Node2&#45;&gt;Node1</title>
<path fill="none" stroke="#9a32cd" stroke-dasharray="5,2" d="M158.4,-102.15C198.12,-97.94 251.82,-91.83 299,-85 310.1,-83.39 321.97,-81.46 333.23,-79.53"/>
<polygon fill="#9a32cd" stroke="#9a32cd" points="157.94,-98.67 148.36,-103.2 158.67,-105.64 157.94,-98.67"/>
<text text-anchor="middle" x="257.5" y="-98" font-family="Helvetica,sans-Serif" font-size="10.00"> BytesToGrow</text>
</g>
<!-- Node3 -->
<g id="node3" class="node">
<title>Node3</title>
<g id="a_node3"><a xlink:title=" ">
<polygon fill="none" stroke="#bfbfbf" points="68.5,-60.5 68.5,-79.5 129.5,-79.5 129.5,-60.5 68.5,-60.5"/>
<text text-anchor="middle" x="99" y="-67.5" font-family="Helvetica,sans-Serif" font-size="10.00">unsigned</text>
</a>
</g>
</g>
<!-- Node3&#45;&gt;Node1 -->
<g id="edge2" class="edge">
<title>Node3&#45;&gt;Node1</title>
<path fill="none" stroke="#9a32cd" stroke-dasharray="5,2" d="M139.83,-70C185.64,-70 261.65,-70 316.91,-70"/>
<polygon fill="#9a32cd" stroke="#9a32cd" points="139.69,-66.5 129.69,-70 139.69,-73.5 139.69,-66.5"/>
<text text-anchor="middle" x="257.5" y="-73" font-family="Helvetica,sans-Serif" font-size="10.00"> PartitionNumber</text>
</g>
<!-- Node4 -->
<g id="node4" class="node">
<title>Node4</title>
<g id="a_node4"><a xlink:title=" ">
<polygon fill="none" stroke="#bfbfbf" points="0,-0.5 0,-41.5 198,-41.5 198,-0.5 0,-0.5"/>
<text text-anchor="start" x="8" y="-29.5" font-family="Helvetica,sans-Serif" font-size="10.00">PSecurityUserData *typedef</text>
<text text-anchor="start" x="8" y="-18.5" font-family="Helvetica,sans-Serif" font-size="10.00"> PSECPKG_EXTENDED_INFORMATION</text>
<text text-anchor="middle" x="99" y="-7.5" font-family="Helvetica,sans-Serif" font-size="10.00"> *typedef</text>
</a>
</g>
</g>
<!-- Node4&#45;&gt;Node1 -->
<g id="edge3" class="edge">
<title>Node4&#45;&gt;Node1</title>
<path fill="none" stroke="#9a32cd" stroke-dasharray="5,2" d="M208.09,-39.4C237.58,-44.44 269.52,-49.91 299,-55 309.16,-56.75 319.98,-58.63 330.41,-60.45"/>
<polygon fill="#9a32cd" stroke="#9a32cd" points="208.64,-35.94 198.19,-37.71 207.46,-42.84 208.64,-35.94"/>
<text text-anchor="middle" x="257.5" y="-58" font-family="Helvetica,sans-Serif" font-size="10.00"> PartitionNumber</text>
</g>
</g>
</svg>
