<?xml version="1.0" encoding="UTF-8" standalone="no"?>
<!DOCTYPE svg PUBLIC "-//W3C//DTD SVG 1.1//EN"
 "http://www.w3.org/Graphics/SVG/1.1/DTD/svg11.dtd">
<!-- Generated by graphviz version 2.43.0 (0)
 -->
<!-- Title: AdjustableArrowCap Pages: 1 -->
<svg width="334pt" height="152pt"
 viewBox="0.00 0.00 333.50 152.00" xmlns="http://www.w3.org/2000/svg" xmlns:xlink="http://www.w3.org/1999/xlink">
<g id="graph0" class="graph" transform="scale(1 1) rotate(0) translate(4 148)">
<title>AdjustableArrowCap</title>
<!-- Node1 -->
<g id="node1" class="node">
<title>Node1</title>
<g id="a_node1"><a xlink:title=" ">
<polygon fill="#bfbfbf" stroke="black" points="94.5,-0.5 94.5,-19.5 210.5,-19.5 210.5,-0.5 94.5,-0.5"/>
<text text-anchor="middle" x="152.5" y="-7.5" font-family="Helvetica,sans-Serif" font-size="10.00">AdjustableArrowCap</text>
</a>
</g>
</g>
<!-- Node2 -->
<g id="node2" class="node">
<title>Node2</title>
<g id="a_node2"><a xlink:href="../../d6/d87/classCustomLineCap.html" target="_top" xlink:title=" ">
<polygon fill="none" stroke="black" points="106,-57.5 106,-76.5 199,-76.5 199,-57.5 106,-57.5"/>
<text text-anchor="middle" x="152.5" y="-64.5" font-family="Helvetica,sans-Serif" font-size="10.00">CustomLineCap</text>
</a>
</g>
</g>
<!-- Node2&#45;&gt;Node1 -->
<g id="edge1" class="edge">
<title>Node2&#45;&gt;Node1</title>
<path fill="none" stroke="midnightblue" d="M152.5,-47.12C152.5,-37.82 152.5,-27.06 152.5,-19.71"/>
<polygon fill="midnightblue" stroke="midnightblue" points="149,-47.41 152.5,-57.41 156,-47.41 149,-47.41"/>
</g>
<!-- Node3 -->
<g id="node3" class="node">
<title>Node3</title>
<g id="a_node3"><a xlink:href="../../d5/db2/classGdiplusBase.html" target="_top" xlink:title=" ">
<polygon fill="none" stroke="black" points="0,-124.5 0,-143.5 77,-143.5 77,-124.5 0,-124.5"/>
<text text-anchor="middle" x="38.5" y="-131.5" font-family="Helvetica,sans-Serif" font-size="10.00">GdiplusBase</text>
</a>
</g>
</g>
<!-- Node3&#45;&gt;Node2 -->
<g id="edge2" class="edge">
<title>Node3&#45;&gt;Node2</title>
<path fill="none" stroke="midnightblue" d="M62.85,-119.12C85.44,-106.24 118.34,-87.48 137.37,-76.63"/>
<polygon fill="midnightblue" stroke="midnightblue" points="60.83,-116.24 53.87,-124.23 64.3,-122.32 60.83,-116.24"/>
</g>
<!-- Node4 -->
<g id="node4" class="node">
<title>Node4</title>
<g id="a_node4"><a xlink:title=" ">
<polygon fill="none" stroke="#bfbfbf" points="95,-124.5 95,-143.5 210,-143.5 210,-124.5 95,-124.5"/>
<text text-anchor="middle" x="152.5" y="-131.5" font-family="Helvetica,sans-Serif" font-size="10.00">GpCustomLineCap *</text>
</a>
</g>
</g>
<!-- Node4&#45;&gt;Node2 -->
<g id="edge3" class="edge">
<title>Node4&#45;&gt;Node2</title>
<path fill="none" stroke="#9a32cd" stroke-dasharray="5,2" d="M152.5,-114.04C152.5,-101.67 152.5,-86.12 152.5,-76.63"/>
<polygon fill="#9a32cd" stroke="#9a32cd" points="149,-114.23 152.5,-124.23 156,-114.23 149,-114.23"/>
<text text-anchor="middle" x="208" y="-98" font-family="Helvetica,sans-Serif" font-size="10.00"> nativeCustomLineCap</text>
</g>
<!-- Node5 -->
<g id="node5" class="node">
<title>Node5</title>
<g id="a_node5"><a xlink:title=" ">
<polygon fill="none" stroke="#bfbfbf" points="263,-124.5 263,-143.5 310,-143.5 310,-124.5 263,-124.5"/>
<text text-anchor="middle" x="286.5" y="-131.5" font-family="Helvetica,sans-Serif" font-size="10.00">Status</text>
</a>
</g>
</g>
<!-- Node5&#45;&gt;Node2 -->
<g id="edge4" class="edge">
<title>Node5&#45;&gt;Node2</title>
<path fill="none" stroke="#9a32cd" stroke-dasharray="5,2" d="M279.64,-114.69C276.12,-107.58 271.15,-99.96 264.5,-95 245.75,-81 220.74,-74.16 199.12,-70.85"/>
<polygon fill="#9a32cd" stroke="#9a32cd" points="276.63,-116.56 283.78,-124.38 283.07,-113.81 276.63,-116.56"/>
<text text-anchor="middle" x="299.5" y="-98" font-family="Helvetica,sans-Serif" font-size="10.00"> lastStatus</text>
</g>
</g>
</svg>
