<?xml version="1.0" encoding="UTF-8" standalone="no"?>
<!DOCTYPE svg PUBLIC "-//W3C//DTD SVG 1.1//EN"
 "http://www.w3.org/Graphics/SVG/1.1/DTD/svg11.dtd">
<!-- Generated by graphviz version 2.43.0 (0)
 -->
<!-- Title: tagMIXERLINECONTROLSA Pages: 1 -->
<svg width="426pt" height="150pt"
 viewBox="0.00 0.00 426.00 150.00" xmlns="http://www.w3.org/2000/svg" xmlns:xlink="http://www.w3.org/1999/xlink">
<g id="graph0" class="graph" transform="scale(1 1) rotate(0) translate(4 146)">
<title>tagMIXERLINECONTROLSA</title>
<!-- Node1 -->
<g id="node1" class="node">
<title>Node1</title>
<g id="a_node1"><a xlink:title=" ">
<polygon fill="#bfbfbf" stroke="black" points="154,-0.5 154,-19.5 300,-19.5 300,-0.5 154,-0.5"/>
<text text-anchor="middle" x="227" y="-7.5" font-family="Helvetica,sans-Serif" font-size="10.00">tagMIXERLINECONTROLSA</text>
</a>
</g>
</g>
<!-- Node2 -->
<g id="node2" class="node">
<title>Node2</title>
<g id="a_node2"><a xlink:title=" ">
<polygon fill="none" stroke="#bfbfbf" points="0,-122.5 0,-141.5 178,-141.5 178,-122.5 0,-122.5"/>
<text text-anchor="middle" x="89" y="-129.5" font-family="Helvetica,sans-Serif" font-size="10.00">anonymous:DUMMYUNIONNAME</text>
</a>
</g>
</g>
<!-- Node2&#45;&gt;Node1 -->
<g id="edge1" class="edge">
<title>Node2&#45;&gt;Node1</title>
<path fill="none" stroke="#9a32cd" stroke-dasharray="5,2" d="M89.62,-112.14C91.36,-91.07 97.44,-57.38 118,-38 127.93,-28.64 140.58,-22.38 153.72,-18.23"/>
<polygon fill="#9a32cd" stroke="#9a32cd" points="86.11,-112.19 89.04,-122.38 93.1,-112.59 86.11,-112.19"/>
<text text-anchor="middle" x="170.5" y="-68.5" font-family="Helvetica,sans-Serif" font-size="10.00"> DUMMYUNIONNAME</text>
</g>
<!-- Node3 -->
<g id="node3" class="node">
<title>Node3</title>
<g id="a_node3"><a xlink:title=" ">
<polygon fill="none" stroke="#bfbfbf" points="196.5,-122.5 196.5,-141.5 257.5,-141.5 257.5,-122.5 196.5,-122.5"/>
<text text-anchor="middle" x="227" y="-129.5" font-family="Helvetica,sans-Serif" font-size="10.00">unsigned</text>
</a>
</g>
</g>
<!-- Node3&#45;&gt;Node1 -->
<g id="edge2" class="edge">
<title>Node3&#45;&gt;Node1</title>
<path fill="none" stroke="#9a32cd" stroke-dasharray="5,2" d="M227,-112.15C227,-85.72 227,-38.76 227,-19.55"/>
<polygon fill="#9a32cd" stroke="#9a32cd" points="223.5,-112.37 227,-122.37 230.5,-112.37 223.5,-112.37"/>
<text text-anchor="middle" x="263.5" y="-96" font-family="Helvetica,sans-Serif" font-size="10.00"> dwControlID</text>
<text text-anchor="middle" x="263.5" y="-85" font-family="Helvetica,sans-Serif" font-size="10.00">dwLineID</text>
<text text-anchor="middle" x="263.5" y="-74" font-family="Helvetica,sans-Serif" font-size="10.00">dwControlType</text>
<text text-anchor="middle" x="263.5" y="-63" font-family="Helvetica,sans-Serif" font-size="10.00">cControls</text>
<text text-anchor="middle" x="263.5" y="-52" font-family="Helvetica,sans-Serif" font-size="10.00">cbStruct</text>
<text text-anchor="middle" x="263.5" y="-41" font-family="Helvetica,sans-Serif" font-size="10.00">cbmxctrl</text>
</g>
<!-- Node4 -->
<g id="node4" class="node">
<title>Node4</title>
<g id="a_node4"><a xlink:title=" ">
<polygon fill="none" stroke="#bfbfbf" points="276,-122.5 276,-141.5 418,-141.5 418,-122.5 276,-122.5"/>
<text text-anchor="middle" x="347" y="-129.5" font-family="Helvetica,sans-Serif" font-size="10.00">struct MIXERCONTROLA *</text>
</a>
</g>
</g>
<!-- Node4&#45;&gt;Node1 -->
<g id="edge3" class="edge">
<title>Node4&#45;&gt;Node1</title>
<path fill="none" stroke="#9a32cd" stroke-dasharray="5,2" d="M343.08,-112.65C337.7,-91.8 326.1,-58.08 304,-38 294.56,-29.43 282.24,-23.54 270.24,-19.52"/>
<polygon fill="#9a32cd" stroke="#9a32cd" points="339.69,-113.56 345.39,-122.49 346.51,-111.95 339.69,-113.56"/>
<text text-anchor="middle" x="363.5" y="-68.5" font-family="Helvetica,sans-Serif" font-size="10.00"> pamxctrl</text>
</g>
</g>
</svg>
