<?xml version="1.0" encoding="UTF-8" standalone="no"?>
<!DOCTYPE svg PUBLIC "-//W3C//DTD SVG 1.1//EN"
 "http://www.w3.org/Graphics/SVG/1.1/DTD/svg11.dtd">
<!-- Generated by graphviz version 2.43.0 (0)
 -->
<!-- Title: videohdr_tag Pages: 1 -->
<svg width="291pt" height="139pt"
 viewBox="0.00 0.00 290.50 139.00" xmlns="http://www.w3.org/2000/svg" xmlns:xlink="http://www.w3.org/1999/xlink">
<g id="graph0" class="graph" transform="scale(1 1) rotate(0) translate(4 135)">
<title>videohdr_tag</title>
<!-- Node1 -->
<g id="node1" class="node">
<title>Node1</title>
<g id="a_node1"><a xlink:title=" ">
<polygon fill="#bfbfbf" stroke="black" points="89.5,-0.5 89.5,-19.5 169.5,-19.5 169.5,-0.5 89.5,-0.5"/>
<text text-anchor="middle" x="129.5" y="-7.5" font-family="Helvetica,sans-Serif" font-size="10.00">videohdr_tag</text>
</a>
</g>
</g>
<!-- Node2 -->
<g id="node2" class="node">
<title>Node2</title>
<g id="a_node2"><a xlink:title=" ">
<polygon fill="none" stroke="#bfbfbf" points="0,-111.5 0,-130.5 85,-130.5 85,-111.5 0,-111.5"/>
<text text-anchor="middle" x="42.5" y="-118.5" font-family="Helvetica,sans-Serif" font-size="10.00">unsigned long</text>
</a>
</g>
</g>
<!-- Node2&#45;&gt;Node1 -->
<g id="edge1" class="edge">
<title>Node2&#45;&gt;Node1</title>
<path fill="none" stroke="#9a32cd" stroke-dasharray="5,2" d="M42.1,-100.93C42.72,-82.72 46.42,-55.53 61.5,-38 68.87,-29.43 79.34,-23.55 89.85,-19.54"/>
<polygon fill="#9a32cd" stroke="#9a32cd" points="38.6,-101.16 42.04,-111.18 45.6,-101.2 38.6,-101.16"/>
<text text-anchor="middle" x="93.5" y="-63" font-family="Helvetica,sans-Serif" font-size="10.00"> dwReserved</text>
</g>
<!-- Node3 -->
<g id="node3" class="node">
<title>Node3</title>
<g id="a_node3"><a xlink:title=" ">
<polygon fill="none" stroke="#bfbfbf" points="105,-111.5 105,-130.5 154,-130.5 154,-111.5 105,-111.5"/>
<text text-anchor="middle" x="129.5" y="-118.5" font-family="Helvetica,sans-Serif" font-size="10.00">BYTE *</text>
</a>
</g>
</g>
<!-- Node3&#45;&gt;Node1 -->
<g id="edge2" class="edge">
<title>Node3&#45;&gt;Node1</title>
<path fill="none" stroke="#9a32cd" stroke-dasharray="5,2" d="M129.5,-101.19C129.5,-77.28 129.5,-36.99 129.5,-19.51"/>
<polygon fill="#9a32cd" stroke="#9a32cd" points="126,-101.45 129.5,-111.45 133,-101.45 126,-101.45"/>
<text text-anchor="middle" x="147.5" y="-63" font-family="Helvetica,sans-Serif" font-size="10.00"> lpData</text>
</g>
<!-- Node4 -->
<g id="node4" class="node">
<title>Node4</title>
<g id="a_node4"><a xlink:title=" ">
<polygon fill="none" stroke="#bfbfbf" points="172,-111.5 172,-130.5 233,-130.5 233,-111.5 172,-111.5"/>
<text text-anchor="middle" x="202.5" y="-118.5" font-family="Helvetica,sans-Serif" font-size="10.00">unsigned</text>
</a>
</g>
</g>
<!-- Node4&#45;&gt;Node1 -->
<g id="edge3" class="edge">
<title>Node4&#45;&gt;Node1</title>
<path fill="none" stroke="#9a32cd" stroke-dasharray="5,2" d="M198.42,-101.52C193.77,-83.76 184.77,-56.89 169.5,-38 163.39,-30.44 154.6,-24.19 146.82,-19.61"/>
<polygon fill="#9a32cd" stroke="#9a32cd" points="195.07,-102.58 200.82,-111.48 201.88,-100.94 195.07,-102.58"/>
<text text-anchor="middle" x="239" y="-85" font-family="Helvetica,sans-Serif" font-size="10.00"> dwTimeCaptured</text>
<text text-anchor="middle" x="239" y="-74" font-family="Helvetica,sans-Serif" font-size="10.00">dwBytesUsed</text>
<text text-anchor="middle" x="239" y="-63" font-family="Helvetica,sans-Serif" font-size="10.00">dwUser</text>
<text text-anchor="middle" x="239" y="-52" font-family="Helvetica,sans-Serif" font-size="10.00">dwBufferLength</text>
<text text-anchor="middle" x="239" y="-41" font-family="Helvetica,sans-Serif" font-size="10.00">dwFlags</text>
</g>
</g>
</svg>
