<?xml version="1.0" encoding="UTF-8" standalone="no"?>
<!DOCTYPE svg PUBLIC "-//W3C//DTD SVG 1.1//EN"
 "http://www.w3.org/Graphics/SVG/1.1/DTD/svg11.dtd">
<!-- Generated by graphviz version 2.43.0 (0)
 -->
<!-- Title: _STARTUPINFOW Pages: 1 -->
<svg width="418pt" height="318pt"
 viewBox="0.00 0.00 418.00 318.00" xmlns="http://www.w3.org/2000/svg" xmlns:xlink="http://www.w3.org/1999/xlink">
<g id="graph0" class="graph" transform="scale(1 1) rotate(0) translate(4 314)">
<title>_STARTUPINFOW</title>
<!-- Node1 -->
<g id="node1" class="node">
<title>Node1</title>
<g id="a_node1"><a xlink:title=" ">
<polygon fill="#bfbfbf" stroke="black" points="311,-189.5 311,-208.5 410,-208.5 410,-189.5 311,-189.5"/>
<text text-anchor="middle" x="360.5" y="-196.5" font-family="Helvetica,sans-Serif" font-size="10.00">_STARTUPINFOW</text>
</a>
</g>
</g>
<!-- Node2 -->
<g id="node2" class="node">
<title>Node2</title>
<g id="a_node2"><a xlink:title=" ">
<polygon fill="none" stroke="#bfbfbf" points="74.5,-290.5 74.5,-309.5 123.5,-309.5 123.5,-290.5 74.5,-290.5"/>
<text text-anchor="middle" x="99" y="-297.5" font-family="Helvetica,sans-Serif" font-size="10.00">BYTE *</text>
</a>
</g>
</g>
<!-- Node2&#45;&gt;Node1 -->
<g id="edge1" class="edge">
<title>Node2&#45;&gt;Node1</title>
<path fill="none" stroke="#9a32cd" stroke-dasharray="5,2" d="M133.66,-302.32C173.95,-303.62 242.33,-301 293,-274 322.03,-258.53 344.44,-225.02 354.18,-208.54"/>
<polygon fill="#9a32cd" stroke="#9a32cd" points="133.7,-298.82 123.56,-301.9 133.41,-305.82 133.7,-298.82"/>
<text text-anchor="middle" x="254.5" y="-300" font-family="Helvetica,sans-Serif" font-size="10.00"> lpReserved2</text>
</g>
<!-- Node3 -->
<g id="node3" class="node">
<title>Node3</title>
<g id="a_node3"><a xlink:title=" ">
<polygon fill="none" stroke="#bfbfbf" points="78.5,-245.5 78.5,-264.5 119.5,-264.5 119.5,-245.5 78.5,-245.5"/>
<text text-anchor="middle" x="99" y="-252.5" font-family="Helvetica,sans-Serif" font-size="10.00">short</text>
</a>
</g>
</g>
<!-- Node3&#45;&gt;Node1 -->
<g id="edge2" class="edge">
<title>Node3&#45;&gt;Node1</title>
<path fill="none" stroke="#9a32cd" stroke-dasharray="5,2" d="M129.65,-254.89C168.11,-254.01 236.93,-249.92 293,-233 311.74,-227.34 331.51,-216.53 344.58,-208.61"/>
<polygon fill="#9a32cd" stroke="#9a32cd" points="129.58,-251.39 119.64,-255.06 129.7,-258.39 129.58,-251.39"/>
<text text-anchor="middle" x="254.5" y="-262" font-family="Helvetica,sans-Serif" font-size="10.00"> wShowWindow</text>
<text text-anchor="middle" x="254.5" y="-251" font-family="Helvetica,sans-Serif" font-size="10.00">cbReserved2</text>
</g>
<!-- Node4 -->
<g id="node4" class="node">
<title>Node4</title>
<g id="a_node4"><a xlink:title=" ">
<polygon fill="none" stroke="#bfbfbf" points="54.5,-189.5 54.5,-208.5 143.5,-208.5 143.5,-189.5 54.5,-189.5"/>
<text text-anchor="middle" x="99" y="-196.5" font-family="Helvetica,sans-Serif" font-size="10.00">unsigned short</text>
</a>
</g>
</g>
<!-- Node4&#45;&gt;Node1 -->
<g id="edge3" class="edge">
<title>Node4&#45;&gt;Node1</title>
<path fill="none" stroke="#9a32cd" stroke-dasharray="5,2" d="M153.85,-199C200.06,-199 266.06,-199 310.73,-199"/>
<polygon fill="#9a32cd" stroke="#9a32cd" points="153.73,-195.5 143.73,-199 153.73,-202.5 153.73,-195.5"/>
<text text-anchor="middle" x="254.5" y="-224" font-family="Helvetica,sans-Serif" font-size="10.00"> lpTitle</text>
<text text-anchor="middle" x="254.5" y="-213" font-family="Helvetica,sans-Serif" font-size="10.00">lpDesktop</text>
<text text-anchor="middle" x="254.5" y="-202" font-family="Helvetica,sans-Serif" font-size="10.00">lpReserved</text>
</g>
<!-- Node5 -->
<g id="node5" class="node">
<title>Node5</title>
<g id="a_node5"><a xlink:title=" ">
<polygon fill="none" stroke="#bfbfbf" points="80,-67.5 80,-86.5 118,-86.5 118,-67.5 80,-67.5"/>
<text text-anchor="middle" x="99" y="-74.5" font-family="Helvetica,sans-Serif" font-size="10.00">long</text>
</a>
</g>
</g>
<!-- Node5&#45;&gt;Node1 -->
<g id="edge4" class="edge">
<title>Node5&#45;&gt;Node1</title>
<path fill="none" stroke="#9a32cd" stroke-dasharray="5,2" d="M128.17,-72.57C168,-67.82 241.66,-64.68 293,-96 329.16,-118.06 349.29,-168.06 356.46,-189.24"/>
<polygon fill="#9a32cd" stroke="#9a32cd" points="127.56,-69.12 118.11,-73.9 128.48,-76.06 127.56,-69.12"/>
<text text-anchor="middle" x="254.5" y="-187" font-family="Helvetica,sans-Serif" font-size="10.00"> dwX</text>
<text text-anchor="middle" x="254.5" y="-176" font-family="Helvetica,sans-Serif" font-size="10.00">dwXSize</text>
<text text-anchor="middle" x="254.5" y="-165" font-family="Helvetica,sans-Serif" font-size="10.00">dwY</text>
<text text-anchor="middle" x="254.5" y="-154" font-family="Helvetica,sans-Serif" font-size="10.00">dwYCountChars</text>
<text text-anchor="middle" x="254.5" y="-143" font-family="Helvetica,sans-Serif" font-size="10.00">dwYSize</text>
<text text-anchor="middle" x="254.5" y="-132" font-family="Helvetica,sans-Serif" font-size="10.00">dwXCountChars</text>
<text text-anchor="middle" x="254.5" y="-121" font-family="Helvetica,sans-Serif" font-size="10.00">dwFillAttribute</text>
<text text-anchor="middle" x="254.5" y="-110" font-family="Helvetica,sans-Serif" font-size="10.00">dwFlags</text>
<text text-anchor="middle" x="254.5" y="-99" font-family="Helvetica,sans-Serif" font-size="10.00">cb</text>
</g>
<!-- Node6 -->
<g id="node6" class="node">
<title>Node6</title>
<g id="a_node6"><a xlink:title=" ">
<polygon fill="none" stroke="#bfbfbf" points="0,-0.5 0,-41.5 198,-41.5 198,-0.5 0,-0.5"/>
<text text-anchor="start" x="8" y="-29.5" font-family="Helvetica,sans-Serif" font-size="10.00">PSecurityUserData *typedef</text>
<text text-anchor="start" x="8" y="-18.5" font-family="Helvetica,sans-Serif" font-size="10.00"> PSECPKG_EXTENDED_INFORMATION</text>
<text text-anchor="middle" x="99" y="-7.5" font-family="Helvetica,sans-Serif" font-size="10.00"> *typedef</text>
</a>
</g>
</g>
<!-- Node6&#45;&gt;Node1 -->
<g id="edge5" class="edge">
<title>Node6&#45;&gt;Node1</title>
<path fill="none" stroke="#9a32cd" stroke-dasharray="5,2" d="M208.43,-8.65C238.17,-10.37 268.84,-17.42 293,-35 345.42,-73.14 356.61,-159.82 358.92,-189.11"/>
<polygon fill="#9a32cd" stroke="#9a32cd" points="208.52,-5.15 198.39,-8.26 208.25,-12.14 208.52,-5.15"/>
<text text-anchor="middle" x="254.5" y="-60" font-family="Helvetica,sans-Serif" font-size="10.00"> hStdOutput</text>
<text text-anchor="middle" x="254.5" y="-49" font-family="Helvetica,sans-Serif" font-size="10.00">hStdInput</text>
<text text-anchor="middle" x="254.5" y="-38" font-family="Helvetica,sans-Serif" font-size="10.00">hStdError</text>
</g>
</g>
</svg>
