<?xml version="1.0" encoding="UTF-8" standalone="no"?>
<!DOCTYPE svg PUBLIC "-//W3C//DTD SVG 1.1//EN"
 "http://www.w3.org/Graphics/SVG/1.1/DTD/svg11.dtd">
<!-- Generated by graphviz version 2.43.0 (0)
 -->
<!-- Title: FT_Glyph_Metrics_ Pages: 1 -->
<svg width="127pt" height="172pt"
 viewBox="0.00 0.00 127.00 172.00" xmlns="http://www.w3.org/2000/svg" xmlns:xlink="http://www.w3.org/1999/xlink">
<g id="graph0" class="graph" transform="scale(1 1) rotate(0) translate(4 168)">
<title>FT_Glyph_Metrics_</title>
<!-- Node1 -->
<g id="node1" class="node">
<title>Node1</title>
<g id="a_node1"><a xlink:title=" ">
<polygon fill="#bfbfbf" stroke="black" points="0,-0.5 0,-19.5 108,-19.5 108,-0.5 0,-0.5"/>
<text text-anchor="middle" x="54" y="-7.5" font-family="Helvetica,sans-Serif" font-size="10.00">FT_Glyph_Metrics_</text>
</a>
</g>
</g>
<!-- Node2 -->
<g id="node2" class="node">
<title>Node2</title>
<g id="a_node2"><a xlink:title=" ">
<polygon fill="none" stroke="#bfbfbf" points="29,-144.5 29,-163.5 79,-163.5 79,-144.5 29,-144.5"/>
<text text-anchor="middle" x="54" y="-151.5" font-family="Helvetica,sans-Serif" font-size="10.00">FT_Pos</text>
</a>
</g>
</g>
<!-- Node2&#45;&gt;Node1 -->
<g id="edge1" class="edge">
<title>Node2&#45;&gt;Node1</title>
<path fill="none" stroke="#9a32cd" stroke-dasharray="5,2" d="M54,-134.11C54,-102.93 54,-41.93 54,-19.52"/>
<polygon fill="#9a32cd" stroke="#9a32cd" points="50.5,-134.12 54,-144.12 57.5,-134.12 50.5,-134.12"/>
<text text-anchor="middle" x="86.5" y="-118" font-family="Helvetica,sans-Serif" font-size="10.00"> vertAdvance</text>
<text text-anchor="middle" x="86.5" y="-107" font-family="Helvetica,sans-Serif" font-size="10.00">width</text>
<text text-anchor="middle" x="86.5" y="-96" font-family="Helvetica,sans-Serif" font-size="10.00">vertBearingX</text>
<text text-anchor="middle" x="86.5" y="-85" font-family="Helvetica,sans-Serif" font-size="10.00">vertBearingY</text>
<text text-anchor="middle" x="86.5" y="-74" font-family="Helvetica,sans-Serif" font-size="10.00">height</text>
<text text-anchor="middle" x="86.5" y="-63" font-family="Helvetica,sans-Serif" font-size="10.00">horiAdvance</text>
<text text-anchor="middle" x="86.5" y="-52" font-family="Helvetica,sans-Serif" font-size="10.00">horiBearingX</text>
<text text-anchor="middle" x="86.5" y="-41" font-family="Helvetica,sans-Serif" font-size="10.00">horiBearingY</text>
</g>
</g>
</svg>
