<?xml version="1.0" encoding="UTF-8" standalone="no"?>
<!DOCTYPE svg PUBLIC "-//W3C//DTD SVG 1.1//EN"
 "http://www.w3.org/Graphics/SVG/1.1/DTD/svg11.dtd">
<!-- Generated by graphviz version 2.43.0 (0)
 -->
<!-- Title: _NDIS_WAN_PACKET Pages: 1 -->
<svg width="451pt" height="217pt"
 viewBox="0.00 0.00 451.00 217.00" xmlns="http://www.w3.org/2000/svg" xmlns:xlink="http://www.w3.org/1999/xlink">
<g id="graph0" class="graph" transform="scale(1 1) rotate(0) translate(4 213)">
<title>_NDIS_WAN_PACKET</title>
<!-- Node1 -->
<g id="node1" class="node">
<title>Node1</title>
<g id="a_node1"><a xlink:title=" ">
<polygon fill="#bfbfbf" stroke="black" points="326,-133.5 326,-152.5 443,-152.5 443,-133.5 326,-133.5"/>
<text text-anchor="middle" x="384.5" y="-140.5" font-family="Helvetica,sans-Serif" font-size="10.00">_NDIS_WAN_PACKET</text>
</a>
</g>
</g>
<!-- Node2 -->
<g id="node2" class="node">
<title>Node2</title>
<g id="a_node2"><a xlink:title=" ">
<polygon fill="none" stroke="#bfbfbf" points="62,-189.5 62,-208.5 136,-208.5 136,-189.5 62,-189.5"/>
<text text-anchor="middle" x="99" y="-196.5" font-family="Helvetica,sans-Serif" font-size="10.00">LIST_ENTRY</text>
</a>
</g>
</g>
<!-- Node2&#45;&gt;Node1 -->
<g id="edge1" class="edge">
<title>Node2&#45;&gt;Node1</title>
<path fill="none" stroke="#9a32cd" stroke-dasharray="5,2" d="M146.43,-198.29C189.09,-196.65 253.76,-191.68 308,-177 328.95,-171.33 351.46,-160.52 366.39,-152.61"/>
<polygon fill="#9a32cd" stroke="#9a32cd" points="146.21,-194.79 136.34,-198.63 146.45,-201.79 146.21,-194.79"/>
<text text-anchor="middle" x="262" y="-196" font-family="Helvetica,sans-Serif" font-size="10.00"> WanPacketQueue</text>
</g>
<!-- Node3 -->
<g id="node3" class="node">
<title>Node3</title>
<g id="a_node3"><a xlink:title=" ">
<polygon fill="none" stroke="#bfbfbf" points="68.5,-133.5 68.5,-152.5 129.5,-152.5 129.5,-133.5 68.5,-133.5"/>
<text text-anchor="middle" x="99" y="-140.5" font-family="Helvetica,sans-Serif" font-size="10.00">unsigned</text>
</a>
</g>
</g>
<!-- Node3&#45;&gt;Node1 -->
<g id="edge2" class="edge">
<title>Node3&#45;&gt;Node1</title>
<path fill="none" stroke="#9a32cd" stroke-dasharray="5,2" d="M139.63,-143C188.07,-143 270.43,-143 325.88,-143"/>
<polygon fill="#9a32cd" stroke="#9a32cd" points="139.54,-139.5 129.54,-143 139.54,-146.5 139.54,-139.5"/>
<text text-anchor="middle" x="262" y="-168" font-family="Helvetica,sans-Serif" font-size="10.00"> CurrentBuffer</text>
<text text-anchor="middle" x="262" y="-157" font-family="Helvetica,sans-Serif" font-size="10.00">StartBuffer</text>
<text text-anchor="middle" x="262" y="-146" font-family="Helvetica,sans-Serif" font-size="10.00">EndBuffer</text>
</g>
<!-- Node4 -->
<g id="node4" class="node">
<title>Node4</title>
<g id="a_node4"><a xlink:title=" ">
<polygon fill="none" stroke="#bfbfbf" points="0,-0.5 0,-41.5 198,-41.5 198,-0.5 0,-0.5"/>
<text text-anchor="start" x="8" y="-29.5" font-family="Helvetica,sans-Serif" font-size="10.00">PSecurityUserData *typedef</text>
<text text-anchor="start" x="8" y="-18.5" font-family="Helvetica,sans-Serif" font-size="10.00"> PSECPKG_EXTENDED_INFORMATION</text>
<text text-anchor="middle" x="99" y="-7.5" font-family="Helvetica,sans-Serif" font-size="10.00"> *typedef</text>
</a>
</g>
</g>
<!-- Node4&#45;&gt;Node1 -->
<g id="edge3" class="edge">
<title>Node4&#45;&gt;Node1</title>
<path fill="none" stroke="#9a32cd" stroke-dasharray="5,2" d="M208.55,-14.02C242.21,-16.17 278.25,-23.18 308,-40 346.41,-61.72 370.72,-111.91 379.65,-133.19"/>
<polygon fill="#9a32cd" stroke="#9a32cd" points="208.35,-10.51 198.19,-13.51 208,-17.5 208.35,-10.51"/>
<text text-anchor="middle" x="262" y="-131" font-family="Helvetica,sans-Serif" font-size="10.00"> MacReserved1</text>
<text text-anchor="middle" x="262" y="-120" font-family="Helvetica,sans-Serif" font-size="10.00">MacReserved2</text>
<text text-anchor="middle" x="262" y="-109" font-family="Helvetica,sans-Serif" font-size="10.00">MacReserved3</text>
<text text-anchor="middle" x="262" y="-98" font-family="Helvetica,sans-Serif" font-size="10.00">MacReserved4</text>
<text text-anchor="middle" x="262" y="-87" font-family="Helvetica,sans-Serif" font-size="10.00">ProtocolReserved1</text>
<text text-anchor="middle" x="262" y="-76" font-family="Helvetica,sans-Serif" font-size="10.00">ProtocolReserved2</text>
<text text-anchor="middle" x="262" y="-65" font-family="Helvetica,sans-Serif" font-size="10.00">ProtocolReserved3</text>
<text text-anchor="middle" x="262" y="-54" font-family="Helvetica,sans-Serif" font-size="10.00">ProtocolReserved4</text>
<text text-anchor="middle" x="262" y="-43" font-family="Helvetica,sans-Serif" font-size="10.00">CurrentLength</text>
</g>
</g>
</svg>
