<?xml version="1.0" encoding="UTF-8" standalone="no"?>
<!DOCTYPE svg PUBLIC "-//W3C//DTD SVG 1.1//EN"
 "http://www.w3.org/Graphics/SVG/1.1/DTD/svg11.dtd">
<!-- Generated by graphviz version 2.43.0 (0)
 -->
<!-- Title: _NDIS_TAPI_CONDITIONAL_MEDIA_DETECTION Pages: 1 -->
<svg width="467pt" height="126pt"
 viewBox="0.00 0.00 467.00 126.00" xmlns="http://www.w3.org/2000/svg" xmlns:xlink="http://www.w3.org/1999/xlink">
<g id="graph0" class="graph" transform="scale(1 1) rotate(0) translate(4 122)">
<title>_NDIS_TAPI_CONDITIONAL_MEDIA_DETECTION</title>
<!-- Node1 -->
<g id="node1" class="node">
<title>Node1</title>
<g id="a_node1"><a xlink:title=" ">
<polygon fill="#bfbfbf" stroke="black" points="313,-55 313,-85 459,-85 459,-55 313,-55"/>
<text text-anchor="start" x="321" y="-73" font-family="Helvetica,sans-Serif" font-size="10.00">_NDIS_TAPI_CONDITIONAL</text>
<text text-anchor="middle" x="386" y="-62" font-family="Helvetica,sans-Serif" font-size="10.00">_MEDIA_DETECTION</text>
</a>
</g>
</g>
<!-- Node2 -->
<g id="node2" class="node">
<title>Node2</title>
<g id="a_node2"><a xlink:title=" ">
<polygon fill="none" stroke="#bfbfbf" points="56.5,-98.5 56.5,-117.5 141.5,-117.5 141.5,-98.5 56.5,-98.5"/>
<text text-anchor="middle" x="99" y="-105.5" font-family="Helvetica,sans-Serif" font-size="10.00">unsigned long</text>
</a>
</g>
</g>
<!-- Node2&#45;&gt;Node1 -->
<g id="edge1" class="edge">
<title>Node2&#45;&gt;Node1</title>
<path fill="none" stroke="#9a32cd" stroke-dasharray="5,2" d="M151.68,-102.58C191.04,-98.3 246.52,-91.9 295,-85 300.8,-84.17 306.81,-83.27 312.84,-82.34"/>
<polygon fill="#9a32cd" stroke="#9a32cd" points="151.1,-99.13 141.54,-103.68 151.86,-106.09 151.1,-99.13"/>
<text text-anchor="middle" x="255.5" y="-97" font-family="Helvetica,sans-Serif" font-size="10.00"> hdLine</text>
</g>
<!-- Node3 -->
<g id="node3" class="node">
<title>Node3</title>
<g id="a_node3"><a xlink:title=" ">
<polygon fill="none" stroke="#bfbfbf" points="42.5,-60.5 42.5,-79.5 155.5,-79.5 155.5,-60.5 42.5,-60.5"/>
<text text-anchor="middle" x="99" y="-67.5" font-family="Helvetica,sans-Serif" font-size="10.00">LINE_CALL_PARAMS</text>
</a>
</g>
</g>
<!-- Node3&#45;&gt;Node1 -->
<g id="edge2" class="edge">
<title>Node3&#45;&gt;Node1</title>
<path fill="none" stroke="#9a32cd" stroke-dasharray="5,2" d="M165.63,-70C209.59,-70 267.48,-70 312.75,-70"/>
<polygon fill="#9a32cd" stroke="#9a32cd" points="165.63,-66.5 155.63,-70 165.63,-73.5 165.63,-66.5"/>
<text text-anchor="middle" x="255.5" y="-73" font-family="Helvetica,sans-Serif" font-size="10.00"> LineCallParams</text>
</g>
<!-- Node4 -->
<g id="node4" class="node">
<title>Node4</title>
<g id="a_node4"><a xlink:title=" ">
<polygon fill="none" stroke="#bfbfbf" points="0,-0.5 0,-41.5 198,-41.5 198,-0.5 0,-0.5"/>
<text text-anchor="start" x="8" y="-29.5" font-family="Helvetica,sans-Serif" font-size="10.00">PSecurityUserData *typedef</text>
<text text-anchor="start" x="8" y="-18.5" font-family="Helvetica,sans-Serif" font-size="10.00"> PSECPKG_EXTENDED_INFORMATION</text>
<text text-anchor="middle" x="99" y="-7.5" font-family="Helvetica,sans-Serif" font-size="10.00"> *typedef</text>
</a>
</g>
</g>
<!-- Node4&#45;&gt;Node1 -->
<g id="edge3" class="edge">
<title>Node4&#45;&gt;Node1</title>
<path fill="none" stroke="#9a32cd" stroke-dasharray="5,2" d="M208.15,-30.56C236.55,-33.94 267.05,-38.35 295,-44 309.19,-46.87 324.39,-50.88 338.18,-54.9"/>
<polygon fill="#9a32cd" stroke="#9a32cd" points="208.54,-27.08 198.2,-29.41 207.73,-34.04 208.54,-27.08"/>
<text text-anchor="middle" x="255.5" y="-58" font-family="Helvetica,sans-Serif" font-size="10.00"> ulRequestID</text>
<text text-anchor="middle" x="255.5" y="-47" font-family="Helvetica,sans-Serif" font-size="10.00">ulMediaModes</text>
</g>
</g>
</svg>
