<?xml version="1.0" encoding="UTF-8" standalone="no"?>
<!DOCTYPE svg PUBLIC "-//W3C//DTD SVG 1.1//EN"
 "http://www.w3.org/Graphics/SVG/1.1/DTD/svg11.dtd">
<!-- Generated by graphviz version 2.43.0 (0)
 -->
<!-- Title: Source/Game/Game/bg_slidemove.c Pages: 1 -->
<svg width="899pt" height="151pt"
 viewBox="0.00 0.00 898.50 151.00" xmlns="http://www.w3.org/2000/svg" xmlns:xlink="http://www.w3.org/1999/xlink">
<g id="graph0" class="graph" transform="scale(1 1) rotate(0) translate(4 147)">
<title>Source/Game/Game/bg_slidemove.c</title>
<!-- Node1 -->
<g id="node1" class="node">
<title>Node1</title>
<g id="a_node1"><a xlink:title=" ">
<polygon fill="#bfbfbf" stroke="black" points="470.5,-112.5 470.5,-142.5 599.5,-142.5 599.5,-112.5 470.5,-112.5"/>
<text text-anchor="start" x="478.5" y="-130.5" font-family="Helvetica,sans-Serif" font-size="10.00">Source/Game/Game/bg</text>
<text text-anchor="middle" x="535" y="-119.5" font-family="Helvetica,sans-Serif" font-size="10.00">_slidemove.c</text>
</a>
</g>
</g>
<!-- Node2 -->
<g id="node2" class="node">
<title>Node2</title>
<g id="a_node2"><a xlink:href="../../d3/d14/Source_2Shared_2q__shared_8h.html" target="_top" xlink:title=" ">
<polygon fill="none" stroke="black" points="355.5,-56.5 355.5,-75.5 480.5,-75.5 480.5,-56.5 355.5,-56.5"/>
<text text-anchor="middle" x="418" y="-63.5" font-family="Helvetica,sans-Serif" font-size="10.00">../../Shared/q_shared.h</text>
</a>
</g>
</g>
<!-- Node1&#45;&gt;Node2 -->
<g id="edge1" class="edge">
<title>Node1&#45;&gt;Node2</title>
<path fill="none" stroke="midnightblue" d="M507.27,-112.4C488.17,-102.68 462.94,-89.86 444.18,-80.31"/>
<polygon fill="midnightblue" stroke="midnightblue" points="445.52,-77.07 435.02,-75.66 442.35,-83.31 445.52,-77.07"/>
</g>
<!-- Node15 -->
<g id="node15" class="node">
<title>Node15</title>
<g id="a_node15"><a xlink:href="../../d0/d27/Source_2Game_2Game_2bg__public_8h.html" target="_top" xlink:title=" ">
<polygon fill="none" stroke="black" points="499,-56.5 499,-75.5 571,-75.5 571,-56.5 499,-56.5"/>
<text text-anchor="middle" x="535" y="-63.5" font-family="Helvetica,sans-Serif" font-size="10.00">bg_public.h</text>
</a>
</g>
</g>
<!-- Node1&#45;&gt;Node15 -->
<g id="edge14" class="edge">
<title>Node1&#45;&gt;Node15</title>
<path fill="none" stroke="midnightblue" d="M535,-112.4C535,-104.47 535,-94.46 535,-85.86"/>
<polygon fill="midnightblue" stroke="midnightblue" points="538.5,-85.66 535,-75.66 531.5,-85.66 538.5,-85.66"/>
</g>
<!-- Node16 -->
<g id="node16" class="node">
<title>Node16</title>
<g id="a_node16"><a xlink:href="../../dd/d35/Source_2Game_2Game_2bg__local_8h.html" target="_top" xlink:title=" ">
<polygon fill="none" stroke="black" points="589,-56.5 589,-75.5 655,-75.5 655,-56.5 589,-56.5"/>
<text text-anchor="middle" x="622" y="-63.5" font-family="Helvetica,sans-Serif" font-size="10.00">bg_local.h</text>
</a>
</g>
</g>
<!-- Node1&#45;&gt;Node16 -->
<g id="edge15" class="edge">
<title>Node1&#45;&gt;Node16</title>
<path fill="none" stroke="midnightblue" d="M555.62,-112.4C569.3,-103.04 587.21,-90.79 600.98,-81.38"/>
<polygon fill="midnightblue" stroke="midnightblue" points="603.06,-84.19 609.34,-75.66 599.11,-78.41 603.06,-84.19"/>
</g>
<!-- Node3 -->
<g id="node3" class="node">
<title>Node3</title>
<g id="a_node3"><a xlink:title=" ">
<polygon fill="none" stroke="#bfbfbf" points="0,-0.5 0,-19.5 56,-19.5 56,-0.5 0,-0.5"/>
<text text-anchor="middle" x="28" y="-7.5" font-family="Helvetica,sans-Serif" font-size="10.00">assert.h</text>
</a>
</g>
</g>
<!-- Node2&#45;&gt;Node3 -->
<g id="edge2" class="edge">
<title>Node2&#45;&gt;Node3</title>
<path fill="none" stroke="midnightblue" d="M355.18,-59.13C286.48,-52.24 172.98,-39.44 66.19,-20.04"/>
<polygon fill="midnightblue" stroke="midnightblue" points="66.68,-16.57 56.21,-18.21 65.41,-23.46 66.68,-16.57"/>
</g>
<!-- Node4 -->
<g id="node4" class="node">
<title>Node4</title>
<g id="a_node4"><a xlink:title=" ">
<polygon fill="none" stroke="#bfbfbf" points="74.5,-0.5 74.5,-19.5 125.5,-19.5 125.5,-0.5 74.5,-0.5"/>
<text text-anchor="middle" x="100" y="-7.5" font-family="Helvetica,sans-Serif" font-size="10.00">math.h</text>
</a>
</g>
</g>
<!-- Node2&#45;&gt;Node4 -->
<g id="edge3" class="edge">
<title>Node2&#45;&gt;Node4</title>
<path fill="none" stroke="midnightblue" d="M355.31,-56.76C300,-49.09 217.05,-36.64 135.49,-19.93"/>
<polygon fill="midnightblue" stroke="midnightblue" points="136.05,-16.47 125.55,-17.87 134.63,-23.32 136.05,-16.47"/>
</g>
<!-- Node5 -->
<g id="node5" class="node">
<title>Node5</title>
<g id="a_node5"><a xlink:title=" ">
<polygon fill="none" stroke="#bfbfbf" points="144,-0.5 144,-19.5 194,-19.5 194,-0.5 144,-0.5"/>
<text text-anchor="middle" x="169" y="-7.5" font-family="Helvetica,sans-Serif" font-size="10.00">stdio.h</text>
</a>
</g>
</g>
<!-- Node2&#45;&gt;Node5 -->
<g id="edge4" class="edge">
<title>Node2&#45;&gt;Node5</title>
<path fill="none" stroke="midnightblue" d="M373.79,-56.45C332.35,-48.28 268.44,-35.28 204.12,-20.17"/>
<polygon fill="midnightblue" stroke="midnightblue" points="204.75,-16.73 194.21,-17.83 203.14,-23.54 204.75,-16.73"/>
</g>
<!-- Node6 -->
<g id="node6" class="node">
<title>Node6</title>
<g id="a_node6"><a xlink:title=" ">
<polygon fill="none" stroke="#bfbfbf" points="212,-0.5 212,-19.5 268,-19.5 268,-0.5 212,-0.5"/>
<text text-anchor="middle" x="240" y="-7.5" font-family="Helvetica,sans-Serif" font-size="10.00">stdarg.h</text>
</a>
</g>
</g>
<!-- Node2&#45;&gt;Node6 -->
<g id="edge5" class="edge">
<title>Node2&#45;&gt;Node6</title>
<path fill="none" stroke="midnightblue" d="M389.8,-56.44C359.59,-47.28 311.49,-32.69 277.97,-22.52"/>
<polygon fill="midnightblue" stroke="midnightblue" points="278.66,-19.07 268.07,-19.52 276.63,-25.77 278.66,-19.07"/>
</g>
<!-- Node7 -->
<g id="node7" class="node">
<title>Node7</title>
<g id="a_node7"><a xlink:title=" ">
<polygon fill="none" stroke="#bfbfbf" points="286.5,-0.5 286.5,-19.5 339.5,-19.5 339.5,-0.5 286.5,-0.5"/>
<text text-anchor="middle" x="313" y="-7.5" font-family="Helvetica,sans-Serif" font-size="10.00">string.h</text>
</a>
</g>
</g>
<!-- Node2&#45;&gt;Node7 -->
<g id="edge6" class="edge">
<title>Node2&#45;&gt;Node7</title>
<path fill="none" stroke="midnightblue" d="M401.13,-56.32C384.29,-47.66 358.19,-34.24 338.76,-24.25"/>
<polygon fill="midnightblue" stroke="midnightblue" points="340.32,-21.12 329.83,-19.65 337.12,-27.34 340.32,-21.12"/>
</g>
<!-- Node8 -->
<g id="node8" class="node">
<title>Node8</title>
<g id="a_node8"><a xlink:title=" ">
<polygon fill="none" stroke="#bfbfbf" points="357.5,-0.5 357.5,-19.5 410.5,-19.5 410.5,-0.5 357.5,-0.5"/>
<text text-anchor="middle" x="384" y="-7.5" font-family="Helvetica,sans-Serif" font-size="10.00">stdlib.h</text>
</a>
</g>
</g>
<!-- Node2&#45;&gt;Node8 -->
<g id="edge7" class="edge">
<title>Node2&#45;&gt;Node8</title>
<path fill="none" stroke="midnightblue" d="M412.39,-56.08C407.63,-48.53 400.68,-37.49 394.85,-28.23"/>
<polygon fill="midnightblue" stroke="midnightblue" points="397.8,-26.35 389.51,-19.75 391.88,-30.08 397.8,-26.35"/>
</g>
<!-- Node9 -->
<g id="node9" class="node">
<title>Node9</title>
<g id="a_node9"><a xlink:title=" ">
<polygon fill="none" stroke="#bfbfbf" points="429,-0.5 429,-19.5 477,-19.5 477,-0.5 429,-0.5"/>
<text text-anchor="middle" x="453" y="-7.5" font-family="Helvetica,sans-Serif" font-size="10.00">time.h</text>
</a>
</g>
</g>
<!-- Node2&#45;&gt;Node9 -->
<g id="edge8" class="edge">
<title>Node2&#45;&gt;Node9</title>
<path fill="none" stroke="midnightblue" d="M423.78,-56.08C428.67,-48.53 435.83,-37.49 441.83,-28.23"/>
<polygon fill="midnightblue" stroke="midnightblue" points="444.83,-30.05 447.33,-19.75 438.95,-26.24 444.83,-30.05"/>
</g>
<!-- Node10 -->
<g id="node10" class="node">
<title>Node10</title>
<g id="a_node10"><a xlink:title=" ">
<polygon fill="none" stroke="#bfbfbf" points="495.5,-0.5 495.5,-19.5 548.5,-19.5 548.5,-0.5 495.5,-0.5"/>
<text text-anchor="middle" x="522" y="-7.5" font-family="Helvetica,sans-Serif" font-size="10.00">ctype.h</text>
</a>
</g>
</g>
<!-- Node2&#45;&gt;Node10 -->
<g id="edge9" class="edge">
<title>Node2&#45;&gt;Node10</title>
<path fill="none" stroke="midnightblue" d="M434.71,-56.32C451.31,-47.7 477,-34.36 496.22,-24.39"/>
<polygon fill="midnightblue" stroke="midnightblue" points="498.07,-27.37 505.33,-19.65 494.84,-21.16 498.07,-27.37"/>
</g>
<!-- Node11 -->
<g id="node11" class="node">
<title>Node11</title>
<g id="a_node11"><a xlink:title=" ">
<polygon fill="none" stroke="#bfbfbf" points="566.5,-0.5 566.5,-19.5 619.5,-19.5 619.5,-0.5 566.5,-0.5"/>
<text text-anchor="middle" x="593" y="-7.5" font-family="Helvetica,sans-Serif" font-size="10.00">limits.h</text>
</a>
</g>
</g>
<!-- Node2&#45;&gt;Node11 -->
<g id="edge10" class="edge">
<title>Node2&#45;&gt;Node11</title>
<path fill="none" stroke="midnightblue" d="M445.73,-56.44C475.69,-47.2 523.55,-32.43 556.54,-22.25"/>
<polygon fill="midnightblue" stroke="midnightblue" points="557.74,-25.54 566.26,-19.25 555.67,-18.85 557.74,-25.54"/>
</g>
<!-- Node12 -->
<g id="node12" class="node">
<title>Node12</title>
<g id="a_node12"><a xlink:title=" ">
<polygon fill="none" stroke="#bfbfbf" points="637.5,-0.5 637.5,-19.5 690.5,-19.5 690.5,-0.5 637.5,-0.5"/>
<text text-anchor="middle" x="664" y="-7.5" font-family="Helvetica,sans-Serif" font-size="10.00">stdint.h</text>
</a>
</g>
</g>
<!-- Node2&#45;&gt;Node12 -->
<g id="edge11" class="edge">
<title>Node2&#45;&gt;Node12</title>
<path fill="none" stroke="midnightblue" d="M460.55,-56.47C501.16,-48.2 564.3,-35.04 627.54,-20.28"/>
<polygon fill="midnightblue" stroke="midnightblue" points="628.34,-23.69 637.28,-17.99 626.74,-16.87 628.34,-23.69"/>
</g>
<!-- Node13 -->
<g id="node13" class="node">
<title>Node13</title>
<g id="a_node13"><a xlink:href="../../d3/de7/Source_2Shared_2q__platform_8h.html" target="_top" xlink:title=" ">
<polygon fill="none" stroke="black" points="708.5,-0.5 708.5,-19.5 787.5,-19.5 787.5,-0.5 708.5,-0.5"/>
<text text-anchor="middle" x="748" y="-7.5" font-family="Helvetica,sans-Serif" font-size="10.00">q_platform.h</text>
</a>
</g>
</g>
<!-- Node2&#45;&gt;Node13 -->
<g id="edge12" class="edge">
<title>Node2&#45;&gt;Node13</title>
<path fill="none" stroke="midnightblue" d="M474.25,-56.48C529.06,-48.08 614.99,-34.63 698.55,-20.22"/>
<polygon fill="midnightblue" stroke="midnightblue" points="699.21,-23.66 708.46,-18.5 698.01,-16.76 699.21,-23.66"/>
</g>
<!-- Node14 -->
<g id="node14" class="node">
<title>Node14</title>
<g id="a_node14"><a xlink:href="../../d1/d83/Source_2Shared_2surfaceflags_8h.html" target="_top" xlink:title=" ">
<polygon fill="none" stroke="black" points="805.5,-0.5 805.5,-19.5 890.5,-19.5 890.5,-0.5 805.5,-0.5"/>
<text text-anchor="middle" x="848" y="-7.5" font-family="Helvetica,sans-Serif" font-size="10.00">surfaceflags.h</text>
</a>
</g>
</g>
<!-- Node2&#45;&gt;Node14 -->
<g id="edge13" class="edge">
<title>Node2&#45;&gt;Node14</title>
<path fill="none" stroke="midnightblue" d="M480.83,-57.12C483.93,-56.74 487,-56.36 490,-56 623.19,-39.87 659.39,-39.93 795.48,-20.16"/>
<polygon fill="midnightblue" stroke="midnightblue" points="796.06,-23.61 805.45,-18.7 795.05,-16.68 796.06,-23.61"/>
</g>
</g>
</svg>
