<?xml version="1.0" encoding="UTF-8" standalone="no"?>
<!DOCTYPE svg PUBLIC "-//W3C//DTD SVG 1.1//EN"
 "http://www.w3.org/Graphics/SVG/1.1/DTD/svg11.dtd">
<!-- Generated by graphviz version 2.43.0 (0)
 -->
<!-- Title: j_decompress_ptr Pages: 1 -->
<!--zoomable 1236 -->
<svg id="main" version="1.1" xmlns="http://www.w3.org/2000/svg" xmlns:xlink="http://www.w3.org/1999/xlink" xml:space="preserve" onload="init(evt)">
<style type="text/css"><![CDATA[
.edge:hover path { stroke: red; }
.edge:hover polygon { stroke: red; fill: red; }
]]></style>
<script type="text/javascript"><![CDATA[
var edges = document.getElementsByTagName('g');
if (edges && edges.length) {
  for (var i=0;i<edges.length;i++) {
    if (edges[i].id.substr(0,4)=='edge') {
      edges[i].setAttribute('class','edge');
    }
  }
}
]]></script>
        <defs>
                <circle id="rim" cx="0" cy="0" r="7"/>
                <circle id="rim2" cx="0" cy="0" r="3.5"/>
                <g id="zoomPlus">
                        <use xlink:href="#rim" fill="#404040">
                                <set attributeName="fill" to="#808080" begin="zoomplus.mouseover" end="zoomplus.mouseout"/>
                        </use>
                        <path d="M-4,0h8M0,-4v8" fill="none" stroke="white" stroke-width="1.5" pointer-events="none"/>
                </g>
                <g id="zoomMin">
                        <use xlink:href="#rim" fill="#404040">
                                <set attributeName="fill" to="#808080" begin="zoomminus.mouseover" end="zoomminus.mouseout"/>
                        </use>
                        <path d="M-4,0h8" fill="none" stroke="white" stroke-width="1.5" pointer-events="none"/>
                </g>
                <g id="dirArrow">
                        <path fill="none" stroke="white" stroke-width="1.5" d="M0,-3.0v7 M-2.5,-0.5L0,-3.0L2.5,-0.5"/>
                </g>
               <g id="resetDef">
                       <use xlink:href="#rim2" fill="#404040">
                               <set attributeName="fill" to="#808080" begin="reset.mouseover" end="reset.mouseout"/>
                       </use>
               </g>
        </defs>

<script type="text/javascript">
var viewWidth = 913;
var viewHeight = 1236;
var sectionId = 'dynsection-0';
</script>
<script xlink:href="../../svgpan.js"/>
<svg id="graph" class="graph">
<g id="viewport">
<title>j_decompress_ptr</title>
<!-- Node1 -->
<g id="node1" class="node">
<title>Node1</title>
<g id="a_node1"><a xlink:title=" ">
<polygon fill="#bfbfbf" stroke="black" points="802,-465.21 802,-484.21 905,-484.21 905,-465.21 802,-465.21"/>
<text text-anchor="middle" x="853.5" y="-472.21" font-family="Helvetica,sans-Serif" font-size="10.00">j_decompress_ptr</text>
</a>
</g>
</g>
<!-- Node2 -->
<g id="node2" class="node">
<title>Node2</title>
<g id="a_node2"><a xlink:href="../../d8/d9d/structjpeg__color__quantizer.html" target="_top" xlink:title=" ">
<polygon fill="none" stroke="black" points="556.5,-1157.21 556.5,-1176.21 674.5,-1176.21 674.5,-1157.21 556.5,-1157.21"/>
<text text-anchor="middle" x="615.5" y="-1164.21" font-family="Helvetica,sans-Serif" font-size="10.00">jpeg_color_quantizer</text>
</a>
</g>
</g>
<!-- Node2&#45;&gt;Node1 -->
<g id="edge1" class="edge">
<title>Node2&#45;&gt;Node1</title>
<path fill="none" stroke="#9a32cd" stroke-dasharray="5,2" d="M684.65,-1174.65C719.17,-1174.69 758.95,-1167.93 784,-1141.71 831.64,-1091.83 849.78,-562.64 852.21,-484.36"/>
<polygon fill="#9a32cd" stroke="#9a32cd" points="684.67,-1171.15 674.61,-1174.46 684.54,-1178.15 684.67,-1171.15"/>
<text text-anchor="middle" x="741.5" y="-1176.71" font-family="Helvetica,sans-Serif" font-size="10.00"> cquantize</text>
</g>
<!-- Node3 -->
<g id="node3" class="node">
<title>Node3</title>
<g id="a_node3"><a xlink:href="../../dc/dbb/structJQUANT__TBL.html" target="_top" xlink:title=" ">
<polygon fill="none" stroke="black" points="283,-800.21 283,-819.21 361,-819.21 361,-800.21 283,-800.21"/>
<text text-anchor="middle" x="322" y="-807.21" font-family="Helvetica,sans-Serif" font-size="10.00">JQUANT_TBL</text>
</a>
</g>
</g>
<!-- Node3&#45;&gt;Node1 -->
<g id="edge2" class="edge">
<title>Node3&#45;&gt;Node1</title>
<path fill="none" stroke="#9a32cd" stroke-dasharray="5,2" d="M371.17,-806.25C476.8,-797.7 724.14,-772.14 784,-716.71 854.16,-651.74 854.41,-520.83 853.02,-484.34"/>
<polygon fill="#9a32cd" stroke="#9a32cd" points="370.8,-802.77 361.1,-807.05 371.35,-809.75 370.8,-802.77"/>
<text text-anchor="middle" x="615.5" y="-788.71" font-family="Helvetica,sans-Serif" font-size="10.00"> quant_tbl_ptrs</text>
</g>
<!-- Node12 -->
<g id="node12" class="node">
<title>Node12</title>
<g id="a_node12"><a xlink:href="../../d3/d38/structjpeg__component__info.html" target="_top" xlink:title=" ">
<polygon fill="none" stroke="black" points="554.5,-826.21 554.5,-845.21 676.5,-845.21 676.5,-826.21 554.5,-826.21"/>
<text text-anchor="middle" x="615.5" y="-833.21" font-family="Helvetica,sans-Serif" font-size="10.00">jpeg_component_info</text>
</a>
</g>
</g>
<!-- Node3&#45;&gt;Node12 -->
<g id="edge14" class="edge">
<title>Node3&#45;&gt;Node12</title>
<path fill="none" stroke="#9a32cd" stroke-dasharray="5,2" d="M371.37,-814.02C421.57,-818.5 500.17,-825.51 554.34,-830.34"/>
<polygon fill="#9a32cd" stroke="#9a32cd" points="371.38,-810.51 361.11,-813.11 370.76,-817.48 371.38,-810.51"/>
<text text-anchor="middle" x="471" y="-830.71" font-family="Helvetica,sans-Serif" font-size="10.00"> quant_table</text>
</g>
<!-- Node4 -->
<g id="node4" class="node">
<title>Node4</title>
<g id="a_node4"><a xlink:title=" ">
<polygon fill="none" stroke="#bfbfbf" points="42,-956.21 42,-975.21 71,-975.21 71,-956.21 42,-956.21"/>
<text text-anchor="middle" x="56.5" y="-963.21" font-family="Helvetica,sans-Serif" font-size="10.00">int</text>
</a>
</g>
</g>
<!-- Node4&#45;&gt;Node1 -->
<g id="edge34" class="edge">
<title>Node4&#45;&gt;Node1</title>
<path fill="none" stroke="#9a32cd" stroke-dasharray="5,2" d="M63.13,-984.8C72.32,-1012.03 93.38,-1061.01 131,-1081.71 171.11,-1103.78 188.23,-1082.29 234,-1081.71 304.24,-1080.82 321.92,-1082.59 392,-1077.71 520.97,-1068.73 562.6,-1096.61 681,-1044.71 736.41,-1020.42 755,-1008.81 784,-955.71 830.89,-869.83 849.05,-544.57 852.04,-484.33"/>
<polygon fill="#9a32cd" stroke="#9a32cd" points="66.45,-983.69 60.09,-975.22 59.78,-985.81 66.45,-983.69"/>
<text text-anchor="middle" x="471" y="-1189.71" font-family="Helvetica,sans-Serif" font-size="10.00"> min_DCT_v_scaled_size</text>
<text text-anchor="middle" x="471" y="-1178.71" font-family="Helvetica,sans-Serif" font-size="10.00">input_scan_number</text>
<text text-anchor="middle" x="471" y="-1167.71" font-family="Helvetica,sans-Serif" font-size="10.00">lim_Se</text>
<text text-anchor="middle" x="471" y="-1156.71" font-family="Helvetica,sans-Serif" font-size="10.00">Se</text>
<text text-anchor="middle" x="471" y="-1145.71" font-family="Helvetica,sans-Serif" font-size="10.00">out_color_components</text>
<text text-anchor="middle" x="471" y="-1134.71" font-family="Helvetica,sans-Serif" font-size="10.00">do_block_smoothing</text>
<text text-anchor="middle" x="471" y="-1123.71" font-family="Helvetica,sans-Serif" font-size="10.00">num_components</text>
<text text-anchor="middle" x="471" y="-1112.71" font-family="Helvetica,sans-Serif" font-size="10.00">saw_Adobe_marker</text>
<text text-anchor="middle" x="471" y="-1101.71" font-family="Helvetica,sans-Serif" font-size="10.00">output_scan_number</text>
<text text-anchor="middle" x="471" y="-1090.71" font-family="Helvetica,sans-Serif" font-size="10.00">raw_data_out</text>
<text text-anchor="middle" x="471" y="-1079.71" font-family="Helvetica,sans-Serif" font-size="10.00">...</text>
</g>
<!-- Node4&#45;&gt;Node3 -->
<g id="edge3" class="edge">
<title>Node4&#45;&gt;Node3</title>
<path fill="none" stroke="#9a32cd" stroke-dasharray="5,2" d="M66.64,-946.98C78.39,-924.94 100.93,-888.92 131,-869.71 170.53,-844.46 192.58,-868.71 234,-846.71 243.72,-841.55 242.45,-835.17 252,-829.71 261.42,-824.32 272.41,-820.29 282.81,-817.31"/>
<polygon fill="#9a32cd" stroke="#9a32cd" points="63.45,-945.52 62.01,-956.01 69.68,-948.71 63.45,-945.52"/>
<text text-anchor="middle" x="182.5" y="-872.71" font-family="Helvetica,sans-Serif" font-size="10.00"> sent_table</text>
</g>
<!-- Node6 -->
<g id="node6" class="node">
<title>Node6</title>
<g id="a_node6"><a xlink:href="../../dd/d2e/structJHUFF__TBL.html" target="_top" xlink:title=" ">
<polygon fill="none" stroke="black" points="287,-718.21 287,-737.21 357,-737.21 357,-718.21 287,-718.21"/>
<text text-anchor="middle" x="322" y="-725.21" font-family="Helvetica,sans-Serif" font-size="10.00">JHUFF_TBL</text>
</a>
</g>
</g>
<!-- Node4&#45;&gt;Node6 -->
<g id="edge7" class="edge">
<title>Node4&#45;&gt;Node6</title>
<path fill="none" stroke="#9a32cd" stroke-dasharray="5,2" d="M62.78,-946C71.71,-916.7 92.66,-862.05 131,-833.71 168.64,-805.88 193.76,-835.63 234,-811.71 244.57,-805.43 243.45,-799.54 252,-790.71 271.19,-770.91 295.32,-749.62 309.37,-737.56"/>
<polygon fill="#9a32cd" stroke="#9a32cd" points="59.34,-945.31 59.94,-955.89 66.07,-947.24 59.34,-945.31"/>
<text text-anchor="middle" x="182.5" y="-836.71" font-family="Helvetica,sans-Serif" font-size="10.00"> sent_table</text>
</g>
<!-- Node4&#45;&gt;Node12 -->
<g id="edge16" class="edge">
<title>Node4&#45;&gt;Node12</title>
<path fill="none" stroke="#9a32cd" stroke-dasharray="5,2" d="M80.86,-955.03C116.81,-939.1 188.24,-909.41 252,-894.71 373.91,-866.6 410.07,-893.74 532,-865.71 553.24,-860.83 576.49,-852.04 592.88,-845.23"/>
<polygon fill="#9a32cd" stroke="#9a32cd" points="78.99,-952.04 71.29,-959.32 81.85,-958.43 78.99,-952.04"/>
<text text-anchor="middle" x="322" y="-1007.71" font-family="Helvetica,sans-Serif" font-size="10.00"> component_index</text>
<text text-anchor="middle" x="322" y="-996.71" font-family="Helvetica,sans-Serif" font-size="10.00">ac_tbl_no</text>
<text text-anchor="middle" x="322" y="-985.71" font-family="Helvetica,sans-Serif" font-size="10.00">component_id</text>
<text text-anchor="middle" x="322" y="-974.71" font-family="Helvetica,sans-Serif" font-size="10.00">DCT_h_scaled_size</text>
<text text-anchor="middle" x="322" y="-963.71" font-family="Helvetica,sans-Serif" font-size="10.00">last_col_width</text>
<text text-anchor="middle" x="322" y="-952.71" font-family="Helvetica,sans-Serif" font-size="10.00">v_samp_factor</text>
<text text-anchor="middle" x="322" y="-941.71" font-family="Helvetica,sans-Serif" font-size="10.00">MCU_width</text>
<text text-anchor="middle" x="322" y="-930.71" font-family="Helvetica,sans-Serif" font-size="10.00">component_needed</text>
<text text-anchor="middle" x="322" y="-919.71" font-family="Helvetica,sans-Serif" font-size="10.00">DCT_v_scaled_size</text>
<text text-anchor="middle" x="322" y="-908.71" font-family="Helvetica,sans-Serif" font-size="10.00">last_row_height</text>
<text text-anchor="middle" x="322" y="-897.71" font-family="Helvetica,sans-Serif" font-size="10.00">...</text>
</g>
<!-- Node21 -->
<g id="node21" class="node">
<title>Node21</title>
<g id="a_node21"><a xlink:href="../../da/deb/structjpeg__marker__reader.html" target="_top" xlink:title=" ">
<polygon fill="none" stroke="black" points="265,-589.21 265,-608.21 379,-608.21 379,-589.21 265,-589.21"/>
<text text-anchor="middle" x="322" y="-596.21" font-family="Helvetica,sans-Serif" font-size="10.00">jpeg_marker_reader</text>
</a>
</g>
</g>
<!-- Node4&#45;&gt;Node21 -->
<g id="edge30" class="edge">
<title>Node4&#45;&gt;Node21</title>
<path fill="none" stroke="#9a32cd" stroke-dasharray="5,2" d="M64.14,-946.24C75.43,-912.61 98.53,-841.31 113,-779.71 123.73,-734.04 100.36,-711.23 131,-675.71 162.48,-639.2 193.3,-667.55 234,-641.71 243.82,-635.47 242.23,-629.02 252,-622.71 261.37,-616.65 272.46,-611.92 282.97,-608.33"/>
<polygon fill="#9a32cd" stroke="#9a32cd" points="60.68,-945.54 60.8,-956.14 67.32,-947.78 60.68,-945.54"/>
<text text-anchor="middle" x="182.5" y="-700.71" font-family="Helvetica,sans-Serif" font-size="10.00"> saw_SOF</text>
<text text-anchor="middle" x="182.5" y="-689.71" font-family="Helvetica,sans-Serif" font-size="10.00">saw_SOI</text>
<text text-anchor="middle" x="182.5" y="-678.71" font-family="Helvetica,sans-Serif" font-size="10.00">next_restart_num</text>
</g>
<!-- Node25 -->
<g id="node25" class="node">
<title>Node25</title>
<g id="a_node25"><a xlink:href="../../d7/d55/structjpeg__upsampler.html" target="_top" xlink:title=" ">
<polygon fill="none" stroke="black" points="423.5,-1030.21 423.5,-1049.21 518.5,-1049.21 518.5,-1030.21 423.5,-1030.21"/>
<text text-anchor="middle" x="471" y="-1037.21" font-family="Helvetica,sans-Serif" font-size="10.00">jpeg_upsampler</text>
</a>
</g>
</g>
<!-- Node4&#45;&gt;Node25 -->
<g id="edge36" class="edge">
<title>Node4&#45;&gt;Node25</title>
<path fill="none" stroke="#9a32cd" stroke-dasharray="5,2" d="M68.24,-983.92C80.63,-1002.92 102.94,-1031.6 131,-1043.71 233.54,-1087.98 370.31,-1064.42 434.24,-1049.27"/>
<polygon fill="#9a32cd" stroke="#9a32cd" points="71.1,-981.88 62.83,-975.24 65.16,-985.58 71.1,-981.88"/>
<text text-anchor="middle" x="182.5" y="-1069.71" font-family="Helvetica,sans-Serif" font-size="10.00"> need_context_rows</text>
</g>
<!-- Node26 -->
<g id="node26" class="node">
<title>Node26</title>
<g id="a_node26"><a xlink:href="../../d3/d61/structjpeg__input__controller.html" target="_top" xlink:title=" ">
<polygon fill="none" stroke="black" points="411.5,-974.21 411.5,-993.21 530.5,-993.21 530.5,-974.21 411.5,-974.21"/>
<text text-anchor="middle" x="471" y="-981.21" font-family="Helvetica,sans-Serif" font-size="10.00">jpeg_input_controller</text>
</a>
</g>
</g>
<!-- Node4&#45;&gt;Node26 -->
<g id="edge38" class="edge">
<title>Node4&#45;&gt;Node26</title>
<path fill="none" stroke="#9a32cd" stroke-dasharray="5,2" d="M80.77,-975.46C135.45,-997.07 276.22,-1045.14 392,-1019.71 415.02,-1014.65 439.33,-1002.13 454.58,-993.27"/>
<polygon fill="#9a32cd" stroke="#9a32cd" points="81.89,-972.14 71.31,-971.64 79.27,-978.63 81.89,-972.14"/>
<text text-anchor="middle" x="182.5" y="-1031.71" font-family="Helvetica,sans-Serif" font-size="10.00"> eoi_reached</text>
<text text-anchor="middle" x="182.5" y="-1020.71" font-family="Helvetica,sans-Serif" font-size="10.00">has_multiple_scans</text>
</g>
<!-- Node28 -->
<g id="node28" class="node">
<title>Node28</title>
<g id="a_node28"><a xlink:href="../../da/d6d/structjpeg__decomp__master.html" target="_top" xlink:title=" ">
<polygon fill="none" stroke="black" points="410,-1208.21 410,-1227.21 532,-1227.21 532,-1208.21 410,-1208.21"/>
<text text-anchor="middle" x="471" y="-1215.21" font-family="Helvetica,sans-Serif" font-size="10.00">jpeg_decomp_master</text>
</a>
</g>
</g>
<!-- Node4&#45;&gt;Node28 -->
<g id="edge41" class="edge">
<title>Node4&#45;&gt;Node28</title>
<path fill="none" stroke="#9a32cd" stroke-dasharray="5,2" d="M60.39,-985.44C66.63,-1020.72 84.72,-1094.56 131,-1133.71 210.51,-1200.96 335.92,-1215.79 409.85,-1218.26"/>
<polygon fill="#9a32cd" stroke="#9a32cd" points="63.82,-984.74 58.76,-975.44 56.91,-985.87 63.82,-984.74"/>
<text text-anchor="middle" x="182.5" y="-1190.71" font-family="Helvetica,sans-Serif" font-size="10.00"> is_dummy_pass</text>
</g>
<!-- Node5 -->
<g id="node5" class="node">
<title>Node5</title>
<g id="a_node5"><a xlink:title=" ">
<polygon fill="none" stroke="#bfbfbf" points="26,-574.21 26,-593.21 87,-593.21 87,-574.21 26,-574.21"/>
<text text-anchor="middle" x="56.5" y="-581.21" font-family="Helvetica,sans-Serif" font-size="10.00">unsigned</text>
</a>
</g>
</g>
<!-- Node5&#45;&gt;Node1 -->
<g id="edge42" class="edge">
<title>Node5&#45;&gt;Node1</title>
<path fill="none" stroke="#9a32cd" stroke-dasharray="5,2" d="M76.81,-567.74C127.46,-527.1 269.88,-420.53 410,-386.71 462.71,-373.99 489.09,-353.56 532,-386.71 557.08,-406.09 525.54,-435.56 550,-455.71 587.16,-486.33 725.77,-482.88 801.8,-478.42"/>
<polygon fill="#9a32cd" stroke="#9a32cd" points="74.52,-565.09 68.96,-574.11 78.93,-570.53 74.52,-565.09"/>
<text text-anchor="middle" x="471" y="-499.71" font-family="Helvetica,sans-Serif" font-size="10.00"> Y_density</text>
<text text-anchor="middle" x="471" y="-488.71" font-family="Helvetica,sans-Serif" font-size="10.00">output_scanline</text>
<text text-anchor="middle" x="471" y="-477.71" font-family="Helvetica,sans-Serif" font-size="10.00">do_block_smoothing</text>
<text text-anchor="middle" x="471" y="-466.71" font-family="Helvetica,sans-Serif" font-size="10.00">saw_Adobe_marker</text>
<text text-anchor="middle" x="471" y="-455.71" font-family="Helvetica,sans-Serif" font-size="10.00">restart_interval</text>
<text text-anchor="middle" x="471" y="-444.71" font-family="Helvetica,sans-Serif" font-size="10.00">raw_data_out</text>
<text text-anchor="middle" x="471" y="-433.71" font-family="Helvetica,sans-Serif" font-size="10.00">scale_num</text>
<text text-anchor="middle" x="471" y="-422.71" font-family="Helvetica,sans-Serif" font-size="10.00">total_iMCU_rows</text>
<text text-anchor="middle" x="471" y="-411.71" font-family="Helvetica,sans-Serif" font-size="10.00">arith_code</text>
<text text-anchor="middle" x="471" y="-400.71" font-family="Helvetica,sans-Serif" font-size="10.00">MCUs_per_row</text>
<text text-anchor="middle" x="471" y="-389.71" font-family="Helvetica,sans-Serif" font-size="10.00">...</text>
</g>
<!-- Node5&#45;&gt;Node3 -->
<g id="edge4" class="edge">
<title>Node5&#45;&gt;Node3</title>
<path fill="none" stroke="#9a32cd" stroke-dasharray="5,2" d="M61.38,-603.38C68.95,-636.68 88.77,-704.27 131,-742.71 153.7,-763.37 234.57,-787.19 283.19,-800.13"/>
<polygon fill="#9a32cd" stroke="#9a32cd" points="64.78,-602.54 59.27,-593.49 57.93,-604 64.78,-602.54"/>
<text text-anchor="middle" x="182.5" y="-799.71" font-family="Helvetica,sans-Serif" font-size="10.00"> quantval</text>
<text text-anchor="middle" x="182.5" y="-788.71" font-family="Helvetica,sans-Serif" font-size="10.00">sent_table</text>
</g>
<!-- Node5&#45;&gt;Node6 -->
<g id="edge8" class="edge">
<title>Node5&#45;&gt;Node6</title>
<path fill="none" stroke="#9a32cd" stroke-dasharray="5,2" d="M94.02,-596.4C105.76,-600.27 118.86,-604.38 131,-607.71 176.24,-620.11 200.47,-597.91 234,-630.71 257.89,-654.08 229.49,-679.01 252,-703.71 260.97,-713.55 274.19,-719.36 286.66,-722.78"/>
<polygon fill="#9a32cd" stroke="#9a32cd" points="95.13,-593.08 84.54,-593.23 92.91,-599.72 95.13,-593.08"/>
<text text-anchor="middle" x="182.5" y="-633.71" font-family="Helvetica,sans-Serif" font-size="10.00"> sent_table</text>
</g>
<!-- Node5&#45;&gt;Node12 -->
<g id="edge17" class="edge">
<title>Node5&#45;&gt;Node12</title>
<path fill="none" stroke="#9a32cd" stroke-dasharray="5,2" d="M97.4,-587.29C133.51,-591.13 187.94,-598.39 234,-610.71 242.29,-612.93 243.83,-615.08 252,-617.71 313.16,-637.39 348.75,-606.2 392,-653.71 426.24,-691.31 377.17,-727.87 410,-766.71 421.28,-780.05 524.66,-810.57 579.96,-826.16"/>
<polygon fill="#9a32cd" stroke="#9a32cd" points="97.57,-583.79 87.26,-586.25 96.86,-590.75 97.57,-583.79"/>
<text text-anchor="middle" x="322" y="-700.71" font-family="Helvetica,sans-Serif" font-size="10.00"> downsampled_height</text>
<text text-anchor="middle" x="322" y="-689.71" font-family="Helvetica,sans-Serif" font-size="10.00">component_needed</text>
<text text-anchor="middle" x="322" y="-678.71" font-family="Helvetica,sans-Serif" font-size="10.00">height_in_blocks</text>
<text text-anchor="middle" x="322" y="-667.71" font-family="Helvetica,sans-Serif" font-size="10.00">downsampled_width</text>
<text text-anchor="middle" x="322" y="-656.71" font-family="Helvetica,sans-Serif" font-size="10.00">width_in_blocks</text>
</g>
<!-- Node14 -->
<g id="node14" class="node">
<title>Node14</title>
<g id="a_node14"><a xlink:href="../../de/d73/structjpeg__source__mgr.html" target="_top" xlink:title=" ">
<polygon fill="none" stroke="black" points="565.5,-503.21 565.5,-522.21 665.5,-522.21 665.5,-503.21 565.5,-503.21"/>
<text text-anchor="middle" x="615.5" y="-510.21" font-family="Helvetica,sans-Serif" font-size="10.00">jpeg_source_mgr</text>
</a>
</g>
</g>
<!-- Node5&#45;&gt;Node14 -->
<g id="edge20" class="edge">
<title>Node5&#45;&gt;Node14</title>
<path fill="none" stroke="#9a32cd" stroke-dasharray="5,2" d="M96.89,-571.6C107.9,-568.3 119.9,-564.79 131,-561.71 184.49,-546.86 197.11,-539.02 252,-530.71 363.05,-513.9 495.2,-511.77 565.23,-512.03"/>
<polygon fill="#9a32cd" stroke="#9a32cd" points="95.67,-568.31 87.1,-574.55 97.69,-575.02 95.67,-568.31"/>
<text text-anchor="middle" x="322" y="-533.71" font-family="Helvetica,sans-Serif" font-size="10.00"> bytes_in_buffer</text>
</g>
<!-- Node5&#45;&gt;Node21 -->
<g id="edge31" class="edge">
<title>Node5&#45;&gt;Node21</title>
<path fill="none" stroke="#9a32cd" stroke-dasharray="5,2" d="M97.32,-574.81C133.39,-568.21 187.79,-561.9 234,-571.71 242.56,-573.53 243.76,-576.76 252,-579.71 261.71,-583.18 272.38,-586.4 282.36,-589.16"/>
<polygon fill="#9a32cd" stroke="#9a32cd" points="96.36,-571.43 87.21,-576.76 97.69,-578.31 96.36,-571.43"/>
<text text-anchor="middle" x="182.5" y="-574.71" font-family="Helvetica,sans-Serif" font-size="10.00"> discarded_bytes</text>
</g>
<!-- Node6&#45;&gt;Node1 -->
<g id="edge5" class="edge">
<title>Node6&#45;&gt;Node1</title>
<path fill="none" stroke="#9a32cd" stroke-dasharray="5,2" d="M367.27,-724.75C376.22,-722.41 385.02,-718.66 392,-712.71 408.71,-698.47 393.19,-680.84 410,-666.71 541.11,-556.49 648.63,-678.66 784,-573.71 816.38,-548.61 839.33,-503.91 848.31,-484.34"/>
<polygon fill="#9a32cd" stroke="#9a32cd" points="366.27,-721.38 357.18,-726.82 367.68,-728.23 366.27,-721.38"/>
<text text-anchor="middle" x="615.5" y="-633.71" font-family="Helvetica,sans-Serif" font-size="10.00"> ac_huff_tbl_ptrs</text>
<text text-anchor="middle" x="615.5" y="-622.71" font-family="Helvetica,sans-Serif" font-size="10.00">dc_huff_tbl_ptrs</text>
</g>
<!-- Node7 -->
<g id="node7" class="node">
<title>Node7</title>
<g id="a_node7"><a xlink:title=" ">
<polygon fill="none" stroke="#bfbfbf" points="36,-751.21 36,-770.21 77,-770.21 77,-751.21 36,-751.21"/>
<text text-anchor="middle" x="56.5" y="-758.21" font-family="Helvetica,sans-Serif" font-size="10.00">short</text>
</a>
</g>
</g>
<!-- Node7&#45;&gt;Node1 -->
<g id="edge25" class="edge">
<title>Node7&#45;&gt;Node1</title>
<path fill="none" stroke="#9a32cd" stroke-dasharray="5,2" d="M86.75,-774.14C99.97,-779.51 115.96,-785.03 131,-787.71 176.07,-795.73 188.59,-793.5 234,-787.71 305.96,-778.52 336.33,-793.23 392,-746.71 406.65,-734.47 395.18,-719.74 410,-707.71 505.95,-629.86 562.57,-680.94 681,-645.71 727.77,-631.79 747.46,-640.04 784,-607.71 823.88,-572.43 843.81,-508.37 850.18,-484.24"/>
<polygon fill="#9a32cd" stroke="#9a32cd" points="87.82,-770.8 77.25,-770.13 85.09,-777.24 87.82,-770.8"/>
<text text-anchor="middle" x="471" y="-776.71" font-family="Helvetica,sans-Serif" font-size="10.00"> arith_dc_U</text>
<text text-anchor="middle" x="471" y="-765.71" font-family="Helvetica,sans-Serif" font-size="10.00">JFIF_major_version</text>
<text text-anchor="middle" x="471" y="-754.71" font-family="Helvetica,sans-Serif" font-size="10.00">density_unit</text>
<text text-anchor="middle" x="471" y="-743.71" font-family="Helvetica,sans-Serif" font-size="10.00">Adobe_transform</text>
<text text-anchor="middle" x="471" y="-732.71" font-family="Helvetica,sans-Serif" font-size="10.00">arith_dc_L</text>
<text text-anchor="middle" x="471" y="-721.71" font-family="Helvetica,sans-Serif" font-size="10.00">arith_ac_K</text>
<text text-anchor="middle" x="471" y="-710.71" font-family="Helvetica,sans-Serif" font-size="10.00">JFIF_minor_version</text>
</g>
<!-- Node7&#45;&gt;Node6 -->
<g id="edge6" class="edge">
<title>Node7&#45;&gt;Node6</title>
<path fill="none" stroke="#9a32cd" stroke-dasharray="5,2" d="M78.65,-745.49C92.73,-736.33 112.06,-725.53 131,-720.71 184.1,-707.2 248.23,-714.15 286.75,-720.71"/>
<polygon fill="#9a32cd" stroke="#9a32cd" points="76.53,-742.7 70.21,-751.2 80.45,-748.5 76.53,-742.7"/>
<text text-anchor="middle" x="182.5" y="-734.71" font-family="Helvetica,sans-Serif" font-size="10.00"> bits</text>
<text text-anchor="middle" x="182.5" y="-723.71" font-family="Helvetica,sans-Serif" font-size="10.00">huffval</text>
</g>
<!-- Node8 -->
<g id="node8" class="node">
<title>Node8</title>
<g id="a_node8"><a xlink:title=" ">
<polygon fill="none" stroke="#bfbfbf" points="550,-427.21 550,-446.21 681,-446.21 681,-427.21 550,-427.21"/>
<text text-anchor="middle" x="615.5" y="-434.21" font-family="Helvetica,sans-Serif" font-size="10.00">jpeg_saved_marker_ptr</text>
</a>
</g>
</g>
<!-- Node8&#45;&gt;Node1 -->
<g id="edge9" class="edge">
<title>Node8&#45;&gt;Node1</title>
<path fill="none" stroke="#9a32cd" stroke-dasharray="5,2" d="M691.25,-438.16C720.45,-439.85 754.04,-443.21 784,-449.71 800.21,-453.23 817.76,-459.69 831.05,-465.16"/>
<polygon fill="#9a32cd" stroke="#9a32cd" points="691.29,-434.66 681.12,-437.62 690.93,-441.65 691.29,-434.66"/>
<text text-anchor="middle" x="741.5" y="-452.71" font-family="Helvetica,sans-Serif" font-size="10.00"> marker_list</text>
</g>
<!-- Node9 -->
<g id="node9" class="node">
<title>Node9</title>
<g id="a_node9"><a xlink:title=" ">
<polygon fill="none" stroke="#bfbfbf" points="590.5,-389.21 590.5,-408.21 640.5,-408.21 640.5,-389.21 590.5,-389.21"/>
<text text-anchor="middle" x="615.5" y="-396.21" font-family="Helvetica,sans-Serif" font-size="10.00">double</text>
</a>
</g>
</g>
<!-- Node9&#45;&gt;Node1 -->
<g id="edge10" class="edge">
<title>Node9&#45;&gt;Node1</title>
<path fill="none" stroke="#9a32cd" stroke-dasharray="5,2" d="M650.91,-398.99C685.72,-400.37 740.45,-405.6 784,-423.71 807.55,-433.5 830.37,-453.16 842.82,-465"/>
<polygon fill="#9a32cd" stroke="#9a32cd" points="650.88,-395.49 640.78,-398.67 650.67,-402.48 650.88,-395.49"/>
<text text-anchor="middle" x="741.5" y="-426.71" font-family="Helvetica,sans-Serif" font-size="10.00"> output_gamma</text>
</g>
<!-- Node10 -->
<g id="node10" class="node">
<title>Node10</title>
<g id="a_node10"><a xlink:href="../../d3/db4/structjpeg__inverse__dct.html" target="_top" xlink:title=" ">
<polygon fill="none" stroke="black" points="566,-351.21 566,-370.21 665,-370.21 665,-351.21 566,-351.21"/>
<text text-anchor="middle" x="615.5" y="-358.21" font-family="Helvetica,sans-Serif" font-size="10.00">jpeg_inverse_dct</text>
</a>
</g>
</g>
<!-- Node10&#45;&gt;Node1 -->
<g id="edge11" class="edge">
<title>Node10&#45;&gt;Node1</title>
<path fill="none" stroke="#9a32cd" stroke-dasharray="5,2" d="M675.34,-359.84C709.18,-361.77 751.33,-368.49 784,-387.71 816.14,-406.62 838.91,-446.83 848.05,-465.2"/>
<polygon fill="#9a32cd" stroke="#9a32cd" points="675.26,-356.33 665.12,-359.38 674.95,-363.32 675.26,-356.33"/>
<text text-anchor="middle" x="741.5" y="-390.71" font-family="Helvetica,sans-Serif" font-size="10.00"> idct</text>
</g>
<!-- Node11 -->
<g id="node11" class="node">
<title>Node11</title>
<g id="a_node11"><a xlink:title=" ">
<polygon fill="none" stroke="#bfbfbf" points="252,-340.21 252,-359.21 392,-359.21 392,-340.21 252,-340.21"/>
<text text-anchor="middle" x="322" y="-347.21" font-family="Helvetica,sans-Serif" font-size="10.00">inverse_DCT_method_ptr</text>
</a>
</g>
</g>
<!-- Node11&#45;&gt;Node10 -->
<g id="edge12" class="edge">
<title>Node11&#45;&gt;Node10</title>
<path fill="none" stroke="#9a32cd" stroke-dasharray="5,2" d="M402.49,-349.31C441.53,-349.51 489.26,-350.33 532,-352.71 542.92,-353.32 554.63,-354.27 565.69,-355.31"/>
<polygon fill="#9a32cd" stroke="#9a32cd" points="402.25,-345.81 392.24,-349.27 402.23,-352.81 402.25,-345.81"/>
<text text-anchor="middle" x="471" y="-355.71" font-family="Helvetica,sans-Serif" font-size="10.00"> inverse_DCT</text>
</g>
<!-- Node12&#45;&gt;Node1 -->
<g id="edge13" class="edge">
<title>Node12&#45;&gt;Node1</title>
<path fill="none" stroke="#9a32cd" stroke-dasharray="5,2" d="M686.91,-833.73C720.64,-829.09 759.04,-817.79 784,-791.71 828.18,-745.54 847.87,-532 851.76,-484.21"/>
<polygon fill="#9a32cd" stroke="#9a32cd" points="686.12,-830.3 676.61,-834.96 686.95,-837.25 686.12,-830.3"/>
<text text-anchor="middle" x="741.5" y="-844.71" font-family="Helvetica,sans-Serif" font-size="10.00"> cur_comp_info</text>
<text text-anchor="middle" x="741.5" y="-833.71" font-family="Helvetica,sans-Serif" font-size="10.00">comp_info</text>
</g>
<!-- Node13 -->
<g id="node13" class="node">
<title>Node13</title>
<g id="a_node13"><a xlink:title=" ">
<polygon fill="none" stroke="#bfbfbf" points="303,-839.21 303,-858.21 341,-858.21 341,-839.21 303,-839.21"/>
<text text-anchor="middle" x="322" y="-846.21" font-family="Helvetica,sans-Serif" font-size="10.00">void</text>
</a>
</g>
</g>
<!-- Node13&#45;&gt;Node12 -->
<g id="edge15" class="edge">
<title>Node13&#45;&gt;Node12</title>
<path fill="none" stroke="#9a32cd" stroke-dasharray="5,2" d="M351.33,-849.82C391.57,-851.12 467.53,-852.53 532,-847.71 539.79,-847.13 547.97,-846.26 556.02,-845.24"/>
<polygon fill="#9a32cd" stroke="#9a32cd" points="351.32,-846.32 341.21,-849.47 351.08,-853.32 351.32,-846.32"/>
<text text-anchor="middle" x="471" y="-853.71" font-family="Helvetica,sans-Serif" font-size="10.00"> dct_table</text>
</g>
<!-- Node14&#45;&gt;Node1 -->
<g id="edge18" class="edge">
<title>Node14&#45;&gt;Node1</title>
<path fill="none" stroke="#9a32cd" stroke-dasharray="5,2" d="M675.8,-504.44C707.88,-499.82 748.16,-493.78 784,-487.71 790.33,-486.64 796.97,-485.45 803.52,-484.25"/>
<polygon fill="#9a32cd" stroke="#9a32cd" points="675.09,-501 665.69,-505.89 676.08,-507.93 675.09,-501"/>
<text text-anchor="middle" x="741.5" y="-502.71" font-family="Helvetica,sans-Serif" font-size="10.00"> src</text>
</g>
<!-- Node15 -->
<g id="node15" class="node">
<title>Node15</title>
<g id="a_node15"><a xlink:title=" ">
<polygon fill="none" stroke="#bfbfbf" points="303,-551.21 303,-570.21 341,-570.21 341,-551.21 303,-551.21"/>
<text text-anchor="middle" x="322" y="-558.21" font-family="Helvetica,sans-Serif" font-size="10.00">char</text>
</a>
</g>
</g>
<!-- Node15&#45;&gt;Node1 -->
<g id="edge24" class="edge">
<title>Node15&#45;&gt;Node1</title>
<path fill="none" stroke="#9a32cd" stroke-dasharray="5,2" d="M351.68,-562.36C368.63,-563.25 390.53,-564.26 410,-564.71 577.66,-568.56 627.18,-574.13 784,-514.71 804.48,-506.95 825.94,-493.4 839.27,-484.24"/>
<polygon fill="#9a32cd" stroke="#9a32cd" points="351.5,-558.84 341.32,-561.8 351.12,-565.83 351.5,-558.84"/>
<text text-anchor="middle" x="615.5" y="-568.71" font-family="Helvetica,sans-Serif" font-size="10.00"> sample_range_limit</text>
</g>
<!-- Node15&#45;&gt;Node14 -->
<g id="edge19" class="edge">
<title>Node15&#45;&gt;Node14</title>
<path fill="none" stroke="#9a32cd" stroke-dasharray="5,2" d="M351.43,-557.85C391.79,-553.59 467.89,-544.74 532,-532.71 547.35,-529.83 564.14,-525.9 578.53,-522.29"/>
<polygon fill="#9a32cd" stroke="#9a32cd" points="350.86,-554.4 341.27,-558.91 351.58,-561.36 350.86,-554.4"/>
<text text-anchor="middle" x="471" y="-552.71" font-family="Helvetica,sans-Serif" font-size="10.00"> next_input_byte</text>
</g>
<!-- Node16 -->
<g id="node16" class="node">
<title>Node16</title>
<g id="a_node16"><a xlink:href="../../d9/d21/structjpeg__d__coef__controller.html" target="_top" xlink:title=" ">
<polygon fill="none" stroke="black" points="552,-313.21 552,-332.21 679,-332.21 679,-313.21 552,-313.21"/>
<text text-anchor="middle" x="615.5" y="-320.21" font-family="Helvetica,sans-Serif" font-size="10.00">jpeg_d_coef_controller</text>
</a>
</g>
</g>
<!-- Node16&#45;&gt;Node1 -->
<g id="edge21" class="edge">
<title>Node16&#45;&gt;Node1</title>
<path fill="none" stroke="#9a32cd" stroke-dasharray="5,2" d="M689.25,-318.97C720.83,-320.73 756.75,-327.63 784,-346.71 826.32,-376.34 844.79,-440.6 850.47,-465.02"/>
<polygon fill="#9a32cd" stroke="#9a32cd" points="689.29,-315.47 679.16,-318.57 689.01,-322.47 689.29,-315.47"/>
<text text-anchor="middle" x="741.5" y="-349.71" font-family="Helvetica,sans-Serif" font-size="10.00"> coef</text>
</g>
<!-- Node17 -->
<g id="node17" class="node">
<title>Node17</title>
<g id="a_node17"><a xlink:title=" ">
<polygon fill="none" stroke="#bfbfbf" points="276,-302.21 276,-321.21 368,-321.21 368,-302.21 276,-302.21"/>
<text text-anchor="middle" x="322" y="-309.21" font-family="Helvetica,sans-Serif" font-size="10.00">jvirt_barray_ptr</text>
</a>
</g>
</g>
<!-- Node17&#45;&gt;Node16 -->
<g id="edge22" class="edge">
<title>Node17&#45;&gt;Node16</title>
<path fill="none" stroke="#9a32cd" stroke-dasharray="5,2" d="M378.42,-313.8C427.88,-315.67 500.26,-318.4 551.82,-320.34"/>
<polygon fill="#9a32cd" stroke="#9a32cd" points="378.35,-310.3 368.23,-313.42 378.09,-317.29 378.35,-310.3"/>
<text text-anchor="middle" x="471" y="-321.71" font-family="Helvetica,sans-Serif" font-size="10.00"> coef_arrays</text>
</g>
<!-- Node18 -->
<g id="node18" class="node">
<title>Node18</title>
<g id="a_node18"><a xlink:title=" ">
<polygon fill="none" stroke="#bfbfbf" points="568,-275.21 568,-294.21 663,-294.21 663,-275.21 568,-275.21"/>
<text text-anchor="middle" x="615.5" y="-282.21" font-family="Helvetica,sans-Serif" font-size="10.00">J_COLOR_SPACE</text>
</a>
</g>
</g>
<!-- Node18&#45;&gt;Node1 -->
<g id="edge23" class="edge">
<title>Node18&#45;&gt;Node1</title>
<path fill="none" stroke="#9a32cd" stroke-dasharray="5,2" d="M668.46,-273.73C704.27,-269.21 751.16,-269.69 784,-293.71 842.04,-336.15 850.91,-434.12 852.26,-465.12"/>
<polygon fill="#9a32cd" stroke="#9a32cd" points="667.6,-270.31 658.2,-275.19 668.59,-277.24 667.6,-270.31"/>
<text text-anchor="middle" x="741.5" y="-307.71" font-family="Helvetica,sans-Serif" font-size="10.00"> out_color_space</text>
<text text-anchor="middle" x="741.5" y="-296.71" font-family="Helvetica,sans-Serif" font-size="10.00">jpeg_color_space</text>
</g>
<!-- Node19 -->
<g id="node19" class="node">
<title>Node19</title>
<g id="a_node19"><a xlink:href="../../d0/da8/structjpeg__color__deconverter.html" target="_top" xlink:title=" ">
<polygon fill="none" stroke="black" points="550,-237.21 550,-256.21 681,-256.21 681,-237.21 550,-237.21"/>
<text text-anchor="middle" x="615.5" y="-244.21" font-family="Helvetica,sans-Serif" font-size="10.00">jpeg_color_deconverter</text>
</a>
</g>
</g>
<!-- Node19&#45;&gt;Node1 -->
<g id="edge26" class="edge">
<title>Node19&#45;&gt;Node1</title>
<path fill="none" stroke="#9a32cd" stroke-dasharray="5,2" d="M665.64,-235.59C702.05,-230.34 750.9,-229.98 784,-255.71 852.57,-309 854.03,-430.34 852.95,-465.19"/>
<polygon fill="#9a32cd" stroke="#9a32cd" points="665.04,-232.14 655.73,-237.18 666.15,-239.05 665.04,-232.14"/>
<text text-anchor="middle" x="741.5" y="-258.71" font-family="Helvetica,sans-Serif" font-size="10.00"> cconvert</text>
</g>
<!-- Node20 -->
<g id="node20" class="node">
<title>Node20</title>
<g id="a_node20"><a xlink:href="../../db/db6/structjpeg__entropy__decoder.html" target="_top" xlink:title=" ">
<polygon fill="none" stroke="black" points="553,-199.21 553,-218.21 678,-218.21 678,-199.21 553,-199.21"/>
<text text-anchor="middle" x="615.5" y="-206.21" font-family="Helvetica,sans-Serif" font-size="10.00">jpeg_entropy_decoder</text>
</a>
</g>
</g>
<!-- Node20&#45;&gt;Node1 -->
<g id="edge27" class="edge">
<title>Node20&#45;&gt;Node1</title>
<path fill="none" stroke="#9a32cd" stroke-dasharray="5,2" d="M664.23,-197.45C700.98,-191.75 750.94,-190.86 784,-217.71 824.15,-250.31 846.48,-422.62 851.44,-465.19"/>
<polygon fill="#9a32cd" stroke="#9a32cd" points="663.5,-194.02 654.24,-199.17 664.69,-200.92 663.5,-194.02"/>
<text text-anchor="middle" x="741.5" y="-220.71" font-family="Helvetica,sans-Serif" font-size="10.00"> entropy</text>
</g>
<!-- Node21&#45;&gt;Node1 -->
<g id="edge28" class="edge">
<title>Node21&#45;&gt;Node1</title>
<path fill="none" stroke="#9a32cd" stroke-dasharray="5,2" d="M389.5,-601.33C461.96,-602.81 580.91,-601.19 681,-580.71 728.8,-570.93 742.86,-568.94 784,-542.71 809.72,-526.31 833.49,-498.86 845.08,-484.36"/>
<polygon fill="#9a32cd" stroke="#9a32cd" points="389.24,-597.82 379.16,-601.09 389.07,-604.82 389.24,-597.82"/>
<text text-anchor="middle" x="615.5" y="-599.71" font-family="Helvetica,sans-Serif" font-size="10.00"> marker</text>
</g>
<!-- Node22 -->
<g id="node22" class="node">
<title>Node22</title>
<g id="a_node22"><a xlink:title=" ">
<polygon fill="none" stroke="#bfbfbf" points="0,-346.71 0,-376.71 113,-376.71 113,-346.71 0,-346.71"/>
<text text-anchor="start" x="8" y="-364.71" font-family="Helvetica,sans-Serif" font-size="10.00">jpeg_marker_parser</text>
<text text-anchor="middle" x="56.5" y="-353.71" font-family="Helvetica,sans-Serif" font-size="10.00">_method</text>
</a>
</g>
</g>
<!-- Node22&#45;&gt;Node21 -->
<g id="edge29" class="edge">
<title>Node22&#45;&gt;Node21</title>
<path fill="none" stroke="#9a32cd" stroke-dasharray="5,2" d="M80.91,-383.83C116.26,-417.86 184.4,-485.91 234,-550.71 243.22,-562.75 239.85,-570.63 252,-579.71 257.17,-583.58 263.09,-586.66 269.24,-589.11"/>
<polygon fill="#9a32cd" stroke="#9a32cd" points="83.12,-381.1 73.47,-376.71 78.28,-386.15 83.12,-381.1"/>
<text text-anchor="middle" x="182.5" y="-553.71" font-family="Helvetica,sans-Serif" font-size="10.00"> read_restart_marker</text>
</g>
<!-- Node23 -->
<g id="node23" class="node">
<title>Node23</title>
<g id="a_node23"><a xlink:href="../../d2/d4c/structjpeg__d__main__controller.html" target="_top" xlink:title=" ">
<polygon fill="none" stroke="black" points="550,-161.21 550,-180.21 681,-180.21 681,-161.21 550,-161.21"/>
<text text-anchor="middle" x="615.5" y="-168.21" font-family="Helvetica,sans-Serif" font-size="10.00">jpeg_d_main_controller</text>
</a>
</g>
</g>
<!-- Node23&#45;&gt;Node1 -->
<g id="edge32" class="edge">
<title>Node23&#45;&gt;Node1</title>
<path fill="none" stroke="#9a32cd" stroke-dasharray="5,2" d="M662.04,-159.22C699.11,-152.77 750.6,-150.83 784,-178.71 829.76,-216.9 848.11,-418.35 851.78,-465.04"/>
<polygon fill="#9a32cd" stroke="#9a32cd" points="661.16,-155.83 651.99,-161.14 662.47,-162.7 661.16,-155.83"/>
<text text-anchor="middle" x="741.5" y="-181.71" font-family="Helvetica,sans-Serif" font-size="10.00"> main</text>
</g>
<!-- Node24 -->
<g id="node24" class="node">
<title>Node24</title>
<g id="a_node24"><a xlink:title=" ">
<polygon fill="none" stroke="#bfbfbf" points="575.5,-123.21 575.5,-142.21 655.5,-142.21 655.5,-123.21 575.5,-123.21"/>
<text text-anchor="middle" x="615.5" y="-130.21" font-family="Helvetica,sans-Serif" font-size="10.00">JSAMPROW *</text>
</a>
</g>
</g>
<!-- Node24&#45;&gt;Node1 -->
<g id="edge33" class="edge">
<title>Node24&#45;&gt;Node1</title>
<path fill="none" stroke="#9a32cd" stroke-dasharray="5,2" d="M660.15,-121.06C697.45,-113.94 750.28,-110.99 784,-139.71 835.52,-183.59 849.61,-415.03 852.07,-465.14"/>
<polygon fill="#9a32cd" stroke="#9a32cd" points="659.15,-117.69 650.08,-123.16 660.58,-124.55 659.15,-117.69"/>
<text text-anchor="middle" x="741.5" y="-142.71" font-family="Helvetica,sans-Serif" font-size="10.00"> colormap</text>
</g>
<!-- Node25&#45;&gt;Node1 -->
<g id="edge35" class="edge">
<title>Node25&#45;&gt;Node1</title>
<path fill="none" stroke="#9a32cd" stroke-dasharray="5,2" d="M528.87,-1034.4C603.74,-1023.92 731.96,-993.04 784,-902.71 827.29,-827.56 848.16,-540.76 851.89,-484.37"/>
<polygon fill="#9a32cd" stroke="#9a32cd" points="528.12,-1030.97 518.67,-1035.75 529.04,-1037.91 528.12,-1030.97"/>
<text text-anchor="middle" x="615.5" y="-1032.71" font-family="Helvetica,sans-Serif" font-size="10.00"> upsample</text>
</g>
<!-- Node26&#45;&gt;Node1 -->
<g id="edge37" class="edge">
<title>Node26&#45;&gt;Node1</title>
<path fill="none" stroke="#9a32cd" stroke-dasharray="5,2" d="M540.49,-975.18C612.52,-962.41 723.62,-931.25 784,-856.71 832.67,-796.63 849.13,-537.26 852.01,-484.21"/>
<polygon fill="#9a32cd" stroke="#9a32cd" points="539.86,-971.73 530.59,-976.86 541.04,-978.63 539.86,-971.73"/>
<text text-anchor="middle" x="615.5" y="-974.71" font-family="Helvetica,sans-Serif" font-size="10.00"> inputctl</text>
</g>
<!-- Node27 -->
<g id="node27" class="node">
<title>Node27</title>
<g id="a_node27"><a xlink:href="../../d3/d20/structjpeg__d__post__controller.html" target="_top" xlink:title=" ">
<polygon fill="none" stroke="black" points="552,-85.21 552,-104.21 679,-104.21 679,-85.21 552,-85.21"/>
<text text-anchor="middle" x="615.5" y="-92.21" font-family="Helvetica,sans-Serif" font-size="10.00">jpeg_d_post_controller</text>
</a>
</g>
</g>
<!-- Node27&#45;&gt;Node1 -->
<g id="edge39" class="edge">
<title>Node27&#45;&gt;Node1</title>
<path fill="none" stroke="#9a32cd" stroke-dasharray="5,2" d="M658.59,-82.92C696.04,-75.21 749.99,-71.32 784,-100.71 841.31,-150.24 850.92,-411.54 852.29,-465.11"/>
<polygon fill="#9a32cd" stroke="#9a32cd" points="657.49,-79.58 648.5,-85.18 659.02,-86.41 657.49,-79.58"/>
<text text-anchor="middle" x="741.5" y="-103.71" font-family="Helvetica,sans-Serif" font-size="10.00"> post</text>
</g>
<!-- Node28&#45;&gt;Node1 -->
<g id="edge40" class="edge">
<title>Node28&#45;&gt;Node1</title>
<path fill="none" stroke="#9a32cd" stroke-dasharray="5,2" d="M533.15,-1200.57C549.38,-1177.47 529.47,-1155.49 550,-1136.71 627.91,-1065.44 711.75,-1172.7 784,-1095.71 827.79,-1049.04 849.06,-560.66 852.11,-484.63"/>
<polygon fill="#9a32cd" stroke="#9a32cd" points="530.49,-1198.29 526.51,-1208.1 535.74,-1202.91 530.49,-1198.29"/>
<text text-anchor="middle" x="615.5" y="-1139.71" font-family="Helvetica,sans-Serif" font-size="10.00"> master</text>
</g>
<!-- Node29 -->
<g id="node29" class="node">
<title>Node29</title>
<g id="a_node29"><a xlink:title=" ">
<polygon fill="none" stroke="#bfbfbf" points="568.5,-47.21 568.5,-66.21 662.5,-66.21 662.5,-47.21 568.5,-47.21"/>
<text text-anchor="middle" x="615.5" y="-54.21" font-family="Helvetica,sans-Serif" font-size="10.00">J_DCT_METHOD</text>
</a>
</g>
</g>
<!-- Node29&#45;&gt;Node1 -->
<g id="edge43" class="edge">
<title>Node29&#45;&gt;Node1</title>
<path fill="none" stroke="#9a32cd" stroke-dasharray="5,2" d="M657.34,-44.78C694.89,-36.54 749.76,-31.79 784,-61.71 847.08,-116.82 852.1,-407.51 852.47,-464.87"/>
<polygon fill="#9a32cd" stroke="#9a32cd" points="656.17,-41.46 647.25,-47.17 657.78,-48.27 656.17,-41.46"/>
<text text-anchor="middle" x="741.5" y="-64.71" font-family="Helvetica,sans-Serif" font-size="10.00"> dct_method</text>
</g>
<!-- Node30 -->
<g id="node30" class="node">
<title>Node30</title>
<g id="a_node30"><a xlink:title=" ">
<polygon fill="none" stroke="#bfbfbf" points="567,-9.21 567,-28.21 664,-28.21 664,-9.21 567,-9.21"/>
<text text-anchor="middle" x="615.5" y="-16.21" font-family="Helvetica,sans-Serif" font-size="10.00">J_DITHER_MODE</text>
</a>
</g>
</g>
<!-- Node30&#45;&gt;Node1 -->
<g id="edge44" class="edge">
<title>Node30&#45;&gt;Node1</title>
<path fill="none" stroke="#9a32cd" stroke-dasharray="5,2" d="M657.11,-6.75C694.73,1.61 749.86,6.53 784,-23.71 852.77,-84.63 853.15,-405.53 852.62,-465.17"/>
<polygon fill="#9a32cd" stroke="#9a32cd" points="655.9,-3.44 646.99,-9.17 657.53,-10.24 655.9,-3.44"/>
<text text-anchor="middle" x="741.5" y="-26.71" font-family="Helvetica,sans-Serif" font-size="10.00"> dither_mode</text>
</g>
</g>
</svg>
        <g id="navigator" transform="translate(0 0)" fill="#404254">
                <rect fill="#f2f5e9" fill-opacity="0.5" stroke="#606060" stroke-width=".5" x="0" y="0" width="60" height="60"/>
                <use id="zoomplus" xlink:href="#zoomPlus" x="17" y="9" onmousedown="handleZoom(evt,'in')"/>
                <use id="zoomminus" xlink:href="#zoomMin" x="42" y="9" onmousedown="handleZoom(evt,'out')"/>
                <use id="reset" xlink:href="#resetDef" x="30" y="36" onmousedown="handleReset()"/>
                <g id="arrowUp" xlink:href="#dirArrow" transform="translate(30 24)" onmousedown="handlePan(0,-1)">
                  <use xlink:href="#rim" fill="#404040">
                        <set attributeName="fill" to="#808080" begin="arrowUp.mouseover" end="arrowUp.mouseout"/>
                  </use>
                  <path fill="none" stroke="white" stroke-width="1.5" d="M0,-3.0v7 M-2.5,-0.5L0,-3.0L2.5,-0.5"/>
                </g>
                <g id="arrowRight" xlink:href="#dirArrow" transform="rotate(90) translate(36 -43)" onmousedown="handlePan(1,0)">
                  <use xlink:href="#rim" fill="#404040">
                        <set attributeName="fill" to="#808080" begin="arrowRight.mouseover" end="arrowRight.mouseout"/>
                  </use>
                  <path fill="none" stroke="white" stroke-width="1.5" d="M0,-3.0v7 M-2.5,-0.5L0,-3.0L2.5,-0.5"/>
                </g>
                <g id="arrowDown" xlink:href="#dirArrow" transform="rotate(180) translate(-30 -48)" onmousedown="handlePan(0,1)">
                  <use xlink:href="#rim" fill="#404040">
                        <set attributeName="fill" to="#808080" begin="arrowDown.mouseover" end="arrowDown.mouseout"/>
                  </use>
                  <path fill="none" stroke="white" stroke-width="1.5" d="M0,-3.0v7 M-2.5,-0.5L0,-3.0L2.5,-0.5"/>
                </g>
                <g id="arrowLeft" xlink:href="#dirArrow" transform="rotate(270) translate(-36 17)" onmousedown="handlePan(-1,0)">
                  <use xlink:href="#rim" fill="#404040">
                        <set attributeName="fill" to="#808080" begin="arrowLeft.mouseover" end="arrowLeft.mouseout"/>
                  </use>
                  <path fill="none" stroke="white" stroke-width="1.5" d="M0,-3.0v7 M-2.5,-0.5L0,-3.0L2.5,-0.5"/>
                </g>
        </g>
        <svg viewBox="0 0 15 15" width="100%" height="30px" preserveAspectRatio="xMaxYMin meet">
         <g id="arrow_out" transform="scale(0.3 0.3)">
          <a xlink:href="structjpeg__decompress__struct__coll__graph_org.svg" target="_base">
           <rect id="button" ry="5" rx="5" y="6" x="6" height="38" width="38"
                fill="#f2f5e9" fill-opacity="0.5" stroke="#606060" stroke-width="1.0"/>
           <path id="arrow"
             d="M 11.500037,31.436501 C 11.940474,20.09759 22.043105,11.32322 32.158766,21.979434 L 37.068811,17.246167 C 37.068811,17.246167 37.088388,32 37.088388,32 L 22.160133,31.978069 C 22.160133,31.978069 26.997745,27.140456 26.997745,27.140456 C 18.528582,18.264221 13.291696,25.230495 11.500037,31.436501 z"
             style="fill:#404040;"/>
          </a>
         </g>
        </svg>
</svg>
