<?xml version="1.0" encoding="UTF-8" standalone="no"?>
<!DOCTYPE svg PUBLIC "-//W3C//DTD SVG 1.1//EN"
 "http://www.w3.org/Graphics/SVG/1.1/DTD/svg11.dtd">
<!-- Generated by graphviz version 2.43.0 (0)
 -->
<!-- Title: clipMap_t Pages: 1 -->
<!--zoomable 922 -->
<svg id="main" version="1.1" xmlns="http://www.w3.org/2000/svg" xmlns:xlink="http://www.w3.org/1999/xlink" xml:space="preserve" onload="init(evt)">
<style type="text/css"><![CDATA[
.edge:hover path { stroke: red; }
.edge:hover polygon { stroke: red; fill: red; }
]]></style>
<script type="text/javascript"><![CDATA[
var edges = document.getElementsByTagName('g');
if (edges && edges.length) {
  for (var i=0;i<edges.length;i++) {
    if (edges[i].id.substr(0,4)=='edge') {
      edges[i].setAttribute('class','edge');
    }
  }
}
]]></script>
        <defs>
                <circle id="rim" cx="0" cy="0" r="7"/>
                <circle id="rim2" cx="0" cy="0" r="3.5"/>
                <g id="zoomPlus">
                        <use xlink:href="#rim" fill="#404040">
                                <set attributeName="fill" to="#808080" begin="zoomplus.mouseover" end="zoomplus.mouseout"/>
                        </use>
                        <path d="M-4,0h8M0,-4v8" fill="none" stroke="white" stroke-width="1.5" pointer-events="none"/>
                </g>
                <g id="zoomMin">
                        <use xlink:href="#rim" fill="#404040">
                                <set attributeName="fill" to="#808080" begin="zoomminus.mouseover" end="zoomminus.mouseout"/>
                        </use>
                        <path d="M-4,0h8" fill="none" stroke="white" stroke-width="1.5" pointer-events="none"/>
                </g>
                <g id="dirArrow">
                        <path fill="none" stroke="white" stroke-width="1.5" d="M0,-3.0v7 M-2.5,-0.5L0,-3.0L2.5,-0.5"/>
                </g>
               <g id="resetDef">
                       <use xlink:href="#rim2" fill="#404040">
                               <set attributeName="fill" to="#808080" begin="reset.mouseover" end="reset.mouseout"/>
                       </use>
               </g>
        </defs>

<script type="text/javascript">
var viewWidth = 769;
var viewHeight = 922;
var sectionId = 'dynsection-0';
</script>
<script xlink:href="../../svgpan.js"/>
<svg id="graph" class="graph">
<g id="viewport">
<title>clipMap_t</title>
<!-- Node1 -->
<g id="node1" class="node">
<title>Node1</title>
<g id="a_node1"><a xlink:title=" ">
<polygon fill="#bfbfbf" stroke="black" points="697,-357.5 697,-376.5 761,-376.5 761,-357.5 697,-357.5"/>
<text text-anchor="middle" x="729" y="-364.5" font-family="Helvetica,sans-Serif" font-size="10.00">clipMap_t</text>
</a>
</g>
</g>
<!-- Node2 -->
<g id="node2" class="node">
<title>Node2</title>
<g id="a_node2"><a xlink:href="../../d9/dbe/structcPatch__t.html" target="_top" xlink:title=" ">
<polygon fill="none" stroke="black" points="551.5,-529.5 551.5,-548.5 608.5,-548.5 608.5,-529.5 551.5,-529.5"/>
<text text-anchor="middle" x="580" y="-536.5" font-family="Helvetica,sans-Serif" font-size="10.00">cPatch_t</text>
</a>
</g>
</g>
<!-- Node2&#45;&gt;Node1 -->
<g id="edge1" class="edge">
<title>Node2&#45;&gt;Node1</title>
<path fill="none" stroke="#9a32cd" stroke-dasharray="5,2" d="M618.4,-533.18C638.68,-528.26 662.82,-519.28 679,-503 715.27,-466.51 724.87,-401.25 727.26,-376.7"/>
<polygon fill="#9a32cd" stroke="#9a32cd" points="617.53,-529.79 608.51,-535.34 619.03,-536.63 617.53,-529.79"/>
<text text-anchor="middle" x="656" y="-531" font-family="Helvetica,sans-Serif" font-size="10.00"> surfaces</text>
</g>
<!-- Node3 -->
<g id="node3" class="node">
<title>Node3</title>
<g id="a_node3"><a xlink:title=" ">
<polygon fill="none" stroke="#bfbfbf" points="16.5,-482.5 16.5,-501.5 45.5,-501.5 45.5,-482.5 16.5,-482.5"/>
<text text-anchor="middle" x="31" y="-489.5" font-family="Helvetica,sans-Serif" font-size="10.00">int</text>
</a>
</g>
</g>
<!-- Node3&#45;&gt;Node1 -->
<g id="edge28" class="edge">
<title>Node3&#45;&gt;Node1</title>
<path fill="none" stroke="#9a32cd" stroke-dasharray="5,2" d="M33.24,-472.04C37.02,-417.03 50.01,-264.7 80,-226 165.39,-115.8 228.82,-124.8 365,-95 519.41,-61.21 578.93,-139.64 679,-262 703.96,-292.52 719.42,-337.86 725.3,-357.43"/>
<polygon fill="#9a32cd" stroke="#9a32cd" points="29.73,-472.02 32.57,-482.23 36.72,-472.48 29.73,-472.02"/>
<text text-anchor="middle" x="409" y="-208" font-family="Helvetica,sans-Serif" font-size="10.00"> areaPortals</text>
<text text-anchor="middle" x="409" y="-197" font-family="Helvetica,sans-Serif" font-size="10.00">numNodes</text>
<text text-anchor="middle" x="409" y="-186" font-family="Helvetica,sans-Serif" font-size="10.00">numPlanes</text>
<text text-anchor="middle" x="409" y="-175" font-family="Helvetica,sans-Serif" font-size="10.00">leafbrushes</text>
<text text-anchor="middle" x="409" y="-164" font-family="Helvetica,sans-Serif" font-size="10.00">numSurfaces</text>
<text text-anchor="middle" x="409" y="-153" font-family="Helvetica,sans-Serif" font-size="10.00">numEntityChars</text>
<text text-anchor="middle" x="409" y="-142" font-family="Helvetica,sans-Serif" font-size="10.00">numLeafBrushes</text>
<text text-anchor="middle" x="409" y="-131" font-family="Helvetica,sans-Serif" font-size="10.00">numLeafSurfaces</text>
<text text-anchor="middle" x="409" y="-120" font-family="Helvetica,sans-Serif" font-size="10.00">checkcount</text>
<text text-anchor="middle" x="409" y="-109" font-family="Helvetica,sans-Serif" font-size="10.00">floodvalid</text>
<text text-anchor="middle" x="409" y="-98" font-family="Helvetica,sans-Serif" font-size="10.00">...</text>
</g>
<!-- Node3&#45;&gt;Node2 -->
<g id="edge2" class="edge">
<title>Node3&#45;&gt;Node2</title>
<path fill="none" stroke="#9a32cd" stroke-dasharray="5,2" d="M55.94,-495.3C63.62,-496.28 72.16,-497.28 80,-498 198.38,-508.93 228.54,-504.07 347,-514 420.88,-520.19 507.68,-530.31 551.19,-535.57"/>
<polygon fill="#9a32cd" stroke="#9a32cd" points="56.21,-491.81 45.84,-493.97 55.29,-498.75 56.21,-491.81"/>
<text text-anchor="middle" x="313.5" y="-539" font-family="Helvetica,sans-Serif" font-size="10.00"> contents</text>
<text text-anchor="middle" x="313.5" y="-528" font-family="Helvetica,sans-Serif" font-size="10.00">checkcount</text>
<text text-anchor="middle" x="313.5" y="-517" font-family="Helvetica,sans-Serif" font-size="10.00">surfaceFlags</text>
</g>
<!-- Node4 -->
<g id="node4" class="node">
<title>Node4</title>
<g id="a_node4"><a xlink:href="../../de/d85/structpatchCollide__s.html" target="_top" xlink:title=" ">
<polygon fill="none" stroke="black" points="365,-762.5 365,-781.5 453,-781.5 453,-762.5 365,-762.5"/>
<text text-anchor="middle" x="409" y="-769.5" font-family="Helvetica,sans-Serif" font-size="10.00">patchCollide_s</text>
</a>
</g>
</g>
<!-- Node3&#45;&gt;Node4 -->
<g id="edge5" class="edge">
<title>Node3&#45;&gt;Node4</title>
<path fill="none" stroke="#9a32cd" stroke-dasharray="5,2" d="M42.99,-510.28C51.87,-524.11 65.28,-543.04 80,-557 117.47,-592.54 130.87,-597.77 177,-621 212.92,-639.08 226.52,-633.08 262,-652 303.26,-674 311.09,-684.05 347,-714 366.08,-729.91 386.72,-750.27 398.43,-762.15"/>
<polygon fill="#9a32cd" stroke="#9a32cd" points="45.87,-508.27 37.61,-501.64 39.93,-511.98 45.87,-508.27"/>
<text text-anchor="middle" x="219.5" y="-666" font-family="Helvetica,sans-Serif" font-size="10.00"> numPlanes</text>
<text text-anchor="middle" x="219.5" y="-655" font-family="Helvetica,sans-Serif" font-size="10.00">numFacets</text>
</g>
<!-- Node6 -->
<g id="node6" class="node">
<title>Node6</title>
<g id="a_node6"><a xlink:href="../../da/d83/structpatchPlane__t.html" target="_top" xlink:title=" ">
<polygon fill="none" stroke="black" points="179.5,-683.5 179.5,-702.5 259.5,-702.5 259.5,-683.5 179.5,-683.5"/>
<text text-anchor="middle" x="219.5" y="-690.5" font-family="Helvetica,sans-Serif" font-size="10.00">patchPlane_t</text>
</a>
</g>
</g>
<!-- Node3&#45;&gt;Node6 -->
<g id="edge8" class="edge">
<title>Node3&#45;&gt;Node6</title>
<path fill="none" stroke="#9a32cd" stroke-dasharray="5,2" d="M31.97,-511.8C33.03,-545.96 40.28,-616.01 80,-655 87.23,-662.1 141.09,-675.49 179.46,-684.34"/>
<polygon fill="#9a32cd" stroke="#9a32cd" points="35.47,-511.64 31.81,-501.69 28.47,-511.75 35.47,-511.64"/>
<text text-anchor="middle" x="119.5" y="-682" font-family="Helvetica,sans-Serif" font-size="10.00"> signbits</text>
</g>
<!-- Node7 -->
<g id="node7" class="node">
<title>Node7</title>
<g id="a_node7"><a xlink:href="../../d8/d64/structfacet__t.html" target="_top" xlink:title=" ">
<polygon fill="none" stroke="black" points="194.5,-796.5 194.5,-815.5 244.5,-815.5 244.5,-796.5 194.5,-796.5"/>
<text text-anchor="middle" x="219.5" y="-803.5" font-family="Helvetica,sans-Serif" font-size="10.00">facet_t</text>
</a>
</g>
</g>
<!-- Node3&#45;&gt;Node7 -->
<g id="edge10" class="edge">
<title>Node3&#45;&gt;Node7</title>
<path fill="none" stroke="#9a32cd" stroke-dasharray="5,2" d="M33.92,-511.88C39.09,-562.23 54.72,-693.27 80,-728 87.88,-738.82 163.35,-778.03 199.45,-796.39"/>
<polygon fill="#9a32cd" stroke="#9a32cd" points="37.37,-511.27 32.9,-501.66 30.41,-511.96 37.37,-511.27"/>
<text text-anchor="middle" x="119.5" y="-810" font-family="Helvetica,sans-Serif" font-size="10.00"> borderPlanes</text>
<text text-anchor="middle" x="119.5" y="-799" font-family="Helvetica,sans-Serif" font-size="10.00">borderInward</text>
<text text-anchor="middle" x="119.5" y="-788" font-family="Helvetica,sans-Serif" font-size="10.00">surfacePlane</text>
<text text-anchor="middle" x="119.5" y="-777" font-family="Helvetica,sans-Serif" font-size="10.00">numBorders</text>
</g>
<!-- Node10 -->
<g id="node10" class="node">
<title>Node10</title>
<g id="a_node10"><a xlink:href="../../d6/dd6/structcbrush__t.html" target="_top" xlink:title=" ">
<polygon fill="none" stroke="black" points="380,-582.5 380,-601.5 438,-601.5 438,-582.5 380,-582.5"/>
<text text-anchor="middle" x="409" y="-589.5" font-family="Helvetica,sans-Serif" font-size="10.00">cbrush_t</text>
</a>
</g>
</g>
<!-- Node3&#45;&gt;Node10 -->
<g id="edge18" class="edge">
<title>Node3&#45;&gt;Node10</title>
<path fill="none" stroke="#9a32cd" stroke-dasharray="5,2" d="M48.89,-508.79C57.55,-516.56 68.65,-525.31 80,-531 154.58,-568.41 183.15,-549.74 262,-577 270.27,-579.86 271.49,-582.95 280,-585 313.64,-593.11 353.64,-593.95 379.86,-593.36"/>
<polygon fill="#9a32cd" stroke="#9a32cd" points="51.09,-506.05 41.4,-501.77 46.3,-511.16 51.09,-506.05"/>
<text text-anchor="middle" x="219.5" y="-613" font-family="Helvetica,sans-Serif" font-size="10.00"> contents</text>
<text text-anchor="middle" x="219.5" y="-602" font-family="Helvetica,sans-Serif" font-size="10.00">checkcount</text>
<text text-anchor="middle" x="219.5" y="-591" font-family="Helvetica,sans-Serif" font-size="10.00">numsides</text>
<text text-anchor="middle" x="219.5" y="-580" font-family="Helvetica,sans-Serif" font-size="10.00">shaderNum</text>
</g>
<!-- Node11 -->
<g id="node11" class="node">
<title>Node11</title>
<g id="a_node11"><a xlink:href="../../d7/de1/structcbrushside__t.html" target="_top" xlink:title=" ">
<polygon fill="none" stroke="black" points="180.5,-418.5 180.5,-437.5 258.5,-437.5 258.5,-418.5 180.5,-418.5"/>
<text text-anchor="middle" x="219.5" y="-425.5" font-family="Helvetica,sans-Serif" font-size="10.00">cbrushside_t</text>
</a>
</g>
</g>
<!-- Node3&#45;&gt;Node11 -->
<g id="edge16" class="edge">
<title>Node3&#45;&gt;Node11</title>
<path fill="none" stroke="#9a32cd" stroke-dasharray="5,2" d="M49.92,-475.54C58.46,-468.53 69.16,-460.86 80,-456 112.12,-441.6 151.75,-434.54 180.38,-431.13"/>
<polygon fill="#9a32cd" stroke="#9a32cd" points="47.47,-473.03 42.18,-482.21 52.04,-478.34 47.47,-473.03"/>
<text text-anchor="middle" x="119.5" y="-470" font-family="Helvetica,sans-Serif" font-size="10.00"> surfaceFlags</text>
<text text-anchor="middle" x="119.5" y="-459" font-family="Helvetica,sans-Serif" font-size="10.00">shaderNum</text>
</g>
<!-- Node14 -->
<g id="node14" class="node">
<title>Node14</title>
<g id="a_node14"><a xlink:href="../../dc/da5/structcArea__t.html" target="_top" xlink:title=" ">
<polygon fill="none" stroke="black" points="287,-326.5 287,-345.5 340,-345.5 340,-326.5 287,-326.5"/>
<text text-anchor="middle" x="313.5" y="-333.5" font-family="Helvetica,sans-Serif" font-size="10.00">cArea_t</text>
</a>
</g>
</g>
<!-- Node3&#45;&gt;Node14 -->
<g id="edge21" class="edge">
<title>Node3&#45;&gt;Node14</title>
<path fill="none" stroke="#9a32cd" stroke-dasharray="5,2" d="M33.89,-472.11C37.62,-444.97 48.53,-396.98 80,-373 112.38,-348.32 222.19,-360.52 262,-352 270.18,-350.25 278.93,-347.72 286.81,-345.19"/>
<polygon fill="#9a32cd" stroke="#9a32cd" points="30.38,-472 32.7,-482.33 37.33,-472.81 30.38,-472"/>
<text text-anchor="middle" x="119.5" y="-387" font-family="Helvetica,sans-Serif" font-size="10.00"> floodnum</text>
<text text-anchor="middle" x="119.5" y="-376" font-family="Helvetica,sans-Serif" font-size="10.00">floodvalid</text>
</g>
<!-- Node15 -->
<g id="node15" class="node">
<title>Node15</title>
<g id="a_node15"><a xlink:href="../../df/d40/structcLeaf__t.html" target="_top" xlink:title=" ">
<polygon fill="none" stroke="black" points="473,-276.5 473,-295.5 525,-295.5 525,-276.5 473,-276.5"/>
<text text-anchor="middle" x="499" y="-283.5" font-family="Helvetica,sans-Serif" font-size="10.00">cLeaf_t</text>
</a>
</g>
</g>
<!-- Node3&#45;&gt;Node15 -->
<g id="edge24" class="edge">
<title>Node3&#45;&gt;Node15</title>
<path fill="none" stroke="#9a32cd" stroke-dasharray="5,2" d="M34.89,-472.18C39.9,-443.33 52.44,-389.17 80,-352 111.66,-309.29 126.41,-298.35 177,-282 282.27,-247.98 417.28,-269.12 472.62,-280.34"/>
<polygon fill="#9a32cd" stroke="#9a32cd" points="31.4,-471.8 33.27,-482.23 38.32,-472.91 31.4,-471.8"/>
<text text-anchor="middle" x="219.5" y="-340" font-family="Helvetica,sans-Serif" font-size="10.00"> numLeafBrushes</text>
<text text-anchor="middle" x="219.5" y="-329" font-family="Helvetica,sans-Serif" font-size="10.00">numLeafSurfaces</text>
<text text-anchor="middle" x="219.5" y="-318" font-family="Helvetica,sans-Serif" font-size="10.00">firstLeafSurface</text>
<text text-anchor="middle" x="219.5" y="-307" font-family="Helvetica,sans-Serif" font-size="10.00">firstLeafBrush</text>
<text text-anchor="middle" x="219.5" y="-296" font-family="Helvetica,sans-Serif" font-size="10.00">cluster</text>
<text text-anchor="middle" x="219.5" y="-285" font-family="Helvetica,sans-Serif" font-size="10.00">area</text>
</g>
<!-- Node16 -->
<g id="node16" class="node">
<title>Node16</title>
<g id="a_node16"><a xlink:href="../../d3/def/structdshader__t.html" target="_top" xlink:title=" ">
<polygon fill="none" stroke="black" points="547.5,-453.5 547.5,-472.5 612.5,-472.5 612.5,-453.5 547.5,-453.5"/>
<text text-anchor="middle" x="580" y="-460.5" font-family="Helvetica,sans-Serif" font-size="10.00">dshader_t</text>
</a>
</g>
</g>
<!-- Node3&#45;&gt;Node16 -->
<g id="edge27" class="edge">
<title>Node3&#45;&gt;Node16</title>
<path fill="none" stroke="#9a32cd" stroke-dasharray="5,2" d="M55.72,-489.84C99.83,-485.9 197.52,-477.54 280,-473 377.24,-467.65 492.43,-464.77 547.12,-463.62"/>
<polygon fill="#9a32cd" stroke="#9a32cd" points="55.34,-486.36 45.7,-490.74 55.97,-493.33 55.34,-486.36"/>
<text text-anchor="middle" x="313.5" y="-487" font-family="Helvetica,sans-Serif" font-size="10.00"> contentFlags</text>
<text text-anchor="middle" x="313.5" y="-476" font-family="Helvetica,sans-Serif" font-size="10.00">surfaceFlags</text>
</g>
<!-- Node17 -->
<g id="node17" class="node">
<title>Node17</title>
<g id="a_node17"><a xlink:href="../../d2/d1c/structcNode__t.html" target="_top" xlink:title=" ">
<polygon fill="none" stroke="black" points="191.5,-226.5 191.5,-245.5 247.5,-245.5 247.5,-226.5 191.5,-226.5"/>
<text text-anchor="middle" x="219.5" y="-233.5" font-family="Helvetica,sans-Serif" font-size="10.00">cNode_t</text>
</a>
</g>
</g>
<!-- Node3&#45;&gt;Node17 -->
<g id="edge30" class="edge">
<title>Node3&#45;&gt;Node17</title>
<path fill="none" stroke="#9a32cd" stroke-dasharray="5,2" d="M33.2,-472.28C36.73,-421.22 48.85,-286.6 80,-257 109.71,-228.77 160.31,-228.61 191.43,-231.79"/>
<polygon fill="#9a32cd" stroke="#9a32cd" points="29.7,-472.14 32.54,-482.35 36.69,-472.6 29.7,-472.14"/>
<text text-anchor="middle" x="119.5" y="-260" font-family="Helvetica,sans-Serif" font-size="10.00"> children</text>
</g>
<!-- Node4&#45;&gt;Node2 -->
<g id="edge3" class="edge">
<title>Node4&#45;&gt;Node2</title>
<path fill="none" stroke="#9a32cd" stroke-dasharray="5,2" d="M419.72,-753.46C439.93,-715.87 489.3,-628.97 545,-567 551.13,-560.18 558.99,-553.6 565.6,-548.53"/>
<polygon fill="#9a32cd" stroke="#9a32cd" points="416.62,-751.83 415.01,-762.31 422.8,-755.12 416.62,-751.83"/>
<text text-anchor="middle" x="499" y="-666" font-family="Helvetica,sans-Serif" font-size="10.00"> pc</text>
</g>
<!-- Node5 -->
<g id="node5" class="node">
<title>Node5</title>
<g id="a_node5"><a xlink:title=" ">
<polygon fill="none" stroke="#bfbfbf" points="12,-728.5 12,-747.5 50,-747.5 50,-728.5 12,-728.5"/>
<text text-anchor="middle" x="31" y="-735.5" font-family="Helvetica,sans-Serif" font-size="10.00">float</text>
</a>
</g>
</g>
<!-- Node5&#45;&gt;Node4 -->
<g id="edge4" class="edge">
<title>Node5&#45;&gt;Node4</title>
<path fill="none" stroke="#9a32cd" stroke-dasharray="5,2" d="M33.98,-757.64C37.79,-783.87 48.78,-829.42 80,-850 186.28,-920.08 348.73,-814.78 395.19,-781.52"/>
<polygon fill="#9a32cd" stroke="#9a32cd" points="37.45,-757.2 32.74,-747.71 30.5,-758.06 37.45,-757.2"/>
<text text-anchor="middle" x="219.5" y="-875" font-family="Helvetica,sans-Serif" font-size="10.00"> bounds</text>
</g>
<!-- Node5&#45;&gt;Node6 -->
<g id="edge7" class="edge">
<title>Node5&#45;&gt;Node6</title>
<path fill="none" stroke="#9a32cd" stroke-dasharray="5,2" d="M56.22,-723.37C63.63,-719.45 71.95,-715.59 80,-713 112.49,-702.53 151.03,-697.53 179.2,-695.15"/>
<polygon fill="#9a32cd" stroke="#9a32cd" points="54.45,-720.35 47.41,-728.27 57.86,-726.47 54.45,-720.35"/>
<text text-anchor="middle" x="119.5" y="-716" font-family="Helvetica,sans-Serif" font-size="10.00"> plane</text>
</g>
<!-- Node5&#45;&gt;Node10 -->
<g id="edge14" class="edge">
<title>Node5&#45;&gt;Node10</title>
<path fill="none" stroke="#9a32cd" stroke-dasharray="5,2" d="M60.31,-739.86C105.06,-741.7 194.01,-740.9 262,-712 323.6,-685.81 379.74,-625.16 400,-601.6"/>
<polygon fill="#9a32cd" stroke="#9a32cd" points="60.34,-736.35 50.18,-739.36 60,-743.35 60.34,-736.35"/>
<text text-anchor="middle" x="219.5" y="-737" font-family="Helvetica,sans-Serif" font-size="10.00"> bounds</text>
</g>
<!-- Node6&#45;&gt;Node4 -->
<g id="edge6" class="edge">
<title>Node6&#45;&gt;Node4</title>
<path fill="none" stroke="#9a32cd" stroke-dasharray="5,2" d="M252.63,-706.54C290.42,-722.46 352.17,-748.48 385.3,-762.44"/>
<polygon fill="#9a32cd" stroke="#9a32cd" points="253.69,-703.19 243.12,-702.53 250.97,-709.64 253.69,-703.19"/>
<text text-anchor="middle" x="313.5" y="-747" font-family="Helvetica,sans-Serif" font-size="10.00"> planes</text>
</g>
<!-- Node7&#45;&gt;Node4 -->
<g id="edge9" class="edge">
<title>Node7&#45;&gt;Node4</title>
<path fill="none" stroke="#9a32cd" stroke-dasharray="5,2" d="M254.69,-800.26C280.17,-795.94 315.79,-789.78 347,-784 352.73,-782.94 358.76,-781.79 364.7,-780.64"/>
<polygon fill="#9a32cd" stroke="#9a32cd" points="254.06,-796.82 244.78,-801.94 255.22,-803.72 254.06,-796.82"/>
<text text-anchor="middle" x="313.5" y="-798" font-family="Helvetica,sans-Serif" font-size="10.00"> facets</text>
</g>
<!-- Node8 -->
<g id="node8" class="node">
<title>Node8</title>
<g id="a_node8"><a xlink:title=" ">
<polygon fill="none" stroke="#bfbfbf" points="0,-860.5 0,-879.5 62,-879.5 62,-860.5 0,-860.5"/>
<text text-anchor="middle" x="31" y="-867.5" font-family="Helvetica,sans-Serif" font-size="10.00">qboolean</text>
</a>
</g>
</g>
<!-- Node8&#45;&gt;Node1 -->
<g id="edge33" class="edge">
<title>Node8&#45;&gt;Node1</title>
<path fill="none" stroke="#9a32cd" stroke-dasharray="5,2" d="M72.1,-881.28C109.62,-890.84 167.41,-903 218.5,-903 218.5,-903 218.5,-903 581,-903 694.62,-903 723.6,-449.41 727.51,-376.76"/>
<polygon fill="#9a32cd" stroke="#9a32cd" points="72.64,-877.81 62.08,-878.67 70.87,-884.58 72.64,-877.81"/>
<text text-anchor="middle" x="409" y="-906" font-family="Helvetica,sans-Serif" font-size="10.00"> vised</text>
</g>
<!-- Node8&#45;&gt;Node7 -->
<g id="edge11" class="edge">
<title>Node8&#45;&gt;Node7</title>
<path fill="none" stroke="#9a32cd" stroke-dasharray="5,2" d="M69.41,-857.16C106.59,-844.4 162.52,-825.21 194.25,-814.32"/>
<polygon fill="#9a32cd" stroke="#9a32cd" points="68.24,-853.86 59.92,-860.42 70.52,-860.48 68.24,-853.86"/>
<text text-anchor="middle" x="119.5" y="-855" font-family="Helvetica,sans-Serif" font-size="10.00"> borderNoAdjust</text>
</g>
<!-- Node9 -->
<g id="node9" class="node">
<title>Node9</title>
<g id="a_node9"><a xlink:title=" ">
<polygon fill="none" stroke="#bfbfbf" points="556.5,-491.5 556.5,-510.5 603.5,-510.5 603.5,-491.5 556.5,-491.5"/>
<text text-anchor="middle" x="580" y="-498.5" font-family="Helvetica,sans-Serif" font-size="10.00">byte *</text>
</a>
</g>
</g>
<!-- Node9&#45;&gt;Node1 -->
<g id="edge12" class="edge">
<title>Node9&#45;&gt;Node1</title>
<path fill="none" stroke="#9a32cd" stroke-dasharray="5,2" d="M613.67,-495.03C634.42,-489.82 660.72,-480.43 679,-464 706.37,-439.41 720.47,-396 725.64,-376.71"/>
<polygon fill="#9a32cd" stroke="#9a32cd" points="612.65,-491.68 603.69,-497.33 614.22,-498.5 612.65,-491.68"/>
<text text-anchor="middle" x="656" y="-491" font-family="Helvetica,sans-Serif" font-size="10.00"> visibility</text>
</g>
<!-- Node10&#45;&gt;Node1 -->
<g id="edge13" class="edge">
<title>Node10&#45;&gt;Node1</title>
<path fill="none" stroke="#9a32cd" stroke-dasharray="5,2" d="M448.65,-597.06C506.8,-602.35 616.61,-602.87 679,-543 727.52,-496.45 729.28,-406.3 728.45,-376.68"/>
<polygon fill="#9a32cd" stroke="#9a32cd" points="448.72,-593.55 438.42,-596.04 448.02,-600.52 448.72,-593.55"/>
<text text-anchor="middle" x="580" y="-599" font-family="Helvetica,sans-Serif" font-size="10.00"> brushes</text>
</g>
<!-- Node11&#45;&gt;Node1 -->
<g id="edge22" class="edge">
<title>Node11&#45;&gt;Node1</title>
<path fill="none" stroke="#9a32cd" stroke-dasharray="5,2" d="M268.71,-419.77C296.77,-415.12 332.83,-409.38 365,-405 487.43,-388.33 633.97,-375.01 696.85,-369.61"/>
<polygon fill="#9a32cd" stroke="#9a32cd" points="268.05,-416.33 258.76,-421.43 269.2,-423.23 268.05,-416.33"/>
<text text-anchor="middle" x="499" y="-394" font-family="Helvetica,sans-Serif" font-size="10.00"> brushsides</text>
</g>
<!-- Node11&#45;&gt;Node10 -->
<g id="edge15" class="edge">
<title>Node11&#45;&gt;Node10</title>
<path fill="none" stroke="#9a32cd" stroke-dasharray="5,2" d="M224.78,-447.4C231.73,-474.43 248.05,-523.25 280,-551 283.89,-554.38 343.26,-572.59 379.76,-583.57"/>
<polygon fill="#9a32cd" stroke="#9a32cd" points="228.16,-446.48 222.42,-437.57 221.35,-448.11 228.16,-446.48"/>
<text text-anchor="middle" x="313.5" y="-576" font-family="Helvetica,sans-Serif" font-size="10.00"> sides</text>
</g>
<!-- Node12 -->
<g id="node12" class="node">
<title>Node12</title>
<g id="a_node12"><a xlink:title=" ">
<polygon fill="none" stroke="#bfbfbf" points="2,-71.5 2,-90.5 60,-90.5 60,-71.5 2,-71.5"/>
<text text-anchor="middle" x="31" y="-78.5" font-family="Helvetica,sans-Serif" font-size="10.00">cplane_t</text>
</a>
</g>
</g>
<!-- Node12&#45;&gt;Node1 -->
<g id="edge32" class="edge">
<title>Node12&#45;&gt;Node1</title>
<path fill="none" stroke="#9a32cd" stroke-dasharray="5,2" d="M70.13,-70.22C107.58,-60.59 166.5,-48 218.5,-48 218.5,-48 218.5,-48 581,-48 720.95,-48 728.12,-304.38 728.1,-357.45"/>
<polygon fill="#9a32cd" stroke="#9a32cd" points="68.94,-66.91 60.16,-72.84 70.72,-73.68 68.94,-66.91"/>
<text text-anchor="middle" x="409" y="-51" font-family="Helvetica,sans-Serif" font-size="10.00"> planes</text>
</g>
<!-- Node12&#45;&gt;Node11 -->
<g id="edge17" class="edge">
<title>Node12&#45;&gt;Node11</title>
<path fill="none" stroke="#9a32cd" stroke-dasharray="5,2" d="M32.14,-100.63C33.01,-163.08 39.03,-355.64 80,-399 86.92,-406.32 141.81,-416.16 180.37,-422.29"/>
<polygon fill="#9a32cd" stroke="#9a32cd" points="35.64,-100.51 32.03,-90.54 28.64,-100.58 35.64,-100.51"/>
<text text-anchor="middle" x="119.5" y="-421" font-family="Helvetica,sans-Serif" font-size="10.00"> plane</text>
</g>
<!-- Node12&#45;&gt;Node17 -->
<g id="edge31" class="edge">
<title>Node12&#45;&gt;Node17</title>
<path fill="none" stroke="#9a32cd" stroke-dasharray="5,2" d="M51.62,-97.3C90.38,-129.52 175.71,-200.43 206.84,-226.31"/>
<polygon fill="#9a32cd" stroke="#9a32cd" points="53.59,-94.4 43.67,-90.7 49.12,-99.78 53.59,-94.4"/>
<text text-anchor="middle" x="119.5" y="-188" font-family="Helvetica,sans-Serif" font-size="10.00"> plane</text>
</g>
<!-- Node13 -->
<g id="node13" class="node">
<title>Node13</title>
<g id="a_node13"><a xlink:title=" ">
<polygon fill="none" stroke="#bfbfbf" points="390,-414.5 390,-433.5 428,-433.5 428,-414.5 390,-414.5"/>
<text text-anchor="middle" x="409" y="-421.5" font-family="Helvetica,sans-Serif" font-size="10.00">char</text>
</a>
</g>
</g>
<!-- Node13&#45;&gt;Node1 -->
<g id="edge19" class="edge">
<title>Node13&#45;&gt;Node1</title>
<path fill="none" stroke="#9a32cd" stroke-dasharray="5,2" d="M438.28,-420.61C487.52,-414.46 592.08,-400.29 679,-381 684.79,-379.72 690.9,-378.14 696.77,-376.52"/>
<polygon fill="#9a32cd" stroke="#9a32cd" points="437.58,-417.17 428.08,-421.87 438.44,-424.12 437.58,-417.17"/>
<text text-anchor="middle" x="580" y="-419" font-family="Helvetica,sans-Serif" font-size="10.00"> entityString</text>
<text text-anchor="middle" x="580" y="-408" font-family="Helvetica,sans-Serif" font-size="10.00">name</text>
</g>
<!-- Node13&#45;&gt;Node16 -->
<g id="edge26" class="edge">
<title>Node13&#45;&gt;Node16</title>
<path fill="none" stroke="#9a32cd" stroke-dasharray="5,2" d="M438.48,-428.74C462.29,-432.91 497.05,-439.47 527,-447 534.51,-448.89 542.55,-451.21 550,-453.49"/>
<polygon fill="#9a32cd" stroke="#9a32cd" points="438.82,-425.25 428.37,-427 437.63,-432.15 438.82,-425.25"/>
<text text-anchor="middle" x="499" y="-450" font-family="Helvetica,sans-Serif" font-size="10.00"> shader</text>
</g>
<!-- Node14&#45;&gt;Node1 -->
<g id="edge20" class="edge">
<title>Node14&#45;&gt;Node1</title>
<path fill="none" stroke="#9a32cd" stroke-dasharray="5,2" d="M350.37,-335.41C382.09,-334.92 429.62,-334.26 471,-334 495.89,-333.84 502.16,-332.45 527,-334 594.95,-338.23 612.29,-339.39 679,-353 684.98,-354.22 691.3,-355.8 697.33,-357.46"/>
<polygon fill="#9a32cd" stroke="#9a32cd" points="350.2,-331.91 340.25,-335.57 350.31,-338.91 350.2,-331.91"/>
<text text-anchor="middle" x="499" y="-337" font-family="Helvetica,sans-Serif" font-size="10.00"> areas</text>
</g>
<!-- Node15&#45;&gt;Node1 -->
<g id="edge23" class="edge">
<title>Node15&#45;&gt;Node1</title>
<path fill="none" stroke="#9a32cd" stroke-dasharray="5,2" d="M535.55,-285.09C573.31,-285.59 633.68,-290.67 679,-315 697.8,-325.09 713.46,-345.1 721.71,-357.14"/>
<polygon fill="#9a32cd" stroke="#9a32cd" points="535.07,-281.59 525.06,-285.06 535.05,-288.59 535.07,-281.59"/>
<text text-anchor="middle" x="580" y="-295" font-family="Helvetica,sans-Serif" font-size="10.00"> leafs</text>
</g>
<!-- Node16&#45;&gt;Node1 -->
<g id="edge25" class="edge">
<title>Node16&#45;&gt;Node1</title>
<path fill="none" stroke="#9a32cd" stroke-dasharray="5,2" d="M622.26,-453.19C640.73,-447.5 662.11,-439.03 679,-427 698.28,-413.27 714.21,-390.06 722.28,-376.89"/>
<polygon fill="#9a32cd" stroke="#9a32cd" points="621.25,-449.84 612.63,-455.99 623.21,-456.56 621.25,-449.84"/>
<text text-anchor="middle" x="656" y="-452" font-family="Helvetica,sans-Serif" font-size="10.00"> shaders</text>
</g>
<!-- Node17&#45;&gt;Node1 -->
<g id="edge29" class="edge">
<title>Node17&#45;&gt;Node1</title>
<path fill="none" stroke="#9a32cd" stroke-dasharray="5,2" d="M257.64,-229.79C341.33,-217.9 547.6,-200.7 679,-293 702.58,-309.56 717.86,-341.41 724.38,-357.38"/>
<polygon fill="#9a32cd" stroke="#9a32cd" points="256.97,-226.35 247.59,-231.27 257.99,-233.27 256.97,-226.35"/>
<text text-anchor="middle" x="499" y="-234" font-family="Helvetica,sans-Serif" font-size="10.00"> nodes</text>
</g>
<!-- Node18 -->
<g id="node18" class="node">
<title>Node18</title>
<g id="a_node18"><a xlink:title=" ">
<polygon fill="none" stroke="#bfbfbf" points="545,-0.5 545,-19.5 615,-19.5 615,-0.5 545,-0.5"/>
<text text-anchor="middle" x="580" y="-7.5" font-family="Helvetica,sans-Serif" font-size="10.00">cmodel_t *</text>
</a>
</g>
</g>
<!-- Node18&#45;&gt;Node1 -->
<g id="edge34" class="edge">
<title>Node18&#45;&gt;Node1</title>
<path fill="none" stroke="#9a32cd" stroke-dasharray="5,2" d="M625.64,-4.86C644.49,-5.22 665.21,-9.34 679,-23 727.86,-71.39 728.56,-306.45 728.12,-357.29"/>
<polygon fill="#9a32cd" stroke="#9a32cd" points="625.37,-1.37 615.42,-5.02 625.48,-8.36 625.37,-1.37"/>
<text text-anchor="middle" x="656" y="-26" font-family="Helvetica,sans-Serif" font-size="10.00"> cmodels</text>
</g>
</g>
</svg>
        <g id="navigator" transform="translate(0 0)" fill="#404254">
                <rect fill="#f2f5e9" fill-opacity="0.5" stroke="#606060" stroke-width=".5" x="0" y="0" width="60" height="60"/>
                <use id="zoomplus" xlink:href="#zoomPlus" x="17" y="9" onmousedown="handleZoom(evt,'in')"/>
                <use id="zoomminus" xlink:href="#zoomMin" x="42" y="9" onmousedown="handleZoom(evt,'out')"/>
                <use id="reset" xlink:href="#resetDef" x="30" y="36" onmousedown="handleReset()"/>
                <g id="arrowUp" xlink:href="#dirArrow" transform="translate(30 24)" onmousedown="handlePan(0,-1)">
                  <use xlink:href="#rim" fill="#404040">
                        <set attributeName="fill" to="#808080" begin="arrowUp.mouseover" end="arrowUp.mouseout"/>
                  </use>
                  <path fill="none" stroke="white" stroke-width="1.5" d="M0,-3.0v7 M-2.5,-0.5L0,-3.0L2.5,-0.5"/>
                </g>
                <g id="arrowRight" xlink:href="#dirArrow" transform="rotate(90) translate(36 -43)" onmousedown="handlePan(1,0)">
                  <use xlink:href="#rim" fill="#404040">
                        <set attributeName="fill" to="#808080" begin="arrowRight.mouseover" end="arrowRight.mouseout"/>
                  </use>
                  <path fill="none" stroke="white" stroke-width="1.5" d="M0,-3.0v7 M-2.5,-0.5L0,-3.0L2.5,-0.5"/>
                </g>
                <g id="arrowDown" xlink:href="#dirArrow" transform="rotate(180) translate(-30 -48)" onmousedown="handlePan(0,1)">
                  <use xlink:href="#rim" fill="#404040">
                        <set attributeName="fill" to="#808080" begin="arrowDown.mouseover" end="arrowDown.mouseout"/>
                  </use>
                  <path fill="none" stroke="white" stroke-width="1.5" d="M0,-3.0v7 M-2.5,-0.5L0,-3.0L2.5,-0.5"/>
                </g>
                <g id="arrowLeft" xlink:href="#dirArrow" transform="rotate(270) translate(-36 17)" onmousedown="handlePan(-1,0)">
                  <use xlink:href="#rim" fill="#404040">
                        <set attributeName="fill" to="#808080" begin="arrowLeft.mouseover" end="arrowLeft.mouseout"/>
                  </use>
                  <path fill="none" stroke="white" stroke-width="1.5" d="M0,-3.0v7 M-2.5,-0.5L0,-3.0L2.5,-0.5"/>
                </g>
        </g>
        <svg viewBox="0 0 15 15" width="100%" height="30px" preserveAspectRatio="xMaxYMin meet">
         <g id="arrow_out" transform="scale(0.3 0.3)">
          <a xlink:href="structclipMap__t__coll__graph_org.svg" target="_base">
           <rect id="button" ry="5" rx="5" y="6" x="6" height="38" width="38"
                fill="#f2f5e9" fill-opacity="0.5" stroke="#606060" stroke-width="1.0"/>
           <path id="arrow"
             d="M 11.500037,31.436501 C 11.940474,20.09759 22.043105,11.32322 32.158766,21.979434 L 37.068811,17.246167 C 37.068811,17.246167 37.088388,32 37.088388,32 L 22.160133,31.978069 C 22.160133,31.978069 26.997745,27.140456 26.997745,27.140456 C 18.528582,18.264221 13.291696,25.230495 11.500037,31.436501 z"
             style="fill:#404040;"/>
          </a>
         </g>
        </svg>
</svg>
