<?xml version="1.0" encoding="UTF-8" standalone="no"?>
<!DOCTYPE svg PUBLIC "-//W3C//DTD SVG 1.1//EN"
 "http://www.w3.org/Graphics/SVG/1.1/DTD/svg11.dtd">
<!-- Generated by graphviz version 2.43.0 (0)
 -->
<!-- Title: _FILTERDBS Pages: 1 -->
<svg width="421pt" height="180pt"
 viewBox="0.00 0.00 421.00 180.00" xmlns="http://www.w3.org/2000/svg" xmlns:xlink="http://www.w3.org/1999/xlink">
<g id="graph0" class="graph" transform="scale(1 1) rotate(0) translate(4 176)">
<title>_FILTERDBS</title>
<!-- Node1 -->
<g id="node1" class="node">
<title>Node1</title>
<g id="a_node1"><a xlink:title=" ">
<polygon fill="#bfbfbf" stroke="black" points="339,-77.5 339,-96.5 413,-96.5 413,-77.5 339,-77.5"/>
<text text-anchor="middle" x="376" y="-84.5" font-family="Helvetica,sans-Serif" font-size="10.00">_FILTERDBS</text>
</a>
</g>
</g>
<!-- Node2 -->
<g id="node2" class="node">
<title>Node2</title>
<g id="a_node2"><a xlink:title=" ">
<polygon fill="none" stroke="#bfbfbf" points="10,-152.5 10,-171.5 188,-171.5 188,-152.5 10,-152.5"/>
<text text-anchor="middle" x="99" y="-159.5" font-family="Helvetica,sans-Serif" font-size="10.00">anonymous:DUMMYUNIONNAME</text>
</a>
</g>
</g>
<!-- Node2&#45;&gt;Node1 -->
<g id="edge1" class="edge">
<title>Node2&#45;&gt;Node1</title>
<path fill="none" stroke="#9a32cd" stroke-dasharray="5,2" d="M198.44,-162.56C237.98,-159.62 283.08,-152.12 321,-135 340.43,-126.23 357.87,-107.94 367.39,-96.64"/>
<polygon fill="#9a32cd" stroke="#9a32cd" points="198,-159.08 188.25,-163.22 198.46,-166.06 198,-159.08"/>
<text text-anchor="middle" x="268.5" y="-163" font-family="Helvetica,sans-Serif" font-size="10.00"> DUMMYUNIONNAME</text>
</g>
<!-- Node3 -->
<g id="node3" class="node">
<title>Node3</title>
<g id="a_node3"><a xlink:title=" ">
<polygon fill="none" stroke="#bfbfbf" points="46.5,-98.5 46.5,-117.5 151.5,-117.5 151.5,-98.5 46.5,-98.5"/>
<text text-anchor="middle" x="99" y="-105.5" font-family="Helvetica,sans-Serif" font-size="10.00">struct _X_FILTER *</text>
</a>
</g>
</g>
<!-- Node3&#45;&gt;Node1 -->
<g id="edge2" class="edge">
<title>Node3&#45;&gt;Node1</title>
<path fill="none" stroke="#9a32cd" stroke-dasharray="5,2" d="M161.96,-103.27C216.45,-99.11 293.9,-93.19 338.85,-89.76"/>
<polygon fill="#9a32cd" stroke="#9a32cd" points="161.43,-99.8 151.73,-104.05 161.96,-106.78 161.43,-99.8"/>
<text text-anchor="middle" x="268.5" y="-123" font-family="Helvetica,sans-Serif" font-size="10.00"> NullDB</text>
<text text-anchor="middle" x="268.5" y="-112" font-family="Helvetica,sans-Serif" font-size="10.00">TrDB</text>
<text text-anchor="middle" x="268.5" y="-101" font-family="Helvetica,sans-Serif" font-size="10.00">FddiDB</text>
</g>
<!-- Node4 -->
<g id="node4" class="node">
<title>Node4</title>
<g id="a_node4"><a xlink:title=" ">
<polygon fill="none" stroke="#bfbfbf" points="42.5,-60.5 42.5,-79.5 155.5,-79.5 155.5,-60.5 42.5,-60.5"/>
<text text-anchor="middle" x="99" y="-67.5" font-family="Helvetica,sans-Serif" font-size="10.00">struct ETH_FILTER *</text>
</a>
</g>
</g>
<!-- Node4&#45;&gt;Node1 -->
<g id="edge3" class="edge">
<title>Node4&#45;&gt;Node1</title>
<path fill="none" stroke="#9a32cd" stroke-dasharray="5,2" d="M165.7,-66.79C209.81,-65.63 269.14,-66.03 321,-73 328.39,-73.99 336.22,-75.66 343.56,-77.5"/>
<polygon fill="#9a32cd" stroke="#9a32cd" points="165.57,-63.29 155.67,-67.08 165.77,-70.29 165.57,-63.29"/>
<text text-anchor="middle" x="268.5" y="-76" font-family="Helvetica,sans-Serif" font-size="10.00"> EthDB</text>
</g>
<!-- Node5 -->
<g id="node5" class="node">
<title>Node5</title>
<g id="a_node5"><a xlink:title=" ">
<polygon fill="none" stroke="#bfbfbf" points="0,-0.5 0,-41.5 198,-41.5 198,-0.5 0,-0.5"/>
<text text-anchor="start" x="8" y="-29.5" font-family="Helvetica,sans-Serif" font-size="10.00">PSecurityUserData *typedef</text>
<text text-anchor="start" x="8" y="-18.5" font-family="Helvetica,sans-Serif" font-size="10.00"> PSECPKG_EXTENDED_INFORMATION</text>
<text text-anchor="middle" x="99" y="-7.5" font-family="Helvetica,sans-Serif" font-size="10.00"> *typedef</text>
</a>
</g>
</g>
<!-- Node5&#45;&gt;Node1 -->
<g id="edge4" class="edge">
<title>Node5&#45;&gt;Node1</title>
<path fill="none" stroke="#9a32cd" stroke-dasharray="5,2" d="M208.3,-25.87C244.96,-30.07 285.58,-37.61 321,-51 337.23,-57.14 353.48,-68.92 363.84,-77.33"/>
<polygon fill="#9a32cd" stroke="#9a32cd" points="208.38,-22.36 198.07,-24.77 207.63,-29.32 208.38,-22.36"/>
<text text-anchor="middle" x="268.5" y="-54" font-family="Helvetica,sans-Serif" font-size="10.00"> XXXDB</text>
</g>
</g>
</svg>
