<?xml version="1.0" encoding="UTF-8" standalone="no"?>
<!DOCTYPE svg PUBLIC "-//W3C//DTD SVG 1.1//EN"
 "http://www.w3.org/Graphics/SVG/1.1/DTD/svg11.dtd">
<!-- Generated by graphviz version 2.43.0 (0)
 -->
<!-- Title: _PRINTER_INFO_5A Pages: 1 -->
<svg width="247pt" height="117pt"
 viewBox="0.00 0.00 247.00 117.00" xmlns="http://www.w3.org/2000/svg" xmlns:xlink="http://www.w3.org/1999/xlink">
<g id="graph0" class="graph" transform="scale(1 1) rotate(0) translate(4 113)">
<title>_PRINTER_INFO_5A</title>
<!-- Node1 -->
<g id="node1" class="node">
<title>Node1</title>
<g id="a_node1"><a xlink:title=" ">
<polygon fill="#bfbfbf" stroke="black" points="10.5,-0.5 10.5,-19.5 121.5,-19.5 121.5,-0.5 10.5,-0.5"/>
<text text-anchor="middle" x="66" y="-7.5" font-family="Helvetica,sans-Serif" font-size="10.00">_PRINTER_INFO_5A</text>
</a>
</g>
</g>
<!-- Node2 -->
<g id="node2" class="node">
<title>Node2</title>
<g id="a_node2"><a xlink:title=" ">
<polygon fill="none" stroke="#bfbfbf" points="0,-89.5 0,-108.5 38,-108.5 38,-89.5 0,-89.5"/>
<text text-anchor="middle" x="19" y="-96.5" font-family="Helvetica,sans-Serif" font-size="10.00">char</text>
</a>
</g>
</g>
<!-- Node2&#45;&gt;Node1 -->
<g id="edge1" class="edge">
<title>Node2&#45;&gt;Node1</title>
<path fill="none" stroke="#9a32cd" stroke-dasharray="5,2" d="M14.76,-78.95C13.02,-66.47 12.84,-50.26 20,-38 24.76,-29.84 33.03,-23.9 41.26,-19.7"/>
<polygon fill="#9a32cd" stroke="#9a32cd" points="11.38,-79.94 16.62,-89.14 18.26,-78.68 11.38,-79.94"/>
<text text-anchor="middle" x="55.5" y="-57.5" font-family="Helvetica,sans-Serif" font-size="10.00"> pPrinterName</text>
<text text-anchor="middle" x="55.5" y="-46.5" font-family="Helvetica,sans-Serif" font-size="10.00">pPortName</text>
</g>
<!-- Node3 -->
<g id="node3" class="node">
<title>Node3</title>
<g id="a_node3"><a xlink:title=" ">
<polygon fill="none" stroke="#bfbfbf" points="82.5,-89.5 82.5,-108.5 143.5,-108.5 143.5,-89.5 82.5,-89.5"/>
<text text-anchor="middle" x="113" y="-96.5" font-family="Helvetica,sans-Serif" font-size="10.00">unsigned</text>
</a>
</g>
</g>
<!-- Node3&#45;&gt;Node1 -->
<g id="edge2" class="edge">
<title>Node3&#45;&gt;Node1</title>
<path fill="none" stroke="#9a32cd" stroke-dasharray="5,2" d="M108.24,-79.37C104.62,-67.07 98.89,-50.9 91,-38 86.86,-31.24 80.87,-24.7 75.79,-19.74"/>
<polygon fill="#9a32cd" stroke="#9a32cd" points="104.97,-80.66 110.99,-89.38 111.72,-78.81 104.97,-80.66"/>
<text text-anchor="middle" x="172" y="-63" font-family="Helvetica,sans-Serif" font-size="10.00"> TransmissionRetryTimeout</text>
<text text-anchor="middle" x="172" y="-52" font-family="Helvetica,sans-Serif" font-size="10.00">DeviceNotSelectedTimeout</text>
<text text-anchor="middle" x="172" y="-41" font-family="Helvetica,sans-Serif" font-size="10.00">Attributes</text>
</g>
</g>
</svg>
