<?xml version="1.0" encoding="UTF-8" standalone="no"?>
<!DOCTYPE svg PUBLIC "-//W3C//DTD SVG 1.1//EN"
 "http://www.w3.org/Graphics/SVG/1.1/DTD/svg11.dtd">
<!-- Generated by graphviz version 2.43.0 (0)
 -->
<!-- Title: tokenrow Pages: 1 -->
<svg width="108pt" height="117pt"
 viewBox="0.00 0.00 108.00 117.00" xmlns="http://www.w3.org/2000/svg" xmlns:xlink="http://www.w3.org/1999/xlink">
<g id="graph0" class="graph" transform="scale(1 1) rotate(0) translate(4 113)">
<title>tokenrow</title>
<!-- Node1 -->
<g id="node1" class="node">
<title>Node1</title>
<g id="a_node1"><a xlink:title=" ">
<polygon fill="#bfbfbf" stroke="black" points="12.5,-0.5 12.5,-19.5 74.5,-19.5 74.5,-0.5 12.5,-0.5"/>
<text text-anchor="middle" x="43.5" y="-7.5" font-family="Helvetica,sans-Serif" font-size="10.00">tokenrow</text>
</a>
</g>
</g>
<!-- Node2 -->
<g id="node2" class="node">
<title>Node2</title>
<g id="a_node2"><a xlink:title=" ">
<polygon fill="none" stroke="#bfbfbf" points="0,-89.5 0,-108.5 29,-108.5 29,-89.5 0,-89.5"/>
<text text-anchor="middle" x="14.5" y="-96.5" font-family="Helvetica,sans-Serif" font-size="10.00">int</text>
</a>
</g>
</g>
<!-- Node2&#45;&gt;Node1 -->
<g id="edge1" class="edge">
<title>Node2&#45;&gt;Node1</title>
<path fill="none" stroke="#9a32cd" stroke-dasharray="5,2" d="M16.51,-78.95C18.21,-66.89 21.25,-51.16 26.5,-38 29.13,-31.41 33.38,-24.66 36.97,-19.56"/>
<polygon fill="#9a32cd" stroke="#9a32cd" points="13,-78.82 15.25,-89.17 19.95,-79.67 13,-78.82"/>
<text text-anchor="middle" x="39" y="-52" font-family="Helvetica,sans-Serif" font-size="10.00"> max</text>
</g>
<!-- Node3 -->
<g id="node3" class="node">
<title>Node3</title>
<g id="a_node3"><a xlink:title=" ">
<polygon fill="none" stroke="#bfbfbf" points="47,-89.5 47,-108.5 100,-108.5 100,-89.5 47,-89.5"/>
<text text-anchor="middle" x="73.5" y="-96.5" font-family="Helvetica,sans-Serif" font-size="10.00">Token *</text>
</a>
</g>
</g>
<!-- Node3&#45;&gt;Node1 -->
<g id="edge2" class="edge">
<title>Node3&#45;&gt;Node1</title>
<path fill="none" stroke="#9a32cd" stroke-dasharray="5,2" d="M67.19,-79.71C60.83,-61.25 51.27,-33.54 46.47,-19.62"/>
<polygon fill="#9a32cd" stroke="#9a32cd" points="63.95,-81.03 70.51,-89.34 70.56,-78.75 63.95,-81.03"/>
<text text-anchor="middle" x="70" y="-63" font-family="Helvetica,sans-Serif" font-size="10.00"> lp</text>
<text text-anchor="middle" x="70" y="-52" font-family="Helvetica,sans-Serif" font-size="10.00">tp</text>
<text text-anchor="middle" x="70" y="-41" font-family="Helvetica,sans-Serif" font-size="10.00">bp</text>
</g>
</g>
</svg>
