<?xml version="1.0" encoding="UTF-8" standalone="no"?>
<!DOCTYPE svg PUBLIC "-//W3C//DTD SVG 1.1//EN"
 "http://www.w3.org/Graphics/SVG/1.1/DTD/svg11.dtd">
<!-- Generated by graphviz version 2.43.0 (0)
 -->
<!-- Title: Game/Game/g_weapPhysParser.h Pages: 1 -->
<svg width="610pt" height="84pt"
 viewBox="0.00 0.00 610.00 84.00" xmlns="http://www.w3.org/2000/svg" xmlns:xlink="http://www.w3.org/1999/xlink">
<g id="graph0" class="graph" transform="scale(1 1) rotate(0) translate(4 80)">
<title>Game/Game/g_weapPhysParser.h</title>
<!-- Node1 -->
<g id="node1" class="node">
<title>Node1</title>
<g id="a_node1"><a xlink:title=" ">
<polygon fill="#bfbfbf" stroke="black" points="216,-56.5 216,-75.5 396,-75.5 396,-56.5 216,-56.5"/>
<text text-anchor="middle" x="306" y="-63.5" font-family="Helvetica,sans-Serif" font-size="10.00">Game/Game/g_weapPhysParser.h</text>
</a>
</g>
</g>
<!-- Node2 -->
<g id="node2" class="node">
<title>Node2</title>
<g id="a_node2"><a xlink:href="../../dc/da6/Game_2Game_2g__weapPhysAttributes_8c.html" target="_top" xlink:title=" ">
<polygon fill="none" stroke="black" points="0,-0.5 0,-19.5 198,-19.5 198,-0.5 0,-0.5"/>
<text text-anchor="middle" x="99" y="-7.5" font-family="Helvetica,sans-Serif" font-size="10.00">Game/Game/g_weapPhysAttributes.c</text>
</a>
</g>
</g>
<!-- Node1&#45;&gt;Node2 -->
<g id="edge1" class="edge">
<title>Node1&#45;&gt;Node2</title>
<path fill="none" stroke="midnightblue" d="M263.18,-53.83C224.09,-43.63 167.17,-28.78 131.65,-19.52"/>
<polygon fill="midnightblue" stroke="midnightblue" points="262.64,-57.31 273.2,-56.44 264.41,-50.53 262.64,-57.31"/>
</g>
<!-- Node3 -->
<g id="node3" class="node">
<title>Node3</title>
<g id="a_node3"><a xlink:href="../../da/d71/Game_2Game_2g__weapPhysParser_8c.html" target="_top" xlink:title=" ">
<polygon fill="none" stroke="black" points="216.5,-0.5 216.5,-19.5 395.5,-19.5 395.5,-0.5 216.5,-0.5"/>
<text text-anchor="middle" x="306" y="-7.5" font-family="Helvetica,sans-Serif" font-size="10.00">Game/Game/g_weapPhysParser.c</text>
</a>
</g>
</g>
<!-- Node1&#45;&gt;Node3 -->
<g id="edge2" class="edge">
<title>Node1&#45;&gt;Node3</title>
<path fill="none" stroke="midnightblue" d="M306,-45.8C306,-36.91 306,-26.78 306,-19.75"/>
<polygon fill="midnightblue" stroke="midnightblue" points="302.5,-46.08 306,-56.08 309.5,-46.08 302.5,-46.08"/>
</g>
<!-- Node4 -->
<g id="node4" class="node">
<title>Node4</title>
<g id="a_node4"><a xlink:href="../../d6/d61/Game_2Game_2g__weapPhysScanner_8c.html" target="_top" xlink:title=" ">
<polygon fill="none" stroke="black" points="414,-0.5 414,-19.5 602,-19.5 602,-0.5 414,-0.5"/>
<text text-anchor="middle" x="508" y="-7.5" font-family="Helvetica,sans-Serif" font-size="10.00">Game/Game/g_weapPhysScanner.c</text>
</a>
</g>
</g>
<!-- Node1&#45;&gt;Node4 -->
<g id="edge3" class="edge">
<title>Node1&#45;&gt;Node4</title>
<path fill="none" stroke="midnightblue" d="M347.79,-53.83C385.93,-43.63 441.48,-28.78 476.14,-19.52"/>
<polygon fill="midnightblue" stroke="midnightblue" points="346.76,-50.48 338.01,-56.44 348.57,-57.24 346.76,-50.48"/>
</g>
</g>
</svg>
