<?xml version="1.0" encoding="UTF-8" standalone="no"?>
<!DOCTYPE svg PUBLIC "-//W3C//DTD SVG 1.1//EN"
 "http://www.w3.org/Graphics/SVG/1.1/DTD/svg11.dtd">
<!-- Generated by graphviz version 2.43.0 (0)
 -->
<!-- Title: vm_t Pages: 1 -->
<!--zoomable 296 -->
<svg id="main" version="1.1" xmlns="http://www.w3.org/2000/svg" xmlns:xlink="http://www.w3.org/1999/xlink" xml:space="preserve" onload="init(evt)">
<style type="text/css"><![CDATA[
.edge:hover path { stroke: red; }
.edge:hover polygon { stroke: red; fill: red; }
]]></style>
<script type="text/javascript"><![CDATA[
var edges = document.getElementsByTagName('g');
if (edges && edges.length) {
  for (var i=0;i<edges.length;i++) {
    if (edges[i].id.substr(0,4)=='edge') {
      edges[i].setAttribute('class','edge');
    }
  }
}
]]></script>
        <defs>
                <circle id="rim" cx="0" cy="0" r="7"/>
                <circle id="rim2" cx="0" cy="0" r="3.5"/>
                <g id="zoomPlus">
                        <use xlink:href="#rim" fill="#404040">
                                <set attributeName="fill" to="#808080" begin="zoomplus.mouseover" end="zoomplus.mouseout"/>
                        </use>
                        <path d="M-4,0h8M0,-4v8" fill="none" stroke="white" stroke-width="1.5" pointer-events="none"/>
                </g>
                <g id="zoomMin">
                        <use xlink:href="#rim" fill="#404040">
                                <set attributeName="fill" to="#808080" begin="zoomminus.mouseover" end="zoomminus.mouseout"/>
                        </use>
                        <path d="M-4,0h8" fill="none" stroke="white" stroke-width="1.5" pointer-events="none"/>
                </g>
                <g id="dirArrow">
                        <path fill="none" stroke="white" stroke-width="1.5" d="M0,-3.0v7 M-2.5,-0.5L0,-3.0L2.5,-0.5"/>
                </g>
               <g id="resetDef">
                       <use xlink:href="#rim2" fill="#404040">
                               <set attributeName="fill" to="#808080" begin="reset.mouseover" end="reset.mouseout"/>
                       </use>
               </g>
        </defs>

<script type="text/javascript">
var viewWidth = 836;
var viewHeight = 296;
var sectionId = 'dynsection-0';
</script>
<script xlink:href="../../svgpan.js"/>
<svg id="graph" class="graph">
<g id="viewport">
<title>vm_t</title>
<!-- Node1 -->
<g id="node1" class="node">
<title>Node1</title>
<g id="a_node1"><a xlink:title=" ">
<polygon fill="#bfbfbf" stroke="black" points="347,-0.5 347,-19.5 388,-19.5 388,-0.5 347,-0.5"/>
<text text-anchor="middle" x="367.5" y="-7.5" font-family="Helvetica,sans-Serif" font-size="10.00">vm_t</text>
</a>
</g>
</g>
<!-- Node2 -->
<g id="node2" class="node">
<title>Node2</title>
<g id="a_node2"><a xlink:title=" ">
<polygon fill="none" stroke="#bfbfbf" points="0,-140 0,-159 47,-159 47,-140 0,-140"/>
<text text-anchor="middle" x="23.5" y="-147" font-family="Helvetica,sans-Serif" font-size="10.00">byte *</text>
</a>
</g>
</g>
<!-- Node2&#45;&gt;Node1 -->
<g id="edge1" class="edge">
<title>Node2&#45;&gt;Node1</title>
<path fill="none" stroke="#9a32cd" stroke-dasharray="5,2" d="M18.18,-129.95C12.37,-105.32 6.77,-62.13 30.5,-38 52.67,-15.45 276.32,-11.73 346.53,-11.12"/>
<polygon fill="#9a32cd" stroke="#9a32cd" points="14.84,-131.04 20.76,-139.83 21.62,-129.27 14.84,-131.04"/>
<text text-anchor="middle" x="73.5" y="-63" font-family="Helvetica,sans-Serif" font-size="10.00"> dataBase</text>
<text text-anchor="middle" x="73.5" y="-52" font-family="Helvetica,sans-Serif" font-size="10.00">codeBase</text>
<text text-anchor="middle" x="73.5" y="-41" font-family="Helvetica,sans-Serif" font-size="10.00">jumpTableTargets</text>
</g>
<!-- Node3 -->
<g id="node3" class="node">
<title>Node3</title>
<g id="a_node3"><a xlink:title=" ">
<polygon fill="none" stroke="#bfbfbf" points="113.5,-140 113.5,-159 151.5,-159 151.5,-140 113.5,-140"/>
<text text-anchor="middle" x="132.5" y="-147" font-family="Helvetica,sans-Serif" font-size="10.00">void</text>
</a>
</g>
</g>
<!-- Node3&#45;&gt;Node1 -->
<g id="edge2" class="edge">
<title>Node3&#45;&gt;Node1</title>
<path fill="none" stroke="#9a32cd" stroke-dasharray="5,2" d="M126.12,-130.24C118.92,-105.94 110.92,-63.11 133.5,-38 147.65,-22.27 291.91,-14.32 346.62,-11.86"/>
<polygon fill="#9a32cd" stroke="#9a32cd" points="122.86,-131.53 129.26,-139.98 129.52,-129.38 122.86,-131.53"/>
<text text-anchor="middle" x="162" y="-63" font-family="Helvetica,sans-Serif" font-size="10.00"> searchPath</text>
<text text-anchor="middle" x="162" y="-52" font-family="Helvetica,sans-Serif" font-size="10.00">destroy</text>
<text text-anchor="middle" x="162" y="-41" font-family="Helvetica,sans-Serif" font-size="10.00">dllHandle</text>
</g>
<!-- Node4 -->
<g id="node4" class="node">
<title>Node4</title>
<g id="a_node4"><a xlink:title=" ">
<polygon fill="none" stroke="#bfbfbf" points="213.5,-268.5 213.5,-287.5 251.5,-287.5 251.5,-268.5 213.5,-268.5"/>
<text text-anchor="middle" x="232.5" y="-275.5" font-family="Helvetica,sans-Serif" font-size="10.00">char</text>
</a>
</g>
</g>
<!-- Node4&#45;&gt;Node1 -->
<g id="edge3" class="edge">
<title>Node4&#45;&gt;Node1</title>
<path fill="none" stroke="#9a32cd" stroke-dasharray="5,2" d="M223.82,-258.77C208.25,-223.18 180.19,-143.21 213.5,-89 243,-40.99 312.22,-21.43 346.92,-14.43"/>
<polygon fill="#9a32cd" stroke="#9a32cd" points="220.83,-260.66 228.17,-268.31 227.21,-257.76 220.83,-260.66"/>
<text text-anchor="middle" x="229" y="-147" font-family="Helvetica,sans-Serif" font-size="10.00"> name</text>
</g>
<!-- Node8 -->
<g id="node8" class="node">
<title>Node8</title>
<g id="a_node8"><a xlink:href="../../d4/db3/structvmSymbol__s.html" target="_top" xlink:title=" ">
<polygon fill="none" stroke="black" points="253.5,-140 253.5,-159 333.5,-159 333.5,-140 253.5,-140"/>
<text text-anchor="middle" x="293.5" y="-147" font-family="Helvetica,sans-Serif" font-size="10.00">vmSymbol_s</text>
</a>
</g>
</g>
<!-- Node4&#45;&gt;Node8 -->
<g id="edge8" class="edge">
<title>Node4&#45;&gt;Node8</title>
<path fill="none" stroke="#9a32cd" stroke-dasharray="5,2" d="M240.88,-258.96C245.21,-249.69 250.6,-238.22 255.5,-228 267.56,-202.87 282.15,-173.35 289.23,-159.08"/>
<polygon fill="#9a32cd" stroke="#9a32cd" points="237.58,-257.76 236.53,-268.3 243.92,-260.72 237.58,-257.76"/>
<text text-anchor="middle" x="282.5" y="-236.5" font-family="Helvetica,sans-Serif" font-size="10.00"> symName</text>
</g>
<!-- Node5 -->
<g id="node5" class="node">
<title>Node5</title>
<g id="a_node5"><a xlink:title=" ">
<polygon fill="none" stroke="#bfbfbf" points="357,-268.5 357,-287.5 386,-287.5 386,-268.5 357,-268.5"/>
<text text-anchor="middle" x="371.5" y="-275.5" font-family="Helvetica,sans-Serif" font-size="10.00">int</text>
</a>
</g>
</g>
<!-- Node5&#45;&gt;Node1 -->
<g id="edge4" class="edge">
<title>Node5&#45;&gt;Node1</title>
<path fill="none" stroke="#9a32cd" stroke-dasharray="5,2" d="M391.07,-261.37C394.1,-257.97 396.79,-254.13 398.5,-250 416.53,-206.48 418.02,-80.88 398.5,-38 395.07,-30.46 388.38,-24.21 382.1,-19.63"/>
<polygon fill="#9a32cd" stroke="#9a32cd" points="388.48,-259.01 383.69,-268.46 393.32,-264.06 388.48,-259.01"/>
<text text-anchor="middle" x="466.5" y="-202" font-family="Helvetica,sans-Serif" font-size="10.00"> programStack</text>
<text text-anchor="middle" x="466.5" y="-191" font-family="Helvetica,sans-Serif" font-size="10.00">breakCount</text>
<text text-anchor="middle" x="466.5" y="-180" font-family="Helvetica,sans-Serif" font-size="10.00">instructionCount</text>
<text text-anchor="middle" x="466.5" y="-169" font-family="Helvetica,sans-Serif" font-size="10.00">numJumpTableTargets</text>
<text text-anchor="middle" x="466.5" y="-158" font-family="Helvetica,sans-Serif" font-size="10.00">stackBottom</text>
<text text-anchor="middle" x="466.5" y="-147" font-family="Helvetica,sans-Serif" font-size="10.00">dataMask</text>
<text text-anchor="middle" x="466.5" y="-136" font-family="Helvetica,sans-Serif" font-size="10.00">callLevel</text>
<text text-anchor="middle" x="466.5" y="-125" font-family="Helvetica,sans-Serif" font-size="10.00">codeLength</text>
<text text-anchor="middle" x="466.5" y="-114" font-family="Helvetica,sans-Serif" font-size="10.00">entryOfs</text>
<text text-anchor="middle" x="466.5" y="-103" font-family="Helvetica,sans-Serif" font-size="10.00">numSymbols</text>
<text text-anchor="middle" x="466.5" y="-92" font-family="Helvetica,sans-Serif" font-size="10.00">...</text>
</g>
<!-- Node5&#45;&gt;Node8 -->
<g id="edge9" class="edge">
<title>Node5&#45;&gt;Node8</title>
<path fill="none" stroke="#9a32cd" stroke-dasharray="5,2" d="M350.3,-262.1C346.04,-258.47 341.85,-254.36 338.5,-250 315.75,-220.38 301.37,-177.42 295.94,-159.2"/>
<polygon fill="#9a32cd" stroke="#9a32cd" points="348.34,-265.01 358.36,-268.44 352.66,-259.51 348.34,-265.01"/>
<text text-anchor="middle" x="368.5" y="-242" font-family="Helvetica,sans-Serif" font-size="10.00"> symValue</text>
<text text-anchor="middle" x="368.5" y="-231" font-family="Helvetica,sans-Serif" font-size="10.00">profileCount</text>
</g>
<!-- Node6 -->
<g id="node6" class="node">
<title>Node6</title>
<g id="a_node6"><a xlink:title=" ">
<polygon fill="none" stroke="#bfbfbf" points="538.5,-140 538.5,-159 598.5,-159 598.5,-140 538.5,-140"/>
<text text-anchor="middle" x="568.5" y="-147" font-family="Helvetica,sans-Serif" font-size="10.00">intptr_t *</text>
</a>
</g>
</g>
<!-- Node6&#45;&gt;Node1 -->
<g id="edge5" class="edge">
<title>Node6&#45;&gt;Node1</title>
<path fill="none" stroke="#9a32cd" stroke-dasharray="5,2" d="M558.59,-131.05C550.64,-118.21 538.51,-100.97 524.5,-89 482.15,-52.82 420.12,-28.51 388.19,-17.59"/>
<polygon fill="#9a32cd" stroke="#9a32cd" points="555.7,-133.04 563.82,-139.85 561.72,-129.47 555.7,-133.04"/>
<text text-anchor="middle" x="545" y="-52" font-family="Helvetica,sans-Serif" font-size="10.00"> instructionPointers</text>
</g>
<!-- Node7 -->
<g id="node7" class="node">
<title>Node7</title>
<g id="a_node7"><a xlink:title=" ">
<polygon fill="none" stroke="#bfbfbf" points="617,-134.5 617,-164.5 712,-164.5 712,-134.5 617,-134.5"/>
<text text-anchor="start" x="625" y="-152.5" font-family="Helvetica,sans-Serif" font-size="10.00">intptr_t(*)(intptr</text>
<text text-anchor="middle" x="664.5" y="-141.5" font-family="Helvetica,sans-Serif" font-size="10.00">_t *parms)</text>
</a>
</g>
</g>
<!-- Node7&#45;&gt;Node1 -->
<g id="edge6" class="edge">
<title>Node7&#45;&gt;Node1</title>
<path fill="none" stroke="#9a32cd" stroke-dasharray="5,2" d="M657.03,-124.99C647.45,-99.03 628.18,-58.23 596.5,-38 562.17,-16.08 437.71,-11.95 388.11,-11.18"/>
<polygon fill="#9a32cd" stroke="#9a32cd" points="653.74,-126.18 660.34,-134.46 660.34,-123.87 653.74,-126.18"/>
<text text-anchor="middle" x="657.5" y="-52" font-family="Helvetica,sans-Serif" font-size="10.00"> systemCall</text>
</g>
<!-- Node8&#45;&gt;Node1 -->
<g id="edge7" class="edge">
<title>Node8&#45;&gt;Node1</title>
<path fill="none" stroke="#9a32cd" stroke-dasharray="5,2" d="M302.9,-131.04C318.91,-101.28 350.93,-41.78 362.87,-19.6"/>
<polygon fill="#9a32cd" stroke="#9a32cd" points="299.79,-129.43 298.13,-139.9 305.95,-132.75 299.79,-129.43"/>
<text text-anchor="middle" x="374" y="-52" font-family="Helvetica,sans-Serif" font-size="10.00"> symbols</text>
</g>
<!-- Node8&#45;&gt;Node8 -->
<g id="edge10" class="edge">
<title>Node8&#45;&gt;Node8</title>
<path fill="none" stroke="#9a32cd" stroke-dasharray="5,2" d="M314.41,-163.31C332.45,-169.54 351.5,-164.94 351.5,-149.5 351.5,-131.37 325.23,-128.18 305.17,-139.94"/>
<polygon fill="#9a32cd" stroke="#9a32cd" points="315.72,-160.06 305.17,-159.06 312.8,-166.42 315.72,-160.06"/>
<text text-anchor="middle" x="364" y="-147" font-family="Helvetica,sans-Serif" font-size="10.00"> next</text>
</g>
<!-- Node9 -->
<g id="node9" class="node">
<title>Node9</title>
<g id="a_node9"><a xlink:title=" ">
<polygon fill="none" stroke="#bfbfbf" points="730.5,-140 730.5,-159 792.5,-159 792.5,-140 730.5,-140"/>
<text text-anchor="middle" x="761.5" y="-147" font-family="Helvetica,sans-Serif" font-size="10.00">qboolean</text>
</a>
</g>
</g>
<!-- Node9&#45;&gt;Node1 -->
<g id="edge11" class="edge">
<title>Node9&#45;&gt;Node1</title>
<path fill="none" stroke="#9a32cd" stroke-dasharray="5,2" d="M755.65,-130.39C746.34,-104.87 725.55,-59.08 690.5,-38 664.64,-22.45 455.35,-14 388.17,-11.67"/>
<polygon fill="#9a32cd" stroke="#9a32cd" points="752.37,-131.64 758.94,-139.96 758.99,-129.36 752.37,-131.64"/>
<text text-anchor="middle" x="775.5" y="-57.5" font-family="Helvetica,sans-Serif" font-size="10.00"> currentlyInterpreting</text>
<text text-anchor="middle" x="775.5" y="-46.5" font-family="Helvetica,sans-Serif" font-size="10.00">compiled</text>
</g>
</g>
</svg>
        <g id="navigator" transform="translate(0 0)" fill="#404254">
                <rect fill="#f2f5e9" fill-opacity="0.5" stroke="#606060" stroke-width=".5" x="0" y="0" width="60" height="60"/>
                <use id="zoomplus" xlink:href="#zoomPlus" x="17" y="9" onmousedown="handleZoom(evt,'in')"/>
                <use id="zoomminus" xlink:href="#zoomMin" x="42" y="9" onmousedown="handleZoom(evt,'out')"/>
                <use id="reset" xlink:href="#resetDef" x="30" y="36" onmousedown="handleReset()"/>
                <g id="arrowUp" xlink:href="#dirArrow" transform="translate(30 24)" onmousedown="handlePan(0,-1)">
                  <use xlink:href="#rim" fill="#404040">
                        <set attributeName="fill" to="#808080" begin="arrowUp.mouseover" end="arrowUp.mouseout"/>
                  </use>
                  <path fill="none" stroke="white" stroke-width="1.5" d="M0,-3.0v7 M-2.5,-0.5L0,-3.0L2.5,-0.5"/>
                </g>
                <g id="arrowRight" xlink:href="#dirArrow" transform="rotate(90) translate(36 -43)" onmousedown="handlePan(1,0)">
                  <use xlink:href="#rim" fill="#404040">
                        <set attributeName="fill" to="#808080" begin="arrowRight.mouseover" end="arrowRight.mouseout"/>
                  </use>
                  <path fill="none" stroke="white" stroke-width="1.5" d="M0,-3.0v7 M-2.5,-0.5L0,-3.0L2.5,-0.5"/>
                </g>
                <g id="arrowDown" xlink:href="#dirArrow" transform="rotate(180) translate(-30 -48)" onmousedown="handlePan(0,1)">
                  <use xlink:href="#rim" fill="#404040">
                        <set attributeName="fill" to="#808080" begin="arrowDown.mouseover" end="arrowDown.mouseout"/>
                  </use>
                  <path fill="none" stroke="white" stroke-width="1.5" d="M0,-3.0v7 M-2.5,-0.5L0,-3.0L2.5,-0.5"/>
                </g>
                <g id="arrowLeft" xlink:href="#dirArrow" transform="rotate(270) translate(-36 17)" onmousedown="handlePan(-1,0)">
                  <use xlink:href="#rim" fill="#404040">
                        <set attributeName="fill" to="#808080" begin="arrowLeft.mouseover" end="arrowLeft.mouseout"/>
                  </use>
                  <path fill="none" stroke="white" stroke-width="1.5" d="M0,-3.0v7 M-2.5,-0.5L0,-3.0L2.5,-0.5"/>
                </g>
        </g>
        <svg viewBox="0 0 15 15" width="100%" height="30px" preserveAspectRatio="xMaxYMin meet">
         <g id="arrow_out" transform="scale(0.3 0.3)">
          <a xlink:href="structvm__s__coll__graph_org.svg" target="_base">
           <rect id="button" ry="5" rx="5" y="6" x="6" height="38" width="38"
                fill="#f2f5e9" fill-opacity="0.5" stroke="#606060" stroke-width="1.0"/>
           <path id="arrow"
             d="M 11.500037,31.436501 C 11.940474,20.09759 22.043105,11.32322 32.158766,21.979434 L 37.068811,17.246167 C 37.068811,17.246167 37.088388,32 37.088388,32 L 22.160133,31.978069 C 22.160133,31.978069 26.997745,27.140456 26.997745,27.140456 C 18.528582,18.264221 13.291696,25.230495 11.500037,31.436501 z"
             style="fill:#404040;"/>
          </a>
         </g>
        </svg>
</svg>
