<?xml version="1.0" encoding="UTF-8" standalone="no"?>
<!DOCTYPE svg PUBLIC "-//W3C//DTD SVG 1.1//EN"
 "http://www.w3.org/Graphics/SVG/1.1/DTD/svg11.dtd">
<!-- Generated by graphviz version 2.43.0 (0)
 -->
<!-- Title: _IO_CSQ Pages: 1 -->
<svg width="281pt" height="174pt"
 viewBox="0.00 0.00 281.00 174.00" xmlns="http://www.w3.org/2000/svg" xmlns:xlink="http://www.w3.org/1999/xlink">
<g id="graph0" class="graph" transform="scale(1 1) rotate(0) translate(4 170)">
<title>_IO_CSQ</title>
<!-- Node1 -->
<g id="node1" class="node">
<title>Node1</title>
<g id="a_node1"><a xlink:title=" ">
<polygon fill="#bfbfbf" stroke="black" points="70,-23.5 70,-42.5 128,-42.5 128,-23.5 70,-23.5"/>
<text text-anchor="middle" x="99" y="-30.5" font-family="Helvetica,sans-Serif" font-size="10.00">_IO_CSQ</text>
</a>
</g>
</g>
<!-- Node1&#45;&gt;Node1 -->
<g id="edge1" class="edge">
<title>Node1&#45;&gt;Node1</title>
<path fill="none" stroke="#9a32cd" stroke-dasharray="5,2" d="M125.39,-44.51C136.53,-45.36 146,-41.52 146,-33 146,-21.98 130.16,-18.8 115.38,-23.44"/>
<polygon fill="#9a32cd" stroke="#9a32cd" points="125.86,-41.04 115.38,-42.56 124.52,-47.91 125.86,-41.04"/>
<text text-anchor="middle" x="209.5" y="-58" font-family="Helvetica,sans-Serif" font-size="10.00"> CsqCompleteCanceledIrp</text>
<text text-anchor="middle" x="209.5" y="-47" font-family="Helvetica,sans-Serif" font-size="10.00">CsqInsertIrp</text>
<text text-anchor="middle" x="209.5" y="-36" font-family="Helvetica,sans-Serif" font-size="10.00">CsqRemoveIrp</text>
<text text-anchor="middle" x="209.5" y="-25" font-family="Helvetica,sans-Serif" font-size="10.00">CsqPeekNextIrp</text>
<text text-anchor="middle" x="209.5" y="-14" font-family="Helvetica,sans-Serif" font-size="10.00">CsqAcquireLock</text>
<text text-anchor="middle" x="209.5" y="-3" font-family="Helvetica,sans-Serif" font-size="10.00">CsqReleaseLock</text>
</g>
<!-- Node2 -->
<g id="node2" class="node">
<title>Node2</title>
<g id="a_node2"><a xlink:title=" ">
<polygon fill="none" stroke="#bfbfbf" points="0,-124.5 0,-165.5 198,-165.5 198,-124.5 0,-124.5"/>
<text text-anchor="start" x="8" y="-153.5" font-family="Helvetica,sans-Serif" font-size="10.00">PSecurityUserData *typedef</text>
<text text-anchor="start" x="8" y="-142.5" font-family="Helvetica,sans-Serif" font-size="10.00"> PSECPKG_EXTENDED_INFORMATION</text>
<text text-anchor="middle" x="99" y="-131.5" font-family="Helvetica,sans-Serif" font-size="10.00"> *typedef</text>
</a>
</g>
</g>
<!-- Node2&#45;&gt;Node1 -->
<g id="edge2" class="edge">
<title>Node2&#45;&gt;Node1</title>
<path fill="none" stroke="#9a32cd" stroke-dasharray="5,2" d="M99,-114.26C99,-90.15 99,-57.78 99,-42.57"/>
<polygon fill="#9a32cd" stroke="#9a32cd" points="95.5,-114.33 99,-124.33 102.5,-114.33 95.5,-114.33"/>
<text text-anchor="middle" x="136.5" y="-98" font-family="Helvetica,sans-Serif" font-size="10.00"> Type</text>
<text text-anchor="middle" x="136.5" y="-87" font-family="Helvetica,sans-Serif" font-size="10.00">ReservePointer</text>
</g>
</g>
</svg>
