<?xml version="1.0" encoding="UTF-8" standalone="no"?>
<!DOCTYPE svg PUBLIC "-//W3C//DTD SVG 1.1//EN"
 "http://www.w3.org/Graphics/SVG/1.1/DTD/svg11.dtd">
<!-- Generated by graphviz version 2.43.0 (0)
 -->
<!-- Title: _CO_TAPI_CALL_DIAGNOSTICS Pages: 1 -->
<svg width="452pt" height="88pt"
 viewBox="0.00 0.00 452.00 88.00" xmlns="http://www.w3.org/2000/svg" xmlns:xlink="http://www.w3.org/1999/xlink">
<g id="graph0" class="graph" transform="scale(1 1) rotate(0) translate(4 84)">
<title>_CO_TAPI_CALL_DIAGNOSTICS</title>
<!-- Node1 -->
<g id="node1" class="node">
<title>Node1</title>
<g id="a_node1"><a xlink:title=" ">
<polygon fill="#bfbfbf" stroke="black" points="280,-35.5 280,-54.5 444,-54.5 444,-35.5 280,-35.5"/>
<text text-anchor="middle" x="362" y="-42.5" font-family="Helvetica,sans-Serif" font-size="10.00">_CO_TAPI_CALL_DIAGNOSTICS</text>
</a>
</g>
</g>
<!-- Node2 -->
<g id="node2" class="node">
<title>Node2</title>
<g id="a_node2"><a xlink:title=" ">
<polygon fill="none" stroke="#bfbfbf" points="35,-60.5 35,-79.5 163,-79.5 163,-60.5 35,-60.5"/>
<text text-anchor="middle" x="99" y="-67.5" font-family="Helvetica,sans-Serif" font-size="10.00">NDIS_VAR_DATA_DESC</text>
</a>
</g>
</g>
<!-- Node2&#45;&gt;Node1 -->
<g id="edge1" class="edge">
<title>Node2&#45;&gt;Node1</title>
<path fill="none" stroke="#9a32cd" stroke-dasharray="5,2" d="M173.25,-62.98C206.36,-59.81 245.6,-56.05 279.63,-52.79"/>
<polygon fill="#9a32cd" stroke="#9a32cd" points="172.8,-59.51 163.18,-63.95 173.47,-66.48 172.8,-59.51"/>
<text text-anchor="middle" x="239" y="-61" font-family="Helvetica,sans-Serif" font-size="10.00"> DiagInfo</text>
</g>
<!-- Node3 -->
<g id="node3" class="node">
<title>Node3</title>
<g id="a_node3"><a xlink:title=" ">
<polygon fill="none" stroke="#bfbfbf" points="0,-0.5 0,-41.5 198,-41.5 198,-0.5 0,-0.5"/>
<text text-anchor="start" x="8" y="-29.5" font-family="Helvetica,sans-Serif" font-size="10.00">PSecurityUserData *typedef</text>
<text text-anchor="start" x="8" y="-18.5" font-family="Helvetica,sans-Serif" font-size="10.00"> PSECPKG_EXTENDED_INFORMATION</text>
<text text-anchor="middle" x="99" y="-7.5" font-family="Helvetica,sans-Serif" font-size="10.00"> *typedef</text>
</a>
</g>
</g>
<!-- Node3&#45;&gt;Node1 -->
<g id="edge2" class="edge">
<title>Node3&#45;&gt;Node1</title>
<path fill="none" stroke="#9a32cd" stroke-dasharray="5,2" d="M208.46,-21.97C226.38,-22.81 244.74,-24.09 262,-26 280.96,-28.1 301.72,-31.85 319.31,-35.48"/>
<polygon fill="#9a32cd" stroke="#9a32cd" points="208.41,-18.46 198.27,-21.53 208.11,-25.46 208.41,-18.46"/>
<text text-anchor="middle" x="239" y="-40" font-family="Helvetica,sans-Serif" font-size="10.00"> ulOrigin</text>
<text text-anchor="middle" x="239" y="-29" font-family="Helvetica,sans-Serif" font-size="10.00">ulReason</text>
</g>
</g>
</svg>
