<?xml version="1.0" encoding="UTF-8" standalone="no"?>
<!DOCTYPE svg PUBLIC "-//W3C//DTD SVG 1.1//EN"
 "http://www.w3.org/Graphics/SVG/1.1/DTD/svg11.dtd">
<!-- Generated by graphviz version 2.43.0 (0)
 -->
<!-- Title: menucommon_s Pages: 1 -->
<!--zoomable 194 -->
<svg id="main" version="1.1" xmlns="http://www.w3.org/2000/svg" xmlns:xlink="http://www.w3.org/1999/xlink" xml:space="preserve" onload="init(evt)">
<style type="text/css"><![CDATA[
.edge:hover path { stroke: red; }
.edge:hover polygon { stroke: red; fill: red; }
]]></style>
<script type="text/javascript"><![CDATA[
var edges = document.getElementsByTagName('g');
if (edges && edges.length) {
  for (var i=0;i<edges.length;i++) {
    if (edges[i].id.substr(0,4)=='edge') {
      edges[i].setAttribute('class','edge');
    }
  }
}
]]></script>
        <defs>
                <circle id="rim" cx="0" cy="0" r="7"/>
                <circle id="rim2" cx="0" cy="0" r="3.5"/>
                <g id="zoomPlus">
                        <use xlink:href="#rim" fill="#404040">
                                <set attributeName="fill" to="#808080" begin="zoomplus.mouseover" end="zoomplus.mouseout"/>
                        </use>
                        <path d="M-4,0h8M0,-4v8" fill="none" stroke="white" stroke-width="1.5" pointer-events="none"/>
                </g>
                <g id="zoomMin">
                        <use xlink:href="#rim" fill="#404040">
                                <set attributeName="fill" to="#808080" begin="zoomminus.mouseover" end="zoomminus.mouseout"/>
                        </use>
                        <path d="M-4,0h8" fill="none" stroke="white" stroke-width="1.5" pointer-events="none"/>
                </g>
                <g id="dirArrow">
                        <path fill="none" stroke="white" stroke-width="1.5" d="M0,-3.0v7 M-2.5,-0.5L0,-3.0L2.5,-0.5"/>
                </g>
               <g id="resetDef">
                       <use xlink:href="#rim2" fill="#404040">
                               <set attributeName="fill" to="#808080" begin="reset.mouseover" end="reset.mouseout"/>
                       </use>
               </g>
        </defs>

<script type="text/javascript">
var viewWidth = 567;
var viewHeight = 194;
var sectionId = 'dynsection-0';
</script>
<script xlink:href="../../svgpan.js"/>
<svg id="graph" class="graph">
<g id="viewport">
<title>menucommon_s</title>
<!-- Node1 -->
<g id="node1" class="node">
<title>Node1</title>
<g id="a_node1"><a xlink:title=" ">
<polygon fill="#bfbfbf" stroke="black" points="226,-0.5 226,-19.5 324,-19.5 324,-0.5 226,-0.5"/>
<text text-anchor="middle" x="275" y="-7.5" font-family="Helvetica,sans-Serif" font-size="10.00">menucommon_s</text>
</a>
</g>
</g>
<!-- Node2 -->
<g id="node2" class="node">
<title>Node2</title>
<g id="a_node2"><a xlink:title=" ">
<polygon fill="none" stroke="#bfbfbf" points="0,-161 0,-180 108,-180 108,-161 0,-161"/>
<text text-anchor="middle" x="54" y="-168" font-family="Helvetica,sans-Serif" font-size="10.00">menuframework_s</text>
</a>
</g>
</g>
<!-- Node2&#45;&gt;Node1 -->
<g id="edge1" class="edge">
<title>Node2&#45;&gt;Node1</title>
<path fill="none" stroke="#9a32cd" stroke-dasharray="5,2" d="M56.15,-150.66C60.53,-121.57 73.33,-66.14 109,-38 126.71,-24.03 183.5,-17.09 225.76,-13.78"/>
<polygon fill="#9a32cd" stroke="#9a32cd" points="52.66,-150.35 54.81,-160.73 59.6,-151.27 52.66,-150.35"/>
<text text-anchor="middle" x="126.5" y="-85" font-family="Helvetica,sans-Serif" font-size="10.00"> parent</text>
</g>
<!-- Node3 -->
<g id="node3" class="node">
<title>Node3</title>
<g id="a_node3"><a xlink:title=" ">
<polygon fill="none" stroke="#bfbfbf" points="126,-161 126,-180 164,-180 164,-161 126,-161"/>
<text text-anchor="middle" x="145" y="-168" font-family="Helvetica,sans-Serif" font-size="10.00">char</text>
</a>
</g>
</g>
<!-- Node3&#45;&gt;Node1 -->
<g id="edge2" class="edge">
<title>Node3&#45;&gt;Node1</title>
<path fill="none" stroke="#9a32cd" stroke-dasharray="5,2" d="M145.9,-150.55C148.27,-122.16 156.87,-68.67 188,-38 198.25,-27.9 212.21,-21.57 225.94,-17.6"/>
<polygon fill="#9a32cd" stroke="#9a32cd" points="142.39,-150.52 145.23,-160.73 149.38,-150.98 142.39,-150.52"/>
<text text-anchor="middle" x="203.5" y="-85" font-family="Helvetica,sans-Serif" font-size="10.00"> name</text>
</g>
<!-- Node4 -->
<g id="node4" class="node">
<title>Node4</title>
<g id="a_node4"><a xlink:title=" ">
<polygon fill="none" stroke="#bfbfbf" points="182.5,-161 182.5,-180 287.5,-180 287.5,-161 182.5,-161"/>
<text text-anchor="middle" x="235" y="-168" font-family="Helvetica,sans-Serif" font-size="10.00">void(*)(void *self)</text>
</a>
</g>
</g>
<!-- Node4&#45;&gt;Node1 -->
<g id="edge3" class="edge">
<title>Node4&#45;&gt;Node1</title>
<path fill="none" stroke="#9a32cd" stroke-dasharray="5,2" d="M230.07,-150.94C224.05,-124.23 216.86,-74.2 236,-38 240.23,-29.99 248.03,-23.88 255.55,-19.52"/>
<polygon fill="#9a32cd" stroke="#9a32cd" points="226.72,-151.97 232.5,-160.85 233.52,-150.3 226.72,-151.97"/>
<text text-anchor="middle" x="265" y="-90.5" font-family="Helvetica,sans-Serif" font-size="10.00"> ownerdraw</text>
<text text-anchor="middle" x="265" y="-79.5" font-family="Helvetica,sans-Serif" font-size="10.00">statusbar</text>
</g>
<!-- Node5 -->
<g id="node5" class="node">
<title>Node5</title>
<g id="a_node5"><a xlink:title=" ">
<polygon fill="none" stroke="#bfbfbf" points="305.5,-161 305.5,-180 334.5,-180 334.5,-161 305.5,-161"/>
<text text-anchor="middle" x="320" y="-168" font-family="Helvetica,sans-Serif" font-size="10.00">int</text>
</a>
</g>
</g>
<!-- Node5&#45;&gt;Node1 -->
<g id="edge4" class="edge">
<title>Node5&#45;&gt;Node1</title>
<path fill="none" stroke="#9a32cd" stroke-dasharray="5,2" d="M317.29,-150.81C312.58,-119.55 302.6,-58.1 294,-38 291.2,-31.47 286.66,-24.93 282.72,-19.92"/>
<polygon fill="#9a32cd" stroke="#9a32cd" points="313.84,-151.45 318.77,-160.83 320.77,-150.43 313.84,-151.45"/>
<text text-anchor="middle" x="347.5" y="-129" font-family="Helvetica,sans-Serif" font-size="10.00"> x</text>
<text text-anchor="middle" x="347.5" y="-118" font-family="Helvetica,sans-Serif" font-size="10.00">y</text>
<text text-anchor="middle" x="347.5" y="-107" font-family="Helvetica,sans-Serif" font-size="10.00">menuPosition</text>
<text text-anchor="middle" x="347.5" y="-96" font-family="Helvetica,sans-Serif" font-size="10.00">right</text>
<text text-anchor="middle" x="347.5" y="-85" font-family="Helvetica,sans-Serif" font-size="10.00">left</text>
<text text-anchor="middle" x="347.5" y="-74" font-family="Helvetica,sans-Serif" font-size="10.00">bottom</text>
<text text-anchor="middle" x="347.5" y="-63" font-family="Helvetica,sans-Serif" font-size="10.00">type</text>
<text text-anchor="middle" x="347.5" y="-52" font-family="Helvetica,sans-Serif" font-size="10.00">id</text>
<text text-anchor="middle" x="347.5" y="-41" font-family="Helvetica,sans-Serif" font-size="10.00">top</text>
</g>
<!-- Node6 -->
<g id="node6" class="node">
<title>Node6</title>
<g id="a_node6"><a xlink:title=" ">
<polygon fill="none" stroke="#bfbfbf" points="375.5,-161 375.5,-180 436.5,-180 436.5,-161 375.5,-161"/>
<text text-anchor="middle" x="406" y="-168" font-family="Helvetica,sans-Serif" font-size="10.00">unsigned</text>
</a>
</g>
</g>
<!-- Node6&#45;&gt;Node1 -->
<g id="edge5" class="edge">
<title>Node6&#45;&gt;Node1</title>
<path fill="none" stroke="#9a32cd" stroke-dasharray="5,2" d="M408.73,-150.61C411.67,-122.3 412.61,-68.9 384,-38 375.62,-28.95 348.91,-22.25 324.03,-17.79"/>
<polygon fill="#9a32cd" stroke="#9a32cd" points="405.22,-150.4 407.47,-160.76 412.17,-151.26 405.22,-150.4"/>
<text text-anchor="middle" x="423.5" y="-85" font-family="Helvetica,sans-Serif" font-size="10.00"> flags</text>
</g>
<!-- Node7 -->
<g id="node7" class="node">
<title>Node7</title>
<g id="a_node7"><a xlink:title=" ">
<polygon fill="none" stroke="#bfbfbf" points="455,-155.5 455,-185.5 559,-185.5 559,-155.5 455,-155.5"/>
<text text-anchor="start" x="463" y="-173.5" font-family="Helvetica,sans-Serif" font-size="10.00">void(*)(void *self,</text>
<text text-anchor="middle" x="507" y="-162.5" font-family="Helvetica,sans-Serif" font-size="10.00"> int event)</text>
</a>
</g>
</g>
<!-- Node7&#45;&gt;Node1 -->
<g id="edge6" class="edge">
<title>Node7&#45;&gt;Node1</title>
<path fill="none" stroke="#9a32cd" stroke-dasharray="5,2" d="M501.99,-145.53C494.35,-115.33 476.73,-64.24 441,-38 422.82,-24.65 366.12,-17.58 324.02,-14.07"/>
<polygon fill="#9a32cd" stroke="#9a32cd" points="498.58,-146.33 504.29,-155.26 505.4,-144.72 498.58,-146.33"/>
<text text-anchor="middle" x="520" y="-85" font-family="Helvetica,sans-Serif" font-size="10.00"> callback</text>
</g>
</g>
</svg>
        <g id="navigator" transform="translate(0 0)" fill="#404254">
                <rect fill="#f2f5e9" fill-opacity="0.5" stroke="#606060" stroke-width=".5" x="0" y="0" width="60" height="60"/>
                <use id="zoomplus" xlink:href="#zoomPlus" x="17" y="9" onmousedown="handleZoom(evt,'in')"/>
                <use id="zoomminus" xlink:href="#zoomMin" x="42" y="9" onmousedown="handleZoom(evt,'out')"/>
                <use id="reset" xlink:href="#resetDef" x="30" y="36" onmousedown="handleReset()"/>
                <g id="arrowUp" xlink:href="#dirArrow" transform="translate(30 24)" onmousedown="handlePan(0,-1)">
                  <use xlink:href="#rim" fill="#404040">
                        <set attributeName="fill" to="#808080" begin="arrowUp.mouseover" end="arrowUp.mouseout"/>
                  </use>
                  <path fill="none" stroke="white" stroke-width="1.5" d="M0,-3.0v7 M-2.5,-0.5L0,-3.0L2.5,-0.5"/>
                </g>
                <g id="arrowRight" xlink:href="#dirArrow" transform="rotate(90) translate(36 -43)" onmousedown="handlePan(1,0)">
                  <use xlink:href="#rim" fill="#404040">
                        <set attributeName="fill" to="#808080" begin="arrowRight.mouseover" end="arrowRight.mouseout"/>
                  </use>
                  <path fill="none" stroke="white" stroke-width="1.5" d="M0,-3.0v7 M-2.5,-0.5L0,-3.0L2.5,-0.5"/>
                </g>
                <g id="arrowDown" xlink:href="#dirArrow" transform="rotate(180) translate(-30 -48)" onmousedown="handlePan(0,1)">
                  <use xlink:href="#rim" fill="#404040">
                        <set attributeName="fill" to="#808080" begin="arrowDown.mouseover" end="arrowDown.mouseout"/>
                  </use>
                  <path fill="none" stroke="white" stroke-width="1.5" d="M0,-3.0v7 M-2.5,-0.5L0,-3.0L2.5,-0.5"/>
                </g>
                <g id="arrowLeft" xlink:href="#dirArrow" transform="rotate(270) translate(-36 17)" onmousedown="handlePan(-1,0)">
                  <use xlink:href="#rim" fill="#404040">
                        <set attributeName="fill" to="#808080" begin="arrowLeft.mouseover" end="arrowLeft.mouseout"/>
                  </use>
                  <path fill="none" stroke="white" stroke-width="1.5" d="M0,-3.0v7 M-2.5,-0.5L0,-3.0L2.5,-0.5"/>
                </g>
        </g>
        <svg viewBox="0 0 15 15" width="100%" height="30px" preserveAspectRatio="xMaxYMin meet">
         <g id="arrow_out" transform="scale(0.3 0.3)">
          <a xlink:href="structmenucommon__s__coll__graph_org.svg" target="_base">
           <rect id="button" ry="5" rx="5" y="6" x="6" height="38" width="38"
                fill="#f2f5e9" fill-opacity="0.5" stroke="#606060" stroke-width="1.0"/>
           <path id="arrow"
             d="M 11.500037,31.436501 C 11.940474,20.09759 22.043105,11.32322 32.158766,21.979434 L 37.068811,17.246167 C 37.068811,17.246167 37.088388,32 37.088388,32 L 22.160133,31.978069 C 22.160133,31.978069 26.997745,27.140456 26.997745,27.140456 C 18.528582,18.264221 13.291696,25.230495 11.500037,31.436501 z"
             style="fill:#404040;"/>
          </a>
         </g>
        </svg>
</svg>
