<?xml version="1.0" encoding="UTF-8" standalone="no"?>
<!DOCTYPE svg PUBLIC "-//W3C//DTD SVG 1.1//EN"
 "http://www.w3.org/Graphics/SVG/1.1/DTD/svg11.dtd">
<!-- Generated by graphviz version 2.43.0 (0)
 -->
<!-- Title: Source/Engine/SDL12/include/SDL_config_symbian.h Pages: 1 -->
<svg width="248pt" height="106pt"
 viewBox="0.00 0.00 248.00 106.00" xmlns="http://www.w3.org/2000/svg" xmlns:xlink="http://www.w3.org/1999/xlink">
<g id="graph0" class="graph" transform="scale(1 1) rotate(0) translate(4 102)">
<title>Source/Engine/SDL12/include/SDL_config_symbian.h</title>
<!-- Node1 -->
<g id="node1" class="node">
<title>Node1</title>
<g id="a_node1"><a xlink:title=" ">
<polygon fill="#bfbfbf" stroke="black" points="78.5,-56.5 78.5,-97.5 197.5,-97.5 197.5,-56.5 78.5,-56.5"/>
<text text-anchor="start" x="86.5" y="-85.5" font-family="Helvetica,sans-Serif" font-size="10.00">Source/Engine/SDL12</text>
<text text-anchor="start" x="86.5" y="-74.5" font-family="Helvetica,sans-Serif" font-size="10.00">/include/SDL_config</text>
<text text-anchor="middle" x="138" y="-63.5" font-family="Helvetica,sans-Serif" font-size="10.00">_symbian.h</text>
</a>
</g>
</g>
<!-- Node2 -->
<g id="node2" class="node">
<title>Node2</title>
<g id="a_node2"><a xlink:href="../../d3/df1/SDL__platform_8h.html" target="_top" xlink:title=" ">
<polygon fill="none" stroke="black" points="0,-0.5 0,-19.5 92,-19.5 92,-0.5 0,-0.5"/>
<text text-anchor="middle" x="46" y="-7.5" font-family="Helvetica,sans-Serif" font-size="10.00">SDL_platform.h</text>
</a>
</g>
</g>
<!-- Node1&#45;&gt;Node2 -->
<g id="edge1" class="edge">
<title>Node1&#45;&gt;Node2</title>
<path fill="none" stroke="midnightblue" d="M110.4,-56.5C96.29,-46.53 79.42,-34.61 66.49,-25.48"/>
<polygon fill="midnightblue" stroke="midnightblue" points="68.43,-22.56 58.25,-19.65 64.39,-28.28 68.43,-22.56"/>
</g>
<!-- Node3 -->
<g id="node3" class="node">
<title>Node3</title>
<g id="a_node3"><a xlink:title=" ">
<polygon fill="none" stroke="#bfbfbf" points="110,-0.5 110,-19.5 166,-19.5 166,-0.5 110,-0.5"/>
<text text-anchor="middle" x="138" y="-7.5" font-family="Helvetica,sans-Serif" font-size="10.00">stdarg.h</text>
</a>
</g>
</g>
<!-- Node1&#45;&gt;Node3 -->
<g id="edge2" class="edge">
<title>Node1&#45;&gt;Node3</title>
<path fill="none" stroke="midnightblue" d="M138,-56.5C138,-48.07 138,-38.24 138,-29.87"/>
<polygon fill="midnightblue" stroke="midnightblue" points="141.5,-29.65 138,-19.65 134.5,-29.65 141.5,-29.65"/>
</g>
<!-- Node4 -->
<g id="node4" class="node">
<title>Node4</title>
<g id="a_node4"><a xlink:title=" ">
<polygon fill="none" stroke="#bfbfbf" points="184,-0.5 184,-19.5 240,-19.5 240,-0.5 184,-0.5"/>
<text text-anchor="middle" x="212" y="-7.5" font-family="Helvetica,sans-Serif" font-size="10.00">stddef.h</text>
</a>
</g>
</g>
<!-- Node1&#45;&gt;Node4 -->
<g id="edge3" class="edge">
<title>Node1&#45;&gt;Node4</title>
<path fill="none" stroke="midnightblue" d="M160.2,-56.5C171.22,-46.82 184.34,-35.3 194.61,-26.27"/>
<polygon fill="midnightblue" stroke="midnightblue" points="196.95,-28.88 202.15,-19.65 192.33,-23.62 196.95,-28.88"/>
</g>
</g>
</svg>
