<?xml version="1.0" encoding="UTF-8" standalone="no"?>
<!DOCTYPE svg PUBLIC "-//W3C//DTD SVG 1.1//EN"
 "http://www.w3.org/Graphics/SVG/1.1/DTD/svg11.dtd">
<!-- Generated by graphviz version 2.43.0 (0)
 -->
<!-- Title: Source/Engine/server/sv_ccmds.c Pages: 1 -->
<svg width="1155pt" height="274pt"
 viewBox="0.00 0.00 1154.50 274.00" xmlns="http://www.w3.org/2000/svg" xmlns:xlink="http://www.w3.org/1999/xlink">
<g id="graph0" class="graph" transform="scale(1 1) rotate(0) translate(4 270)">
<title>Source/Engine/server/sv_ccmds.c</title>
<!-- Node1 -->
<g id="node1" class="node">
<title>Node1</title>
<g id="a_node1"><a xlink:title=" ">
<polygon fill="#bfbfbf" stroke="black" points="804.5,-235.5 804.5,-265.5 923.5,-265.5 923.5,-235.5 804.5,-235.5"/>
<text text-anchor="start" x="812.5" y="-253.5" font-family="Helvetica,sans-Serif" font-size="10.00">Source/Engine/server</text>
<text text-anchor="middle" x="864" y="-242.5" font-family="Helvetica,sans-Serif" font-size="10.00">/sv_ccmds.c</text>
</a>
</g>
</g>
<!-- Node2 -->
<g id="node2" class="node">
<title>Node2</title>
<g id="a_node2"><a xlink:href="../../da/ddc/Source_2Engine_2server_2server_8h.html" target="_top" xlink:title=" ">
<polygon fill="none" stroke="black" points="836,-179.5 836,-198.5 892,-198.5 892,-179.5 836,-179.5"/>
<text text-anchor="middle" x="864" y="-186.5" font-family="Helvetica,sans-Serif" font-size="10.00">server.h</text>
</a>
</g>
</g>
<!-- Node1&#45;&gt;Node2 -->
<g id="edge1" class="edge">
<title>Node1&#45;&gt;Node2</title>
<path fill="none" stroke="midnightblue" d="M864,-235.4C864,-227.47 864,-217.46 864,-208.86"/>
<polygon fill="midnightblue" stroke="midnightblue" points="867.5,-208.66 864,-198.66 860.5,-208.66 867.5,-208.66"/>
</g>
<!-- Node3 -->
<g id="node3" class="node">
<title>Node3</title>
<g id="a_node3"><a xlink:href="../../d3/d14/Source_2Shared_2q__shared_8h.html" target="_top" xlink:title=" ">
<polygon fill="none" stroke="black" points="390.5,-118 390.5,-137 515.5,-137 515.5,-118 390.5,-118"/>
<text text-anchor="middle" x="453" y="-125" font-family="Helvetica,sans-Serif" font-size="10.00">../../Shared/q_shared.h</text>
</a>
</g>
</g>
<!-- Node2&#45;&gt;Node3 -->
<g id="edge2" class="edge">
<title>Node2&#45;&gt;Node3</title>
<path fill="none" stroke="midnightblue" d="M835.75,-183.91C771.68,-174.64 613.82,-151.78 522.09,-138.5"/>
<polygon fill="midnightblue" stroke="midnightblue" points="522.46,-135.02 512.06,-137.05 521.45,-141.95 522.46,-135.02"/>
</g>
<!-- Node16 -->
<g id="node16" class="node">
<title>Node16</title>
<g id="a_node16"><a xlink:href="../../d2/d6c/Source_2Shared_2qcommon_8h.html" target="_top" xlink:title=" ">
<polygon fill="none" stroke="black" points="721.5,-118 721.5,-137 850.5,-137 850.5,-118 721.5,-118"/>
<text text-anchor="middle" x="786" y="-125" font-family="Helvetica,sans-Serif" font-size="10.00">../../Shared/qcommon.h</text>
</a>
</g>
</g>
<!-- Node2&#45;&gt;Node16 -->
<g id="edge15" class="edge">
<title>Node2&#45;&gt;Node16</title>
<path fill="none" stroke="midnightblue" d="M852.82,-179.48C840.43,-170.02 820.21,-154.6 805.25,-143.19"/>
<polygon fill="midnightblue" stroke="midnightblue" points="807.23,-140.29 797.15,-137.01 802.98,-145.86 807.23,-140.29"/>
</g>
<!-- Node19 -->
<g id="node19" class="node">
<title>Node19</title>
<g id="a_node19"><a xlink:href="../../df/ddb/Source_2Game_2Game_2g__public_8h.html" target="_top" xlink:title=" ">
<polygon fill="none" stroke="black" points="868.5,-118 868.5,-137 1017.5,-137 1017.5,-118 868.5,-118"/>
<text text-anchor="middle" x="943" y="-125" font-family="Helvetica,sans-Serif" font-size="10.00">../../Game/Game/g_public.h</text>
</a>
</g>
</g>
<!-- Node2&#45;&gt;Node19 -->
<g id="edge18" class="edge">
<title>Node2&#45;&gt;Node19</title>
<path fill="none" stroke="midnightblue" d="M875.32,-179.48C887.87,-170.02 908.35,-154.6 923.5,-143.19"/>
<polygon fill="midnightblue" stroke="midnightblue" points="925.82,-145.82 931.7,-137.01 921.61,-140.23 925.82,-145.82"/>
</g>
<!-- Node20 -->
<g id="node20" class="node">
<title>Node20</title>
<g id="a_node20"><a xlink:href="../../d0/d27/Source_2Game_2Game_2bg__public_8h.html" target="_top" xlink:title=" ">
<polygon fill="none" stroke="black" points="1035.5,-112.5 1035.5,-142.5 1146.5,-142.5 1146.5,-112.5 1035.5,-112.5"/>
<text text-anchor="start" x="1043.5" y="-130.5" font-family="Helvetica,sans-Serif" font-size="10.00">../../Game/Game/bg</text>
<text text-anchor="middle" x="1091" y="-119.5" font-family="Helvetica,sans-Serif" font-size="10.00">_public.h</text>
</a>
</g>
</g>
<!-- Node2&#45;&gt;Node20 -->
<g id="edge19" class="edge">
<title>Node2&#45;&gt;Node20</title>
<path fill="none" stroke="midnightblue" d="M892.29,-180.58C925.88,-171.78 982.94,-156.83 1027.31,-145.19"/>
<polygon fill="midnightblue" stroke="midnightblue" points="1028.36,-148.54 1037.15,-142.61 1026.59,-141.76 1028.36,-148.54"/>
</g>
<!-- Node4 -->
<g id="node4" class="node">
<title>Node4</title>
<g id="a_node4"><a xlink:title=" ">
<polygon fill="none" stroke="#bfbfbf" points="0,-56.5 0,-75.5 56,-75.5 56,-56.5 0,-56.5"/>
<text text-anchor="middle" x="28" y="-63.5" font-family="Helvetica,sans-Serif" font-size="10.00">assert.h</text>
</a>
</g>
</g>
<!-- Node3&#45;&gt;Node4 -->
<g id="edge3" class="edge">
<title>Node3&#45;&gt;Node4</title>
<path fill="none" stroke="midnightblue" d="M390.17,-120.46C315.27,-112.77 186.17,-98.03 66.3,-76.07"/>
<polygon fill="midnightblue" stroke="midnightblue" points="66.68,-72.58 56.21,-74.2 65.41,-79.46 66.68,-72.58"/>
</g>
<!-- Node5 -->
<g id="node5" class="node">
<title>Node5</title>
<g id="a_node5"><a xlink:title=" ">
<polygon fill="none" stroke="#bfbfbf" points="74.5,-56.5 74.5,-75.5 125.5,-75.5 125.5,-56.5 74.5,-56.5"/>
<text text-anchor="middle" x="100" y="-63.5" font-family="Helvetica,sans-Serif" font-size="10.00">math.h</text>
</a>
</g>
</g>
<!-- Node3&#45;&gt;Node5 -->
<g id="edge4" class="edge">
<title>Node3&#45;&gt;Node5</title>
<path fill="none" stroke="midnightblue" d="M390.23,-118.31C328.06,-109.8 229.97,-95.29 135.56,-75.94"/>
<polygon fill="midnightblue" stroke="midnightblue" points="136.05,-72.47 125.55,-73.87 134.63,-79.32 136.05,-72.47"/>
</g>
<!-- Node6 -->
<g id="node6" class="node">
<title>Node6</title>
<g id="a_node6"><a xlink:title=" ">
<polygon fill="none" stroke="#bfbfbf" points="144,-56.5 144,-75.5 194,-75.5 194,-56.5 144,-56.5"/>
<text text-anchor="middle" x="169" y="-63.5" font-family="Helvetica,sans-Serif" font-size="10.00">stdio.h</text>
</a>
</g>
</g>
<!-- Node3&#45;&gt;Node6 -->
<g id="edge5" class="edge">
<title>Node3&#45;&gt;Node6</title>
<path fill="none" stroke="midnightblue" d="M406.28,-117.92C357.99,-108.87 280.21,-93.74 203.98,-76.13"/>
<polygon fill="midnightblue" stroke="midnightblue" points="204.74,-72.71 194.21,-73.85 203.16,-79.53 204.74,-72.71"/>
</g>
<!-- Node7 -->
<g id="node7" class="node">
<title>Node7</title>
<g id="a_node7"><a xlink:title=" ">
<polygon fill="none" stroke="#bfbfbf" points="212,-56.5 212,-75.5 268,-75.5 268,-56.5 212,-56.5"/>
<text text-anchor="middle" x="240" y="-63.5" font-family="Helvetica,sans-Serif" font-size="10.00">stdarg.h</text>
</a>
</g>
</g>
<!-- Node3&#45;&gt;Node7 -->
<g id="edge6" class="edge">
<title>Node3&#45;&gt;Node7</title>
<path fill="none" stroke="midnightblue" d="M422.48,-117.98C384.33,-107.32 319.04,-89.08 277.77,-77.55"/>
<polygon fill="midnightblue" stroke="midnightblue" points="278.66,-74.16 268.08,-74.85 276.77,-80.91 278.66,-74.16"/>
</g>
<!-- Node8 -->
<g id="node8" class="node">
<title>Node8</title>
<g id="a_node8"><a xlink:title=" ">
<polygon fill="none" stroke="#bfbfbf" points="286.5,-56.5 286.5,-75.5 339.5,-75.5 339.5,-56.5 286.5,-56.5"/>
<text text-anchor="middle" x="313" y="-63.5" font-family="Helvetica,sans-Serif" font-size="10.00">string.h</text>
</a>
</g>
</g>
<!-- Node3&#45;&gt;Node8 -->
<g id="edge7" class="edge">
<title>Node3&#45;&gt;Node8</title>
<path fill="none" stroke="midnightblue" d="M432.94,-117.98C409.24,-107.9 369.59,-91.05 342.42,-79.5"/>
<polygon fill="midnightblue" stroke="midnightblue" points="343.59,-76.2 333.02,-75.51 340.86,-82.64 343.59,-76.2"/>
</g>
<!-- Node9 -->
<g id="node9" class="node">
<title>Node9</title>
<g id="a_node9"><a xlink:title=" ">
<polygon fill="none" stroke="#bfbfbf" points="357.5,-56.5 357.5,-75.5 410.5,-75.5 410.5,-56.5 357.5,-56.5"/>
<text text-anchor="middle" x="384" y="-63.5" font-family="Helvetica,sans-Serif" font-size="10.00">stdlib.h</text>
</a>
</g>
</g>
<!-- Node3&#45;&gt;Node9 -->
<g id="edge8" class="edge">
<title>Node3&#45;&gt;Node9</title>
<path fill="none" stroke="midnightblue" d="M443.11,-117.98C432.35,-108.7 414.93,-93.67 401.78,-82.33"/>
<polygon fill="midnightblue" stroke="midnightblue" points="403.73,-79.39 393.87,-75.51 399.16,-84.69 403.73,-79.39"/>
</g>
<!-- Node10 -->
<g id="node10" class="node">
<title>Node10</title>
<g id="a_node10"><a xlink:title=" ">
<polygon fill="none" stroke="#bfbfbf" points="429,-56.5 429,-75.5 477,-75.5 477,-56.5 429,-56.5"/>
<text text-anchor="middle" x="453" y="-63.5" font-family="Helvetica,sans-Serif" font-size="10.00">time.h</text>
</a>
</g>
</g>
<!-- Node3&#45;&gt;Node10 -->
<g id="edge9" class="edge">
<title>Node3&#45;&gt;Node10</title>
<path fill="none" stroke="midnightblue" d="M453,-117.98C453,-109.58 453,-96.48 453,-85.66"/>
<polygon fill="midnightblue" stroke="midnightblue" points="456.5,-85.51 453,-75.51 449.5,-85.51 456.5,-85.51"/>
</g>
<!-- Node11 -->
<g id="node11" class="node">
<title>Node11</title>
<g id="a_node11"><a xlink:title=" ">
<polygon fill="none" stroke="#bfbfbf" points="495.5,-56.5 495.5,-75.5 548.5,-75.5 548.5,-56.5 495.5,-56.5"/>
<text text-anchor="middle" x="522" y="-63.5" font-family="Helvetica,sans-Serif" font-size="10.00">ctype.h</text>
</a>
</g>
</g>
<!-- Node3&#45;&gt;Node11 -->
<g id="edge10" class="edge">
<title>Node3&#45;&gt;Node11</title>
<path fill="none" stroke="midnightblue" d="M462.89,-117.98C473.65,-108.7 491.07,-93.67 504.22,-82.33"/>
<polygon fill="midnightblue" stroke="midnightblue" points="506.84,-84.69 512.13,-75.51 502.27,-79.39 506.84,-84.69"/>
</g>
<!-- Node12 -->
<g id="node12" class="node">
<title>Node12</title>
<g id="a_node12"><a xlink:title=" ">
<polygon fill="none" stroke="#bfbfbf" points="566.5,-56.5 566.5,-75.5 619.5,-75.5 619.5,-56.5 566.5,-56.5"/>
<text text-anchor="middle" x="593" y="-63.5" font-family="Helvetica,sans-Serif" font-size="10.00">limits.h</text>
</a>
</g>
</g>
<!-- Node3&#45;&gt;Node12 -->
<g id="edge11" class="edge">
<title>Node3&#45;&gt;Node12</title>
<path fill="none" stroke="midnightblue" d="M473.06,-117.98C496.76,-107.9 536.41,-91.05 563.58,-79.5"/>
<polygon fill="midnightblue" stroke="midnightblue" points="565.14,-82.64 572.98,-75.51 562.41,-76.2 565.14,-82.64"/>
</g>
<!-- Node13 -->
<g id="node13" class="node">
<title>Node13</title>
<g id="a_node13"><a xlink:title=" ">
<polygon fill="none" stroke="#bfbfbf" points="637.5,-56.5 637.5,-75.5 690.5,-75.5 690.5,-56.5 637.5,-56.5"/>
<text text-anchor="middle" x="664" y="-63.5" font-family="Helvetica,sans-Serif" font-size="10.00">stdint.h</text>
</a>
</g>
</g>
<!-- Node3&#45;&gt;Node13 -->
<g id="edge12" class="edge">
<title>Node3&#45;&gt;Node13</title>
<path fill="none" stroke="midnightblue" d="M483.23,-117.98C521.36,-107.22 586.87,-88.75 627.68,-77.24"/>
<polygon fill="midnightblue" stroke="midnightblue" points="628.82,-80.56 637.49,-74.47 626.92,-73.82 628.82,-80.56"/>
</g>
<!-- Node14 -->
<g id="node14" class="node">
<title>Node14</title>
<g id="a_node14"><a xlink:href="../../d3/de7/Source_2Shared_2q__platform_8h.html" target="_top" xlink:title=" ">
<polygon fill="none" stroke="black" points="708.5,-56.5 708.5,-75.5 787.5,-75.5 787.5,-56.5 708.5,-56.5"/>
<text text-anchor="middle" x="748" y="-63.5" font-family="Helvetica,sans-Serif" font-size="10.00">q_platform.h</text>
</a>
</g>
</g>
<!-- Node3&#45;&gt;Node14 -->
<g id="edge13" class="edge">
<title>Node3&#45;&gt;Node14</title>
<path fill="none" stroke="midnightblue" d="M495.27,-117.98C548.92,-107.15 641.34,-88.51 698.31,-77.02"/>
<polygon fill="midnightblue" stroke="midnightblue" points="699.06,-80.44 708.17,-75.03 697.68,-73.58 699.06,-80.44"/>
</g>
<!-- Node15 -->
<g id="node15" class="node">
<title>Node15</title>
<g id="a_node15"><a xlink:href="../../d1/d83/Source_2Shared_2surfaceflags_8h.html" target="_top" xlink:title=" ">
<polygon fill="none" stroke="black" points="805.5,-56.5 805.5,-75.5 890.5,-75.5 890.5,-56.5 805.5,-56.5"/>
<text text-anchor="middle" x="848" y="-63.5" font-family="Helvetica,sans-Serif" font-size="10.00">surfaceflags.h</text>
</a>
</g>
</g>
<!-- Node3&#45;&gt;Node15 -->
<g id="edge14" class="edge">
<title>Node3&#45;&gt;Node15</title>
<path fill="none" stroke="midnightblue" d="M514.91,-117.96C581.69,-108.63 691.41,-92.93 795.39,-76.23"/>
<polygon fill="midnightblue" stroke="midnightblue" points="796.12,-79.65 805.44,-74.61 795.01,-72.74 796.12,-79.65"/>
</g>
<!-- Node17 -->
<g id="node17" class="node">
<title>Node17</title>
<g id="a_node17"><a xlink:href="../../d6/dff/Shared_2cm__public_8h.html" target="_top" xlink:title=" ">
<polygon fill="none" stroke="black" points="909,-56.5 909,-75.5 1039,-75.5 1039,-56.5 909,-56.5"/>
<text text-anchor="middle" x="974" y="-63.5" font-family="Helvetica,sans-Serif" font-size="10.00">../../Shared/cm_public.h</text>
</a>
</g>
</g>
<!-- Node16&#45;&gt;Node17 -->
<g id="edge16" class="edge">
<title>Node16&#45;&gt;Node17</title>
<path fill="none" stroke="midnightblue" d="M812.94,-117.98C845.6,-107.64 900.82,-90.16 937.34,-78.6"/>
<polygon fill="midnightblue" stroke="midnightblue" points="938.64,-81.86 947.11,-75.51 936.52,-75.19 938.64,-81.86"/>
</g>
<!-- Node18 -->
<g id="node18" class="node">
<title>Node18</title>
<g id="a_node18"><a xlink:href="../../dc/d28/Shared_2qfiles_8h.html" target="_top" xlink:title=" ">
<polygon fill="none" stroke="black" points="948,-0.5 948,-19.5 1000,-19.5 1000,-0.5 948,-0.5"/>
<text text-anchor="middle" x="974" y="-7.5" font-family="Helvetica,sans-Serif" font-size="10.00">qfiles.h</text>
</a>
</g>
</g>
<!-- Node17&#45;&gt;Node18 -->
<g id="edge17" class="edge">
<title>Node17&#45;&gt;Node18</title>
<path fill="none" stroke="midnightblue" d="M974,-56.08C974,-49.01 974,-38.86 974,-29.99"/>
<polygon fill="midnightblue" stroke="midnightblue" points="977.5,-29.75 974,-19.75 970.5,-29.75 977.5,-29.75"/>
</g>
</g>
</svg>
