<?xml version="1.0" encoding="UTF-8" standalone="no"?>
<!DOCTYPE svg PUBLIC "-//W3C//DTD SVG 1.1//EN"
 "http://www.w3.org/Graphics/SVG/1.1/DTD/svg11.dtd">
<!-- Generated by graphviz version 2.43.0 (0)
 -->
<!-- Title: _BOOTDISK_INFORMATION Pages: 1 -->
<svg width="286pt" height="128pt"
 viewBox="0.00 0.00 286.00 128.00" xmlns="http://www.w3.org/2000/svg" xmlns:xlink="http://www.w3.org/1999/xlink">
<g id="graph0" class="graph" transform="scale(1 1) rotate(0) translate(4 124)">
<title>_BOOTDISK_INFORMATION</title>
<!-- Node1 -->
<g id="node1" class="node">
<title>Node1</title>
<g id="a_node1"><a xlink:title=" ">
<polygon fill="#bfbfbf" stroke="black" points="22,-0.5 22,-19.5 170,-19.5 170,-0.5 22,-0.5"/>
<text text-anchor="middle" x="96" y="-7.5" font-family="Helvetica,sans-Serif" font-size="10.00">_BOOTDISK_INFORMATION</text>
</a>
</g>
</g>
<!-- Node2 -->
<g id="node2" class="node">
<title>Node2</title>
<g id="a_node2"><a xlink:title=" ">
<polygon fill="none" stroke="#bfbfbf" points="0,-89.5 0,-108.5 50,-108.5 50,-89.5 0,-89.5"/>
<text text-anchor="middle" x="25" y="-96.5" font-family="Helvetica,sans-Serif" font-size="10.00">double</text>
</a>
</g>
</g>
<!-- Node2&#45;&gt;Node1 -->
<g id="edge1" class="edge">
<title>Node2&#45;&gt;Node1</title>
<path fill="none" stroke="#9a32cd" stroke-dasharray="5,2" d="M24.86,-79.17C25.7,-66.32 28.74,-49.59 38,-38 44.73,-29.58 54.68,-23.67 64.45,-19.57"/>
<polygon fill="#9a32cd" stroke="#9a32cd" points="21.36,-79.15 24.59,-89.24 28.36,-79.34 21.36,-79.15"/>
<text text-anchor="middle" x="91.5" y="-52" font-family="Helvetica,sans-Serif" font-size="10.00"> BootPartitionOffset</text>
<text text-anchor="middle" x="91.5" y="-41" font-family="Helvetica,sans-Serif" font-size="10.00">SystemPartitionOffset</text>
</g>
<!-- Node3 -->
<g id="node3" class="node">
<title>Node3</title>
<g id="a_node3"><a xlink:title=" ">
<polygon fill="none" stroke="#bfbfbf" points="68,-78.5 68,-119.5 266,-119.5 266,-78.5 68,-78.5"/>
<text text-anchor="start" x="76" y="-107.5" font-family="Helvetica,sans-Serif" font-size="10.00">PSecurityUserData *typedef</text>
<text text-anchor="start" x="76" y="-96.5" font-family="Helvetica,sans-Serif" font-size="10.00"> PSECPKG_EXTENDED_INFORMATION</text>
<text text-anchor="middle" x="167" y="-85.5" font-family="Helvetica,sans-Serif" font-size="10.00"> *typedef</text>
</a>
</g>
</g>
<!-- Node3&#45;&gt;Node1 -->
<g id="edge2" class="edge">
<title>Node3&#45;&gt;Node1</title>
<path fill="none" stroke="#9a32cd" stroke-dasharray="5,2" d="M160.8,-68.63C157.46,-58.09 152.45,-46.68 145,-38 138.1,-29.97 128.2,-23.88 119.09,-19.54"/>
<polygon fill="#9a32cd" stroke="#9a32cd" points="157.45,-69.66 163.51,-78.36 164.2,-67.78 157.45,-69.66"/>
<text text-anchor="middle" x="217.5" y="-52" font-family="Helvetica,sans-Serif" font-size="10.00"> SystemDeviceSignature</text>
<text text-anchor="middle" x="217.5" y="-41" font-family="Helvetica,sans-Serif" font-size="10.00">BootDeviceSignature</text>
</g>
</g>
</svg>
