<?xml version="1.0" encoding="UTF-8" standalone="no"?>
<!DOCTYPE svg PUBLIC "-//W3C//DTD SVG 1.1//EN"
 "http://www.w3.org/Graphics/SVG/1.1/DTD/svg11.dtd">
<!-- Generated by graphviz version 2.43.0 (0)
 -->
<!-- Title: Tools/MinGW/include/stdio.h Pages: 1 -->
<svg width="534pt" height="173pt"
 viewBox="0.00 0.00 534.00 173.00" xmlns="http://www.w3.org/2000/svg" xmlns:xlink="http://www.w3.org/1999/xlink">
<g id="graph0" class="graph" transform="scale(1 1) rotate(0) translate(4 169)">
<title>Tools/MinGW/include/stdio.h</title>
<!-- Node1 -->
<g id="node1" class="node">
<title>Node1</title>
<g id="a_node1"><a xlink:title=" ">
<polygon fill="#bfbfbf" stroke="black" points="204,-134.5 204,-164.5 322,-164.5 322,-134.5 204,-134.5"/>
<text text-anchor="start" x="212" y="-152.5" font-family="Helvetica,sans-Serif" font-size="10.00">Tools/MinGW/include</text>
<text text-anchor="middle" x="263" y="-141.5" font-family="Helvetica,sans-Serif" font-size="10.00">/stdio.h</text>
</a>
</g>
</g>
<!-- Node2 -->
<g id="node2" class="node">
<title>Node2</title>
<g id="a_node2"><a xlink:href="../../df/d60/bzlib_8h.html" target="_top" xlink:title=" ">
<polygon fill="none" stroke="black" points="0,-67.5 0,-97.5 118,-97.5 118,-67.5 0,-67.5"/>
<text text-anchor="start" x="8" y="-85.5" font-family="Helvetica,sans-Serif" font-size="10.00">Tools/MinGW/include</text>
<text text-anchor="middle" x="59" y="-74.5" font-family="Helvetica,sans-Serif" font-size="10.00">/bzlib.h</text>
</a>
</g>
</g>
<!-- Node1&#45;&gt;Node2 -->
<g id="edge1" class="edge">
<title>Node1&#45;&gt;Node2</title>
<path fill="none" stroke="midnightblue" d="M209.04,-131.31C176.04,-120.79 134.34,-107.51 103.29,-97.61"/>
<polygon fill="midnightblue" stroke="midnightblue" points="208.4,-134.77 218.99,-134.48 210.52,-128.11 208.4,-134.77"/>
</g>
<!-- Node3 -->
<g id="node3" class="node">
<title>Node3</title>
<g id="a_node3"><a xlink:href="../../dc/d94/dis-asm_8h.html" target="_top" xlink:title=" ">
<polygon fill="none" stroke="black" points="136,-67.5 136,-97.5 254,-97.5 254,-67.5 136,-67.5"/>
<text text-anchor="start" x="144" y="-85.5" font-family="Helvetica,sans-Serif" font-size="10.00">Tools/MinGW/include</text>
<text text-anchor="middle" x="195" y="-74.5" font-family="Helvetica,sans-Serif" font-size="10.00">/dis&#45;asm.h</text>
</a>
</g>
</g>
<!-- Node1&#45;&gt;Node3 -->
<g id="edge2" class="edge">
<title>Node1&#45;&gt;Node3</title>
<path fill="none" stroke="midnightblue" d="M240.83,-127.31C230.63,-117.56 218.81,-106.26 209.73,-97.58"/>
<polygon fill="midnightblue" stroke="midnightblue" points="238.6,-130.02 248.25,-134.4 243.43,-124.96 238.6,-130.02"/>
</g>
<!-- Node4 -->
<g id="node4" class="node">
<title>Node4</title>
<g id="a_node4"><a xlink:href="../../d9/d98/Tools_2MinGW_2include_2jpeglib_8h.html" target="_top" xlink:title=" ">
<polygon fill="none" stroke="black" points="272,-67.5 272,-97.5 390,-97.5 390,-67.5 272,-67.5"/>
<text text-anchor="start" x="280" y="-85.5" font-family="Helvetica,sans-Serif" font-size="10.00">Tools/MinGW/include</text>
<text text-anchor="middle" x="331" y="-74.5" font-family="Helvetica,sans-Serif" font-size="10.00">/jpeglib.h</text>
</a>
</g>
</g>
<!-- Node1&#45;&gt;Node4 -->
<g id="edge3" class="edge">
<title>Node1&#45;&gt;Node4</title>
<path fill="none" stroke="midnightblue" d="M285.17,-127.31C295.37,-117.56 307.19,-106.26 316.27,-97.58"/>
<polygon fill="midnightblue" stroke="midnightblue" points="282.57,-124.96 277.75,-134.4 287.4,-130.02 282.57,-124.96"/>
</g>
<!-- Node6 -->
<g id="node6" class="node">
<title>Node6</title>
<g id="a_node6"><a xlink:href="../../d6/dd6/pngconf_8h.html" target="_top" xlink:title=" ">
<polygon fill="none" stroke="black" points="408,-67.5 408,-97.5 526,-97.5 526,-67.5 408,-67.5"/>
<text text-anchor="start" x="416" y="-85.5" font-family="Helvetica,sans-Serif" font-size="10.00">Tools/MinGW/include</text>
<text text-anchor="middle" x="467" y="-74.5" font-family="Helvetica,sans-Serif" font-size="10.00">/pngconf.h</text>
</a>
</g>
</g>
<!-- Node1&#45;&gt;Node6 -->
<g id="edge5" class="edge">
<title>Node1&#45;&gt;Node6</title>
<path fill="none" stroke="midnightblue" d="M316.96,-131.31C349.96,-120.79 391.66,-107.51 422.71,-97.61"/>
<polygon fill="midnightblue" stroke="midnightblue" points="315.48,-128.11 307.01,-134.48 317.6,-134.77 315.48,-128.11"/>
</g>
<!-- Node5 -->
<g id="node5" class="node">
<title>Node5</title>
<g id="a_node5"><a xlink:href="../../dc/de7/tr__image__jpg_8c.html" target="_top" xlink:title=" ">
<polygon fill="none" stroke="black" points="279,-0.5 279,-30.5 383,-30.5 383,-0.5 279,-0.5"/>
<text text-anchor="start" x="287" y="-18.5" font-family="Helvetica,sans-Serif" font-size="10.00">Engine/renderer/tr</text>
<text text-anchor="middle" x="331" y="-7.5" font-family="Helvetica,sans-Serif" font-size="10.00">_image_jpg.c</text>
</a>
</g>
</g>
<!-- Node4&#45;&gt;Node5 -->
<g id="edge4" class="edge">
<title>Node4&#45;&gt;Node5</title>
<path fill="none" stroke="midnightblue" d="M331,-57.11C331,-48.15 331,-38.32 331,-30.58"/>
<polygon fill="midnightblue" stroke="midnightblue" points="327.5,-57.4 331,-67.4 334.5,-57.4 327.5,-57.4"/>
</g>
<!-- Node7 -->
<g id="node7" class="node">
<title>Node7</title>
<g id="a_node7"><a xlink:href="../../d4/da9/png_8h.html" target="_top" xlink:title=" ">
<polygon fill="none" stroke="black" points="408,-0.5 408,-30.5 526,-30.5 526,-0.5 408,-0.5"/>
<text text-anchor="start" x="416" y="-18.5" font-family="Helvetica,sans-Serif" font-size="10.00">Tools/MinGW/include</text>
<text text-anchor="middle" x="467" y="-7.5" font-family="Helvetica,sans-Serif" font-size="10.00">/png.h</text>
</a>
</g>
</g>
<!-- Node6&#45;&gt;Node7 -->
<g id="edge6" class="edge">
<title>Node6&#45;&gt;Node7</title>
<path fill="none" stroke="midnightblue" d="M467,-57.11C467,-48.15 467,-38.32 467,-30.58"/>
<polygon fill="midnightblue" stroke="midnightblue" points="463.5,-57.4 467,-67.4 470.5,-57.4 463.5,-57.4"/>
</g>
</g>
</svg>
