<?xml version="1.0" encoding="UTF-8" standalone="no"?>
<!DOCTYPE svg PUBLIC "-//W3C//DTD SVG 1.1//EN"
 "http://www.w3.org/Graphics/SVG/1.1/DTD/svg11.dtd">
<!-- Generated by graphviz version 2.43.0 (0)
 -->
<!-- Title: playerState Pages: 1 -->
<!--zoomable 205 -->
<svg id="main" version="1.1" xmlns="http://www.w3.org/2000/svg" xmlns:xlink="http://www.w3.org/1999/xlink" xml:space="preserve" onload="init(evt)">
<style type="text/css"><![CDATA[
.edge:hover path { stroke: red; }
.edge:hover polygon { stroke: red; fill: red; }
]]></style>
<script type="text/javascript"><![CDATA[
var edges = document.getElementsByTagName('g');
if (edges && edges.length) {
  for (var i=0;i<edges.length;i++) {
    if (edges[i].id.substr(0,4)=='edge') {
      edges[i].setAttribute('class','edge');
    }
  }
}
]]></script>
        <defs>
                <circle id="rim" cx="0" cy="0" r="7"/>
                <circle id="rim2" cx="0" cy="0" r="3.5"/>
                <g id="zoomPlus">
                        <use xlink:href="#rim" fill="#404040">
                                <set attributeName="fill" to="#808080" begin="zoomplus.mouseover" end="zoomplus.mouseout"/>
                        </use>
                        <path d="M-4,0h8M0,-4v8" fill="none" stroke="white" stroke-width="1.5" pointer-events="none"/>
                </g>
                <g id="zoomMin">
                        <use xlink:href="#rim" fill="#404040">
                                <set attributeName="fill" to="#808080" begin="zoomminus.mouseover" end="zoomminus.mouseout"/>
                        </use>
                        <path d="M-4,0h8" fill="none" stroke="white" stroke-width="1.5" pointer-events="none"/>
                </g>
                <g id="dirArrow">
                        <path fill="none" stroke="white" stroke-width="1.5" d="M0,-3.0v7 M-2.5,-0.5L0,-3.0L2.5,-0.5"/>
                </g>
               <g id="resetDef">
                       <use xlink:href="#rim2" fill="#404040">
                               <set attributeName="fill" to="#808080" begin="reset.mouseover" end="reset.mouseout"/>
                       </use>
               </g>
        </defs>

<script type="text/javascript">
var viewWidth = 523;
var viewHeight = 205;
var sectionId = 'dynsection-0';
</script>
<script xlink:href="../../svgpan.js"/>
<svg id="graph" class="graph">
<g id="viewport">
<title>playerState</title>
<!-- Node1 -->
<g id="node1" class="node">
<title>Node1</title>
<g id="a_node1"><a xlink:title=" ">
<polygon fill="#bfbfbf" stroke="black" points="190,-0.5 190,-19.5 263,-19.5 263,-0.5 190,-0.5"/>
<text text-anchor="middle" x="226.5" y="-7.5" font-family="Helvetica,sans-Serif" font-size="10.00">playerState</text>
</a>
</g>
</g>
<!-- Node2 -->
<g id="node2" class="node">
<title>Node2</title>
<g id="a_node2"><a xlink:title=" ">
<polygon fill="none" stroke="#bfbfbf" points="0,-177.5 0,-196.5 81,-196.5 81,-177.5 0,-177.5"/>
<text text-anchor="middle" x="40.5" y="-184.5" font-family="Helvetica,sans-Serif" font-size="10.00">playerState *</text>
</a>
</g>
</g>
<!-- Node2&#45;&gt;Node1 -->
<g id="edge1" class="edge">
<title>Node2&#45;&gt;Node1</title>
<path fill="none" stroke="#9a32cd" stroke-dasharray="5,2" d="M35.65,-167.23C28.81,-135.98 20.55,-73.24 53.5,-38 71.51,-18.74 144.57,-13.18 189.79,-11.6"/>
<polygon fill="#9a32cd" stroke="#9a32cd" points="32.3,-168.3 38.03,-177.21 39.11,-166.68 32.3,-168.3"/>
<text text-anchor="middle" x="86.5" y="-96" font-family="Helvetica,sans-Serif" font-size="10.00"> lockedPlayer</text>
</g>
<!-- Node3 -->
<g id="node3" class="node">
<title>Node3</title>
<g id="a_node3"><a xlink:title=" ">
<polygon fill="none" stroke="#bfbfbf" points="101,-177.5 101,-196.5 158,-196.5 158,-177.5 101,-177.5"/>
<text text-anchor="middle" x="129.5" y="-184.5" font-family="Helvetica,sans-Serif" font-size="10.00">vec3_t *</text>
</a>
</g>
</g>
<!-- Node3&#45;&gt;Node1 -->
<g id="edge2" class="edge">
<title>Node3&#45;&gt;Node1</title>
<path fill="none" stroke="#9a32cd" stroke-dasharray="5,2" d="M126.18,-167.34C121.86,-136.71 118.07,-75.43 148.5,-38 158.62,-25.55 174.82,-18.82 189.84,-15.2"/>
<polygon fill="#9a32cd" stroke="#9a32cd" points="122.77,-168.15 127.8,-177.47 129.68,-167.04 122.77,-168.15"/>
<text text-anchor="middle" x="185.5" y="-96" font-family="Helvetica,sans-Serif" font-size="10.00"> lockedPosition</text>
</g>
<!-- Node4 -->
<g id="node4" class="node">
<title>Node4</title>
<g id="a_node4"><a xlink:href="../../d4/dc3/classfloat.html" target="_top" xlink:title=" ">
<polygon fill="none" stroke="black" points="207.5,-177.5 207.5,-196.5 245.5,-196.5 245.5,-177.5 207.5,-177.5"/>
<text text-anchor="middle" x="226.5" y="-184.5" font-family="Helvetica,sans-Serif" font-size="10.00">float</text>
</a>
</g>
</g>
<!-- Node4&#45;&gt;Node1 -->
<g id="edge3" class="edge">
<title>Node4&#45;&gt;Node1</title>
<path fill="none" stroke="#9a32cd" stroke-dasharray="5,2" d="M226.5,-166.95C226.5,-129.3 226.5,-46.65 226.5,-19.69"/>
<polygon fill="#9a32cd" stroke="#9a32cd" points="223,-167.08 226.5,-177.08 230,-167.08 223,-167.08"/>
<text text-anchor="middle" x="264.5" y="-151" font-family="Helvetica,sans-Serif" font-size="10.00"> viewQuat</text>
<text text-anchor="middle" x="264.5" y="-140" font-family="Helvetica,sans-Serif" font-size="10.00">soarLimit</text>
<text text-anchor="middle" x="264.5" y="-129" font-family="Helvetica,sans-Serif" font-size="10.00">viewangles</text>
<text text-anchor="middle" x="264.5" y="-118" font-family="Helvetica,sans-Serif" font-size="10.00">dashDir</text>
<text text-anchor="middle" x="264.5" y="-107" font-family="Helvetica,sans-Serif" font-size="10.00">origin</text>
<text text-anchor="middle" x="264.5" y="-96" font-family="Helvetica,sans-Serif" font-size="10.00">soarBase</text>
<text text-anchor="middle" x="264.5" y="-85" font-family="Helvetica,sans-Serif" font-size="10.00">velocity</text>
<text text-anchor="middle" x="264.5" y="-74" font-family="Helvetica,sans-Serif" font-size="10.00">baseStats</text>
<text text-anchor="middle" x="264.5" y="-63" font-family="Helvetica,sans-Serif" font-size="10.00">buffers</text>
<text text-anchor="middle" x="264.5" y="-52" font-family="Helvetica,sans-Serif" font-size="10.00">breakLimitRate</text>
<text text-anchor="middle" x="264.5" y="-41" font-family="Helvetica,sans-Serif" font-size="10.00">...</text>
</g>
<!-- Node5 -->
<g id="node5" class="node">
<title>Node5</title>
<g id="a_node5"><a xlink:title=" ">
<polygon fill="none" stroke="#bfbfbf" points="311,-177.5 311,-196.5 340,-196.5 340,-177.5 311,-177.5"/>
<text text-anchor="middle" x="325.5" y="-184.5" font-family="Helvetica,sans-Serif" font-size="10.00">int</text>
</a>
</g>
</g>
<!-- Node5&#45;&gt;Node1 -->
<g id="edge4" class="edge">
<title>Node5&#45;&gt;Node1</title>
<path fill="none" stroke="#9a32cd" stroke-dasharray="5,2" d="M325.06,-167.12C323.87,-131.76 319.48,-57.34 303.5,-38 293.57,-25.99 277.96,-19.31 263.38,-15.61"/>
<polygon fill="#9a32cd" stroke="#9a32cd" points="321.57,-167.59 325.36,-177.48 328.57,-167.39 321.57,-167.59"/>
<text text-anchor="middle" x="372.5" y="-151" font-family="Helvetica,sans-Serif" font-size="10.00"> options</text>
<text text-anchor="middle" x="372.5" y="-140" font-family="Helvetica,sans-Serif" font-size="10.00">states</text>
<text text-anchor="middle" x="372.5" y="-129" font-family="Helvetica,sans-Serif" font-size="10.00">bitFlags</text>
<text text-anchor="middle" x="372.5" y="-118" font-family="Helvetica,sans-Serif" font-size="10.00">eventSequence</text>
<text text-anchor="middle" x="372.5" y="-107" font-family="Helvetica,sans-Serif" font-size="10.00">pm_time</text>
<text text-anchor="middle" x="372.5" y="-96" font-family="Helvetica,sans-Serif" font-size="10.00">running</text>
<text text-anchor="middle" x="372.5" y="-85" font-family="Helvetica,sans-Serif" font-size="10.00">weaponstate</text>
<text text-anchor="middle" x="372.5" y="-74" font-family="Helvetica,sans-Serif" font-size="10.00">pm_type</text>
<text text-anchor="middle" x="372.5" y="-63" font-family="Helvetica,sans-Serif" font-size="10.00">pmove_framecount</text>
<text text-anchor="middle" x="372.5" y="-52" font-family="Helvetica,sans-Serif" font-size="10.00">ping</text>
<text text-anchor="middle" x="372.5" y="-41" font-family="Helvetica,sans-Serif" font-size="10.00">...</text>
</g>
<!-- Node6 -->
<g id="node6" class="node">
<title>Node6</title>
<g id="a_node6"><a xlink:title=" ">
<polygon fill="none" stroke="#bfbfbf" points="425.5,-177.5 425.5,-196.5 463.5,-196.5 463.5,-177.5 425.5,-177.5"/>
<text text-anchor="middle" x="444.5" y="-184.5" font-family="Helvetica,sans-Serif" font-size="10.00">long</text>
</a>
</g>
</g>
<!-- Node6&#45;&gt;Node1 -->
<g id="edge5" class="edge">
<title>Node6&#45;&gt;Node1</title>
<path fill="none" stroke="#9a32cd" stroke-dasharray="5,2" d="M448.02,-167.45C452.81,-136.01 457.2,-72.33 422.5,-38 400.65,-16.38 313.53,-11.79 263.1,-10.99"/>
<polygon fill="#9a32cd" stroke="#9a32cd" points="444.55,-167.02 446.31,-177.46 451.45,-168.19 444.55,-167.02"/>
<text text-anchor="middle" x="482.5" y="-96" font-family="Helvetica,sans-Serif" font-size="10.00"> attackPower</text>
</g>
</g>
</svg>
        <g id="navigator" transform="translate(0 0)" fill="#404254">
                <rect fill="#f2f5e9" fill-opacity="0.5" stroke="#606060" stroke-width=".5" x="0" y="0" width="60" height="60"/>
                <use id="zoomplus" xlink:href="#zoomPlus" x="17" y="9" onmousedown="handleZoom(evt,'in')"/>
                <use id="zoomminus" xlink:href="#zoomMin" x="42" y="9" onmousedown="handleZoom(evt,'out')"/>
                <use id="reset" xlink:href="#resetDef" x="30" y="36" onmousedown="handleReset()"/>
                <g id="arrowUp" xlink:href="#dirArrow" transform="translate(30 24)" onmousedown="handlePan(0,-1)">
                  <use xlink:href="#rim" fill="#404040">
                        <set attributeName="fill" to="#808080" begin="arrowUp.mouseover" end="arrowUp.mouseout"/>
                  </use>
                  <path fill="none" stroke="white" stroke-width="1.5" d="M0,-3.0v7 M-2.5,-0.5L0,-3.0L2.5,-0.5"/>
                </g>
                <g id="arrowRight" xlink:href="#dirArrow" transform="rotate(90) translate(36 -43)" onmousedown="handlePan(1,0)">
                  <use xlink:href="#rim" fill="#404040">
                        <set attributeName="fill" to="#808080" begin="arrowRight.mouseover" end="arrowRight.mouseout"/>
                  </use>
                  <path fill="none" stroke="white" stroke-width="1.5" d="M0,-3.0v7 M-2.5,-0.5L0,-3.0L2.5,-0.5"/>
                </g>
                <g id="arrowDown" xlink:href="#dirArrow" transform="rotate(180) translate(-30 -48)" onmousedown="handlePan(0,1)">
                  <use xlink:href="#rim" fill="#404040">
                        <set attributeName="fill" to="#808080" begin="arrowDown.mouseover" end="arrowDown.mouseout"/>
                  </use>
                  <path fill="none" stroke="white" stroke-width="1.5" d="M0,-3.0v7 M-2.5,-0.5L0,-3.0L2.5,-0.5"/>
                </g>
                <g id="arrowLeft" xlink:href="#dirArrow" transform="rotate(270) translate(-36 17)" onmousedown="handlePan(-1,0)">
                  <use xlink:href="#rim" fill="#404040">
                        <set attributeName="fill" to="#808080" begin="arrowLeft.mouseover" end="arrowLeft.mouseout"/>
                  </use>
                  <path fill="none" stroke="white" stroke-width="1.5" d="M0,-3.0v7 M-2.5,-0.5L0,-3.0L2.5,-0.5"/>
                </g>
        </g>
        <svg viewBox="0 0 15 15" width="100%" height="30px" preserveAspectRatio="xMaxYMin meet">
         <g id="arrow_out" transform="scale(0.3 0.3)">
          <a xlink:href="structplayerState__s__coll__graph_org.svg" target="_base">
           <rect id="button" ry="5" rx="5" y="6" x="6" height="38" width="38"
                fill="#f2f5e9" fill-opacity="0.5" stroke="#606060" stroke-width="1.0"/>
           <path id="arrow"
             d="M 11.500037,31.436501 C 11.940474,20.09759 22.043105,11.32322 32.158766,21.979434 L 37.068811,17.246167 C 37.068811,17.246167 37.088388,32 37.088388,32 L 22.160133,31.978069 C 22.160133,31.978069 26.997745,27.140456 26.997745,27.140456 C 18.528582,18.264221 13.291696,25.230495 11.500037,31.436501 z"
             style="fill:#404040;"/>
          </a>
         </g>
        </svg>
</svg>
