<?xml version="1.0" encoding="UTF-8" standalone="no"?>
<!DOCTYPE svg PUBLIC "-//W3C//DTD SVG 1.1//EN"
 "http://www.w3.org/Graphics/SVG/1.1/DTD/svg11.dtd">
<!-- Generated by graphviz version 2.43.0 (0)
 -->
<!-- Title: _MIDL_FORMAT_STRING Pages: 1 -->
<svg width="143pt" height="95pt"
 viewBox="0.00 0.00 143.00 95.00" xmlns="http://www.w3.org/2000/svg" xmlns:xlink="http://www.w3.org/1999/xlink">
<g id="graph0" class="graph" transform="scale(1 1) rotate(0) translate(4 91)">
<title>_MIDL_FORMAT_STRING</title>
<!-- Node1 -->
<g id="node1" class="node">
<title>Node1</title>
<g id="a_node1"><a xlink:title=" ">
<polygon fill="#bfbfbf" stroke="black" points="0,-0.5 0,-19.5 135,-19.5 135,-0.5 0,-0.5"/>
<text text-anchor="middle" x="67.5" y="-7.5" font-family="Helvetica,sans-Serif" font-size="10.00">_MIDL_FORMAT_STRING</text>
</a>
</g>
</g>
<!-- Node2 -->
<g id="node2" class="node">
<title>Node2</title>
<g id="a_node2"><a xlink:title=" ">
<polygon fill="none" stroke="#bfbfbf" points="18.5,-67.5 18.5,-86.5 56.5,-86.5 56.5,-67.5 18.5,-67.5"/>
<text text-anchor="middle" x="37.5" y="-74.5" font-family="Helvetica,sans-Serif" font-size="10.00">char</text>
</a>
</g>
</g>
<!-- Node2&#45;&gt;Node1 -->
<g id="edge1" class="edge">
<title>Node2&#45;&gt;Node1</title>
<path fill="none" stroke="#9a32cd" stroke-dasharray="5,2" d="M35.13,-57.08C35.08,-50.78 35.85,-43.87 38.5,-38 41.84,-30.6 48.26,-24.29 54.21,-19.63"/>
<polygon fill="#9a32cd" stroke="#9a32cd" points="31.67,-57.72 35.9,-67.43 38.65,-57.2 31.67,-57.72"/>
<text text-anchor="middle" x="57.5" y="-41" font-family="Helvetica,sans-Serif" font-size="10.00"> Format</text>
</g>
<!-- Node3 -->
<g id="node3" class="node">
<title>Node3</title>
<g id="a_node3"><a xlink:title=" ">
<polygon fill="none" stroke="#bfbfbf" points="78,-67.5 78,-86.5 119,-86.5 119,-67.5 78,-67.5"/>
<text text-anchor="middle" x="98.5" y="-74.5" font-family="Helvetica,sans-Serif" font-size="10.00">short</text>
</a>
</g>
</g>
<!-- Node3&#45;&gt;Node1 -->
<g id="edge2" class="edge">
<title>Node3&#45;&gt;Node1</title>
<path fill="none" stroke="#9a32cd" stroke-dasharray="5,2" d="M89.99,-58.16C84.01,-45.63 76.28,-29.41 71.61,-19.63"/>
<polygon fill="#9a32cd" stroke="#9a32cd" points="86.86,-59.71 94.32,-67.23 93.17,-56.7 86.86,-59.71"/>
<text text-anchor="middle" x="95" y="-41" font-family="Helvetica,sans-Serif" font-size="10.00"> Pad</text>
</g>
</g>
</svg>
