<?xml version="1.0" encoding="UTF-8" standalone="no"?>
<!DOCTYPE svg PUBLIC "-//W3C//DTD SVG 1.1//EN"
 "http://www.w3.org/Graphics/SVG/1.1/DTD/svg11.dtd">
<!-- Generated by graphviz version 2.43.0 (0)
 -->
<!-- Title: iterator Pages: 1 -->
<svg width="128pt" height="163pt"
 viewBox="0.00 0.00 128.00 163.00" xmlns="http://www.w3.org/2000/svg" xmlns:xlink="http://www.w3.org/1999/xlink">
<g id="graph0" class="graph" transform="scale(1 1) rotate(0) translate(4 159)">
<title>iterator</title>
<!-- Node1 -->
<g id="node1" class="node">
<title>Node1</title>
<g id="a_node1"><a xlink:title=" ">
<polygon fill="#bfbfbf" stroke="black" points="33.5,-0.5 33.5,-19.5 86.5,-19.5 86.5,-0.5 33.5,-0.5"/>
<text text-anchor="middle" x="60" y="-7.5" font-family="Helvetica,sans-Serif" font-size="10.00">iterator</text>
</a>
</g>
</g>
<!-- Node2 -->
<g id="node2" class="node">
<title>Node2</title>
<g id="a_node2"><a xlink:href="../../d0/d9e/structconst__iterator.html" target="_top" xlink:title=" ">
<polygon fill="none" stroke="black" points="18,-57.5 18,-76.5 102,-76.5 102,-57.5 18,-57.5"/>
<text text-anchor="middle" x="60" y="-64.5" font-family="Helvetica,sans-Serif" font-size="10.00">const_iterator</text>
</a>
</g>
</g>
<!-- Node2&#45;&gt;Node1 -->
<g id="edge1" class="edge">
<title>Node2&#45;&gt;Node1</title>
<path fill="none" stroke="midnightblue" d="M60,-47.12C60,-37.82 60,-27.06 60,-19.71"/>
<polygon fill="midnightblue" stroke="midnightblue" points="56.5,-47.41 60,-57.41 63.5,-47.41 56.5,-47.41"/>
</g>
<!-- Node3 -->
<g id="node3" class="node">
<title>Node3</title>
<g id="a_node3"><a xlink:title=" ">
<polygon fill="none" stroke="#bfbfbf" points="0,-135.5 0,-154.5 120,-154.5 120,-135.5 0,-135.5"/>
<text text-anchor="middle" x="60" y="-142.5" font-family="Helvetica,sans-Serif" font-size="10.00">node_pointer_pointer</text>
</a>
</g>
</g>
<!-- Node3&#45;&gt;Node2 -->
<g id="edge2" class="edge">
<title>Node3&#45;&gt;Node2</title>
<path fill="none" stroke="#9a32cd" stroke-dasharray="5,2" d="M60,-125.22C60,-109.7 60,-88.36 60,-76.62"/>
<polygon fill="#9a32cd" stroke="#9a32cd" points="56.5,-125.28 60,-135.28 63.5,-125.28 56.5,-125.28"/>
<text text-anchor="middle" x="88" y="-109" font-family="Helvetica,sans-Serif" font-size="10.00"> m_p_p_cur</text>
<text text-anchor="middle" x="88" y="-98" font-family="Helvetica,sans-Serif" font-size="10.00">m_p_p_end</text>
</g>
</g>
</svg>
