<?xml version="1.0" encoding="UTF-8" standalone="no"?>
<!DOCTYPE svg PUBLIC "-//W3C//DTD SVG 1.1//EN"
 "http://www.w3.org/Graphics/SVG/1.1/DTD/svg11.dtd">
<!-- Generated by graphviz version 2.43.0 (0)
 -->
<!-- Title: bfd_elf_version_expr_head Pages: 1 -->
<svg width="278pt" height="206pt"
 viewBox="0.00 0.00 278.00 206.00" xmlns="http://www.w3.org/2000/svg" xmlns:xlink="http://www.w3.org/1999/xlink">
<g id="graph0" class="graph" transform="scale(1 1) rotate(0) translate(4 202)">
<title>bfd_elf_version_expr_head</title>
<!-- Node1 -->
<g id="node1" class="node">
<title>Node1</title>
<g id="a_node1"><a xlink:title=" ">
<polygon fill="#bfbfbf" stroke="black" points="42,-0.5 42,-19.5 190,-19.5 190,-0.5 42,-0.5"/>
<text text-anchor="middle" x="116" y="-7.5" font-family="Helvetica,sans-Serif" font-size="10.00">bfd_elf_version_expr_head</text>
</a>
</g>
</g>
<!-- Node2 -->
<g id="node2" class="node">
<title>Node2</title>
<g id="a_node2"><a xlink:title=" ">
<polygon fill="none" stroke="#bfbfbf" points="0,-78.5 0,-97.5 38,-97.5 38,-78.5 0,-78.5"/>
<text text-anchor="middle" x="19" y="-85.5" font-family="Helvetica,sans-Serif" font-size="10.00">void</text>
</a>
</g>
</g>
<!-- Node2&#45;&gt;Node1 -->
<g id="edge1" class="edge">
<title>Node2&#45;&gt;Node1</title>
<path fill="none" stroke="#9a32cd" stroke-dasharray="5,2" d="M38.22,-71.94C58.2,-56.28 88.78,-32.33 105,-19.62"/>
<polygon fill="#9a32cd" stroke="#9a32cd" points="35.84,-69.36 30.13,-78.28 40.16,-74.87 35.84,-69.36"/>
<text text-anchor="middle" x="92.5" y="-46.5" font-family="Helvetica,sans-Serif" font-size="10.00"> htab</text>
</g>
<!-- Node3 -->
<g id="node3" class="node">
<title>Node3</title>
<g id="a_node3"><a xlink:href="../../df/d9c/structbfd__elf__version__expr.html" target="_top" xlink:title=" ">
<polygon fill="none" stroke="black" points="56.5,-78.5 56.5,-97.5 175.5,-97.5 175.5,-78.5 56.5,-78.5"/>
<text text-anchor="middle" x="116" y="-85.5" font-family="Helvetica,sans-Serif" font-size="10.00">bfd_elf_version_expr</text>
</a>
</g>
</g>
<!-- Node3&#45;&gt;Node1 -->
<g id="edge2" class="edge">
<title>Node3&#45;&gt;Node1</title>
<path fill="none" stroke="#9a32cd" stroke-dasharray="5,2" d="M116,-68.22C116,-52.7 116,-31.36 116,-19.62"/>
<polygon fill="#9a32cd" stroke="#9a32cd" points="112.5,-68.28 116,-78.28 119.5,-68.28 112.5,-68.28"/>
<text text-anchor="middle" x="141" y="-52" font-family="Helvetica,sans-Serif" font-size="10.00"> list</text>
<text text-anchor="middle" x="141" y="-41" font-family="Helvetica,sans-Serif" font-size="10.00">remaining</text>
</g>
<!-- Node3&#45;&gt;Node3 -->
<g id="edge4" class="edge">
<title>Node3&#45;&gt;Node3</title>
<path fill="none" stroke="#9a32cd" stroke-dasharray="5,2" d="M185.98,-93.11C190.66,-91.93 193.5,-90.23 193.5,-88 193.5,-84.44 186.23,-82.21 175.79,-81.32"/>
<polygon fill="#9a32cd" stroke="#9a32cd" points="185.14,-89.7 175.79,-94.68 186.21,-96.62 185.14,-89.7"/>
<text text-anchor="middle" x="206" y="-85.5" font-family="Helvetica,sans-Serif" font-size="10.00"> next</text>
</g>
<!-- Node4 -->
<g id="node4" class="node">
<title>Node4</title>
<g id="a_node4"><a xlink:title=" ">
<polygon fill="none" stroke="#bfbfbf" points="97,-178.5 97,-197.5 135,-197.5 135,-178.5 97,-178.5"/>
<text text-anchor="middle" x="116" y="-185.5" font-family="Helvetica,sans-Serif" font-size="10.00">char</text>
</a>
</g>
</g>
<!-- Node4&#45;&gt;Node3 -->
<g id="edge3" class="edge">
<title>Node4&#45;&gt;Node3</title>
<path fill="none" stroke="#9a32cd" stroke-dasharray="5,2" d="M116,-168.22C116,-146.95 116,-113.22 116,-97.54"/>
<polygon fill="#9a32cd" stroke="#9a32cd" points="112.5,-168.3 116,-178.3 119.5,-168.3 112.5,-168.3"/>
<text text-anchor="middle" x="135.5" y="-135.5" font-family="Helvetica,sans-Serif" font-size="10.00"> pattern</text>
</g>
<!-- Node5 -->
<g id="node5" class="node">
<title>Node5</title>
<g id="a_node5"><a xlink:title=" ">
<polygon fill="none" stroke="#bfbfbf" points="186.5,-178.5 186.5,-197.5 247.5,-197.5 247.5,-178.5 186.5,-178.5"/>
<text text-anchor="middle" x="217" y="-185.5" font-family="Helvetica,sans-Serif" font-size="10.00">unsigned</text>
</a>
</g>
</g>
<!-- Node5&#45;&gt;Node1 -->
<g id="edge6" class="edge">
<title>Node5&#45;&gt;Node1</title>
<path fill="none" stroke="#9a32cd" stroke-dasharray="5,2" d="M234.14,-170.42C236.54,-167.21 238.64,-163.68 240,-160 252.75,-125.37 249.16,-107.5 227,-78 205.1,-48.84 166.47,-29.76 141.05,-19.67"/>
<polygon fill="#9a32cd" stroke="#9a32cd" points="231.36,-168.28 227.42,-178.11 236.63,-172.88 231.36,-168.28"/>
<text text-anchor="middle" x="254.5" y="-85.5" font-family="Helvetica,sans-Serif" font-size="10.00"> mask</text>
</g>
<!-- Node5&#45;&gt;Node3 -->
<g id="edge5" class="edge">
<title>Node5&#45;&gt;Node3</title>
<path fill="none" stroke="#9a32cd" stroke-dasharray="5,2" d="M205.47,-169.9C194.64,-154.63 177.38,-132.23 159,-116 150.94,-108.88 140.79,-102.42 132.38,-97.6"/>
<polygon fill="#9a32cd" stroke="#9a32cd" points="202.77,-172.15 211.34,-178.37 208.52,-168.16 202.77,-172.15"/>
<text text-anchor="middle" x="217.5" y="-152" font-family="Helvetica,sans-Serif" font-size="10.00"> literal</text>
<text text-anchor="middle" x="217.5" y="-141" font-family="Helvetica,sans-Serif" font-size="10.00">symver</text>
<text text-anchor="middle" x="217.5" y="-130" font-family="Helvetica,sans-Serif" font-size="10.00">script</text>
<text text-anchor="middle" x="217.5" y="-119" font-family="Helvetica,sans-Serif" font-size="10.00">mask</text>
</g>
</g>
</svg>
