<?xml version="1.0" encoding="UTF-8" standalone="no"?>
<!DOCTYPE svg PUBLIC "-//W3C//DTD SVG 1.1//EN"
 "http://www.w3.org/Graphics/SVG/1.1/DTD/svg11.dtd">
<!-- Generated by graphviz version 2.43.0 (0)
 -->
<!-- Title: Tools/MinGW/include/c++/4.6.1/ext/ropeimpl.h Pages: 1 -->
<svg width="542pt" height="207pt"
 viewBox="0.00 0.00 541.50 207.00" xmlns="http://www.w3.org/2000/svg" xmlns:xlink="http://www.w3.org/1999/xlink">
<g id="graph0" class="graph" transform="scale(1 1) rotate(0) translate(4 203)">
<title>Tools/MinGW/include/c++/4.6.1/ext/ropeimpl.h</title>
<!-- Node1 -->
<g id="node1" class="node">
<title>Node1</title>
<g id="a_node1"><a xlink:title=" ">
<polygon fill="#bfbfbf" stroke="black" points="176.5,-168.5 176.5,-198.5 319.5,-198.5 319.5,-168.5 176.5,-168.5"/>
<text text-anchor="start" x="184.5" y="-186.5" font-family="Helvetica,sans-Serif" font-size="10.00">Tools/MinGW/include</text>
<text text-anchor="middle" x="248" y="-175.5" font-family="Helvetica,sans-Serif" font-size="10.00">/c++/4.6.1/ext/ropeimpl.h</text>
</a>
</g>
</g>
<!-- Node2 -->
<g id="node2" class="node">
<title>Node2</title>
<g id="a_node2"><a xlink:title=" ">
<polygon fill="none" stroke="#bfbfbf" points="0,-112.5 0,-131.5 46,-131.5 46,-112.5 0,-112.5"/>
<text text-anchor="middle" x="23" y="-119.5" font-family="Helvetica,sans-Serif" font-size="10.00">cstdio</text>
</a>
</g>
</g>
<!-- Node1&#45;&gt;Node2 -->
<g id="edge1" class="edge">
<title>Node1&#45;&gt;Node2</title>
<path fill="none" stroke="midnightblue" d="M193.02,-168.4C156.63,-159 107.61,-146.22 55.77,-132.18"/>
<polygon fill="midnightblue" stroke="midnightblue" points="56.63,-128.78 46.06,-129.54 54.79,-135.54 56.63,-128.78"/>
</g>
<!-- Node3 -->
<g id="node3" class="node">
<title>Node3</title>
<g id="a_node3"><a xlink:title=" ">
<polygon fill="none" stroke="#bfbfbf" points="64.5,-112.5 64.5,-131.5 121.5,-131.5 121.5,-112.5 64.5,-112.5"/>
<text text-anchor="middle" x="93" y="-119.5" font-family="Helvetica,sans-Serif" font-size="10.00">ostream</text>
</a>
</g>
</g>
<!-- Node1&#45;&gt;Node3 -->
<g id="edge2" class="edge">
<title>Node1&#45;&gt;Node3</title>
<path fill="none" stroke="midnightblue" d="M211.27,-168.4C185.03,-158.33 150.07,-144.91 124.98,-135.28"/>
<polygon fill="midnightblue" stroke="midnightblue" points="126.14,-131.97 115.55,-131.66 123.64,-138.51 126.14,-131.97"/>
</g>
<!-- Node4 -->
<g id="node4" class="node">
<title>Node4</title>
<g id="a_node4"><a xlink:href="../../d8/dda/functexcept_8h.html" target="_top" xlink:title=" ">
<polygon fill="none" stroke="black" points="140,-112.5 140,-131.5 244,-131.5 244,-112.5 140,-112.5"/>
<text text-anchor="middle" x="192" y="-119.5" font-family="Helvetica,sans-Serif" font-size="10.00">bits/functexcept.h</text>
</a>
</g>
</g>
<!-- Node1&#45;&gt;Node4 -->
<g id="edge3" class="edge">
<title>Node1&#45;&gt;Node4</title>
<path fill="none" stroke="midnightblue" d="M234.73,-168.4C226.42,-159.58 215.7,-148.18 207.08,-139.02"/>
<polygon fill="midnightblue" stroke="midnightblue" points="209.55,-136.54 200.15,-131.66 204.45,-141.34 209.55,-136.54"/>
</g>
<!-- Node9 -->
<g id="node9" class="node">
<title>Node9</title>
<g id="a_node9"><a xlink:title=" ">
<polygon fill="none" stroke="#bfbfbf" points="262.5,-112.5 262.5,-131.5 345.5,-131.5 345.5,-112.5 262.5,-112.5"/>
<text text-anchor="middle" x="304" y="-119.5" font-family="Helvetica,sans-Serif" font-size="10.00">ext/algorithm</text>
</a>
</g>
</g>
<!-- Node1&#45;&gt;Node9 -->
<g id="edge8" class="edge">
<title>Node1&#45;&gt;Node9</title>
<path fill="none" stroke="midnightblue" d="M261.27,-168.4C269.58,-159.58 280.3,-148.18 288.92,-139.02"/>
<polygon fill="midnightblue" stroke="midnightblue" points="291.55,-141.34 295.85,-131.66 286.45,-136.54 291.55,-141.34"/>
</g>
<!-- Node10 -->
<g id="node10" class="node">
<title>Node10</title>
<g id="a_node10"><a xlink:title=" ">
<polygon fill="none" stroke="#bfbfbf" points="363.5,-112.5 363.5,-131.5 440.5,-131.5 440.5,-112.5 363.5,-112.5"/>
<text text-anchor="middle" x="402" y="-119.5" font-family="Helvetica,sans-Serif" font-size="10.00">ext/memory</text>
</a>
</g>
</g>
<!-- Node1&#45;&gt;Node10 -->
<g id="edge9" class="edge">
<title>Node1&#45;&gt;Node10</title>
<path fill="none" stroke="midnightblue" d="M284.5,-168.4C310.57,-158.33 345.29,-144.91 370.22,-135.28"/>
<polygon fill="midnightblue" stroke="midnightblue" points="371.53,-138.53 379.59,-131.66 369,-132 371.53,-138.53"/>
</g>
<!-- Node11 -->
<g id="node11" class="node">
<title>Node11</title>
<g id="a_node11"><a xlink:title=" ">
<polygon fill="none" stroke="#bfbfbf" points="458.5,-112.5 458.5,-131.5 533.5,-131.5 533.5,-112.5 458.5,-112.5"/>
<text text-anchor="middle" x="496" y="-119.5" font-family="Helvetica,sans-Serif" font-size="10.00">ext/numeric</text>
</a>
</g>
</g>
<!-- Node1&#45;&gt;Node11 -->
<g id="edge10" class="edge">
<title>Node1&#45;&gt;Node11</title>
<path fill="none" stroke="midnightblue" d="M306.46,-168.47C350.55,-157.9 410.16,-143.59 450.68,-133.87"/>
<polygon fill="midnightblue" stroke="midnightblue" points="451.64,-137.24 460.54,-131.51 450,-130.44 451.64,-137.24"/>
</g>
<!-- Node5 -->
<g id="node5" class="node">
<title>Node5</title>
<g id="a_node5"><a xlink:href="../../d1/db9/c_09_09config_8h.html" target="_top" xlink:title=" ">
<polygon fill="none" stroke="black" points="75,-56.5 75,-75.5 173,-75.5 173,-56.5 75,-56.5"/>
<text text-anchor="middle" x="124" y="-63.5" font-family="Helvetica,sans-Serif" font-size="10.00">bits/c++config.h</text>
</a>
</g>
</g>
<!-- Node4&#45;&gt;Node5 -->
<g id="edge4" class="edge">
<title>Node4&#45;&gt;Node5</title>
<path fill="none" stroke="midnightblue" d="M181.07,-112.32C170.83,-104.18 155.28,-91.84 143,-82.09"/>
<polygon fill="midnightblue" stroke="midnightblue" points="145.13,-79.31 135.12,-75.83 140.78,-84.79 145.13,-79.31"/>
</g>
<!-- Node8 -->
<g id="node8" class="node">
<title>Node8</title>
<g id="a_node8"><a xlink:href="../../de/d22/exception__defines_8h.html" target="_top" xlink:title=" ">
<polygon fill="none" stroke="black" points="191.5,-56.5 191.5,-75.5 326.5,-75.5 326.5,-56.5 191.5,-56.5"/>
<text text-anchor="middle" x="259" y="-63.5" font-family="Helvetica,sans-Serif" font-size="10.00">bits/exception_defines.h</text>
</a>
</g>
</g>
<!-- Node4&#45;&gt;Node8 -->
<g id="edge7" class="edge">
<title>Node4&#45;&gt;Node8</title>
<path fill="none" stroke="midnightblue" d="M202.76,-112.32C212.77,-104.26 227.89,-92.08 239.93,-82.37"/>
<polygon fill="midnightblue" stroke="midnightblue" points="242.45,-84.83 248.04,-75.83 238.06,-79.38 242.45,-84.83"/>
</g>
<!-- Node6 -->
<g id="node6" class="node">
<title>Node6</title>
<g id="a_node6"><a xlink:href="../../d5/d0b/os__defines_8h.html" target="_top" xlink:title=" ">
<polygon fill="none" stroke="black" points="16,-0.5 16,-19.5 114,-19.5 114,-0.5 16,-0.5"/>
<text text-anchor="middle" x="65" y="-7.5" font-family="Helvetica,sans-Serif" font-size="10.00">bits/os_defines.h</text>
</a>
</g>
</g>
<!-- Node5&#45;&gt;Node6 -->
<g id="edge5" class="edge">
<title>Node5&#45;&gt;Node6</title>
<path fill="none" stroke="midnightblue" d="M114.52,-56.32C105.8,-48.34 92.66,-36.31 82.1,-26.65"/>
<polygon fill="midnightblue" stroke="midnightblue" points="84.39,-24 74.65,-19.83 79.67,-29.17 84.39,-24"/>
</g>
<!-- Node7 -->
<g id="node7" class="node">
<title>Node7</title>
<g id="a_node7"><a xlink:href="../../d0/d75/cpu__defines_8h.html" target="_top" xlink:title=" ">
<polygon fill="none" stroke="black" points="132,-0.5 132,-19.5 236,-19.5 236,-0.5 132,-0.5"/>
<text text-anchor="middle" x="184" y="-7.5" font-family="Helvetica,sans-Serif" font-size="10.00">bits/cpu_defines.h</text>
</a>
</g>
</g>
<!-- Node5&#45;&gt;Node7 -->
<g id="edge6" class="edge">
<title>Node5&#45;&gt;Node7</title>
<path fill="none" stroke="midnightblue" d="M133.64,-56.32C142.51,-48.34 155.87,-36.31 166.61,-26.65"/>
<polygon fill="midnightblue" stroke="midnightblue" points="169.09,-29.13 174.18,-19.83 164.41,-23.92 169.09,-29.13"/>
</g>
</g>
</svg>
