<?xml version="1.0" encoding="UTF-8" standalone="no"?>
<!DOCTYPE svg PUBLIC "-//W3C//DTD SVG 1.1//EN"
 "http://www.w3.org/Graphics/SVG/1.1/DTD/svg11.dtd">
<!-- Generated by graphviz version 2.43.0 (0)
 -->
<!-- Title: _NDIS_GUID Pages: 1 -->
<svg width="353pt" height="169pt"
 viewBox="0.00 0.00 353.00 169.00" xmlns="http://www.w3.org/2000/svg" xmlns:xlink="http://www.w3.org/1999/xlink">
<g id="graph0" class="graph" transform="scale(1 1) rotate(0) translate(4 165)">
<title>_NDIS_GUID</title>
<!-- Node1 -->
<g id="node1" class="node">
<title>Node1</title>
<g id="a_node1"><a xlink:title=" ">
<polygon fill="#bfbfbf" stroke="black" points="268,-84.5 268,-103.5 345,-103.5 345,-84.5 268,-84.5"/>
<text text-anchor="middle" x="306.5" y="-91.5" font-family="Helvetica,sans-Serif" font-size="10.00">_NDIS_GUID</text>
</a>
</g>
</g>
<!-- Node2 -->
<g id="node2" class="node">
<title>Node2</title>
<g id="a_node2"><a xlink:title=" ">
<polygon fill="none" stroke="#bfbfbf" points="57.5,-141.5 57.5,-160.5 140.5,-160.5 140.5,-141.5 57.5,-141.5"/>
<text text-anchor="middle" x="99" y="-148.5" font-family="Helvetica,sans-Serif" font-size="10.00">anonymous:u</text>
</a>
</g>
</g>
<!-- Node2&#45;&gt;Node1 -->
<g id="edge1" class="edge">
<title>Node2&#45;&gt;Node1</title>
<path fill="none" stroke="#9a32cd" stroke-dasharray="5,2" d="M151,-142.18C166.19,-139.27 182.84,-135.79 198,-132 221.46,-126.13 227.19,-124.02 250,-116 260.85,-112.19 272.73,-107.54 282.7,-103.51"/>
<polygon fill="#9a32cd" stroke="#9a32cd" points="149.93,-138.82 140.74,-144.11 151.22,-145.7 149.93,-138.82"/>
<text text-anchor="middle" x="233" y="-130" font-family="Helvetica,sans-Serif" font-size="10.00"> u</text>
</g>
<!-- Node3 -->
<g id="node3" class="node">
<title>Node3</title>
<g id="a_node3"><a xlink:title=" ">
<polygon fill="none" stroke="#bfbfbf" points="84.5,-103.5 84.5,-122.5 113.5,-122.5 113.5,-103.5 84.5,-103.5"/>
<text text-anchor="middle" x="99" y="-110.5" font-family="Helvetica,sans-Serif" font-size="10.00">int</text>
</a>
</g>
</g>
<!-- Node3&#45;&gt;Node1 -->
<g id="edge2" class="edge">
<title>Node3&#45;&gt;Node1</title>
<path fill="none" stroke="#9a32cd" stroke-dasharray="5,2" d="M124.15,-110.77C159.61,-107.49 226.07,-101.34 267.93,-97.47"/>
<polygon fill="#9a32cd" stroke="#9a32cd" points="123.44,-107.32 113.8,-111.72 124.08,-114.29 123.44,-107.32"/>
<text text-anchor="middle" x="233" y="-104" font-family="Helvetica,sans-Serif" font-size="10.00"> Status</text>
</g>
<!-- Node4 -->
<g id="node4" class="node">
<title>Node4</title>
<g id="a_node4"><a xlink:title=" ">
<polygon fill="none" stroke="#bfbfbf" points="78,-65.5 78,-84.5 120,-84.5 120,-65.5 78,-65.5"/>
<text text-anchor="middle" x="99" y="-72.5" font-family="Helvetica,sans-Serif" font-size="10.00">GUID</text>
</a>
</g>
</g>
<!-- Node4&#45;&gt;Node1 -->
<g id="edge3" class="edge">
<title>Node4&#45;&gt;Node1</title>
<path fill="none" stroke="#9a32cd" stroke-dasharray="5,2" d="M130.82,-75.78C161.21,-76.81 208.93,-79.09 250,-84 255.83,-84.7 261.98,-85.62 267.97,-86.62"/>
<polygon fill="#9a32cd" stroke="#9a32cd" points="130.55,-72.27 120.45,-75.46 130.33,-79.27 130.55,-72.27"/>
<text text-anchor="middle" x="233" y="-87" font-family="Helvetica,sans-Serif" font-size="10.00"> Guid</text>
</g>
<!-- Node5 -->
<g id="node5" class="node">
<title>Node5</title>
<g id="a_node5"><a xlink:title=" ">
<polygon fill="none" stroke="#bfbfbf" points="0,-0.5 0,-41.5 198,-41.5 198,-0.5 0,-0.5"/>
<text text-anchor="start" x="8" y="-29.5" font-family="Helvetica,sans-Serif" font-size="10.00">PSecurityUserData *typedef</text>
<text text-anchor="start" x="8" y="-18.5" font-family="Helvetica,sans-Serif" font-size="10.00"> PSECPKG_EXTENDED_INFORMATION</text>
<text text-anchor="middle" x="99" y="-7.5" font-family="Helvetica,sans-Serif" font-size="10.00"> *typedef</text>
</a>
</g>
</g>
<!-- Node5&#45;&gt;Node1 -->
<g id="edge4" class="edge">
<title>Node5&#45;&gt;Node1</title>
<path fill="none" stroke="#9a32cd" stroke-dasharray="5,2" d="M208.16,-28.91C222.63,-32.24 236.97,-36.79 250,-43 270.32,-52.68 288.39,-72.37 298.06,-84.26"/>
<polygon fill="#9a32cd" stroke="#9a32cd" points="208.63,-25.43 198.12,-26.79 207.19,-32.28 208.63,-25.43"/>
<text text-anchor="middle" x="233" y="-68" font-family="Helvetica,sans-Serif" font-size="10.00"> Size</text>
<text text-anchor="middle" x="233" y="-57" font-family="Helvetica,sans-Serif" font-size="10.00">Flags</text>
<text text-anchor="middle" x="233" y="-46" font-family="Helvetica,sans-Serif" font-size="10.00">Oid</text>
</g>
</g>
</svg>
