<?xml version="1.0" encoding="UTF-8" standalone="no"?>
<!DOCTYPE svg PUBLIC "-//W3C//DTD SVG 1.1//EN"
 "http://www.w3.org/Graphics/SVG/1.1/DTD/svg11.dtd">
<!-- Generated by graphviz version 2.43.0 (0)
 -->
<!-- Title: _numberfmtA Pages: 1 -->
<svg width="194pt" height="128pt"
 viewBox="0.00 0.00 194.00 128.00" xmlns="http://www.w3.org/2000/svg" xmlns:xlink="http://www.w3.org/1999/xlink">
<g id="graph0" class="graph" transform="scale(1 1) rotate(0) translate(4 124)">
<title>_numberfmtA</title>
<!-- Node1 -->
<g id="node1" class="node">
<title>Node1</title>
<g id="a_node1"><a xlink:title=" ">
<polygon fill="#bfbfbf" stroke="black" points="27.5,-0.5 27.5,-19.5 110.5,-19.5 110.5,-0.5 27.5,-0.5"/>
<text text-anchor="middle" x="69" y="-7.5" font-family="Helvetica,sans-Serif" font-size="10.00">_numberfmtA</text>
</a>
</g>
</g>
<!-- Node2 -->
<g id="node2" class="node">
<title>Node2</title>
<g id="a_node2"><a xlink:title=" ">
<polygon fill="none" stroke="#bfbfbf" points="0,-100.5 0,-119.5 38,-119.5 38,-100.5 0,-100.5"/>
<text text-anchor="middle" x="19" y="-107.5" font-family="Helvetica,sans-Serif" font-size="10.00">char</text>
</a>
</g>
</g>
<!-- Node2&#45;&gt;Node1 -->
<g id="edge1" class="edge">
<title>Node2&#45;&gt;Node1</title>
<path fill="none" stroke="#9a32cd" stroke-dasharray="5,2" d="M14.38,-90.17C11.75,-74.99 10.6,-53.67 20,-38 25,-29.67 33.57,-23.73 42.16,-19.58"/>
<polygon fill="#9a32cd" stroke="#9a32cd" points="11.05,-91.32 16.54,-100.39 17.9,-89.88 11.05,-91.32"/>
<text text-anchor="middle" x="59" y="-63" font-family="Helvetica,sans-Serif" font-size="10.00"> lpThousandSep</text>
<text text-anchor="middle" x="59" y="-52" font-family="Helvetica,sans-Serif" font-size="10.00">lpDecimalSep</text>
</g>
<!-- Node3 -->
<g id="node3" class="node">
<title>Node3</title>
<g id="a_node3"><a xlink:title=" ">
<polygon fill="none" stroke="#bfbfbf" points="105.5,-100.5 105.5,-119.5 134.5,-119.5 134.5,-100.5 105.5,-100.5"/>
<text text-anchor="middle" x="120" y="-107.5" font-family="Helvetica,sans-Serif" font-size="10.00">int</text>
</a>
</g>
</g>
<!-- Node3&#45;&gt;Node1 -->
<g id="edge2" class="edge">
<title>Node3&#45;&gt;Node1</title>
<path fill="none" stroke="#9a32cd" stroke-dasharray="5,2" d="M116.89,-89.97C113.82,-74.98 108.06,-54.02 98,-38 93.54,-30.89 86.74,-24.43 80.85,-19.61"/>
<polygon fill="#9a32cd" stroke="#9a32cd" points="113.5,-90.88 118.75,-100.08 120.39,-89.61 113.5,-90.88"/>
<text text-anchor="middle" x="150" y="-74" font-family="Helvetica,sans-Serif" font-size="10.00"> Grouping</text>
<text text-anchor="middle" x="150" y="-63" font-family="Helvetica,sans-Serif" font-size="10.00">LeadingZero</text>
<text text-anchor="middle" x="150" y="-52" font-family="Helvetica,sans-Serif" font-size="10.00">NegativeOrder</text>
<text text-anchor="middle" x="150" y="-41" font-family="Helvetica,sans-Serif" font-size="10.00">NumDigits</text>
</g>
</g>
</svg>
