<?xml version="1.0" encoding="UTF-8" standalone="no"?>
<!DOCTYPE svg PUBLIC "-//W3C//DTD SVG 1.1//EN"
 "http://www.w3.org/Graphics/SVG/1.1/DTD/svg11.dtd">
<!-- Generated by graphviz version 2.43.0 (0)
 -->
<!-- Title: tagDISPPARAMS Pages: 1 -->
<svg width="294pt" height="106pt"
 viewBox="0.00 0.00 293.50 106.00" xmlns="http://www.w3.org/2000/svg" xmlns:xlink="http://www.w3.org/1999/xlink">
<g id="graph0" class="graph" transform="scale(1 1) rotate(0) translate(4 102)">
<title>tagDISPPARAMS</title>
<!-- Node1 -->
<g id="node1" class="node">
<title>Node1</title>
<g id="a_node1"><a xlink:title=" ">
<polygon fill="#bfbfbf" stroke="black" points="60,-0.5 60,-19.5 155,-19.5 155,-0.5 60,-0.5"/>
<text text-anchor="middle" x="107.5" y="-7.5" font-family="Helvetica,sans-Serif" font-size="10.00">tagDISPPARAMS</text>
</a>
</g>
</g>
<!-- Node2 -->
<g id="node2" class="node">
<title>Node2</title>
<g id="a_node2"><a xlink:title=" ">
<polygon fill="none" stroke="#bfbfbf" points="0,-78.5 0,-97.5 59,-97.5 59,-78.5 0,-78.5"/>
<text text-anchor="middle" x="29.5" y="-85.5" font-family="Helvetica,sans-Serif" font-size="10.00">VARIANT</text>
</a>
</g>
</g>
<!-- Node2&#45;&gt;Node1 -->
<g id="edge1" class="edge">
<title>Node2&#45;&gt;Node1</title>
<path fill="none" stroke="#9a32cd" stroke-dasharray="5,2" d="M41.02,-70.13C48.26,-60.17 58.17,-47.67 68.5,-38 75.96,-31.02 85.34,-24.47 93.03,-19.57"/>
<polygon fill="#9a32cd" stroke="#9a32cd" points="38.08,-68.21 35.18,-78.4 43.8,-72.25 38.08,-68.21"/>
<text text-anchor="middle" x="86" y="-46.5" font-family="Helvetica,sans-Serif" font-size="10.00"> rgvarg</text>
</g>
<!-- Node3 -->
<g id="node3" class="node">
<title>Node3</title>
<g id="a_node3"><a xlink:title=" ">
<polygon fill="none" stroke="#bfbfbf" points="77,-78.5 77,-97.5 138,-97.5 138,-78.5 77,-78.5"/>
<text text-anchor="middle" x="107.5" y="-85.5" font-family="Helvetica,sans-Serif" font-size="10.00">unsigned</text>
</a>
</g>
</g>
<!-- Node3&#45;&gt;Node1 -->
<g id="edge2" class="edge">
<title>Node3&#45;&gt;Node1</title>
<path fill="none" stroke="#9a32cd" stroke-dasharray="5,2" d="M107.5,-68.22C107.5,-52.7 107.5,-31.36 107.5,-19.62"/>
<polygon fill="#9a32cd" stroke="#9a32cd" points="104,-68.28 107.5,-78.28 111,-68.28 104,-68.28"/>
<text text-anchor="middle" x="139" y="-52" font-family="Helvetica,sans-Serif" font-size="10.00"> cArgs</text>
<text text-anchor="middle" x="139" y="-41" font-family="Helvetica,sans-Serif" font-size="10.00">cNamedArgs</text>
</g>
<!-- Node4 -->
<g id="node4" class="node">
<title>Node4</title>
<g id="a_node4"><a xlink:title=" ">
<polygon fill="none" stroke="#bfbfbf" points="164.5,-78.5 164.5,-97.5 222.5,-97.5 222.5,-78.5 164.5,-78.5"/>
<text text-anchor="middle" x="193.5" y="-85.5" font-family="Helvetica,sans-Serif" font-size="10.00">DISPID *</text>
</a>
</g>
</g>
<!-- Node4&#45;&gt;Node1 -->
<g id="edge3" class="edge">
<title>Node4&#45;&gt;Node1</title>
<path fill="none" stroke="#9a32cd" stroke-dasharray="5,2" d="M188.77,-68.35C185.39,-58.27 179.92,-46.23 171.5,-38 162.96,-29.65 151.46,-23.73 140.56,-19.59"/>
<polygon fill="#9a32cd" stroke="#9a32cd" points="185.5,-69.64 191.65,-78.26 192.22,-67.68 185.5,-69.64"/>
<text text-anchor="middle" x="235.5" y="-46.5" font-family="Helvetica,sans-Serif" font-size="10.00"> rgdispidNamedArgs</text>
</g>
</g>
</svg>
