<?xml version="1.0" encoding="UTF-8" standalone="no"?>
<!DOCTYPE svg PUBLIC "-//W3C//DTD SVG 1.1//EN"
 "http://www.w3.org/Graphics/SVG/1.1/DTD/svg11.dtd">
<!-- Generated by graphviz version 2.43.0 (0)
 -->
<!-- Title: tagFORMATETC Pages: 1 -->
<svg width="285pt" height="117pt"
 viewBox="0.00 0.00 284.50 117.00" xmlns="http://www.w3.org/2000/svg" xmlns:xlink="http://www.w3.org/1999/xlink">
<g id="graph0" class="graph" transform="scale(1 1) rotate(0) translate(4 113)">
<title>tagFORMATETC</title>
<!-- Node1 -->
<g id="node1" class="node">
<title>Node1</title>
<g id="a_node1"><a xlink:title=" ">
<polygon fill="#bfbfbf" stroke="black" points="117.5,-0.5 117.5,-19.5 209.5,-19.5 209.5,-0.5 117.5,-0.5"/>
<text text-anchor="middle" x="163.5" y="-7.5" font-family="Helvetica,sans-Serif" font-size="10.00">tagFORMATETC</text>
</a>
</g>
</g>
<!-- Node2 -->
<g id="node2" class="node">
<title>Node2</title>
<g id="a_node2"><a xlink:title=" ">
<polygon fill="none" stroke="#bfbfbf" points="0,-89.5 0,-108.5 89,-108.5 89,-89.5 0,-89.5"/>
<text text-anchor="middle" x="44.5" y="-96.5" font-family="Helvetica,sans-Serif" font-size="10.00">unsigned short</text>
</a>
</g>
</g>
<!-- Node2&#45;&gt;Node1 -->
<g id="edge1" class="edge">
<title>Node2&#45;&gt;Node1</title>
<path fill="none" stroke="#9a32cd" stroke-dasharray="5,2" d="M60.52,-81.9C73.76,-69.09 93.41,-51.2 112.5,-38 122.55,-31.05 134.61,-24.59 144.47,-19.74"/>
<polygon fill="#9a32cd" stroke="#9a32cd" points="57.85,-79.62 53.17,-89.12 62.76,-84.61 57.85,-79.62"/>
<text text-anchor="middle" x="136" y="-52" font-family="Helvetica,sans-Serif" font-size="10.00"> cfFormat</text>
</g>
<!-- Node3 -->
<g id="node3" class="node">
<title>Node3</title>
<g id="a_node3"><a xlink:title=" ">
<polygon fill="none" stroke="#bfbfbf" points="107,-89.5 107,-108.5 220,-108.5 220,-89.5 107,-89.5"/>
<text text-anchor="middle" x="163.5" y="-96.5" font-family="Helvetica,sans-Serif" font-size="10.00">DVTARGETDEVICE *</text>
</a>
</g>
</g>
<!-- Node3&#45;&gt;Node1 -->
<g id="edge2" class="edge">
<title>Node3&#45;&gt;Node1</title>
<path fill="none" stroke="#9a32cd" stroke-dasharray="5,2" d="M163.5,-79.19C163.5,-60.74 163.5,-33.41 163.5,-19.62"/>
<polygon fill="#9a32cd" stroke="#9a32cd" points="160,-79.34 163.5,-89.34 167,-79.34 160,-79.34"/>
<text text-anchor="middle" x="173" y="-52" font-family="Helvetica,sans-Serif" font-size="10.00"> ptd</text>
</g>
<!-- Node4 -->
<g id="node4" class="node">
<title>Node4</title>
<g id="a_node4"><a xlink:title=" ">
<polygon fill="none" stroke="#bfbfbf" points="238.5,-89.5 238.5,-108.5 276.5,-108.5 276.5,-89.5 238.5,-89.5"/>
<text text-anchor="middle" x="257.5" y="-96.5" font-family="Helvetica,sans-Serif" font-size="10.00">long</text>
</a>
</g>
</g>
<!-- Node4&#45;&gt;Node1 -->
<g id="edge3" class="edge">
<title>Node4&#45;&gt;Node1</title>
<path fill="none" stroke="#9a32cd" stroke-dasharray="5,2" d="M240.74,-82.48C220.92,-64.14 188.63,-34.26 172.82,-19.62"/>
<polygon fill="#9a32cd" stroke="#9a32cd" points="238.43,-85.12 248.14,-89.34 243.18,-79.98 238.43,-85.12"/>
<text text-anchor="middle" x="250.5" y="-63" font-family="Helvetica,sans-Serif" font-size="10.00"> tymed</text>
<text text-anchor="middle" x="250.5" y="-52" font-family="Helvetica,sans-Serif" font-size="10.00">lindex</text>
<text text-anchor="middle" x="250.5" y="-41" font-family="Helvetica,sans-Serif" font-size="10.00">dwAspect</text>
</g>
</g>
</svg>
