<?xml version="1.0" encoding="UTF-8" standalone="no"?>
<!DOCTYPE svg PUBLIC "-//W3C//DTD SVG 1.1//EN"
 "http://www.w3.org/Graphics/SVG/1.1/DTD/svg11.dtd">
<!-- Generated by graphviz version 2.43.0 (0)
 -->
<!-- Title: _SYSTEM_POOL_TAG_INFORMATION Pages: 1 -->
<svg width="271pt" height="172pt"
 viewBox="0.00 0.00 271.00 172.00" xmlns="http://www.w3.org/2000/svg" xmlns:xlink="http://www.w3.org/1999/xlink">
<g id="graph0" class="graph" transform="scale(1 1) rotate(0) translate(4 168)">
<title>_SYSTEM_POOL_TAG_INFORMATION</title>
<!-- Node1 -->
<g id="node1" class="node">
<title>Node1</title>
<g id="a_node1"><a xlink:title=" ">
<polygon fill="#bfbfbf" stroke="black" points="0,-0.5 0,-19.5 192,-19.5 192,-0.5 0,-0.5"/>
<text text-anchor="middle" x="96" y="-7.5" font-family="Helvetica,sans-Serif" font-size="10.00">_SYSTEM_POOL_TAG_INFORMATION</text>
</a>
</g>
</g>
<!-- Node2 -->
<g id="node2" class="node">
<title>Node2</title>
<g id="a_node2"><a xlink:title=" ">
<polygon fill="none" stroke="#bfbfbf" points="9,-133.5 9,-152.5 47,-152.5 47,-133.5 9,-133.5"/>
<text text-anchor="middle" x="28" y="-140.5" font-family="Helvetica,sans-Serif" font-size="10.00">char</text>
</a>
</g>
</g>
<!-- Node2&#45;&gt;Node1 -->
<g id="edge1" class="edge">
<title>Node2&#45;&gt;Node1</title>
<path fill="none" stroke="#9a32cd" stroke-dasharray="5,2" d="M37.23,-124.23C51.99,-95.79 80.37,-41.1 91.43,-19.8"/>
<polygon fill="#9a32cd" stroke="#9a32cd" points="33.96,-122.92 32.46,-133.4 40.18,-126.14 33.96,-122.92"/>
<text text-anchor="middle" x="92" y="-68.5" font-family="Helvetica,sans-Serif" font-size="10.00"> Tag</text>
</g>
<!-- Node3 -->
<g id="node3" class="node">
<title>Node3</title>
<g id="a_node3"><a xlink:title=" ">
<polygon fill="none" stroke="#bfbfbf" points="65,-122.5 65,-163.5 263,-163.5 263,-122.5 65,-122.5"/>
<text text-anchor="start" x="73" y="-151.5" font-family="Helvetica,sans-Serif" font-size="10.00">PSecurityUserData *typedef</text>
<text text-anchor="start" x="73" y="-140.5" font-family="Helvetica,sans-Serif" font-size="10.00"> PSECPKG_EXTENDED_INFORMATION</text>
<text text-anchor="middle" x="164" y="-129.5" font-family="Helvetica,sans-Serif" font-size="10.00"> *typedef</text>
</a>
</g>
</g>
<!-- Node3&#45;&gt;Node1 -->
<g id="edge2" class="edge">
<title>Node3&#45;&gt;Node1</title>
<path fill="none" stroke="#9a32cd" stroke-dasharray="5,2" d="M149.08,-113.26C133.56,-83.35 110.18,-38.32 100.47,-19.62"/>
<polygon fill="#9a32cd" stroke="#9a32cd" points="146.11,-115.12 153.82,-122.39 152.32,-111.9 146.11,-115.12"/>
<text text-anchor="middle" x="193.5" y="-96" font-family="Helvetica,sans-Serif" font-size="10.00"> PagedPoolAllocs</text>
<text text-anchor="middle" x="193.5" y="-85" font-family="Helvetica,sans-Serif" font-size="10.00">NonPagedPoolAllocs</text>
<text text-anchor="middle" x="193.5" y="-74" font-family="Helvetica,sans-Serif" font-size="10.00">NonPagedPoolUsage</text>
<text text-anchor="middle" x="193.5" y="-63" font-family="Helvetica,sans-Serif" font-size="10.00">PagedPoolFrees</text>
<text text-anchor="middle" x="193.5" y="-52" font-family="Helvetica,sans-Serif" font-size="10.00">PagedPoolUsage</text>
<text text-anchor="middle" x="193.5" y="-41" font-family="Helvetica,sans-Serif" font-size="10.00">NonPagedPoolFrees</text>
</g>
</g>
</svg>
