<?xml version="1.0" encoding="UTF-8" standalone="no"?>
<!DOCTYPE svg PUBLIC "-//W3C//DTD SVG 1.1//EN"
 "http://www.w3.org/Graphics/SVG/1.1/DTD/svg11.dtd">
<!-- Generated by graphviz version 2.43.0 (0)
 -->
<!-- Title: _POLICY_AUDIT_LOG_INFO Pages: 1 -->
<svg width="552pt" height="155pt"
 viewBox="0.00 0.00 552.00 155.00" xmlns="http://www.w3.org/2000/svg" xmlns:xlink="http://www.w3.org/1999/xlink">
<g id="graph0" class="graph" transform="scale(1 1) rotate(0) translate(4 151)">
<title>_POLICY_AUDIT_LOG_INFO</title>
<!-- Node1 -->
<g id="node1" class="node">
<title>Node1</title>
<g id="a_node1"><a xlink:title=" ">
<polygon fill="#bfbfbf" stroke="black" points="397,-67.5 397,-86.5 544,-86.5 544,-67.5 397,-67.5"/>
<text text-anchor="middle" x="470.5" y="-74.5" font-family="Helvetica,sans-Serif" font-size="10.00">_POLICY_AUDIT_LOG_INFO</text>
</a>
</g>
</g>
<!-- Node2 -->
<g id="node2" class="node">
<title>Node2</title>
<g id="a_node2"><a xlink:title=" ">
<polygon fill="none" stroke="#bfbfbf" points="18.5,-105.5 18.5,-146.5 179.5,-146.5 179.5,-105.5 18.5,-105.5"/>
<text text-anchor="start" x="26.5" y="-134.5" font-family="Helvetica,sans-Serif" font-size="10.00">PLDAP *typedef(__cdecl</text>
<text text-anchor="start" x="26.5" y="-123.5" font-family="Helvetica,sans-Serif" font-size="10.00"> NOTIFYOFNEWCONNECTION)</text>
<text text-anchor="middle" x="99" y="-112.5" font-family="Helvetica,sans-Serif" font-size="10.00">(PLDAP</text>
</a>
</g>
</g>
<!-- Node2&#45;&gt;Node1 -->
<g id="edge1" class="edge">
<title>Node2&#45;&gt;Node1</title>
<path fill="none" stroke="#9a32cd" stroke-dasharray="5,2" d="M189.69,-123.11C244.68,-120.22 316.33,-114.47 379,-103 400.39,-99.09 423.98,-92.22 441.71,-86.53"/>
<polygon fill="#9a32cd" stroke="#9a32cd" points="189.43,-119.62 179.62,-123.61 189.78,-126.61 189.43,-119.62"/>
<text text-anchor="middle" x="297.5" y="-124" font-family="Helvetica,sans-Serif" font-size="10.00"> AuditLogFullShutdownInProgress</text>
</g>
<!-- Node3 -->
<g id="node3" class="node">
<title>Node3</title>
<g id="a_node3"><a xlink:title=" ">
<polygon fill="none" stroke="#bfbfbf" points="50,-67.5 50,-86.5 148,-86.5 148,-67.5 50,-67.5"/>
<text text-anchor="middle" x="99" y="-74.5" font-family="Helvetica,sans-Serif" font-size="10.00">LARGE_INTEGER</text>
</a>
</g>
</g>
<!-- Node3&#45;&gt;Node1 -->
<g id="edge2" class="edge">
<title>Node3&#45;&gt;Node1</title>
<path fill="none" stroke="#9a32cd" stroke-dasharray="5,2" d="M158.31,-77C222.82,-77 326.86,-77 396.68,-77"/>
<polygon fill="#9a32cd" stroke="#9a32cd" points="158.31,-73.5 148.31,-77 158.31,-80.5 158.31,-73.5"/>
<text text-anchor="middle" x="297.5" y="-91" font-family="Helvetica,sans-Serif" font-size="10.00"> AuditRetentionPeriod</text>
<text text-anchor="middle" x="297.5" y="-80" font-family="Helvetica,sans-Serif" font-size="10.00">TimeToShutdown</text>
</g>
<!-- Node4 -->
<g id="node4" class="node">
<title>Node4</title>
<g id="a_node4"><a xlink:title=" ">
<polygon fill="none" stroke="#bfbfbf" points="0,-0.5 0,-41.5 198,-41.5 198,-0.5 0,-0.5"/>
<text text-anchor="start" x="8" y="-29.5" font-family="Helvetica,sans-Serif" font-size="10.00">PSecurityUserData *typedef</text>
<text text-anchor="start" x="8" y="-18.5" font-family="Helvetica,sans-Serif" font-size="10.00"> PSECPKG_EXTENDED_INFORMATION</text>
<text text-anchor="middle" x="99" y="-7.5" font-family="Helvetica,sans-Serif" font-size="10.00"> *typedef</text>
</a>
</g>
</g>
<!-- Node4&#45;&gt;Node1 -->
<g id="edge3" class="edge">
<title>Node4&#45;&gt;Node1</title>
<path fill="none" stroke="#9a32cd" stroke-dasharray="5,2" d="M208.56,-20.37C260.69,-22.09 323.69,-27.16 379,-40 404.96,-46.02 433.12,-58.58 451.01,-67.38"/>
<polygon fill="#9a32cd" stroke="#9a32cd" points="208.39,-16.86 198.29,-20.06 208.18,-23.86 208.39,-16.86"/>
<text text-anchor="middle" x="297.5" y="-65" font-family="Helvetica,sans-Serif" font-size="10.00"> MaximumLogSize</text>
<text text-anchor="middle" x="297.5" y="-54" font-family="Helvetica,sans-Serif" font-size="10.00">NextAuditRecordId</text>
<text text-anchor="middle" x="297.5" y="-43" font-family="Helvetica,sans-Serif" font-size="10.00">AuditLogPercentFull</text>
</g>
</g>
</svg>
