<?xml version="1.0" encoding="UTF-8" standalone="no"?>
<!DOCTYPE svg PUBLIC "-//W3C//DTD SVG 1.1//EN"
 "http://www.w3.org/Graphics/SVG/1.1/DTD/svg11.dtd">
<!-- Generated by graphviz version 2.43.0 (0)
 -->
<!-- Title: Comparison Classes Pages: 1 -->
<svg width="417pt" height="38pt"
 viewBox="0.00 0.00 417.00 38.00" xmlns="http://www.w3.org/2000/svg" xmlns:xlink="http://www.w3.org/1999/xlink">
<g id="graph0" class="graph" transform="scale(1 1) rotate(0) translate(4 34)">
<title>Comparison Classes</title>
<!-- Node3 -->
<g id="node1" class="node">
<title>Node3</title>
<g id="a_node1"><a xlink:href="../../dc/d7a/group__logical__functors.html" target="_top" xlink:title=" ">
<polygon fill="none" stroke="black" points="409,-30 296,-30 296,0 409,0 409,-30"/>
<text text-anchor="start" x="304" y="-18" font-family="Helvetica,sans-Serif" font-size="10.00">Boolean Operations</text>
<text text-anchor="middle" x="352.5" y="-7" font-family="Helvetica,sans-Serif" font-size="10.00"> Classes</text>
</a>
</g>
</g>
<!-- Node1 -->
<g id="node2" class="node">
<title>Node1</title>
<g id="a_node2"><a xlink:title=" ">
<polygon fill="#bfbfbf" stroke="black" points="260,-24.5 144,-24.5 144,-5.5 260,-5.5 260,-24.5"/>
<text text-anchor="middle" x="202" y="-12.5" font-family="Helvetica,sans-Serif" font-size="10.00">Comparison Classes</text>
</a>
</g>
</g>
<!-- Node1&#45;&gt;Node3 -->
<g id="edge2" class="edge">
<title>Node1&#45;&gt;Node3</title>
<path fill="none" stroke="black" d="M270.58,-15C278.98,-15 287.5,-15 295.7,-15"/>
<polygon fill="black" stroke="black" points="270.41,-11.5 260.41,-15 270.41,-18.5 270.41,-11.5"/>
</g>
<!-- Node2 -->
<g id="node3" class="node">
<title>Node2</title>
<g id="a_node3"><a xlink:href="../../d8/d82/group__arithmetic__functors.html" target="_top" xlink:title=" ">
<polygon fill="none" stroke="black" points="108,-24.5 0,-24.5 0,-5.5 108,-5.5 108,-24.5"/>
<text text-anchor="middle" x="54" y="-12.5" font-family="Helvetica,sans-Serif" font-size="10.00">Arithmetic Classes</text>
</a>
</g>
</g>
<!-- Node2&#45;&gt;Node1 -->
<g id="edge1" class="edge">
<title>Node2&#45;&gt;Node1</title>
<path fill="none" stroke="black" d="M118.31,-15C126.76,-15 135.39,-15 143.73,-15"/>
<polygon fill="black" stroke="black" points="118.12,-11.5 108.12,-15 118.12,-18.5 118.12,-11.5"/>
</g>
</g>
</svg>
