<?xml version="1.0" encoding="UTF-8" standalone="no"?>
<!DOCTYPE svg PUBLIC "-//W3C//DTD SVG 1.1//EN"
 "http://www.w3.org/Graphics/SVG/1.1/DTD/svg11.dtd">
<!-- Generated by graphviz version 2.43.0 (0)
 -->
<!-- Title: Engine/libspeex/testecho.c Pages: 1 -->
<svg width="666pt" height="263pt"
 viewBox="0.00 0.00 666.00 263.00" xmlns="http://www.w3.org/2000/svg" xmlns:xlink="http://www.w3.org/1999/xlink">
<g id="graph0" class="graph" transform="scale(1 1) rotate(0) translate(4 259)">
<title>Engine/libspeex/testecho.c</title>
<!-- Node1 -->
<g id="node1" class="node">
<title>Node1</title>
<g id="a_node1"><a xlink:title=" ">
<polygon fill="#bfbfbf" stroke="black" points="188.5,-235.5 188.5,-254.5 335.5,-254.5 335.5,-235.5 188.5,-235.5"/>
<text text-anchor="middle" x="262" y="-242.5" font-family="Helvetica,sans-Serif" font-size="10.00">Engine/libspeex/testecho.c</text>
</a>
</g>
</g>
<!-- Node2 -->
<g id="node2" class="node">
<title>Node2</title>
<g id="a_node2"><a xlink:title=" ">
<polygon fill="none" stroke="#bfbfbf" points="0,-179.5 0,-198.5 50,-198.5 50,-179.5 0,-179.5"/>
<text text-anchor="middle" x="25" y="-186.5" font-family="Helvetica,sans-Serif" font-size="10.00">stdio.h</text>
</a>
</g>
</g>
<!-- Node1&#45;&gt;Node2 -->
<g id="edge1" class="edge">
<title>Node1&#45;&gt;Node2</title>
<path fill="none" stroke="midnightblue" d="M221.06,-235.44C182.07,-227.16 121.49,-214.02 60.08,-199.19"/>
<polygon fill="midnightblue" stroke="midnightblue" points="60.77,-195.76 50.22,-196.8 59.11,-202.56 60.77,-195.76"/>
</g>
<!-- Node3 -->
<g id="node3" class="node">
<title>Node3</title>
<g id="a_node3"><a xlink:title=" ">
<polygon fill="none" stroke="#bfbfbf" points="68.5,-179.5 68.5,-198.5 121.5,-198.5 121.5,-179.5 68.5,-179.5"/>
<text text-anchor="middle" x="95" y="-186.5" font-family="Helvetica,sans-Serif" font-size="10.00">stdlib.h</text>
</a>
</g>
</g>
<!-- Node1&#45;&gt;Node3 -->
<g id="edge2" class="edge">
<title>Node1&#45;&gt;Node3</title>
<path fill="none" stroke="midnightblue" d="M235.54,-235.44C207.32,-226.32 162.46,-211.81 131.03,-201.65"/>
<polygon fill="midnightblue" stroke="midnightblue" points="131.93,-198.26 121.34,-198.52 129.78,-204.92 131.93,-198.26"/>
</g>
<!-- Node4 -->
<g id="node4" class="node">
<title>Node4</title>
<g id="a_node4"><a xlink:title=" ">
<polygon fill="none" stroke="#bfbfbf" points="140,-179.5 140,-198.5 212,-198.5 212,-179.5 140,-179.5"/>
<text text-anchor="middle" x="176" y="-186.5" font-family="Helvetica,sans-Serif" font-size="10.00">sys/types.h</text>
</a>
</g>
</g>
<!-- Node1&#45;&gt;Node4 -->
<g id="edge3" class="edge">
<title>Node1&#45;&gt;Node4</title>
<path fill="none" stroke="midnightblue" d="M248.18,-235.32C234.77,-226.9 214.18,-213.97 198.41,-204.07"/>
<polygon fill="midnightblue" stroke="midnightblue" points="200.11,-201.01 189.78,-198.65 196.39,-206.94 200.11,-201.01"/>
</g>
<!-- Node5 -->
<g id="node5" class="node">
<title>Node5</title>
<g id="a_node5"><a xlink:title=" ">
<polygon fill="none" stroke="#bfbfbf" points="230,-179.5 230,-198.5 294,-198.5 294,-179.5 230,-179.5"/>
<text text-anchor="middle" x="262" y="-186.5" font-family="Helvetica,sans-Serif" font-size="10.00">sys/stat.h</text>
</a>
</g>
</g>
<!-- Node1&#45;&gt;Node5 -->
<g id="edge4" class="edge">
<title>Node1&#45;&gt;Node5</title>
<path fill="none" stroke="midnightblue" d="M262,-235.08C262,-228.01 262,-217.86 262,-208.99"/>
<polygon fill="midnightblue" stroke="midnightblue" points="265.5,-208.75 262,-198.75 258.5,-208.75 265.5,-208.75"/>
</g>
<!-- Node6 -->
<g id="node6" class="node">
<title>Node6</title>
<g id="a_node6"><a xlink:title=" ">
<polygon fill="none" stroke="#bfbfbf" points="312.5,-179.5 312.5,-198.5 359.5,-198.5 359.5,-179.5 312.5,-179.5"/>
<text text-anchor="middle" x="336" y="-186.5" font-family="Helvetica,sans-Serif" font-size="10.00">fcntl.h</text>
</a>
</g>
</g>
<!-- Node1&#45;&gt;Node6 -->
<g id="edge5" class="edge">
<title>Node1&#45;&gt;Node6</title>
<path fill="none" stroke="midnightblue" d="M273.89,-235.32C285.15,-227.11 302.29,-214.6 315.71,-204.81"/>
<polygon fill="midnightblue" stroke="midnightblue" points="317.88,-207.56 323.89,-198.83 313.75,-201.9 317.88,-207.56"/>
</g>
<!-- Node7 -->
<g id="node7" class="node">
<title>Node7</title>
<g id="a_node7"><a xlink:href="../../d9/d44/speex__echo_8h.html" target="_top" xlink:title="Echo cancellation.">
<polygon fill="none" stroke="black" points="378,-179.5 378,-198.5 494,-198.5 494,-179.5 378,-179.5"/>
<text text-anchor="middle" x="436" y="-186.5" font-family="Helvetica,sans-Serif" font-size="10.00">speex/speex_echo.h</text>
</a>
</g>
</g>
<!-- Node1&#45;&gt;Node7 -->
<g id="edge6" class="edge">
<title>Node1&#45;&gt;Node7</title>
<path fill="none" stroke="midnightblue" d="M289.57,-235.44C319.1,-226.28 366.12,-211.69 398.88,-201.52"/>
<polygon fill="midnightblue" stroke="midnightblue" points="400.04,-204.82 408.56,-198.52 397.97,-198.14 400.04,-204.82"/>
</g>
<!-- Node11 -->
<g id="node11" class="node">
<title>Node11</title>
<g id="a_node11"><a xlink:href="../../da/d0e/speex__preprocess_8h.html" target="_top" xlink:title="Speex preprocessor. The preprocess can do noise suppression, residual echo suppression (after using t...">
<polygon fill="none" stroke="black" points="512,-179.5 512,-198.5 658,-198.5 658,-179.5 512,-179.5"/>
<text text-anchor="middle" x="585" y="-186.5" font-family="Helvetica,sans-Serif" font-size="10.00">speex/speex_preprocess.h</text>
</a>
</g>
</g>
<!-- Node1&#45;&gt;Node11 -->
<g id="edge10" class="edge">
<title>Node1&#45;&gt;Node11</title>
<path fill="none" stroke="midnightblue" d="M313.18,-235.44C370.47,-225.87 463.24,-210.36 524.19,-200.17"/>
<polygon fill="midnightblue" stroke="midnightblue" points="524.77,-203.62 534.06,-198.52 523.62,-196.71 524.77,-203.62"/>
</g>
<!-- Node8 -->
<g id="node8" class="node">
<title>Node8</title>
<g id="a_node8"><a xlink:href="../../d8/df4/speex__types_8h.html" target="_top" xlink:title="Speex types.">
<polygon fill="none" stroke="black" points="450.5,-123.5 450.5,-142.5 569.5,-142.5 569.5,-123.5 450.5,-123.5"/>
<text text-anchor="middle" x="510" y="-130.5" font-family="Helvetica,sans-Serif" font-size="10.00">speex/speex_types.h</text>
</a>
</g>
</g>
<!-- Node7&#45;&gt;Node8 -->
<g id="edge7" class="edge">
<title>Node7&#45;&gt;Node8</title>
<path fill="none" stroke="midnightblue" d="M447.89,-179.32C459.15,-171.11 476.29,-158.6 489.71,-148.81"/>
<polygon fill="midnightblue" stroke="midnightblue" points="491.88,-151.56 497.89,-142.83 487.75,-145.9 491.88,-151.56"/>
</g>
<!-- Node9 -->
<g id="node9" class="node">
<title>Node9</title>
<g id="a_node9"><a xlink:href="../../d8/d6d/speex__config__types_8h.html" target="_top" xlink:title=" ">
<polygon fill="none" stroke="black" points="453.5,-56.5 453.5,-86.5 566.5,-86.5 566.5,-56.5 453.5,-56.5"/>
<text text-anchor="start" x="461.5" y="-74.5" font-family="Helvetica,sans-Serif" font-size="10.00">speex/speex_config</text>
<text text-anchor="middle" x="510" y="-63.5" font-family="Helvetica,sans-Serif" font-size="10.00">_types.h</text>
</a>
</g>
</g>
<!-- Node8&#45;&gt;Node9 -->
<g id="edge8" class="edge">
<title>Node8&#45;&gt;Node9</title>
<path fill="none" stroke="midnightblue" d="M510,-123.48C510,-116.47 510,-106.19 510,-96.7"/>
<polygon fill="midnightblue" stroke="midnightblue" points="513.5,-96.52 510,-86.52 506.5,-96.52 513.5,-96.52"/>
</g>
<!-- Node10 -->
<g id="node10" class="node">
<title>Node10</title>
<g id="a_node10"><a xlink:title=" ">
<polygon fill="none" stroke="#bfbfbf" points="483.5,-0.5 483.5,-19.5 536.5,-19.5 536.5,-0.5 483.5,-0.5"/>
<text text-anchor="middle" x="510" y="-7.5" font-family="Helvetica,sans-Serif" font-size="10.00">stdint.h</text>
</a>
</g>
</g>
<!-- Node9&#45;&gt;Node10 -->
<g id="edge9" class="edge">
<title>Node9&#45;&gt;Node10</title>
<path fill="none" stroke="midnightblue" d="M510,-56.4C510,-48.47 510,-38.46 510,-29.86"/>
<polygon fill="midnightblue" stroke="midnightblue" points="513.5,-29.66 510,-19.66 506.5,-29.66 513.5,-29.66"/>
</g>
<!-- Node11&#45;&gt;Node8 -->
<g id="edge11" class="edge">
<title>Node11&#45;&gt;Node8</title>
<path fill="none" stroke="midnightblue" d="M572.95,-179.32C561.54,-171.11 544.17,-158.6 530.57,-148.81"/>
<polygon fill="midnightblue" stroke="midnightblue" points="532.43,-145.84 522.27,-142.83 528.34,-151.52 532.43,-145.84"/>
</g>
</g>
</svg>
