<?xml version="1.0" encoding="UTF-8" standalone="no"?>
<!DOCTYPE svg PUBLIC "-//W3C//DTD SVG 1.1//EN"
 "http://www.w3.org/Graphics/SVG/1.1/DTD/svg11.dtd">
<!-- Generated by graphviz version 2.43.0 (0)
 -->
<!-- Title: _HD_NOTIFYA Pages: 1 -->
<svg width="209pt" height="106pt"
 viewBox="0.00 0.00 208.50 106.00" xmlns="http://www.w3.org/2000/svg" xmlns:xlink="http://www.w3.org/1999/xlink">
<g id="graph0" class="graph" transform="scale(1 1) rotate(0) translate(4 102)">
<title>_HD_NOTIFYA</title>
<!-- Node1 -->
<g id="node1" class="node">
<title>Node1</title>
<g id="a_node1"><a xlink:title=" ">
<polygon fill="#bfbfbf" stroke="black" points="69.5,-0.5 69.5,-19.5 153.5,-19.5 153.5,-0.5 69.5,-0.5"/>
<text text-anchor="middle" x="111.5" y="-7.5" font-family="Helvetica,sans-Serif" font-size="10.00">_HD_NOTIFYA</text>
</a>
</g>
</g>
<!-- Node2 -->
<g id="node2" class="node">
<title>Node2</title>
<g id="a_node2"><a xlink:title=" ">
<polygon fill="none" stroke="#bfbfbf" points="0,-78.5 0,-97.5 55,-97.5 55,-78.5 0,-78.5"/>
<text text-anchor="middle" x="27.5" y="-85.5" font-family="Helvetica,sans-Serif" font-size="10.00">NMHDR</text>
</a>
</g>
</g>
<!-- Node2&#45;&gt;Node1 -->
<g id="edge1" class="edge">
<title>Node2&#45;&gt;Node1</title>
<path fill="none" stroke="#9a32cd" stroke-dasharray="5,2" d="M44.85,-71.3C62.16,-55.64 88.12,-32.16 101.98,-19.62"/>
<polygon fill="#9a32cd" stroke="#9a32cd" points="42.2,-68.98 37.14,-78.28 46.9,-74.17 42.2,-68.98"/>
<text text-anchor="middle" x="89" y="-46.5" font-family="Helvetica,sans-Serif" font-size="10.00"> hdr</text>
</g>
<!-- Node3 -->
<g id="node3" class="node">
<title>Node3</title>
<g id="a_node3"><a xlink:title=" ">
<polygon fill="none" stroke="#bfbfbf" points="73.5,-78.5 73.5,-97.5 149.5,-97.5 149.5,-78.5 73.5,-78.5"/>
<text text-anchor="middle" x="111.5" y="-85.5" font-family="Helvetica,sans-Serif" font-size="10.00">HD_ITEMA *</text>
</a>
</g>
</g>
<!-- Node3&#45;&gt;Node1 -->
<g id="edge2" class="edge">
<title>Node3&#45;&gt;Node1</title>
<path fill="none" stroke="#9a32cd" stroke-dasharray="5,2" d="M111.5,-68.22C111.5,-52.7 111.5,-31.36 111.5,-19.62"/>
<polygon fill="#9a32cd" stroke="#9a32cd" points="108,-68.28 111.5,-78.28 115,-68.28 108,-68.28"/>
<text text-anchor="middle" x="127.5" y="-46.5" font-family="Helvetica,sans-Serif" font-size="10.00"> pitem</text>
</g>
<!-- Node4 -->
<g id="node4" class="node">
<title>Node4</title>
<g id="a_node4"><a xlink:title=" ">
<polygon fill="none" stroke="#bfbfbf" points="168,-78.5 168,-97.5 197,-97.5 197,-78.5 168,-78.5"/>
<text text-anchor="middle" x="182.5" y="-85.5" font-family="Helvetica,sans-Serif" font-size="10.00">int</text>
</a>
</g>
</g>
<!-- Node4&#45;&gt;Node1 -->
<g id="edge3" class="edge">
<title>Node4&#45;&gt;Node1</title>
<path fill="none" stroke="#9a32cd" stroke-dasharray="5,2" d="M172.14,-69.87C165.71,-59.98 156.91,-47.63 147.5,-38 140.73,-31.07 132.07,-24.52 124.94,-19.61"/>
<polygon fill="#9a32cd" stroke="#9a32cd" points="169.23,-71.82 177.51,-78.43 175.16,-68.1 169.23,-71.82"/>
<text text-anchor="middle" x="182.5" y="-52" font-family="Helvetica,sans-Serif" font-size="10.00"> iItem</text>
<text text-anchor="middle" x="182.5" y="-41" font-family="Helvetica,sans-Serif" font-size="10.00">iButton</text>
</g>
</g>
</svg>
