<?xml version="1.0" encoding="UTF-8" standalone="no"?>
<!DOCTYPE svg PUBLIC "-//W3C//DTD SVG 1.1//EN"
 "http://www.w3.org/Graphics/SVG/1.1/DTD/svg11.dtd">
<!-- Generated by graphviz version 2.43.0 (0)
 -->
<!-- Title: _FILE_PIPE_REMOTE_INFORMATION Pages: 1 -->
<svg width="336pt" height="117pt"
 viewBox="0.00 0.00 336.00 117.00" xmlns="http://www.w3.org/2000/svg" xmlns:xlink="http://www.w3.org/1999/xlink">
<g id="graph0" class="graph" transform="scale(1 1) rotate(0) translate(4 113)">
<title>_FILE_PIPE_REMOTE_INFORMATION</title>
<!-- Node1 -->
<g id="node1" class="node">
<title>Node1</title>
<g id="a_node1"><a xlink:title=" ">
<polygon fill="#bfbfbf" stroke="black" points="37,-0.5 37,-19.5 227,-19.5 227,-0.5 37,-0.5"/>
<text text-anchor="middle" x="132" y="-7.5" font-family="Helvetica,sans-Serif" font-size="10.00">_FILE_PIPE_REMOTE_INFORMATION</text>
</a>
</g>
</g>
<!-- Node2 -->
<g id="node2" class="node">
<title>Node2</title>
<g id="a_node2"><a xlink:title=" ">
<polygon fill="none" stroke="#bfbfbf" points="0,-78.5 0,-97.5 98,-97.5 98,-78.5 0,-78.5"/>
<text text-anchor="middle" x="49" y="-85.5" font-family="Helvetica,sans-Serif" font-size="10.00">LARGE_INTEGER</text>
</a>
</g>
</g>
<!-- Node2&#45;&gt;Node1 -->
<g id="edge1" class="edge">
<title>Node2&#45;&gt;Node1</title>
<path fill="none" stroke="#9a32cd" stroke-dasharray="5,2" d="M66.14,-71.3C83.25,-55.64 108.9,-32.16 122.59,-19.62"/>
<polygon fill="#9a32cd" stroke="#9a32cd" points="63.53,-68.95 58.52,-78.28 68.26,-74.11 63.53,-68.95"/>
<text text-anchor="middle" x="143.5" y="-41" font-family="Helvetica,sans-Serif" font-size="10.00"> CollectDataTime</text>
</g>
<!-- Node3 -->
<g id="node3" class="node">
<title>Node3</title>
<g id="a_node3"><a xlink:title=" ">
<polygon fill="none" stroke="#bfbfbf" points="116,-67.5 116,-108.5 314,-108.5 314,-67.5 116,-67.5"/>
<text text-anchor="start" x="124" y="-96.5" font-family="Helvetica,sans-Serif" font-size="10.00">PSecurityUserData *typedef</text>
<text text-anchor="start" x="124" y="-85.5" font-family="Helvetica,sans-Serif" font-size="10.00"> PSECPKG_EXTENDED_INFORMATION</text>
<text text-anchor="middle" x="215" y="-74.5" font-family="Helvetica,sans-Serif" font-size="10.00"> *typedef</text>
</a>
</g>
</g>
<!-- Node3&#45;&gt;Node1 -->
<g id="edge2" class="edge">
<title>Node3&#45;&gt;Node1</title>
<path fill="none" stroke="#9a32cd" stroke-dasharray="5,2" d="M204.11,-57.87C200.44,-50.74 195.77,-43.56 190,-38 181.53,-29.83 170.13,-23.79 159.68,-19.53"/>
<polygon fill="#9a32cd" stroke="#9a32cd" points="201.15,-59.81 208.51,-67.43 207.51,-56.88 201.15,-59.81"/>
<text text-anchor="middle" x="263" y="-41" font-family="Helvetica,sans-Serif" font-size="10.00"> MaximumCollectionCount</text>
</g>
</g>
</svg>
