<?xml version="1.0" encoding="UTF-8" standalone="no"?>
<!DOCTYPE svg PUBLIC "-//W3C//DTD SVG 1.1//EN"
 "http://www.w3.org/Graphics/SVG/1.1/DTD/svg11.dtd">
<!-- Generated by graphviz version 2.43.0 (0)
 -->
<!-- Title: _PROCESS_DEVICEMAP_INFORMATION Pages: 1 -->
<svg width="477pt" height="202pt"
 viewBox="0.00 0.00 477.00 202.00" xmlns="http://www.w3.org/2000/svg" xmlns:xlink="http://www.w3.org/1999/xlink">
<g id="graph0" class="graph" transform="scale(1 1) rotate(0) translate(4 198)">
<title>_PROCESS_DEVICEMAP_INFORMATION</title>
<!-- Node1 -->
<g id="node1" class="node">
<title>Node1</title>
<g id="a_node1"><a xlink:title=" ">
<polygon fill="#bfbfbf" stroke="black" points="339,-93 339,-123 469,-123 469,-93 339,-93"/>
<text text-anchor="start" x="347" y="-111" font-family="Helvetica,sans-Serif" font-size="10.00">_PROCESS_DEVICEMAP</text>
<text text-anchor="middle" x="404" y="-100" font-family="Helvetica,sans-Serif" font-size="10.00">_INFORMATION</text>
</a>
</g>
</g>
<!-- Node2 -->
<g id="node2" class="node">
<title>Node2</title>
<g id="a_node2"><a xlink:title=" ">
<polygon fill="none" stroke="#bfbfbf" points="46,-174.5 46,-193.5 152,-193.5 152,-174.5 46,-174.5"/>
<text text-anchor="middle" x="99" y="-181.5" font-family="Helvetica,sans-Serif" font-size="10.00">anonymous:Query</text>
</a>
</g>
</g>
<!-- Node2&#45;&gt;Node1 -->
<g id="edge1" class="edge">
<title>Node2&#45;&gt;Node1</title>
<path fill="none" stroke="#9a32cd" stroke-dasharray="5,2" d="M162.63,-179.74C207.56,-175.4 269.09,-166.8 321,-150 341.39,-143.4 362.9,-132.2 378.77,-123.03"/>
<polygon fill="#9a32cd" stroke="#9a32cd" points="162.08,-176.28 152.44,-180.68 162.72,-183.25 162.08,-176.28"/>
<text text-anchor="middle" x="268.5" y="-175" font-family="Helvetica,sans-Serif" font-size="10.00"> Query</text>
</g>
<!-- Node3 -->
<g id="node3" class="node">
<title>Node3</title>
<g id="a_node3"><a xlink:title=" ">
<polygon fill="none" stroke="#bfbfbf" points="10,-136.5 10,-155.5 188,-155.5 188,-136.5 10,-136.5"/>
<text text-anchor="middle" x="99" y="-143.5" font-family="Helvetica,sans-Serif" font-size="10.00">anonymous:DUMMYUNIONNAME</text>
</a>
</g>
</g>
<!-- Node3&#45;&gt;Node1 -->
<g id="edge2" class="edge">
<title>Node3&#45;&gt;Node1</title>
<path fill="none" stroke="#9a32cd" stroke-dasharray="5,2" d="M198.25,-137.42C236.63,-133.63 280.95,-128.74 321,-123 326.73,-122.18 332.67,-121.25 338.62,-120.26"/>
<polygon fill="#9a32cd" stroke="#9a32cd" points="197.72,-133.95 188.11,-138.4 198.4,-140.92 197.72,-133.95"/>
<text text-anchor="middle" x="268.5" y="-138" font-family="Helvetica,sans-Serif" font-size="10.00"> DUMMYUNIONNAME</text>
</g>
<!-- Node4 -->
<g id="node4" class="node">
<title>Node4</title>
<g id="a_node4"><a xlink:title=" ">
<polygon fill="none" stroke="#bfbfbf" points="68.5,-98.5 68.5,-117.5 129.5,-117.5 129.5,-98.5 68.5,-98.5"/>
<text text-anchor="middle" x="99" y="-105.5" font-family="Helvetica,sans-Serif" font-size="10.00">unsigned</text>
</a>
</g>
</g>
<!-- Node4&#45;&gt;Node1 -->
<g id="edge3" class="edge">
<title>Node4&#45;&gt;Node1</title>
<path fill="none" stroke="#9a32cd" stroke-dasharray="5,2" d="M139.82,-108C190.45,-108 278.5,-108 338.7,-108"/>
<polygon fill="#9a32cd" stroke="#9a32cd" points="139.6,-104.5 129.6,-108 139.6,-111.5 139.6,-104.5"/>
<text text-anchor="middle" x="268.5" y="-111" font-family="Helvetica,sans-Serif" font-size="10.00"> DriveType</text>
</g>
<!-- Node5 -->
<g id="node5" class="node">
<title>Node5</title>
<g id="a_node5"><a xlink:title=" ">
<polygon fill="none" stroke="#bfbfbf" points="53,-60.5 53,-79.5 145,-79.5 145,-60.5 53,-60.5"/>
<text text-anchor="middle" x="99" y="-67.5" font-family="Helvetica,sans-Serif" font-size="10.00">anonymous:Set</text>
</a>
</g>
</g>
<!-- Node5&#45;&gt;Node1 -->
<g id="edge4" class="edge">
<title>Node5&#45;&gt;Node1</title>
<path fill="none" stroke="#9a32cd" stroke-dasharray="5,2" d="M155.51,-74.58C200.29,-78.56 264.85,-84.95 321,-93 326.73,-93.82 332.67,-94.75 338.62,-95.74"/>
<polygon fill="#9a32cd" stroke="#9a32cd" points="155.68,-71.08 145.41,-73.69 155.07,-78.06 155.68,-71.08"/>
<text text-anchor="middle" x="268.5" y="-96" font-family="Helvetica,sans-Serif" font-size="10.00"> Set</text>
</g>
<!-- Node6 -->
<g id="node6" class="node">
<title>Node6</title>
<g id="a_node6"><a xlink:title=" ">
<polygon fill="none" stroke="#bfbfbf" points="0,-0.5 0,-41.5 198,-41.5 198,-0.5 0,-0.5"/>
<text text-anchor="start" x="8" y="-29.5" font-family="Helvetica,sans-Serif" font-size="10.00">PSecurityUserData *typedef</text>
<text text-anchor="start" x="8" y="-18.5" font-family="Helvetica,sans-Serif" font-size="10.00"> PSECPKG_EXTENDED_INFORMATION</text>
<text text-anchor="middle" x="99" y="-7.5" font-family="Helvetica,sans-Serif" font-size="10.00"> *typedef</text>
</a>
</g>
</g>
<!-- Node6&#45;&gt;Node1 -->
<g id="edge5" class="edge">
<title>Node6&#45;&gt;Node1</title>
<path fill="none" stroke="#9a32cd" stroke-dasharray="5,2" d="M208.28,-27.7C244.94,-32.43 285.56,-40.45 321,-54 345.04,-63.19 369.25,-80.33 385.06,-92.84"/>
<polygon fill="#9a32cd" stroke="#9a32cd" points="208.4,-24.19 198.05,-26.45 207.55,-31.14 208.4,-24.19"/>
<text text-anchor="middle" x="268.5" y="-68" font-family="Helvetica,sans-Serif" font-size="10.00"> DirectoryHandle</text>
<text text-anchor="middle" x="268.5" y="-57" font-family="Helvetica,sans-Serif" font-size="10.00">DriveMap</text>
</g>
</g>
</svg>
