<?xml version="1.0" encoding="UTF-8" standalone="no"?>
<!DOCTYPE svg PUBLIC "-//W3C//DTD SVG 1.1//EN"
 "http://www.w3.org/Graphics/SVG/1.1/DTD/svg11.dtd">
<!-- Generated by graphviz version 2.43.0 (0)
 -->
<!-- Title: snd_codec_t Pages: 1 -->
<svg width="326pt" height="128pt"
 viewBox="0.00 0.00 326.00 128.00" xmlns="http://www.w3.org/2000/svg" xmlns:xlink="http://www.w3.org/1999/xlink">
<g id="graph0" class="graph" transform="scale(1 1) rotate(0) translate(4 124)">
<title>snd_codec_t</title>
<!-- Node1 -->
<g id="node1" class="node">
<title>Node1</title>
<g id="a_node1"><a xlink:title=" ">
<polygon fill="#bfbfbf" stroke="black" points="150,-0.5 150,-19.5 227,-19.5 227,-0.5 150,-0.5"/>
<text text-anchor="middle" x="188.5" y="-7.5" font-family="Helvetica,sans-Serif" font-size="10.00">snd_codec_t</text>
</a>
</g>
</g>
<!-- Node2 -->
<g id="node2" class="node">
<title>Node2</title>
<g id="a_node2"><a xlink:title=" ">
<polygon fill="none" stroke="#bfbfbf" points="0,-89.5 0,-119.5 111,-119.5 111,-89.5 0,-89.5"/>
<text text-anchor="start" x="8" y="-107.5" font-family="Helvetica,sans-Serif" font-size="10.00">void(*)(snd_stream</text>
<text text-anchor="middle" x="55.5" y="-96.5" font-family="Helvetica,sans-Serif" font-size="10.00">_t *stream)</text>
</a>
</g>
</g>
<!-- Node2&#45;&gt;Node1 -->
<g id="edge1" class="edge">
<title>Node2&#45;&gt;Node1</title>
<path fill="none" stroke="#9a32cd" stroke-dasharray="5,2" d="M76.19,-82.16C90.33,-68.38 109.96,-50.71 129.5,-38 140.83,-30.63 154.5,-24.23 165.83,-19.52"/>
<polygon fill="#9a32cd" stroke="#9a32cd" points="73.57,-79.83 68.94,-89.36 78.5,-84.79 73.57,-79.83"/>
<text text-anchor="middle" x="144" y="-52" font-family="Helvetica,sans-Serif" font-size="10.00"> close</text>
</g>
<!-- Node3 -->
<g id="node3" class="node">
<title>Node3</title>
<g id="a_node3"><a xlink:title=" ">
<polygon fill="none" stroke="#bfbfbf" points="129.5,-95 129.5,-114 167.5,-114 167.5,-95 129.5,-95"/>
<text text-anchor="middle" x="148.5" y="-102" font-family="Helvetica,sans-Serif" font-size="10.00">char</text>
</a>
</g>
</g>
<!-- Node3&#45;&gt;Node1 -->
<g id="edge2" class="edge">
<title>Node3&#45;&gt;Node1</title>
<path fill="none" stroke="#9a32cd" stroke-dasharray="5,2" d="M156.17,-85.77C164.76,-65.9 178.33,-34.51 184.82,-19.52"/>
<polygon fill="#9a32cd" stroke="#9a32cd" points="152.95,-84.4 152.19,-94.96 159.37,-87.17 152.95,-84.4"/>
<text text-anchor="middle" x="189" y="-63" font-family="Helvetica,sans-Serif" font-size="10.00"> load</text>
<text text-anchor="middle" x="189" y="-52" font-family="Helvetica,sans-Serif" font-size="10.00">open</text>
<text text-anchor="middle" x="189" y="-41" font-family="Helvetica,sans-Serif" font-size="10.00">ext</text>
</g>
<!-- Node4 -->
<g id="node4" class="node">
<title>Node4</title>
<g id="a_node4"><a xlink:title=" ">
<polygon fill="none" stroke="#bfbfbf" points="186,-95 186,-114 271,-114 271,-95 186,-95"/>
<text text-anchor="middle" x="228.5" y="-102" font-family="Helvetica,sans-Serif" font-size="10.00">snd_codec_t *</text>
</a>
</g>
</g>
<!-- Node4&#45;&gt;Node1 -->
<g id="edge3" class="edge">
<title>Node4&#45;&gt;Node1</title>
<path fill="none" stroke="#9a32cd" stroke-dasharray="5,2" d="M223.19,-84.88C219.08,-71.52 212.87,-53.26 205.5,-38 202.42,-31.62 198.17,-24.87 194.69,-19.71"/>
<polygon fill="#9a32cd" stroke="#9a32cd" points="219.92,-86.18 226.12,-94.77 226.63,-84.19 219.92,-86.18"/>
<text text-anchor="middle" x="230" y="-52" font-family="Helvetica,sans-Serif" font-size="10.00"> next</text>
</g>
<!-- Node5 -->
<g id="node5" class="node">
<title>Node5</title>
<g id="a_node5"><a xlink:title=" ">
<polygon fill="none" stroke="#bfbfbf" points="289,-95 289,-114 318,-114 318,-95 289,-95"/>
<text text-anchor="middle" x="303.5" y="-102" font-family="Helvetica,sans-Serif" font-size="10.00">int</text>
</a>
</g>
</g>
<!-- Node5&#45;&gt;Node1 -->
<g id="edge4" class="edge">
<title>Node5&#45;&gt;Node1</title>
<path fill="none" stroke="#9a32cd" stroke-dasharray="5,2" d="M291.76,-86.37C281.24,-72 264.68,-51.68 246.5,-38 236.29,-30.32 223.55,-24.09 212.61,-19.56"/>
<polygon fill="#9a32cd" stroke="#9a32cd" points="289.13,-88.7 297.77,-94.83 294.83,-84.65 289.13,-88.7"/>
<text text-anchor="middle" x="290" y="-52" font-family="Helvetica,sans-Serif" font-size="10.00"> read</text>
</g>
</g>
</svg>
