<?xml version="1.0" encoding="UTF-8" standalone="no"?>
<!DOCTYPE svg PUBLIC "-//W3C//DTD SVG 1.1//EN"
 "http://www.w3.org/Graphics/SVG/1.1/DTD/svg11.dtd">
<!-- Generated by graphviz version 2.43.0 (0)
 -->
<!-- Title: FT_Face Pages: 1 -->
<!--zoomable 778 -->
<svg id="main" version="1.1" xmlns="http://www.w3.org/2000/svg" xmlns:xlink="http://www.w3.org/1999/xlink" xml:space="preserve" onload="init(evt)">
<style type="text/css"><![CDATA[
.edge:hover path { stroke: red; }
.edge:hover polygon { stroke: red; fill: red; }
]]></style>
<script type="text/javascript"><![CDATA[
var edges = document.getElementsByTagName('g');
if (edges && edges.length) {
  for (var i=0;i<edges.length;i++) {
    if (edges[i].id.substr(0,4)=='edge') {
      edges[i].setAttribute('class','edge');
    }
  }
}
]]></script>
        <defs>
                <circle id="rim" cx="0" cy="0" r="7"/>
                <circle id="rim2" cx="0" cy="0" r="3.5"/>
                <g id="zoomPlus">
                        <use xlink:href="#rim" fill="#404040">
                                <set attributeName="fill" to="#808080" begin="zoomplus.mouseover" end="zoomplus.mouseout"/>
                        </use>
                        <path d="M-4,0h8M0,-4v8" fill="none" stroke="white" stroke-width="1.5" pointer-events="none"/>
                </g>
                <g id="zoomMin">
                        <use xlink:href="#rim" fill="#404040">
                                <set attributeName="fill" to="#808080" begin="zoomminus.mouseover" end="zoomminus.mouseout"/>
                        </use>
                        <path d="M-4,0h8" fill="none" stroke="white" stroke-width="1.5" pointer-events="none"/>
                </g>
                <g id="dirArrow">
                        <path fill="none" stroke="white" stroke-width="1.5" d="M0,-3.0v7 M-2.5,-0.5L0,-3.0L2.5,-0.5"/>
                </g>
               <g id="resetDef">
                       <use xlink:href="#rim2" fill="#404040">
                               <set attributeName="fill" to="#808080" begin="reset.mouseover" end="reset.mouseout"/>
                       </use>
               </g>
        </defs>

<script type="text/javascript">
var viewWidth = 472;
var viewHeight = 778;
var sectionId = 'dynsection-0';
</script>
<script xlink:href="../../svgpan.js"/>
<svg id="graph" class="graph">
<g id="viewport">
<title>FT_Face</title>
<!-- Node1 -->
<g id="node1" class="node">
<title>Node1</title>
<g id="a_node1"><a xlink:title=" ">
<polygon fill="#bfbfbf" stroke="black" points="409,-360.45 409,-379.45 464,-379.45 464,-360.45 409,-360.45"/>
<text text-anchor="middle" x="436.5" y="-367.45" font-family="Helvetica,sans-Serif" font-size="10.00">FT_Face</text>
</a>
</g>
</g>
<!-- Node2 -->
<g id="node2" class="node">
<title>Node2</title>
<g id="a_node2"><a xlink:title=" ">
<polygon fill="none" stroke="#bfbfbf" points="148,-736.45 148,-755.45 228,-755.45 228,-736.45 148,-736.45"/>
<text text-anchor="middle" x="188" y="-743.45" font-family="Helvetica,sans-Serif" font-size="10.00">FT_GlyphSlot</text>
</a>
</g>
</g>
<!-- Node2&#45;&gt;Node1 -->
<g id="edge1" class="edge">
<title>Node2&#45;&gt;Node1</title>
<path fill="none" stroke="#9a32cd" stroke-dasharray="5,2" d="M238.04,-755.98C283.99,-762.26 351.37,-762.93 391,-723.95 416.34,-699.03 432.01,-434.29 434.98,-379.75"/>
<polygon fill="#9a32cd" stroke="#9a32cd" points="238.41,-752.5 228,-754.48 237.37,-759.42 238.41,-752.5"/>
<text text-anchor="middle" x="338.5" y="-761.95" font-family="Helvetica,sans-Serif" font-size="10.00"> glyph</text>
</g>
<!-- Node3 -->
<g id="node3" class="node">
<title>Node3</title>
<g id="a_node3"><a xlink:title=" ">
<polygon fill="none" stroke="#bfbfbf" points="152.5,-693.45 152.5,-712.45 223.5,-712.45 223.5,-693.45 152.5,-693.45"/>
<text text-anchor="middle" x="188" y="-700.45" font-family="Helvetica,sans-Serif" font-size="10.00">FT_Generic</text>
</a>
</g>
</g>
<!-- Node3&#45;&gt;Node1 -->
<g id="edge2" class="edge">
<title>Node3&#45;&gt;Node1</title>
<path fill="none" stroke="#9a32cd" stroke-dasharray="5,2" d="M233.8,-703.51C286.45,-703.15 369.41,-699.11 391,-677.95 434.7,-635.13 435.91,-426.98 435.6,-379.57"/>
<polygon fill="#9a32cd" stroke="#9a32cd" points="233.69,-700.01 223.7,-703.53 233.71,-707.01 233.69,-700.01"/>
<text text-anchor="middle" x="338.5" y="-714.95" font-family="Helvetica,sans-Serif" font-size="10.00"> autohint</text>
<text text-anchor="middle" x="338.5" y="-703.95" font-family="Helvetica,sans-Serif" font-size="10.00">generic</text>
</g>
<!-- Node4 -->
<g id="node4" class="node">
<title>Node4</title>
<g id="a_node4"><a xlink:title=" ">
<polygon fill="none" stroke="#bfbfbf" points="137,-655.45 137,-674.45 239,-674.45 239,-655.45 137,-655.45"/>
<text text-anchor="middle" x="188" y="-662.45" font-family="Helvetica,sans-Serif" font-size="10.00">FT_Bitmap_Size *</text>
</a>
</g>
</g>
<!-- Node4&#45;&gt;Node1 -->
<g id="edge3" class="edge">
<title>Node4&#45;&gt;Node1</title>
<path fill="none" stroke="#9a32cd" stroke-dasharray="5,2" d="M249.61,-665.2C301.65,-664.07 371.29,-658.89 391,-639.95 429.46,-603.01 434.69,-423.22 435.39,-379.53"/>
<polygon fill="#9a32cd" stroke="#9a32cd" points="249.39,-661.7 239.46,-665.38 249.52,-668.7 249.39,-661.7"/>
<text text-anchor="middle" x="338.5" y="-665.95" font-family="Helvetica,sans-Serif" font-size="10.00"> available_sizes</text>
</g>
<!-- Node5 -->
<g id="node5" class="node">
<title>Node5</title>
<g id="a_node5"><a xlink:title=" ">
<polygon fill="none" stroke="#bfbfbf" points="0,-586.45 0,-605.45 38,-605.45 38,-586.45 0,-586.45"/>
<text text-anchor="middle" x="19" y="-593.45" font-family="Helvetica,sans-Serif" font-size="10.00">void</text>
</a>
</g>
</g>
<!-- Node5&#45;&gt;Node1 -->
<g id="edge4" class="edge">
<title>Node5&#45;&gt;Node1</title>
<path fill="none" stroke="#9a32cd" stroke-dasharray="5,2" d="M46.81,-609.3C49.85,-610.38 52.95,-611.31 56,-611.95 92.41,-619.68 362.4,-635.77 391,-611.95 427.6,-581.47 434.2,-420.46 435.3,-379.46"/>
<polygon fill="#9a32cd" stroke="#9a32cd" points="48.03,-606.02 37.45,-605.46 45.37,-612.5 48.03,-606.02"/>
<text text-anchor="middle" x="188" y="-626.95" font-family="Helvetica,sans-Serif" font-size="10.00"> extensions</text>
</g>
<!-- Node16 -->
<g id="node16" class="node">
<title>Node16</title>
<g id="a_node16"><a xlink:href="../../d2/d49/structFT__MemoryRec__.html" target="_top" xlink:title=" ">
<polygon fill="none" stroke="black" points="139.5,-570.45 139.5,-589.45 236.5,-589.45 236.5,-570.45 139.5,-570.45"/>
<text text-anchor="middle" x="188" y="-577.45" font-family="Helvetica,sans-Serif" font-size="10.00">FT_MemoryRec_</text>
</a>
</g>
</g>
<!-- Node5&#45;&gt;Node16 -->
<g id="edge16" class="edge">
<title>Node5&#45;&gt;Node16</title>
<path fill="none" stroke="#9a32cd" stroke-dasharray="5,2" d="M36.29,-579.61C42.04,-574.92 48.85,-570.4 56,-567.95 89.38,-556.5 130.18,-563.24 157.29,-570.39"/>
<polygon fill="#9a32cd" stroke="#9a32cd" points="33.83,-577.12 28.73,-586.41 38.51,-582.33 33.83,-577.12"/>
<text text-anchor="middle" x="73" y="-603.95" font-family="Helvetica,sans-Serif" font-size="10.00"> alloc</text>
<text text-anchor="middle" x="73" y="-592.95" font-family="Helvetica,sans-Serif" font-size="10.00">realloc</text>
<text text-anchor="middle" x="73" y="-581.95" font-family="Helvetica,sans-Serif" font-size="10.00">user</text>
<text text-anchor="middle" x="73" y="-570.95" font-family="Helvetica,sans-Serif" font-size="10.00">free</text>
</g>
<!-- Node6 -->
<g id="node6" class="node">
<title>Node6</title>
<g id="a_node6"><a xlink:title=" ">
<polygon fill="none" stroke="#bfbfbf" points="154,-532.45 154,-551.45 222,-551.45 222,-532.45 154,-532.45"/>
<text text-anchor="middle" x="188" y="-539.45" font-family="Helvetica,sans-Serif" font-size="10.00">FT_ListRec</text>
</a>
</g>
</g>
<!-- Node6&#45;&gt;Node1 -->
<g id="edge5" class="edge">
<title>Node6&#45;&gt;Node1</title>
<path fill="none" stroke="#9a32cd" stroke-dasharray="5,2" d="M232.25,-548.43C284.15,-555.19 367.17,-562.45 391,-543.95 417.6,-523.3 430.99,-413.63 434.53,-379.86"/>
<polygon fill="#9a32cd" stroke="#9a32cd" points="232.69,-544.96 222.31,-547.09 231.76,-551.89 232.69,-544.96"/>
<text text-anchor="middle" x="338.5" y="-557.95" font-family="Helvetica,sans-Serif" font-size="10.00"> sizes_list</text>
</g>
<!-- Node7 -->
<g id="node7" class="node">
<title>Node7</title>
<g id="a_node7"><a xlink:title=" ">
<polygon fill="none" stroke="#bfbfbf" points="167.5,-459.45 167.5,-478.45 208.5,-478.45 208.5,-459.45 167.5,-459.45"/>
<text text-anchor="middle" x="188" y="-466.45" font-family="Helvetica,sans-Serif" font-size="10.00">short</text>
</a>
</g>
</g>
<!-- Node7&#45;&gt;Node1 -->
<g id="edge6" class="edge">
<title>Node7&#45;&gt;Node1</title>
<path fill="none" stroke="#9a32cd" stroke-dasharray="5,2" d="M218.81,-468.41C267.94,-467.01 363.25,-461.99 391,-443.95 414.63,-428.6 427.55,-395.89 432.75,-379.59"/>
<polygon fill="#9a32cd" stroke="#9a32cd" points="218.42,-464.92 208.51,-468.67 218.59,-471.92 218.42,-464.92"/>
<text text-anchor="middle" x="338.5" y="-533.95" font-family="Helvetica,sans-Serif" font-size="10.00"> ascender</text>
<text text-anchor="middle" x="338.5" y="-522.95" font-family="Helvetica,sans-Serif" font-size="10.00">max_advance_height</text>
<text text-anchor="middle" x="338.5" y="-511.95" font-family="Helvetica,sans-Serif" font-size="10.00">max_advance_width</text>
<text text-anchor="middle" x="338.5" y="-500.95" font-family="Helvetica,sans-Serif" font-size="10.00">underline_thickness</text>
<text text-anchor="middle" x="338.5" y="-489.95" font-family="Helvetica,sans-Serif" font-size="10.00">height</text>
<text text-anchor="middle" x="338.5" y="-478.95" font-family="Helvetica,sans-Serif" font-size="10.00">underline_position</text>
<text text-anchor="middle" x="338.5" y="-467.95" font-family="Helvetica,sans-Serif" font-size="10.00">descender</text>
</g>
<!-- Node8 -->
<g id="node8" class="node">
<title>Node8</title>
<g id="a_node8"><a xlink:title=" ">
<polygon fill="none" stroke="#bfbfbf" points="145.5,-421.45 145.5,-440.45 230.5,-440.45 230.5,-421.45 145.5,-421.45"/>
<text text-anchor="middle" x="188" y="-428.45" font-family="Helvetica,sans-Serif" font-size="10.00">FT_CharMap *</text>
</a>
</g>
</g>
<!-- Node8&#45;&gt;Node1 -->
<g id="edge7" class="edge">
<title>Node8&#45;&gt;Node1</title>
<path fill="none" stroke="#9a32cd" stroke-dasharray="5,2" d="M240.77,-433.72C282.93,-434.04 343.11,-430 391,-408.95 406.05,-402.34 419.67,-388.76 427.77,-379.5"/>
<polygon fill="#9a32cd" stroke="#9a32cd" points="240.77,-430.22 230.72,-433.56 240.66,-437.22 240.77,-430.22"/>
<text text-anchor="middle" x="338.5" y="-435.95" font-family="Helvetica,sans-Serif" font-size="10.00"> charmaps</text>
</g>
<!-- Node9 -->
<g id="node9" class="node">
<title>Node9</title>
<g id="a_node9"><a xlink:title=" ">
<polygon fill="none" stroke="#bfbfbf" points="169,-382.45 169,-401.45 207,-401.45 207,-382.45 169,-382.45"/>
<text text-anchor="middle" x="188" y="-389.45" font-family="Helvetica,sans-Serif" font-size="10.00">char</text>
</a>
</g>
</g>
<!-- Node9&#45;&gt;Node1 -->
<g id="edge8" class="edge">
<title>Node9&#45;&gt;Node1</title>
<path fill="none" stroke="#9a32cd" stroke-dasharray="5,2" d="M217.1,-389.44C264.95,-385.17 361.61,-376.55 408.61,-372.35"/>
<polygon fill="#9a32cd" stroke="#9a32cd" points="216.77,-385.96 207.13,-390.33 217.4,-392.93 216.77,-385.96"/>
<text text-anchor="middle" x="338.5" y="-396.95" font-family="Helvetica,sans-Serif" font-size="10.00"> style_name</text>
<text text-anchor="middle" x="338.5" y="-385.95" font-family="Helvetica,sans-Serif" font-size="10.00">family_name</text>
</g>
<!-- Node10 -->
<g id="node10" class="node">
<title>Node10</title>
<g id="a_node10"><a xlink:title=" ">
<polygon fill="none" stroke="#bfbfbf" points="125.5,-344.45 125.5,-363.45 250.5,-363.45 250.5,-344.45 125.5,-344.45"/>
<text text-anchor="middle" x="188" y="-351.45" font-family="Helvetica,sans-Serif" font-size="10.00">struct FT_DriverRec_ *</text>
</a>
</g>
</g>
<!-- Node10&#45;&gt;Node1 -->
<g id="edge9" class="edge">
<title>Node10&#45;&gt;Node1</title>
<path fill="none" stroke="#9a32cd" stroke-dasharray="5,2" d="M261.07,-347.97C299.85,-346.25 348.34,-346.52 391,-353.95 398.6,-355.28 406.62,-357.79 413.73,-360.43"/>
<polygon fill="#9a32cd" stroke="#9a32cd" points="260.73,-344.49 250.91,-348.48 261.07,-351.48 260.73,-344.49"/>
<text text-anchor="middle" x="338.5" y="-356.95" font-family="Helvetica,sans-Serif" font-size="10.00"> driver</text>
</g>
<!-- Node11 -->
<g id="node11" class="node">
<title>Node11</title>
<g id="a_node11"><a xlink:title=" ">
<polygon fill="none" stroke="#bfbfbf" points="149.5,-306.45 149.5,-325.45 226.5,-325.45 226.5,-306.45 149.5,-306.45"/>
<text text-anchor="middle" x="188" y="-313.45" font-family="Helvetica,sans-Serif" font-size="10.00">FT_CharMap</text>
</a>
</g>
</g>
<!-- Node11&#45;&gt;Node1 -->
<g id="edge10" class="edge">
<title>Node11&#45;&gt;Node1</title>
<path fill="none" stroke="#9a32cd" stroke-dasharray="5,2" d="M236.68,-312.08C278.84,-310.46 341.21,-312.55 391,-332.95 405.5,-338.89 418.86,-351.33 427.07,-360.15"/>
<polygon fill="#9a32cd" stroke="#9a32cd" points="236.5,-308.58 226.68,-312.55 236.83,-315.57 236.5,-308.58"/>
<text text-anchor="middle" x="338.5" y="-335.95" font-family="Helvetica,sans-Serif" font-size="10.00"> charmap</text>
</g>
<!-- Node12 -->
<g id="node12" class="node">
<title>Node12</title>
<g id="a_node12"><a xlink:title=" ">
<polygon fill="none" stroke="#bfbfbf" points="173.5,-268.45 173.5,-287.45 202.5,-287.45 202.5,-268.45 173.5,-268.45"/>
<text text-anchor="middle" x="188" y="-275.45" font-family="Helvetica,sans-Serif" font-size="10.00">int</text>
</a>
</g>
</g>
<!-- Node12&#45;&gt;Node1 -->
<g id="edge11" class="edge">
<title>Node12&#45;&gt;Node1</title>
<path fill="none" stroke="#9a32cd" stroke-dasharray="5,2" d="M212.5,-272.05C252.58,-263.4 335.2,-251.85 391,-286.95 417.71,-303.76 429.44,-342.4 433.59,-360.4"/>
<polygon fill="#9a32cd" stroke="#9a32cd" points="211.57,-268.67 202.6,-274.32 213.13,-275.5 211.57,-268.67"/>
<text text-anchor="middle" x="338.5" y="-300.95" font-family="Helvetica,sans-Serif" font-size="10.00"> num_charmaps</text>
<text text-anchor="middle" x="338.5" y="-289.95" font-family="Helvetica,sans-Serif" font-size="10.00">num_fixed_sizes</text>
</g>
<!-- Node13 -->
<g id="node13" class="node">
<title>Node13</title>
<g id="a_node13"><a xlink:title=" ">
<polygon fill="none" stroke="#bfbfbf" points="154,-230.45 154,-249.45 222,-249.45 222,-230.45 154,-230.45"/>
<text text-anchor="middle" x="188" y="-237.45" font-family="Helvetica,sans-Serif" font-size="10.00">FT_Stream</text>
</a>
</g>
</g>
<!-- Node13&#45;&gt;Node1 -->
<g id="edge12" class="edge">
<title>Node13&#45;&gt;Node1</title>
<path fill="none" stroke="#9a32cd" stroke-dasharray="5,2" d="M232.23,-229.11C276.49,-220.69 345.13,-215.4 391,-248.95 427.86,-275.91 434.23,-336.74 435.3,-360.34"/>
<polygon fill="#9a32cd" stroke="#9a32cd" points="231.45,-225.69 222.35,-231.11 232.85,-232.55 231.45,-225.69"/>
<text text-anchor="middle" x="338.5" y="-251.95" font-family="Helvetica,sans-Serif" font-size="10.00"> stream</text>
</g>
<!-- Node14 -->
<g id="node14" class="node">
<title>Node14</title>
<g id="a_node14"><a xlink:title=" ">
<polygon fill="none" stroke="#bfbfbf" points="158.5,-192.45 158.5,-211.45 217.5,-211.45 217.5,-192.45 158.5,-192.45"/>
<text text-anchor="middle" x="188" y="-199.45" font-family="Helvetica,sans-Serif" font-size="10.00">FT_BBox</text>
</a>
</g>
</g>
<!-- Node14&#45;&gt;Node1 -->
<g id="edge13" class="edge">
<title>Node14&#45;&gt;Node1</title>
<path fill="none" stroke="#9a32cd" stroke-dasharray="5,2" d="M227.61,-197.85C279.09,-193.26 366.55,-188.73 391,-207.95 415.65,-227.33 430.28,-328.42 434.34,-360.31"/>
<polygon fill="#9a32cd" stroke="#9a32cd" points="227.15,-194.38 217.52,-198.8 227.8,-201.35 227.15,-194.38"/>
<text text-anchor="middle" x="338.5" y="-210.95" font-family="Helvetica,sans-Serif" font-size="10.00"> bbox</text>
</g>
<!-- Node15 -->
<g id="node15" class="node">
<title>Node15</title>
<g id="a_node15"><a xlink:title=" ">
<polygon fill="none" stroke="#bfbfbf" points="169,-122.45 169,-141.45 207,-141.45 207,-122.45 169,-122.45"/>
<text text-anchor="middle" x="188" y="-129.45" font-family="Helvetica,sans-Serif" font-size="10.00">long</text>
</a>
</g>
</g>
<!-- Node15&#45;&gt;Node1 -->
<g id="edge14" class="edge">
<title>Node15&#45;&gt;Node1</title>
<path fill="none" stroke="#9a32cd" stroke-dasharray="5,2" d="M217.23,-128.18C266.52,-122.25 365.49,-113.5 391,-134.95 426.27,-164.62 433.83,-319.56 435.22,-360.19"/>
<polygon fill="#9a32cd" stroke="#9a32cd" points="216.72,-124.71 207.23,-129.42 217.58,-131.66 216.72,-124.71"/>
<text text-anchor="middle" x="338.5" y="-181.95" font-family="Helvetica,sans-Serif" font-size="10.00"> style_flags</text>
<text text-anchor="middle" x="338.5" y="-170.95" font-family="Helvetica,sans-Serif" font-size="10.00">face_index</text>
<text text-anchor="middle" x="338.5" y="-159.95" font-family="Helvetica,sans-Serif" font-size="10.00">num_faces</text>
<text text-anchor="middle" x="338.5" y="-148.95" font-family="Helvetica,sans-Serif" font-size="10.00">num_glyphs</text>
<text text-anchor="middle" x="338.5" y="-137.95" font-family="Helvetica,sans-Serif" font-size="10.00">face_flags</text>
</g>
<!-- Node16&#45;&gt;Node1 -->
<g id="edge15" class="edge">
<title>Node16&#45;&gt;Node1</title>
<path fill="none" stroke="#9a32cd" stroke-dasharray="5,2" d="M232.54,-591.61C277.58,-600.84 347.33,-606.78 391,-569.95 420.84,-544.78 432.22,-415.74 434.86,-379.45"/>
<polygon fill="#9a32cd" stroke="#9a32cd" points="233.28,-588.19 222.76,-589.48 231.79,-595.03 233.28,-588.19"/>
<text text-anchor="middle" x="338.5" y="-600.95" font-family="Helvetica,sans-Serif" font-size="10.00"> memory</text>
</g>
<!-- Node17 -->
<g id="node17" class="node">
<title>Node17</title>
<g id="a_node17"><a xlink:title=" ">
<polygon fill="none" stroke="#bfbfbf" points="161.5,-84.45 161.5,-103.45 214.5,-103.45 214.5,-84.45 161.5,-84.45"/>
<text text-anchor="middle" x="188" y="-91.45" font-family="Helvetica,sans-Serif" font-size="10.00">FT_Size</text>
</a>
</g>
</g>
<!-- Node17&#45;&gt;Node1 -->
<g id="edge17" class="edge">
<title>Node17&#45;&gt;Node1</title>
<path fill="none" stroke="#9a32cd" stroke-dasharray="5,2" d="M224.68,-84.33C269.45,-74.62 345.84,-66.24 391,-106.95 429.52,-141.68 434.7,-316.99 435.39,-360.28"/>
<polygon fill="#9a32cd" stroke="#9a32cd" points="223.78,-80.95 214.82,-86.6 225.35,-87.77 223.78,-80.95"/>
<text text-anchor="middle" x="338.5" y="-109.95" font-family="Helvetica,sans-Serif" font-size="10.00"> size</text>
</g>
<!-- Node18 -->
<g id="node18" class="node">
<title>Node18</title>
<g id="a_node18"><a xlink:title=" ">
<polygon fill="none" stroke="#bfbfbf" points="157.5,-46.45 157.5,-65.45 218.5,-65.45 218.5,-46.45 157.5,-46.45"/>
<text text-anchor="middle" x="188" y="-53.45" font-family="Helvetica,sans-Serif" font-size="10.00">unsigned</text>
</a>
</g>
</g>
<!-- Node18&#45;&gt;Node1 -->
<g id="edge18" class="edge">
<title>Node18&#45;&gt;Node1</title>
<path fill="none" stroke="#9a32cd" stroke-dasharray="5,2" d="M228.79,-51.35C280.78,-46.29 367.92,-41.36 391,-61.95 436.66,-102.69 436.36,-312.45 435.68,-360.25"/>
<polygon fill="#9a32cd" stroke="#9a32cd" points="228.17,-47.9 218.58,-52.39 228.88,-54.86 228.17,-47.9"/>
<text text-anchor="middle" x="338.5" y="-64.95" font-family="Helvetica,sans-Serif" font-size="10.00"> units_per_EM</text>
</g>
<!-- Node19 -->
<g id="node19" class="node">
<title>Node19</title>
<g id="a_node19"><a xlink:title=" ">
<polygon fill="none" stroke="#bfbfbf" points="108,-8.45 108,-27.45 268,-27.45 268,-8.45 108,-8.45"/>
<text text-anchor="middle" x="188" y="-15.45" font-family="Helvetica,sans-Serif" font-size="10.00">struct FT_Face_InternalRec_ *</text>
</a>
</g>
</g>
<!-- Node19&#45;&gt;Node1 -->
<g id="edge19" class="edge">
<title>Node19&#45;&gt;Node1</title>
<path fill="none" stroke="#9a32cd" stroke-dasharray="5,2" d="M234.12,-6.41C279.84,2.31 349.57,7 391,-31.95 440.16,-78.17 437.05,-310.17 435.78,-360.36"/>
<polygon fill="#9a32cd" stroke="#9a32cd" points="233.28,-3.01 224.18,-8.45 234.68,-9.87 233.28,-3.01"/>
<text text-anchor="middle" x="338.5" y="-34.95" font-family="Helvetica,sans-Serif" font-size="10.00"> internal</text>
</g>
</g>
</svg>
        <g id="navigator" transform="translate(0 0)" fill="#404254">
                <rect fill="#f2f5e9" fill-opacity="0.5" stroke="#606060" stroke-width=".5" x="0" y="0" width="60" height="60"/>
                <use id="zoomplus" xlink:href="#zoomPlus" x="17" y="9" onmousedown="handleZoom(evt,'in')"/>
                <use id="zoomminus" xlink:href="#zoomMin" x="42" y="9" onmousedown="handleZoom(evt,'out')"/>
                <use id="reset" xlink:href="#resetDef" x="30" y="36" onmousedown="handleReset()"/>
                <g id="arrowUp" xlink:href="#dirArrow" transform="translate(30 24)" onmousedown="handlePan(0,-1)">
                  <use xlink:href="#rim" fill="#404040">
                        <set attributeName="fill" to="#808080" begin="arrowUp.mouseover" end="arrowUp.mouseout"/>
                  </use>
                  <path fill="none" stroke="white" stroke-width="1.5" d="M0,-3.0v7 M-2.5,-0.5L0,-3.0L2.5,-0.5"/>
                </g>
                <g id="arrowRight" xlink:href="#dirArrow" transform="rotate(90) translate(36 -43)" onmousedown="handlePan(1,0)">
                  <use xlink:href="#rim" fill="#404040">
                        <set attributeName="fill" to="#808080" begin="arrowRight.mouseover" end="arrowRight.mouseout"/>
                  </use>
                  <path fill="none" stroke="white" stroke-width="1.5" d="M0,-3.0v7 M-2.5,-0.5L0,-3.0L2.5,-0.5"/>
                </g>
                <g id="arrowDown" xlink:href="#dirArrow" transform="rotate(180) translate(-30 -48)" onmousedown="handlePan(0,1)">
                  <use xlink:href="#rim" fill="#404040">
                        <set attributeName="fill" to="#808080" begin="arrowDown.mouseover" end="arrowDown.mouseout"/>
                  </use>
                  <path fill="none" stroke="white" stroke-width="1.5" d="M0,-3.0v7 M-2.5,-0.5L0,-3.0L2.5,-0.5"/>
                </g>
                <g id="arrowLeft" xlink:href="#dirArrow" transform="rotate(270) translate(-36 17)" onmousedown="handlePan(-1,0)">
                  <use xlink:href="#rim" fill="#404040">
                        <set attributeName="fill" to="#808080" begin="arrowLeft.mouseover" end="arrowLeft.mouseout"/>
                  </use>
                  <path fill="none" stroke="white" stroke-width="1.5" d="M0,-3.0v7 M-2.5,-0.5L0,-3.0L2.5,-0.5"/>
                </g>
        </g>
        <svg viewBox="0 0 15 15" width="100%" height="30px" preserveAspectRatio="xMaxYMin meet">
         <g id="arrow_out" transform="scale(0.3 0.3)">
          <a xlink:href="structFT__FaceRec____coll__graph_org.svg" target="_base">
           <rect id="button" ry="5" rx="5" y="6" x="6" height="38" width="38"
                fill="#f2f5e9" fill-opacity="0.5" stroke="#606060" stroke-width="1.0"/>
           <path id="arrow"
             d="M 11.500037,31.436501 C 11.940474,20.09759 22.043105,11.32322 32.158766,21.979434 L 37.068811,17.246167 C 37.068811,17.246167 37.088388,32 37.088388,32 L 22.160133,31.978069 C 22.160133,31.978069 26.997745,27.140456 26.997745,27.140456 C 18.528582,18.264221 13.291696,25.230495 11.500037,31.436501 z"
             style="fill:#404040;"/>
          </a>
         </g>
        </svg>
</svg>
