<?xml version="1.0" encoding="UTF-8" standalone="no"?>
<!DOCTYPE svg PUBLIC "-//W3C//DTD SVG 1.1//EN"
 "http://www.w3.org/Graphics/SVG/1.1/DTD/svg11.dtd">
<!-- Generated by graphviz version 2.43.0 (0)
 -->
<!-- Title: FT_Open_Args_ Pages: 1 -->
<svg width="687pt" height="95pt"
 viewBox="0.00 0.00 686.50 95.00" xmlns="http://www.w3.org/2000/svg" xmlns:xlink="http://www.w3.org/1999/xlink">
<g id="graph0" class="graph" transform="scale(1 1) rotate(0) translate(4 91)">
<title>FT_Open_Args_</title>
<!-- Node1 -->
<g id="node1" class="node">
<title>Node1</title>
<g id="a_node1"><a xlink:title=" ">
<polygon fill="#bfbfbf" stroke="black" points="301.5,-0.5 301.5,-19.5 392.5,-19.5 392.5,-0.5 301.5,-0.5"/>
<text text-anchor="middle" x="347" y="-7.5" font-family="Helvetica,sans-Serif" font-size="10.00">FT_Open_Args_</text>
</a>
</g>
</g>
<!-- Node2 -->
<g id="node2" class="node">
<title>Node2</title>
<g id="a_node2"><a xlink:title=" ">
<polygon fill="none" stroke="#bfbfbf" points="0,-67.5 0,-86.5 38,-86.5 38,-67.5 0,-67.5"/>
<text text-anchor="middle" x="19" y="-74.5" font-family="Helvetica,sans-Serif" font-size="10.00">char</text>
</a>
</g>
</g>
<!-- Node2&#45;&gt;Node1 -->
<g id="edge1" class="edge">
<title>Node2&#45;&gt;Node1</title>
<path fill="none" stroke="#9a32cd" stroke-dasharray="5,2" d="M45.13,-63.07C63.42,-54.58 88.66,-43.99 112,-38 176.44,-21.47 253.43,-15.05 301.28,-12.56"/>
<polygon fill="#9a32cd" stroke="#9a32cd" points="43.54,-59.95 36,-67.4 46.54,-66.27 43.54,-59.95"/>
<text text-anchor="middle" x="138.5" y="-41" font-family="Helvetica,sans-Serif" font-size="10.00"> pathname</text>
</g>
<!-- Node3 -->
<g id="node3" class="node">
<title>Node3</title>
<g id="a_node3"><a xlink:title=" ">
<polygon fill="none" stroke="#bfbfbf" points="56.5,-67.5 56.5,-86.5 187.5,-86.5 187.5,-67.5 56.5,-67.5"/>
<text text-anchor="middle" x="122" y="-74.5" font-family="Helvetica,sans-Serif" font-size="10.00">struct FT_ModuleRec_ *</text>
</a>
</g>
</g>
<!-- Node3&#45;&gt;Node1 -->
<g id="edge2" class="edge">
<title>Node3&#45;&gt;Node1</title>
<path fill="none" stroke="#9a32cd" stroke-dasharray="5,2" d="M144.01,-62.08C157.87,-53.91 176.4,-44.03 194,-38 228.96,-26.02 270.32,-19.13 301.22,-15.31"/>
<polygon fill="#9a32cd" stroke="#9a32cd" points="141.97,-59.22 135.23,-67.39 145.6,-65.21 141.97,-59.22"/>
<text text-anchor="middle" x="210" y="-41" font-family="Helvetica,sans-Serif" font-size="10.00"> driver</text>
</g>
<!-- Node4 -->
<g id="node4" class="node">
<title>Node4</title>
<g id="a_node4"><a xlink:title=" ">
<polygon fill="none" stroke="#bfbfbf" points="205.5,-67.5 205.5,-86.5 234.5,-86.5 234.5,-67.5 205.5,-67.5"/>
<text text-anchor="middle" x="220" y="-74.5" font-family="Helvetica,sans-Serif" font-size="10.00">int</text>
</a>
</g>
</g>
<!-- Node4&#45;&gt;Node1 -->
<g id="edge3" class="edge">
<title>Node4&#45;&gt;Node1</title>
<path fill="none" stroke="#9a32cd" stroke-dasharray="5,2" d="M225.91,-57.74C229.05,-50.64 233.62,-43.02 240,-38 257.39,-24.32 280.87,-17.48 301.4,-14.11"/>
<polygon fill="#9a32cd" stroke="#9a32cd" points="222.51,-56.82 222.27,-67.41 229.07,-59.28 222.51,-56.82"/>
<text text-anchor="middle" x="273.5" y="-41" font-family="Helvetica,sans-Serif" font-size="10.00"> num_params</text>
</g>
<!-- Node5 -->
<g id="node5" class="node">
<title>Node5</title>
<g id="a_node5"><a xlink:title=" ">
<polygon fill="none" stroke="#bfbfbf" points="253,-67.5 253,-86.5 321,-86.5 321,-67.5 253,-67.5"/>
<text text-anchor="middle" x="287" y="-74.5" font-family="Helvetica,sans-Serif" font-size="10.00">FT_Stream</text>
</a>
</g>
</g>
<!-- Node5&#45;&gt;Node1 -->
<g id="edge4" class="edge">
<title>Node5&#45;&gt;Node1</title>
<path fill="none" stroke="#9a32cd" stroke-dasharray="5,2" d="M301.38,-59.66C307.39,-52.91 314.48,-45.03 321,-38 326.67,-31.9 333.17,-25.15 338.25,-19.92"/>
<polygon fill="#9a32cd" stroke="#9a32cd" points="298.48,-57.66 294.47,-67.47 303.72,-62.3 298.48,-57.66"/>
<text text-anchor="middle" x="340" y="-41" font-family="Helvetica,sans-Serif" font-size="10.00"> stream</text>
</g>
<!-- Node6 -->
<g id="node6" class="node">
<title>Node6</title>
<g id="a_node6"><a xlink:title=" ">
<polygon fill="none" stroke="#bfbfbf" points="339,-67.5 339,-86.5 431,-86.5 431,-67.5 339,-67.5"/>
<text text-anchor="middle" x="385" y="-74.5" font-family="Helvetica,sans-Serif" font-size="10.00">FT_Parameter *</text>
</a>
</g>
</g>
<!-- Node6&#45;&gt;Node1 -->
<g id="edge5" class="edge">
<title>Node6&#45;&gt;Node1</title>
<path fill="none" stroke="#9a32cd" stroke-dasharray="5,2" d="M374.79,-58.53C367.43,-45.95 357.82,-29.51 352.04,-19.63"/>
<polygon fill="#9a32cd" stroke="#9a32cd" points="371.81,-60.37 379.88,-67.23 377.85,-56.83 371.81,-60.37"/>
<text text-anchor="middle" x="388" y="-41" font-family="Helvetica,sans-Serif" font-size="10.00"> params</text>
</g>
<!-- Node7 -->
<g id="node7" class="node">
<title>Node7</title>
<g id="a_node7"><a xlink:title=" ">
<polygon fill="none" stroke="#bfbfbf" points="449,-67.5 449,-86.5 487,-86.5 487,-67.5 449,-67.5"/>
<text text-anchor="middle" x="468" y="-74.5" font-family="Helvetica,sans-Serif" font-size="10.00">long</text>
</a>
</g>
</g>
<!-- Node7&#45;&gt;Node1 -->
<g id="edge6" class="edge">
<title>Node7&#45;&gt;Node1</title>
<path fill="none" stroke="#9a32cd" stroke-dasharray="5,2" d="M448.77,-61.53C438.24,-53.97 424.76,-44.89 412,-38 398.77,-30.86 383.25,-24.35 370.69,-19.51"/>
<polygon fill="#9a32cd" stroke="#9a32cd" points="446.71,-64.35 456.85,-67.43 450.84,-58.7 446.71,-64.35"/>
<text text-anchor="middle" x="464" y="-41" font-family="Helvetica,sans-Serif" font-size="10.00"> memory_size</text>
</g>
<!-- Node8 -->
<g id="node8" class="node">
<title>Node8</title>
<g id="a_node8"><a xlink:title=" ">
<polygon fill="none" stroke="#bfbfbf" points="505.5,-67.5 505.5,-86.5 598.5,-86.5 598.5,-67.5 505.5,-67.5"/>
<text text-anchor="middle" x="552" y="-74.5" font-family="Helvetica,sans-Serif" font-size="10.00">const FT_Byte *</text>
</a>
</g>
</g>
<!-- Node8&#45;&gt;Node1 -->
<g id="edge7" class="edge">
<title>Node8&#45;&gt;Node1</title>
<path fill="none" stroke="#9a32cd" stroke-dasharray="5,2" d="M536.1,-60.41C527.1,-52.48 515.22,-43.39 503,-38 467.92,-22.52 424.75,-15.9 392.72,-13.07"/>
<polygon fill="#9a32cd" stroke="#9a32cd" points="533.77,-63.02 543.49,-67.24 538.52,-57.88 533.77,-63.02"/>
<text text-anchor="middle" x="556.5" y="-41" font-family="Helvetica,sans-Serif" font-size="10.00"> memory_base</text>
</g>
<!-- Node9 -->
<g id="node9" class="node">
<title>Node9</title>
<g id="a_node9"><a xlink:title=" ">
<polygon fill="none" stroke="#bfbfbf" points="617.5,-67.5 617.5,-86.5 678.5,-86.5 678.5,-67.5 617.5,-67.5"/>
<text text-anchor="middle" x="648" y="-74.5" font-family="Helvetica,sans-Serif" font-size="10.00">unsigned</text>
</a>
</g>
</g>
<!-- Node9&#45;&gt;Node1 -->
<g id="edge8" class="edge">
<title>Node9&#45;&gt;Node1</title>
<path fill="none" stroke="#9a32cd" stroke-dasharray="5,2" d="M631.82,-60.4C622.42,-52.3 609.91,-43.06 597,-38 560.88,-23.83 454.4,-16.32 392.67,-13.05"/>
<polygon fill="#9a32cd" stroke="#9a32cd" points="629.75,-63.24 639.51,-67.37 634.45,-58.06 629.75,-63.24"/>
<text text-anchor="middle" x="629.5" y="-41" font-family="Helvetica,sans-Serif" font-size="10.00"> flags</text>
</g>
</g>
</svg>
