<?xml version="1.0" encoding="UTF-8" standalone="no"?>
<!DOCTYPE svg PUBLIC "-//W3C//DTD SVG 1.1//EN"
 "http://www.w3.org/Graphics/SVG/1.1/DTD/svg11.dtd">
<!-- Generated by graphviz version 2.43.0 (0)
 -->
<!-- Title: GOPHER_VIEW_ATTRIBUTE_TYPE Pages: 1 -->
<svg width="185pt" height="106pt"
 viewBox="0.00 0.00 185.00 106.00" xmlns="http://www.w3.org/2000/svg" xmlns:xlink="http://www.w3.org/1999/xlink">
<g id="graph0" class="graph" transform="scale(1 1) rotate(0) translate(4 102)">
<title>GOPHER_VIEW_ATTRIBUTE_TYPE</title>
<!-- Node1 -->
<g id="node1" class="node">
<title>Node1</title>
<g id="a_node1"><a xlink:title=" ">
<polygon fill="#bfbfbf" stroke="black" points="0,-0.5 0,-19.5 177,-19.5 177,-0.5 0,-0.5"/>
<text text-anchor="middle" x="88.5" y="-7.5" font-family="Helvetica,sans-Serif" font-size="10.00">GOPHER_VIEW_ATTRIBUTE_TYPE</text>
</a>
</g>
</g>
<!-- Node2 -->
<g id="node2" class="node">
<title>Node2</title>
<g id="a_node2"><a xlink:title=" ">
<polygon fill="none" stroke="#bfbfbf" points="16,-78.5 16,-97.5 75,-97.5 75,-78.5 16,-78.5"/>
<text text-anchor="middle" x="45.5" y="-85.5" font-family="Helvetica,sans-Serif" font-size="10.00">LPCTSTR</text>
</a>
</g>
</g>
<!-- Node2&#45;&gt;Node1 -->
<g id="edge1" class="edge">
<title>Node2&#45;&gt;Node1</title>
<path fill="none" stroke="#9a32cd" stroke-dasharray="5,2" d="M41.87,-68.27C40.97,-58.65 41.43,-47.07 46.5,-38 50.99,-29.98 58.96,-23.97 66.76,-19.69"/>
<polygon fill="#9a32cd" stroke="#9a32cd" points="38.45,-69.02 43.37,-78.4 45.37,-68 38.45,-69.02"/>
<text text-anchor="middle" x="78.5" y="-52" font-family="Helvetica,sans-Serif" font-size="10.00"> ContentType</text>
<text text-anchor="middle" x="78.5" y="-41" font-family="Helvetica,sans-Serif" font-size="10.00">Language</text>
</g>
<!-- Node3 -->
<g id="node3" class="node">
<title>Node3</title>
<g id="a_node3"><a xlink:title=" ">
<polygon fill="none" stroke="#bfbfbf" points="113.5,-78.5 113.5,-97.5 151.5,-97.5 151.5,-78.5 113.5,-78.5"/>
<text text-anchor="middle" x="132.5" y="-85.5" font-family="Helvetica,sans-Serif" font-size="10.00">long</text>
</a>
</g>
</g>
<!-- Node3&#45;&gt;Node1 -->
<g id="edge2" class="edge">
<title>Node3&#45;&gt;Node1</title>
<path fill="none" stroke="#9a32cd" stroke-dasharray="5,2" d="M125.64,-68.75C121.76,-59.28 116.48,-47.69 110.5,-38 106.44,-31.41 100.94,-24.66 96.45,-19.56"/>
<polygon fill="#9a32cd" stroke="#9a32cd" points="122.49,-70.31 129.4,-78.34 129.01,-67.75 122.49,-70.31"/>
<text text-anchor="middle" x="132.5" y="-46.5" font-family="Helvetica,sans-Serif" font-size="10.00"> Size</text>
</g>
</g>
</svg>
