<?xml version="1.0" encoding="UTF-8" standalone="no"?>
<!DOCTYPE svg PUBLIC "-//W3C//DTD SVG 1.1//EN"
 "http://www.w3.org/Graphics/SVG/1.1/DTD/svg11.dtd">
<!-- Generated by graphviz version 2.43.0 (0)
 -->
<!-- Title: Tools/MinGW/include/c++/4.6.1/ext/pb_ds/detail/binomial_heap_/binomial_heap_.hpp Pages: 1 -->
<!--zoomable 798 -->
<svg id="main" version="1.1" xmlns="http://www.w3.org/2000/svg" xmlns:xlink="http://www.w3.org/1999/xlink" xml:space="preserve" onload="init(evt)">
<style type="text/css"><![CDATA[
.edge:hover path { stroke: red; }
.edge:hover polygon { stroke: red; fill: red; }
]]></style>
<script type="text/javascript"><![CDATA[
var edges = document.getElementsByTagName('g');
if (edges && edges.length) {
  for (var i=0;i<edges.length;i++) {
    if (edges[i].id.substr(0,4)=='edge') {
      edges[i].setAttribute('class','edge');
    }
  }
}
]]></script>
        <defs>
                <circle id="rim" cx="0" cy="0" r="7"/>
                <circle id="rim2" cx="0" cy="0" r="3.5"/>
                <g id="zoomPlus">
                        <use xlink:href="#rim" fill="#404040">
                                <set attributeName="fill" to="#808080" begin="zoomplus.mouseover" end="zoomplus.mouseout"/>
                        </use>
                        <path d="M-4,0h8M0,-4v8" fill="none" stroke="white" stroke-width="1.5" pointer-events="none"/>
                </g>
                <g id="zoomMin">
                        <use xlink:href="#rim" fill="#404040">
                                <set attributeName="fill" to="#808080" begin="zoomminus.mouseover" end="zoomminus.mouseout"/>
                        </use>
                        <path d="M-4,0h8" fill="none" stroke="white" stroke-width="1.5" pointer-events="none"/>
                </g>
                <g id="dirArrow">
                        <path fill="none" stroke="white" stroke-width="1.5" d="M0,-3.0v7 M-2.5,-0.5L0,-3.0L2.5,-0.5"/>
                </g>
               <g id="resetDef">
                       <use xlink:href="#rim2" fill="#404040">
                               <set attributeName="fill" to="#808080" begin="reset.mouseover" end="reset.mouseout"/>
                       </use>
               </g>
        </defs>

<script type="text/javascript">
var viewWidth = 2443;
var viewHeight = 798;
var sectionId = 'dynsection-0';
</script>
<script xlink:href="../../svgpan.js"/>
<svg id="graph" class="graph">
<g id="viewport">
<title>Tools/MinGW/include/c++/4.6.1/ext/pb_ds/detail/binomial_heap_/binomial_heap_.hpp</title>
<!-- Node1 -->
<g id="node1" class="node">
<title>Node1</title>
<g id="a_node1"><a xlink:title=" ">
<polygon fill="#bfbfbf" stroke="black" points="1973.5,-737.5 1973.5,-789.5 2096.5,-789.5 2096.5,-737.5 1973.5,-737.5"/>
<text text-anchor="start" x="1981.5" y="-777.5" font-family="Helvetica,sans-Serif" font-size="10.00">Tools/MinGW/include</text>
<text text-anchor="start" x="1981.5" y="-766.5" font-family="Helvetica,sans-Serif" font-size="10.00">/c++/4.6.1/ext/pb_ds</text>
<text text-anchor="start" x="1981.5" y="-755.5" font-family="Helvetica,sans-Serif" font-size="10.00">/detail/binomial_heap</text>
<text text-anchor="middle" x="2035" y="-744.5" font-family="Helvetica,sans-Serif" font-size="10.00">_/binomial_heap_.hpp</text>
</a>
</g>
</g>
<!-- Node2 -->
<g id="node2" class="node">
<title>Node2</title>
<g id="a_node2"><a xlink:href="../../db/d16/debug_8h.html" target="_top" xlink:title=" ">
<polygon fill="none" stroke="black" points="990.5,-347.5 990.5,-366.5 1079.5,-366.5 1079.5,-347.5 990.5,-347.5"/>
<text text-anchor="middle" x="1035" y="-354.5" font-family="Helvetica,sans-Serif" font-size="10.00">debug/debug.h</text>
</a>
</g>
</g>
<!-- Node1&#45;&gt;Node2 -->
<g id="edge1" class="edge">
<title>Node1&#45;&gt;Node2</title>
<path fill="none" stroke="midnightblue" d="M1973.26,-760.81C1632.83,-751.07 0,-699.1 0,-597.5 0,-597.5 0,-597.5 0,-506.5 0,-430.54 64.56,-428.8 136,-403 309.84,-340.22 778.17,-384.95 980.26,-366.86"/>
<polygon fill="midnightblue" stroke="midnightblue" points="980.65,-370.34 990.27,-365.89 979.98,-363.37 980.65,-370.34"/>
</g>
<!-- Node3 -->
<g id="node3" class="node">
<title>Node3</title>
<g id="a_node3"><a xlink:href="../../d0/d44/cond__dealtor_8hpp.html" target="_top" xlink:title=" ">
<polygon fill="none" stroke="black" points="1883.5,-492.5 1883.5,-522.5 2004.5,-522.5 2004.5,-492.5 1883.5,-492.5"/>
<text text-anchor="start" x="1891.5" y="-510.5" font-family="Helvetica,sans-Serif" font-size="10.00">ext/pb_ds/detail/cond</text>
<text text-anchor="middle" x="1944" y="-499.5" font-family="Helvetica,sans-Serif" font-size="10.00">_dealtor.hpp</text>
</a>
</g>
</g>
<!-- Node1&#45;&gt;Node3 -->
<g id="edge2" class="edge">
<title>Node1&#45;&gt;Node3</title>
<path fill="none" stroke="midnightblue" d="M2025.94,-737.22C2008.31,-688 1969.6,-579.97 1952.46,-532.12"/>
<polygon fill="midnightblue" stroke="midnightblue" points="1955.72,-530.83 1949.05,-522.6 1949.13,-533.2 1955.72,-530.83"/>
</g>
<!-- Node4 -->
<g id="node4" class="node">
<title>Node4</title>
<g id="a_node4"><a xlink:href="../../d4/d56/type__utils_8hpp.html" target="_top" xlink:title=" ">
<polygon fill="none" stroke="black" points="1757.5,-280.5 1757.5,-310.5 1876.5,-310.5 1876.5,-280.5 1757.5,-280.5"/>
<text text-anchor="start" x="1765.5" y="-298.5" font-family="Helvetica,sans-Serif" font-size="10.00">ext/pb_ds/detail/type</text>
<text text-anchor="middle" x="1817" y="-287.5" font-family="Helvetica,sans-Serif" font-size="10.00">_utils.hpp</text>
</a>
</g>
</g>
<!-- Node1&#45;&gt;Node4 -->
<g id="edge3" class="edge">
<title>Node1&#45;&gt;Node4</title>
<path fill="none" stroke="midnightblue" d="M2043.99,-737.43C2054.65,-705.41 2071,-648.08 2071,-597.5 2071,-597.5 2071,-597.5 2071,-423 2071,-340.43 1962.11,-311.75 1886.92,-301.8"/>
<polygon fill="midnightblue" stroke="midnightblue" points="1886.91,-298.27 1876.55,-300.51 1886.05,-305.21 1886.91,-298.27"/>
</g>
<!-- Node14 -->
<g id="node14" class="node">
<title>Node14</title>
<g id="a_node14"><a xlink:href="../../d5/da0/binomial__heap__base___8hpp.html" target="_top" xlink:title=" ">
<polygon fill="none" stroke="black" points="995.5,-659.5 995.5,-700.5 1150.5,-700.5 1150.5,-659.5 995.5,-659.5"/>
<text text-anchor="start" x="1003.5" y="-688.5" font-family="Helvetica,sans-Serif" font-size="10.00">ext/pb_ds/detail/binomial</text>
<text text-anchor="start" x="1003.5" y="-677.5" font-family="Helvetica,sans-Serif" font-size="10.00">_heap_base_/binomial_heap</text>
<text text-anchor="middle" x="1073" y="-666.5" font-family="Helvetica,sans-Serif" font-size="10.00">_base_.hpp</text>
</a>
</g>
</g>
<!-- Node1&#45;&gt;Node14 -->
<g id="edge16" class="edge">
<title>Node1&#45;&gt;Node14</title>
<path fill="none" stroke="midnightblue" d="M1973.36,-757.28C1807.85,-743.26 1353.28,-704.75 1160.87,-688.44"/>
<polygon fill="midnightblue" stroke="midnightblue" points="1161.06,-684.95 1150.8,-687.59 1160.47,-691.92 1161.06,-684.95"/>
</g>
<!-- Node36 -->
<g id="node36" class="node">
<title>Node36</title>
<g id="a_node36"><a xlink:href="../../da/d61/binomial__heap___2constructors__destructor__fn__imps_8hpp.html" target="_top" xlink:title=" ">
<polygon fill="none" stroke="black" points="2098.5,-659.5 2098.5,-700.5 2267.5,-700.5 2267.5,-659.5 2098.5,-659.5"/>
<text text-anchor="start" x="2106.5" y="-688.5" font-family="Helvetica,sans-Serif" font-size="10.00">ext/pb_ds/detail/binomial</text>
<text text-anchor="start" x="2106.5" y="-677.5" font-family="Helvetica,sans-Serif" font-size="10.00">_heap_/constructors_destructor</text>
<text text-anchor="middle" x="2183" y="-666.5" font-family="Helvetica,sans-Serif" font-size="10.00">_fn_imps.hpp</text>
</a>
</g>
</g>
<!-- Node1&#45;&gt;Node36 -->
<g id="edge50" class="edge">
<title>Node1&#45;&gt;Node36</title>
<path fill="none" stroke="midnightblue" d="M2080.61,-737.38C2098.84,-727.35 2119.77,-715.82 2137.94,-705.81"/>
<polygon fill="midnightblue" stroke="midnightblue" points="2140.09,-708.62 2147.16,-700.73 2136.72,-702.49 2140.09,-708.62"/>
</g>
<!-- Node37 -->
<g id="node37" class="node">
<title>Node37</title>
<g id="a_node37"><a xlink:href="../../df/d32/binomial__heap___2debug__fn__imps_8hpp.html" target="_top" xlink:title=" ">
<polygon fill="none" stroke="black" points="2285.5,-665 2285.5,-695 2434.5,-695 2434.5,-665 2285.5,-665"/>
<text text-anchor="start" x="2293.5" y="-683" font-family="Helvetica,sans-Serif" font-size="10.00">ext/pb_ds/detail/binomial</text>
<text text-anchor="middle" x="2360" y="-672" font-family="Helvetica,sans-Serif" font-size="10.00">_heap_/debug_fn_imps.hpp</text>
</a>
</g>
</g>
<!-- Node1&#45;&gt;Node37 -->
<g id="edge51" class="edge">
<title>Node1&#45;&gt;Node37</title>
<path fill="none" stroke="midnightblue" d="M2096.51,-747.07C2153.05,-732.9 2236.61,-711.94 2294.4,-697.45"/>
<polygon fill="midnightblue" stroke="midnightblue" points="2295.32,-700.83 2304.16,-695 2293.61,-694.04 2295.32,-700.83"/>
</g>
<!-- Node5 -->
<g id="node5" class="node">
<title>Node5</title>
<g id="a_node5"><a xlink:title=" ">
<polygon fill="none" stroke="#bfbfbf" points="1757.5,-224.5 1757.5,-243.5 1810.5,-243.5 1810.5,-224.5 1757.5,-224.5"/>
<text text-anchor="middle" x="1784" y="-231.5" font-family="Helvetica,sans-Serif" font-size="10.00">cstddef</text>
</a>
</g>
</g>
<!-- Node4&#45;&gt;Node5 -->
<g id="edge4" class="edge">
<title>Node4&#45;&gt;Node5</title>
<path fill="none" stroke="midnightblue" d="M1809.18,-280.4C1804.53,-272.02 1798.6,-261.33 1793.66,-252.42"/>
<polygon fill="midnightblue" stroke="midnightblue" points="1796.71,-250.71 1788.8,-243.66 1790.59,-254.1 1796.71,-250.71"/>
</g>
<!-- Node6 -->
<g id="node6" class="node">
<title>Node6</title>
<g id="a_node6"><a xlink:title=" ">
<polygon fill="none" stroke="#bfbfbf" points="1828.5,-224.5 1828.5,-243.5 1873.5,-243.5 1873.5,-224.5 1828.5,-224.5"/>
<text text-anchor="middle" x="1851" y="-231.5" font-family="Helvetica,sans-Serif" font-size="10.00">utility</text>
</a>
</g>
</g>
<!-- Node4&#45;&gt;Node6 -->
<g id="edge5" class="edge">
<title>Node4&#45;&gt;Node6</title>
<path fill="none" stroke="midnightblue" d="M1825.06,-280.4C1829.85,-272.02 1835.96,-261.33 1841.04,-252.42"/>
<polygon fill="midnightblue" stroke="midnightblue" points="1844.13,-254.08 1846.05,-243.66 1838.05,-250.6 1844.13,-254.08"/>
</g>
<!-- Node7 -->
<g id="node7" class="node">
<title>Node7</title>
<g id="a_node7"><a xlink:title=" ">
<polygon fill="none" stroke="#bfbfbf" points="1892,-224.5 1892,-243.5 1978,-243.5 1978,-224.5 1892,-224.5"/>
<text text-anchor="middle" x="1935" y="-231.5" font-family="Helvetica,sans-Serif" font-size="10.00">tr1/type_traits</text>
</a>
</g>
</g>
<!-- Node4&#45;&gt;Node7 -->
<g id="edge6" class="edge">
<title>Node4&#45;&gt;Node7</title>
<path fill="none" stroke="midnightblue" d="M1844.96,-280.4C1864.32,-270.64 1889.91,-257.74 1908.86,-248.18"/>
<polygon fill="midnightblue" stroke="midnightblue" points="1910.48,-251.29 1917.83,-243.66 1907.33,-245.04 1910.48,-251.29"/>
</g>
<!-- Node8 -->
<g id="node8" class="node">
<title>Node8</title>
<g id="a_node8"><a xlink:href="../../df/d63/type__traits_8h.html" target="_top" xlink:title=" ">
<polygon fill="none" stroke="black" points="1550.5,-168.5 1550.5,-187.5 1647.5,-187.5 1647.5,-168.5 1550.5,-168.5"/>
<text text-anchor="middle" x="1599" y="-175.5" font-family="Helvetica,sans-Serif" font-size="10.00">ext/type_traits.h</text>
</a>
</g>
</g>
<!-- Node4&#45;&gt;Node8 -->
<g id="edge7" class="edge">
<title>Node4&#45;&gt;Node8</title>
<path fill="none" stroke="midnightblue" d="M1757.33,-286.32C1705.54,-278.04 1635.84,-263.65 1616,-244 1603.97,-232.08 1600.12,-212.78 1599.03,-198.29"/>
<polygon fill="midnightblue" stroke="midnightblue" points="1602.52,-197.82 1598.66,-187.95 1595.52,-198.07 1602.52,-197.82"/>
</g>
<!-- Node13 -->
<g id="node13" class="node">
<title>Node13</title>
<g id="a_node13"><a xlink:href="../../d0/d77/numeric__traits_8h.html" target="_top" xlink:title=" ">
<polygon fill="none" stroke="black" points="1624.5,-224.5 1624.5,-243.5 1739.5,-243.5 1739.5,-224.5 1624.5,-224.5"/>
<text text-anchor="middle" x="1682" y="-231.5" font-family="Helvetica,sans-Serif" font-size="10.00">ext/numeric_traits.h</text>
</a>
</g>
</g>
<!-- Node4&#45;&gt;Node13 -->
<g id="edge13" class="edge">
<title>Node4&#45;&gt;Node13</title>
<path fill="none" stroke="midnightblue" d="M1785.01,-280.4C1762.56,-270.51 1732.79,-257.38 1711.02,-247.79"/>
<polygon fill="midnightblue" stroke="midnightblue" points="1712.21,-244.49 1701.64,-243.66 1709.38,-250.89 1712.21,-244.49"/>
</g>
<!-- Node9 -->
<g id="node9" class="node">
<title>Node9</title>
<g id="a_node9"><a xlink:href="../../d1/db9/c_09_09config_8h.html" target="_top" xlink:title=" ">
<polygon fill="none" stroke="black" points="1493,-56.5 1493,-75.5 1591,-75.5 1591,-56.5 1493,-56.5"/>
<text text-anchor="middle" x="1542" y="-63.5" font-family="Helvetica,sans-Serif" font-size="10.00">bits/c++config.h</text>
</a>
</g>
</g>
<!-- Node8&#45;&gt;Node9 -->
<g id="edge8" class="edge">
<title>Node8&#45;&gt;Node9</title>
<path fill="none" stroke="midnightblue" d="M1589.59,-168.2C1581.01,-159.69 1568.55,-146.05 1561,-132 1553.18,-117.43 1548.22,-99.26 1545.33,-85.83"/>
<polygon fill="midnightblue" stroke="midnightblue" points="1548.74,-85 1543.38,-75.86 1541.87,-86.34 1548.74,-85"/>
</g>
<!-- Node12 -->
<g id="node12" class="node">
<title>Node12</title>
<g id="a_node12"><a xlink:href="../../da/db4/cpp__type__traits_8h.html" target="_top" xlink:title=" ">
<polygon fill="none" stroke="black" points="1570,-112.5 1570,-131.5 1692,-131.5 1692,-112.5 1570,-112.5"/>
<text text-anchor="middle" x="1631" y="-119.5" font-family="Helvetica,sans-Serif" font-size="10.00">bits/cpp_type_traits.h</text>
</a>
</g>
</g>
<!-- Node8&#45;&gt;Node12 -->
<g id="edge11" class="edge">
<title>Node8&#45;&gt;Node12</title>
<path fill="none" stroke="midnightblue" d="M1604.28,-168.08C1608.71,-160.61 1615.16,-149.72 1620.62,-140.52"/>
<polygon fill="midnightblue" stroke="midnightblue" points="1623.73,-142.14 1625.81,-131.75 1617.71,-138.57 1623.73,-142.14"/>
</g>
<!-- Node10 -->
<g id="node10" class="node">
<title>Node10</title>
<g id="a_node10"><a xlink:href="../../d5/d0b/os__defines_8h.html" target="_top" xlink:title=" ">
<polygon fill="none" stroke="black" points="1434,-0.5 1434,-19.5 1532,-19.5 1532,-0.5 1434,-0.5"/>
<text text-anchor="middle" x="1483" y="-7.5" font-family="Helvetica,sans-Serif" font-size="10.00">bits/os_defines.h</text>
</a>
</g>
</g>
<!-- Node9&#45;&gt;Node10 -->
<g id="edge9" class="edge">
<title>Node9&#45;&gt;Node10</title>
<path fill="none" stroke="midnightblue" d="M1532.52,-56.32C1523.8,-48.34 1510.66,-36.31 1500.1,-26.65"/>
<polygon fill="midnightblue" stroke="midnightblue" points="1502.39,-24 1492.65,-19.83 1497.67,-29.17 1502.39,-24"/>
</g>
<!-- Node11 -->
<g id="node11" class="node">
<title>Node11</title>
<g id="a_node11"><a xlink:href="../../d0/d75/cpu__defines_8h.html" target="_top" xlink:title=" ">
<polygon fill="none" stroke="black" points="1550,-0.5 1550,-19.5 1654,-19.5 1654,-0.5 1550,-0.5"/>
<text text-anchor="middle" x="1602" y="-7.5" font-family="Helvetica,sans-Serif" font-size="10.00">bits/cpu_defines.h</text>
</a>
</g>
</g>
<!-- Node9&#45;&gt;Node11 -->
<g id="edge10" class="edge">
<title>Node9&#45;&gt;Node11</title>
<path fill="none" stroke="midnightblue" d="M1551.64,-56.32C1560.51,-48.34 1573.87,-36.31 1584.61,-26.65"/>
<polygon fill="midnightblue" stroke="midnightblue" points="1587.09,-29.13 1592.18,-19.83 1582.41,-23.92 1587.09,-29.13"/>
</g>
<!-- Node12&#45;&gt;Node9 -->
<g id="edge12" class="edge">
<title>Node12&#45;&gt;Node9</title>
<path fill="none" stroke="midnightblue" d="M1616.7,-112.32C1602.82,-103.9 1581.51,-90.97 1565.2,-81.07"/>
<polygon fill="midnightblue" stroke="midnightblue" points="1566.63,-77.85 1556.26,-75.65 1563,-83.83 1566.63,-77.85"/>
</g>
<!-- Node13&#45;&gt;Node8 -->
<g id="edge15" class="edge">
<title>Node13&#45;&gt;Node8</title>
<path fill="none" stroke="midnightblue" d="M1668.66,-224.32C1655.84,-215.98 1636.22,-203.21 1621.06,-193.35"/>
<polygon fill="midnightblue" stroke="midnightblue" points="1622.59,-190.17 1612.3,-187.65 1618.78,-196.04 1622.59,-190.17"/>
</g>
<!-- Node13&#45;&gt;Node12 -->
<g id="edge14" class="edge">
<title>Node13&#45;&gt;Node12</title>
<path fill="none" stroke="midnightblue" d="M1679.18,-224.41C1674.93,-211.8 1666.38,-187.64 1657,-168 1652.53,-158.64 1646.83,-148.6 1641.9,-140.39"/>
<polygon fill="midnightblue" stroke="midnightblue" points="1644.81,-138.44 1636.6,-131.74 1638.84,-142.1 1644.81,-138.44"/>
</g>
<!-- Node14&#45;&gt;Node2 -->
<g id="edge17" class="edge">
<title>Node14&#45;&gt;Node2</title>
<path fill="none" stroke="midnightblue" d="M1150.54,-675.45C1320.39,-665.89 1716.67,-633.2 1798,-534 1812.93,-515.78 1813.27,-498.93 1798,-481 1706.38,-373.43 1249.03,-359.6 1089.78,-358.08"/>
<polygon fill="midnightblue" stroke="midnightblue" points="1089.76,-354.58 1079.73,-358 1089.7,-361.58 1089.76,-354.58"/>
</g>
<!-- Node14&#45;&gt;Node3 -->
<g id="edge18" class="edge">
<title>Node14&#45;&gt;Node3</title>
<path fill="none" stroke="midnightblue" d="M1150.59,-679.39C1350.55,-679.65 1871.77,-675.24 1928,-623 1952.43,-600.31 1951.89,-558.85 1948.5,-532.54"/>
<polygon fill="midnightblue" stroke="midnightblue" points="1951.96,-531.98 1947,-522.62 1945.04,-533.03 1951.96,-531.98"/>
</g>
<!-- Node14&#45;&gt;Node4 -->
<g id="edge19" class="edge">
<title>Node14&#45;&gt;Node4</title>
<path fill="none" stroke="midnightblue" d="M1150.79,-677.85C1352.77,-674.34 1883.04,-661.52 1952,-623 2006.42,-592.6 2033,-570.84 2033,-508.5 2033,-508.5 2033,-508.5 2033,-423 2033,-353.9 1949.68,-321.84 1886.54,-307.46"/>
<polygon fill="midnightblue" stroke="midnightblue" points="1887.11,-304 1876.59,-305.3 1885.62,-310.85 1887.11,-304"/>
</g>
<!-- Node15 -->
<g id="node15" class="node">
<title>Node15</title>
<g id="a_node15"><a xlink:href="../../d6/d08/left__child__next__sibling__heap___8hpp.html" target="_top" xlink:title=" ">
<polygon fill="none" stroke="black" points="1052.5,-570.5 1052.5,-622.5 1191.5,-622.5 1191.5,-570.5 1052.5,-570.5"/>
<text text-anchor="start" x="1060.5" y="-610.5" font-family="Helvetica,sans-Serif" font-size="10.00">ext/pb_ds/detail/left</text>
<text text-anchor="start" x="1060.5" y="-599.5" font-family="Helvetica,sans-Serif" font-size="10.00">_child_next_sibling_heap</text>
<text text-anchor="start" x="1060.5" y="-588.5" font-family="Helvetica,sans-Serif" font-size="10.00">_/left_child_next_sibling</text>
<text text-anchor="middle" x="1122" y="-577.5" font-family="Helvetica,sans-Serif" font-size="10.00">_heap_.hpp</text>
</a>
</g>
</g>
<!-- Node14&#45;&gt;Node15 -->
<g id="edge20" class="edge">
<title>Node14&#45;&gt;Node15</title>
<path fill="none" stroke="midnightblue" d="M1084.86,-659.27C1089.88,-650.92 1095.88,-640.94 1101.58,-631.47"/>
<polygon fill="midnightblue" stroke="midnightblue" points="1104.75,-632.98 1106.9,-622.61 1098.75,-629.37 1104.75,-632.98"/>
</g>
<!-- Node18 -->
<g id="node18" class="node">
<title>Node18</title>
<g id="a_node18"><a xlink:href="../../dc/dc8/null__metadata_8hpp.html" target="_top" xlink:title=" ">
<polygon fill="none" stroke="black" points="829.5,-403.5 829.5,-444.5 968.5,-444.5 968.5,-403.5 829.5,-403.5"/>
<text text-anchor="start" x="837.5" y="-432.5" font-family="Helvetica,sans-Serif" font-size="10.00">ext/pb_ds/detail/left</text>
<text text-anchor="start" x="837.5" y="-421.5" font-family="Helvetica,sans-Serif" font-size="10.00">_child_next_sibling_heap</text>
<text text-anchor="middle" x="899" y="-410.5" font-family="Helvetica,sans-Serif" font-size="10.00">_/null_metadata.hpp</text>
</a>
</g>
</g>
<!-- Node14&#45;&gt;Node18 -->
<g id="edge43" class="edge">
<title>Node14&#45;&gt;Node18</title>
<path fill="none" stroke="midnightblue" d="M1061.99,-659.22C1045.11,-629.23 1013.85,-575.19 1005,-570 932.94,-527.73 311.64,-594.47 254,-534 237.75,-516.95 238.08,-498.36 254,-481 263.46,-470.69 648.66,-442.52 819.18,-430.53"/>
<polygon fill="midnightblue" stroke="midnightblue" points="819.63,-434 829.36,-429.81 819.14,-427.02 819.63,-434"/>
</g>
<!-- Node30 -->
<g id="node30" class="node">
<title>Node30</title>
<g id="a_node30"><a xlink:href="../../d9/d65/binomial__heap__base___2constructors__destructor__fn__imps_8hpp.html" target="_top" xlink:title=" ">
<polygon fill="none" stroke="black" points="1775.5,-576 1775.5,-617 1918.5,-617 1918.5,-576 1775.5,-576"/>
<text text-anchor="start" x="1783.5" y="-605" font-family="Helvetica,sans-Serif" font-size="10.00">ext/pb_ds/detail/binomial</text>
<text text-anchor="start" x="1783.5" y="-594" font-family="Helvetica,sans-Serif" font-size="10.00">_heap_base_/constructors</text>
<text text-anchor="middle" x="1847" y="-583" font-family="Helvetica,sans-Serif" font-size="10.00">_destructor_fn_imps.hpp</text>
</a>
</g>
</g>
<!-- Node14&#45;&gt;Node30 -->
<g id="edge44" class="edge">
<title>Node14&#45;&gt;Node30</title>
<path fill="none" stroke="midnightblue" d="M1150.56,-677.9C1278.69,-674.92 1542.19,-663.89 1761,-623 1766.26,-622.02 1771.66,-620.84 1777.07,-619.53"/>
<polygon fill="midnightblue" stroke="midnightblue" points="1777.95,-622.92 1786.77,-617.06 1776.22,-616.14 1777.95,-622.92"/>
</g>
<!-- Node31 -->
<g id="node31" class="node">
<title>Node31</title>
<g id="a_node31"><a xlink:href="../../d6/dcd/binomial__heap__base___2debug__fn__imps_8hpp.html" target="_top" xlink:title=" ">
<polygon fill="none" stroke="black" points="88,-581.5 88,-611.5 266,-611.5 266,-581.5 88,-581.5"/>
<text text-anchor="start" x="96" y="-599.5" font-family="Helvetica,sans-Serif" font-size="10.00">ext/pb_ds/detail/binomial</text>
<text text-anchor="middle" x="177" y="-588.5" font-family="Helvetica,sans-Serif" font-size="10.00">_heap_base_/debug_fn_imps.hpp</text>
</a>
</g>
</g>
<!-- Node14&#45;&gt;Node31 -->
<g id="edge45" class="edge">
<title>Node14&#45;&gt;Node31</title>
<path fill="none" stroke="midnightblue" d="M995.42,-678.29C852.15,-675.94 536.78,-665.87 275,-623 261.59,-620.8 247.34,-617.61 233.99,-614.22"/>
<polygon fill="midnightblue" stroke="midnightblue" points="234.54,-610.75 223.98,-611.6 232.77,-617.52 234.54,-610.75"/>
</g>
<!-- Node32 -->
<g id="node32" class="node">
<title>Node32</title>
<g id="a_node32"><a xlink:href="../../df/d34/binomial__heap__base___2find__fn__imps_8hpp.html" target="_top" xlink:title=" ">
<polygon fill="none" stroke="black" points="284,-581.5 284,-611.5 450,-611.5 450,-581.5 284,-581.5"/>
<text text-anchor="start" x="292" y="-599.5" font-family="Helvetica,sans-Serif" font-size="10.00">ext/pb_ds/detail/binomial</text>
<text text-anchor="middle" x="367" y="-588.5" font-family="Helvetica,sans-Serif" font-size="10.00">_heap_base_/find_fn_imps.hpp</text>
</a>
</g>
</g>
<!-- Node14&#45;&gt;Node32 -->
<g id="edge46" class="edge">
<title>Node14&#45;&gt;Node32</title>
<path fill="none" stroke="midnightblue" d="M995.34,-676.38C878.24,-671.43 649.85,-657.86 459,-623 446.65,-620.74 433.55,-617.59 421.23,-614.27"/>
<polygon fill="midnightblue" stroke="midnightblue" points="422.12,-610.88 411.55,-611.58 420.25,-617.63 422.12,-610.88"/>
</g>
<!-- Node33 -->
<g id="node33" class="node">
<title>Node33</title>
<g id="a_node33"><a xlink:href="../../d3/d32/binomial__heap__base___2insert__fn__imps_8hpp.html" target="_top" xlink:title=" ">
<polygon fill="none" stroke="black" points="468,-581.5 468,-611.5 644,-611.5 644,-581.5 468,-581.5"/>
<text text-anchor="start" x="476" y="-599.5" font-family="Helvetica,sans-Serif" font-size="10.00">ext/pb_ds/detail/binomial</text>
<text text-anchor="middle" x="556" y="-588.5" font-family="Helvetica,sans-Serif" font-size="10.00">_heap_base_/insert_fn_imps.hpp</text>
</a>
</g>
</g>
<!-- Node14&#45;&gt;Node33 -->
<g id="edge47" class="edge">
<title>Node14&#45;&gt;Node33</title>
<path fill="none" stroke="midnightblue" d="M995.31,-671.48C910.85,-662.64 772.11,-646.17 654,-623 641.34,-620.52 627.89,-617.36 615.13,-614.12"/>
<polygon fill="midnightblue" stroke="midnightblue" points="615.64,-610.64 605.08,-611.52 613.89,-617.42 615.64,-610.64"/>
</g>
<!-- Node34 -->
<g id="node34" class="node">
<title>Node34</title>
<g id="a_node34"><a xlink:href="../../d5/d4e/binomial__heap__base___2erase__fn__imps_8hpp.html" target="_top" xlink:title=" ">
<polygon fill="none" stroke="black" points="662.5,-581.5 662.5,-611.5 837.5,-611.5 837.5,-581.5 662.5,-581.5"/>
<text text-anchor="start" x="670.5" y="-599.5" font-family="Helvetica,sans-Serif" font-size="10.00">ext/pb_ds/detail/binomial</text>
<text text-anchor="middle" x="750" y="-588.5" font-family="Helvetica,sans-Serif" font-size="10.00">_heap_base_/erase_fn_imps.hpp</text>
</a>
</g>
</g>
<!-- Node14&#45;&gt;Node34 -->
<g id="edge48" class="edge">
<title>Node14&#45;&gt;Node34</title>
<path fill="none" stroke="midnightblue" d="M995.27,-660.03C951.65,-649.31 896.25,-635.58 847,-623 835.91,-620.17 824.12,-617.11 812.72,-614.13"/>
<polygon fill="midnightblue" stroke="midnightblue" points="813.39,-610.68 802.82,-611.53 811.61,-617.45 813.39,-610.68"/>
</g>
<!-- Node35 -->
<g id="node35" class="node">
<title>Node35</title>
<g id="a_node35"><a xlink:href="../../d5/d99/binomial__heap__base___2split__join__fn__imps_8hpp.html" target="_top" xlink:title=" ">
<polygon fill="none" stroke="black" points="856,-576 856,-617 996,-617 996,-576 856,-576"/>
<text text-anchor="start" x="864" y="-605" font-family="Helvetica,sans-Serif" font-size="10.00">ext/pb_ds/detail/binomial</text>
<text text-anchor="start" x="864" y="-594" font-family="Helvetica,sans-Serif" font-size="10.00">_heap_base_/split_join</text>
<text text-anchor="middle" x="926" y="-583" font-family="Helvetica,sans-Serif" font-size="10.00">_fn_imps.hpp</text>
</a>
</g>
</g>
<!-- Node14&#45;&gt;Node35 -->
<g id="edge49" class="edge">
<title>Node14&#45;&gt;Node35</title>
<path fill="none" stroke="midnightblue" d="M1037.79,-659.48C1017.5,-648.23 991.81,-633.99 970.17,-621.99"/>
<polygon fill="midnightblue" stroke="midnightblue" points="971.62,-618.79 961.18,-617 968.23,-624.91 971.62,-618.79"/>
</g>
<!-- Node15&#45;&gt;Node2 -->
<g id="edge34" class="edge">
<title>Node15&#45;&gt;Node2</title>
<path fill="none" stroke="midnightblue" d="M1129.3,-570.2C1134.87,-546.5 1140.04,-510.42 1130,-481 1114.71,-436.2 1075.76,-395.03 1052.76,-373.56"/>
<polygon fill="midnightblue" stroke="midnightblue" points="1054.83,-370.71 1045.08,-366.57 1050.12,-375.89 1054.83,-370.71"/>
</g>
<!-- Node15&#45;&gt;Node3 -->
<g id="edge22" class="edge">
<title>Node15&#45;&gt;Node3</title>
<path fill="none" stroke="midnightblue" d="M1191.56,-592.6C1319.02,-586.58 1598.27,-570.18 1831,-534 1846.57,-531.58 1863.19,-528.25 1878.76,-524.8"/>
<polygon fill="midnightblue" stroke="midnightblue" points="1879.84,-528.14 1888.82,-522.52 1878.3,-521.32 1879.84,-528.14"/>
</g>
<!-- Node15&#45;&gt;Node4 -->
<g id="edge23" class="edge">
<title>Node15&#45;&gt;Node4</title>
<path fill="none" stroke="midnightblue" d="M1191.52,-594.15C1355.52,-590.28 1755.94,-576.52 1798,-534 1854.79,-476.59 1836.01,-368.61 1823.9,-320.59"/>
<polygon fill="midnightblue" stroke="midnightblue" points="1827.24,-319.54 1821.3,-310.77 1820.47,-321.33 1827.24,-319.54"/>
</g>
<!-- Node16 -->
<g id="node16" class="node">
<title>Node16</title>
<g id="a_node16"><a xlink:title=" ">
<polygon fill="none" stroke="#bfbfbf" points="1067.5,-498 1067.5,-517 1120.5,-517 1120.5,-498 1067.5,-498"/>
<text text-anchor="middle" x="1094" y="-505" font-family="Helvetica,sans-Serif" font-size="10.00">iterator</text>
</a>
</g>
</g>
<!-- Node15&#45;&gt;Node16 -->
<g id="edge21" class="edge">
<title>Node15&#45;&gt;Node16</title>
<path fill="none" stroke="midnightblue" d="M1113.9,-570.34C1109.45,-556.52 1104.03,-539.68 1099.97,-527.06"/>
<polygon fill="midnightblue" stroke="midnightblue" points="1103.21,-525.69 1096.82,-517.25 1096.55,-527.84 1103.21,-525.69"/>
</g>
<!-- Node17 -->
<g id="node17" class="node">
<title>Node17</title>
<g id="a_node17"><a xlink:href="../../de/dc0/left__child__next__sibling__heap___2node_8hpp.html" target="_top" xlink:title=" ">
<polygon fill="none" stroke="black" points="910.5,-487 910.5,-528 1049.5,-528 1049.5,-487 910.5,-487"/>
<text text-anchor="start" x="918.5" y="-516" font-family="Helvetica,sans-Serif" font-size="10.00">ext/pb_ds/detail/left</text>
<text text-anchor="start" x="918.5" y="-505" font-family="Helvetica,sans-Serif" font-size="10.00">_child_next_sibling_heap</text>
<text text-anchor="middle" x="980" y="-494" font-family="Helvetica,sans-Serif" font-size="10.00">_/node.hpp</text>
</a>
</g>
</g>
<!-- Node15&#45;&gt;Node17 -->
<g id="edge24" class="edge">
<title>Node15&#45;&gt;Node17</title>
<path fill="none" stroke="midnightblue" d="M1080.93,-570.34C1061.98,-558.73 1039.54,-544.98 1020.65,-533.4"/>
<polygon fill="midnightblue" stroke="midnightblue" points="1022.32,-530.32 1011.96,-528.08 1018.66,-536.29 1022.32,-530.32"/>
</g>
<!-- Node19 -->
<g id="node19" class="node">
<title>Node19</title>
<g id="a_node19"><a xlink:href="../../d9/d8a/left__child__next__sibling__heap___2const__point__iterator_8hpp.html" target="_top" xlink:title=" ">
<polygon fill="none" stroke="black" points="145.5,-403.5 145.5,-444.5 288.5,-444.5 288.5,-403.5 145.5,-403.5"/>
<text text-anchor="start" x="153.5" y="-432.5" font-family="Helvetica,sans-Serif" font-size="10.00">ext/pb_ds/detail/left</text>
<text text-anchor="start" x="153.5" y="-421.5" font-family="Helvetica,sans-Serif" font-size="10.00">_child_next_sibling_heap</text>
<text text-anchor="middle" x="217" y="-410.5" font-family="Helvetica,sans-Serif" font-size="10.00">_/const_point_iterator.hpp</text>
</a>
</g>
</g>
<!-- Node15&#45;&gt;Node19 -->
<g id="edge26" class="edge">
<title>Node15&#45;&gt;Node19</title>
<path fill="none" stroke="midnightblue" d="M1052.44,-578.23C1036.91,-574.97 1020.47,-571.96 1005,-570 952.72,-563.36 93.55,-571.97 57,-534 40.66,-517.03 43.37,-500.21 57,-481 75.05,-455.55 105.59,-441.58 135.18,-433.94"/>
<polygon fill="midnightblue" stroke="midnightblue" points="136.23,-437.29 145.16,-431.58 134.63,-430.47 136.23,-437.29"/>
</g>
<!-- Node21 -->
<g id="node21" class="node">
<title>Node21</title>
<g id="a_node21"><a xlink:href="../../d5/d51/left__child__next__sibling__heap___2const__iterator_8hpp.html" target="_top" xlink:title=" ">
<polygon fill="none" stroke="black" points="66.5,-487 66.5,-528 205.5,-528 205.5,-487 66.5,-487"/>
<text text-anchor="start" x="74.5" y="-516" font-family="Helvetica,sans-Serif" font-size="10.00">ext/pb_ds/detail/left</text>
<text text-anchor="start" x="74.5" y="-505" font-family="Helvetica,sans-Serif" font-size="10.00">_child_next_sibling_heap</text>
<text text-anchor="middle" x="136" y="-494" font-family="Helvetica,sans-Serif" font-size="10.00">_/const_iterator.hpp</text>
</a>
</g>
</g>
<!-- Node15&#45;&gt;Node21 -->
<g id="edge31" class="edge">
<title>Node15&#45;&gt;Node21</title>
<path fill="none" stroke="midnightblue" d="M1052.42,-578.34C1036.9,-575.07 1020.46,-572.04 1005,-570 673.71,-526.27 585.33,-577.44 254,-534 241.54,-532.37 228.44,-530.1 215.69,-527.58"/>
<polygon fill="midnightblue" stroke="midnightblue" points="216.05,-524.09 205.55,-525.52 214.65,-530.94 216.05,-524.09"/>
</g>
<!-- Node22 -->
<g id="node22" class="node">
<title>Node22</title>
<g id="a_node22"><a xlink:href="../../d2/df9/left__child__next__sibling__heap___2constructors__destructor__fn__imps_8hpp.html" target="_top" xlink:title=" ">
<polygon fill="none" stroke="black" points="1177,-481.5 1177,-533.5 1317,-533.5 1317,-481.5 1177,-481.5"/>
<text text-anchor="start" x="1185" y="-521.5" font-family="Helvetica,sans-Serif" font-size="10.00">ext/pb_ds/detail/left</text>
<text text-anchor="start" x="1185" y="-510.5" font-family="Helvetica,sans-Serif" font-size="10.00">_child_next_sibling_heap</text>
<text text-anchor="start" x="1185" y="-499.5" font-family="Helvetica,sans-Serif" font-size="10.00">_/constructors_destructor</text>
<text text-anchor="middle" x="1247" y="-488.5" font-family="Helvetica,sans-Serif" font-size="10.00">_fn_imps.hpp</text>
</a>
</g>
</g>
<!-- Node15&#45;&gt;Node22 -->
<g id="edge35" class="edge">
<title>Node15&#45;&gt;Node22</title>
<path fill="none" stroke="midnightblue" d="M1158.16,-570.34C1172.02,-560.69 1188,-549.57 1202.55,-539.44"/>
<polygon fill="midnightblue" stroke="midnightblue" points="1204.72,-542.19 1210.93,-533.61 1200.72,-536.45 1204.72,-542.19"/>
</g>
<!-- Node23 -->
<g id="node23" class="node">
<title>Node23</title>
<g id="a_node23"><a xlink:href="../../d2/deb/left__child__next__sibling__heap___2iterators__fn__imps_8hpp.html" target="_top" xlink:title=" ">
<polygon fill="none" stroke="black" points="1335.5,-487 1335.5,-528 1474.5,-528 1474.5,-487 1335.5,-487"/>
<text text-anchor="start" x="1343.5" y="-516" font-family="Helvetica,sans-Serif" font-size="10.00">ext/pb_ds/detail/left</text>
<text text-anchor="start" x="1343.5" y="-505" font-family="Helvetica,sans-Serif" font-size="10.00">_child_next_sibling_heap</text>
<text text-anchor="middle" x="1405" y="-494" font-family="Helvetica,sans-Serif" font-size="10.00">_/iterators_fn_imps.hpp</text>
</a>
</g>
</g>
<!-- Node15&#45;&gt;Node23 -->
<g id="edge36" class="edge">
<title>Node15&#45;&gt;Node23</title>
<path fill="none" stroke="midnightblue" d="M1191.5,-574.91C1231,-563.12 1281.33,-547.94 1326,-534 1328.93,-533.08 1331.92,-532.15 1334.94,-531.19"/>
<polygon fill="midnightblue" stroke="midnightblue" points="1336.18,-534.47 1344.65,-528.11 1334.06,-527.8 1336.18,-534.47"/>
</g>
<!-- Node24 -->
<g id="node24" class="node">
<title>Node24</title>
<g id="a_node24"><a xlink:href="../../dc/d13/left__child__next__sibling__heap___2debug__fn__imps_8hpp.html" target="_top" xlink:title=" ">
<polygon fill="none" stroke="black" points="1492.5,-487 1492.5,-528 1631.5,-528 1631.5,-487 1492.5,-487"/>
<text text-anchor="start" x="1500.5" y="-516" font-family="Helvetica,sans-Serif" font-size="10.00">ext/pb_ds/detail/left</text>
<text text-anchor="start" x="1500.5" y="-505" font-family="Helvetica,sans-Serif" font-size="10.00">_child_next_sibling_heap</text>
<text text-anchor="middle" x="1562" y="-494" font-family="Helvetica,sans-Serif" font-size="10.00">_/debug_fn_imps.hpp</text>
</a>
</g>
</g>
<!-- Node15&#45;&gt;Node24 -->
<g id="edge37" class="edge">
<title>Node15&#45;&gt;Node24</title>
<path fill="none" stroke="midnightblue" d="M1191.69,-586.78C1265.04,-576.87 1383.59,-558.8 1484,-534 1487.86,-533.05 1491.8,-532 1495.76,-530.89"/>
<polygon fill="midnightblue" stroke="midnightblue" points="1497,-534.17 1505.62,-528.02 1495.04,-527.45 1497,-534.17"/>
</g>
<!-- Node25 -->
<g id="node25" class="node">
<title>Node25</title>
<g id="a_node25"><a xlink:href="../../d9/d41/left__child__next__sibling__heap___2trace__fn__imps_8hpp.html" target="_top" xlink:title=" ">
<polygon fill="none" stroke="black" points="1649.5,-487 1649.5,-528 1788.5,-528 1788.5,-487 1649.5,-487"/>
<text text-anchor="start" x="1657.5" y="-516" font-family="Helvetica,sans-Serif" font-size="10.00">ext/pb_ds/detail/left</text>
<text text-anchor="start" x="1657.5" y="-505" font-family="Helvetica,sans-Serif" font-size="10.00">_child_next_sibling_heap</text>
<text text-anchor="middle" x="1719" y="-494" font-family="Helvetica,sans-Serif" font-size="10.00">_/trace_fn_imps.hpp</text>
</a>
</g>
</g>
<!-- Node15&#45;&gt;Node25 -->
<g id="edge38" class="edge">
<title>Node15&#45;&gt;Node25</title>
<path fill="none" stroke="midnightblue" d="M1191.57,-591.64C1291.85,-585.1 1482.39,-568.96 1641,-534 1645.15,-533.09 1649.39,-532.04 1653.64,-530.9"/>
<polygon fill="midnightblue" stroke="midnightblue" points="1654.88,-534.19 1663.56,-528.11 1652.98,-527.45 1654.88,-534.19"/>
</g>
<!-- Node26 -->
<g id="node26" class="node">
<title>Node26</title>
<g id="a_node26"><a xlink:href="../../d9/dcf/left__child__next__sibling__heap___2insert__fn__imps_8hpp.html" target="_top" xlink:title=" ">
<polygon fill="none" stroke="black" points="262.5,-487 262.5,-528 401.5,-528 401.5,-487 262.5,-487"/>
<text text-anchor="start" x="270.5" y="-516" font-family="Helvetica,sans-Serif" font-size="10.00">ext/pb_ds/detail/left</text>
<text text-anchor="start" x="270.5" y="-505" font-family="Helvetica,sans-Serif" font-size="10.00">_child_next_sibling_heap</text>
<text text-anchor="middle" x="332" y="-494" font-family="Helvetica,sans-Serif" font-size="10.00">_/insert_fn_imps.hpp</text>
</a>
</g>
</g>
<!-- Node15&#45;&gt;Node26 -->
<g id="edge39" class="edge">
<title>Node15&#45;&gt;Node26</title>
<path fill="none" stroke="midnightblue" d="M1052.18,-572.95C1047.41,-571.83 1042.65,-570.83 1038,-570 763.19,-521.12 685.37,-585.29 411,-534 406.21,-533.1 401.3,-532 396.39,-530.76"/>
<polygon fill="midnightblue" stroke="midnightblue" points="396.92,-527.27 386.36,-528.03 395.09,-534.03 396.92,-527.27"/>
</g>
<!-- Node27 -->
<g id="node27" class="node">
<title>Node27</title>
<g id="a_node27"><a xlink:href="../../da/dfd/left__child__next__sibling__heap___2erase__fn__imps_8hpp.html" target="_top" xlink:title=" ">
<polygon fill="none" stroke="black" points="419.5,-487 419.5,-528 558.5,-528 558.5,-487 419.5,-487"/>
<text text-anchor="start" x="427.5" y="-516" font-family="Helvetica,sans-Serif" font-size="10.00">ext/pb_ds/detail/left</text>
<text text-anchor="start" x="427.5" y="-505" font-family="Helvetica,sans-Serif" font-size="10.00">_child_next_sibling_heap</text>
<text text-anchor="middle" x="489" y="-494" font-family="Helvetica,sans-Serif" font-size="10.00">_/erase_fn_imps.hpp</text>
</a>
</g>
</g>
<!-- Node15&#45;&gt;Node27 -->
<g id="edge40" class="edge">
<title>Node15&#45;&gt;Node27</title>
<path fill="none" stroke="midnightblue" d="M1052.16,-573.05C1047.39,-571.91 1042.64,-570.87 1038,-570 832.1,-531.34 773.56,-574.46 568,-534 563.3,-533.07 558.49,-531.96 553.67,-530.72"/>
<polygon fill="midnightblue" stroke="midnightblue" points="554.38,-527.29 543.81,-528.02 552.53,-534.04 554.38,-527.29"/>
</g>
<!-- Node28 -->
<g id="node28" class="node">
<title>Node28</title>
<g id="a_node28"><a xlink:href="../../db/d13/left__child__next__sibling__heap___2info__fn__imps_8hpp.html" target="_top" xlink:title=" ">
<polygon fill="none" stroke="black" points="576.5,-487 576.5,-528 715.5,-528 715.5,-487 576.5,-487"/>
<text text-anchor="start" x="584.5" y="-516" font-family="Helvetica,sans-Serif" font-size="10.00">ext/pb_ds/detail/left</text>
<text text-anchor="start" x="584.5" y="-505" font-family="Helvetica,sans-Serif" font-size="10.00">_child_next_sibling_heap</text>
<text text-anchor="middle" x="646" y="-494" font-family="Helvetica,sans-Serif" font-size="10.00">_/info_fn_imps.hpp</text>
</a>
</g>
</g>
<!-- Node15&#45;&gt;Node28 -->
<g id="edge41" class="edge">
<title>Node15&#45;&gt;Node28</title>
<path fill="none" stroke="midnightblue" d="M1052.12,-573.26C1047.36,-572.06 1042.63,-570.96 1038,-570 900.89,-541.55 861.85,-563.65 725,-534 720.68,-533.06 716.27,-531.99 711.84,-530.82"/>
<polygon fill="midnightblue" stroke="midnightblue" points="712.73,-527.43 702.16,-528.12 710.86,-534.18 712.73,-527.43"/>
</g>
<!-- Node29 -->
<g id="node29" class="node">
<title>Node29</title>
<g id="a_node29"><a xlink:href="../../d1/daa/left__child__next__sibling__heap___2policy__access__fn__imps_8hpp.html" target="_top" xlink:title=" ">
<polygon fill="none" stroke="black" points="734,-487 734,-528 892,-528 892,-487 734,-487"/>
<text text-anchor="start" x="742" y="-516" font-family="Helvetica,sans-Serif" font-size="10.00">ext/pb_ds/detail/left</text>
<text text-anchor="start" x="742" y="-505" font-family="Helvetica,sans-Serif" font-size="10.00">_child_next_sibling_heap</text>
<text text-anchor="middle" x="813" y="-494" font-family="Helvetica,sans-Serif" font-size="10.00">_/policy_access_fn_imps.hpp</text>
</a>
</g>
</g>
<!-- Node15&#45;&gt;Node29 -->
<g id="edge42" class="edge">
<title>Node15&#45;&gt;Node29</title>
<path fill="none" stroke="midnightblue" d="M1052.38,-574.16C1047.52,-572.73 1042.69,-571.33 1038,-570 977.85,-552.92 962.28,-550.61 902,-534 898.38,-533 894.68,-531.97 890.94,-530.93"/>
<polygon fill="midnightblue" stroke="midnightblue" points="891.56,-527.47 880.99,-528.13 889.67,-534.21 891.56,-527.47"/>
</g>
<!-- Node17&#45;&gt;Node18 -->
<g id="edge25" class="edge">
<title>Node17&#45;&gt;Node18</title>
<path fill="none" stroke="midnightblue" d="M960.39,-486.77C949.95,-476.26 936.94,-463.18 925.6,-451.76"/>
<polygon fill="midnightblue" stroke="midnightblue" points="927.96,-449.17 918.43,-444.55 922.99,-454.11 927.96,-449.17"/>
</g>
<!-- Node19&#45;&gt;Node2 -->
<g id="edge30" class="edge">
<title>Node19&#45;&gt;Node2</title>
<path fill="none" stroke="midnightblue" d="M288.57,-419.95C422.37,-413.78 719.62,-397.79 980.22,-366.98"/>
<polygon fill="midnightblue" stroke="midnightblue" points="980.74,-370.44 990.26,-365.78 979.91,-363.49 980.74,-370.44"/>
</g>
<!-- Node20 -->
<g id="node20" class="node">
<title>Node20</title>
<g id="a_node20"><a xlink:href="../../dc/dc9/tag__and__trait_8hpp.html" target="_top" xlink:title=" ">
<polygon fill="none" stroke="black" points="820,-347.5 820,-366.5 972,-366.5 972,-347.5 820,-347.5"/>
<text text-anchor="middle" x="896" y="-354.5" font-family="Helvetica,sans-Serif" font-size="10.00">ext/pb_ds/tag_and_trait.hpp</text>
</a>
</g>
</g>
<!-- Node19&#45;&gt;Node20 -->
<g id="edge27" class="edge">
<title>Node19&#45;&gt;Node20</title>
<path fill="none" stroke="midnightblue" d="M288.7,-416.14C414.46,-404.1 674.25,-379.23 809.66,-366.27"/>
<polygon fill="midnightblue" stroke="midnightblue" points="810.36,-369.71 819.98,-365.28 809.7,-362.75 810.36,-369.71"/>
</g>
<!-- Node20&#45;&gt;Node4 -->
<g id="edge29" class="edge">
<title>Node20&#45;&gt;Node4</title>
<path fill="none" stroke="midnightblue" d="M972.42,-347.83C975.65,-347.54 978.86,-347.26 982,-347 1265.29,-323.62 1603.5,-306.47 1747.05,-299.69"/>
<polygon fill="midnightblue" stroke="midnightblue" points="1747.63,-303.17 1757.45,-299.2 1747.3,-296.18 1747.63,-303.17"/>
</g>
<!-- Node20&#45;&gt;Node9 -->
<g id="edge28" class="edge">
<title>Node20&#45;&gt;Node9</title>
<path fill="none" stroke="midnightblue" d="M952.51,-347.48C1101.03,-324.7 1491,-262.31 1491,-235 1491,-235 1491,-235 1491,-177 1491,-141.24 1513.45,-104.51 1528.56,-83.84"/>
<polygon fill="midnightblue" stroke="midnightblue" points="1531.43,-85.85 1534.69,-75.77 1525.86,-81.61 1531.43,-85.85"/>
</g>
<!-- Node21&#45;&gt;Node2 -->
<g id="edge33" class="edge">
<title>Node21&#45;&gt;Node2</title>
<path fill="none" stroke="midnightblue" d="M196.74,-486.92C204.52,-484.75 212.42,-482.71 220,-481 550.37,-406.53 641.43,-420.17 980.13,-367.11"/>
<polygon fill="midnightblue" stroke="midnightblue" points="980.89,-370.53 990.22,-365.52 979.8,-363.62 980.89,-370.53"/>
</g>
<!-- Node21&#45;&gt;Node19 -->
<g id="edge32" class="edge">
<title>Node21&#45;&gt;Node19</title>
<path fill="none" stroke="midnightblue" d="M155.61,-486.77C166.05,-476.26 179.06,-463.18 190.4,-451.76"/>
<polygon fill="midnightblue" stroke="midnightblue" points="193.01,-454.11 197.57,-444.55 188.04,-449.17 193.01,-454.11"/>
</g>
</g>
</svg>
        <g id="navigator" transform="translate(0 0)" fill="#404254">
                <rect fill="#f2f5e9" fill-opacity="0.5" stroke="#606060" stroke-width=".5" x="0" y="0" width="60" height="60"/>
                <use id="zoomplus" xlink:href="#zoomPlus" x="17" y="9" onmousedown="handleZoom(evt,'in')"/>
                <use id="zoomminus" xlink:href="#zoomMin" x="42" y="9" onmousedown="handleZoom(evt,'out')"/>
                <use id="reset" xlink:href="#resetDef" x="30" y="36" onmousedown="handleReset()"/>
                <g id="arrowUp" xlink:href="#dirArrow" transform="translate(30 24)" onmousedown="handlePan(0,-1)">
                  <use xlink:href="#rim" fill="#404040">
                        <set attributeName="fill" to="#808080" begin="arrowUp.mouseover" end="arrowUp.mouseout"/>
                  </use>
                  <path fill="none" stroke="white" stroke-width="1.5" d="M0,-3.0v7 M-2.5,-0.5L0,-3.0L2.5,-0.5"/>
                </g>
                <g id="arrowRight" xlink:href="#dirArrow" transform="rotate(90) translate(36 -43)" onmousedown="handlePan(1,0)">
                  <use xlink:href="#rim" fill="#404040">
                        <set attributeName="fill" to="#808080" begin="arrowRight.mouseover" end="arrowRight.mouseout"/>
                  </use>
                  <path fill="none" stroke="white" stroke-width="1.5" d="M0,-3.0v7 M-2.5,-0.5L0,-3.0L2.5,-0.5"/>
                </g>
                <g id="arrowDown" xlink:href="#dirArrow" transform="rotate(180) translate(-30 -48)" onmousedown="handlePan(0,1)">
                  <use xlink:href="#rim" fill="#404040">
                        <set attributeName="fill" to="#808080" begin="arrowDown.mouseover" end="arrowDown.mouseout"/>
                  </use>
                  <path fill="none" stroke="white" stroke-width="1.5" d="M0,-3.0v7 M-2.5,-0.5L0,-3.0L2.5,-0.5"/>
                </g>
                <g id="arrowLeft" xlink:href="#dirArrow" transform="rotate(270) translate(-36 17)" onmousedown="handlePan(-1,0)">
                  <use xlink:href="#rim" fill="#404040">
                        <set attributeName="fill" to="#808080" begin="arrowLeft.mouseover" end="arrowLeft.mouseout"/>
                  </use>
                  <path fill="none" stroke="white" stroke-width="1.5" d="M0,-3.0v7 M-2.5,-0.5L0,-3.0L2.5,-0.5"/>
                </g>
        </g>
        <svg viewBox="0 0 15 15" width="100%" height="30px" preserveAspectRatio="xMaxYMin meet">
         <g id="arrow_out" transform="scale(0.3 0.3)">
          <a xlink:href="binomial__heap___8hpp__incl_org.svg" target="_base">
           <rect id="button" ry="5" rx="5" y="6" x="6" height="38" width="38"
                fill="#f2f5e9" fill-opacity="0.5" stroke="#606060" stroke-width="1.0"/>
           <path id="arrow"
             d="M 11.500037,31.436501 C 11.940474,20.09759 22.043105,11.32322 32.158766,21.979434 L 37.068811,17.246167 C 37.068811,17.246167 37.088388,32 37.088388,32 L 22.160133,31.978069 C 22.160133,31.978069 26.997745,27.140456 26.997745,27.140456 C 18.528582,18.264221 13.291696,25.230495 11.500037,31.436501 z"
             style="fill:#404040;"/>
          </a>
         </g>
        </svg>
</svg>
