<?xml version="1.0" encoding="UTF-8" standalone="no"?>
<!DOCTYPE svg PUBLIC "-//W3C//DTD SVG 1.1//EN"
 "http://www.w3.org/Graphics/SVG/1.1/DTD/svg11.dtd">
<!-- Generated by graphviz version 2.43.0 (0)
 -->
<!-- Title: _TA_ADDRESS_NETBIOS_UNICODE_EX::_AddrNetbiosWCharEx Pages: 1 -->
<svg width="247pt" height="128pt"
 viewBox="0.00 0.00 246.50 128.00" xmlns="http://www.w3.org/2000/svg" xmlns:xlink="http://www.w3.org/1999/xlink">
<g id="graph0" class="graph" transform="scale(1 1) rotate(0) translate(4 124)">
<title>_TA_ADDRESS_NETBIOS_UNICODE_EX::_AddrNetbiosWCharEx</title>
<!-- Node1 -->
<g id="node1" class="node">
<title>Node1</title>
<g id="a_node1"><a xlink:title=" ">
<polygon fill="#bfbfbf" stroke="black" points="23,-0.5 23,-30.5 224,-30.5 224,-0.5 23,-0.5"/>
<text text-anchor="start" x="31" y="-18.5" font-family="Helvetica,sans-Serif" font-size="10.00">_TA_ADDRESS_NETBIOS</text>
<text text-anchor="middle" x="123.5" y="-7.5" font-family="Helvetica,sans-Serif" font-size="10.00">_UNICODE_EX::_AddrNetbiosWCharEx</text>
</a>
</g>
</g>
<!-- Node2 -->
<g id="node2" class="node">
<title>Node2</title>
<g id="a_node2"><a xlink:title=" ">
<polygon fill="none" stroke="#bfbfbf" points="0,-89.5 0,-119.5 133,-119.5 133,-89.5 0,-89.5"/>
<text text-anchor="start" x="8" y="-107.5" font-family="Helvetica,sans-Serif" font-size="10.00">TDI_ADDRESS_NETBIOS</text>
<text text-anchor="middle" x="66.5" y="-96.5" font-family="Helvetica,sans-Serif" font-size="10.00">_UNICODE_EX</text>
</a>
</g>
</g>
<!-- Node2&#45;&gt;Node1 -->
<g id="edge1" class="edge">
<title>Node2&#45;&gt;Node1</title>
<path fill="none" stroke="#9a32cd" stroke-dasharray="5,2" d="M81.61,-80.43C91.99,-64.59 105.44,-44.06 114.26,-30.6"/>
<polygon fill="#9a32cd" stroke="#9a32cd" points="78.47,-78.85 75.91,-89.13 84.32,-82.69 78.47,-78.85"/>
<text text-anchor="middle" x="124" y="-57.5" font-family="Helvetica,sans-Serif" font-size="10.00"> Address</text>
</g>
<!-- Node3 -->
<g id="node3" class="node">
<title>Node3</title>
<g id="a_node3"><a xlink:title=" ">
<polygon fill="none" stroke="#bfbfbf" points="151,-95 151,-114 212,-114 212,-95 151,-95"/>
<text text-anchor="middle" x="181.5" y="-102" font-family="Helvetica,sans-Serif" font-size="10.00">unsigned</text>
</a>
</g>
</g>
<!-- Node3&#45;&gt;Node1 -->
<g id="edge2" class="edge">
<title>Node3&#45;&gt;Node1</title>
<path fill="none" stroke="#9a32cd" stroke-dasharray="5,2" d="M171.99,-85.85C165.92,-74.98 157.69,-60.9 149.5,-49 145.24,-42.81 140.15,-36.29 135.61,-30.72"/>
<polygon fill="#9a32cd" stroke="#9a32cd" points="169,-87.68 176.88,-94.77 175.14,-84.32 169,-87.68"/>
<text text-anchor="middle" x="200.5" y="-63" font-family="Helvetica,sans-Serif" font-size="10.00"> AddressLength</text>
<text text-anchor="middle" x="200.5" y="-52" font-family="Helvetica,sans-Serif" font-size="10.00">AddressType</text>
</g>
</g>
</svg>
