<?xml version="1.0" encoding="UTF-8" standalone="no"?>
<!DOCTYPE svg PUBLIC "-//W3C//DTD SVG 1.1//EN"
 "http://www.w3.org/Graphics/SVG/1.1/DTD/svg11.dtd">
<!-- Generated by graphviz version 2.43.0 (0)
 -->
<!-- Title: Source/Engine/SDL12/include/SDL_opengl.h Pages: 1 -->
<svg width="355pt" height="207pt"
 viewBox="0.00 0.00 355.00 207.00" xmlns="http://www.w3.org/2000/svg" xmlns:xlink="http://www.w3.org/1999/xlink">
<g id="graph0" class="graph" transform="scale(1 1) rotate(0) translate(4 203)">
<title>Source/Engine/SDL12/include/SDL_opengl.h</title>
<!-- Node1 -->
<g id="node1" class="node">
<title>Node1</title>
<g id="a_node1"><a xlink:title=" ">
<polygon fill="#bfbfbf" stroke="black" points="147,-168.5 147,-198.5 271,-198.5 271,-168.5 147,-168.5"/>
<text text-anchor="start" x="155" y="-186.5" font-family="Helvetica,sans-Serif" font-size="10.00">Source/Engine/SDL12</text>
<text text-anchor="middle" x="209" y="-175.5" font-family="Helvetica,sans-Serif" font-size="10.00">/include/SDL_opengl.h</text>
</a>
</g>
</g>
<!-- Node2 -->
<g id="node2" class="node">
<title>Node2</title>
<g id="a_node2"><a xlink:href="../../d3/dfb/SDL__config_8h.html" target="_top" xlink:title=" ">
<polygon fill="none" stroke="black" points="51.5,-112.5 51.5,-131.5 130.5,-131.5 130.5,-112.5 51.5,-112.5"/>
<text text-anchor="middle" x="91" y="-119.5" font-family="Helvetica,sans-Serif" font-size="10.00">SDL_config.h</text>
</a>
</g>
</g>
<!-- Node1&#45;&gt;Node2 -->
<g id="edge1" class="edge">
<title>Node1&#45;&gt;Node2</title>
<path fill="none" stroke="midnightblue" d="M181.04,-168.4C161.68,-158.64 136.09,-145.74 117.14,-136.18"/>
<polygon fill="midnightblue" stroke="midnightblue" points="118.67,-133.04 108.17,-131.66 115.52,-139.29 118.67,-133.04"/>
</g>
<!-- Node6 -->
<g id="node6" class="node">
<title>Node6</title>
<g id="a_node6"><a xlink:title=" ">
<polygon fill="none" stroke="#bfbfbf" points="149,-112.5 149,-131.5 199,-131.5 199,-112.5 149,-112.5"/>
<text text-anchor="middle" x="174" y="-119.5" font-family="Helvetica,sans-Serif" font-size="10.00">GL/gl.h</text>
</a>
</g>
</g>
<!-- Node1&#45;&gt;Node6 -->
<g id="edge6" class="edge">
<title>Node1&#45;&gt;Node6</title>
<path fill="none" stroke="midnightblue" d="M200.71,-168.4C195.78,-160.02 189.49,-149.33 184.25,-140.42"/>
<polygon fill="midnightblue" stroke="midnightblue" points="187.18,-138.5 179.09,-131.66 181.15,-142.05 187.18,-138.5"/>
</g>
<!-- Node7 -->
<g id="node7" class="node">
<title>Node7</title>
<g id="a_node7"><a xlink:title=" ">
<polygon fill="none" stroke="#bfbfbf" points="217,-112.5 217,-131.5 273,-131.5 273,-112.5 217,-112.5"/>
<text text-anchor="middle" x="245" y="-119.5" font-family="Helvetica,sans-Serif" font-size="10.00">GL/glu.h</text>
</a>
</g>
</g>
<!-- Node1&#45;&gt;Node7 -->
<g id="edge7" class="edge">
<title>Node1&#45;&gt;Node7</title>
<path fill="none" stroke="midnightblue" d="M217.53,-168.4C222.6,-160.02 229.07,-149.33 234.46,-140.42"/>
<polygon fill="midnightblue" stroke="midnightblue" points="237.58,-142.03 239.76,-131.66 231.59,-138.4 237.58,-142.03"/>
</g>
<!-- Node8 -->
<g id="node8" class="node">
<title>Node8</title>
<g id="a_node8"><a xlink:title=" ">
<polygon fill="none" stroke="#bfbfbf" points="291,-112.5 291,-131.5 347,-131.5 347,-112.5 291,-112.5"/>
<text text-anchor="middle" x="319" y="-119.5" font-family="Helvetica,sans-Serif" font-size="10.00">stddef.h</text>
</a>
</g>
</g>
<!-- Node1&#45;&gt;Node8 -->
<g id="edge8" class="edge">
<title>Node1&#45;&gt;Node8</title>
<path fill="none" stroke="midnightblue" d="M235.07,-168.4C252.87,-158.77 276.31,-146.09 293.9,-136.58"/>
<polygon fill="midnightblue" stroke="midnightblue" points="295.86,-139.49 302.99,-131.66 292.53,-133.34 295.86,-139.49"/>
</g>
<!-- Node3 -->
<g id="node3" class="node">
<title>Node3</title>
<g id="a_node3"><a xlink:href="../../d3/df1/SDL__platform_8h.html" target="_top" xlink:title=" ">
<polygon fill="none" stroke="black" points="0,-0.5 0,-19.5 92,-19.5 92,-0.5 0,-0.5"/>
<text text-anchor="middle" x="46" y="-7.5" font-family="Helvetica,sans-Serif" font-size="10.00">SDL_platform.h</text>
</a>
</g>
</g>
<!-- Node2&#45;&gt;Node3 -->
<g id="edge2" class="edge">
<title>Node2&#45;&gt;Node3</title>
<path fill="none" stroke="midnightblue" d="M85.45,-112.31C79.97,-103.44 71.61,-89.16 66,-76 59.49,-60.73 54.1,-42.62 50.56,-29.4"/>
<polygon fill="midnightblue" stroke="midnightblue" points="53.92,-28.43 48.04,-19.62 47.14,-30.17 53.92,-28.43"/>
</g>
<!-- Node4 -->
<g id="node4" class="node">
<title>Node4</title>
<g id="a_node4"><a xlink:href="../../da/d7f/SDL__config__minimal_8h.html" target="_top" xlink:title=" ">
<polygon fill="none" stroke="black" points="74.5,-56.5 74.5,-75.5 199.5,-75.5 199.5,-56.5 74.5,-56.5"/>
<text text-anchor="middle" x="137" y="-63.5" font-family="Helvetica,sans-Serif" font-size="10.00">SDL_config_minimal.h</text>
</a>
</g>
</g>
<!-- Node2&#45;&gt;Node4 -->
<g id="edge3" class="edge">
<title>Node2&#45;&gt;Node4</title>
<path fill="none" stroke="midnightblue" d="M98.6,-112.08C105.23,-104.3 115.02,-92.8 123.06,-83.37"/>
<polygon fill="midnightblue" stroke="midnightblue" points="125.73,-85.63 129.55,-75.75 120.4,-81.09 125.73,-85.63"/>
</g>
<!-- Node4&#45;&gt;Node3 -->
<g id="edge4" class="edge">
<title>Node4&#45;&gt;Node3</title>
<path fill="none" stroke="midnightblue" d="M122.38,-56.32C108.05,-47.82 85.99,-34.73 69.25,-24.8"/>
<polygon fill="midnightblue" stroke="midnightblue" points="70.97,-21.75 60.58,-19.65 67.4,-27.77 70.97,-21.75"/>
</g>
<!-- Node5 -->
<g id="node5" class="node">
<title>Node5</title>
<g id="a_node5"><a xlink:title=" ">
<polygon fill="none" stroke="#bfbfbf" points="110,-0.5 110,-19.5 166,-19.5 166,-0.5 110,-0.5"/>
<text text-anchor="middle" x="138" y="-7.5" font-family="Helvetica,sans-Serif" font-size="10.00">stdarg.h</text>
</a>
</g>
</g>
<!-- Node4&#45;&gt;Node5 -->
<g id="edge5" class="edge">
<title>Node4&#45;&gt;Node5</title>
<path fill="none" stroke="midnightblue" d="M137.17,-56.08C137.3,-49.01 137.48,-38.86 137.65,-29.99"/>
<polygon fill="midnightblue" stroke="midnightblue" points="141.15,-29.81 137.84,-19.75 134.15,-29.68 141.15,-29.81"/>
</g>
</g>
</svg>
