<?xml version="1.0" encoding="UTF-8" standalone="no"?>
<!DOCTYPE svg PUBLIC "-//W3C//DTD SVG 1.1//EN"
 "http://www.w3.org/Graphics/SVG/1.1/DTD/svg11.dtd">
<!-- Generated by graphviz version 2.43.0 (0)
 -->
<!-- Title: _FONTINFO Pages: 1 -->
<svg width="310pt" height="172pt"
 viewBox="0.00 0.00 309.50 172.00" xmlns="http://www.w3.org/2000/svg" xmlns:xlink="http://www.w3.org/1999/xlink">
<g id="graph0" class="graph" transform="scale(1 1) rotate(0) translate(4 168)">
<title>_FONTINFO</title>
<!-- Node1 -->
<g id="node1" class="node">
<title>Node1</title>
<g id="a_node1"><a xlink:title=" ">
<polygon fill="#bfbfbf" stroke="black" points="86,-0.5 86,-19.5 159,-19.5 159,-0.5 86,-0.5"/>
<text text-anchor="middle" x="122.5" y="-7.5" font-family="Helvetica,sans-Serif" font-size="10.00">_FONTINFO</text>
</a>
</g>
</g>
<!-- Node2 -->
<g id="node2" class="node">
<title>Node2</title>
<g id="a_node2"><a xlink:title=" ">
<polygon fill="none" stroke="#bfbfbf" points="0,-133.5 0,-152.5 85,-152.5 85,-133.5 0,-133.5"/>
<text text-anchor="middle" x="42.5" y="-140.5" font-family="Helvetica,sans-Serif" font-size="10.00">unsigned long</text>
</a>
</g>
</g>
<!-- Node2&#45;&gt;Node1 -->
<g id="edge1" class="edge">
<title>Node2&#45;&gt;Node1</title>
<path fill="none" stroke="#9a32cd" stroke-dasharray="5,2" d="M53.13,-124.6C70.43,-96.27 104.06,-41.2 117.13,-19.8"/>
<polygon fill="#9a32cd" stroke="#9a32cd" points="49.97,-123.05 47.75,-133.4 55.95,-126.69 49.97,-123.05"/>
<text text-anchor="middle" x="122.5" y="-68.5" font-family="Helvetica,sans-Serif" font-size="10.00"> flCaps</text>
</g>
<!-- Node3 -->
<g id="node3" class="node">
<title>Node3</title>
<g id="a_node3"><a xlink:title=" ">
<polygon fill="none" stroke="#bfbfbf" points="103.5,-122.5 103.5,-163.5 301.5,-163.5 301.5,-122.5 103.5,-122.5"/>
<text text-anchor="start" x="111.5" y="-151.5" font-family="Helvetica,sans-Serif" font-size="10.00">PSecurityUserData *typedef</text>
<text text-anchor="start" x="111.5" y="-140.5" font-family="Helvetica,sans-Serif" font-size="10.00"> PSECPKG_EXTENDED_INFORMATION</text>
<text text-anchor="middle" x="202.5" y="-129.5" font-family="Helvetica,sans-Serif" font-size="10.00"> *typedef</text>
</a>
</g>
</g>
<!-- Node3&#45;&gt;Node1 -->
<g id="edge2" class="edge">
<title>Node3&#45;&gt;Node1</title>
<path fill="none" stroke="#9a32cd" stroke-dasharray="5,2" d="M187.76,-113.47C176.43,-92.19 159.96,-62.67 143.5,-38 139.28,-31.68 134.03,-24.93 129.84,-19.76"/>
<polygon fill="#9a32cd" stroke="#9a32cd" points="184.68,-115.12 192.44,-122.33 190.87,-111.85 184.68,-115.12"/>
<text text-anchor="middle" x="225" y="-96" font-family="Helvetica,sans-Serif" font-size="10.00"> cjMaxGlyph4</text>
<text text-anchor="middle" x="225" y="-85" font-family="Helvetica,sans-Serif" font-size="10.00">cjThis</text>
<text text-anchor="middle" x="225" y="-74" font-family="Helvetica,sans-Serif" font-size="10.00">cjMaxGlyph32</text>
<text text-anchor="middle" x="225" y="-63" font-family="Helvetica,sans-Serif" font-size="10.00">cjMaxGlyph8</text>
<text text-anchor="middle" x="225" y="-52" font-family="Helvetica,sans-Serif" font-size="10.00">cGlyphsSupported</text>
<text text-anchor="middle" x="225" y="-41" font-family="Helvetica,sans-Serif" font-size="10.00">cjMaxGlyph1</text>
</g>
</g>
</svg>
