<?xml version="1.0" encoding="UTF-8" standalone="no"?>
<!DOCTYPE svg PUBLIC "-//W3C//DTD SVG 1.1//EN"
 "http://www.w3.org/Graphics/SVG/1.1/DTD/svg11.dtd">
<!-- Generated by graphviz version 2.43.0 (0)
 -->
<!-- Title: Tools/MinGW/include/winsock2.h Pages: 1 -->
<!--zoomable 586 -->
<svg id="main" version="1.1" xmlns="http://www.w3.org/2000/svg" xmlns:xlink="http://www.w3.org/1999/xlink" xml:space="preserve" onload="init(evt)">
<style type="text/css"><![CDATA[
.edge:hover path { stroke: red; }
.edge:hover polygon { stroke: red; fill: red; }
]]></style>
<script type="text/javascript"><![CDATA[
var edges = document.getElementsByTagName('g');
if (edges && edges.length) {
  for (var i=0;i<edges.length;i++) {
    if (edges[i].id.substr(0,4)=='edge') {
      edges[i].setAttribute('class','edge');
    }
  }
}
]]></script>
        <defs>
                <circle id="rim" cx="0" cy="0" r="7"/>
                <circle id="rim2" cx="0" cy="0" r="3.5"/>
                <g id="zoomPlus">
                        <use xlink:href="#rim" fill="#404040">
                                <set attributeName="fill" to="#808080" begin="zoomplus.mouseover" end="zoomplus.mouseout"/>
                        </use>
                        <path d="M-4,0h8M0,-4v8" fill="none" stroke="white" stroke-width="1.5" pointer-events="none"/>
                </g>
                <g id="zoomMin">
                        <use xlink:href="#rim" fill="#404040">
                                <set attributeName="fill" to="#808080" begin="zoomminus.mouseover" end="zoomminus.mouseout"/>
                        </use>
                        <path d="M-4,0h8" fill="none" stroke="white" stroke-width="1.5" pointer-events="none"/>
                </g>
                <g id="dirArrow">
                        <path fill="none" stroke="white" stroke-width="1.5" d="M0,-3.0v7 M-2.5,-0.5L0,-3.0L2.5,-0.5"/>
                </g>
               <g id="resetDef">
                       <use xlink:href="#rim2" fill="#404040">
                               <set attributeName="fill" to="#808080" begin="reset.mouseover" end="reset.mouseout"/>
                       </use>
               </g>
        </defs>

<script type="text/javascript">
var viewWidth = 2575;
var viewHeight = 586;
var sectionId = 'dynsection-1';
</script>
<script xlink:href="../../svgpan.js"/>
<svg id="graph" class="graph">
<g id="viewport">
<title>Tools/MinGW/include/winsock2.h</title>
<!-- Node1 -->
<g id="node1" class="node">
<title>Node1</title>
<g id="a_node1"><a xlink:title=" ">
<polygon fill="#bfbfbf" stroke="black" points="1327,-547.5 1327,-577.5 1445,-577.5 1445,-547.5 1327,-547.5"/>
<text text-anchor="start" x="1335" y="-565.5" font-family="Helvetica,sans-Serif" font-size="10.00">Tools/MinGW/include</text>
<text text-anchor="middle" x="1386" y="-554.5" font-family="Helvetica,sans-Serif" font-size="10.00">/winsock2.h</text>
</a>
</g>
</g>
<!-- Node2 -->
<g id="node2" class="node">
<title>Node2</title>
<g id="a_node2"><a xlink:href="../../d9/d16/ndis_8h.html" target="_top" xlink:title=" ">
<polygon fill="none" stroke="black" points="136,-480.5 136,-510.5 254,-510.5 254,-480.5 136,-480.5"/>
<text text-anchor="start" x="144" y="-498.5" font-family="Helvetica,sans-Serif" font-size="10.00">Tools/MinGW/include</text>
<text text-anchor="middle" x="195" y="-487.5" font-family="Helvetica,sans-Serif" font-size="10.00">/ddk/ndis.h</text>
</a>
</g>
</g>
<!-- Node1&#45;&gt;Node2 -->
<g id="edge1" class="edge">
<title>Node1&#45;&gt;Node2</title>
<path fill="none" stroke="midnightblue" d="M1316.77,-557.72C1102.67,-546.04 453.69,-510.62 254.07,-499.72"/>
<polygon fill="midnightblue" stroke="midnightblue" points="1316.76,-561.23 1326.94,-558.28 1317.14,-554.24 1316.76,-561.23"/>
</g>
<!-- Node5 -->
<g id="node5" class="node">
<title>Node5</title>
<g id="a_node5"><a xlink:href="../../d1/d0d/ws2san_8h.html" target="_top" xlink:title=" ">
<polygon fill="none" stroke="black" points="1191,-480.5 1191,-510.5 1309,-510.5 1309,-480.5 1191,-480.5"/>
<text text-anchor="start" x="1199" y="-498.5" font-family="Helvetica,sans-Serif" font-size="10.00">Tools/MinGW/include</text>
<text text-anchor="middle" x="1250" y="-487.5" font-family="Helvetica,sans-Serif" font-size="10.00">/ddk/ws2san.h</text>
</a>
</g>
</g>
<!-- Node1&#45;&gt;Node5 -->
<g id="edge4" class="edge">
<title>Node1&#45;&gt;Node5</title>
<path fill="none" stroke="midnightblue" d="M1347.28,-542.99C1325.72,-532.69 1299.31,-520.07 1279.45,-510.58"/>
<polygon fill="midnightblue" stroke="midnightblue" points="1345.96,-546.24 1356.49,-547.4 1348.98,-539.93 1345.96,-546.24"/>
</g>
<!-- Node6 -->
<g id="node6" class="node">
<title>Node6</title>
<g id="a_node6"><a xlink:href="../../d9/d43/windows_8h.html" target="_top" xlink:title=" ">
<polygon fill="none" stroke="black" points="1327,-480.5 1327,-510.5 1445,-510.5 1445,-480.5 1327,-480.5"/>
<text text-anchor="start" x="1335" y="-498.5" font-family="Helvetica,sans-Serif" font-size="10.00">Tools/MinGW/include</text>
<text text-anchor="middle" x="1386" y="-487.5" font-family="Helvetica,sans-Serif" font-size="10.00">/windows.h</text>
</a>
</g>
</g>
<!-- Node1&#45;&gt;Node6 -->
<g id="edge5" class="edge">
<title>Node1&#45;&gt;Node6</title>
<path fill="none" stroke="midnightblue" d="M1379.45,-537.4C1379.01,-528.37 1379.3,-518.41 1380.33,-510.58"/>
<polygon fill="midnightblue" stroke="midnightblue" points="1375.97,-537.74 1380.32,-547.4 1382.94,-537.13 1375.97,-537.74"/>
</g>
<!-- Node41 -->
<g id="node41" class="node">
<title>Node41</title>
<g id="a_node41"><a xlink:href="../../d4/d62/ws2spi_8h.html" target="_top" xlink:title=" ">
<polygon fill="none" stroke="black" points="1463,-480.5 1463,-510.5 1581,-510.5 1581,-480.5 1463,-480.5"/>
<text text-anchor="start" x="1471" y="-498.5" font-family="Helvetica,sans-Serif" font-size="10.00">Tools/MinGW/include</text>
<text text-anchor="middle" x="1522" y="-487.5" font-family="Helvetica,sans-Serif" font-size="10.00">/ws2spi.h</text>
</a>
</g>
</g>
<!-- Node1&#45;&gt;Node41 -->
<g id="edge53" class="edge">
<title>Node1&#45;&gt;Node41</title>
<path fill="none" stroke="midnightblue" d="M1424.72,-542.99C1446.28,-532.69 1472.69,-520.07 1492.55,-510.58"/>
<polygon fill="midnightblue" stroke="midnightblue" points="1423.02,-539.93 1415.51,-547.4 1426.04,-546.24 1423.02,-539.93"/>
</g>
<!-- Node42 -->
<g id="node42" class="node">
<title>Node42</title>
<g id="a_node42"><a xlink:href="../../d2/df0/ws2tcpip_8h.html" target="_top" xlink:title=" ">
<polygon fill="none" stroke="black" points="1599,-480.5 1599,-510.5 1717,-510.5 1717,-480.5 1599,-480.5"/>
<text text-anchor="start" x="1607" y="-498.5" font-family="Helvetica,sans-Serif" font-size="10.00">Tools/MinGW/include</text>
<text text-anchor="middle" x="1658" y="-487.5" font-family="Helvetica,sans-Serif" font-size="10.00">/ws2tcpip.h</text>
</a>
</g>
</g>
<!-- Node1&#45;&gt;Node42 -->
<g id="edge54" class="edge">
<title>Node1&#45;&gt;Node42</title>
<path fill="none" stroke="midnightblue" d="M1454.55,-545.12C1499.06,-534.48 1556.47,-520.76 1598.95,-510.61"/>
<polygon fill="midnightblue" stroke="midnightblue" points="1453.6,-541.75 1444.69,-547.48 1455.22,-548.56 1453.6,-541.75"/>
</g>
<!-- Node43 -->
<g id="node43" class="node">
<title>Node43</title>
<g id="a_node43"><a xlink:href="../../db/dce/wsahelp_8h.html" target="_top" xlink:title=" ">
<polygon fill="none" stroke="black" points="1735,-480.5 1735,-510.5 1853,-510.5 1853,-480.5 1735,-480.5"/>
<text text-anchor="start" x="1743" y="-498.5" font-family="Helvetica,sans-Serif" font-size="10.00">Tools/MinGW/include</text>
<text text-anchor="middle" x="1794" y="-487.5" font-family="Helvetica,sans-Serif" font-size="10.00">/wsahelp.h</text>
</a>
</g>
</g>
<!-- Node1&#45;&gt;Node43 -->
<g id="edge55" class="edge">
<title>Node1&#45;&gt;Node43</title>
<path fill="none" stroke="midnightblue" d="M1455.43,-552.48C1524.29,-543.24 1632.72,-527.86 1726,-511 1728.85,-510.48 1731.76,-509.94 1734.71,-509.37"/>
<polygon fill="midnightblue" stroke="midnightblue" points="1454.6,-549.06 1445.15,-553.86 1455.53,-556 1454.6,-549.06"/>
</g>
<!-- Node3 -->
<g id="node3" class="node">
<title>Node3</title>
<g id="a_node3"><a xlink:href="../../db/d40/ndistapi_8h.html" target="_top" xlink:title=" ">
<polygon fill="none" stroke="black" points="136,-408 136,-438 254,-438 254,-408 136,-408"/>
<text text-anchor="start" x="144" y="-426" font-family="Helvetica,sans-Serif" font-size="10.00">Tools/MinGW/include</text>
<text text-anchor="middle" x="195" y="-415" font-family="Helvetica,sans-Serif" font-size="10.00">/ddk/ndistapi.h</text>
</a>
</g>
</g>
<!-- Node2&#45;&gt;Node3 -->
<g id="edge2" class="edge">
<title>Node2&#45;&gt;Node3</title>
<path fill="none" stroke="midnightblue" d="M195,-470.23C195,-459.57 195,-447.41 195,-438.25"/>
<polygon fill="midnightblue" stroke="midnightblue" points="191.5,-470.23 195,-480.23 198.5,-470.23 191.5,-470.23"/>
</g>
<!-- Node4 -->
<g id="node4" class="node">
<title>Node4</title>
<g id="a_node4"><a xlink:href="../../d4/db3/ndiswan_8h.html" target="_top" xlink:title=" ">
<polygon fill="none" stroke="black" points="0,-408 0,-438 118,-438 118,-408 0,-408"/>
<text text-anchor="start" x="8" y="-426" font-family="Helvetica,sans-Serif" font-size="10.00">Tools/MinGW/include</text>
<text text-anchor="middle" x="59" y="-415" font-family="Helvetica,sans-Serif" font-size="10.00">/ddk/ndiswan.h</text>
</a>
</g>
</g>
<!-- Node2&#45;&gt;Node4 -->
<g id="edge3" class="edge">
<title>Node2&#45;&gt;Node4</title>
<path fill="none" stroke="midnightblue" d="M158.76,-475.72C135.95,-463.89 106.98,-448.87 86.15,-438.07"/>
<polygon fill="midnightblue" stroke="midnightblue" points="157.32,-478.91 167.81,-480.4 160.54,-472.69 157.32,-478.91"/>
</g>
<!-- Node6&#45;&gt;Node1 -->
<g id="edge52" class="edge">
<title>Node6&#45;&gt;Node1</title>
<path fill="none" stroke="midnightblue" d="M1392.54,-520.57C1392.99,-529.6 1392.71,-539.56 1391.68,-547.4"/>
<polygon fill="midnightblue" stroke="midnightblue" points="1396.03,-520.24 1391.67,-510.58 1389.05,-520.84 1396.03,-520.24"/>
</g>
<!-- Node7 -->
<g id="node7" class="node">
<title>Node7</title>
<g id="a_node7"><a xlink:href="../../db/d94/con__win32_8c.html" target="_top" xlink:title=" ">
<polygon fill="none" stroke="black" points="2404,-413.5 2404,-432.5 2536,-432.5 2536,-413.5 2404,-413.5"/>
<text text-anchor="middle" x="2470" y="-420.5" font-family="Helvetica,sans-Serif" font-size="10.00">Engine/sys/con_win32.c</text>
</a>
</g>
</g>
<!-- Node6&#45;&gt;Node7 -->
<g id="edge6" class="edge">
<title>Node6&#45;&gt;Node7</title>
<path fill="none" stroke="midnightblue" d="M1455.43,-479.99C1871.13,-429.42 1984.47,-505.8 2395,-444 2411.39,-441.53 2429.34,-436.82 2443.58,-432.59"/>
<polygon fill="midnightblue" stroke="midnightblue" points="1454.73,-476.54 1445.24,-481.24 1455.59,-483.49 1454.73,-476.54"/>
</g>
<!-- Node8 -->
<g id="node8" class="node">
<title>Node8</title>
<g id="a_node8"><a xlink:href="../../db/db6/sys__win32_8c.html" target="_top" xlink:title=" ">
<polygon fill="none" stroke="black" points="2087.5,-6 2087.5,-25 2218.5,-25 2218.5,-6 2087.5,-6"/>
<text text-anchor="middle" x="2153" y="-13" font-family="Helvetica,sans-Serif" font-size="10.00">Engine/sys/sys_win32.c</text>
</a>
</g>
</g>
<!-- Node6&#45;&gt;Node8 -->
<g id="edge7" class="edge">
<title>Node6&#45;&gt;Node8</title>
<path fill="none" stroke="midnightblue" d="M1455.44,-480.41C1580.4,-473.3 2500.22,-481.76 2545,-444 2577.08,-416.94 2564,-393.47 2564,-351.5 2564,-351.5 2564,-351.5 2564,-148.5 2564,-76.83 2334.62,-38.58 2218.58,-23.81"/>
<polygon fill="midnightblue" stroke="midnightblue" points="1454.92,-476.94 1445.23,-481.22 1455.48,-483.92 1454.92,-476.94"/>
</g>
<!-- Node9 -->
<g id="node9" class="node">
<title>Node9</title>
<g id="a_node9"><a xlink:href="../../d9/d4b/aclapi_8h.html" target="_top" xlink:title=" ">
<polygon fill="none" stroke="black" points="272,-408 272,-438 390,-438 390,-408 272,-408"/>
<text text-anchor="start" x="280" y="-426" font-family="Helvetica,sans-Serif" font-size="10.00">Tools/MinGW/include</text>
<text text-anchor="middle" x="331" y="-415" font-family="Helvetica,sans-Serif" font-size="10.00">/aclapi.h</text>
</a>
</g>
</g>
<!-- Node6&#45;&gt;Node9 -->
<g id="edge8" class="edge">
<title>Node6&#45;&gt;Node9</title>
<path fill="none" stroke="midnightblue" d="M1316.81,-480.01C910.62,-430.49 799.12,-509.64 399,-444 390.38,-442.59 381.31,-440.42 372.7,-438.02"/>
<polygon fill="midnightblue" stroke="midnightblue" points="1316.41,-483.49 1326.76,-481.25 1317.27,-476.54 1316.41,-483.49"/>
</g>
<!-- Node10 -->
<g id="node10" class="node">
<title>Node10</title>
<g id="a_node10"><a xlink:href="../../d5/d7b/afxres_8h.html" target="_top" xlink:title=" ">
<polygon fill="none" stroke="black" points="408,-408 408,-438 526,-438 526,-408 408,-408"/>
<text text-anchor="start" x="416" y="-426" font-family="Helvetica,sans-Serif" font-size="10.00">Tools/MinGW/include</text>
<text text-anchor="middle" x="467" y="-415" font-family="Helvetica,sans-Serif" font-size="10.00">/afxres.h</text>
</a>
</g>
</g>
<!-- Node6&#45;&gt;Node10 -->
<g id="edge9" class="edge">
<title>Node6&#45;&gt;Node10</title>
<path fill="none" stroke="midnightblue" d="M1316.71,-479.99C970.67,-436.77 875.31,-501.02 535,-444 526.5,-442.58 517.57,-440.44 509.07,-438.08"/>
<polygon fill="midnightblue" stroke="midnightblue" points="1316.4,-483.48 1326.76,-481.27 1317.28,-476.54 1316.4,-483.48"/>
</g>
<!-- Node11 -->
<g id="node11" class="node">
<title>Node11</title>
<g id="a_node11"><a xlink:href="../../d2/d64/gthr-default_8h.html" target="_top" xlink:title=" ">
<polygon fill="none" stroke="black" points="544,-402.5 544,-443.5 700,-443.5 700,-402.5 544,-402.5"/>
<text text-anchor="start" x="552" y="-431.5" font-family="Helvetica,sans-Serif" font-size="10.00">Tools/MinGW/include</text>
<text text-anchor="start" x="552" y="-420.5" font-family="Helvetica,sans-Serif" font-size="10.00">/c++/4.6.1/i686&#45;pc&#45;mingw32</text>
<text text-anchor="middle" x="622" y="-409.5" font-family="Helvetica,sans-Serif" font-size="10.00">/bits/gthr&#45;default.h</text>
</a>
</g>
</g>
<!-- Node6&#45;&gt;Node11 -->
<g id="edge10" class="edge">
<title>Node6&#45;&gt;Node11</title>
<path fill="none" stroke="midnightblue" d="M1316.77,-479.98C1049.75,-444.74 977.16,-480.23 714,-444 709.47,-443.38 704.82,-442.65 700.15,-441.85"/>
<polygon fill="midnightblue" stroke="midnightblue" points="1316.38,-483.46 1326.75,-481.32 1317.31,-476.52 1316.38,-483.46"/>
</g>
<!-- Node12 -->
<g id="node12" class="node">
<title>Node12</title>
<g id="a_node12"><a xlink:href="../../d4/d7c/comcat_8h.html" target="_top" xlink:title=" ">
<polygon fill="none" stroke="black" points="814,-67.5 814,-97.5 932,-97.5 932,-67.5 814,-67.5"/>
<text text-anchor="start" x="822" y="-85.5" font-family="Helvetica,sans-Serif" font-size="10.00">Tools/MinGW/include</text>
<text text-anchor="middle" x="873" y="-74.5" font-family="Helvetica,sans-Serif" font-size="10.00">/comcat.h</text>
</a>
</g>
</g>
<!-- Node6&#45;&gt;Node12 -->
<g id="edge11" class="edge">
<title>Node6&#45;&gt;Node12</title>
<path fill="none" stroke="midnightblue" d="M1316.62,-480.27C1219.71,-472.38 793.1,-484.08 747,-444 715.33,-416.47 728,-393.47 728,-351.5 728,-351.5 728,-351.5 728,-215.5 728,-156.61 794.22,-117.03 837.16,-97.56"/>
<polygon fill="midnightblue" stroke="midnightblue" points="1316.44,-483.77 1326.75,-481.33 1317.17,-476.81 1316.44,-483.77"/>
</g>
<!-- Node13 -->
<g id="node13" class="node">
<title>Node13</title>
<g id="a_node13"><a xlink:href="../../db/d82/wglew_8h.html" target="_top" xlink:title=" ">
<polygon fill="none" stroke="black" points="756,-408 756,-438 874,-438 874,-408 756,-408"/>
<text text-anchor="start" x="764" y="-426" font-family="Helvetica,sans-Serif" font-size="10.00">Tools/MinGW/include</text>
<text text-anchor="middle" x="815" y="-415" font-family="Helvetica,sans-Serif" font-size="10.00">/GL/wglew.h</text>
</a>
</g>
</g>
<!-- Node6&#45;&gt;Node13 -->
<g id="edge12" class="edge">
<title>Node6&#45;&gt;Node13</title>
<path fill="none" stroke="midnightblue" d="M1316.58,-479.93C1124.25,-452.65 1070.45,-478.95 883,-444 874.77,-442.47 866.12,-440.34 857.85,-438.04"/>
<polygon fill="midnightblue" stroke="midnightblue" points="1316.34,-483.43 1326.74,-481.4 1317.35,-476.5 1316.34,-483.43"/>
</g>
<!-- Node14 -->
<g id="node14" class="node">
<title>Node14</title>
<g id="a_node14"><a xlink:href="../../d8/dc2/httpext_8h.html" target="_top" xlink:title=" ">
<polygon fill="none" stroke="black" points="892,-408 892,-438 1010,-438 1010,-408 892,-408"/>
<text text-anchor="start" x="900" y="-426" font-family="Helvetica,sans-Serif" font-size="10.00">Tools/MinGW/include</text>
<text text-anchor="middle" x="951" y="-415" font-family="Helvetica,sans-Serif" font-size="10.00">/httpext.h</text>
</a>
</g>
</g>
<!-- Node6&#45;&gt;Node14 -->
<g id="edge13" class="edge">
<title>Node6&#45;&gt;Node14</title>
<path fill="none" stroke="midnightblue" d="M1316.6,-479.87C1184.16,-458.63 1146.9,-470.32 1019,-444 1011.17,-442.39 1002.93,-440.31 994.99,-438.09"/>
<polygon fill="midnightblue" stroke="midnightblue" points="1316.29,-483.37 1326.72,-481.53 1317.42,-476.46 1316.29,-483.37"/>
</g>
<!-- Node15 -->
<g id="node15" class="node">
<title>Node15</title>
<g id="a_node15"><a xlink:href="../../df/dd3/largeint_8h.html" target="_top" xlink:title=" ">
<polygon fill="none" stroke="black" points="1028,-408 1028,-438 1146,-438 1146,-408 1028,-408"/>
<text text-anchor="start" x="1036" y="-426" font-family="Helvetica,sans-Serif" font-size="10.00">Tools/MinGW/include</text>
<text text-anchor="middle" x="1087" y="-415" font-family="Helvetica,sans-Serif" font-size="10.00">/largeint.h</text>
</a>
</g>
</g>
<!-- Node6&#45;&gt;Node15 -->
<g id="edge14" class="edge">
<title>Node6&#45;&gt;Node15</title>
<path fill="none" stroke="midnightblue" d="M1317.04,-479.68C1254.81,-466.27 1170.69,-448.02 1155,-444 1147.97,-442.2 1140.56,-440.17 1133.33,-438.1"/>
<polygon fill="midnightblue" stroke="midnightblue" points="1316.31,-483.11 1326.83,-481.79 1317.79,-476.26 1316.31,-483.11"/>
</g>
<!-- Node16 -->
<g id="node16" class="node">
<title>Node16</title>
<g id="a_node16"><a xlink:href="../../d9/d87/mlang_8h.html" target="_top" xlink:title=" ">
<polygon fill="none" stroke="black" points="1164,-408 1164,-438 1282,-438 1282,-408 1164,-408"/>
<text text-anchor="start" x="1172" y="-426" font-family="Helvetica,sans-Serif" font-size="10.00">Tools/MinGW/include</text>
<text text-anchor="middle" x="1223" y="-415" font-family="Helvetica,sans-Serif" font-size="10.00">/mlang.h</text>
</a>
</g>
</g>
<!-- Node6&#45;&gt;Node16 -->
<g id="edge15" class="edge">
<title>Node6&#45;&gt;Node16</title>
<path fill="none" stroke="midnightblue" d="M1344.02,-476.34C1316.46,-464.42 1280.95,-449.07 1255.54,-438.07"/>
<polygon fill="midnightblue" stroke="midnightblue" points="1342.84,-479.65 1353.41,-480.4 1345.62,-473.22 1342.84,-479.65"/>
</g>
<!-- Node17 -->
<g id="node17" class="node">
<title>Node17</title>
<g id="a_node17"><a xlink:href="../../d3/d92/oaidl_8h.html" target="_top" xlink:title=" ">
<polygon fill="none" stroke="black" points="1278,-268.5 1278,-298.5 1396,-298.5 1396,-268.5 1278,-268.5"/>
<text text-anchor="start" x="1286" y="-286.5" font-family="Helvetica,sans-Serif" font-size="10.00">Tools/MinGW/include</text>
<text text-anchor="middle" x="1337" y="-275.5" font-family="Helvetica,sans-Serif" font-size="10.00">/oaidl.h</text>
</a>
</g>
</g>
<!-- Node6&#45;&gt;Node17 -->
<g id="edge16" class="edge">
<title>Node6&#45;&gt;Node17</title>
<path fill="none" stroke="midnightblue" d="M1379.07,-470.54C1376.73,-462.17 1374.16,-452.69 1372,-444 1358.75,-390.62 1345.48,-326.55 1339.83,-298.64"/>
<polygon fill="midnightblue" stroke="midnightblue" points="1375.77,-471.74 1381.87,-480.41 1382.51,-469.83 1375.77,-471.74"/>
</g>
<!-- Node23 -->
<g id="node23" class="node">
<title>Node23</title>
<g id="a_node23"><a xlink:href="../../d5/d5f/oledlg_8h.html" target="_top" xlink:title=" ">
<polygon fill="none" stroke="black" points="1118,-67.5 1118,-97.5 1236,-97.5 1236,-67.5 1118,-67.5"/>
<text text-anchor="start" x="1126" y="-85.5" font-family="Helvetica,sans-Serif" font-size="10.00">Tools/MinGW/include</text>
<text text-anchor="middle" x="1177" y="-74.5" font-family="Helvetica,sans-Serif" font-size="10.00">/oledlg.h</text>
</a>
</g>
</g>
<!-- Node6&#45;&gt;Node23 -->
<g id="edge30" class="edge">
<title>Node6&#45;&gt;Node23</title>
<path fill="none" stroke="midnightblue" d="M1370.78,-471.42C1347.37,-435.42 1301.81,-363.38 1269,-299 1231.41,-225.24 1195.45,-132.57 1182.28,-97.67"/>
<polygon fill="midnightblue" stroke="midnightblue" points="1368.1,-473.71 1376.5,-480.17 1373.96,-469.88 1368.1,-473.71"/>
</g>
<!-- Node26 -->
<g id="node26" class="node">
<title>Node26</title>
<g id="a_node26"><a xlink:href="../../d7/d93/vfw_8h.html" target="_top" xlink:title=" ">
<polygon fill="none" stroke="black" points="1564,-67.5 1564,-97.5 1682,-97.5 1682,-67.5 1564,-67.5"/>
<text text-anchor="start" x="1572" y="-85.5" font-family="Helvetica,sans-Serif" font-size="10.00">Tools/MinGW/include</text>
<text text-anchor="middle" x="1623" y="-74.5" font-family="Helvetica,sans-Serif" font-size="10.00">/vfw.h</text>
</a>
</g>
</g>
<!-- Node6&#45;&gt;Node26 -->
<g id="edge48" class="edge">
<title>Node6&#45;&gt;Node26</title>
<path fill="none" stroke="midnightblue" d="M1448.77,-477.6C1484.56,-467.29 1525.32,-454.17 1541,-444 1562.12,-430.31 1557.78,-415.54 1579,-402 1624.5,-372.95 1659.46,-406.63 1695,-366 1763.62,-287.56 1784.63,-222.12 1729,-134 1718.06,-116.68 1699.38,-105.17 1680.71,-97.59"/>
<polygon fill="midnightblue" stroke="midnightblue" points="1447.49,-474.33 1438.83,-480.44 1449.41,-481.06 1447.49,-474.33"/>
</g>
<!-- Node27 -->
<g id="node27" class="node">
<title>Node27</title>
<g id="a_node27"><a xlink:href="../../d0/d44/rpc_8h.html" target="_top" xlink:title=" ">
<polygon fill="none" stroke="black" points="1414,-408 1414,-438 1532,-438 1532,-408 1414,-408"/>
<text text-anchor="start" x="1422" y="-426" font-family="Helvetica,sans-Serif" font-size="10.00">Tools/MinGW/include</text>
<text text-anchor="middle" x="1473" y="-415" font-family="Helvetica,sans-Serif" font-size="10.00">/rpc.h</text>
</a>
</g>
</g>
<!-- Node6&#45;&gt;Node27 -->
<g id="edge31" class="edge">
<title>Node6&#45;&gt;Node27</title>
<path fill="none" stroke="midnightblue" d="M1405.72,-473.46C1418.99,-462 1436.34,-448.14 1450.2,-438"/>
<polygon fill="midnightblue" stroke="midnightblue" points="1403.24,-470.99 1398.06,-480.23 1407.87,-476.24 1403.24,-470.99"/>
</g>
<!-- Node33 -->
<g id="node33" class="node">
<title>Node33</title>
<g id="a_node33"><a xlink:href="../../db/d12/unknwn_8h.html" target="_top" xlink:title=" ">
<polygon fill="none" stroke="black" points="1414,-268.5 1414,-298.5 1532,-298.5 1532,-268.5 1414,-268.5"/>
<text text-anchor="start" x="1422" y="-286.5" font-family="Helvetica,sans-Serif" font-size="10.00">Tools/MinGW/include</text>
<text text-anchor="middle" x="1473" y="-275.5" font-family="Helvetica,sans-Serif" font-size="10.00">/unknwn.h</text>
</a>
</g>
</g>
<!-- Node6&#45;&gt;Node33 -->
<g id="edge46" class="edge">
<title>Node6&#45;&gt;Node33</title>
<path fill="none" stroke="midnightblue" d="M1383.2,-470C1380.64,-436.99 1380.37,-377.49 1405,-335 1414.07,-319.35 1430.12,-307.08 1444.35,-298.56"/>
<polygon fill="midnightblue" stroke="midnightblue" points="1379.73,-470.48 1384.12,-480.12 1386.7,-469.84 1379.73,-470.48"/>
</g>
<!-- Node34 -->
<g id="node34" class="node">
<title>Node34</title>
<g id="a_node34"><a xlink:href="../../dd/d90/Tools_2MinGW_2include_2SDL_2SDL__syswm_8h.html" target="_top" xlink:title=" ">
<polygon fill="none" stroke="black" points="1588,-408 1588,-438 1706,-438 1706,-408 1588,-408"/>
<text text-anchor="start" x="1596" y="-426" font-family="Helvetica,sans-Serif" font-size="10.00">Tools/MinGW/include</text>
<text text-anchor="middle" x="1647" y="-415" font-family="Helvetica,sans-Serif" font-size="10.00">/SDL/SDL_syswm.h</text>
</a>
</g>
</g>
<!-- Node6&#45;&gt;Node34 -->
<g id="edge43" class="edge">
<title>Node6&#45;&gt;Node34</title>
<path fill="none" stroke="midnightblue" d="M1448.71,-477.74C1485.27,-467.95 1532.26,-455.32 1574,-444 1581.1,-442.07 1588.59,-440.03 1595.96,-438.02"/>
<polygon fill="midnightblue" stroke="midnightblue" points="1447.45,-474.45 1438.69,-480.42 1449.26,-481.22 1447.45,-474.45"/>
</g>
<!-- Node35 -->
<g id="node35" class="node">
<title>Node35</title>
<g id="a_node35"><a xlink:href="../../de/d96/snmp_8h.html" target="_top" xlink:title=" ">
<polygon fill="none" stroke="black" points="1724,-408 1724,-438 1842,-438 1842,-408 1724,-408"/>
<text text-anchor="start" x="1732" y="-426" font-family="Helvetica,sans-Serif" font-size="10.00">Tools/MinGW/include</text>
<text text-anchor="middle" x="1783" y="-415" font-family="Helvetica,sans-Serif" font-size="10.00">/snmp.h</text>
</a>
</g>
</g>
<!-- Node6&#45;&gt;Node35 -->
<g id="edge44" class="edge">
<title>Node6&#45;&gt;Node35</title>
<path fill="none" stroke="midnightblue" d="M1455.26,-479.87C1571.11,-460.23 1603.64,-467.92 1715,-444 1722.7,-442.35 1730.8,-440.27 1738.62,-438.08"/>
<polygon fill="midnightblue" stroke="midnightblue" points="1454.55,-476.44 1445.29,-481.59 1455.74,-483.34 1454.55,-476.44"/>
</g>
<!-- Node37 -->
<g id="node37" class="node">
<title>Node37</title>
<g id="a_node37"><a xlink:href="../../d0/d19/usp10_8h.html" target="_top" xlink:title=" ">
<polygon fill="none" stroke="black" points="1860,-408 1860,-438 1978,-438 1978,-408 1860,-408"/>
<text text-anchor="start" x="1868" y="-426" font-family="Helvetica,sans-Serif" font-size="10.00">Tools/MinGW/include</text>
<text text-anchor="middle" x="1919" y="-415" font-family="Helvetica,sans-Serif" font-size="10.00">/usp10.h</text>
</a>
</g>
</g>
<!-- Node6&#45;&gt;Node37 -->
<g id="edge47" class="edge">
<title>Node6&#45;&gt;Node37</title>
<path fill="none" stroke="midnightblue" d="M1455.36,-479.92C1630.99,-454.34 1680.19,-476.54 1851,-444 1859.1,-442.46 1867.62,-440.35 1875.78,-438.08"/>
<polygon fill="midnightblue" stroke="midnightblue" points="1454.64,-476.49 1445.26,-481.43 1455.67,-483.42 1454.64,-476.49"/>
</g>
<!-- Node38 -->
<g id="node38" class="node">
<title>Node38</title>
<g id="a_node38"><a xlink:href="../../d8/d73/wininet_8h.html" target="_top" xlink:title=" ">
<polygon fill="none" stroke="black" points="1996,-408 1996,-438 2114,-438 2114,-408 1996,-408"/>
<text text-anchor="start" x="2004" y="-426" font-family="Helvetica,sans-Serif" font-size="10.00">Tools/MinGW/include</text>
<text text-anchor="middle" x="2055" y="-415" font-family="Helvetica,sans-Serif" font-size="10.00">/wininet.h</text>
</a>
</g>
</g>
<!-- Node6&#45;&gt;Node38 -->
<g id="edge49" class="edge">
<title>Node6&#45;&gt;Node38</title>
<path fill="none" stroke="midnightblue" d="M1455.5,-479.94C1691,-448.24 1756.58,-485.16 1987,-444 1995.36,-442.51 2004.15,-440.37 2012.54,-438.03"/>
<polygon fill="midnightblue" stroke="midnightblue" points="1454.68,-476.52 1445.25,-481.35 1455.63,-483.45 1454.68,-476.52"/>
</g>
<!-- Node39 -->
<g id="node39" class="node">
<title>Node39</title>
<g id="a_node39"><a xlink:href="../../da/d15/winsnmp_8h.html" target="_top" xlink:title=" ">
<polygon fill="none" stroke="black" points="2132,-408 2132,-438 2250,-438 2250,-408 2132,-408"/>
<text text-anchor="start" x="2140" y="-426" font-family="Helvetica,sans-Serif" font-size="10.00">Tools/MinGW/include</text>
<text text-anchor="middle" x="2191" y="-415" font-family="Helvetica,sans-Serif" font-size="10.00">/winsnmp.h</text>
</a>
</g>
</g>
<!-- Node6&#45;&gt;Node39 -->
<g id="edge50" class="edge">
<title>Node6&#45;&gt;Node39</title>
<path fill="none" stroke="midnightblue" d="M1455.4,-479.97C1751.01,-442.02 1832.82,-493.78 2123,-444 2131.49,-442.54 2140.42,-440.39 2148.92,-438.03"/>
<polygon fill="midnightblue" stroke="midnightblue" points="1454.7,-476.53 1445.24,-481.3 1455.61,-483.47 1454.7,-476.53"/>
</g>
<!-- Node40 -->
<g id="node40" class="node">
<title>Node40</title>
<g id="a_node40"><a xlink:href="../../da/de8/winsock_8h.html" target="_top" xlink:title=" ">
<polygon fill="none" stroke="black" points="2268,-408 2268,-438 2386,-438 2386,-408 2268,-408"/>
<text text-anchor="start" x="2276" y="-426" font-family="Helvetica,sans-Serif" font-size="10.00">Tools/MinGW/include</text>
<text text-anchor="middle" x="2327" y="-415" font-family="Helvetica,sans-Serif" font-size="10.00">/winsock.h</text>
</a>
</g>
</g>
<!-- Node6&#45;&gt;Node40 -->
<g id="edge51" class="edge">
<title>Node6&#45;&gt;Node40</title>
<path fill="none" stroke="midnightblue" d="M1455.3,-479.99C1811.05,-435.76 1909.03,-502.41 2259,-444 2267.5,-442.58 2276.43,-440.44 2284.93,-438.09"/>
<polygon fill="midnightblue" stroke="midnightblue" points="1454.72,-476.54 1445.24,-481.27 1455.6,-483.48 1454.72,-476.54"/>
</g>
<!-- Node18 -->
<g id="node18" class="node">
<title>Node18</title>
<g id="a_node18"><a xlink:href="../../d8/dfc/exdisp_8h.html" target="_top" xlink:title=" ">
<polygon fill="none" stroke="black" points="1205,-0.5 1205,-30.5 1323,-30.5 1323,-0.5 1205,-0.5"/>
<text text-anchor="start" x="1213" y="-18.5" font-family="Helvetica,sans-Serif" font-size="10.00">Tools/MinGW/include</text>
<text text-anchor="middle" x="1264" y="-7.5" font-family="Helvetica,sans-Serif" font-size="10.00">/exdisp.h</text>
</a>
</g>
</g>
<!-- Node17&#45;&gt;Node18 -->
<g id="edge17" class="edge">
<title>Node17&#45;&gt;Node18</title>
<path fill="none" stroke="midnightblue" d="M1307.55,-261.95C1298.09,-253.77 1288.62,-243.54 1283,-232 1249.27,-162.79 1257.38,-66.23 1261.95,-30.51"/>
<polygon fill="midnightblue" stroke="midnightblue" points="1305.43,-264.74 1315.4,-268.33 1309.84,-259.31 1305.43,-264.74"/>
</g>
<!-- Node19 -->
<g id="node19" class="node">
<title>Node19</title>
<g id="a_node19"><a xlink:href="../../d7/dce/oleauto_8h.html" target="_top" xlink:title=" ">
<polygon fill="none" stroke="black" points="1292,-201.5 1292,-231.5 1410,-231.5 1410,-201.5 1292,-201.5"/>
<text text-anchor="start" x="1300" y="-219.5" font-family="Helvetica,sans-Serif" font-size="10.00">Tools/MinGW/include</text>
<text text-anchor="middle" x="1351" y="-208.5" font-family="Helvetica,sans-Serif" font-size="10.00">/oleauto.h</text>
</a>
</g>
</g>
<!-- Node17&#45;&gt;Node19 -->
<g id="edge18" class="edge">
<title>Node17&#45;&gt;Node19</title>
<path fill="none" stroke="midnightblue" d="M1342.19,-258.4C1344.14,-249.37 1346.28,-239.41 1347.97,-231.58"/>
<polygon fill="midnightblue" stroke="midnightblue" points="1338.72,-257.88 1340.04,-268.4 1345.56,-259.36 1338.72,-257.88"/>
</g>
<!-- Node20 -->
<g id="node20" class="node">
<title>Node20</title>
<g id="a_node20"><a xlink:href="../../dd/db6/ole2_8h.html" target="_top" xlink:title=" ">
<polygon fill="none" stroke="black" points="1292,-134.5 1292,-164.5 1410,-164.5 1410,-134.5 1292,-134.5"/>
<text text-anchor="start" x="1300" y="-152.5" font-family="Helvetica,sans-Serif" font-size="10.00">Tools/MinGW/include</text>
<text text-anchor="middle" x="1351" y="-141.5" font-family="Helvetica,sans-Serif" font-size="10.00">/ole2.h</text>
</a>
</g>
</g>
<!-- Node19&#45;&gt;Node20 -->
<g id="edge19" class="edge">
<title>Node19&#45;&gt;Node20</title>
<path fill="none" stroke="midnightblue" d="M1351,-191.11C1351,-182.15 1351,-172.32 1351,-164.58"/>
<polygon fill="midnightblue" stroke="midnightblue" points="1347.5,-191.4 1351,-201.4 1354.5,-191.4 1347.5,-191.4"/>
</g>
<!-- Node20&#45;&gt;Node12 -->
<g id="edge20" class="edge">
<title>Node20&#45;&gt;Node12</title>
<path fill="none" stroke="midnightblue" d="M1281.92,-139.11C1187.85,-126.31 1021.04,-103.63 932.33,-91.57"/>
<polygon fill="midnightblue" stroke="midnightblue" points="1281.53,-142.59 1291.91,-140.46 1282.47,-135.65 1281.53,-142.59"/>
</g>
<!-- Node20&#45;&gt;Node17 -->
<g id="edge21" class="edge">
<title>Node20&#45;&gt;Node17</title>
<path fill="none" stroke="midnightblue" d="M1389.9,-170.14C1401.41,-178.04 1412.63,-188.33 1419,-201 1425.19,-213.31 1425.72,-219.97 1419,-232 1409.71,-248.64 1392.43,-260.47 1376.12,-268.48"/>
<polygon fill="midnightblue" stroke="midnightblue" points="1391.43,-166.97 1381.12,-164.56 1387.68,-172.87 1391.43,-166.97"/>
</g>
<!-- Node21 -->
<g id="node21" class="node">
<title>Node21</title>
<g id="a_node21"><a xlink:href="../../dc/d2a/ocidl_8h.html" target="_top" xlink:title=" ">
<polygon fill="none" stroke="black" points="1292,-67.5 1292,-97.5 1410,-97.5 1410,-67.5 1292,-67.5"/>
<text text-anchor="start" x="1300" y="-85.5" font-family="Helvetica,sans-Serif" font-size="10.00">Tools/MinGW/include</text>
<text text-anchor="middle" x="1351" y="-74.5" font-family="Helvetica,sans-Serif" font-size="10.00">/ocidl.h</text>
</a>
</g>
</g>
<!-- Node20&#45;&gt;Node21 -->
<g id="edge22" class="edge">
<title>Node20&#45;&gt;Node21</title>
<path fill="none" stroke="midnightblue" d="M1351,-124.11C1351,-115.15 1351,-105.32 1351,-97.58"/>
<polygon fill="midnightblue" stroke="midnightblue" points="1347.5,-124.4 1351,-134.4 1354.5,-124.4 1347.5,-124.4"/>
</g>
<!-- Node20&#45;&gt;Node23 -->
<g id="edge25" class="edge">
<title>Node20&#45;&gt;Node23</title>
<path fill="none" stroke="midnightblue" d="M1303.67,-130.82C1275.7,-120.37 1240.77,-107.32 1214.68,-97.58"/>
<polygon fill="midnightblue" stroke="midnightblue" points="1302.65,-134.18 1313.24,-134.4 1305.1,-127.62 1302.65,-134.18"/>
</g>
<!-- Node24 -->
<g id="node24" class="node">
<title>Node24</title>
<g id="a_node24"><a xlink:href="../../d8/d57/shlobj_8h.html" target="_top" xlink:title=" ">
<polygon fill="none" stroke="black" points="1428,-67.5 1428,-97.5 1546,-97.5 1546,-67.5 1428,-67.5"/>
<text text-anchor="start" x="1436" y="-85.5" font-family="Helvetica,sans-Serif" font-size="10.00">Tools/MinGW/include</text>
<text text-anchor="middle" x="1487" y="-74.5" font-family="Helvetica,sans-Serif" font-size="10.00">/shlobj.h</text>
</a>
</g>
</g>
<!-- Node20&#45;&gt;Node24 -->
<g id="edge26" class="edge">
<title>Node20&#45;&gt;Node24</title>
<path fill="none" stroke="midnightblue" d="M1389.72,-129.99C1411.28,-119.69 1437.69,-107.07 1457.55,-97.58"/>
<polygon fill="midnightblue" stroke="midnightblue" points="1388.02,-126.93 1380.51,-134.4 1391.04,-133.24 1388.02,-126.93"/>
</g>
<!-- Node20&#45;&gt;Node26 -->
<g id="edge29" class="edge">
<title>Node20&#45;&gt;Node26</title>
<path fill="none" stroke="midnightblue" d="M1419.55,-132.12C1464.06,-121.48 1521.47,-107.76 1563.95,-97.61"/>
<polygon fill="midnightblue" stroke="midnightblue" points="1418.6,-128.75 1409.69,-134.48 1420.22,-135.56 1418.6,-128.75"/>
</g>
<!-- Node21&#45;&gt;Node18 -->
<g id="edge23" class="edge">
<title>Node21&#45;&gt;Node18</title>
<path fill="none" stroke="midnightblue" d="M1323.79,-61.17C1310.48,-51.23 1294.8,-39.51 1282.84,-30.58"/>
<polygon fill="midnightblue" stroke="midnightblue" points="1322.02,-64.21 1332.12,-67.4 1326.21,-58.61 1322.02,-64.21"/>
</g>
<!-- Node22 -->
<g id="node22" class="node">
<title>Node22</title>
<g id="a_node22"><a xlink:href="../../d6/d60/olectl_8h.html" target="_top" xlink:title=" ">
<polygon fill="none" stroke="black" points="1341,-0.5 1341,-30.5 1459,-30.5 1459,-0.5 1341,-0.5"/>
<text text-anchor="start" x="1349" y="-18.5" font-family="Helvetica,sans-Serif" font-size="10.00">Tools/MinGW/include</text>
<text text-anchor="middle" x="1400" y="-7.5" font-family="Helvetica,sans-Serif" font-size="10.00">/olectl.h</text>
</a>
</g>
</g>
<!-- Node21&#45;&gt;Node22 -->
<g id="edge24" class="edge">
<title>Node21&#45;&gt;Node22</title>
<path fill="none" stroke="midnightblue" d="M1367.84,-59.16C1374.99,-49.68 1383.1,-38.92 1389.39,-30.58"/>
<polygon fill="midnightblue" stroke="midnightblue" points="1364.86,-57.3 1361.63,-67.4 1370.45,-61.52 1364.86,-57.3"/>
</g>
<!-- Node24&#45;&gt;Node8 -->
<g id="edge27" class="edge">
<title>Node24&#45;&gt;Node8</title>
<path fill="none" stroke="midnightblue" d="M1556.29,-66.93C1754.8,-38.05 1978.58,-24.64 2087.21,-19.34"/>
<polygon fill="midnightblue" stroke="midnightblue" points="1555.64,-63.49 1546.26,-68.41 1556.66,-70.41 1555.64,-63.49"/>
</g>
<!-- Node25 -->
<g id="node25" class="node">
<title>Node25</title>
<g id="a_node25"><a xlink:href="../../dd/d94/shlwapi_8h.html" target="_top" xlink:title=" ">
<polygon fill="none" stroke="black" points="1564,-0.5 1564,-30.5 1682,-30.5 1682,-0.5 1564,-0.5"/>
<text text-anchor="start" x="1572" y="-18.5" font-family="Helvetica,sans-Serif" font-size="10.00">Tools/MinGW/include</text>
<text text-anchor="middle" x="1623" y="-7.5" font-family="Helvetica,sans-Serif" font-size="10.00">/shlwapi.h</text>
</a>
</g>
</g>
<!-- Node24&#45;&gt;Node25 -->
<g id="edge28" class="edge">
<title>Node24&#45;&gt;Node25</title>
<path fill="none" stroke="midnightblue" d="M1525.72,-62.99C1547.28,-52.69 1573.69,-40.07 1593.55,-30.58"/>
<polygon fill="midnightblue" stroke="midnightblue" points="1524.02,-59.93 1516.51,-67.4 1527.04,-66.24 1524.02,-59.93"/>
</g>
<!-- Node27&#45;&gt;Node6 -->
<g id="edge38" class="edge">
<title>Node27&#45;&gt;Node6</title>
<path fill="none" stroke="midnightblue" d="M1453.62,-444.74C1440.42,-456.16 1423.07,-470.04 1409.15,-480.23"/>
<polygon fill="midnightblue" stroke="midnightblue" points="1456.06,-447.25 1461.23,-438 1451.42,-442.01 1456.06,-447.25"/>
</g>
<!-- Node28 -->
<g id="node28" class="node">
<title>Node28</title>
<g id="a_node28"><a xlink:href="../../d0/d4a/objbase_8h.html" target="_top" xlink:title=" ">
<polygon fill="none" stroke="black" points="1466,-201.5 1466,-231.5 1584,-231.5 1584,-201.5 1466,-201.5"/>
<text text-anchor="start" x="1474" y="-219.5" font-family="Helvetica,sans-Serif" font-size="10.00">Tools/MinGW/include</text>
<text text-anchor="middle" x="1525" y="-208.5" font-family="Helvetica,sans-Serif" font-size="10.00">/objbase.h</text>
</a>
</g>
</g>
<!-- Node27&#45;&gt;Node28 -->
<g id="edge32" class="edge">
<title>Node27&#45;&gt;Node28</title>
<path fill="none" stroke="midnightblue" d="M1533.99,-405.29C1594.08,-388.82 1676.93,-366.09 1677,-366 1719.05,-310.85 1617.37,-256.61 1560.38,-231.69"/>
<polygon fill="midnightblue" stroke="midnightblue" points="1532.91,-401.95 1524.19,-407.97 1534.76,-408.7 1532.91,-401.95"/>
</g>
<!-- Node31 -->
<g id="node31" class="node">
<title>Node31</title>
<g id="a_node31"><a xlink:href="../../de/d17/rpcproxy_8h.html" target="_top" xlink:title=" ">
<polygon fill="none" stroke="black" points="1550,-335.5 1550,-365.5 1668,-365.5 1668,-335.5 1550,-335.5"/>
<text text-anchor="start" x="1558" y="-353.5" font-family="Helvetica,sans-Serif" font-size="10.00">Tools/MinGW/include</text>
<text text-anchor="middle" x="1609" y="-342.5" font-family="Helvetica,sans-Serif" font-size="10.00">/rpcproxy.h</text>
</a>
</g>
</g>
<!-- Node27&#45;&gt;Node31 -->
<g id="edge37" class="edge">
<title>Node27&#45;&gt;Node31</title>
<path fill="none" stroke="midnightblue" d="M1509.24,-403.22C1532.05,-391.39 1561.02,-376.37 1581.85,-365.57"/>
<polygon fill="midnightblue" stroke="midnightblue" points="1507.46,-400.19 1500.19,-407.9 1510.68,-406.41 1507.46,-400.19"/>
</g>
<!-- Node32 -->
<g id="node32" class="node">
<title>Node32</title>
<g id="a_node32"><a xlink:href="../../d6/db2/wtypes_8h.html" target="_top" xlink:title=" ">
<polygon fill="none" stroke="black" points="1414,-335.5 1414,-365.5 1532,-365.5 1532,-335.5 1414,-335.5"/>
<text text-anchor="start" x="1422" y="-353.5" font-family="Helvetica,sans-Serif" font-size="10.00">Tools/MinGW/include</text>
<text text-anchor="middle" x="1473" y="-342.5" font-family="Helvetica,sans-Serif" font-size="10.00">/wtypes.h</text>
</a>
</g>
</g>
<!-- Node27&#45;&gt;Node32 -->
<g id="edge39" class="edge">
<title>Node27&#45;&gt;Node32</title>
<path fill="none" stroke="midnightblue" d="M1473,-397.73C1473,-387.07 1473,-374.91 1473,-365.75"/>
<polygon fill="midnightblue" stroke="midnightblue" points="1469.5,-397.73 1473,-407.73 1476.5,-397.73 1469.5,-397.73"/>
</g>
<!-- Node28&#45;&gt;Node20 -->
<g id="edge35" class="edge">
<title>Node28&#45;&gt;Node20</title>
<path fill="none" stroke="midnightblue" d="M1477.67,-197.82C1449.7,-187.37 1414.77,-174.32 1388.68,-164.58"/>
<polygon fill="midnightblue" stroke="midnightblue" points="1476.65,-201.18 1487.24,-201.4 1479.1,-194.62 1476.65,-201.18"/>
</g>
<!-- Node28&#45;&gt;Node25 -->
<g id="edge36" class="edge">
<title>Node28&#45;&gt;Node25</title>
<path fill="none" stroke="midnightblue" d="M1490.12,-195.74C1465.23,-179.15 1439.08,-154.89 1457,-134 1525.51,-54.14 1622.49,-177.86 1691,-98 1711.04,-74.64 1676,-47.08 1649.21,-30.73"/>
<polygon fill="midnightblue" stroke="midnightblue" points="1488.48,-198.85 1498.79,-201.27 1492.24,-192.94 1488.48,-198.85"/>
</g>
<!-- Node29 -->
<g id="node29" class="node">
<title>Node29</title>
<g id="a_node29"><a xlink:href="../../d2/d04/aclui_8h.html" target="_top" xlink:title=" ">
<polygon fill="none" stroke="black" points="1602,-134.5 1602,-164.5 1720,-164.5 1720,-134.5 1602,-134.5"/>
<text text-anchor="start" x="1610" y="-152.5" font-family="Helvetica,sans-Serif" font-size="10.00">Tools/MinGW/include</text>
<text text-anchor="middle" x="1661" y="-141.5" font-family="Helvetica,sans-Serif" font-size="10.00">/aclui.h</text>
</a>
</g>
</g>
<!-- Node28&#45;&gt;Node29 -->
<g id="edge33" class="edge">
<title>Node28&#45;&gt;Node29</title>
<path fill="none" stroke="midnightblue" d="M1563.72,-196.99C1585.28,-186.69 1611.69,-174.07 1631.55,-164.58"/>
<polygon fill="midnightblue" stroke="midnightblue" points="1562.02,-193.93 1554.51,-201.4 1565.04,-200.24 1562.02,-193.93"/>
</g>
<!-- Node30 -->
<g id="node30" class="node">
<title>Node30</title>
<g id="a_node30"><a xlink:href="../../d3/d16/d3d9_8h.html" target="_top" xlink:title=" ">
<polygon fill="none" stroke="black" points="1466,-134.5 1466,-164.5 1584,-164.5 1584,-134.5 1466,-134.5"/>
<text text-anchor="start" x="1474" y="-152.5" font-family="Helvetica,sans-Serif" font-size="10.00">Tools/MinGW/include</text>
<text text-anchor="middle" x="1525" y="-141.5" font-family="Helvetica,sans-Serif" font-size="10.00">/d3d9.h</text>
</a>
</g>
</g>
<!-- Node28&#45;&gt;Node30 -->
<g id="edge34" class="edge">
<title>Node28&#45;&gt;Node30</title>
<path fill="none" stroke="midnightblue" d="M1525,-191.11C1525,-182.15 1525,-172.32 1525,-164.58"/>
<polygon fill="midnightblue" stroke="midnightblue" points="1521.5,-191.4 1525,-201.4 1528.5,-191.4 1521.5,-191.4"/>
</g>
<!-- Node32&#45;&gt;Node28 -->
<g id="edge40" class="edge">
<title>Node32&#45;&gt;Node28</title>
<path fill="none" stroke="midnightblue" d="M1511.9,-329.86C1523.41,-321.96 1534.63,-311.67 1541,-299 1551.95,-277.23 1541.47,-248.68 1533.08,-231.8"/>
<polygon fill="midnightblue" stroke="midnightblue" points="1509.68,-327.13 1503.12,-335.44 1513.43,-333.03 1509.68,-327.13"/>
</g>
<!-- Node32&#45;&gt;Node33 -->
<g id="edge41" class="edge">
<title>Node32&#45;&gt;Node33</title>
<path fill="none" stroke="midnightblue" d="M1473,-325.11C1473,-316.15 1473,-306.32 1473,-298.58"/>
<polygon fill="midnightblue" stroke="midnightblue" points="1469.5,-325.4 1473,-335.4 1476.5,-325.4 1469.5,-325.4"/>
</g>
<!-- Node33&#45;&gt;Node28 -->
<g id="edge42" class="edge">
<title>Node33&#45;&gt;Node28</title>
<path fill="none" stroke="midnightblue" d="M1490.64,-260.45C1498.28,-250.9 1507,-240 1513.74,-231.58"/>
<polygon fill="midnightblue" stroke="midnightblue" points="1487.8,-258.4 1484.28,-268.4 1493.26,-262.77 1487.8,-258.4"/>
</g>
<!-- Node36 -->
<g id="node36" class="node">
<title>Node36</title>
<g id="a_node36"><a xlink:href="../../db/d7b/mgmtapi_8h.html" target="_top" xlink:title=" ">
<polygon fill="none" stroke="black" points="1762,-335.5 1762,-365.5 1880,-365.5 1880,-335.5 1762,-335.5"/>
<text text-anchor="start" x="1770" y="-353.5" font-family="Helvetica,sans-Serif" font-size="10.00">Tools/MinGW/include</text>
<text text-anchor="middle" x="1821" y="-342.5" font-family="Helvetica,sans-Serif" font-size="10.00">/mgmtapi.h</text>
</a>
</g>
</g>
<!-- Node35&#45;&gt;Node36 -->
<g id="edge45" class="edge">
<title>Node35&#45;&gt;Node36</title>
<path fill="none" stroke="midnightblue" d="M1795.54,-398.73C1801.42,-387.83 1808.22,-375.2 1813.32,-365.75"/>
<polygon fill="midnightblue" stroke="midnightblue" points="1792.35,-397.27 1790.69,-407.73 1798.52,-400.59 1792.35,-397.27"/>
</g>
</g>
</svg>
        <g id="navigator" transform="translate(0 0)" fill="#404254">
                <rect fill="#f2f5e9" fill-opacity="0.5" stroke="#606060" stroke-width=".5" x="0" y="0" width="60" height="60"/>
                <use id="zoomplus" xlink:href="#zoomPlus" x="17" y="9" onmousedown="handleZoom(evt,'in')"/>
                <use id="zoomminus" xlink:href="#zoomMin" x="42" y="9" onmousedown="handleZoom(evt,'out')"/>
                <use id="reset" xlink:href="#resetDef" x="30" y="36" onmousedown="handleReset()"/>
                <g id="arrowUp" xlink:href="#dirArrow" transform="translate(30 24)" onmousedown="handlePan(0,-1)">
                  <use xlink:href="#rim" fill="#404040">
                        <set attributeName="fill" to="#808080" begin="arrowUp.mouseover" end="arrowUp.mouseout"/>
                  </use>
                  <path fill="none" stroke="white" stroke-width="1.5" d="M0,-3.0v7 M-2.5,-0.5L0,-3.0L2.5,-0.5"/>
                </g>
                <g id="arrowRight" xlink:href="#dirArrow" transform="rotate(90) translate(36 -43)" onmousedown="handlePan(1,0)">
                  <use xlink:href="#rim" fill="#404040">
                        <set attributeName="fill" to="#808080" begin="arrowRight.mouseover" end="arrowRight.mouseout"/>
                  </use>
                  <path fill="none" stroke="white" stroke-width="1.5" d="M0,-3.0v7 M-2.5,-0.5L0,-3.0L2.5,-0.5"/>
                </g>
                <g id="arrowDown" xlink:href="#dirArrow" transform="rotate(180) translate(-30 -48)" onmousedown="handlePan(0,1)">
                  <use xlink:href="#rim" fill="#404040">
                        <set attributeName="fill" to="#808080" begin="arrowDown.mouseover" end="arrowDown.mouseout"/>
                  </use>
                  <path fill="none" stroke="white" stroke-width="1.5" d="M0,-3.0v7 M-2.5,-0.5L0,-3.0L2.5,-0.5"/>
                </g>
                <g id="arrowLeft" xlink:href="#dirArrow" transform="rotate(270) translate(-36 17)" onmousedown="handlePan(-1,0)">
                  <use xlink:href="#rim" fill="#404040">
                        <set attributeName="fill" to="#808080" begin="arrowLeft.mouseover" end="arrowLeft.mouseout"/>
                  </use>
                  <path fill="none" stroke="white" stroke-width="1.5" d="M0,-3.0v7 M-2.5,-0.5L0,-3.0L2.5,-0.5"/>
                </g>
        </g>
        <svg viewBox="0 0 15 15" width="100%" height="30px" preserveAspectRatio="xMaxYMin meet">
         <g id="arrow_out" transform="scale(0.3 0.3)">
          <a xlink:href="winsock2_8h__dep__incl_org.svg" target="_base">
           <rect id="button" ry="5" rx="5" y="6" x="6" height="38" width="38"
                fill="#f2f5e9" fill-opacity="0.5" stroke="#606060" stroke-width="1.0"/>
           <path id="arrow"
             d="M 11.500037,31.436501 C 11.940474,20.09759 22.043105,11.32322 32.158766,21.979434 L 37.068811,17.246167 C 37.068811,17.246167 37.088388,32 37.088388,32 L 22.160133,31.978069 C 22.160133,31.978069 26.997745,27.140456 26.997745,27.140456 C 18.528582,18.264221 13.291696,25.230495 11.500037,31.436501 z"
             style="fill:#404040;"/>
          </a>
         </g>
        </svg>
</svg>
