<?xml version="1.0" encoding="UTF-8" standalone="no"?>
<!DOCTYPE svg PUBLIC "-//W3C//DTD SVG 1.1//EN"
 "http://www.w3.org/Graphics/SVG/1.1/DTD/svg11.dtd">
<!-- Generated by graphviz version 2.43.0 (0)
 -->
<!-- Title: Source/Engine/server/server.h Pages: 1 -->
<svg width="1086pt" height="106pt"
 viewBox="0.00 0.00 1086.00 106.00" xmlns="http://www.w3.org/2000/svg" xmlns:xlink="http://www.w3.org/1999/xlink">
<g id="graph0" class="graph" transform="scale(1 1) rotate(0) translate(4 102)">
<title>Source/Engine/server/server.h</title>
<!-- Node1 -->
<g id="node1" class="node">
<title>Node1</title>
<g id="a_node1"><a xlink:title=" ">
<polygon fill="#bfbfbf" stroke="black" points="479,-67.5 479,-97.5 598,-97.5 598,-67.5 479,-67.5"/>
<text text-anchor="start" x="487" y="-85.5" font-family="Helvetica,sans-Serif" font-size="10.00">Source/Engine/server</text>
<text text-anchor="middle" x="538.5" y="-74.5" font-family="Helvetica,sans-Serif" font-size="10.00">/server.h</text>
</a>
</g>
</g>
<!-- Node2 -->
<g id="node2" class="node">
<title>Node2</title>
<g id="a_node2"><a xlink:href="../../d6/df0/sv__ccmds_8c.html" target="_top" xlink:title=" ">
<polygon fill="none" stroke="black" points="0,-0.5 0,-30.5 119,-30.5 119,-0.5 0,-0.5"/>
<text text-anchor="start" x="8" y="-18.5" font-family="Helvetica,sans-Serif" font-size="10.00">Source/Engine/server</text>
<text text-anchor="middle" x="59.5" y="-7.5" font-family="Helvetica,sans-Serif" font-size="10.00">/sv_ccmds.c</text>
</a>
</g>
</g>
<!-- Node1&#45;&gt;Node2 -->
<g id="edge1" class="edge">
<title>Node1&#45;&gt;Node2</title>
<path fill="none" stroke="midnightblue" d="M468.51,-74.79C386.5,-66.49 246.66,-50.98 127.5,-31 124.76,-30.54 121.97,-30.05 119.15,-29.53"/>
<polygon fill="midnightblue" stroke="midnightblue" points="468.41,-78.3 478.71,-75.82 469.11,-71.33 468.41,-78.3"/>
</g>
<!-- Node3 -->
<g id="node3" class="node">
<title>Node3</title>
<g id="a_node3"><a xlink:href="../../db/d01/sv__client_8c.html" target="_top" xlink:title=" ">
<polygon fill="none" stroke="black" points="137,-0.5 137,-30.5 256,-30.5 256,-0.5 137,-0.5"/>
<text text-anchor="start" x="145" y="-18.5" font-family="Helvetica,sans-Serif" font-size="10.00">Source/Engine/server</text>
<text text-anchor="middle" x="196.5" y="-7.5" font-family="Helvetica,sans-Serif" font-size="10.00">/sv_client.c</text>
</a>
</g>
</g>
<!-- Node1&#45;&gt;Node3 -->
<g id="edge2" class="edge">
<title>Node1&#45;&gt;Node3</title>
<path fill="none" stroke="midnightblue" d="M468.75,-69.2C413.31,-59.29 333.84,-44.78 264.5,-31 261.78,-30.46 258.99,-29.9 256.18,-29.33"/>
<polygon fill="midnightblue" stroke="midnightblue" points="468.35,-72.68 478.81,-70.99 469.58,-65.79 468.35,-72.68"/>
</g>
<!-- Node4 -->
<g id="node4" class="node">
<title>Node4</title>
<g id="a_node4"><a xlink:href="../../d7/d3c/sv__game_8c.html" target="_top" xlink:title=" ">
<polygon fill="none" stroke="black" points="274,-0.5 274,-30.5 393,-30.5 393,-0.5 274,-0.5"/>
<text text-anchor="start" x="282" y="-18.5" font-family="Helvetica,sans-Serif" font-size="10.00">Source/Engine/server</text>
<text text-anchor="middle" x="333.5" y="-7.5" font-family="Helvetica,sans-Serif" font-size="10.00">/sv_game.c</text>
</a>
</g>
</g>
<!-- Node1&#45;&gt;Node4 -->
<g id="edge3" class="edge">
<title>Node1&#45;&gt;Node4</title>
<path fill="none" stroke="midnightblue" d="M484.71,-64.44C451.48,-53.91 409.35,-40.55 378,-30.61"/>
<polygon fill="midnightblue" stroke="midnightblue" points="483.68,-67.79 494.27,-67.48 485.8,-61.12 483.68,-67.79"/>
</g>
<!-- Node5 -->
<g id="node5" class="node">
<title>Node5</title>
<g id="a_node5"><a xlink:href="../../d5/d49/sv__init_8c.html" target="_top" xlink:title=" ">
<polygon fill="none" stroke="black" points="411,-0.5 411,-30.5 530,-30.5 530,-0.5 411,-0.5"/>
<text text-anchor="start" x="419" y="-18.5" font-family="Helvetica,sans-Serif" font-size="10.00">Source/Engine/server</text>
<text text-anchor="middle" x="470.5" y="-7.5" font-family="Helvetica,sans-Serif" font-size="10.00">/sv_init.c</text>
</a>
</g>
</g>
<!-- Node1&#45;&gt;Node5 -->
<g id="edge4" class="edge">
<title>Node1&#45;&gt;Node5</title>
<path fill="none" stroke="midnightblue" d="M516.33,-60.31C506.13,-50.56 494.31,-39.26 485.23,-30.58"/>
<polygon fill="midnightblue" stroke="midnightblue" points="514.1,-63.02 523.75,-67.4 518.93,-57.96 514.1,-63.02"/>
</g>
<!-- Node6 -->
<g id="node6" class="node">
<title>Node6</title>
<g id="a_node6"><a xlink:href="../../da/d74/sv__main_8c.html" target="_top" xlink:title=" ">
<polygon fill="none" stroke="black" points="548,-0.5 548,-30.5 667,-30.5 667,-0.5 548,-0.5"/>
<text text-anchor="start" x="556" y="-18.5" font-family="Helvetica,sans-Serif" font-size="10.00">Source/Engine/server</text>
<text text-anchor="middle" x="607.5" y="-7.5" font-family="Helvetica,sans-Serif" font-size="10.00">/sv_main.c</text>
</a>
</g>
</g>
<!-- Node1&#45;&gt;Node6 -->
<g id="edge5" class="edge">
<title>Node1&#45;&gt;Node6</title>
<path fill="none" stroke="midnightblue" d="M560.99,-60.31C571.34,-50.56 583.34,-39.26 592.56,-30.58"/>
<polygon fill="midnightblue" stroke="midnightblue" points="558.35,-57.99 553.47,-67.4 563.15,-63.09 558.35,-57.99"/>
</g>
<!-- Node7 -->
<g id="node7" class="node">
<title>Node7</title>
<g id="a_node7"><a xlink:href="../../df/d6f/sv__net__chan_8c.html" target="_top" xlink:title=" ">
<polygon fill="none" stroke="black" points="685,-0.5 685,-30.5 804,-30.5 804,-0.5 685,-0.5"/>
<text text-anchor="start" x="693" y="-18.5" font-family="Helvetica,sans-Serif" font-size="10.00">Source/Engine/server</text>
<text text-anchor="middle" x="744.5" y="-7.5" font-family="Helvetica,sans-Serif" font-size="10.00">/sv_net_chan.c</text>
</a>
</g>
</g>
<!-- Node1&#45;&gt;Node7 -->
<g id="edge6" class="edge">
<title>Node1&#45;&gt;Node7</title>
<path fill="none" stroke="midnightblue" d="M592.55,-64.44C625.95,-53.91 668.28,-40.55 699.78,-30.61"/>
<polygon fill="midnightblue" stroke="midnightblue" points="591.43,-61.13 582.95,-67.48 593.54,-67.8 591.43,-61.13"/>
</g>
<!-- Node8 -->
<g id="node8" class="node">
<title>Node8</title>
<g id="a_node8"><a xlink:href="../../d3/da3/sv__snapshot_8c.html" target="_top" xlink:title=" ">
<polygon fill="none" stroke="black" points="822,-0.5 822,-30.5 941,-30.5 941,-0.5 822,-0.5"/>
<text text-anchor="start" x="830" y="-18.5" font-family="Helvetica,sans-Serif" font-size="10.00">Source/Engine/server</text>
<text text-anchor="middle" x="881.5" y="-7.5" font-family="Helvetica,sans-Serif" font-size="10.00">/sv_snapshot.c</text>
</a>
</g>
</g>
<!-- Node1&#45;&gt;Node8 -->
<g id="edge7" class="edge">
<title>Node1&#45;&gt;Node8</title>
<path fill="none" stroke="midnightblue" d="M608.24,-69.26C663.89,-59.35 743.8,-44.83 813.5,-31 816.22,-30.46 819.01,-29.9 821.82,-29.33"/>
<polygon fill="midnightblue" stroke="midnightblue" points="607.37,-65.86 598.14,-71.05 608.6,-72.75 607.37,-65.86"/>
</g>
<!-- Node9 -->
<g id="node9" class="node">
<title>Node9</title>
<g id="a_node9"><a xlink:href="../../d0/d1b/sv__world_8c.html" target="_top" xlink:title=" ">
<polygon fill="none" stroke="black" points="959,-0.5 959,-30.5 1078,-30.5 1078,-0.5 959,-0.5"/>
<text text-anchor="start" x="967" y="-18.5" font-family="Helvetica,sans-Serif" font-size="10.00">Source/Engine/server</text>
<text text-anchor="middle" x="1018.5" y="-7.5" font-family="Helvetica,sans-Serif" font-size="10.00">/sv_world.c</text>
</a>
</g>
</g>
<!-- Node1&#45;&gt;Node9 -->
<g id="edge8" class="edge">
<title>Node1&#45;&gt;Node9</title>
<path fill="none" stroke="midnightblue" d="M608.06,-74.86C690.19,-66.59 830.76,-51.06 950.5,-31 953.24,-30.54 956.03,-30.05 958.85,-29.53"/>
<polygon fill="midnightblue" stroke="midnightblue" points="607.7,-71.38 598.1,-75.86 608.39,-78.35 607.7,-71.38"/>
</g>
</g>
</svg>
