<?xml version="1.0" encoding="UTF-8" standalone="no"?>
<!DOCTYPE svg PUBLIC "-//W3C//DTD SVG 1.1//EN"
 "http://www.w3.org/Graphics/SVG/1.1/DTD/svg11.dtd">
<!-- Generated by graphviz version 2.43.0 (0)
 -->
<!-- Title: tagDVD_PLAYBACK_LOCATION2 Pages: 1 -->
<svg width="489pt" height="95pt"
 viewBox="0.00 0.00 489.00 95.00" xmlns="http://www.w3.org/2000/svg" xmlns:xlink="http://www.w3.org/1999/xlink">
<g id="graph0" class="graph" transform="scale(1 1) rotate(0) translate(4 91)">
<title>tagDVD_PLAYBACK_LOCATION2</title>
<!-- Node1 -->
<g id="node1" class="node">
<title>Node1</title>
<g id="a_node1"><a xlink:title=" ">
<polygon fill="#bfbfbf" stroke="black" points="310,-39.5 310,-58.5 481,-58.5 481,-39.5 310,-39.5"/>
<text text-anchor="middle" x="395.5" y="-46.5" font-family="Helvetica,sans-Serif" font-size="10.00">tagDVD_PLAYBACK_LOCATION2</text>
</a>
</g>
</g>
<!-- Node2 -->
<g id="node2" class="node">
<title>Node2</title>
<g id="a_node2"><a xlink:title=" ">
<polygon fill="none" stroke="#bfbfbf" points="34.5,-67.5 34.5,-86.5 163.5,-86.5 163.5,-67.5 34.5,-67.5"/>
<text text-anchor="middle" x="99" y="-74.5" font-family="Helvetica,sans-Serif" font-size="10.00">DVD_HMSF_TIMECODE</text>
</a>
</g>
</g>
<!-- Node2&#45;&gt;Node1 -->
<g id="edge1" class="edge">
<title>Node2&#45;&gt;Node1</title>
<path fill="none" stroke="#9a32cd" stroke-dasharray="5,2" d="M173.55,-70.01C214.93,-66.07 266.77,-61.14 309.83,-57.05"/>
<polygon fill="#9a32cd" stroke="#9a32cd" points="173.16,-66.53 163.54,-70.96 173.83,-73.5 173.16,-66.53"/>
<text text-anchor="middle" x="254" y="-68" font-family="Helvetica,sans-Serif" font-size="10.00"> TimeCode</text>
</g>
<!-- Node3 -->
<g id="node3" class="node">
<title>Node3</title>
<g id="a_node3"><a xlink:title=" ">
<polygon fill="none" stroke="#bfbfbf" points="0,-0.5 0,-41.5 198,-41.5 198,-0.5 0,-0.5"/>
<text text-anchor="start" x="8" y="-29.5" font-family="Helvetica,sans-Serif" font-size="10.00">PSecurityUserData *typedef</text>
<text text-anchor="start" x="8" y="-18.5" font-family="Helvetica,sans-Serif" font-size="10.00"> PSECPKG_EXTENDED_INFORMATION</text>
<text text-anchor="middle" x="99" y="-7.5" font-family="Helvetica,sans-Serif" font-size="10.00"> *typedef</text>
</a>
</g>
</g>
<!-- Node3&#45;&gt;Node1 -->
<g id="edge2" class="edge">
<title>Node3&#45;&gt;Node1</title>
<path fill="none" stroke="#9a32cd" stroke-dasharray="5,2" d="M208.04,-15.96C235.52,-16.06 264.93,-17.37 292,-21 318.15,-24.51 347.06,-32.83 367.5,-39.5"/>
<polygon fill="#9a32cd" stroke="#9a32cd" points="208,-12.46 198.01,-15.98 208.02,-19.46 208,-12.46"/>
<text text-anchor="middle" x="254" y="-46" font-family="Helvetica,sans-Serif" font-size="10.00"> ChapterNum</text>
<text text-anchor="middle" x="254" y="-35" font-family="Helvetica,sans-Serif" font-size="10.00">TitleNum</text>
<text text-anchor="middle" x="254" y="-24" font-family="Helvetica,sans-Serif" font-size="10.00">TimeCodeFlags</text>
</g>
</g>
</svg>
