<?xml version="1.0" encoding="UTF-8" standalone="no"?>
<!DOCTYPE svg PUBLIC "-//W3C//DTD SVG 1.1//EN"
 "http://www.w3.org/Graphics/SVG/1.1/DTD/svg11.dtd">
<!-- Generated by graphviz version 2.43.0 (0)
 -->
<!-- Title: Source/Shared/ioapi.c Pages: 1 -->
<svg width="330pt" height="196pt"
 viewBox="0.00 0.00 330.00 196.00" xmlns="http://www.w3.org/2000/svg" xmlns:xlink="http://www.w3.org/1999/xlink">
<g id="graph0" class="graph" transform="scale(1 1) rotate(0) translate(4 192)">
<title>Source/Shared/ioapi.c</title>
<!-- Node1 -->
<g id="node1" class="node">
<title>Node1</title>
<g id="a_node1"><a xlink:title=" ">
<polygon fill="#bfbfbf" stroke="black" points="105,-168.5 105,-187.5 227,-187.5 227,-168.5 105,-168.5"/>
<text text-anchor="middle" x="166" y="-175.5" font-family="Helvetica,sans-Serif" font-size="10.00">Source/Shared/ioapi.c</text>
</a>
</g>
</g>
<!-- Node2 -->
<g id="node2" class="node">
<title>Node2</title>
<g id="a_node2"><a xlink:title=" ">
<polygon fill="none" stroke="#bfbfbf" points="0,-112.5 0,-131.5 50,-131.5 50,-112.5 0,-112.5"/>
<text text-anchor="middle" x="25" y="-119.5" font-family="Helvetica,sans-Serif" font-size="10.00">stdio.h</text>
</a>
</g>
</g>
<!-- Node1&#45;&gt;Node2 -->
<g id="edge1" class="edge">
<title>Node1&#45;&gt;Node2</title>
<path fill="none" stroke="midnightblue" d="M143.66,-168.44C120.25,-159.48 83.26,-145.31 56.81,-135.18"/>
<polygon fill="midnightblue" stroke="midnightblue" points="57.83,-131.82 47.24,-131.52 55.32,-138.36 57.83,-131.82"/>
</g>
<!-- Node3 -->
<g id="node3" class="node">
<title>Node3</title>
<g id="a_node3"><a xlink:title=" ">
<polygon fill="none" stroke="#bfbfbf" points="68.5,-112.5 68.5,-131.5 121.5,-131.5 121.5,-112.5 68.5,-112.5"/>
<text text-anchor="middle" x="95" y="-119.5" font-family="Helvetica,sans-Serif" font-size="10.00">stdlib.h</text>
</a>
</g>
</g>
<!-- Node1&#45;&gt;Node3 -->
<g id="edge2" class="edge">
<title>Node1&#45;&gt;Node3</title>
<path fill="none" stroke="midnightblue" d="M154.59,-168.32C143.89,-160.18 127.66,-147.84 114.84,-138.09"/>
<polygon fill="midnightblue" stroke="midnightblue" points="116.69,-135.1 106.61,-131.83 112.46,-140.67 116.69,-135.1"/>
</g>
<!-- Node4 -->
<g id="node4" class="node">
<title>Node4</title>
<g id="a_node4"><a xlink:title=" ">
<polygon fill="none" stroke="#bfbfbf" points="139.5,-112.5 139.5,-131.5 192.5,-131.5 192.5,-112.5 139.5,-112.5"/>
<text text-anchor="middle" x="166" y="-119.5" font-family="Helvetica,sans-Serif" font-size="10.00">string.h</text>
</a>
</g>
</g>
<!-- Node1&#45;&gt;Node4 -->
<g id="edge3" class="edge">
<title>Node1&#45;&gt;Node4</title>
<path fill="none" stroke="midnightblue" d="M166,-168.08C166,-161.01 166,-150.86 166,-141.99"/>
<polygon fill="midnightblue" stroke="midnightblue" points="169.5,-141.75 166,-131.75 162.5,-141.75 169.5,-141.75"/>
</g>
<!-- Node5 -->
<g id="node5" class="node">
<title>Node5</title>
<g id="a_node5"><a xlink:href="../../d4/dae/zlib_8h.html" target="_top" xlink:title=" ">
<polygon fill="none" stroke="black" points="210.5,-112.5 210.5,-131.5 253.5,-131.5 253.5,-112.5 210.5,-112.5"/>
<text text-anchor="middle" x="232" y="-119.5" font-family="Helvetica,sans-Serif" font-size="10.00">zlib.h</text>
</a>
</g>
</g>
<!-- Node1&#45;&gt;Node5 -->
<g id="edge4" class="edge">
<title>Node1&#45;&gt;Node5</title>
<path fill="none" stroke="midnightblue" d="M176.6,-168.32C186.46,-160.26 201.35,-148.08 213.22,-138.37"/>
<polygon fill="midnightblue" stroke="midnightblue" points="215.68,-140.88 221.2,-131.83 211.25,-135.46 215.68,-140.88"/>
</g>
<!-- Node9 -->
<g id="node9" class="node">
<title>Node9</title>
<g id="a_node9"><a xlink:href="../../d2/db7/ioapi_8h.html" target="_top" xlink:title=" ">
<polygon fill="none" stroke="black" points="272,-112.5 272,-131.5 322,-131.5 322,-112.5 272,-112.5"/>
<text text-anchor="middle" x="297" y="-119.5" font-family="Helvetica,sans-Serif" font-size="10.00">ioapi.h</text>
</a>
</g>
</g>
<!-- Node1&#45;&gt;Node9 -->
<g id="edge8" class="edge">
<title>Node1&#45;&gt;Node9</title>
<path fill="none" stroke="midnightblue" d="M186.76,-168.44C208.32,-159.56 242.26,-145.56 266.79,-135.45"/>
<polygon fill="midnightblue" stroke="midnightblue" points="268.43,-138.56 276.34,-131.52 265.76,-132.09 268.43,-138.56"/>
</g>
<!-- Node6 -->
<g id="node6" class="node">
<title>Node6</title>
<g id="a_node6"><a xlink:href="../../de/d95/zconf_8h.html" target="_top" xlink:title=" ">
<polygon fill="none" stroke="black" points="206.5,-56.5 206.5,-75.5 257.5,-75.5 257.5,-56.5 206.5,-56.5"/>
<text text-anchor="middle" x="232" y="-63.5" font-family="Helvetica,sans-Serif" font-size="10.00">zconf.h</text>
</a>
</g>
</g>
<!-- Node5&#45;&gt;Node6 -->
<g id="edge5" class="edge">
<title>Node5&#45;&gt;Node6</title>
<path fill="none" stroke="midnightblue" d="M232,-112.08C232,-105.01 232,-94.86 232,-85.99"/>
<polygon fill="midnightblue" stroke="midnightblue" points="235.5,-85.75 232,-75.75 228.5,-85.75 235.5,-85.75"/>
</g>
<!-- Node7 -->
<g id="node7" class="node">
<title>Node7</title>
<g id="a_node7"><a xlink:title=" ">
<polygon fill="none" stroke="#bfbfbf" points="155,-0.5 155,-19.5 227,-19.5 227,-0.5 155,-0.5"/>
<text text-anchor="middle" x="191" y="-7.5" font-family="Helvetica,sans-Serif" font-size="10.00">sys/types.h</text>
</a>
</g>
</g>
<!-- Node6&#45;&gt;Node7 -->
<g id="edge6" class="edge">
<title>Node6&#45;&gt;Node7</title>
<path fill="none" stroke="midnightblue" d="M225.23,-56.08C219.44,-48.46 210.94,-37.26 203.86,-27.94"/>
<polygon fill="midnightblue" stroke="midnightblue" points="206.48,-25.6 197.64,-19.75 200.9,-29.83 206.48,-25.6"/>
</g>
<!-- Node8 -->
<g id="node8" class="node">
<title>Node8</title>
<g id="a_node8"><a xlink:title=" ">
<polygon fill="none" stroke="#bfbfbf" points="245,-0.5 245,-19.5 301,-19.5 301,-0.5 245,-0.5"/>
<text text-anchor="middle" x="273" y="-7.5" font-family="Helvetica,sans-Serif" font-size="10.00">unistd.h</text>
</a>
</g>
</g>
<!-- Node6&#45;&gt;Node8 -->
<g id="edge7" class="edge">
<title>Node6&#45;&gt;Node8</title>
<path fill="none" stroke="midnightblue" d="M238.77,-56.08C244.56,-48.46 253.06,-37.26 260.14,-27.94"/>
<polygon fill="midnightblue" stroke="midnightblue" points="263.1,-29.83 266.36,-19.75 257.52,-25.6 263.1,-29.83"/>
</g>
</g>
</svg>
