<?xml version="1.0" encoding="UTF-8" standalone="no"?>
<!DOCTYPE svg PUBLIC "-//W3C//DTD SVG 1.1//EN"
 "http://www.w3.org/Graphics/SVG/1.1/DTD/svg11.dtd">
<!-- Generated by graphviz version 2.43.0 (0)
 -->
<!-- Title: cmodel_s Pages: 1 -->
<svg width="175pt" height="228pt"
 viewBox="0.00 0.00 175.00 228.00" xmlns="http://www.w3.org/2000/svg" xmlns:xlink="http://www.w3.org/1999/xlink">
<g id="graph0" class="graph" transform="scale(1 1) rotate(0) translate(4 224)">
<title>cmodel_s</title>
<!-- Node1 -->
<g id="node1" class="node">
<title>Node1</title>
<g id="a_node1"><a xlink:title=" ">
<polygon fill="#bfbfbf" stroke="black" points="16.5,-0.5 16.5,-19.5 79.5,-19.5 79.5,-0.5 16.5,-0.5"/>
<text text-anchor="middle" x="48" y="-7.5" font-family="Helvetica,sans-Serif" font-size="10.00">cmodel_s</text>
</a>
</g>
</g>
<!-- Node2 -->
<g id="node2" class="node">
<title>Node2</title>
<g id="a_node2"><a xlink:href="../../d4/dc3/classfloat.html" target="_top" xlink:title=" ">
<polygon fill="none" stroke="black" points="0,-78.5 0,-97.5 38,-97.5 38,-78.5 0,-78.5"/>
<text text-anchor="middle" x="19" y="-85.5" font-family="Helvetica,sans-Serif" font-size="10.00">float</text>
</a>
</g>
</g>
<!-- Node2&#45;&gt;Node1 -->
<g id="edge1" class="edge">
<title>Node2&#45;&gt;Node1</title>
<path fill="none" stroke="#9a32cd" stroke-dasharray="5,2" d="M18.24,-68.03C18.53,-58.64 19.89,-47.35 24,-38 27.03,-31.11 32.49,-24.75 37.44,-19.93"/>
<polygon fill="#9a32cd" stroke="#9a32cd" points="14.74,-68.3 18.32,-78.27 21.74,-68.25 14.74,-68.3"/>
<text text-anchor="middle" x="39.5" y="-52" font-family="Helvetica,sans-Serif" font-size="10.00"> maxs</text>
<text text-anchor="middle" x="39.5" y="-41" font-family="Helvetica,sans-Serif" font-size="10.00">mins</text>
</g>
<!-- Node3 -->
<g id="node3" class="node">
<title>Node3</title>
<g id="a_node3"><a xlink:href="../../df/d40/structcLeaf__t.html" target="_top" xlink:title=" ">
<polygon fill="none" stroke="black" points="56,-78.5 56,-97.5 108,-97.5 108,-78.5 56,-78.5"/>
<text text-anchor="middle" x="82" y="-85.5" font-family="Helvetica,sans-Serif" font-size="10.00">cLeaf_t</text>
</a>
</g>
</g>
<!-- Node3&#45;&gt;Node1 -->
<g id="edge2" class="edge">
<title>Node3&#45;&gt;Node1</title>
<path fill="none" stroke="#9a32cd" stroke-dasharray="5,2" d="M74,-69.12C67.03,-53.53 57.21,-31.59 51.85,-19.62"/>
<polygon fill="#9a32cd" stroke="#9a32cd" points="70.82,-70.58 78.1,-78.28 77.21,-67.72 70.82,-70.58"/>
<text text-anchor="middle" x="80" y="-46.5" font-family="Helvetica,sans-Serif" font-size="10.00"> leaf</text>
</g>
<!-- Node4 -->
<g id="node4" class="node">
<title>Node4</title>
<g id="a_node4"><a xlink:title=" ">
<polygon fill="none" stroke="#bfbfbf" points="67.5,-200.5 67.5,-219.5 96.5,-219.5 96.5,-200.5 67.5,-200.5"/>
<text text-anchor="middle" x="82" y="-207.5" font-family="Helvetica,sans-Serif" font-size="10.00">int</text>
</a>
</g>
</g>
<!-- Node4&#45;&gt;Node3 -->
<g id="edge3" class="edge">
<title>Node4&#45;&gt;Node3</title>
<path fill="none" stroke="#9a32cd" stroke-dasharray="5,2" d="M82,-190.15C82,-163.72 82,-116.76 82,-97.55"/>
<polygon fill="#9a32cd" stroke="#9a32cd" points="78.5,-190.37 82,-200.37 85.5,-190.37 78.5,-190.37"/>
<text text-anchor="middle" x="124.5" y="-174" font-family="Helvetica,sans-Serif" font-size="10.00"> numLeafBrushes</text>
<text text-anchor="middle" x="124.5" y="-163" font-family="Helvetica,sans-Serif" font-size="10.00">numLeafSurfaces</text>
<text text-anchor="middle" x="124.5" y="-152" font-family="Helvetica,sans-Serif" font-size="10.00">firstLeafSurface</text>
<text text-anchor="middle" x="124.5" y="-141" font-family="Helvetica,sans-Serif" font-size="10.00">firstLeafBrush</text>
<text text-anchor="middle" x="124.5" y="-130" font-family="Helvetica,sans-Serif" font-size="10.00">cluster</text>
<text text-anchor="middle" x="124.5" y="-119" font-family="Helvetica,sans-Serif" font-size="10.00">area</text>
</g>
</g>
</svg>
