<?xml version="1.0" encoding="UTF-8" standalone="no"?>
<!DOCTYPE svg PUBLIC "-//W3C//DTD SVG 1.1//EN"
 "http://www.w3.org/Graphics/SVG/1.1/DTD/svg11.dtd">
<!-- Generated by graphviz version 2.43.0 (0)
 -->
<!-- Title: tagINPUT Pages: 1 -->
<svg width="564pt" height="95pt"
 viewBox="0.00 0.00 564.00 95.00" xmlns="http://www.w3.org/2000/svg" xmlns:xlink="http://www.w3.org/1999/xlink">
<g id="graph0" class="graph" transform="scale(1 1) rotate(0) translate(4 91)">
<title>tagINPUT</title>
<!-- Node1 -->
<g id="node1" class="node">
<title>Node1</title>
<g id="a_node1"><a xlink:title=" ">
<polygon fill="#bfbfbf" stroke="black" points="327,-0.5 327,-19.5 389,-19.5 389,-0.5 327,-0.5"/>
<text text-anchor="middle" x="358" y="-7.5" font-family="Helvetica,sans-Serif" font-size="10.00">tagINPUT</text>
</a>
</g>
</g>
<!-- Node2 -->
<g id="node2" class="node">
<title>Node2</title>
<g id="a_node2"><a xlink:title=" ">
<polygon fill="none" stroke="#bfbfbf" points="0,-67.5 0,-86.5 178,-86.5 178,-67.5 0,-67.5"/>
<text text-anchor="middle" x="89" y="-74.5" font-family="Helvetica,sans-Serif" font-size="10.00">anonymous:DUMMYUNIONNAME</text>
</a>
</g>
</g>
<!-- Node2&#45;&gt;Node1 -->
<g id="edge1" class="edge">
<title>Node2&#45;&gt;Node1</title>
<path fill="none" stroke="#9a32cd" stroke-dasharray="5,2" d="M117.18,-63.37C136.71,-55.07 163.51,-44.57 188,-38 235.63,-25.23 292.48,-17.7 326.88,-13.97"/>
<polygon fill="#9a32cd" stroke="#9a32cd" points="115.75,-60.18 107.95,-67.36 118.52,-66.6 115.75,-60.18"/>
<text text-anchor="middle" x="240.5" y="-41" font-family="Helvetica,sans-Serif" font-size="10.00"> DUMMYUNIONNAME</text>
</g>
<!-- Node3 -->
<g id="node3" class="node">
<title>Node3</title>
<g id="a_node3"><a xlink:title=" ">
<polygon fill="none" stroke="#bfbfbf" points="196,-67.5 196,-86.5 300,-86.5 300,-67.5 196,-67.5"/>
<text text-anchor="middle" x="248" y="-74.5" font-family="Helvetica,sans-Serif" font-size="10.00">HARDWAREINPUT</text>
</a>
</g>
</g>
<!-- Node3&#45;&gt;Node1 -->
<g id="edge2" class="edge">
<title>Node3&#45;&gt;Node1</title>
<path fill="none" stroke="#9a32cd" stroke-dasharray="5,2" d="M271.5,-62.12C293.29,-49.24 325.04,-30.48 343.4,-19.63"/>
<polygon fill="#9a32cd" stroke="#9a32cd" points="269.66,-59.13 262.84,-67.23 273.22,-65.16 269.66,-59.13"/>
<text text-anchor="middle" x="315.5" y="-41" font-family="Helvetica,sans-Serif" font-size="10.00"> hi</text>
</g>
<!-- Node4 -->
<g id="node4" class="node">
<title>Node4</title>
<g id="a_node4"><a xlink:title=" ">
<polygon fill="none" stroke="#bfbfbf" points="318,-67.5 318,-86.5 398,-86.5 398,-67.5 318,-67.5"/>
<text text-anchor="middle" x="358" y="-74.5" font-family="Helvetica,sans-Serif" font-size="10.00">KEYBDINPUT</text>
</a>
</g>
</g>
<!-- Node4&#45;&gt;Node1 -->
<g id="edge3" class="edge">
<title>Node4&#45;&gt;Node1</title>
<path fill="none" stroke="#9a32cd" stroke-dasharray="5,2" d="M358,-57.04C358,-44.67 358,-29.12 358,-19.63"/>
<polygon fill="#9a32cd" stroke="#9a32cd" points="354.5,-57.23 358,-67.23 361.5,-57.23 354.5,-57.23"/>
<text text-anchor="middle" x="364.5" y="-41" font-family="Helvetica,sans-Serif" font-size="10.00"> ki</text>
</g>
<!-- Node5 -->
<g id="node5" class="node">
<title>Node5</title>
<g id="a_node5"><a xlink:title=" ">
<polygon fill="none" stroke="#bfbfbf" points="416.5,-67.5 416.5,-86.5 499.5,-86.5 499.5,-67.5 416.5,-67.5"/>
<text text-anchor="middle" x="458" y="-74.5" font-family="Helvetica,sans-Serif" font-size="10.00">MOUSEINPUT</text>
</a>
</g>
</g>
<!-- Node5&#45;&gt;Node1 -->
<g id="edge4" class="edge">
<title>Node5&#45;&gt;Node1</title>
<path fill="none" stroke="#9a32cd" stroke-dasharray="5,2" d="M436.11,-61.77C416.31,-48.9 387.81,-30.38 371.27,-19.63"/>
<polygon fill="#9a32cd" stroke="#9a32cd" points="434.22,-64.72 444.51,-67.23 438.04,-58.85 434.22,-64.72"/>
<text text-anchor="middle" x="421" y="-41" font-family="Helvetica,sans-Serif" font-size="10.00"> mi</text>
</g>
<!-- Node6 -->
<g id="node6" class="node">
<title>Node6</title>
<g id="a_node6"><a xlink:title=" ">
<polygon fill="none" stroke="#bfbfbf" points="518,-67.5 518,-86.5 556,-86.5 556,-67.5 518,-67.5"/>
<text text-anchor="middle" x="537" y="-74.5" font-family="Helvetica,sans-Serif" font-size="10.00">long</text>
</a>
</g>
</g>
<!-- Node6&#45;&gt;Node1 -->
<g id="edge5" class="edge">
<title>Node6&#45;&gt;Node1</title>
<path fill="none" stroke="#9a32cd" stroke-dasharray="5,2" d="M508.29,-65.47C487.42,-57.82 458.47,-47.24 433,-38 415.96,-31.82 396.72,-24.89 381.99,-19.6"/>
<polygon fill="#9a32cd" stroke="#9a32cd" points="507.25,-68.81 517.84,-68.97 509.66,-62.24 507.25,-68.81"/>
<text text-anchor="middle" x="473.5" y="-41" font-family="Helvetica,sans-Serif" font-size="10.00"> type</text>
</g>
</g>
</svg>
