<?xml version="1.0" encoding="UTF-8" standalone="no"?>
<!DOCTYPE svg PUBLIC "-//W3C//DTD SVG 1.1//EN"
 "http://www.w3.org/Graphics/SVG/1.1/DTD/svg11.dtd">
<!-- Generated by graphviz version 2.43.0 (0)
 -->
<!-- Title: Source/Engine/sys Pages: 1 -->
<svg width="150pt" height="151pt"
 viewBox="0.00 0.00 150.00 151.00" xmlns="http://www.w3.org/2000/svg" xmlns:xlink="http://www.w3.org/1999/xlink">
<g id="graph0" class="graph" transform="scale(1 1) rotate(0) translate(4 147)">
<title>Source/Engine/sys</title>
<g id="clust1" class="cluster">
<title>clusterdir_5405398c23c020946029b9f4e6e04094</title>
<g id="a_clust1"><a xlink:href="dir_5405398c23c020946029b9f4e6e04094.html" target="_top" xlink:title="Engine">
<polygon fill="#ddddee" stroke="black" points="64,-64 64,-135 134,-135 134,-64 64,-64"/>
<text text-anchor="middle" x="99" y="-123" font-family="Helvetica,sans-Serif" font-size="10.00">Engine</text>
</a>
</g>
</g>
<!-- dir_a8c501694aecae8b345015ac2aff9cc6 -->
<g id="node1" class="node">
<title>dir_a8c501694aecae8b345015ac2aff9cc6</title>
<g id="a_node1"><a xlink:href="dir_a8c501694aecae8b345015ac2aff9cc6.html" target="_top" xlink:title="sys">
<polygon fill="#eeeeff" stroke="black" points="126,-108 72,-108 72,-72 126,-72 126,-108"/>
<text text-anchor="middle" x="99" y="-87.5" font-family="Helvetica,sans-Serif" font-size="10.00">sys</text>
</a>
</g>
</g>
<!-- dir_029e54de912e6402e7ca9925aa09d11f -->
<g id="node2" class="node">
<title>dir_029e54de912e6402e7ca9925aa09d11f</title>
<g id="a_node2"><a xlink:href="dir_029e54de912e6402e7ca9925aa09d11f.html" target="_top" xlink:title="Shared">
<polygon fill="none" stroke="black" points="54,-36 0,-36 0,0 54,0 54,-36"/>
<text text-anchor="middle" x="27" y="-15.5" font-family="Helvetica,sans-Serif" font-size="10.00">Shared</text>
</a>
</g>
</g>
<!-- dir_a8c501694aecae8b345015ac2aff9cc6&#45;&gt;dir_029e54de912e6402e7ca9925aa09d11f -->
<g id="edge3" class="edge">
<title>dir_a8c501694aecae8b345015ac2aff9cc6&#45;&gt;dir_029e54de912e6402e7ca9925aa09d11f</title>
<path fill="none" stroke="black" d="M81.2,-71.7C72.4,-63.14 61.62,-52.66 52,-43.3"/>
<polygon fill="black" stroke="black" points="54.2,-40.57 44.59,-36.1 49.32,-45.58 54.2,-40.57"/>
<g id="a_edge3&#45;headlabel"><a xlink:href="dir_000026_000037.html" target="_top" xlink:title="16">
<text text-anchor="middle" x="58.76" y="-38.54" font-family="Helvetica,sans-Serif" font-size="10.00">16</text>
</a>
</g>
</g>
<!-- dir_782c5a1a039bae032373d3b24d396f0e -->
<g id="node3" class="node">
<title>dir_782c5a1a039bae032373d3b24d396f0e</title>
<g id="a_node3"><a xlink:href="dir_782c5a1a039bae032373d3b24d396f0e.html" target="_top" xlink:title="SDL12">
<polygon fill="none" stroke="red" points="126,-36 72,-36 72,0 126,0 126,-36"/>
<text text-anchor="middle" x="99" y="-15.5" font-family="Helvetica,sans-Serif" font-size="10.00">SDL12</text>
</a>
</g>
</g>
<!-- dir_a8c501694aecae8b345015ac2aff9cc6&#45;&gt;dir_782c5a1a039bae032373d3b24d396f0e -->
<g id="edge4" class="edge">
<title>dir_a8c501694aecae8b345015ac2aff9cc6&#45;&gt;dir_782c5a1a039bae032373d3b24d396f0e</title>
<path fill="none" stroke="black" d="M99,-71.7C99,-63.98 99,-54.71 99,-46.11"/>
<polygon fill="black" stroke="black" points="102.5,-46.1 99,-36.1 95.5,-46.1 102.5,-46.1"/>
<g id="a_edge4&#45;headlabel"><a xlink:href="dir_000026_000023.html" target="_top" xlink:title="4">
<text text-anchor="middle" x="105.34" y="-47.2" font-family="Helvetica,sans-Serif" font-size="10.00">4</text>
</a>
</g>
</g>
<!-- dir_e0886113035fe778c78992576d203603 -->
<g id="node4" class="node">
<title>dir_e0886113035fe778c78992576d203603</title>
<g id="a_node4"><a xlink:href="dir_e0886113035fe778c78992576d203603.html" target="_top" xlink:title="client">
<polygon fill="none" stroke="black" points="54,-108 0,-108 0,-72 54,-72 54,-108"/>
<text text-anchor="middle" x="27" y="-87.5" font-family="Helvetica,sans-Serif" font-size="10.00">client</text>
</a>
</g>
</g>
<!-- dir_a8c501694aecae8b345015ac2aff9cc6&#45;&gt;dir_e0886113035fe778c78992576d203603 -->
<g id="edge5" class="edge">
<title>dir_a8c501694aecae8b345015ac2aff9cc6&#45;&gt;dir_e0886113035fe778c78992576d203603</title>
<path fill="none" stroke="black" d="M71.75,-90C69.29,-90 66.84,-90 64.38,-90"/>
<polygon fill="black" stroke="black" points="64.28,-86.5 54.28,-90 64.28,-93.5 64.28,-86.5"/>
<g id="a_edge5&#45;headlabel"><a xlink:href="dir_000026_000004.html" target="_top" xlink:title="1">
<text text-anchor="middle" x="67.88" y="-81.16" font-family="Helvetica,sans-Serif" font-size="10.00">1</text>
</a>
</g>
</g>
<!-- dir_e0886113035fe778c78992576d203603&#45;&gt;dir_a8c501694aecae8b345015ac2aff9cc6 -->
<g id="edge2" class="edge">
<title>dir_e0886113035fe778c78992576d203603&#45;&gt;dir_a8c501694aecae8b345015ac2aff9cc6</title>
<path fill="none" stroke="black" d="M54.28,-90C56.74,-90 59.19,-90 61.65,-90"/>
<polygon fill="black" stroke="black" points="61.75,-93.5 71.75,-90 61.75,-86.5 61.75,-93.5"/>
<g id="a_edge2&#45;headlabel"><a xlink:href="dir_000004_000026.html" target="_top" xlink:title="2">
<text text-anchor="middle" x="58.15" y="-93.84" font-family="Helvetica,sans-Serif" font-size="10.00">2</text>
</a>
</g>
</g>
<!-- dir_e0886113035fe778c78992576d203603&#45;&gt;dir_029e54de912e6402e7ca9925aa09d11f -->
<g id="edge1" class="edge">
<title>dir_e0886113035fe778c78992576d203603&#45;&gt;dir_029e54de912e6402e7ca9925aa09d11f</title>
<path fill="none" stroke="black" d="M27,-71.7C27,-63.98 27,-54.71 27,-46.11"/>
<polygon fill="black" stroke="black" points="30.5,-46.1 27,-36.1 23.5,-46.1 30.5,-46.1"/>
<g id="a_edge1&#45;headlabel"><a xlink:href="dir_000004_000037.html" target="_top" xlink:title="12">
<text text-anchor="middle" x="33.34" y="-47.2" font-family="Helvetica,sans-Serif" font-size="10.00">12</text>
</a>
</g>
</g>
</g>
</svg>
