<?xml version="1.0" encoding="UTF-8" standalone="no"?>
<!DOCTYPE svg PUBLIC "-//W3C//DTD SVG 1.1//EN"
 "http://www.w3.org/Graphics/SVG/1.1/DTD/svg11.dtd">
<!-- Generated by graphviz version 2.43.0 (0)
 -->
<!-- Title: Source/Game Pages: 1 -->
<svg width="256pt" height="303pt"
 viewBox="0.00 0.00 256.50 303.00" xmlns="http://www.w3.org/2000/svg" xmlns:xlink="http://www.w3.org/1999/xlink">
<g id="graph0" class="graph" transform="scale(1 1) rotate(0) translate(4 299)">
<title>Source/Game</title>
<g id="clust1" class="cluster">
<title>clusterdir_74389ed8173ad57b461b9d623a1f3867</title>
<g id="a_clust1"><a xlink:href="dir_74389ed8173ad57b461b9d623a1f3867.html" target="_top" xlink:title="Source">
<polygon fill="#ddddee" stroke="black" points="8,-56 8,-287 166,-287 166,-56 8,-56"/>
<text text-anchor="middle" x="87" y="-275" font-family="Helvetica,sans-Serif" font-size="10.00">Source</text>
</a>
</g>
</g>
<g id="clust2" class="cluster">
<title>clusterdir_3777292849a1481e53303ca2af78ff89</title>
<g id="a_clust2"><a xlink:href="dir_3777292849a1481e53303ca2af78ff89.html" target="_top">
<polygon fill="#eeeeff" stroke="black" points="16,-64 16,-260 158,-260 158,-64 16,-64"/>
</a>
</g>
</g>
<!-- dir_3777292849a1481e53303ca2af78ff89 -->
<g id="node1" class="node">
<title>dir_3777292849a1481e53303ca2af78ff89</title>
<text text-anchor="middle" x="123" y="-231.5" font-family="Helvetica,sans-Serif" font-size="10.00">Game</text>
</g>
<!-- dir_0c066f7b744f4e22eb15b267f3daadd2 -->
<g id="node2" class="node">
<title>dir_0c066f7b744f4e22eb15b267f3daadd2</title>
<g id="a_node2"><a xlink:href="dir_0c066f7b744f4e22eb15b267f3daadd2.html" target="_top" xlink:title="CGame">
<polygon fill="white" stroke="black" points="78,-252 24,-252 24,-216 78,-216 78,-252"/>
<text text-anchor="middle" x="51" y="-231.5" font-family="Helvetica,sans-Serif" font-size="10.00">CGame</text>
</a>
</g>
</g>
<!-- dir_1e6a22d8e928d3bb9eb703c3e13f4167 -->
<g id="node3" class="node">
<title>dir_1e6a22d8e928d3bb9eb703c3e13f4167</title>
<g id="a_node3"><a xlink:href="dir_1e6a22d8e928d3bb9eb703c3e13f4167.html" target="_top" xlink:title="Game">
<polygon fill="white" stroke="black" points="104,-180 50,-180 50,-144 104,-144 104,-180"/>
<text text-anchor="middle" x="77" y="-159.5" font-family="Helvetica,sans-Serif" font-size="10.00">Game</text>
</a>
</g>
</g>
<!-- dir_0c066f7b744f4e22eb15b267f3daadd2&#45;&gt;dir_1e6a22d8e928d3bb9eb703c3e13f4167 -->
<g id="edge1" class="edge">
<title>dir_0c066f7b744f4e22eb15b267f3daadd2&#45;&gt;dir_1e6a22d8e928d3bb9eb703c3e13f4167</title>
<path fill="none" stroke="black" d="M57.43,-215.7C60.36,-207.81 63.89,-198.3 67.14,-189.55"/>
<polygon fill="black" stroke="black" points="70.45,-190.7 70.65,-180.1 63.88,-188.26 70.45,-190.7"/>
<g id="a_edge1&#45;headlabel"><a xlink:href="dir_000066_000068.html" target="_top" xlink:title="3">
<text text-anchor="middle" x="71.86" y="-192.56" font-family="Helvetica,sans-Serif" font-size="10.00">3</text>
</a>
</g>
</g>
<!-- dir_3fdf0a3096c063d7026a77b0671575e8 -->
<g id="node4" class="node">
<title>dir_3fdf0a3096c063d7026a77b0671575e8</title>
<g id="a_node4"><a xlink:href="dir_3fdf0a3096c063d7026a77b0671575e8.html" target="_top" xlink:title="UI">
<polygon fill="white" stroke="red" points="150,-108 96,-108 96,-72 150,-72 150,-108"/>
<text text-anchor="middle" x="123" y="-87.5" font-family="Helvetica,sans-Serif" font-size="10.00">UI</text>
</a>
</g>
</g>
<!-- dir_0c066f7b744f4e22eb15b267f3daadd2&#45;&gt;dir_3fdf0a3096c063d7026a77b0671575e8 -->
<g id="edge2" class="edge">
<title>dir_0c066f7b744f4e22eb15b267f3daadd2&#45;&gt;dir_3fdf0a3096c063d7026a77b0671575e8</title>
<path fill="none" stroke="black" d="M78.16,-216.73C90.92,-207.6 105.04,-195.01 113,-180 123.05,-161.05 125.17,-136.69 124.99,-118.24"/>
<polygon fill="black" stroke="black" points="128.49,-118.03 124.66,-108.15 121.49,-118.26 128.49,-118.03"/>
<g id="a_edge2&#45;headlabel"><a xlink:href="dir_000066_000071.html" target="_top" xlink:title="2">
<text text-anchor="middle" x="131.44" y="-119.03" font-family="Helvetica,sans-Serif" font-size="10.00">2</text>
</a>
</g>
</g>
<!-- dir_029e54de912e6402e7ca9925aa09d11f -->
<g id="node5" class="node">
<title>dir_029e54de912e6402e7ca9925aa09d11f</title>
<g id="a_node5"><a xlink:href="dir_029e54de912e6402e7ca9925aa09d11f.html" target="_top" xlink:title="Shared">
<polygon fill="none" stroke="black" points="185,-36 131,-36 131,0 185,0 185,-36"/>
<text text-anchor="middle" x="158" y="-15.5" font-family="Helvetica,sans-Serif" font-size="10.00">Shared</text>
</a>
</g>
</g>
<!-- dir_0c066f7b744f4e22eb15b267f3daadd2&#45;&gt;dir_029e54de912e6402e7ca9925aa09d11f -->
<g id="edge3" class="edge">
<title>dir_0c066f7b744f4e22eb15b267f3daadd2&#45;&gt;dir_029e54de912e6402e7ca9925aa09d11f</title>
<path fill="none" stroke="black" d="M78.27,-219.41C81.19,-218.17 84.13,-217.01 87,-216 151.67,-193.24 194.55,-233.84 237,-180 271.14,-136.7 220.23,-76.25 185.61,-43.11"/>
<polygon fill="black" stroke="black" points="187.78,-40.34 178.08,-36.08 183,-45.46 187.78,-40.34"/>
<g id="a_edge3&#45;headlabel"><a xlink:href="dir_000066_000074.html" target="_top" xlink:title="2">
<text text-anchor="middle" x="192.34" y="-38.22" font-family="Helvetica,sans-Serif" font-size="10.00">2</text>
</a>
</g>
</g>
<!-- dir_5405398c23c020946029b9f4e6e04094 -->
<g id="node6" class="node">
<title>dir_5405398c23c020946029b9f4e6e04094</title>
<g id="a_node6"><a xlink:href="dir_5405398c23c020946029b9f4e6e04094.html" target="_top" xlink:title="Engine">
<polygon fill="none" stroke="red" points="228,-180 174,-180 174,-144 228,-144 228,-180"/>
<text text-anchor="middle" x="201" y="-159.5" font-family="Helvetica,sans-Serif" font-size="10.00">Engine</text>
</a>
</g>
</g>
<!-- dir_0c066f7b744f4e22eb15b267f3daadd2&#45;&gt;dir_5405398c23c020946029b9f4e6e04094 -->
<g id="edge4" class="edge">
<title>dir_0c066f7b744f4e22eb15b267f3daadd2&#45;&gt;dir_5405398c23c020946029b9f4e6e04094</title>
<path fill="none" stroke="black" d="M78.3,-215.86C107.06,-202.39 139.91,-187.13 164.54,-176.48"/>
<polygon fill="black" stroke="black" points="166.05,-179.64 173.88,-172.5 163.31,-173.2 166.05,-179.64"/>
<g id="a_edge4&#45;headlabel"><a xlink:href="dir_000066_000003.html" target="_top" xlink:title="1">
<text text-anchor="middle" x="163.86" y="-181.16" font-family="Helvetica,sans-Serif" font-size="10.00">1</text>
</a>
</g>
</g>
<!-- dir_1e6a22d8e928d3bb9eb703c3e13f4167&#45;&gt;dir_3fdf0a3096c063d7026a77b0671575e8 -->
<g id="edge5" class="edge">
<title>dir_1e6a22d8e928d3bb9eb703c3e13f4167&#45;&gt;dir_3fdf0a3096c063d7026a77b0671575e8</title>
<path fill="none" stroke="black" d="M82.46,-143.7C87.01,-135.47 93.37,-125.48 99.77,-116.42"/>
<polygon fill="black" stroke="black" points="102.78,-118.24 105.86,-108.1 97.13,-114.1 102.78,-118.24"/>
<g id="a_edge5&#45;headlabel"><a xlink:href="dir_000068_000071.html" target="_top" xlink:title="1">
<text text-anchor="middle" x="102.95" y="-120.32" font-family="Helvetica,sans-Serif" font-size="10.00">1</text>
</a>
</g>
</g>
<!-- dir_1e6a22d8e928d3bb9eb703c3e13f4167&#45;&gt;dir_029e54de912e6402e7ca9925aa09d11f -->
<g id="edge6" class="edge">
<title>dir_1e6a22d8e928d3bb9eb703c3e13f4167&#45;&gt;dir_029e54de912e6402e7ca9925aa09d11f</title>
<path fill="none" stroke="black" d="M73.94,-143.72C70.98,-121.44 69.2,-82.43 87,-56 95.04,-44.06 108.2,-35.72 121.02,-30.03"/>
<polygon fill="black" stroke="black" points="122.68,-33.13 130.67,-26.17 120.08,-26.63 122.68,-33.13"/>
<g id="a_edge6&#45;headlabel"><a xlink:href="dir_000068_000074.html" target="_top" xlink:title="4">
<text text-anchor="middle" x="120.39" y="-34.6" font-family="Helvetica,sans-Serif" font-size="10.00">4</text>
</a>
</g>
</g>
<!-- dir_3fdf0a3096c063d7026a77b0671575e8&#45;&gt;dir_1e6a22d8e928d3bb9eb703c3e13f4167 -->
<g id="edge7" class="edge">
<title>dir_3fdf0a3096c063d7026a77b0671575e8&#45;&gt;dir_1e6a22d8e928d3bb9eb703c3e13f4167</title>
<path fill="none" stroke="black" d="M117.66,-108.1C113.13,-116.3 106.78,-126.28 100.38,-135.36"/>
<polygon fill="black" stroke="black" points="97.36,-133.56 94.29,-143.7 103.01,-137.69 97.36,-133.56"/>
<g id="a_edge7&#45;headlabel"><a xlink:href="dir_000071_000068.html" target="_top" xlink:title="1">
<text text-anchor="middle" x="97.19" y="-126.48" font-family="Helvetica,sans-Serif" font-size="10.00">1</text>
</a>
</g>
</g>
<!-- dir_3fdf0a3096c063d7026a77b0671575e8&#45;&gt;dir_029e54de912e6402e7ca9925aa09d11f -->
<g id="edge8" class="edge">
<title>dir_3fdf0a3096c063d7026a77b0671575e8&#45;&gt;dir_029e54de912e6402e7ca9925aa09d11f</title>
<path fill="none" stroke="black" d="M131.65,-71.7C135.64,-63.73 140.45,-54.1 144.87,-45.26"/>
<polygon fill="black" stroke="black" points="148.11,-46.61 149.45,-36.1 141.85,-43.48 148.11,-46.61"/>
<g id="a_edge8&#45;headlabel"><a xlink:href="dir_000071_000074.html" target="_top" xlink:title="2">
<text text-anchor="middle" x="149.04" y="-48.6" font-family="Helvetica,sans-Serif" font-size="10.00">2</text>
</a>
</g>
</g>
<!-- dir_3fdf0a3096c063d7026a77b0671575e8&#45;&gt;dir_5405398c23c020946029b9f4e6e04094 -->
<g id="edge9" class="edge">
<title>dir_3fdf0a3096c063d7026a77b0671575e8&#45;&gt;dir_5405398c23c020946029b9f4e6e04094</title>
<path fill="none" stroke="black" d="M136.16,-108.1C144.95,-116.8 156.71,-127.52 167.85,-137.03"/>
<polygon fill="black" stroke="black" points="165.89,-139.96 175.8,-143.7 170.39,-134.59 165.89,-139.96"/>
<g id="a_edge9&#45;headlabel"><a xlink:href="dir_000071_000003.html" target="_top" xlink:title="4">
<text text-anchor="middle" x="161.31" y="-137.32" font-family="Helvetica,sans-Serif" font-size="10.00">4</text>
</a>
</g>
</g>
<!-- dir_5405398c23c020946029b9f4e6e04094&#45;&gt;dir_0c066f7b744f4e22eb15b267f3daadd2 -->
<g id="edge10" class="edge">
<title>dir_5405398c23c020946029b9f4e6e04094&#45;&gt;dir_0c066f7b744f4e22eb15b267f3daadd2</title>
<path fill="none" stroke="black" d="M173.76,-179.18C152.48,-189.65 122.48,-203.59 96,-216 93.27,-217.28 90.43,-218.61 87.54,-219.95"/>
<polygon fill="black" stroke="black" points="85.94,-216.83 78.28,-224.16 88.84,-223.21 85.94,-216.83"/>
<g id="a_edge10&#45;headlabel"><a xlink:href="dir_000003_000066.html" target="_top" xlink:title="1">
<text text-anchor="middle" x="88.04" y="-210.26" font-family="Helvetica,sans-Serif" font-size="10.00">1</text>
</a>
</g>
</g>
<!-- dir_5405398c23c020946029b9f4e6e04094&#45;&gt;dir_1e6a22d8e928d3bb9eb703c3e13f4167 -->
<g id="edge11" class="edge">
<title>dir_5405398c23c020946029b9f4e6e04094&#45;&gt;dir_1e6a22d8e928d3bb9eb703c3e13f4167</title>
<path fill="none" stroke="black" d="M173.75,-162C153.9,-162 134.04,-162 114.19,-162"/>
<polygon fill="black" stroke="black" points="114.13,-158.5 104.12,-162 114.12,-165.5 114.13,-158.5"/>
<g id="a_edge11&#45;headlabel"><a xlink:href="dir_000003_000068.html" target="_top" xlink:title="3">
<text text-anchor="middle" x="117.72" y="-153.16" font-family="Helvetica,sans-Serif" font-size="10.00">3</text>
</a>
</g>
</g>
<!-- dir_5405398c23c020946029b9f4e6e04094&#45;&gt;dir_3fdf0a3096c063d7026a77b0671575e8 -->
<g id="edge12" class="edge">
<title>dir_5405398c23c020946029b9f4e6e04094&#45;&gt;dir_3fdf0a3096c063d7026a77b0671575e8</title>
<path fill="none" stroke="black" d="M187.63,-143.7C178.81,-134.97 167.03,-124.24 155.89,-114.75"/>
<polygon fill="black" stroke="black" points="157.87,-111.84 147.95,-108.1 153.38,-117.21 157.87,-111.84"/>
<g id="a_edge12&#45;headlabel"><a xlink:href="dir_000003_000071.html" target="_top" xlink:title="1">
<text text-anchor="middle" x="162.45" y="-109.47" font-family="Helvetica,sans-Serif" font-size="10.00">1</text>
</a>
</g>
</g>
<!-- dir_5405398c23c020946029b9f4e6e04094&#45;&gt;dir_029e54de912e6402e7ca9925aa09d11f -->
<g id="edge13" class="edge">
<title>dir_5405398c23c020946029b9f4e6e04094&#45;&gt;dir_029e54de912e6402e7ca9925aa09d11f</title>
<path fill="none" stroke="black" d="M195.81,-143.87C188.45,-119.56 174.9,-74.82 166.18,-46.01"/>
<polygon fill="black" stroke="black" points="169.45,-44.75 163.21,-36.19 162.75,-46.77 169.45,-44.75"/>
<g id="a_edge13&#45;headlabel"><a xlink:href="dir_000003_000074.html" target="_top" xlink:title="53">
<text text-anchor="middle" x="173.21" y="-44.86" font-family="Helvetica,sans-Serif" font-size="10.00">53</text>
</a>
</g>
</g>
</g>
</svg>
