<?xml version="1.0" encoding="UTF-8" standalone="no"?>
<!DOCTYPE svg PUBLIC "-//W3C//DTD SVG 1.1//EN"
 "http://www.w3.org/Graphics/SVG/1.1/DTD/svg11.dtd">
<!-- Generated by graphviz version 2.43.0 (0)
 -->
<!-- Title: Engine/sdl Pages: 1 -->
<svg width="189pt" height="295pt"
 viewBox="0.00 0.00 189.32 295.00" xmlns="http://www.w3.org/2000/svg" xmlns:xlink="http://www.w3.org/1999/xlink">
<g id="graph0" class="graph" transform="scale(1 1) rotate(0) translate(4 291)">
<title>Engine/sdl</title>
<g id="clust1" class="cluster">
<title>clusterdir_0b6ee6e7e9547e675db4add2e5de97da</title>
<g id="a_clust1"><a xlink:href="dir_0b6ee6e7e9547e675db4add2e5de97da.html" target="_top" xlink:title="Engine">
<polygon fill="#ddddee" stroke="black" points="78,-208 78,-279 148,-279 148,-208 78,-208"/>
<text text-anchor="middle" x="113" y="-267" font-family="Helvetica,sans-Serif" font-size="10.00">Engine</text>
</a>
</g>
</g>
<!-- dir_77355a8928adc639dcd522ba23456c72 -->
<g id="node1" class="node">
<title>dir_77355a8928adc639dcd522ba23456c72</title>
<g id="a_node1"><a xlink:href="dir_77355a8928adc639dcd522ba23456c72.html" target="_top" xlink:title="sdl">
<polygon fill="#eeeeff" stroke="black" points="140,-252 86,-252 86,-216 140,-216 140,-252"/>
<text text-anchor="middle" x="113" y="-231.5" font-family="Helvetica,sans-Serif" font-size="10.00">sdl</text>
</a>
</g>
</g>
<!-- dir_67b2cb2034ceaaf8be572a1cd9151782 -->
<g id="node2" class="node">
<title>dir_67b2cb2034ceaaf8be572a1cd9151782</title>
<g id="a_node2"><a xlink:href="dir_67b2cb2034ceaaf8be572a1cd9151782.html" target="_top" xlink:title="client">
<polygon fill="none" stroke="black" points="113,-180 59,-180 59,-144 113,-144 113,-180"/>
<text text-anchor="middle" x="86" y="-159.5" font-family="Helvetica,sans-Serif" font-size="10.00">client</text>
</a>
</g>
</g>
<!-- dir_77355a8928adc639dcd522ba23456c72&#45;&gt;dir_67b2cb2034ceaaf8be572a1cd9151782 -->
<g id="edge1" class="edge">
<title>dir_77355a8928adc639dcd522ba23456c72&#45;&gt;dir_67b2cb2034ceaaf8be572a1cd9151782</title>
<path fill="none" stroke="black" d="M106.33,-215.7C103.29,-207.81 99.62,-198.3 96.24,-189.55"/>
<polygon fill="black" stroke="black" points="99.46,-188.17 92.6,-180.1 92.93,-190.69 99.46,-188.17"/>
<g id="a_edge1&#45;headlabel"><a xlink:href="dir_000043_000007.html" target="_top" xlink:title="3">
<text text-anchor="middle" x="103.4" y="-188.01" font-family="Helvetica,sans-Serif" font-size="10.00">3</text>
</a>
</g>
</g>
<!-- dir_da555cc5272c9bb1aca8990be5c6787a -->
<g id="node3" class="node">
<title>dir_da555cc5272c9bb1aca8990be5c6787a</title>
<g id="a_node3"><a xlink:href="dir_da555cc5272c9bb1aca8990be5c6787a.html" target="_top" xlink:title="Shared">
<polygon fill="none" stroke="black" points="140,-36 86,-36 86,0 140,0 140,-36"/>
<text text-anchor="middle" x="113" y="-15.5" font-family="Helvetica,sans-Serif" font-size="10.00">Shared</text>
</a>
</g>
</g>
<!-- dir_77355a8928adc639dcd522ba23456c72&#45;&gt;dir_da555cc5272c9bb1aca8990be5c6787a -->
<g id="edge2" class="edge">
<title>dir_77355a8928adc639dcd522ba23456c72&#45;&gt;dir_da555cc5272c9bb1aca8990be5c6787a</title>
<path fill="none" stroke="black" d="M125.22,-215.85C140.89,-192.69 167.2,-149.52 177,-108 180.68,-92.43 183.81,-86.48 177,-72 170.82,-58.87 159.62,-47.87 148.3,-39.36"/>
<polygon fill="black" stroke="black" points="150.29,-36.49 140.1,-33.61 146.27,-42.22 150.29,-36.49"/>
<g id="a_edge2&#45;headlabel"><a xlink:href="dir_000043_000073.html" target="_top" xlink:title="2">
<text text-anchor="middle" x="154.87" y="-33.73" font-family="Helvetica,sans-Serif" font-size="10.00">2</text>
</a>
</g>
</g>
<!-- dir_1de386e71131cfed141bddfc0475b976 -->
<g id="node4" class="node">
<title>dir_1de386e71131cfed141bddfc0475b976</title>
<g id="a_node4"><a xlink:href="dir_1de386e71131cfed141bddfc0475b976.html" target="_top" xlink:title="renderer">
<polygon fill="none" stroke="black" points="58,-108 0,-108 0,-72 58,-72 58,-108"/>
<text text-anchor="middle" x="29" y="-87.5" font-family="Helvetica,sans-Serif" font-size="10.00">renderer</text>
</a>
</g>
</g>
<!-- dir_77355a8928adc639dcd522ba23456c72&#45;&gt;dir_1de386e71131cfed141bddfc0475b976 -->
<g id="edge3" class="edge">
<title>dir_77355a8928adc639dcd522ba23456c72&#45;&gt;dir_1de386e71131cfed141bddfc0475b976</title>
<path fill="none" stroke="black" d="M85.84,-216.16C73.15,-206.96 58.91,-194.49 50,-180 38.53,-161.35 33.32,-136.96 30.96,-118.43"/>
<polygon fill="black" stroke="black" points="34.42,-117.86 29.87,-108.29 27.46,-118.6 34.42,-117.86"/>
<g id="a_edge3&#45;headlabel"><a xlink:href="dir_000043_000041.html" target="_top" xlink:title="3">
<text text-anchor="middle" x="37.62" y="-118.63" font-family="Helvetica,sans-Serif" font-size="10.00">3</text>
</a>
</g>
</g>
<!-- dir_1198a1cce500f2eeeddf36fdf26831b2 -->
<g id="node5" class="node">
<title>dir_1198a1cce500f2eeeddf36fdf26831b2</title>
<g id="a_node5"><a xlink:href="dir_1198a1cce500f2eeeddf36fdf26831b2.html" target="_top" xlink:title="sys">
<polygon fill="none" stroke="black" points="168,-108 114,-108 114,-72 168,-72 168,-108"/>
<text text-anchor="middle" x="141" y="-87.5" font-family="Helvetica,sans-Serif" font-size="10.00">sys</text>
</a>
</g>
</g>
<!-- dir_77355a8928adc639dcd522ba23456c72&#45;&gt;dir_1198a1cce500f2eeeddf36fdf26831b2 -->
<g id="edge4" class="edge">
<title>dir_77355a8928adc639dcd522ba23456c72&#45;&gt;dir_1198a1cce500f2eeeddf36fdf26831b2</title>
<path fill="none" stroke="black" d="M116.38,-215.87C121.17,-191.56 129.99,-146.82 135.67,-118.01"/>
<polygon fill="black" stroke="black" points="139.11,-118.68 137.61,-108.19 132.24,-117.32 139.11,-118.68"/>
<g id="a_edge4&#45;headlabel"><a xlink:href="dir_000043_000051.html" target="_top" xlink:title="2">
<text text-anchor="middle" x="141.2" y="-120.25" font-family="Helvetica,sans-Serif" font-size="10.00">2</text>
</a>
</g>
</g>
<!-- dir_67b2cb2034ceaaf8be572a1cd9151782&#45;&gt;dir_da555cc5272c9bb1aca8990be5c6787a -->
<g id="edge5" class="edge">
<title>dir_67b2cb2034ceaaf8be572a1cd9151782&#45;&gt;dir_da555cc5272c9bb1aca8990be5c6787a</title>
<path fill="none" stroke="black" d="M89.26,-143.87C93.86,-119.67 102.31,-75.21 107.79,-46.39"/>
<polygon fill="black" stroke="black" points="111.3,-46.67 109.73,-36.19 104.43,-45.36 111.3,-46.67"/>
<g id="a_edge5&#45;headlabel"><a xlink:href="dir_000007_000073.html" target="_top" xlink:title="12">
<text text-anchor="middle" x="113.42" y="-48.23" font-family="Helvetica,sans-Serif" font-size="10.00">12</text>
</a>
</g>
</g>
<!-- dir_67b2cb2034ceaaf8be572a1cd9151782&#45;&gt;dir_1de386e71131cfed141bddfc0475b976 -->
<g id="edge6" class="edge">
<title>dir_67b2cb2034ceaaf8be572a1cd9151782&#45;&gt;dir_1de386e71131cfed141bddfc0475b976</title>
<path fill="none" stroke="black" d="M71.91,-143.7C65.08,-135.3 56.74,-125.07 49.24,-115.86"/>
<polygon fill="black" stroke="black" points="51.96,-113.65 42.93,-108.1 46.53,-118.07 51.96,-113.65"/>
<g id="a_edge6&#45;headlabel"><a xlink:href="dir_000007_000041.html" target="_top" xlink:title="1">
<text text-anchor="middle" x="56.43" y="-112.14" font-family="Helvetica,sans-Serif" font-size="10.00">1</text>
</a>
</g>
</g>
<!-- dir_67b2cb2034ceaaf8be572a1cd9151782&#45;&gt;dir_1198a1cce500f2eeeddf36fdf26831b2 -->
<g id="edge7" class="edge">
<title>dir_67b2cb2034ceaaf8be572a1cd9151782&#45;&gt;dir_1198a1cce500f2eeeddf36fdf26831b2</title>
<path fill="none" stroke="black" d="M93.68,-143.7C99.41,-135.3 107.26,-125.07 114.97,-115.86"/>
<polygon fill="black" stroke="black" points="117.78,-117.96 121.67,-108.1 112.48,-113.39 117.78,-117.96"/>
<g id="a_edge7&#45;headlabel"><a xlink:href="dir_000007_000051.html" target="_top" xlink:title="2">
<text text-anchor="middle" x="117.59" y="-120.04" font-family="Helvetica,sans-Serif" font-size="10.00">2</text>
</a>
</g>
</g>
<!-- dir_1de386e71131cfed141bddfc0475b976&#45;&gt;dir_da555cc5272c9bb1aca8990be5c6787a -->
<g id="edge8" class="edge">
<title>dir_1de386e71131cfed141bddfc0475b976&#45;&gt;dir_da555cc5272c9bb1aca8990be5c6787a</title>
<path fill="none" stroke="black" d="M49.76,-71.7C60.24,-62.97 73.11,-52.24 84.5,-42.75"/>
<polygon fill="black" stroke="black" points="87.03,-45.19 92.47,-36.1 82.55,-39.82 87.03,-45.19"/>
<g id="a_edge8&#45;headlabel"><a xlink:href="dir_000041_000073.html" target="_top" xlink:title="5">
<text text-anchor="middle" x="86.09" y="-47.18" font-family="Helvetica,sans-Serif" font-size="10.00">5</text>
</a>
</g>
</g>
<!-- dir_1198a1cce500f2eeeddf36fdf26831b2&#45;&gt;dir_67b2cb2034ceaaf8be572a1cd9151782 -->
<g id="edge9" class="edge">
<title>dir_1198a1cce500f2eeeddf36fdf26831b2&#45;&gt;dir_67b2cb2034ceaaf8be572a1cd9151782</title>
<path fill="none" stroke="black" d="M133.46,-108.1C127.76,-116.47 119.93,-126.69 112.21,-135.92"/>
<polygon fill="black" stroke="black" points="109.38,-133.84 105.51,-143.7 114.69,-138.4 109.38,-133.84"/>
<g id="a_edge9&#45;headlabel"><a xlink:href="dir_000051_000007.html" target="_top" xlink:title="1">
<text text-anchor="middle" x="109.58" y="-126.76" font-family="Helvetica,sans-Serif" font-size="10.00">1</text>
</a>
</g>
</g>
<!-- dir_1198a1cce500f2eeeddf36fdf26831b2&#45;&gt;dir_da555cc5272c9bb1aca8990be5c6787a -->
<g id="edge10" class="edge">
<title>dir_1198a1cce500f2eeeddf36fdf26831b2&#45;&gt;dir_da555cc5272c9bb1aca8990be5c6787a</title>
<path fill="none" stroke="black" d="M134.08,-71.7C130.93,-63.81 127.12,-54.3 123.62,-45.55"/>
<polygon fill="black" stroke="black" points="126.81,-44.09 119.84,-36.1 120.31,-46.69 126.81,-44.09"/>
<g id="a_edge10&#45;headlabel"><a xlink:href="dir_000051_000073.html" target="_top" xlink:title="16">
<text text-anchor="middle" x="130.78" y="-43.87" font-family="Helvetica,sans-Serif" font-size="10.00">16</text>
</a>
</g>
</g>
</g>
</svg>
