<?xml version="1.0" encoding="UTF-8" standalone="no"?>
<!DOCTYPE svg PUBLIC "-//W3C//DTD SVG 1.1//EN"
 "http://www.w3.org/Graphics/SVG/1.1/DTD/svg11.dtd">
<!-- Generated by graphviz version 2.43.0 (0)
 -->
<!-- Title: Tools/MinGW/include/c++/4.6.1/ext/pb_ds/detail/binomial_heap_ Pages: 1 -->
<svg width="177pt" height="223pt"
 viewBox="0.00 0.00 177.00 223.00" xmlns="http://www.w3.org/2000/svg" xmlns:xlink="http://www.w3.org/1999/xlink">
<g id="graph0" class="graph" transform="scale(1 1) rotate(0) translate(4 219)">
<title>Tools/MinGW/include/c++/4.6.1/ext/pb_ds/detail/binomial_heap_</title>
<g id="clust1" class="cluster">
<title>clusterdir_268bdf41a10716cf0a4b681a9e70120f</title>
<g id="a_clust1"><a xlink:href="dir_268bdf41a10716cf0a4b681a9e70120f.html" target="_top" xlink:title="detail">
<polygon fill="#ddddee" stroke="black" points="51,-136 51,-207 161,-207 161,-136 51,-136"/>
<text text-anchor="middle" x="106" y="-195" font-family="Helvetica,sans-Serif" font-size="10.00">detail</text>
</a>
</g>
</g>
<!-- dir_fd8c2c31eb3076815de25c954e1144ae -->
<g id="node1" class="node">
<title>dir_fd8c2c31eb3076815de25c954e1144ae</title>
<g id="a_node1"><a xlink:href="dir_fd8c2c31eb3076815de25c954e1144ae.html" target="_top" xlink:title="binomial_heap_">
<polygon fill="#eeeeff" stroke="black" points="153,-180 59,-180 59,-144 153,-144 153,-180"/>
<text text-anchor="middle" x="106" y="-159.5" font-family="Helvetica,sans-Serif" font-size="10.00">binomial_heap_</text>
</a>
</g>
</g>
<!-- dir_c97ada6a28b1bc8a91c801cb81c9f1a1 -->
<g id="node2" class="node">
<title>dir_c97ada6a28b1bc8a91c801cb81c9f1a1</title>
<g id="a_node2"><a xlink:href="dir_c97ada6a28b1bc8a91c801cb81c9f1a1.html" target="_top" xlink:title="binomial_heap_base_">
<polygon fill="none" stroke="black" points="122,-108 0,-108 0,-72 122,-72 122,-108"/>
<text text-anchor="middle" x="61" y="-87.5" font-family="Helvetica,sans-Serif" font-size="10.00">binomial_heap_base_</text>
</a>
</g>
</g>
<!-- dir_fd8c2c31eb3076815de25c954e1144ae&#45;&gt;dir_c97ada6a28b1bc8a91c801cb81c9f1a1 -->
<g id="edge2" class="edge">
<title>dir_fd8c2c31eb3076815de25c954e1144ae&#45;&gt;dir_c97ada6a28b1bc8a91c801cb81c9f1a1</title>
<path fill="none" stroke="black" d="M94.88,-143.7C89.64,-135.56 83.3,-125.69 77.52,-116.7"/>
<polygon fill="black" stroke="black" points="80.35,-114.62 72,-108.1 74.46,-118.41 80.35,-114.62"/>
<g id="a_edge2&#45;headlabel"><a xlink:href="dir_000067_000068.html" target="_top" xlink:title="1">
<text text-anchor="middle" x="84.68" y="-113.61" font-family="Helvetica,sans-Serif" font-size="10.00">1</text>
</a>
</g>
</g>
<!-- dir_5457c9274dae770043722963fd120f09 -->
<g id="node3" class="node">
<title>dir_5457c9274dae770043722963fd120f09</title>
<g id="a_node3"><a xlink:href="dir_5457c9274dae770043722963fd120f09.html" target="_top" xlink:title="debug">
<polygon fill="none" stroke="black" points="132,-36 78,-36 78,0 132,0 132,-36"/>
<text text-anchor="middle" x="105" y="-15.5" font-family="Helvetica,sans-Serif" font-size="10.00">debug</text>
</a>
</g>
</g>
<!-- dir_fd8c2c31eb3076815de25c954e1144ae&#45;&gt;dir_5457c9274dae770043722963fd120f09 -->
<g id="edge3" class="edge">
<title>dir_fd8c2c31eb3076815de25c954e1144ae&#45;&gt;dir_5457c9274dae770043722963fd120f09</title>
<path fill="none" stroke="black" d="M116.63,-143.56C122.1,-133.54 128.2,-120.51 131,-108 134.5,-92.39 134.62,-87.59 131,-72 128.9,-62.96 125.03,-53.68 120.91,-45.47"/>
<polygon fill="black" stroke="black" points="123.86,-43.55 116.05,-36.39 117.69,-46.86 123.86,-43.55"/>
<g id="a_edge3&#45;headlabel"><a xlink:href="dir_000067_000053.html" target="_top" xlink:title="1">
<text text-anchor="middle" x="128.06" y="-42.88" font-family="Helvetica,sans-Serif" font-size="10.00">1</text>
</a>
</g>
</g>
<!-- dir_c97ada6a28b1bc8a91c801cb81c9f1a1&#45;&gt;dir_5457c9274dae770043722963fd120f09 -->
<g id="edge1" class="edge">
<title>dir_c97ada6a28b1bc8a91c801cb81c9f1a1&#45;&gt;dir_5457c9274dae770043722963fd120f09</title>
<path fill="none" stroke="black" d="M71.88,-71.7C76.99,-63.56 83.2,-53.69 88.84,-44.7"/>
<polygon fill="black" stroke="black" points="91.89,-46.43 94.25,-36.1 85.96,-42.71 91.89,-46.43"/>
<g id="a_edge1&#45;headlabel"><a xlink:href="dir_000068_000053.html" target="_top" xlink:title="1">
<text text-anchor="middle" x="92.38" y="-48.49" font-family="Helvetica,sans-Serif" font-size="10.00">1</text>
</a>
</g>
</g>
</g>
</svg>
