<?xml version="1.0" encoding="UTF-8" standalone="no"?>
<!DOCTYPE svg PUBLIC "-//W3C//DTD SVG 1.1//EN"
 "http://www.w3.org/Graphics/SVG/1.1/DTD/svg11.dtd">
<!-- Generated by graphviz version 2.43.0 (0)
 -->
<!-- Title: Source/Game Pages: 1 -->
<svg width="268pt" height="255pt"
 viewBox="0.00 0.00 268.29 255.00" xmlns="http://www.w3.org/2000/svg" xmlns:xlink="http://www.w3.org/1999/xlink">
<g id="graph0" class="graph" transform="scale(1 1) rotate(0) translate(4 251)">
<title>Source/Game</title>
<g id="clust1" class="cluster">
<title>clusterdir_74389ed8173ad57b461b9d623a1f3867</title>
<g id="a_clust1"><a xlink:href="dir_74389ed8173ad57b461b9d623a1f3867.html" target="_top" xlink:title="Source">
<polygon fill="#ddddee" stroke="black" points="8,-8 8,-239 166,-239 166,-8 8,-8"/>
<text text-anchor="middle" x="87" y="-227" font-family="Helvetica,sans-Serif" font-size="10.00">Source</text>
</a>
</g>
</g>
<g id="clust2" class="cluster">
<title>clusterdir_3777292849a1481e53303ca2af78ff89</title>
<g id="a_clust2"><a xlink:href="dir_3777292849a1481e53303ca2af78ff89.html" target="_top">
<polygon fill="#eeeeff" stroke="black" points="16,-16 16,-212 158,-212 158,-16 16,-16"/>
</a>
</g>
</g>
<!-- dir_3777292849a1481e53303ca2af78ff89 -->
<g id="node1" class="node">
<title>dir_3777292849a1481e53303ca2af78ff89</title>
<text text-anchor="middle" x="123" y="-183.5" font-family="Helvetica,sans-Serif" font-size="10.00">Game</text>
</g>
<!-- dir_0c066f7b744f4e22eb15b267f3daadd2 -->
<g id="node2" class="node">
<title>dir_0c066f7b744f4e22eb15b267f3daadd2</title>
<g id="a_node2"><a xlink:href="dir_0c066f7b744f4e22eb15b267f3daadd2.html" target="_top" xlink:title="CGame">
<polygon fill="white" stroke="black" points="78,-204 24,-204 24,-168 78,-168 78,-204"/>
<text text-anchor="middle" x="51" y="-183.5" font-family="Helvetica,sans-Serif" font-size="10.00">CGame</text>
</a>
</g>
</g>
<!-- dir_1e6a22d8e928d3bb9eb703c3e13f4167 -->
<g id="node3" class="node">
<title>dir_1e6a22d8e928d3bb9eb703c3e13f4167</title>
<g id="a_node3"><a xlink:href="dir_1e6a22d8e928d3bb9eb703c3e13f4167.html" target="_top" xlink:title="Game">
<polygon fill="white" stroke="black" points="150,-132 96,-132 96,-96 150,-96 150,-132"/>
<text text-anchor="middle" x="123" y="-111.5" font-family="Helvetica,sans-Serif" font-size="10.00">Game</text>
</a>
</g>
</g>
<!-- dir_0c066f7b744f4e22eb15b267f3daadd2&#45;&gt;dir_1e6a22d8e928d3bb9eb703c3e13f4167 -->
<g id="edge1" class="edge">
<title>dir_0c066f7b744f4e22eb15b267f3daadd2&#45;&gt;dir_1e6a22d8e928d3bb9eb703c3e13f4167</title>
<path fill="none" stroke="black" d="M68.8,-167.7C77.6,-159.14 88.38,-148.66 98,-139.3"/>
<polygon fill="black" stroke="black" points="100.68,-141.58 105.41,-132.1 95.8,-136.57 100.68,-141.58"/>
<g id="a_edge1&#45;headlabel"><a xlink:href="dir_000033_000034.html" target="_top" xlink:title="3">
<text text-anchor="middle" x="100.08" y="-143.63" font-family="Helvetica,sans-Serif" font-size="10.00">3</text>
</a>
</g>
</g>
<!-- dir_3fdf0a3096c063d7026a77b0671575e8 -->
<g id="node4" class="node">
<title>dir_3fdf0a3096c063d7026a77b0671575e8</title>
<g id="a_node4"><a xlink:href="dir_3fdf0a3096c063d7026a77b0671575e8.html" target="_top" xlink:title="UI">
<polygon fill="white" stroke="red" points="150,-60 96,-60 96,-24 150,-24 150,-60"/>
<text text-anchor="middle" x="123" y="-39.5" font-family="Helvetica,sans-Serif" font-size="10.00">UI</text>
</a>
</g>
</g>
<!-- dir_0c066f7b744f4e22eb15b267f3daadd2&#45;&gt;dir_3fdf0a3096c063d7026a77b0671575e8 -->
<g id="edge2" class="edge">
<title>dir_0c066f7b744f4e22eb15b267f3daadd2&#45;&gt;dir_3fdf0a3096c063d7026a77b0671575e8</title>
<path fill="none" stroke="black" d="M56.73,-167.79C63.11,-149.49 74.2,-119.96 87,-96 91.98,-86.68 98.22,-76.98 104.1,-68.46"/>
<polygon fill="black" stroke="black" points="107.11,-70.27 110.03,-60.08 101.4,-66.22 107.11,-70.27"/>
<g id="a_edge2&#45;headlabel"><a xlink:href="dir_000033_000035.html" target="_top" xlink:title="2">
<text text-anchor="middle" x="107.35" y="-72.34" font-family="Helvetica,sans-Serif" font-size="10.00">2</text>
</a>
</g>
</g>
<!-- dir_029e54de912e6402e7ca9925aa09d11f -->
<g id="node5" class="node">
<title>dir_029e54de912e6402e7ca9925aa09d11f</title>
<g id="a_node5"><a xlink:href="dir_029e54de912e6402e7ca9925aa09d11f.html" target="_top" xlink:title="Shared">
<polygon fill="none" stroke="black" points="228,-132 174,-132 174,-96 228,-96 228,-132"/>
<text text-anchor="middle" x="201" y="-111.5" font-family="Helvetica,sans-Serif" font-size="10.00">Shared</text>
</a>
</g>
</g>
<!-- dir_0c066f7b744f4e22eb15b267f3daadd2&#45;&gt;dir_029e54de912e6402e7ca9925aa09d11f -->
<g id="edge3" class="edge">
<title>dir_0c066f7b744f4e22eb15b267f3daadd2&#45;&gt;dir_029e54de912e6402e7ca9925aa09d11f</title>
<path fill="none" stroke="black" d="M78.12,-172.17C81.11,-170.76 84.12,-169.35 87,-168 112.94,-155.85 142.25,-142.22 164.65,-131.83"/>
<polygon fill="black" stroke="black" points="166.2,-134.97 173.8,-127.59 163.25,-128.62 166.2,-134.97"/>
<g id="a_edge3&#45;headlabel"><a xlink:href="dir_000033_000037.html" target="_top" xlink:title="2">
<text text-anchor="middle" x="164.13" y="-136.56" font-family="Helvetica,sans-Serif" font-size="10.00">2</text>
</a>
</g>
</g>
<!-- dir_5405398c23c020946029b9f4e6e04094 -->
<g id="node6" class="node">
<title>dir_5405398c23c020946029b9f4e6e04094</title>
<g id="a_node6"><a xlink:href="dir_5405398c23c020946029b9f4e6e04094.html" target="_top" xlink:title="Engine">
<polygon fill="none" stroke="red" points="228,-60 174,-60 174,-24 228,-24 228,-60"/>
<text text-anchor="middle" x="201" y="-39.5" font-family="Helvetica,sans-Serif" font-size="10.00">Engine</text>
</a>
</g>
</g>
<!-- dir_0c066f7b744f4e22eb15b267f3daadd2&#45;&gt;dir_5405398c23c020946029b9f4e6e04094 -->
<g id="edge4" class="edge">
<title>dir_0c066f7b744f4e22eb15b267f3daadd2&#45;&gt;dir_5405398c23c020946029b9f4e6e04094</title>
<path fill="none" stroke="black" d="M78.27,-171.41C81.19,-170.17 84.13,-169.01 87,-168 151.67,-145.24 194.55,-185.84 237,-132 251.92,-113.07 238.5,-87.13 223.99,-68.14"/>
<polygon fill="black" stroke="black" points="226.59,-65.78 217.57,-60.21 221.15,-70.18 226.59,-65.78"/>
<g id="a_edge4&#45;headlabel"><a xlink:href="dir_000033_000001.html" target="_top" xlink:title="1">
<text text-anchor="middle" x="231.05" y="-64.28" font-family="Helvetica,sans-Serif" font-size="10.00">1</text>
</a>
</g>
</g>
<!-- dir_1e6a22d8e928d3bb9eb703c3e13f4167&#45;&gt;dir_3fdf0a3096c063d7026a77b0671575e8 -->
<g id="edge5" class="edge">
<title>dir_1e6a22d8e928d3bb9eb703c3e13f4167&#45;&gt;dir_3fdf0a3096c063d7026a77b0671575e8</title>
<path fill="none" stroke="black" d="M117.08,-95.7C116.29,-87.98 116.06,-78.71 116.4,-70.11"/>
<polygon fill="black" stroke="black" points="119.9,-70.32 117.1,-60.1 112.92,-69.84 119.9,-70.32"/>
<g id="a_edge5&#45;headlabel"><a xlink:href="dir_000034_000035.html" target="_top" xlink:title="1">
<text text-anchor="middle" x="122.48" y="-71.61" font-family="Helvetica,sans-Serif" font-size="10.00">1</text>
</a>
</g>
</g>
<!-- dir_1e6a22d8e928d3bb9eb703c3e13f4167&#45;&gt;dir_029e54de912e6402e7ca9925aa09d11f -->
<g id="edge6" class="edge">
<title>dir_1e6a22d8e928d3bb9eb703c3e13f4167&#45;&gt;dir_029e54de912e6402e7ca9925aa09d11f</title>
<path fill="none" stroke="black" d="M150.12,-114C154.71,-114 159.31,-114 163.91,-114"/>
<polygon fill="black" stroke="black" points="163.97,-117.5 173.97,-114 163.97,-110.5 163.97,-117.5"/>
<g id="a_edge6&#45;headlabel"><a xlink:href="dir_000034_000037.html" target="_top" xlink:title="4">
<text text-anchor="middle" x="160.37" y="-117.84" font-family="Helvetica,sans-Serif" font-size="10.00">4</text>
</a>
</g>
</g>
<!-- dir_3fdf0a3096c063d7026a77b0671575e8&#45;&gt;dir_1e6a22d8e928d3bb9eb703c3e13f4167 -->
<g id="edge7" class="edge">
<title>dir_3fdf0a3096c063d7026a77b0671575e8&#45;&gt;dir_1e6a22d8e928d3bb9eb703c3e13f4167</title>
<path fill="none" stroke="black" d="M128.9,-60.1C129.7,-67.79 129.94,-77.05 129.6,-85.67"/>
<polygon fill="black" stroke="black" points="126.11,-85.48 128.92,-95.7 133.09,-85.96 126.11,-85.48"/>
<g id="a_edge7&#45;headlabel"><a xlink:href="dir_000035_000034.html" target="_top" xlink:title="1">
<text text-anchor="middle" x="123.52" y="-79.2" font-family="Helvetica,sans-Serif" font-size="10.00">1</text>
</a>
</g>
</g>
<!-- dir_3fdf0a3096c063d7026a77b0671575e8&#45;&gt;dir_029e54de912e6402e7ca9925aa09d11f -->
<g id="edge8" class="edge">
<title>dir_3fdf0a3096c063d7026a77b0671575e8&#45;&gt;dir_029e54de912e6402e7ca9925aa09d11f</title>
<path fill="none" stroke="black" d="M142.06,-60.1C151.66,-68.72 163.47,-79.32 173.98,-88.76"/>
<polygon fill="black" stroke="black" points="171.94,-91.62 181.72,-95.7 176.61,-86.41 171.94,-91.62"/>
<g id="a_edge8&#45;headlabel"><a xlink:href="dir_000035_000037.html" target="_top" xlink:title="2">
<text text-anchor="middle" x="167.37" y="-88.83" font-family="Helvetica,sans-Serif" font-size="10.00">2</text>
</a>
</g>
</g>
<!-- dir_3fdf0a3096c063d7026a77b0671575e8&#45;&gt;dir_5405398c23c020946029b9f4e6e04094 -->
<g id="edge9" class="edge">
<title>dir_3fdf0a3096c063d7026a77b0671575e8&#45;&gt;dir_5405398c23c020946029b9f4e6e04094</title>
<path fill="none" stroke="black" d="M150.12,-42C154.71,-42 159.31,-42 163.91,-42"/>
<polygon fill="black" stroke="black" points="163.97,-45.5 173.97,-42 163.97,-38.5 163.97,-45.5"/>
<g id="a_edge9&#45;headlabel"><a xlink:href="dir_000035_000001.html" target="_top" xlink:title="4">
<text text-anchor="middle" x="160.37" y="-45.84" font-family="Helvetica,sans-Serif" font-size="10.00">4</text>
</a>
</g>
</g>
<!-- dir_029e54de912e6402e7ca9925aa09d11f&#45;&gt;dir_5405398c23c020946029b9f4e6e04094 -->
<g id="edge10" class="edge">
<title>dir_029e54de912e6402e7ca9925aa09d11f&#45;&gt;dir_5405398c23c020946029b9f4e6e04094</title>
<path fill="none" stroke="black" d="M195.08,-95.7C194.29,-87.98 194.06,-78.71 194.4,-70.11"/>
<polygon fill="black" stroke="black" points="197.9,-70.32 195.1,-60.1 190.92,-69.84 197.9,-70.32"/>
<g id="a_edge10&#45;headlabel"><a xlink:href="dir_000037_000001.html" target="_top" xlink:title="2">
<text text-anchor="middle" x="200.48" y="-71.61" font-family="Helvetica,sans-Serif" font-size="10.00">2</text>
</a>
</g>
</g>
<!-- dir_5405398c23c020946029b9f4e6e04094&#45;&gt;dir_0c066f7b744f4e22eb15b267f3daadd2 -->
<g id="edge11" class="edge">
<title>dir_5405398c23c020946029b9f4e6e04094&#45;&gt;dir_0c066f7b744f4e22eb15b267f3daadd2</title>
<path fill="none" stroke="black" d="M223.79,-60.33C245.57,-78.98 272.53,-109.05 254,-132 208.26,-188.65 162.8,-147.34 88.01,-168.3"/>
<polygon fill="black" stroke="black" points="86.75,-165.02 78.25,-171.34 88.84,-171.71 86.75,-165.02"/>
<g id="a_edge11&#45;headlabel"><a xlink:href="dir_000001_000033.html" target="_top" xlink:title="1">
<text text-anchor="middle" x="89.34" y="-158.74" font-family="Helvetica,sans-Serif" font-size="10.00">1</text>
</a>
</g>
</g>
<!-- dir_5405398c23c020946029b9f4e6e04094&#45;&gt;dir_1e6a22d8e928d3bb9eb703c3e13f4167 -->
<g id="edge12" class="edge">
<title>dir_5405398c23c020946029b9f4e6e04094&#45;&gt;dir_1e6a22d8e928d3bb9eb703c3e13f4167</title>
<path fill="none" stroke="black" d="M181.94,-60.1C172.34,-68.72 160.53,-79.32 150.02,-88.76"/>
<polygon fill="black" stroke="black" points="147.39,-86.41 142.28,-95.7 152.06,-91.62 147.39,-86.41"/>
<g id="a_edge12&#45;headlabel"><a xlink:href="dir_000001_000034.html" target="_top" xlink:title="3">
<text text-anchor="middle" x="148.16" y="-79.4" font-family="Helvetica,sans-Serif" font-size="10.00">3</text>
</a>
</g>
</g>
<!-- dir_5405398c23c020946029b9f4e6e04094&#45;&gt;dir_3fdf0a3096c063d7026a77b0671575e8 -->
<g id="edge13" class="edge">
<title>dir_5405398c23c020946029b9f4e6e04094&#45;&gt;dir_3fdf0a3096c063d7026a77b0671575e8</title>
<path fill="none" stroke="black" d="M173.97,-42C169.37,-42 164.78,-42 160.18,-42"/>
<polygon fill="black" stroke="black" points="160.12,-38.5 150.12,-42 160.12,-45.5 160.12,-38.5"/>
<g id="a_edge13&#45;headlabel"><a xlink:href="dir_000001_000035.html" target="_top" xlink:title="1">
<text text-anchor="middle" x="163.71" y="-33.16" font-family="Helvetica,sans-Serif" font-size="10.00">1</text>
</a>
</g>
</g>
<!-- dir_5405398c23c020946029b9f4e6e04094&#45;&gt;dir_029e54de912e6402e7ca9925aa09d11f -->
<g id="edge14" class="edge">
<title>dir_5405398c23c020946029b9f4e6e04094&#45;&gt;dir_029e54de912e6402e7ca9925aa09d11f</title>
<path fill="none" stroke="black" d="M206.9,-60.1C207.7,-67.79 207.94,-77.05 207.6,-85.67"/>
<polygon fill="black" stroke="black" points="204.11,-85.48 206.92,-95.7 211.09,-85.96 204.11,-85.48"/>
<g id="a_edge14&#45;headlabel"><a xlink:href="dir_000001_000037.html" target="_top" xlink:title="53">
<text text-anchor="middle" x="201.52" y="-79.2" font-family="Helvetica,sans-Serif" font-size="10.00">53</text>
</a>
</g>
</g>
</g>
</svg>
