<?xml version="1.0" encoding="UTF-8" standalone="no"?>
<!DOCTYPE svg PUBLIC "-//W3C//DTD SVG 1.1//EN"
 "http://www.w3.org/Graphics/SVG/1.1/DTD/svg11.dtd">
<!-- Generated by graphviz version 2.43.0 (0)
 -->
<!-- Title: Tools/MinGW/lib Pages: 1 -->
<svg width="182pt" height="159pt"
 viewBox="0.00 0.00 182.00 159.00" xmlns="http://www.w3.org/2000/svg" xmlns:xlink="http://www.w3.org/1999/xlink">
<g id="graph0" class="graph" transform="scale(1 1) rotate(0) translate(4 155)">
<title>Tools/MinGW/lib</title>
<g id="clust1" class="cluster">
<title>clusterdir_c7ba7ece096a7780bcf966783558b940</title>
<g id="a_clust1"><a xlink:href="dir_c7ba7ece096a7780bcf966783558b940.html" target="_top" xlink:title="MinGW">
<polygon fill="#ddddee" stroke="black" points="8,-56 8,-143 166,-143 166,-56 8,-56"/>
<text text-anchor="middle" x="87" y="-131" font-family="Helvetica,sans-Serif" font-size="10.00">MinGW</text>
</a>
</g>
</g>
<g id="clust2" class="cluster">
<title>clusterdir_0b0195ae23bed7f5a47d9500cb989203</title>
<g id="a_clust2"><a xlink:href="dir_0b0195ae23bed7f5a47d9500cb989203.html" target="_top">
<polygon fill="#eeeeff" stroke="black" points="16,-64 16,-116 158,-116 158,-64 16,-64"/>
</a>
</g>
</g>
<!-- dir_0b0195ae23bed7f5a47d9500cb989203 -->
<g id="node1" class="node">
<title>dir_0b0195ae23bed7f5a47d9500cb989203</title>
<text text-anchor="middle" x="123" y="-87.5" font-family="Helvetica,sans-Serif" font-size="10.00">lib</text>
</g>
<!-- dir_009c36ddc13a5442bcd1eab8cabdeaac -->
<g id="node2" class="node">
<title>dir_009c36ddc13a5442bcd1eab8cabdeaac</title>
<g id="a_node2"><a xlink:href="dir_009c36ddc13a5442bcd1eab8cabdeaac.html" target="_top" xlink:title="gcc">
<polygon fill="white" stroke="red" points="78,-108 24,-108 24,-72 78,-72 78,-108"/>
<text text-anchor="middle" x="51" y="-87.5" font-family="Helvetica,sans-Serif" font-size="10.00">gcc</text>
</a>
</g>
</g>
<!-- dir_37b94406135199a4000f0af9e1d21279 -->
<g id="node3" class="node">
<title>dir_37b94406135199a4000f0af9e1d21279</title>
<g id="a_node3"><a xlink:href="dir_37b94406135199a4000f0af9e1d21279.html" target="_top" xlink:title="include">
<polygon fill="none" stroke="red" points="78,-36 24,-36 24,0 78,0 78,-36"/>
<text text-anchor="middle" x="51" y="-15.5" font-family="Helvetica,sans-Serif" font-size="10.00">include</text>
</a>
</g>
</g>
<!-- dir_009c36ddc13a5442bcd1eab8cabdeaac&#45;&gt;dir_37b94406135199a4000f0af9e1d21279 -->
<g id="edge2" class="edge">
<title>dir_009c36ddc13a5442bcd1eab8cabdeaac&#45;&gt;dir_37b94406135199a4000f0af9e1d21279</title>
<path fill="none" stroke="black" d="M45.08,-71.7C44.29,-63.98 44.06,-54.71 44.4,-46.11"/>
<polygon fill="black" stroke="black" points="47.9,-46.32 45.1,-36.1 40.92,-45.84 47.9,-46.32"/>
<g id="a_edge2&#45;headlabel"><a xlink:href="dir_000086_000007.html" target="_top" xlink:title="1">
<text text-anchor="middle" x="50.48" y="-47.61" font-family="Helvetica,sans-Serif" font-size="10.00">1</text>
</a>
</g>
</g>
<!-- dir_37b94406135199a4000f0af9e1d21279&#45;&gt;dir_009c36ddc13a5442bcd1eab8cabdeaac -->
<g id="edge1" class="edge">
<title>dir_37b94406135199a4000f0af9e1d21279&#45;&gt;dir_009c36ddc13a5442bcd1eab8cabdeaac</title>
<path fill="none" stroke="black" d="M56.9,-36.1C57.7,-43.79 57.94,-53.05 57.6,-61.67"/>
<polygon fill="black" stroke="black" points="54.11,-61.48 56.92,-71.7 61.09,-61.96 54.11,-61.48"/>
<g id="a_edge1&#45;headlabel"><a xlink:href="dir_000007_000086.html" target="_top" xlink:title="26">
<text text-anchor="middle" x="51.52" y="-55.2" font-family="Helvetica,sans-Serif" font-size="10.00">26</text>
</a>
</g>
</g>
</g>
</svg>
