<?xml version="1.0" encoding="UTF-8" standalone="no"?>
<!DOCTYPE svg PUBLIC "-//W3C//DTD SVG 1.1//EN"
 "http://www.w3.org/Graphics/SVG/1.1/DTD/svg11.dtd">
<!-- Generated by graphviz version 2.43.0 (0)
 -->
<!-- Title: Tools/MinGW Pages: 1 -->
<svg width="182pt" height="255pt"
 viewBox="0.00 0.00 182.00 255.00" xmlns="http://www.w3.org/2000/svg" xmlns:xlink="http://www.w3.org/1999/xlink">
<g id="graph0" class="graph" transform="scale(1 1) rotate(0) translate(4 251)">
<title>Tools/MinGW</title>
<g id="clust1" class="cluster">
<title>clusterdir_7e461070e7b716e896e0d97cd6a82321</title>
<g id="a_clust1"><a xlink:href="dir_7e461070e7b716e896e0d97cd6a82321.html" target="_top" xlink:title="Tools">
<polygon fill="#ddddee" stroke="black" points="8,-8 8,-239 166,-239 166,-8 8,-8"/>
<text text-anchor="middle" x="87" y="-227" font-family="Helvetica,sans-Serif" font-size="10.00">Tools</text>
</a>
</g>
</g>
<g id="clust2" class="cluster">
<title>clusterdir_c7ba7ece096a7780bcf966783558b940</title>
<g id="a_clust2"><a xlink:href="dir_c7ba7ece096a7780bcf966783558b940.html" target="_top">
<polygon fill="#eeeeff" stroke="black" points="16,-16 16,-212 158,-212 158,-16 16,-16"/>
</a>
</g>
</g>
<!-- dir_c7ba7ece096a7780bcf966783558b940 -->
<g id="node1" class="node">
<title>dir_c7ba7ece096a7780bcf966783558b940</title>
<text text-anchor="middle" x="123" y="-183.5" font-family="Helvetica,sans-Serif" font-size="10.00">MinGW</text>
</g>
<!-- dir_37b94406135199a4000f0af9e1d21279 -->
<g id="node2" class="node">
<title>dir_37b94406135199a4000f0af9e1d21279</title>
<g id="a_node2"><a xlink:href="dir_37b94406135199a4000f0af9e1d21279.html" target="_top" xlink:title="include">
<polygon fill="white" stroke="red" points="78,-132 24,-132 24,-96 78,-96 78,-132"/>
<text text-anchor="middle" x="51" y="-111.5" font-family="Helvetica,sans-Serif" font-size="10.00">include</text>
</a>
</g>
</g>
<!-- dir_0b0195ae23bed7f5a47d9500cb989203 -->
<g id="node3" class="node">
<title>dir_0b0195ae23bed7f5a47d9500cb989203</title>
<g id="a_node3"><a xlink:href="dir_0b0195ae23bed7f5a47d9500cb989203.html" target="_top" xlink:title="lib">
<polygon fill="white" stroke="red" points="78,-60 24,-60 24,-24 78,-24 78,-60"/>
<text text-anchor="middle" x="51" y="-39.5" font-family="Helvetica,sans-Serif" font-size="10.00">lib</text>
</a>
</g>
</g>
<!-- dir_37b94406135199a4000f0af9e1d21279&#45;&gt;dir_0b0195ae23bed7f5a47d9500cb989203 -->
<g id="edge1" class="edge">
<title>dir_37b94406135199a4000f0af9e1d21279&#45;&gt;dir_0b0195ae23bed7f5a47d9500cb989203</title>
<path fill="none" stroke="black" d="M45.08,-95.7C44.29,-87.98 44.06,-78.71 44.4,-70.11"/>
<polygon fill="black" stroke="black" points="47.9,-70.32 45.1,-60.1 40.92,-69.84 47.9,-70.32"/>
<g id="a_edge1&#45;headlabel"><a xlink:href="dir_000007_000085.html" target="_top" xlink:title="26">
<text text-anchor="middle" x="50.48" y="-71.61" font-family="Helvetica,sans-Serif" font-size="10.00">26</text>
</a>
</g>
</g>
<!-- dir_0b0195ae23bed7f5a47d9500cb989203&#45;&gt;dir_37b94406135199a4000f0af9e1d21279 -->
<g id="edge3" class="edge">
<title>dir_0b0195ae23bed7f5a47d9500cb989203&#45;&gt;dir_37b94406135199a4000f0af9e1d21279</title>
<path fill="none" stroke="black" d="M56.9,-60.1C57.7,-67.79 57.94,-77.05 57.6,-85.67"/>
<polygon fill="black" stroke="black" points="54.11,-85.48 56.92,-95.7 61.09,-85.96 54.11,-85.48"/>
<g id="a_edge3&#45;headlabel"><a xlink:href="dir_000085_000007.html" target="_top" xlink:title="1">
<text text-anchor="middle" x="51.52" y="-79.2" font-family="Helvetica,sans-Serif" font-size="10.00">1</text>
</a>
</g>
</g>
<!-- dir_a3eb339b3eb101b361b1f1fe642c69fe -->
<g id="node4" class="node">
<title>dir_a3eb339b3eb101b361b1f1fe642c69fe</title>
<g id="a_node4"><a xlink:href="dir_a3eb339b3eb101b361b1f1fe642c69fe.html" target="_top" xlink:title="msys">
<polygon fill="white" stroke="red" points="78,-204 24,-204 24,-168 78,-168 78,-204"/>
<text text-anchor="middle" x="51" y="-183.5" font-family="Helvetica,sans-Serif" font-size="10.00">msys</text>
</a>
</g>
</g>
<!-- dir_a3eb339b3eb101b361b1f1fe642c69fe&#45;&gt;dir_37b94406135199a4000f0af9e1d21279 -->
<g id="edge2" class="edge">
<title>dir_a3eb339b3eb101b361b1f1fe642c69fe&#45;&gt;dir_37b94406135199a4000f0af9e1d21279</title>
<path fill="none" stroke="black" d="M51,-167.7C51,-159.98 51,-150.71 51,-142.11"/>
<polygon fill="black" stroke="black" points="54.5,-142.1 51,-132.1 47.5,-142.1 54.5,-142.1"/>
<g id="a_edge2&#45;headlabel"><a xlink:href="dir_000099_000007.html" target="_top" xlink:title="1">
<text text-anchor="middle" x="57.34" y="-143.2" font-family="Helvetica,sans-Serif" font-size="10.00">1</text>
</a>
</g>
</g>
</g>
</svg>
