<?xml version="1.0" encoding="UTF-8" standalone="no"?>
<!DOCTYPE svg PUBLIC "-//W3C//DTD SVG 1.1//EN"
 "http://www.w3.org/Graphics/SVG/1.1/DTD/svg11.dtd">
<!-- Generated by graphviz version 2.43.0 (0)
 -->
<!-- Title: Source/Game/CGame Pages: 1 -->
<svg width="145pt" height="367pt"
 viewBox="0.00 0.00 145.44 367.00" xmlns="http://www.w3.org/2000/svg" xmlns:xlink="http://www.w3.org/1999/xlink">
<g id="graph0" class="graph" transform="scale(1 1) rotate(0) translate(4 363)">
<title>Source/Game/CGame</title>
<g id="clust1" class="cluster">
<title>clusterdir_3777292849a1481e53303ca2af78ff89</title>
<g id="a_clust1"><a xlink:href="dir_3777292849a1481e53303ca2af78ff89.html" target="_top" xlink:title="Game">
<polygon fill="#ddddee" stroke="black" points="31.11,-280 31.11,-351 101.11,-351 101.11,-280 31.11,-280"/>
<text text-anchor="middle" x="66.11" y="-339" font-family="Helvetica,sans-Serif" font-size="10.00">Game</text>
</a>
</g>
</g>
<!-- dir_0c066f7b744f4e22eb15b267f3daadd2 -->
<g id="node1" class="node">
<title>dir_0c066f7b744f4e22eb15b267f3daadd2</title>
<g id="a_node1"><a xlink:href="dir_0c066f7b744f4e22eb15b267f3daadd2.html" target="_top" xlink:title="CGame">
<polygon fill="#eeeeff" stroke="black" points="93.11,-324 39.11,-324 39.11,-288 93.11,-288 93.11,-324"/>
<text text-anchor="middle" x="66.11" y="-303.5" font-family="Helvetica,sans-Serif" font-size="10.00">CGame</text>
</a>
</g>
</g>
<!-- dir_1e6a22d8e928d3bb9eb703c3e13f4167 -->
<g id="node2" class="node">
<title>dir_1e6a22d8e928d3bb9eb703c3e13f4167</title>
<g id="a_node2"><a xlink:href="dir_1e6a22d8e928d3bb9eb703c3e13f4167.html" target="_top" xlink:title="Game">
<polygon fill="none" stroke="black" points="121.11,-252 67.11,-252 67.11,-216 121.11,-216 121.11,-252"/>
<text text-anchor="middle" x="94.11" y="-231.5" font-family="Helvetica,sans-Serif" font-size="10.00">Game</text>
</a>
</g>
</g>
<!-- dir_0c066f7b744f4e22eb15b267f3daadd2&#45;&gt;dir_1e6a22d8e928d3bb9eb703c3e13f4167 -->
<g id="edge1" class="edge">
<title>dir_0c066f7b744f4e22eb15b267f3daadd2&#45;&gt;dir_1e6a22d8e928d3bb9eb703c3e13f4167</title>
<path fill="none" stroke="black" d="M73.03,-287.7C76.18,-279.81 79.99,-270.3 83.49,-261.55"/>
<polygon fill="black" stroke="black" points="86.8,-262.69 87.27,-252.1 80.3,-260.09 86.8,-262.69"/>
<g id="a_edge1&#45;headlabel"><a xlink:href="dir_000066_000068.html" target="_top" xlink:title="3">
<text text-anchor="middle" x="88.1" y="-264.58" font-family="Helvetica,sans-Serif" font-size="10.00">3</text>
</a>
</g>
</g>
<!-- dir_3fdf0a3096c063d7026a77b0671575e8 -->
<g id="node3" class="node">
<title>dir_3fdf0a3096c063d7026a77b0671575e8</title>
<g id="a_node3"><a xlink:href="dir_3fdf0a3096c063d7026a77b0671575e8.html" target="_top" xlink:title="UI">
<polygon fill="none" stroke="red" points="66.11,-180 12.11,-180 12.11,-144 66.11,-144 66.11,-180"/>
<text text-anchor="middle" x="39.11" y="-159.5" font-family="Helvetica,sans-Serif" font-size="10.00">UI</text>
</a>
</g>
</g>
<!-- dir_0c066f7b744f4e22eb15b267f3daadd2&#45;&gt;dir_3fdf0a3096c063d7026a77b0671575e8 -->
<g id="edge2" class="edge">
<title>dir_0c066f7b744f4e22eb15b267f3daadd2&#45;&gt;dir_3fdf0a3096c063d7026a77b0671575e8</title>
<path fill="none" stroke="black" d="M62.85,-287.87C58.25,-263.67 49.79,-219.21 44.32,-190.39"/>
<polygon fill="black" stroke="black" points="47.68,-189.36 42.38,-180.19 40.8,-190.67 47.68,-189.36"/>
<g id="a_edge2&#45;headlabel"><a xlink:href="dir_000066_000071.html" target="_top" xlink:title="2">
<text text-anchor="middle" x="51.14" y="-189.86" font-family="Helvetica,sans-Serif" font-size="10.00">2</text>
</a>
</g>
</g>
<!-- dir_029e54de912e6402e7ca9925aa09d11f -->
<g id="node4" class="node">
<title>dir_029e54de912e6402e7ca9925aa09d11f</title>
<g id="a_node4"><a xlink:href="dir_029e54de912e6402e7ca9925aa09d11f.html" target="_top" xlink:title="Shared">
<polygon fill="none" stroke="black" points="76.11,-36 22.11,-36 22.11,0 76.11,0 76.11,-36"/>
<text text-anchor="middle" x="49.11" y="-15.5" font-family="Helvetica,sans-Serif" font-size="10.00">Shared</text>
</a>
</g>
</g>
<!-- dir_0c066f7b744f4e22eb15b267f3daadd2&#45;&gt;dir_029e54de912e6402e7ca9925aa09d11f -->
<g id="edge3" class="edge">
<title>dir_0c066f7b744f4e22eb15b267f3daadd2&#45;&gt;dir_029e54de912e6402e7ca9925aa09d11f</title>
<path fill="none" stroke="black" d="M54.13,-287.8C38.77,-264.6 12.94,-221.37 3.11,-180 -8.29,-132.07 15.56,-77.04 32.99,-45.32"/>
<polygon fill="black" stroke="black" points="36.24,-46.68 38.14,-36.26 30.16,-43.22 36.24,-46.68"/>
<g id="a_edge3&#45;headlabel"><a xlink:href="dir_000066_000074.html" target="_top" xlink:title="2">
<text text-anchor="middle" x="36.93" y="-48.71" font-family="Helvetica,sans-Serif" font-size="10.00">2</text>
</a>
</g>
</g>
<!-- dir_5405398c23c020946029b9f4e6e04094 -->
<g id="node5" class="node">
<title>dir_5405398c23c020946029b9f4e6e04094</title>
<g id="a_node5"><a xlink:href="dir_5405398c23c020946029b9f4e6e04094.html" target="_top" xlink:title="Engine">
<polygon fill="none" stroke="red" points="104.11,-108 50.11,-108 50.11,-72 104.11,-72 104.11,-108"/>
<text text-anchor="middle" x="77.11" y="-87.5" font-family="Helvetica,sans-Serif" font-size="10.00">Engine</text>
</a>
</g>
</g>
<!-- dir_0c066f7b744f4e22eb15b267f3daadd2&#45;&gt;dir_5405398c23c020946029b9f4e6e04094 -->
<g id="edge4" class="edge">
<title>dir_0c066f7b744f4e22eb15b267f3daadd2&#45;&gt;dir_5405398c23c020946029b9f4e6e04094</title>
<path fill="none" stroke="black" d="M93.2,-290.39C106.99,-281.34 122.43,-268.32 130.11,-252 151.63,-206.24 120.37,-149.37 97.5,-116.92"/>
<polygon fill="black" stroke="black" points="100.04,-114.47 91.32,-108.45 94.39,-118.59 100.04,-114.47"/>
<g id="a_edge4&#45;headlabel"><a xlink:href="dir_000066_000003.html" target="_top" xlink:title="1">
<text text-anchor="middle" x="104.45" y="-113.2" font-family="Helvetica,sans-Serif" font-size="10.00">1</text>
</a>
</g>
</g>
<!-- dir_1e6a22d8e928d3bb9eb703c3e13f4167&#45;&gt;dir_3fdf0a3096c063d7026a77b0671575e8 -->
<g id="edge5" class="edge">
<title>dir_1e6a22d8e928d3bb9eb703c3e13f4167&#45;&gt;dir_3fdf0a3096c063d7026a77b0671575e8</title>
<path fill="none" stroke="black" d="M74.6,-215.7C67.29,-207.47 59.24,-197.48 52.56,-188.42"/>
<polygon fill="black" stroke="black" points="55.3,-186.23 46.65,-180.1 49.59,-190.28 55.3,-186.23"/>
<g id="a_edge5&#45;headlabel"><a xlink:href="dir_000068_000071.html" target="_top" xlink:title="1">
<text text-anchor="middle" x="59.69" y="-185.01" font-family="Helvetica,sans-Serif" font-size="10.00">1</text>
</a>
</g>
</g>
<!-- dir_1e6a22d8e928d3bb9eb703c3e13f4167&#45;&gt;dir_029e54de912e6402e7ca9925aa09d11f -->
<g id="edge6" class="edge">
<title>dir_1e6a22d8e928d3bb9eb703c3e13f4167&#45;&gt;dir_029e54de912e6402e7ca9925aa09d11f</title>
<path fill="none" stroke="black" d="M101.98,-215.58C114.6,-184.95 135.74,-120.14 113.11,-72 106.93,-58.87 95.73,-47.87 84.4,-39.36"/>
<polygon fill="black" stroke="black" points="86.4,-36.49 76.2,-33.61 82.38,-42.22 86.4,-36.49"/>
<g id="a_edge6&#45;headlabel"><a xlink:href="dir_000068_000074.html" target="_top" xlink:title="4">
<text text-anchor="middle" x="90.97" y="-33.73" font-family="Helvetica,sans-Serif" font-size="10.00">4</text>
</a>
</g>
</g>
<!-- dir_3fdf0a3096c063d7026a77b0671575e8&#45;&gt;dir_1e6a22d8e928d3bb9eb703c3e13f4167 -->
<g id="edge7" class="edge">
<title>dir_3fdf0a3096c063d7026a77b0671575e8&#45;&gt;dir_1e6a22d8e928d3bb9eb703c3e13f4167</title>
<path fill="none" stroke="black" d="M58.44,-180.1C65.74,-188.3 73.79,-198.28 80.49,-207.36"/>
<polygon fill="black" stroke="black" points="77.78,-209.58 86.43,-215.7 83.48,-205.52 77.78,-209.58"/>
<g id="a_edge7&#45;headlabel"><a xlink:href="dir_000071_000068.html" target="_top" xlink:title="1">
<text text-anchor="middle" x="73.38" y="-205.8" font-family="Helvetica,sans-Serif" font-size="10.00">1</text>
</a>
</g>
</g>
<!-- dir_3fdf0a3096c063d7026a77b0671575e8&#45;&gt;dir_029e54de912e6402e7ca9925aa09d11f -->
<g id="edge8" class="edge">
<title>dir_3fdf0a3096c063d7026a77b0671575e8&#45;&gt;dir_029e54de912e6402e7ca9925aa09d11f</title>
<path fill="none" stroke="black" d="M38.85,-143.9C38.72,-125.96 38.95,-96.94 41.11,-72 41.84,-63.53 43.07,-54.35 44.35,-46.05"/>
<polygon fill="black" stroke="black" points="47.81,-46.55 45.96,-36.12 40.9,-45.43 47.81,-46.55"/>
<g id="a_edge8&#45;headlabel"><a xlink:href="dir_000071_000074.html" target="_top" xlink:title="2">
<text text-anchor="middle" x="50.04" y="-48.05" font-family="Helvetica,sans-Serif" font-size="10.00">2</text>
</a>
</g>
</g>
<!-- dir_3fdf0a3096c063d7026a77b0671575e8&#45;&gt;dir_5405398c23c020946029b9f4e6e04094 -->
<g id="edge9" class="edge">
<title>dir_3fdf0a3096c063d7026a77b0671575e8&#45;&gt;dir_5405398c23c020946029b9f4e6e04094</title>
<path fill="none" stroke="black" d="M42.58,-143.7C46.16,-135.56 51.31,-125.69 56.62,-116.7"/>
<polygon fill="black" stroke="black" points="59.65,-118.45 61.93,-108.1 53.7,-114.78 59.65,-118.45"/>
<g id="a_edge9&#45;headlabel"><a xlink:href="dir_000071_000003.html" target="_top" xlink:title="4">
<text text-anchor="middle" x="60.18" y="-120.5" font-family="Helvetica,sans-Serif" font-size="10.00">4</text>
</a>
</g>
</g>
<!-- dir_5405398c23c020946029b9f4e6e04094&#45;&gt;dir_1e6a22d8e928d3bb9eb703c3e13f4167 -->
<g id="edge10" class="edge">
<title>dir_5405398c23c020946029b9f4e6e04094&#45;&gt;dir_1e6a22d8e928d3bb9eb703c3e13f4167</title>
<path fill="none" stroke="black" d="M79.16,-108.19C82.07,-132.42 87.39,-176.89 90.84,-205.68"/>
<polygon fill="black" stroke="black" points="87.39,-206.36 92.06,-215.87 94.34,-205.53 87.39,-206.36"/>
<g id="a_edge10&#45;headlabel"><a xlink:href="dir_000003_000068.html" target="_top" xlink:title="3">
<text text-anchor="middle" x="84.15" y="-200.63" font-family="Helvetica,sans-Serif" font-size="10.00">3</text>
</a>
</g>
</g>
<!-- dir_5405398c23c020946029b9f4e6e04094&#45;&gt;dir_3fdf0a3096c063d7026a77b0671575e8 -->
<g id="edge11" class="edge">
<title>dir_5405398c23c020946029b9f4e6e04094&#45;&gt;dir_3fdf0a3096c063d7026a77b0671575e8</title>
<path fill="none" stroke="black" d="M73.72,-108.1C70.16,-116.21 65.03,-126.08 59.72,-135.08"/>
<polygon fill="black" stroke="black" points="56.68,-133.35 54.42,-143.7 62.64,-137.02 56.68,-133.35"/>
<g id="a_edge11&#45;headlabel"><a xlink:href="dir_000003_000071.html" target="_top" xlink:title="1">
<text text-anchor="middle" x="56.15" y="-126.3" font-family="Helvetica,sans-Serif" font-size="10.00">1</text>
</a>
</g>
</g>
<!-- dir_5405398c23c020946029b9f4e6e04094&#45;&gt;dir_029e54de912e6402e7ca9925aa09d11f -->
<g id="edge12" class="edge">
<title>dir_5405398c23c020946029b9f4e6e04094&#45;&gt;dir_029e54de912e6402e7ca9925aa09d11f</title>
<path fill="none" stroke="black" d="M70.19,-71.7C67.03,-63.81 63.23,-54.3 59.73,-45.55"/>
<polygon fill="black" stroke="black" points="62.91,-44.09 55.95,-36.1 56.41,-46.69 62.91,-44.09"/>
<g id="a_edge12&#45;headlabel"><a xlink:href="dir_000003_000074.html" target="_top" xlink:title="53">
<text text-anchor="middle" x="66.88" y="-43.87" font-family="Helvetica,sans-Serif" font-size="10.00">53</text>
</a>
</g>
</g>
</g>
</svg>
