<?xml version="1.0" encoding="UTF-8" standalone="no"?>
<!DOCTYPE svg PUBLIC "-//W3C//DTD SVG 1.1//EN"
 "http://www.w3.org/Graphics/SVG/1.1/DTD/svg11.dtd">
<!-- Generated by graphviz version 2.43.0 (0)
 -->
<!-- Title: Tools/MinGW/include/c++/4.6.1/i686&#45;pc&#45;mingw32 Pages: 1 -->
<svg width="230pt" height="147pt"
 viewBox="0.00 0.00 230.00 147.00" xmlns="http://www.w3.org/2000/svg" xmlns:xlink="http://www.w3.org/1999/xlink">
<g id="graph0" class="graph" transform="scale(1 1) rotate(0) translate(4 143)">
<title>Tools/MinGW/include/c++/4.6.1/i686&#45;pc&#45;mingw32</title>
<g id="clust1" class="cluster">
<title>clusterdir_38844133a778107bc69d5b6979f3101b</title>
<g id="a_clust1"><a xlink:href="dir_38844133a778107bc69d5b6979f3101b.html" target="_top" xlink:title="4.6.1">
<polygon fill="#ddddee" stroke="black" points="8,-8 8,-95 214,-95 214,-8 8,-8"/>
<text text-anchor="middle" x="111" y="-83" font-family="Helvetica,sans-Serif" font-size="10.00">4.6.1</text>
</a>
</g>
</g>
<g id="clust2" class="cluster">
<title>clusterdir_cfc9300d9cfc5dc186e32d267ccfb5fe</title>
<g id="a_clust2"><a xlink:href="dir_cfc9300d9cfc5dc186e32d267ccfb5fe.html" target="_top">
<polygon fill="#eeeeff" stroke="black" points="16,-16 16,-68 206,-68 206,-16 16,-16"/>
</a>
</g>
</g>
<!-- dir_cfc9300d9cfc5dc186e32d267ccfb5fe -->
<g id="node1" class="node">
<title>dir_cfc9300d9cfc5dc186e32d267ccfb5fe</title>
<text text-anchor="middle" x="147" y="-39.5" font-family="Helvetica,sans-Serif" font-size="10.00">i686&#45;pc&#45;mingw32</text>
</g>
<!-- dir_ca415225399d882987ba5a7a5ff1f30d -->
<g id="node2" class="node">
<title>dir_ca415225399d882987ba5a7a5ff1f30d</title>
<g id="a_node2"><a xlink:href="dir_ca415225399d882987ba5a7a5ff1f30d.html" target="_top" xlink:title="bits">
<polygon fill="white" stroke="black" points="78,-60 24,-60 24,-24 78,-24 78,-60"/>
<text text-anchor="middle" x="51" y="-39.5" font-family="Helvetica,sans-Serif" font-size="10.00">bits</text>
</a>
</g>
</g>
<!-- dir_97deb03e76705626d16b4c62e5bcc4c8 -->
<g id="node3" class="node">
<title>dir_97deb03e76705626d16b4c62e5bcc4c8</title>
<g id="a_node3"><a xlink:href="dir_97deb03e76705626d16b4c62e5bcc4c8.html" target="_top" xlink:title="ext">
<polygon fill="none" stroke="red" points="126,-139 72,-139 72,-103 126,-103 126,-139"/>
<text text-anchor="middle" x="99" y="-118.5" font-family="Helvetica,sans-Serif" font-size="10.00">ext</text>
</a>
</g>
</g>
<!-- dir_ca415225399d882987ba5a7a5ff1f30d&#45;&gt;dir_97deb03e76705626d16b4c62e5bcc4c8 -->
<g id="edge3" class="edge">
<title>dir_ca415225399d882987ba5a7a5ff1f30d&#45;&gt;dir_97deb03e76705626d16b4c62e5bcc4c8</title>
<path fill="none" stroke="black" d="M55.91,-60.04C61.14,-70.2 69.08,-83.29 76.81,-94.64"/>
<polygon fill="black" stroke="black" points="74.01,-96.75 82.63,-102.91 79.73,-92.72 74.01,-96.75"/>
<g id="a_edge3&#45;headlabel"><a xlink:href="dir_000083_000056.html" target="_top" xlink:title="27">
<text text-anchor="middle" x="69.62" y="-92.95" font-family="Helvetica,sans-Serif" font-size="10.00">27</text>
</a>
</g>
</g>
<!-- dir_97deb03e76705626d16b4c62e5bcc4c8&#45;&gt;dir_cfc9300d9cfc5dc186e32d267ccfb5fe -->
<g id="edge1" class="edge">
<title>dir_97deb03e76705626d16b4c62e5bcc4c8&#45;&gt;dir_cfc9300d9cfc5dc186e32d267ccfb5fe</title>
<path fill="none" stroke="black" d="M109.65,-102.91C115.93,-92.84 123.99,-79.91 131.02,-68.64"/>
<polygon fill="black" stroke="black" points="134.06,-70.38 136.38,-60.04 128.12,-66.68 134.06,-70.38"/>
<g id="a_edge1&#45;headlabel"><a xlink:href="dir_000056_000082.html" target="_top" xlink:title="20">
<text text-anchor="middle" x="134.56" y="-72.43" font-family="Helvetica,sans-Serif" font-size="10.00">20</text>
</a>
</g>
</g>
<!-- dir_97deb03e76705626d16b4c62e5bcc4c8&#45;&gt;dir_ca415225399d882987ba5a7a5ff1f30d -->
<g id="edge2" class="edge">
<title>dir_97deb03e76705626d16b4c62e5bcc4c8&#45;&gt;dir_ca415225399d882987ba5a7a5ff1f30d</title>
<path fill="none" stroke="black" d="M94.07,-102.91C88.82,-92.74 80.89,-79.65 73.16,-68.3"/>
<polygon fill="black" stroke="black" points="75.96,-66.2 67.34,-60.04 70.24,-70.23 75.96,-66.2"/>
<g id="a_edge2&#45;headlabel"><a xlink:href="dir_000056_000083.html" target="_top" xlink:title="20">
<text text-anchor="middle" x="80.35" y="-65" font-family="Helvetica,sans-Serif" font-size="10.00">20</text>
</a>
</g>
</g>
</g>
</svg>
