<?xml version="1.0" encoding="UTF-8" standalone="no"?>
<!DOCTYPE svg PUBLIC "-//W3C//DTD SVG 1.1//EN"
 "http://www.w3.org/Graphics/SVG/1.1/DTD/svg11.dtd">
<!-- Generated by graphviz version 2.43.0 (0)
 -->
<!-- Title: Tools/MinGW/include Pages: 1 -->
<svg width="470pt" height="231pt"
 viewBox="0.00 0.00 470.00 231.00" xmlns="http://www.w3.org/2000/svg" xmlns:xlink="http://www.w3.org/1999/xlink">
<g id="graph0" class="graph" transform="scale(1 1) rotate(0) translate(4 227)">
<title>Tools/MinGW/include</title>
<g id="clust1" class="cluster">
<title>clusterdir_c7ba7ece096a7780bcf966783558b940</title>
<g id="a_clust1"><a xlink:href="dir_c7ba7ece096a7780bcf966783558b940.html" target="_top" xlink:title="MinGW">
<polygon fill="#ddddee" stroke="black" points="8,-56 8,-215 454,-215 454,-56 8,-56"/>
<text text-anchor="middle" x="231" y="-203" font-family="Helvetica,sans-Serif" font-size="10.00">MinGW</text>
</a>
</g>
</g>
<g id="clust2" class="cluster">
<title>clusterdir_37b94406135199a4000f0af9e1d21279</title>
<g id="a_clust2"><a xlink:href="dir_37b94406135199a4000f0af9e1d21279.html" target="_top">
<polygon fill="#eeeeff" stroke="black" points="16,-64 16,-188 446,-188 446,-64 16,-64"/>
</a>
</g>
</g>
<!-- dir_37b94406135199a4000f0af9e1d21279 -->
<g id="node1" class="node">
<title>dir_37b94406135199a4000f0af9e1d21279</title>
<text text-anchor="middle" x="123" y="-159.5" font-family="Helvetica,sans-Serif" font-size="10.00">include</text>
</g>
<!-- dir_39ece1e4bd3b3459e504316a6a088a0d -->
<g id="node4" class="node">
<title>dir_39ece1e4bd3b3459e504316a6a088a0d</title>
<g id="a_node4"><a xlink:href="dir_39ece1e4bd3b3459e504316a6a088a0d.html" target="_top" xlink:title="freetype2">
<polygon fill="white" stroke="red" points="160,-108 96,-108 96,-72 160,-72 160,-108"/>
<text text-anchor="middle" x="128" y="-87.5" font-family="Helvetica,sans-Serif" font-size="10.00">freetype2</text>
</a>
</g>
</g>
<!-- dir_37b94406135199a4000f0af9e1d21279&#45;&gt;dir_39ece1e4bd3b3459e504316a6a088a0d -->
<g id="edge2" class="edge">
<title>dir_37b94406135199a4000f0af9e1d21279&#45;&gt;dir_39ece1e4bd3b3459e504316a6a088a0d</title>
<path fill="none" stroke="black" d="M124.24,-143.7C124.79,-135.98 125.45,-126.71 126.06,-118.11"/>
<polygon fill="black" stroke="black" points="129.56,-118.33 126.78,-108.1 122.57,-117.83 129.56,-118.33"/>
<g id="a_edge2&#45;headlabel"><a xlink:href="dir_000007_000095.html" target="_top" xlink:title="1">
<text text-anchor="middle" x="132.13" y="-119.62" font-family="Helvetica,sans-Serif" font-size="10.00">1</text>
</a>
</g>
</g>
<!-- dir_978e7b9323ecba37f5d6a0065f668afc -->
<g id="node5" class="node">
<title>dir_978e7b9323ecba37f5d6a0065f668afc</title>
<g id="a_node5"><a xlink:href="dir_978e7b9323ecba37f5d6a0065f668afc.html" target="_top" xlink:title="gdiplus">
<polygon fill="white" stroke="black" points="78,-108 24,-108 24,-72 78,-72 78,-108"/>
<text text-anchor="middle" x="51" y="-87.5" font-family="Helvetica,sans-Serif" font-size="10.00">gdiplus</text>
</a>
</g>
</g>
<!-- dir_37b94406135199a4000f0af9e1d21279&#45;&gt;dir_978e7b9323ecba37f5d6a0065f668afc -->
<g id="edge4" class="edge">
<title>dir_37b94406135199a4000f0af9e1d21279&#45;&gt;dir_978e7b9323ecba37f5d6a0065f668afc</title>
<path fill="none" stroke="black" d="M105.2,-143.7C96.4,-135.14 85.62,-124.66 76,-115.3"/>
<polygon fill="black" stroke="black" points="78.2,-112.57 68.59,-108.1 73.32,-117.58 78.2,-112.57"/>
<g id="a_edge4&#45;headlabel"><a xlink:href="dir_000007_000097.html" target="_top" xlink:title="1">
<text text-anchor="middle" x="82.76" y="-110.54" font-family="Helvetica,sans-Serif" font-size="10.00">1</text>
</a>
</g>
</g>
<!-- dir_e9c0ecb94e8f42518ceb6ef5741fdaf4 -->
<g id="node9" class="node">
<title>dir_e9c0ecb94e8f42518ceb6ef5741fdaf4</title>
<g id="a_node9"><a xlink:href="dir_e9c0ecb94e8f42518ceb6ef5741fdaf4.html" target="_top" xlink:title="sys">
<polygon fill="white" stroke="black" points="304,-108 250,-108 250,-72 304,-72 304,-108"/>
<text text-anchor="middle" x="277" y="-87.5" font-family="Helvetica,sans-Serif" font-size="10.00">sys</text>
</a>
</g>
</g>
<!-- dir_37b94406135199a4000f0af9e1d21279&#45;&gt;dir_e9c0ecb94e8f42518ceb6ef5741fdaf4 -->
<g id="edge3" class="edge">
<title>dir_37b94406135199a4000f0af9e1d21279&#45;&gt;dir_e9c0ecb94e8f42518ceb6ef5741fdaf4</title>
<path fill="none" stroke="black" d="M150.09,-148.11C153.09,-146.71 156.11,-145.32 159,-144 192.53,-128.73 203.21,-125.02 240.42,-108.2"/>
<polygon fill="black" stroke="black" points="242.25,-111.21 249.91,-103.89 239.36,-104.84 242.25,-111.21"/>
<g id="a_edge3&#45;headlabel"><a xlink:href="dir_000007_000010.html" target="_top" xlink:title="8">
<text text-anchor="middle" x="240.16" y="-112.79" font-family="Helvetica,sans-Serif" font-size="10.00">8</text>
</a>
</g>
</g>
<!-- dir_e330e3680f3da017cceba22547562a2e -->
<g id="node2" class="node">
<title>dir_e330e3680f3da017cceba22547562a2e</title>
<g id="a_node2"><a xlink:href="dir_e330e3680f3da017cceba22547562a2e.html" target="_top" xlink:title="c++">
<polygon fill="white" stroke="red" points="438,-180 384,-180 384,-144 438,-144 438,-180"/>
<text text-anchor="middle" x="411" y="-159.5" font-family="Helvetica,sans-Serif" font-size="10.00">c++</text>
</a>
</g>
</g>
<!-- dir_0b0195ae23bed7f5a47d9500cb989203 -->
<g id="node11" class="node">
<title>dir_0b0195ae23bed7f5a47d9500cb989203</title>
<g id="a_node11"><a xlink:href="dir_0b0195ae23bed7f5a47d9500cb989203.html" target="_top" xlink:title="lib">
<polygon fill="none" stroke="red" points="304,-36 250,-36 250,0 304,0 304,-36"/>
<text text-anchor="middle" x="277" y="-15.5" font-family="Helvetica,sans-Serif" font-size="10.00">lib</text>
</a>
</g>
</g>
<!-- dir_e330e3680f3da017cceba22547562a2e&#45;&gt;dir_0b0195ae23bed7f5a47d9500cb989203 -->
<g id="edge7" class="edge">
<title>dir_e330e3680f3da017cceba22547562a2e&#45;&gt;dir_0b0195ae23bed7f5a47d9500cb989203</title>
<path fill="none" stroke="black" d="M407.45,-143.86C401.89,-121.02 389.09,-80.62 364,-56 350.29,-42.55 330.93,-33.66 313.96,-27.98"/>
<polygon fill="black" stroke="black" points="314.89,-24.6 304.3,-24.99 312.82,-31.29 314.89,-24.6"/>
<g id="a_edge7&#45;headlabel"><a xlink:href="dir_000048_000085.html" target="_top" xlink:title="1">
<text text-anchor="middle" x="319.16" y="-20.45" font-family="Helvetica,sans-Serif" font-size="10.00">1</text>
</a>
</g>
</g>
<!-- dir_b859d88a9b6260c589c9f99321754332 -->
<g id="node3" class="node">
<title>dir_b859d88a9b6260c589c9f99321754332</title>
<g id="a_node3"><a xlink:href="dir_b859d88a9b6260c589c9f99321754332.html" target="_top" xlink:title="ddk">
<polygon fill="white" stroke="black" points="294,-180 240,-180 240,-144 294,-144 294,-180"/>
<text text-anchor="middle" x="267" y="-159.5" font-family="Helvetica,sans-Serif" font-size="10.00">ddk</text>
</a>
</g>
</g>
<!-- dir_39ece1e4bd3b3459e504316a6a088a0d&#45;&gt;dir_0b0195ae23bed7f5a47d9500cb989203 -->
<g id="edge1" class="edge">
<title>dir_39ece1e4bd3b3459e504316a6a088a0d&#45;&gt;dir_0b0195ae23bed7f5a47d9500cb989203</title>
<path fill="none" stroke="black" d="M146.61,-71.75C153.31,-66.17 161.16,-60.32 169,-56 191.33,-43.69 218.48,-34.41 239.98,-28.22"/>
<polygon fill="black" stroke="black" points="241.03,-31.56 249.72,-25.52 239.15,-24.82 241.03,-31.56"/>
<g id="a_edge1&#45;headlabel"><a xlink:href="dir_000095_000085.html" target="_top" xlink:title="2">
<text text-anchor="middle" x="238.32" y="-32.76" font-family="Helvetica,sans-Serif" font-size="10.00">2</text>
</a>
</g>
</g>
<!-- dir_978e7b9323ecba37f5d6a0065f668afc&#45;&gt;dir_0b0195ae23bed7f5a47d9500cb989203 -->
<g id="edge8" class="edge">
<title>dir_978e7b9323ecba37f5d6a0065f668afc&#45;&gt;dir_0b0195ae23bed7f5a47d9500cb989203</title>
<path fill="none" stroke="black" d="M66.03,-71.77C71.99,-65.92 79.28,-59.89 87,-56 136.03,-31.27 199.87,-23.04 239.65,-20.31"/>
<polygon fill="black" stroke="black" points="239.94,-23.8 249.71,-19.71 239.52,-16.82 239.94,-23.8"/>
<g id="a_edge8&#45;headlabel"><a xlink:href="dir_000097_000085.html" target="_top" xlink:title="1">
<text text-anchor="middle" x="236.52" y="-24.35" font-family="Helvetica,sans-Serif" font-size="10.00">1</text>
</a>
</g>
</g>
<!-- dir_47cf149e747728b93eb4772a59e9ee11 -->
<g id="node6" class="node">
<title>dir_47cf149e747728b93eb4772a59e9ee11</title>
<g id="a_node6"><a xlink:href="dir_47cf149e747728b93eb4772a59e9ee11.html" target="_top" xlink:title="GL">
<polygon fill="white" stroke="black" points="232,-108 178,-108 178,-72 232,-72 232,-108"/>
<text text-anchor="middle" x="205" y="-87.5" font-family="Helvetica,sans-Serif" font-size="10.00">GL</text>
</a>
</g>
</g>
<!-- dir_47cf149e747728b93eb4772a59e9ee11&#45;&gt;dir_0b0195ae23bed7f5a47d9500cb989203 -->
<g id="edge5" class="edge">
<title>dir_47cf149e747728b93eb4772a59e9ee11&#45;&gt;dir_0b0195ae23bed7f5a47d9500cb989203</title>
<path fill="none" stroke="black" d="M222.8,-71.7C231.6,-63.14 242.38,-52.66 252,-43.3"/>
<polygon fill="black" stroke="black" points="254.68,-45.58 259.41,-36.1 249.8,-40.57 254.68,-45.58"/>
<g id="a_edge5&#45;headlabel"><a xlink:href="dir_000098_000085.html" target="_top" xlink:title="2">
<text text-anchor="middle" x="254.08" y="-47.63" font-family="Helvetica,sans-Serif" font-size="10.00">2</text>
</a>
</g>
</g>
<!-- dir_06e5953e9257e2dc48daba191ce45a0c -->
<g id="node7" class="node">
<title>dir_06e5953e9257e2dc48daba191ce45a0c</title>
<g id="a_node7"><a xlink:href="dir_06e5953e9257e2dc48daba191ce45a0c.html" target="_top" xlink:title="ogg">
<polygon fill="white" stroke="black" points="366,-180 312,-180 312,-144 366,-144 366,-180"/>
<text text-anchor="middle" x="339" y="-159.5" font-family="Helvetica,sans-Serif" font-size="10.00">ogg</text>
</a>
</g>
</g>
<!-- dir_06e5953e9257e2dc48daba191ce45a0c&#45;&gt;dir_e9c0ecb94e8f42518ceb6ef5741fdaf4 -->
<g id="edge9" class="edge">
<title>dir_06e5953e9257e2dc48daba191ce45a0c&#45;&gt;dir_e9c0ecb94e8f42518ceb6ef5741fdaf4</title>
<path fill="none" stroke="black" d="M323.67,-143.7C316.24,-135.3 307.18,-125.07 299.02,-115.86"/>
<polygon fill="black" stroke="black" points="301.4,-113.27 292.15,-108.1 296.16,-117.91 301.4,-113.27"/>
<g id="a_edge9&#45;headlabel"><a xlink:href="dir_000014_000010.html" target="_top" xlink:title="1">
<text text-anchor="middle" x="305.91" y="-111.58" font-family="Helvetica,sans-Serif" font-size="10.00">1</text>
</a>
</g>
</g>
<!-- dir_06e5953e9257e2dc48daba191ce45a0c&#45;&gt;dir_0b0195ae23bed7f5a47d9500cb989203 -->
<g id="edge10" class="edge">
<title>dir_06e5953e9257e2dc48daba191ce45a0c&#45;&gt;dir_0b0195ae23bed7f5a47d9500cb989203</title>
<path fill="none" stroke="black" d="M345.72,-143.98C353.22,-121.98 362.32,-83.28 346,-56 338.77,-43.92 326.09,-35.55 313.56,-29.88"/>
<polygon fill="black" stroke="black" points="314.68,-26.56 304.1,-26.05 312.05,-33.05 314.68,-26.56"/>
<g id="a_edge10&#45;headlabel"><a xlink:href="dir_000014_000085.html" target="_top" xlink:title="1">
<text text-anchor="middle" x="319.08" y="-22.78" font-family="Helvetica,sans-Serif" font-size="10.00">1</text>
</a>
</g>
</g>
<!-- dir_9e74be83630ff7ae8bf7f12050c7d132 -->
<g id="node8" class="node">
<title>dir_9e74be83630ff7ae8bf7f12050c7d132</title>
<g id="a_node8"><a xlink:href="dir_9e74be83630ff7ae8bf7f12050c7d132.html" target="_top" xlink:title="SDL">
<polygon fill="white" stroke="black" points="222,-180 168,-180 168,-144 222,-144 222,-180"/>
<text text-anchor="middle" x="195" y="-159.5" font-family="Helvetica,sans-Serif" font-size="10.00">SDL</text>
</a>
</g>
</g>
<!-- dir_9e74be83630ff7ae8bf7f12050c7d132&#45;&gt;dir_47cf149e747728b93eb4772a59e9ee11 -->
<g id="edge11" class="edge">
<title>dir_9e74be83630ff7ae8bf7f12050c7d132&#45;&gt;dir_47cf149e747728b93eb4772a59e9ee11</title>
<path fill="none" stroke="black" d="M197.47,-143.7C198.57,-135.98 199.9,-126.71 201.13,-118.11"/>
<polygon fill="black" stroke="black" points="204.61,-118.5 202.56,-108.1 197.68,-117.51 204.61,-118.5"/>
<g id="a_edge11&#45;headlabel"><a xlink:href="dir_000031_000098.html" target="_top" xlink:title="2">
<text text-anchor="middle" x="206.91" y="-119.96" font-family="Helvetica,sans-Serif" font-size="10.00">2</text>
</a>
</g>
</g>
<!-- dir_9e74be83630ff7ae8bf7f12050c7d132&#45;&gt;dir_e9c0ecb94e8f42518ceb6ef5741fdaf4 -->
<g id="edge12" class="edge">
<title>dir_9e74be83630ff7ae8bf7f12050c7d132&#45;&gt;dir_e9c0ecb94e8f42518ceb6ef5741fdaf4</title>
<path fill="none" stroke="black" d="M215.27,-143.7C225.5,-134.97 238.06,-124.24 249.18,-114.75"/>
<polygon fill="black" stroke="black" points="251.63,-117.26 256.96,-108.1 247.09,-111.94 251.63,-117.26"/>
<g id="a_edge12&#45;headlabel"><a xlink:href="dir_000031_000010.html" target="_top" xlink:title="1">
<text text-anchor="middle" x="250.74" y="-119.25" font-family="Helvetica,sans-Serif" font-size="10.00">1</text>
</a>
</g>
</g>
<!-- dir_9e74be83630ff7ae8bf7f12050c7d132&#45;&gt;dir_0b0195ae23bed7f5a47d9500cb989203 -->
<g id="edge13" class="edge">
<title>dir_9e74be83630ff7ae8bf7f12050c7d132&#45;&gt;dir_0b0195ae23bed7f5a47d9500cb989203</title>
<path fill="none" stroke="black" d="M222.09,-148.11C225.09,-146.71 228.11,-145.32 231,-144 267.22,-127.5 291.24,-141.32 313,-108 325.64,-88.65 321.7,-77.41 313,-56 311.24,-51.68 308.72,-47.59 305.8,-43.81"/>
<polygon fill="black" stroke="black" points="308.2,-41.24 298.95,-36.07 302.96,-45.88 308.2,-41.24"/>
<g id="a_edge13&#45;headlabel"><a xlink:href="dir_000031_000085.html" target="_top" xlink:title="2">
<text text-anchor="middle" x="312.71" y="-39.55" font-family="Helvetica,sans-Serif" font-size="10.00">2</text>
</a>
</g>
</g>
<!-- dir_e9c0ecb94e8f42518ceb6ef5741fdaf4&#45;&gt;dir_0b0195ae23bed7f5a47d9500cb989203 -->
<g id="edge6" class="edge">
<title>dir_e9c0ecb94e8f42518ceb6ef5741fdaf4&#45;&gt;dir_0b0195ae23bed7f5a47d9500cb989203</title>
<path fill="none" stroke="black" d="M277,-71.7C277,-63.98 277,-54.71 277,-46.11"/>
<polygon fill="black" stroke="black" points="280.5,-46.1 277,-36.1 273.5,-46.1 280.5,-46.1"/>
<g id="a_edge6&#45;headlabel"><a xlink:href="dir_000010_000085.html" target="_top" xlink:title="3">
<text text-anchor="middle" x="283.34" y="-47.2" font-family="Helvetica,sans-Serif" font-size="10.00">3</text>
</a>
</g>
</g>
<!-- dir_412bc38197c1242b30c4172723d1aa07 -->
<g id="node10" class="node">
<title>dir_412bc38197c1242b30c4172723d1aa07</title>
<g id="a_node10"><a xlink:href="dir_412bc38197c1242b30c4172723d1aa07.html" target="_top" xlink:title="vorbis">
<polygon fill="white" stroke="black" points="78,-180 24,-180 24,-144 78,-144 78,-180"/>
<text text-anchor="middle" x="51" y="-159.5" font-family="Helvetica,sans-Serif" font-size="10.00">vorbis</text>
</a>
</g>
</g>
</g>
</svg>
