<?xml version="1.0" encoding="UTF-8" standalone="no"?>
<!DOCTYPE svg PUBLIC "-//W3C//DTD SVG 1.1//EN"
 "http://www.w3.org/Graphics/SVG/1.1/DTD/svg11.dtd">
<!-- Generated by graphviz version 2.43.0 (0)
 -->
<!-- Title: Engine/tools Pages: 1 -->
<svg width="254pt" height="231pt"
 viewBox="0.00 0.00 254.00 231.00" xmlns="http://www.w3.org/2000/svg" xmlns:xlink="http://www.w3.org/1999/xlink">
<g id="graph0" class="graph" transform="scale(1 1) rotate(0) translate(4 227)">
<title>Engine/tools</title>
<g id="clust1" class="cluster">
<title>clusterdir_0b6ee6e7e9547e675db4add2e5de97da</title>
<g id="a_clust1"><a xlink:href="dir_0b6ee6e7e9547e675db4add2e5de97da.html" target="_top" xlink:title="Engine">
<polygon fill="#ddddee" stroke="black" points="8,-128 8,-215 238,-215 238,-128 8,-128"/>
<text text-anchor="middle" x="123" y="-203" font-family="Helvetica,sans-Serif" font-size="10.00">Engine</text>
</a>
</g>
</g>
<g id="clust2" class="cluster">
<title>clusterdir_b046fe2f0489b3eb23c557526f43f45e</title>
<g id="a_clust2"><a xlink:href="dir_b046fe2f0489b3eb23c557526f43f45e.html" target="_top">
<polygon fill="#eeeeff" stroke="black" points="16,-136 16,-188 230,-188 230,-136 16,-136"/>
</a>
</g>
</g>
<!-- dir_b046fe2f0489b3eb23c557526f43f45e -->
<g id="node1" class="node">
<title>dir_b046fe2f0489b3eb23c557526f43f45e</title>
<text text-anchor="middle" x="195" y="-159.5" font-family="Helvetica,sans-Serif" font-size="10.00">tools</text>
</g>
<!-- dir_dc641978df8b81beec40158e8298033e -->
<g id="node2" class="node">
<title>dir_dc641978df8b81beec40158e8298033e</title>
<g id="a_node2"><a xlink:href="dir_dc641978df8b81beec40158e8298033e.html" target="_top" xlink:title="asm">
<polygon fill="white" stroke="black" points="78,-180 24,-180 24,-144 78,-144 78,-180"/>
<text text-anchor="middle" x="51" y="-159.5" font-family="Helvetica,sans-Serif" font-size="10.00">asm</text>
</a>
</g>
</g>
<!-- dir_7e461070e7b716e896e0d97cd6a82321 -->
<g id="node4" class="node">
<title>dir_7e461070e7b716e896e0d97cd6a82321</title>
<g id="a_node4"><a xlink:href="dir_7e461070e7b716e896e0d97cd6a82321.html" target="_top" xlink:title="Tools">
<polygon fill="none" stroke="red" points="114,-36 60,-36 60,0 114,0 114,-36"/>
<text text-anchor="middle" x="87" y="-15.5" font-family="Helvetica,sans-Serif" font-size="10.00">Tools</text>
</a>
</g>
</g>
<!-- dir_dc641978df8b81beec40158e8298033e&#45;&gt;dir_7e461070e7b716e896e0d97cd6a82321 -->
<g id="edge1" class="edge">
<title>dir_dc641978df8b81beec40158e8298033e&#45;&gt;dir_7e461070e7b716e896e0d97cd6a82321</title>
<path fill="none" stroke="black" d="M48.07,-143.83C45.62,-125.57 43.6,-96.07 51,-72 54.01,-62.22 59.51,-52.62 65.32,-44.33"/>
<polygon fill="black" stroke="black" points="68.19,-46.33 71.39,-36.23 62.59,-42.13 68.19,-46.33"/>
<g id="a_edge1&#45;headlabel"><a xlink:href="dir_000034_000005.html" target="_top" xlink:title="3">
<text text-anchor="middle" x="68.31" y="-48.41" font-family="Helvetica,sans-Serif" font-size="10.00">3</text>
</a>
</g>
</g>
<!-- dir_da555cc5272c9bb1aca8990be5c6787a -->
<g id="node5" class="node">
<title>dir_da555cc5272c9bb1aca8990be5c6787a</title>
<g id="a_node5"><a xlink:href="dir_da555cc5272c9bb1aca8990be5c6787a.html" target="_top" xlink:title="Shared">
<polygon fill="none" stroke="black" points="114,-108 60,-108 60,-72 114,-72 114,-108"/>
<text text-anchor="middle" x="87" y="-87.5" font-family="Helvetica,sans-Serif" font-size="10.00">Shared</text>
</a>
</g>
</g>
<!-- dir_dc641978df8b81beec40158e8298033e&#45;&gt;dir_da555cc5272c9bb1aca8990be5c6787a -->
<g id="edge2" class="edge">
<title>dir_dc641978df8b81beec40158e8298033e&#45;&gt;dir_da555cc5272c9bb1aca8990be5c6787a</title>
<path fill="none" stroke="black" d="M59.9,-143.7C64,-135.73 68.95,-126.1 73.49,-117.26"/>
<polygon fill="black" stroke="black" points="76.74,-118.6 78.2,-108.1 70.52,-115.4 76.74,-118.6"/>
<g id="a_edge2&#45;headlabel"><a xlink:href="dir_000034_000044.html" target="_top" xlink:title="2">
<text text-anchor="middle" x="77.62" y="-120.59" font-family="Helvetica,sans-Serif" font-size="10.00">2</text>
</a>
</g>
</g>
<!-- dir_7bae071bd5f9112e252be66106c9504a -->
<g id="node3" class="node">
<title>dir_7bae071bd5f9112e252be66106c9504a</title>
<g id="a_node3"><a xlink:href="dir_7bae071bd5f9112e252be66106c9504a.html" target="_top" xlink:title="lcc">
<polygon fill="white" stroke="red" points="150,-180 96,-180 96,-144 150,-144 150,-180"/>
<text text-anchor="middle" x="123" y="-159.5" font-family="Helvetica,sans-Serif" font-size="10.00">lcc</text>
</a>
</g>
</g>
<!-- dir_7bae071bd5f9112e252be66106c9504a&#45;&gt;dir_7e461070e7b716e896e0d97cd6a82321 -->
<g id="edge3" class="edge">
<title>dir_7bae071bd5f9112e252be66106c9504a&#45;&gt;dir_7e461070e7b716e896e0d97cd6a82321</title>
<path fill="none" stroke="black" d="M125.93,-143.83C128.38,-125.57 130.4,-96.07 123,-72 119.99,-62.22 114.49,-52.62 108.68,-44.33"/>
<polygon fill="black" stroke="black" points="111.41,-42.13 102.61,-36.23 105.81,-46.33 111.41,-42.13"/>
<g id="a_edge3&#45;headlabel"><a xlink:href="dir_000017_000005.html" target="_top" xlink:title="7">
<text text-anchor="middle" x="115.83" y="-40.8" font-family="Helvetica,sans-Serif" font-size="10.00">7</text>
</a>
</g>
</g>
<!-- dir_7bae071bd5f9112e252be66106c9504a&#45;&gt;dir_da555cc5272c9bb1aca8990be5c6787a -->
<g id="edge4" class="edge">
<title>dir_7bae071bd5f9112e252be66106c9504a&#45;&gt;dir_da555cc5272c9bb1aca8990be5c6787a</title>
<path fill="none" stroke="black" d="M114.1,-143.7C110,-135.73 105.05,-126.1 100.51,-117.26"/>
<polygon fill="black" stroke="black" points="103.48,-115.4 95.8,-108.1 97.26,-118.6 103.48,-115.4"/>
<g id="a_edge4&#45;headlabel"><a xlink:href="dir_000017_000044.html" target="_top" xlink:title="1">
<text text-anchor="middle" x="107.65" y="-114.79" font-family="Helvetica,sans-Serif" font-size="10.00">1</text>
</a>
</g>
</g>
<!-- dir_da555cc5272c9bb1aca8990be5c6787a&#45;&gt;dir_7e461070e7b716e896e0d97cd6a82321 -->
<g id="edge5" class="edge">
<title>dir_da555cc5272c9bb1aca8990be5c6787a&#45;&gt;dir_7e461070e7b716e896e0d97cd6a82321</title>
<path fill="none" stroke="black" d="M87,-71.7C87,-63.98 87,-54.71 87,-46.11"/>
<polygon fill="black" stroke="black" points="90.5,-46.1 87,-36.1 83.5,-46.1 90.5,-46.1"/>
<g id="a_edge5&#45;headlabel"><a xlink:href="dir_000044_000005.html" target="_top" xlink:title="17">
<text text-anchor="middle" x="93.34" y="-47.2" font-family="Helvetica,sans-Serif" font-size="10.00">17</text>
</a>
</g>
</g>
</g>
</svg>
