<?xml version="1.0" encoding="UTF-8" standalone="no"?>
<!DOCTYPE svg PUBLIC "-//W3C//DTD SVG 1.1//EN"
 "http://www.w3.org/Graphics/SVG/1.1/DTD/svg11.dtd">
<!-- Generated by graphviz version 2.43.0 (0)
 -->
<!-- Title: Game Pages: 1 -->
<svg width="240pt" height="276pt"
 viewBox="0.00 0.00 240.44 276.00" xmlns="http://www.w3.org/2000/svg" xmlns:xlink="http://www.w3.org/1999/xlink">
<g id="graph0" class="graph" transform="scale(1 1) rotate(0) translate(4 272)">
<title>Game</title>
<g id="clust1" class="cluster">
<title>clusterdir_c33286056d2acf479cd8641ef845fec1</title>
<g id="a_clust1"><a xlink:href="dir_c33286056d2acf479cd8641ef845fec1.html" target="_top">
<polygon fill="#eeeeff" stroke="black" points="8,-64 8,-260 150,-260 150,-64 8,-64"/>
</a>
</g>
</g>
<!-- dir_c33286056d2acf479cd8641ef845fec1 -->
<g id="node1" class="node">
<title>dir_c33286056d2acf479cd8641ef845fec1</title>
<text text-anchor="middle" x="115" y="-231.5" font-family="Helvetica,sans-Serif" font-size="10.00">Game</text>
</g>
<!-- dir_440271bfcd227cf7dbb24a7f74b68394 -->
<g id="node2" class="node">
<title>dir_440271bfcd227cf7dbb24a7f74b68394</title>
<g id="a_node2"><a xlink:href="dir_440271bfcd227cf7dbb24a7f74b68394.html" target="_top" xlink:title="CGame">
<polygon fill="white" stroke="black" points="70,-252 16,-252 16,-216 70,-216 70,-252"/>
<text text-anchor="middle" x="43" y="-231.5" font-family="Helvetica,sans-Serif" font-size="10.00">CGame</text>
</a>
</g>
</g>
<!-- dir_81f9b32d17db752a6d362cb459326c51 -->
<g id="node3" class="node">
<title>dir_81f9b32d17db752a6d362cb459326c51</title>
<g id="a_node3"><a xlink:href="dir_81f9b32d17db752a6d362cb459326c51.html" target="_top" xlink:title="Game">
<polygon fill="white" stroke="black" points="96,-180 42,-180 42,-144 96,-144 96,-180"/>
<text text-anchor="middle" x="69" y="-159.5" font-family="Helvetica,sans-Serif" font-size="10.00">Game</text>
</a>
</g>
</g>
<!-- dir_440271bfcd227cf7dbb24a7f74b68394&#45;&gt;dir_81f9b32d17db752a6d362cb459326c51 -->
<g id="edge11" class="edge">
<title>dir_440271bfcd227cf7dbb24a7f74b68394&#45;&gt;dir_81f9b32d17db752a6d362cb459326c51</title>
<path fill="none" stroke="black" d="M49.43,-215.7C52.36,-207.81 55.89,-198.3 59.14,-189.55"/>
<polygon fill="black" stroke="black" points="62.45,-190.7 62.65,-180.1 55.88,-188.26 62.45,-190.7"/>
<g id="a_edge11&#45;headlabel"><a xlink:href="dir_000064_000067.html" target="_top" xlink:title="3">
<text text-anchor="middle" x="63.86" y="-192.56" font-family="Helvetica,sans-Serif" font-size="10.00">3</text>
</a>
</g>
</g>
<!-- dir_7c9a142a98a2cb68b5af601fe1a67861 -->
<g id="node4" class="node">
<title>dir_7c9a142a98a2cb68b5af601fe1a67861</title>
<g id="a_node4"><a xlink:href="dir_7c9a142a98a2cb68b5af601fe1a67861.html" target="_top" xlink:title="UI">
<polygon fill="white" stroke="red" points="142,-108 88,-108 88,-72 142,-72 142,-108"/>
<text text-anchor="middle" x="115" y="-87.5" font-family="Helvetica,sans-Serif" font-size="10.00">UI</text>
</a>
</g>
</g>
<!-- dir_440271bfcd227cf7dbb24a7f74b68394&#45;&gt;dir_7c9a142a98a2cb68b5af601fe1a67861 -->
<g id="edge8" class="edge">
<title>dir_440271bfcd227cf7dbb24a7f74b68394&#45;&gt;dir_7c9a142a98a2cb68b5af601fe1a67861</title>
<path fill="none" stroke="black" d="M70.16,-216.73C82.92,-207.6 97.04,-195.01 105,-180 115.05,-161.05 117.17,-136.69 116.99,-118.24"/>
<polygon fill="black" stroke="black" points="120.49,-118.03 116.66,-108.15 113.49,-118.26 120.49,-118.03"/>
<g id="a_edge8&#45;headlabel"><a xlink:href="dir_000064_000069.html" target="_top" xlink:title="2">
<text text-anchor="middle" x="123.44" y="-119.03" font-family="Helvetica,sans-Serif" font-size="10.00">2</text>
</a>
</g>
</g>
<!-- dir_0b6ee6e7e9547e675db4add2e5de97da -->
<g id="node5" class="node">
<title>dir_0b6ee6e7e9547e675db4add2e5de97da</title>
<g id="a_node5"><a xlink:href="dir_0b6ee6e7e9547e675db4add2e5de97da.html" target="_top" xlink:title="Engine">
<polygon fill="none" stroke="red" points="212,-180 158,-180 158,-144 212,-144 212,-180"/>
<text text-anchor="middle" x="185" y="-159.5" font-family="Helvetica,sans-Serif" font-size="10.00">Engine</text>
</a>
</g>
</g>
<!-- dir_440271bfcd227cf7dbb24a7f74b68394&#45;&gt;dir_0b6ee6e7e9547e675db4add2e5de97da -->
<g id="edge9" class="edge">
<title>dir_440271bfcd227cf7dbb24a7f74b68394&#45;&gt;dir_0b6ee6e7e9547e675db4add2e5de97da</title>
<path fill="none" stroke="black" d="M70.22,-216.8C97.99,-202.65 137.59,-183.8 145,-180 146.3,-179.34 147.62,-178.65 148.96,-177.95"/>
<polygon fill="black" stroke="black" points="150.73,-180.97 157.97,-173.24 147.48,-174.77 150.73,-180.97"/>
<g id="a_edge9&#45;headlabel"><a xlink:href="dir_000064_000000.html" target="_top" xlink:title="1">
<text text-anchor="middle" x="148.86" y="-182.66" font-family="Helvetica,sans-Serif" font-size="10.00">1</text>
</a>
</g>
</g>
<!-- dir_da555cc5272c9bb1aca8990be5c6787a -->
<g id="node6" class="node">
<title>dir_da555cc5272c9bb1aca8990be5c6787a</title>
<g id="a_node6"><a xlink:href="dir_da555cc5272c9bb1aca8990be5c6787a.html" target="_top" xlink:title="Shared">
<polygon fill="none" stroke="black" points="173,-36 119,-36 119,0 173,0 173,-36"/>
<text text-anchor="middle" x="146" y="-15.5" font-family="Helvetica,sans-Serif" font-size="10.00">Shared</text>
</a>
</g>
</g>
<!-- dir_440271bfcd227cf7dbb24a7f74b68394&#45;&gt;dir_da555cc5272c9bb1aca8990be5c6787a -->
<g id="edge10" class="edge">
<title>dir_440271bfcd227cf7dbb24a7f74b68394&#45;&gt;dir_da555cc5272c9bb1aca8990be5c6787a</title>
<path fill="none" stroke="black" d="M70.29,-219.45C73.2,-218.2 76.14,-217.03 79,-216 140.28,-194 181.02,-231.38 221,-180 254.54,-136.9 205.78,-76.38 172.53,-43.17"/>
<polygon fill="black" stroke="black" points="174.91,-40.59 165.3,-36.12 170.02,-45.61 174.91,-40.59"/>
<g id="a_edge10&#45;headlabel"><a xlink:href="dir_000064_000073.html" target="_top" xlink:title="2">
<text text-anchor="middle" x="179.46" y="-38.57" font-family="Helvetica,sans-Serif" font-size="10.00">2</text>
</a>
</g>
</g>
<!-- dir_81f9b32d17db752a6d362cb459326c51&#45;&gt;dir_7c9a142a98a2cb68b5af601fe1a67861 -->
<g id="edge12" class="edge">
<title>dir_81f9b32d17db752a6d362cb459326c51&#45;&gt;dir_7c9a142a98a2cb68b5af601fe1a67861</title>
<path fill="none" stroke="black" d="M74.46,-143.7C79.01,-135.47 85.37,-125.48 91.77,-116.42"/>
<polygon fill="black" stroke="black" points="94.78,-118.24 97.86,-108.1 89.13,-114.1 94.78,-118.24"/>
<g id="a_edge12&#45;headlabel"><a xlink:href="dir_000067_000069.html" target="_top" xlink:title="1">
<text text-anchor="middle" x="94.95" y="-120.32" font-family="Helvetica,sans-Serif" font-size="10.00">1</text>
</a>
</g>
</g>
<!-- dir_81f9b32d17db752a6d362cb459326c51&#45;&gt;dir_da555cc5272c9bb1aca8990be5c6787a -->
<g id="edge13" class="edge">
<title>dir_81f9b32d17db752a6d362cb459326c51&#45;&gt;dir_da555cc5272c9bb1aca8990be5c6787a</title>
<path fill="none" stroke="black" d="M66.61,-143.87C64.63,-123.35 64.18,-88.67 79,-64 86.25,-51.94 98.11,-42.42 109.87,-35.3"/>
<polygon fill="black" stroke="black" points="111.74,-38.26 118.75,-30.32 108.31,-32.16 111.74,-38.26"/>
<g id="a_edge13&#45;headlabel"><a xlink:href="dir_000067_000073.html" target="_top" xlink:title="4">
<text text-anchor="middle" x="109.99" y="-40" font-family="Helvetica,sans-Serif" font-size="10.00">4</text>
</a>
</g>
</g>
<!-- dir_7c9a142a98a2cb68b5af601fe1a67861&#45;&gt;dir_81f9b32d17db752a6d362cb459326c51 -->
<g id="edge3" class="edge">
<title>dir_7c9a142a98a2cb68b5af601fe1a67861&#45;&gt;dir_81f9b32d17db752a6d362cb459326c51</title>
<path fill="none" stroke="black" d="M109.66,-108.1C105.13,-116.3 98.78,-126.28 92.38,-135.36"/>
<polygon fill="black" stroke="black" points="89.36,-133.56 86.29,-143.7 95.01,-137.69 89.36,-133.56"/>
<g id="a_edge3&#45;headlabel"><a xlink:href="dir_000069_000067.html" target="_top" xlink:title="1">
<text text-anchor="middle" x="89.19" y="-126.48" font-family="Helvetica,sans-Serif" font-size="10.00">1</text>
</a>
</g>
</g>
<!-- dir_7c9a142a98a2cb68b5af601fe1a67861&#45;&gt;dir_0b6ee6e7e9547e675db4add2e5de97da -->
<g id="edge1" class="edge">
<title>dir_7c9a142a98a2cb68b5af601fe1a67861&#45;&gt;dir_0b6ee6e7e9547e675db4add2e5de97da</title>
<path fill="none" stroke="black" d="M126.21,-108.1C133.92,-116.72 144.33,-127.32 154.3,-136.76"/>
<polygon fill="black" stroke="black" points="152.07,-139.46 161.78,-143.7 156.83,-134.33 152.07,-139.46"/>
<g id="a_edge1&#45;headlabel"><a xlink:href="dir_000069_000000.html" target="_top" xlink:title="4">
<text text-anchor="middle" x="147.5" y="-136.6" font-family="Helvetica,sans-Serif" font-size="10.00">4</text>
</a>
</g>
</g>
<!-- dir_7c9a142a98a2cb68b5af601fe1a67861&#45;&gt;dir_da555cc5272c9bb1aca8990be5c6787a -->
<g id="edge2" class="edge">
<title>dir_7c9a142a98a2cb68b5af601fe1a67861&#45;&gt;dir_da555cc5272c9bb1aca8990be5c6787a</title>
<path fill="none" stroke="black" d="M122.66,-71.7C126.19,-63.73 130.46,-54.1 134.37,-45.26"/>
<polygon fill="black" stroke="black" points="137.58,-46.67 138.43,-36.1 131.18,-43.83 137.58,-46.67"/>
<g id="a_edge2&#45;headlabel"><a xlink:href="dir_000069_000073.html" target="_top" xlink:title="2">
<text text-anchor="middle" x="138.72" y="-48.6" font-family="Helvetica,sans-Serif" font-size="10.00">2</text>
</a>
</g>
</g>
<!-- dir_0b6ee6e7e9547e675db4add2e5de97da&#45;&gt;dir_440271bfcd227cf7dbb24a7f74b68394 -->
<g id="edge6" class="edge">
<title>dir_0b6ee6e7e9547e675db4add2e5de97da&#45;&gt;dir_440271bfcd227cf7dbb24a7f74b68394</title>
<path fill="none" stroke="black" d="M162.57,-180.22C153.76,-184.68 111.61,-204.71 79.68,-218.77"/>
<polygon fill="black" stroke="black" points="77.92,-215.72 70.15,-222.92 80.72,-222.14 77.92,-215.72"/>
<g id="a_edge6&#45;headlabel"><a xlink:href="dir_000000_000064.html" target="_top" xlink:title="1">
<text text-anchor="middle" x="80.09" y="-209.18" font-family="Helvetica,sans-Serif" font-size="10.00">1</text>
</a>
</g>
</g>
<!-- dir_0b6ee6e7e9547e675db4add2e5de97da&#45;&gt;dir_81f9b32d17db752a6d362cb459326c51 -->
<g id="edge7" class="edge">
<title>dir_0b6ee6e7e9547e675db4add2e5de97da&#45;&gt;dir_81f9b32d17db752a6d362cb459326c51</title>
<path fill="none" stroke="black" d="M157.94,-162C140.73,-162 123.53,-162 106.32,-162"/>
<polygon fill="black" stroke="black" points="106.19,-158.5 96.19,-162 106.19,-165.5 106.19,-158.5"/>
<g id="a_edge7&#45;headlabel"><a xlink:href="dir_000000_000067.html" target="_top" xlink:title="3">
<text text-anchor="middle" x="109.78" y="-153.16" font-family="Helvetica,sans-Serif" font-size="10.00">3</text>
</a>
</g>
</g>
<!-- dir_0b6ee6e7e9547e675db4add2e5de97da&#45;&gt;dir_7c9a142a98a2cb68b5af601fe1a67861 -->
<g id="edge4" class="edge">
<title>dir_0b6ee6e7e9547e675db4add2e5de97da&#45;&gt;dir_7c9a142a98a2cb68b5af601fe1a67861</title>
<path fill="none" stroke="black" d="M173.61,-143.7C165.86,-135.05 155.43,-124.45 145.47,-115.03"/>
<polygon fill="black" stroke="black" points="147.71,-112.33 138,-108.1 142.96,-117.47 147.71,-112.33"/>
<g id="a_edge4&#45;headlabel"><a xlink:href="dir_000000_000069.html" target="_top" xlink:title="1">
<text text-anchor="middle" x="152.28" y="-110.19" font-family="Helvetica,sans-Serif" font-size="10.00">1</text>
</a>
</g>
</g>
<!-- dir_0b6ee6e7e9547e675db4add2e5de97da&#45;&gt;dir_da555cc5272c9bb1aca8990be5c6787a -->
<g id="edge5" class="edge">
<title>dir_0b6ee6e7e9547e675db4add2e5de97da&#45;&gt;dir_da555cc5272c9bb1aca8990be5c6787a</title>
<path fill="none" stroke="black" d="M180.3,-143.87C173.62,-119.56 161.33,-74.82 153.42,-46.01"/>
<polygon fill="black" stroke="black" points="156.74,-44.91 150.72,-36.19 149.99,-46.76 156.74,-44.91"/>
<g id="a_edge5&#45;headlabel"><a xlink:href="dir_000000_000073.html" target="_top" xlink:title="53">
<text text-anchor="middle" x="160.43" y="-45.12" font-family="Helvetica,sans-Serif" font-size="10.00">53</text>
</a>
</g>
</g>
</g>
</svg>
