<?xml version="1.0" encoding="UTF-8" standalone="no"?>
<!DOCTYPE svg PUBLIC "-//W3C//DTD SVG 1.1//EN"
 "http://www.w3.org/Graphics/SVG/1.1/DTD/svg11.dtd">
<!-- Generated by graphviz version 2.43.0 (0)
 -->
<!-- Title: Graphical Class Hierarchy Pages: 1 -->
<svg width="349pt" height="499pt"
 viewBox="0.00 0.00 349.00 498.50" xmlns="http://www.w3.org/2000/svg" xmlns:xlink="http://www.w3.org/1999/xlink">
<g id="graph0" class="graph" transform="scale(1 1) rotate(0) translate(4 494.5)">
<title>Graphical Class Hierarchy</title>
<!-- Node1841 -->
<g id="node1" class="node">
<title>Node1841</title>
<g id="a_node1"><a xlink:href="d2/dd8/classComb__Hash__Fn.html" target="_top" xlink:title=" ">
<polygon fill="none" stroke="black" points="27,-366.5 27,-385.5 119,-385.5 119,-366.5 27,-366.5"/>
<text text-anchor="middle" x="73" y="-373.5" font-family="Helvetica,sans-Serif" font-size="10.00">Comb_Hash_Fn</text>
</a>
</g>
</g>
<!-- Node1506 -->
<g id="node2" class="node">
<title>Node1506</title>
<g id="a_node2"><a xlink:href="d2/d94/class____gnu__pbds_1_1detail_1_1ranged__hash__fn_3_01Key_00_01Hash__Fn_00_01Allocator_00_01Comb__Hash__Fn_00_01false_01_4.html" target="_top" xlink:title="Specialization 1 The client supplies a hash function and a ranged hash function, and requests that ha...">
<polygon fill="none" stroke="black" points="188.5,-367 188.5,-419 334.5,-419 334.5,-367 188.5,-367"/>
<text text-anchor="start" x="196.5" y="-407" font-family="Helvetica,sans-Serif" font-size="10.00">__gnu_pbds::detail</text>
<text text-anchor="start" x="196.5" y="-396" font-family="Helvetica,sans-Serif" font-size="10.00">::ranged_hash_fn&lt; Key,</text>
<text text-anchor="start" x="196.5" y="-385" font-family="Helvetica,sans-Serif" font-size="10.00"> Hash_Fn, Allocator, Comb</text>
<text text-anchor="middle" x="261.5" y="-374" font-family="Helvetica,sans-Serif" font-size="10.00">_Hash_Fn, false &gt;</text>
</a>
</g>
</g>
<!-- Node1841&#45;&gt;Node1506 -->
<g id="edge1" class="edge">
<title>Node1841&#45;&gt;Node1506</title>
<path fill="none" stroke="midnightblue" d="M129.2,-381.03C147.78,-382.73 168.8,-384.64 188.49,-386.44"/>
<polygon fill="midnightblue" stroke="midnightblue" points="129.42,-377.54 119.15,-380.12 128.79,-384.51 129.42,-377.54"/>
</g>
<!-- Node1507 -->
<g id="node3" class="node">
<title>Node1507</title>
<g id="a_node3"><a xlink:href="dd/d4e/class____gnu__pbds_1_1detail_1_1ranged__hash__fn_3_01Key_00_01Hash__Fn_00_01Allocator_00_01Comb__Hash__Fn_00_01true_01_4.html" target="_top" xlink:title="Specialization 2 The client supplies a hash function and a ranged hash function, and requests that ha...">
<polygon fill="none" stroke="black" points="188.5,-438 188.5,-490 334.5,-490 334.5,-438 188.5,-438"/>
<text text-anchor="start" x="196.5" y="-478" font-family="Helvetica,sans-Serif" font-size="10.00">__gnu_pbds::detail</text>
<text text-anchor="start" x="196.5" y="-467" font-family="Helvetica,sans-Serif" font-size="10.00">::ranged_hash_fn&lt; Key,</text>
<text text-anchor="start" x="196.5" y="-456" font-family="Helvetica,sans-Serif" font-size="10.00"> Hash_Fn, Allocator, Comb</text>
<text text-anchor="middle" x="261.5" y="-445" font-family="Helvetica,sans-Serif" font-size="10.00">_Hash_Fn, true &gt;</text>
</a>
</g>
</g>
<!-- Node1841&#45;&gt;Node1507 -->
<g id="edge2" class="edge">
<title>Node1841&#45;&gt;Node1507</title>
<path fill="none" stroke="midnightblue" d="M102.01,-390.1C123.74,-400.95 154.65,-416.2 182,-429 188.22,-431.91 194.73,-434.9 201.24,-437.86"/>
<polygon fill="midnightblue" stroke="midnightblue" points="103.53,-386.94 93.02,-385.6 100.39,-393.2 103.53,-386.94"/>
</g>
<!-- Node1125 -->
<g id="node4" class="node">
<title>Node1125</title>
<g id="a_node4"><a xlink:href="db/d30/class____gnu__pbds_1_1detail_1_1ranged__hash__fn_3_01Key_00_01null__hash__fn_00_01Allocator_00_01Comb__Hash__Fn_00_01false_01_4.html" target="_top" xlink:title="Specialization 3 The client does not supply a hash function (by specifying null_hash_fn as the Hash_F...">
<polygon fill="none" stroke="black" points="193,-225 193,-277 330,-277 330,-225 193,-225"/>
<text text-anchor="start" x="201" y="-265" font-family="Helvetica,sans-Serif" font-size="10.00">__gnu_pbds::detail</text>
<text text-anchor="start" x="201" y="-254" font-family="Helvetica,sans-Serif" font-size="10.00">::ranged_hash_fn&lt; Key,</text>
<text text-anchor="start" x="201" y="-243" font-family="Helvetica,sans-Serif" font-size="10.00"> null_hash_fn, Allocator,</text>
<text text-anchor="middle" x="261.5" y="-232" font-family="Helvetica,sans-Serif" font-size="10.00"> Comb_Hash_Fn, false &gt;</text>
</a>
</g>
</g>
<!-- Node1841&#45;&gt;Node1125 -->
<g id="edge3" class="edge">
<title>Node1841&#45;&gt;Node1125</title>
<path fill="none" stroke="midnightblue" d="M111.34,-362.4C123.24,-356.93 135.92,-349.8 146,-341 167.73,-322.03 160.06,-305.72 182,-287 186.22,-283.4 190.86,-280.09 195.71,-277.06"/>
<polygon fill="midnightblue" stroke="midnightblue" points="109.81,-359.25 102.03,-366.44 112.6,-365.67 109.81,-359.25"/>
</g>
<!-- Node1126 -->
<g id="node5" class="node">
<title>Node1126</title>
<g id="a_node5"><a xlink:href="d3/d0d/class____gnu__pbds_1_1detail_1_1ranged__hash__fn_3_01Key_00_01null__hash__fn_00_01Allocator_00_01Comb__Hash__Fn_00_01true_01_4.html" target="_top" xlink:title="Specialization 4 The client does not supply a hash function (by specifying null_hash_fn as the Hash_F...">
<polygon fill="none" stroke="black" points="194.5,-296 194.5,-348 328.5,-348 328.5,-296 194.5,-296"/>
<text text-anchor="start" x="202.5" y="-336" font-family="Helvetica,sans-Serif" font-size="10.00">__gnu_pbds::detail</text>
<text text-anchor="start" x="202.5" y="-325" font-family="Helvetica,sans-Serif" font-size="10.00">::ranged_hash_fn&lt; Key,</text>
<text text-anchor="start" x="202.5" y="-314" font-family="Helvetica,sans-Serif" font-size="10.00"> null_hash_fn, Allocator,</text>
<text text-anchor="middle" x="261.5" y="-303" font-family="Helvetica,sans-Serif" font-size="10.00"> Comb_Hash_Fn, true &gt;</text>
</a>
</g>
</g>
<!-- Node1841&#45;&gt;Node1126 -->
<g id="edge4" class="edge">
<title>Node1841&#45;&gt;Node1126</title>
<path fill="none" stroke="midnightblue" d="M116.7,-363.64C139.67,-356.99 168.51,-348.63 194.32,-341.16"/>
<polygon fill="midnightblue" stroke="midnightblue" points="115.55,-360.33 106.91,-366.47 117.49,-367.05 115.55,-360.33"/>
</g>
<!-- Node1840 -->
<g id="node6" class="node">
<title>Node1840</title>
<g id="a_node6"><a xlink:href="d8/df7/classComb__Probe__Fn.html" target="_top" xlink:title=" ">
<polygon fill="none" stroke="black" points="25.5,-99.5 25.5,-118.5 120.5,-118.5 120.5,-99.5 25.5,-99.5"/>
<text text-anchor="middle" x="73" y="-106.5" font-family="Helvetica,sans-Serif" font-size="10.00">Comb_Probe_Fn</text>
</a>
</g>
</g>
<!-- Node1 -->
<g id="node7" class="node">
<title>Node1</title>
<g id="a_node7"><a xlink:href="d3/d3e/class____gnu__pbds_1_1detail_1_1ranged__probe__fn_3_01Key_00_01Hash__Fn_00_01Allocator_00_01Combe0a64e6134a85f5068429fc09d08da98.html" target="_top" xlink:title="Specialization 1 &#160;&#160;The client supplies a probe function and a ranged probe function,...">
<polygon fill="none" stroke="black" points="182,-83 182,-135 341,-135 341,-83 182,-83"/>
<text text-anchor="start" x="190" y="-123" font-family="Helvetica,sans-Serif" font-size="10.00">__gnu_pbds::detail</text>
<text text-anchor="start" x="190" y="-112" font-family="Helvetica,sans-Serif" font-size="10.00">::ranged_probe_fn&lt; Key,</text>
<text text-anchor="start" x="190" y="-101" font-family="Helvetica,sans-Serif" font-size="10.00"> Hash_Fn, Allocator, Comb</text>
<text text-anchor="middle" x="261.5" y="-90" font-family="Helvetica,sans-Serif" font-size="10.00">_Probe_Fn, Probe_Fn, false &gt;</text>
</a>
</g>
</g>
<!-- Node1840&#45;&gt;Node1 -->
<g id="edge5" class="edge">
<title>Node1840&#45;&gt;Node1</title>
<path fill="none" stroke="midnightblue" d="M130.88,-109C146.97,-109 164.77,-109 181.89,-109"/>
<polygon fill="midnightblue" stroke="midnightblue" points="130.58,-105.5 120.58,-109 130.58,-112.5 130.58,-105.5"/>
</g>
<!-- Node2 -->
<g id="node8" class="node">
<title>Node2</title>
<g id="a_node8"><a xlink:href="d9/d32/class____gnu__pbds_1_1detail_1_1ranged__probe__fn_3_01Key_00_01Hash__Fn_00_01Allocator_00_01Combf070fbaccb5d5bc67934dab4083d26b2.html" target="_top" xlink:title="Specialization 2&#45; The client supplies a probe function and a ranged probe function,...">
<polygon fill="none" stroke="black" points="184,-154 184,-206 339,-206 339,-154 184,-154"/>
<text text-anchor="start" x="192" y="-194" font-family="Helvetica,sans-Serif" font-size="10.00">__gnu_pbds::detail</text>
<text text-anchor="start" x="192" y="-183" font-family="Helvetica,sans-Serif" font-size="10.00">::ranged_probe_fn&lt; Key,</text>
<text text-anchor="start" x="192" y="-172" font-family="Helvetica,sans-Serif" font-size="10.00"> Hash_Fn, Allocator, Comb</text>
<text text-anchor="middle" x="261.5" y="-161" font-family="Helvetica,sans-Serif" font-size="10.00">_Probe_Fn, Probe_Fn, true &gt;</text>
</a>
</g>
</g>
<!-- Node1840&#45;&gt;Node2 -->
<g id="edge6" class="edge">
<title>Node1840&#45;&gt;Node2</title>
<path fill="none" stroke="midnightblue" d="M108.64,-122.19C132.03,-131.09 163.7,-143.15 192.07,-153.95"/>
<polygon fill="midnightblue" stroke="midnightblue" points="109.74,-118.86 99.15,-118.58 107.25,-125.4 109.74,-118.86"/>
</g>
<!-- Node1119 -->
<g id="node9" class="node">
<title>Node1119</title>
<g id="a_node9"><a xlink:href="d5/d68/class____gnu__pbds_1_1detail_1_1ranged__probe__fn_3_01Key_00_01null__hash__fn_00_01Allocator_00_b89cabb45320244db254e565a53f0ec9.html" target="_top" xlink:title="Specialization 3 and 4 The client does not supply a hash function or probe function,...">
<polygon fill="none" stroke="black" points="184,-0.5 184,-63.5 339,-63.5 339,-0.5 184,-0.5"/>
<text text-anchor="start" x="192" y="-51.5" font-family="Helvetica,sans-Serif" font-size="10.00">__gnu_pbds::detail</text>
<text text-anchor="start" x="192" y="-40.5" font-family="Helvetica,sans-Serif" font-size="10.00">::ranged_probe_fn&lt; Key,</text>
<text text-anchor="start" x="192" y="-29.5" font-family="Helvetica,sans-Serif" font-size="10.00"> null_hash_fn, Allocator,</text>
<text text-anchor="start" x="192" y="-18.5" font-family="Helvetica,sans-Serif" font-size="10.00"> Comb_Probe_Fn, null_probe</text>
<text text-anchor="middle" x="261.5" y="-7.5" font-family="Helvetica,sans-Serif" font-size="10.00">_fn, false &gt;</text>
</a>
</g>
</g>
<!-- Node1840&#45;&gt;Node1119 -->
<g id="edge7" class="edge">
<title>Node1840&#45;&gt;Node1119</title>
<path fill="none" stroke="midnightblue" d="M106.52,-95.57C127.94,-86.73 156.94,-74.76 183.99,-63.59"/>
<polygon fill="midnightblue" stroke="midnightblue" points="105.15,-92.35 97.24,-99.4 107.82,-98.82 105.15,-92.35"/>
</g>
<!-- Node1505 -->
<g id="node10" class="node">
<title>Node1505</title>
<g id="a_node10"><a xlink:href="d2/d12/classHash__Fn.html" target="_top" xlink:title=" ">
<polygon fill="none" stroke="black" points="43.5,-312.5 43.5,-331.5 102.5,-331.5 102.5,-312.5 43.5,-312.5"/>
<text text-anchor="middle" x="73" y="-319.5" font-family="Helvetica,sans-Serif" font-size="10.00">Hash_Fn</text>
</a>
</g>
</g>
<!-- Node1505&#45;&gt;Node1506 -->
<g id="edge8" class="edge">
<title>Node1505&#45;&gt;Node1506</title>
<path fill="none" stroke="midnightblue" d="M108.64,-335.19C132.03,-344.09 163.7,-356.15 192.07,-366.95"/>
<polygon fill="midnightblue" stroke="midnightblue" points="109.74,-331.86 99.15,-331.58 107.25,-338.4 109.74,-331.86"/>
</g>
<!-- Node1505&#45;&gt;Node1507 -->
<g id="edge9" class="edge">
<title>Node1505&#45;&gt;Node1507</title>
<path fill="none" stroke="midnightblue" d="M112,-334.89C123.95,-340.31 136.49,-347.59 146,-357 171.44,-382.16 156.15,-404.27 182,-429 185.34,-432.2 189.03,-435.13 192.92,-437.83"/>
<polygon fill="midnightblue" stroke="midnightblue" points="113.19,-331.59 102.62,-330.93 110.47,-338.04 113.19,-331.59"/>
</g>
<!-- Node1505&#45;&gt;Node1 -->
<g id="edge10" class="edge">
<title>Node1505&#45;&gt;Node1</title>
<path fill="none" stroke="midnightblue" d="M102.84,-307.3C117.71,-298.37 134.98,-285.67 146,-270 179.26,-222.71 144.29,-188.82 182,-145 185.13,-141.36 188.7,-138.07 192.56,-135.1"/>
<polygon fill="midnightblue" stroke="midnightblue" points="100.92,-304.37 93.97,-312.37 104.39,-310.45 100.92,-304.37"/>
</g>
<!-- Node1505&#45;&gt;Node2 -->
<g id="edge11" class="edge">
<title>Node1505&#45;&gt;Node2</title>
<path fill="none" stroke="midnightblue" d="M99.33,-306.92C113.97,-297.46 132.18,-284.35 146,-270 166.01,-249.23 160.06,-234.72 182,-216 186.22,-212.4 190.86,-209.09 195.71,-206.06"/>
<polygon fill="midnightblue" stroke="midnightblue" points="97.34,-304.04 90.74,-312.33 101.07,-309.96 97.34,-304.04"/>
</g>
<!-- Node1124 -->
<g id="node11" class="node">
<title>Node1124</title>
<g id="a_node11"><a xlink:href="db/dd9/struct____gnu__pbds_1_1null__hash__fn.html" target="_top" xlink:title=" ">
<polygon fill="none" stroke="black" points="2.5,-241.5 2.5,-260.5 143.5,-260.5 143.5,-241.5 2.5,-241.5"/>
<text text-anchor="middle" x="73" y="-248.5" font-family="Helvetica,sans-Serif" font-size="10.00">__gnu_pbds::null_hash_fn</text>
</a>
</g>
</g>
<!-- Node1124&#45;&gt;Node1125 -->
<g id="edge12" class="edge">
<title>Node1124&#45;&gt;Node1125</title>
<path fill="none" stroke="midnightblue" d="M153.97,-251C166.88,-251 180.14,-251 192.73,-251"/>
<polygon fill="midnightblue" stroke="midnightblue" points="153.71,-247.5 143.71,-251 153.71,-254.5 153.71,-247.5"/>
</g>
<!-- Node1124&#45;&gt;Node1126 -->
<g id="edge13" class="edge">
<title>Node1124&#45;&gt;Node1126</title>
<path fill="none" stroke="midnightblue" d="M108.53,-264.14C132.49,-273.27 165.18,-285.71 194.1,-296.72"/>
<polygon fill="midnightblue" stroke="midnightblue" points="109.74,-260.86 99.15,-260.58 107.25,-267.4 109.74,-260.86"/>
</g>
<!-- Node1124&#45;&gt;Node1119 -->
<g id="edge14" class="edge">
<title>Node1124&#45;&gt;Node1119</title>
<path fill="none" stroke="midnightblue" d="M95.86,-235.2C111.78,-222.66 132.79,-203.83 146,-183 173.55,-139.56 148.75,-112.25 182,-73 184.88,-69.6 188.12,-66.44 191.59,-63.52"/>
<polygon fill="midnightblue" stroke="midnightblue" points="93.44,-232.64 87.62,-241.49 97.69,-238.21 93.44,-232.64"/>
</g>
<!-- Node1118 -->
<g id="node12" class="node">
<title>Node1118</title>
<g id="a_node12"><a xlink:href="dd/ddf/struct____gnu__pbds_1_1null__probe__fn.html" target="_top" xlink:title=" ">
<polygon fill="none" stroke="black" points="0,-22.5 0,-41.5 146,-41.5 146,-22.5 0,-22.5"/>
<text text-anchor="middle" x="73" y="-29.5" font-family="Helvetica,sans-Serif" font-size="10.00">__gnu_pbds::null_probe_fn</text>
</a>
</g>
</g>
<!-- Node1118&#45;&gt;Node1119 -->
<g id="edge15" class="edge">
<title>Node1118&#45;&gt;Node1119</title>
<path fill="none" stroke="midnightblue" d="M156.38,-32C165.55,-32 174.86,-32 183.95,-32"/>
<polygon fill="midnightblue" stroke="midnightblue" points="156.11,-28.5 146.11,-32 156.11,-35.5 156.11,-28.5"/>
</g>
<!-- Node0 -->
<g id="node13" class="node">
<title>Node0</title>
<g id="a_node13"><a xlink:href="d6/d26/classProbe__Fn.html" target="_top" xlink:title=" ">
<polygon fill="none" stroke="black" points="42,-154.5 42,-173.5 104,-173.5 104,-154.5 42,-154.5"/>
<text text-anchor="middle" x="73" y="-161.5" font-family="Helvetica,sans-Serif" font-size="10.00">Probe_Fn</text>
</a>
</g>
</g>
<!-- Node0&#45;&gt;Node1 -->
<g id="edge16" class="edge">
<title>Node0&#45;&gt;Node1</title>
<path fill="none" stroke="midnightblue" d="M113.98,-152.21C133.8,-146.36 158.45,-139.1 181.84,-132.2"/>
<polygon fill="midnightblue" stroke="midnightblue" points="112.98,-148.86 104.38,-155.04 114.96,-155.57 112.98,-148.86"/>
</g>
<!-- Node0&#45;&gt;Node2 -->
<g id="edge17" class="edge">
<title>Node0&#45;&gt;Node2</title>
<path fill="none" stroke="midnightblue" d="M114.51,-167.48C134.81,-169.22 160.07,-171.38 183.85,-173.42"/>
<polygon fill="midnightblue" stroke="midnightblue" points="114.64,-163.97 104.38,-166.61 114.04,-170.95 114.64,-163.97"/>
</g>
</g>
</svg>
