<?xml version="1.0" encoding="UTF-8" standalone="no"?>
<!DOCTYPE svg PUBLIC "-//W3C//DTD SVG 1.1//EN"
 "http://www.w3.org/Graphics/SVG/1.1/DTD/svg11.dtd">
<!-- Generated by graphviz version 2.43.0 (0)
 -->
<!-- Title: Graphical Class Hierarchy Pages: 1 -->
<svg width="399pt" height="127pt"
 viewBox="0.00 0.00 399.00 127.00" xmlns="http://www.w3.org/2000/svg" xmlns:xlink="http://www.w3.org/1999/xlink">
<g id="graph0" class="graph" transform="scale(1 1) rotate(0) translate(4 123)">
<title>Graphical Class Hierarchy</title>
<!-- Node1330 -->
<g id="node1" class="node">
<title>Node1330</title>
<g id="a_node1"><a xlink:title=" ">
<polygon fill="none" stroke="#bfbfbf" points="0,-50 0,-69 68,-69 68,-50 0,-50"/>
<text text-anchor="middle" x="34" y="-57" font-family="Helvetica,sans-Serif" font-size="10.00">logic_error</text>
</a>
</g>
</g>
<!-- Node0 -->
<g id="node2" class="node">
<title>Node0</title>
<g id="a_node2"><a xlink:href="de/d62/struct____gnu__pbds_1_1container__error.html" target="_top" xlink:title=" ">
<polygon fill="none" stroke="black" points="104,-44.5 104,-74.5 229,-74.5 229,-44.5 104,-44.5"/>
<text text-anchor="start" x="112" y="-62.5" font-family="Helvetica,sans-Serif" font-size="10.00">__gnu_pbds::container</text>
<text text-anchor="middle" x="166.5" y="-51.5" font-family="Helvetica,sans-Serif" font-size="10.00">_error</text>
</a>
</g>
</g>
<!-- Node1330&#45;&gt;Node0 -->
<g id="edge1" class="edge">
<title>Node1330&#45;&gt;Node0</title>
<path fill="none" stroke="midnightblue" d="M78.32,-59.5C86.52,-59.5 95.24,-59.5 103.87,-59.5"/>
<polygon fill="midnightblue" stroke="midnightblue" points="78.27,-56 68.27,-59.5 78.27,-63 78.27,-56"/>
</g>
<!-- Node1 -->
<g id="node3" class="node">
<title>Node1</title>
<g id="a_node3"><a xlink:href="d5/dfd/struct____gnu__pbds_1_1insert__error.html" target="_top" xlink:title=" ">
<polygon fill="none" stroke="black" points="274.5,-88.5 274.5,-118.5 381.5,-118.5 381.5,-88.5 274.5,-88.5"/>
<text text-anchor="start" x="282.5" y="-106.5" font-family="Helvetica,sans-Serif" font-size="10.00">__gnu_pbds::insert</text>
<text text-anchor="middle" x="328" y="-95.5" font-family="Helvetica,sans-Serif" font-size="10.00">_error</text>
</a>
</g>
</g>
<!-- Node0&#45;&gt;Node1 -->
<g id="edge2" class="edge">
<title>Node0&#45;&gt;Node1</title>
<path fill="none" stroke="midnightblue" d="M231.64,-77.2C245.85,-81.11 260.74,-85.22 274.42,-88.99"/>
<polygon fill="midnightblue" stroke="midnightblue" points="232.52,-73.8 221.94,-74.52 230.65,-80.55 232.52,-73.8"/>
</g>
<!-- Node2 -->
<g id="node4" class="node">
<title>Node2</title>
<g id="a_node4"><a xlink:href="da/df4/struct____gnu__pbds_1_1join__error.html" target="_top" xlink:title=" ">
<polygon fill="none" stroke="black" points="265,-50 265,-69 391,-69 391,-50 265,-50"/>
<text text-anchor="middle" x="328" y="-57" font-family="Helvetica,sans-Serif" font-size="10.00">__gnu_pbds::join_error</text>
</a>
</g>
</g>
<!-- Node0&#45;&gt;Node2 -->
<g id="edge3" class="edge">
<title>Node0&#45;&gt;Node2</title>
<path fill="none" stroke="midnightblue" d="M239.19,-59.5C247.79,-59.5 256.52,-59.5 264.97,-59.5"/>
<polygon fill="midnightblue" stroke="midnightblue" points="239.17,-56 229.17,-59.5 239.17,-63 239.17,-56"/>
</g>
<!-- Node3 -->
<g id="node5" class="node">
<title>Node3</title>
<g id="a_node5"><a xlink:href="de/d9b/struct____gnu__pbds_1_1resize__error.html" target="_top" xlink:title=" ">
<polygon fill="none" stroke="black" points="273.5,-0.5 273.5,-30.5 382.5,-30.5 382.5,-0.5 273.5,-0.5"/>
<text text-anchor="start" x="281.5" y="-18.5" font-family="Helvetica,sans-Serif" font-size="10.00">__gnu_pbds::resize</text>
<text text-anchor="middle" x="328" y="-7.5" font-family="Helvetica,sans-Serif" font-size="10.00">_error</text>
</a>
</g>
</g>
<!-- Node0&#45;&gt;Node3 -->
<g id="edge4" class="edge">
<title>Node0&#45;&gt;Node3</title>
<path fill="none" stroke="midnightblue" d="M231.84,-41.75C245.61,-37.95 260.02,-33.98 273.34,-30.3"/>
<polygon fill="midnightblue" stroke="midnightblue" points="230.65,-38.45 221.94,-44.48 232.52,-45.2 230.65,-38.45"/>
</g>
</g>
</svg>
