<?xml version="1.0" encoding="UTF-8" standalone="no"?>
<!DOCTYPE svg PUBLIC "-//W3C//DTD SVG 1.1//EN"
 "http://www.w3.org/Graphics/SVG/1.1/DTD/svg11.dtd">
<!-- Generated by graphviz version 2.43.0 (0)
 -->
<!-- Title: _CDROM_TOC_CD_TEXT_DATA Pages: 1 -->
<svg width="262pt" height="128pt"
 viewBox="0.00 0.00 262.00 128.00" xmlns="http://www.w3.org/2000/svg" xmlns:xlink="http://www.w3.org/1999/xlink">
<g id="graph0" class="graph" transform="scale(1 1) rotate(0) translate(4 124)">
<title>_CDROM_TOC_CD_TEXT_DATA</title>
<!-- Node1 -->
<g id="node1" class="node">
<title>Node1</title>
<g id="a_node1"><a xlink:title=" ">
<polygon fill="#bfbfbf" stroke="black" points="61.5,-0.5 61.5,-19.5 226.5,-19.5 226.5,-0.5 61.5,-0.5"/>
<text text-anchor="middle" x="144" y="-7.5" font-family="Helvetica,sans-Serif" font-size="10.00">_CDROM_TOC_CD_TEXT_DATA</text>
</a>
</g>
</g>
<!-- Node2 -->
<g id="node2" class="node">
<title>Node2</title>
<g id="a_node2"><a xlink:title=" ">
<polygon fill="none" stroke="#bfbfbf" points="0,-89.5 0,-119.5 160,-119.5 160,-89.5 0,-89.5"/>
<text text-anchor="start" x="8" y="-107.5" font-family="Helvetica,sans-Serif" font-size="10.00">CDROM_TOC_CD_TEXT_DATA</text>
<text text-anchor="middle" x="80" y="-96.5" font-family="Helvetica,sans-Serif" font-size="10.00">_BLOCK</text>
</a>
</g>
</g>
<!-- Node2&#45;&gt;Node1 -->
<g id="edge1" class="edge">
<title>Node2&#45;&gt;Node1</title>
<path fill="none" stroke="#9a32cd" stroke-dasharray="5,2" d="M95.57,-81C109.25,-61.22 128.44,-33.49 138.04,-19.62"/>
<polygon fill="#9a32cd" stroke="#9a32cd" points="92.53,-79.24 89.72,-89.45 98.29,-83.22 92.53,-79.24"/>
<text text-anchor="middle" x="155.5" y="-52" font-family="Helvetica,sans-Serif" font-size="10.00"> Descriptors</text>
</g>
<!-- Node3 -->
<g id="node3" class="node">
<title>Node3</title>
<g id="a_node3"><a xlink:title=" ">
<polygon fill="none" stroke="#bfbfbf" points="178.5,-95 178.5,-114 239.5,-114 239.5,-95 178.5,-95"/>
<text text-anchor="middle" x="209" y="-102" font-family="Helvetica,sans-Serif" font-size="10.00">unsigned</text>
</a>
</g>
</g>
<!-- Node3&#45;&gt;Node1 -->
<g id="edge2" class="edge">
<title>Node3&#45;&gt;Node1</title>
<path fill="none" stroke="#9a32cd" stroke-dasharray="5,2" d="M206.26,-85C203.4,-70.91 197.78,-51.68 187,-38 180.89,-30.24 171.9,-24.11 163.71,-19.66"/>
<polygon fill="#9a32cd" stroke="#9a32cd" points="202.83,-85.73 208,-94.99 209.73,-84.53 202.83,-85.73"/>
<text text-anchor="middle" x="228" y="-63" font-family="Helvetica,sans-Serif" font-size="10.00"> Length</text>
<text text-anchor="middle" x="228" y="-52" font-family="Helvetica,sans-Serif" font-size="10.00">Reserved1</text>
<text text-anchor="middle" x="228" y="-41" font-family="Helvetica,sans-Serif" font-size="10.00">Reserved2</text>
</g>
</g>
</svg>
