<?xml version="1.0" encoding="UTF-8" standalone="no"?>
<!DOCTYPE svg PUBLIC "-//W3C//DTD SVG 1.1//EN"
 "http://www.w3.org/Graphics/SVG/1.1/DTD/svg11.dtd">
<!-- Generated by graphviz version 2.43.0 (0)
 -->
<!-- Title: menuslider_s Pages: 1 -->
<svg width="383pt" height="283pt"
 viewBox="0.00 0.00 382.50 283.00" xmlns="http://www.w3.org/2000/svg" xmlns:xlink="http://www.w3.org/1999/xlink">
<g id="graph0" class="graph" transform="scale(1 1) rotate(0) translate(4 279)">
<title>menuslider_s</title>
<!-- Node1 -->
<g id="node1" class="node">
<title>Node1</title>
<g id="a_node1"><a xlink:title=" ">
<polygon fill="#bfbfbf" stroke="black" points="202,-0.5 202,-19.5 284,-19.5 284,-0.5 202,-0.5"/>
<text text-anchor="middle" x="243" y="-7.5" font-family="Helvetica,sans-Serif" font-size="10.00">menuslider_s</text>
</a>
</g>
</g>
<!-- Node2 -->
<g id="node2" class="node">
<title>Node2</title>
<g id="a_node2"><a xlink:href="../../d5/d57/structmenucommon__s.html" target="_top" xlink:title=" ">
<polygon fill="none" stroke="black" points="151,-100.5 151,-119.5 249,-119.5 249,-100.5 151,-100.5"/>
<text text-anchor="middle" x="200" y="-107.5" font-family="Helvetica,sans-Serif" font-size="10.00">menucommon_s</text>
</a>
</g>
</g>
<!-- Node2&#45;&gt;Node1 -->
<g id="edge1" class="edge">
<title>Node2&#45;&gt;Node1</title>
<path fill="none" stroke="#9a32cd" stroke-dasharray="5,2" d="M204.67,-90.51C208.75,-75.83 215.37,-55.01 224,-38 227.32,-31.46 232.07,-24.71 235.99,-19.59"/>
<polygon fill="#9a32cd" stroke="#9a32cd" points="201.24,-89.81 202.06,-100.38 208,-91.61 201.24,-89.81"/>
<text text-anchor="middle" x="244" y="-57.5" font-family="Helvetica,sans-Serif" font-size="10.00"> generic</text>
</g>
<!-- Node3 -->
<g id="node3" class="node">
<title>Node3</title>
<g id="a_node3"><a xlink:title=" ">
<polygon fill="none" stroke="#bfbfbf" points="0,-255.5 0,-274.5 38,-274.5 38,-255.5 0,-255.5"/>
<text text-anchor="middle" x="19" y="-262.5" font-family="Helvetica,sans-Serif" font-size="10.00">void</text>
</a>
</g>
</g>
<!-- Node3&#45;&gt;Node2 -->
<g id="edge2" class="edge">
<title>Node3&#45;&gt;Node2</title>
<path fill="none" stroke="#9a32cd" stroke-dasharray="5,2" d="M18.62,-245.09C19.15,-217.3 24.52,-165.73 55,-138 68.87,-125.38 114.35,-118.36 150.72,-114.66"/>
<polygon fill="#9a32cd" stroke="#9a32cd" points="15.12,-245.4 18.62,-255.4 22.12,-245.4 15.12,-245.4"/>
<text text-anchor="middle" x="84" y="-196" font-family="Helvetica,sans-Serif" font-size="10.00"> ownerdraw</text>
<text text-anchor="middle" x="84" y="-185" font-family="Helvetica,sans-Serif" font-size="10.00">callback</text>
<text text-anchor="middle" x="84" y="-174" font-family="Helvetica,sans-Serif" font-size="10.00">statusbar</text>
</g>
<!-- Node4 -->
<g id="node4" class="node">
<title>Node4</title>
<g id="a_node4"><a xlink:title=" ">
<polygon fill="none" stroke="#bfbfbf" points="56,-255.5 56,-274.5 164,-274.5 164,-255.5 56,-255.5"/>
<text text-anchor="middle" x="110" y="-262.5" font-family="Helvetica,sans-Serif" font-size="10.00">menuframework_s</text>
</a>
</g>
</g>
<!-- Node4&#45;&gt;Node2 -->
<g id="edge3" class="edge">
<title>Node4&#45;&gt;Node2</title>
<path fill="none" stroke="#9a32cd" stroke-dasharray="5,2" d="M114.18,-245.44C120.79,-219.27 135.7,-171.05 162,-138 167.95,-130.53 176.49,-124.21 183.96,-119.56"/>
<polygon fill="#9a32cd" stroke="#9a32cd" points="110.77,-244.65 111.84,-255.19 117.58,-246.28 110.77,-244.65"/>
<text text-anchor="middle" x="179.5" y="-185" font-family="Helvetica,sans-Serif" font-size="10.00"> parent</text>
</g>
<!-- Node5 -->
<g id="node5" class="node">
<title>Node5</title>
<g id="a_node5"><a xlink:title=" ">
<polygon fill="none" stroke="#bfbfbf" points="182,-255.5 182,-274.5 220,-274.5 220,-255.5 182,-255.5"/>
<text text-anchor="middle" x="201" y="-262.5" font-family="Helvetica,sans-Serif" font-size="10.00">char</text>
</a>
</g>
</g>
<!-- Node5&#45;&gt;Node2 -->
<g id="edge4" class="edge">
<title>Node5&#45;&gt;Node2</title>
<path fill="none" stroke="#9a32cd" stroke-dasharray="5,2" d="M200.88,-245.11C200.66,-211.72 200.21,-143.54 200.06,-119.57"/>
<polygon fill="#9a32cd" stroke="#9a32cd" points="197.38,-245.36 200.94,-255.34 204.38,-245.31 197.38,-245.36"/>
<text text-anchor="middle" x="216.5" y="-185" font-family="Helvetica,sans-Serif" font-size="10.00"> name</text>
</g>
<!-- Node6 -->
<g id="node6" class="node">
<title>Node6</title>
<g id="a_node6"><a xlink:title=" ">
<polygon fill="none" stroke="#bfbfbf" points="239.5,-255.5 239.5,-274.5 268.5,-274.5 268.5,-255.5 239.5,-255.5"/>
<text text-anchor="middle" x="254" y="-262.5" font-family="Helvetica,sans-Serif" font-size="10.00">int</text>
</a>
</g>
</g>
<!-- Node6&#45;&gt;Node2 -->
<g id="edge5" class="edge">
<title>Node6&#45;&gt;Node2</title>
<path fill="none" stroke="#9a32cd" stroke-dasharray="5,2" d="M254.6,-245.1C254.6,-219.22 251.57,-172.06 232,-138 227.73,-130.56 220.6,-124.24 214.15,-119.6"/>
<polygon fill="#9a32cd" stroke="#9a32cd" points="251.1,-245.32 254.44,-255.38 258.1,-245.43 251.1,-245.32"/>
<text text-anchor="middle" x="287.5" y="-229" font-family="Helvetica,sans-Serif" font-size="10.00"> x</text>
<text text-anchor="middle" x="287.5" y="-218" font-family="Helvetica,sans-Serif" font-size="10.00">y</text>
<text text-anchor="middle" x="287.5" y="-207" font-family="Helvetica,sans-Serif" font-size="10.00">menuPosition</text>
<text text-anchor="middle" x="287.5" y="-196" font-family="Helvetica,sans-Serif" font-size="10.00">right</text>
<text text-anchor="middle" x="287.5" y="-185" font-family="Helvetica,sans-Serif" font-size="10.00">left</text>
<text text-anchor="middle" x="287.5" y="-174" font-family="Helvetica,sans-Serif" font-size="10.00">bottom</text>
<text text-anchor="middle" x="287.5" y="-163" font-family="Helvetica,sans-Serif" font-size="10.00">type</text>
<text text-anchor="middle" x="287.5" y="-152" font-family="Helvetica,sans-Serif" font-size="10.00">id</text>
<text text-anchor="middle" x="287.5" y="-141" font-family="Helvetica,sans-Serif" font-size="10.00">top</text>
</g>
<!-- Node7 -->
<g id="node7" class="node">
<title>Node7</title>
<g id="a_node7"><a xlink:title=" ">
<polygon fill="none" stroke="#bfbfbf" points="313.5,-255.5 313.5,-274.5 374.5,-274.5 374.5,-255.5 313.5,-255.5"/>
<text text-anchor="middle" x="344" y="-262.5" font-family="Helvetica,sans-Serif" font-size="10.00">unsigned</text>
</a>
</g>
</g>
<!-- Node7&#45;&gt;Node2 -->
<g id="edge6" class="edge">
<title>Node7&#45;&gt;Node2</title>
<path fill="none" stroke="#9a32cd" stroke-dasharray="5,2" d="M346.63,-245.03C349.28,-217.59 349.66,-166.93 322,-138 316.75,-132.51 280.76,-124.95 249.22,-119.23"/>
<polygon fill="#9a32cd" stroke="#9a32cd" points="343.12,-244.9 345.43,-255.24 350.07,-245.72 343.12,-244.9"/>
<text text-anchor="middle" x="360.5" y="-185" font-family="Helvetica,sans-Serif" font-size="10.00"> flags</text>
</g>
<!-- Node8 -->
<g id="node8" class="node">
<title>Node8</title>
<g id="a_node8"><a xlink:href="../../d4/dc3/classfloat.html" target="_top" xlink:title=" ">
<polygon fill="none" stroke="black" points="267,-100.5 267,-119.5 305,-119.5 305,-100.5 267,-100.5"/>
<text text-anchor="middle" x="286" y="-107.5" font-family="Helvetica,sans-Serif" font-size="10.00">float</text>
</a>
</g>
</g>
<!-- Node8&#45;&gt;Node1 -->
<g id="edge7" class="edge">
<title>Node8&#45;&gt;Node1</title>
<path fill="none" stroke="#9a32cd" stroke-dasharray="5,2" d="M282.18,-90.38C278.69,-75.63 272.75,-54.78 264,-38 260.59,-31.47 255.56,-24.93 251.28,-19.93"/>
<polygon fill="#9a32cd" stroke="#9a32cd" points="278.79,-91.29 284.36,-100.31 285.63,-89.79 278.79,-91.29"/>
<text text-anchor="middle" x="303.5" y="-74" font-family="Helvetica,sans-Serif" font-size="10.00"> range</text>
<text text-anchor="middle" x="303.5" y="-63" font-family="Helvetica,sans-Serif" font-size="10.00">minvalue</text>
<text text-anchor="middle" x="303.5" y="-52" font-family="Helvetica,sans-Serif" font-size="10.00">maxvalue</text>
<text text-anchor="middle" x="303.5" y="-41" font-family="Helvetica,sans-Serif" font-size="10.00">curvalue</text>
</g>
</g>
</svg>
