<?xml version="1.0" encoding="UTF-8" standalone="no"?>
<!DOCTYPE svg PUBLIC "-//W3C//DTD SVG 1.1//EN"
 "http://www.w3.org/Graphics/SVG/1.1/DTD/svg11.dtd">
<!-- Generated by graphviz version 2.43.0 (0)
 -->
<!-- Title: playerInfo_t Pages: 1 -->
<!--zoomable 351 -->
<svg id="main" version="1.1" xmlns="http://www.w3.org/2000/svg" xmlns:xlink="http://www.w3.org/1999/xlink" xml:space="preserve" onload="init(evt)">
<style type="text/css"><![CDATA[
.edge:hover path { stroke: red; }
.edge:hover polygon { stroke: red; fill: red; }
]]></style>
<script type="text/javascript"><![CDATA[
var edges = document.getElementsByTagName('g');
if (edges && edges.length) {
  for (var i=0;i<edges.length;i++) {
    if (edges[i].id.substr(0,4)=='edge') {
      edges[i].setAttribute('class','edge');
    }
  }
}
]]></script>
        <defs>
                <circle id="rim" cx="0" cy="0" r="7"/>
                <circle id="rim2" cx="0" cy="0" r="3.5"/>
                <g id="zoomPlus">
                        <use xlink:href="#rim" fill="#404040">
                                <set attributeName="fill" to="#808080" begin="zoomplus.mouseover" end="zoomplus.mouseout"/>
                        </use>
                        <path d="M-4,0h8M0,-4v8" fill="none" stroke="white" stroke-width="1.5" pointer-events="none"/>
                </g>
                <g id="zoomMin">
                        <use xlink:href="#rim" fill="#404040">
                                <set attributeName="fill" to="#808080" begin="zoomminus.mouseover" end="zoomminus.mouseout"/>
                        </use>
                        <path d="M-4,0h8" fill="none" stroke="white" stroke-width="1.5" pointer-events="none"/>
                </g>
                <g id="dirArrow">
                        <path fill="none" stroke="white" stroke-width="1.5" d="M0,-3.0v7 M-2.5,-0.5L0,-3.0L2.5,-0.5"/>
                </g>
               <g id="resetDef">
                       <use xlink:href="#rim2" fill="#404040">
                               <set attributeName="fill" to="#808080" begin="reset.mouseover" end="reset.mouseout"/>
                       </use>
               </g>
        </defs>

<script type="text/javascript">
var viewWidth = 619;
var viewHeight = 351;
var sectionId = 'dynsection-0';
</script>
<script xlink:href="../../svgpan.js"/>
<svg id="graph" class="graph">
<g id="viewport">
<title>playerInfo_t</title>
<!-- Node1 -->
<g id="node1" class="node">
<title>Node1</title>
<g id="a_node1"><a xlink:title=" ">
<polygon fill="#bfbfbf" stroke="black" points="272.5,-0.5 272.5,-19.5 347.5,-19.5 347.5,-0.5 272.5,-0.5"/>
<text text-anchor="middle" x="310" y="-7.5" font-family="Helvetica,sans-Serif" font-size="10.00">playerInfo_t</text>
</a>
</g>
</g>
<!-- Node2 -->
<g id="node2" class="node">
<title>Node2</title>
<g id="a_node2"><a xlink:title=" ">
<polygon fill="none" stroke="#bfbfbf" points="0,-151 0,-170 64,-170 64,-151 0,-151"/>
<text text-anchor="middle" x="32" y="-158" font-family="Helvetica,sans-Serif" font-size="10.00">weapon_t</text>
</a>
</g>
</g>
<!-- Node2&#45;&gt;Node1 -->
<g id="edge1" class="edge">
<title>Node2&#45;&gt;Node1</title>
<path fill="none" stroke="#9a32cd" stroke-dasharray="5,2" d="M25.46,-141.22C17.31,-114.8 7.35,-66.04 33,-38 48.86,-20.66 200.52,-14.09 272.47,-11.92"/>
<polygon fill="#9a32cd" stroke="#9a32cd" points="22.15,-142.37 28.63,-150.75 28.8,-140.16 22.15,-142.37"/>
<text text-anchor="middle" x="74" y="-74" font-family="Helvetica,sans-Serif" font-size="10.00"> pendingWeapon</text>
<text text-anchor="middle" x="74" y="-63" font-family="Helvetica,sans-Serif" font-size="10.00">currentWeapon</text>
<text text-anchor="middle" x="74" y="-52" font-family="Helvetica,sans-Serif" font-size="10.00">lastWeapon</text>
<text text-anchor="middle" x="74" y="-41" font-family="Helvetica,sans-Serif" font-size="10.00">weapon</text>
</g>
<!-- Node3 -->
<g id="node3" class="node">
<title>Node3</title>
<g id="a_node3"><a xlink:href="../../d4/dc3/classfloat.html" target="_top" xlink:title=" ">
<polygon fill="none" stroke="black" points="132,-323.5 132,-342.5 170,-342.5 170,-323.5 132,-323.5"/>
<text text-anchor="middle" x="151" y="-330.5" font-family="Helvetica,sans-Serif" font-size="10.00">float</text>
</a>
</g>
</g>
<!-- Node3&#45;&gt;Node1 -->
<g id="edge2" class="edge">
<title>Node3&#45;&gt;Node1</title>
<path fill="none" stroke="#9a32cd" stroke-dasharray="5,2" d="M143.72,-313.83C128.4,-272.46 97.54,-169.45 139,-100 167.56,-52.15 231.31,-28.9 272.39,-18.48"/>
<polygon fill="#9a32cd" stroke="#9a32cd" points="140.45,-315.09 147.31,-323.17 146.99,-312.58 140.45,-315.09"/>
<text text-anchor="middle" x="178.5" y="-174.5" font-family="Helvetica,sans-Serif" font-size="10.00"> moveAngles</text>
<text text-anchor="middle" x="178.5" y="-163.5" font-family="Helvetica,sans-Serif" font-size="10.00">viewAngles</text>
<text text-anchor="middle" x="178.5" y="-152.5" font-family="Helvetica,sans-Serif" font-size="10.00">barrelAngle</text>
<text text-anchor="middle" x="178.5" y="-141.5" font-family="Helvetica,sans-Serif" font-size="10.00">flashDlightColor</text>
</g>
<!-- Node6 -->
<g id="node6" class="node">
<title>Node6</title>
<g id="a_node6"><a xlink:href="../../db/dae/structlerpFrame__t.html" target="_top" xlink:title=" ">
<polygon fill="none" stroke="black" points="319.5,-151 319.5,-170 394.5,-170 394.5,-151 319.5,-151"/>
<text text-anchor="middle" x="357" y="-158" font-family="Helvetica,sans-Serif" font-size="10.00">lerpFrame_t</text>
</a>
</g>
</g>
<!-- Node3&#45;&gt;Node6 -->
<g id="edge6" class="edge">
<title>Node3&#45;&gt;Node6</title>
<path fill="none" stroke="#9a32cd" stroke-dasharray="5,2" d="M153.38,-313.25C157.16,-291.74 166.68,-257.12 190,-239 232.93,-205.64 264.09,-248.49 311,-221 331.73,-208.85 346.42,-183.43 353.05,-170.09"/>
<polygon fill="#9a32cd" stroke="#9a32cd" points="149.88,-312.99 151.85,-323.4 156.8,-314.03 149.88,-312.99"/>
<text text-anchor="middle" x="216" y="-280.5" font-family="Helvetica,sans-Serif" font-size="10.00"> yawAngle</text>
<text text-anchor="middle" x="216" y="-269.5" font-family="Helvetica,sans-Serif" font-size="10.00">pitchAngle</text>
<text text-anchor="middle" x="216" y="-258.5" font-family="Helvetica,sans-Serif" font-size="10.00">backlerp</text>
</g>
<!-- Node4 -->
<g id="node4" class="node">
<title>Node4</title>
<g id="a_node4"><a xlink:title=" ">
<polygon fill="none" stroke="#bfbfbf" points="226.5,-151 226.5,-170 301.5,-170 301.5,-151 226.5,-151"/>
<text text-anchor="middle" x="264" y="-158" font-family="Helvetica,sans-Serif" font-size="10.00">animation_t</text>
</a>
</g>
</g>
<!-- Node4&#45;&gt;Node1 -->
<g id="edge3" class="edge">
<title>Node4&#45;&gt;Node1</title>
<path fill="none" stroke="#9a32cd" stroke-dasharray="5,2" d="M260.29,-140.84C256.32,-115.72 252.8,-70.44 271,-38 275.43,-30.1 283.26,-24 290.74,-19.62"/>
<polygon fill="#9a32cd" stroke="#9a32cd" points="256.88,-141.61 262.08,-150.84 263.77,-140.38 256.88,-141.61"/>
<text text-anchor="middle" x="300" y="-57.5" font-family="Helvetica,sans-Serif" font-size="10.00"> animations</text>
</g>
<!-- Node5 -->
<g id="node5" class="node">
<title>Node5</title>
<g id="a_node5"><a xlink:title=" ">
<polygon fill="none" stroke="#bfbfbf" points="361.5,-323.5 361.5,-342.5 390.5,-342.5 390.5,-323.5 361.5,-323.5"/>
<text text-anchor="middle" x="376" y="-330.5" font-family="Helvetica,sans-Serif" font-size="10.00">int</text>
</a>
</g>
</g>
<!-- Node5&#45;&gt;Node1 -->
<g id="edge4" class="edge">
<title>Node5&#45;&gt;Node1</title>
<path fill="none" stroke="#9a32cd" stroke-dasharray="5,2" d="M399.72,-321.84C406.54,-317.67 413.16,-312.12 417,-305 432.09,-277 415.85,-143.61 404,-100 396.02,-70.64 396.98,-59.03 375,-38 366.26,-29.64 354.56,-23.7 343.49,-19.57"/>
<polygon fill="#9a32cd" stroke="#9a32cd" points="397.76,-318.92 390.55,-326.68 401.02,-325.11 397.76,-318.92"/>
<text text-anchor="middle" x="472.5" y="-213" font-family="Helvetica,sans-Serif" font-size="10.00"> pendingLegsAnim</text>
<text text-anchor="middle" x="472.5" y="-202" font-family="Helvetica,sans-Serif" font-size="10.00">torsoModel</text>
<text text-anchor="middle" x="472.5" y="-191" font-family="Helvetica,sans-Serif" font-size="10.00">legsSkin</text>
<text text-anchor="middle" x="472.5" y="-180" font-family="Helvetica,sans-Serif" font-size="10.00">torsoAnim</text>
<text text-anchor="middle" x="472.5" y="-169" font-family="Helvetica,sans-Serif" font-size="10.00">weaponModel</text>
<text text-anchor="middle" x="472.5" y="-158" font-family="Helvetica,sans-Serif" font-size="10.00">torsoSkin</text>
<text text-anchor="middle" x="472.5" y="-147" font-family="Helvetica,sans-Serif" font-size="10.00">barrelTime</text>
<text text-anchor="middle" x="472.5" y="-136" font-family="Helvetica,sans-Serif" font-size="10.00">weaponTimer</text>
<text text-anchor="middle" x="472.5" y="-125" font-family="Helvetica,sans-Serif" font-size="10.00">headSkin</text>
<text text-anchor="middle" x="472.5" y="-114" font-family="Helvetica,sans-Serif" font-size="10.00">headAnimationTimer</text>
<text text-anchor="middle" x="472.5" y="-103" font-family="Helvetica,sans-Serif" font-size="10.00">...</text>
</g>
<!-- Node5&#45;&gt;Node6 -->
<g id="edge7" class="edge">
<title>Node5&#45;&gt;Node6</title>
<path fill="none" stroke="#9a32cd" stroke-dasharray="5,2" d="M351.82,-324.38C342.69,-320.19 333.25,-313.97 328,-305 301.44,-259.58 336.79,-193.79 351.3,-170.27"/>
<polygon fill="#9a32cd" stroke="#9a32cd" points="350.81,-327.74 361.39,-328.16 353.38,-321.23 350.81,-327.74"/>
<text text-anchor="middle" x="372.5" y="-297" font-family="Helvetica,sans-Serif" font-size="10.00"> frameTime</text>
<text text-anchor="middle" x="372.5" y="-286" font-family="Helvetica,sans-Serif" font-size="10.00">oldFrame</text>
<text text-anchor="middle" x="372.5" y="-275" font-family="Helvetica,sans-Serif" font-size="10.00">animationNumber</text>
<text text-anchor="middle" x="372.5" y="-264" font-family="Helvetica,sans-Serif" font-size="10.00">frame</text>
<text text-anchor="middle" x="372.5" y="-253" font-family="Helvetica,sans-Serif" font-size="10.00">animationTime</text>
<text text-anchor="middle" x="372.5" y="-242" font-family="Helvetica,sans-Serif" font-size="10.00">oldFrameTime</text>
</g>
<!-- Node6&#45;&gt;Node1 -->
<g id="edge5" class="edge">
<title>Node6&#45;&gt;Node1</title>
<path fill="none" stroke="#9a32cd" stroke-dasharray="5,2" d="M354.97,-140.84C351.8,-116.36 344.39,-72.47 329,-38 326.1,-31.51 321.55,-24.97 317.63,-19.96"/>
<polygon fill="#9a32cd" stroke="#9a32cd" points="351.51,-141.38 356.17,-150.89 358.46,-140.55 351.51,-141.38"/>
<text text-anchor="middle" x="357" y="-68.5" font-family="Helvetica,sans-Serif" font-size="10.00"> head</text>
<text text-anchor="middle" x="357" y="-57.5" font-family="Helvetica,sans-Serif" font-size="10.00">legs</text>
<text text-anchor="middle" x="357" y="-46.5" font-family="Helvetica,sans-Serif" font-size="10.00">torso</text>
</g>
<!-- Node7 -->
<g id="node7" class="node">
<title>Node7</title>
<g id="a_node7"><a xlink:title=" ">
<polygon fill="none" stroke="#bfbfbf" points="209.5,-323.5 209.5,-342.5 292.5,-342.5 292.5,-323.5 209.5,-323.5"/>
<text text-anchor="middle" x="251" y="-330.5" font-family="Helvetica,sans-Serif" font-size="10.00">animation_t *</text>
</a>
</g>
</g>
<!-- Node7&#45;&gt;Node6 -->
<g id="edge8" class="edge">
<title>Node7&#45;&gt;Node6</title>
<path fill="none" stroke="#9a32cd" stroke-dasharray="5,2" d="M247.67,-313.54C245.08,-293.09 244.32,-260.22 261,-239 275.6,-220.43 291.9,-234.9 311,-221 330.21,-207.02 345.36,-182.84 352.51,-170.04"/>
<polygon fill="#9a32cd" stroke="#9a32cd" points="244.22,-314.11 249.2,-323.47 251.14,-313.05 244.22,-314.11"/>
<text text-anchor="middle" x="287.5" y="-269.5" font-family="Helvetica,sans-Serif" font-size="10.00"> animation</text>
</g>
<!-- Node8 -->
<g id="node8" class="node">
<title>Node8</title>
<g id="a_node8"><a xlink:title=" ">
<polygon fill="none" stroke="#bfbfbf" points="498,-323.5 498,-342.5 560,-342.5 560,-323.5 498,-323.5"/>
<text text-anchor="middle" x="529" y="-330.5" font-family="Helvetica,sans-Serif" font-size="10.00">qboolean</text>
</a>
</g>
</g>
<!-- Node8&#45;&gt;Node1 -->
<g id="edge10" class="edge">
<title>Node8&#45;&gt;Node1</title>
<path fill="none" stroke="#9a32cd" stroke-dasharray="5,2" d="M537.44,-314C538.5,-311.05 539.42,-307.98 540,-305 549.34,-257.33 529.22,-101.77 528,-100 487.06,-40.34 398.52,-20.63 347.77,-14.15"/>
<polygon fill="#9a32cd" stroke="#9a32cd" points="534.2,-312.69 533.57,-323.27 540.65,-315.39 534.2,-312.69"/>
<text text-anchor="middle" x="575.5" y="-185.5" font-family="Helvetica,sans-Serif" font-size="10.00"> fixedtorso</text>
<text text-anchor="middle" x="575.5" y="-174.5" font-family="Helvetica,sans-Serif" font-size="10.00">barrelSpinning</text>
<text text-anchor="middle" x="575.5" y="-163.5" font-family="Helvetica,sans-Serif" font-size="10.00">fixedlegs</text>
<text text-anchor="middle" x="575.5" y="-152.5" font-family="Helvetica,sans-Serif" font-size="10.00">chat</text>
<text text-anchor="middle" x="575.5" y="-141.5" font-family="Helvetica,sans-Serif" font-size="10.00">overrideHead</text>
<text text-anchor="middle" x="575.5" y="-130.5" font-family="Helvetica,sans-Serif" font-size="10.00">newModel</text>
</g>
<!-- Node8&#45;&gt;Node6 -->
<g id="edge9" class="edge">
<title>Node8&#45;&gt;Node6</title>
<path fill="none" stroke="#9a32cd" stroke-dasharray="5,2" d="M511.46,-316.83C487.59,-295.95 443.86,-256.86 409,-221 392.17,-203.69 373.9,-182.06 364.13,-170.23"/>
<polygon fill="#9a32cd" stroke="#9a32cd" points="509.19,-319.49 519.03,-323.42 513.78,-314.21 509.19,-319.49"/>
<text text-anchor="middle" x="516" y="-275" font-family="Helvetica,sans-Serif" font-size="10.00"> yawing</text>
<text text-anchor="middle" x="516" y="-264" font-family="Helvetica,sans-Serif" font-size="10.00">pitching</text>
</g>
</g>
</svg>
        <g id="navigator" transform="translate(0 0)" fill="#404254">
                <rect fill="#f2f5e9" fill-opacity="0.5" stroke="#606060" stroke-width=".5" x="0" y="0" width="60" height="60"/>
                <use id="zoomplus" xlink:href="#zoomPlus" x="17" y="9" onmousedown="handleZoom(evt,'in')"/>
                <use id="zoomminus" xlink:href="#zoomMin" x="42" y="9" onmousedown="handleZoom(evt,'out')"/>
                <use id="reset" xlink:href="#resetDef" x="30" y="36" onmousedown="handleReset()"/>
                <g id="arrowUp" xlink:href="#dirArrow" transform="translate(30 24)" onmousedown="handlePan(0,-1)">
                  <use xlink:href="#rim" fill="#404040">
                        <set attributeName="fill" to="#808080" begin="arrowUp.mouseover" end="arrowUp.mouseout"/>
                  </use>
                  <path fill="none" stroke="white" stroke-width="1.5" d="M0,-3.0v7 M-2.5,-0.5L0,-3.0L2.5,-0.5"/>
                </g>
                <g id="arrowRight" xlink:href="#dirArrow" transform="rotate(90) translate(36 -43)" onmousedown="handlePan(1,0)">
                  <use xlink:href="#rim" fill="#404040">
                        <set attributeName="fill" to="#808080" begin="arrowRight.mouseover" end="arrowRight.mouseout"/>
                  </use>
                  <path fill="none" stroke="white" stroke-width="1.5" d="M0,-3.0v7 M-2.5,-0.5L0,-3.0L2.5,-0.5"/>
                </g>
                <g id="arrowDown" xlink:href="#dirArrow" transform="rotate(180) translate(-30 -48)" onmousedown="handlePan(0,1)">
                  <use xlink:href="#rim" fill="#404040">
                        <set attributeName="fill" to="#808080" begin="arrowDown.mouseover" end="arrowDown.mouseout"/>
                  </use>
                  <path fill="none" stroke="white" stroke-width="1.5" d="M0,-3.0v7 M-2.5,-0.5L0,-3.0L2.5,-0.5"/>
                </g>
                <g id="arrowLeft" xlink:href="#dirArrow" transform="rotate(270) translate(-36 17)" onmousedown="handlePan(-1,0)">
                  <use xlink:href="#rim" fill="#404040">
                        <set attributeName="fill" to="#808080" begin="arrowLeft.mouseover" end="arrowLeft.mouseout"/>
                  </use>
                  <path fill="none" stroke="white" stroke-width="1.5" d="M0,-3.0v7 M-2.5,-0.5L0,-3.0L2.5,-0.5"/>
                </g>
        </g>
        <svg viewBox="0 0 15 15" width="100%" height="30px" preserveAspectRatio="xMaxYMin meet">
         <g id="arrow_out" transform="scale(0.3 0.3)">
          <a xlink:href="structplayerInfo__t__coll__graph_org.svg" target="_base">
           <rect id="button" ry="5" rx="5" y="6" x="6" height="38" width="38"
                fill="#f2f5e9" fill-opacity="0.5" stroke="#606060" stroke-width="1.0"/>
           <path id="arrow"
             d="M 11.500037,31.436501 C 11.940474,20.09759 22.043105,11.32322 32.158766,21.979434 L 37.068811,17.246167 C 37.068811,17.246167 37.088388,32 37.088388,32 L 22.160133,31.978069 C 22.160133,31.978069 26.997745,27.140456 26.997745,27.140456 C 18.528582,18.264221 13.291696,25.230495 11.500037,31.436501 z"
             style="fill:#404040;"/>
          </a>
         </g>
        </svg>
</svg>
