<?xml version="1.0" encoding="UTF-8" standalone="no"?>
<!DOCTYPE svg PUBLIC "-//W3C//DTD SVG 1.1//EN"
 "http://www.w3.org/Graphics/SVG/1.1/DTD/svg11.dtd">
<!-- Generated by graphviz version 2.43.0 (0)
 -->
<!-- Title: Source/Engine/SDL12/include/SDL_cpuinfo.h Pages: 1 -->
<!--zoomable 240 -->
<svg id="main" version="1.1" xmlns="http://www.w3.org/2000/svg" xmlns:xlink="http://www.w3.org/1999/xlink" xml:space="preserve" onload="init(evt)">
<style type="text/css"><![CDATA[
.edge:hover path { stroke: red; }
.edge:hover polygon { stroke: red; fill: red; }
]]></style>
<script type="text/javascript"><![CDATA[
var edges = document.getElementsByTagName('g');
if (edges && edges.length) {
  for (var i=0;i<edges.length;i++) {
    if (edges[i].id.substr(0,4)=='edge') {
      edges[i].setAttribute('class','edge');
    }
  }
}
]]></script>
        <defs>
                <circle id="rim" cx="0" cy="0" r="7"/>
                <circle id="rim2" cx="0" cy="0" r="3.5"/>
                <g id="zoomPlus">
                        <use xlink:href="#rim" fill="#404040">
                                <set attributeName="fill" to="#808080" begin="zoomplus.mouseover" end="zoomplus.mouseout"/>
                        </use>
                        <path d="M-4,0h8M0,-4v8" fill="none" stroke="white" stroke-width="1.5" pointer-events="none"/>
                </g>
                <g id="zoomMin">
                        <use xlink:href="#rim" fill="#404040">
                                <set attributeName="fill" to="#808080" begin="zoomminus.mouseover" end="zoomminus.mouseout"/>
                        </use>
                        <path d="M-4,0h8" fill="none" stroke="white" stroke-width="1.5" pointer-events="none"/>
                </g>
                <g id="dirArrow">
                        <path fill="none" stroke="white" stroke-width="1.5" d="M0,-3.0v7 M-2.5,-0.5L0,-3.0L2.5,-0.5"/>
                </g>
               <g id="resetDef">
                       <use xlink:href="#rim2" fill="#404040">
                               <set attributeName="fill" to="#808080" begin="reset.mouseover" end="reset.mouseout"/>
                       </use>
               </g>
        </defs>

<script type="text/javascript">
var viewWidth = 1574;
var viewHeight = 240;
var sectionId = 'dynsection-1';
</script>
<script xlink:href="../../svgpan.js"/>
<svg id="graph" class="graph">
<g id="viewport">
<title>Source/Engine/SDL12/include/SDL_cpuinfo.h</title>
<!-- Node1 -->
<g id="node1" class="node">
<title>Node1</title>
<g id="a_node1"><a xlink:title=" ">
<polygon fill="#bfbfbf" stroke="black" points="765,-201.5 765,-231.5 892,-231.5 892,-201.5 765,-201.5"/>
<text text-anchor="start" x="773" y="-219.5" font-family="Helvetica,sans-Serif" font-size="10.00">Source/Engine/SDL12</text>
<text text-anchor="middle" x="828.5" y="-208.5" font-family="Helvetica,sans-Serif" font-size="10.00">/include/SDL_cpuinfo.h</text>
</a>
</g>
</g>
<!-- Node2 -->
<g id="node2" class="node">
<title>Node2</title>
<g id="a_node2"><a xlink:href="../../d5/d3d/Engine_2sys_2sys__main_8c.html" target="_top" xlink:title=" ">
<polygon fill="none" stroke="black" points="0,-6 0,-25 127,-25 127,-6 0,-6"/>
<text text-anchor="middle" x="63.5" y="-13" font-family="Helvetica,sans-Serif" font-size="10.00">Engine/sys/sys_main.c</text>
</a>
</g>
</g>
<!-- Node1&#45;&gt;Node2 -->
<g id="edge1" class="edge">
<title>Node1&#45;&gt;Node2</title>
<path fill="none" stroke="midnightblue" d="M754.81,-214.79C583.96,-211.5 168.2,-193.64 74.5,-98 55.12,-78.22 58.79,-41.61 61.71,-25.04"/>
<polygon fill="midnightblue" stroke="midnightblue" points="754.91,-218.29 764.97,-214.97 755.04,-211.29 754.91,-218.29"/>
</g>
<!-- Node3 -->
<g id="node3" class="node">
<title>Node3</title>
<g id="a_node3"><a xlink:href="../../dc/d5f/Source_2Engine_2SDL12_2include_2SDL_8h.html" target="_top" xlink:title=" ">
<polygon fill="none" stroke="black" points="769,-134.5 769,-164.5 888,-164.5 888,-134.5 769,-134.5"/>
<text text-anchor="start" x="777" y="-152.5" font-family="Helvetica,sans-Serif" font-size="10.00">Source/Engine/SDL12</text>
<text text-anchor="middle" x="828.5" y="-141.5" font-family="Helvetica,sans-Serif" font-size="10.00">/include/SDL.h</text>
</a>
</g>
</g>
<!-- Node1&#45;&gt;Node3 -->
<g id="edge2" class="edge">
<title>Node1&#45;&gt;Node3</title>
<path fill="none" stroke="midnightblue" d="M828.5,-191.11C828.5,-182.15 828.5,-172.32 828.5,-164.58"/>
<polygon fill="midnightblue" stroke="midnightblue" points="825,-191.4 828.5,-201.4 832,-191.4 825,-191.4"/>
</g>
<!-- Node12 -->
<g id="node12" class="node">
<title>Node12</title>
<g id="a_node12"><a xlink:href="../../d9/d31/Source_2Engine_2sys_2sys__main_8c.html" target="_top" xlink:title=" ">
<polygon fill="none" stroke="black" points="950,-0.5 950,-30.5 1075,-30.5 1075,-0.5 950,-0.5"/>
<text text-anchor="start" x="958" y="-18.5" font-family="Helvetica,sans-Serif" font-size="10.00">Source/Engine/sys/sys</text>
<text text-anchor="middle" x="1012.5" y="-7.5" font-family="Helvetica,sans-Serif" font-size="10.00">_main.c</text>
</a>
</g>
</g>
<!-- Node1&#45;&gt;Node12 -->
<g id="edge19" class="edge">
<title>Node1&#45;&gt;Node12</title>
<path fill="none" stroke="midnightblue" d="M902.04,-215.2C1070.33,-212.79 1475.45,-196.64 1559.5,-98 1568.44,-87.51 1568.78,-77.18 1559.5,-67 1527.39,-31.79 1211.98,-20.78 1075.22,-17.64"/>
<polygon fill="midnightblue" stroke="midnightblue" points="901.98,-211.7 892.02,-215.33 902.07,-218.7 901.98,-211.7"/>
</g>
<!-- Node3&#45;&gt;Node2 -->
<g id="edge10" class="edge">
<title>Node3&#45;&gt;Node2</title>
<path fill="none" stroke="midnightblue" d="M758.72,-147.64C587.17,-144.97 154.83,-134.64 101.5,-98 76.41,-80.76 67.49,-42.5 64.67,-25.24"/>
<polygon fill="midnightblue" stroke="midnightblue" points="758.85,-151.14 768.91,-147.79 758.96,-144.14 758.85,-151.14"/>
</g>
<!-- Node4 -->
<g id="node4" class="node">
<title>Node4</title>
<g id="a_node4"><a xlink:href="../../d7/d97/Engine_2sys_2sys__loadlib_8h.html" target="_top" xlink:title=" ">
<polygon fill="none" stroke="black" points="110.5,-73 110.5,-92 246.5,-92 246.5,-73 110.5,-73"/>
<text text-anchor="middle" x="178.5" y="-80" font-family="Helvetica,sans-Serif" font-size="10.00">Engine/sys/sys_loadlib.h</text>
</a>
</g>
</g>
<!-- Node3&#45;&gt;Node4 -->
<g id="edge3" class="edge">
<title>Node3&#45;&gt;Node4</title>
<path fill="none" stroke="midnightblue" d="M758.76,-144.57C650.64,-137.98 436.15,-122.91 255.5,-98 243.78,-96.38 231.13,-94.19 219.54,-92"/>
<polygon fill="midnightblue" stroke="midnightblue" points="758.7,-148.07 768.89,-145.18 759.12,-141.09 758.7,-148.07"/>
</g>
<!-- Node6 -->
<g id="node6" class="node">
<title>Node6</title>
<g id="a_node6"><a xlink:href="../../de/dc0/Engine_2sdl_2sdl__gamma_8c.html" target="_top" xlink:title=" ">
<polygon fill="none" stroke="black" points="265,-73 265,-92 400,-92 400,-73 265,-73"/>
<text text-anchor="middle" x="332.5" y="-80" font-family="Helvetica,sans-Serif" font-size="10.00">Engine/sdl/sdl_gamma.c</text>
</a>
</g>
</g>
<!-- Node3&#45;&gt;Node6 -->
<g id="edge6" class="edge">
<title>Node3&#45;&gt;Node6</title>
<path fill="none" stroke="midnightblue" d="M758.73,-141.6C675.23,-132.99 531.29,-117.07 408.5,-98 397.48,-96.29 385.62,-94.16 374.62,-92.07"/>
<polygon fill="midnightblue" stroke="midnightblue" points="758.55,-145.1 768.86,-142.64 759.26,-138.13 758.55,-145.1"/>
</g>
<!-- Node7 -->
<g id="node7" class="node">
<title>Node7</title>
<g id="a_node7"><a xlink:href="../../d4/d06/Engine_2sdl_2sdl__glimp_8c.html" target="_top" xlink:title=" ">
<polygon fill="none" stroke="black" points="418,-73 418,-92 543,-92 543,-73 418,-73"/>
<text text-anchor="middle" x="480.5" y="-80" font-family="Helvetica,sans-Serif" font-size="10.00">Engine/sdl/sdl_glimp.c</text>
</a>
</g>
</g>
<!-- Node3&#45;&gt;Node7 -->
<g id="edge7" class="edge">
<title>Node3&#45;&gt;Node7</title>
<path fill="none" stroke="midnightblue" d="M758.82,-136.1C702.97,-126.08 622.64,-111.48 552.5,-98 542.73,-96.12 532.23,-94.04 522.35,-92.06"/>
<polygon fill="midnightblue" stroke="midnightblue" points="758.49,-139.6 768.95,-137.92 759.73,-132.71 758.49,-139.6"/>
</g>
<!-- Node8 -->
<g id="node8" class="node">
<title>Node8</title>
<g id="a_node8"><a xlink:href="../../d4/dfd/Engine_2sdl_2sdl__input_8c.html" target="_top" xlink:title=" ">
<polygon fill="none" stroke="black" points="561.5,-73 561.5,-92 683.5,-92 683.5,-73 561.5,-73"/>
<text text-anchor="middle" x="622.5" y="-80" font-family="Helvetica,sans-Serif" font-size="10.00">Engine/sdl/sdl_input.c</text>
</a>
</g>
</g>
<!-- Node3&#45;&gt;Node8 -->
<g id="edge8" class="edge">
<title>Node3&#45;&gt;Node8</title>
<path fill="none" stroke="midnightblue" d="M774.4,-131.43C734.23,-118.75 681.13,-102 649.53,-92.03"/>
<polygon fill="midnightblue" stroke="midnightblue" points="773.46,-134.8 784.05,-134.48 775.57,-128.13 773.46,-134.8"/>
</g>
<!-- Node9 -->
<g id="node9" class="node">
<title>Node9</title>
<g id="a_node9"><a xlink:href="../../dd/dd6/Engine_2sdl_2sdl__snd_8c.html" target="_top" xlink:title=" ">
<polygon fill="none" stroke="black" points="702,-73 702,-92 817,-92 817,-73 702,-73"/>
<text text-anchor="middle" x="759.5" y="-80" font-family="Helvetica,sans-Serif" font-size="10.00">Engine/sdl/sdl_snd.c</text>
</a>
</g>
</g>
<!-- Node3&#45;&gt;Node9 -->
<g id="edge9" class="edge">
<title>Node3&#45;&gt;Node9</title>
<path fill="none" stroke="midnightblue" d="M806.03,-127.34C793.36,-115.4 778.22,-101.14 768.73,-92.19"/>
<polygon fill="midnightblue" stroke="midnightblue" points="803.85,-130.09 813.53,-134.4 808.65,-124.99 803.85,-130.09"/>
</g>
<!-- Node10 -->
<g id="node10" class="node">
<title>Node10</title>
<g id="a_node10"><a xlink:href="../../da/d51/Source_2Engine_2sys_2sys__loadlib_8h.html" target="_top" xlink:title=" ">
<polygon fill="none" stroke="black" points="835,-67.5 835,-97.5 960,-97.5 960,-67.5 835,-67.5"/>
<text text-anchor="start" x="843" y="-85.5" font-family="Helvetica,sans-Serif" font-size="10.00">Source/Engine/sys/sys</text>
<text text-anchor="middle" x="897.5" y="-74.5" font-family="Helvetica,sans-Serif" font-size="10.00">_loadlib.h</text>
</a>
</g>
</g>
<!-- Node3&#45;&gt;Node10 -->
<g id="edge11" class="edge">
<title>Node3&#45;&gt;Node10</title>
<path fill="none" stroke="midnightblue" d="M850.99,-127.31C861.34,-117.56 873.34,-106.26 882.56,-97.58"/>
<polygon fill="midnightblue" stroke="midnightblue" points="848.35,-124.99 843.47,-134.4 853.15,-130.09 848.35,-124.99"/>
</g>
<!-- Node3&#45;&gt;Node12 -->
<g id="edge18" class="edge">
<title>Node3&#45;&gt;Node12</title>
<path fill="none" stroke="midnightblue" d="M897.82,-134.72C922.57,-127.12 949.3,-115.52 969.5,-98 990.53,-79.76 1002.83,-48.66 1008.56,-30.61"/>
<polygon fill="midnightblue" stroke="midnightblue" points="896.72,-131.39 888.09,-137.54 898.67,-138.12 896.72,-131.39"/>
</g>
<!-- Node13 -->
<g id="node13" class="node">
<title>Node13</title>
<g id="a_node13"><a xlink:href="../../d3/d9c/Source_2Engine_2sdl_2sdl__gamma_8c.html" target="_top" xlink:title=" ">
<polygon fill="none" stroke="black" points="1016.5,-67.5 1016.5,-97.5 1136.5,-97.5 1136.5,-67.5 1016.5,-67.5"/>
<text text-anchor="start" x="1024.5" y="-85.5" font-family="Helvetica,sans-Serif" font-size="10.00">Source/Engine/sdl/sdl</text>
<text text-anchor="middle" x="1076.5" y="-74.5" font-family="Helvetica,sans-Serif" font-size="10.00">_gamma.c</text>
</a>
</g>
</g>
<!-- Node3&#45;&gt;Node13 -->
<g id="edge14" class="edge">
<title>Node3&#45;&gt;Node13</title>
<path fill="none" stroke="midnightblue" d="M891.77,-131.92C932.24,-121.31 984.17,-107.7 1022.66,-97.61"/>
<polygon fill="midnightblue" stroke="midnightblue" points="890.79,-128.55 882.01,-134.48 892.57,-135.33 890.79,-128.55"/>
</g>
<!-- Node14 -->
<g id="node14" class="node">
<title>Node14</title>
<g id="a_node14"><a xlink:href="../../dd/deb/Source_2Engine_2sdl_2sdl__glimp_8c.html" target="_top" xlink:title=" ">
<polygon fill="none" stroke="black" points="1154.5,-67.5 1154.5,-97.5 1274.5,-97.5 1274.5,-67.5 1154.5,-67.5"/>
<text text-anchor="start" x="1162.5" y="-85.5" font-family="Helvetica,sans-Serif" font-size="10.00">Source/Engine/sdl/sdl</text>
<text text-anchor="middle" x="1214.5" y="-74.5" font-family="Helvetica,sans-Serif" font-size="10.00">_glimp.c</text>
</a>
</g>
</g>
<!-- Node3&#45;&gt;Node14 -->
<g id="edge15" class="edge">
<title>Node3&#45;&gt;Node14</title>
<path fill="none" stroke="midnightblue" d="M898.27,-138.39C962.62,-128.83 1060.71,-113.65 1145.5,-98 1148.39,-97.47 1151.34,-96.91 1154.32,-96.33"/>
<polygon fill="midnightblue" stroke="midnightblue" points="897.62,-134.95 888.24,-139.88 898.65,-141.87 897.62,-134.95"/>
</g>
<!-- Node15 -->
<g id="node15" class="node">
<title>Node15</title>
<g id="a_node15"><a xlink:href="../../d1/d36/Source_2Engine_2sdl_2sdl__input_8c.html" target="_top" xlink:title=" ">
<polygon fill="none" stroke="black" points="1292.5,-67.5 1292.5,-97.5 1412.5,-97.5 1412.5,-67.5 1292.5,-67.5"/>
<text text-anchor="start" x="1300.5" y="-85.5" font-family="Helvetica,sans-Serif" font-size="10.00">Source/Engine/sdl/sdl</text>
<text text-anchor="middle" x="1352.5" y="-74.5" font-family="Helvetica,sans-Serif" font-size="10.00">_input.c</text>
</a>
</g>
</g>
<!-- Node3&#45;&gt;Node15 -->
<g id="edge16" class="edge">
<title>Node3&#45;&gt;Node15</title>
<path fill="none" stroke="midnightblue" d="M898.03,-142.89C987.53,-135.18 1147.67,-119.76 1283.5,-98 1286.4,-97.54 1289.36,-97.03 1292.35,-96.5"/>
<polygon fill="midnightblue" stroke="midnightblue" points="897.67,-139.4 888.01,-143.74 898.27,-146.38 897.67,-139.4"/>
</g>
<!-- Node16 -->
<g id="node16" class="node">
<title>Node16</title>
<g id="a_node16"><a xlink:href="../../d2/d78/Source_2Engine_2sdl_2sdl__snd_8c.html" target="_top" xlink:title=" ">
<polygon fill="none" stroke="black" points="1430.5,-67.5 1430.5,-97.5 1550.5,-97.5 1550.5,-67.5 1430.5,-67.5"/>
<text text-anchor="start" x="1438.5" y="-85.5" font-family="Helvetica,sans-Serif" font-size="10.00">Source/Engine/sdl/sdl</text>
<text text-anchor="middle" x="1490.5" y="-74.5" font-family="Helvetica,sans-Serif" font-size="10.00">_snd.c</text>
</a>
</g>
</g>
<!-- Node3&#45;&gt;Node16 -->
<g id="edge17" class="edge">
<title>Node3&#45;&gt;Node16</title>
<path fill="none" stroke="midnightblue" d="M898.19,-145.33C1009.34,-139.65 1233.4,-125.67 1421.5,-98 1424.41,-97.57 1427.37,-97.1 1430.37,-96.59"/>
<polygon fill="midnightblue" stroke="midnightblue" points="897.93,-141.84 888.12,-145.84 898.28,-148.83 897.93,-141.84"/>
</g>
<!-- Node4&#45;&gt;Node2 -->
<g id="edge5" class="edge">
<title>Node4&#45;&gt;Node2</title>
<path fill="none" stroke="midnightblue" d="M154.24,-67.79C131.45,-54.9 98.04,-36.02 78.76,-25.13"/>
<polygon fill="midnightblue" stroke="midnightblue" points="152.56,-70.86 162.99,-72.73 156.01,-64.77 152.56,-70.86"/>
</g>
<!-- Node5 -->
<g id="node5" class="node">
<title>Node5</title>
<g id="a_node5"><a xlink:href="../../df/dda/Engine_2client_2cl__main_8c.html" target="_top" xlink:title=" ">
<polygon fill="none" stroke="black" points="145,-6 145,-25 274,-25 274,-6 145,-6"/>
<text text-anchor="middle" x="209.5" y="-13" font-family="Helvetica,sans-Serif" font-size="10.00">Engine/client/cl_main.c</text>
</a>
</g>
</g>
<!-- Node4&#45;&gt;Node5 -->
<g id="edge4" class="edge">
<title>Node4&#45;&gt;Node5</title>
<path fill="none" stroke="midnightblue" d="M187.01,-63.66C192.99,-51.13 200.72,-34.91 205.39,-25.13"/>
<polygon fill="midnightblue" stroke="midnightblue" points="183.83,-62.2 182.68,-72.73 190.14,-65.21 183.83,-62.2"/>
</g>
<!-- Node11 -->
<g id="node11" class="node">
<title>Node11</title>
<g id="a_node11"><a xlink:href="../../d6/da4/Source_2Engine_2client_2cl__main_8c.html" target="_top" xlink:title=" ">
<polygon fill="none" stroke="black" points="815.5,-0.5 815.5,-30.5 931.5,-30.5 931.5,-0.5 815.5,-0.5"/>
<text text-anchor="start" x="823.5" y="-18.5" font-family="Helvetica,sans-Serif" font-size="10.00">Source/Engine/client</text>
<text text-anchor="middle" x="873.5" y="-7.5" font-family="Helvetica,sans-Serif" font-size="10.00">/cl_main.c</text>
</a>
</g>
</g>
<!-- Node10&#45;&gt;Node11 -->
<g id="edge12" class="edge">
<title>Node10&#45;&gt;Node11</title>
<path fill="none" stroke="midnightblue" d="M888.82,-57.99C885.43,-48.8 881.65,-38.58 878.7,-30.58"/>
<polygon fill="midnightblue" stroke="midnightblue" points="885.55,-59.23 892.29,-67.4 892.11,-56.8 885.55,-59.23"/>
</g>
<!-- Node10&#45;&gt;Node12 -->
<g id="edge13" class="edge">
<title>Node10&#45;&gt;Node12</title>
<path fill="none" stroke="midnightblue" d="M931.48,-62.3C949.47,-52.12 971.18,-39.85 987.6,-30.58"/>
<polygon fill="midnightblue" stroke="midnightblue" points="929.44,-59.43 922.45,-67.4 932.88,-65.52 929.44,-59.43"/>
</g>
</g>
</svg>
        <g id="navigator" transform="translate(0 0)" fill="#404254">
                <rect fill="#f2f5e9" fill-opacity="0.5" stroke="#606060" stroke-width=".5" x="0" y="0" width="60" height="60"/>
                <use id="zoomplus" xlink:href="#zoomPlus" x="17" y="9" onmousedown="handleZoom(evt,'in')"/>
                <use id="zoomminus" xlink:href="#zoomMin" x="42" y="9" onmousedown="handleZoom(evt,'out')"/>
                <use id="reset" xlink:href="#resetDef" x="30" y="36" onmousedown="handleReset()"/>
                <g id="arrowUp" xlink:href="#dirArrow" transform="translate(30 24)" onmousedown="handlePan(0,-1)">
                  <use xlink:href="#rim" fill="#404040">
                        <set attributeName="fill" to="#808080" begin="arrowUp.mouseover" end="arrowUp.mouseout"/>
                  </use>
                  <path fill="none" stroke="white" stroke-width="1.5" d="M0,-3.0v7 M-2.5,-0.5L0,-3.0L2.5,-0.5"/>
                </g>
                <g id="arrowRight" xlink:href="#dirArrow" transform="rotate(90) translate(36 -43)" onmousedown="handlePan(1,0)">
                  <use xlink:href="#rim" fill="#404040">
                        <set attributeName="fill" to="#808080" begin="arrowRight.mouseover" end="arrowRight.mouseout"/>
                  </use>
                  <path fill="none" stroke="white" stroke-width="1.5" d="M0,-3.0v7 M-2.5,-0.5L0,-3.0L2.5,-0.5"/>
                </g>
                <g id="arrowDown" xlink:href="#dirArrow" transform="rotate(180) translate(-30 -48)" onmousedown="handlePan(0,1)">
                  <use xlink:href="#rim" fill="#404040">
                        <set attributeName="fill" to="#808080" begin="arrowDown.mouseover" end="arrowDown.mouseout"/>
                  </use>
                  <path fill="none" stroke="white" stroke-width="1.5" d="M0,-3.0v7 M-2.5,-0.5L0,-3.0L2.5,-0.5"/>
                </g>
                <g id="arrowLeft" xlink:href="#dirArrow" transform="rotate(270) translate(-36 17)" onmousedown="handlePan(-1,0)">
                  <use xlink:href="#rim" fill="#404040">
                        <set attributeName="fill" to="#808080" begin="arrowLeft.mouseover" end="arrowLeft.mouseout"/>
                  </use>
                  <path fill="none" stroke="white" stroke-width="1.5" d="M0,-3.0v7 M-2.5,-0.5L0,-3.0L2.5,-0.5"/>
                </g>
        </g>
        <svg viewBox="0 0 15 15" width="100%" height="30px" preserveAspectRatio="xMaxYMin meet">
         <g id="arrow_out" transform="scale(0.3 0.3)">
          <a xlink:href="Source_2Engine_2SDL12_2include_2SDL__cpuinfo_8h__dep__incl_org.svg" target="_base">
           <rect id="button" ry="5" rx="5" y="6" x="6" height="38" width="38"
                fill="#f2f5e9" fill-opacity="0.5" stroke="#606060" stroke-width="1.0"/>
           <path id="arrow"
             d="M 11.500037,31.436501 C 11.940474,20.09759 22.043105,11.32322 32.158766,21.979434 L 37.068811,17.246167 C 37.068811,17.246167 37.088388,32 37.088388,32 L 22.160133,31.978069 C 22.160133,31.978069 26.997745,27.140456 26.997745,27.140456 C 18.528582,18.264221 13.291696,25.230495 11.500037,31.436501 z"
             style="fill:#404040;"/>
          </a>
         </g>
        </svg>
</svg>
