<?xml version="1.0" encoding="UTF-8" standalone="no"?>
<!DOCTYPE svg PUBLIC "-//W3C//DTD SVG 1.1//EN"
 "http://www.w3.org/Graphics/SVG/1.1/DTD/svg11.dtd">
<!-- Generated by graphviz version 2.43.0 (0)
 -->
<!-- Title: teammain_t Pages: 1 -->
<!--zoomable 385 -->
<svg id="main" version="1.1" xmlns="http://www.w3.org/2000/svg" xmlns:xlink="http://www.w3.org/1999/xlink" xml:space="preserve" onload="init(evt)">
<style type="text/css"><![CDATA[
.edge:hover path { stroke: red; }
.edge:hover polygon { stroke: red; fill: red; }
]]></style>
<script type="text/javascript"><![CDATA[
var edges = document.getElementsByTagName('g');
if (edges && edges.length) {
  for (var i=0;i<edges.length;i++) {
    if (edges[i].id.substr(0,4)=='edge') {
      edges[i].setAttribute('class','edge');
    }
  }
}
]]></script>
        <defs>
                <circle id="rim" cx="0" cy="0" r="7"/>
                <circle id="rim2" cx="0" cy="0" r="3.5"/>
                <g id="zoomPlus">
                        <use xlink:href="#rim" fill="#404040">
                                <set attributeName="fill" to="#808080" begin="zoomplus.mouseover" end="zoomplus.mouseout"/>
                        </use>
                        <path d="M-4,0h8M0,-4v8" fill="none" stroke="white" stroke-width="1.5" pointer-events="none"/>
                </g>
                <g id="zoomMin">
                        <use xlink:href="#rim" fill="#404040">
                                <set attributeName="fill" to="#808080" begin="zoomminus.mouseover" end="zoomminus.mouseout"/>
                        </use>
                        <path d="M-4,0h8" fill="none" stroke="white" stroke-width="1.5" pointer-events="none"/>
                </g>
                <g id="dirArrow">
                        <path fill="none" stroke="white" stroke-width="1.5" d="M0,-3.0v7 M-2.5,-0.5L0,-3.0L2.5,-0.5"/>
                </g>
               <g id="resetDef">
                       <use xlink:href="#rim2" fill="#404040">
                               <set attributeName="fill" to="#808080" begin="reset.mouseover" end="reset.mouseout"/>
                       </use>
               </g>
        </defs>

<script type="text/javascript">
var viewWidth = 748;
var viewHeight = 385;
var sectionId = 'dynsection-0';
</script>
<script xlink:href="../../svgpan.js"/>
<svg id="graph" class="graph">
<g id="viewport">
<title>teammain_t</title>
<!-- Node1 -->
<g id="node1" class="node">
<title>Node1</title>
<g id="a_node1"><a xlink:title=" ">
<polygon fill="#bfbfbf" stroke="black" points="437,-0.5 437,-19.5 513,-19.5 513,-0.5 437,-0.5"/>
<text text-anchor="middle" x="475" y="-7.5" font-family="Helvetica,sans-Serif" font-size="10.00">teammain_t</text>
</a>
</g>
</g>
<!-- Node2 -->
<g id="node2" class="node">
<title>Node2</title>
<g id="a_node2"><a xlink:href="../../d8/da6/structmenubitmap__s.html" target="_top" xlink:title=" ">
<polygon fill="none" stroke="black" points="430.5,-100.5 430.5,-119.5 519.5,-119.5 519.5,-100.5 430.5,-100.5"/>
<text text-anchor="middle" x="475" y="-107.5" font-family="Helvetica,sans-Serif" font-size="10.00">menubitmap_s</text>
</a>
</g>
</g>
<!-- Node2&#45;&gt;Node1 -->
<g id="edge1" class="edge">
<title>Node2&#45;&gt;Node1</title>
<path fill="none" stroke="#9a32cd" stroke-dasharray="5,2" d="M475,-90.22C475,-68.95 475,-35.22 475,-19.54"/>
<polygon fill="#9a32cd" stroke="#9a32cd" points="471.5,-90.3 475,-100.3 478.5,-90.3 471.5,-90.3"/>
<text text-anchor="middle" x="491.5" y="-57.5" font-family="Helvetica,sans-Serif" font-size="10.00"> frame</text>
</g>
<!-- Node3 -->
<g id="node3" class="node">
<title>Node3</title>
<g id="a_node3"><a xlink:href="../../d5/d57/structmenucommon__s.html" target="_top" xlink:title=" ">
<polygon fill="none" stroke="black" points="278,-179.5 278,-198.5 376,-198.5 376,-179.5 278,-179.5"/>
<text text-anchor="middle" x="327" y="-186.5" font-family="Helvetica,sans-Serif" font-size="10.00">menucommon_s</text>
</a>
</g>
</g>
<!-- Node3&#45;&gt;Node2 -->
<g id="edge2" class="edge">
<title>Node3&#45;&gt;Node2</title>
<path fill="none" stroke="#9a32cd" stroke-dasharray="5,2" d="M321.21,-169.67C319.13,-159.25 318.81,-146.61 326,-138 339.1,-122.31 391.26,-115.72 430.2,-112.96"/>
<polygon fill="#9a32cd" stroke="#9a32cd" points="317.86,-170.68 323.78,-179.47 324.63,-168.9 317.86,-170.68"/>
<text text-anchor="middle" x="346" y="-141" font-family="Helvetica,sans-Serif" font-size="10.00"> generic</text>
</g>
<!-- Node11 -->
<g id="node11" class="node">
<title>Node11</title>
<g id="a_node11"><a xlink:href="../../d0/de7/structmenutext__s.html" target="_top" xlink:title=" ">
<polygon fill="none" stroke="black" points="592,-100.5 592,-119.5 666,-119.5 666,-100.5 592,-100.5"/>
<text text-anchor="middle" x="629" y="-107.5" font-family="Helvetica,sans-Serif" font-size="10.00">menutext_s</text>
</a>
</g>
</g>
<!-- Node3&#45;&gt;Node11 -->
<g id="edge14" class="edge">
<title>Node3&#45;&gt;Node11</title>
<path fill="none" stroke="#9a32cd" stroke-dasharray="5,2" d="M360.94,-176.14C393.11,-165.21 442.93,-149.04 487,-138 522.3,-129.16 563.16,-121.67 591.97,-116.84"/>
<polygon fill="#9a32cd" stroke="#9a32cd" points="359.48,-172.95 351.15,-179.5 361.74,-179.57 359.48,-172.95"/>
<text text-anchor="middle" x="507" y="-141" font-family="Helvetica,sans-Serif" font-size="10.00"> generic</text>
</g>
<!-- Node4 -->
<g id="node4" class="node">
<title>Node4</title>
<g id="a_node4"><a xlink:title=" ">
<polygon fill="none" stroke="#bfbfbf" points="0,-352 0,-371 108,-371 108,-352 0,-352"/>
<text text-anchor="middle" x="54" y="-359" font-family="Helvetica,sans-Serif" font-size="10.00">menuframework_s</text>
</a>
</g>
</g>
<!-- Node4&#45;&gt;Node1 -->
<g id="edge12" class="edge">
<title>Node4&#45;&gt;Node1</title>
<path fill="none" stroke="#9a32cd" stroke-dasharray="5,2" d="M52.46,-341.69C51.2,-314.29 52.68,-262.97 77,-229 168.39,-101.37 358.62,-40.35 438.47,-19.57"/>
<polygon fill="#9a32cd" stroke="#9a32cd" points="48.98,-342.1 53.11,-351.85 55.97,-341.65 48.98,-342.1"/>
<text text-anchor="middle" x="183.5" y="-141" font-family="Helvetica,sans-Serif" font-size="10.00"> menu</text>
</g>
<!-- Node4&#45;&gt;Node3 -->
<g id="edge3" class="edge">
<title>Node4&#45;&gt;Node3</title>
<path fill="none" stroke="#9a32cd" stroke-dasharray="5,2" d="M66.27,-343.55C69.79,-338.58 73.6,-333.11 77,-328 105.78,-284.79 96.39,-258.65 139,-229 179.91,-200.54 237.15,-192.02 277.7,-189.85"/>
<polygon fill="#9a32cd" stroke="#9a32cd" points="63.36,-341.6 60.38,-351.77 69.05,-345.67 63.36,-341.6"/>
<text text-anchor="middle" x="156.5" y="-276" font-family="Helvetica,sans-Serif" font-size="10.00"> parent</text>
</g>
<!-- Node5 -->
<g id="node5" class="node">
<title>Node5</title>
<g id="a_node5"><a xlink:title=" ">
<polygon fill="none" stroke="#bfbfbf" points="451,-352 451,-371 489,-371 489,-352 451,-352"/>
<text text-anchor="middle" x="470" y="-359" font-family="Helvetica,sans-Serif" font-size="10.00">char</text>
</a>
</g>
</g>
<!-- Node5&#45;&gt;Node2 -->
<g id="edge10" class="edge">
<title>Node5&#45;&gt;Node2</title>
<path fill="none" stroke="#9a32cd" stroke-dasharray="5,2" d="M461.46,-342.66C459.62,-338 457.94,-332.9 457,-328 443.47,-257.74 445.92,-237.69 457,-167 459.72,-149.65 466.91,-130.33 471.34,-119.53"/>
<polygon fill="#9a32cd" stroke="#9a32cd" points="458.31,-344.2 465.53,-351.95 464.72,-341.38 458.31,-344.2"/>
<text text-anchor="middle" x="477.5" y="-192" font-family="Helvetica,sans-Serif" font-size="10.00"> errorpic</text>
<text text-anchor="middle" x="477.5" y="-181" font-family="Helvetica,sans-Serif" font-size="10.00">focuspic</text>
</g>
<!-- Node5&#45;&gt;Node3 -->
<g id="edge4" class="edge">
<title>Node5&#45;&gt;Node3</title>
<path fill="none" stroke="#9a32cd" stroke-dasharray="5,2" d="M445.02,-347.42C444,-346.94 442.99,-346.46 442,-346 422.82,-337.13 411.7,-344.09 398,-328 368.71,-293.61 398.93,-267.31 375,-229 366.92,-216.07 353.04,-205.48 342.27,-198.62"/>
<polygon fill="#9a32cd" stroke="#9a32cd" points="443.62,-350.64 454.13,-351.97 446.75,-344.37 443.62,-350.64"/>
<text text-anchor="middle" x="413.5" y="-276" font-family="Helvetica,sans-Serif" font-size="10.00"> name</text>
</g>
<!-- Node5&#45;&gt;Node11 -->
<g id="edge16" class="edge">
<title>Node5&#45;&gt;Node11</title>
<path fill="none" stroke="#9a32cd" stroke-dasharray="5,2" d="M498.6,-351.81C513.16,-346.47 530.58,-338.59 544,-328 587.33,-293.8 579.14,-267.19 619,-229 629.15,-219.28 637.41,-222.83 645,-211 662.72,-183.38 668.56,-168.31 656,-138 652.96,-130.65 646.83,-124.26 641.19,-119.54"/>
<polygon fill="#9a32cd" stroke="#9a32cd" points="497.37,-348.53 489.06,-355.11 499.65,-355.15 497.37,-348.53"/>
<text text-anchor="middle" x="677.5" y="-186.5" font-family="Helvetica,sans-Serif" font-size="10.00"> string</text>
</g>
<!-- Node6 -->
<g id="node6" class="node">
<title>Node6</title>
<g id="a_node6"><a xlink:title=" ">
<polygon fill="none" stroke="#bfbfbf" points="126.5,-352 126.5,-371 231.5,-371 231.5,-352 126.5,-352"/>
<text text-anchor="middle" x="179" y="-359" font-family="Helvetica,sans-Serif" font-size="10.00">void(*)(void *self)</text>
</a>
</g>
</g>
<!-- Node6&#45;&gt;Node3 -->
<g id="edge5" class="edge">
<title>Node6&#45;&gt;Node3</title>
<path fill="none" stroke="#9a32cd" stroke-dasharray="5,2" d="M177.54,-341.77C176.41,-313.67 178.58,-260.55 207,-229 224.96,-209.06 253.21,-199.27 277.79,-194.49"/>
<polygon fill="#9a32cd" stroke="#9a32cd" points="174.05,-342.06 178.13,-351.84 181.04,-341.65 174.05,-342.06"/>
<text text-anchor="middle" x="236" y="-281.5" font-family="Helvetica,sans-Serif" font-size="10.00"> ownerdraw</text>
<text text-anchor="middle" x="236" y="-270.5" font-family="Helvetica,sans-Serif" font-size="10.00">statusbar</text>
</g>
<!-- Node7 -->
<g id="node7" class="node">
<title>Node7</title>
<g id="a_node7"><a xlink:title=" ">
<polygon fill="none" stroke="#bfbfbf" points="568.5,-352 568.5,-371 597.5,-371 597.5,-352 568.5,-352"/>
<text text-anchor="middle" x="583" y="-359" font-family="Helvetica,sans-Serif" font-size="10.00">int</text>
</a>
</g>
</g>
<!-- Node7&#45;&gt;Node2 -->
<g id="edge11" class="edge">
<title>Node7&#45;&gt;Node2</title>
<path fill="none" stroke="#9a32cd" stroke-dasharray="5,2" d="M586.43,-341.58C590.31,-314.02 593.28,-262.51 569,-229 557.56,-213.21 543.27,-224.28 529,-211 514.19,-197.23 488.47,-141.39 478.81,-119.69"/>
<polygon fill="#9a32cd" stroke="#9a32cd" points="582.91,-341.36 584.78,-351.79 589.83,-342.48 582.91,-341.36"/>
<text text-anchor="middle" x="559" y="-203" font-family="Helvetica,sans-Serif" font-size="10.00"> width</text>
<text text-anchor="middle" x="559" y="-192" font-family="Helvetica,sans-Serif" font-size="10.00">shader</text>
<text text-anchor="middle" x="559" y="-181" font-family="Helvetica,sans-Serif" font-size="10.00">height</text>
<text text-anchor="middle" x="559" y="-170" font-family="Helvetica,sans-Serif" font-size="10.00">focusshader</text>
</g>
<!-- Node7&#45;&gt;Node3 -->
<g id="edge6" class="edge">
<title>Node7&#45;&gt;Node3</title>
<path fill="none" stroke="#9a32cd" stroke-dasharray="5,2" d="M558.39,-354.66C541.26,-349.68 518.6,-341.2 502,-328 460.02,-294.62 475.46,-261.77 433,-229 413.75,-214.14 388.28,-204.53 367.13,-198.56"/>
<polygon fill="#9a32cd" stroke="#9a32cd" points="557.67,-358.09 568.24,-357.31 559.49,-351.33 557.67,-358.09"/>
<text text-anchor="middle" x="535.5" y="-320" font-family="Helvetica,sans-Serif" font-size="10.00"> x</text>
<text text-anchor="middle" x="535.5" y="-309" font-family="Helvetica,sans-Serif" font-size="10.00">y</text>
<text text-anchor="middle" x="535.5" y="-298" font-family="Helvetica,sans-Serif" font-size="10.00">menuPosition</text>
<text text-anchor="middle" x="535.5" y="-287" font-family="Helvetica,sans-Serif" font-size="10.00">right</text>
<text text-anchor="middle" x="535.5" y="-276" font-family="Helvetica,sans-Serif" font-size="10.00">left</text>
<text text-anchor="middle" x="535.5" y="-265" font-family="Helvetica,sans-Serif" font-size="10.00">bottom</text>
<text text-anchor="middle" x="535.5" y="-254" font-family="Helvetica,sans-Serif" font-size="10.00">type</text>
<text text-anchor="middle" x="535.5" y="-243" font-family="Helvetica,sans-Serif" font-size="10.00">id</text>
<text text-anchor="middle" x="535.5" y="-232" font-family="Helvetica,sans-Serif" font-size="10.00">top</text>
</g>
<!-- Node7&#45;&gt;Node11 -->
<g id="edge17" class="edge">
<title>Node7&#45;&gt;Node11</title>
<path fill="none" stroke="#9a32cd" stroke-dasharray="5,2" d="M601.98,-345.47C631.19,-320.98 685.96,-269.32 707,-211 718.46,-179.24 711.97,-159.57 686,-138 676.57,-130.16 664.48,-124.02 653.86,-119.58"/>
<polygon fill="#9a32cd" stroke="#9a32cd" points="599.65,-342.85 594.14,-351.9 604.09,-348.26 599.65,-342.85"/>
<text text-anchor="middle" x="726" y="-186.5" font-family="Helvetica,sans-Serif" font-size="10.00"> style</text>
</g>
<!-- Node8 -->
<g id="node8" class="node">
<title>Node8</title>
<g id="a_node8"><a xlink:title=" ">
<polygon fill="none" stroke="#bfbfbf" points="249.5,-352 249.5,-371 310.5,-371 310.5,-352 249.5,-352"/>
<text text-anchor="middle" x="280" y="-359" font-family="Helvetica,sans-Serif" font-size="10.00">unsigned</text>
</a>
</g>
</g>
<!-- Node8&#45;&gt;Node3 -->
<g id="edge7" class="edge">
<title>Node8&#45;&gt;Node3</title>
<path fill="none" stroke="#9a32cd" stroke-dasharray="5,2" d="M275.55,-342.18C270.12,-315.77 263.65,-266.09 281,-229 287.21,-215.72 300.39,-205.3 311.05,-198.59"/>
<polygon fill="#9a32cd" stroke="#9a32cd" points="272.14,-342.98 277.74,-351.97 278.97,-341.45 272.14,-342.98"/>
<text text-anchor="middle" x="294.5" y="-276" font-family="Helvetica,sans-Serif" font-size="10.00"> flags</text>
</g>
<!-- Node9 -->
<g id="node9" class="node">
<title>Node9</title>
<g id="a_node9"><a xlink:title=" ">
<polygon fill="none" stroke="#bfbfbf" points="329,-346.5 329,-376.5 433,-376.5 433,-346.5 329,-346.5"/>
<text text-anchor="start" x="337" y="-364.5" font-family="Helvetica,sans-Serif" font-size="10.00">void(*)(void *self,</text>
<text text-anchor="middle" x="381" y="-353.5" font-family="Helvetica,sans-Serif" font-size="10.00"> int event)</text>
</a>
</g>
</g>
<!-- Node9&#45;&gt;Node3 -->
<g id="edge8" class="edge">
<title>Node9&#45;&gt;Node3</title>
<path fill="none" stroke="#9a32cd" stroke-dasharray="5,2" d="M341.18,-340.25C337.15,-336.69 333.59,-332.62 331,-328 306.82,-284.95 318.97,-221.83 324.63,-198.81"/>
<polygon fill="#9a32cd" stroke="#9a32cd" points="339.3,-343.22 349.38,-346.47 343.53,-337.64 339.3,-343.22"/>
<text text-anchor="middle" x="353" y="-276" font-family="Helvetica,sans-Serif" font-size="10.00"> callback</text>
</g>
<!-- Node10 -->
<g id="node10" class="node">
<title>Node10</title>
<g id="a_node10"><a xlink:title=" ">
<polygon fill="none" stroke="#bfbfbf" points="598,-179.5 598,-198.5 636,-198.5 636,-179.5 598,-179.5"/>
<text text-anchor="middle" x="617" y="-186.5" font-family="Helvetica,sans-Serif" font-size="10.00">float</text>
</a>
</g>
</g>
<!-- Node10&#45;&gt;Node2 -->
<g id="edge9" class="edge">
<title>Node10&#45;&gt;Node2</title>
<path fill="none" stroke="#9a32cd" stroke-dasharray="5,2" d="M595.51,-174C591.7,-171.62 587.76,-169.2 584,-167 552.79,-148.72 514.96,-130.03 493.07,-119.53"/>
<polygon fill="#9a32cd" stroke="#9a32cd" points="593.66,-176.97 603.97,-179.4 597.42,-171.07 593.66,-176.97"/>
<text text-anchor="middle" x="575" y="-141" font-family="Helvetica,sans-Serif" font-size="10.00"> focuscolor</text>
</g>
<!-- Node10&#45;&gt;Node11 -->
<g id="edge15" class="edge">
<title>Node10&#45;&gt;Node11</title>
<path fill="none" stroke="#9a32cd" stroke-dasharray="5,2" d="M619.91,-169.31C622.36,-153.59 625.76,-131.81 627.63,-119.81"/>
<polygon fill="#9a32cd" stroke="#9a32cd" points="616.41,-169.05 618.33,-179.47 623.33,-170.12 616.41,-169.05"/>
<text text-anchor="middle" x="638" y="-141" font-family="Helvetica,sans-Serif" font-size="10.00"> color</text>
</g>
<!-- Node11&#45;&gt;Node1 -->
<g id="edge13" class="edge">
<title>Node11&#45;&gt;Node1</title>
<path fill="none" stroke="#9a32cd" stroke-dasharray="5,2" d="M606.85,-94.9C574.43,-74.28 515.05,-36.49 488.48,-19.58"/>
<polygon fill="#9a32cd" stroke="#9a32cd" points="605.29,-98.06 615.6,-100.47 609.05,-92.15 605.29,-98.06"/>
<text text-anchor="middle" x="606" y="-74" font-family="Helvetica,sans-Serif" font-size="10.00"> joinblue</text>
<text text-anchor="middle" x="606" y="-63" font-family="Helvetica,sans-Serif" font-size="10.00">joingame</text>
<text text-anchor="middle" x="606" y="-52" font-family="Helvetica,sans-Serif" font-size="10.00">joinred</text>
<text text-anchor="middle" x="606" y="-41" font-family="Helvetica,sans-Serif" font-size="10.00">spectate</text>
</g>
</g>
</svg>
        <g id="navigator" transform="translate(0 0)" fill="#404254">
                <rect fill="#f2f5e9" fill-opacity="0.5" stroke="#606060" stroke-width=".5" x="0" y="0" width="60" height="60"/>
                <use id="zoomplus" xlink:href="#zoomPlus" x="17" y="9" onmousedown="handleZoom(evt,'in')"/>
                <use id="zoomminus" xlink:href="#zoomMin" x="42" y="9" onmousedown="handleZoom(evt,'out')"/>
                <use id="reset" xlink:href="#resetDef" x="30" y="36" onmousedown="handleReset()"/>
                <g id="arrowUp" xlink:href="#dirArrow" transform="translate(30 24)" onmousedown="handlePan(0,-1)">
                  <use xlink:href="#rim" fill="#404040">
                        <set attributeName="fill" to="#808080" begin="arrowUp.mouseover" end="arrowUp.mouseout"/>
                  </use>
                  <path fill="none" stroke="white" stroke-width="1.5" d="M0,-3.0v7 M-2.5,-0.5L0,-3.0L2.5,-0.5"/>
                </g>
                <g id="arrowRight" xlink:href="#dirArrow" transform="rotate(90) translate(36 -43)" onmousedown="handlePan(1,0)">
                  <use xlink:href="#rim" fill="#404040">
                        <set attributeName="fill" to="#808080" begin="arrowRight.mouseover" end="arrowRight.mouseout"/>
                  </use>
                  <path fill="none" stroke="white" stroke-width="1.5" d="M0,-3.0v7 M-2.5,-0.5L0,-3.0L2.5,-0.5"/>
                </g>
                <g id="arrowDown" xlink:href="#dirArrow" transform="rotate(180) translate(-30 -48)" onmousedown="handlePan(0,1)">
                  <use xlink:href="#rim" fill="#404040">
                        <set attributeName="fill" to="#808080" begin="arrowDown.mouseover" end="arrowDown.mouseout"/>
                  </use>
                  <path fill="none" stroke="white" stroke-width="1.5" d="M0,-3.0v7 M-2.5,-0.5L0,-3.0L2.5,-0.5"/>
                </g>
                <g id="arrowLeft" xlink:href="#dirArrow" transform="rotate(270) translate(-36 17)" onmousedown="handlePan(-1,0)">
                  <use xlink:href="#rim" fill="#404040">
                        <set attributeName="fill" to="#808080" begin="arrowLeft.mouseover" end="arrowLeft.mouseout"/>
                  </use>
                  <path fill="none" stroke="white" stroke-width="1.5" d="M0,-3.0v7 M-2.5,-0.5L0,-3.0L2.5,-0.5"/>
                </g>
        </g>
        <svg viewBox="0 0 15 15" width="100%" height="30px" preserveAspectRatio="xMaxYMin meet">
         <g id="arrow_out" transform="scale(0.3 0.3)">
          <a xlink:href="structteammain__t__coll__graph_org.svg" target="_base">
           <rect id="button" ry="5" rx="5" y="6" x="6" height="38" width="38"
                fill="#f2f5e9" fill-opacity="0.5" stroke="#606060" stroke-width="1.0"/>
           <path id="arrow"
             d="M 11.500037,31.436501 C 11.940474,20.09759 22.043105,11.32322 32.158766,21.979434 L 37.068811,17.246167 C 37.068811,17.246167 37.088388,32 37.088388,32 L 22.160133,31.978069 C 22.160133,31.978069 26.997745,27.140456 26.997745,27.140456 C 18.528582,18.264221 13.291696,25.230495 11.500037,31.436501 z"
             style="fill:#404040;"/>
          </a>
         </g>
        </svg>
</svg>
