<?xml version="1.0" encoding="UTF-8" standalone="no"?>
<!DOCTYPE svg PUBLIC "-//W3C//DTD SVG 1.1//EN"
 "http://www.w3.org/Graphics/SVG/1.1/DTD/svg11.dtd">
<!-- Generated by graphviz version 2.43.0 (0)
 -->
<!-- Title: tagMIXERLINEW Pages: 1 -->
<svg width="506pt" height="205pt"
 viewBox="0.00 0.00 505.50 205.00" xmlns="http://www.w3.org/2000/svg" xmlns:xlink="http://www.w3.org/1999/xlink">
<g id="graph0" class="graph" transform="scale(1 1) rotate(0) translate(4 201)">
<title>tagMIXERLINEW</title>
<!-- Node1 -->
<g id="node1" class="node">
<title>Node1</title>
<g id="a_node1"><a xlink:title=" ">
<polygon fill="#bfbfbf" stroke="black" points="157,-0.5 157,-19.5 252,-19.5 252,-0.5 157,-0.5"/>
<text text-anchor="middle" x="204.5" y="-7.5" font-family="Helvetica,sans-Serif" font-size="10.00">tagMIXERLINEW</text>
</a>
</g>
</g>
<!-- Node2 -->
<g id="node2" class="node">
<title>Node2</title>
<g id="a_node2"><a xlink:title=" ">
<polygon fill="none" stroke="#bfbfbf" points="0,-177.5 0,-196.5 41,-196.5 41,-177.5 0,-177.5"/>
<text text-anchor="middle" x="20.5" y="-184.5" font-family="Helvetica,sans-Serif" font-size="10.00">short</text>
</a>
</g>
</g>
<!-- Node2&#45;&gt;Node1 -->
<g id="edge1" class="edge">
<title>Node2&#45;&gt;Node1</title>
<path fill="none" stroke="#9a32cd" stroke-dasharray="5,2" d="M20.83,-167.32C22.46,-135.69 30.56,-71.72 68.5,-38 81.5,-26.45 123.15,-19.33 156.97,-15.33"/>
<polygon fill="#9a32cd" stroke="#9a32cd" points="17.33,-167.28 20.48,-177.4 24.32,-167.53 17.33,-167.28"/>
<text text-anchor="middle" x="83.5" y="-101.5" font-family="Helvetica,sans-Serif" font-size="10.00"> wMid</text>
<text text-anchor="middle" x="83.5" y="-90.5" font-family="Helvetica,sans-Serif" font-size="10.00">wPid</text>
</g>
<!-- Node3 -->
<g id="node3" class="node">
<title>Node3</title>
<g id="a_node3"><a xlink:title=" ">
<polygon fill="none" stroke="#bfbfbf" points="59,-177.5 59,-196.5 148,-196.5 148,-177.5 59,-177.5"/>
<text text-anchor="middle" x="103.5" y="-184.5" font-family="Helvetica,sans-Serif" font-size="10.00">unsigned short</text>
</a>
</g>
</g>
<!-- Node3&#45;&gt;Node1 -->
<g id="edge2" class="edge">
<title>Node3&#45;&gt;Node1</title>
<path fill="none" stroke="#9a32cd" stroke-dasharray="5,2" d="M102.1,-167.3C100.83,-136.61 102.84,-75.24 134.5,-38 141.76,-29.47 152.04,-23.62 162.49,-19.62"/>
<polygon fill="#9a32cd" stroke="#9a32cd" points="98.61,-167.67 102.68,-177.45 105.6,-167.26 98.61,-167.67"/>
<text text-anchor="middle" x="167.5" y="-107" font-family="Helvetica,sans-Serif" font-size="10.00"> szName</text>
<text text-anchor="middle" x="167.5" y="-96" font-family="Helvetica,sans-Serif" font-size="10.00">szPname</text>
<text text-anchor="middle" x="167.5" y="-85" font-family="Helvetica,sans-Serif" font-size="10.00">szShortName</text>
</g>
<!-- Node4 -->
<g id="node4" class="node">
<title>Node4</title>
<g id="a_node4"><a xlink:href="../../d2/d5f/classunsigned_01int.html" target="_top" xlink:title=" ">
<polygon fill="none" stroke="black" points="166,-177.5 166,-196.5 243,-196.5 243,-177.5 166,-177.5"/>
<text text-anchor="middle" x="204.5" y="-184.5" font-family="Helvetica,sans-Serif" font-size="10.00">unsigned int</text>
</a>
</g>
</g>
<!-- Node4&#45;&gt;Node1 -->
<g id="edge3" class="edge">
<title>Node4&#45;&gt;Node1</title>
<path fill="none" stroke="#9a32cd" stroke-dasharray="5,2" d="M204.5,-166.95C204.5,-129.3 204.5,-46.65 204.5,-19.69"/>
<polygon fill="#9a32cd" stroke="#9a32cd" points="201,-167.08 204.5,-177.08 208,-167.08 201,-167.08"/>
<text text-anchor="middle" x="242.5" y="-96" font-family="Helvetica,sans-Serif" font-size="10.00"> vDriverVersion</text>
</g>
<!-- Node5 -->
<g id="node5" class="node">
<title>Node5</title>
<g id="a_node5"><a xlink:title=" ">
<polygon fill="none" stroke="#bfbfbf" points="261,-177.5 261,-196.5 368,-196.5 368,-177.5 261,-177.5"/>
<text text-anchor="middle" x="314.5" y="-184.5" font-family="Helvetica,sans-Serif" font-size="10.00">anonymous:Target</text>
</a>
</g>
</g>
<!-- Node5&#45;&gt;Node1 -->
<g id="edge4" class="edge">
<title>Node5&#45;&gt;Node1</title>
<path fill="none" stroke="#9a32cd" stroke-dasharray="5,2" d="M316.23,-167.16C317.98,-136.27 316.79,-74.62 284.5,-38 276.07,-28.43 264.12,-22.25 252.03,-18.26"/>
<polygon fill="#9a32cd" stroke="#9a32cd" points="312.72,-167.15 315.47,-177.38 319.7,-167.67 312.72,-167.15"/>
<text text-anchor="middle" x="333.5" y="-96" font-family="Helvetica,sans-Serif" font-size="10.00"> Target</text>
</g>
<!-- Node6 -->
<g id="node6" class="node">
<title>Node6</title>
<g id="a_node6"><a xlink:title=" ">
<polygon fill="none" stroke="#bfbfbf" points="386.5,-177.5 386.5,-196.5 424.5,-196.5 424.5,-177.5 386.5,-177.5"/>
<text text-anchor="middle" x="405.5" y="-184.5" font-family="Helvetica,sans-Serif" font-size="10.00">long</text>
</a>
</g>
</g>
<!-- Node6&#45;&gt;Node1 -->
<g id="edge5" class="edge">
<title>Node6&#45;&gt;Node1</title>
<path fill="none" stroke="#9a32cd" stroke-dasharray="5,2" d="M404.83,-167.22C402.61,-135.43 393.28,-71.23 354.5,-38 339.38,-25.04 290.2,-17.99 252.23,-14.38"/>
<polygon fill="#9a32cd" stroke="#9a32cd" points="401.34,-167.55 405.36,-177.35 408.33,-167.18 401.34,-167.55"/>
<text text-anchor="middle" x="450.5" y="-151" font-family="Helvetica,sans-Serif" font-size="10.00"> dwLineID</text>
<text text-anchor="middle" x="450.5" y="-140" font-family="Helvetica,sans-Serif" font-size="10.00">dwDeviceID</text>
<text text-anchor="middle" x="450.5" y="-129" font-family="Helvetica,sans-Serif" font-size="10.00">cConnections</text>
<text text-anchor="middle" x="450.5" y="-118" font-family="Helvetica,sans-Serif" font-size="10.00">dwType</text>
<text text-anchor="middle" x="450.5" y="-107" font-family="Helvetica,sans-Serif" font-size="10.00">cControls</text>
<text text-anchor="middle" x="450.5" y="-96" font-family="Helvetica,sans-Serif" font-size="10.00">dwUser</text>
<text text-anchor="middle" x="450.5" y="-85" font-family="Helvetica,sans-Serif" font-size="10.00">dwComponentType</text>
<text text-anchor="middle" x="450.5" y="-74" font-family="Helvetica,sans-Serif" font-size="10.00">fdwLine</text>
<text text-anchor="middle" x="450.5" y="-63" font-family="Helvetica,sans-Serif" font-size="10.00">dwSource</text>
<text text-anchor="middle" x="450.5" y="-52" font-family="Helvetica,sans-Serif" font-size="10.00">cbStruct</text>
<text text-anchor="middle" x="450.5" y="-41" font-family="Helvetica,sans-Serif" font-size="10.00">...</text>
</g>
</g>
</svg>
