<?xml version="1.0" encoding="UTF-8" standalone="no"?>
<!DOCTYPE svg PUBLIC "-//W3C//DTD SVG 1.1//EN"
 "http://www.w3.org/Graphics/SVG/1.1/DTD/svg11.dtd">
<!-- Generated by graphviz version 2.43.0 (0)
 -->
<!-- Title: powerpc_opcode Pages: 1 -->
<svg width="209pt" height="117pt"
 viewBox="0.00 0.00 208.50 117.00" xmlns="http://www.w3.org/2000/svg" xmlns:xlink="http://www.w3.org/1999/xlink">
<g id="graph0" class="graph" transform="scale(1 1) rotate(0) translate(4 113)">
<title>powerpc_opcode</title>
<!-- Node1 -->
<g id="node1" class="node">
<title>Node1</title>
<g id="a_node1"><a xlink:title=" ">
<polygon fill="#bfbfbf" stroke="black" points="38,-0.5 38,-19.5 136,-19.5 136,-0.5 38,-0.5"/>
<text text-anchor="middle" x="87" y="-7.5" font-family="Helvetica,sans-Serif" font-size="10.00">powerpc_opcode</text>
</a>
</g>
</g>
<!-- Node2 -->
<g id="node2" class="node">
<title>Node2</title>
<g id="a_node2"><a xlink:title=" ">
<polygon fill="none" stroke="#bfbfbf" points="0,-89.5 0,-108.5 38,-108.5 38,-89.5 0,-89.5"/>
<text text-anchor="middle" x="19" y="-96.5" font-family="Helvetica,sans-Serif" font-size="10.00">char</text>
</a>
</g>
</g>
<!-- Node2&#45;&gt;Node1 -->
<g id="edge1" class="edge">
<title>Node2&#45;&gt;Node1</title>
<path fill="none" stroke="#9a32cd" stroke-dasharray="5,2" d="M26.63,-79.74C32.44,-67.18 41.25,-50.56 52,-38 58.09,-30.89 66.33,-24.42 73.28,-19.6"/>
<polygon fill="#9a32cd" stroke="#9a32cd" points="23.31,-78.6 22.49,-89.16 29.72,-81.42 23.31,-78.6"/>
<text text-anchor="middle" x="67.5" y="-52" font-family="Helvetica,sans-Serif" font-size="10.00"> name</text>
</g>
<!-- Node3 -->
<g id="node3" class="node">
<title>Node3</title>
<g id="a_node3"><a xlink:title=" ">
<polygon fill="none" stroke="#bfbfbf" points="56.5,-89.5 56.5,-108.5 117.5,-108.5 117.5,-89.5 56.5,-89.5"/>
<text text-anchor="middle" x="87" y="-96.5" font-family="Helvetica,sans-Serif" font-size="10.00">unsigned</text>
</a>
</g>
</g>
<!-- Node3&#45;&gt;Node1 -->
<g id="edge2" class="edge">
<title>Node3&#45;&gt;Node1</title>
<path fill="none" stroke="#9a32cd" stroke-dasharray="5,2" d="M87,-79.19C87,-60.74 87,-33.41 87,-19.62"/>
<polygon fill="#9a32cd" stroke="#9a32cd" points="83.5,-79.34 87,-89.34 90.5,-79.34 83.5,-79.34"/>
<text text-anchor="middle" x="111.5" y="-63" font-family="Helvetica,sans-Serif" font-size="10.00"> operands</text>
<text text-anchor="middle" x="111.5" y="-52" font-family="Helvetica,sans-Serif" font-size="10.00">mask</text>
<text text-anchor="middle" x="111.5" y="-41" font-family="Helvetica,sans-Serif" font-size="10.00">opcode</text>
</g>
<!-- Node4 -->
<g id="node4" class="node">
<title>Node4</title>
<g id="a_node4"><a xlink:title=" ">
<polygon fill="none" stroke="#bfbfbf" points="135.5,-89.5 135.5,-108.5 200.5,-108.5 200.5,-89.5 135.5,-89.5"/>
<text text-anchor="middle" x="168" y="-96.5" font-family="Helvetica,sans-Serif" font-size="10.00">ppc_cpu_t</text>
</a>
</g>
</g>
<!-- Node4&#45;&gt;Node1 -->
<g id="edge3" class="edge">
<title>Node4&#45;&gt;Node1</title>
<path fill="none" stroke="#9a32cd" stroke-dasharray="5,2" d="M162.91,-79.51C158.57,-66.58 151.23,-49.63 140,-38 132.25,-29.98 121.61,-23.92 111.89,-19.6"/>
<polygon fill="#9a32cd" stroke="#9a32cd" points="159.6,-80.66 165.86,-89.21 166.3,-78.62 159.6,-80.66"/>
<text text-anchor="middle" x="172.5" y="-52" font-family="Helvetica,sans-Serif" font-size="10.00"> flags</text>
</g>
</g>
</svg>
