<?xml version="1.0" encoding="UTF-8" standalone="no"?>
<!DOCTYPE svg PUBLIC "-//W3C//DTD SVG 1.1//EN"
 "http://www.w3.org/Graphics/SVG/1.1/DTD/svg11.dtd">
<!-- Generated by graphviz version 2.43.0 (0)
 -->
<!-- Title: tagMCI_OPEN_PARMSW Pages: 1 -->
<svg width="310pt" height="117pt"
 viewBox="0.00 0.00 309.50 117.00" xmlns="http://www.w3.org/2000/svg" xmlns:xlink="http://www.w3.org/1999/xlink">
<g id="graph0" class="graph" transform="scale(1 1) rotate(0) translate(4 113)">
<title>tagMCI_OPEN_PARMSW</title>
<!-- Node1 -->
<g id="node1" class="node">
<title>Node1</title>
<g id="a_node1"><a xlink:title=" ">
<polygon fill="#bfbfbf" stroke="black" points="96.5,-0.5 96.5,-19.5 228.5,-19.5 228.5,-0.5 96.5,-0.5"/>
<text text-anchor="middle" x="162.5" y="-7.5" font-family="Helvetica,sans-Serif" font-size="10.00">tagMCI_OPEN_PARMSW</text>
</a>
</g>
</g>
<!-- Node2 -->
<g id="node2" class="node">
<title>Node2</title>
<g id="a_node2"><a xlink:title=" ">
<polygon fill="none" stroke="#bfbfbf" points="0,-89.5 0,-108.5 89,-108.5 89,-89.5 0,-89.5"/>
<text text-anchor="middle" x="44.5" y="-96.5" font-family="Helvetica,sans-Serif" font-size="10.00">unsigned short</text>
</a>
</g>
</g>
<!-- Node2&#45;&gt;Node1 -->
<g id="edge1" class="edge">
<title>Node2&#45;&gt;Node1</title>
<path fill="none" stroke="#9a32cd" stroke-dasharray="5,2" d="M45.78,-79.35C47.68,-66.08 52.29,-48.76 63.5,-38 72.62,-29.24 84.3,-23.26 96.41,-19.19"/>
<polygon fill="#9a32cd" stroke="#9a32cd" points="42.3,-79 44.75,-89.31 49.26,-79.73 42.3,-79"/>
<text text-anchor="middle" x="111" y="-63" font-family="Helvetica,sans-Serif" font-size="10.00"> lpstrElementName</text>
<text text-anchor="middle" x="111" y="-52" font-family="Helvetica,sans-Serif" font-size="10.00">lpstrAlias</text>
<text text-anchor="middle" x="111" y="-41" font-family="Helvetica,sans-Serif" font-size="10.00">lpstrDeviceType</text>
</g>
<!-- Node3 -->
<g id="node3" class="node">
<title>Node3</title>
<g id="a_node3"><a xlink:href="../../d2/d5f/classunsigned_01int.html" target="_top" xlink:title=" ">
<polygon fill="none" stroke="black" points="124,-89.5 124,-108.5 201,-108.5 201,-89.5 124,-89.5"/>
<text text-anchor="middle" x="162.5" y="-96.5" font-family="Helvetica,sans-Serif" font-size="10.00">unsigned int</text>
</a>
</g>
</g>
<!-- Node3&#45;&gt;Node1 -->
<g id="edge2" class="edge">
<title>Node3&#45;&gt;Node1</title>
<path fill="none" stroke="#9a32cd" stroke-dasharray="5,2" d="M162.5,-79.19C162.5,-60.74 162.5,-33.41 162.5,-19.62"/>
<polygon fill="#9a32cd" stroke="#9a32cd" points="159,-79.34 162.5,-89.34 166,-79.34 159,-79.34"/>
<text text-anchor="middle" x="190.5" y="-52" font-family="Helvetica,sans-Serif" font-size="10.00"> wDeviceID</text>
</g>
<!-- Node4 -->
<g id="node4" class="node">
<title>Node4</title>
<g id="a_node4"><a xlink:title=" ">
<polygon fill="none" stroke="#bfbfbf" points="219,-89.5 219,-108.5 280,-108.5 280,-89.5 219,-89.5"/>
<text text-anchor="middle" x="249.5" y="-96.5" font-family="Helvetica,sans-Serif" font-size="10.00">unsigned</text>
</a>
</g>
</g>
<!-- Node4&#45;&gt;Node1 -->
<g id="edge3" class="edge">
<title>Node4&#45;&gt;Node1</title>
<path fill="none" stroke="#9a32cd" stroke-dasharray="5,2" d="M244.91,-79.35C240.89,-66.34 233.86,-49.36 222.5,-38 214.26,-29.76 203.06,-23.8 192.57,-19.61"/>
<polygon fill="#9a32cd" stroke="#9a32cd" points="241.58,-80.42 247.62,-89.12 248.32,-78.55 241.58,-80.42"/>
<text text-anchor="middle" x="271.5" y="-52" font-family="Helvetica,sans-Serif" font-size="10.00"> dwCallback</text>
</g>
</g>
</svg>
