<?xml version="1.0" encoding="UTF-8" standalone="no"?>
<!DOCTYPE svg PUBLIC "-//W3C//DTD SVG 1.1//EN"
 "http://www.w3.org/Graphics/SVG/1.1/DTD/svg11.dtd">
<!-- Generated by graphviz version 2.43.0 (0)
 -->
<!-- Title: Source/Engine/libspeex/include/speex/speex_stereo.h Pages: 1 -->
<svg width="256pt" height="95pt"
 viewBox="0.00 0.00 255.50 95.00" xmlns="http://www.w3.org/2000/svg" xmlns:xlink="http://www.w3.org/1999/xlink">
<g id="graph0" class="graph" transform="scale(1 1) rotate(0) translate(4 91)">
<title>Source/Engine/libspeex/include/speex/speex_stereo.h</title>
<!-- Node1 -->
<g id="node1" class="node">
<title>Node1</title>
<g id="a_node1"><a xlink:title="Describes the handling for intensity stereo.">
<polygon fill="#bfbfbf" stroke="black" points="43.5,-56.5 43.5,-86.5 207.5,-86.5 207.5,-56.5 43.5,-56.5"/>
<text text-anchor="start" x="51.5" y="-74.5" font-family="Helvetica,sans-Serif" font-size="10.00">Source/Engine/libspeex</text>
<text text-anchor="middle" x="125.5" y="-63.5" font-family="Helvetica,sans-Serif" font-size="10.00">/include/speex/speex_stereo.h</text>
</a>
</g>
</g>
<!-- Node2 -->
<g id="node2" class="node">
<title>Node2</title>
<g id="a_node2"><a xlink:title=" ">
<polygon fill="none" stroke="#bfbfbf" points="0,-0.5 0,-19.5 119,-19.5 119,-0.5 0,-0.5"/>
<text text-anchor="middle" x="59.5" y="-7.5" font-family="Helvetica,sans-Serif" font-size="10.00">speex/speex_types.h</text>
</a>
</g>
</g>
<!-- Node1&#45;&gt;Node2 -->
<g id="edge1" class="edge">
<title>Node1&#45;&gt;Node2</title>
<path fill="none" stroke="midnightblue" d="M109.86,-56.4C99.87,-47.4 86.92,-35.72 76.65,-26.47"/>
<polygon fill="midnightblue" stroke="midnightblue" points="78.87,-23.75 69.1,-19.66 74.19,-28.95 78.87,-23.75"/>
</g>
<!-- Node3 -->
<g id="node3" class="node">
<title>Node3</title>
<g id="a_node3"><a xlink:title=" ">
<polygon fill="none" stroke="#bfbfbf" points="137.5,-0.5 137.5,-19.5 247.5,-19.5 247.5,-0.5 137.5,-0.5"/>
<text text-anchor="middle" x="192.5" y="-7.5" font-family="Helvetica,sans-Serif" font-size="10.00">speex/speex_bits.h</text>
</a>
</g>
</g>
<!-- Node1&#45;&gt;Node3 -->
<g id="edge2" class="edge">
<title>Node1&#45;&gt;Node3</title>
<path fill="none" stroke="midnightblue" d="M141.38,-56.4C151.52,-47.4 164.66,-35.72 175.09,-26.47"/>
<polygon fill="midnightblue" stroke="midnightblue" points="177.6,-28.92 182.75,-19.66 172.95,-23.68 177.6,-28.92"/>
</g>
</g>
</svg>
