<?xml version="1.0" encoding="UTF-8" standalone="no"?>
<!DOCTYPE svg PUBLIC "-//W3C//DTD SVG 1.1//EN"
 "http://www.w3.org/Graphics/SVG/1.1/DTD/svg11.dtd">
<!-- Generated by graphviz version 2.43.0 (0)
 -->
<!-- Title: tagLVFINDINFOA Pages: 1 -->
<svg width="277pt" height="106pt"
 viewBox="0.00 0.00 276.50 106.00" xmlns="http://www.w3.org/2000/svg" xmlns:xlink="http://www.w3.org/1999/xlink">
<g id="graph0" class="graph" transform="scale(1 1) rotate(0) translate(4 102)">
<title>tagLVFINDINFOA</title>
<!-- Node1 -->
<g id="node1" class="node">
<title>Node1</title>
<g id="a_node1"><a xlink:title=" ">
<polygon fill="#bfbfbf" stroke="black" points="86,-0.5 86,-19.5 184,-19.5 184,-0.5 86,-0.5"/>
<text text-anchor="middle" x="135" y="-7.5" font-family="Helvetica,sans-Serif" font-size="10.00">tagLVFINDINFOA</text>
</a>
</g>
</g>
<!-- Node2 -->
<g id="node2" class="node">
<title>Node2</title>
<g id="a_node2"><a xlink:title=" ">
<polygon fill="none" stroke="#bfbfbf" points="0,-78.5 0,-97.5 68,-97.5 68,-78.5 0,-78.5"/>
<text text-anchor="middle" x="34" y="-85.5" font-family="Helvetica,sans-Serif" font-size="10.00">LONG_PTR</text>
</a>
</g>
</g>
<!-- Node2&#45;&gt;Node1 -->
<g id="edge1" class="edge">
<title>Node2&#45;&gt;Node1</title>
<path fill="none" stroke="#9a32cd" stroke-dasharray="5,2" d="M45,-69.76C52.25,-59.48 62.5,-46.77 74,-38 84.31,-30.14 97.28,-23.98 108.6,-19.55"/>
<polygon fill="#9a32cd" stroke="#9a32cd" points="41.91,-68.08 39.24,-78.33 47.72,-71.98 41.91,-68.08"/>
<text text-anchor="middle" x="92.5" y="-46.5" font-family="Helvetica,sans-Serif" font-size="10.00"> lParam</text>
</g>
<!-- Node3 -->
<g id="node3" class="node">
<title>Node3</title>
<g id="a_node3"><a xlink:title=" ">
<polygon fill="none" stroke="#bfbfbf" points="86,-78.5 86,-97.5 124,-97.5 124,-78.5 86,-78.5"/>
<text text-anchor="middle" x="105" y="-85.5" font-family="Helvetica,sans-Serif" font-size="10.00">char</text>
</a>
</g>
</g>
<!-- Node3&#45;&gt;Node1 -->
<g id="edge2" class="edge">
<title>Node3&#45;&gt;Node1</title>
<path fill="none" stroke="#9a32cd" stroke-dasharray="5,2" d="M111.91,-68.96C115.48,-59.69 119.93,-48.23 124,-38 126.39,-31.98 129.14,-25.23 131.3,-19.98"/>
<polygon fill="#9a32cd" stroke="#9a32cd" points="108.64,-67.72 108.32,-78.31 115.17,-70.23 108.64,-67.72"/>
<text text-anchor="middle" x="134" y="-46.5" font-family="Helvetica,sans-Serif" font-size="10.00"> psz</text>
</g>
<!-- Node4 -->
<g id="node4" class="node">
<title>Node4</title>
<g id="a_node4"><a xlink:title=" ">
<polygon fill="none" stroke="#bfbfbf" points="142.5,-78.5 142.5,-97.5 189.5,-97.5 189.5,-78.5 142.5,-78.5"/>
<text text-anchor="middle" x="166" y="-85.5" font-family="Helvetica,sans-Serif" font-size="10.00">POINT</text>
</a>
</g>
</g>
<!-- Node4&#45;&gt;Node1 -->
<g id="edge3" class="edge">
<title>Node4&#45;&gt;Node1</title>
<path fill="none" stroke="#9a32cd" stroke-dasharray="5,2" d="M158.53,-68.67C152.18,-53.11 143.35,-31.47 138.51,-19.62"/>
<polygon fill="#9a32cd" stroke="#9a32cd" points="155.43,-70.34 162.44,-78.28 161.91,-67.7 155.43,-70.34"/>
<text text-anchor="middle" x="160.5" y="-46.5" font-family="Helvetica,sans-Serif" font-size="10.00"> pt</text>
</g>
<!-- Node5 -->
<g id="node5" class="node">
<title>Node5</title>
<g id="a_node5"><a xlink:title=" ">
<polygon fill="none" stroke="#bfbfbf" points="207.5,-78.5 207.5,-97.5 268.5,-97.5 268.5,-78.5 207.5,-78.5"/>
<text text-anchor="middle" x="238" y="-85.5" font-family="Helvetica,sans-Serif" font-size="10.00">unsigned</text>
</a>
</g>
</g>
<!-- Node5&#45;&gt;Node1 -->
<g id="edge4" class="edge">
<title>Node5&#45;&gt;Node1</title>
<path fill="none" stroke="#9a32cd" stroke-dasharray="5,2" d="M217.87,-72.15C196.66,-56.5 163.98,-32.38 146.68,-19.62"/>
<polygon fill="#9a32cd" stroke="#9a32cd" points="216.06,-75.16 226.18,-78.28 220.22,-69.53 216.06,-75.16"/>
<text text-anchor="middle" x="226.5" y="-52" font-family="Helvetica,sans-Serif" font-size="10.00"> flags</text>
<text text-anchor="middle" x="226.5" y="-41" font-family="Helvetica,sans-Serif" font-size="10.00">vkDirection</text>
</g>
</g>
</svg>
