<?xml version="1.0" encoding="UTF-8" standalone="no"?>
<!DOCTYPE svg PUBLIC "-//W3C//DTD SVG 1.1//EN"
 "http://www.w3.org/Graphics/SVG/1.1/DTD/svg11.dtd">
<!-- Generated by graphviz version 2.43.0 (0)
 -->
<!-- Title: _SECURITY_QUALITY_OF_SERVICE Pages: 1 -->
<svg width="450pt" height="176pt"
 viewBox="0.00 0.00 450.00 175.50" xmlns="http://www.w3.org/2000/svg" xmlns:xlink="http://www.w3.org/1999/xlink">
<g id="graph0" class="graph" transform="scale(1 1) rotate(0) translate(4 171.5)">
<title>_SECURITY_QUALITY_OF_SERVICE</title>
<!-- Node1 -->
<g id="node1" class="node">
<title>Node1</title>
<g id="a_node1"><a xlink:title=" ">
<polygon fill="#bfbfbf" stroke="black" points="306,-63.5 306,-93.5 442,-93.5 442,-63.5 306,-63.5"/>
<text text-anchor="start" x="314" y="-81.5" font-family="Helvetica,sans-Serif" font-size="10.00">_SECURITY_QUALITY_OF</text>
<text text-anchor="middle" x="374" y="-70.5" font-family="Helvetica,sans-Serif" font-size="10.00">_SERVICE</text>
</a>
</g>
</g>
<!-- Node2 -->
<g id="node2" class="node">
<title>Node2</title>
<g id="a_node2"><a xlink:title=" ">
<polygon fill="none" stroke="#bfbfbf" points="0,-126 0,-167 161,-167 161,-126 0,-126"/>
<text text-anchor="start" x="8" y="-155" font-family="Helvetica,sans-Serif" font-size="10.00">PLDAP *typedef(__cdecl</text>
<text text-anchor="start" x="8" y="-144" font-family="Helvetica,sans-Serif" font-size="10.00"> NOTIFYOFNEWCONNECTION)</text>
<text text-anchor="middle" x="80.5" y="-133" font-family="Helvetica,sans-Serif" font-size="10.00">(PLDAP</text>
</a>
</g>
</g>
<!-- Node2&#45;&gt;Node1 -->
<g id="edge1" class="edge">
<title>Node2&#45;&gt;Node1</title>
<path fill="none" stroke="#9a32cd" stroke-dasharray="5,2" d="M171.49,-130.89C207.88,-124 250.14,-115.24 288,-105.5 301.35,-102.07 315.69,-97.76 328.72,-93.6"/>
<polygon fill="#9a32cd" stroke="#9a32cd" points="170.58,-127.5 161.4,-132.79 171.87,-134.38 170.58,-127.5"/>
<text text-anchor="middle" x="233.5" y="-131.5" font-family="Helvetica,sans-Serif" font-size="10.00"> EffectiveOnly</text>
</g>
<!-- Node3 -->
<g id="node3" class="node">
<title>Node3</title>
<g id="a_node3"><a xlink:title=" ">
<polygon fill="none" stroke="#bfbfbf" points="48.5,-88 48.5,-107 112.5,-107 112.5,-88 48.5,-88"/>
<text text-anchor="middle" x="80.5" y="-95" font-family="Helvetica,sans-Serif" font-size="10.00">BOOLEAN</text>
</a>
</g>
</g>
<!-- Node3&#45;&gt;Node1 -->
<g id="edge2" class="edge">
<title>Node3&#45;&gt;Node1</title>
<path fill="none" stroke="#9a32cd" stroke-dasharray="5,2" d="M122.94,-94.8C170.58,-91.69 249.42,-86.55 305.85,-82.88"/>
<polygon fill="#9a32cd" stroke="#9a32cd" points="122.45,-91.32 112.7,-95.47 122.9,-98.31 122.45,-91.32"/>
<text text-anchor="middle" x="233.5" y="-93.5" font-family="Helvetica,sans-Serif" font-size="10.00"> ContextTrackingMode</text>
</g>
<!-- Node4 -->
<g id="node4" class="node">
<title>Node4</title>
<g id="a_node4"><a xlink:title=" ">
<polygon fill="none" stroke="#bfbfbf" points="61.5,-50 61.5,-69 99.5,-69 99.5,-50 61.5,-50"/>
<text text-anchor="middle" x="80.5" y="-57" font-family="Helvetica,sans-Serif" font-size="10.00">long</text>
</a>
</g>
</g>
<!-- Node4&#45;&gt;Node1 -->
<g id="edge3" class="edge">
<title>Node4&#45;&gt;Node1</title>
<path fill="none" stroke="#9a32cd" stroke-dasharray="5,2" d="M109.79,-60.07C149.61,-61.03 224.44,-63.38 288,-68.5 293.78,-68.97 299.77,-69.52 305.77,-70.13"/>
<polygon fill="#9a32cd" stroke="#9a32cd" points="109.84,-56.57 99.76,-59.84 109.68,-63.57 109.84,-56.57"/>
<text text-anchor="middle" x="233.5" y="-71.5" font-family="Helvetica,sans-Serif" font-size="10.00"> Length</text>
</g>
<!-- Node5 -->
<g id="node5" class="node">
<title>Node5</title>
<g id="a_node5"><a xlink:title=" ">
<polygon fill="none" stroke="#bfbfbf" points="4.5,-0.5 4.5,-30.5 156.5,-30.5 156.5,-0.5 4.5,-0.5"/>
<text text-anchor="start" x="12.5" y="-18.5" font-family="Helvetica,sans-Serif" font-size="10.00">SECURITY_IMPERSONATION</text>
<text text-anchor="middle" x="80.5" y="-7.5" font-family="Helvetica,sans-Serif" font-size="10.00">_LEVEL</text>
</a>
</g>
</g>
<!-- Node5&#45;&gt;Node1 -->
<g id="edge4" class="edge">
<title>Node5&#45;&gt;Node1</title>
<path fill="none" stroke="#9a32cd" stroke-dasharray="5,2" d="M167.2,-24.25C204.65,-29.13 248.88,-36.32 288,-46.5 304.79,-50.87 322.84,-57.39 337.97,-63.41"/>
<polygon fill="#9a32cd" stroke="#9a32cd" points="167.18,-20.72 156.82,-22.94 166.3,-27.66 167.18,-20.72"/>
<text text-anchor="middle" x="233.5" y="-49.5" font-family="Helvetica,sans-Serif" font-size="10.00"> ImpersonationLevel</text>
</g>
</g>
</svg>
