<?xml version="1.0" encoding="UTF-8" standalone="no"?>
<!DOCTYPE svg PUBLIC "-//W3C//DTD SVG 1.1//EN"
 "http://www.w3.org/Graphics/SVG/1.1/DTD/svg11.dtd">
<!-- Generated by graphviz version 2.43.0 (0)
 -->
<!-- Title: Tools/MinGW/include/c++/4.6.1/bits/stl_iterator_base_types.h Pages: 1 -->
<!--zoomable 518 -->
<svg id="main" version="1.1" xmlns="http://www.w3.org/2000/svg" xmlns:xlink="http://www.w3.org/1999/xlink" xml:space="preserve" onload="init(evt)">
<style type="text/css"><![CDATA[
.edge:hover path { stroke: red; }
.edge:hover polygon { stroke: red; fill: red; }
]]></style>
<script type="text/javascript"><![CDATA[
var edges = document.getElementsByTagName('g');
if (edges && edges.length) {
  for (var i=0;i<edges.length;i++) {
    if (edges[i].id.substr(0,4)=='edge') {
      edges[i].setAttribute('class','edge');
    }
  }
}
]]></script>
        <defs>
                <circle id="rim" cx="0" cy="0" r="7"/>
                <circle id="rim2" cx="0" cy="0" r="3.5"/>
                <g id="zoomPlus">
                        <use xlink:href="#rim" fill="#404040">
                                <set attributeName="fill" to="#808080" begin="zoomplus.mouseover" end="zoomplus.mouseout"/>
                        </use>
                        <path d="M-4,0h8M0,-4v8" fill="none" stroke="white" stroke-width="1.5" pointer-events="none"/>
                </g>
                <g id="zoomMin">
                        <use xlink:href="#rim" fill="#404040">
                                <set attributeName="fill" to="#808080" begin="zoomminus.mouseover" end="zoomminus.mouseout"/>
                        </use>
                        <path d="M-4,0h8" fill="none" stroke="white" stroke-width="1.5" pointer-events="none"/>
                </g>
                <g id="dirArrow">
                        <path fill="none" stroke="white" stroke-width="1.5" d="M0,-3.0v7 M-2.5,-0.5L0,-3.0L2.5,-0.5"/>
                </g>
               <g id="resetDef">
                       <use xlink:href="#rim2" fill="#404040">
                               <set attributeName="fill" to="#808080" begin="reset.mouseover" end="reset.mouseout"/>
                       </use>
               </g>
        </defs>

<script type="text/javascript">
var viewWidth = 1227;
var viewHeight = 518;
var sectionId = 'dynsection-1';
</script>
<script xlink:href="../../svgpan.js"/>
<svg id="graph" class="graph">
<g id="viewport">
<title>Tools/MinGW/include/c++/4.6.1/bits/stl_iterator_base_types.h</title>
<!-- Node1 -->
<g id="node1" class="node">
<title>Node1</title>
<g id="a_node1"><a xlink:title=" ">
<polygon fill="#bfbfbf" stroke="black" points="490,-468.5 490,-509.5 618,-509.5 618,-468.5 490,-468.5"/>
<text text-anchor="start" x="498" y="-497.5" font-family="Helvetica,sans-Serif" font-size="10.00">Tools/MinGW/include</text>
<text text-anchor="start" x="498" y="-486.5" font-family="Helvetica,sans-Serif" font-size="10.00">/c++/4.6.1/bits/stl</text>
<text text-anchor="middle" x="554" y="-475.5" font-family="Helvetica,sans-Serif" font-size="10.00">_iterator_base_types.h</text>
</a>
</g>
</g>
<!-- Node2 -->
<g id="node2" class="node">
<title>Node2</title>
<g id="a_node2"><a xlink:href="../../d6/d86/algorithmfwd_8h.html" target="_top" xlink:title=" ">
<polygon fill="none" stroke="black" points="272,-396 272,-426 438,-426 438,-396 272,-396"/>
<text text-anchor="start" x="280" y="-414" font-family="Helvetica,sans-Serif" font-size="10.00">Tools/MinGW/include</text>
<text text-anchor="middle" x="355" y="-403" font-family="Helvetica,sans-Serif" font-size="10.00">/c++/4.6.1/bits/algorithmfwd.h</text>
</a>
</g>
</g>
<!-- Node1&#45;&gt;Node2 -->
<g id="edge1" class="edge">
<title>Node1&#45;&gt;Node2</title>
<path fill="none" stroke="midnightblue" d="M493.18,-464.77C460.12,-452.15 420.32,-436.94 391.94,-426.11"/>
<polygon fill="midnightblue" stroke="midnightblue" points="492.16,-468.13 502.75,-468.43 494.66,-461.59 492.16,-468.13"/>
</g>
<!-- Node4 -->
<g id="node4" class="node">
<title>Node4</title>
<g id="a_node4"><a xlink:href="../../d3/d07/boost__concept__check_8h.html" target="_top" xlink:title=" ">
<polygon fill="none" stroke="black" points="494.5,-390.5 494.5,-431.5 613.5,-431.5 613.5,-390.5 494.5,-390.5"/>
<text text-anchor="start" x="502.5" y="-419.5" font-family="Helvetica,sans-Serif" font-size="10.00">Tools/MinGW/include</text>
<text text-anchor="start" x="502.5" y="-408.5" font-family="Helvetica,sans-Serif" font-size="10.00">/c++/4.6.1/bits/boost</text>
<text text-anchor="middle" x="554" y="-397.5" font-family="Helvetica,sans-Serif" font-size="10.00">_concept_check.h</text>
</a>
</g>
</g>
<!-- Node1&#45;&gt;Node4 -->
<g id="edge3" class="edge">
<title>Node1&#45;&gt;Node4</title>
<path fill="none" stroke="midnightblue" d="M554,-458.3C554,-449.3 554,-439.65 554,-431.51"/>
<polygon fill="midnightblue" stroke="midnightblue" points="550.5,-458.43 554,-468.43 557.5,-458.43 550.5,-458.43"/>
</g>
<!-- Node5 -->
<g id="node5" class="node">
<title>Node5</title>
<g id="a_node5"><a xlink:href="../../d3/d05/stl__algobase_8h.html" target="_top" xlink:title=" ">
<polygon fill="none" stroke="black" points="136,-390.5 136,-431.5 254,-431.5 254,-390.5 136,-390.5"/>
<text text-anchor="start" x="144" y="-419.5" font-family="Helvetica,sans-Serif" font-size="10.00">Tools/MinGW/include</text>
<text text-anchor="start" x="144" y="-408.5" font-family="Helvetica,sans-Serif" font-size="10.00">/c++/4.6.1/bits/stl</text>
<text text-anchor="middle" x="195" y="-397.5" font-family="Helvetica,sans-Serif" font-size="10.00">_algobase.h</text>
</a>
</g>
</g>
<!-- Node1&#45;&gt;Node5 -->
<g id="edge4" class="edge">
<title>Node1&#45;&gt;Node5</title>
<path fill="none" stroke="midnightblue" d="M479.77,-475.74C420.71,-465.5 336.14,-449.75 263,-432 260.13,-431.3 257.2,-430.56 254.25,-429.79"/>
<polygon fill="midnightblue" stroke="midnightblue" points="479.31,-479.21 489.75,-477.46 480.49,-472.31 479.31,-479.21"/>
</g>
<!-- Node13 -->
<g id="node13" class="node">
<title>Node13</title>
<g id="a_node13"><a xlink:href="../../d4/d95/stl__deque_8h.html" target="_top" xlink:title=" ">
<polygon fill="none" stroke="black" points="632,-390.5 632,-431.5 750,-431.5 750,-390.5 632,-390.5"/>
<text text-anchor="start" x="640" y="-419.5" font-family="Helvetica,sans-Serif" font-size="10.00">Tools/MinGW/include</text>
<text text-anchor="start" x="640" y="-408.5" font-family="Helvetica,sans-Serif" font-size="10.00">/c++/4.6.1/bits/stl</text>
<text text-anchor="middle" x="691" y="-397.5" font-family="Helvetica,sans-Serif" font-size="10.00">_deque.h</text>
</a>
</g>
</g>
<!-- Node1&#45;&gt;Node13 -->
<g id="edge13" class="edge">
<title>Node1&#45;&gt;Node13</title>
<path fill="none" stroke="midnightblue" d="M598.19,-463.49C616.85,-453.13 638.28,-441.25 655.84,-431.51"/>
<polygon fill="midnightblue" stroke="midnightblue" points="596.33,-460.52 589.28,-468.43 599.72,-466.64 596.33,-460.52"/>
</g>
<!-- Node14 -->
<g id="node14" class="node">
<title>Node14</title>
<g id="a_node14"><a xlink:href="../../d8/d5c/functions_8h.html" target="_top" xlink:title=" ">
<polygon fill="none" stroke="black" points="768,-396 768,-426 926,-426 926,-396 768,-396"/>
<text text-anchor="start" x="776" y="-414" font-family="Helvetica,sans-Serif" font-size="10.00">Tools/MinGW/include</text>
<text text-anchor="middle" x="847" y="-403" font-family="Helvetica,sans-Serif" font-size="10.00">/c++/4.6.1/debug/functions.h</text>
</a>
</g>
</g>
<!-- Node1&#45;&gt;Node14 -->
<g id="edge14" class="edge">
<title>Node1&#45;&gt;Node14</title>
<path fill="none" stroke="midnightblue" d="M628,-468.8C679.25,-455.51 746.33,-438.11 792.68,-426.09"/>
<polygon fill="midnightblue" stroke="midnightblue" points="627.1,-465.42 618.3,-471.32 628.86,-472.2 627.1,-465.42"/>
</g>
<!-- Node15 -->
<g id="node15" class="node">
<title>Node15</title>
<g id="a_node15"><a xlink:href="../../d8/d08/safe__iterator_8h.html" target="_top" xlink:title=" ">
<polygon fill="none" stroke="black" points="891.5,-312.5 891.5,-353.5 1016.5,-353.5 1016.5,-312.5 891.5,-312.5"/>
<text text-anchor="start" x="899.5" y="-341.5" font-family="Helvetica,sans-Serif" font-size="10.00">Tools/MinGW/include</text>
<text text-anchor="start" x="899.5" y="-330.5" font-family="Helvetica,sans-Serif" font-size="10.00">/c++/4.6.1/debug/safe</text>
<text text-anchor="middle" x="954" y="-319.5" font-family="Helvetica,sans-Serif" font-size="10.00">_iterator.h</text>
</a>
</g>
</g>
<!-- Node1&#45;&gt;Node15 -->
<g id="edge25" class="edge">
<title>Node1&#45;&gt;Node15</title>
<path fill="none" stroke="midnightblue" d="M628.26,-486.97C726.49,-484 892.22,-472.87 935,-432 956.05,-411.89 957.66,-375.97 956.27,-353.65"/>
<polygon fill="midnightblue" stroke="midnightblue" points="627.99,-483.48 618.09,-487.26 628.18,-490.47 627.99,-483.48"/>
</g>
<!-- Node21 -->
<g id="node21" class="node">
<title>Node21</title>
<g id="a_node21"><a xlink:href="../../d5/d9f/pointer_8h.html" target="_top" xlink:title=" ">
<polygon fill="none" stroke="black" points="387.5,-162 387.5,-192 520.5,-192 520.5,-162 387.5,-162"/>
<text text-anchor="start" x="395.5" y="-180" font-family="Helvetica,sans-Serif" font-size="10.00">Tools/MinGW/include</text>
<text text-anchor="middle" x="454" y="-169" font-family="Helvetica,sans-Serif" font-size="10.00">/c++/4.6.1/ext/pointer.h</text>
</a>
</g>
</g>
<!-- Node1&#45;&gt;Node21 -->
<g id="edge26" class="edge">
<title>Node1&#45;&gt;Node21</title>
<path fill="none" stroke="midnightblue" d="M511.93,-462.32C501.51,-453.94 491.49,-443.73 485,-432 439.95,-350.56 447.87,-232.31 452.24,-192.04"/>
<polygon fill="midnightblue" stroke="midnightblue" points="509.84,-465.13 519.93,-468.37 514.06,-459.54 509.84,-465.13"/>
</g>
<!-- Node3 -->
<g id="node3" class="node">
<title>Node3</title>
<g id="a_node3"><a xlink:href="../../d6/dda/stl__algo_8h.html" target="_top" xlink:title=" ">
<polygon fill="none" stroke="black" points="313,-234.5 313,-275.5 431,-275.5 431,-234.5 313,-234.5"/>
<text text-anchor="start" x="321" y="-263.5" font-family="Helvetica,sans-Serif" font-size="10.00">Tools/MinGW/include</text>
<text text-anchor="start" x="321" y="-252.5" font-family="Helvetica,sans-Serif" font-size="10.00">/c++/4.6.1/bits/stl</text>
<text text-anchor="middle" x="372" y="-241.5" font-family="Helvetica,sans-Serif" font-size="10.00">_algo.h</text>
</a>
</g>
</g>
<!-- Node2&#45;&gt;Node3 -->
<g id="edge2" class="edge">
<title>Node2&#45;&gt;Node3</title>
<path fill="none" stroke="midnightblue" d="M377.78,-388.09C386.15,-378.52 394.64,-366.6 399,-354 408.23,-327.31 395.38,-295.7 384.44,-275.75"/>
<polygon fill="midnightblue" stroke="midnightblue" points="375.1,-385.84 370.87,-395.55 380.24,-390.6 375.1,-385.84"/>
</g>
<!-- Node6 -->
<g id="node6" class="node">
<title>Node6</title>
<g id="a_node6"><a xlink:href="../../d7/d23/char__traits_8h.html" target="_top" xlink:title=" ">
<polygon fill="none" stroke="black" points="136,-312.5 136,-353.5 254,-353.5 254,-312.5 136,-312.5"/>
<text text-anchor="start" x="144" y="-341.5" font-family="Helvetica,sans-Serif" font-size="10.00">Tools/MinGW/include</text>
<text text-anchor="start" x="144" y="-330.5" font-family="Helvetica,sans-Serif" font-size="10.00">/c++/4.6.1/bits/char</text>
<text text-anchor="middle" x="195" y="-319.5" font-family="Helvetica,sans-Serif" font-size="10.00">_traits.h</text>
</a>
</g>
</g>
<!-- Node5&#45;&gt;Node6 -->
<g id="edge5" class="edge">
<title>Node5&#45;&gt;Node6</title>
<path fill="none" stroke="midnightblue" d="M195,-380.3C195,-371.3 195,-361.65 195,-353.51"/>
<polygon fill="midnightblue" stroke="midnightblue" points="191.5,-380.43 195,-390.43 198.5,-380.43 191.5,-380.43"/>
</g>
<!-- Node11 -->
<g id="node11" class="node">
<title>Node11</title>
<g id="a_node11"><a xlink:href="../../df/dfd/stl__tempbuf_8h.html" target="_top" xlink:title=" ">
<polygon fill="none" stroke="black" points="272,-312.5 272,-353.5 390,-353.5 390,-312.5 272,-312.5"/>
<text text-anchor="start" x="280" y="-341.5" font-family="Helvetica,sans-Serif" font-size="10.00">Tools/MinGW/include</text>
<text text-anchor="start" x="280" y="-330.5" font-family="Helvetica,sans-Serif" font-size="10.00">/c++/4.6.1/bits/stl</text>
<text text-anchor="middle" x="331" y="-319.5" font-family="Helvetica,sans-Serif" font-size="10.00">_tempbuf.h</text>
</a>
</g>
</g>
<!-- Node5&#45;&gt;Node11 -->
<g id="edge10" class="edge">
<title>Node5&#45;&gt;Node11</title>
<path fill="none" stroke="midnightblue" d="M238.87,-385.49C257.39,-375.13 278.66,-363.25 296.1,-353.51"/>
<polygon fill="midnightblue" stroke="midnightblue" points="237.05,-382.49 230.02,-390.43 240.46,-388.61 237.05,-382.49"/>
</g>
<!-- Node12 -->
<g id="node12" class="node">
<title>Node12</title>
<g id="a_node12"><a xlink:href="../../da/d4f/stl__tree_8h.html" target="_top" xlink:title=" ">
<polygon fill="none" stroke="black" points="0,-312.5 0,-353.5 118,-353.5 118,-312.5 0,-312.5"/>
<text text-anchor="start" x="8" y="-341.5" font-family="Helvetica,sans-Serif" font-size="10.00">Tools/MinGW/include</text>
<text text-anchor="start" x="8" y="-330.5" font-family="Helvetica,sans-Serif" font-size="10.00">/c++/4.6.1/bits/stl</text>
<text text-anchor="middle" x="59" y="-319.5" font-family="Helvetica,sans-Serif" font-size="10.00">_tree.h</text>
</a>
</g>
</g>
<!-- Node5&#45;&gt;Node12 -->
<g id="edge12" class="edge">
<title>Node5&#45;&gt;Node12</title>
<path fill="none" stroke="midnightblue" d="M151.13,-385.49C132.61,-375.13 111.34,-363.25 93.9,-353.51"/>
<polygon fill="midnightblue" stroke="midnightblue" points="149.54,-388.61 159.98,-390.43 152.95,-382.49 149.54,-388.61"/>
</g>
<!-- Node7 -->
<g id="node7" class="node">
<title>Node7</title>
<g id="a_node7"><a xlink:href="../../d6/d77/vstring__fwd_8h.html" target="_top" xlink:title=" ">
<polygon fill="none" stroke="black" points="125.5,-240 125.5,-270 280.5,-270 280.5,-240 125.5,-240"/>
<text text-anchor="start" x="133.5" y="-258" font-family="Helvetica,sans-Serif" font-size="10.00">Tools/MinGW/include</text>
<text text-anchor="middle" x="203" y="-247" font-family="Helvetica,sans-Serif" font-size="10.00">/c++/4.6.1/ext/vstring_fwd.h</text>
</a>
</g>
</g>
<!-- Node6&#45;&gt;Node7 -->
<g id="edge6" class="edge">
<title>Node6&#45;&gt;Node7</title>
<path fill="none" stroke="midnightblue" d="M198.13,-302.28C199.29,-291.25 200.55,-279.25 201.5,-270.23"/>
<polygon fill="midnightblue" stroke="midnightblue" points="194.63,-302.12 197.06,-312.43 201.59,-302.85 194.63,-302.12"/>
</g>
<!-- Node8 -->
<g id="node8" class="node">
<title>Node8</title>
<g id="a_node8"><a xlink:href="../../d6/d45/vstring__util_8h.html" target="_top" xlink:title=" ">
<polygon fill="none" stroke="black" points="143,-156.5 143,-197.5 267,-197.5 267,-156.5 143,-156.5"/>
<text text-anchor="start" x="151" y="-185.5" font-family="Helvetica,sans-Serif" font-size="10.00">Tools/MinGW/include</text>
<text text-anchor="start" x="151" y="-174.5" font-family="Helvetica,sans-Serif" font-size="10.00">/c++/4.6.1/ext/vstring</text>
<text text-anchor="middle" x="205" y="-163.5" font-family="Helvetica,sans-Serif" font-size="10.00">_util.h</text>
</a>
</g>
</g>
<!-- Node7&#45;&gt;Node8 -->
<g id="edge7" class="edge">
<title>Node7&#45;&gt;Node8</title>
<path fill="none" stroke="midnightblue" d="M203.64,-229.66C203.91,-219.33 204.23,-207.44 204.48,-197.68"/>
<polygon fill="midnightblue" stroke="midnightblue" points="200.14,-229.62 203.38,-239.7 207.14,-229.8 200.14,-229.62"/>
</g>
<!-- Node9 -->
<g id="node9" class="node">
<title>Node9</title>
<g id="a_node9"><a xlink:href="../../d2/d41/vstring_8h.html" target="_top" xlink:title=" ">
<polygon fill="none" stroke="black" points="143.5,-84 143.5,-114 276.5,-114 276.5,-84 143.5,-84"/>
<text text-anchor="start" x="151.5" y="-102" font-family="Helvetica,sans-Serif" font-size="10.00">Tools/MinGW/include</text>
<text text-anchor="middle" x="210" y="-91" font-family="Helvetica,sans-Serif" font-size="10.00">/c++/4.6.1/ext/vstring.h</text>
</a>
</g>
</g>
<!-- Node8&#45;&gt;Node9 -->
<g id="edge8" class="edge">
<title>Node8&#45;&gt;Node9</title>
<path fill="none" stroke="midnightblue" d="M206.96,-146.28C207.68,-135.25 208.47,-123.25 209.06,-114.23"/>
<polygon fill="midnightblue" stroke="midnightblue" points="203.45,-146.22 206.29,-156.43 210.44,-146.68 203.45,-146.22"/>
</g>
<!-- Node10 -->
<g id="node10" class="node">
<title>Node10</title>
<g id="a_node10"><a xlink:href="../../db/dad/extc_09_09_8h.html" target="_top" xlink:title=" ">
<polygon fill="none" stroke="black" points="288,-0.5 288,-41.5 444,-41.5 444,-0.5 288,-0.5"/>
<text text-anchor="start" x="296" y="-29.5" font-family="Helvetica,sans-Serif" font-size="10.00">Tools/MinGW/include</text>
<text text-anchor="start" x="296" y="-18.5" font-family="Helvetica,sans-Serif" font-size="10.00">/c++/4.6.1/i686&#45;pc&#45;mingw32</text>
<text text-anchor="middle" x="366" y="-7.5" font-family="Helvetica,sans-Serif" font-size="10.00">/bits/extc++.h</text>
</a>
</g>
</g>
<!-- Node9&#45;&gt;Node10 -->
<g id="edge9" class="edge">
<title>Node9&#45;&gt;Node10</title>
<path fill="none" stroke="midnightblue" d="M247.97,-79.5C271.52,-68.03 301.74,-53.3 325.71,-41.63"/>
<polygon fill="midnightblue" stroke="midnightblue" points="246.43,-76.36 238.98,-83.88 249.5,-82.65 246.43,-76.36"/>
</g>
<!-- Node11&#45;&gt;Node3 -->
<g id="edge11" class="edge">
<title>Node11&#45;&gt;Node3</title>
<path fill="none" stroke="midnightblue" d="M346.39,-303.47C351.42,-294.14 356.89,-284.01 361.48,-275.51"/>
<polygon fill="midnightblue" stroke="midnightblue" points="343.23,-301.97 341.56,-312.43 349.39,-305.29 343.23,-301.97"/>
</g>
<!-- Node14&#45;&gt;Node15 -->
<g id="edge15" class="edge">
<title>Node14&#45;&gt;Node15</title>
<path fill="none" stroke="midnightblue" d="M875.18,-389.98C890.93,-378.8 910.48,-364.91 926.16,-353.77"/>
<polygon fill="midnightblue" stroke="midnightblue" points="873,-387.24 866.88,-395.88 877.05,-392.95 873,-387.24"/>
</g>
<!-- Node20 -->
<g id="node20" class="node">
<title>Node20</title>
<g id="a_node20"><a xlink:href="../../d7/de5/safe__sequence_8h.html" target="_top" xlink:title=" ">
<polygon fill="none" stroke="black" points="748.5,-312.5 748.5,-353.5 873.5,-353.5 873.5,-312.5 748.5,-312.5"/>
<text text-anchor="start" x="756.5" y="-341.5" font-family="Helvetica,sans-Serif" font-size="10.00">Tools/MinGW/include</text>
<text text-anchor="start" x="756.5" y="-330.5" font-family="Helvetica,sans-Serif" font-size="10.00">/c++/4.6.1/debug/safe</text>
<text text-anchor="middle" x="811" y="-319.5" font-family="Helvetica,sans-Serif" font-size="10.00">_sequence.h</text>
</a>
</g>
</g>
<!-- Node14&#45;&gt;Node20 -->
<g id="edge20" class="edge">
<title>Node14&#45;&gt;Node20</title>
<path fill="none" stroke="midnightblue" d="M835.93,-386.63C830.93,-376.08 825.09,-363.75 820.32,-353.68"/>
<polygon fill="midnightblue" stroke="midnightblue" points="832.78,-388.17 840.23,-395.7 839.11,-385.17 832.78,-388.17"/>
</g>
<!-- Node16 -->
<g id="node16" class="node">
<title>Node16</title>
<g id="a_node16"><a xlink:href="../../d7/d4c/debug_2map_8h.html" target="_top" xlink:title=" ">
<polygon fill="none" stroke="black" points="732.5,-240 732.5,-270 867.5,-270 867.5,-240 732.5,-240"/>
<text text-anchor="start" x="740.5" y="-258" font-family="Helvetica,sans-Serif" font-size="10.00">Tools/MinGW/include</text>
<text text-anchor="middle" x="800" y="-247" font-family="Helvetica,sans-Serif" font-size="10.00">/c++/4.6.1/debug/map.h</text>
</a>
</g>
</g>
<!-- Node15&#45;&gt;Node16 -->
<g id="edge16" class="edge">
<title>Node15&#45;&gt;Node16</title>
<path fill="none" stroke="midnightblue" d="M905.31,-307.97C880.15,-295.55 850.31,-280.83 828.83,-270.23"/>
<polygon fill="midnightblue" stroke="midnightblue" points="903.82,-311.14 914.34,-312.43 906.92,-304.86 903.82,-311.14"/>
</g>
<!-- Node17 -->
<g id="node17" class="node">
<title>Node17</title>
<g id="a_node17"><a xlink:href="../../dd/d78/debug_2multimap_8h.html" target="_top" xlink:title=" ">
<polygon fill="none" stroke="black" points="885.5,-240 885.5,-270 1046.5,-270 1046.5,-240 885.5,-240"/>
<text text-anchor="start" x="893.5" y="-258" font-family="Helvetica,sans-Serif" font-size="10.00">Tools/MinGW/include</text>
<text text-anchor="middle" x="966" y="-247" font-family="Helvetica,sans-Serif" font-size="10.00">/c++/4.6.1/debug/multimap.h</text>
</a>
</g>
</g>
<!-- Node15&#45;&gt;Node17 -->
<g id="edge17" class="edge">
<title>Node15&#45;&gt;Node17</title>
<path fill="none" stroke="midnightblue" d="M958.69,-302.28C960.43,-291.25 962.33,-279.25 963.75,-270.23"/>
<polygon fill="midnightblue" stroke="midnightblue" points="955.19,-302 957.09,-312.43 962.11,-303.1 955.19,-302"/>
</g>
<!-- Node18 -->
<g id="node18" class="node">
<title>Node18</title>
<g id="a_node18"><a xlink:href="../../d7/d23/debug_2multiset_8h.html" target="_top" xlink:title=" ">
<polygon fill="none" stroke="black" points="1065,-240 1065,-270 1219,-270 1219,-240 1065,-240"/>
<text text-anchor="start" x="1073" y="-258" font-family="Helvetica,sans-Serif" font-size="10.00">Tools/MinGW/include</text>
<text text-anchor="middle" x="1142" y="-247" font-family="Helvetica,sans-Serif" font-size="10.00">/c++/4.6.1/debug/multiset.h</text>
</a>
</g>
</g>
<!-- Node15&#45;&gt;Node18 -->
<g id="edge18" class="edge">
<title>Node15&#45;&gt;Node18</title>
<path fill="none" stroke="midnightblue" d="M1011.86,-308.61C1043.01,-296.02 1080.41,-280.9 1107.1,-270.11"/>
<polygon fill="midnightblue" stroke="midnightblue" points="1010.37,-305.44 1002.41,-312.43 1013,-311.93 1010.37,-305.44"/>
</g>
<!-- Node19 -->
<g id="node19" class="node">
<title>Node19</title>
<g id="a_node19"><a xlink:href="../../da/df2/debug_2set_8h.html" target="_top" xlink:title=" ">
<polygon fill="none" stroke="black" points="586,-240 586,-270 714,-270 714,-240 586,-240"/>
<text text-anchor="start" x="594" y="-258" font-family="Helvetica,sans-Serif" font-size="10.00">Tools/MinGW/include</text>
<text text-anchor="middle" x="650" y="-247" font-family="Helvetica,sans-Serif" font-size="10.00">/c++/4.6.1/debug/set.h</text>
</a>
</g>
</g>
<!-- Node15&#45;&gt;Node19 -->
<g id="edge19" class="edge">
<title>Node15&#45;&gt;Node19</title>
<path fill="none" stroke="midnightblue" d="M881.47,-311.67C810.64,-294.04 790.68,-292.88 723,-276 715.6,-274.16 707.81,-272.12 700.19,-270.08"/>
<polygon fill="midnightblue" stroke="midnightblue" points="880.78,-315.11 891.33,-314.15 882.48,-308.32 880.78,-315.11"/>
</g>
<!-- Node20&#45;&gt;Node16 -->
<g id="edge21" class="edge">
<title>Node20&#45;&gt;Node16</title>
<path fill="none" stroke="midnightblue" d="M806.7,-302.28C805.1,-291.25 803.36,-279.25 802.06,-270.23"/>
<polygon fill="midnightblue" stroke="midnightblue" points="803.27,-303.03 808.17,-312.43 810.2,-302.03 803.27,-303.03"/>
</g>
<!-- Node20&#45;&gt;Node17 -->
<g id="edge22" class="edge">
<title>Node20&#45;&gt;Node17</title>
<path fill="none" stroke="midnightblue" d="M860.01,-307.97C885.33,-295.55 915.37,-280.83 936.99,-270.23"/>
<polygon fill="midnightblue" stroke="midnightblue" points="858.35,-304.88 850.92,-312.43 861.44,-311.17 858.35,-304.88"/>
</g>
<!-- Node20&#45;&gt;Node18 -->
<g id="edge23" class="edge">
<title>Node20&#45;&gt;Node18</title>
<path fill="none" stroke="midnightblue" d="M883.5,-311.95C960.97,-293.41 982.3,-292.24 1056,-276 1064.53,-274.12 1073.53,-272.09 1082.36,-270.06"/>
<polygon fill="midnightblue" stroke="midnightblue" points="882.66,-308.55 873.77,-314.3 884.31,-315.36 882.66,-308.55"/>
</g>
<!-- Node20&#45;&gt;Node19 -->
<g id="edge24" class="edge">
<title>Node20&#45;&gt;Node19</title>
<path fill="none" stroke="midnightblue" d="M760.41,-308.12C733.94,-295.63 702.45,-280.76 679.88,-270.11"/>
<polygon fill="midnightblue" stroke="midnightblue" points="759,-311.32 769.54,-312.43 761.99,-304.99 759,-311.32"/>
</g>
<!-- Node21&#45;&gt;Node10 -->
<g id="edge29" class="edge">
<title>Node21&#45;&gt;Node10</title>
<path fill="none" stroke="midnightblue" d="M453.51,-151.71C452.09,-130.82 447.58,-100.58 434,-78 425.25,-63.45 411.3,-50.99 398.31,-41.55"/>
<polygon fill="midnightblue" stroke="midnightblue" points="450.03,-152.15 454.01,-161.96 457.02,-151.81 450.03,-152.15"/>
</g>
<!-- Node22 -->
<g id="node22" class="node">
<title>Node22</title>
<g id="a_node22"><a xlink:href="../../df/d13/extptr__allocator_8h.html" target="_top" xlink:title=" ">
<polygon fill="none" stroke="black" points="306.5,-78.5 306.5,-119.5 425.5,-119.5 425.5,-78.5 306.5,-78.5"/>
<text text-anchor="start" x="314.5" y="-107.5" font-family="Helvetica,sans-Serif" font-size="10.00">Tools/MinGW/include</text>
<text text-anchor="start" x="314.5" y="-96.5" font-family="Helvetica,sans-Serif" font-size="10.00">/c++/4.6.1/ext/extptr</text>
<text text-anchor="middle" x="366" y="-85.5" font-family="Helvetica,sans-Serif" font-size="10.00">_allocator.h</text>
</a>
</g>
</g>
<!-- Node21&#45;&gt;Node22 -->
<g id="edge27" class="edge">
<title>Node21&#45;&gt;Node22</title>
<path fill="none" stroke="midnightblue" d="M429.52,-154.86C416.77,-143.85 401.28,-130.47 388.79,-119.68"/>
<polygon fill="midnightblue" stroke="midnightblue" points="427.59,-157.82 437.45,-161.7 432.17,-152.52 427.59,-157.82"/>
</g>
<!-- Node22&#45;&gt;Node10 -->
<g id="edge28" class="edge">
<title>Node22&#45;&gt;Node10</title>
<path fill="none" stroke="midnightblue" d="M366,-68.3C366,-59.3 366,-49.65 366,-41.51"/>
<polygon fill="midnightblue" stroke="midnightblue" points="362.5,-68.43 366,-78.43 369.5,-68.43 362.5,-68.43"/>
</g>
</g>
</svg>
        <g id="navigator" transform="translate(0 0)" fill="#404254">
                <rect fill="#f2f5e9" fill-opacity="0.5" stroke="#606060" stroke-width=".5" x="0" y="0" width="60" height="60"/>
                <use id="zoomplus" xlink:href="#zoomPlus" x="17" y="9" onmousedown="handleZoom(evt,'in')"/>
                <use id="zoomminus" xlink:href="#zoomMin" x="42" y="9" onmousedown="handleZoom(evt,'out')"/>
                <use id="reset" xlink:href="#resetDef" x="30" y="36" onmousedown="handleReset()"/>
                <g id="arrowUp" xlink:href="#dirArrow" transform="translate(30 24)" onmousedown="handlePan(0,-1)">
                  <use xlink:href="#rim" fill="#404040">
                        <set attributeName="fill" to="#808080" begin="arrowUp.mouseover" end="arrowUp.mouseout"/>
                  </use>
                  <path fill="none" stroke="white" stroke-width="1.5" d="M0,-3.0v7 M-2.5,-0.5L0,-3.0L2.5,-0.5"/>
                </g>
                <g id="arrowRight" xlink:href="#dirArrow" transform="rotate(90) translate(36 -43)" onmousedown="handlePan(1,0)">
                  <use xlink:href="#rim" fill="#404040">
                        <set attributeName="fill" to="#808080" begin="arrowRight.mouseover" end="arrowRight.mouseout"/>
                  </use>
                  <path fill="none" stroke="white" stroke-width="1.5" d="M0,-3.0v7 M-2.5,-0.5L0,-3.0L2.5,-0.5"/>
                </g>
                <g id="arrowDown" xlink:href="#dirArrow" transform="rotate(180) translate(-30 -48)" onmousedown="handlePan(0,1)">
                  <use xlink:href="#rim" fill="#404040">
                        <set attributeName="fill" to="#808080" begin="arrowDown.mouseover" end="arrowDown.mouseout"/>
                  </use>
                  <path fill="none" stroke="white" stroke-width="1.5" d="M0,-3.0v7 M-2.5,-0.5L0,-3.0L2.5,-0.5"/>
                </g>
                <g id="arrowLeft" xlink:href="#dirArrow" transform="rotate(270) translate(-36 17)" onmousedown="handlePan(-1,0)">
                  <use xlink:href="#rim" fill="#404040">
                        <set attributeName="fill" to="#808080" begin="arrowLeft.mouseover" end="arrowLeft.mouseout"/>
                  </use>
                  <path fill="none" stroke="white" stroke-width="1.5" d="M0,-3.0v7 M-2.5,-0.5L0,-3.0L2.5,-0.5"/>
                </g>
        </g>
        <svg viewBox="0 0 15 15" width="100%" height="30px" preserveAspectRatio="xMaxYMin meet">
         <g id="arrow_out" transform="scale(0.3 0.3)">
          <a xlink:href="stl__iterator__base__types_8h__dep__incl_org.svg" target="_base">
           <rect id="button" ry="5" rx="5" y="6" x="6" height="38" width="38"
                fill="#f2f5e9" fill-opacity="0.5" stroke="#606060" stroke-width="1.0"/>
           <path id="arrow"
             d="M 11.500037,31.436501 C 11.940474,20.09759 22.043105,11.32322 32.158766,21.979434 L 37.068811,17.246167 C 37.068811,17.246167 37.088388,32 37.088388,32 L 22.160133,31.978069 C 22.160133,31.978069 26.997745,27.140456 26.997745,27.140456 C 18.528582,18.264221 13.291696,25.230495 11.500037,31.436501 z"
             style="fill:#404040;"/>
          </a>
         </g>
        </svg>
</svg>
