<?xml version="1.0" encoding="UTF-8" standalone="no"?>
<!DOCTYPE svg PUBLIC "-//W3C//DTD SVG 1.1//EN"
 "http://www.w3.org/Graphics/SVG/1.1/DTD/svg11.dtd">
<!-- Generated by graphviz version 2.43.0 (0)
 -->
<!-- Title: trRefEntity_t Pages: 1 -->
<!--zoomable 318 -->
<svg id="main" version="1.1" xmlns="http://www.w3.org/2000/svg" xmlns:xlink="http://www.w3.org/1999/xlink" xml:space="preserve" onload="init(evt)">
<style type="text/css"><![CDATA[
.edge:hover path { stroke: red; }
.edge:hover polygon { stroke: red; fill: red; }
]]></style>
<script type="text/javascript"><![CDATA[
var edges = document.getElementsByTagName('g');
if (edges && edges.length) {
  for (var i=0;i<edges.length;i++) {
    if (edges[i].id.substr(0,4)=='edge') {
      edges[i].setAttribute('class','edge');
    }
  }
}
]]></script>
        <defs>
                <circle id="rim" cx="0" cy="0" r="7"/>
                <circle id="rim2" cx="0" cy="0" r="3.5"/>
                <g id="zoomPlus">
                        <use xlink:href="#rim" fill="#404040">
                                <set attributeName="fill" to="#808080" begin="zoomplus.mouseover" end="zoomplus.mouseout"/>
                        </use>
                        <path d="M-4,0h8M0,-4v8" fill="none" stroke="white" stroke-width="1.5" pointer-events="none"/>
                </g>
                <g id="zoomMin">
                        <use xlink:href="#rim" fill="#404040">
                                <set attributeName="fill" to="#808080" begin="zoomminus.mouseover" end="zoomminus.mouseout"/>
                        </use>
                        <path d="M-4,0h8" fill="none" stroke="white" stroke-width="1.5" pointer-events="none"/>
                </g>
                <g id="dirArrow">
                        <path fill="none" stroke="white" stroke-width="1.5" d="M0,-3.0v7 M-2.5,-0.5L0,-3.0L2.5,-0.5"/>
                </g>
               <g id="resetDef">
                       <use xlink:href="#rim2" fill="#404040">
                               <set attributeName="fill" to="#808080" begin="reset.mouseover" end="reset.mouseout"/>
                       </use>
               </g>
        </defs>

<script type="text/javascript">
var viewWidth = 589;
var viewHeight = 318;
var sectionId = 'dynsection-0';
</script>
<script xlink:href="../../svgpan.js"/>
<svg id="graph" class="graph">
<g id="viewport">
<title>trRefEntity_t</title>
<!-- Node1 -->
<g id="node1" class="node">
<title>Node1</title>
<g id="a_node1"><a xlink:title=" ">
<polygon fill="#bfbfbf" stroke="black" points="131,-0.5 131,-19.5 209,-19.5 209,-0.5 131,-0.5"/>
<text text-anchor="middle" x="170" y="-7.5" font-family="Helvetica,sans-Serif" font-size="10.00">trRefEntity_t</text>
</a>
</g>
</g>
<!-- Node2 -->
<g id="node2" class="node">
<title>Node2</title>
<g id="a_node2"><a xlink:href="../../d4/dc3/classfloat.html" target="_top" xlink:title=" ">
<polygon fill="none" stroke="black" points="0,-290.5 0,-309.5 38,-309.5 38,-290.5 0,-290.5"/>
<text text-anchor="middle" x="19" y="-297.5" font-family="Helvetica,sans-Serif" font-size="10.00">float</text>
</a>
</g>
</g>
<!-- Node2&#45;&gt;Node1 -->
<g id="edge1" class="edge">
<title>Node2&#45;&gt;Node1</title>
<path fill="none" stroke="#9a32cd" stroke-dasharray="5,2" d="M15.43,-280.2C8.25,-236.18 -2.67,-125.74 55,-67 78.41,-43.15 114.04,-27.99 139.43,-19.54"/>
<polygon fill="#9a32cd" stroke="#9a32cd" points="12.03,-281.08 17.21,-290.32 18.92,-279.87 12.03,-281.08"/>
<text text-anchor="middle" x="90" y="-125" font-family="Helvetica,sans-Serif" font-size="10.00"> dynamicLight</text>
<text text-anchor="middle" x="90" y="-114" font-family="Helvetica,sans-Serif" font-size="10.00">lightDistance</text>
<text text-anchor="middle" x="90" y="-103" font-family="Helvetica,sans-Serif" font-size="10.00">directedLight</text>
<text text-anchor="middle" x="90" y="-92" font-family="Helvetica,sans-Serif" font-size="10.00">lightDir</text>
<text text-anchor="middle" x="90" y="-81" font-family="Helvetica,sans-Serif" font-size="10.00">axisLength</text>
<text text-anchor="middle" x="90" y="-70" font-family="Helvetica,sans-Serif" font-size="10.00">ambientLight</text>
</g>
<!-- Node4 -->
<g id="node4" class="node">
<title>Node4</title>
<g id="a_node4"><a xlink:href="../../d7/dea/structrefEntity__t.html" target="_top" xlink:title=" ">
<polygon fill="none" stroke="black" points="228,-90.5 228,-109.5 296,-109.5 296,-90.5 228,-90.5"/>
<text text-anchor="middle" x="262" y="-97.5" font-family="Helvetica,sans-Serif" font-size="10.00">refEntity_t</text>
</a>
</g>
</g>
<!-- Node2&#45;&gt;Node4 -->
<g id="edge4" class="edge">
<title>Node2&#45;&gt;Node4</title>
<path fill="none" stroke="#9a32cd" stroke-dasharray="5,2" d="M18.37,-280.06C18.43,-248.04 23.64,-183.51 62,-151 87.95,-129.01 182.08,-144.76 214,-133 228.47,-127.67 242.9,-117.17 252.1,-109.65"/>
<polygon fill="#9a32cd" stroke="#9a32cd" points="14.87,-280.33 18.53,-290.27 21.87,-280.22 14.87,-280.33"/>
<text text-anchor="middle" x="101.5" y="-264" font-family="Helvetica,sans-Serif" font-size="10.00"> oldorigin</text>
<text text-anchor="middle" x="101.5" y="-253" font-family="Helvetica,sans-Serif" font-size="10.00">shaderTexCoord</text>
<text text-anchor="middle" x="101.5" y="-242" font-family="Helvetica,sans-Serif" font-size="10.00">radius</text>
<text text-anchor="middle" x="101.5" y="-231" font-family="Helvetica,sans-Serif" font-size="10.00">rotation</text>
<text text-anchor="middle" x="101.5" y="-220" font-family="Helvetica,sans-Serif" font-size="10.00">lightingOrigin</text>
<text text-anchor="middle" x="101.5" y="-209" font-family="Helvetica,sans-Serif" font-size="10.00">backlerp</text>
<text text-anchor="middle" x="101.5" y="-198" font-family="Helvetica,sans-Serif" font-size="10.00">origin</text>
<text text-anchor="middle" x="101.5" y="-187" font-family="Helvetica,sans-Serif" font-size="10.00">shadowPlane</text>
<text text-anchor="middle" x="101.5" y="-176" font-family="Helvetica,sans-Serif" font-size="10.00">shaderTime</text>
<text text-anchor="middle" x="101.5" y="-165" font-family="Helvetica,sans-Serif" font-size="10.00">axis</text>
<text text-anchor="middle" x="101.5" y="-154" font-family="Helvetica,sans-Serif" font-size="10.00">...</text>
</g>
<!-- Node3 -->
<g id="node3" class="node">
<title>Node3</title>
<g id="a_node3"><a xlink:title=" ">
<polygon fill="none" stroke="#bfbfbf" points="130.5,-290.5 130.5,-309.5 159.5,-309.5 159.5,-290.5 130.5,-290.5"/>
<text text-anchor="middle" x="145" y="-297.5" font-family="Helvetica,sans-Serif" font-size="10.00">int</text>
</a>
</g>
</g>
<!-- Node3&#45;&gt;Node1 -->
<g id="edge2" class="edge">
<title>Node3&#45;&gt;Node1</title>
<path fill="none" stroke="#9a32cd" stroke-dasharray="5,2" d="M140.92,-280.5C132.9,-240.66 117.53,-144.09 138,-67 142.83,-48.82 155.1,-30.38 162.97,-19.86"/>
<polygon fill="#9a32cd" stroke="#9a32cd" points="137.52,-281.31 143,-290.37 144.37,-279.87 137.52,-281.31"/>
<text text-anchor="middle" x="178.5" y="-97.5" font-family="Helvetica,sans-Serif" font-size="10.00"> ambientLightInt</text>
</g>
<!-- Node3&#45;&gt;Node4 -->
<g id="edge5" class="edge">
<title>Node3&#45;&gt;Node4</title>
<path fill="none" stroke="#9a32cd" stroke-dasharray="5,2" d="M144.09,-280.15C143.62,-249.72 146.92,-189.32 177,-151 188.29,-136.61 198.13,-142.09 214,-133 226.69,-125.73 240.52,-116.34 250.06,-109.62"/>
<polygon fill="#9a32cd" stroke="#9a32cd" points="140.6,-280.35 144.41,-290.24 147.59,-280.13 140.6,-280.35"/>
<text text-anchor="middle" x="213.5" y="-242" font-family="Helvetica,sans-Serif" font-size="10.00"> customShader</text>
<text text-anchor="middle" x="213.5" y="-231" font-family="Helvetica,sans-Serif" font-size="10.00">hModel</text>
<text text-anchor="middle" x="213.5" y="-220" font-family="Helvetica,sans-Serif" font-size="10.00">renderfx</text>
<text text-anchor="middle" x="213.5" y="-209" font-family="Helvetica,sans-Serif" font-size="10.00">frame</text>
<text text-anchor="middle" x="213.5" y="-198" font-family="Helvetica,sans-Serif" font-size="10.00">customSkin</text>
<text text-anchor="middle" x="213.5" y="-187" font-family="Helvetica,sans-Serif" font-size="10.00">skinNum</text>
<text text-anchor="middle" x="213.5" y="-176" font-family="Helvetica,sans-Serif" font-size="10.00">oldframe</text>
</g>
<!-- Node4&#45;&gt;Node1 -->
<g id="edge3" class="edge">
<title>Node4&#45;&gt;Node1</title>
<path fill="none" stroke="#9a32cd" stroke-dasharray="5,2" d="M245.59,-83.31C226.19,-64.75 194.59,-34.52 179.12,-19.72"/>
<polygon fill="#9a32cd" stroke="#9a32cd" points="243.2,-85.86 252.84,-90.24 248.04,-80.8 243.2,-85.86"/>
<text text-anchor="middle" x="213" y="-41" font-family="Helvetica,sans-Serif" font-size="10.00"> e</text>
</g>
<!-- Node5 -->
<g id="node5" class="node">
<title>Node5</title>
<g id="a_node5"><a xlink:title=" ">
<polygon fill="none" stroke="#bfbfbf" points="303,-290.5 303,-309.5 393,-309.5 393,-290.5 303,-290.5"/>
<text text-anchor="middle" x="348" y="-297.5" font-family="Helvetica,sans-Serif" font-size="10.00">refEntityType_t</text>
</a>
</g>
</g>
<!-- Node5&#45;&gt;Node4 -->
<g id="edge6" class="edge">
<title>Node5&#45;&gt;Node4</title>
<path fill="none" stroke="#9a32cd" stroke-dasharray="5,2" d="M346.46,-280.08C343.36,-245.27 335.57,-172.67 323,-151 312.35,-132.64 292.23,-118.18 278.02,-109.63"/>
<polygon fill="#9a32cd" stroke="#9a32cd" points="343,-280.64 347.33,-290.3 349.97,-280.04 343,-280.64"/>
<text text-anchor="middle" x="363" y="-209" font-family="Helvetica,sans-Serif" font-size="10.00"> reType</text>
</g>
<!-- Node6 -->
<g id="node6" class="node">
<title>Node6</title>
<g id="a_node6"><a xlink:title=" ">
<polygon fill="none" stroke="#bfbfbf" points="223.5,-290.5 223.5,-309.5 284.5,-309.5 284.5,-290.5 223.5,-290.5"/>
<text text-anchor="middle" x="254" y="-297.5" font-family="Helvetica,sans-Serif" font-size="10.00">unsigned</text>
</a>
</g>
</g>
<!-- Node6&#45;&gt;Node4 -->
<g id="edge7" class="edge">
<title>Node6&#45;&gt;Node4</title>
<path fill="none" stroke="#9a32cd" stroke-dasharray="5,2" d="M254.48,-279.95C255.24,-251.77 256.83,-197.29 259,-151 259.68,-136.58 260.74,-119.84 261.4,-109.85"/>
<polygon fill="#9a32cd" stroke="#9a32cd" points="250.98,-280.23 254.21,-290.32 257.97,-280.42 250.98,-280.23"/>
<text text-anchor="middle" x="291" y="-220" font-family="Helvetica,sans-Serif" font-size="10.00"> shaderRGBA</text>
<text text-anchor="middle" x="291" y="-209" font-family="Helvetica,sans-Serif" font-size="10.00">outlineWidth</text>
<text text-anchor="middle" x="291" y="-198" font-family="Helvetica,sans-Serif" font-size="10.00">outlineRGBA</text>
</g>
<!-- Node7 -->
<g id="node7" class="node">
<title>Node7</title>
<g id="a_node7"><a xlink:title=" ">
<polygon fill="none" stroke="#bfbfbf" points="451,-290.5 451,-309.5 513,-309.5 513,-290.5 451,-290.5"/>
<text text-anchor="middle" x="482" y="-297.5" font-family="Helvetica,sans-Serif" font-size="10.00">qboolean</text>
</a>
</g>
</g>
<!-- Node7&#45;&gt;Node1 -->
<g id="edge9" class="edge">
<title>Node7&#45;&gt;Node1</title>
<path fill="none" stroke="#9a32cd" stroke-dasharray="5,2" d="M499.52,-282.96C502.17,-279.62 504.51,-275.91 506,-272 525.11,-221.73 535.81,-195.76 506,-151 438.49,-49.61 282.16,-21.53 209.03,-13.85"/>
<polygon fill="#9a32cd" stroke="#9a32cd" points="496.83,-280.71 492.61,-290.43 501.97,-285.47 496.83,-280.71"/>
<text text-anchor="middle" x="535" y="-103" font-family="Helvetica,sans-Serif" font-size="10.00"> lightingCalculated</text>
<text text-anchor="middle" x="535" y="-92" font-family="Helvetica,sans-Serif" font-size="10.00">needDlights</text>
</g>
<!-- Node7&#45;&gt;Node4 -->
<g id="edge8" class="edge">
<title>Node7&#45;&gt;Node4</title>
<path fill="none" stroke="#9a32cd" stroke-dasharray="5,2" d="M440.89,-292.96C427.69,-289.05 414.13,-282.61 405,-272 369.29,-230.51 416.5,-193.5 382,-151 360.8,-124.89 323.63,-112.24 296.26,-106.22"/>
<polygon fill="#9a32cd" stroke="#9a32cd" points="440.28,-296.42 450.84,-295.49 442,-289.63 440.28,-296.42"/>
<text text-anchor="middle" x="455.5" y="-209" font-family="Helvetica,sans-Serif" font-size="10.00"> nonNormalizedAxes</text>
</g>
</g>
</svg>
        <g id="navigator" transform="translate(0 0)" fill="#404254">
                <rect fill="#f2f5e9" fill-opacity="0.5" stroke="#606060" stroke-width=".5" x="0" y="0" width="60" height="60"/>
                <use id="zoomplus" xlink:href="#zoomPlus" x="17" y="9" onmousedown="handleZoom(evt,'in')"/>
                <use id="zoomminus" xlink:href="#zoomMin" x="42" y="9" onmousedown="handleZoom(evt,'out')"/>
                <use id="reset" xlink:href="#resetDef" x="30" y="36" onmousedown="handleReset()"/>
                <g id="arrowUp" xlink:href="#dirArrow" transform="translate(30 24)" onmousedown="handlePan(0,-1)">
                  <use xlink:href="#rim" fill="#404040">
                        <set attributeName="fill" to="#808080" begin="arrowUp.mouseover" end="arrowUp.mouseout"/>
                  </use>
                  <path fill="none" stroke="white" stroke-width="1.5" d="M0,-3.0v7 M-2.5,-0.5L0,-3.0L2.5,-0.5"/>
                </g>
                <g id="arrowRight" xlink:href="#dirArrow" transform="rotate(90) translate(36 -43)" onmousedown="handlePan(1,0)">
                  <use xlink:href="#rim" fill="#404040">
                        <set attributeName="fill" to="#808080" begin="arrowRight.mouseover" end="arrowRight.mouseout"/>
                  </use>
                  <path fill="none" stroke="white" stroke-width="1.5" d="M0,-3.0v7 M-2.5,-0.5L0,-3.0L2.5,-0.5"/>
                </g>
                <g id="arrowDown" xlink:href="#dirArrow" transform="rotate(180) translate(-30 -48)" onmousedown="handlePan(0,1)">
                  <use xlink:href="#rim" fill="#404040">
                        <set attributeName="fill" to="#808080" begin="arrowDown.mouseover" end="arrowDown.mouseout"/>
                  </use>
                  <path fill="none" stroke="white" stroke-width="1.5" d="M0,-3.0v7 M-2.5,-0.5L0,-3.0L2.5,-0.5"/>
                </g>
                <g id="arrowLeft" xlink:href="#dirArrow" transform="rotate(270) translate(-36 17)" onmousedown="handlePan(-1,0)">
                  <use xlink:href="#rim" fill="#404040">
                        <set attributeName="fill" to="#808080" begin="arrowLeft.mouseover" end="arrowLeft.mouseout"/>
                  </use>
                  <path fill="none" stroke="white" stroke-width="1.5" d="M0,-3.0v7 M-2.5,-0.5L0,-3.0L2.5,-0.5"/>
                </g>
        </g>
        <svg viewBox="0 0 15 15" width="100%" height="30px" preserveAspectRatio="xMaxYMin meet">
         <g id="arrow_out" transform="scale(0.3 0.3)">
          <a xlink:href="structtrRefEntity__t__coll__graph_org.svg" target="_base">
           <rect id="button" ry="5" rx="5" y="6" x="6" height="38" width="38"
                fill="#f2f5e9" fill-opacity="0.5" stroke="#606060" stroke-width="1.0"/>
           <path id="arrow"
             d="M 11.500037,31.436501 C 11.940474,20.09759 22.043105,11.32322 32.158766,21.979434 L 37.068811,17.246167 C 37.068811,17.246167 37.088388,32 37.088388,32 L 22.160133,31.978069 C 22.160133,31.978069 26.997745,27.140456 26.997745,27.140456 C 18.528582,18.264221 13.291696,25.230495 11.500037,31.436501 z"
             style="fill:#404040;"/>
          </a>
         </g>
        </svg>
</svg>
