<?xml version="1.0" encoding="UTF-8" standalone="no"?>
<!DOCTYPE svg PUBLIC "-//W3C//DTD SVG 1.1//EN"
 "http://www.w3.org/Graphics/SVG/1.1/DTD/svg11.dtd">
<!-- Generated by graphviz version 2.43.0 (0)
 -->
<!-- Title: tagINTERFACEDATA Pages: 1 -->
<svg width="191pt" height="95pt"
 viewBox="0.00 0.00 191.00 95.00" xmlns="http://www.w3.org/2000/svg" xmlns:xlink="http://www.w3.org/1999/xlink">
<g id="graph0" class="graph" transform="scale(1 1) rotate(0) translate(4 91)">
<title>tagINTERFACEDATA</title>
<!-- Node1 -->
<g id="node1" class="node">
<title>Node1</title>
<g id="a_node1"><a xlink:title=" ">
<polygon fill="#bfbfbf" stroke="black" points="39.5,-0.5 39.5,-19.5 150.5,-19.5 150.5,-0.5 39.5,-0.5"/>
<text text-anchor="middle" x="95" y="-7.5" font-family="Helvetica,sans-Serif" font-size="10.00">tagINTERFACEDATA</text>
</a>
</g>
</g>
<!-- Node2 -->
<g id="node2" class="node">
<title>Node2</title>
<g id="a_node2"><a xlink:title=" ">
<polygon fill="none" stroke="#bfbfbf" points="0,-67.5 0,-86.5 94,-86.5 94,-67.5 0,-67.5"/>
<text text-anchor="middle" x="47" y="-74.5" font-family="Helvetica,sans-Serif" font-size="10.00">METHODDATA *</text>
</a>
</g>
</g>
<!-- Node2&#45;&gt;Node1 -->
<g id="edge1" class="edge">
<title>Node2&#45;&gt;Node1</title>
<path fill="none" stroke="#9a32cd" stroke-dasharray="5,2" d="M53.26,-57.79C56,-51.21 59.6,-43.95 64,-38 69.18,-31 76.47,-24.54 82.67,-19.7"/>
<polygon fill="#9a32cd" stroke="#9a32cd" points="49.94,-56.69 49.68,-67.28 56.49,-59.16 49.94,-56.69"/>
<text text-anchor="middle" x="92.5" y="-41" font-family="Helvetica,sans-Serif" font-size="10.00"> pmethdata</text>
</g>
<!-- Node3 -->
<g id="node3" class="node">
<title>Node3</title>
<g id="a_node3"><a xlink:title=" ">
<polygon fill="none" stroke="#bfbfbf" points="112.5,-67.5 112.5,-86.5 173.5,-86.5 173.5,-67.5 112.5,-67.5"/>
<text text-anchor="middle" x="143" y="-74.5" font-family="Helvetica,sans-Serif" font-size="10.00">unsigned</text>
</a>
</g>
</g>
<!-- Node3&#45;&gt;Node1 -->
<g id="edge2" class="edge">
<title>Node3&#45;&gt;Node1</title>
<path fill="none" stroke="#9a32cd" stroke-dasharray="5,2" d="M134.07,-58.57C130.37,-51.91 125.81,-44.38 121,-38 115.99,-31.35 109.49,-24.6 104.24,-19.51"/>
<polygon fill="#9a32cd" stroke="#9a32cd" points="131.03,-60.31 138.83,-67.48 137.21,-57.01 131.03,-60.31"/>
<text text-anchor="middle" x="155.5" y="-41" font-family="Helvetica,sans-Serif" font-size="10.00"> cMembers</text>
</g>
</g>
</svg>
