<?xml version="1.0" encoding="UTF-8" standalone="no"?>
<!DOCTYPE svg PUBLIC "-//W3C//DTD SVG 1.1//EN"
 "http://www.w3.org/Graphics/SVG/1.1/DTD/svg11.dtd">
<!-- Generated by graphviz version 2.43.0 (0)
 -->
<!-- Title: _WSAPROTOCOL_INFOA Pages: 1 -->
<svg width="499pt" height="183pt"
 viewBox="0.00 0.00 499.00 183.00" xmlns="http://www.w3.org/2000/svg" xmlns:xlink="http://www.w3.org/1999/xlink">
<g id="graph0" class="graph" transform="scale(1 1) rotate(0) translate(4 179)">
<title>_WSAPROTOCOL_INFOA</title>
<!-- Node1 -->
<g id="node1" class="node">
<title>Node1</title>
<g id="a_node1"><a xlink:title=" ">
<polygon fill="#bfbfbf" stroke="black" points="146,-0.5 146,-19.5 280,-19.5 280,-0.5 146,-0.5"/>
<text text-anchor="middle" x="213" y="-7.5" font-family="Helvetica,sans-Serif" font-size="10.00">_WSAPROTOCOL_INFOA</text>
</a>
</g>
</g>
<!-- Node2 -->
<g id="node2" class="node">
<title>Node2</title>
<g id="a_node2"><a xlink:title=" ">
<polygon fill="none" stroke="#bfbfbf" points="0,-155.5 0,-174.5 38,-174.5 38,-155.5 0,-155.5"/>
<text text-anchor="middle" x="19" y="-162.5" font-family="Helvetica,sans-Serif" font-size="10.00">char</text>
</a>
</g>
</g>
<!-- Node2&#45;&gt;Node1 -->
<g id="edge1" class="edge">
<title>Node2&#45;&gt;Node1</title>
<path fill="none" stroke="#9a32cd" stroke-dasharray="5,2" d="M14.97,-145.29C10.24,-117.79 6.24,-66.64 34,-38 49.37,-22.15 101.78,-15.56 145.95,-12.85"/>
<polygon fill="#9a32cd" stroke="#9a32cd" points="11.55,-146.03 16.88,-155.19 18.42,-144.7 11.55,-146.03"/>
<text text-anchor="middle" x="61" y="-85" font-family="Helvetica,sans-Serif" font-size="10.00"> szProtocol</text>
</g>
<!-- Node3 -->
<g id="node3" class="node">
<title>Node3</title>
<g id="a_node3"><a xlink:title=" ">
<polygon fill="none" stroke="#bfbfbf" points="81.5,-155.5 81.5,-174.5 110.5,-174.5 110.5,-155.5 81.5,-155.5"/>
<text text-anchor="middle" x="96" y="-162.5" font-family="Helvetica,sans-Serif" font-size="10.00">int</text>
</a>
</g>
</g>
<!-- Node3&#45;&gt;Node1 -->
<g id="edge2" class="edge">
<title>Node3&#45;&gt;Node1</title>
<path fill="none" stroke="#9a32cd" stroke-dasharray="5,2" d="M93.05,-145.27C89.92,-118.12 88.53,-67.83 115,-38 123.2,-28.76 134.24,-22.55 145.96,-18.41"/>
<polygon fill="#9a32cd" stroke="#9a32cd" points="89.61,-145.92 94.43,-155.36 96.55,-144.98 89.61,-145.92"/>
<text text-anchor="middle" x="162" y="-129" font-family="Helvetica,sans-Serif" font-size="10.00"> iMaxSockAddr</text>
<text text-anchor="middle" x="162" y="-118" font-family="Helvetica,sans-Serif" font-size="10.00">iProtocolMaxOffset</text>
<text text-anchor="middle" x="162" y="-107" font-family="Helvetica,sans-Serif" font-size="10.00">iAddressFamily</text>
<text text-anchor="middle" x="162" y="-96" font-family="Helvetica,sans-Serif" font-size="10.00">iMinSockAddr</text>
<text text-anchor="middle" x="162" y="-85" font-family="Helvetica,sans-Serif" font-size="10.00">iSocketType</text>
<text text-anchor="middle" x="162" y="-74" font-family="Helvetica,sans-Serif" font-size="10.00">iProtocol</text>
<text text-anchor="middle" x="162" y="-63" font-family="Helvetica,sans-Serif" font-size="10.00">iVersion</text>
<text text-anchor="middle" x="162" y="-52" font-family="Helvetica,sans-Serif" font-size="10.00">iNetworkByteOrder</text>
<text text-anchor="middle" x="162" y="-41" font-family="Helvetica,sans-Serif" font-size="10.00">iSecurityScheme</text>
</g>
<!-- Node4 -->
<g id="node4" class="node">
<title>Node4</title>
<g id="a_node4"><a xlink:title=" ">
<polygon fill="none" stroke="#bfbfbf" points="192,-155.5 192,-174.5 234,-174.5 234,-155.5 192,-155.5"/>
<text text-anchor="middle" x="213" y="-162.5" font-family="Helvetica,sans-Serif" font-size="10.00">GUID</text>
</a>
</g>
</g>
<!-- Node4&#45;&gt;Node1 -->
<g id="edge3" class="edge">
<title>Node4&#45;&gt;Node1</title>
<path fill="none" stroke="#9a32cd" stroke-dasharray="5,2" d="M213,-145.11C213,-111.72 213,-43.54 213,-19.57"/>
<polygon fill="#9a32cd" stroke="#9a32cd" points="209.5,-145.34 213,-155.34 216.5,-145.34 209.5,-145.34"/>
<text text-anchor="middle" x="239.5" y="-85" font-family="Helvetica,sans-Serif" font-size="10.00"> ProviderId</text>
</g>
<!-- Node5 -->
<g id="node5" class="node">
<title>Node5</title>
<g id="a_node5"><a xlink:title=" ">
<polygon fill="none" stroke="#bfbfbf" points="270,-155.5 270,-174.5 308,-174.5 308,-155.5 270,-155.5"/>
<text text-anchor="middle" x="289" y="-162.5" font-family="Helvetica,sans-Serif" font-size="10.00">long</text>
</a>
</g>
</g>
<!-- Node5&#45;&gt;Node1 -->
<g id="edge4" class="edge">
<title>Node5&#45;&gt;Node1</title>
<path fill="none" stroke="#9a32cd" stroke-dasharray="5,2" d="M287.77,-145.15C285.43,-114.27 279.41,-54.66 267,-38 260.8,-29.68 251.32,-23.75 242.03,-19.62"/>
<polygon fill="#9a32cd" stroke="#9a32cd" points="284.3,-145.7 288.5,-155.43 291.29,-145.21 284.3,-145.7"/>
<text text-anchor="middle" x="338" y="-123.5" font-family="Helvetica,sans-Serif" font-size="10.00"> dwProviderReserved</text>
<text text-anchor="middle" x="338" y="-112.5" font-family="Helvetica,sans-Serif" font-size="10.00">dwServiceFlags1</text>
<text text-anchor="middle" x="338" y="-101.5" font-family="Helvetica,sans-Serif" font-size="10.00">dwCatalogEntryId</text>
<text text-anchor="middle" x="338" y="-90.5" font-family="Helvetica,sans-Serif" font-size="10.00">dwServiceFlags2</text>
<text text-anchor="middle" x="338" y="-79.5" font-family="Helvetica,sans-Serif" font-size="10.00">dwServiceFlags3</text>
<text text-anchor="middle" x="338" y="-68.5" font-family="Helvetica,sans-Serif" font-size="10.00">dwServiceFlags4</text>
<text text-anchor="middle" x="338" y="-57.5" font-family="Helvetica,sans-Serif" font-size="10.00">dwProviderFlags</text>
<text text-anchor="middle" x="338" y="-46.5" font-family="Helvetica,sans-Serif" font-size="10.00">dwMessageSize</text>
</g>
<!-- Node6 -->
<g id="node6" class="node">
<title>Node6</title>
<g id="a_node6"><a xlink:title=" ">
<polygon fill="none" stroke="#bfbfbf" points="353.5,-155.5 353.5,-174.5 478.5,-174.5 478.5,-155.5 353.5,-155.5"/>
<text text-anchor="middle" x="416" y="-162.5" font-family="Helvetica,sans-Serif" font-size="10.00">WSAPROTOCOLCHAIN</text>
</a>
</g>
</g>
<!-- Node6&#45;&gt;Node1 -->
<g id="edge5" class="edge">
<title>Node6&#45;&gt;Node1</title>
<path fill="none" stroke="#9a32cd" stroke-dasharray="5,2" d="M418.84,-145.18C421.85,-117.5 422.79,-66.09 394,-38 377.97,-22.36 324.69,-15.76 280.05,-12.98"/>
<polygon fill="#9a32cd" stroke="#9a32cd" points="415.33,-145.08 417.51,-155.45 422.27,-145.98 415.33,-145.08"/>
<text text-anchor="middle" x="455.5" y="-85" font-family="Helvetica,sans-Serif" font-size="10.00"> ProtocolChain</text>
</g>
</g>
</svg>
