<?xml version="1.0" encoding="UTF-8" standalone="no"?>
<!DOCTYPE svg PUBLIC "-//W3C//DTD SVG 1.1//EN"
 "http://www.w3.org/Graphics/SVG/1.1/DTD/svg11.dtd">
<!-- Generated by graphviz version 2.43.0 (0)
 -->
<!-- Title: _STORAGE_DEVICE_DESCRIPTOR Pages: 1 -->
<svg width="528pt" height="244pt"
 viewBox="0.00 0.00 528.00 244.00" xmlns="http://www.w3.org/2000/svg" xmlns:xlink="http://www.w3.org/1999/xlink">
<g id="graph0" class="graph" transform="scale(1 1) rotate(0) translate(4 240)">
<title>_STORAGE_DEVICE_DESCRIPTOR</title>
<!-- Node1 -->
<g id="node1" class="node">
<title>Node1</title>
<g id="a_node1"><a xlink:title=" ">
<polygon fill="#bfbfbf" stroke="black" points="343,-139.5 343,-158.5 520,-158.5 520,-139.5 343,-139.5"/>
<text text-anchor="middle" x="431.5" y="-146.5" font-family="Helvetica,sans-Serif" font-size="10.00">_STORAGE_DEVICE_DESCRIPTOR</text>
</a>
</g>
</g>
<!-- Node2 -->
<g id="node2" class="node">
<title>Node2</title>
<g id="a_node2"><a xlink:title=" ">
<polygon fill="none" stroke="#bfbfbf" points="40,-216.5 40,-235.5 158,-235.5 158,-216.5 40,-216.5"/>
<text text-anchor="middle" x="99" y="-223.5" font-family="Helvetica,sans-Serif" font-size="10.00">STORAGE_BUS_TYPE</text>
</a>
</g>
</g>
<!-- Node2&#45;&gt;Node1 -->
<g id="edge1" class="edge">
<title>Node2&#45;&gt;Node1</title>
<path fill="none" stroke="#9a32cd" stroke-dasharray="5,2" d="M168.12,-220.47C213.23,-215.73 273.36,-207.31 325,-193 356.36,-184.31 390.84,-168.69 411.57,-158.6"/>
<polygon fill="#9a32cd" stroke="#9a32cd" points="167.75,-216.99 158.16,-221.49 168.46,-223.95 167.75,-216.99"/>
<text text-anchor="middle" x="270.5" y="-216" font-family="Helvetica,sans-Serif" font-size="10.00"> BusType</text>
</g>
<!-- Node3 -->
<g id="node3" class="node">
<title>Node3</title>
<g id="a_node3"><a xlink:title=" ">
<polygon fill="none" stroke="#bfbfbf" points="18.5,-156.5 18.5,-197.5 179.5,-197.5 179.5,-156.5 18.5,-156.5"/>
<text text-anchor="start" x="26.5" y="-185.5" font-family="Helvetica,sans-Serif" font-size="10.00">PLDAP *typedef(__cdecl</text>
<text text-anchor="start" x="26.5" y="-174.5" font-family="Helvetica,sans-Serif" font-size="10.00"> NOTIFYOFNEWCONNECTION)</text>
<text text-anchor="middle" x="99" y="-163.5" font-family="Helvetica,sans-Serif" font-size="10.00">(PLDAP</text>
</a>
</g>
</g>
<!-- Node3&#45;&gt;Node1 -->
<g id="edge2" class="edge">
<title>Node3&#45;&gt;Node1</title>
<path fill="none" stroke="#9a32cd" stroke-dasharray="5,2" d="M189.58,-169.41C237.22,-165.37 295.56,-160.43 342.9,-156.42"/>
<polygon fill="#9a32cd" stroke="#9a32cd" points="189.25,-165.93 179.58,-170.26 189.84,-172.9 189.25,-165.93"/>
<text text-anchor="middle" x="270.5" y="-181" font-family="Helvetica,sans-Serif" font-size="10.00"> CommandQueueing</text>
<text text-anchor="middle" x="270.5" y="-170" font-family="Helvetica,sans-Serif" font-size="10.00">RemovableMedia</text>
</g>
<!-- Node4 -->
<g id="node4" class="node">
<title>Node4</title>
<g id="a_node4"><a xlink:title=" ">
<polygon fill="none" stroke="#bfbfbf" points="68.5,-111.5 68.5,-130.5 129.5,-130.5 129.5,-111.5 68.5,-111.5"/>
<text text-anchor="middle" x="99" y="-118.5" font-family="Helvetica,sans-Serif" font-size="10.00">unsigned</text>
</a>
</g>
</g>
<!-- Node4&#45;&gt;Node1 -->
<g id="edge3" class="edge">
<title>Node4&#45;&gt;Node1</title>
<path fill="none" stroke="#9a32cd" stroke-dasharray="5,2" d="M139.89,-117.9C185.02,-115.11 260.63,-112.6 325,-121 351.87,-124.51 381.64,-132.83 402.69,-139.5"/>
<polygon fill="#9a32cd" stroke="#9a32cd" points="139.39,-114.42 129.64,-118.57 139.85,-121.41 139.39,-114.42"/>
<text text-anchor="middle" x="270.5" y="-146" font-family="Helvetica,sans-Serif" font-size="10.00"> DeviceTypeModifier</text>
<text text-anchor="middle" x="270.5" y="-135" font-family="Helvetica,sans-Serif" font-size="10.00">DeviceType</text>
<text text-anchor="middle" x="270.5" y="-124" font-family="Helvetica,sans-Serif" font-size="10.00">RawDeviceProperties</text>
</g>
<!-- Node5 -->
<g id="node5" class="node">
<title>Node5</title>
<g id="a_node5"><a xlink:title=" ">
<polygon fill="none" stroke="#bfbfbf" points="0,-0.5 0,-41.5 198,-41.5 198,-0.5 0,-0.5"/>
<text text-anchor="start" x="8" y="-29.5" font-family="Helvetica,sans-Serif" font-size="10.00">PSecurityUserData *typedef</text>
<text text-anchor="start" x="8" y="-18.5" font-family="Helvetica,sans-Serif" font-size="10.00"> PSECPKG_EXTENDED_INFORMATION</text>
<text text-anchor="middle" x="99" y="-7.5" font-family="Helvetica,sans-Serif" font-size="10.00"> *typedef</text>
</a>
</g>
</g>
<!-- Node5&#45;&gt;Node1 -->
<g id="edge4" class="edge">
<title>Node5&#45;&gt;Node1</title>
<path fill="none" stroke="#9a32cd" stroke-dasharray="5,2" d="M208.33,-10.89C246.76,-11.46 289.31,-17.06 325,-34 374.69,-57.58 411.91,-116.08 425.2,-139.29"/>
<polygon fill="#9a32cd" stroke="#9a32cd" points="208.14,-7.39 198.13,-10.86 208.12,-14.39 208.14,-7.39"/>
<text text-anchor="middle" x="270.5" y="-103" font-family="Helvetica,sans-Serif" font-size="10.00"> SerialNumberOffset</text>
<text text-anchor="middle" x="270.5" y="-92" font-family="Helvetica,sans-Serif" font-size="10.00">ProductRevisionOffset</text>
<text text-anchor="middle" x="270.5" y="-81" font-family="Helvetica,sans-Serif" font-size="10.00">Size</text>
<text text-anchor="middle" x="270.5" y="-70" font-family="Helvetica,sans-Serif" font-size="10.00">RawPropertiesLength</text>
<text text-anchor="middle" x="270.5" y="-59" font-family="Helvetica,sans-Serif" font-size="10.00">ProductIdOffset</text>
<text text-anchor="middle" x="270.5" y="-48" font-family="Helvetica,sans-Serif" font-size="10.00">Version</text>
<text text-anchor="middle" x="270.5" y="-37" font-family="Helvetica,sans-Serif" font-size="10.00">VendorIdOffset</text>
</g>
</g>
</svg>
