<?xml version="1.0" encoding="UTF-8" standalone="no"?>
<!DOCTYPE svg PUBLIC "-//W3C//DTD SVG 1.1//EN"
 "http://www.w3.org/Graphics/SVG/1.1/DTD/svg11.dtd">
<!-- Generated by graphviz version 2.43.0 (0)
 -->
<!-- Title: tagMCI_ANIM_WINDOW_PARMSA Pages: 1 -->
<svg width="273pt" height="106pt"
 viewBox="0.00 0.00 273.00 106.00" xmlns="http://www.w3.org/2000/svg" xmlns:xlink="http://www.w3.org/1999/xlink">
<g id="graph0" class="graph" transform="scale(1 1) rotate(0) translate(4 102)">
<title>tagMCI_ANIM_WINDOW_PARMSA</title>
<!-- Node1 -->
<g id="node1" class="node">
<title>Node1</title>
<g id="a_node1"><a xlink:title=" ">
<polygon fill="#bfbfbf" stroke="black" points="48.5,-0.5 48.5,-30.5 181.5,-30.5 181.5,-0.5 48.5,-0.5"/>
<text text-anchor="start" x="56.5" y="-18.5" font-family="Helvetica,sans-Serif" font-size="10.00">tagMCI_ANIM_WINDOW</text>
<text text-anchor="middle" x="115" y="-7.5" font-family="Helvetica,sans-Serif" font-size="10.00">_PARMSA</text>
</a>
</g>
</g>
<!-- Node2 -->
<g id="node2" class="node">
<title>Node2</title>
<g id="a_node2"><a xlink:title=" ">
<polygon fill="none" stroke="#bfbfbf" points="0,-78.5 0,-97.5 38,-97.5 38,-78.5 0,-78.5"/>
<text text-anchor="middle" x="19" y="-85.5" font-family="Helvetica,sans-Serif" font-size="10.00">char</text>
</a>
</g>
</g>
<!-- Node2&#45;&gt;Node1 -->
<g id="edge1" class="edge">
<title>Node2&#45;&gt;Node1</title>
<path fill="none" stroke="#9a32cd" stroke-dasharray="5,2" d="M24.61,-68.45C27.43,-61.63 31.45,-54.29 37,-49 45.18,-41.2 55.49,-35.16 65.92,-30.51"/>
<polygon fill="#9a32cd" stroke="#9a32cd" points="21.14,-67.78 21.13,-78.38 27.74,-70.1 21.14,-67.78"/>
<text text-anchor="middle" x="60" y="-52" font-family="Helvetica,sans-Serif" font-size="10.00"> lpstrText</text>
</g>
<!-- Node3 -->
<g id="node3" class="node">
<title>Node3</title>
<g id="a_node3"><a xlink:title=" ">
<polygon fill="none" stroke="#bfbfbf" points="62.5,-78.5 62.5,-97.5 111.5,-97.5 111.5,-78.5 62.5,-78.5"/>
<text text-anchor="middle" x="87" y="-85.5" font-family="Helvetica,sans-Serif" font-size="10.00">HWND</text>
</a>
</g>
</g>
<!-- Node3&#45;&gt;Node1 -->
<g id="edge2" class="edge">
<title>Node3&#45;&gt;Node1</title>
<path fill="none" stroke="#9a32cd" stroke-dasharray="5,2" d="M86.38,-68.02C86.72,-61.79 87.71,-54.94 90,-49 92.56,-42.36 96.93,-35.94 101.31,-30.6"/>
<polygon fill="#9a32cd" stroke="#9a32cd" points="82.87,-68.22 86.31,-78.24 89.87,-68.26 82.87,-68.22"/>
<text text-anchor="middle" x="105.5" y="-52" font-family="Helvetica,sans-Serif" font-size="10.00"> hWnd</text>
</g>
<!-- Node4 -->
<g id="node4" class="node">
<title>Node4</title>
<g id="a_node4"><a xlink:title=" ">
<polygon fill="none" stroke="#bfbfbf" points="129.5,-78.5 129.5,-97.5 158.5,-97.5 158.5,-78.5 129.5,-78.5"/>
<text text-anchor="middle" x="144" y="-85.5" font-family="Helvetica,sans-Serif" font-size="10.00">int</text>
</a>
</g>
</g>
<!-- Node4&#45;&gt;Node1 -->
<g id="edge3" class="edge">
<title>Node4&#45;&gt;Node1</title>
<path fill="none" stroke="#9a32cd" stroke-dasharray="5,2" d="M136.58,-68.96C131.67,-57.03 125.33,-41.61 120.79,-30.58"/>
<polygon fill="#9a32cd" stroke="#9a32cd" points="133.4,-70.44 140.44,-78.36 139.88,-67.78 133.4,-70.44"/>
<text text-anchor="middle" x="161" y="-52" font-family="Helvetica,sans-Serif" font-size="10.00"> nCmdShow</text>
</g>
<!-- Node5 -->
<g id="node5" class="node">
<title>Node5</title>
<g id="a_node5"><a xlink:title=" ">
<polygon fill="none" stroke="#bfbfbf" points="205,-78.5 205,-97.5 243,-97.5 243,-78.5 205,-78.5"/>
<text text-anchor="middle" x="224" y="-85.5" font-family="Helvetica,sans-Serif" font-size="10.00">long</text>
</a>
</g>
</g>
<!-- Node5&#45;&gt;Node1 -->
<g id="edge4" class="edge">
<title>Node5&#45;&gt;Node1</title>
<path fill="none" stroke="#9a32cd" stroke-dasharray="5,2" d="M213.4,-69.93C208.26,-62.72 201.55,-54.7 194,-49 184.06,-41.5 172.13,-35.42 160.6,-30.64"/>
<polygon fill="#9a32cd" stroke="#9a32cd" points="210.58,-72.01 219.04,-78.39 216.41,-68.13 210.58,-72.01"/>
<text text-anchor="middle" x="235" y="-52" font-family="Helvetica,sans-Serif" font-size="10.00"> dwCallback</text>
</g>
</g>
</svg>
