<?xml version="1.0" encoding="UTF-8" standalone="no"?>
<!DOCTYPE svg PUBLIC "-//W3C//DTD SVG 1.1//EN"
 "http://www.w3.org/Graphics/SVG/1.1/DTD/svg11.dtd">
<!-- Generated by graphviz version 2.43.0 (0)
 -->
<!-- Title: tagIMEMENUITEMINFOA Pages: 1 -->
<svg width="263pt" height="139pt"
 viewBox="0.00 0.00 263.00 139.00" xmlns="http://www.w3.org/2000/svg" xmlns:xlink="http://www.w3.org/1999/xlink">
<g id="graph0" class="graph" transform="scale(1 1) rotate(0) translate(4 135)">
<title>tagIMEMENUITEMINFOA</title>
<!-- Node1 -->
<g id="node1" class="node">
<title>Node1</title>
<g id="a_node1"><a xlink:title=" ">
<polygon fill="#bfbfbf" stroke="black" points="19.5,-0.5 19.5,-19.5 154.5,-19.5 154.5,-0.5 19.5,-0.5"/>
<text text-anchor="middle" x="87" y="-7.5" font-family="Helvetica,sans-Serif" font-size="10.00">tagIMEMENUITEMINFOA</text>
</a>
</g>
</g>
<!-- Node2 -->
<g id="node2" class="node">
<title>Node2</title>
<g id="a_node2"><a xlink:title=" ">
<polygon fill="none" stroke="#bfbfbf" points="0,-111.5 0,-130.5 38,-130.5 38,-111.5 0,-111.5"/>
<text text-anchor="middle" x="19" y="-118.5" font-family="Helvetica,sans-Serif" font-size="10.00">char</text>
</a>
</g>
</g>
<!-- Node2&#45;&gt;Node1 -->
<g id="edge1" class="edge">
<title>Node2&#45;&gt;Node1</title>
<path fill="none" stroke="#9a32cd" stroke-dasharray="5,2" d="M19.69,-101.36C21.23,-83.47 25.93,-56.51 40,-38 46.15,-29.91 55.48,-23.84 64.2,-19.53"/>
<polygon fill="#9a32cd" stroke="#9a32cd" points="16.19,-101.2 19.08,-111.4 23.18,-101.63 16.19,-101.2"/>
<text text-anchor="middle" x="61.5" y="-63" font-family="Helvetica,sans-Serif" font-size="10.00"> szString</text>
</g>
<!-- Node3 -->
<g id="node3" class="node">
<title>Node3</title>
<g id="a_node3"><a xlink:title=" ">
<polygon fill="none" stroke="#bfbfbf" points="56,-111.5 56,-130.5 118,-130.5 118,-111.5 56,-111.5"/>
<text text-anchor="middle" x="87" y="-118.5" font-family="Helvetica,sans-Serif" font-size="10.00">HBITMAP</text>
</a>
</g>
</g>
<!-- Node3&#45;&gt;Node1 -->
<g id="edge2" class="edge">
<title>Node3&#45;&gt;Node1</title>
<path fill="none" stroke="#9a32cd" stroke-dasharray="5,2" d="M87,-101.19C87,-77.28 87,-36.99 87,-19.51"/>
<polygon fill="#9a32cd" stroke="#9a32cd" points="83.5,-101.45 87,-111.45 90.5,-101.45 83.5,-101.45"/>
<text text-anchor="middle" x="129.5" y="-74" font-family="Helvetica,sans-Serif" font-size="10.00"> hbmpUnchecked</text>
<text text-anchor="middle" x="129.5" y="-63" font-family="Helvetica,sans-Serif" font-size="10.00">hbmpItem</text>
<text text-anchor="middle" x="129.5" y="-52" font-family="Helvetica,sans-Serif" font-size="10.00">hbmpChecked</text>
</g>
<!-- Node4 -->
<g id="node4" class="node">
<title>Node4</title>
<g id="a_node4"><a xlink:title=" ">
<polygon fill="none" stroke="#bfbfbf" points="164.5,-111.5 164.5,-130.5 225.5,-130.5 225.5,-111.5 164.5,-111.5"/>
<text text-anchor="middle" x="195" y="-118.5" font-family="Helvetica,sans-Serif" font-size="10.00">unsigned</text>
</a>
</g>
</g>
<!-- Node4&#45;&gt;Node1 -->
<g id="edge3" class="edge">
<title>Node4&#45;&gt;Node1</title>
<path fill="none" stroke="#9a32cd" stroke-dasharray="5,2" d="M194.92,-101.18C193.83,-82.74 189.3,-55 173,-38 164.77,-29.42 153.85,-23.55 142.55,-19.54"/>
<polygon fill="#9a32cd" stroke="#9a32cd" points="191.43,-101.39 195.24,-111.28 198.42,-101.17 191.43,-101.39"/>
<text text-anchor="middle" x="224.5" y="-85" font-family="Helvetica,sans-Serif" font-size="10.00"> cbSize</text>
<text text-anchor="middle" x="224.5" y="-74" font-family="Helvetica,sans-Serif" font-size="10.00">fType</text>
<text text-anchor="middle" x="224.5" y="-63" font-family="Helvetica,sans-Serif" font-size="10.00">wID</text>
<text text-anchor="middle" x="224.5" y="-52" font-family="Helvetica,sans-Serif" font-size="10.00">fState</text>
<text text-anchor="middle" x="224.5" y="-41" font-family="Helvetica,sans-Serif" font-size="10.00">dwItemData</text>
</g>
</g>
</svg>
