<?xml version="1.0" encoding="UTF-8" standalone="no"?>
<!DOCTYPE svg PUBLIC "-//W3C//DTD SVG 1.1//EN"
 "http://www.w3.org/Graphics/SVG/1.1/DTD/svg11.dtd">
<!-- Generated by graphviz version 2.43.0 (0)
 -->
<!-- Title: Tools/MinGW/include/ddk/tdikrnl.h Pages: 1 -->
<svg width="787pt" height="431pt"
 viewBox="0.00 0.00 786.50 431.00" xmlns="http://www.w3.org/2000/svg" xmlns:xlink="http://www.w3.org/1999/xlink">
<g id="graph0" class="graph" transform="scale(1 1) rotate(0) translate(4 427)">
<title>Tools/MinGW/include/ddk/tdikrnl.h</title>
<!-- Node1 -->
<g id="node1" class="node">
<title>Node1</title>
<g id="a_node1"><a xlink:title=" ">
<polygon fill="#bfbfbf" stroke="black" points="435.5,-392.5 435.5,-422.5 553.5,-422.5 553.5,-392.5 435.5,-392.5"/>
<text text-anchor="start" x="443.5" y="-410.5" font-family="Helvetica,sans-Serif" font-size="10.00">Tools/MinGW/include</text>
<text text-anchor="middle" x="494.5" y="-399.5" font-family="Helvetica,sans-Serif" font-size="10.00">/ddk/tdikrnl.h</text>
</a>
</g>
</g>
<!-- Node2 -->
<g id="node2" class="node">
<title>Node2</title>
<g id="a_node2"><a xlink:href="../../d2/d49/ntddk_8h.html" target="_top" xlink:title=" ">
<polygon fill="none" stroke="black" points="383,-224.5 383,-243.5 436,-243.5 436,-224.5 383,-224.5"/>
<text text-anchor="middle" x="409.5" y="-231.5" font-family="Helvetica,sans-Serif" font-size="10.00">ntddk.h</text>
</a>
</g>
</g>
<!-- Node1&#45;&gt;Node2 -->
<g id="edge1" class="edge">
<title>Node1&#45;&gt;Node2</title>
<path fill="none" stroke="midnightblue" d="M487.45,-392.38C477.28,-372 457.9,-333.13 441.5,-300 433.66,-284.17 424.79,-266.14 418.38,-253.1"/>
<polygon fill="midnightblue" stroke="midnightblue" points="421.39,-251.27 413.84,-243.84 415.1,-254.36 421.39,-251.27"/>
</g>
<!-- Node21 -->
<g id="node21" class="node">
<title>Node21</title>
<g id="a_node21"><a xlink:href="../../d5/d23/tdi_8h.html" target="_top" xlink:title=" ">
<polygon fill="none" stroke="black" points="561.5,-336.5 561.5,-355.5 599.5,-355.5 599.5,-336.5 561.5,-336.5"/>
<text text-anchor="middle" x="580.5" y="-343.5" font-family="Helvetica,sans-Serif" font-size="10.00">tdi.h</text>
</a>
</g>
</g>
<!-- Node1&#45;&gt;Node21 -->
<g id="edge24" class="edge">
<title>Node1&#45;&gt;Node21</title>
<path fill="none" stroke="midnightblue" d="M514.88,-392.4C528.41,-383.04 546.11,-370.79 559.72,-361.38"/>
<polygon fill="midnightblue" stroke="midnightblue" points="561.75,-364.23 567.99,-355.66 557.77,-358.47 561.75,-364.23"/>
</g>
<!-- Node3 -->
<g id="node3" class="node">
<title>Node3</title>
<g id="a_node3"><a xlink:title=" ">
<polygon fill="none" stroke="#bfbfbf" points="306.5,-168.5 306.5,-187.5 362.5,-187.5 362.5,-168.5 306.5,-168.5"/>
<text text-anchor="middle" x="334.5" y="-175.5" font-family="Helvetica,sans-Serif" font-size="10.00">stdarg.h</text>
</a>
</g>
</g>
<!-- Node2&#45;&gt;Node3 -->
<g id="edge2" class="edge">
<title>Node2&#45;&gt;Node3</title>
<path fill="none" stroke="midnightblue" d="M397.45,-224.32C386.04,-216.11 368.67,-203.6 355.07,-193.81"/>
<polygon fill="midnightblue" stroke="midnightblue" points="356.93,-190.84 346.77,-187.83 352.84,-196.52 356.93,-190.84"/>
</g>
<!-- Node4 -->
<g id="node4" class="node">
<title>Node4</title>
<g id="a_node4"><a xlink:href="../../db/d06/windef_8h.html" target="_top" xlink:title=" ">
<polygon fill="none" stroke="black" points="380.5,-168.5 380.5,-187.5 438.5,-187.5 438.5,-168.5 380.5,-168.5"/>
<text text-anchor="middle" x="409.5" y="-175.5" font-family="Helvetica,sans-Serif" font-size="10.00">windef.h</text>
</a>
</g>
</g>
<!-- Node2&#45;&gt;Node4 -->
<g id="edge3" class="edge">
<title>Node2&#45;&gt;Node4</title>
<path fill="none" stroke="midnightblue" d="M409.5,-224.08C409.5,-217.01 409.5,-206.86 409.5,-197.99"/>
<polygon fill="midnightblue" stroke="midnightblue" points="413,-197.75 409.5,-187.75 406,-197.75 413,-197.75"/>
</g>
<!-- Node5 -->
<g id="node5" class="node">
<title>Node5</title>
<g id="a_node5"><a xlink:href="../../d9/dfa/winnt_8h.html" target="_top" xlink:title=" ">
<polygon fill="none" stroke="black" points="412,-112.5 412,-131.5 465,-131.5 465,-112.5 412,-112.5"/>
<text text-anchor="middle" x="438.5" y="-119.5" font-family="Helvetica,sans-Serif" font-size="10.00">winnt.h</text>
</a>
</g>
</g>
<!-- Node2&#45;&gt;Node5 -->
<g id="edge15" class="edge">
<title>Node2&#45;&gt;Node5</title>
<path fill="none" stroke="midnightblue" d="M420.21,-224.3C429.44,-216.07 442.09,-202.79 447.5,-188 453.06,-172.8 449.68,-154.46 445.57,-141.14"/>
<polygon fill="midnightblue" stroke="midnightblue" points="448.87,-139.98 442.27,-131.69 442.26,-142.29 448.87,-139.98"/>
</g>
<!-- Node13 -->
<g id="node13" class="node">
<title>Node13</title>
<g id="a_node13"><a xlink:href="../../d0/d54/ntdef_8h.html" target="_top" xlink:title=" ">
<polygon fill="none" stroke="black" points="574.5,-168.5 574.5,-187.5 624.5,-187.5 624.5,-168.5 574.5,-168.5"/>
<text text-anchor="middle" x="599.5" y="-175.5" font-family="Helvetica,sans-Serif" font-size="10.00">ntdef.h</text>
</a>
</g>
</g>
<!-- Node2&#45;&gt;Node13 -->
<g id="edge12" class="edge">
<title>Node2&#45;&gt;Node13</title>
<path fill="none" stroke="midnightblue" d="M436.32,-225.38C469.89,-215.84 527.46,-199.48 564.47,-188.96"/>
<polygon fill="midnightblue" stroke="midnightblue" points="565.67,-192.25 574.33,-186.15 563.76,-185.52 565.67,-192.25"/>
</g>
<!-- Node14 -->
<g id="node14" class="node">
<title>Node14</title>
<g id="a_node14"><a xlink:href="../../d3/d89/basetyps_8h.html" target="_top" xlink:title=" ">
<polygon fill="none" stroke="black" points="642.5,-168.5 642.5,-187.5 712.5,-187.5 712.5,-168.5 642.5,-168.5"/>
<text text-anchor="middle" x="677.5" y="-175.5" font-family="Helvetica,sans-Serif" font-size="10.00">basetyps.h</text>
</a>
</g>
</g>
<!-- Node2&#45;&gt;Node14 -->
<g id="edge13" class="edge">
<title>Node2&#45;&gt;Node14</title>
<path fill="none" stroke="midnightblue" d="M436.06,-227.7C476.28,-219.66 555.33,-203.83 632.54,-188.19"/>
<polygon fill="midnightblue" stroke="midnightblue" points="633.33,-191.6 642.44,-186.18 631.94,-184.74 633.33,-191.6"/>
</g>
<!-- Node15 -->
<g id="node15" class="node">
<title>Node15</title>
<g id="a_node15"><a xlink:href="../../d3/d93/ntstatus_8h.html" target="_top" xlink:title=" ">
<polygon fill="none" stroke="black" points="0,-168.5 0,-187.5 65,-187.5 65,-168.5 0,-168.5"/>
<text text-anchor="middle" x="32.5" y="-175.5" font-family="Helvetica,sans-Serif" font-size="10.00">ntstatus.h</text>
</a>
</g>
</g>
<!-- Node2&#45;&gt;Node15 -->
<g id="edge14" class="edge">
<title>Node2&#45;&gt;Node15</title>
<path fill="none" stroke="midnightblue" d="M382.81,-230.19C327.36,-224.18 195.45,-209.05 75.23,-188.19"/>
<polygon fill="midnightblue" stroke="midnightblue" points="75.58,-184.7 65.13,-186.42 74.37,-191.59 75.58,-184.7"/>
</g>
<!-- Node16 -->
<g id="node16" class="node">
<title>Node16</title>
<g id="a_node16"><a xlink:href="../../d6/d93/winddk_8h.html" target="_top" xlink:title=" ">
<polygon fill="none" stroke="black" points="495,-168.5 495,-187.5 556,-187.5 556,-168.5 495,-168.5"/>
<text text-anchor="middle" x="525.5" y="-175.5" font-family="Helvetica,sans-Serif" font-size="10.00">winddk.h</text>
</a>
</g>
</g>
<!-- Node2&#45;&gt;Node16 -->
<g id="edge16" class="edge">
<title>Node2&#45;&gt;Node16</title>
<path fill="none" stroke="midnightblue" d="M427.88,-224.44C446.72,-215.68 476.23,-201.94 497.88,-191.86"/>
<polygon fill="midnightblue" stroke="midnightblue" points="499.62,-194.91 507.21,-187.52 496.66,-188.56 499.62,-194.91"/>
</g>
<!-- Node18 -->
<g id="node18" class="node">
<title>Node18</title>
<g id="a_node18"><a xlink:href="../../d5/d53/winxp_8h.html" target="_top" xlink:title=" ">
<polygon fill="none" stroke="black" points="83,-168.5 83,-187.5 138,-187.5 138,-168.5 83,-168.5"/>
<text text-anchor="middle" x="110.5" y="-175.5" font-family="Helvetica,sans-Serif" font-size="10.00">winxp.h</text>
</a>
</g>
</g>
<!-- Node2&#45;&gt;Node18 -->
<g id="edge20" class="edge">
<title>Node2&#45;&gt;Node18</title>
<path fill="none" stroke="midnightblue" d="M382.98,-229.06C337.22,-222.13 240.27,-206.87 148.36,-188.06"/>
<polygon fill="midnightblue" stroke="midnightblue" points="148.84,-184.58 138.33,-185.99 147.42,-191.44 148.84,-184.58"/>
</g>
<!-- Node19 -->
<g id="node19" class="node">
<title>Node19</title>
<g id="a_node19"><a xlink:href="../../d2/db1/win2k_8h.html" target="_top" xlink:title=" ">
<polygon fill="none" stroke="black" points="156,-168.5 156,-187.5 211,-187.5 211,-168.5 156,-168.5"/>
<text text-anchor="middle" x="183.5" y="-175.5" font-family="Helvetica,sans-Serif" font-size="10.00">win2k.h</text>
</a>
</g>
</g>
<!-- Node2&#45;&gt;Node19 -->
<g id="edge21" class="edge">
<title>Node2&#45;&gt;Node19</title>
<path fill="none" stroke="midnightblue" d="M382.97,-228.04C346.65,-220.22 280.01,-204.46 219.58,-189.94"/>
<polygon fill="midnightblue" stroke="midnightblue" points="220.1,-186.47 209.56,-187.53 218.46,-193.27 220.1,-186.47"/>
</g>
<!-- Node20 -->
<g id="node20" class="node">
<title>Node20</title>
<g id="a_node20"><a xlink:href="../../d8/dbb/winnt4_8h.html" target="_top" xlink:title=" ">
<polygon fill="none" stroke="black" points="229,-168.5 229,-187.5 288,-187.5 288,-168.5 229,-168.5"/>
<text text-anchor="middle" x="258.5" y="-175.5" font-family="Helvetica,sans-Serif" font-size="10.00">winnt4.h</text>
</a>
</g>
</g>
<!-- Node2&#45;&gt;Node20 -->
<g id="edge23" class="edge">
<title>Node2&#45;&gt;Node20</title>
<path fill="none" stroke="midnightblue" d="M385.57,-224.44C360.28,-215.4 320.2,-201.06 291.82,-190.92"/>
<polygon fill="midnightblue" stroke="midnightblue" points="292.91,-187.59 282.31,-187.52 290.55,-194.18 292.91,-187.59"/>
</g>
<!-- Node4&#45;&gt;Node5 -->
<g id="edge4" class="edge">
<title>Node4&#45;&gt;Node5</title>
<path fill="none" stroke="midnightblue" d="M414.29,-168.08C418.26,-160.69 424.03,-149.95 428.93,-140.81"/>
<polygon fill="midnightblue" stroke="midnightblue" points="432.15,-142.22 433.8,-131.75 425.99,-138.91 432.15,-142.22"/>
</g>
<!-- Node6 -->
<g id="node6" class="node">
<title>Node6</title>
<g id="a_node6"><a xlink:href="../../d4/ded/winerror_8h.html" target="_top" xlink:title=" ">
<polygon fill="none" stroke="black" points="406,-56.5 406,-75.5 471,-75.5 471,-56.5 406,-56.5"/>
<text text-anchor="middle" x="438.5" y="-63.5" font-family="Helvetica,sans-Serif" font-size="10.00">winerror.h</text>
</a>
</g>
</g>
<!-- Node5&#45;&gt;Node6 -->
<g id="edge5" class="edge">
<title>Node5&#45;&gt;Node6</title>
<path fill="none" stroke="midnightblue" d="M438.5,-112.08C438.5,-105.01 438.5,-94.86 438.5,-85.99"/>
<polygon fill="midnightblue" stroke="midnightblue" points="442,-85.75 438.5,-75.75 435,-85.75 442,-85.75"/>
</g>
<!-- Node7 -->
<g id="node7" class="node">
<title>Node7</title>
<g id="a_node7"><a xlink:href="../../d7/de6/include_2string_8h.html" target="_top" xlink:title=" ">
<polygon fill="none" stroke="black" points="252,-56.5 252,-75.5 305,-75.5 305,-56.5 252,-56.5"/>
<text text-anchor="middle" x="278.5" y="-63.5" font-family="Helvetica,sans-Serif" font-size="10.00">string.h</text>
</a>
</g>
</g>
<!-- Node5&#45;&gt;Node7 -->
<g id="edge6" class="edge">
<title>Node5&#45;&gt;Node7</title>
<path fill="none" stroke="midnightblue" d="M413.15,-112.44C386.23,-103.36 343.5,-88.94 313.41,-78.78"/>
<polygon fill="midnightblue" stroke="midnightblue" points="314.33,-75.4 303.73,-75.52 312.09,-82.03 314.33,-75.4"/>
</g>
<!-- Node10 -->
<g id="node10" class="node">
<title>Node10</title>
<g id="a_node10"><a xlink:href="../../db/de8/basetsd_8h.html" target="_top" xlink:title=" ">
<polygon fill="none" stroke="black" points="323.5,-56.5 323.5,-75.5 387.5,-75.5 387.5,-56.5 323.5,-56.5"/>
<text text-anchor="middle" x="355.5" y="-63.5" font-family="Helvetica,sans-Serif" font-size="10.00">basetsd.h</text>
</a>
</g>
</g>
<!-- Node5&#45;&gt;Node10 -->
<g id="edge9" class="edge">
<title>Node5&#45;&gt;Node10</title>
<path fill="none" stroke="midnightblue" d="M425.16,-112.32C412.34,-103.98 392.72,-91.21 377.56,-81.35"/>
<polygon fill="midnightblue" stroke="midnightblue" points="379.09,-78.17 368.8,-75.65 375.28,-84.04 379.09,-78.17"/>
</g>
<!-- Node11 -->
<g id="node11" class="node">
<title>Node11</title>
<g id="a_node11"><a xlink:href="../../dd/d76/pshpack4_8h.html" target="_top" xlink:title=" ">
<polygon fill="none" stroke="black" points="489.5,-56.5 489.5,-75.5 561.5,-75.5 561.5,-56.5 489.5,-56.5"/>
<text text-anchor="middle" x="525.5" y="-63.5" font-family="Helvetica,sans-Serif" font-size="10.00">pshpack4.h</text>
</a>
</g>
</g>
<!-- Node5&#45;&gt;Node11 -->
<g id="edge10" class="edge">
<title>Node5&#45;&gt;Node11</title>
<path fill="none" stroke="midnightblue" d="M452.48,-112.32C466.05,-103.9 486.88,-90.97 502.82,-81.07"/>
<polygon fill="midnightblue" stroke="midnightblue" points="504.91,-83.9 511.56,-75.65 501.21,-77.95 504.91,-83.9"/>
</g>
<!-- Node12 -->
<g id="node12" class="node">
<title>Node12</title>
<g id="a_node12"><a xlink:href="../../d3/df1/poppack_8h.html" target="_top" xlink:title=" ">
<polygon fill="none" stroke="black" points="580,-56.5 580,-75.5 647,-75.5 647,-56.5 580,-56.5"/>
<text text-anchor="middle" x="613.5" y="-63.5" font-family="Helvetica,sans-Serif" font-size="10.00">poppack.h</text>
</a>
</g>
</g>
<!-- Node5&#45;&gt;Node12 -->
<g id="edge11" class="edge">
<title>Node5&#45;&gt;Node12</title>
<path fill="none" stroke="midnightblue" d="M465.08,-112.8C494.63,-103.68 542.58,-88.88 575.95,-78.59"/>
<polygon fill="midnightblue" stroke="midnightblue" points="577.28,-81.84 585.8,-75.55 575.21,-75.15 577.28,-81.84"/>
</g>
<!-- Node8 -->
<g id="node8" class="node">
<title>Node8</title>
<g id="a_node8"><a xlink:href="../../da/d3d/__mingw_8h.html" target="_top" xlink:title=" ">
<polygon fill="none" stroke="black" points="208,-0.5 208,-19.5 271,-19.5 271,-0.5 208,-0.5"/>
<text text-anchor="middle" x="239.5" y="-7.5" font-family="Helvetica,sans-Serif" font-size="10.00">_mingw.h</text>
</a>
</g>
</g>
<!-- Node7&#45;&gt;Node8 -->
<g id="edge7" class="edge">
<title>Node7&#45;&gt;Node8</title>
<path fill="none" stroke="midnightblue" d="M272.06,-56.08C266.55,-48.46 258.47,-37.26 251.74,-27.94"/>
<polygon fill="midnightblue" stroke="midnightblue" points="254.51,-25.81 245.82,-19.75 248.84,-29.91 254.51,-25.81"/>
</g>
<!-- Node9 -->
<g id="node9" class="node">
<title>Node9</title>
<g id="a_node9"><a xlink:href="../../d3/dce/stddef_8h.html" target="_top" xlink:title=" ">
<polygon fill="none" stroke="black" points="289.5,-0.5 289.5,-19.5 345.5,-19.5 345.5,-0.5 289.5,-0.5"/>
<text text-anchor="middle" x="317.5" y="-7.5" font-family="Helvetica,sans-Serif" font-size="10.00">stddef.h</text>
</a>
</g>
</g>
<!-- Node7&#45;&gt;Node9 -->
<g id="edge8" class="edge">
<title>Node7&#45;&gt;Node9</title>
<path fill="none" stroke="midnightblue" d="M284.94,-56.08C290.45,-48.46 298.53,-37.26 305.26,-27.94"/>
<polygon fill="midnightblue" stroke="midnightblue" points="308.16,-29.91 311.18,-19.75 302.49,-25.81 308.16,-29.91"/>
</g>
<!-- Node16&#45;&gt;Node11 -->
<g id="edge19" class="edge">
<title>Node16&#45;&gt;Node11</title>
<path fill="none" stroke="midnightblue" d="M525.5,-168.37C525.5,-150.62 525.5,-109.67 525.5,-85.6"/>
<polygon fill="midnightblue" stroke="midnightblue" points="529,-85.59 525.5,-75.59 522,-85.59 529,-85.59"/>
</g>
<!-- Node16&#45;&gt;Node12 -->
<g id="edge18" class="edge">
<title>Node16&#45;&gt;Node12</title>
<path fill="none" stroke="midnightblue" d="M532.41,-168.37C546.99,-150.14 581.16,-107.43 600.16,-83.68"/>
<polygon fill="midnightblue" stroke="midnightblue" points="603.11,-85.59 606.63,-75.59 597.65,-81.21 603.11,-85.59"/>
</g>
<!-- Node17 -->
<g id="node17" class="node">
<title>Node17</title>
<g id="a_node17"><a xlink:href="../../d8/dc9/pshpack1_8h.html" target="_top" xlink:title=" ">
<polygon fill="none" stroke="black" points="647.5,-112.5 647.5,-131.5 719.5,-131.5 719.5,-112.5 647.5,-112.5"/>
<text text-anchor="middle" x="683.5" y="-119.5" font-family="Helvetica,sans-Serif" font-size="10.00">pshpack1.h</text>
</a>
</g>
</g>
<!-- Node16&#45;&gt;Node17 -->
<g id="edge17" class="edge">
<title>Node16&#45;&gt;Node17</title>
<path fill="none" stroke="midnightblue" d="M550.54,-168.44C577.12,-159.36 619.31,-144.94 649.02,-134.78"/>
<polygon fill="midnightblue" stroke="midnightblue" points="650.25,-138.06 658.58,-131.52 647.99,-131.44 650.25,-138.06"/>
</g>
<!-- Node19&#45;&gt;Node2 -->
<g id="edge22" class="edge">
<title>Node19&#45;&gt;Node2</title>
<path fill="none" stroke="midnightblue" d="M211.31,-183.69C217.42,-185.08 223.72,-186.61 229.5,-188 279.2,-199.96 336.28,-213.53 372.73,-222.61"/>
<polygon fill="midnightblue" stroke="midnightblue" points="372.34,-226.12 382.9,-225.16 374.05,-219.33 372.34,-226.12"/>
</g>
<!-- Node21&#45;&gt;Node2 -->
<g id="edge25" class="edge">
<title>Node21&#45;&gt;Node2</title>
<path fill="none" stroke="midnightblue" d="M561.18,-340.26C537.56,-333.83 497.08,-320.7 467.5,-300 448.8,-286.91 431.99,-266.66 421.34,-252.24"/>
<polygon fill="midnightblue" stroke="midnightblue" points="423.93,-249.85 415.27,-243.75 418.23,-253.92 423.93,-249.85"/>
</g>
<!-- Node21&#45;&gt;Node12 -->
<g id="edge31" class="edge">
<title>Node21&#45;&gt;Node12</title>
<path fill="none" stroke="midnightblue" d="M599.85,-343.36C649.67,-337.98 778.5,-316.2 778.5,-235 778.5,-235 778.5,-235 778.5,-177 778.5,-118.54 705.91,-89.24 657.02,-76.13"/>
<polygon fill="midnightblue" stroke="midnightblue" points="657.84,-72.73 647.29,-73.65 656.11,-79.51 657.84,-72.73"/>
</g>
<!-- Node21&#45;&gt;Node17 -->
<g id="edge30" class="edge">
<title>Node21&#45;&gt;Node17</title>
<path fill="none" stroke="midnightblue" d="M599.9,-343.15C626.12,-339.58 672.47,-329.28 697.5,-300 736.25,-254.68 741.98,-224 721.5,-168 717.44,-156.91 709.31,-146.67 701.61,-138.76"/>
<polygon fill="midnightblue" stroke="midnightblue" points="703.86,-136.07 694.21,-131.7 699.03,-141.14 703.86,-136.07"/>
</g>
<!-- Node22 -->
<g id="node22" class="node">
<title>Node22</title>
<g id="a_node22"><a xlink:href="../../d4/df6/ntddtdi_8h.html" target="_top" xlink:title=" ">
<polygon fill="none" stroke="black" points="628.5,-280.5 628.5,-299.5 688.5,-299.5 688.5,-280.5 628.5,-280.5"/>
<text text-anchor="middle" x="658.5" y="-287.5" font-family="Helvetica,sans-Serif" font-size="10.00">ntddtdi.h</text>
</a>
</g>
</g>
<!-- Node21&#45;&gt;Node22 -->
<g id="edge26" class="edge">
<title>Node21&#45;&gt;Node22</title>
<path fill="none" stroke="midnightblue" d="M593.03,-336.32C605.09,-327.98 623.53,-315.21 637.77,-305.35"/>
<polygon fill="midnightblue" stroke="midnightblue" points="639.77,-308.22 646,-299.65 635.78,-302.47 639.77,-308.22"/>
</g>
<!-- Node23 -->
<g id="node23" class="node">
<title>Node23</title>
<g id="a_node23"><a xlink:href="../../d8/d6b/tdistat_8h.html" target="_top" xlink:title=" ">
<polygon fill="none" stroke="black" points="476,-280.5 476,-299.5 533,-299.5 533,-280.5 476,-280.5"/>
<text text-anchor="middle" x="504.5" y="-287.5" font-family="Helvetica,sans-Serif" font-size="10.00">tdistat.h</text>
</a>
</g>
</g>
<!-- Node21&#45;&gt;Node23 -->
<g id="edge28" class="edge">
<title>Node21&#45;&gt;Node23</title>
<path fill="none" stroke="midnightblue" d="M568.29,-336.32C556.72,-328.11 539.12,-315.6 525.34,-305.81"/>
<polygon fill="midnightblue" stroke="midnightblue" points="527.11,-302.77 516.93,-299.83 523.06,-308.48 527.11,-302.77"/>
</g>
<!-- Node24 -->
<g id="node24" class="node">
<title>Node24</title>
<g id="a_node24"><a xlink:href="../../dd/dde/netpnp_8h.html" target="_top" xlink:title=" ">
<polygon fill="none" stroke="black" points="551,-280.5 551,-299.5 610,-299.5 610,-280.5 551,-280.5"/>
<text text-anchor="middle" x="580.5" y="-287.5" font-family="Helvetica,sans-Serif" font-size="10.00">netpnp.h</text>
</a>
</g>
</g>
<!-- Node21&#45;&gt;Node24 -->
<g id="edge29" class="edge">
<title>Node21&#45;&gt;Node24</title>
<path fill="none" stroke="midnightblue" d="M580.5,-336.08C580.5,-329.01 580.5,-318.86 580.5,-309.99"/>
<polygon fill="midnightblue" stroke="midnightblue" points="584,-309.75 580.5,-299.75 577,-309.75 584,-309.75"/>
</g>
<!-- Node22&#45;&gt;Node2 -->
<g id="edge27" class="edge">
<title>Node22&#45;&gt;Node2</title>
<path fill="none" stroke="midnightblue" d="M628.28,-281.98C625.31,-281.3 622.35,-280.63 619.5,-280 558.77,-266.49 487.99,-251.47 446.06,-242.65"/>
<polygon fill="midnightblue" stroke="midnightblue" points="446.56,-239.18 436.05,-240.55 445.12,-246.03 446.56,-239.18"/>
</g>
</g>
</svg>
