<?xml version="1.0" encoding="UTF-8" standalone="no"?>
<!DOCTYPE svg PUBLIC "-//W3C//DTD SVG 1.1//EN"
 "http://www.w3.org/Graphics/SVG/1.1/DTD/svg11.dtd">
<!-- Generated by graphviz version 2.43.0 (0)
 -->
<!-- Title: SpeexResamplerState Pages: 1 -->
<svg width="372pt" height="205pt"
 viewBox="0.00 0.00 372.00 205.00" xmlns="http://www.w3.org/2000/svg" xmlns:xlink="http://www.w3.org/1999/xlink">
<g id="graph0" class="graph" transform="scale(1 1) rotate(0) translate(4 201)">
<title>SpeexResamplerState</title>
<!-- Node1 -->
<g id="node1" class="node">
<title>Node1</title>
<g id="a_node1"><a xlink:title=" ">
<polygon fill="#bfbfbf" stroke="black" points="75.5,-0.5 75.5,-19.5 200.5,-19.5 200.5,-0.5 75.5,-0.5"/>
<text text-anchor="middle" x="138" y="-7.5" font-family="Helvetica,sans-Serif" font-size="10.00">SpeexResamplerState</text>
</a>
</g>
</g>
<!-- Node2 -->
<g id="node2" class="node">
<title>Node2</title>
<g id="a_node2"><a xlink:title=" ">
<polygon fill="none" stroke="#bfbfbf" points="0,-177.5 0,-196.5 38,-196.5 38,-177.5 0,-177.5"/>
<text text-anchor="middle" x="19" y="-184.5" font-family="Helvetica,sans-Serif" font-size="10.00">float</text>
</a>
</g>
</g>
<!-- Node2&#45;&gt;Node1 -->
<g id="edge1" class="edge">
<title>Node2&#45;&gt;Node1</title>
<path fill="none" stroke="#9a32cd" stroke-dasharray="5,2" d="M13.26,-167.66C4.92,-137.04 -6.46,-75.21 24,-38 31.02,-29.42 52.73,-23.25 75.35,-19"/>
<polygon fill="#9a32cd" stroke="#9a32cd" points="9.95,-168.81 16.11,-177.43 16.67,-166.85 9.95,-168.81"/>
<text text-anchor="middle" x="50.5" y="-107" font-family="Helvetica,sans-Serif" font-size="10.00"> sinc_table</text>
<text text-anchor="middle" x="50.5" y="-96" font-family="Helvetica,sans-Serif" font-size="10.00">cutoff</text>
<text text-anchor="middle" x="50.5" y="-85" font-family="Helvetica,sans-Serif" font-size="10.00">mem</text>
</g>
<!-- Node3 -->
<g id="node3" class="node">
<title>Node3</title>
<g id="a_node3"><a xlink:title=" ">
<polygon fill="none" stroke="#bfbfbf" points="62.5,-177.5 62.5,-196.5 127.5,-196.5 127.5,-177.5 62.5,-177.5"/>
<text text-anchor="middle" x="95" y="-184.5" font-family="Helvetica,sans-Serif" font-size="10.00">signed int</text>
</a>
</g>
</g>
<!-- Node3&#45;&gt;Node1 -->
<g id="edge2" class="edge">
<title>Node3&#45;&gt;Node1</title>
<path fill="none" stroke="#9a32cd" stroke-dasharray="5,2" d="M89.83,-167.5C82.71,-138.03 73.15,-79.52 96,-38 100.43,-29.95 108.39,-23.94 116.2,-19.66"/>
<polygon fill="#9a32cd" stroke="#9a32cd" points="86.47,-168.48 92.37,-177.28 93.25,-166.72 86.47,-168.48"/>
<text text-anchor="middle" x="127.5" y="-96" font-family="Helvetica,sans-Serif" font-size="10.00"> last_sample</text>
</g>
<!-- Node4 -->
<g id="node4" class="node">
<title>Node4</title>
<g id="a_node4"><a xlink:title=" ">
<polygon fill="none" stroke="#bfbfbf" points="166.5,-177.5 166.5,-196.5 195.5,-196.5 195.5,-177.5 166.5,-177.5"/>
<text text-anchor="middle" x="181" y="-184.5" font-family="Helvetica,sans-Serif" font-size="10.00">int</text>
</a>
</g>
</g>
<!-- Node4&#45;&gt;Node1 -->
<g id="edge3" class="edge">
<title>Node4&#45;&gt;Node1</title>
<path fill="none" stroke="#9a32cd" stroke-dasharray="5,2" d="M181.21,-166.91C180.87,-137.89 177.59,-81.45 159,-38 156.1,-31.23 151.09,-24.68 146.68,-19.73"/>
<polygon fill="#9a32cd" stroke="#9a32cd" points="177.71,-167.24 181.22,-177.24 184.71,-167.24 177.71,-167.24"/>
<text text-anchor="middle" x="215.5" y="-134.5" font-family="Helvetica,sans-Serif" font-size="10.00"> started</text>
<text text-anchor="middle" x="215.5" y="-123.5" font-family="Helvetica,sans-Serif" font-size="10.00">out_stride</text>
<text text-anchor="middle" x="215.5" y="-112.5" font-family="Helvetica,sans-Serif" font-size="10.00">frac_advance</text>
<text text-anchor="middle" x="215.5" y="-101.5" font-family="Helvetica,sans-Serif" font-size="10.00">resampler_ptr</text>
<text text-anchor="middle" x="215.5" y="-90.5" font-family="Helvetica,sans-Serif" font-size="10.00">initialised</text>
<text text-anchor="middle" x="215.5" y="-79.5" font-family="Helvetica,sans-Serif" font-size="10.00">int_advance</text>
<text text-anchor="middle" x="215.5" y="-68.5" font-family="Helvetica,sans-Serif" font-size="10.00">in_stride</text>
<text text-anchor="middle" x="215.5" y="-57.5" font-family="Helvetica,sans-Serif" font-size="10.00">quality</text>
</g>
<!-- Node5 -->
<g id="node5" class="node">
<title>Node5</title>
<g id="a_node5"><a xlink:title=" ">
<polygon fill="none" stroke="#bfbfbf" points="234.5,-177.5 234.5,-196.5 311.5,-196.5 311.5,-177.5 234.5,-177.5"/>
<text text-anchor="middle" x="273" y="-184.5" font-family="Helvetica,sans-Serif" font-size="10.00">unsigned int</text>
</a>
</g>
</g>
<!-- Node5&#45;&gt;Node1 -->
<g id="edge4" class="edge">
<title>Node5&#45;&gt;Node1</title>
<path fill="none" stroke="#9a32cd" stroke-dasharray="5,2" d="M276.22,-167.36C280.43,-136.29 283.83,-73.82 251,-38 243.61,-29.93 222.18,-23.85 199.95,-19.53"/>
<polygon fill="#9a32cd" stroke="#9a32cd" points="272.75,-166.86 274.69,-177.28 279.67,-167.92 272.75,-166.86"/>
<text text-anchor="middle" x="321" y="-151" font-family="Helvetica,sans-Serif" font-size="10.00"> oversample</text>
<text text-anchor="middle" x="321" y="-140" font-family="Helvetica,sans-Serif" font-size="10.00">sinc_table_length</text>
<text text-anchor="middle" x="321" y="-129" font-family="Helvetica,sans-Serif" font-size="10.00">samp_frac_num</text>
<text text-anchor="middle" x="321" y="-118" font-family="Helvetica,sans-Serif" font-size="10.00">mem_alloc_size</text>
<text text-anchor="middle" x="321" y="-107" font-family="Helvetica,sans-Serif" font-size="10.00">den_rate</text>
<text text-anchor="middle" x="321" y="-96" font-family="Helvetica,sans-Serif" font-size="10.00">out_rate</text>
<text text-anchor="middle" x="321" y="-85" font-family="Helvetica,sans-Serif" font-size="10.00">magic_samples</text>
<text text-anchor="middle" x="321" y="-74" font-family="Helvetica,sans-Serif" font-size="10.00">nb_channels</text>
<text text-anchor="middle" x="321" y="-63" font-family="Helvetica,sans-Serif" font-size="10.00">in_rate</text>
<text text-anchor="middle" x="321" y="-52" font-family="Helvetica,sans-Serif" font-size="10.00">num_rate</text>
<text text-anchor="middle" x="321" y="-41" font-family="Helvetica,sans-Serif" font-size="10.00">...</text>
</g>
</g>
</svg>
