<?xml version="1.0" encoding="UTF-8" standalone="no"?>
<!DOCTYPE svg PUBLIC "-//W3C//DTD SVG 1.1//EN"
 "http://www.w3.org/Graphics/SVG/1.1/DTD/svg11.dtd">
<!-- Generated by graphviz version 2.43.0 (0)
 -->
<!-- Title: Engine/libspeex/vbr.h Pages: 1 -->
<svg width="593pt" height="229pt"
 viewBox="0.00 0.00 593.00 229.00" xmlns="http://www.w3.org/2000/svg" xmlns:xlink="http://www.w3.org/1999/xlink">
<g id="graph0" class="graph" transform="scale(1 1) rotate(0) translate(4 225)">
<title>Engine/libspeex/vbr.h</title>
<!-- Node1 -->
<g id="node1" class="node">
<title>Node1</title>
<g id="a_node1"><a xlink:title="Variable Bit&#45;Rate (VBR) related routines.">
<polygon fill="#bfbfbf" stroke="black" points="293.5,-201.5 293.5,-220.5 414.5,-220.5 414.5,-201.5 293.5,-201.5"/>
<text text-anchor="middle" x="354" y="-208.5" font-family="Helvetica,sans-Serif" font-size="10.00">Engine/libspeex/vbr.h</text>
</a>
</g>
</g>
<!-- Node2 -->
<g id="node2" class="node">
<title>Node2</title>
<g id="a_node2"><a xlink:href="../../d1/df9/nb__celp_8h.html" target="_top" xlink:title="Narrowband CELP encoder/decoder.">
<polygon fill="none" stroke="black" points="216.5,-134.5 216.5,-164.5 325.5,-164.5 325.5,-134.5 216.5,-134.5"/>
<text text-anchor="start" x="224.5" y="-152.5" font-family="Helvetica,sans-Serif" font-size="10.00">Engine/libspeex/nb</text>
<text text-anchor="middle" x="271" y="-141.5" font-family="Helvetica,sans-Serif" font-size="10.00">_celp.h</text>
</a>
</g>
</g>
<!-- Node1&#45;&gt;Node2 -->
<g id="edge1" class="edge">
<title>Node1&#45;&gt;Node2</title>
<path fill="none" stroke="midnightblue" d="M333.73,-195.47C320.59,-186.05 303.56,-173.84 290.56,-164.52"/>
<polygon fill="midnightblue" stroke="midnightblue" points="331.94,-198.49 342.11,-201.48 336.02,-192.8 331.94,-198.49"/>
</g>
<!-- Node4 -->
<g id="node4" class="node">
<title>Node4</title>
<g id="a_node4"><a xlink:href="../../d2/d21/modes_8c.html" target="_top" xlink:title=" ">
<polygon fill="none" stroke="black" points="0,-6 0,-25 138,-25 138,-6 0,-6"/>
<text text-anchor="middle" x="69" y="-13" font-family="Helvetica,sans-Serif" font-size="10.00">Engine/libspeex/modes.c</text>
</a>
</g>
</g>
<!-- Node1&#45;&gt;Node4 -->
<g id="edge9" class="edge">
<title>Node1&#45;&gt;Node4</title>
<path fill="none" stroke="midnightblue" d="M287.2,-199.31C227.46,-186.11 142.25,-157.61 95,-98 77.29,-75.65 71.52,-40.98 69.74,-25.04"/>
<polygon fill="midnightblue" stroke="midnightblue" points="286.79,-202.8 297.3,-201.45 288.25,-195.96 286.79,-202.8"/>
</g>
<!-- Node5 -->
<g id="node5" class="node">
<title>Node5</title>
<g id="a_node5"><a xlink:href="../../d0/db3/modes__wb_8c.html" target="_top" xlink:title=" ">
<polygon fill="none" stroke="black" points="282,-6 282,-25 440,-25 440,-6 282,-6"/>
<text text-anchor="middle" x="361" y="-13" font-family="Helvetica,sans-Serif" font-size="10.00">Engine/libspeex/modes_wb.c</text>
</a>
</g>
</g>
<!-- Node1&#45;&gt;Node5 -->
<g id="edge10" class="edge">
<title>Node1&#45;&gt;Node5</title>
<path fill="none" stroke="midnightblue" d="M367.3,-193.3C383,-172.43 408.19,-134.96 418,-98 421.54,-84.68 423.65,-79.56 418,-67 409.59,-48.31 390.47,-33.74 376.69,-25.15"/>
<polygon fill="midnightblue" stroke="midnightblue" points="364.38,-191.36 361.04,-201.42 369.92,-195.64 364.38,-191.36"/>
</g>
<!-- Node7 -->
<g id="node7" class="node">
<title>Node7</title>
<g id="a_node7"><a xlink:href="../../d6/dc4/nb__celp_8c.html" target="_top" xlink:title=" ">
<polygon fill="none" stroke="black" points="299.5,-67.5 299.5,-97.5 408.5,-97.5 408.5,-67.5 299.5,-67.5"/>
<text text-anchor="start" x="307.5" y="-85.5" font-family="Helvetica,sans-Serif" font-size="10.00">Engine/libspeex/nb</text>
<text text-anchor="middle" x="354" y="-74.5" font-family="Helvetica,sans-Serif" font-size="10.00">_celp.c</text>
</a>
</g>
</g>
<!-- Node1&#45;&gt;Node7 -->
<g id="edge11" class="edge">
<title>Node1&#45;&gt;Node7</title>
<path fill="none" stroke="midnightblue" d="M354,-191.11C354,-165.63 354,-120.81 354,-97.89"/>
<polygon fill="midnightblue" stroke="midnightblue" points="350.5,-191.31 354,-201.31 357.5,-191.31 350.5,-191.31"/>
</g>
<!-- Node8 -->
<g id="node8" class="node">
<title>Node8</title>
<g id="a_node8"><a xlink:href="../../d2/d66/vbr_8c.html" target="_top" xlink:title=" ">
<polygon fill="none" stroke="black" points="465,-140 465,-159 585,-159 585,-140 465,-140"/>
<text text-anchor="middle" x="525" y="-147" font-family="Helvetica,sans-Serif" font-size="10.00">Engine/libspeex/vbr.c</text>
</a>
</g>
</g>
<!-- Node1&#45;&gt;Node8 -->
<g id="edge12" class="edge">
<title>Node1&#45;&gt;Node8</title>
<path fill="none" stroke="midnightblue" d="M388.25,-198.08C421.49,-186.52 471.11,-169.25 500.55,-159.01"/>
<polygon fill="midnightblue" stroke="midnightblue" points="386.79,-194.88 378.5,-201.48 389.09,-201.49 386.79,-194.88"/>
</g>
<!-- Node3 -->
<g id="node3" class="node">
<title>Node3</title>
<g id="a_node3"><a xlink:href="../../d4/d9a/sb__celp_8h.html" target="_top" xlink:title="Sub&#45;band CELP mode used for wideband encoding.">
<polygon fill="none" stroke="black" points="135,-67.5 135,-97.5 243,-97.5 243,-67.5 135,-67.5"/>
<text text-anchor="start" x="143" y="-85.5" font-family="Helvetica,sans-Serif" font-size="10.00">Engine/libspeex/sb</text>
<text text-anchor="middle" x="189" y="-74.5" font-family="Helvetica,sans-Serif" font-size="10.00">_celp.h</text>
</a>
</g>
</g>
<!-- Node2&#45;&gt;Node3 -->
<g id="edge2" class="edge">
<title>Node2&#45;&gt;Node3</title>
<path fill="none" stroke="midnightblue" d="M245.35,-128.17C232.81,-118.23 218.03,-106.51 206.76,-97.58"/>
<polygon fill="midnightblue" stroke="midnightblue" points="243.2,-130.93 253.21,-134.4 247.54,-125.44 243.2,-130.93"/>
</g>
<!-- Node2&#45;&gt;Node4 -->
<g id="edge6" class="edge">
<title>Node2&#45;&gt;Node4</title>
<path fill="none" stroke="midnightblue" d="M206.76,-135.41C179.92,-127.7 149.57,-115.84 126,-98 99.43,-77.89 80.52,-41.78 72.83,-25.22"/>
<polygon fill="midnightblue" stroke="midnightblue" points="205.91,-138.8 216.48,-138.07 207.75,-132.05 205.91,-138.8"/>
</g>
<!-- Node2&#45;&gt;Node5 -->
<g id="edge7" class="edge">
<title>Node2&#45;&gt;Node5</title>
<path fill="none" stroke="midnightblue" d="M272.18,-123.97C274.03,-106.77 278.65,-83.93 290,-67 302.89,-47.78 325.73,-33.5 342.03,-25.11"/>
<polygon fill="midnightblue" stroke="midnightblue" points="268.66,-124.08 271.32,-134.34 275.63,-124.66 268.66,-124.08"/>
</g>
<!-- Node2&#45;&gt;Node7 -->
<g id="edge8" class="edge">
<title>Node2&#45;&gt;Node7</title>
<path fill="none" stroke="midnightblue" d="M296.96,-128.17C309.65,-118.23 324.61,-106.51 336.03,-97.58"/>
<polygon fill="midnightblue" stroke="midnightblue" points="294.72,-125.47 289.01,-134.4 299.04,-130.99 294.72,-125.47"/>
</g>
<!-- Node3&#45;&gt;Node4 -->
<g id="edge3" class="edge">
<title>Node3&#45;&gt;Node4</title>
<path fill="none" stroke="midnightblue" d="M153.87,-62.47C130.96,-50.06 102.18,-34.47 84.71,-25.01"/>
<polygon fill="midnightblue" stroke="midnightblue" points="152.5,-65.71 162.96,-67.4 155.84,-59.56 152.5,-65.71"/>
</g>
<!-- Node3&#45;&gt;Node5 -->
<g id="edge4" class="edge">
<title>Node3&#45;&gt;Node5</title>
<path fill="none" stroke="midnightblue" d="M235.88,-63.78C269.23,-51.18 312.55,-34.81 338.49,-25.01"/>
<polygon fill="midnightblue" stroke="midnightblue" points="234.44,-60.59 226.32,-67.4 236.91,-67.13 234.44,-60.59"/>
</g>
<!-- Node6 -->
<g id="node6" class="node">
<title>Node6</title>
<g id="a_node6"><a xlink:href="../../d8/d9b/sb__celp_8c.html" target="_top" xlink:title=" ">
<polygon fill="none" stroke="black" points="156,-0.5 156,-30.5 264,-30.5 264,-0.5 156,-0.5"/>
<text text-anchor="start" x="164" y="-18.5" font-family="Helvetica,sans-Serif" font-size="10.00">Engine/libspeex/sb</text>
<text text-anchor="middle" x="210" y="-7.5" font-family="Helvetica,sans-Serif" font-size="10.00">_celp.c</text>
</a>
</g>
</g>
<!-- Node3&#45;&gt;Node6 -->
<g id="edge5" class="edge">
<title>Node3&#45;&gt;Node6</title>
<path fill="none" stroke="midnightblue" d="M196.69,-57.7C199.63,-48.59 202.89,-38.49 205.45,-30.58"/>
<polygon fill="midnightblue" stroke="midnightblue" points="193.3,-56.8 193.56,-67.4 199.96,-58.96 193.3,-56.8"/>
</g>
</g>
</svg>
