<?xml version="1.0" encoding="UTF-8" standalone="no"?>
<!DOCTYPE svg PUBLIC "-//W3C//DTD SVG 1.1//EN"
 "http://www.w3.org/Graphics/SVG/1.1/DTD/svg11.dtd">
<!-- Generated by graphviz version 2.43.0 (0)
 -->
<!-- Title: Source/Engine/libspeex/vbr.h Pages: 1 -->
<!--zoomable 240 -->
<svg id="main" version="1.1" xmlns="http://www.w3.org/2000/svg" xmlns:xlink="http://www.w3.org/1999/xlink" xml:space="preserve" onload="init(evt)">
<style type="text/css"><![CDATA[
.edge:hover path { stroke: red; }
.edge:hover polygon { stroke: red; fill: red; }
]]></style>
<script type="text/javascript"><![CDATA[
var edges = document.getElementsByTagName('g');
if (edges && edges.length) {
  for (var i=0;i<edges.length;i++) {
    if (edges[i].id.substr(0,4)=='edge') {
      edges[i].setAttribute('class','edge');
    }
  }
}
]]></script>
        <defs>
                <circle id="rim" cx="0" cy="0" r="7"/>
                <circle id="rim2" cx="0" cy="0" r="3.5"/>
                <g id="zoomPlus">
                        <use xlink:href="#rim" fill="#404040">
                                <set attributeName="fill" to="#808080" begin="zoomplus.mouseover" end="zoomplus.mouseout"/>
                        </use>
                        <path d="M-4,0h8M0,-4v8" fill="none" stroke="white" stroke-width="1.5" pointer-events="none"/>
                </g>
                <g id="zoomMin">
                        <use xlink:href="#rim" fill="#404040">
                                <set attributeName="fill" to="#808080" begin="zoomminus.mouseover" end="zoomminus.mouseout"/>
                        </use>
                        <path d="M-4,0h8" fill="none" stroke="white" stroke-width="1.5" pointer-events="none"/>
                </g>
                <g id="dirArrow">
                        <path fill="none" stroke="white" stroke-width="1.5" d="M0,-3.0v7 M-2.5,-0.5L0,-3.0L2.5,-0.5"/>
                </g>
               <g id="resetDef">
                       <use xlink:href="#rim2" fill="#404040">
                               <set attributeName="fill" to="#808080" begin="reset.mouseover" end="reset.mouseout"/>
                       </use>
               </g>
        </defs>

<script type="text/javascript">
var viewWidth = 641;
var viewHeight = 240;
var sectionId = 'dynsection-1';
</script>
<script xlink:href="../../svgpan.js"/>
<svg id="graph" class="graph">
<g id="viewport">
<title>Source/Engine/libspeex/vbr.h</title>
<!-- Node1 -->
<g id="node1" class="node">
<title>Node1</title>
<g id="a_node1"><a xlink:title="Variable Bit&#45;Rate (VBR) related routines.">
<polygon fill="#bfbfbf" stroke="black" points="317,-201.5 317,-231.5 447,-231.5 447,-201.5 317,-201.5"/>
<text text-anchor="start" x="325" y="-219.5" font-family="Helvetica,sans-Serif" font-size="10.00">Source/Engine/libspeex</text>
<text text-anchor="middle" x="382" y="-208.5" font-family="Helvetica,sans-Serif" font-size="10.00">/vbr.h</text>
</a>
</g>
</g>
<!-- Node2 -->
<g id="node2" class="node">
<title>Node2</title>
<g id="a_node2"><a xlink:href="../../d1/df9/nb__celp_8h.html" target="_top" xlink:title="Narrowband CELP encoder/decoder.">
<polygon fill="none" stroke="black" points="224,-134.5 224,-164.5 354,-164.5 354,-134.5 224,-134.5"/>
<text text-anchor="start" x="232" y="-152.5" font-family="Helvetica,sans-Serif" font-size="10.00">Source/Engine/libspeex</text>
<text text-anchor="middle" x="289" y="-141.5" font-family="Helvetica,sans-Serif" font-size="10.00">/nb_celp.h</text>
</a>
</g>
</g>
<!-- Node1&#45;&gt;Node2 -->
<g id="edge1" class="edge">
<title>Node1&#45;&gt;Node2</title>
<path fill="none" stroke="midnightblue" d="M353.31,-195.45C339.01,-185.45 322.05,-173.6 309.14,-164.58"/>
<polygon fill="midnightblue" stroke="midnightblue" points="351.62,-198.54 361.82,-201.4 355.63,-192.8 351.62,-198.54"/>
</g>
<!-- Node4 -->
<g id="node4" class="node">
<title>Node4</title>
<g id="a_node4"><a xlink:href="../../d2/d21/modes_8c.html" target="_top" xlink:title=" ">
<polygon fill="none" stroke="black" points="0,-0.5 0,-30.5 130,-30.5 130,-0.5 0,-0.5"/>
<text text-anchor="start" x="8" y="-18.5" font-family="Helvetica,sans-Serif" font-size="10.00">Source/Engine/libspeex</text>
<text text-anchor="middle" x="65" y="-7.5" font-family="Helvetica,sans-Serif" font-size="10.00">/modes.c</text>
</a>
</g>
</g>
<!-- Node1&#45;&gt;Node4 -->
<g id="edge9" class="edge">
<title>Node1&#45;&gt;Node4</title>
<path fill="none" stroke="midnightblue" d="M306.68,-205.62C239.54,-192.71 143.81,-163.44 90,-98 73.83,-78.34 68.1,-48.31 66.09,-30.72"/>
<polygon fill="midnightblue" stroke="midnightblue" points="306.32,-209.11 316.79,-207.48 307.59,-202.23 306.32,-209.11"/>
</g>
<!-- Node5 -->
<g id="node5" class="node">
<title>Node5</title>
<g id="a_node5"><a xlink:href="../../d0/db3/modes__wb_8c.html" target="_top" xlink:title=" ">
<polygon fill="none" stroke="black" points="296,-0.5 296,-30.5 426,-30.5 426,-0.5 296,-0.5"/>
<text text-anchor="start" x="304" y="-18.5" font-family="Helvetica,sans-Serif" font-size="10.00">Source/Engine/libspeex</text>
<text text-anchor="middle" x="361" y="-7.5" font-family="Helvetica,sans-Serif" font-size="10.00">/modes_wb.c</text>
</a>
</g>
</g>
<!-- Node1&#45;&gt;Node5 -->
<g id="edge10" class="edge">
<title>Node1&#45;&gt;Node5</title>
<path fill="none" stroke="midnightblue" d="M406.29,-194.29C436.83,-164.96 482.26,-110.7 456,-67 445.8,-50.03 427.76,-38.45 410.12,-30.72"/>
<polygon fill="midnightblue" stroke="midnightblue" points="403.83,-191.8 398.9,-201.19 408.6,-196.92 403.83,-191.8"/>
</g>
<!-- Node7 -->
<g id="node7" class="node">
<title>Node7</title>
<g id="a_node7"><a xlink:href="../../d6/dc4/nb__celp_8c.html" target="_top" xlink:title=" ">
<polygon fill="none" stroke="black" points="317,-67.5 317,-97.5 447,-97.5 447,-67.5 317,-67.5"/>
<text text-anchor="start" x="325" y="-85.5" font-family="Helvetica,sans-Serif" font-size="10.00">Source/Engine/libspeex</text>
<text text-anchor="middle" x="382" y="-74.5" font-family="Helvetica,sans-Serif" font-size="10.00">/nb_celp.c</text>
</a>
</g>
</g>
<!-- Node1&#45;&gt;Node7 -->
<g id="edge11" class="edge">
<title>Node1&#45;&gt;Node7</title>
<path fill="none" stroke="midnightblue" d="M382,-191.02C382,-163.51 382,-119.79 382,-97.52"/>
<polygon fill="midnightblue" stroke="midnightblue" points="378.5,-191.37 382,-201.37 385.5,-191.37 378.5,-191.37"/>
</g>
<!-- Node8 -->
<g id="node8" class="node">
<title>Node8</title>
<g id="a_node8"><a xlink:href="../../d2/d66/vbr_8c.html" target="_top" xlink:title=" ">
<polygon fill="none" stroke="black" points="503,-134.5 503,-164.5 633,-164.5 633,-134.5 503,-134.5"/>
<text text-anchor="start" x="511" y="-152.5" font-family="Helvetica,sans-Serif" font-size="10.00">Source/Engine/libspeex</text>
<text text-anchor="middle" x="568" y="-141.5" font-family="Helvetica,sans-Serif" font-size="10.00">/vbr.c</text>
</a>
</g>
</g>
<!-- Node1&#45;&gt;Node8 -->
<g id="edge12" class="edge">
<title>Node1&#45;&gt;Node8</title>
<path fill="none" stroke="midnightblue" d="M431.81,-198.09C461.84,-187.6 499.59,-174.41 527.72,-164.58"/>
<polygon fill="midnightblue" stroke="midnightblue" points="430.64,-194.79 422.36,-201.4 432.95,-201.4 430.64,-194.79"/>
</g>
<!-- Node3 -->
<g id="node3" class="node">
<title>Node3</title>
<g id="a_node3"><a xlink:href="../../d4/d9a/sb__celp_8h.html" target="_top" xlink:title="Sub&#45;band CELP mode used for wideband encoding.">
<polygon fill="none" stroke="black" points="131,-67.5 131,-97.5 261,-97.5 261,-67.5 131,-67.5"/>
<text text-anchor="start" x="139" y="-85.5" font-family="Helvetica,sans-Serif" font-size="10.00">Source/Engine/libspeex</text>
<text text-anchor="middle" x="196" y="-74.5" font-family="Helvetica,sans-Serif" font-size="10.00">/sb_celp.h</text>
</a>
</g>
</g>
<!-- Node2&#45;&gt;Node3 -->
<g id="edge2" class="edge">
<title>Node2&#45;&gt;Node3</title>
<path fill="none" stroke="midnightblue" d="M260.31,-128.45C246.01,-118.45 229.05,-106.6 216.14,-97.58"/>
<polygon fill="midnightblue" stroke="midnightblue" points="258.62,-131.54 268.82,-134.4 262.63,-125.8 258.62,-131.54"/>
</g>
<!-- Node2&#45;&gt;Node4 -->
<g id="edge6" class="edge">
<title>Node2&#45;&gt;Node4</title>
<path fill="none" stroke="midnightblue" d="M214.02,-136.96C183.38,-129.54 148.89,-117.49 122,-98 97.67,-80.37 80.08,-49.06 71.31,-30.8"/>
<polygon fill="midnightblue" stroke="midnightblue" points="213.29,-140.39 223.82,-139.21 214.86,-133.56 213.29,-140.39"/>
</g>
<!-- Node2&#45;&gt;Node5 -->
<g id="edge7" class="edge">
<title>Node2&#45;&gt;Node5</title>
<path fill="none" stroke="midnightblue" d="M290.98,-124.14C293.21,-107.2 297.95,-84.59 308,-67 316.26,-52.55 329.95,-39.66 341.34,-30.52"/>
<polygon fill="midnightblue" stroke="midnightblue" points="287.47,-124.02 289.84,-134.35 294.43,-124.79 287.47,-124.02"/>
</g>
<!-- Node2&#45;&gt;Node7 -->
<g id="edge8" class="edge">
<title>Node2&#45;&gt;Node7</title>
<path fill="none" stroke="midnightblue" d="M317.69,-128.45C331.99,-118.45 348.95,-106.6 361.86,-97.58"/>
<polygon fill="midnightblue" stroke="midnightblue" points="315.37,-125.8 309.18,-134.4 319.38,-131.54 315.37,-125.8"/>
</g>
<!-- Node3&#45;&gt;Node4 -->
<g id="edge3" class="edge">
<title>Node3&#45;&gt;Node4</title>
<path fill="none" stroke="midnightblue" d="M158.42,-62.85C137.71,-52.58 112.41,-40.03 93.37,-30.58"/>
<polygon fill="midnightblue" stroke="midnightblue" points="157.06,-66.09 167.57,-67.4 160.17,-59.82 157.06,-66.09"/>
</g>
<!-- Node3&#45;&gt;Node5 -->
<g id="edge4" class="edge">
<title>Node3&#45;&gt;Node5</title>
<path fill="none" stroke="midnightblue" d="M241.23,-63.68C267.69,-53.26 300.63,-40.28 325.27,-30.58"/>
<polygon fill="midnightblue" stroke="midnightblue" points="239.82,-60.47 231.8,-67.4 242.39,-66.99 239.82,-60.47"/>
</g>
<!-- Node6 -->
<g id="node6" class="node">
<title>Node6</title>
<g id="a_node6"><a xlink:href="../../d8/d9b/sb__celp_8c.html" target="_top" xlink:title=" ">
<polygon fill="none" stroke="black" points="148,-0.5 148,-30.5 278,-30.5 278,-0.5 148,-0.5"/>
<text text-anchor="start" x="156" y="-18.5" font-family="Helvetica,sans-Serif" font-size="10.00">Source/Engine/libspeex</text>
<text text-anchor="middle" x="213" y="-7.5" font-family="Helvetica,sans-Serif" font-size="10.00">/sb_celp.c</text>
</a>
</g>
</g>
<!-- Node3&#45;&gt;Node6 -->
<g id="edge5" class="edge">
<title>Node3&#45;&gt;Node6</title>
<path fill="none" stroke="midnightblue" d="M202.23,-57.7C204.61,-48.59 207.25,-38.49 209.32,-30.58"/>
<polygon fill="midnightblue" stroke="midnightblue" points="198.83,-56.84 199.69,-67.4 205.61,-58.61 198.83,-56.84"/>
</g>
</g>
</svg>
        <g id="navigator" transform="translate(0 0)" fill="#404254">
                <rect fill="#f2f5e9" fill-opacity="0.5" stroke="#606060" stroke-width=".5" x="0" y="0" width="60" height="60"/>
                <use id="zoomplus" xlink:href="#zoomPlus" x="17" y="9" onmousedown="handleZoom(evt,'in')"/>
                <use id="zoomminus" xlink:href="#zoomMin" x="42" y="9" onmousedown="handleZoom(evt,'out')"/>
                <use id="reset" xlink:href="#resetDef" x="30" y="36" onmousedown="handleReset()"/>
                <g id="arrowUp" xlink:href="#dirArrow" transform="translate(30 24)" onmousedown="handlePan(0,-1)">
                  <use xlink:href="#rim" fill="#404040">
                        <set attributeName="fill" to="#808080" begin="arrowUp.mouseover" end="arrowUp.mouseout"/>
                  </use>
                  <path fill="none" stroke="white" stroke-width="1.5" d="M0,-3.0v7 M-2.5,-0.5L0,-3.0L2.5,-0.5"/>
                </g>
                <g id="arrowRight" xlink:href="#dirArrow" transform="rotate(90) translate(36 -43)" onmousedown="handlePan(1,0)">
                  <use xlink:href="#rim" fill="#404040">
                        <set attributeName="fill" to="#808080" begin="arrowRight.mouseover" end="arrowRight.mouseout"/>
                  </use>
                  <path fill="none" stroke="white" stroke-width="1.5" d="M0,-3.0v7 M-2.5,-0.5L0,-3.0L2.5,-0.5"/>
                </g>
                <g id="arrowDown" xlink:href="#dirArrow" transform="rotate(180) translate(-30 -48)" onmousedown="handlePan(0,1)">
                  <use xlink:href="#rim" fill="#404040">
                        <set attributeName="fill" to="#808080" begin="arrowDown.mouseover" end="arrowDown.mouseout"/>
                  </use>
                  <path fill="none" stroke="white" stroke-width="1.5" d="M0,-3.0v7 M-2.5,-0.5L0,-3.0L2.5,-0.5"/>
                </g>
                <g id="arrowLeft" xlink:href="#dirArrow" transform="rotate(270) translate(-36 17)" onmousedown="handlePan(-1,0)">
                  <use xlink:href="#rim" fill="#404040">
                        <set attributeName="fill" to="#808080" begin="arrowLeft.mouseover" end="arrowLeft.mouseout"/>
                  </use>
                  <path fill="none" stroke="white" stroke-width="1.5" d="M0,-3.0v7 M-2.5,-0.5L0,-3.0L2.5,-0.5"/>
                </g>
        </g>
        <svg viewBox="0 0 15 15" width="100%" height="30px" preserveAspectRatio="xMaxYMin meet">
         <g id="arrow_out" transform="scale(0.3 0.3)">
          <a xlink:href="vbr_8h__dep__incl_org.svg" target="_base">
           <rect id="button" ry="5" rx="5" y="6" x="6" height="38" width="38"
                fill="#f2f5e9" fill-opacity="0.5" stroke="#606060" stroke-width="1.0"/>
           <path id="arrow"
             d="M 11.500037,31.436501 C 11.940474,20.09759 22.043105,11.32322 32.158766,21.979434 L 37.068811,17.246167 C 37.068811,17.246167 37.088388,32 37.088388,32 L 22.160133,31.978069 C 22.160133,31.978069 26.997745,27.140456 26.997745,27.140456 C 18.528582,18.264221 13.291696,25.230495 11.500037,31.436501 z"
             style="fill:#404040;"/>
          </a>
         </g>
        </svg>
</svg>
