<?xml version="1.0" encoding="UTF-8" standalone="no"?>
<!DOCTYPE svg PUBLIC "-//W3C//DTD SVG 1.1//EN"
 "http://www.w3.org/Graphics/SVG/1.1/DTD/svg11.dtd">
<!-- Generated by graphviz version 2.43.0 (0)
 -->
<!-- Title: tagNEWCPLINFOA Pages: 1 -->
<svg width="291pt" height="117pt"
 viewBox="0.00 0.00 291.00 117.00" xmlns="http://www.w3.org/2000/svg" xmlns:xlink="http://www.w3.org/1999/xlink">
<g id="graph0" class="graph" transform="scale(1 1) rotate(0) translate(4 113)">
<title>tagNEWCPLINFOA</title>
<!-- Node1 -->
<g id="node1" class="node">
<title>Node1</title>
<g id="a_node1"><a xlink:title=" ">
<polygon fill="#bfbfbf" stroke="black" points="72,-0.5 72,-19.5 176,-19.5 176,-0.5 72,-0.5"/>
<text text-anchor="middle" x="124" y="-7.5" font-family="Helvetica,sans-Serif" font-size="10.00">tagNEWCPLINFOA</text>
</a>
</g>
</g>
<!-- Node2 -->
<g id="node2" class="node">
<title>Node2</title>
<g id="a_node2"><a xlink:title=" ">
<polygon fill="none" stroke="#bfbfbf" points="0,-89.5 0,-108.5 38,-108.5 38,-89.5 0,-89.5"/>
<text text-anchor="middle" x="19" y="-96.5" font-family="Helvetica,sans-Serif" font-size="10.00">char</text>
</a>
</g>
</g>
<!-- Node2&#45;&gt;Node1 -->
<g id="edge1" class="edge">
<title>Node2&#45;&gt;Node1</title>
<path fill="none" stroke="#9a32cd" stroke-dasharray="5,2" d="M18.68,-79.13C19.47,-66.01 22.67,-48.96 33,-38 43.17,-27.21 57.44,-20.67 71.67,-16.72"/>
<polygon fill="#9a32cd" stroke="#9a32cd" points="15.17,-79.35 18.49,-89.41 22.17,-79.48 15.17,-79.35"/>
<text text-anchor="middle" x="60" y="-63" font-family="Helvetica,sans-Serif" font-size="10.00"> szHelpFile</text>
<text text-anchor="middle" x="60" y="-52" font-family="Helvetica,sans-Serif" font-size="10.00">szName</text>
<text text-anchor="middle" x="60" y="-41" font-family="Helvetica,sans-Serif" font-size="10.00">szInfo</text>
</g>
<!-- Node3 -->
<g id="node3" class="node">
<title>Node3</title>
<g id="a_node3"><a xlink:title=" ">
<polygon fill="none" stroke="#bfbfbf" points="72,-89.5 72,-108.5 110,-108.5 110,-89.5 72,-89.5"/>
<text text-anchor="middle" x="91" y="-96.5" font-family="Helvetica,sans-Serif" font-size="10.00">long</text>
</a>
</g>
</g>
<!-- Node3&#45;&gt;Node1 -->
<g id="edge2" class="edge">
<title>Node3&#45;&gt;Node1</title>
<path fill="none" stroke="#9a32cd" stroke-dasharray="5,2" d="M90.63,-79.03C91.07,-66.79 92.97,-50.83 99,-38 102.32,-30.95 108.15,-24.49 113.35,-19.65"/>
<polygon fill="#9a32cd" stroke="#9a32cd" points="87.12,-79.38 90.56,-89.4 94.12,-79.42 87.12,-79.38"/>
<text text-anchor="middle" x="114" y="-52" font-family="Helvetica,sans-Serif" font-size="10.00"> lData</text>
</g>
<!-- Node4 -->
<g id="node4" class="node">
<title>Node4</title>
<g id="a_node4"><a xlink:title=" ">
<polygon fill="none" stroke="#bfbfbf" points="128.5,-89.5 128.5,-108.5 177.5,-108.5 177.5,-89.5 128.5,-89.5"/>
<text text-anchor="middle" x="153" y="-96.5" font-family="Helvetica,sans-Serif" font-size="10.00">HICON</text>
</a>
</g>
</g>
<!-- Node4&#45;&gt;Node1 -->
<g id="edge3" class="edge">
<title>Node4&#45;&gt;Node1</title>
<path fill="none" stroke="#9a32cd" stroke-dasharray="5,2" d="M146.9,-79.71C140.75,-61.25 131.51,-33.54 126.87,-19.62"/>
<polygon fill="#9a32cd" stroke="#9a32cd" points="143.63,-80.96 150.11,-89.34 150.27,-78.75 143.63,-80.96"/>
<text text-anchor="middle" x="158" y="-52" font-family="Helvetica,sans-Serif" font-size="10.00"> hIcon</text>
</g>
<!-- Node5 -->
<g id="node5" class="node">
<title>Node5</title>
<g id="a_node5"><a xlink:title=" ">
<polygon fill="none" stroke="#bfbfbf" points="195.5,-89.5 195.5,-108.5 256.5,-108.5 256.5,-89.5 195.5,-89.5"/>
<text text-anchor="middle" x="226" y="-96.5" font-family="Helvetica,sans-Serif" font-size="10.00">unsigned</text>
</a>
</g>
</g>
<!-- Node5&#45;&gt;Node1 -->
<g id="edge4" class="edge">
<title>Node5&#45;&gt;Node1</title>
<path fill="none" stroke="#9a32cd" stroke-dasharray="5,2" d="M214.89,-80.8C205.86,-67.83 192.16,-50.23 177,-38 167.59,-30.42 155.72,-24.12 145.59,-19.53"/>
<polygon fill="#9a32cd" stroke="#9a32cd" points="212.11,-82.95 220.59,-89.29 217.92,-79.04 212.11,-82.95"/>
<text text-anchor="middle" x="245" y="-63" font-family="Helvetica,sans-Serif" font-size="10.00"> dwSize</text>
<text text-anchor="middle" x="245" y="-52" font-family="Helvetica,sans-Serif" font-size="10.00">dwFlags</text>
<text text-anchor="middle" x="245" y="-41" font-family="Helvetica,sans-Serif" font-size="10.00">dwHelpContext</text>
</g>
</g>
</svg>
