<?xml version="1.0" encoding="UTF-8" standalone="no"?>
<!DOCTYPE svg PUBLIC "-//W3C//DTD SVG 1.1//EN"
 "http://www.w3.org/Graphics/SVG/1.1/DTD/svg11.dtd">
<!-- Generated by graphviz version 2.43.0 (0)
 -->
<!-- Title: smiVENDORINFO Pages: 1 -->
<svg width="226pt" height="128pt"
 viewBox="0.00 0.00 226.00 128.00" xmlns="http://www.w3.org/2000/svg" xmlns:xlink="http://www.w3.org/1999/xlink">
<g id="graph0" class="graph" transform="scale(1 1) rotate(0) translate(4 124)">
<title>smiVENDORINFO</title>
<!-- Node1 -->
<g id="node1" class="node">
<title>Node1</title>
<g id="a_node1"><a xlink:title=" ">
<polygon fill="#bfbfbf" stroke="black" points="26.5,-0.5 26.5,-19.5 127.5,-19.5 127.5,-0.5 26.5,-0.5"/>
<text text-anchor="middle" x="77" y="-7.5" font-family="Helvetica,sans-Serif" font-size="10.00">smiVENDORINFO</text>
</a>
</g>
</g>
<!-- Node2 -->
<g id="node2" class="node">
<title>Node2</title>
<g id="a_node2"><a xlink:title=" ">
<polygon fill="none" stroke="#bfbfbf" points="0,-100.5 0,-119.5 38,-119.5 38,-100.5 0,-100.5"/>
<text text-anchor="middle" x="19" y="-107.5" font-family="Helvetica,sans-Serif" font-size="10.00">char</text>
</a>
</g>
</g>
<!-- Node2&#45;&gt;Node1 -->
<g id="edge1" class="edge">
<title>Node2&#45;&gt;Node1</title>
<path fill="none" stroke="#9a32cd" stroke-dasharray="5,2" d="M14.21,-90.46C11.37,-75.16 10.02,-53.52 20,-38 25.45,-29.53 34.34,-23.66 43.5,-19.61"/>
<polygon fill="#9a32cd" stroke="#9a32cd" points="10.81,-91.3 16.4,-100.3 17.65,-89.78 10.81,-91.3"/>
<text text-anchor="middle" x="67" y="-74" font-family="Helvetica,sans-Serif" font-size="10.00"> vendorVersionId</text>
<text text-anchor="middle" x="67" y="-63" font-family="Helvetica,sans-Serif" font-size="10.00">vendorContact</text>
<text text-anchor="middle" x="67" y="-52" font-family="Helvetica,sans-Serif" font-size="10.00">vendorName</text>
<text text-anchor="middle" x="67" y="-41" font-family="Helvetica,sans-Serif" font-size="10.00">vendorVersionDate</text>
</g>
<!-- Node3 -->
<g id="node3" class="node">
<title>Node3</title>
<g id="a_node3"><a xlink:title=" ">
<polygon fill="none" stroke="#bfbfbf" points="121.5,-100.5 121.5,-119.5 150.5,-119.5 150.5,-100.5 121.5,-100.5"/>
<text text-anchor="middle" x="136" y="-107.5" font-family="Helvetica,sans-Serif" font-size="10.00">int</text>
</a>
</g>
</g>
<!-- Node3&#45;&gt;Node1 -->
<g id="edge2" class="edge">
<title>Node3&#45;&gt;Node1</title>
<path fill="none" stroke="#9a32cd" stroke-dasharray="5,2" d="M133.5,-90.12C130.74,-74.9 125.12,-53.56 114,-38 108.64,-30.49 100.54,-24.25 93.28,-19.66"/>
<polygon fill="#9a32cd" stroke="#9a32cd" points="130.1,-91.02 135.09,-100.36 137.01,-89.94 130.1,-91.02"/>
<text text-anchor="middle" x="174.5" y="-57.5" font-family="Helvetica,sans-Serif" font-size="10.00"> vendorEnterprise</text>
</g>
</g>
</svg>
