<?xml version="1.0" encoding="UTF-8" standalone="no"?>
<!DOCTYPE svg PUBLIC "-//W3C//DTD SVG 1.1//EN"
 "http://www.w3.org/Graphics/SVG/1.1/DTD/svg11.dtd">
<!-- Generated by graphviz version 2.43.0 (0)
 -->
<!-- Title: Tools/MinGW/include/c++/4.6.1/ext/pb_ds/detail/left_child_next_sibling_heap_/insert_fn_imps.hpp Pages: 1 -->
<svg width="514pt" height="595pt"
 viewBox="0.00 0.00 514.00 595.00" xmlns="http://www.w3.org/2000/svg" xmlns:xlink="http://www.w3.org/1999/xlink">
<g id="graph0" class="graph" transform="scale(1 1) rotate(0) translate(4 591)">
<title>Tools/MinGW/include/c++/4.6.1/ext/pb_ds/detail/left_child_next_sibling_heap_/insert_fn_imps.hpp</title>
<!-- Node1 -->
<g id="node1" class="node">
<title>Node1</title>
<g id="a_node1"><a xlink:title=" ">
<polygon fill="#bfbfbf" stroke="black" points="285.5,-523.5 285.5,-586.5 419.5,-586.5 419.5,-523.5 285.5,-523.5"/>
<text text-anchor="start" x="293.5" y="-574.5" font-family="Helvetica,sans-Serif" font-size="10.00">Tools/MinGW/include</text>
<text text-anchor="start" x="293.5" y="-563.5" font-family="Helvetica,sans-Serif" font-size="10.00">/c++/4.6.1/ext/pb_ds</text>
<text text-anchor="start" x="293.5" y="-552.5" font-family="Helvetica,sans-Serif" font-size="10.00">/detail/left_child_next</text>
<text text-anchor="start" x="293.5" y="-541.5" font-family="Helvetica,sans-Serif" font-size="10.00">_sibling_heap_/insert_fn</text>
<text text-anchor="middle" x="352.5" y="-530.5" font-family="Helvetica,sans-Serif" font-size="10.00">_imps.hpp</text>
</a>
</g>
</g>
<!-- Node2 -->
<g id="node2" class="node">
<title>Node2</title>
<g id="a_node2"><a xlink:href="../../d6/d08/left__child__next__sibling__heap___8hpp.html" target="_top" xlink:title=" ">
<polygon fill="none" stroke="black" points="284,-423.5 284,-486.5 421,-486.5 421,-423.5 284,-423.5"/>
<text text-anchor="start" x="292" y="-474.5" font-family="Helvetica,sans-Serif" font-size="10.00">Tools/MinGW/include</text>
<text text-anchor="start" x="292" y="-463.5" font-family="Helvetica,sans-Serif" font-size="10.00">/c++/4.6.1/ext/pb_ds</text>
<text text-anchor="start" x="292" y="-452.5" font-family="Helvetica,sans-Serif" font-size="10.00">/detail/left_child_next</text>
<text text-anchor="start" x="292" y="-441.5" font-family="Helvetica,sans-Serif" font-size="10.00">_sibling_heap_/left_child</text>
<text text-anchor="middle" x="352.5" y="-430.5" font-family="Helvetica,sans-Serif" font-size="10.00">_next_sibling_heap_.hpp</text>
</a>
</g>
</g>
<!-- Node1&#45;&gt;Node2 -->
<g id="edge1" class="edge">
<title>Node1&#45;&gt;Node2</title>
<path fill="none" stroke="midnightblue" d="M352.5,-513.1C352.5,-504.24 352.5,-495.01 352.5,-486.63"/>
<polygon fill="midnightblue" stroke="midnightblue" points="349,-513.26 352.5,-523.26 356,-513.26 349,-513.26"/>
</g>
<!-- Node3 -->
<g id="node3" class="node">
<title>Node3</title>
<g id="a_node3"><a xlink:href="../../d5/da0/binomial__heap__base___8hpp.html" target="_top" xlink:title=" ">
<polygon fill="none" stroke="black" points="119.5,-334.5 119.5,-386.5 299.5,-386.5 299.5,-334.5 119.5,-334.5"/>
<text text-anchor="start" x="127.5" y="-374.5" font-family="Helvetica,sans-Serif" font-size="10.00">Tools/MinGW/include</text>
<text text-anchor="start" x="127.5" y="-363.5" font-family="Helvetica,sans-Serif" font-size="10.00">/c++/4.6.1/ext/pb_ds</text>
<text text-anchor="start" x="127.5" y="-352.5" font-family="Helvetica,sans-Serif" font-size="10.00">/detail/binomial_heap</text>
<text text-anchor="middle" x="209.5" y="-341.5" font-family="Helvetica,sans-Serif" font-size="10.00">_base_/binomial_heap_base_.hpp</text>
</a>
</g>
</g>
<!-- Node2&#45;&gt;Node3 -->
<g id="edge2" class="edge">
<title>Node2&#45;&gt;Node3</title>
<path fill="none" stroke="midnightblue" d="M296.51,-417.78C280.47,-407.41 263.34,-396.33 248.56,-386.77"/>
<polygon fill="midnightblue" stroke="midnightblue" points="294.98,-420.96 305.28,-423.46 298.78,-415.09 294.98,-420.96"/>
</g>
<!-- Node9 -->
<g id="node9" class="node">
<title>Node9</title>
<g id="a_node9"><a xlink:href="../../db/ddd/pairing__heap___8hpp.html" target="_top" xlink:title=" ">
<polygon fill="none" stroke="black" points="296,-245.5 296,-297.5 415,-297.5 415,-245.5 296,-245.5"/>
<text text-anchor="start" x="304" y="-285.5" font-family="Helvetica,sans-Serif" font-size="10.00">Tools/MinGW/include</text>
<text text-anchor="start" x="304" y="-274.5" font-family="Helvetica,sans-Serif" font-size="10.00">/c++/4.6.1/ext/pb_ds</text>
<text text-anchor="start" x="304" y="-263.5" font-family="Helvetica,sans-Serif" font-size="10.00">/detail/pairing_heap</text>
<text text-anchor="middle" x="355.5" y="-252.5" font-family="Helvetica,sans-Serif" font-size="10.00">_/pairing_heap_.hpp</text>
</a>
</g>
</g>
<!-- Node2&#45;&gt;Node9 -->
<g id="edge9" class="edge">
<title>Node2&#45;&gt;Node9</title>
<path fill="none" stroke="midnightblue" d="M353.17,-413.17C353.76,-377.69 354.59,-327.44 355.09,-297.58"/>
<polygon fill="midnightblue" stroke="midnightblue" points="349.67,-413.15 353.01,-423.21 356.67,-413.27 349.67,-413.15"/>
</g>
<!-- Node10 -->
<g id="node10" class="node">
<title>Node10</title>
<g id="a_node10"><a xlink:href="../../d3/d83/thin__heap___8hpp.html" target="_top" xlink:title=" ">
<polygon fill="none" stroke="black" points="381,-334.5 381,-386.5 506,-386.5 506,-334.5 381,-334.5"/>
<text text-anchor="start" x="389" y="-374.5" font-family="Helvetica,sans-Serif" font-size="10.00">Tools/MinGW/include</text>
<text text-anchor="start" x="389" y="-363.5" font-family="Helvetica,sans-Serif" font-size="10.00">/c++/4.6.1/ext/pb_ds</text>
<text text-anchor="start" x="389" y="-352.5" font-family="Helvetica,sans-Serif" font-size="10.00">/detail/thin_heap_/thin</text>
<text text-anchor="middle" x="443.5" y="-341.5" font-family="Helvetica,sans-Serif" font-size="10.00">_heap_.hpp</text>
</a>
</g>
</g>
<!-- Node2&#45;&gt;Node10 -->
<g id="edge11" class="edge">
<title>Node2&#45;&gt;Node10</title>
<path fill="none" stroke="midnightblue" d="M389.84,-416.04C399.54,-406.18 409.76,-395.8 418.64,-386.77"/>
<polygon fill="midnightblue" stroke="midnightblue" points="387.07,-413.87 382.55,-423.46 392.06,-418.78 387.07,-413.87"/>
</g>
<!-- Node4 -->
<g id="node4" class="node">
<title>Node4</title>
<g id="a_node4"><a xlink:href="../../d4/d24/binomial__heap___8hpp.html" target="_top" xlink:title=" ">
<polygon fill="none" stroke="black" points="0,-245.5 0,-297.5 123,-297.5 123,-245.5 0,-245.5"/>
<text text-anchor="start" x="8" y="-285.5" font-family="Helvetica,sans-Serif" font-size="10.00">Tools/MinGW/include</text>
<text text-anchor="start" x="8" y="-274.5" font-family="Helvetica,sans-Serif" font-size="10.00">/c++/4.6.1/ext/pb_ds</text>
<text text-anchor="start" x="8" y="-263.5" font-family="Helvetica,sans-Serif" font-size="10.00">/detail/binomial_heap</text>
<text text-anchor="middle" x="61.5" y="-252.5" font-family="Helvetica,sans-Serif" font-size="10.00">_/binomial_heap_.hpp</text>
</a>
</g>
</g>
<!-- Node3&#45;&gt;Node4 -->
<g id="edge3" class="edge">
<title>Node3&#45;&gt;Node4</title>
<path fill="none" stroke="midnightblue" d="M157.73,-329.07C140.24,-318.79 120.92,-307.43 104.21,-297.61"/>
<polygon fill="midnightblue" stroke="midnightblue" points="156.3,-332.29 166.69,-334.34 159.85,-326.25 156.3,-332.29"/>
</g>
<!-- Node8 -->
<g id="node8" class="node">
<title>Node8</title>
<g id="a_node8"><a xlink:href="../../d2/d26/rc__binomial__heap___8hpp.html" target="_top" xlink:title=" ">
<polygon fill="none" stroke="black" points="141,-245.5 141,-297.5 278,-297.5 278,-245.5 141,-245.5"/>
<text text-anchor="start" x="149" y="-285.5" font-family="Helvetica,sans-Serif" font-size="10.00">Tools/MinGW/include</text>
<text text-anchor="start" x="149" y="-274.5" font-family="Helvetica,sans-Serif" font-size="10.00">/c++/4.6.1/ext/pb_ds</text>
<text text-anchor="start" x="149" y="-263.5" font-family="Helvetica,sans-Serif" font-size="10.00">/detail/rc_binomial_heap</text>
<text text-anchor="middle" x="209.5" y="-252.5" font-family="Helvetica,sans-Serif" font-size="10.00">_/rc_binomial_heap_.hpp</text>
</a>
</g>
</g>
<!-- Node3&#45;&gt;Node8 -->
<g id="edge7" class="edge">
<title>Node3&#45;&gt;Node8</title>
<path fill="none" stroke="midnightblue" d="M209.5,-324.19C209.5,-315.28 209.5,-305.9 209.5,-297.61"/>
<polygon fill="midnightblue" stroke="midnightblue" points="206,-324.34 209.5,-334.34 213,-324.34 206,-324.34"/>
</g>
<!-- Node5 -->
<g id="node5" class="node">
<title>Node5</title>
<g id="a_node5"><a xlink:href="../../d7/d99/priority__queue__base__dispatch_8hpp.html" target="_top" xlink:title=" ">
<polygon fill="none" stroke="black" points="222,-156.5 222,-208.5 343,-208.5 343,-156.5 222,-156.5"/>
<text text-anchor="start" x="230" y="-196.5" font-family="Helvetica,sans-Serif" font-size="10.00">Tools/MinGW/include</text>
<text text-anchor="start" x="230" y="-185.5" font-family="Helvetica,sans-Serif" font-size="10.00">/c++/4.6.1/ext/pb_ds</text>
<text text-anchor="start" x="230" y="-174.5" font-family="Helvetica,sans-Serif" font-size="10.00">/detail/priority_queue</text>
<text text-anchor="middle" x="282.5" y="-163.5" font-family="Helvetica,sans-Serif" font-size="10.00">_base_dispatch.hpp</text>
</a>
</g>
</g>
<!-- Node4&#45;&gt;Node5 -->
<g id="edge4" class="edge">
<title>Node4&#45;&gt;Node5</title>
<path fill="none" stroke="midnightblue" d="M132.62,-242.5C161.32,-231.21 194.09,-218.31 221.65,-207.45"/>
<polygon fill="midnightblue" stroke="midnightblue" points="131.08,-239.35 123.06,-246.27 133.65,-245.86 131.08,-239.35"/>
</g>
<!-- Node6 -->
<g id="node6" class="node">
<title>Node6</title>
<g id="a_node6"><a xlink:href="../../d7/d3c/priority__queue_8hpp.html" target="_top" xlink:title=" ">
<polygon fill="none" stroke="black" points="223,-78.5 223,-119.5 342,-119.5 342,-78.5 223,-78.5"/>
<text text-anchor="start" x="231" y="-107.5" font-family="Helvetica,sans-Serif" font-size="10.00">Tools/MinGW/include</text>
<text text-anchor="start" x="231" y="-96.5" font-family="Helvetica,sans-Serif" font-size="10.00">/c++/4.6.1/ext/pb_ds</text>
<text text-anchor="middle" x="282.5" y="-85.5" font-family="Helvetica,sans-Serif" font-size="10.00">/priority_queue.hpp</text>
</a>
</g>
</g>
<!-- Node5&#45;&gt;Node6 -->
<g id="edge5" class="edge">
<title>Node5&#45;&gt;Node6</title>
<path fill="none" stroke="midnightblue" d="M282.5,-146.15C282.5,-137.05 282.5,-127.6 282.5,-119.63"/>
<polygon fill="midnightblue" stroke="midnightblue" points="279,-146.16 282.5,-156.16 286,-146.16 279,-146.16"/>
</g>
<!-- Node7 -->
<g id="node7" class="node">
<title>Node7</title>
<g id="a_node7"><a xlink:href="../../db/dad/extc_09_09_8h.html" target="_top" xlink:title=" ">
<polygon fill="none" stroke="black" points="204.5,-0.5 204.5,-41.5 360.5,-41.5 360.5,-0.5 204.5,-0.5"/>
<text text-anchor="start" x="212.5" y="-29.5" font-family="Helvetica,sans-Serif" font-size="10.00">Tools/MinGW/include</text>
<text text-anchor="start" x="212.5" y="-18.5" font-family="Helvetica,sans-Serif" font-size="10.00">/c++/4.6.1/i686&#45;pc&#45;mingw32</text>
<text text-anchor="middle" x="282.5" y="-7.5" font-family="Helvetica,sans-Serif" font-size="10.00">/bits/extc++.h</text>
</a>
</g>
</g>
<!-- Node6&#45;&gt;Node7 -->
<g id="edge6" class="edge">
<title>Node6&#45;&gt;Node7</title>
<path fill="none" stroke="midnightblue" d="M282.5,-68.3C282.5,-59.3 282.5,-49.65 282.5,-41.51"/>
<polygon fill="midnightblue" stroke="midnightblue" points="279,-68.43 282.5,-78.43 286,-68.43 279,-68.43"/>
</g>
<!-- Node8&#45;&gt;Node5 -->
<g id="edge8" class="edge">
<title>Node8&#45;&gt;Node5</title>
<path fill="none" stroke="midnightblue" d="M237.19,-237.5C245.23,-227.92 253.87,-217.62 261.43,-208.61"/>
<polygon fill="midnightblue" stroke="midnightblue" points="234.36,-235.43 230.61,-245.34 239.72,-239.93 234.36,-235.43"/>
</g>
<!-- Node9&#45;&gt;Node5 -->
<g id="edge10" class="edge">
<title>Node9&#45;&gt;Node5</title>
<path fill="none" stroke="midnightblue" d="M327.81,-237.5C319.77,-227.92 311.13,-217.62 303.57,-208.61"/>
<polygon fill="midnightblue" stroke="midnightblue" points="325.28,-239.93 334.39,-245.34 330.64,-235.43 325.28,-239.93"/>
</g>
<!-- Node10&#45;&gt;Node5 -->
<g id="edge12" class="edge">
<title>Node10&#45;&gt;Node5</title>
<path fill="none" stroke="midnightblue" d="M446.03,-324.43C445.97,-299.79 441.98,-267.37 424.5,-245 404.65,-219.6 372.21,-204.5 343.34,-195.62"/>
<polygon fill="midnightblue" stroke="midnightblue" points="442.53,-324.4 445.84,-334.46 449.53,-324.53 442.53,-324.4"/>
</g>
</g>
</svg>
