<?xml version="1.0" encoding="UTF-8" standalone="no"?>
<!DOCTYPE svg PUBLIC "-//W3C//DTD SVG 1.1//EN"
 "http://www.w3.org/Graphics/SVG/1.1/DTD/svg11.dtd">
<!-- Generated by graphviz version 2.43.0 (0)
 -->
<!-- Title: Tools/MinGW/include/c++/4.6.1/i686&#45;pc&#45;mingw32/bits/error_constants.h Pages: 1 -->
<svg width="239pt" height="162pt"
 viewBox="0.00 0.00 239.00 162.00" xmlns="http://www.w3.org/2000/svg" xmlns:xlink="http://www.w3.org/1999/xlink">
<g id="graph0" class="graph" transform="scale(1 1) rotate(0) translate(4 158)">
<title>Tools/MinGW/include/c++/4.6.1/i686&#45;pc&#45;mingw32/bits/error_constants.h</title>
<!-- Node1 -->
<g id="node1" class="node">
<title>Node1</title>
<g id="a_node1"><a xlink:title=" ">
<polygon fill="#bfbfbf" stroke="black" points="75,-112.5 75,-153.5 231,-153.5 231,-112.5 75,-112.5"/>
<text text-anchor="start" x="83" y="-141.5" font-family="Helvetica,sans-Serif" font-size="10.00">Tools/MinGW/include</text>
<text text-anchor="start" x="83" y="-130.5" font-family="Helvetica,sans-Serif" font-size="10.00">/c++/4.6.1/i686&#45;pc&#45;mingw32</text>
<text text-anchor="middle" x="153" y="-119.5" font-family="Helvetica,sans-Serif" font-size="10.00">/bits/error_constants.h</text>
</a>
</g>
</g>
<!-- Node2 -->
<g id="node2" class="node">
<title>Node2</title>
<g id="a_node2"><a xlink:href="../../d1/db9/c_09_09config_8h.html" target="_top" xlink:title=" ">
<polygon fill="none" stroke="black" points="59,-56.5 59,-75.5 157,-75.5 157,-56.5 59,-56.5"/>
<text text-anchor="middle" x="108" y="-63.5" font-family="Helvetica,sans-Serif" font-size="10.00">bits/c++config.h</text>
</a>
</g>
</g>
<!-- Node1&#45;&gt;Node2 -->
<g id="edge1" class="edge">
<title>Node1&#45;&gt;Node2</title>
<path fill="none" stroke="midnightblue" d="M139.5,-112.5C133.2,-103.39 125.77,-92.66 119.71,-83.91"/>
<polygon fill="midnightblue" stroke="midnightblue" points="122.56,-81.88 113.99,-75.65 116.8,-85.87 122.56,-81.88"/>
</g>
<!-- Node5 -->
<g id="node5" class="node">
<title>Node5</title>
<g id="a_node5"><a xlink:title=" ">
<polygon fill="none" stroke="#bfbfbf" points="175.5,-56.5 175.5,-75.5 222.5,-75.5 222.5,-56.5 175.5,-56.5"/>
<text text-anchor="middle" x="199" y="-63.5" font-family="Helvetica,sans-Serif" font-size="10.00">cerrno</text>
</a>
</g>
</g>
<!-- Node1&#45;&gt;Node5 -->
<g id="edge4" class="edge">
<title>Node1&#45;&gt;Node5</title>
<path fill="none" stroke="midnightblue" d="M166.8,-112.5C173.24,-103.39 180.84,-92.66 187.03,-83.91"/>
<polygon fill="midnightblue" stroke="midnightblue" points="189.96,-85.84 192.88,-75.65 184.24,-81.79 189.96,-85.84"/>
</g>
<!-- Node3 -->
<g id="node3" class="node">
<title>Node3</title>
<g id="a_node3"><a xlink:href="../../d5/d0b/os__defines_8h.html" target="_top" xlink:title=" ">
<polygon fill="none" stroke="black" points="0,-0.5 0,-19.5 98,-19.5 98,-0.5 0,-0.5"/>
<text text-anchor="middle" x="49" y="-7.5" font-family="Helvetica,sans-Serif" font-size="10.00">bits/os_defines.h</text>
</a>
</g>
</g>
<!-- Node2&#45;&gt;Node3 -->
<g id="edge2" class="edge">
<title>Node2&#45;&gt;Node3</title>
<path fill="none" stroke="midnightblue" d="M98.52,-56.32C89.8,-48.34 76.66,-36.31 66.1,-26.65"/>
<polygon fill="midnightblue" stroke="midnightblue" points="68.39,-24 58.65,-19.83 63.67,-29.17 68.39,-24"/>
</g>
<!-- Node4 -->
<g id="node4" class="node">
<title>Node4</title>
<g id="a_node4"><a xlink:href="../../d0/d75/cpu__defines_8h.html" target="_top" xlink:title=" ">
<polygon fill="none" stroke="black" points="116,-0.5 116,-19.5 220,-19.5 220,-0.5 116,-0.5"/>
<text text-anchor="middle" x="168" y="-7.5" font-family="Helvetica,sans-Serif" font-size="10.00">bits/cpu_defines.h</text>
</a>
</g>
</g>
<!-- Node2&#45;&gt;Node4 -->
<g id="edge3" class="edge">
<title>Node2&#45;&gt;Node4</title>
<path fill="none" stroke="midnightblue" d="M117.64,-56.32C126.51,-48.34 139.87,-36.31 150.61,-26.65"/>
<polygon fill="midnightblue" stroke="midnightblue" points="153.09,-29.13 158.18,-19.83 148.41,-23.92 153.09,-29.13"/>
</g>
</g>
</svg>
