<?xml version="1.0" encoding="UTF-8" standalone="no"?>
<!DOCTYPE svg PUBLIC "-//W3C//DTD SVG 1.1//EN"
 "http://www.w3.org/Graphics/SVG/1.1/DTD/svg11.dtd">
<!-- Generated by graphviz version 2.43.0 (0)
 -->
<!-- Title: PGET_DMA_ADAPTER Pages: 1 -->
<svg width="234pt" height="106pt"
 viewBox="0.00 0.00 233.50 106.00" xmlns="http://www.w3.org/2000/svg" xmlns:xlink="http://www.w3.org/1999/xlink">
<g id="graph0" class="graph" transform="scale(1 1) rotate(0) translate(4 102)">
<title>PGET_DMA_ADAPTER</title>
<!-- Node1 -->
<g id="node1" class="node">
<title>Node1</title>
<g id="a_node1"><a xlink:title=" ">
<polygon fill="#bfbfbf" stroke="black" points="73,-0.5 73,-19.5 195,-19.5 195,-0.5 73,-0.5"/>
<text text-anchor="middle" x="134" y="-7.5" font-family="Helvetica,sans-Serif" font-size="10.00">PGET_DMA_ADAPTER</text>
</a>
</g>
</g>
<!-- Node2 -->
<g id="node2" class="node">
<title>Node2</title>
<g id="a_node2"><a xlink:title=" ">
<polygon fill="none" stroke="#bfbfbf" points="0,-78.5 0,-97.5 146,-97.5 146,-78.5 0,-78.5"/>
<text text-anchor="middle" x="73" y="-85.5" font-family="Helvetica,sans-Serif" font-size="10.00">struct DMA_OPERATIONS *</text>
</a>
</g>
</g>
<!-- Node2&#45;&gt;Node1 -->
<g id="edge1" class="edge">
<title>Node2&#45;&gt;Node1</title>
<path fill="none" stroke="#9a32cd" stroke-dasharray="5,2" d="M77.63,-68.57C80.78,-58.73 85.72,-46.86 93,-38 99.28,-30.36 108.28,-24.1 116.26,-19.54"/>
<polygon fill="#9a32cd" stroke="#9a32cd" points="74.26,-67.64 74.9,-78.21 81,-69.55 74.26,-67.64"/>
<text text-anchor="middle" x="133" y="-46.5" font-family="Helvetica,sans-Serif" font-size="10.00"> DmaOperations</text>
</g>
<!-- Node3 -->
<g id="node3" class="node">
<title>Node3</title>
<g id="a_node3"><a xlink:title=" ">
<polygon fill="none" stroke="#bfbfbf" points="164.5,-78.5 164.5,-97.5 225.5,-97.5 225.5,-78.5 164.5,-78.5"/>
<text text-anchor="middle" x="195" y="-85.5" font-family="Helvetica,sans-Serif" font-size="10.00">unsigned</text>
</a>
</g>
</g>
<!-- Node3&#45;&gt;Node1 -->
<g id="edge2" class="edge">
<title>Node3&#45;&gt;Node1</title>
<path fill="none" stroke="#9a32cd" stroke-dasharray="5,2" d="M189.45,-68.64C185.86,-58.83 180.44,-46.95 173,-38 166.79,-30.53 158.02,-24.21 150.36,-19.56"/>
<polygon fill="#9a32cd" stroke="#9a32cd" points="186.17,-69.87 192.65,-78.25 192.82,-67.66 186.17,-69.87"/>
<text text-anchor="middle" x="203.5" y="-52" font-family="Helvetica,sans-Serif" font-size="10.00"> Size</text>
<text text-anchor="middle" x="203.5" y="-41" font-family="Helvetica,sans-Serif" font-size="10.00">Version</text>
</g>
</g>
</svg>
