<?xml version="1.0" encoding="UTF-8" standalone="no"?>
<!DOCTYPE svg PUBLIC "-//W3C//DTD SVG 1.1//EN"
 "http://www.w3.org/Graphics/SVG/1.1/DTD/svg11.dtd">
<!-- Generated by graphviz version 2.43.0 (0)
 -->
<!-- Title: _EXPLICIT_ACCESS_A Pages: 1 -->
<svg width="324pt" height="106pt"
 viewBox="0.00 0.00 323.50 106.00" xmlns="http://www.w3.org/2000/svg" xmlns:xlink="http://www.w3.org/1999/xlink">
<g id="graph0" class="graph" transform="scale(1 1) rotate(0) translate(4 102)">
<title>_EXPLICIT_ACCESS_A</title>
<!-- Node1 -->
<g id="node1" class="node">
<title>Node1</title>
<g id="a_node1"><a xlink:title=" ">
<polygon fill="#bfbfbf" stroke="black" points="86,-0.5 86,-19.5 206,-19.5 206,-0.5 86,-0.5"/>
<text text-anchor="middle" x="146" y="-7.5" font-family="Helvetica,sans-Serif" font-size="10.00">_EXPLICIT_ACCESS_A</text>
</a>
</g>
</g>
<!-- Node2 -->
<g id="node2" class="node">
<title>Node2</title>
<g id="a_node2"><a xlink:title=" ">
<polygon fill="none" stroke="#bfbfbf" points="0,-78.5 0,-97.5 90,-97.5 90,-78.5 0,-78.5"/>
<text text-anchor="middle" x="45" y="-85.5" font-family="Helvetica,sans-Serif" font-size="10.00">ACCESS_MODE</text>
</a>
</g>
</g>
<!-- Node2&#45;&gt;Node1 -->
<g id="edge1" class="edge">
<title>Node2&#45;&gt;Node1</title>
<path fill="none" stroke="#9a32cd" stroke-dasharray="5,2" d="M48.25,-68.13C50.91,-57.97 55.64,-45.94 64,-38 73.02,-29.43 84.81,-23.58 96.63,-19.59"/>
<polygon fill="#9a32cd" stroke="#9a32cd" points="44.78,-67.62 46.12,-78.13 51.63,-69.08 44.78,-67.62"/>
<text text-anchor="middle" x="103" y="-46.5" font-family="Helvetica,sans-Serif" font-size="10.00"> grfAccessMode</text>
</g>
<!-- Node3 -->
<g id="node3" class="node">
<title>Node3</title>
<g id="a_node3"><a xlink:title=" ">
<polygon fill="none" stroke="#bfbfbf" points="115.5,-78.5 115.5,-97.5 176.5,-97.5 176.5,-78.5 115.5,-78.5"/>
<text text-anchor="middle" x="146" y="-85.5" font-family="Helvetica,sans-Serif" font-size="10.00">unsigned</text>
</a>
</g>
</g>
<!-- Node3&#45;&gt;Node1 -->
<g id="edge2" class="edge">
<title>Node3&#45;&gt;Node1</title>
<path fill="none" stroke="#9a32cd" stroke-dasharray="5,2" d="M146,-68.22C146,-52.7 146,-31.36 146,-19.62"/>
<polygon fill="#9a32cd" stroke="#9a32cd" points="142.5,-68.28 146,-78.28 149.5,-68.28 142.5,-68.28"/>
<text text-anchor="middle" x="201" y="-52" font-family="Helvetica,sans-Serif" font-size="10.00"> grfAccessPermissions</text>
<text text-anchor="middle" x="201" y="-41" font-family="Helvetica,sans-Serif" font-size="10.00">grfInheritance</text>
</g>
<!-- Node4 -->
<g id="node4" class="node">
<title>Node4</title>
<g id="a_node4"><a xlink:title=" ">
<polygon fill="none" stroke="#bfbfbf" points="242.5,-78.5 242.5,-97.5 315.5,-97.5 315.5,-78.5 242.5,-78.5"/>
<text text-anchor="middle" x="279" y="-85.5" font-family="Helvetica,sans-Serif" font-size="10.00">TRUSTEE_A</text>
</a>
</g>
</g>
<!-- Node4&#45;&gt;Node1 -->
<g id="edge3" class="edge">
<title>Node4&#45;&gt;Node1</title>
<path fill="none" stroke="#9a32cd" stroke-dasharray="5,2" d="M274.97,-68.5C271.78,-58.1 266.26,-45.7 257,-38 242.74,-26.14 224.09,-19.35 206.16,-15.49"/>
<polygon fill="#9a32cd" stroke="#9a32cd" points="271.62,-69.53 277.51,-78.33 278.4,-67.77 271.62,-69.53"/>
<text text-anchor="middle" x="290.5" y="-46.5" font-family="Helvetica,sans-Serif" font-size="10.00"> Trustee</text>
</g>
</g>
</svg>
