<?xml version="1.0" encoding="UTF-8" standalone="no"?>
<!DOCTYPE svg PUBLIC "-//W3C//DTD SVG 1.1//EN"
 "http://www.w3.org/Graphics/SVG/1.1/DTD/svg11.dtd">
<!-- Generated by graphviz version 2.43.0 (0)
 -->
<!-- Title: _FILE_STANDARD_INFORMATION Pages: 1 -->
<svg width="497pt" height="148pt"
 viewBox="0.00 0.00 497.00 148.00" xmlns="http://www.w3.org/2000/svg" xmlns:xlink="http://www.w3.org/1999/xlink">
<g id="graph0" class="graph" transform="scale(1 1) rotate(0) translate(4 144)">
<title>_FILE_STANDARD_INFORMATION</title>
<!-- Node1 -->
<g id="node1" class="node">
<title>Node1</title>
<g id="a_node1"><a xlink:title=" ">
<polygon fill="#bfbfbf" stroke="black" points="313,-60.5 313,-79.5 489,-79.5 489,-60.5 313,-60.5"/>
<text text-anchor="middle" x="401" y="-67.5" font-family="Helvetica,sans-Serif" font-size="10.00">_FILE_STANDARD_INFORMATION</text>
</a>
</g>
</g>
<!-- Node2 -->
<g id="node2" class="node">
<title>Node2</title>
<g id="a_node2"><a xlink:title=" ">
<polygon fill="none" stroke="#bfbfbf" points="18.5,-98.5 18.5,-139.5 179.5,-139.5 179.5,-98.5 18.5,-98.5"/>
<text text-anchor="start" x="26.5" y="-127.5" font-family="Helvetica,sans-Serif" font-size="10.00">PLDAP *typedef(__cdecl</text>
<text text-anchor="start" x="26.5" y="-116.5" font-family="Helvetica,sans-Serif" font-size="10.00"> NOTIFYOFNEWCONNECTION)</text>
<text text-anchor="middle" x="99" y="-105.5" font-family="Helvetica,sans-Serif" font-size="10.00">(PLDAP</text>
</a>
</g>
</g>
<!-- Node2&#45;&gt;Node1 -->
<g id="edge1" class="edge">
<title>Node2&#45;&gt;Node1</title>
<path fill="none" stroke="#9a32cd" stroke-dasharray="5,2" d="M189.71,-110.8C222.92,-107.14 260.81,-102.22 295,-96 319.02,-91.63 345.72,-84.99 366.19,-79.52"/>
<polygon fill="#9a32cd" stroke="#9a32cd" points="189.12,-107.34 179.56,-111.9 189.88,-114.3 189.12,-107.34"/>
<text text-anchor="middle" x="255.5" y="-121" font-family="Helvetica,sans-Serif" font-size="10.00"> Directory</text>
<text text-anchor="middle" x="255.5" y="-110" font-family="Helvetica,sans-Serif" font-size="10.00">DeletePending</text>
</g>
<!-- Node3 -->
<g id="node3" class="node">
<title>Node3</title>
<g id="a_node3"><a xlink:title=" ">
<polygon fill="none" stroke="#bfbfbf" points="50,-60.5 50,-79.5 148,-79.5 148,-60.5 50,-60.5"/>
<text text-anchor="middle" x="99" y="-67.5" font-family="Helvetica,sans-Serif" font-size="10.00">LARGE_INTEGER</text>
</a>
</g>
</g>
<!-- Node3&#45;&gt;Node1 -->
<g id="edge2" class="edge">
<title>Node3&#45;&gt;Node1</title>
<path fill="none" stroke="#9a32cd" stroke-dasharray="5,2" d="M158.42,-70C202.34,-70 263.23,-70 312.89,-70"/>
<polygon fill="#9a32cd" stroke="#9a32cd" points="158.2,-66.5 148.2,-70 158.2,-73.5 158.2,-66.5"/>
<text text-anchor="middle" x="255.5" y="-84" font-family="Helvetica,sans-Serif" font-size="10.00"> EndOfFile</text>
<text text-anchor="middle" x="255.5" y="-73" font-family="Helvetica,sans-Serif" font-size="10.00">AllocationSize</text>
</g>
<!-- Node4 -->
<g id="node4" class="node">
<title>Node4</title>
<g id="a_node4"><a xlink:title=" ">
<polygon fill="none" stroke="#bfbfbf" points="0,-0.5 0,-41.5 198,-41.5 198,-0.5 0,-0.5"/>
<text text-anchor="start" x="8" y="-29.5" font-family="Helvetica,sans-Serif" font-size="10.00">PSecurityUserData *typedef</text>
<text text-anchor="start" x="8" y="-18.5" font-family="Helvetica,sans-Serif" font-size="10.00"> PSECPKG_EXTENDED_INFORMATION</text>
<text text-anchor="middle" x="99" y="-7.5" font-family="Helvetica,sans-Serif" font-size="10.00"> *typedef</text>
</a>
</g>
</g>
<!-- Node4&#45;&gt;Node1 -->
<g id="edge3" class="edge">
<title>Node4&#45;&gt;Node1</title>
<path fill="none" stroke="#9a32cd" stroke-dasharray="5,2" d="M208.32,-38.69C253.25,-46.03 303.6,-54.25 341.42,-60.43"/>
<polygon fill="#9a32cd" stroke="#9a32cd" points="208.66,-35.2 198.23,-37.04 207.54,-42.11 208.66,-35.2"/>
<text text-anchor="middle" x="255.5" y="-55" font-family="Helvetica,sans-Serif" font-size="10.00"> NumberOfLinks</text>
</g>
</g>
</svg>
