<?xml version="1.0" encoding="UTF-8" standalone="no"?>
<!DOCTYPE svg PUBLIC "-//W3C//DTD SVG 1.1//EN"
 "http://www.w3.org/Graphics/SVG/1.1/DTD/svg11.dtd">
<!-- Generated by graphviz version 2.43.0 (0)
 -->
<!-- Title: tagOLEUICHANGEICONW Pages: 1 -->
<svg width="445pt" height="405pt"
 viewBox="0.00 0.00 445.00 405.00" xmlns="http://www.w3.org/2000/svg" xmlns:xlink="http://www.w3.org/1999/xlink">
<g id="graph0" class="graph" transform="scale(1 1) rotate(0) translate(4 401)">
<title>tagOLEUICHANGEICONW</title>
<!-- Node1 -->
<g id="node1" class="node">
<title>Node1</title>
<g id="a_node1"><a xlink:title=" ">
<polygon fill="#bfbfbf" stroke="black" points="299,-194.5 299,-213.5 437,-213.5 437,-194.5 299,-194.5"/>
<text text-anchor="middle" x="368" y="-201.5" font-family="Helvetica,sans-Serif" font-size="10.00">tagOLEUICHANGEICONW</text>
</a>
</g>
</g>
<!-- Node2 -->
<g id="node2" class="node">
<title>Node2</title>
<g id="a_node2"><a xlink:title=" ">
<polygon fill="none" stroke="#bfbfbf" points="65,-377.5 65,-396.5 133,-396.5 133,-377.5 65,-377.5"/>
<text text-anchor="middle" x="99" y="-384.5" font-family="Helvetica,sans-Serif" font-size="10.00">LONG_PTR</text>
</a>
</g>
</g>
<!-- Node2&#45;&gt;Node1 -->
<g id="edge1" class="edge">
<title>Node2&#45;&gt;Node1</title>
<path fill="none" stroke="#9a32cd" stroke-dasharray="5,2" d="M143.3,-388.68C182.64,-388.09 240.53,-381.68 281,-353 331.93,-316.91 357.02,-240.44 364.52,-213.57"/>
<polygon fill="#9a32cd" stroke="#9a32cd" points="143.22,-385.18 133.23,-388.71 143.24,-392.18 143.22,-385.18"/>
<text text-anchor="middle" x="248.5" y="-383" font-family="Helvetica,sans-Serif" font-size="10.00"> lCustData</text>
</g>
<!-- Node3 -->
<g id="node3" class="node">
<title>Node3</title>
<g id="a_node3"><a xlink:title=" ">
<polygon fill="none" stroke="#bfbfbf" points="74.5,-339.5 74.5,-358.5 123.5,-358.5 123.5,-339.5 74.5,-339.5"/>
<text text-anchor="middle" x="99" y="-346.5" font-family="Helvetica,sans-Serif" font-size="10.00">HWND</text>
</a>
</g>
</g>
<!-- Node3&#45;&gt;Node1 -->
<g id="edge2" class="edge">
<title>Node3&#45;&gt;Node1</title>
<path fill="none" stroke="#9a32cd" stroke-dasharray="5,2" d="M133.71,-349.63C172.09,-348.85 235.37,-342.89 281,-315 322.81,-289.44 351.98,-235.59 362.59,-213.63"/>
<polygon fill="#9a32cd" stroke="#9a32cd" points="133.55,-346.13 123.58,-349.73 133.61,-353.13 133.55,-346.13"/>
<text text-anchor="middle" x="248.5" y="-341" font-family="Helvetica,sans-Serif" font-size="10.00"> hWndOwner</text>
</g>
<!-- Node4 -->
<g id="node4" class="node">
<title>Node4</title>
<g id="a_node4"><a xlink:title=" ">
<polygon fill="none" stroke="#bfbfbf" points="54.5,-289.5 54.5,-308.5 143.5,-308.5 143.5,-289.5 54.5,-289.5"/>
<text text-anchor="middle" x="99" y="-296.5" font-family="Helvetica,sans-Serif" font-size="10.00">unsigned short</text>
</a>
</g>
</g>
<!-- Node4&#45;&gt;Node1 -->
<g id="edge3" class="edge">
<title>Node4&#45;&gt;Node1</title>
<path fill="none" stroke="#9a32cd" stroke-dasharray="5,2" d="M153.89,-291.8C190.77,-285.62 240.19,-274.8 281,-257 308.49,-245.01 337.63,-225.39 353.94,-213.68"/>
<polygon fill="#9a32cd" stroke="#9a32cd" points="153.15,-288.38 143.84,-293.43 154.27,-295.29 153.15,-288.38"/>
<text text-anchor="middle" x="248.5" y="-303" font-family="Helvetica,sans-Serif" font-size="10.00"> szIconExe</text>
<text text-anchor="middle" x="248.5" y="-292" font-family="Helvetica,sans-Serif" font-size="10.00">lpszCaption</text>
<text text-anchor="middle" x="248.5" y="-281" font-family="Helvetica,sans-Serif" font-size="10.00">lpszTemplate</text>
</g>
<!-- Node5 -->
<g id="node5" class="node">
<title>Node5</title>
<g id="a_node5"><a xlink:title=" ">
<polygon fill="none" stroke="#bfbfbf" points="74,-251.5 74,-270.5 124,-270.5 124,-251.5 74,-251.5"/>
<text text-anchor="middle" x="99" y="-258.5" font-family="Helvetica,sans-Serif" font-size="10.00">HRSRC</text>
</a>
</g>
</g>
<!-- Node5&#45;&gt;Node1 -->
<g id="edge4" class="edge">
<title>Node5&#45;&gt;Node1</title>
<path fill="none" stroke="#9a32cd" stroke-dasharray="5,2" d="M134.3,-256.06C170.87,-250.54 230.37,-240.8 281,-229 299.78,-224.62 320.54,-218.62 336.96,-213.6"/>
<polygon fill="#9a32cd" stroke="#9a32cd" points="133.55,-252.64 124.18,-257.57 134.58,-259.56 133.55,-252.64"/>
<text text-anchor="middle" x="248.5" y="-245" font-family="Helvetica,sans-Serif" font-size="10.00"> hResource</text>
</g>
<!-- Node6 -->
<g id="node6" class="node">
<title>Node6</title>
<g id="a_node6"><a xlink:title=" ">
<polygon fill="none" stroke="#bfbfbf" points="84.5,-213.5 84.5,-232.5 113.5,-232.5 113.5,-213.5 84.5,-213.5"/>
<text text-anchor="middle" x="99" y="-220.5" font-family="Helvetica,sans-Serif" font-size="10.00">int</text>
</a>
</g>
</g>
<!-- Node6&#45;&gt;Node1 -->
<g id="edge5" class="edge">
<title>Node6&#45;&gt;Node1</title>
<path fill="none" stroke="#9a32cd" stroke-dasharray="5,2" d="M123.93,-221.3C162.91,-218.52 241.5,-212.93 298.79,-208.85"/>
<polygon fill="#9a32cd" stroke="#9a32cd" points="123.33,-217.83 113.61,-222.03 123.83,-224.81 123.33,-217.83"/>
<text text-anchor="middle" x="248.5" y="-217" font-family="Helvetica,sans-Serif" font-size="10.00"> cchIconExe</text>
</g>
<!-- Node7 -->
<g id="node7" class="node">
<title>Node7</title>
<g id="a_node7"><a xlink:title=" ">
<polygon fill="none" stroke="#bfbfbf" points="78,-175.5 78,-194.5 120,-194.5 120,-175.5 78,-175.5"/>
<text text-anchor="middle" x="99" y="-182.5" font-family="Helvetica,sans-Serif" font-size="10.00">GUID</text>
</a>
</g>
</g>
<!-- Node7&#45;&gt;Node1 -->
<g id="edge6" class="edge">
<title>Node7&#45;&gt;Node1</title>
<path fill="none" stroke="#9a32cd" stroke-dasharray="5,2" d="M130.41,-186.22C166.4,-187.78 228.12,-190.77 281,-195 286.84,-195.47 292.89,-196 298.96,-196.57"/>
<polygon fill="#9a32cd" stroke="#9a32cd" points="130.25,-182.71 120.11,-185.79 129.95,-189.71 130.25,-182.71"/>
<text text-anchor="middle" x="248.5" y="-198" font-family="Helvetica,sans-Serif" font-size="10.00"> clsid</text>
</g>
<!-- Node8 -->
<g id="node8" class="node">
<title>Node8</title>
<g id="a_node8"><a xlink:title=" ">
<polygon fill="none" stroke="#bfbfbf" points="62.5,-137.5 62.5,-156.5 135.5,-156.5 135.5,-137.5 62.5,-137.5"/>
<text text-anchor="middle" x="99" y="-144.5" font-family="Helvetica,sans-Serif" font-size="10.00">HINSTANCE</text>
</a>
</g>
</g>
<!-- Node8&#45;&gt;Node1 -->
<g id="edge7" class="edge">
<title>Node8&#45;&gt;Node1</title>
<path fill="none" stroke="#9a32cd" stroke-dasharray="5,2" d="M145.68,-151.86C182.53,-156.31 235.54,-163.91 281,-175 302.12,-180.16 325.46,-188.18 342.49,-194.48"/>
<polygon fill="#9a32cd" stroke="#9a32cd" points="146.07,-148.39 135.73,-150.69 145.25,-155.34 146.07,-148.39"/>
<text text-anchor="middle" x="248.5" y="-178" font-family="Helvetica,sans-Serif" font-size="10.00"> hInstance</text>
</g>
<!-- Node9 -->
<g id="node9" class="node">
<title>Node9</title>
<g id="a_node9"><a xlink:href="../../d2/d5f/classunsigned_01int.html" target="_top" xlink:title=" ">
<polygon fill="none" stroke="black" points="60.5,-99.5 60.5,-118.5 137.5,-118.5 137.5,-99.5 60.5,-99.5"/>
<text text-anchor="middle" x="99" y="-106.5" font-family="Helvetica,sans-Serif" font-size="10.00">unsigned int</text>
</a>
</g>
</g>
<!-- Node9&#45;&gt;Node1 -->
<g id="edge8" class="edge">
<title>Node9&#45;&gt;Node1</title>
<path fill="none" stroke="#9a32cd" stroke-dasharray="5,2" d="M147.83,-113.8C185.25,-118.79 237.98,-128.55 281,-147 309.97,-159.43 339.76,-181.71 355.54,-194.42"/>
<polygon fill="#9a32cd" stroke="#9a32cd" points="148.06,-110.31 137.7,-112.52 147.18,-117.25 148.06,-110.31"/>
<text text-anchor="middle" x="248.5" y="-150" font-family="Helvetica,sans-Serif" font-size="10.00"> lpfnHook</text>
</g>
<!-- Node10 -->
<g id="node10" class="node">
<title>Node10</title>
<g id="a_node10"><a xlink:title=" ">
<polygon fill="none" stroke="#bfbfbf" points="80,-60.5 80,-79.5 118,-79.5 118,-60.5 80,-60.5"/>
<text text-anchor="middle" x="99" y="-67.5" font-family="Helvetica,sans-Serif" font-size="10.00">long</text>
</a>
</g>
</g>
<!-- Node10&#45;&gt;Node1 -->
<g id="edge9" class="edge">
<title>Node10&#45;&gt;Node1</title>
<path fill="none" stroke="#9a32cd" stroke-dasharray="5,2" d="M128.25,-68.76C165.69,-68.38 232.63,-72.17 281,-100 321.41,-123.25 350.96,-173.2 362.12,-194.29"/>
<polygon fill="#9a32cd" stroke="#9a32cd" points="128,-65.27 118.07,-68.98 128.15,-72.27 128,-65.27"/>
<text text-anchor="middle" x="248.5" y="-114" font-family="Helvetica,sans-Serif" font-size="10.00"> dwFlags</text>
<text text-anchor="middle" x="248.5" y="-103" font-family="Helvetica,sans-Serif" font-size="10.00">cbStruct</text>
</g>
<!-- Node11 -->
<g id="node11" class="node">
<title>Node11</title>
<g id="a_node11"><a xlink:title=" ">
<polygon fill="none" stroke="#bfbfbf" points="0,-0.5 0,-41.5 198,-41.5 198,-0.5 0,-0.5"/>
<text text-anchor="start" x="8" y="-29.5" font-family="Helvetica,sans-Serif" font-size="10.00">PSecurityUserData *typedef</text>
<text text-anchor="start" x="8" y="-18.5" font-family="Helvetica,sans-Serif" font-size="10.00"> PSECPKG_EXTENDED_INFORMATION</text>
<text text-anchor="middle" x="99" y="-7.5" font-family="Helvetica,sans-Serif" font-size="10.00"> *typedef</text>
</a>
</g>
</g>
<!-- Node11&#45;&gt;Node1 -->
<g id="edge10" class="edge">
<title>Node11&#45;&gt;Node1</title>
<path fill="none" stroke="#9a32cd" stroke-dasharray="5,2" d="M207.88,-30.76C233.56,-36.89 259.68,-46.63 281,-62 329.4,-96.88 355.76,-168.2 364.07,-194.22"/>
<polygon fill="#9a32cd" stroke="#9a32cd" points="208.59,-27.33 198.07,-28.58 207.07,-34.17 208.59,-27.33"/>
<text text-anchor="middle" x="248.5" y="-65" font-family="Helvetica,sans-Serif" font-size="10.00"> hMetaPict</text>
</g>
</g>
</svg>
