<?xml version="1.0" encoding="UTF-8" standalone="no"?>
<!DOCTYPE svg PUBLIC "-//W3C//DTD SVG 1.1//EN"
 "http://www.w3.org/Graphics/SVG/1.1/DTD/svg11.dtd">
<!-- Generated by graphviz version 2.43.0 (0)
 -->
<!-- Title: _IMAGE_THUNK_DATA32 Pages: 1 -->
<svg width="184pt" height="128pt"
 viewBox="0.00 0.00 184.00 128.00" xmlns="http://www.w3.org/2000/svg" xmlns:xlink="http://www.w3.org/1999/xlink">
<g id="graph0" class="graph" transform="scale(1 1) rotate(0) translate(4 124)">
<title>_IMAGE_THUNK_DATA32</title>
<!-- Node1 -->
<g id="node1" class="node">
<title>Node1</title>
<g id="a_node1"><a xlink:title=" ">
<polygon fill="#bfbfbf" stroke="black" points="12,-0.5 12,-19.5 149,-19.5 149,-0.5 12,-0.5"/>
<text text-anchor="middle" x="80.5" y="-7.5" font-family="Helvetica,sans-Serif" font-size="10.00">_IMAGE_THUNK_DATA32</text>
</a>
</g>
</g>
<!-- Node2 -->
<g id="node2" class="node">
<title>Node2</title>
<g id="a_node2"><a xlink:title=" ">
<polygon fill="none" stroke="#bfbfbf" points="0,-100.5 0,-119.5 61,-119.5 61,-100.5 0,-100.5"/>
<text text-anchor="middle" x="30.5" y="-107.5" font-family="Helvetica,sans-Serif" font-size="10.00">unsigned</text>
</a>
</g>
</g>
<!-- Node2&#45;&gt;Node1 -->
<g id="edge1" class="edge">
<title>Node2&#45;&gt;Node1</title>
<path fill="none" stroke="#9a32cd" stroke-dasharray="5,2" d="M25.88,-90.17C23.25,-74.99 22.1,-53.67 31.5,-38 36.5,-29.67 45.07,-23.73 53.66,-19.58"/>
<polygon fill="#9a32cd" stroke="#9a32cd" points="22.55,-91.32 28.04,-100.39 29.4,-89.88 22.55,-91.32"/>
<text text-anchor="middle" x="70.5" y="-74" font-family="Helvetica,sans-Serif" font-size="10.00"> AddressOfData</text>
<text text-anchor="middle" x="70.5" y="-63" font-family="Helvetica,sans-Serif" font-size="10.00">Ordinal</text>
<text text-anchor="middle" x="70.5" y="-52" font-family="Helvetica,sans-Serif" font-size="10.00">ForwarderString</text>
<text text-anchor="middle" x="70.5" y="-41" font-family="Helvetica,sans-Serif" font-size="10.00">Function</text>
</g>
<!-- Node3 -->
<g id="node3" class="node">
<title>Node3</title>
<g id="a_node3"><a xlink:title=" ">
<polygon fill="none" stroke="#bfbfbf" points="87,-100.5 87,-119.5 176,-119.5 176,-100.5 87,-100.5"/>
<text text-anchor="middle" x="131.5" y="-107.5" font-family="Helvetica,sans-Serif" font-size="10.00">anonymous:u1</text>
</a>
</g>
</g>
<!-- Node3&#45;&gt;Node1 -->
<g id="edge2" class="edge">
<title>Node3&#45;&gt;Node1</title>
<path fill="none" stroke="#9a32cd" stroke-dasharray="5,2" d="M128.39,-89.97C125.32,-74.98 119.56,-54.02 109.5,-38 105.04,-30.89 98.24,-24.43 92.35,-19.61"/>
<polygon fill="#9a32cd" stroke="#9a32cd" points="125,-90.88 130.25,-100.08 131.89,-89.61 125,-90.88"/>
<text text-anchor="middle" x="133.5" y="-57.5" font-family="Helvetica,sans-Serif" font-size="10.00"> u1</text>
</g>
</g>
</svg>
