<?xml version="1.0" encoding="UTF-8" standalone="no"?>
<!DOCTYPE svg PUBLIC "-//W3C//DTD SVG 1.1//EN"
 "http://www.w3.org/Graphics/SVG/1.1/DTD/svg11.dtd">
<!-- Generated by graphviz version 2.43.0 (0)
 -->
<!-- Title: symbolic_jump_t Pages: 1 -->
<svg width="382pt" height="106pt"
 viewBox="0.00 0.00 381.50 106.00" xmlns="http://www.w3.org/2000/svg" xmlns:xlink="http://www.w3.org/1999/xlink">
<g id="graph0" class="graph" transform="scale(1 1) rotate(0) translate(4 102)">
<title>symbolic_jump_t</title>
<!-- Node1 -->
<g id="node1" class="node">
<title>Node1</title>
<g id="a_node1"><a xlink:title=" ">
<polygon fill="#bfbfbf" stroke="black" points="178,-0.5 178,-19.5 278,-19.5 278,-0.5 178,-0.5"/>
<text text-anchor="middle" x="228" y="-7.5" font-family="Helvetica,sans-Serif" font-size="10.00">symbolic_jump_t</text>
</a>
</g>
</g>
<!-- Node2 -->
<g id="node2" class="node">
<title>Node2</title>
<g id="a_node2"><a xlink:title=" ">
<polygon fill="none" stroke="#bfbfbf" points="0,-78.5 0,-97.5 108,-97.5 108,-78.5 0,-78.5"/>
<text text-anchor="middle" x="54" y="-85.5" font-family="Helvetica,sans-Serif" font-size="10.00">symbolic_jump_t *</text>
</a>
</g>
</g>
<!-- Node2&#45;&gt;Node1 -->
<g id="edge1" class="edge">
<title>Node2&#45;&gt;Node1</title>
<path fill="none" stroke="#9a32cd" stroke-dasharray="5,2" d="M76.77,-73.26C94.84,-62.72 120.98,-48.28 145,-38 161.86,-30.79 181.32,-24.36 197.16,-19.59"/>
<polygon fill="#9a32cd" stroke="#9a32cd" points="74.94,-70.27 68.1,-78.37 78.5,-76.3 74.94,-70.27"/>
<text text-anchor="middle" x="170" y="-46.5" font-family="Helvetica,sans-Serif" font-size="10.00"> nextJump</text>
</g>
<!-- Node3 -->
<g id="node3" class="node">
<title>Node3</title>
<g id="a_node3"><a xlink:title=" ">
<polygon fill="none" stroke="#bfbfbf" points="126,-78.5 126,-97.5 238,-97.5 238,-78.5 126,-78.5"/>
<text text-anchor="middle" x="182" y="-85.5" font-family="Helvetica,sans-Serif" font-size="10.00">dest_instruction_t *</text>
</a>
</g>
</g>
<!-- Node3&#45;&gt;Node1 -->
<g id="edge2" class="edge">
<title>Node3&#45;&gt;Node1</title>
<path fill="none" stroke="#9a32cd" stroke-dasharray="5,2" d="M192.55,-69.57C202,-53.95 215.47,-31.7 222.78,-19.62"/>
<polygon fill="#9a32cd" stroke="#9a32cd" points="189.46,-67.91 187.28,-78.28 195.45,-71.54 189.46,-67.91"/>
<text text-anchor="middle" x="227.5" y="-46.5" font-family="Helvetica,sans-Serif" font-size="10.00"> parent</text>
</g>
<!-- Node4 -->
<g id="node4" class="node">
<title>Node4</title>
<g id="a_node4"><a xlink:title=" ">
<polygon fill="none" stroke="#bfbfbf" points="256,-78.5 256,-97.5 294,-97.5 294,-78.5 256,-78.5"/>
<text text-anchor="middle" x="275" y="-85.5" font-family="Helvetica,sans-Serif" font-size="10.00">long</text>
</a>
</g>
</g>
<!-- Node4&#45;&gt;Node1 -->
<g id="edge3" class="edge">
<title>Node4&#45;&gt;Node1</title>
<path fill="none" stroke="#9a32cd" stroke-dasharray="5,2" d="M266.49,-69.2C261.73,-59.72 255.46,-47.97 249,-38 244.87,-31.62 239.62,-24.87 235.4,-19.71"/>
<polygon fill="#9a32cd" stroke="#9a32cd" points="263.47,-70.99 271.01,-78.43 269.76,-67.91 263.47,-70.99"/>
<text text-anchor="middle" x="267.5" y="-52" font-family="Helvetica,sans-Serif" font-size="10.00"> bi</text>
<text text-anchor="middle" x="267.5" y="-41" font-family="Helvetica,sans-Serif" font-size="10.00">bo</text>
</g>
<!-- Node5 -->
<g id="node5" class="node">
<title>Node5</title>
<g id="a_node5"><a xlink:title=" ">
<polygon fill="none" stroke="#bfbfbf" points="312.5,-78.5 312.5,-97.5 373.5,-97.5 373.5,-78.5 312.5,-78.5"/>
<text text-anchor="middle" x="343" y="-85.5" font-family="Helvetica,sans-Serif" font-size="10.00">unsigned</text>
</a>
</g>
</g>
<!-- Node5&#45;&gt;Node1 -->
<g id="edge4" class="edge">
<title>Node5&#45;&gt;Node1</title>
<path fill="none" stroke="#9a32cd" stroke-dasharray="5,2" d="M324.35,-71.75C311.64,-61.66 294.23,-48.42 278,-38 267.54,-31.29 255.26,-24.64 245.49,-19.62"/>
<polygon fill="#9a32cd" stroke="#9a32cd" points="322.33,-74.62 332.32,-78.16 326.72,-69.16 322.33,-74.62"/>
<text text-anchor="middle" x="328" y="-52" font-family="Helvetica,sans-Serif" font-size="10.00"> ext</text>
<text text-anchor="middle" x="328" y="-41" font-family="Helvetica,sans-Serif" font-size="10.00">jump_to</text>
</g>
</g>
</svg>
