<?xml version="1.0" encoding="UTF-8" standalone="no"?>
<!DOCTYPE svg PUBLIC "-//W3C//DTD SVG 1.1//EN"
 "http://www.w3.org/Graphics/SVG/1.1/DTD/svg11.dtd">
<!-- Generated by graphviz version 2.43.0 (0)
 -->
<!-- Title: _PATHDATA Pages: 1 -->
<svg width="358pt" height="126pt"
 viewBox="0.00 0.00 358.00 126.00" xmlns="http://www.w3.org/2000/svg" xmlns:xlink="http://www.w3.org/1999/xlink">
<g id="graph0" class="graph" transform="scale(1 1) rotate(0) translate(4 122)">
<title>_PATHDATA</title>
<!-- Node1 -->
<g id="node1" class="node">
<title>Node1</title>
<g id="a_node1"><a xlink:title=" ">
<polygon fill="#bfbfbf" stroke="black" points="278,-60.5 278,-79.5 350,-79.5 350,-60.5 278,-60.5"/>
<text text-anchor="middle" x="314" y="-67.5" font-family="Helvetica,sans-Serif" font-size="10.00">_PATHDATA</text>
</a>
</g>
</g>
<!-- Node2 -->
<g id="node2" class="node">
<title>Node2</title>
<g id="a_node2"><a xlink:title=" ">
<polygon fill="none" stroke="#bfbfbf" points="56.5,-98.5 56.5,-117.5 141.5,-117.5 141.5,-98.5 56.5,-98.5"/>
<text text-anchor="middle" x="99" y="-105.5" font-family="Helvetica,sans-Serif" font-size="10.00">unsigned long</text>
</a>
</g>
</g>
<!-- Node2&#45;&gt;Node1 -->
<g id="edge1" class="edge">
<title>Node2&#45;&gt;Node1</title>
<path fill="none" stroke="#9a32cd" stroke-dasharray="5,2" d="M151.99,-102.3C183.44,-98.42 224.24,-92.6 260,-85 267.2,-83.47 274.87,-81.5 282.06,-79.5"/>
<polygon fill="#9a32cd" stroke="#9a32cd" points="151.21,-98.87 141.71,-103.55 152.05,-105.82 151.21,-98.87"/>
<text text-anchor="middle" x="238" y="-96" font-family="Helvetica,sans-Serif" font-size="10.00"> flags</text>
</g>
<!-- Node3 -->
<g id="node3" class="node">
<title>Node3</title>
<g id="a_node3"><a xlink:title=" ">
<polygon fill="none" stroke="#bfbfbf" points="68,-60.5 68,-79.5 130,-79.5 130,-60.5 68,-60.5"/>
<text text-anchor="middle" x="99" y="-67.5" font-family="Helvetica,sans-Serif" font-size="10.00">POINTFIX</text>
</a>
</g>
</g>
<!-- Node3&#45;&gt;Node1 -->
<g id="edge2" class="edge">
<title>Node3&#45;&gt;Node1</title>
<path fill="none" stroke="#9a32cd" stroke-dasharray="5,2" d="M140.18,-70C179.85,-70 239.92,-70 277.77,-70"/>
<polygon fill="#9a32cd" stroke="#9a32cd" points="140.07,-66.5 130.07,-70 140.07,-73.5 140.07,-66.5"/>
<text text-anchor="middle" x="238" y="-73" font-family="Helvetica,sans-Serif" font-size="10.00"> glypptfx</text>
</g>
<!-- Node4 -->
<g id="node4" class="node">
<title>Node4</title>
<g id="a_node4"><a xlink:title=" ">
<polygon fill="none" stroke="#bfbfbf" points="0,-0.5 0,-41.5 198,-41.5 198,-0.5 0,-0.5"/>
<text text-anchor="start" x="8" y="-29.5" font-family="Helvetica,sans-Serif" font-size="10.00">PSecurityUserData *typedef</text>
<text text-anchor="start" x="8" y="-18.5" font-family="Helvetica,sans-Serif" font-size="10.00"> PSECPKG_EXTENDED_INFORMATION</text>
<text text-anchor="middle" x="99" y="-7.5" font-family="Helvetica,sans-Serif" font-size="10.00"> *typedef</text>
</a>
</g>
</g>
<!-- Node4&#45;&gt;Node1 -->
<g id="edge3" class="edge">
<title>Node4&#45;&gt;Node1</title>
<path fill="none" stroke="#9a32cd" stroke-dasharray="5,2" d="M208.51,-43.04C225.77,-46.84 243.41,-50.89 260,-55 266.68,-56.65 273.8,-58.56 280.58,-60.46"/>
<polygon fill="#9a32cd" stroke="#9a32cd" points="208.91,-39.54 198.39,-40.83 207.41,-46.38 208.91,-39.54"/>
<text text-anchor="middle" x="238" y="-58" font-family="Helvetica,sans-Serif" font-size="10.00"> count</text>
</g>
</g>
</svg>
