<?xml version="1.0" encoding="UTF-8" standalone="no"?>
<!DOCTYPE svg PUBLIC "-//W3C//DTD SVG 1.1//EN"
 "http://www.w3.org/Graphics/SVG/1.1/DTD/svg11.dtd">
<!-- Generated by graphviz version 2.43.0 (0)
 -->
<!-- Title: symbolic_jump_t Pages: 1 -->
<svg width="373pt" height="106pt"
 viewBox="0.00 0.00 372.50 106.00" xmlns="http://www.w3.org/2000/svg" xmlns:xlink="http://www.w3.org/1999/xlink">
<g id="graph0" class="graph" transform="scale(1 1) rotate(0) translate(4 102)">
<title>symbolic_jump_t</title>
<!-- Node1 -->
<g id="node1" class="node">
<title>Node1</title>
<g id="a_node1"><a xlink:title=" ">
<polygon fill="#bfbfbf" stroke="black" points="176,-0.5 176,-19.5 276,-19.5 276,-0.5 176,-0.5"/>
<text text-anchor="middle" x="226" y="-7.5" font-family="Helvetica,sans-Serif" font-size="10.00">symbolic_jump_t</text>
</a>
</g>
</g>
<!-- Node2 -->
<g id="node2" class="node">
<title>Node2</title>
<g id="a_node2"><a xlink:title=" ">
<polygon fill="none" stroke="#bfbfbf" points="0,-78.5 0,-97.5 108,-97.5 108,-78.5 0,-78.5"/>
<text text-anchor="middle" x="54" y="-85.5" font-family="Helvetica,sans-Serif" font-size="10.00">symbolic_jump_t *</text>
</a>
</g>
</g>
<!-- Node2&#45;&gt;Node1 -->
<g id="edge1" class="edge">
<title>Node2&#45;&gt;Node1</title>
<path fill="none" stroke="#9a32cd" stroke-dasharray="5,2" d="M77,-72.97C94.85,-62.46 120.44,-48.19 144,-38 160.64,-30.8 179.87,-24.37 195.53,-19.6"/>
<polygon fill="#9a32cd" stroke="#9a32cd" points="74.74,-70.25 67.94,-78.38 78.32,-76.26 74.74,-70.25"/>
<text text-anchor="middle" x="169" y="-46.5" font-family="Helvetica,sans-Serif" font-size="10.00"> nextJump</text>
</g>
<!-- Node3 -->
<g id="node3" class="node">
<title>Node3</title>
<g id="a_node3"><a xlink:title=" ">
<polygon fill="none" stroke="#bfbfbf" points="126,-78.5 126,-97.5 238,-97.5 238,-78.5 126,-78.5"/>
<text text-anchor="middle" x="182" y="-85.5" font-family="Helvetica,sans-Serif" font-size="10.00">dest_instruction_t *</text>
</a>
</g>
</g>
<!-- Node3&#45;&gt;Node1 -->
<g id="edge2" class="edge">
<title>Node3&#45;&gt;Node1</title>
<path fill="none" stroke="#9a32cd" stroke-dasharray="5,2" d="M192.09,-69.57C201.14,-53.95 214.02,-31.7 221.01,-19.62"/>
<polygon fill="#9a32cd" stroke="#9a32cd" points="189.03,-67.87 187.05,-78.28 195.09,-71.38 189.03,-67.87"/>
<text text-anchor="middle" x="226.5" y="-46.5" font-family="Helvetica,sans-Serif" font-size="10.00"> parent</text>
</g>
<!-- Node4 -->
<g id="node4" class="node">
<title>Node4</title>
<g id="a_node4"><a xlink:title=" ">
<polygon fill="none" stroke="#bfbfbf" points="256.5,-78.5 256.5,-97.5 285.5,-97.5 285.5,-78.5 256.5,-78.5"/>
<text text-anchor="middle" x="271" y="-85.5" font-family="Helvetica,sans-Serif" font-size="10.00">int</text>
</a>
</g>
</g>
<!-- Node4&#45;&gt;Node1 -->
<g id="edge3" class="edge">
<title>Node4&#45;&gt;Node1</title>
<path fill="none" stroke="#9a32cd" stroke-dasharray="5,2" d="M263.85,-69.08C259.74,-59.55 254.17,-47.82 248,-38 243.88,-31.45 238.38,-24.7 233.91,-19.59"/>
<polygon fill="#9a32cd" stroke="#9a32cd" points="260.63,-70.45 267.69,-78.35 267.09,-67.77 260.63,-70.45"/>
<text text-anchor="middle" x="265.5" y="-52" font-family="Helvetica,sans-Serif" font-size="10.00"> bi</text>
<text text-anchor="middle" x="265.5" y="-41" font-family="Helvetica,sans-Serif" font-size="10.00">bo</text>
</g>
<!-- Node5 -->
<g id="node5" class="node">
<title>Node5</title>
<g id="a_node5"><a xlink:title=" ">
<polygon fill="none" stroke="#bfbfbf" points="303.5,-78.5 303.5,-97.5 364.5,-97.5 364.5,-78.5 303.5,-78.5"/>
<text text-anchor="middle" x="334" y="-85.5" font-family="Helvetica,sans-Serif" font-size="10.00">unsigned</text>
</a>
</g>
</g>
<!-- Node5&#45;&gt;Node1 -->
<g id="edge4" class="edge">
<title>Node5&#45;&gt;Node1</title>
<path fill="none" stroke="#9a32cd" stroke-dasharray="5,2" d="M317.35,-71.33C306.14,-61.19 290.76,-48.06 276,-38 265.89,-31.11 253.85,-24.56 244.11,-19.64"/>
<polygon fill="#9a32cd" stroke="#9a32cd" points="315.3,-74.2 325.03,-78.4 320.04,-69.05 315.3,-74.2"/>
<text text-anchor="middle" x="323" y="-52" font-family="Helvetica,sans-Serif" font-size="10.00"> ext</text>
<text text-anchor="middle" x="323" y="-41" font-family="Helvetica,sans-Serif" font-size="10.00">jump_to</text>
</g>
</g>
</svg>
