<?xml version="1.0" encoding="UTF-8" standalone="no"?>
<!DOCTYPE svg PUBLIC "-//W3C//DTD SVG 1.1//EN"
 "http://www.w3.org/Graphics/SVG/1.1/DTD/svg11.dtd">
<!-- Generated by graphviz version 2.43.0 (0)
 -->
<!-- Title: my_color_deconverter Pages: 1 -->
<svg width="257pt" height="106pt"
 viewBox="0.00 0.00 257.00 106.00" xmlns="http://www.w3.org/2000/svg" xmlns:xlink="http://www.w3.org/1999/xlink">
<g id="graph0" class="graph" transform="scale(1 1) rotate(0) translate(4 102)">
<title>my_color_deconverter</title>
<!-- Node1 -->
<g id="node1" class="node">
<title>Node1</title>
<g id="a_node1"><a xlink:title=" ">
<polygon fill="#bfbfbf" stroke="black" points="74,-0.5 74,-19.5 199,-19.5 199,-0.5 74,-0.5"/>
<text text-anchor="middle" x="136.5" y="-7.5" font-family="Helvetica,sans-Serif" font-size="10.00">my_color_deconverter</text>
</a>
</g>
</g>
<!-- Node2 -->
<g id="node2" class="node">
<title>Node2</title>
<g id="a_node2"><a xlink:title=" ">
<polygon fill="none" stroke="#bfbfbf" points="0,-78.5 0,-97.5 53,-97.5 53,-78.5 0,-78.5"/>
<text text-anchor="middle" x="26.5" y="-85.5" font-family="Helvetica,sans-Serif" font-size="10.00">INT32 *</text>
</a>
</g>
</g>
<!-- Node2&#45;&gt;Node1 -->
<g id="edge1" class="edge">
<title>Node2&#45;&gt;Node1</title>
<path fill="none" stroke="#9a32cd" stroke-dasharray="5,2" d="M42.74,-71.19C53.71,-60.99 68.82,-47.84 83.5,-38 94.05,-30.93 106.7,-24.42 116.99,-19.56"/>
<polygon fill="#9a32cd" stroke="#9a32cd" points="40.08,-68.89 35.24,-78.31 44.9,-73.97 40.08,-68.89"/>
<text text-anchor="middle" x="108" y="-52" font-family="Helvetica,sans-Serif" font-size="10.00"> Cb_g_tab</text>
<text text-anchor="middle" x="108" y="-41" font-family="Helvetica,sans-Serif" font-size="10.00">Cr_g_tab</text>
</g>
<!-- Node3 -->
<g id="node3" class="node">
<title>Node3</title>
<g id="a_node3"><a xlink:href="../../d0/da8/structjpeg__color__deconverter.html" target="_top" xlink:title=" ">
<polygon fill="none" stroke="black" points="71,-78.5 71,-97.5 202,-97.5 202,-78.5 71,-78.5"/>
<text text-anchor="middle" x="136.5" y="-85.5" font-family="Helvetica,sans-Serif" font-size="10.00">jpeg_color_deconverter</text>
</a>
</g>
</g>
<!-- Node3&#45;&gt;Node1 -->
<g id="edge2" class="edge">
<title>Node3&#45;&gt;Node1</title>
<path fill="none" stroke="#9a32cd" stroke-dasharray="5,2" d="M136.5,-68.22C136.5,-52.7 136.5,-31.36 136.5,-19.62"/>
<polygon fill="#9a32cd" stroke="#9a32cd" points="133,-68.28 136.5,-78.28 140,-68.28 133,-68.28"/>
<text text-anchor="middle" x="147.5" y="-46.5" font-family="Helvetica,sans-Serif" font-size="10.00"> pub</text>
</g>
<!-- Node4 -->
<g id="node4" class="node">
<title>Node4</title>
<g id="a_node4"><a xlink:title=" ">
<polygon fill="none" stroke="#bfbfbf" points="220,-78.5 220,-97.5 249,-97.5 249,-78.5 220,-78.5"/>
<text text-anchor="middle" x="234.5" y="-85.5" font-family="Helvetica,sans-Serif" font-size="10.00">int</text>
</a>
</g>
</g>
<!-- Node4&#45;&gt;Node1 -->
<g id="edge3" class="edge">
<title>Node4&#45;&gt;Node1</title>
<path fill="none" stroke="#9a32cd" stroke-dasharray="5,2" d="M215.35,-72.15C195.17,-56.5 164.07,-32.38 147.61,-19.62"/>
<polygon fill="#9a32cd" stroke="#9a32cd" points="213.21,-74.92 223.26,-78.28 217.5,-69.39 213.21,-74.92"/>
<text text-anchor="middle" x="221" y="-52" font-family="Helvetica,sans-Serif" font-size="10.00"> Cb_b_tab</text>
<text text-anchor="middle" x="221" y="-41" font-family="Helvetica,sans-Serif" font-size="10.00">Cr_r_tab</text>
</g>
</g>
</svg>
