<?xml version="1.0" encoding="UTF-8" standalone="no"?>
<!DOCTYPE svg PUBLIC "-//W3C//DTD SVG 1.1//EN"
 "http://www.w3.org/Graphics/SVG/1.1/DTD/svg11.dtd">
<!-- Generated by graphviz version 2.43.0 (0)
 -->
<!-- Title: _NETRESOURCEA Pages: 1 -->
<svg width="198pt" height="128pt"
 viewBox="0.00 0.00 198.00 128.00" xmlns="http://www.w3.org/2000/svg" xmlns:xlink="http://www.w3.org/1999/xlink">
<g id="graph0" class="graph" transform="scale(1 1) rotate(0) translate(4 124)">
<title>_NETRESOURCEA</title>
<!-- Node1 -->
<g id="node1" class="node">
<title>Node1</title>
<g id="a_node1"><a xlink:title=" ">
<polygon fill="#bfbfbf" stroke="black" points="19.5,-0.5 19.5,-19.5 120.5,-19.5 120.5,-0.5 19.5,-0.5"/>
<text text-anchor="middle" x="70" y="-7.5" font-family="Helvetica,sans-Serif" font-size="10.00">_NETRESOURCEA</text>
</a>
</g>
</g>
<!-- Node2 -->
<g id="node2" class="node">
<title>Node2</title>
<g id="a_node2"><a xlink:title=" ">
<polygon fill="none" stroke="#bfbfbf" points="0,-100.5 0,-119.5 38,-119.5 38,-100.5 0,-100.5"/>
<text text-anchor="middle" x="19" y="-107.5" font-family="Helvetica,sans-Serif" font-size="10.00">char</text>
</a>
</g>
</g>
<!-- Node2&#45;&gt;Node1 -->
<g id="edge1" class="edge">
<title>Node2&#45;&gt;Node1</title>
<path fill="none" stroke="#9a32cd" stroke-dasharray="5,2" d="M14.42,-90.6C11.71,-75.38 10.44,-53.78 20,-38 25.06,-29.65 33.69,-23.72 42.36,-19.59"/>
<polygon fill="#9a32cd" stroke="#9a32cd" points="11,-91.33 16.52,-100.38 17.85,-89.86 11,-91.33"/>
<text text-anchor="middle" x="60" y="-74" font-family="Helvetica,sans-Serif" font-size="10.00"> lpRemoteName</text>
<text text-anchor="middle" x="60" y="-63" font-family="Helvetica,sans-Serif" font-size="10.00">lpProvider</text>
<text text-anchor="middle" x="60" y="-52" font-family="Helvetica,sans-Serif" font-size="10.00">lpLocalName</text>
<text text-anchor="middle" x="60" y="-41" font-family="Helvetica,sans-Serif" font-size="10.00">lpComment</text>
</g>
<!-- Node3 -->
<g id="node3" class="node">
<title>Node3</title>
<g id="a_node3"><a xlink:title=" ">
<polygon fill="none" stroke="#bfbfbf" points="103,-100.5 103,-119.5 141,-119.5 141,-100.5 103,-100.5"/>
<text text-anchor="middle" x="122" y="-107.5" font-family="Helvetica,sans-Serif" font-size="10.00">long</text>
</a>
</g>
</g>
<!-- Node3&#45;&gt;Node1 -->
<g id="edge2" class="edge">
<title>Node3&#45;&gt;Node1</title>
<path fill="none" stroke="#9a32cd" stroke-dasharray="5,2" d="M118.97,-89.92C115.93,-74.91 110.2,-53.94 100,-38 95.39,-30.8 88.36,-24.33 82.27,-19.53"/>
<polygon fill="#9a32cd" stroke="#9a32cd" points="115.58,-90.84 120.8,-100.06 122.47,-89.59 115.58,-90.84"/>
<text text-anchor="middle" x="153" y="-74" font-family="Helvetica,sans-Serif" font-size="10.00"> dwUsage</text>
<text text-anchor="middle" x="153" y="-63" font-family="Helvetica,sans-Serif" font-size="10.00">dwDisplayType</text>
<text text-anchor="middle" x="153" y="-52" font-family="Helvetica,sans-Serif" font-size="10.00">dwScope</text>
<text text-anchor="middle" x="153" y="-41" font-family="Helvetica,sans-Serif" font-size="10.00">dwType</text>
</g>
</g>
</svg>
