<?xml version="1.0" encoding="UTF-8" standalone="no"?>
<!DOCTYPE svg PUBLIC "-//W3C//DTD SVG 1.1//EN"
 "http://www.w3.org/Graphics/SVG/1.1/DTD/svg11.dtd">
<!-- Generated by graphviz version 2.43.0 (0)
 -->
<!-- Title: WmfPlaceableFileHeader Pages: 1 -->
<svg width="254pt" height="219pt"
 viewBox="0.00 0.00 253.50 219.00" xmlns="http://www.w3.org/2000/svg" xmlns:xlink="http://www.w3.org/1999/xlink">
<g id="graph0" class="graph" transform="scale(1 1) rotate(0) translate(4 215)">
<title>WmfPlaceableFileHeader</title>
<!-- Node1 -->
<g id="node1" class="node">
<title>Node1</title>
<g id="a_node1"><a xlink:title=" ">
<polygon fill="#bfbfbf" stroke="black" points="47.5,-0.5 47.5,-19.5 187.5,-19.5 187.5,-0.5 47.5,-0.5"/>
<text text-anchor="middle" x="117.5" y="-7.5" font-family="Helvetica,sans-Serif" font-size="10.00">WmfPlaceableFileHeader</text>
</a>
</g>
</g>
<!-- Node2 -->
<g id="node2" class="node">
<title>Node2</title>
<g id="a_node2"><a xlink:title=" ">
<polygon fill="none" stroke="#bfbfbf" points="0,-191.5 0,-210.5 41,-210.5 41,-191.5 0,-191.5"/>
<text text-anchor="middle" x="20.5" y="-198.5" font-family="Helvetica,sans-Serif" font-size="10.00">short</text>
</a>
</g>
</g>
<!-- Node2&#45;&gt;Node1 -->
<g id="edge1" class="edge">
<title>Node2&#45;&gt;Node1</title>
<path fill="none" stroke="#9a32cd" stroke-dasharray="5,2" d="M13.75,-181.66C5.73,-156.58 -4.46,-110.94 13.5,-78 29.85,-48.02 66.01,-29.43 91.06,-19.65"/>
<polygon fill="#9a32cd" stroke="#9a32cd" points="10.52,-183.02 17.07,-191.34 17.14,-180.75 10.52,-183.02"/>
<text text-anchor="middle" x="41" y="-103" font-family="Helvetica,sans-Serif" font-size="10.00"> Checksum</text>
<text text-anchor="middle" x="41" y="-92" font-family="Helvetica,sans-Serif" font-size="10.00">Inch</text>
<text text-anchor="middle" x="41" y="-81" font-family="Helvetica,sans-Serif" font-size="10.00">Hmf</text>
</g>
<!-- Node3 -->
<g id="node3" class="node">
<title>Node3</title>
<g id="a_node3"><a xlink:href="../../d2/dda/structPWMFRect16.html" target="_top" xlink:title=" ">
<polygon fill="none" stroke="black" points="78,-85 78,-104 159,-104 159,-85 78,-85"/>
<text text-anchor="middle" x="118.5" y="-92" font-family="Helvetica,sans-Serif" font-size="10.00">PWMFRect16</text>
</a>
</g>
</g>
<!-- Node2&#45;&gt;Node3 -->
<g id="edge3" class="edge">
<title>Node2&#45;&gt;Node3</title>
<path fill="none" stroke="#9a32cd" stroke-dasharray="5,2" d="M35.44,-184.07C56.42,-161.7 93.91,-121.72 110.37,-104.17"/>
<polygon fill="#9a32cd" stroke="#9a32cd" points="32.81,-181.76 28.52,-191.45 37.91,-186.55 32.81,-181.76"/>
<text text-anchor="middle" x="105" y="-165" font-family="Helvetica,sans-Serif" font-size="10.00"> Top</text>
<text text-anchor="middle" x="105" y="-154" font-family="Helvetica,sans-Serif" font-size="10.00">Left</text>
<text text-anchor="middle" x="105" y="-143" font-family="Helvetica,sans-Serif" font-size="10.00">Right</text>
<text text-anchor="middle" x="105" y="-132" font-family="Helvetica,sans-Serif" font-size="10.00">Bottom</text>
</g>
<!-- Node3&#45;&gt;Node1 -->
<g id="edge2" class="edge">
<title>Node3&#45;&gt;Node1</title>
<path fill="none" stroke="#9a32cd" stroke-dasharray="5,2" d="M118.27,-74.93C118.07,-57.63 117.76,-32.61 117.6,-19.6"/>
<polygon fill="#9a32cd" stroke="#9a32cd" points="114.78,-75.02 118.4,-84.98 121.78,-74.94 114.78,-75.02"/>
<text text-anchor="middle" x="151.5" y="-46.5" font-family="Helvetica,sans-Serif" font-size="10.00"> BoundingBox</text>
</g>
<!-- Node4 -->
<g id="node4" class="node">
<title>Node4</title>
<g id="a_node4"><a xlink:title=" ">
<polygon fill="none" stroke="#bfbfbf" points="178,-85 178,-104 239,-104 239,-85 178,-85"/>
<text text-anchor="middle" x="208.5" y="-92" font-family="Helvetica,sans-Serif" font-size="10.00">unsigned</text>
</a>
</g>
</g>
<!-- Node4&#45;&gt;Node1 -->
<g id="edge4" class="edge">
<title>Node4&#45;&gt;Node1</title>
<path fill="none" stroke="#9a32cd" stroke-dasharray="5,2" d="M205.13,-74.98C202.1,-63.05 196.51,-47.97 186.5,-38 177.93,-29.47 166.35,-23.56 155.13,-19.5"/>
<polygon fill="#9a32cd" stroke="#9a32cd" points="201.72,-75.77 207.26,-84.81 208.57,-74.29 201.72,-75.77"/>
<text text-anchor="middle" x="222.5" y="-52" font-family="Helvetica,sans-Serif" font-size="10.00"> Key</text>
<text text-anchor="middle" x="222.5" y="-41" font-family="Helvetica,sans-Serif" font-size="10.00">Reserved</text>
</g>
</g>
</svg>
