<?xml version="1.0" encoding="UTF-8" standalone="no"?>
<!DOCTYPE svg PUBLIC "-//W3C//DTD SVG 1.1//EN"
 "http://www.w3.org/Graphics/SVG/1.1/DTD/svg11.dtd">
<!-- Generated by graphviz version 2.43.0 (0)
 -->
<!-- Title: VM_Data Pages: 1 -->
<svg width="377pt" height="161pt"
 viewBox="0.00 0.00 377.00 161.00" xmlns="http://www.w3.org/2000/svg" xmlns:xlink="http://www.w3.org/1999/xlink">
<g id="graph0" class="graph" transform="scale(1 1) rotate(0) translate(4 157)">
<title>VM_Data</title>
<!-- Node1 -->
<g id="node1" class="node">
<title>Node1</title>
<g id="a_node1"><a xlink:title=" ">
<polygon fill="#bfbfbf" stroke="black" points="135.5,-0.5 135.5,-19.5 196.5,-19.5 196.5,-0.5 135.5,-0.5"/>
<text text-anchor="middle" x="166" y="-7.5" font-family="Helvetica,sans-Serif" font-size="10.00">VM_Data</text>
</a>
</g>
</g>
<!-- Node2 -->
<g id="node2" class="node">
<title>Node2</title>
<g id="a_node2"><a xlink:title=" ">
<polygon fill="none" stroke="#bfbfbf" points="0,-133.5 0,-152.5 38,-152.5 38,-133.5 0,-133.5"/>
<text text-anchor="middle" x="19" y="-140.5" font-family="Helvetica,sans-Serif" font-size="10.00">void</text>
</a>
</g>
</g>
<!-- Node2&#45;&gt;Node1 -->
<g id="edge1" class="edge">
<title>Node2&#45;&gt;Node1</title>
<path fill="none" stroke="#9a32cd" stroke-dasharray="5,2" d="M16.29,-123.39C14.04,-100.19 14.14,-60.82 36,-38 49.4,-24.02 101.2,-16.76 135.23,-13.42"/>
<polygon fill="#9a32cd" stroke="#9a32cd" points="12.81,-123.83 17.49,-133.34 19.76,-122.99 12.81,-123.83"/>
<text text-anchor="middle" x="63.5" y="-79.5" font-family="Helvetica,sans-Serif" font-size="10.00"> BlockCopy</text>
<text text-anchor="middle" x="63.5" y="-68.5" font-family="Helvetica,sans-Serif" font-size="10.00">ErrJump</text>
</g>
<!-- Node3 -->
<g id="node3" class="node">
<title>Node3</title>
<g id="a_node3"><a xlink:title=" ">
<polygon fill="none" stroke="#bfbfbf" points="80.5,-133.5 80.5,-152.5 109.5,-152.5 109.5,-133.5 80.5,-133.5"/>
<text text-anchor="middle" x="95" y="-140.5" font-family="Helvetica,sans-Serif" font-size="10.00">int</text>
</a>
</g>
</g>
<!-- Node3&#45;&gt;Node1 -->
<g id="edge2" class="edge">
<title>Node3&#45;&gt;Node1</title>
<path fill="none" stroke="#9a32cd" stroke-dasharray="5,2" d="M94.71,-123.01C95.3,-100.59 99.34,-63.17 118,-38 124.04,-29.86 133.3,-23.83 142.09,-19.56"/>
<polygon fill="#9a32cd" stroke="#9a32cd" points="91.21,-123.21 94.65,-133.22 98.21,-123.24 91.21,-123.21"/>
<text text-anchor="middle" x="140" y="-74" font-family="Helvetica,sans-Serif" font-size="10.00"> AsmCall</text>
</g>
<!-- Node4 -->
<g id="node4" class="node">
<title>Node4</title>
<g id="a_node4"><a xlink:href="../../d2/d5f/classunsigned_01int.html" target="_top" xlink:title=" ">
<polygon fill="none" stroke="black" points="127.5,-133.5 127.5,-152.5 204.5,-152.5 204.5,-133.5 127.5,-133.5"/>
<text text-anchor="middle" x="166" y="-140.5" font-family="Helvetica,sans-Serif" font-size="10.00">unsigned int</text>
</a>
</g>
</g>
<!-- Node4&#45;&gt;Node1 -->
<g id="edge3" class="edge">
<title>Node4&#45;&gt;Node1</title>
<path fill="none" stroke="#9a32cd" stroke-dasharray="5,2" d="M166,-123.09C166,-94.36 166,-40.82 166,-19.8"/>
<polygon fill="#9a32cd" stroke="#9a32cd" points="162.5,-123.4 166,-133.4 169.5,-123.4 162.5,-123.4"/>
<text text-anchor="middle" x="189" y="-74" font-family="Helvetica,sans-Serif" font-size="10.00"> iPointers</text>
</g>
<!-- Node5 -->
<g id="node5" class="node">
<title>Node5</title>
<g id="a_node5"><a xlink:title=" ">
<polygon fill="none" stroke="#bfbfbf" points="223,-133.5 223,-152.5 261,-152.5 261,-133.5 223,-133.5"/>
<text text-anchor="middle" x="242" y="-140.5" font-family="Helvetica,sans-Serif" font-size="10.00">long</text>
</a>
</g>
</g>
<!-- Node5&#45;&gt;Node1 -->
<g id="edge4" class="edge">
<title>Node5&#45;&gt;Node1</title>
<path fill="none" stroke="#9a32cd" stroke-dasharray="5,2" d="M241.75,-123.26C240.52,-100.79 235.44,-63.03 216,-38 209.65,-29.82 200.09,-23.81 191.03,-19.56"/>
<polygon fill="#9a32cd" stroke="#9a32cd" points="238.25,-123.59 242.09,-133.47 245.25,-123.36 238.25,-123.59"/>
<text text-anchor="middle" x="263" y="-74" font-family="Helvetica,sans-Serif" font-size="10.00"> AsmCall</text>
</g>
<!-- Node6 -->
<g id="node6" class="node">
<title>Node6</title>
<g id="a_node6"><a xlink:title=" ">
<polygon fill="none" stroke="#bfbfbf" points="279.5,-133.5 279.5,-152.5 340.5,-152.5 340.5,-133.5 279.5,-133.5"/>
<text text-anchor="middle" x="310" y="-140.5" font-family="Helvetica,sans-Serif" font-size="10.00">unsigned</text>
</a>
</g>
</g>
<!-- Node6&#45;&gt;Node1 -->
<g id="edge5" class="edge">
<title>Node6&#45;&gt;Node1</title>
<path fill="none" stroke="#9a32cd" stroke-dasharray="5,2" d="M311.67,-123.02C312.59,-99.72 310.33,-60.54 288,-38 275.4,-25.29 228.36,-17.74 196.51,-13.99"/>
<polygon fill="#9a32cd" stroke="#9a32cd" points="308.15,-123.11 311.01,-133.31 315.14,-123.56 308.15,-123.11"/>
<text text-anchor="middle" x="340" y="-107" font-family="Helvetica,sans-Serif" font-size="10.00"> dataLength</text>
<text text-anchor="middle" x="340" y="-96" font-family="Helvetica,sans-Serif" font-size="10.00">CallThunk</text>
<text text-anchor="middle" x="340" y="-85" font-family="Helvetica,sans-Serif" font-size="10.00">dataMask</text>
<text text-anchor="middle" x="340" y="-74" font-family="Helvetica,sans-Serif" font-size="10.00">iPointers</text>
<text text-anchor="middle" x="340" y="-63" font-family="Helvetica,sans-Serif" font-size="10.00">floatBase</text>
<text text-anchor="middle" x="340" y="-52" font-family="Helvetica,sans-Serif" font-size="10.00">codeLength</text>
<text text-anchor="middle" x="340" y="-41" font-family="Helvetica,sans-Serif" font-size="10.00">data</text>
</g>
</g>
</svg>
