<?xml version="1.0" encoding="UTF-8" standalone="no"?>
<!DOCTYPE svg PUBLIC "-//W3C//DTD SVG 1.1//EN"
 "http://www.w3.org/Graphics/SVG/1.1/DTD/svg11.dtd">
<!-- Generated by graphviz version 2.43.0 (0)
 -->
<!-- Title: Tools/zMesh Exporter/scriplib.c Pages: 1 -->
<svg width="551pt" height="263pt"
 viewBox="0.00 0.00 550.50 263.00" xmlns="http://www.w3.org/2000/svg" xmlns:xlink="http://www.w3.org/1999/xlink">
<g id="graph0" class="graph" transform="scale(1 1) rotate(0) translate(4 259)">
<title>Tools/zMesh Exporter/scriplib.c</title>
<!-- Node1 -->
<g id="node1" class="node">
<title>Node1</title>
<g id="a_node1"><a xlink:title=" ">
<polygon fill="#bfbfbf" stroke="black" points="240,-224.5 240,-254.5 360,-254.5 360,-224.5 240,-224.5"/>
<text text-anchor="start" x="248" y="-242.5" font-family="Helvetica,sans-Serif" font-size="10.00">Tools/zMesh Exporter</text>
<text text-anchor="middle" x="300" y="-231.5" font-family="Helvetica,sans-Serif" font-size="10.00">/scriplib.c</text>
</a>
</g>
</g>
<!-- Node2 -->
<g id="node2" class="node">
<title>Node2</title>
<g id="a_node2"><a xlink:href="../../d3/d25/Tools_2zMesh_01Exporter_2cmdlib_8h.html" target="_top" xlink:title=" ">
<polygon fill="none" stroke="black" points="241.5,-112.5 241.5,-131.5 300.5,-131.5 300.5,-112.5 241.5,-112.5"/>
<text text-anchor="middle" x="271" y="-119.5" font-family="Helvetica,sans-Serif" font-size="10.00">cmdlib.h</text>
</a>
</g>
</g>
<!-- Node1&#45;&gt;Node2 -->
<g id="edge1" class="edge">
<title>Node1&#45;&gt;Node2</title>
<path fill="none" stroke="midnightblue" d="M296.44,-224.34C291.22,-203.53 281.46,-164.66 275.67,-141.58"/>
<polygon fill="midnightblue" stroke="midnightblue" points="279.01,-140.52 273.18,-131.67 272.22,-142.22 279.01,-140.52"/>
</g>
<!-- Node11 -->
<g id="node11" class="node">
<title>Node11</title>
<g id="a_node11"><a xlink:href="../../db/d55/scriplib_8h.html" target="_top" xlink:title=" ">
<polygon fill="none" stroke="black" points="299.5,-168.5 299.5,-187.5 360.5,-187.5 360.5,-168.5 299.5,-168.5"/>
<text text-anchor="middle" x="330" y="-175.5" font-family="Helvetica,sans-Serif" font-size="10.00">scriplib.h</text>
</a>
</g>
</g>
<!-- Node1&#45;&gt;Node11 -->
<g id="edge10" class="edge">
<title>Node1&#45;&gt;Node11</title>
<path fill="none" stroke="midnightblue" d="M307.11,-224.4C311.29,-216.11 316.61,-205.55 321.07,-196.71"/>
<polygon fill="midnightblue" stroke="midnightblue" points="324.26,-198.16 325.63,-187.66 318.01,-195.01 324.26,-198.16"/>
</g>
<!-- Node3 -->
<g id="node3" class="node">
<title>Node3</title>
<g id="a_node3"><a xlink:title=" ">
<polygon fill="none" stroke="#bfbfbf" points="0,-56.5 0,-75.5 50,-75.5 50,-56.5 0,-56.5"/>
<text text-anchor="middle" x="25" y="-63.5" font-family="Helvetica,sans-Serif" font-size="10.00">stdio.h</text>
</a>
</g>
</g>
<!-- Node2&#45;&gt;Node3 -->
<g id="edge2" class="edge">
<title>Node2&#45;&gt;Node3</title>
<path fill="none" stroke="midnightblue" d="M241.4,-115.2C202.17,-107.41 130.59,-92.83 60.14,-76.19"/>
<polygon fill="midnightblue" stroke="midnightblue" points="60.75,-72.73 50.22,-73.82 59.13,-79.54 60.75,-72.73"/>
</g>
<!-- Node4 -->
<g id="node4" class="node">
<title>Node4</title>
<g id="a_node4"><a xlink:title=" ">
<polygon fill="none" stroke="#bfbfbf" points="68.5,-56.5 68.5,-75.5 121.5,-75.5 121.5,-56.5 68.5,-56.5"/>
<text text-anchor="middle" x="95" y="-63.5" font-family="Helvetica,sans-Serif" font-size="10.00">string.h</text>
</a>
</g>
</g>
<!-- Node2&#45;&gt;Node4 -->
<g id="edge3" class="edge">
<title>Node2&#45;&gt;Node4</title>
<path fill="none" stroke="midnightblue" d="M243.11,-112.44C212.89,-103.17 164.56,-88.34 131.38,-78.16"/>
<polygon fill="midnightblue" stroke="midnightblue" points="132.19,-74.75 121.61,-75.16 130.14,-81.44 132.19,-74.75"/>
</g>
<!-- Node5 -->
<g id="node5" class="node">
<title>Node5</title>
<g id="a_node5"><a xlink:title=" ">
<polygon fill="none" stroke="#bfbfbf" points="139.5,-56.5 139.5,-75.5 192.5,-75.5 192.5,-56.5 139.5,-56.5"/>
<text text-anchor="middle" x="166" y="-63.5" font-family="Helvetica,sans-Serif" font-size="10.00">stdlib.h</text>
</a>
</g>
</g>
<!-- Node2&#45;&gt;Node5 -->
<g id="edge4" class="edge">
<title>Node2&#45;&gt;Node5</title>
<path fill="none" stroke="midnightblue" d="M254.13,-112.32C237.29,-103.66 211.19,-90.24 191.76,-80.25"/>
<polygon fill="midnightblue" stroke="midnightblue" points="193.32,-77.12 182.83,-75.65 190.12,-83.34 193.32,-77.12"/>
</g>
<!-- Node6 -->
<g id="node6" class="node">
<title>Node6</title>
<g id="a_node6"><a xlink:href="../../d8/dc2/errno_8h.html" target="_top" xlink:title=" ">
<polygon fill="none" stroke="black" points="210.5,-56.5 210.5,-75.5 261.5,-75.5 261.5,-56.5 210.5,-56.5"/>
<text text-anchor="middle" x="236" y="-63.5" font-family="Helvetica,sans-Serif" font-size="10.00">errno.h</text>
</a>
</g>
</g>
<!-- Node2&#45;&gt;Node6 -->
<g id="edge5" class="edge">
<title>Node2&#45;&gt;Node6</title>
<path fill="none" stroke="midnightblue" d="M265.22,-112.08C260.33,-104.53 253.17,-93.49 247.17,-84.23"/>
<polygon fill="midnightblue" stroke="midnightblue" points="250.05,-82.24 241.67,-75.75 244.17,-86.05 250.05,-82.24"/>
</g>
<!-- Node8 -->
<g id="node8" class="node">
<title>Node8</title>
<g id="a_node8"><a xlink:title=" ">
<polygon fill="none" stroke="#bfbfbf" points="279.5,-56.5 279.5,-75.5 332.5,-75.5 332.5,-56.5 279.5,-56.5"/>
<text text-anchor="middle" x="306" y="-63.5" font-family="Helvetica,sans-Serif" font-size="10.00">ctype.h</text>
</a>
</g>
</g>
<!-- Node2&#45;&gt;Node8 -->
<g id="edge7" class="edge">
<title>Node2&#45;&gt;Node8</title>
<path fill="none" stroke="midnightblue" d="M276.78,-112.08C281.67,-104.53 288.83,-93.49 294.83,-84.23"/>
<polygon fill="midnightblue" stroke="midnightblue" points="297.83,-86.05 300.33,-75.75 291.95,-82.24 297.83,-86.05"/>
</g>
<!-- Node9 -->
<g id="node9" class="node">
<title>Node9</title>
<g id="a_node9"><a xlink:title=" ">
<polygon fill="none" stroke="#bfbfbf" points="351,-56.5 351,-75.5 399,-75.5 399,-56.5 351,-56.5"/>
<text text-anchor="middle" x="375" y="-63.5" font-family="Helvetica,sans-Serif" font-size="10.00">time.h</text>
</a>
</g>
</g>
<!-- Node2&#45;&gt;Node9 -->
<g id="edge8" class="edge">
<title>Node2&#45;&gt;Node9</title>
<path fill="none" stroke="midnightblue" d="M287.71,-112.32C304.31,-103.7 330,-90.36 349.22,-80.39"/>
<polygon fill="midnightblue" stroke="midnightblue" points="351.07,-83.37 358.33,-75.65 347.84,-77.16 351.07,-83.37"/>
</g>
<!-- Node10 -->
<g id="node10" class="node">
<title>Node10</title>
<g id="a_node10"><a xlink:title=" ">
<polygon fill="none" stroke="#bfbfbf" points="417,-56.5 417,-75.5 473,-75.5 473,-56.5 417,-56.5"/>
<text text-anchor="middle" x="445" y="-63.5" font-family="Helvetica,sans-Serif" font-size="10.00">stdarg.h</text>
</a>
</g>
</g>
<!-- Node2&#45;&gt;Node10 -->
<g id="edge9" class="edge">
<title>Node2&#45;&gt;Node10</title>
<path fill="none" stroke="midnightblue" d="M298.57,-112.44C328.1,-103.28 375.12,-88.69 407.88,-78.52"/>
<polygon fill="midnightblue" stroke="midnightblue" points="409.04,-81.82 417.56,-75.52 406.97,-75.14 409.04,-81.82"/>
</g>
<!-- Node7 -->
<g id="node7" class="node">
<title>Node7</title>
<g id="a_node7"><a xlink:href="../../da/d3d/__mingw_8h.html" target="_top" xlink:title=" ">
<polygon fill="none" stroke="black" points="204.5,-0.5 204.5,-19.5 267.5,-19.5 267.5,-0.5 204.5,-0.5"/>
<text text-anchor="middle" x="236" y="-7.5" font-family="Helvetica,sans-Serif" font-size="10.00">_mingw.h</text>
</a>
</g>
</g>
<!-- Node6&#45;&gt;Node7 -->
<g id="edge6" class="edge">
<title>Node6&#45;&gt;Node7</title>
<path fill="none" stroke="midnightblue" d="M236,-56.08C236,-49.01 236,-38.86 236,-29.99"/>
<polygon fill="midnightblue" stroke="midnightblue" points="239.5,-29.75 236,-19.75 232.5,-29.75 239.5,-29.75"/>
</g>
<!-- Node11&#45;&gt;Node2 -->
<g id="edge11" class="edge">
<title>Node11&#45;&gt;Node2</title>
<path fill="none" stroke="midnightblue" d="M320.52,-168.32C311.8,-160.34 298.66,-148.31 288.1,-138.65"/>
<polygon fill="midnightblue" stroke="midnightblue" points="290.39,-136 280.65,-131.83 285.67,-141.17 290.39,-136"/>
</g>
<!-- Node12 -->
<g id="node12" class="node">
<title>Node12</title>
<g id="a_node12"><a xlink:href="../../dd/d7a/Tools_2zMesh_01Exporter_2mathlib_8h.html" target="_top" xlink:title=" ">
<polygon fill="none" stroke="black" points="401.5,-112.5 401.5,-131.5 464.5,-131.5 464.5,-112.5 401.5,-112.5"/>
<text text-anchor="middle" x="433" y="-119.5" font-family="Helvetica,sans-Serif" font-size="10.00">mathlib.h</text>
</a>
</g>
</g>
<!-- Node11&#45;&gt;Node12 -->
<g id="edge12" class="edge">
<title>Node11&#45;&gt;Node12</title>
<path fill="none" stroke="midnightblue" d="M346.55,-168.32C362.99,-159.7 388.43,-146.36 407.47,-136.39"/>
<polygon fill="midnightblue" stroke="midnightblue" points="409.26,-139.4 416.49,-131.65 406.01,-133.2 409.26,-139.4"/>
</g>
<!-- Node13 -->
<g id="node13" class="node">
<title>Node13</title>
<g id="a_node13"><a xlink:title=" ">
<polygon fill="none" stroke="#bfbfbf" points="491.5,-56.5 491.5,-75.5 542.5,-75.5 542.5,-56.5 491.5,-56.5"/>
<text text-anchor="middle" x="517" y="-63.5" font-family="Helvetica,sans-Serif" font-size="10.00">math.h</text>
</a>
</g>
</g>
<!-- Node12&#45;&gt;Node13 -->
<g id="edge13" class="edge">
<title>Node12&#45;&gt;Node13</title>
<path fill="none" stroke="midnightblue" d="M446.5,-112.32C459.6,-103.9 479.71,-90.97 495.11,-81.07"/>
<polygon fill="midnightblue" stroke="midnightblue" points="497.02,-84.01 503.54,-75.65 493.23,-78.12 497.02,-84.01"/>
</g>
</g>
</svg>
