<?xml version="1.0" encoding="UTF-8" standalone="no"?>
<!DOCTYPE svg PUBLIC "-//W3C//DTD SVG 1.1//EN"
 "http://www.w3.org/Graphics/SVG/1.1/DTD/svg11.dtd">
<!-- Generated by graphviz version 2.43.0 (0)
 -->
<!-- Title: _TARGET_DEVICE_REMOVAL_NOTIFICATION Pages: 1 -->
<svg width="674pt" height="587pt"
 viewBox="0.00 0.00 674.00 587.25" xmlns="http://www.w3.org/2000/svg" xmlns:xlink="http://www.w3.org/1999/xlink">
<g id="graph0" class="graph" transform="scale(1 1) rotate(0) translate(4 583.25)">
<title>_TARGET_DEVICE_REMOVAL_NOTIFICATION</title>
<!-- Node1 -->
<g id="node1" class="node">
<title>Node1</title>
<g id="a_node1"><a xlink:title=" ">
<polygon fill="#bfbfbf" stroke="black" points="512,-335.25 512,-365.25 666,-365.25 666,-335.25 512,-335.25"/>
<text text-anchor="start" x="520" y="-353.25" font-family="Helvetica,sans-Serif" font-size="10.00">_TARGET_DEVICE_REMOVAL</text>
<text text-anchor="middle" x="589" y="-342.25" font-family="Helvetica,sans-Serif" font-size="10.00">_NOTIFICATION</text>
</a>
</g>
</g>
<!-- Node2 -->
<g id="node2" class="node">
<title>Node2</title>
<g id="a_node2"><a xlink:title=" ">
<polygon fill="none" stroke="#bfbfbf" points="361,-403.75 361,-422.75 403,-422.75 403,-403.75 361,-403.75"/>
<text text-anchor="middle" x="382" y="-410.75" font-family="Helvetica,sans-Serif" font-size="10.00">GUID</text>
</a>
</g>
</g>
<!-- Node2&#45;&gt;Node1 -->
<g id="edge1" class="edge">
<title>Node2&#45;&gt;Node1</title>
<path fill="none" stroke="#9a32cd" stroke-dasharray="5,2" d="M412.99,-404.04C446.05,-393.88 499.73,-377.38 538.93,-365.34"/>
<polygon fill="#9a32cd" stroke="#9a32cd" points="411.56,-400.82 403.03,-407.1 413.62,-407.51 411.56,-400.82"/>
<text text-anchor="middle" x="468" y="-397.25" font-family="Helvetica,sans-Serif" font-size="10.00"> Event</text>
</g>
<!-- Node3 -->
<g id="node3" class="node">
<title>Node3</title>
<g id="a_node3"><a xlink:href="../../de/dcb/struct__FILE__OBJECT.html" target="_top" xlink:title=" ">
<polygon fill="none" stroke="black" points="340,-336.75 340,-355.75 424,-355.75 424,-336.75 340,-336.75"/>
<text text-anchor="middle" x="382" y="-343.75" font-family="Helvetica,sans-Serif" font-size="10.00">PFILE_OBJECT</text>
</a>
</g>
</g>
<!-- Node3&#45;&gt;Node1 -->
<g id="edge2" class="edge">
<title>Node3&#45;&gt;Node1</title>
<path fill="none" stroke="#9a32cd" stroke-dasharray="5,2" d="M434.52,-347.26C457.89,-347.72 486,-348.26 511.75,-348.77"/>
<polygon fill="#9a32cd" stroke="#9a32cd" points="434.55,-343.76 424.48,-347.06 434.41,-350.76 434.55,-343.76"/>
<text text-anchor="middle" x="468" y="-351.25" font-family="Helvetica,sans-Serif" font-size="10.00"> FileObject</text>
</g>
<!-- Node3&#45;&gt;Node3 -->
<g id="edge12" class="edge">
<title>Node3&#45;&gt;Node3</title>
<path fill="none" stroke="#9a32cd" stroke-dasharray="5,2" d="M366.07,-365.65C367.14,-370.57 372.45,-374.25 382,-374.25 397.29,-374.25 401.7,-364.82 395.26,-356.01"/>
<polygon fill="#9a32cd" stroke="#9a32cd" points="369.45,-366.58 368.74,-356.01 362.7,-364.72 369.45,-366.58"/>
<text text-anchor="middle" x="382" y="-377.25" font-family="Helvetica,sans-Serif" font-size="10.00"> RelatedFileObject</text>
</g>
<!-- Node4 -->
<g id="node4" class="node">
<title>Node4</title>
<g id="a_node4"><a xlink:title=" ">
<polygon fill="none" stroke="#bfbfbf" points="35,-539.25 35,-569.25 163,-569.25 163,-539.25 35,-539.25"/>
<text text-anchor="start" x="43" y="-557.25" font-family="Helvetica,sans-Serif" font-size="10.00">struct IO_COMPLETION</text>
<text text-anchor="middle" x="99" y="-546.25" font-family="Helvetica,sans-Serif" font-size="10.00">_CONTEXT *</text>
</a>
</g>
</g>
<!-- Node4&#45;&gt;Node3 -->
<g id="edge3" class="edge">
<title>Node4&#45;&gt;Node3</title>
<path fill="none" stroke="#9a32cd" stroke-dasharray="5,2" d="M173.41,-567.85C222.01,-572.32 283.63,-568.59 322,-531.25 344.01,-509.84 327.51,-422.31 340,-394.25 346.77,-379.04 359.96,-364.97 369.55,-356.05"/>
<polygon fill="#9a32cd" stroke="#9a32cd" points="173.56,-564.35 163.25,-566.78 172.83,-571.31 173.56,-564.35"/>
<text text-anchor="middle" x="269" y="-571.25" font-family="Helvetica,sans-Serif" font-size="10.00"> CompletionContext</text>
</g>
<!-- Node5 -->
<g id="node5" class="node">
<title>Node5</title>
<g id="a_node5"><a xlink:title=" ">
<polygon fill="none" stroke="#bfbfbf" points="71,-500.75 71,-519.75 127,-519.75 127,-500.75 71,-500.75"/>
<text text-anchor="middle" x="99" y="-507.75" font-family="Helvetica,sans-Serif" font-size="10.00">KEVENT</text>
</a>
</g>
</g>
<!-- Node5&#45;&gt;Node3 -->
<g id="edge4" class="edge">
<title>Node5&#45;&gt;Node3</title>
<path fill="none" stroke="#9a32cd" stroke-dasharray="5,2" d="M137.33,-510.06C193.49,-508.96 295.93,-503.56 322,-479.25 350.24,-452.92 322.93,-428.89 340,-394.25 347.46,-379.11 360.78,-364.82 370.21,-355.83"/>
<polygon fill="#9a32cd" stroke="#9a32cd" points="137.02,-506.56 127.08,-510.22 137.13,-513.56 137.02,-506.56"/>
<text text-anchor="middle" x="269" y="-519.25" font-family="Helvetica,sans-Serif" font-size="10.00"> Event</text>
<text text-anchor="middle" x="269" y="-508.25" font-family="Helvetica,sans-Serif" font-size="10.00">Lock</text>
</g>
<!-- Node6 -->
<g id="node6" class="node">
<title>Node6</title>
<g id="a_node6"><a xlink:title=" ">
<polygon fill="none" stroke="#bfbfbf" points="47,-462.75 47,-481.75 151,-481.75 151,-462.75 47,-462.75"/>
<text text-anchor="middle" x="99" y="-469.75" font-family="Helvetica,sans-Serif" font-size="10.00">UNICODE_STRING</text>
</a>
</g>
</g>
<!-- Node6&#45;&gt;Node3 -->
<g id="edge5" class="edge">
<title>Node6&#45;&gt;Node3</title>
<path fill="none" stroke="#9a32cd" stroke-dasharray="5,2" d="M161.04,-469.9C217.99,-466.54 297.71,-458.46 322,-439.25 338.9,-425.9 328.86,-412.69 340,-394.25 348.84,-379.62 362.13,-365 371.17,-355.81"/>
<polygon fill="#9a32cd" stroke="#9a32cd" points="160.84,-466.41 151.05,-470.46 161.23,-473.4 160.84,-466.41"/>
<text text-anchor="middle" x="269" y="-467.25" font-family="Helvetica,sans-Serif" font-size="10.00"> FileName</text>
</g>
<!-- Node7 -->
<g id="node7" class="node">
<title>Node7</title>
<g id="a_node7"><a xlink:title=" ">
<polygon fill="none" stroke="#bfbfbf" points="33.5,-413.25 33.5,-443.25 164.5,-443.25 164.5,-413.25 33.5,-413.25"/>
<text text-anchor="start" x="41.5" y="-431.25" font-family="Helvetica,sans-Serif" font-size="10.00">struct SECTION_OBJECT</text>
<text text-anchor="middle" x="99" y="-420.25" font-family="Helvetica,sans-Serif" font-size="10.00">_POINTERS *</text>
</a>
</g>
</g>
<!-- Node7&#45;&gt;Node3 -->
<g id="edge6" class="edge">
<title>Node7&#45;&gt;Node3</title>
<path fill="none" stroke="#9a32cd" stroke-dasharray="5,2" d="M175.04,-428.3C219.5,-425.8 275.97,-418.13 322,-397.25 343.21,-387.64 362.55,-367.92 372.96,-356.02"/>
<polygon fill="#9a32cd" stroke="#9a32cd" points="174.69,-424.81 164.87,-428.79 175.03,-431.8 174.69,-424.81"/>
<text text-anchor="middle" x="269" y="-427.25" font-family="Helvetica,sans-Serif" font-size="10.00"> SectionObjectPointer</text>
</g>
<!-- Node8 -->
<g id="node8" class="node">
<title>Node8</title>
<g id="a_node8"><a xlink:title=" ">
<polygon fill="none" stroke="#bfbfbf" points="49,-374.75 49,-393.75 149,-393.75 149,-374.75 49,-374.75"/>
<text text-anchor="middle" x="99" y="-381.75" font-family="Helvetica,sans-Serif" font-size="10.00">PDEVICE_OBJECT</text>
</a>
</g>
</g>
<!-- Node8&#45;&gt;Node3 -->
<g id="edge7" class="edge">
<title>Node8&#45;&gt;Node3</title>
<path fill="none" stroke="#9a32cd" stroke-dasharray="5,2" d="M159.31,-385.11C204.43,-384.59 267.79,-381.35 322,-369.25 335.41,-366.26 349.79,-360.71 361,-355.81"/>
<polygon fill="#9a32cd" stroke="#9a32cd" points="159.09,-381.61 149.11,-385.18 159.14,-388.61 159.09,-381.61"/>
<text text-anchor="middle" x="269" y="-385.25" font-family="Helvetica,sans-Serif" font-size="10.00"> DeviceObject</text>
</g>
<!-- Node9 -->
<g id="node9" class="node">
<title>Node9</title>
<g id="a_node9"><a xlink:title=" ">
<polygon fill="none" stroke="#bfbfbf" points="78.5,-336.75 78.5,-355.75 119.5,-355.75 119.5,-336.75 78.5,-336.75"/>
<text text-anchor="middle" x="99" y="-343.75" font-family="Helvetica,sans-Serif" font-size="10.00">short</text>
</a>
</g>
</g>
<!-- Node9&#45;&gt;Node3 -->
<g id="edge8" class="edge">
<title>Node9&#45;&gt;Node3</title>
<path fill="none" stroke="#9a32cd" stroke-dasharray="5,2" d="M130.01,-346.25C180.52,-346.25 282.59,-346.25 339.79,-346.25"/>
<polygon fill="#9a32cd" stroke="#9a32cd" points="129.76,-342.75 119.76,-346.25 129.76,-349.75 129.76,-342.75"/>
<text text-anchor="middle" x="269" y="-360.25" font-family="Helvetica,sans-Serif" font-size="10.00"> Size</text>
<text text-anchor="middle" x="269" y="-349.25" font-family="Helvetica,sans-Serif" font-size="10.00">Type</text>
</g>
<!-- Node10 -->
<g id="node10" class="node">
<title>Node10</title>
<g id="a_node10"><a xlink:title=" ">
<polygon fill="none" stroke="#bfbfbf" points="61.5,-298.75 61.5,-317.75 136.5,-317.75 136.5,-298.75 61.5,-298.75"/>
<text text-anchor="middle" x="99" y="-305.75" font-family="Helvetica,sans-Serif" font-size="10.00">struct VPB *</text>
</a>
</g>
</g>
<!-- Node10&#45;&gt;Node3 -->
<g id="edge9" class="edge">
<title>Node10&#45;&gt;Node3</title>
<path fill="none" stroke="#9a32cd" stroke-dasharray="5,2" d="M146.84,-311.12C191.96,-314.34 262.01,-320.58 322,-331.25 330.12,-332.7 338.76,-334.66 346.87,-336.68"/>
<polygon fill="#9a32cd" stroke="#9a32cd" points="146.98,-307.62 136.76,-310.42 146.5,-314.6 146.98,-307.62"/>
<text text-anchor="middle" x="269" y="-334.25" font-family="Helvetica,sans-Serif" font-size="10.00"> Vpb</text>
</g>
<!-- Node11 -->
<g id="node11" class="node">
<title>Node11</title>
<g id="a_node11"><a xlink:title=" ">
<polygon fill="none" stroke="#bfbfbf" points="18.5,-195.75 18.5,-236.75 179.5,-236.75 179.5,-195.75 18.5,-195.75"/>
<text text-anchor="start" x="26.5" y="-224.75" font-family="Helvetica,sans-Serif" font-size="10.00">PLDAP *typedef(__cdecl</text>
<text text-anchor="start" x="26.5" y="-213.75" font-family="Helvetica,sans-Serif" font-size="10.00"> NOTIFYOFNEWCONNECTION)</text>
<text text-anchor="middle" x="99" y="-202.75" font-family="Helvetica,sans-Serif" font-size="10.00">(PLDAP</text>
</a>
</g>
</g>
<!-- Node11&#45;&gt;Node3 -->
<g id="edge10" class="edge">
<title>Node11&#45;&gt;Node3</title>
<path fill="none" stroke="#9a32cd" stroke-dasharray="5,2" d="M189.61,-196.18C234.42,-191.6 286.52,-195.32 322,-226.25 355.38,-255.36 313.91,-288.47 340,-324.25 343.71,-329.35 348.97,-333.38 354.48,-336.52"/>
<polygon fill="#9a32cd" stroke="#9a32cd" points="189.11,-192.72 179.58,-197.36 189.92,-199.67 189.11,-192.72"/>
<text text-anchor="middle" x="269" y="-306.25" font-family="Helvetica,sans-Serif" font-size="10.00"> SharedRead</text>
<text text-anchor="middle" x="269" y="-295.25" font-family="Helvetica,sans-Serif" font-size="10.00">DeletePending</text>
<text text-anchor="middle" x="269" y="-284.25" font-family="Helvetica,sans-Serif" font-size="10.00">ReadAccess</text>
<text text-anchor="middle" x="269" y="-273.25" font-family="Helvetica,sans-Serif" font-size="10.00">SharedWrite</text>
<text text-anchor="middle" x="269" y="-262.25" font-family="Helvetica,sans-Serif" font-size="10.00">WriteAccess</text>
<text text-anchor="middle" x="269" y="-251.25" font-family="Helvetica,sans-Serif" font-size="10.00">LockOperation</text>
<text text-anchor="middle" x="269" y="-240.25" font-family="Helvetica,sans-Serif" font-size="10.00">SharedDelete</text>
<text text-anchor="middle" x="269" y="-229.25" font-family="Helvetica,sans-Serif" font-size="10.00">DeleteAccess</text>
</g>
<!-- Node12 -->
<g id="node12" class="node">
<title>Node12</title>
<g id="a_node12"><a xlink:title=" ">
<polygon fill="none" stroke="#bfbfbf" points="50,-157.75 50,-176.75 148,-176.75 148,-157.75 50,-157.75"/>
<text text-anchor="middle" x="99" y="-164.75" font-family="Helvetica,sans-Serif" font-size="10.00">LARGE_INTEGER</text>
</a>
</g>
</g>
<!-- Node12&#45;&gt;Node3 -->
<g id="edge11" class="edge">
<title>Node12&#45;&gt;Node3</title>
<path fill="none" stroke="#9a32cd" stroke-dasharray="5,2" d="M158.3,-162.6C216.07,-159.35 299.13,-158.85 322,-180.25 369.08,-224.34 303.51,-271.07 340,-324.25 343.56,-329.45 348.76,-333.52 354.27,-336.67"/>
<polygon fill="#9a32cd" stroke="#9a32cd" points="157.96,-159.11 148.19,-163.21 158.38,-166.1 157.96,-159.11"/>
<text text-anchor="middle" x="269" y="-183.25" font-family="Helvetica,sans-Serif" font-size="10.00"> CurrentByteOffset</text>
</g>
<!-- Node13 -->
<g id="node13" class="node">
<title>Node13</title>
<g id="a_node13"><a xlink:title=" ">
<polygon fill="none" stroke="#bfbfbf" points="77,-119.75 77,-138.75 121,-138.75 121,-119.75 77,-119.75"/>
<text text-anchor="middle" x="99" y="-126.75" font-family="Helvetica,sans-Serif" font-size="10.00">LONG</text>
</a>
</g>
</g>
<!-- Node13&#45;&gt;Node3 -->
<g id="edge13" class="edge">
<title>Node13&#45;&gt;Node3</title>
<path fill="none" stroke="#9a32cd" stroke-dasharray="5,2" d="M131.09,-120.66C179.15,-109.46 271.23,-96.7 322,-146.25 350.45,-174.02 317.9,-291.21 340,-324.25 343.5,-329.49 348.68,-333.58 354.18,-336.73"/>
<polygon fill="#9a32cd" stroke="#9a32cd" points="130.13,-117.29 121.26,-123.07 131.8,-124.09 130.13,-117.29"/>
<text text-anchor="middle" x="269" y="-149.25" font-family="Helvetica,sans-Serif" font-size="10.00"> FinalStatus</text>
</g>
<!-- Node14 -->
<g id="node14" class="node">
<title>Node14</title>
<g id="a_node14"><a xlink:title=" ">
<polygon fill="none" stroke="#bfbfbf" points="0,-10.75 0,-51.75 198,-51.75 198,-10.75 0,-10.75"/>
<text text-anchor="start" x="8" y="-39.75" font-family="Helvetica,sans-Serif" font-size="10.00">PSecurityUserData *typedef</text>
<text text-anchor="start" x="8" y="-28.75" font-family="Helvetica,sans-Serif" font-size="10.00"> PSECPKG_EXTENDED_INFORMATION</text>
<text text-anchor="middle" x="99" y="-17.75" font-family="Helvetica,sans-Serif" font-size="10.00"> *typedef</text>
</a>
</g>
</g>
<!-- Node14&#45;&gt;Node3 -->
<g id="edge14" class="edge">
<title>Node14&#45;&gt;Node3</title>
<path fill="none" stroke="#9a32cd" stroke-dasharray="5,2" d="M170.39,-8.24C219.27,2.91 282.47,6.93 322,-30.25 345.84,-52.68 322.35,-296.7 340,-324.25 343.31,-329.42 348.27,-333.46 353.61,-336.59"/>
<polygon fill="#9a32cd" stroke="#9a32cd" points="169.4,-4.88 160.51,-10.64 171.05,-11.68 169.4,-4.88"/>
<text text-anchor="middle" x="269" y="-99.25" font-family="Helvetica,sans-Serif" font-size="10.00"> Flags</text>
<text text-anchor="middle" x="269" y="-88.25" font-family="Helvetica,sans-Serif" font-size="10.00">LastLock</text>
<text text-anchor="middle" x="269" y="-77.25" font-family="Helvetica,sans-Serif" font-size="10.00">Busy</text>
<text text-anchor="middle" x="269" y="-66.25" font-family="Helvetica,sans-Serif" font-size="10.00">PrivateCacheMap</text>
<text text-anchor="middle" x="269" y="-55.25" font-family="Helvetica,sans-Serif" font-size="10.00">FsContext</text>
<text text-anchor="middle" x="269" y="-44.25" font-family="Helvetica,sans-Serif" font-size="10.00">FsContext2</text>
<text text-anchor="middle" x="269" y="-33.25" font-family="Helvetica,sans-Serif" font-size="10.00">Waiters</text>
</g>
<!-- Node15 -->
<g id="node15" class="node">
<title>Node15</title>
<g id="a_node15"><a xlink:title=" ">
<polygon fill="none" stroke="#bfbfbf" points="351.5,-295.75 351.5,-314.75 412.5,-314.75 412.5,-295.75 351.5,-295.75"/>
<text text-anchor="middle" x="382" y="-302.75" font-family="Helvetica,sans-Serif" font-size="10.00">unsigned</text>
</a>
</g>
</g>
<!-- Node15&#45;&gt;Node1 -->
<g id="edge15" class="edge">
<title>Node15&#45;&gt;Node1</title>
<path fill="none" stroke="#9a32cd" stroke-dasharray="5,2" d="M422.89,-309.48C444.15,-312.11 470.66,-316.01 494,-321.25 510.66,-325 528.65,-330.25 544.39,-335.25"/>
<polygon fill="#9a32cd" stroke="#9a32cd" points="423.26,-305.99 412.91,-308.28 422.43,-312.95 423.26,-305.99"/>
<text text-anchor="middle" x="468" y="-335.25" font-family="Helvetica,sans-Serif" font-size="10.00"> Size</text>
<text text-anchor="middle" x="468" y="-324.25" font-family="Helvetica,sans-Serif" font-size="10.00">Version</text>
</g>
</g>
</svg>
