<?xml version="1.0" encoding="UTF-8" standalone="no"?>
<!DOCTYPE svg PUBLIC "-//W3C//DTD SVG 1.1//EN"
 "http://www.w3.org/Graphics/SVG/1.1/DTD/svg11.dtd">
<!-- Generated by graphviz version 2.43.0 (0)
 -->
<!-- Title: __gnu_pbds::detail::left_child_next_sibling_heap_node_&lt; Value_Type, null_left_child_next_sibling_heap_node_metadata, Allocator &gt; Pages: 1 -->
<svg width="234pt" height="161pt"
 viewBox="0.00 0.00 234.00 161.00" xmlns="http://www.w3.org/2000/svg" xmlns:xlink="http://www.w3.org/1999/xlink">
<g id="graph0" class="graph" transform="scale(1 1) rotate(0) translate(4 157)">
<title>__gnu_pbds::detail::left_child_next_sibling_heap_node_&lt; Value_Type, null_left_child_next_sibling_heap_node_metadata, Allocator &gt;</title>
<!-- Node1 -->
<g id="node1" class="node">
<title>Node1</title>
<g id="a_node1"><a xlink:title=" ">
<polygon fill="#bfbfbf" stroke="black" points="0,-0.5 0,-63.5 188,-63.5 188,-0.5 0,-0.5"/>
<text text-anchor="start" x="8" y="-51.5" font-family="Helvetica,sans-Serif" font-size="10.00">__gnu_pbds::detail</text>
<text text-anchor="start" x="8" y="-40.5" font-family="Helvetica,sans-Serif" font-size="10.00">::left_child_next_sibling</text>
<text text-anchor="start" x="8" y="-29.5" font-family="Helvetica,sans-Serif" font-size="10.00">_heap_node_&lt; Value_Type,</text>
<text text-anchor="start" x="8" y="-18.5" font-family="Helvetica,sans-Serif" font-size="10.00"> null_left_child_next_sibling</text>
<text text-anchor="middle" x="94" y="-7.5" font-family="Helvetica,sans-Serif" font-size="10.00">_heap_node_metadata, Allocator &gt;</text>
</a>
</g>
</g>
<!-- Node2 -->
<g id="node2" class="node">
<title>Node2</title>
<g id="a_node2"><a xlink:title=" ">
<polygon fill="none" stroke="#bfbfbf" points="19.5,-133.5 19.5,-152.5 90.5,-152.5 90.5,-133.5 19.5,-133.5"/>
<text text-anchor="middle" x="55" y="-140.5" font-family="Helvetica,sans-Serif" font-size="10.00">Value_Type</text>
</a>
</g>
</g>
<!-- Node2&#45;&gt;Node1 -->
<g id="edge1" class="edge">
<title>Node2&#45;&gt;Node1</title>
<path fill="none" stroke="#9a32cd" stroke-dasharray="5,2" d="M56.82,-123.02C58.37,-111 61.15,-95.27 66,-82 68.25,-75.83 71.24,-69.54 74.43,-63.61"/>
<polygon fill="#9a32cd" stroke="#9a32cd" points="53.31,-122.89 55.68,-133.21 60.27,-123.66 53.31,-122.89"/>
<text text-anchor="middle" x="89" y="-96" font-family="Helvetica,sans-Serif" font-size="10.00"> m_value</text>
</g>
<!-- Node3 -->
<g id="node3" class="node">
<title>Node3</title>
<g id="a_node3"><a xlink:title=" ">
<polygon fill="none" stroke="#bfbfbf" points="108.5,-133.5 108.5,-152.5 159.5,-152.5 159.5,-133.5 108.5,-133.5"/>
<text text-anchor="middle" x="134" y="-140.5" font-family="Helvetica,sans-Serif" font-size="10.00">pointer</text>
</a>
</g>
</g>
<!-- Node3&#45;&gt;Node1 -->
<g id="edge2" class="edge">
<title>Node3&#45;&gt;Node1</title>
<path fill="none" stroke="#9a32cd" stroke-dasharray="5,2" d="M127.34,-123.82C122.97,-111.92 117.15,-96.03 112,-82 109.81,-76.04 107.48,-69.68 105.24,-63.58"/>
<polygon fill="#9a32cd" stroke="#9a32cd" points="124.14,-125.27 130.87,-133.45 130.71,-122.86 124.14,-125.27"/>
<text text-anchor="middle" x="174.5" y="-107" font-family="Helvetica,sans-Serif" font-size="10.00"> m_p_prev_or_parent</text>
<text text-anchor="middle" x="174.5" y="-96" font-family="Helvetica,sans-Serif" font-size="10.00">m_p_next_sibling</text>
<text text-anchor="middle" x="174.5" y="-85" font-family="Helvetica,sans-Serif" font-size="10.00">m_p_l_child</text>
</g>
</g>
</svg>
