<?xml version="1.0" encoding="UTF-8" standalone="no"?>
<!DOCTYPE svg PUBLIC "-//W3C//DTD SVG 1.1//EN"
 "http://www.w3.org/Graphics/SVG/1.1/DTD/svg11.dtd">
<!-- Generated by graphviz version 2.43.0 (0)
 -->
<!-- Title: Engine/sys/con_win32.c Pages: 1 -->
<!--zoomable 308 -->
<svg id="main" version="1.1" xmlns="http://www.w3.org/2000/svg" xmlns:xlink="http://www.w3.org/1999/xlink" xml:space="preserve" onload="init(evt)">
<style type="text/css"><![CDATA[
.edge:hover path { stroke: red; }
.edge:hover polygon { stroke: red; fill: red; }
]]></style>
<script type="text/javascript"><![CDATA[
var edges = document.getElementsByTagName('g');
if (edges && edges.length) {
  for (var i=0;i<edges.length;i++) {
    if (edges[i].id.substr(0,4)=='edge') {
      edges[i].setAttribute('class','edge');
    }
  }
}
]]></script>
        <defs>
                <circle id="rim" cx="0" cy="0" r="7"/>
                <circle id="rim2" cx="0" cy="0" r="3.5"/>
                <g id="zoomPlus">
                        <use xlink:href="#rim" fill="#404040">
                                <set attributeName="fill" to="#808080" begin="zoomplus.mouseover" end="zoomplus.mouseout"/>
                        </use>
                        <path d="M-4,0h8M0,-4v8" fill="none" stroke="white" stroke-width="1.5" pointer-events="none"/>
                </g>
                <g id="zoomMin">
                        <use xlink:href="#rim" fill="#404040">
                                <set attributeName="fill" to="#808080" begin="zoomminus.mouseover" end="zoomminus.mouseout"/>
                        </use>
                        <path d="M-4,0h8" fill="none" stroke="white" stroke-width="1.5" pointer-events="none"/>
                </g>
                <g id="dirArrow">
                        <path fill="none" stroke="white" stroke-width="1.5" d="M0,-3.0v7 M-2.5,-0.5L0,-3.0L2.5,-0.5"/>
                </g>
               <g id="resetDef">
                       <use xlink:href="#rim2" fill="#404040">
                               <set attributeName="fill" to="#808080" begin="reset.mouseover" end="reset.mouseout"/>
                       </use>
               </g>
        </defs>

<script type="text/javascript">
var viewWidth = 2534;
var viewHeight = 308;
var sectionId = 'dynsection-0';
</script>
<script xlink:href="../../svgpan.js"/>
<svg id="graph" class="graph">
<g id="viewport">
<title>Engine/sys/con_win32.c</title>
<!-- Node1 -->
<g id="node1" class="node">
<title>Node1</title>
<g id="a_node1"><a xlink:title=" ">
<polygon fill="#bfbfbf" stroke="black" points="453.5,-280.5 453.5,-299.5 585.5,-299.5 585.5,-280.5 453.5,-280.5"/>
<text text-anchor="middle" x="519.5" y="-287.5" font-family="Helvetica,sans-Serif" font-size="10.00">Engine/sys/con_win32.c</text>
</a>
</g>
</g>
<!-- Node2 -->
<g id="node2" class="node">
<title>Node2</title>
<g id="a_node2"><a xlink:href="../../de/d01/q__shared_8h.html" target="_top" xlink:title=" ">
<polygon fill="none" stroke="black" points="344,-168.5 344,-187.5 469,-187.5 469,-168.5 344,-168.5"/>
<text text-anchor="middle" x="406.5" y="-175.5" font-family="Helvetica,sans-Serif" font-size="10.00">../../Shared/q_shared.h</text>
</a>
</g>
</g>
<!-- Node1&#45;&gt;Node2 -->
<g id="edge1" class="edge">
<title>Node1&#45;&gt;Node2</title>
<path fill="none" stroke="midnightblue" d="M498.5,-280.48C481.75,-272.87 458.52,-260.39 442.5,-244 429.28,-230.47 419.39,-211.12 413.36,-197.05"/>
<polygon fill="midnightblue" stroke="midnightblue" points="416.5,-195.47 409.5,-187.5 410,-198.09 416.5,-195.47"/>
</g>
<!-- Node16 -->
<g id="node16" class="node">
<title>Node16</title>
<g id="a_node16"><a xlink:href="../../d1/df7/qcommon_8h.html" target="_top" xlink:title=" ">
<polygon fill="none" stroke="black" points="487,-168.5 487,-187.5 616,-187.5 616,-168.5 487,-168.5"/>
<text text-anchor="middle" x="551.5" y="-175.5" font-family="Helvetica,sans-Serif" font-size="10.00">../../Shared/qcommon.h</text>
</a>
</g>
</g>
<!-- Node1&#45;&gt;Node16 -->
<g id="edge15" class="edge">
<title>Node1&#45;&gt;Node16</title>
<path fill="none" stroke="midnightblue" d="M522.01,-280.37C527.2,-262.54 539.2,-221.3 546.18,-197.27"/>
<polygon fill="midnightblue" stroke="midnightblue" points="549.57,-198.17 549,-187.59 542.85,-196.22 549.57,-198.17"/>
</g>
<!-- Node18 -->
<g id="node18" class="node">
<title>Node18</title>
<g id="a_node18"><a xlink:href="../../dd/dd9/sys__local_8h.html" target="_top" xlink:title=" ">
<polygon fill="none" stroke="black" points="452,-224.5 452,-243.5 523,-243.5 523,-224.5 452,-224.5"/>
<text text-anchor="middle" x="487.5" y="-231.5" font-family="Helvetica,sans-Serif" font-size="10.00">sys_local.h</text>
</a>
</g>
</g>
<!-- Node1&#45;&gt;Node18 -->
<g id="edge17" class="edge">
<title>Node1&#45;&gt;Node18</title>
<path fill="none" stroke="midnightblue" d="M514.22,-280.08C509.79,-272.61 503.34,-261.72 497.88,-252.52"/>
<polygon fill="midnightblue" stroke="midnightblue" points="500.79,-250.57 492.69,-243.75 494.77,-254.14 500.79,-250.57"/>
</g>
<!-- Node19 -->
<g id="node19" class="node">
<title>Node19</title>
<g id="a_node19"><a xlink:href="../../d9/d43/windows_8h.html" target="_top" xlink:title=" ">
<polygon fill="none" stroke="black" points="1571.5,-224.5 1571.5,-243.5 1639.5,-243.5 1639.5,-224.5 1571.5,-224.5"/>
<text text-anchor="middle" x="1605.5" y="-231.5" font-family="Helvetica,sans-Serif" font-size="10.00">windows.h</text>
</a>
</g>
</g>
<!-- Node1&#45;&gt;Node19 -->
<g id="edge20" class="edge">
<title>Node1&#45;&gt;Node19</title>
<path fill="none" stroke="midnightblue" d="M585.8,-285.7C787.88,-275.66 1392.59,-245.59 1561.34,-237.2"/>
<polygon fill="midnightblue" stroke="midnightblue" points="1561.54,-240.69 1571.36,-236.7 1561.19,-233.7 1561.54,-240.69"/>
</g>
<!-- Node3 -->
<g id="node3" class="node">
<title>Node3</title>
<g id="a_node3"><a xlink:href="../../dc/da7/assert_8h.html" target="_top" xlink:title=" ">
<polygon fill="none" stroke="black" points="1028.5,-56.5 1028.5,-75.5 1084.5,-75.5 1084.5,-56.5 1028.5,-56.5"/>
<text text-anchor="middle" x="1056.5" y="-63.5" font-family="Helvetica,sans-Serif" font-size="10.00">assert.h</text>
</a>
</g>
</g>
<!-- Node2&#45;&gt;Node3 -->
<g id="edge2" class="edge">
<title>Node2&#45;&gt;Node3</title>
<path fill="none" stroke="midnightblue" d="M395.67,-168.33C380.24,-154.98 355.47,-129.12 371.5,-112 415.86,-64.63 880.67,-65.29 1018.31,-66.54"/>
<polygon fill="midnightblue" stroke="midnightblue" points="1018.35,-70.04 1028.38,-66.64 1018.42,-63.04 1018.35,-70.04"/>
</g>
<!-- Node5 -->
<g id="node5" class="node">
<title>Node5</title>
<g id="a_node5"><a xlink:title=" ">
<polygon fill="none" stroke="#bfbfbf" points="381,-112.5 381,-131.5 432,-131.5 432,-112.5 381,-112.5"/>
<text text-anchor="middle" x="406.5" y="-119.5" font-family="Helvetica,sans-Serif" font-size="10.00">math.h</text>
</a>
</g>
</g>
<!-- Node2&#45;&gt;Node5 -->
<g id="edge4" class="edge">
<title>Node2&#45;&gt;Node5</title>
<path fill="none" stroke="midnightblue" d="M406.5,-168.08C406.5,-161.01 406.5,-150.86 406.5,-141.99"/>
<polygon fill="midnightblue" stroke="midnightblue" points="410,-141.75 406.5,-131.75 403,-141.75 410,-141.75"/>
</g>
<!-- Node6 -->
<g id="node6" class="node">
<title>Node6</title>
<g id="a_node6"><a xlink:title=" ">
<polygon fill="none" stroke="#bfbfbf" points="450.5,-112.5 450.5,-131.5 500.5,-131.5 500.5,-112.5 450.5,-112.5"/>
<text text-anchor="middle" x="475.5" y="-119.5" font-family="Helvetica,sans-Serif" font-size="10.00">stdio.h</text>
</a>
</g>
</g>
<!-- Node2&#45;&gt;Node6 -->
<g id="edge5" class="edge">
<title>Node2&#45;&gt;Node6</title>
<path fill="none" stroke="midnightblue" d="M417.59,-168.32C427.99,-160.18 443.76,-147.84 456.22,-138.09"/>
<polygon fill="midnightblue" stroke="midnightblue" points="458.49,-140.75 464.21,-131.83 454.18,-135.24 458.49,-140.75"/>
</g>
<!-- Node7 -->
<g id="node7" class="node">
<title>Node7</title>
<g id="a_node7"><a xlink:title=" ">
<polygon fill="none" stroke="#bfbfbf" points="799.5,-112.5 799.5,-131.5 855.5,-131.5 855.5,-112.5 799.5,-112.5"/>
<text text-anchor="middle" x="827.5" y="-119.5" font-family="Helvetica,sans-Serif" font-size="10.00">stdarg.h</text>
</a>
</g>
</g>
<!-- Node2&#45;&gt;Node7 -->
<g id="edge6" class="edge">
<title>Node2&#45;&gt;Node7</title>
<path fill="none" stroke="midnightblue" d="M469.21,-169.01C472.01,-168.67 474.79,-168.33 477.5,-168 613.26,-151.59 650.9,-156.35 789.16,-132.04"/>
<polygon fill="midnightblue" stroke="midnightblue" points="790.06,-135.44 799.29,-130.24 788.84,-128.55 790.06,-135.44"/>
</g>
<!-- Node8 -->
<g id="node8" class="node">
<title>Node8</title>
<g id="a_node8"><a xlink:title=" ">
<polygon fill="none" stroke="#bfbfbf" points="519,-112.5 519,-131.5 572,-131.5 572,-112.5 519,-112.5"/>
<text text-anchor="middle" x="545.5" y="-119.5" font-family="Helvetica,sans-Serif" font-size="10.00">string.h</text>
</a>
</g>
</g>
<!-- Node2&#45;&gt;Node8 -->
<g id="edge7" class="edge">
<title>Node2&#45;&gt;Node8</title>
<path fill="none" stroke="midnightblue" d="M428.52,-168.44C451.6,-159.48 488.06,-145.31 514.14,-135.18"/>
<polygon fill="midnightblue" stroke="midnightblue" points="515.52,-138.4 523.58,-131.52 512.99,-131.88 515.52,-138.4"/>
</g>
<!-- Node9 -->
<g id="node9" class="node">
<title>Node9</title>
<g id="a_node9"><a xlink:title=" ">
<polygon fill="none" stroke="#bfbfbf" points="590,-112.5 590,-131.5 643,-131.5 643,-112.5 590,-112.5"/>
<text text-anchor="middle" x="616.5" y="-119.5" font-family="Helvetica,sans-Serif" font-size="10.00">stdlib.h</text>
</a>
</g>
</g>
<!-- Node2&#45;&gt;Node9 -->
<g id="edge8" class="edge">
<title>Node2&#45;&gt;Node9</title>
<path fill="none" stroke="midnightblue" d="M439.78,-168.44C477.97,-158.62 540.42,-142.56 579.94,-132.4"/>
<polygon fill="midnightblue" stroke="midnightblue" points="580.9,-135.77 589.71,-129.89 579.15,-128.99 580.9,-135.77"/>
</g>
<!-- Node10 -->
<g id="node10" class="node">
<title>Node10</title>
<g id="a_node10"><a xlink:title=" ">
<polygon fill="none" stroke="#bfbfbf" points="661.5,-112.5 661.5,-131.5 709.5,-131.5 709.5,-112.5 661.5,-112.5"/>
<text text-anchor="middle" x="685.5" y="-119.5" font-family="Helvetica,sans-Serif" font-size="10.00">time.h</text>
</a>
</g>
</g>
<!-- Node2&#45;&gt;Node10 -->
<g id="edge9" class="edge">
<title>Node2&#45;&gt;Node10</title>
<path fill="none" stroke="midnightblue" d="M460.52,-168.48C508.29,-160.64 580.07,-148.11 651.36,-132.11"/>
<polygon fill="midnightblue" stroke="midnightblue" points="652.43,-135.45 661.41,-129.83 650.88,-128.63 652.43,-135.45"/>
</g>
<!-- Node11 -->
<g id="node11" class="node">
<title>Node11</title>
<g id="a_node11"><a xlink:title=" ">
<polygon fill="none" stroke="#bfbfbf" points="728,-112.5 728,-131.5 781,-131.5 781,-112.5 728,-112.5"/>
<text text-anchor="middle" x="754.5" y="-119.5" font-family="Helvetica,sans-Serif" font-size="10.00">ctype.h</text>
</a>
</g>
</g>
<!-- Node2&#45;&gt;Node11 -->
<g id="edge10" class="edge">
<title>Node2&#45;&gt;Node11</title>
<path fill="none" stroke="midnightblue" d="M469.31,-168.71C541.9,-159 658.02,-143.06 717.71,-131.94"/>
<polygon fill="midnightblue" stroke="midnightblue" points="718.67,-135.32 727.83,-129.99 717.35,-128.44 718.67,-135.32"/>
</g>
<!-- Node12 -->
<g id="node12" class="node">
<title>Node12</title>
<g id="a_node12"><a xlink:title=" ">
<polygon fill="none" stroke="#bfbfbf" points="0,-112.5 0,-131.5 53,-131.5 53,-112.5 0,-112.5"/>
<text text-anchor="middle" x="26.5" y="-119.5" font-family="Helvetica,sans-Serif" font-size="10.00">limits.h</text>
</a>
</g>
</g>
<!-- Node2&#45;&gt;Node12 -->
<g id="edge11" class="edge">
<title>Node2&#45;&gt;Node12</title>
<path fill="none" stroke="midnightblue" d="M343.81,-171.15C276.56,-164.34 166.5,-151.71 63.16,-132.13"/>
<polygon fill="midnightblue" stroke="midnightblue" points="63.66,-128.67 53.18,-130.22 62.34,-135.54 63.66,-128.67"/>
</g>
<!-- Node13 -->
<g id="node13" class="node">
<title>Node13</title>
<g id="a_node13"><a xlink:title=" ">
<polygon fill="none" stroke="#bfbfbf" points="71,-112.5 71,-131.5 124,-131.5 124,-112.5 71,-112.5"/>
<text text-anchor="middle" x="97.5" y="-119.5" font-family="Helvetica,sans-Serif" font-size="10.00">stdint.h</text>
</a>
</g>
</g>
<!-- Node2&#45;&gt;Node13 -->
<g id="edge12" class="edge">
<title>Node2&#45;&gt;Node13</title>
<path fill="none" stroke="midnightblue" d="M345,-168.5C291.56,-160.75 211.89,-148.32 134.16,-132.21"/>
<polygon fill="midnightblue" stroke="midnightblue" points="134.7,-128.75 124.2,-130.13 133.27,-135.6 134.7,-128.75"/>
</g>
<!-- Node14 -->
<g id="node14" class="node">
<title>Node14</title>
<g id="a_node14"><a xlink:href="../../d7/de2/q__platform_8h.html" target="_top" xlink:title=" ">
<polygon fill="none" stroke="black" points="142,-112.5 142,-131.5 221,-131.5 221,-112.5 142,-112.5"/>
<text text-anchor="middle" x="181.5" y="-119.5" font-family="Helvetica,sans-Serif" font-size="10.00">q_platform.h</text>
</a>
</g>
</g>
<!-- Node2&#45;&gt;Node14 -->
<g id="edge13" class="edge">
<title>Node2&#45;&gt;Node14</title>
<path fill="none" stroke="midnightblue" d="M370.85,-168.44C331.84,-159.08 269.23,-144.06 226.78,-133.87"/>
<polygon fill="midnightblue" stroke="midnightblue" points="227.53,-130.45 216.99,-131.52 225.89,-137.25 227.53,-130.45"/>
</g>
<!-- Node15 -->
<g id="node15" class="node">
<title>Node15</title>
<g id="a_node15"><a xlink:href="../../d2/d56/surfaceflags_8h.html" target="_top" xlink:title=" ">
<polygon fill="none" stroke="black" points="239,-112.5 239,-131.5 324,-131.5 324,-112.5 239,-112.5"/>
<text text-anchor="middle" x="281.5" y="-119.5" font-family="Helvetica,sans-Serif" font-size="10.00">surfaceflags.h</text>
</a>
</g>
</g>
<!-- Node2&#45;&gt;Node15 -->
<g id="edge14" class="edge">
<title>Node2&#45;&gt;Node15</title>
<path fill="none" stroke="midnightblue" d="M386.69,-168.44C366.21,-159.6 334.02,-145.69 310.64,-135.59"/>
<polygon fill="midnightblue" stroke="midnightblue" points="311.78,-132.27 301.21,-131.52 309.01,-138.7 311.78,-132.27"/>
</g>
<!-- Node4 -->
<g id="node4" class="node">
<title>Node4</title>
<g id="a_node4"><a xlink:href="../../da/d3d/__mingw_8h.html" target="_top" xlink:title=" ">
<polygon fill="none" stroke="black" points="1682,-0.5 1682,-19.5 1745,-19.5 1745,-0.5 1682,-0.5"/>
<text text-anchor="middle" x="1713.5" y="-7.5" font-family="Helvetica,sans-Serif" font-size="10.00">_mingw.h</text>
</a>
</g>
</g>
<!-- Node3&#45;&gt;Node4 -->
<g id="edge3" class="edge">
<title>Node3&#45;&gt;Node4</title>
<path fill="none" stroke="midnightblue" d="M1084.73,-62.68C1188.43,-54.16 1548.65,-24.55 1671.82,-14.43"/>
<polygon fill="midnightblue" stroke="midnightblue" points="1672.3,-17.9 1681.98,-13.59 1671.72,-10.92 1672.3,-17.9"/>
</g>
<!-- Node17 -->
<g id="node17" class="node">
<title>Node17</title>
<g id="a_node17"><a xlink:title=" ">
<polygon fill="none" stroke="#bfbfbf" points="873.5,-112.5 873.5,-131.5 1003.5,-131.5 1003.5,-112.5 873.5,-112.5"/>
<text text-anchor="middle" x="938.5" y="-119.5" font-family="Helvetica,sans-Serif" font-size="10.00">../../Shared/cm_public.h</text>
</a>
</g>
</g>
<!-- Node16&#45;&gt;Node17 -->
<g id="edge16" class="edge">
<title>Node16&#45;&gt;Node17</title>
<path fill="none" stroke="midnightblue" d="M612.82,-168.44C682.03,-158.79 794.45,-143.1 867.44,-132.92"/>
<polygon fill="midnightblue" stroke="midnightblue" points="868.05,-136.36 877.47,-131.52 867.08,-129.43 868.05,-136.36"/>
</g>
<!-- Node18&#45;&gt;Node2 -->
<g id="edge18" class="edge">
<title>Node18&#45;&gt;Node2</title>
<path fill="none" stroke="midnightblue" d="M474.49,-224.32C461.97,-215.98 442.82,-203.21 428.03,-193.35"/>
<polygon fill="midnightblue" stroke="midnightblue" points="429.74,-190.29 419.48,-187.65 425.86,-196.11 429.74,-190.29"/>
</g>
<!-- Node18&#45;&gt;Node16 -->
<g id="edge19" class="edge">
<title>Node18&#45;&gt;Node16</title>
<path fill="none" stroke="midnightblue" d="M497.78,-224.32C507.34,-216.26 521.78,-204.08 533.28,-194.37"/>
<polygon fill="midnightblue" stroke="midnightblue" points="535.64,-196.96 541.03,-187.83 531.13,-191.61 535.64,-196.96"/>
</g>
<!-- Node19&#45;&gt;Node7 -->
<g id="edge21" class="edge">
<title>Node19&#45;&gt;Node7</title>
<path fill="none" stroke="midnightblue" d="M1639.89,-230.76C1699.34,-225.71 1811.25,-210.4 1770.5,-168 1736.96,-133.1 977.34,-138.48 865.95,-131.39"/>
<polygon fill="midnightblue" stroke="midnightblue" points="865.94,-127.88 855.67,-130.46 865.31,-134.85 865.94,-127.88"/>
</g>
<!-- Node20 -->
<g id="node20" class="node">
<title>Node20</title>
<g id="a_node20"><a xlink:href="../../db/d06/windef_8h.html" target="_top" xlink:title=" ">
<polygon fill="none" stroke="black" points="2305.5,-168.5 2305.5,-187.5 2363.5,-187.5 2363.5,-168.5 2305.5,-168.5"/>
<text text-anchor="middle" x="2334.5" y="-175.5" font-family="Helvetica,sans-Serif" font-size="10.00">windef.h</text>
</a>
</g>
</g>
<!-- Node19&#45;&gt;Node20 -->
<g id="edge22" class="edge">
<title>Node19&#45;&gt;Node20</title>
<path fill="none" stroke="midnightblue" d="M1639.51,-232.8C1739.01,-231.77 2038.2,-225.68 2294.87,-188"/>
<polygon fill="midnightblue" stroke="midnightblue" points="2295.76,-191.4 2305.14,-186.47 2294.73,-184.48 2295.76,-191.4"/>
</g>
<!-- Node28 -->
<g id="node28" class="node">
<title>Node28</title>
<g id="a_node28"><a xlink:href="../../d8/d14/wincon_8h.html" target="_top" xlink:title=" ">
<polygon fill="none" stroke="black" points="2381.5,-168.5 2381.5,-187.5 2441.5,-187.5 2441.5,-168.5 2381.5,-168.5"/>
<text text-anchor="middle" x="2411.5" y="-175.5" font-family="Helvetica,sans-Serif" font-size="10.00">wincon.h</text>
</a>
</g>
</g>
<!-- Node19&#45;&gt;Node28 -->
<g id="edge31" class="edge">
<title>Node19&#45;&gt;Node28</title>
<path fill="none" stroke="midnightblue" d="M1639.73,-233.04C1746.59,-232.72 2083.58,-228.46 2371.15,-187.94"/>
<polygon fill="midnightblue" stroke="midnightblue" points="2371.96,-191.36 2381.36,-186.48 2370.97,-184.43 2371.96,-191.36"/>
</g>
<!-- Node29 -->
<g id="node29" class="node">
<title>Node29</title>
<g id="a_node29"><a xlink:href="../../db/dbb/winbase_8h.html" target="_top" xlink:title=" ">
<polygon fill="none" stroke="black" points="2459.5,-168.5 2459.5,-187.5 2525.5,-187.5 2525.5,-168.5 2459.5,-168.5"/>
<text text-anchor="middle" x="2492.5" y="-175.5" font-family="Helvetica,sans-Serif" font-size="10.00">winbase.h</text>
</a>
</g>
</g>
<!-- Node19&#45;&gt;Node29 -->
<g id="edge32" class="edge">
<title>Node19&#45;&gt;Node29</title>
<path fill="none" stroke="midnightblue" d="M1639.89,-233.11C1753.85,-233.06 2129.57,-229.64 2448.74,-188.02"/>
<polygon fill="midnightblue" stroke="midnightblue" points="2449.66,-191.43 2459.11,-186.65 2448.74,-184.49 2449.66,-191.43"/>
</g>
<!-- Node30 -->
<g id="node30" class="node">
<title>Node30</title>
<g id="a_node30"><a xlink:href="../../de/da2/wingdi_8h.html" target="_top" xlink:title=" ">
<polygon fill="none" stroke="black" points="634.5,-168.5 634.5,-187.5 692.5,-187.5 692.5,-168.5 634.5,-168.5"/>
<text text-anchor="middle" x="663.5" y="-175.5" font-family="Helvetica,sans-Serif" font-size="10.00">wingdi.h</text>
</a>
</g>
</g>
<!-- Node19&#45;&gt;Node30 -->
<g id="edge33" class="edge">
<title>Node19&#45;&gt;Node30</title>
<path fill="none" stroke="midnightblue" d="M1571.26,-233.47C1452.42,-234.63 1046.73,-234.79 702.94,-187.75"/>
<polygon fill="midnightblue" stroke="midnightblue" points="703.17,-184.25 692.78,-186.34 702.21,-191.18 703.17,-184.25"/>
</g>
<!-- Node31 -->
<g id="node31" class="node">
<title>Node31</title>
<g id="a_node31"><a xlink:href="../../da/d64/winuser_8h.html" target="_top" xlink:title=" ">
<polygon fill="none" stroke="black" points="711,-168.5 711,-187.5 774,-187.5 774,-168.5 711,-168.5"/>
<text text-anchor="middle" x="742.5" y="-175.5" font-family="Helvetica,sans-Serif" font-size="10.00">winuser.h</text>
</a>
</g>
</g>
<!-- Node19&#45;&gt;Node31 -->
<g id="edge34" class="edge">
<title>Node19&#45;&gt;Node31</title>
<path fill="none" stroke="midnightblue" d="M1571.25,-233.1C1459.43,-233 1094.86,-229.41 784.29,-187.85"/>
<polygon fill="midnightblue" stroke="midnightblue" points="784.57,-184.36 774.19,-186.49 783.63,-191.3 784.57,-184.36"/>
</g>
<!-- Node32 -->
<g id="node32" class="node">
<title>Node32</title>
<g id="a_node32"><a xlink:href="../../d4/de8/winnls_8h.html" target="_top" xlink:title=" ">
<polygon fill="none" stroke="black" points="792,-168.5 792,-187.5 849,-187.5 849,-168.5 792,-168.5"/>
<text text-anchor="middle" x="820.5" y="-175.5" font-family="Helvetica,sans-Serif" font-size="10.00">winnls.h</text>
</a>
</g>
</g>
<!-- Node19&#45;&gt;Node32 -->
<g id="edge35" class="edge">
<title>Node19&#45;&gt;Node32</title>
<path fill="none" stroke="midnightblue" d="M1571.41,-233.03C1466.49,-232.68 1139.11,-228.32 858.98,-187.77"/>
<polygon fill="midnightblue" stroke="midnightblue" points="859.43,-184.3 849.03,-186.31 858.42,-191.23 859.43,-184.3"/>
</g>
<!-- Node33 -->
<g id="node33" class="node">
<title>Node33</title>
<g id="a_node33"><a xlink:href="../../de/dc6/winver_8h.html" target="_top" xlink:title=" ">
<polygon fill="none" stroke="black" points="867.5,-168.5 867.5,-187.5 925.5,-187.5 925.5,-168.5 867.5,-168.5"/>
<text text-anchor="middle" x="896.5" y="-175.5" font-family="Helvetica,sans-Serif" font-size="10.00">winver.h</text>
</a>
</g>
</g>
<!-- Node19&#45;&gt;Node33 -->
<g id="edge36" class="edge">
<title>Node19&#45;&gt;Node33</title>
<path fill="none" stroke="midnightblue" d="M1571.48,-232.63C1473.98,-231.16 1185.15,-223.99 935.76,-187.76"/>
<polygon fill="midnightblue" stroke="midnightblue" points="936.19,-184.28 925.79,-186.29 935.18,-191.21 936.19,-184.28"/>
</g>
<!-- Node34 -->
<g id="node34" class="node">
<title>Node34</title>
<g id="a_node34"><a xlink:href="../../d0/de1/winnetwk_8h.html" target="_top" xlink:title=" ">
<polygon fill="none" stroke="black" points="944,-168.5 944,-187.5 1017,-187.5 1017,-168.5 944,-168.5"/>
<text text-anchor="middle" x="980.5" y="-175.5" font-family="Helvetica,sans-Serif" font-size="10.00">winnetwk.h</text>
</a>
</g>
</g>
<!-- Node19&#45;&gt;Node34 -->
<g id="edge37" class="edge">
<title>Node19&#45;&gt;Node34</title>
<path fill="none" stroke="midnightblue" d="M1571.42,-231.73C1483.2,-228.15 1240.05,-216.41 1027.21,-187.93"/>
<polygon fill="midnightblue" stroke="midnightblue" points="1027.47,-184.43 1017.09,-186.56 1026.53,-191.37 1027.47,-184.43"/>
</g>
<!-- Node35 -->
<g id="node35" class="node">
<title>Node35</title>
<g id="a_node35"><a xlink:href="../../d0/d77/winreg_8h.html" target="_top" xlink:title=" ">
<polygon fill="none" stroke="black" points="1035,-168.5 1035,-187.5 1094,-187.5 1094,-168.5 1035,-168.5"/>
<text text-anchor="middle" x="1064.5" y="-175.5" font-family="Helvetica,sans-Serif" font-size="10.00">winreg.h</text>
</a>
</g>
</g>
<!-- Node19&#45;&gt;Node35 -->
<g id="edge38" class="edge">
<title>Node19&#45;&gt;Node35</title>
<path fill="none" stroke="midnightblue" d="M1571.21,-231.55C1491.17,-227.83 1285.65,-216.26 1104.22,-187.89"/>
<polygon fill="midnightblue" stroke="midnightblue" points="1104.65,-184.41 1094.23,-186.3 1103.56,-191.33 1104.65,-184.41"/>
</g>
<!-- Node36 -->
<g id="node36" class="node">
<title>Node36</title>
<g id="a_node36"><a xlink:href="../../d8/df3/winsvc_8h.html" target="_top" xlink:title=" ">
<polygon fill="none" stroke="black" points="1112,-168.5 1112,-187.5 1171,-187.5 1171,-168.5 1112,-168.5"/>
<text text-anchor="middle" x="1141.5" y="-175.5" font-family="Helvetica,sans-Serif" font-size="10.00">winsvc.h</text>
</a>
</g>
</g>
<!-- Node19&#45;&gt;Node36 -->
<g id="edge39" class="edge">
<title>Node19&#45;&gt;Node36</title>
<path fill="none" stroke="midnightblue" d="M1571.43,-230.8C1500.62,-225.93 1332.28,-212.79 1181.16,-187.91"/>
<polygon fill="midnightblue" stroke="midnightblue" points="1181.68,-184.45 1171.24,-186.25 1180.52,-191.35 1181.68,-184.45"/>
</g>
<!-- Node37 -->
<g id="node37" class="node">
<title>Node37</title>
<g id="a_node37"><a xlink:href="../../d2/d28/cderr_8h.html" target="_top" xlink:title=" ">
<polygon fill="none" stroke="black" points="1189.5,-168.5 1189.5,-187.5 1239.5,-187.5 1239.5,-168.5 1189.5,-168.5"/>
<text text-anchor="middle" x="1214.5" y="-175.5" font-family="Helvetica,sans-Serif" font-size="10.00">cderr.h</text>
</a>
</g>
</g>
<!-- Node19&#45;&gt;Node37 -->
<g id="edge40" class="edge">
<title>Node19&#45;&gt;Node37</title>
<path fill="none" stroke="midnightblue" d="M1571.3,-230.22C1509.12,-224.83 1373.34,-211.56 1249.68,-188"/>
<polygon fill="midnightblue" stroke="midnightblue" points="1250.15,-184.52 1239.66,-186.06 1248.82,-191.4 1250.15,-184.52"/>
</g>
<!-- Node38 -->
<g id="node38" class="node">
<title>Node38</title>
<g id="a_node38"><a xlink:href="../../d1/df0/dde_8h.html" target="_top" xlink:title=" ">
<polygon fill="none" stroke="black" points="1257.5,-168.5 1257.5,-187.5 1301.5,-187.5 1301.5,-168.5 1257.5,-168.5"/>
<text text-anchor="middle" x="1279.5" y="-175.5" font-family="Helvetica,sans-Serif" font-size="10.00">dde.h</text>
</a>
</g>
</g>
<!-- Node19&#45;&gt;Node38 -->
<g id="edge41" class="edge">
<title>Node19&#45;&gt;Node38</title>
<path fill="none" stroke="midnightblue" d="M1571.16,-229.25C1517.65,-223.07 1411.01,-209.49 1311.66,-188.01"/>
<polygon fill="midnightblue" stroke="midnightblue" points="1312.28,-184.57 1301.76,-185.84 1310.78,-191.4 1312.28,-184.57"/>
</g>
<!-- Node39 -->
<g id="node39" class="node">
<title>Node39</title>
<g id="a_node39"><a xlink:href="../../d4/d66/ddeml_8h.html" target="_top" xlink:title=" ">
<polygon fill="none" stroke="black" points="1319.5,-168.5 1319.5,-187.5 1375.5,-187.5 1375.5,-168.5 1319.5,-168.5"/>
<text text-anchor="middle" x="1347.5" y="-175.5" font-family="Helvetica,sans-Serif" font-size="10.00">ddeml.h</text>
</a>
</g>
</g>
<!-- Node19&#45;&gt;Node39 -->
<g id="edge42" class="edge">
<title>Node19&#45;&gt;Node39</title>
<path fill="none" stroke="midnightblue" d="M1571.34,-226.46C1529.8,-218.41 1457.31,-204.08 1385.83,-188.24"/>
<polygon fill="midnightblue" stroke="midnightblue" points="1386.28,-184.75 1375.76,-185.99 1384.75,-191.58 1386.28,-184.75"/>
</g>
<!-- Node40 -->
<g id="node40" class="node">
<title>Node40</title>
<g id="a_node40"><a xlink:href="../../d8/d45/dlgs_8h.html" target="_top" xlink:title=" ">
<polygon fill="none" stroke="black" points="1393.5,-168.5 1393.5,-187.5 1439.5,-187.5 1439.5,-168.5 1393.5,-168.5"/>
<text text-anchor="middle" x="1416.5" y="-175.5" font-family="Helvetica,sans-Serif" font-size="10.00">dlgs.h</text>
</a>
</g>
</g>
<!-- Node19&#45;&gt;Node40 -->
<g id="edge43" class="edge">
<title>Node19&#45;&gt;Node40</title>
<path fill="none" stroke="midnightblue" d="M1575.55,-224.44C1541.26,-214.65 1485.24,-198.64 1449.65,-188.47"/>
<polygon fill="midnightblue" stroke="midnightblue" points="1450.33,-185.03 1439.75,-185.64 1448.41,-191.76 1450.33,-185.03"/>
</g>
<!-- Node41 -->
<g id="node41" class="node">
<title>Node41</title>
<g id="a_node41"><a xlink:href="../../d6/d69/imm_8h.html" target="_top" xlink:title=" ">
<polygon fill="none" stroke="black" points="1457.5,-168.5 1457.5,-187.5 1505.5,-187.5 1505.5,-168.5 1457.5,-168.5"/>
<text text-anchor="middle" x="1481.5" y="-175.5" font-family="Helvetica,sans-Serif" font-size="10.00">imm.h</text>
</a>
</g>
</g>
<!-- Node19&#45;&gt;Node41 -->
<g id="edge44" class="edge">
<title>Node19&#45;&gt;Node41</title>
<path fill="none" stroke="midnightblue" d="M1585.85,-224.44C1565.54,-215.6 1533.6,-201.69 1510.4,-191.59"/>
<polygon fill="midnightblue" stroke="midnightblue" points="1511.62,-188.3 1501.06,-187.52 1508.83,-194.72 1511.62,-188.3"/>
</g>
<!-- Node42 -->
<g id="node42" class="node">
<title>Node42</title>
<g id="a_node42"><a xlink:href="../../d1/d29/lzexpand_8h.html" target="_top" xlink:title=" ">
<polygon fill="none" stroke="black" points="1523.5,-168.5 1523.5,-187.5 1593.5,-187.5 1593.5,-168.5 1523.5,-168.5"/>
<text text-anchor="middle" x="1558.5" y="-175.5" font-family="Helvetica,sans-Serif" font-size="10.00">lzexpand.h</text>
</a>
</g>
</g>
<!-- Node19&#45;&gt;Node42 -->
<g id="edge45" class="edge">
<title>Node19&#45;&gt;Node42</title>
<path fill="none" stroke="midnightblue" d="M1597.74,-224.08C1590.96,-216.3 1580.96,-204.8 1572.74,-195.37"/>
<polygon fill="midnightblue" stroke="midnightblue" points="1575.32,-193 1566.12,-187.75 1570.04,-197.59 1575.32,-193"/>
</g>
<!-- Node43 -->
<g id="node43" class="node">
<title>Node43</title>
<g id="a_node43"><a xlink:href="../../dd/d24/mmsystem_8h.html" target="_top" xlink:title=" ">
<polygon fill="none" stroke="black" points="1612,-168.5 1612,-187.5 1693,-187.5 1693,-168.5 1612,-168.5"/>
<text text-anchor="middle" x="1652.5" y="-175.5" font-family="Helvetica,sans-Serif" font-size="10.00">mmsystem.h</text>
</a>
</g>
</g>
<!-- Node19&#45;&gt;Node43 -->
<g id="edge46" class="edge">
<title>Node19&#45;&gt;Node43</title>
<path fill="none" stroke="midnightblue" d="M1613.26,-224.08C1620.04,-216.3 1630.04,-204.8 1638.26,-195.37"/>
<polygon fill="midnightblue" stroke="midnightblue" points="1640.96,-197.59 1644.88,-187.75 1635.68,-193 1640.96,-197.59"/>
</g>
<!-- Node44 -->
<g id="node44" class="node">
<title>Node44</title>
<g id="a_node44"><a xlink:href="../../d3/d10/nb30_8h.html" target="_top" xlink:title=" ">
<polygon fill="none" stroke="black" points="1711.5,-168.5 1711.5,-187.5 1761.5,-187.5 1761.5,-168.5 1711.5,-168.5"/>
<text text-anchor="middle" x="1736.5" y="-175.5" font-family="Helvetica,sans-Serif" font-size="10.00">nb30.h</text>
</a>
</g>
</g>
<!-- Node19&#45;&gt;Node44 -->
<g id="edge47" class="edge">
<title>Node19&#45;&gt;Node44</title>
<path fill="none" stroke="midnightblue" d="M1626.26,-224.44C1647.82,-215.56 1681.76,-201.56 1706.29,-191.45"/>
<polygon fill="midnightblue" stroke="midnightblue" points="1707.93,-194.56 1715.84,-187.52 1705.26,-188.09 1707.93,-194.56"/>
</g>
<!-- Node45 -->
<g id="node45" class="node">
<title>Node45</title>
<g id="a_node45"><a xlink:href="../../d0/d44/rpc_8h.html" target="_top" xlink:title=" ">
<polygon fill="none" stroke="black" points="1818,-168.5 1818,-187.5 1859,-187.5 1859,-168.5 1818,-168.5"/>
<text text-anchor="middle" x="1838.5" y="-175.5" font-family="Helvetica,sans-Serif" font-size="10.00">rpc.h</text>
</a>
</g>
</g>
<!-- Node19&#45;&gt;Node45 -->
<g id="edge48" class="edge">
<title>Node19&#45;&gt;Node45</title>
<path fill="none" stroke="midnightblue" d="M1637.87,-224.44C1675.64,-215.62 1739.51,-201.32 1794.5,-188 1798.8,-186.96 1803.39,-185.81 1807.97,-184.69"/>
<polygon fill="midnightblue" stroke="midnightblue" points="1808.94,-188.05 1817.86,-182.34 1807.32,-181.24 1808.94,-188.05"/>
</g>
<!-- Node51 -->
<g id="node51" class="node">
<title>Node51</title>
<g id="a_node51"><a xlink:href="../../df/dd3/shellapi_8h.html" target="_top" xlink:title=" ">
<polygon fill="none" stroke="black" points="2223.5,-168.5 2223.5,-187.5 2287.5,-187.5 2287.5,-168.5 2223.5,-168.5"/>
<text text-anchor="middle" x="2255.5" y="-175.5" font-family="Helvetica,sans-Serif" font-size="10.00">shellapi.h</text>
</a>
</g>
</g>
<!-- Node19&#45;&gt;Node51 -->
<g id="edge56" class="edge">
<title>Node19&#45;&gt;Node51</title>
<path fill="none" stroke="midnightblue" d="M1639.69,-232.18C1731.19,-229.62 1989.37,-220.02 2213.38,-187.96"/>
<polygon fill="midnightblue" stroke="midnightblue" points="2213.96,-191.41 2223.35,-186.51 2212.95,-184.48 2213.96,-191.41"/>
</g>
<!-- Node53 -->
<g id="node53" class="node">
<title>Node53</title>
<g id="a_node53"><a xlink:href="../../d4/ddc/winperf_8h.html" target="_top" xlink:title=" ">
<polygon fill="none" stroke="black" points="1877.5,-168.5 1877.5,-187.5 1939.5,-187.5 1939.5,-168.5 1877.5,-168.5"/>
<text text-anchor="middle" x="1908.5" y="-175.5" font-family="Helvetica,sans-Serif" font-size="10.00">winperf.h</text>
</a>
</g>
</g>
<!-- Node19&#45;&gt;Node53 -->
<g id="edge59" class="edge">
<title>Node19&#45;&gt;Node53</title>
<path fill="none" stroke="midnightblue" d="M1639.65,-227.74C1688.09,-220.14 1779.77,-205.31 1867.27,-188.17"/>
<polygon fill="midnightblue" stroke="midnightblue" points="1867.96,-191.6 1877.09,-186.23 1866.6,-184.73 1867.96,-191.6"/>
</g>
<!-- Node54 -->
<g id="node54" class="node">
<title>Node54</title>
<g id="a_node54"><a xlink:href="../../d5/ded/commdlg_8h.html" target="_top" xlink:title=" ">
<polygon fill="none" stroke="black" points="1958,-168.5 1958,-187.5 2029,-187.5 2029,-168.5 1958,-168.5"/>
<text text-anchor="middle" x="1993.5" y="-175.5" font-family="Helvetica,sans-Serif" font-size="10.00">commdlg.h</text>
</a>
</g>
</g>
<!-- Node19&#45;&gt;Node54 -->
<g id="edge60" class="edge">
<title>Node19&#45;&gt;Node54</title>
<path fill="none" stroke="midnightblue" d="M1639.69,-229.28C1699.82,-222.58 1828.62,-207.48 1947.66,-188.04"/>
<polygon fill="midnightblue" stroke="midnightblue" points="1948.38,-191.47 1957.68,-186.39 1947.24,-184.56 1948.38,-191.47"/>
</g>
<!-- Node55 -->
<g id="node55" class="node">
<title>Node55</title>
<g id="a_node55"><a xlink:href="../../d4/d0c/winspool_8h.html" target="_top" xlink:title=" ">
<polygon fill="none" stroke="black" points="2047,-168.5 2047,-187.5 2116,-187.5 2116,-168.5 2047,-168.5"/>
<text text-anchor="middle" x="2081.5" y="-175.5" font-family="Helvetica,sans-Serif" font-size="10.00">winspool.h</text>
</a>
</g>
</g>
<!-- Node19&#45;&gt;Node55 -->
<g id="edge61" class="edge">
<title>Node19&#45;&gt;Node55</title>
<path fill="none" stroke="midnightblue" d="M1639.62,-230.65C1711.36,-225.46 1883.24,-211.67 2036.74,-188.14"/>
<polygon fill="midnightblue" stroke="midnightblue" points="2037.48,-191.57 2046.82,-186.58 2036.4,-184.65 2037.48,-191.57"/>
</g>
<!-- Node56 -->
<g id="node56" class="node">
<title>Node56</title>
<g id="a_node56"><a xlink:href="../../dd/d21/winsock2_8h.html" target="_top" xlink:title=" ">
<polygon fill="none" stroke="black" points="2134,-168.5 2134,-187.5 2205,-187.5 2205,-168.5 2134,-168.5"/>
<text text-anchor="middle" x="2169.5" y="-175.5" font-family="Helvetica,sans-Serif" font-size="10.00">winsock2.h</text>
</a>
</g>
</g>
<!-- Node19&#45;&gt;Node56 -->
<g id="edge62" class="edge">
<title>Node19&#45;&gt;Node56</title>
<path fill="none" stroke="midnightblue" d="M1639.73,-231.17C1722.27,-226.75 1937.82,-213.92 2116.5,-188 2118.84,-187.66 2121.25,-187.27 2123.69,-186.86"/>
<polygon fill="midnightblue" stroke="midnightblue" points="2124.58,-190.25 2133.79,-185.02 2123.33,-183.37 2124.58,-190.25"/>
</g>
<!-- Node21 -->
<g id="node21" class="node">
<title>Node21</title>
<g id="a_node21"><a xlink:href="../../d9/dfa/winnt_8h.html" target="_top" xlink:title=" ">
<polygon fill="none" stroke="black" points="2296,-112.5 2296,-131.5 2349,-131.5 2349,-112.5 2296,-112.5"/>
<text text-anchor="middle" x="2322.5" y="-119.5" font-family="Helvetica,sans-Serif" font-size="10.00">winnt.h</text>
</a>
</g>
</g>
<!-- Node20&#45;&gt;Node21 -->
<g id="edge23" class="edge">
<title>Node20&#45;&gt;Node21</title>
<path fill="none" stroke="midnightblue" d="M2332.52,-168.08C2330.93,-160.93 2328.64,-150.64 2326.65,-141.69"/>
<polygon fill="midnightblue" stroke="midnightblue" points="2330.03,-140.75 2324.44,-131.75 2323.2,-142.27 2330.03,-140.75"/>
</g>
<!-- Node22 -->
<g id="node22" class="node">
<title>Node22</title>
<g id="a_node22"><a xlink:href="../../d4/ded/winerror_8h.html" target="_top" xlink:title=" ">
<polygon fill="none" stroke="black" points="2007,-56.5 2007,-75.5 2072,-75.5 2072,-56.5 2007,-56.5"/>
<text text-anchor="middle" x="2039.5" y="-63.5" font-family="Helvetica,sans-Serif" font-size="10.00">winerror.h</text>
</a>
</g>
</g>
<!-- Node21&#45;&gt;Node22 -->
<g id="edge24" class="edge">
<title>Node21&#45;&gt;Node22</title>
<path fill="none" stroke="midnightblue" d="M2295.88,-115.92C2246.81,-106.56 2141.73,-86.51 2082.46,-75.2"/>
<polygon fill="midnightblue" stroke="midnightblue" points="2082.78,-71.7 2072.3,-73.26 2081.47,-78.57 2082.78,-71.7"/>
</g>
<!-- Node23 -->
<g id="node23" class="node">
<title>Node23</title>
<g id="a_node23"><a xlink:href="../../d7/de6/include_2string_8h.html" target="_top" xlink:title=" ">
<polygon fill="none" stroke="black" points="2420,-56.5 2420,-75.5 2473,-75.5 2473,-56.5 2420,-56.5"/>
<text text-anchor="middle" x="2446.5" y="-63.5" font-family="Helvetica,sans-Serif" font-size="10.00">string.h</text>
</a>
</g>
</g>
<!-- Node21&#45;&gt;Node23 -->
<g id="edge25" class="edge">
<title>Node21&#45;&gt;Node23</title>
<path fill="none" stroke="midnightblue" d="M2342.15,-112.44C2362.46,-103.6 2394.4,-89.69 2417.6,-79.59"/>
<polygon fill="midnightblue" stroke="midnightblue" points="2419.17,-82.72 2426.94,-75.52 2416.38,-76.3 2419.17,-82.72"/>
</g>
<!-- Node25 -->
<g id="node25" class="node">
<title>Node25</title>
<g id="a_node25"><a xlink:href="../../db/de8/basetsd_8h.html" target="_top" xlink:title=" ">
<polygon fill="none" stroke="black" points="2247.5,-56.5 2247.5,-75.5 2311.5,-75.5 2311.5,-56.5 2247.5,-56.5"/>
<text text-anchor="middle" x="2279.5" y="-63.5" font-family="Helvetica,sans-Serif" font-size="10.00">basetsd.h</text>
</a>
</g>
</g>
<!-- Node21&#45;&gt;Node25 -->
<g id="edge28" class="edge">
<title>Node21&#45;&gt;Node25</title>
<path fill="none" stroke="midnightblue" d="M2315.4,-112.08C2309.26,-104.38 2300.23,-93.03 2292.76,-83.65"/>
<polygon fill="midnightblue" stroke="midnightblue" points="2295.44,-81.39 2286.47,-75.75 2289.96,-85.75 2295.44,-81.39"/>
</g>
<!-- Node26 -->
<g id="node26" class="node">
<title>Node26</title>
<g id="a_node26"><a xlink:href="../../dd/d76/pshpack4_8h.html" target="_top" xlink:title=" ">
<polygon fill="none" stroke="black" points="2329.5,-56.5 2329.5,-75.5 2401.5,-75.5 2401.5,-56.5 2329.5,-56.5"/>
<text text-anchor="middle" x="2365.5" y="-63.5" font-family="Helvetica,sans-Serif" font-size="10.00">pshpack4.h</text>
</a>
</g>
</g>
<!-- Node21&#45;&gt;Node26 -->
<g id="edge29" class="edge">
<title>Node21&#45;&gt;Node26</title>
<path fill="none" stroke="midnightblue" d="M2329.6,-112.08C2335.74,-104.38 2344.77,-93.03 2352.24,-83.65"/>
<polygon fill="midnightblue" stroke="midnightblue" points="2355.04,-85.75 2358.53,-75.75 2349.56,-81.39 2355.04,-85.75"/>
</g>
<!-- Node27 -->
<g id="node27" class="node">
<title>Node27</title>
<g id="a_node27"><a xlink:href="../../d3/df1/poppack_8h.html" target="_top" xlink:title=" ">
<polygon fill="none" stroke="black" points="2162,-56.5 2162,-75.5 2229,-75.5 2229,-56.5 2162,-56.5"/>
<text text-anchor="middle" x="2195.5" y="-63.5" font-family="Helvetica,sans-Serif" font-size="10.00">poppack.h</text>
</a>
</g>
</g>
<!-- Node21&#45;&gt;Node27 -->
<g id="edge30" class="edge">
<title>Node21&#45;&gt;Node27</title>
<path fill="none" stroke="midnightblue" d="M2302.38,-112.44C2281.48,-103.56 2248.57,-89.56 2224.78,-79.45"/>
<polygon fill="midnightblue" stroke="midnightblue" points="2226.1,-76.21 2215.53,-75.52 2223.36,-82.65 2226.1,-76.21"/>
</g>
<!-- Node23&#45;&gt;Node4 -->
<g id="edge26" class="edge">
<title>Node23&#45;&gt;Node4</title>
<path fill="none" stroke="midnightblue" d="M2419.87,-57.77C2416.73,-57.09 2413.56,-56.48 2410.5,-56 2164.4,-17.61 1864.49,-11.86 1755.57,-11.08"/>
<polygon fill="midnightblue" stroke="midnightblue" points="1755.35,-7.58 1745.33,-11.02 1755.31,-14.58 1755.35,-7.58"/>
</g>
<!-- Node24 -->
<g id="node24" class="node">
<title>Node24</title>
<g id="a_node24"><a xlink:href="../../d3/dce/stddef_8h.html" target="_top" xlink:title=" ">
<polygon fill="none" stroke="black" points="2418.5,-0.5 2418.5,-19.5 2474.5,-19.5 2474.5,-0.5 2418.5,-0.5"/>
<text text-anchor="middle" x="2446.5" y="-7.5" font-family="Helvetica,sans-Serif" font-size="10.00">stddef.h</text>
</a>
</g>
</g>
<!-- Node23&#45;&gt;Node24 -->
<g id="edge27" class="edge">
<title>Node23&#45;&gt;Node24</title>
<path fill="none" stroke="midnightblue" d="M2446.5,-56.08C2446.5,-49.01 2446.5,-38.86 2446.5,-29.99"/>
<polygon fill="midnightblue" stroke="midnightblue" points="2450,-29.75 2446.5,-19.75 2443,-29.75 2450,-29.75"/>
</g>
<!-- Node45&#45;&gt;Node19 -->
<g id="edge49" class="edge">
<title>Node45&#45;&gt;Node19</title>
<path fill="none" stroke="midnightblue" d="M1817.72,-186.72C1815.96,-187.16 1814.21,-187.59 1812.5,-188 1756.79,-201.49 1691.98,-216 1649.79,-224.79"/>
<polygon fill="midnightblue" stroke="midnightblue" points="1648.92,-221.39 1639.83,-226.84 1650.33,-228.25 1648.92,-221.39"/>
</g>
<!-- Node45&#45;&gt;Node22 -->
<g id="edge55" class="edge">
<title>Node45&#45;&gt;Node22</title>
<path fill="none" stroke="midnightblue" d="M1846.73,-168.29C1860.05,-154.65 1887.64,-128.12 1915.5,-112 1941.02,-97.23 1972.24,-85.93 1996.97,-78.35"/>
<polygon fill="midnightblue" stroke="midnightblue" points="1998.2,-81.64 2006.79,-75.43 1996.2,-74.93 1998.2,-81.64"/>
</g>
<!-- Node46 -->
<g id="node46" class="node">
<title>Node46</title>
<g id="a_node46"><a xlink:href="../../df/def/rpcdce_8h.html" target="_top" xlink:title=" ">
<polygon fill="none" stroke="black" points="1809.5,-112.5 1809.5,-131.5 1867.5,-131.5 1867.5,-112.5 1809.5,-112.5"/>
<text text-anchor="middle" x="1838.5" y="-119.5" font-family="Helvetica,sans-Serif" font-size="10.00">rpcdce.h</text>
</a>
</g>
</g>
<!-- Node45&#45;&gt;Node46 -->
<g id="edge50" class="edge">
<title>Node45&#45;&gt;Node46</title>
<path fill="none" stroke="midnightblue" d="M1838.5,-168.08C1838.5,-161.01 1838.5,-150.86 1838.5,-141.99"/>
<polygon fill="midnightblue" stroke="midnightblue" points="1842,-141.75 1838.5,-131.75 1835,-141.75 1842,-141.75"/>
</g>
<!-- Node49 -->
<g id="node49" class="node">
<title>Node49</title>
<g id="a_node49"><a xlink:href="../../d5/dd9/rpcnsi_8h.html" target="_top" xlink:title=" ">
<polygon fill="none" stroke="black" points="1924,-112.5 1924,-131.5 1979,-131.5 1979,-112.5 1924,-112.5"/>
<text text-anchor="middle" x="1951.5" y="-119.5" font-family="Helvetica,sans-Serif" font-size="10.00">rpcnsi.h</text>
</a>
</g>
</g>
<!-- Node45&#45;&gt;Node49 -->
<g id="edge53" class="edge">
<title>Node45&#45;&gt;Node49</title>
<path fill="none" stroke="midnightblue" d="M1856.41,-168.44C1874.75,-159.68 1903.51,-145.94 1924.59,-135.86"/>
<polygon fill="midnightblue" stroke="midnightblue" points="1926.17,-138.99 1933.68,-131.52 1923.15,-132.67 1926.17,-138.99"/>
</g>
<!-- Node50 -->
<g id="node50" class="node">
<title>Node50</title>
<g id="a_node50"><a xlink:href="../../d7/d87/rpcnterr_8h.html" target="_top" xlink:title=" ">
<polygon fill="none" stroke="black" points="1728,-112.5 1728,-131.5 1791,-131.5 1791,-112.5 1728,-112.5"/>
<text text-anchor="middle" x="1759.5" y="-119.5" font-family="Helvetica,sans-Serif" font-size="10.00">rpcnterr.h</text>
</a>
</g>
</g>
<!-- Node45&#45;&gt;Node50 -->
<g id="edge54" class="edge">
<title>Node45&#45;&gt;Node50</title>
<path fill="none" stroke="midnightblue" d="M1825.81,-168.32C1813.6,-159.98 1794.92,-147.21 1780.5,-137.35"/>
<polygon fill="midnightblue" stroke="midnightblue" points="1782.39,-134.41 1772.16,-131.65 1778.44,-140.19 1782.39,-134.41"/>
</g>
<!-- Node47 -->
<g id="node47" class="node">
<title>Node47</title>
<g id="a_node47"><a xlink:href="../../d3/d89/basetyps_8h.html" target="_top" xlink:title=" ">
<polygon fill="none" stroke="black" points="1845.5,-56.5 1845.5,-75.5 1915.5,-75.5 1915.5,-56.5 1845.5,-56.5"/>
<text text-anchor="middle" x="1880.5" y="-63.5" font-family="Helvetica,sans-Serif" font-size="10.00">basetyps.h</text>
</a>
</g>
</g>
<!-- Node46&#45;&gt;Node47 -->
<g id="edge51" class="edge">
<title>Node46&#45;&gt;Node47</title>
<path fill="none" stroke="midnightblue" d="M1845.44,-112.08C1851.43,-104.38 1860.25,-93.03 1867.55,-83.65"/>
<polygon fill="midnightblue" stroke="midnightblue" points="1870.32,-85.79 1873.69,-75.75 1864.79,-81.5 1870.32,-85.79"/>
</g>
<!-- Node48 -->
<g id="node48" class="node">
<title>Node48</title>
<g id="a_node48"><a xlink:href="../../d3/de5/rpcdcep_8h.html" target="_top" xlink:title=" ">
<polygon fill="none" stroke="black" points="1763.5,-56.5 1763.5,-75.5 1827.5,-75.5 1827.5,-56.5 1763.5,-56.5"/>
<text text-anchor="middle" x="1795.5" y="-63.5" font-family="Helvetica,sans-Serif" font-size="10.00">rpcdcep.h</text>
</a>
</g>
</g>
<!-- Node46&#45;&gt;Node48 -->
<g id="edge52" class="edge">
<title>Node46&#45;&gt;Node48</title>
<path fill="none" stroke="midnightblue" d="M1831.4,-112.08C1825.26,-104.38 1816.23,-93.03 1808.76,-83.65"/>
<polygon fill="midnightblue" stroke="midnightblue" points="1811.44,-81.39 1802.47,-75.75 1805.96,-85.75 1811.44,-81.39"/>
</g>
<!-- Node51&#45;&gt;Node27 -->
<g id="edge58" class="edge">
<title>Node51&#45;&gt;Node27</title>
<path fill="none" stroke="midnightblue" d="M2254.21,-168.09C2252.05,-155.09 2246.86,-130.45 2236.5,-112 2230.38,-101.11 2221.17,-90.68 2213.03,-82.61"/>
<polygon fill="midnightblue" stroke="midnightblue" points="2215.35,-79.99 2205.69,-75.65 2210.54,-85.07 2215.35,-79.99"/>
</g>
<!-- Node52 -->
<g id="node52" class="node">
<title>Node52</title>
<g id="a_node52"><a xlink:href="../../da/d4f/pshpack2_8h.html" target="_top" xlink:title=" ">
<polygon fill="none" stroke="black" points="2155.5,-112.5 2155.5,-131.5 2227.5,-131.5 2227.5,-112.5 2155.5,-112.5"/>
<text text-anchor="middle" x="2191.5" y="-119.5" font-family="Helvetica,sans-Serif" font-size="10.00">pshpack2.h</text>
</a>
</g>
</g>
<!-- Node51&#45;&gt;Node52 -->
<g id="edge57" class="edge">
<title>Node51&#45;&gt;Node52</title>
<path fill="none" stroke="midnightblue" d="M2245.22,-168.32C2235.66,-160.26 2221.22,-148.08 2209.72,-138.37"/>
<polygon fill="midnightblue" stroke="midnightblue" points="2211.87,-135.61 2201.97,-131.83 2207.36,-140.96 2211.87,-135.61"/>
</g>
<!-- Node56&#45;&gt;Node19 -->
<g id="edge63" class="edge">
<title>Node56&#45;&gt;Node19</title>
<path fill="none" stroke="midnightblue" d="M2137.77,-187.5C2136.67,-187.68 2135.58,-187.84 2134.5,-188 1956.15,-213.87 1741.08,-226.7 1649.76,-231.14"/>
<polygon fill="midnightblue" stroke="midnightblue" points="1649.33,-227.66 1639.51,-231.63 1649.66,-234.65 1649.33,-227.66"/>
</g>
</g>
</svg>
        <g id="navigator" transform="translate(0 0)" fill="#404254">
                <rect fill="#f2f5e9" fill-opacity="0.5" stroke="#606060" stroke-width=".5" x="0" y="0" width="60" height="60"/>
                <use id="zoomplus" xlink:href="#zoomPlus" x="17" y="9" onmousedown="handleZoom(evt,'in')"/>
                <use id="zoomminus" xlink:href="#zoomMin" x="42" y="9" onmousedown="handleZoom(evt,'out')"/>
                <use id="reset" xlink:href="#resetDef" x="30" y="36" onmousedown="handleReset()"/>
                <g id="arrowUp" xlink:href="#dirArrow" transform="translate(30 24)" onmousedown="handlePan(0,-1)">
                  <use xlink:href="#rim" fill="#404040">
                        <set attributeName="fill" to="#808080" begin="arrowUp.mouseover" end="arrowUp.mouseout"/>
                  </use>
                  <path fill="none" stroke="white" stroke-width="1.5" d="M0,-3.0v7 M-2.5,-0.5L0,-3.0L2.5,-0.5"/>
                </g>
                <g id="arrowRight" xlink:href="#dirArrow" transform="rotate(90) translate(36 -43)" onmousedown="handlePan(1,0)">
                  <use xlink:href="#rim" fill="#404040">
                        <set attributeName="fill" to="#808080" begin="arrowRight.mouseover" end="arrowRight.mouseout"/>
                  </use>
                  <path fill="none" stroke="white" stroke-width="1.5" d="M0,-3.0v7 M-2.5,-0.5L0,-3.0L2.5,-0.5"/>
                </g>
                <g id="arrowDown" xlink:href="#dirArrow" transform="rotate(180) translate(-30 -48)" onmousedown="handlePan(0,1)">
                  <use xlink:href="#rim" fill="#404040">
                        <set attributeName="fill" to="#808080" begin="arrowDown.mouseover" end="arrowDown.mouseout"/>
                  </use>
                  <path fill="none" stroke="white" stroke-width="1.5" d="M0,-3.0v7 M-2.5,-0.5L0,-3.0L2.5,-0.5"/>
                </g>
                <g id="arrowLeft" xlink:href="#dirArrow" transform="rotate(270) translate(-36 17)" onmousedown="handlePan(-1,0)">
                  <use xlink:href="#rim" fill="#404040">
                        <set attributeName="fill" to="#808080" begin="arrowLeft.mouseover" end="arrowLeft.mouseout"/>
                  </use>
                  <path fill="none" stroke="white" stroke-width="1.5" d="M0,-3.0v7 M-2.5,-0.5L0,-3.0L2.5,-0.5"/>
                </g>
        </g>
        <svg viewBox="0 0 15 15" width="100%" height="30px" preserveAspectRatio="xMaxYMin meet">
         <g id="arrow_out" transform="scale(0.3 0.3)">
          <a xlink:href="con__win32_8c__incl_org.svg" target="_base">
           <rect id="button" ry="5" rx="5" y="6" x="6" height="38" width="38"
                fill="#f2f5e9" fill-opacity="0.5" stroke="#606060" stroke-width="1.0"/>
           <path id="arrow"
             d="M 11.500037,31.436501 C 11.940474,20.09759 22.043105,11.32322 32.158766,21.979434 L 37.068811,17.246167 C 37.068811,17.246167 37.088388,32 37.088388,32 L 22.160133,31.978069 C 22.160133,31.978069 26.997745,27.140456 26.997745,27.140456 C 18.528582,18.264221 13.291696,25.230495 11.500037,31.436501 z"
             style="fill:#404040;"/>
          </a>
         </g>
        </svg>
</svg>
