<?xml version="1.0" encoding="UTF-8" standalone="no"?>
<!DOCTYPE svg PUBLIC "-//W3C//DTD SVG 1.1//EN"
 "http://www.w3.org/Graphics/SVG/1.1/DTD/svg11.dtd">
<!-- Generated by graphviz version 2.43.0 (0)
 -->
<!-- Title: tierConfig_g Pages: 1 -->
<svg width="479pt" height="227pt"
 viewBox="0.00 0.00 479.00 227.00" xmlns="http://www.w3.org/2000/svg" xmlns:xlink="http://www.w3.org/1999/xlink">
<g id="graph0" class="graph" transform="scale(1 1) rotate(0) translate(4 223)">
<title>tierConfig_g</title>
<!-- Node1 -->
<g id="node1" class="node">
<title>Node1</title>
<g id="a_node1"><a xlink:title=" ">
<polygon fill="#bfbfbf" stroke="black" points="145.5,-0.5 145.5,-19.5 220.5,-19.5 220.5,-0.5 145.5,-0.5"/>
<text text-anchor="middle" x="183" y="-7.5" font-family="Helvetica,sans-Serif" font-size="10.00">tierConfig_g</text>
</a>
</g>
</g>
<!-- Node2 -->
<g id="node2" class="node">
<title>Node2</title>
<g id="a_node2"><a xlink:title=" ">
<polygon fill="none" stroke="#bfbfbf" points="0,-199.5 0,-218.5 38,-218.5 38,-199.5 0,-199.5"/>
<text text-anchor="middle" x="19" y="-206.5" font-family="Helvetica,sans-Serif" font-size="10.00">float</text>
</a>
</g>
</g>
<!-- Node2&#45;&gt;Node1 -->
<g id="edge1" class="edge">
<title>Node2&#45;&gt;Node1</title>
<path fill="none" stroke="#9a32cd" stroke-dasharray="5,2" d="M14.62,-188.92C7.84,-154.01 -0.7,-79.62 38,-38 52.25,-22.67 107.45,-15.91 145.47,-13.02"/>
<polygon fill="#9a32cd" stroke="#9a32cd" points="11.29,-190.08 16.78,-199.14 18.14,-188.64 11.29,-190.08"/>
<text text-anchor="start" x="38" y="-173" font-family="Helvetica,sans-Serif" font-size="10.00"> transformSubsequentHealth</text>
<text text-anchor="middle" x="108.5" y="-162" font-family="Helvetica,sans-Serif" font-size="10.00">Scale</text>
<text text-anchor="middle" x="108.5" y="-151" font-family="Helvetica,sans-Serif" font-size="10.00">effectHealth</text>
<text text-anchor="middle" x="108.5" y="-140" font-family="Helvetica,sans-Serif" font-size="10.00">airBrakeCost</text>
<text text-anchor="middle" x="108.5" y="-129" font-family="Helvetica,sans-Serif" font-size="10.00">transformTime</text>
<text text-anchor="middle" x="108.5" y="-118" font-family="Helvetica,sans-Serif" font-size="10.00">zanzokenSpeed</text>
<text text-anchor="middle" x="108.5" y="-107" font-family="Helvetica,sans-Serif" font-size="10.00">zanzokenQuickCost</text>
<text text-anchor="start" x="38" y="-96" font-family="Helvetica,sans-Serif" font-size="10.00">transformSubsequentFatigue</text>
<text text-anchor="middle" x="108.5" y="-85" font-family="Helvetica,sans-Serif" font-size="10.00">Scale</text>
<text text-anchor="middle" x="108.5" y="-74" font-family="Helvetica,sans-Serif" font-size="10.00">effectMaximum</text>
<text text-anchor="middle" x="108.5" y="-63" font-family="Helvetica,sans-Serif" font-size="10.00">zanzokenCost</text>
<text text-anchor="middle" x="108.5" y="-52" font-family="Helvetica,sans-Serif" font-size="10.00">effectFatigue</text>
<text text-anchor="middle" x="108.5" y="-41" font-family="Helvetica,sans-Serif" font-size="10.00">...</text>
</g>
<!-- Node3 -->
<g id="node3" class="node">
<title>Node3</title>
<g id="a_node3"><a xlink:title=" ">
<polygon fill="none" stroke="#bfbfbf" points="168.5,-199.5 168.5,-218.5 197.5,-218.5 197.5,-199.5 168.5,-199.5"/>
<text text-anchor="middle" x="183" y="-206.5" font-family="Helvetica,sans-Serif" font-size="10.00">int</text>
</a>
</g>
</g>
<!-- Node3&#45;&gt;Node1 -->
<g id="edge2" class="edge">
<title>Node3&#45;&gt;Node1</title>
<path fill="none" stroke="#9a32cd" stroke-dasharray="5,2" d="M183,-189.16C183,-147.58 183,-49.28 183,-19.62"/>
<polygon fill="#9a32cd" stroke="#9a32cd" points="179.5,-189.28 183,-199.28 186.5,-189.28 179.5,-189.28"/>
<text text-anchor="middle" x="249.5" y="-162" font-family="Helvetica,sans-Serif" font-size="10.00"> sustainCurrentPercent</text>
<text text-anchor="middle" x="249.5" y="-151" font-family="Helvetica,sans-Serif" font-size="10.00">requirementCurrentPercent</text>
<text text-anchor="middle" x="249.5" y="-140" font-family="Helvetica,sans-Serif" font-size="10.00">speed</text>
<text text-anchor="middle" x="249.5" y="-129" font-family="Helvetica,sans-Serif" font-size="10.00">capabilities</text>
<text text-anchor="middle" x="249.5" y="-118" font-family="Helvetica,sans-Serif" font-size="10.00">transformFirstDuration</text>
<text text-anchor="middle" x="249.5" y="-107" font-family="Helvetica,sans-Serif" font-size="10.00">sustainHealth</text>
<text text-anchor="middle" x="249.5" y="-96" font-family="Helvetica,sans-Serif" font-size="10.00">requirementCurrent</text>
<text text-anchor="middle" x="249.5" y="-85" font-family="Helvetica,sans-Serif" font-size="10.00">meleeDistance</text>
<text text-anchor="middle" x="249.5" y="-74" font-family="Helvetica,sans-Serif" font-size="10.00">transformDuration</text>
<text text-anchor="middle" x="249.5" y="-63" font-family="Helvetica,sans-Serif" font-size="10.00">transformEffectMaximum</text>
<text text-anchor="middle" x="249.5" y="-52" font-family="Helvetica,sans-Serif" font-size="10.00">...</text>
</g>
<!-- Node4 -->
<g id="node4" class="node">
<title>Node4</title>
<g id="a_node4"><a xlink:title=" ">
<polygon fill="none" stroke="#bfbfbf" points="308,-199.5 308,-218.5 370,-218.5 370,-199.5 308,-199.5"/>
<text text-anchor="middle" x="339" y="-206.5" font-family="Helvetica,sans-Serif" font-size="10.00">qboolean</text>
</a>
</g>
</g>
<!-- Node4&#45;&gt;Node1 -->
<g id="edge3" class="edge">
<title>Node4&#45;&gt;Node1</title>
<path fill="none" stroke="#9a32cd" stroke-dasharray="5,2" d="M342.93,-188.93C348.9,-154.03 355.83,-79.66 317,-38 304.14,-24.2 255.56,-17.13 220.6,-13.75"/>
<polygon fill="#9a32cd" stroke="#9a32cd" points="339.41,-188.67 341,-199.15 346.29,-189.97 339.41,-188.67"/>
<text text-anchor="middle" x="409" y="-123.5" font-family="Helvetica,sans-Serif" font-size="10.00"> requirementButtonDown</text>
<text text-anchor="middle" x="409" y="-112.5" font-family="Helvetica,sans-Serif" font-size="10.00">permanent</text>
<text text-anchor="middle" x="409" y="-101.5" font-family="Helvetica,sans-Serif" font-size="10.00">requirementButtonUp</text>
<text text-anchor="middle" x="409" y="-90.5" font-family="Helvetica,sans-Serif" font-size="10.00">exists</text>
</g>
</g>
</svg>
