<?xml version="1.0" encoding="UTF-8" standalone="no"?>
<!DOCTYPE svg PUBLIC "-//W3C//DTD SVG 1.1//EN"
 "http://www.w3.org/Graphics/SVG/1.1/DTD/svg11.dtd">
<!-- Generated by graphviz version 2.43.0 (0)
 -->
<!-- Title: Tools/MinGW/include/c++/4.6.1/profile/impl/profiler_hashtable_size.h Pages: 1 -->
<svg width="1239pt" height="598pt"
 viewBox="0.00 0.00 1239.00 598.00" xmlns="http://www.w3.org/2000/svg" xmlns:xlink="http://www.w3.org/1999/xlink">
<g id="graph0" class="graph" transform="scale(1 1) rotate(0) translate(4 594)">
<title>Tools/MinGW/include/c++/4.6.1/profile/impl/profiler_hashtable_size.h</title>
<!-- Node1 -->
<g id="node1" class="node">
<title>Node1</title>
<g id="a_node1"><a xlink:title="Collection of hashtable size traces.">
<polygon fill="#bfbfbf" stroke="black" points="789.5,-548.5 789.5,-589.5 930.5,-589.5 930.5,-548.5 789.5,-548.5"/>
<text text-anchor="start" x="797.5" y="-577.5" font-family="Helvetica,sans-Serif" font-size="10.00">Tools/MinGW/include</text>
<text text-anchor="start" x="797.5" y="-566.5" font-family="Helvetica,sans-Serif" font-size="10.00">/c++/4.6.1/profile/impl</text>
<text text-anchor="middle" x="860" y="-555.5" font-family="Helvetica,sans-Serif" font-size="10.00">/profiler_hashtable_size.h</text>
</a>
</g>
</g>
<!-- Node2 -->
<g id="node2" class="node">
<title>Node2</title>
<g id="a_node2"><a xlink:href="../../dd/dff/profiler_8h.html" target="_top" xlink:title="Interface of the profiling runtime library.">
<polygon fill="none" stroke="black" points="644,-492.5 644,-511.5 762,-511.5 762,-492.5 644,-492.5"/>
<text text-anchor="middle" x="703" y="-499.5" font-family="Helvetica,sans-Serif" font-size="10.00">profile/impl/profiler.h</text>
</a>
</g>
</g>
<!-- Node1&#45;&gt;Node2 -->
<g id="edge1" class="edge">
<title>Node1&#45;&gt;Node2</title>
<path fill="none" stroke="midnightblue" d="M806.65,-548.5C780.21,-537.91 749.56,-525.12 728.41,-515.8"/>
<polygon fill="midnightblue" stroke="midnightblue" points="729.69,-512.54 719.13,-511.65 726.84,-518.93 729.69,-512.54"/>
</g>
<!-- Node7 -->
<g id="node7" class="node">
<title>Node7</title>
<g id="a_node7"><a xlink:href="../../da/d97/profiler__node_8h.html" target="_top" xlink:title="Data structures to represent a single profiling event.">
<polygon fill="none" stroke="black" points="815,-224.5 815,-254.5 925,-254.5 925,-224.5 815,-224.5"/>
<text text-anchor="start" x="823" y="-242.5" font-family="Helvetica,sans-Serif" font-size="10.00">profile/impl/profiler</text>
<text text-anchor="middle" x="870" y="-231.5" font-family="Helvetica,sans-Serif" font-size="10.00">_node.h</text>
</a>
</g>
</g>
<!-- Node1&#45;&gt;Node7 -->
<g id="edge62" class="edge">
<title>Node1&#45;&gt;Node7</title>
<path fill="none" stroke="midnightblue" d="M930.51,-565.51C1012.87,-558.38 1138,-532.57 1138,-441.5 1138,-441.5 1138,-441.5 1138,-372.5 1138,-282.53 1014.96,-253.88 935.61,-244.76"/>
<polygon fill="midnightblue" stroke="midnightblue" points="935.52,-241.23 925.2,-243.65 934.78,-248.19 935.52,-241.23"/>
</g>
<!-- Node10 -->
<g id="node10" class="node">
<title>Node10</title>
<g id="a_node10"><a xlink:href="../../dd/d65/profiler__trace_8h.html" target="_top" xlink:title="Data structures to represent profiling traces.">
<polygon fill="none" stroke="black" points="387,-291.5 387,-321.5 497,-321.5 497,-291.5 387,-291.5"/>
<text text-anchor="start" x="395" y="-309.5" font-family="Helvetica,sans-Serif" font-size="10.00">profile/impl/profiler</text>
<text text-anchor="middle" x="442" y="-298.5" font-family="Helvetica,sans-Serif" font-size="10.00">_trace.h</text>
</a>
</g>
</g>
<!-- Node1&#45;&gt;Node10 -->
<g id="edge63" class="edge">
<title>Node1&#45;&gt;Node10</title>
<path fill="none" stroke="midnightblue" d="M789.41,-563.16C662.41,-552.81 403.51,-523.75 349,-456 328.8,-430.89 367.82,-367.49 375,-358 384.05,-346.03 396.66,-335.52 408.51,-327.23"/>
<polygon fill="midnightblue" stroke="midnightblue" points="410.57,-330.06 416.94,-321.6 406.68,-324.25 410.57,-330.06"/>
</g>
<!-- Node26 -->
<g id="node26" class="node">
<title>Node26</title>
<g id="a_node26"><a xlink:href="../../d7/d7c/profiler__state_8h.html" target="_top" xlink:title="Global profiler state.">
<polygon fill="none" stroke="black" points="1121,-224.5 1121,-254.5 1231,-254.5 1231,-224.5 1121,-224.5"/>
<text text-anchor="start" x="1129" y="-242.5" font-family="Helvetica,sans-Serif" font-size="10.00">profile/impl/profiler</text>
<text text-anchor="middle" x="1176" y="-231.5" font-family="Helvetica,sans-Serif" font-size="10.00">_state.h</text>
</a>
</g>
</g>
<!-- Node1&#45;&gt;Node26 -->
<g id="edge64" class="edge">
<title>Node1&#45;&gt;Node26</title>
<path fill="none" stroke="midnightblue" d="M930.6,-562C985.67,-555.25 1062.97,-541.14 1125,-512 1170.68,-490.55 1214,-491.96 1214,-441.5 1214,-441.5 1214,-441.5 1214,-372.5 1214,-333.34 1198.37,-290.11 1187.15,-264.14"/>
<polygon fill="midnightblue" stroke="midnightblue" points="1190.24,-262.47 1182.97,-254.76 1183.85,-265.32 1190.24,-262.47"/>
</g>
<!-- Node29 -->
<g id="node29" class="node">
<title>Node29</title>
<g id="a_node29"><a xlink:href="../../d5/db2/profiler__container__size_8h.html" target="_top" xlink:title="Diagnostics for container sizes.">
<polygon fill="none" stroke="black" points="962,-358.5 962,-388.5 1072,-388.5 1072,-358.5 962,-358.5"/>
<text text-anchor="start" x="970" y="-376.5" font-family="Helvetica,sans-Serif" font-size="10.00">profile/impl/profiler</text>
<text text-anchor="middle" x="1017" y="-365.5" font-family="Helvetica,sans-Serif" font-size="10.00">_container_size.h</text>
</a>
</g>
</g>
<!-- Node1&#45;&gt;Node29 -->
<g id="edge65" class="edge">
<title>Node1&#45;&gt;Node29</title>
<path fill="none" stroke="midnightblue" d="M895.65,-548.39C927.4,-529.05 972.63,-496.55 998,-456 1008.81,-438.72 1013.48,-415.91 1015.49,-398.81"/>
<polygon fill="midnightblue" stroke="midnightblue" points="1019,-398.81 1016.46,-388.52 1012.04,-398.15 1019,-398.81"/>
</g>
<!-- Node2&#45;&gt;Node1 -->
<g id="edge34" class="edge">
<title>Node2&#45;&gt;Node1</title>
<path fill="none" stroke="midnightblue" d="M728.66,-511.65C750.66,-520.02 782.8,-533.09 809.82,-544.53"/>
<polygon fill="midnightblue" stroke="midnightblue" points="808.57,-547.8 819.14,-548.5 811.31,-541.36 808.57,-547.8"/>
</g>
<!-- Node3 -->
<g id="node3" class="node">
<title>Node3</title>
<g id="a_node3"><a xlink:href="../../d1/db9/c_09_09config_8h.html" target="_top" xlink:title=" ">
<polygon fill="none" stroke="black" points="422,-56.5 422,-75.5 520,-75.5 520,-56.5 422,-56.5"/>
<text text-anchor="middle" x="471" y="-63.5" font-family="Helvetica,sans-Serif" font-size="10.00">bits/c++config.h</text>
</a>
</g>
</g>
<!-- Node2&#45;&gt;Node3 -->
<g id="edge2" class="edge">
<title>Node2&#45;&gt;Node3</title>
<path fill="none" stroke="midnightblue" d="M643.97,-496.59C474.75,-483.18 0,-439.72 0,-374.5 0,-374.5 0,-374.5 0,-177 0,-93.39 285.04,-73.29 411.64,-68.49"/>
<polygon fill="midnightblue" stroke="midnightblue" points="412.06,-71.98 421.93,-68.12 411.81,-64.99 412.06,-71.98"/>
</g>
<!-- Node6 -->
<g id="node6" class="node">
<title>Node6</title>
<g id="a_node6"><a xlink:href="../../d1/de0/profiler__hash__func_8h.html" target="_top" xlink:title="Data structures to represent profiling traces.">
<polygon fill="none" stroke="black" points="425,-358.5 425,-388.5 535,-388.5 535,-358.5 425,-358.5"/>
<text text-anchor="start" x="433" y="-376.5" font-family="Helvetica,sans-Serif" font-size="10.00">profile/impl/profiler</text>
<text text-anchor="middle" x="480" y="-365.5" font-family="Helvetica,sans-Serif" font-size="10.00">_hash_func.h</text>
</a>
</g>
</g>
<!-- Node2&#45;&gt;Node6 -->
<g id="edge5" class="edge">
<title>Node2&#45;&gt;Node6</title>
<path fill="none" stroke="midnightblue" d="M643.91,-495.22C609.05,-489.49 565.65,-478.17 533,-456 511.18,-441.19 493.83,-416.17 484.85,-397.76"/>
<polygon fill="midnightblue" stroke="midnightblue" points="488.04,-396.33 480.84,-388.57 481.63,-399.13 488.04,-396.33"/>
</g>
<!-- Node27 -->
<g id="node27" class="node">
<title>Node27</title>
<g id="a_node27"><a xlink:href="../../d7/d82/profiler__map__to__unordered__map_8h.html" target="_top" xlink:title="Diagnostics for map to unordered_map.">
<polygon fill="none" stroke="black" points="628.5,-358.5 628.5,-388.5 777.5,-388.5 777.5,-358.5 628.5,-358.5"/>
<text text-anchor="start" x="636.5" y="-376.5" font-family="Helvetica,sans-Serif" font-size="10.00">profile/impl/profiler</text>
<text text-anchor="middle" x="703" y="-365.5" font-family="Helvetica,sans-Serif" font-size="10.00">_map_to_unordered_map.h</text>
</a>
</g>
</g>
<!-- Node2&#45;&gt;Node27 -->
<g id="edge35" class="edge">
<title>Node2&#45;&gt;Node27</title>
<path fill="none" stroke="midnightblue" d="M699.37,-492.31C695.95,-473.3 695.34,-427.47 697.54,-398.9"/>
<polygon fill="midnightblue" stroke="midnightblue" points="701.03,-399.18 698.52,-388.89 694.06,-398.5 701.03,-399.18"/>
</g>
<!-- Node28 -->
<g id="node28" class="node">
<title>Node28</title>
<g id="a_node28"><a xlink:href="../../d4/d44/profiler__vector__size_8h.html" target="_top" xlink:title="Collection of vector size traces.">
<polygon fill="none" stroke="black" points="879,-425.5 879,-455.5 989,-455.5 989,-425.5 879,-425.5"/>
<text text-anchor="start" x="887" y="-443.5" font-family="Helvetica,sans-Serif" font-size="10.00">profile/impl/profiler</text>
<text text-anchor="middle" x="934" y="-432.5" font-family="Helvetica,sans-Serif" font-size="10.00">_vector_size.h</text>
</a>
</g>
</g>
<!-- Node2&#45;&gt;Node28 -->
<g id="edge39" class="edge">
<title>Node2&#45;&gt;Node28</title>
<path fill="none" stroke="midnightblue" d="M731.2,-492.48C765.31,-483.16 823.57,-468.07 868.96,-456.71"/>
<polygon fill="midnightblue" stroke="midnightblue" points="869.87,-460.09 878.73,-454.28 868.18,-453.3 869.87,-460.09"/>
</g>
<!-- Node31 -->
<g id="node31" class="node">
<title>Node31</title>
<g id="a_node31"><a xlink:href="../../d5/d8a/profiler__vector__to__list_8h.html" target="_top" xlink:title="diagnostics for vector to list.">
<polygon fill="none" stroke="black" points="358,-425.5 358,-455.5 468,-455.5 468,-425.5 358,-425.5"/>
<text text-anchor="start" x="366" y="-443.5" font-family="Helvetica,sans-Serif" font-size="10.00">profile/impl/profiler</text>
<text text-anchor="middle" x="413" y="-432.5" font-family="Helvetica,sans-Serif" font-size="10.00">_vector_to_list.h</text>
</a>
</g>
</g>
<!-- Node2&#45;&gt;Node31 -->
<g id="edge49" class="edge">
<title>Node2&#45;&gt;Node31</title>
<path fill="none" stroke="midnightblue" d="M656.55,-492.48C608.18,-482.98 532.2,-467.45 477.93,-456.03"/>
<polygon fill="midnightblue" stroke="midnightblue" points="478.56,-452.59 468.06,-453.95 477.12,-459.44 478.56,-452.59"/>
</g>
<!-- Node32 -->
<g id="node32" class="node">
<title>Node32</title>
<g id="a_node32"><a xlink:href="../../df/d75/profiler__list__to__slist_8h.html" target="_top" xlink:title="Diagnostics for list to slist.">
<polygon fill="none" stroke="black" points="551,-425.5 551,-455.5 661,-455.5 661,-425.5 551,-425.5"/>
<text text-anchor="start" x="559" y="-443.5" font-family="Helvetica,sans-Serif" font-size="10.00">profile/impl/profiler</text>
<text text-anchor="middle" x="606" y="-432.5" font-family="Helvetica,sans-Serif" font-size="10.00">_list_to_slist.h</text>
</a>
</g>
</g>
<!-- Node2&#45;&gt;Node32 -->
<g id="edge53" class="edge">
<title>Node2&#45;&gt;Node32</title>
<path fill="none" stroke="midnightblue" d="M684.2,-492.48C669.17,-484.34 648.21,-471.79 631.69,-461.18"/>
<polygon fill="midnightblue" stroke="midnightblue" points="633.32,-458.06 623.03,-455.52 629.49,-463.92 633.32,-458.06"/>
</g>
<!-- Node33 -->
<g id="node33" class="node">
<title>Node33</title>
<g id="a_node33"><a xlink:href="../../d7/dab/profiler__list__to__vector_8h.html" target="_top" xlink:title="diagnostics for list to vector.">
<polygon fill="none" stroke="black" points="796,-358.5 796,-388.5 906,-388.5 906,-358.5 796,-358.5"/>
<text text-anchor="start" x="804" y="-376.5" font-family="Helvetica,sans-Serif" font-size="10.00">profile/impl/profiler</text>
<text text-anchor="middle" x="851" y="-365.5" font-family="Helvetica,sans-Serif" font-size="10.00">_list_to_vector.h</text>
</a>
</g>
</g>
<!-- Node2&#45;&gt;Node33 -->
<g id="edge57" class="edge">
<title>Node2&#45;&gt;Node33</title>
<path fill="none" stroke="midnightblue" d="M709.54,-492.31C729.24,-472.41 786.4,-423.12 821.87,-395.01"/>
<polygon fill="midnightblue" stroke="midnightblue" points="824.24,-397.6 829.95,-388.68 819.92,-392.09 824.24,-397.6"/>
</g>
<!-- Node4 -->
<g id="node4" class="node">
<title>Node4</title>
<g id="a_node4"><a xlink:href="../../d5/d0b/os__defines_8h.html" target="_top" xlink:title=" ">
<polygon fill="none" stroke="black" points="363,-0.5 363,-19.5 461,-19.5 461,-0.5 363,-0.5"/>
<text text-anchor="middle" x="412" y="-7.5" font-family="Helvetica,sans-Serif" font-size="10.00">bits/os_defines.h</text>
</a>
</g>
</g>
<!-- Node3&#45;&gt;Node4 -->
<g id="edge3" class="edge">
<title>Node3&#45;&gt;Node4</title>
<path fill="none" stroke="midnightblue" d="M461.52,-56.32C452.8,-48.34 439.66,-36.31 429.1,-26.65"/>
<polygon fill="midnightblue" stroke="midnightblue" points="431.39,-24 421.65,-19.83 426.67,-29.17 431.39,-24"/>
</g>
<!-- Node5 -->
<g id="node5" class="node">
<title>Node5</title>
<g id="a_node5"><a xlink:href="../../d0/d75/cpu__defines_8h.html" target="_top" xlink:title=" ">
<polygon fill="none" stroke="black" points="479,-0.5 479,-19.5 583,-19.5 583,-0.5 479,-0.5"/>
<text text-anchor="middle" x="531" y="-7.5" font-family="Helvetica,sans-Serif" font-size="10.00">bits/cpu_defines.h</text>
</a>
</g>
</g>
<!-- Node3&#45;&gt;Node5 -->
<g id="edge4" class="edge">
<title>Node3&#45;&gt;Node5</title>
<path fill="none" stroke="midnightblue" d="M480.64,-56.32C489.51,-48.34 502.87,-36.31 513.61,-26.65"/>
<polygon fill="midnightblue" stroke="midnightblue" points="516.09,-29.13 521.18,-19.83 511.41,-23.92 516.09,-29.13"/>
</g>
<!-- Node6&#45;&gt;Node2 -->
<g id="edge6" class="edge">
<title>Node6&#45;&gt;Node2</title>
<path fill="none" stroke="midnightblue" d="M493.09,-388.57C505.74,-406.86 525.26,-438.52 551,-456 576.02,-472.99 607.35,-483.6 635.09,-490.22"/>
<polygon fill="midnightblue" stroke="midnightblue" points="634.61,-493.7 645.14,-492.48 636.15,-486.87 634.61,-493.7"/>
</g>
<!-- Node6&#45;&gt;Node7 -->
<g id="edge7" class="edge">
<title>Node6&#45;&gt;Node7</title>
<path fill="none" stroke="midnightblue" d="M496.36,-358.47C521.14,-337.49 567.39,-299.49 587,-291 675.5,-252.66 706.23,-272.92 801,-255 802.25,-254.76 803.52,-254.52 804.79,-254.28"/>
<polygon fill="midnightblue" stroke="midnightblue" points="805.54,-257.7 814.68,-252.33 804.19,-250.83 805.54,-257.7"/>
</g>
<!-- Node6&#45;&gt;Node10 -->
<g id="edge10" class="edge">
<title>Node6&#45;&gt;Node10</title>
<path fill="none" stroke="midnightblue" d="M471.75,-358.4C466.97,-350.22 460.84,-339.73 455.38,-330.39"/>
<polygon fill="midnightblue" stroke="midnightblue" points="458.3,-328.44 450.23,-321.58 452.25,-331.98 458.3,-328.44"/>
</g>
<!-- Node8 -->
<g id="node8" class="node">
<title>Node8</title>
<g id="a_node8"><a xlink:title=" ">
<polygon fill="none" stroke="#bfbfbf" points="854,-168.5 854,-187.5 900,-187.5 900,-168.5 854,-168.5"/>
<text text-anchor="middle" x="877" y="-175.5" font-family="Helvetica,sans-Serif" font-size="10.00">cstdio</text>
</a>
</g>
</g>
<!-- Node7&#45;&gt;Node8 -->
<g id="edge8" class="edge">
<title>Node7&#45;&gt;Node8</title>
<path fill="none" stroke="midnightblue" d="M871.66,-224.4C872.59,-216.47 873.77,-206.46 874.78,-197.86"/>
<polygon fill="midnightblue" stroke="midnightblue" points="878.29,-198 875.98,-187.66 871.34,-197.18 878.29,-198"/>
</g>
<!-- Node9 -->
<g id="node9" class="node">
<title>Node9</title>
<g id="a_node9"><a xlink:title=" ">
<polygon fill="none" stroke="#bfbfbf" points="582.5,-168.5 582.5,-187.5 629.5,-187.5 629.5,-168.5 582.5,-168.5"/>
<text text-anchor="middle" x="606" y="-175.5" font-family="Helvetica,sans-Serif" font-size="10.00">vector</text>
</a>
</g>
</g>
<!-- Node7&#45;&gt;Node9 -->
<g id="edge9" class="edge">
<title>Node7&#45;&gt;Node9</title>
<path fill="none" stroke="midnightblue" d="M814.74,-227.25C770.12,-217.97 705.49,-204.12 639.87,-188.12"/>
<polygon fill="midnightblue" stroke="midnightblue" points="640.3,-184.62 629.76,-185.63 638.63,-191.42 640.3,-184.62"/>
</g>
<!-- Node10&#45;&gt;Node7 -->
<g id="edge33" class="edge">
<title>Node10&#45;&gt;Node7</title>
<path fill="none" stroke="midnightblue" d="M497.28,-293.46C501.92,-292.58 506.53,-291.75 511,-291 639.11,-269.63 672.89,-276.37 801,-255 802.26,-254.79 803.52,-254.57 804.8,-254.35"/>
<polygon fill="midnightblue" stroke="midnightblue" points="805.51,-257.78 814.72,-252.54 804.25,-250.89 805.51,-257.78"/>
</g>
<!-- Node10&#45;&gt;Node8 -->
<g id="edge11" class="edge">
<title>Node10&#45;&gt;Node8</title>
<path fill="none" stroke="midnightblue" d="M497.3,-293.53C501.93,-292.64 506.54,-291.78 511,-291 624.61,-271.13 662.3,-301.16 768,-255 787.97,-246.28 788.32,-236.75 806,-224 821.44,-212.87 839.58,-201.4 853.66,-192.83"/>
<polygon fill="midnightblue" stroke="midnightblue" points="855.5,-195.8 862.25,-187.64 851.88,-189.81 855.5,-195.8"/>
</g>
<!-- Node10&#45;&gt;Node9 -->
<g id="edge30" class="edge">
<title>Node10&#45;&gt;Node9</title>
<path fill="none" stroke="midnightblue" d="M386.64,-302.22C285.31,-295.65 78.4,-279.39 57,-255 47.91,-244.64 47.6,-234.08 57,-224 94.63,-183.66 482.58,-196.61 572.33,-187.56"/>
<polygon fill="midnightblue" stroke="midnightblue" points="572.9,-191.01 582.36,-186.23 571.99,-184.07 572.9,-191.01"/>
</g>
<!-- Node11 -->
<g id="node11" class="node">
<title>Node11</title>
<g id="a_node11"><a xlink:title=" ">
<polygon fill="none" stroke="#bfbfbf" points="66.5,-230 66.5,-249 113.5,-249 113.5,-230 66.5,-230"/>
<text text-anchor="middle" x="90" y="-237" font-family="Helvetica,sans-Serif" font-size="10.00">cerrno</text>
</a>
</g>
</g>
<!-- Node10&#45;&gt;Node11 -->
<g id="edge12" class="edge">
<title>Node10&#45;&gt;Node11</title>
<path fill="none" stroke="midnightblue" d="M386.93,-301.34C322.37,-295.43 212.65,-282.15 122,-255 120.07,-254.42 118.11,-253.75 116.15,-253.02"/>
<polygon fill="midnightblue" stroke="midnightblue" points="117.19,-249.67 106.61,-249.05 114.5,-256.13 117.19,-249.67"/>
</g>
<!-- Node12 -->
<g id="node12" class="node">
<title>Node12</title>
<g id="a_node12"><a xlink:title=" ">
<polygon fill="none" stroke="#bfbfbf" points="131.5,-230 131.5,-249 180.5,-249 180.5,-230 131.5,-230"/>
<text text-anchor="middle" x="156" y="-237" font-family="Helvetica,sans-Serif" font-size="10.00">cstdlib</text>
</a>
</g>
</g>
<!-- Node10&#45;&gt;Node12 -->
<g id="edge13" class="edge">
<title>Node10&#45;&gt;Node12</title>
<path fill="none" stroke="midnightblue" d="M386.62,-297.76C335.02,-289.75 256.28,-275.53 190,-255 187.86,-254.34 185.67,-253.58 183.48,-252.78"/>
<polygon fill="midnightblue" stroke="midnightblue" points="184.68,-249.49 174.09,-249.03 182.08,-255.99 184.68,-249.49"/>
</g>
<!-- Node13 -->
<g id="node13" class="node">
<title>Node13</title>
<g id="a_node13"><a xlink:title=" ">
<polygon fill="none" stroke="#bfbfbf" points="199,-230 199,-249 309,-249 309,-230 199,-230"/>
<text text-anchor="middle" x="254" y="-237" font-family="Helvetica,sans-Serif" font-size="10.00">tr1/unordered_map</text>
</a>
</g>
</g>
<!-- Node10&#45;&gt;Node13 -->
<g id="edge14" class="edge">
<title>Node10&#45;&gt;Node13</title>
<path fill="none" stroke="midnightblue" d="M401.21,-291.4C367.49,-279.74 320.16,-263.37 288.35,-252.38"/>
<polygon fill="midnightblue" stroke="midnightblue" points="289.2,-248.97 278.6,-249.01 286.91,-255.58 289.2,-248.97"/>
</g>
<!-- Node14 -->
<g id="node14" class="node">
<title>Node14</title>
<g id="a_node14"><a xlink:href="../../d6/dd4/concurrence_8h.html" target="_top" xlink:title=" ">
<polygon fill="none" stroke="black" points="655,-230 655,-249 759,-249 759,-230 655,-230"/>
<text text-anchor="middle" x="707" y="-237" font-family="Helvetica,sans-Serif" font-size="10.00">ext/concurrence.h</text>
</a>
</g>
</g>
<!-- Node10&#45;&gt;Node14 -->
<g id="edge15" class="edge">
<title>Node10&#45;&gt;Node14</title>
<path fill="none" stroke="midnightblue" d="M497.23,-291.95C546.16,-279.95 616.71,-262.65 662.21,-251.49"/>
<polygon fill="midnightblue" stroke="midnightblue" points="663.21,-254.85 672.08,-249.06 661.54,-248.05 663.21,-254.85"/>
</g>
<!-- Node22 -->
<g id="node22" class="node">
<title>Node22</title>
<g id="a_node22"><a xlink:title=" ">
<polygon fill="none" stroke="#bfbfbf" points="327.5,-230 327.5,-249 382.5,-249 382.5,-230 327.5,-230"/>
<text text-anchor="middle" x="355" y="-237" font-family="Helvetica,sans-Serif" font-size="10.00">fstream</text>
</a>
</g>
</g>
<!-- Node10&#45;&gt;Node22 -->
<g id="edge27" class="edge">
<title>Node10&#45;&gt;Node22</title>
<path fill="none" stroke="midnightblue" d="M423.12,-291.4C408.89,-280.76 389.4,-266.2 374.92,-255.38"/>
<polygon fill="midnightblue" stroke="midnightblue" points="376.74,-252.38 366.64,-249.19 372.55,-257.98 376.74,-252.38"/>
</g>
<!-- Node23 -->
<g id="node23" class="node">
<title>Node23</title>
<g id="a_node23"><a xlink:title=" ">
<polygon fill="none" stroke="#bfbfbf" points="401,-230 401,-249 445,-249 445,-230 401,-230"/>
<text text-anchor="middle" x="423" y="-237" font-family="Helvetica,sans-Serif" font-size="10.00">string</text>
</a>
</g>
</g>
<!-- Node10&#45;&gt;Node23 -->
<g id="edge28" class="edge">
<title>Node10&#45;&gt;Node23</title>
<path fill="none" stroke="midnightblue" d="M437.88,-291.4C435.09,-281.86 431.38,-269.18 428.37,-258.86"/>
<polygon fill="midnightblue" stroke="midnightblue" points="431.71,-257.81 425.54,-249.19 424.99,-259.77 431.71,-257.81"/>
</g>
<!-- Node24 -->
<g id="node24" class="node">
<title>Node24</title>
<g id="a_node24"><a xlink:title=" ">
<polygon fill="none" stroke="#bfbfbf" points="463.5,-230 463.5,-249 508.5,-249 508.5,-230 463.5,-230"/>
<text text-anchor="middle" x="486" y="-237" font-family="Helvetica,sans-Serif" font-size="10.00">utility</text>
</a>
</g>
</g>
<!-- Node10&#45;&gt;Node24 -->
<g id="edge29" class="edge">
<title>Node10&#45;&gt;Node24</title>
<path fill="none" stroke="midnightblue" d="M451.55,-291.4C458.27,-281.46 467.31,-268.11 474.44,-257.57"/>
<polygon fill="midnightblue" stroke="midnightblue" points="477.41,-259.44 480.11,-249.19 471.61,-255.51 477.41,-259.44"/>
</g>
<!-- Node25 -->
<g id="node25" class="node">
<title>Node25</title>
<g id="a_node25"><a xlink:href="../../d0/daf/profiler__algos_8h.html" target="_top" xlink:title="Algorithms used by the profile extension.">
<polygon fill="none" stroke="black" points="527,-224.5 527,-254.5 637,-254.5 637,-224.5 527,-224.5"/>
<text text-anchor="start" x="535" y="-242.5" font-family="Helvetica,sans-Serif" font-size="10.00">profile/impl/profiler</text>
<text text-anchor="middle" x="582" y="-231.5" font-family="Helvetica,sans-Serif" font-size="10.00">_algos.h</text>
</a>
</g>
</g>
<!-- Node10&#45;&gt;Node25 -->
<g id="edge31" class="edge">
<title>Node10&#45;&gt;Node25</title>
<path fill="none" stroke="midnightblue" d="M472.38,-291.4C492.93,-281.86 520.26,-269.16 542.5,-258.84"/>
<polygon fill="midnightblue" stroke="midnightblue" points="544.09,-261.96 551.68,-254.58 541.14,-255.61 544.09,-261.96"/>
</g>
<!-- Node10&#45;&gt;Node26 -->
<g id="edge32" class="edge">
<title>Node10&#45;&gt;Node26</title>
<path fill="none" stroke="midnightblue" d="M497.17,-300.61C630.04,-288.85 967.34,-258.98 1110.33,-246.32"/>
<polygon fill="midnightblue" stroke="midnightblue" points="1111.04,-249.77 1120.69,-245.4 1110.42,-242.79 1111.04,-249.77"/>
</g>
<!-- Node15 -->
<g id="node15" class="node">
<title>Node15</title>
<g id="a_node15"><a xlink:title=" ">
<polygon fill="none" stroke="#bfbfbf" points="384.5,-168.5 384.5,-187.5 449.5,-187.5 449.5,-168.5 384.5,-168.5"/>
<text text-anchor="middle" x="417" y="-175.5" font-family="Helvetica,sans-Serif" font-size="10.00">exception</text>
</a>
</g>
</g>
<!-- Node14&#45;&gt;Node15 -->
<g id="edge16" class="edge">
<title>Node14&#45;&gt;Node15</title>
<path fill="none" stroke="midnightblue" d="M672.22,-229.96C663.66,-227.93 654.51,-225.83 646,-224 566.32,-206.87 543.61,-204.99 459.54,-188.07"/>
<polygon fill="midnightblue" stroke="midnightblue" points="460.04,-184.6 449.55,-186.04 458.65,-191.46 460.04,-184.6"/>
</g>
<!-- Node16 -->
<g id="node16" class="node">
<title>Node16</title>
<g id="a_node16"><a xlink:href="../../d7/d2b/gthr_8h.html" target="_top" xlink:title=" ">
<polygon fill="none" stroke="black" points="770.5,-168.5 770.5,-187.5 835.5,-187.5 835.5,-168.5 770.5,-168.5"/>
<text text-anchor="middle" x="803" y="-175.5" font-family="Helvetica,sans-Serif" font-size="10.00">bits/gthr.h</text>
</a>
</g>
</g>
<!-- Node14&#45;&gt;Node16 -->
<g id="edge17" class="edge">
<title>Node14&#45;&gt;Node16</title>
<path fill="none" stroke="midnightblue" d="M720.75,-229.98C736.37,-220.3 762.06,-204.37 780.58,-192.89"/>
<polygon fill="midnightblue" stroke="midnightblue" points="782.62,-195.75 789.27,-187.51 778.93,-189.8 782.62,-195.75"/>
</g>
<!-- Node18 -->
<g id="node18" class="node">
<title>Node18</title>
<g id="a_node18"><a xlink:href="../../d8/dda/functexcept_8h.html" target="_top" xlink:title=" ">
<polygon fill="none" stroke="black" points="648,-168.5 648,-187.5 752,-187.5 752,-168.5 648,-168.5"/>
<text text-anchor="middle" x="700" y="-175.5" font-family="Helvetica,sans-Serif" font-size="10.00">bits/functexcept.h</text>
</a>
</g>
</g>
<!-- Node14&#45;&gt;Node18 -->
<g id="edge19" class="edge">
<title>Node14&#45;&gt;Node18</title>
<path fill="none" stroke="midnightblue" d="M706,-229.98C705.01,-221.58 703.47,-208.48 702.2,-197.66"/>
<polygon fill="midnightblue" stroke="midnightblue" points="705.65,-197.03 701,-187.51 698.69,-197.85 705.65,-197.03"/>
</g>
<!-- Node20 -->
<g id="node20" class="node">
<title>Node20</title>
<g id="a_node20"><a xlink:href="../../da/db4/cpp__type__traits_8h.html" target="_top" xlink:title=" ">
<polygon fill="none" stroke="black" points="366,-112.5 366,-131.5 488,-131.5 488,-112.5 366,-112.5"/>
<text text-anchor="middle" x="427" y="-119.5" font-family="Helvetica,sans-Serif" font-size="10.00">bits/cpp_type_traits.h</text>
</a>
</g>
</g>
<!-- Node14&#45;&gt;Node20 -->
<g id="edge22" class="edge">
<title>Node14&#45;&gt;Node20</title>
<path fill="none" stroke="midnightblue" d="M673.89,-229.99C664.88,-227.85 655.1,-225.68 646,-224 586.48,-212.99 415.87,-233.54 376,-188 361.18,-171.08 383.65,-150.5 403.29,-137.09"/>
<polygon fill="midnightblue" stroke="midnightblue" points="405.2,-140.02 411.69,-131.65 401.39,-134.15 405.2,-140.02"/>
</g>
<!-- Node21 -->
<g id="node21" class="node">
<title>Node21</title>
<g id="a_node21"><a xlink:href="../../df/d63/type__traits_8h.html" target="_top" xlink:title=" ">
<polygon fill="none" stroke="black" points="467.5,-168.5 467.5,-187.5 564.5,-187.5 564.5,-168.5 467.5,-168.5"/>
<text text-anchor="middle" x="516" y="-175.5" font-family="Helvetica,sans-Serif" font-size="10.00">ext/type_traits.h</text>
</a>
</g>
</g>
<!-- Node14&#45;&gt;Node21 -->
<g id="edge24" class="edge">
<title>Node14&#45;&gt;Node21</title>
<path fill="none" stroke="midnightblue" d="M679.63,-229.98C646.45,-219.64 590.35,-202.16 553.24,-190.6"/>
<polygon fill="midnightblue" stroke="midnightblue" points="553.9,-187.14 543.31,-187.51 551.82,-193.82 553.9,-187.14"/>
</g>
<!-- Node17 -->
<g id="node17" class="node">
<title>Node17</title>
<g id="a_node17"><a xlink:href="../../d6/d85/gthr-single_8h.html" target="_top" xlink:title=" ">
<polygon fill="none" stroke="black" points="769.5,-112.5 769.5,-131.5 868.5,-131.5 868.5,-112.5 769.5,-112.5"/>
<text text-anchor="middle" x="819" y="-119.5" font-family="Helvetica,sans-Serif" font-size="10.00">bits/gthr&#45;single.h</text>
</a>
</g>
</g>
<!-- Node16&#45;&gt;Node17 -->
<g id="edge18" class="edge">
<title>Node16&#45;&gt;Node17</title>
<path fill="none" stroke="midnightblue" d="M805.64,-168.08C807.79,-160.85 810.88,-150.41 813.55,-141.4"/>
<polygon fill="midnightblue" stroke="midnightblue" points="816.92,-142.33 816.41,-131.75 810.21,-140.34 816.92,-142.33"/>
</g>
<!-- Node18&#45;&gt;Node3 -->
<g id="edge20" class="edge">
<title>Node18&#45;&gt;Node3</title>
<path fill="none" stroke="midnightblue" d="M682.03,-168.37C641.98,-149.13 545.21,-102.65 497.92,-79.93"/>
<polygon fill="midnightblue" stroke="midnightblue" points="499.42,-76.77 488.89,-75.59 496.38,-83.08 499.42,-76.77"/>
</g>
<!-- Node19 -->
<g id="node19" class="node">
<title>Node19</title>
<g id="a_node19"><a xlink:href="../../de/d22/exception__defines_8h.html" target="_top" xlink:title=" ">
<polygon fill="none" stroke="black" points="616.5,-112.5 616.5,-131.5 751.5,-131.5 751.5,-112.5 616.5,-112.5"/>
<text text-anchor="middle" x="684" y="-119.5" font-family="Helvetica,sans-Serif" font-size="10.00">bits/exception_defines.h</text>
</a>
</g>
</g>
<!-- Node18&#45;&gt;Node19 -->
<g id="edge21" class="edge">
<title>Node18&#45;&gt;Node19</title>
<path fill="none" stroke="midnightblue" d="M697.36,-168.08C695.21,-160.85 692.12,-150.41 689.45,-141.4"/>
<polygon fill="midnightblue" stroke="midnightblue" points="692.79,-140.34 686.59,-131.75 686.08,-142.33 692.79,-140.34"/>
</g>
<!-- Node20&#45;&gt;Node3 -->
<g id="edge23" class="edge">
<title>Node20&#45;&gt;Node3</title>
<path fill="none" stroke="midnightblue" d="M434.27,-112.08C440.54,-104.38 449.79,-93.03 457.43,-83.65"/>
<polygon fill="midnightblue" stroke="midnightblue" points="460.27,-85.71 463.87,-75.75 454.84,-81.29 460.27,-85.71"/>
</g>
<!-- Node21&#45;&gt;Node3 -->
<g id="edge25" class="edge">
<title>Node21&#45;&gt;Node3</title>
<path fill="none" stroke="midnightblue" d="M514.17,-168.36C511.33,-155.69 505.32,-131.46 497,-112 492.92,-102.46 487.26,-92.41 482.26,-84.23"/>
<polygon fill="midnightblue" stroke="midnightblue" points="485.13,-82.22 476.83,-75.64 479.21,-85.96 485.13,-82.22"/>
</g>
<!-- Node21&#45;&gt;Node20 -->
<g id="edge26" class="edge">
<title>Node21&#45;&gt;Node20</title>
<path fill="none" stroke="midnightblue" d="M501.7,-168.32C487.82,-159.9 466.51,-146.97 450.2,-137.07"/>
<polygon fill="midnightblue" stroke="midnightblue" points="451.63,-133.85 441.26,-131.65 448,-139.83 451.63,-133.85"/>
</g>
<!-- Node27&#45;&gt;Node2 -->
<g id="edge36" class="edge">
<title>Node27&#45;&gt;Node2</title>
<path fill="none" stroke="midnightblue" d="M707.48,-388.89C710.33,-411.81 710.5,-456.63 707.98,-482.11"/>
<polygon fill="midnightblue" stroke="midnightblue" points="704.47,-481.93 706.63,-492.31 711.41,-482.85 704.47,-481.93"/>
</g>
<!-- Node27&#45;&gt;Node7 -->
<g id="edge37" class="edge">
<title>Node27&#45;&gt;Node7</title>
<path fill="none" stroke="midnightblue" d="M720.87,-358.37C750.5,-334.95 809.92,-287.99 844.14,-260.94"/>
<polygon fill="midnightblue" stroke="midnightblue" points="846.58,-263.47 852.26,-254.52 842.24,-257.98 846.58,-263.47"/>
</g>
<!-- Node27&#45;&gt;Node10 -->
<g id="edge38" class="edge">
<title>Node27&#45;&gt;Node10</title>
<path fill="none" stroke="midnightblue" d="M646.69,-358.48C605.68,-348.26 550.02,-334.4 507.1,-323.71"/>
<polygon fill="midnightblue" stroke="midnightblue" points="507.86,-320.3 497.31,-321.28 506.17,-327.09 507.86,-320.3"/>
</g>
<!-- Node28&#45;&gt;Node2 -->
<g id="edge40" class="edge">
<title>Node28&#45;&gt;Node2</title>
<path fill="none" stroke="midnightblue" d="M885.39,-455.52C845.79,-466.07 790.31,-480.33 750.9,-490.05"/>
<polygon fill="midnightblue" stroke="midnightblue" points="749.88,-486.69 741,-492.48 751.54,-493.49 749.88,-486.69"/>
</g>
<!-- Node28&#45;&gt;Node7 -->
<g id="edge41" class="edge">
<title>Node28&#45;&gt;Node7</title>
<path fill="none" stroke="midnightblue" d="M989.12,-435.9C1021.58,-430.61 1060.23,-418.1 1081,-389 1089,-377.79 1087.25,-370.28 1081,-358 1052.69,-302.36 985.93,-271.69 935.02,-255.77"/>
<polygon fill="midnightblue" stroke="midnightblue" points="935.98,-252.4 925.39,-252.87 933.96,-259.11 935.98,-252.4"/>
</g>
<!-- Node28&#45;&gt;Node10 -->
<g id="edge42" class="edge">
<title>Node28&#45;&gt;Node10</title>
<path fill="none" stroke="midnightblue" d="M935.22,-425.24C935.93,-406.74 934.05,-374.84 915,-358 885.06,-331.53 630,-316.22 507.35,-310.32"/>
<polygon fill="midnightblue" stroke="midnightblue" points="507.48,-306.83 497.33,-309.85 507.15,-313.82 507.48,-306.83"/>
</g>
<!-- Node28&#45;&gt;Node26 -->
<g id="edge43" class="edge">
<title>Node28&#45;&gt;Node26</title>
<path fill="none" stroke="midnightblue" d="M989.32,-433.19C1023.51,-426.86 1066.53,-414.21 1097,-389 1137,-355.91 1159.54,-297.17 1169.58,-264.36"/>
<polygon fill="midnightblue" stroke="midnightblue" points="1172.96,-265.26 1172.41,-254.68 1166.24,-263.3 1172.96,-265.26"/>
</g>
<!-- Node28&#45;&gt;Node29 -->
<g id="edge44" class="edge">
<title>Node28&#45;&gt;Node29</title>
<path fill="none" stroke="midnightblue" d="M952.01,-425.4C963.43,-416.45 978.39,-404.74 991.08,-394.8"/>
<polygon fill="midnightblue" stroke="midnightblue" points="993.31,-397.5 999.03,-388.58 988.99,-391.99 993.31,-397.5"/>
</g>
<!-- Node29&#45;&gt;Node2 -->
<g id="edge46" class="edge">
<title>Node29&#45;&gt;Node2</title>
<path fill="none" stroke="midnightblue" d="M972.53,-388.54C943.16,-398.12 903.97,-411.47 870,-425 819.58,-445.08 762.3,-472.09 729.63,-487.92"/>
<polygon fill="midnightblue" stroke="midnightblue" points="727.77,-484.93 720.31,-492.45 730.84,-491.22 727.77,-484.93"/>
</g>
<!-- Node29&#45;&gt;Node7 -->
<g id="edge47" class="edge">
<title>Node29&#45;&gt;Node7</title>
<path fill="none" stroke="midnightblue" d="M1010.13,-358.33C1001.06,-340.78 983.69,-310.79 962,-291 947.94,-278.17 930.02,-267.4 913.75,-259.14"/>
<polygon fill="midnightblue" stroke="midnightblue" points="914.92,-255.82 904.4,-254.58 911.85,-262.11 914.92,-255.82"/>
</g>
<!-- Node29&#45;&gt;Node10 -->
<g id="edge48" class="edge">
<title>Node29&#45;&gt;Node10</title>
<path fill="none" stroke="midnightblue" d="M961.73,-360.34C957.1,-359.49 952.48,-358.69 948,-358 790.79,-333.71 604.21,-318.59 507.49,-311.77"/>
<polygon fill="midnightblue" stroke="midnightblue" points="507.5,-308.27 497.28,-311.06 507.01,-315.25 507.5,-308.27"/>
</g>
<!-- Node30 -->
<g id="node30" class="node">
<title>Node30</title>
<g id="a_node30"><a xlink:title=" ">
<polygon fill="none" stroke="#bfbfbf" points="897,-297 897,-316 953,-316 953,-297 897,-297"/>
<text text-anchor="middle" x="925" y="-304" font-family="Helvetica,sans-Serif" font-size="10.00">sstream</text>
</a>
</g>
</g>
<!-- Node29&#45;&gt;Node30 -->
<g id="edge45" class="edge">
<title>Node29&#45;&gt;Node30</title>
<path fill="none" stroke="midnightblue" d="M997.04,-358.4C981.75,-347.6 960.75,-332.76 945.36,-321.89"/>
<polygon fill="midnightblue" stroke="midnightblue" points="947.23,-318.92 937.04,-316.01 943.19,-324.64 947.23,-318.92"/>
</g>
<!-- Node31&#45;&gt;Node2 -->
<g id="edge50" class="edge">
<title>Node31&#45;&gt;Node2</title>
<path fill="none" stroke="midnightblue" d="M468.24,-451.76C522.8,-462.55 605.2,-479.45 656.52,-490.37"/>
<polygon fill="midnightblue" stroke="midnightblue" points="655.84,-493.81 666.35,-492.48 657.3,-486.96 655.84,-493.81"/>
</g>
<!-- Node31&#45;&gt;Node7 -->
<g id="edge51" class="edge">
<title>Node31&#45;&gt;Node7</title>
<path fill="none" stroke="midnightblue" d="M409.23,-425.37C405.44,-407.86 401.98,-377.91 416,-358 440.8,-322.78 469.67,-345.15 506,-322 522.97,-311.19 520.84,-299.67 539,-291 645.07,-240.37 685.19,-275.1 801,-255 802.26,-254.78 803.52,-254.56 804.8,-254.33"/>
<polygon fill="midnightblue" stroke="midnightblue" points="805.52,-257.75 814.7,-252.48 804.23,-250.87 805.52,-257.75"/>
</g>
<!-- Node31&#45;&gt;Node10 -->
<g id="edge52" class="edge">
<title>Node31&#45;&gt;Node10</title>
<path fill="none" stroke="midnightblue" d="M401.05,-425.39C388.64,-408.92 372.41,-381.01 383,-358 388.56,-345.92 398.6,-335.65 408.83,-327.59"/>
<polygon fill="midnightblue" stroke="midnightblue" points="411,-330.34 417,-321.61 406.86,-324.7 411,-330.34"/>
</g>
<!-- Node32&#45;&gt;Node2 -->
<g id="edge54" class="edge">
<title>Node32&#45;&gt;Node2</title>
<path fill="none" stroke="midnightblue" d="M634.69,-455.52C651.24,-464.93 671.39,-477.28 685.61,-486.74"/>
<polygon fill="midnightblue" stroke="midnightblue" points="683.77,-489.72 694,-492.48 687.72,-483.94 683.77,-489.72"/>
</g>
<!-- Node32&#45;&gt;Node7 -->
<g id="edge55" class="edge">
<title>Node32&#45;&gt;Node7</title>
<path fill="none" stroke="midnightblue" d="M604.7,-425.28C603.86,-407.68 605.04,-377.65 620,-358 645.53,-324.47 753.81,-281.61 819.2,-258.02"/>
<polygon fill="midnightblue" stroke="midnightblue" points="820.68,-261.21 828.92,-254.55 818.33,-254.62 820.68,-261.21"/>
</g>
<!-- Node32&#45;&gt;Node10 -->
<g id="edge56" class="edge">
<title>Node32&#45;&gt;Node10</title>
<path fill="none" stroke="midnightblue" d="M597.97,-425.22C587.46,-407.57 567.58,-377.47 544,-358 528.04,-344.82 508.06,-333.98 490.03,-325.76"/>
<polygon fill="midnightblue" stroke="midnightblue" points="491.37,-322.52 480.81,-321.7 488.55,-328.93 491.37,-322.52"/>
</g>
<!-- Node33&#45;&gt;Node2 -->
<g id="edge59" class="edge">
<title>Node33&#45;&gt;Node2</title>
<path fill="none" stroke="midnightblue" d="M838.65,-388.89C813.38,-413.05 756.68,-461.54 725.02,-486.06"/>
<polygon fill="midnightblue" stroke="midnightblue" points="722.65,-483.47 716.8,-492.31 726.88,-489.04 722.65,-483.47"/>
</g>
<!-- Node33&#45;&gt;Node7 -->
<g id="edge60" class="edge">
<title>Node33&#45;&gt;Node7</title>
<path fill="none" stroke="midnightblue" d="M853.03,-358.37C856.26,-335.94 862.6,-291.92 866.55,-264.49"/>
<polygon fill="midnightblue" stroke="midnightblue" points="870.02,-264.92 867.98,-254.52 863.09,-263.92 870.02,-264.92"/>
</g>
<!-- Node33&#45;&gt;Node10 -->
<g id="edge61" class="edge">
<title>Node33&#45;&gt;Node10</title>
<path fill="none" stroke="midnightblue" d="M795.9,-359.73C792.89,-359.12 789.91,-358.54 787,-358 690.01,-339.94 576.68,-324.41 507.13,-315.5"/>
<polygon fill="midnightblue" stroke="midnightblue" points="507.55,-312.03 497.19,-314.24 506.67,-318.97 507.55,-312.03"/>
</g>
<!-- Node33&#45;&gt;Node30 -->
<g id="edge58" class="edge">
<title>Node33&#45;&gt;Node30</title>
<path fill="none" stroke="midnightblue" d="M867.06,-358.4C878.94,-347.96 895.11,-333.75 907.36,-323"/>
<polygon fill="midnightblue" stroke="midnightblue" points="909.9,-325.42 915.1,-316.19 905.28,-320.16 909.9,-325.42"/>
</g>
</g>
</svg>
