<?xml version="1.0" encoding="UTF-8" standalone="no"?>
<!DOCTYPE svg PUBLIC "-//W3C//DTD SVG 1.1//EN"
 "http://www.w3.org/Graphics/SVG/1.1/DTD/svg11.dtd">
<!-- Generated by graphviz version 2.43.0 (0)
 -->
<!-- Title: _SI_ACCESS Pages: 1 -->
<svg width="339pt" height="95pt"
 viewBox="0.00 0.00 339.00 95.00" xmlns="http://www.w3.org/2000/svg" xmlns:xlink="http://www.w3.org/1999/xlink">
<g id="graph0" class="graph" transform="scale(1 1) rotate(0) translate(4 91)">
<title>_SI_ACCESS</title>
<!-- Node1 -->
<g id="node1" class="node">
<title>Node1</title>
<g id="a_node1"><a xlink:title=" ">
<polygon fill="#bfbfbf" stroke="black" points="151.5,-0.5 151.5,-19.5 225.5,-19.5 225.5,-0.5 151.5,-0.5"/>
<text text-anchor="middle" x="188.5" y="-7.5" font-family="Helvetica,sans-Serif" font-size="10.00">_SI_ACCESS</text>
</a>
</g>
</g>
<!-- Node2 -->
<g id="node2" class="node">
<title>Node2</title>
<g id="a_node2"><a xlink:title=" ">
<polygon fill="none" stroke="#bfbfbf" points="0,-67.5 0,-86.5 85,-86.5 85,-67.5 0,-67.5"/>
<text text-anchor="middle" x="42.5" y="-74.5" font-family="Helvetica,sans-Serif" font-size="10.00">unsigned long</text>
</a>
</g>
</g>
<!-- Node2&#45;&gt;Node1 -->
<g id="edge1" class="edge">
<title>Node2&#45;&gt;Node1</title>
<path fill="none" stroke="#9a32cd" stroke-dasharray="5,2" d="M67.56,-62.72C82.24,-55.12 101.23,-45.63 118.5,-38 133.63,-31.32 150.98,-24.62 164.62,-19.57"/>
<polygon fill="#9a32cd" stroke="#9a32cd" points="65.84,-59.66 58.59,-67.39 69.08,-65.87 65.84,-59.66"/>
<text text-anchor="middle" x="134" y="-41" font-family="Helvetica,sans-Serif" font-size="10.00"> mask</text>
</g>
<!-- Node3 -->
<g id="node3" class="node">
<title>Node3</title>
<g id="a_node3"><a xlink:title=" ">
<polygon fill="none" stroke="#bfbfbf" points="103,-67.5 103,-86.5 192,-86.5 192,-67.5 103,-67.5"/>
<text text-anchor="middle" x="147.5" y="-74.5" font-family="Helvetica,sans-Serif" font-size="10.00">unsigned short</text>
</a>
</g>
</g>
<!-- Node3&#45;&gt;Node1 -->
<g id="edge2" class="edge">
<title>Node3&#45;&gt;Node1</title>
<path fill="none" stroke="#9a32cd" stroke-dasharray="5,2" d="M151.32,-57.37C153.17,-50.92 155.81,-43.85 159.5,-38 163.98,-30.91 170.78,-24.44 176.67,-19.62"/>
<polygon fill="#9a32cd" stroke="#9a32cd" points="147.87,-56.77 148.92,-67.31 154.67,-58.41 147.87,-56.77"/>
<text text-anchor="middle" x="184" y="-41" font-family="Helvetica,sans-Serif" font-size="10.00"> pszName</text>
</g>
<!-- Node4 -->
<g id="node4" class="node">
<title>Node4</title>
<g id="a_node4"><a xlink:title=" ">
<polygon fill="none" stroke="#bfbfbf" points="209.5,-67.5 209.5,-86.5 251.5,-86.5 251.5,-67.5 209.5,-67.5"/>
<text text-anchor="middle" x="230.5" y="-74.5" font-family="Helvetica,sans-Serif" font-size="10.00">GUID</text>
</a>
</g>
</g>
<!-- Node4&#45;&gt;Node1 -->
<g id="edge3" class="edge">
<title>Node4&#45;&gt;Node1</title>
<path fill="none" stroke="#9a32cd" stroke-dasharray="5,2" d="M220.99,-58.63C217.25,-52.06 212.83,-44.59 208.5,-38 204.4,-31.76 199.4,-25.01 195.43,-19.82"/>
<polygon fill="#9a32cd" stroke="#9a32cd" points="217.95,-60.36 225.87,-67.38 224.06,-56.94 217.95,-60.36"/>
<text text-anchor="middle" x="230" y="-41" font-family="Helvetica,sans-Serif" font-size="10.00"> pguid</text>
</g>
<!-- Node5 -->
<g id="node5" class="node">
<title>Node5</title>
<g id="a_node5"><a xlink:title=" ">
<polygon fill="none" stroke="#bfbfbf" points="270,-67.5 270,-86.5 331,-86.5 331,-67.5 270,-67.5"/>
<text text-anchor="middle" x="300.5" y="-74.5" font-family="Helvetica,sans-Serif" font-size="10.00">unsigned</text>
</a>
</g>
</g>
<!-- Node5&#45;&gt;Node1 -->
<g id="edge4" class="edge">
<title>Node5&#45;&gt;Node1</title>
<path fill="none" stroke="#9a32cd" stroke-dasharray="5,2" d="M282.53,-61.06C273.06,-53.59 261.03,-44.74 249.5,-38 237.3,-30.88 222.87,-24.41 211.11,-19.59"/>
<polygon fill="#9a32cd" stroke="#9a32cd" points="280.44,-63.87 290.42,-67.43 284.84,-58.42 280.44,-63.87"/>
<text text-anchor="middle" x="287.5" y="-41" font-family="Helvetica,sans-Serif" font-size="10.00"> dwFlags</text>
</g>
</g>
</svg>
