<?xml version="1.0" encoding="UTF-8" standalone="no"?>
<!DOCTYPE svg PUBLIC "-//W3C//DTD SVG 1.1//EN"
 "http://www.w3.org/Graphics/SVG/1.1/DTD/svg11.dtd">
<!-- Generated by graphviz version 2.43.0 (0)
 -->
<!-- Title: _TDI_REQUEST_SET_INFORMATION Pages: 1 -->
<svg width="585pt" height="138pt"
 viewBox="0.00 0.00 585.00 138.00" xmlns="http://www.w3.org/2000/svg" xmlns:xlink="http://www.w3.org/1999/xlink">
<g id="graph0" class="graph" transform="scale(1 1) rotate(0) translate(4 134)">
<title>_TDI_REQUEST_SET_INFORMATION</title>
<!-- Node1 -->
<g id="node1" class="node">
<title>Node1</title>
<g id="a_node1"><a xlink:title=" ">
<polygon fill="#bfbfbf" stroke="black" points="389,-66.5 389,-85.5 577,-85.5 577,-66.5 389,-66.5"/>
<text text-anchor="middle" x="483" y="-73.5" font-family="Helvetica,sans-Serif" font-size="10.00">_TDI_REQUEST_SET_INFORMATION</text>
</a>
</g>
</g>
<!-- Node2 -->
<g id="node2" class="node">
<title>Node2</title>
<g id="a_node2"><a xlink:title=" ">
<polygon fill="none" stroke="#bfbfbf" points="57,-110.5 57,-129.5 141,-129.5 141,-110.5 57,-110.5"/>
<text text-anchor="middle" x="99" y="-117.5" font-family="Helvetica,sans-Serif" font-size="10.00">TDI_REQUEST</text>
</a>
</g>
</g>
<!-- Node2&#45;&gt;Node1 -->
<g id="edge1" class="edge">
<title>Node2&#45;&gt;Node1</title>
<path fill="none" stroke="#9a32cd" stroke-dasharray="5,2" d="M151.47,-114.92C206.02,-109.44 294.65,-100.24 371,-91 384.9,-89.32 399.76,-87.39 413.94,-85.5"/>
<polygon fill="#9a32cd" stroke="#9a32cd" points="150.96,-111.45 141.36,-115.93 151.66,-118.42 150.96,-111.45"/>
<text text-anchor="middle" x="293.5" y="-111" font-family="Helvetica,sans-Serif" font-size="10.00"> Request</text>
</g>
<!-- Node3 -->
<g id="node3" class="node">
<title>Node3</title>
<g id="a_node3"><a xlink:title=" ">
<polygon fill="none" stroke="#bfbfbf" points="31.5,-61 31.5,-91 166.5,-91 166.5,-61 31.5,-61"/>
<text text-anchor="start" x="39.5" y="-79" font-family="Helvetica,sans-Serif" font-size="10.00">struct TDI_CONNECTION</text>
<text text-anchor="middle" x="99" y="-68" font-family="Helvetica,sans-Serif" font-size="10.00">_INFORMATION *</text>
</a>
</g>
</g>
<!-- Node3&#45;&gt;Node1 -->
<g id="edge2" class="edge">
<title>Node3&#45;&gt;Node1</title>
<path fill="none" stroke="#9a32cd" stroke-dasharray="5,2" d="M176.89,-76C237.98,-76 323.66,-76 388.68,-76"/>
<polygon fill="#9a32cd" stroke="#9a32cd" points="176.54,-72.5 166.54,-76 176.54,-79.5 176.54,-72.5"/>
<text text-anchor="middle" x="293.5" y="-79" font-family="Helvetica,sans-Serif" font-size="10.00"> RequestConnectionInformation</text>
</g>
<!-- Node4 -->
<g id="node4" class="node">
<title>Node4</title>
<g id="a_node4"><a xlink:title=" ">
<polygon fill="none" stroke="#bfbfbf" points="0,-0.5 0,-41.5 198,-41.5 198,-0.5 0,-0.5"/>
<text text-anchor="start" x="8" y="-29.5" font-family="Helvetica,sans-Serif" font-size="10.00">PSecurityUserData *typedef</text>
<text text-anchor="start" x="8" y="-18.5" font-family="Helvetica,sans-Serif" font-size="10.00"> PSECPKG_EXTENDED_INFORMATION</text>
<text text-anchor="middle" x="99" y="-7.5" font-family="Helvetica,sans-Serif" font-size="10.00"> *typedef</text>
</a>
</g>
</g>
<!-- Node4&#45;&gt;Node1 -->
<g id="edge3" class="edge">
<title>Node4&#45;&gt;Node1</title>
<path fill="none" stroke="#9a32cd" stroke-dasharray="5,2" d="M208.52,-36.63C275.32,-46.24 358.77,-58.26 415.81,-66.47"/>
<polygon fill="#9a32cd" stroke="#9a32cd" points="208.77,-33.12 198.37,-35.16 207.77,-40.05 208.77,-33.12"/>
<text text-anchor="middle" x="293.5" y="-62" font-family="Helvetica,sans-Serif" font-size="10.00"> SetType</text>
</g>
</g>
</svg>
