<?xml version="1.0" encoding="UTF-8" standalone="no"?>
<!DOCTYPE svg PUBLIC "-//W3C//DTD SVG 1.1//EN"
 "http://www.w3.org/Graphics/SVG/1.1/DTD/svg11.dtd">
<!-- Generated by graphviz version 2.43.0 (0)
 -->
<!-- Title: loopmsg_t Pages: 1 -->
<svg width="116pt" height="95pt"
 viewBox="0.00 0.00 116.00 95.00" xmlns="http://www.w3.org/2000/svg" xmlns:xlink="http://www.w3.org/1999/xlink">
<g id="graph0" class="graph" transform="scale(1 1) rotate(0) translate(4 91)">
<title>loopmsg_t</title>
<!-- Node1 -->
<g id="node1" class="node">
<title>Node1</title>
<g id="a_node1"><a xlink:title=" ">
<polygon fill="#bfbfbf" stroke="black" points="11.5,-0.5 11.5,-19.5 79.5,-19.5 79.5,-0.5 11.5,-0.5"/>
<text text-anchor="middle" x="45.5" y="-7.5" font-family="Helvetica,sans-Serif" font-size="10.00">loopmsg_t</text>
</a>
</g>
</g>
<!-- Node2 -->
<g id="node2" class="node">
<title>Node2</title>
<g id="a_node2"><a xlink:title=" ">
<polygon fill="none" stroke="#bfbfbf" points="0,-67.5 0,-86.5 29,-86.5 29,-67.5 0,-67.5"/>
<text text-anchor="middle" x="14.5" y="-74.5" font-family="Helvetica,sans-Serif" font-size="10.00">int</text>
</a>
</g>
</g>
<!-- Node2&#45;&gt;Node1 -->
<g id="edge1" class="edge">
<title>Node2&#45;&gt;Node1</title>
<path fill="none" stroke="#9a32cd" stroke-dasharray="5,2" d="M12.08,-57.06C12.02,-50.75 12.81,-43.84 15.5,-38 18.96,-30.49 25.61,-24.17 31.76,-19.53"/>
<polygon fill="#9a32cd" stroke="#9a32cd" points="8.62,-57.71 12.86,-67.41 15.6,-57.18 8.62,-57.71"/>
<text text-anchor="middle" x="35.5" y="-41" font-family="Helvetica,sans-Serif" font-size="10.00"> datalen</text>
</g>
<!-- Node3 -->
<g id="node3" class="node">
<title>Node3</title>
<g id="a_node3"><a xlink:title=" ">
<polygon fill="none" stroke="#bfbfbf" points="47,-67.5 47,-86.5 108,-86.5 108,-67.5 47,-67.5"/>
<text text-anchor="middle" x="77.5" y="-74.5" font-family="Helvetica,sans-Serif" font-size="10.00">unsigned</text>
</a>
</g>
</g>
<!-- Node3&#45;&gt;Node1 -->
<g id="edge2" class="edge">
<title>Node3&#45;&gt;Node1</title>
<path fill="none" stroke="#9a32cd" stroke-dasharray="5,2" d="M68.72,-58.16C62.55,-45.63 54.56,-29.41 49.75,-19.63"/>
<polygon fill="#9a32cd" stroke="#9a32cd" points="65.63,-59.81 73.18,-67.23 71.91,-56.72 65.63,-59.81"/>
<text text-anchor="middle" x="75" y="-41" font-family="Helvetica,sans-Serif" font-size="10.00"> data</text>
</g>
</g>
</svg>
