<?xml version="1.0" encoding="UTF-8" standalone="no"?>
<!DOCTYPE svg PUBLIC "-//W3C//DTD SVG 1.1//EN"
 "http://www.w3.org/Graphics/SVG/1.1/DTD/svg11.dtd">
<!-- Generated by graphviz version 2.43.0 (0)
 -->
<!-- Title: Tools/MinGW/include/excpt.h Pages: 1 -->
<svg width="432pt" height="263pt"
 viewBox="0.00 0.00 432.00 263.00" xmlns="http://www.w3.org/2000/svg" xmlns:xlink="http://www.w3.org/1999/xlink">
<g id="graph0" class="graph" transform="scale(1 1) rotate(0) translate(4 259)">
<title>Tools/MinGW/include/excpt.h</title>
<!-- Node1 -->
<g id="node1" class="node">
<title>Node1</title>
<g id="a_node1"><a xlink:title=" ">
<polygon fill="#bfbfbf" stroke="black" points="11.5,-224.5 11.5,-254.5 129.5,-254.5 129.5,-224.5 11.5,-224.5"/>
<text text-anchor="start" x="19.5" y="-242.5" font-family="Helvetica,sans-Serif" font-size="10.00">Tools/MinGW/include</text>
<text text-anchor="middle" x="70.5" y="-231.5" font-family="Helvetica,sans-Serif" font-size="10.00">/excpt.h</text>
</a>
</g>
</g>
<!-- Node2 -->
<g id="node2" class="node">
<title>Node2</title>
<g id="a_node2"><a xlink:href="../../da/d3d/__mingw_8h.html" target="_top" xlink:title=" ">
<polygon fill="none" stroke="black" points="0,-0.5 0,-19.5 63,-19.5 63,-0.5 0,-0.5"/>
<text text-anchor="middle" x="31.5" y="-7.5" font-family="Helvetica,sans-Serif" font-size="10.00">_mingw.h</text>
</a>
</g>
</g>
<!-- Node1&#45;&gt;Node2 -->
<g id="edge1" class="edge">
<title>Node1&#45;&gt;Node2</title>
<path fill="none" stroke="midnightblue" d="M64.62,-224.49C53.34,-196.75 29.01,-132.63 20.5,-76 18.13,-60.26 21.58,-42.44 25.23,-29.45"/>
<polygon fill="midnightblue" stroke="midnightblue" points="28.6,-30.4 28.22,-19.81 21.91,-28.33 28.6,-30.4"/>
</g>
<!-- Node3 -->
<g id="node3" class="node">
<title>Node3</title>
<g id="a_node3"><a xlink:href="../../db/d06/windef_8h.html" target="_top" xlink:title=" ">
<polygon fill="none" stroke="black" points="114.5,-168.5 114.5,-187.5 172.5,-187.5 172.5,-168.5 114.5,-168.5"/>
<text text-anchor="middle" x="143.5" y="-175.5" font-family="Helvetica,sans-Serif" font-size="10.00">windef.h</text>
</a>
</g>
</g>
<!-- Node1&#45;&gt;Node3 -->
<g id="edge2" class="edge">
<title>Node1&#45;&gt;Node3</title>
<path fill="none" stroke="midnightblue" d="M87.8,-224.4C98.95,-215.31 113.45,-203.49 124.86,-194.19"/>
<polygon fill="midnightblue" stroke="midnightblue" points="127.34,-196.69 132.88,-187.66 122.92,-191.26 127.34,-196.69"/>
</g>
<!-- Node4 -->
<g id="node4" class="node">
<title>Node4</title>
<g id="a_node4"><a xlink:href="../../d9/dfa/winnt_8h.html" target="_top" xlink:title=" ">
<polygon fill="none" stroke="black" points="151,-112.5 151,-131.5 204,-131.5 204,-112.5 151,-112.5"/>
<text text-anchor="middle" x="177.5" y="-119.5" font-family="Helvetica,sans-Serif" font-size="10.00">winnt.h</text>
</a>
</g>
</g>
<!-- Node3&#45;&gt;Node4 -->
<g id="edge3" class="edge">
<title>Node3&#45;&gt;Node4</title>
<path fill="none" stroke="midnightblue" d="M149.11,-168.08C153.87,-160.53 160.82,-149.49 166.65,-140.23"/>
<polygon fill="midnightblue" stroke="midnightblue" points="169.62,-142.08 171.99,-131.75 163.7,-138.35 169.62,-142.08"/>
</g>
<!-- Node5 -->
<g id="node5" class="node">
<title>Node5</title>
<g id="a_node5"><a xlink:href="../../d4/ded/winerror_8h.html" target="_top" xlink:title=" ">
<polygon fill="none" stroke="black" points="30,-56.5 30,-75.5 95,-75.5 95,-56.5 30,-56.5"/>
<text text-anchor="middle" x="62.5" y="-63.5" font-family="Helvetica,sans-Serif" font-size="10.00">winerror.h</text>
</a>
</g>
</g>
<!-- Node4&#45;&gt;Node5 -->
<g id="edge4" class="edge">
<title>Node4&#45;&gt;Node5</title>
<path fill="none" stroke="midnightblue" d="M159.28,-112.44C140.6,-103.68 111.34,-89.94 89.88,-79.86"/>
<polygon fill="midnightblue" stroke="midnightblue" points="91.18,-76.6 80.64,-75.52 88.2,-82.93 91.18,-76.6"/>
</g>
<!-- Node6 -->
<g id="node6" class="node">
<title>Node6</title>
<g id="a_node6"><a xlink:href="../../d7/de6/include_2string_8h.html" target="_top" xlink:title=" ">
<polygon fill="none" stroke="black" points="113,-56.5 113,-75.5 166,-75.5 166,-56.5 113,-56.5"/>
<text text-anchor="middle" x="139.5" y="-63.5" font-family="Helvetica,sans-Serif" font-size="10.00">string.h</text>
</a>
</g>
</g>
<!-- Node4&#45;&gt;Node6 -->
<g id="edge5" class="edge">
<title>Node4&#45;&gt;Node6</title>
<path fill="none" stroke="midnightblue" d="M171.23,-112.08C165.86,-104.46 157.98,-93.26 151.42,-83.94"/>
<polygon fill="midnightblue" stroke="midnightblue" points="154.28,-81.91 145.66,-75.75 148.55,-85.94 154.28,-81.91"/>
</g>
<!-- Node8 -->
<g id="node8" class="node">
<title>Node8</title>
<g id="a_node8"><a xlink:href="../../db/de8/basetsd_8h.html" target="_top" xlink:title=" ">
<polygon fill="none" stroke="black" points="184.5,-56.5 184.5,-75.5 248.5,-75.5 248.5,-56.5 184.5,-56.5"/>
<text text-anchor="middle" x="216.5" y="-63.5" font-family="Helvetica,sans-Serif" font-size="10.00">basetsd.h</text>
</a>
</g>
</g>
<!-- Node4&#45;&gt;Node8 -->
<g id="edge8" class="edge">
<title>Node4&#45;&gt;Node8</title>
<path fill="none" stroke="midnightblue" d="M183.94,-112.08C189.45,-104.46 197.53,-93.26 204.26,-83.94"/>
<polygon fill="midnightblue" stroke="midnightblue" points="207.16,-85.91 210.18,-75.75 201.49,-81.81 207.16,-85.91"/>
</g>
<!-- Node9 -->
<g id="node9" class="node">
<title>Node9</title>
<g id="a_node9"><a xlink:href="../../dd/d76/pshpack4_8h.html" target="_top" xlink:title=" ">
<polygon fill="none" stroke="black" points="266.5,-56.5 266.5,-75.5 338.5,-75.5 338.5,-56.5 266.5,-56.5"/>
<text text-anchor="middle" x="302.5" y="-63.5" font-family="Helvetica,sans-Serif" font-size="10.00">pshpack4.h</text>
</a>
</g>
</g>
<!-- Node4&#45;&gt;Node9 -->
<g id="edge9" class="edge">
<title>Node4&#45;&gt;Node9</title>
<path fill="none" stroke="midnightblue" d="M197.31,-112.44C217.79,-103.6 249.98,-89.69 273.36,-79.59"/>
<polygon fill="midnightblue" stroke="midnightblue" points="274.99,-82.7 282.79,-75.52 272.22,-76.27 274.99,-82.7"/>
</g>
<!-- Node10 -->
<g id="node10" class="node">
<title>Node10</title>
<g id="a_node10"><a xlink:href="../../d3/df1/poppack_8h.html" target="_top" xlink:title=" ">
<polygon fill="none" stroke="black" points="357,-56.5 357,-75.5 424,-75.5 424,-56.5 357,-56.5"/>
<text text-anchor="middle" x="390.5" y="-63.5" font-family="Helvetica,sans-Serif" font-size="10.00">poppack.h</text>
</a>
</g>
</g>
<!-- Node4&#45;&gt;Node10 -->
<g id="edge10" class="edge">
<title>Node4&#45;&gt;Node10</title>
<path fill="none" stroke="midnightblue" d="M204.05,-114.27C239.87,-105.19 304.14,-88.89 347.06,-78.01"/>
<polygon fill="midnightblue" stroke="midnightblue" points="348.11,-81.36 356.95,-75.51 346.39,-74.57 348.11,-81.36"/>
</g>
<!-- Node6&#45;&gt;Node2 -->
<g id="edge6" class="edge">
<title>Node6&#45;&gt;Node2</title>
<path fill="none" stroke="midnightblue" d="M122.15,-56.32C104.83,-47.66 77.98,-34.24 58,-24.25"/>
<polygon fill="midnightblue" stroke="midnightblue" points="59.32,-21 48.81,-19.65 56.19,-27.26 59.32,-21"/>
</g>
<!-- Node7 -->
<g id="node7" class="node">
<title>Node7</title>
<g id="a_node7"><a xlink:href="../../d3/dce/stddef_8h.html" target="_top" xlink:title=" ">
<polygon fill="none" stroke="black" points="111.5,-0.5 111.5,-19.5 167.5,-19.5 167.5,-0.5 111.5,-0.5"/>
<text text-anchor="middle" x="139.5" y="-7.5" font-family="Helvetica,sans-Serif" font-size="10.00">stddef.h</text>
</a>
</g>
</g>
<!-- Node6&#45;&gt;Node7 -->
<g id="edge7" class="edge">
<title>Node6&#45;&gt;Node7</title>
<path fill="none" stroke="midnightblue" d="M139.5,-56.08C139.5,-49.01 139.5,-38.86 139.5,-29.99"/>
<polygon fill="midnightblue" stroke="midnightblue" points="143,-29.75 139.5,-19.75 136,-29.75 143,-29.75"/>
</g>
</g>
</svg>
