<?xml version="1.0" encoding="UTF-8" standalone="no"?>
<!DOCTYPE svg PUBLIC "-//W3C//DTD SVG 1.1//EN"
 "http://www.w3.org/Graphics/SVG/1.1/DTD/svg11.dtd">
<!-- Generated by graphviz version 2.43.0 (0)
 -->
<!-- Title: drawSurfsCommand_t Pages: 1 -->
<!--zoomable 1258 -->
<svg id="main" version="1.1" xmlns="http://www.w3.org/2000/svg" xmlns:xlink="http://www.w3.org/1999/xlink" xml:space="preserve" onload="init(evt)">
<style type="text/css"><![CDATA[
.edge:hover path { stroke: red; }
.edge:hover polygon { stroke: red; fill: red; }
]]></style>
<script type="text/javascript"><![CDATA[
var edges = document.getElementsByTagName('g');
if (edges && edges.length) {
  for (var i=0;i<edges.length;i++) {
    if (edges[i].id.substr(0,4)=='edge') {
      edges[i].setAttribute('class','edge');
    }
  }
}
]]></script>
        <defs>
                <circle id="rim" cx="0" cy="0" r="7"/>
                <circle id="rim2" cx="0" cy="0" r="3.5"/>
                <g id="zoomPlus">
                        <use xlink:href="#rim" fill="#404040">
                                <set attributeName="fill" to="#808080" begin="zoomplus.mouseover" end="zoomplus.mouseout"/>
                        </use>
                        <path d="M-4,0h8M0,-4v8" fill="none" stroke="white" stroke-width="1.5" pointer-events="none"/>
                </g>
                <g id="zoomMin">
                        <use xlink:href="#rim" fill="#404040">
                                <set attributeName="fill" to="#808080" begin="zoomminus.mouseover" end="zoomminus.mouseout"/>
                        </use>
                        <path d="M-4,0h8" fill="none" stroke="white" stroke-width="1.5" pointer-events="none"/>
                </g>
                <g id="dirArrow">
                        <path fill="none" stroke="white" stroke-width="1.5" d="M0,-3.0v7 M-2.5,-0.5L0,-3.0L2.5,-0.5"/>
                </g>
               <g id="resetDef">
                       <use xlink:href="#rim2" fill="#404040">
                               <set attributeName="fill" to="#808080" begin="reset.mouseover" end="reset.mouseout"/>
                       </use>
               </g>
        </defs>

<script type="text/javascript">
var viewWidth = 896;
var viewHeight = 1258;
var sectionId = 'dynsection-0';
</script>
<script xlink:href="../../svgpan.js"/>
<svg id="graph" class="graph">
<g id="viewport">
<title>drawSurfsCommand_t</title>
<!-- Node1 -->
<g id="node1" class="node">
<title>Node1</title>
<g id="a_node1"><a xlink:title=" ">
<polygon fill="#bfbfbf" stroke="black" points="763,-119.94 763,-138.94 888,-138.94 888,-119.94 763,-119.94"/>
<text text-anchor="middle" x="825.5" y="-126.94" font-family="Helvetica,sans-Serif" font-size="10.00">drawSurfsCommand_t</text>
</a>
</g>
</g>
<!-- Node2 -->
<g id="node2" class="node">
<title>Node2</title>
<g id="a_node2"><a xlink:href="../../d3/d32/structviewParms__t.html" target="_top" xlink:title=" ">
<polygon fill="none" stroke="black" points="451,-286.94 451,-305.94 530,-305.94 530,-286.94 451,-286.94"/>
<text text-anchor="middle" x="490.5" y="-293.94" font-family="Helvetica,sans-Serif" font-size="10.00">viewParms_t</text>
</a>
</g>
</g>
<!-- Node2&#45;&gt;Node1 -->
<g id="edge1" class="edge">
<title>Node2&#45;&gt;Node1</title>
<path fill="none" stroke="#9a32cd" stroke-dasharray="5,2" d="M519.89,-282.2C586.19,-248.95 749.75,-166.92 805.52,-138.96"/>
<polygon fill="#9a32cd" stroke="#9a32cd" points="518.21,-279.12 510.84,-286.74 521.35,-285.38 518.21,-279.12"/>
<text text-anchor="middle" x="640.5" y="-240.44" font-family="Helvetica,sans-Serif" font-size="10.00"> viewParms</text>
</g>
<!-- Node3 -->
<g id="node3" class="node">
<title>Node3</title>
<g id="a_node3"><a xlink:href="../../df/d9c/structorientationr__t.html" target="_top" xlink:title=" ">
<polygon fill="none" stroke="black" points="233.5,-279.94 233.5,-298.94 316.5,-298.94 316.5,-279.94 233.5,-279.94"/>
<text text-anchor="middle" x="275" y="-286.94" font-family="Helvetica,sans-Serif" font-size="10.00">orientationr_t</text>
</a>
</g>
</g>
<!-- Node3&#45;&gt;Node2 -->
<g id="edge2" class="edge">
<title>Node3&#45;&gt;Node2</title>
<path fill="none" stroke="#9a32cd" stroke-dasharray="5,2" d="M327.01,-291.11C365.01,-292.35 416.11,-294.03 450.79,-295.17"/>
<polygon fill="#9a32cd" stroke="#9a32cd" points="326.77,-287.6 316.66,-290.77 326.54,-294.6 326.77,-287.6"/>
<text text-anchor="middle" x="386" y="-308.44" font-family="Helvetica,sans-Serif" font-size="10.00"> or</text>
<text text-anchor="middle" x="386" y="-297.44" font-family="Helvetica,sans-Serif" font-size="10.00">world</text>
</g>
<!-- Node4 -->
<g id="node4" class="node">
<title>Node4</title>
<g id="a_node4"><a xlink:href="../../d4/dc3/classfloat.html" target="_top" xlink:title=" ">
<polygon fill="none" stroke="black" points="27,-487.94 27,-506.94 65,-506.94 65,-487.94 27,-487.94"/>
<text text-anchor="middle" x="46" y="-494.94" font-family="Helvetica,sans-Serif" font-size="10.00">float</text>
</a>
</g>
</g>
<!-- Node4&#45;&gt;Node2 -->
<g id="edge4" class="edge">
<title>Node4&#45;&gt;Node2</title>
<path fill="none" stroke="#9a32cd" stroke-dasharray="5,2" d="M55.12,-478.38C64.99,-457.6 83.65,-424.98 110,-407.44 149.95,-380.84 274.92,-374.83 321,-361.44 371.9,-346.65 383.7,-339.92 433,-320.44 444.5,-315.89 457.18,-310.54 467.6,-306.04"/>
<polygon fill="#9a32cd" stroke="#9a32cd" points="51.81,-477.21 50.88,-487.76 58.18,-480.09 51.81,-477.21"/>
<text text-anchor="middle" x="275" y="-434.44" font-family="Helvetica,sans-Serif" font-size="10.00"> pvsOrigin</text>
<text text-anchor="middle" x="275" y="-423.44" font-family="Helvetica,sans-Serif" font-size="10.00">visBounds</text>
<text text-anchor="middle" x="275" y="-412.44" font-family="Helvetica,sans-Serif" font-size="10.00">fovX</text>
<text text-anchor="middle" x="275" y="-401.44" font-family="Helvetica,sans-Serif" font-size="10.00">projectionMatrix</text>
<text text-anchor="middle" x="275" y="-390.44" font-family="Helvetica,sans-Serif" font-size="10.00">fovY</text>
<text text-anchor="middle" x="275" y="-379.44" font-family="Helvetica,sans-Serif" font-size="10.00">zFar</text>
</g>
<!-- Node4&#45;&gt;Node3 -->
<g id="edge3" class="edge">
<title>Node4&#45;&gt;Node3</title>
<path fill="none" stroke="#9a32cd" stroke-dasharray="5,2" d="M54.75,-478.44C63.84,-456.03 79.29,-417.64 92,-384.44 100.29,-362.77 92.58,-350.76 110,-335.44 144.57,-305.03 166.84,-325.47 211,-312.44 224.07,-308.58 238.35,-303.44 250.01,-299"/>
<polygon fill="#9a32cd" stroke="#9a32cd" points="51.47,-477.21 50.94,-487.8 57.95,-479.85 51.47,-477.21"/>
<text text-anchor="middle" x="160.5" y="-371.44" font-family="Helvetica,sans-Serif" font-size="10.00"> origin</text>
<text text-anchor="middle" x="160.5" y="-360.44" font-family="Helvetica,sans-Serif" font-size="10.00">modelMatrix</text>
<text text-anchor="middle" x="160.5" y="-349.44" font-family="Helvetica,sans-Serif" font-size="10.00">viewOrigin</text>
<text text-anchor="middle" x="160.5" y="-338.44" font-family="Helvetica,sans-Serif" font-size="10.00">axis</text>
</g>
<!-- Node10 -->
<g id="node10" class="node">
<title>Node10</title>
<g id="a_node10"><a xlink:href="../../d0/db0/structtrRefdef__t.html" target="_top" xlink:title=" ">
<polygon fill="none" stroke="black" points="608,-531.94 608,-550.94 673,-550.94 673,-531.94 608,-531.94"/>
<text text-anchor="middle" x="640.5" y="-538.94" font-family="Helvetica,sans-Serif" font-size="10.00">trRefdef_t</text>
</a>
</g>
</g>
<!-- Node4&#45;&gt;Node10 -->
<g id="edge22" class="edge">
<title>Node4&#45;&gt;Node10</title>
<path fill="none" stroke="#9a32cd" stroke-dasharray="5,2" d="M46.92,-517.21C47.87,-558.75 56.1,-655.59 110,-708.44 143.26,-741.05 179.68,-701.96 211,-736.44 241.96,-770.51 193.73,-808.85 229,-838.44 260.32,-864.72 282.96,-853.42 321,-838.44 478.92,-776.23 604.81,-594.72 633.39,-550.99"/>
<polygon fill="#9a32cd" stroke="#9a32cd" points="50.42,-517.01 46.82,-507.05 43.42,-517.08 50.42,-517.01"/>
<text text-anchor="middle" x="386" y="-876.44" font-family="Helvetica,sans-Serif" font-size="10.00"> floatTime</text>
<text text-anchor="middle" x="386" y="-865.44" font-family="Helvetica,sans-Serif" font-size="10.00">viewaxis</text>
<text text-anchor="middle" x="386" y="-854.44" font-family="Helvetica,sans-Serif" font-size="10.00">vieworg</text>
<text text-anchor="middle" x="386" y="-843.44" font-family="Helvetica,sans-Serif" font-size="10.00">fov_x</text>
<text text-anchor="middle" x="386" y="-832.44" font-family="Helvetica,sans-Serif" font-size="10.00">fov_y</text>
</g>
<!-- Node13 -->
<g id="node13" class="node">
<title>Node13</title>
<g id="a_node13"><a xlink:href="../../dd/dbd/structpolyVert__t.html" target="_top" xlink:title=" ">
<polygon fill="none" stroke="black" points="242,-515.94 242,-534.94 308,-534.94 308,-515.94 242,-515.94"/>
<text text-anchor="middle" x="275" y="-522.94" font-family="Helvetica,sans-Serif" font-size="10.00">polyVert_t</text>
</a>
</g>
</g>
<!-- Node4&#45;&gt;Node13 -->
<g id="edge16" class="edge">
<title>Node4&#45;&gt;Node13</title>
<path fill="none" stroke="#9a32cd" stroke-dasharray="5,2" d="M67.4,-482.15C79.18,-474.28 94.67,-465.51 110,-461.44 153.39,-449.91 173.83,-436.27 211,-461.44 228.84,-473.51 213.91,-491.06 229,-506.44 232.68,-510.19 237.22,-513.24 241.98,-515.71"/>
<polygon fill="#9a32cd" stroke="#9a32cd" points="65.36,-479.3 59.17,-487.89 69.37,-485.04 65.36,-479.3"/>
<text text-anchor="middle" x="160.5" y="-475.44" font-family="Helvetica,sans-Serif" font-size="10.00"> st</text>
<text text-anchor="middle" x="160.5" y="-464.44" font-family="Helvetica,sans-Serif" font-size="10.00">xyz</text>
</g>
<!-- Node18 -->
<g id="node18" class="node">
<title>Node18</title>
<g id="a_node18"><a xlink:href="../../db/dbb/structtrRefEntity__t.html" target="_top" xlink:title=" ">
<polygon fill="none" stroke="black" points="451.5,-569.94 451.5,-588.94 529.5,-588.94 529.5,-569.94 451.5,-569.94"/>
<text text-anchor="middle" x="490.5" y="-576.94" font-family="Helvetica,sans-Serif" font-size="10.00">trRefEntity_t</text>
</a>
</g>
</g>
<!-- Node4&#45;&gt;Node18 -->
<g id="edge24" class="edge">
<title>Node4&#45;&gt;Node18</title>
<path fill="none" stroke="#9a32cd" stroke-dasharray="5,2" d="M74.98,-492.31C109.83,-487.49 169.8,-484.54 211,-511.44 224.99,-520.57 215.24,-534.97 229,-544.44 296.3,-590.73 396.84,-589.39 451.24,-584.41"/>
<polygon fill="#9a32cd" stroke="#9a32cd" points="74.37,-488.86 65.02,-493.83 75.43,-495.78 74.37,-488.86"/>
<text text-anchor="middle" x="275" y="-637.44" font-family="Helvetica,sans-Serif" font-size="10.00"> dynamicLight</text>
<text text-anchor="middle" x="275" y="-626.44" font-family="Helvetica,sans-Serif" font-size="10.00">lightDistance</text>
<text text-anchor="middle" x="275" y="-615.44" font-family="Helvetica,sans-Serif" font-size="10.00">directedLight</text>
<text text-anchor="middle" x="275" y="-604.44" font-family="Helvetica,sans-Serif" font-size="10.00">lightDir</text>
<text text-anchor="middle" x="275" y="-593.44" font-family="Helvetica,sans-Serif" font-size="10.00">axisLength</text>
<text text-anchor="middle" x="275" y="-582.44" font-family="Helvetica,sans-Serif" font-size="10.00">ambientLight</text>
</g>
<!-- Node19 -->
<g id="node19" class="node">
<title>Node19</title>
<g id="a_node19"><a xlink:href="../../d7/dea/structrefEntity__t.html" target="_top" xlink:title=" ">
<polygon fill="none" stroke="black" points="241,-655.94 241,-674.94 309,-674.94 309,-655.94 241,-655.94"/>
<text text-anchor="middle" x="275" y="-662.94" font-family="Helvetica,sans-Serif" font-size="10.00">refEntity_t</text>
</a>
</g>
</g>
<!-- Node4&#45;&gt;Node19 -->
<g id="edge27" class="edge">
<title>Node4&#45;&gt;Node19</title>
<path fill="none" stroke="#9a32cd" stroke-dasharray="5,2" d="M59.29,-515.61C70.64,-530.98 88.92,-552.37 110,-564.44 149.95,-587.31 176.89,-556.51 211,-587.44 229.74,-604.43 212.68,-622.11 229,-641.44 234.14,-647.52 241.23,-652.3 248.26,-655.93"/>
<polygon fill="#9a32cd" stroke="#9a32cd" points="62.08,-513.5 53.43,-507.38 56.37,-517.55 62.08,-513.5"/>
<text text-anchor="middle" x="160.5" y="-700.44" font-family="Helvetica,sans-Serif" font-size="10.00"> oldorigin</text>
<text text-anchor="middle" x="160.5" y="-689.44" font-family="Helvetica,sans-Serif" font-size="10.00">shaderTexCoord</text>
<text text-anchor="middle" x="160.5" y="-678.44" font-family="Helvetica,sans-Serif" font-size="10.00">radius</text>
<text text-anchor="middle" x="160.5" y="-667.44" font-family="Helvetica,sans-Serif" font-size="10.00">rotation</text>
<text text-anchor="middle" x="160.5" y="-656.44" font-family="Helvetica,sans-Serif" font-size="10.00">lightingOrigin</text>
<text text-anchor="middle" x="160.5" y="-645.44" font-family="Helvetica,sans-Serif" font-size="10.00">backlerp</text>
<text text-anchor="middle" x="160.5" y="-634.44" font-family="Helvetica,sans-Serif" font-size="10.00">origin</text>
<text text-anchor="middle" x="160.5" y="-623.44" font-family="Helvetica,sans-Serif" font-size="10.00">shadowPlane</text>
<text text-anchor="middle" x="160.5" y="-612.44" font-family="Helvetica,sans-Serif" font-size="10.00">shaderTime</text>
<text text-anchor="middle" x="160.5" y="-601.44" font-family="Helvetica,sans-Serif" font-size="10.00">axis</text>
<text text-anchor="middle" x="160.5" y="-590.44" font-family="Helvetica,sans-Serif" font-size="10.00">...</text>
</g>
<!-- Node21 -->
<g id="node21" class="node">
<title>Node21</title>
<g id="a_node21"><a xlink:href="../../d2/d46/structdlight__s.html" target="_top" xlink:title=" ">
<polygon fill="none" stroke="black" points="247.5,-975.94 247.5,-994.94 302.5,-994.94 302.5,-975.94 247.5,-975.94"/>
<text text-anchor="middle" x="275" y="-982.94" font-family="Helvetica,sans-Serif" font-size="10.00">dlight_s</text>
</a>
</g>
</g>
<!-- Node4&#45;&gt;Node21 -->
<g id="edge34" class="edge">
<title>Node4&#45;&gt;Node21</title>
<path fill="none" stroke="#9a32cd" stroke-dasharray="5,2" d="M51,-516.88C59.29,-557.53 78.67,-654.54 92,-736.44 101.44,-794.44 80.23,-816.76 110,-867.44 138.45,-915.87 170.9,-904.09 211,-943.44 220.27,-952.53 218.69,-958.55 229,-966.44 234.39,-970.56 240.8,-973.96 247.08,-976.69"/>
<polygon fill="#9a32cd" stroke="#9a32cd" points="54.41,-516.06 48.97,-506.97 47.55,-517.47 54.41,-516.06"/>
<text text-anchor="middle" x="160.5" y="-979.44" font-family="Helvetica,sans-Serif" font-size="10.00"> radius</text>
<text text-anchor="middle" x="160.5" y="-968.44" font-family="Helvetica,sans-Serif" font-size="10.00">origin</text>
<text text-anchor="middle" x="160.5" y="-957.44" font-family="Helvetica,sans-Serif" font-size="10.00">transformed</text>
<text text-anchor="middle" x="160.5" y="-946.44" font-family="Helvetica,sans-Serif" font-size="10.00">color</text>
</g>
<!-- Node5 -->
<g id="node5" class="node">
<title>Node5</title>
<g id="a_node5"><a xlink:title=" ">
<polygon fill="none" stroke="#bfbfbf" points="31.5,-996.94 31.5,-1015.94 60.5,-1015.94 60.5,-996.94 31.5,-996.94"/>
<text text-anchor="middle" x="46" y="-1003.94" font-family="Helvetica,sans-Serif" font-size="10.00">int</text>
</a>
</g>
</g>
<!-- Node5&#45;&gt;Node1 -->
<g id="edge10" class="edge">
<title>Node5&#45;&gt;Node1</title>
<path fill="none" stroke="#9a32cd" stroke-dasharray="5,2" d="M55.14,-1025.36C79.65,-1079.05 158.24,-1228.44 274,-1228.44 274,-1228.44 274,-1228.44 641.5,-1228.44 758.52,-1228.44 817.83,-246.35 823.97,-138.94"/>
<polygon fill="#9a32cd" stroke="#9a32cd" points="58.23,-1023.69 50.97,-1015.98 51.83,-1026.53 58.23,-1023.69"/>
<text text-anchor="middle" x="490.5" y="-1242.44" font-family="Helvetica,sans-Serif" font-size="10.00"> numDrawSurfs</text>
<text text-anchor="middle" x="490.5" y="-1231.44" font-family="Helvetica,sans-Serif" font-size="10.00">commandId</text>
</g>
<!-- Node5&#45;&gt;Node2 -->
<g id="edge5" class="edge">
<title>Node5&#45;&gt;Node2</title>
<path fill="none" stroke="#9a32cd" stroke-dasharray="5,2" d="M66.26,-990.4C78.22,-981.12 94.27,-969.84 110,-962.44 152.14,-942.59 181.29,-970.31 211,-934.44 241.72,-897.34 199.85,-756.78 229,-718.44 255.38,-683.73 292.53,-717.45 321,-684.44 346.5,-654.86 324.92,-634.86 339,-598.44 368.73,-521.51 396.76,-512.52 433,-438.44 456.67,-390.05 478.33,-329.11 486.28,-305.95"/>
<polygon fill="#9a32cd" stroke="#9a32cd" points="63.97,-987.75 58.34,-996.72 68.34,-993.22 63.97,-987.75"/>
<text text-anchor="middle" x="275" y="-776.44" font-family="Helvetica,sans-Serif" font-size="10.00"> viewportHeight</text>
<text text-anchor="middle" x="275" y="-765.44" font-family="Helvetica,sans-Serif" font-size="10.00">viewportWidth</text>
<text text-anchor="middle" x="275" y="-754.44" font-family="Helvetica,sans-Serif" font-size="10.00">frameSceneNum</text>
<text text-anchor="middle" x="275" y="-743.44" font-family="Helvetica,sans-Serif" font-size="10.00">viewportX</text>
<text text-anchor="middle" x="275" y="-732.44" font-family="Helvetica,sans-Serif" font-size="10.00">frameCount</text>
<text text-anchor="middle" x="275" y="-721.44" font-family="Helvetica,sans-Serif" font-size="10.00">viewportY</text>
</g>
<!-- Node5&#45;&gt;Node10 -->
<g id="edge36" class="edge">
<title>Node5&#45;&gt;Node10</title>
<path fill="none" stroke="#9a32cd" stroke-dasharray="5,2" d="M70.32,-1016.27C82.07,-1020.98 96.64,-1026.46 110,-1030.44 161.88,-1045.89 175.18,-1050.63 229,-1056.44 363.97,-1071.01 411.24,-1070.22 530,-1004.44 561.34,-987.07 571.95,-980.47 588,-948.44 624.61,-875.36 636.97,-606.21 639.14,-551.27"/>
<polygon fill="#9a32cd" stroke="#9a32cd" points="71.39,-1012.93 60.81,-1012.38 68.74,-1019.41 71.39,-1012.93"/>
<text text-anchor="middle" x="386" y="-1176.44" font-family="Helvetica,sans-Serif" font-size="10.00"> numDrawSurfs</text>
<text text-anchor="middle" x="386" y="-1165.44" font-family="Helvetica,sans-Serif" font-size="10.00">width</text>
<text text-anchor="middle" x="386" y="-1154.44" font-family="Helvetica,sans-Serif" font-size="10.00">x</text>
<text text-anchor="middle" x="386" y="-1143.44" font-family="Helvetica,sans-Serif" font-size="10.00">num_entities</text>
<text text-anchor="middle" x="386" y="-1132.44" font-family="Helvetica,sans-Serif" font-size="10.00">y</text>
<text text-anchor="middle" x="386" y="-1121.44" font-family="Helvetica,sans-Serif" font-size="10.00">height</text>
<text text-anchor="middle" x="386" y="-1110.44" font-family="Helvetica,sans-Serif" font-size="10.00">rdflags</text>
<text text-anchor="middle" x="386" y="-1099.44" font-family="Helvetica,sans-Serif" font-size="10.00">numPolys</text>
<text text-anchor="middle" x="386" y="-1088.44" font-family="Helvetica,sans-Serif" font-size="10.00">time</text>
<text text-anchor="middle" x="386" y="-1077.44" font-family="Helvetica,sans-Serif" font-size="10.00">num_dlights</text>
<text text-anchor="middle" x="386" y="-1066.44" font-family="Helvetica,sans-Serif" font-size="10.00">...</text>
</g>
<!-- Node11 -->
<g id="node11" class="node">
<title>Node11</title>
<g id="a_node11"><a xlink:href="../../dc/d5a/structsrfPoly__s.html" target="_top" xlink:title=" ">
<polygon fill="none" stroke="black" points="460,-922.94 460,-941.94 521,-941.94 521,-922.94 460,-922.94"/>
<text text-anchor="middle" x="490.5" y="-929.94" font-family="Helvetica,sans-Serif" font-size="10.00">srfPoly_s</text>
</a>
</g>
</g>
<!-- Node5&#45;&gt;Node11 -->
<g id="edge14" class="edge">
<title>Node5&#45;&gt;Node11</title>
<path fill="none" stroke="#9a32cd" stroke-dasharray="5,2" d="M70.89,-1010.19C82.64,-1011.85 97.03,-1013.62 110,-1014.44 203.7,-1020.36 229.81,-1026.77 321,-1004.44 379.09,-990.21 442.73,-958.05 472.45,-941.97"/>
<polygon fill="#9a32cd" stroke="#9a32cd" points="71.37,-1006.72 60.96,-1008.72 70.34,-1013.65 71.37,-1006.72"/>
<text text-anchor="middle" x="275" y="-1044.44" font-family="Helvetica,sans-Serif" font-size="10.00"> fogIndex</text>
<text text-anchor="middle" x="275" y="-1033.44" font-family="Helvetica,sans-Serif" font-size="10.00">numVerts</text>
<text text-anchor="middle" x="275" y="-1022.44" font-family="Helvetica,sans-Serif" font-size="10.00">hShader</text>
</g>
<!-- Node5&#45;&gt;Node18 -->
<g id="edge25" class="edge">
<title>Node5&#45;&gt;Node18</title>
<path fill="none" stroke="#9a32cd" stroke-dasharray="5,2" d="M70.56,-999.19C82.38,-995.59 96.93,-991.22 110,-987.44 154.75,-974.49 175.92,-990.09 211,-959.44 226.29,-946.07 218.69,-934.94 229,-917.44 304.08,-789.97 343.16,-771.96 433,-654.44 450.82,-631.12 471.51,-603.52 482.23,-589.18"/>
<polygon fill="#9a32cd" stroke="#9a32cd" points="69.53,-995.85 60.99,-1002.12 71.57,-1002.54 69.53,-995.85"/>
<text text-anchor="middle" x="275" y="-920.44" font-family="Helvetica,sans-Serif" font-size="10.00"> ambientLightInt</text>
</g>
<!-- Node5&#45;&gt;Node19 -->
<g id="edge28" class="edge">
<title>Node5&#45;&gt;Node19</title>
<path fill="none" stroke="#9a32cd" stroke-dasharray="5,2" d="M46.8,-986.51C47.49,-944.24 55.23,-844.97 110,-790.44 143.09,-757.48 178.55,-795.03 211,-761.44 233.92,-737.71 208.7,-715.44 229,-689.44 233.8,-683.29 240.61,-678.54 247.49,-674.94"/>
<polygon fill="#9a32cd" stroke="#9a32cd" points="43.3,-986.61 46.75,-996.62 50.3,-986.64 43.3,-986.61"/>
<text text-anchor="middle" x="160.5" y="-859.44" font-family="Helvetica,sans-Serif" font-size="10.00"> customShader</text>
<text text-anchor="middle" x="160.5" y="-848.44" font-family="Helvetica,sans-Serif" font-size="10.00">hModel</text>
<text text-anchor="middle" x="160.5" y="-837.44" font-family="Helvetica,sans-Serif" font-size="10.00">renderfx</text>
<text text-anchor="middle" x="160.5" y="-826.44" font-family="Helvetica,sans-Serif" font-size="10.00">frame</text>
<text text-anchor="middle" x="160.5" y="-815.44" font-family="Helvetica,sans-Serif" font-size="10.00">customSkin</text>
<text text-anchor="middle" x="160.5" y="-804.44" font-family="Helvetica,sans-Serif" font-size="10.00">skinNum</text>
<text text-anchor="middle" x="160.5" y="-793.44" font-family="Helvetica,sans-Serif" font-size="10.00">oldframe</text>
</g>
<!-- Node5&#45;&gt;Node21 -->
<g id="edge35" class="edge">
<title>Node5&#45;&gt;Node21</title>
<path fill="none" stroke="#9a32cd" stroke-dasharray="5,2" d="M70.49,-1004.26C112.97,-1000.33 202.3,-992.07 247.14,-987.92"/>
<polygon fill="#9a32cd" stroke="#9a32cd" points="70.16,-1000.78 60.52,-1005.19 70.8,-1007.75 70.16,-1000.78"/>
<text text-anchor="middle" x="160.5" y="-1002.44" font-family="Helvetica,sans-Serif" font-size="10.00"> additive</text>
</g>
<!-- Node6 -->
<g id="node6" class="node">
<title>Node6</title>
<g id="a_node6"><a xlink:title=" ">
<polygon fill="none" stroke="#bfbfbf" points="246,-241.94 246,-260.94 304,-260.94 304,-241.94 246,-241.94"/>
<text text-anchor="middle" x="275" y="-248.94" font-family="Helvetica,sans-Serif" font-size="10.00">cplane_t</text>
</a>
</g>
</g>
<!-- Node6&#45;&gt;Node2 -->
<g id="edge6" class="edge">
<title>Node6&#45;&gt;Node2</title>
<path fill="none" stroke="#9a32cd" stroke-dasharray="5,2" d="M314.53,-250.51C346.84,-250.75 393.84,-253.52 433,-265.44 448.63,-270.19 464.81,-279.61 475.83,-286.82"/>
<polygon fill="#9a32cd" stroke="#9a32cd" points="314.17,-247.01 304.17,-250.51 314.17,-254.01 314.17,-247.01"/>
<text text-anchor="middle" x="386" y="-279.44" font-family="Helvetica,sans-Serif" font-size="10.00"> frustum</text>
<text text-anchor="middle" x="386" y="-268.44" font-family="Helvetica,sans-Serif" font-size="10.00">portalPlane</text>
</g>
<!-- Node7 -->
<g id="node7" class="node">
<title>Node7</title>
<g id="a_node7"><a xlink:title=" ">
<polygon fill="none" stroke="#bfbfbf" points="231.5,-477.94 231.5,-496.94 318.5,-496.94 318.5,-477.94 231.5,-477.94"/>
<text text-anchor="middle" x="275" y="-484.94" font-family="Helvetica,sans-Serif" font-size="10.00">stereoFrame_t</text>
</a>
</g>
</g>
<!-- Node7&#45;&gt;Node2 -->
<g id="edge7" class="edge">
<title>Node7&#45;&gt;Node2</title>
<path fill="none" stroke="#9a32cd" stroke-dasharray="5,2" d="M309.19,-472.86C313.47,-470.11 317.55,-466.98 321,-463.44 333.48,-450.62 325.02,-438.59 339,-427.44 372.62,-400.61 399.14,-430.96 433,-404.44 466.15,-378.47 481.9,-327.61 487.28,-306.25"/>
<polygon fill="#9a32cd" stroke="#9a32cd" points="307.24,-469.94 300.28,-477.93 310.7,-476.02 307.24,-469.94"/>
<text text-anchor="middle" x="386" y="-430.44" font-family="Helvetica,sans-Serif" font-size="10.00"> stereoFrame</text>
</g>
<!-- Node7&#45;&gt;Node10 -->
<g id="edge38" class="edge">
<title>Node7&#45;&gt;Node10</title>
<path fill="none" stroke="#9a32cd" stroke-dasharray="5,2" d="M328.8,-489.76C380.43,-492.65 461.11,-498.84 530,-511.44 557.53,-516.47 588.21,-525.15 610.08,-531.88"/>
<polygon fill="#9a32cd" stroke="#9a32cd" points="328.73,-486.25 318.55,-489.2 328.35,-493.24 328.73,-486.25"/>
<text text-anchor="middle" x="490.5" y="-514.44" font-family="Helvetica,sans-Serif" font-size="10.00"> stereoFrame</text>
</g>
<!-- Node8 -->
<g id="node8" class="node">
<title>Node8</title>
<g id="a_node8"><a xlink:title=" ">
<polygon fill="none" stroke="#bfbfbf" points="15,-224.94 15,-243.94 77,-243.94 77,-224.94 15,-224.94"/>
<text text-anchor="middle" x="46" y="-231.94" font-family="Helvetica,sans-Serif" font-size="10.00">qboolean</text>
</a>
</g>
</g>
<!-- Node8&#45;&gt;Node2 -->
<g id="edge8" class="edge">
<title>Node8&#45;&gt;Node2</title>
<path fill="none" stroke="#9a32cd" stroke-dasharray="5,2" d="M86.95,-224.9C140.48,-213.5 238.34,-197.48 321,-210.44 372.66,-218.53 387.57,-220.56 433,-246.44 452.12,-257.33 470.48,-275.46 480.84,-286.63"/>
<polygon fill="#9a32cd" stroke="#9a32cd" points="86.19,-221.49 77.17,-227.04 87.68,-228.32 86.19,-221.49"/>
<text text-anchor="middle" x="275" y="-224.44" font-family="Helvetica,sans-Serif" font-size="10.00"> isMirror</text>
<text text-anchor="middle" x="275" y="-213.44" font-family="Helvetica,sans-Serif" font-size="10.00">isPortal</text>
</g>
<!-- Node8&#45;&gt;Node10 -->
<g id="edge39" class="edge">
<title>Node8&#45;&gt;Node10</title>
<path fill="none" stroke="#9a32cd" stroke-dasharray="5,2" d="M54.49,-215.41C68.8,-179.49 99.55,-104.63 110,-97.44 285.25,23.12 461.71,49.72 588,-121.44 591.17,-125.73 631.06,-468.65 638.36,-531.58"/>
<polygon fill="#9a32cd" stroke="#9a32cd" points="51.19,-214.22 50.76,-224.81 57.7,-216.8 51.19,-214.22"/>
<text text-anchor="middle" x="386" y="-11.44" font-family="Helvetica,sans-Serif" font-size="10.00"> areamaskModified</text>
</g>
<!-- Node8&#45;&gt;Node18 -->
<g id="edge32" class="edge">
<title>Node8&#45;&gt;Node18</title>
<path fill="none" stroke="#9a32cd" stroke-dasharray="5,2" d="M87.26,-238.12C122.73,-243.08 174.32,-254.64 211,-281.44 222.65,-289.94 217.38,-299.89 229,-308.44 263.33,-333.68 292.71,-303.57 321,-335.44 353.01,-371.5 317.46,-399.29 339,-442.44 371.29,-507.13 392.79,-517.55 451,-560.44 455.8,-563.97 461.36,-567.16 466.74,-569.86"/>
<polygon fill="#9a32cd" stroke="#9a32cd" points="87.62,-234.64 77.26,-236.84 86.73,-241.58 87.62,-234.64"/>
<text text-anchor="middle" x="275" y="-349.44" font-family="Helvetica,sans-Serif" font-size="10.00"> lightingCalculated</text>
<text text-anchor="middle" x="275" y="-338.44" font-family="Helvetica,sans-Serif" font-size="10.00">needDlights</text>
</g>
<!-- Node8&#45;&gt;Node19 -->
<g id="edge31" class="edge">
<title>Node8&#45;&gt;Node19</title>
<path fill="none" stroke="#9a32cd" stroke-dasharray="5,2" d="M65.65,-250.5C77.59,-259.99 93.83,-271.46 110,-278.44 152.1,-296.6 181.14,-264.64 211,-299.44 235.78,-328.31 208.57,-609.33 229,-641.44 232.9,-647.56 238.92,-652.23 245.3,-655.74"/>
<polygon fill="#9a32cd" stroke="#9a32cd" points="67.73,-247.68 57.78,-244.04 63.29,-253.09 67.73,-247.68"/>
<text text-anchor="middle" x="160.5" y="-302.44" font-family="Helvetica,sans-Serif" font-size="10.00"> nonNormalizedAxes</text>
</g>
<!-- Node9 -->
<g id="node9" class="node">
<title>Node9</title>
<g id="a_node9"><a xlink:title=" ">
<polygon fill="none" stroke="#bfbfbf" points="606,-57.94 606,-76.94 675,-76.94 675,-57.94 606,-57.94"/>
<text text-anchor="middle" x="640.5" y="-64.94" font-family="Helvetica,sans-Serif" font-size="10.00">drawSurf_t</text>
</a>
</g>
</g>
<!-- Node9&#45;&gt;Node1 -->
<g id="edge9" class="edge">
<title>Node9&#45;&gt;Node1</title>
<path fill="none" stroke="#9a32cd" stroke-dasharray="5,2" d="M685.26,-73.56C703.98,-76.88 725.88,-81.71 745,-88.44 768.29,-96.63 793.32,-110.46 808.94,-119.77"/>
<polygon fill="#9a32cd" stroke="#9a32cd" points="685.67,-70.08 675.22,-71.87 684.5,-76.98 685.67,-70.08"/>
<text text-anchor="middle" x="719" y="-91.44" font-family="Helvetica,sans-Serif" font-size="10.00"> drawSurfs</text>
</g>
<!-- Node10&#45;&gt;Node1 -->
<g id="edge11" class="edge">
<title>Node10&#45;&gt;Node1</title>
<path fill="none" stroke="#9a32cd" stroke-dasharray="5,2" d="M649.99,-522.32C682.28,-449.63 796.81,-191.79 820.28,-138.94"/>
<polygon fill="#9a32cd" stroke="#9a32cd" points="646.7,-521.1 645.84,-531.66 653.1,-523.94 646.7,-521.1"/>
<text text-anchor="middle" x="719" y="-422.44" font-family="Helvetica,sans-Serif" font-size="10.00"> refdef</text>
</g>
<!-- Node11&#45;&gt;Node10 -->
<g id="edge12" class="edge">
<title>Node11&#45;&gt;Node10</title>
<path fill="none" stroke="#9a32cd" stroke-dasharray="5,2" d="M522.02,-918.11C544.01,-906.14 572.45,-886.91 588,-861.44 621.2,-807.04 635.97,-598.4 638.93,-551.04"/>
<polygon fill="#9a32cd" stroke="#9a32cd" points="520.29,-915.07 513.05,-922.8 523.53,-921.27 520.29,-915.07"/>
<text text-anchor="middle" x="568" y="-903.44" font-family="Helvetica,sans-Serif" font-size="10.00"> polys</text>
</g>
<!-- Node12 -->
<g id="node12" class="node">
<title>Node12</title>
<g id="a_node12"><a xlink:title=" ">
<polygon fill="none" stroke="#bfbfbf" points="233,-937.94 233,-956.94 317,-956.94 317,-937.94 233,-937.94"/>
<text text-anchor="middle" x="275" y="-944.94" font-family="Helvetica,sans-Serif" font-size="10.00">surfaceType_t</text>
</a>
</g>
</g>
<!-- Node12&#45;&gt;Node11 -->
<g id="edge13" class="edge">
<title>Node12&#45;&gt;Node11</title>
<path fill="none" stroke="#9a32cd" stroke-dasharray="5,2" d="M327.06,-944.5C357.77,-942.66 397.64,-940.13 433,-937.44 441.74,-936.77 451.23,-935.96 459.89,-935.19"/>
<polygon fill="#9a32cd" stroke="#9a32cd" points="326.78,-941.01 317.01,-945.1 327.2,-948 326.78,-941.01"/>
<text text-anchor="middle" x="386" y="-946.44" font-family="Helvetica,sans-Serif" font-size="10.00"> surfaceType</text>
</g>
<!-- Node13&#45;&gt;Node11 -->
<g id="edge15" class="edge">
<title>Node13&#45;&gt;Node11</title>
<path fill="none" stroke="#9a32cd" stroke-dasharray="5,2" d="M313.26,-540.86C316.27,-543.34 318.93,-546.18 321,-549.44 342.11,-582.68 313.16,-873.71 339,-903.44 342.96,-907.99 416.96,-920.67 459.69,-927.66"/>
<polygon fill="#9a32cd" stroke="#9a32cd" points="314.97,-537.79 304.71,-535.13 311.07,-543.61 314.97,-537.79"/>
<text text-anchor="middle" x="386" y="-925.44" font-family="Helvetica,sans-Serif" font-size="10.00"> verts</text>
</g>
<!-- Node14 -->
<g id="node14" class="node">
<title>Node14</title>
<g id="a_node14"><a xlink:title=" ">
<polygon fill="none" stroke="#bfbfbf" points="15.5,-355.94 15.5,-374.94 76.5,-374.94 76.5,-355.94 15.5,-355.94"/>
<text text-anchor="middle" x="46" y="-362.94" font-family="Helvetica,sans-Serif" font-size="10.00">unsigned</text>
</a>
</g>
</g>
<!-- Node14&#45;&gt;Node10 -->
<g id="edge37" class="edge">
<title>Node14&#45;&gt;Node10</title>
<path fill="none" stroke="#9a32cd" stroke-dasharray="5,2" d="M56.81,-346.8C67.84,-327.12 87.19,-296.01 110,-274.44 217.2,-173.01 294.11,-147.55 433,-197.44 582.47,-251.12 629.49,-482.05 637.99,-531.92"/>
<polygon fill="#9a32cd" stroke="#9a32cd" points="53.68,-345.24 51.97,-355.69 59.83,-348.59 53.68,-345.24"/>
<text text-anchor="middle" x="386" y="-200.44" font-family="Helvetica,sans-Serif" font-size="10.00"> areamask</text>
</g>
<!-- Node14&#45;&gt;Node13 -->
<g id="edge17" class="edge">
<title>Node14&#45;&gt;Node13</title>
<path fill="none" stroke="#9a32cd" stroke-dasharray="5,2" d="M86.26,-376.68C129.22,-389.74 194.21,-411.98 211,-431.44 233.39,-457.39 206.83,-480.29 229,-506.44 232.51,-510.58 237.08,-513.83 241.96,-516.39"/>
<polygon fill="#9a32cd" stroke="#9a32cd" points="87.24,-373.32 76.66,-373.8 85.23,-380.02 87.24,-373.32"/>
<text text-anchor="middle" x="160.5" y="-434.44" font-family="Helvetica,sans-Serif" font-size="10.00"> modulate</text>
</g>
<!-- Node15 -->
<g id="node15" class="node">
<title>Node15</title>
<g id="a_node15"><a xlink:href="../../d4/d69/structdrawSurf__s.html" target="_top" xlink:title=" ">
<polygon fill="none" stroke="black" points="239.5,-107.94 239.5,-126.94 310.5,-126.94 310.5,-107.94 239.5,-107.94"/>
<text text-anchor="middle" x="275" y="-114.94" font-family="Helvetica,sans-Serif" font-size="10.00">drawSurf_s</text>
</a>
</g>
</g>
<!-- Node14&#45;&gt;Node15 -->
<g id="edge20" class="edge">
<title>Node14&#45;&gt;Node15</title>
<path fill="none" stroke="#9a32cd" stroke-dasharray="5,2" d="M56.07,-346.66C66.28,-324.77 82.66,-287.27 92,-253.44 98.82,-228.71 91.66,-157.36 110,-139.44 127.83,-122.02 196.82,-118.11 239.43,-117.39"/>
<polygon fill="#9a32cd" stroke="#9a32cd" points="52.86,-345.27 51.74,-355.81 59.18,-348.27 52.86,-345.27"/>
<text text-anchor="middle" x="160.5" y="-142.44" font-family="Helvetica,sans-Serif" font-size="10.00"> sort</text>
</g>
<!-- Node14&#45;&gt;Node19 -->
<g id="edge30" class="edge">
<title>Node14&#45;&gt;Node19</title>
<path fill="none" stroke="#9a32cd" stroke-dasharray="5,2" d="M52.28,-384.79C60.47,-411.35 78.62,-459.04 110,-487.44 145.8,-519.83 180.82,-489.75 211,-527.44 243.06,-567.48 199.25,-599.65 229,-641.44 233.31,-647.5 239.64,-652.16 246.2,-655.7"/>
<polygon fill="#9a32cd" stroke="#9a32cd" points="55.62,-383.74 49.46,-375.12 48.9,-385.7 55.62,-383.74"/>
<text text-anchor="middle" x="160.5" y="-552.44" font-family="Helvetica,sans-Serif" font-size="10.00"> shaderRGBA</text>
<text text-anchor="middle" x="160.5" y="-541.44" font-family="Helvetica,sans-Serif" font-size="10.00">outlineWidth</text>
<text text-anchor="middle" x="160.5" y="-530.44" font-family="Helvetica,sans-Serif" font-size="10.00">outlineRGBA</text>
</g>
<!-- Node15&#45;&gt;Node10 -->
<g id="edge18" class="edge">
<title>Node15&#45;&gt;Node10</title>
<path fill="none" stroke="#9a32cd" stroke-dasharray="5,2" d="M320.77,-107.47C389.25,-95.15 519.27,-83.86 588,-156.44 594.71,-163.52 631.4,-472.63 638.36,-531.73"/>
<polygon fill="#9a32cd" stroke="#9a32cd" points="319.91,-104.07 310.73,-109.36 321.2,-110.95 319.91,-104.07"/>
<text text-anchor="middle" x="490.5" y="-119.44" font-family="Helvetica,sans-Serif" font-size="10.00"> drawSurfs</text>
</g>
<!-- Node16 -->
<g id="node16" class="node">
<title>Node16</title>
<g id="a_node16"><a xlink:title=" ">
<polygon fill="none" stroke="#bfbfbf" points="0,-94.94 0,-113.94 92,-113.94 92,-94.94 0,-94.94"/>
<text text-anchor="middle" x="46" y="-101.94" font-family="Helvetica,sans-Serif" font-size="10.00">surfaceType_t *</text>
</a>
</g>
</g>
<!-- Node16&#45;&gt;Node15 -->
<g id="edge19" class="edge">
<title>Node16&#45;&gt;Node15</title>
<path fill="none" stroke="#9a32cd" stroke-dasharray="5,2" d="M102.03,-102.28C133.93,-101.65 174.82,-101.91 211,-105.44 220.2,-106.33 230.05,-107.91 239.17,-109.63"/>
<polygon fill="#9a32cd" stroke="#9a32cd" points="101.93,-98.78 92.01,-102.51 102.09,-105.78 101.93,-98.78"/>
<text text-anchor="middle" x="160.5" y="-108.44" font-family="Helvetica,sans-Serif" font-size="10.00"> surface</text>
</g>
<!-- Node17 -->
<g id="node17" class="node">
<title>Node17</title>
<g id="a_node17"><a xlink:title=" ">
<polygon fill="none" stroke="#bfbfbf" points="471.5,-531.94 471.5,-550.94 509.5,-550.94 509.5,-531.94 471.5,-531.94"/>
<text text-anchor="middle" x="490.5" y="-538.94" font-family="Helvetica,sans-Serif" font-size="10.00">char</text>
</a>
</g>
</g>
<!-- Node17&#45;&gt;Node10 -->
<g id="edge21" class="edge">
<title>Node17&#45;&gt;Node10</title>
<path fill="none" stroke="#9a32cd" stroke-dasharray="5,2" d="M519.67,-541.44C544.88,-541.44 581.8,-541.44 607.99,-541.44"/>
<polygon fill="#9a32cd" stroke="#9a32cd" points="519.65,-537.94 509.65,-541.44 519.65,-544.94 519.65,-537.94"/>
<text text-anchor="middle" x="568" y="-544.44" font-family="Helvetica,sans-Serif" font-size="10.00"> text</text>
</g>
<!-- Node18&#45;&gt;Node10 -->
<g id="edge23" class="edge">
<title>Node18&#45;&gt;Node10</title>
<path fill="none" stroke="#9a32cd" stroke-dasharray="5,2" d="M539.49,-567.72C554.99,-563.88 572.24,-559.54 588,-555.44 594.46,-553.76 601.35,-551.91 607.94,-550.13"/>
<polygon fill="#9a32cd" stroke="#9a32cd" points="538.46,-564.37 529.59,-570.17 540.14,-571.16 538.46,-564.37"/>
<text text-anchor="middle" x="568" y="-568.44" font-family="Helvetica,sans-Serif" font-size="10.00"> entities</text>
</g>
<!-- Node19&#45;&gt;Node18 -->
<g id="edge26" class="edge">
<title>Node19&#45;&gt;Node18</title>
<path fill="none" stroke="#9a32cd" stroke-dasharray="5,2" d="M309.2,-652.06C352.61,-634.58 427.59,-604.38 465.73,-589.01"/>
<polygon fill="#9a32cd" stroke="#9a32cd" points="307.63,-648.92 299.66,-655.9 310.25,-655.41 307.63,-648.92"/>
<text text-anchor="middle" x="386" y="-642.44" font-family="Helvetica,sans-Serif" font-size="10.00"> e</text>
</g>
<!-- Node20 -->
<g id="node20" class="node">
<title>Node20</title>
<g id="a_node20"><a xlink:title=" ">
<polygon fill="none" stroke="#bfbfbf" points="1,-745.94 1,-764.94 91,-764.94 91,-745.94 1,-745.94"/>
<text text-anchor="middle" x="46" y="-752.94" font-family="Helvetica,sans-Serif" font-size="10.00">refEntityType_t</text>
</a>
</g>
</g>
<!-- Node20&#45;&gt;Node19 -->
<g id="edge29" class="edge">
<title>Node20&#45;&gt;Node19</title>
<path fill="none" stroke="#9a32cd" stroke-dasharray="5,2" d="M101.22,-749.49C134.95,-743.79 178.01,-732.75 211,-711.44 221.61,-704.58 219.24,-697.45 229,-689.44 235.84,-683.82 244.21,-678.93 251.86,-675.05"/>
<polygon fill="#9a32cd" stroke="#9a32cd" points="100.41,-746.07 91.08,-751.09 101.5,-752.99 100.41,-746.07"/>
<text text-anchor="middle" x="160.5" y="-749.44" font-family="Helvetica,sans-Serif" font-size="10.00"> reType</text>
</g>
<!-- Node21&#45;&gt;Node10 -->
<g id="edge33" class="edge">
<title>Node21&#45;&gt;Node10</title>
<path fill="none" stroke="#9a32cd" stroke-dasharray="5,2" d="M312.69,-991.12C381.81,-999.44 529.61,-1005.33 588,-915.44 628.88,-852.5 637.83,-602.89 639.27,-550.94"/>
<polygon fill="#9a32cd" stroke="#9a32cd" points="313.05,-987.64 302.69,-989.83 312.16,-994.58 313.05,-987.64"/>
<text text-anchor="middle" x="490.5" y="-992.44" font-family="Helvetica,sans-Serif" font-size="10.00"> dlights</text>
</g>
</g>
</svg>
        <g id="navigator" transform="translate(0 0)" fill="#404254">
                <rect fill="#f2f5e9" fill-opacity="0.5" stroke="#606060" stroke-width=".5" x="0" y="0" width="60" height="60"/>
                <use id="zoomplus" xlink:href="#zoomPlus" x="17" y="9" onmousedown="handleZoom(evt,'in')"/>
                <use id="zoomminus" xlink:href="#zoomMin" x="42" y="9" onmousedown="handleZoom(evt,'out')"/>
                <use id="reset" xlink:href="#resetDef" x="30" y="36" onmousedown="handleReset()"/>
                <g id="arrowUp" xlink:href="#dirArrow" transform="translate(30 24)" onmousedown="handlePan(0,-1)">
                  <use xlink:href="#rim" fill="#404040">
                        <set attributeName="fill" to="#808080" begin="arrowUp.mouseover" end="arrowUp.mouseout"/>
                  </use>
                  <path fill="none" stroke="white" stroke-width="1.5" d="M0,-3.0v7 M-2.5,-0.5L0,-3.0L2.5,-0.5"/>
                </g>
                <g id="arrowRight" xlink:href="#dirArrow" transform="rotate(90) translate(36 -43)" onmousedown="handlePan(1,0)">
                  <use xlink:href="#rim" fill="#404040">
                        <set attributeName="fill" to="#808080" begin="arrowRight.mouseover" end="arrowRight.mouseout"/>
                  </use>
                  <path fill="none" stroke="white" stroke-width="1.5" d="M0,-3.0v7 M-2.5,-0.5L0,-3.0L2.5,-0.5"/>
                </g>
                <g id="arrowDown" xlink:href="#dirArrow" transform="rotate(180) translate(-30 -48)" onmousedown="handlePan(0,1)">
                  <use xlink:href="#rim" fill="#404040">
                        <set attributeName="fill" to="#808080" begin="arrowDown.mouseover" end="arrowDown.mouseout"/>
                  </use>
                  <path fill="none" stroke="white" stroke-width="1.5" d="M0,-3.0v7 M-2.5,-0.5L0,-3.0L2.5,-0.5"/>
                </g>
                <g id="arrowLeft" xlink:href="#dirArrow" transform="rotate(270) translate(-36 17)" onmousedown="handlePan(-1,0)">
                  <use xlink:href="#rim" fill="#404040">
                        <set attributeName="fill" to="#808080" begin="arrowLeft.mouseover" end="arrowLeft.mouseout"/>
                  </use>
                  <path fill="none" stroke="white" stroke-width="1.5" d="M0,-3.0v7 M-2.5,-0.5L0,-3.0L2.5,-0.5"/>
                </g>
        </g>
        <svg viewBox="0 0 15 15" width="100%" height="30px" preserveAspectRatio="xMaxYMin meet">
         <g id="arrow_out" transform="scale(0.3 0.3)">
          <a xlink:href="structdrawSurfsCommand__t__coll__graph_org.svg" target="_base">
           <rect id="button" ry="5" rx="5" y="6" x="6" height="38" width="38"
                fill="#f2f5e9" fill-opacity="0.5" stroke="#606060" stroke-width="1.0"/>
           <path id="arrow"
             d="M 11.500037,31.436501 C 11.940474,20.09759 22.043105,11.32322 32.158766,21.979434 L 37.068811,17.246167 C 37.068811,17.246167 37.088388,32 37.088388,32 L 22.160133,31.978069 C 22.160133,31.978069 26.997745,27.140456 26.997745,27.140456 C 18.528582,18.264221 13.291696,25.230495 11.500037,31.436501 z"
             style="fill:#404040;"/>
          </a>
         </g>
        </svg>
</svg>
