<?xml version="1.0" encoding="UTF-8" standalone="no"?>
<!DOCTYPE svg PUBLIC "-//W3C//DTD SVG 1.1//EN"
 "http://www.w3.org/Graphics/SVG/1.1/DTD/svg11.dtd">
<!-- Generated by graphviz version 2.43.0 (0)
 -->
<!-- Title: tagWAVEOUTCAPSA Pages: 1 -->
<svg width="335pt" height="128pt"
 viewBox="0.00 0.00 335.00 128.00" xmlns="http://www.w3.org/2000/svg" xmlns:xlink="http://www.w3.org/1999/xlink">
<g id="graph0" class="graph" transform="scale(1 1) rotate(0) translate(4 124)">
<title>tagWAVEOUTCAPSA</title>
<!-- Node1 -->
<g id="node1" class="node">
<title>Node1</title>
<g id="a_node1"><a xlink:title=" ">
<polygon fill="#bfbfbf" stroke="black" points="75.5,-0.5 75.5,-19.5 188.5,-19.5 188.5,-0.5 75.5,-0.5"/>
<text text-anchor="middle" x="132" y="-7.5" font-family="Helvetica,sans-Serif" font-size="10.00">tagWAVEOUTCAPSA</text>
</a>
</g>
</g>
<!-- Node2 -->
<g id="node2" class="node">
<title>Node2</title>
<g id="a_node2"><a xlink:title=" ">
<polygon fill="none" stroke="#bfbfbf" points="0,-100.5 0,-119.5 38,-119.5 38,-100.5 0,-100.5"/>
<text text-anchor="middle" x="19" y="-107.5" font-family="Helvetica,sans-Serif" font-size="10.00">char</text>
</a>
</g>
</g>
<!-- Node2&#45;&gt;Node1 -->
<g id="edge1" class="edge">
<title>Node2&#45;&gt;Node1</title>
<path fill="none" stroke="#9a32cd" stroke-dasharray="5,2" d="M16.99,-90.1C16.39,-74.24 18.27,-51.98 31,-38 42.42,-25.45 58.98,-18.47 75.39,-14.66"/>
<polygon fill="#9a32cd" stroke="#9a32cd" points="13.52,-90.6 17.74,-100.31 20.5,-90.08 13.52,-90.6"/>
<text text-anchor="middle" x="55" y="-57.5" font-family="Helvetica,sans-Serif" font-size="10.00"> szPname</text>
</g>
<!-- Node3 -->
<g id="node3" class="node">
<title>Node3</title>
<g id="a_node3"><a xlink:title=" ">
<polygon fill="none" stroke="#bfbfbf" points="69.5,-100.5 69.5,-119.5 110.5,-119.5 110.5,-100.5 69.5,-100.5"/>
<text text-anchor="middle" x="90" y="-107.5" font-family="Helvetica,sans-Serif" font-size="10.00">short</text>
</a>
</g>
</g>
<!-- Node3&#45;&gt;Node1 -->
<g id="edge2" class="edge">
<title>Node3&#45;&gt;Node1</title>
<path fill="none" stroke="#9a32cd" stroke-dasharray="5,2" d="M85.71,-90.36C83.27,-75.29 82.22,-54.02 91,-38 95.42,-29.93 103.41,-23.86 111.17,-19.54"/>
<polygon fill="#9a32cd" stroke="#9a32cd" points="82.34,-91.35 87.71,-100.49 89.21,-90 82.34,-91.35"/>
<text text-anchor="middle" x="121.5" y="-74" font-family="Helvetica,sans-Serif" font-size="10.00"> wChannels</text>
<text text-anchor="middle" x="121.5" y="-63" font-family="Helvetica,sans-Serif" font-size="10.00">wReserved1</text>
<text text-anchor="middle" x="121.5" y="-52" font-family="Helvetica,sans-Serif" font-size="10.00">wMid</text>
<text text-anchor="middle" x="121.5" y="-41" font-family="Helvetica,sans-Serif" font-size="10.00">wPid</text>
</g>
<!-- Node4 -->
<g id="node4" class="node">
<title>Node4</title>
<g id="a_node4"><a xlink:href="../../d2/d5f/classunsigned_01int.html" target="_top" xlink:title=" ">
<polygon fill="none" stroke="black" points="135.5,-100.5 135.5,-119.5 212.5,-119.5 212.5,-100.5 135.5,-100.5"/>
<text text-anchor="middle" x="174" y="-107.5" font-family="Helvetica,sans-Serif" font-size="10.00">unsigned int</text>
</a>
</g>
</g>
<!-- Node4&#45;&gt;Node1 -->
<g id="edge3" class="edge">
<title>Node4&#45;&gt;Node1</title>
<path fill="none" stroke="#9a32cd" stroke-dasharray="5,2" d="M170.07,-90.44C166.53,-75.71 160.55,-54.88 152,-38 148.62,-31.34 143.62,-24.59 139.47,-19.5"/>
<polygon fill="#9a32cd" stroke="#9a32cd" points="166.69,-91.35 172.31,-100.34 173.51,-89.81 166.69,-91.35"/>
<text text-anchor="middle" x="205" y="-57.5" font-family="Helvetica,sans-Serif" font-size="10.00"> vDriverVersion</text>
</g>
<!-- Node5 -->
<g id="node5" class="node">
<title>Node5</title>
<g id="a_node5"><a xlink:title=" ">
<polygon fill="none" stroke="#bfbfbf" points="254,-100.5 254,-119.5 292,-119.5 292,-100.5 254,-100.5"/>
<text text-anchor="middle" x="273" y="-107.5" font-family="Helvetica,sans-Serif" font-size="10.00">long</text>
</a>
</g>
</g>
<!-- Node5&#45;&gt;Node1 -->
<g id="edge4" class="edge">
<title>Node5&#45;&gt;Node1</title>
<path fill="none" stroke="#9a32cd" stroke-dasharray="5,2" d="M271.05,-90.16C268.36,-74.01 262.01,-51.3 247,-38 231.04,-23.85 209.07,-16.74 188.6,-13.29"/>
<polygon fill="#9a32cd" stroke="#9a32cd" points="267.58,-90.65 272.38,-100.1 274.52,-89.72 267.58,-90.65"/>
<text text-anchor="middle" x="298" y="-63" font-family="Helvetica,sans-Serif" font-size="10.00"> dwFormats</text>
<text text-anchor="middle" x="298" y="-52" font-family="Helvetica,sans-Serif" font-size="10.00">dwSupport</text>
</g>
</g>
</svg>
