<?xml version="1.0" encoding="UTF-8" standalone="no"?>
<!DOCTYPE svg PUBLIC "-//W3C//DTD SVG 1.1//EN"
 "http://www.w3.org/Graphics/SVG/1.1/DTD/svg11.dtd">
<!-- Generated by graphviz version 2.43.0 (0)
 -->
<!-- Title: Tools/MinGW/include/c++/4.6.1/ext/pb_ds/detail/bin_search_tree_/policy_access_fn_imps.hpp Pages: 1 -->
<svg width="292pt" height="395pt"
 viewBox="0.00 0.00 292.00 395.00" xmlns="http://www.w3.org/2000/svg" xmlns:xlink="http://www.w3.org/1999/xlink">
<g id="graph0" class="graph" transform="scale(1 1) rotate(0) translate(4 391)">
<title>Tools/MinGW/include/c++/4.6.1/ext/pb_ds/detail/bin_search_tree_/policy_access_fn_imps.hpp</title>
<!-- Node1 -->
<g id="node1" class="node">
<title>Node1</title>
<g id="a_node1"><a xlink:title=" ">
<polygon fill="#bfbfbf" stroke="black" points="56,-334.5 56,-386.5 214,-386.5 214,-334.5 56,-334.5"/>
<text text-anchor="start" x="64" y="-374.5" font-family="Helvetica,sans-Serif" font-size="10.00">Tools/MinGW/include</text>
<text text-anchor="start" x="64" y="-363.5" font-family="Helvetica,sans-Serif" font-size="10.00">/c++/4.6.1/ext/pb_ds</text>
<text text-anchor="start" x="64" y="-352.5" font-family="Helvetica,sans-Serif" font-size="10.00">/detail/bin_search_tree</text>
<text text-anchor="middle" x="135" y="-341.5" font-family="Helvetica,sans-Serif" font-size="10.00">_/policy_access_fn_imps.hpp</text>
</a>
</g>
</g>
<!-- Node2 -->
<g id="node2" class="node">
<title>Node2</title>
<g id="a_node2"><a xlink:href="../../d0/d8f/bin__search__tree___8hpp.html" target="_top" xlink:title=" ">
<polygon fill="none" stroke="black" points="0,-245.5 0,-297.5 128,-297.5 128,-245.5 0,-245.5"/>
<text text-anchor="start" x="8" y="-285.5" font-family="Helvetica,sans-Serif" font-size="10.00">Tools/MinGW/include</text>
<text text-anchor="start" x="8" y="-274.5" font-family="Helvetica,sans-Serif" font-size="10.00">/c++/4.6.1/ext/pb_ds</text>
<text text-anchor="start" x="8" y="-263.5" font-family="Helvetica,sans-Serif" font-size="10.00">/detail/bin_search_tree</text>
<text text-anchor="middle" x="64" y="-252.5" font-family="Helvetica,sans-Serif" font-size="10.00">_/bin_search_tree_.hpp</text>
</a>
</g>
</g>
<!-- Node1&#45;&gt;Node2 -->
<g id="edge1" class="edge">
<title>Node1&#45;&gt;Node2</title>
<path fill="none" stroke="midnightblue" d="M108.07,-326.5C100.25,-316.92 91.84,-306.62 84.49,-297.61"/>
<polygon fill="midnightblue" stroke="midnightblue" points="105.43,-328.8 114.46,-334.34 110.85,-324.38 105.43,-328.8"/>
</g>
<!-- Node3 -->
<g id="node3" class="node">
<title>Node3</title>
<g id="a_node3"><a xlink:href="../../dc/df1/ov__tree__map___8hpp.html" target="_top" xlink:title=" ">
<polygon fill="none" stroke="black" points="146.5,-245.5 146.5,-297.5 265.5,-297.5 265.5,-245.5 146.5,-245.5"/>
<text text-anchor="start" x="154.5" y="-285.5" font-family="Helvetica,sans-Serif" font-size="10.00">Tools/MinGW/include</text>
<text text-anchor="start" x="154.5" y="-274.5" font-family="Helvetica,sans-Serif" font-size="10.00">/c++/4.6.1/ext/pb_ds</text>
<text text-anchor="start" x="154.5" y="-263.5" font-family="Helvetica,sans-Serif" font-size="10.00">/detail/ov_tree_map_</text>
<text text-anchor="middle" x="206" y="-252.5" font-family="Helvetica,sans-Serif" font-size="10.00">/ov_tree_map_.hpp</text>
</a>
</g>
</g>
<!-- Node1&#45;&gt;Node3 -->
<g id="edge2" class="edge">
<title>Node1&#45;&gt;Node3</title>
<path fill="none" stroke="midnightblue" d="M161.93,-326.5C169.75,-316.92 178.16,-306.62 185.51,-297.61"/>
<polygon fill="midnightblue" stroke="midnightblue" points="159.15,-324.38 155.54,-334.34 164.57,-328.8 159.15,-324.38"/>
</g>
<!-- Node4 -->
<g id="node4" class="node">
<title>Node4</title>
<g id="a_node4"><a xlink:href="../../d9/dc3/container__base__dispatch_8hpp.html" target="_top" xlink:title=" ">
<polygon fill="none" stroke="black" points="143.5,-156.5 143.5,-208.5 268.5,-208.5 268.5,-156.5 143.5,-156.5"/>
<text text-anchor="start" x="151.5" y="-196.5" font-family="Helvetica,sans-Serif" font-size="10.00">Tools/MinGW/include</text>
<text text-anchor="start" x="151.5" y="-185.5" font-family="Helvetica,sans-Serif" font-size="10.00">/c++/4.6.1/ext/pb_ds</text>
<text text-anchor="start" x="151.5" y="-174.5" font-family="Helvetica,sans-Serif" font-size="10.00">/detail/container_base</text>
<text text-anchor="middle" x="206" y="-163.5" font-family="Helvetica,sans-Serif" font-size="10.00">_dispatch.hpp</text>
</a>
</g>
</g>
<!-- Node3&#45;&gt;Node4 -->
<g id="edge3" class="edge">
<title>Node3&#45;&gt;Node4</title>
<path fill="none" stroke="midnightblue" d="M206,-235.19C206,-226.28 206,-216.9 206,-208.61"/>
<polygon fill="midnightblue" stroke="midnightblue" points="202.5,-235.34 206,-245.34 209.5,-235.34 202.5,-235.34"/>
</g>
<!-- Node5 -->
<g id="node5" class="node">
<title>Node5</title>
<g id="a_node5"><a xlink:href="../../dc/d07/assoc__container_8hpp.html" target="_top" xlink:title=" ">
<polygon fill="none" stroke="black" points="146.5,-78.5 146.5,-119.5 265.5,-119.5 265.5,-78.5 146.5,-78.5"/>
<text text-anchor="start" x="154.5" y="-107.5" font-family="Helvetica,sans-Serif" font-size="10.00">Tools/MinGW/include</text>
<text text-anchor="start" x="154.5" y="-96.5" font-family="Helvetica,sans-Serif" font-size="10.00">/c++/4.6.1/ext/pb_ds</text>
<text text-anchor="middle" x="206" y="-85.5" font-family="Helvetica,sans-Serif" font-size="10.00">/assoc_container.hpp</text>
</a>
</g>
</g>
<!-- Node4&#45;&gt;Node5 -->
<g id="edge4" class="edge">
<title>Node4&#45;&gt;Node5</title>
<path fill="none" stroke="midnightblue" d="M206,-146.15C206,-137.05 206,-127.6 206,-119.63"/>
<polygon fill="midnightblue" stroke="midnightblue" points="202.5,-146.16 206,-156.16 209.5,-146.16 202.5,-146.16"/>
</g>
<!-- Node6 -->
<g id="node6" class="node">
<title>Node6</title>
<g id="a_node6"><a xlink:href="../../db/dad/extc_09_09_8h.html" target="_top" xlink:title=" ">
<polygon fill="none" stroke="black" points="128,-0.5 128,-41.5 284,-41.5 284,-0.5 128,-0.5"/>
<text text-anchor="start" x="136" y="-29.5" font-family="Helvetica,sans-Serif" font-size="10.00">Tools/MinGW/include</text>
<text text-anchor="start" x="136" y="-18.5" font-family="Helvetica,sans-Serif" font-size="10.00">/c++/4.6.1/i686&#45;pc&#45;mingw32</text>
<text text-anchor="middle" x="206" y="-7.5" font-family="Helvetica,sans-Serif" font-size="10.00">/bits/extc++.h</text>
</a>
</g>
</g>
<!-- Node5&#45;&gt;Node6 -->
<g id="edge5" class="edge">
<title>Node5&#45;&gt;Node6</title>
<path fill="none" stroke="midnightblue" d="M206,-68.3C206,-59.3 206,-49.65 206,-41.51"/>
<polygon fill="midnightblue" stroke="midnightblue" points="202.5,-68.43 206,-78.43 209.5,-68.43 202.5,-68.43"/>
</g>
</g>
</svg>
