<?xml version="1.0" encoding="UTF-8" standalone="no"?>
<!DOCTYPE svg PUBLIC "-//W3C//DTD SVG 1.1//EN"
 "http://www.w3.org/Graphics/SVG/1.1/DTD/svg11.dtd">
<!-- Generated by graphviz version 2.43.0 (0)
 -->
<!-- Title: Source/Engine/null/null_main.c Pages: 1 -->
<svg width="276pt" height="151pt"
 viewBox="0.00 0.00 275.50 151.00" xmlns="http://www.w3.org/2000/svg" xmlns:xlink="http://www.w3.org/1999/xlink">
<g id="graph0" class="graph" transform="scale(1 1) rotate(0) translate(4 147)">
<title>Source/Engine/null/null_main.c</title>
<!-- Node1 -->
<g id="node1" class="node">
<title>Node1</title>
<g id="a_node1"><a xlink:title=" ">
<polygon fill="#bfbfbf" stroke="black" points="41,-112.5 41,-142.5 148,-142.5 148,-112.5 41,-112.5"/>
<text text-anchor="start" x="49" y="-130.5" font-family="Helvetica,sans-Serif" font-size="10.00">Source/Engine/null</text>
<text text-anchor="middle" x="94.5" y="-119.5" font-family="Helvetica,sans-Serif" font-size="10.00">/null_main.c</text>
</a>
</g>
</g>
<!-- Node2 -->
<g id="node2" class="node">
<title>Node2</title>
<g id="a_node2"><a xlink:title=" ">
<polygon fill="none" stroke="#bfbfbf" points="0,-56.5 0,-75.5 51,-75.5 51,-56.5 0,-56.5"/>
<text text-anchor="middle" x="25.5" y="-63.5" font-family="Helvetica,sans-Serif" font-size="10.00">errno.h</text>
</a>
</g>
</g>
<!-- Node1&#45;&gt;Node2 -->
<g id="edge1" class="edge">
<title>Node1&#45;&gt;Node2</title>
<path fill="none" stroke="midnightblue" d="M78.15,-112.4C67.6,-103.31 53.9,-91.49 43.12,-82.19"/>
<polygon fill="midnightblue" stroke="midnightblue" points="45.4,-79.54 35.54,-75.66 40.83,-84.84 45.4,-79.54"/>
</g>
<!-- Node3 -->
<g id="node3" class="node">
<title>Node3</title>
<g id="a_node3"><a xlink:title=" ">
<polygon fill="none" stroke="#bfbfbf" points="69.5,-56.5 69.5,-75.5 119.5,-75.5 119.5,-56.5 69.5,-56.5"/>
<text text-anchor="middle" x="94.5" y="-63.5" font-family="Helvetica,sans-Serif" font-size="10.00">stdio.h</text>
</a>
</g>
</g>
<!-- Node1&#45;&gt;Node3 -->
<g id="edge2" class="edge">
<title>Node1&#45;&gt;Node3</title>
<path fill="none" stroke="midnightblue" d="M94.5,-112.4C94.5,-104.47 94.5,-94.46 94.5,-85.86"/>
<polygon fill="midnightblue" stroke="midnightblue" points="98,-85.66 94.5,-75.66 91,-85.66 98,-85.66"/>
</g>
<!-- Node4 -->
<g id="node4" class="node">
<title>Node4</title>
<g id="a_node4"><a xlink:href="../../d1/df7/qcommon_8h.html" target="_top" xlink:title=" ">
<polygon fill="none" stroke="black" points="138,-56.5 138,-75.5 267,-75.5 267,-56.5 138,-56.5"/>
<text text-anchor="middle" x="202.5" y="-63.5" font-family="Helvetica,sans-Serif" font-size="10.00">../../Shared/qcommon.h</text>
</a>
</g>
</g>
<!-- Node1&#45;&gt;Node4 -->
<g id="edge3" class="edge">
<title>Node1&#45;&gt;Node4</title>
<path fill="none" stroke="midnightblue" d="M120.09,-112.4C137.57,-102.77 160.59,-90.09 177.86,-80.58"/>
<polygon fill="midnightblue" stroke="midnightblue" points="179.72,-83.55 186.79,-75.66 176.34,-77.42 179.72,-83.55"/>
</g>
<!-- Node5 -->
<g id="node5" class="node">
<title>Node5</title>
<g id="a_node5"><a xlink:title=" ">
<polygon fill="none" stroke="#bfbfbf" points="137.5,-0.5 137.5,-19.5 267.5,-19.5 267.5,-0.5 137.5,-0.5"/>
<text text-anchor="middle" x="202.5" y="-7.5" font-family="Helvetica,sans-Serif" font-size="10.00">../../Shared/cm_public.h</text>
</a>
</g>
</g>
<!-- Node4&#45;&gt;Node5 -->
<g id="edge4" class="edge">
<title>Node4&#45;&gt;Node5</title>
<path fill="none" stroke="midnightblue" d="M202.5,-56.08C202.5,-49.01 202.5,-38.86 202.5,-29.99"/>
<polygon fill="midnightblue" stroke="midnightblue" points="206,-29.75 202.5,-19.75 199,-29.75 206,-29.75"/>
</g>
</g>
</svg>
