<?xml version="1.0" encoding="UTF-8" standalone="no"?>
<!DOCTYPE svg PUBLIC "-//W3C//DTD SVG 1.1//EN"
 "http://www.w3.org/Graphics/SVG/1.1/DTD/svg11.dtd">
<!-- Generated by graphviz version 2.43.0 (0)
 -->
<!-- Title: _SCSIWMILIB_CONTEXT Pages: 1 -->
<svg width="477pt" height="139pt"
 viewBox="0.00 0.00 477.00 139.00" xmlns="http://www.w3.org/2000/svg" xmlns:xlink="http://www.w3.org/1999/xlink">
<g id="graph0" class="graph" transform="scale(1 1) rotate(0) translate(4 135)">
<title>_SCSIWMILIB_CONTEXT</title>
<!-- Node1 -->
<g id="node1" class="node">
<title>Node1</title>
<g id="a_node1"><a xlink:title=" ">
<polygon fill="#bfbfbf" stroke="black" points="337,-61.5 337,-80.5 469,-80.5 469,-61.5 337,-61.5"/>
<text text-anchor="middle" x="403" y="-68.5" font-family="Helvetica,sans-Serif" font-size="10.00">_SCSIWMILIB_CONTEXT</text>
</a>
</g>
</g>
<!-- Node2 -->
<g id="node2" class="node">
<title>Node2</title>
<g id="a_node2"><a xlink:title=" ">
<polygon fill="none" stroke="#bfbfbf" points="14.5,-111.5 14.5,-130.5 183.5,-130.5 183.5,-111.5 14.5,-111.5"/>
<text text-anchor="middle" x="99" y="-118.5" font-family="Helvetica,sans-Serif" font-size="10.00">struct SCSIWMIGUIDREGINFO *</text>
</a>
</g>
</g>
<!-- Node2&#45;&gt;Node1 -->
<g id="edge1" class="edge">
<title>Node2&#45;&gt;Node1</title>
<path fill="none" stroke="#9a32cd" stroke-dasharray="5,2" d="M193.91,-116.23C232.92,-113.04 278.46,-107.76 319,-99 339.51,-94.57 362.03,-86.78 378.43,-80.54"/>
<polygon fill="#9a32cd" stroke="#9a32cd" points="193.32,-112.76 183.62,-117.03 193.87,-119.74 193.32,-112.76"/>
<text text-anchor="middle" x="267.5" y="-117" font-family="Helvetica,sans-Serif" font-size="10.00"> GuidList</text>
</g>
<!-- Node3 -->
<g id="node3" class="node">
<title>Node3</title>
<g id="a_node3"><a xlink:title=" ">
<polygon fill="none" stroke="#bfbfbf" points="0,-0.5 0,-41.5 198,-41.5 198,-0.5 0,-0.5"/>
<text text-anchor="start" x="8" y="-29.5" font-family="Helvetica,sans-Serif" font-size="10.00">PSecurityUserData *typedef</text>
<text text-anchor="start" x="8" y="-18.5" font-family="Helvetica,sans-Serif" font-size="10.00"> PSECPKG_EXTENDED_INFORMATION</text>
<text text-anchor="middle" x="99" y="-7.5" font-family="Helvetica,sans-Serif" font-size="10.00"> *typedef</text>
</a>
</g>
</g>
<!-- Node3&#45;&gt;Node1 -->
<g id="edge2" class="edge">
<title>Node3&#45;&gt;Node1</title>
<path fill="none" stroke="#9a32cd" stroke-dasharray="5,2" d="M208.16,-6.98C244.05,-5.61 283.8,-7.72 319,-18 347.88,-26.44 376.28,-48.32 391.21,-61.18"/>
<polygon fill="#9a32cd" stroke="#9a32cd" points="207.97,-3.48 198.15,-7.45 208.3,-10.47 207.97,-3.48"/>
<text text-anchor="middle" x="267.5" y="-87" font-family="Helvetica,sans-Serif" font-size="10.00"> SetWmiDataItem</text>
<text text-anchor="middle" x="267.5" y="-76" font-family="Helvetica,sans-Serif" font-size="10.00">ExecuteWmiMethod</text>
<text text-anchor="middle" x="267.5" y="-65" font-family="Helvetica,sans-Serif" font-size="10.00">QueryWmiRegInfo</text>
<text text-anchor="middle" x="267.5" y="-54" font-family="Helvetica,sans-Serif" font-size="10.00">GuidCount</text>
<text text-anchor="middle" x="267.5" y="-43" font-family="Helvetica,sans-Serif" font-size="10.00">WmiFunctionControl</text>
<text text-anchor="middle" x="267.5" y="-32" font-family="Helvetica,sans-Serif" font-size="10.00">SetWmiDataBlock</text>
<text text-anchor="middle" x="267.5" y="-21" font-family="Helvetica,sans-Serif" font-size="10.00">QueryWmiDataBlock</text>
</g>
</g>
</svg>
