<?xml version="1.0" encoding="UTF-8" standalone="no"?>
<!DOCTYPE svg PUBLIC "-//W3C//DTD SVG 1.1//EN"
 "http://www.w3.org/Graphics/SVG/1.1/DTD/svg11.dtd">
<!-- Generated by graphviz version 2.43.0 (0)
 -->
<!-- Title: DLGTEMPLATE Pages: 1 -->
<svg width="164pt" height="139pt"
 viewBox="0.00 0.00 163.50 139.00" xmlns="http://www.w3.org/2000/svg" xmlns:xlink="http://www.w3.org/1999/xlink">
<g id="graph0" class="graph" transform="scale(1 1) rotate(0) translate(4 135)">
<title>DLGTEMPLATE</title>
<!-- Node1 -->
<g id="node1" class="node">
<title>Node1</title>
<g id="a_node1"><a xlink:title=" ">
<polygon fill="#bfbfbf" stroke="black" points="5.5,-0.5 5.5,-19.5 93.5,-19.5 93.5,-0.5 5.5,-0.5"/>
<text text-anchor="middle" x="49.5" y="-7.5" font-family="Helvetica,sans-Serif" font-size="10.00">DLGTEMPLATE</text>
</a>
</g>
</g>
<!-- Node2 -->
<g id="node2" class="node">
<title>Node2</title>
<g id="a_node2"><a xlink:title=" ">
<polygon fill="none" stroke="#bfbfbf" points="0,-111.5 0,-130.5 41,-130.5 41,-111.5 0,-111.5"/>
<text text-anchor="middle" x="20.5" y="-118.5" font-family="Helvetica,sans-Serif" font-size="10.00">short</text>
</a>
</g>
</g>
<!-- Node2&#45;&gt;Node1 -->
<g id="edge1" class="edge">
<title>Node2&#45;&gt;Node1</title>
<path fill="none" stroke="#9a32cd" stroke-dasharray="5,2" d="M23.25,-101.06C25.96,-84.25 30.7,-59.14 37.5,-38 39.51,-31.75 42.51,-25 45.01,-19.81"/>
<polygon fill="#9a32cd" stroke="#9a32cd" points="19.74,-100.81 21.69,-111.22 26.66,-101.87 19.74,-100.81"/>
<text text-anchor="middle" x="47" y="-85" font-family="Helvetica,sans-Serif" font-size="10.00"> x</text>
<text text-anchor="middle" x="47" y="-74" font-family="Helvetica,sans-Serif" font-size="10.00">y</text>
<text text-anchor="middle" x="47" y="-63" font-family="Helvetica,sans-Serif" font-size="10.00">cx</text>
<text text-anchor="middle" x="47" y="-52" font-family="Helvetica,sans-Serif" font-size="10.00">cy</text>
<text text-anchor="middle" x="47" y="-41" font-family="Helvetica,sans-Serif" font-size="10.00">cdit</text>
</g>
<!-- Node3 -->
<g id="node3" class="node">
<title>Node3</title>
<g id="a_node3"><a xlink:title=" ">
<polygon fill="none" stroke="#bfbfbf" points="59.5,-111.5 59.5,-130.5 97.5,-130.5 97.5,-111.5 59.5,-111.5"/>
<text text-anchor="middle" x="78.5" y="-118.5" font-family="Helvetica,sans-Serif" font-size="10.00">long</text>
</a>
</g>
</g>
<!-- Node3&#45;&gt;Node1 -->
<g id="edge2" class="edge">
<title>Node3&#45;&gt;Node1</title>
<path fill="none" stroke="#9a32cd" stroke-dasharray="5,2" d="M73.58,-101.52C67.23,-77.64 56.44,-37.07 51.77,-19.51"/>
<polygon fill="#9a32cd" stroke="#9a32cd" points="70.27,-102.68 76.22,-111.45 77.04,-100.88 70.27,-102.68"/>
<text text-anchor="middle" x="113" y="-68.5" font-family="Helvetica,sans-Serif" font-size="10.00"> style</text>
<text text-anchor="middle" x="113" y="-57.5" font-family="Helvetica,sans-Serif" font-size="10.00">dwExtendedStyle</text>
</g>
</g>
</svg>
