<?xml version="1.0" encoding="UTF-8" standalone="no"?>
<!DOCTYPE svg PUBLIC "-//W3C//DTD SVG 1.1//EN"
 "http://www.w3.org/Graphics/SVG/1.1/DTD/svg11.dtd">
<!-- Generated by graphviz version 2.43.0 (0)
 -->
<!-- Title: tagMQRESTRICTION Pages: 1 -->
<svg width="411pt" height="88pt"
 viewBox="0.00 0.00 411.00 88.00" xmlns="http://www.w3.org/2000/svg" xmlns:xlink="http://www.w3.org/1999/xlink">
<g id="graph0" class="graph" transform="scale(1 1) rotate(0) translate(4 84)">
<title>tagMQRESTRICTION</title>
<!-- Node1 -->
<g id="node1" class="node">
<title>Node1</title>
<g id="a_node1"><a xlink:title=" ">
<polygon fill="#bfbfbf" stroke="black" points="289,-35.5 289,-54.5 403,-54.5 403,-35.5 289,-35.5"/>
<text text-anchor="middle" x="346" y="-42.5" font-family="Helvetica,sans-Serif" font-size="10.00">tagMQRESTRICTION</text>
</a>
</g>
</g>
<!-- Node2 -->
<g id="node2" class="node">
<title>Node2</title>
<g id="a_node2"><a xlink:title=" ">
<polygon fill="none" stroke="#bfbfbf" points="20.5,-60.5 20.5,-79.5 177.5,-79.5 177.5,-60.5 20.5,-60.5"/>
<text text-anchor="middle" x="99" y="-67.5" font-family="Helvetica,sans-Serif" font-size="10.00">MQPROPERTYRESTRICTION *</text>
</a>
</g>
</g>
<!-- Node2&#45;&gt;Node1 -->
<g id="edge1" class="edge">
<title>Node2&#45;&gt;Node1</title>
<path fill="none" stroke="#9a32cd" stroke-dasharray="5,2" d="M187.84,-61.04C221.53,-57.6 259.03,-53.77 288.95,-50.72"/>
<polygon fill="#9a32cd" stroke="#9a32cd" points="187.11,-57.59 177.52,-62.09 187.82,-64.56 187.11,-57.59"/>
<text text-anchor="middle" x="243.5" y="-60" font-family="Helvetica,sans-Serif" font-size="10.00"> paPropRes</text>
</g>
<!-- Node3 -->
<g id="node3" class="node">
<title>Node3</title>
<g id="a_node3"><a xlink:title=" ">
<polygon fill="none" stroke="#bfbfbf" points="0,-0.5 0,-41.5 198,-41.5 198,-0.5 0,-0.5"/>
<text text-anchor="start" x="8" y="-29.5" font-family="Helvetica,sans-Serif" font-size="10.00">PSecurityUserData *typedef</text>
<text text-anchor="start" x="8" y="-18.5" font-family="Helvetica,sans-Serif" font-size="10.00"> PSECPKG_EXTENDED_INFORMATION</text>
<text text-anchor="middle" x="99" y="-7.5" font-family="Helvetica,sans-Serif" font-size="10.00"> *typedef</text>
</a>
</g>
</g>
<!-- Node3&#45;&gt;Node1 -->
<g id="edge2" class="edge">
<title>Node3&#45;&gt;Node1</title>
<path fill="none" stroke="#9a32cd" stroke-dasharray="5,2" d="M208.28,-30.89C229.1,-32.86 250.73,-34.96 271,-37 276.79,-37.58 282.82,-38.21 288.85,-38.84"/>
<polygon fill="#9a32cd" stroke="#9a32cd" points="208.42,-27.39 198.14,-29.94 207.76,-34.36 208.42,-27.39"/>
<text text-anchor="middle" x="243.5" y="-40" font-family="Helvetica,sans-Serif" font-size="10.00"> cRes</text>
</g>
</g>
</svg>
