<?xml version="1.0" encoding="UTF-8" standalone="no"?>
<!DOCTYPE svg PUBLIC "-//W3C//DTD SVG 1.1//EN"
 "http://www.w3.org/Graphics/SVG/1.1/DTD/svg11.dtd">
<!-- Generated by graphviz version 2.43.0 (0)
 -->
<!-- Title: displayContextDef_t Pages: 1 -->
<!--zoomable 1285 -->
<svg id="main" version="1.1" xmlns="http://www.w3.org/2000/svg" xmlns:xlink="http://www.w3.org/1999/xlink" xml:space="preserve" onload="init(evt)">
<style type="text/css"><![CDATA[
.edge:hover path { stroke: red; }
.edge:hover polygon { stroke: red; fill: red; }
]]></style>
<script type="text/javascript"><![CDATA[
var edges = document.getElementsByTagName('g');
if (edges && edges.length) {
  for (var i=0;i<edges.length;i++) {
    if (edges[i].id.substr(0,4)=='edge') {
      edges[i].setAttribute('class','edge');
    }
  }
}
]]></script>
        <defs>
                <circle id="rim" cx="0" cy="0" r="7"/>
                <circle id="rim2" cx="0" cy="0" r="3.5"/>
                <g id="zoomPlus">
                        <use xlink:href="#rim" fill="#404040">
                                <set attributeName="fill" to="#808080" begin="zoomplus.mouseover" end="zoomplus.mouseout"/>
                        </use>
                        <path d="M-4,0h8M0,-4v8" fill="none" stroke="white" stroke-width="1.5" pointer-events="none"/>
                </g>
                <g id="zoomMin">
                        <use xlink:href="#rim" fill="#404040">
                                <set attributeName="fill" to="#808080" begin="zoomminus.mouseover" end="zoomminus.mouseout"/>
                        </use>
                        <path d="M-4,0h8" fill="none" stroke="white" stroke-width="1.5" pointer-events="none"/>
                </g>
                <g id="dirArrow">
                        <path fill="none" stroke="white" stroke-width="1.5" d="M0,-3.0v7 M-2.5,-0.5L0,-3.0L2.5,-0.5"/>
                </g>
               <g id="resetDef">
                       <use xlink:href="#rim2" fill="#404040">
                               <set attributeName="fill" to="#808080" begin="reset.mouseover" end="reset.mouseout"/>
                       </use>
               </g>
        </defs>

<script type="text/javascript">
var viewWidth = 1075;
var viewHeight = 1285;
var sectionId = 'dynsection-0';
</script>
<script xlink:href="../../svgpan.js"/>
<svg id="graph" class="graph">
<g id="viewport">
<title>displayContextDef_t</title>
<!-- Node1 -->
<g id="node1" class="node">
<title>Node1</title>
<g id="a_node1"><a xlink:title=" ">
<polygon fill="#bfbfbf" stroke="black" points="951,-367 951,-386 1067,-386 1067,-367 951,-367"/>
<text text-anchor="middle" x="1009" y="-374" font-family="Helvetica,sans-Serif" font-size="10.00">displayContextDef_t</text>
</a>
</g>
</g>
<!-- Node2 -->
<g id="node2" class="node">
<title>Node2</title>
<g id="a_node2"><a xlink:href="../../d0/da6/structglconfig__t.html" target="_top" xlink:title=" ">
<polygon fill="none" stroke="black" points="282.5,-590 282.5,-609 346.5,-609 346.5,-590 282.5,-590"/>
<text text-anchor="middle" x="314.5" y="-597" font-family="Helvetica,sans-Serif" font-size="10.00">glconfig_t</text>
</a>
</g>
</g>
<!-- Node2&#45;&gt;Node1 -->
<g id="edge1" class="edge">
<title>Node2&#45;&gt;Node1</title>
<path fill="none" stroke="#9a32cd" stroke-dasharray="5,2" d="M316.89,-579.45C320.18,-549.18 331.18,-492.47 368,-465.5 469.51,-391.13 814.04,-468.54 933,-427.5 958.9,-418.57 984.24,-398.22 997.82,-386.1"/>
<polygon fill="#9a32cd" stroke="#9a32cd" points="313.39,-579.37 315.97,-589.64 320.36,-580 313.39,-579.37"/>
<text text-anchor="middle" x="608.5" y="-435.5" font-family="Helvetica,sans-Serif" font-size="10.00"> glconfig</text>
</g>
<!-- Node3 -->
<g id="node3" class="node">
<title>Node3</title>
<g id="a_node3"><a xlink:href="../../d4/dc3/classfloat.html" target="_top" xlink:title=" ">
<polygon fill="none" stroke="black" points="43.5,-1031 43.5,-1050 81.5,-1050 81.5,-1031 43.5,-1031"/>
<text text-anchor="middle" x="62.5" y="-1038" font-family="Helvetica,sans-Serif" font-size="10.00">float</text>
</a>
</g>
</g>
<!-- Node3&#45;&gt;Node1 -->
<g id="edge23" class="edge">
<title>Node3&#45;&gt;Node1</title>
<path fill="none" stroke="#9a32cd" stroke-dasharray="5,2" d="M75.3,-1058.49C88.98,-1077.52 113.47,-1106.43 143,-1118.5 191.55,-1138.34 208.66,-1121.83 261,-1118.5 579.96,-1098.19 759.2,-1130.72 933,-862.5 986.85,-779.39 1004.69,-447.77 1007.57,-386.32"/>
<polygon fill="#9a32cd" stroke="#9a32cd" points="78.04,-1056.3 69.48,-1050.05 72.28,-1060.27 78.04,-1056.3"/>
<text text-anchor="middle" x="523.5" y="-1164.5" font-family="Helvetica,sans-Serif" font-size="10.00"> yscale</text>
<text text-anchor="middle" x="523.5" y="-1153.5" font-family="Helvetica,sans-Serif" font-size="10.00">xscale</text>
<text text-anchor="middle" x="523.5" y="-1142.5" font-family="Helvetica,sans-Serif" font-size="10.00">FPS</text>
<text text-anchor="middle" x="523.5" y="-1131.5" font-family="Helvetica,sans-Serif" font-size="10.00">bias</text>
<text text-anchor="middle" x="523.5" y="-1120.5" font-family="Helvetica,sans-Serif" font-size="10.00">getValue</text>
<text text-anchor="middle" x="523.5" y="-1109.5" font-family="Helvetica,sans-Serif" font-size="10.00">getCVarValue</text>
</g>
<!-- Node3&#45;&gt;Node2 -->
<g id="edge2" class="edge">
<title>Node3&#45;&gt;Node2</title>
<path fill="none" stroke="#9a32cd" stroke-dasharray="5,2" d="M70.92,-1021.38C82.24,-994.91 106.45,-947.62 143,-923.5 187.6,-894.07 223.59,-938.65 261,-900.5 302.96,-857.7 311.75,-655.88 313.23,-609.17"/>
<polygon fill="#9a32cd" stroke="#9a32cd" points="67.65,-1020.14 67.09,-1030.73 74.12,-1022.8 67.65,-1020.14"/>
<text text-anchor="middle" x="202" y="-926.5" font-family="Helvetica,sans-Serif" font-size="10.00"> windowAspect</text>
</g>
<!-- Node10 -->
<g id="node10" class="node">
<title>Node10</title>
<g id="a_node10"><a xlink:href="../../df/de5/structcachedAssets__t.html" target="_top" xlink:title=" ">
<polygon fill="none" stroke="black" points="681,-913 681,-932 773,-932 773,-913 681,-913"/>
<text text-anchor="middle" x="727" y="-920" font-family="Helvetica,sans-Serif" font-size="10.00">cachedAssets_t</text>
</a>
</g>
</g>
<!-- Node3&#45;&gt;Node10 -->
<g id="edge10" class="edge">
<title>Node3&#45;&gt;Node10</title>
<path fill="none" stroke="#9a32cd" stroke-dasharray="5,2" d="M91.67,-1035.01C130,-1027.52 200.71,-1013.65 261,-1001.5 308.59,-991.91 320.24,-988.21 368,-979.5 480.22,-959.04 612.99,-938.98 680.96,-929.01"/>
<polygon fill="#9a32cd" stroke="#9a32cd" points="90.9,-1031.59 81.75,-1036.95 92.24,-1038.46 90.9,-1031.59"/>
<text text-anchor="middle" x="415.5" y="-1037.5" font-family="Helvetica,sans-Serif" font-size="10.00"> shadowFadeClamp</text>
<text text-anchor="middle" x="415.5" y="-1026.5" font-family="Helvetica,sans-Serif" font-size="10.00">shadowX</text>
<text text-anchor="middle" x="415.5" y="-1015.5" font-family="Helvetica,sans-Serif" font-size="10.00">shadowColor</text>
<text text-anchor="middle" x="415.5" y="-1004.5" font-family="Helvetica,sans-Serif" font-size="10.00">shadowY</text>
<text text-anchor="middle" x="415.5" y="-993.5" font-family="Helvetica,sans-Serif" font-size="10.00">fadeAmount</text>
<text text-anchor="middle" x="415.5" y="-982.5" font-family="Helvetica,sans-Serif" font-size="10.00">fadeClamp</text>
</g>
<!-- Node11 -->
<g id="node11" class="node">
<title>Node11</title>
<g id="a_node11"><a xlink:href="../../de/d9e/structfontInfo__t.html" target="_top" xlink:title=" ">
<polygon fill="none" stroke="black" points="491.5,-1051 491.5,-1070 555.5,-1070 555.5,-1051 491.5,-1051"/>
<text text-anchor="middle" x="523.5" y="-1058" font-family="Helvetica,sans-Serif" font-size="10.00">fontInfo_t</text>
</a>
</g>
</g>
<!-- Node3&#45;&gt;Node11 -->
<g id="edge15" class="edge">
<title>Node3&#45;&gt;Node11</title>
<path fill="none" stroke="#9a32cd" stroke-dasharray="5,2" d="M91.61,-1041.08C142.95,-1042.21 255.33,-1045 350,-1049.5 399.46,-1051.85 456.82,-1055.74 491.35,-1058.21"/>
<polygon fill="#9a32cd" stroke="#9a32cd" points="91.68,-1037.58 81.61,-1040.87 91.53,-1044.58 91.68,-1037.58"/>
<text text-anchor="middle" x="314.5" y="-1052.5" font-family="Helvetica,sans-Serif" font-size="10.00"> glyphScale</text>
</g>
<!-- Node12 -->
<g id="node12" class="node">
<title>Node12</title>
<g id="a_node12"><a xlink:href="../../de/d4a/structglyphInfo__t.html" target="_top" xlink:title=" ">
<polygon fill="none" stroke="black" points="279,-1070 279,-1089 350,-1089 350,-1070 279,-1070"/>
<text text-anchor="middle" x="314.5" y="-1077" font-family="Helvetica,sans-Serif" font-size="10.00">glyphInfo_t</text>
</a>
</g>
</g>
<!-- Node3&#45;&gt;Node12 -->
<g id="edge18" class="edge">
<title>Node3&#45;&gt;Node12</title>
<path fill="none" stroke="#9a32cd" stroke-dasharray="5,2" d="M91.78,-1044.91C137.8,-1052.09 228.77,-1066.28 278.69,-1074.07"/>
<polygon fill="#9a32cd" stroke="#9a32cd" points="92.3,-1041.45 81.88,-1043.37 91.22,-1048.37 92.3,-1041.45"/>
<text text-anchor="middle" x="202" y="-1106.5" font-family="Helvetica,sans-Serif" font-size="10.00"> t2</text>
<text text-anchor="middle" x="202" y="-1095.5" font-family="Helvetica,sans-Serif" font-size="10.00">s2</text>
<text text-anchor="middle" x="202" y="-1084.5" font-family="Helvetica,sans-Serif" font-size="10.00">s</text>
<text text-anchor="middle" x="202" y="-1073.5" font-family="Helvetica,sans-Serif" font-size="10.00">t</text>
</g>
<!-- Node4 -->
<g id="node4" class="node">
<title>Node4</title>
<g id="a_node4"><a xlink:title=" ">
<polygon fill="none" stroke="#bfbfbf" points="43.5,-1182 43.5,-1201 81.5,-1201 81.5,-1182 43.5,-1182"/>
<text text-anchor="middle" x="62.5" y="-1189" font-family="Helvetica,sans-Serif" font-size="10.00">char</text>
</a>
</g>
</g>
<!-- Node4&#45;&gt;Node1 -->
<g id="edge22" class="edge">
<title>Node4&#45;&gt;Node1</title>
<path fill="none" stroke="#9a32cd" stroke-dasharray="5,2" d="M90.91,-1205.28C136.09,-1226.69 229.58,-1265.5 313.5,-1265.5 313.5,-1265.5 313.5,-1265.5 728,-1265.5 898.4,-1265.5 874.88,-1101.69 933,-941.5 1010.62,-727.56 1009.31,-441.98 1008.24,-386.18"/>
<polygon fill="#9a32cd" stroke="#9a32cd" points="92.29,-1202.06 81.77,-1200.87 89.25,-1208.37 92.29,-1202.06"/>
<text text-anchor="middle" x="523.5" y="-1268.5" font-family="Helvetica,sans-Serif" font-size="10.00"> feederItemText</text>
</g>
<!-- Node4&#45;&gt;Node2 -->
<g id="edge3" class="edge">
<title>Node4&#45;&gt;Node2</title>
<path fill="none" stroke="#9a32cd" stroke-dasharray="5,2" d="M73.21,-1172.53C86,-1147.17 108.76,-1100.63 125,-1059.5 134.45,-1035.58 126.91,-1024.57 143,-1004.5 181.14,-956.93 226.8,-984.98 261,-934.5 298.47,-879.18 310.77,-658.57 313.07,-609.29"/>
<polygon fill="#9a32cd" stroke="#9a32cd" points="69.95,-1171.24 68.54,-1181.74 76.19,-1174.41 69.95,-1171.24"/>
<text text-anchor="middle" x="202" y="-1040.5" font-family="Helvetica,sans-Serif" font-size="10.00"> extensions_string</text>
<text text-anchor="middle" x="202" y="-1029.5" font-family="Helvetica,sans-Serif" font-size="10.00">vendor_string</text>
<text text-anchor="middle" x="202" y="-1018.5" font-family="Helvetica,sans-Serif" font-size="10.00">renderer_string</text>
<text text-anchor="middle" x="202" y="-1007.5" font-family="Helvetica,sans-Serif" font-size="10.00">version_string</text>
</g>
<!-- Node4&#45;&gt;Node10 -->
<g id="edge11" class="edge">
<title>Node4&#45;&gt;Node10</title>
<path fill="none" stroke="#9a32cd" stroke-dasharray="5,2" d="M91.82,-1195.27C185.64,-1207.2 484.94,-1240.66 566,-1193.5 671.08,-1132.37 714.37,-972.79 723.9,-932.07"/>
<polygon fill="#9a32cd" stroke="#9a32cd" points="92.03,-1191.77 81.67,-1193.96 91.14,-1198.71 92.03,-1191.77"/>
<text text-anchor="middle" x="415.5" y="-1242.5" font-family="Helvetica,sans-Serif" font-size="10.00"> fontStr</text>
<text text-anchor="middle" x="415.5" y="-1231.5" font-family="Helvetica,sans-Serif" font-size="10.00">gradientStr</text>
<text text-anchor="middle" x="415.5" y="-1220.5" font-family="Helvetica,sans-Serif" font-size="10.00">cursorStr</text>
</g>
<!-- Node4&#45;&gt;Node11 -->
<g id="edge14" class="edge">
<title>Node4&#45;&gt;Node11</title>
<path fill="none" stroke="#9a32cd" stroke-dasharray="5,2" d="M91.53,-1192.51C130.24,-1193.22 201.99,-1192.12 261,-1177.5 359.48,-1153.1 467.06,-1093.29 506.71,-1070"/>
<polygon fill="#9a32cd" stroke="#9a32cd" points="91.6,-1189.01 81.52,-1192.26 91.44,-1196 91.6,-1189.01"/>
<text text-anchor="middle" x="314.5" y="-1174.5" font-family="Helvetica,sans-Serif" font-size="10.00"> name</text>
</g>
<!-- Node4&#45;&gt;Node12 -->
<g id="edge17" class="edge">
<title>Node4&#45;&gt;Node12</title>
<path fill="none" stroke="#9a32cd" stroke-dasharray="5,2" d="M91.02,-1182.41C137.79,-1166.79 230.68,-1134.93 261,-1118.5 276.37,-1110.17 292.25,-1097.75 302.46,-1089.17"/>
<polygon fill="#9a32cd" stroke="#9a32cd" points="89.89,-1179.1 81.51,-1185.58 92.1,-1185.74 89.89,-1179.1"/>
<text text-anchor="middle" x="202" y="-1165.5" font-family="Helvetica,sans-Serif" font-size="10.00"> shaderName</text>
</g>
<!-- Node5 -->
<g id="node5" class="node">
<title>Node5</title>
<g id="a_node5"><a xlink:title=" ">
<polygon fill="none" stroke="#bfbfbf" points="48,-756 48,-775 77,-775 77,-756 48,-756"/>
<text text-anchor="middle" x="62.5" y="-763" font-family="Helvetica,sans-Serif" font-size="10.00">int</text>
</a>
</g>
</g>
<!-- Node5&#45;&gt;Node1 -->
<g id="edge27" class="edge">
<title>Node5&#45;&gt;Node1</title>
<path fill="none" stroke="#9a32cd" stroke-dasharray="5,2" d="M87.6,-764.49C125.24,-762.43 199.99,-756.41 261,-739.5 574.81,-652.51 661.32,-627.04 933,-447.5 960.22,-429.51 986.65,-401.21 999.65,-386.36"/>
<polygon fill="#9a32cd" stroke="#9a32cd" points="86.98,-761.02 77.17,-765.01 87.33,-768.01 86.98,-761.02"/>
<text text-anchor="middle" x="523.5" y="-788.5" font-family="Helvetica,sans-Serif" font-size="10.00"> frameTime</text>
<text text-anchor="middle" x="523.5" y="-777.5" font-family="Helvetica,sans-Serif" font-size="10.00">ownerDrawWidth</text>
<text text-anchor="middle" x="523.5" y="-766.5" font-family="Helvetica,sans-Serif" font-size="10.00">gradientImage</text>
<text text-anchor="middle" x="523.5" y="-755.5" font-family="Helvetica,sans-Serif" font-size="10.00">cursor</text>
<text text-anchor="middle" x="523.5" y="-744.5" font-family="Helvetica,sans-Serif" font-size="10.00">textHeight</text>
<text text-anchor="middle" x="523.5" y="-733.5" font-family="Helvetica,sans-Serif" font-size="10.00">feederCount</text>
<text text-anchor="middle" x="523.5" y="-722.5" font-family="Helvetica,sans-Serif" font-size="10.00">cursorx</text>
<text text-anchor="middle" x="523.5" y="-711.5" font-family="Helvetica,sans-Serif" font-size="10.00">whiteShader</text>
<text text-anchor="middle" x="523.5" y="-700.5" font-family="Helvetica,sans-Serif" font-size="10.00">cursory</text>
<text text-anchor="middle" x="523.5" y="-689.5" font-family="Helvetica,sans-Serif" font-size="10.00">realTime</text>
<text text-anchor="middle" x="523.5" y="-678.5" font-family="Helvetica,sans-Serif" font-size="10.00">...</text>
</g>
<!-- Node5&#45;&gt;Node2 -->
<g id="edge4" class="edge">
<title>Node5&#45;&gt;Node2</title>
<path fill="none" stroke="#9a32cd" stroke-dasharray="5,2" d="M71.21,-746.53C82.76,-720.66 107.1,-674.87 143,-651.5 187.78,-622.34 210.78,-646.75 261,-628.5 274.51,-623.59 288.71,-615.55 298.93,-609.18"/>
<polygon fill="#9a32cd" stroke="#9a32cd" points="67.88,-745.4 67.17,-755.97 74.32,-748.16 67.88,-745.4"/>
<text text-anchor="middle" x="202" y="-731.5" font-family="Helvetica,sans-Serif" font-size="10.00"> depthBits</text>
<text text-anchor="middle" x="202" y="-720.5" font-family="Helvetica,sans-Serif" font-size="10.00">vidWidth</text>
<text text-anchor="middle" x="202" y="-709.5" font-family="Helvetica,sans-Serif" font-size="10.00">displayFrequency</text>
<text text-anchor="middle" x="202" y="-698.5" font-family="Helvetica,sans-Serif" font-size="10.00">vidHeight</text>
<text text-anchor="middle" x="202" y="-687.5" font-family="Helvetica,sans-Serif" font-size="10.00">colorBits</text>
<text text-anchor="middle" x="202" y="-676.5" font-family="Helvetica,sans-Serif" font-size="10.00">stencilBits</text>
<text text-anchor="middle" x="202" y="-665.5" font-family="Helvetica,sans-Serif" font-size="10.00">numTextureUnits</text>
<text text-anchor="middle" x="202" y="-654.5" font-family="Helvetica,sans-Serif" font-size="10.00">maxTextureSize</text>
</g>
<!-- Node5&#45;&gt;Node10 -->
<g id="edge12" class="edge">
<title>Node5&#45;&gt;Node10</title>
<path fill="none" stroke="#9a32cd" stroke-dasharray="5,2" d="M87.83,-768.16C125.21,-772.41 198.95,-781.37 261,-792.5 351.53,-808.74 374.25,-813.33 463,-837.5 550.5,-861.33 652.15,-896.3 699.37,-912.98"/>
<polygon fill="#9a32cd" stroke="#9a32cd" points="87.78,-764.64 77.45,-767 87,-771.59 87.78,-764.64"/>
<text text-anchor="middle" x="415.5" y="-950.5" font-family="Helvetica,sans-Serif" font-size="10.00"> itemFocusSound</text>
<text text-anchor="middle" x="415.5" y="-939.5" font-family="Helvetica,sans-Serif" font-size="10.00">buttonMiddle</text>
<text text-anchor="middle" x="415.5" y="-928.5" font-family="Helvetica,sans-Serif" font-size="10.00">scrollBar</text>
<text text-anchor="middle" x="415.5" y="-917.5" font-family="Helvetica,sans-Serif" font-size="10.00">buttonInside</text>
<text text-anchor="middle" x="415.5" y="-906.5" font-family="Helvetica,sans-Serif" font-size="10.00">scrollBarThumb</text>
<text text-anchor="middle" x="415.5" y="-895.5" font-family="Helvetica,sans-Serif" font-size="10.00">fxPic</text>
<text text-anchor="middle" x="415.5" y="-884.5" font-family="Helvetica,sans-Serif" font-size="10.00">cursor</text>
<text text-anchor="middle" x="415.5" y="-873.5" font-family="Helvetica,sans-Serif" font-size="10.00">solidBox</text>
<text text-anchor="middle" x="415.5" y="-862.5" font-family="Helvetica,sans-Serif" font-size="10.00">menuEnterSound</text>
<text text-anchor="middle" x="415.5" y="-851.5" font-family="Helvetica,sans-Serif" font-size="10.00">scrollBarArrowUp</text>
<text text-anchor="middle" x="415.5" y="-840.5" font-family="Helvetica,sans-Serif" font-size="10.00">...</text>
</g>
<!-- Node5&#45;&gt;Node12 -->
<g id="edge19" class="edge">
<title>Node5&#45;&gt;Node12</title>
<path fill="none" stroke="#9a32cd" stroke-dasharray="5,2" d="M87.09,-773.3C102.82,-778.34 124.01,-784.8 143,-789.5 194.86,-802.35 225.52,-772.55 261,-812.5 296.95,-852.99 252.17,-1008.47 279,-1055.5 282.4,-1061.46 287.95,-1066.28 293.62,-1069.99"/>
<polygon fill="#9a32cd" stroke="#9a32cd" points="87.76,-769.84 77.17,-770.09 85.6,-776.5 87.76,-769.84"/>
<text text-anchor="middle" x="202" y="-892.5" font-family="Helvetica,sans-Serif" font-size="10.00"> imageWidth</text>
<text text-anchor="middle" x="202" y="-881.5" font-family="Helvetica,sans-Serif" font-size="10.00">glyph</text>
<text text-anchor="middle" x="202" y="-870.5" font-family="Helvetica,sans-Serif" font-size="10.00">height</text>
<text text-anchor="middle" x="202" y="-859.5" font-family="Helvetica,sans-Serif" font-size="10.00">pitch</text>
<text text-anchor="middle" x="202" y="-848.5" font-family="Helvetica,sans-Serif" font-size="10.00">imageHeight</text>
<text text-anchor="middle" x="202" y="-837.5" font-family="Helvetica,sans-Serif" font-size="10.00">bottom</text>
<text text-anchor="middle" x="202" y="-826.5" font-family="Helvetica,sans-Serif" font-size="10.00">xSkip</text>
<text text-anchor="middle" x="202" y="-815.5" font-family="Helvetica,sans-Serif" font-size="10.00">top</text>
</g>
<!-- Node6 -->
<g id="node6" class="node">
<title>Node6</title>
<g id="a_node6"><a xlink:title=" ">
<polygon fill="none" stroke="#bfbfbf" points="19,-535 19,-554 106,-554 106,-535 19,-535"/>
<text text-anchor="middle" x="62.5" y="-542" font-family="Helvetica,sans-Serif" font-size="10.00">glDriverType_t</text>
</a>
</g>
</g>
<!-- Node6&#45;&gt;Node2 -->
<g id="edge5" class="edge">
<title>Node6&#45;&gt;Node2</title>
<path fill="none" stroke="#9a32cd" stroke-dasharray="5,2" d="M116.41,-541.5C157.17,-540.96 214.27,-544.11 261,-561.5 277.66,-567.7 293.75,-580.72 303.63,-589.78"/>
<polygon fill="#9a32cd" stroke="#9a32cd" points="116.08,-538.01 106.15,-541.72 116.23,-545.01 116.08,-538.01"/>
<text text-anchor="middle" x="202" y="-564.5" font-family="Helvetica,sans-Serif" font-size="10.00"> driverType</text>
</g>
<!-- Node7 -->
<g id="node7" class="node">
<title>Node7</title>
<g id="a_node7"><a xlink:title=" ">
<polygon fill="none" stroke="#bfbfbf" points="0,-611 0,-630 125,-630 125,-611 0,-611"/>
<text text-anchor="middle" x="62.5" y="-618" font-family="Helvetica,sans-Serif" font-size="10.00">textureCompression_t</text>
</a>
</g>
</g>
<!-- Node7&#45;&gt;Node2 -->
<g id="edge6" class="edge">
<title>Node7&#45;&gt;Node2</title>
<path fill="none" stroke="#9a32cd" stroke-dasharray="5,2" d="M135.46,-614.46C184.1,-610.37 245.89,-605.18 282.42,-602.11"/>
<polygon fill="#9a32cd" stroke="#9a32cd" points="134.97,-610.98 125.3,-615.31 135.56,-617.96 134.97,-610.98"/>
<text text-anchor="middle" x="202" y="-616.5" font-family="Helvetica,sans-Serif" font-size="10.00"> textureCompression</text>
</g>
<!-- Node8 -->
<g id="node8" class="node">
<title>Node8</title>
<g id="a_node8"><a xlink:title=" ">
<polygon fill="none" stroke="#bfbfbf" points="10.5,-573 10.5,-592 114.5,-592 114.5,-573 10.5,-573"/>
<text text-anchor="middle" x="62.5" y="-580" font-family="Helvetica,sans-Serif" font-size="10.00">glHardwareType_t</text>
</a>
</g>
</g>
<!-- Node8&#45;&gt;Node2 -->
<g id="edge7" class="edge">
<title>Node8&#45;&gt;Node2</title>
<path fill="none" stroke="#9a32cd" stroke-dasharray="5,2" d="M124.74,-578.26C163.93,-576.66 215.72,-576.64 261,-583.5 269.76,-584.83 279.09,-587.3 287.41,-589.92"/>
<polygon fill="#9a32cd" stroke="#9a32cd" points="124.39,-574.77 114.55,-578.72 124.7,-581.76 124.39,-574.77"/>
<text text-anchor="middle" x="202" y="-586.5" font-family="Helvetica,sans-Serif" font-size="10.00"> hardwareType</text>
</g>
<!-- Node9 -->
<g id="node9" class="node">
<title>Node9</title>
<g id="a_node9"><a xlink:title=" ">
<polygon fill="none" stroke="#bfbfbf" points="31.5,-428 31.5,-447 93.5,-447 93.5,-428 31.5,-428"/>
<text text-anchor="middle" x="62.5" y="-435" font-family="Helvetica,sans-Serif" font-size="10.00">qboolean</text>
</a>
</g>
</g>
<!-- Node9&#45;&gt;Node1 -->
<g id="edge31" class="edge">
<title>Node9&#45;&gt;Node1</title>
<path fill="none" stroke="#9a32cd" stroke-dasharray="5,2" d="M103.81,-432.33C116.35,-430.89 130.23,-429.46 143,-428.5 153.95,-427.68 922.17,-401.33 933,-399.5 949.92,-396.65 968.35,-391.03 982.71,-386.06"/>
<polygon fill="#9a32cd" stroke="#9a32cd" points="103.17,-428.89 93.65,-433.54 103.99,-435.84 103.17,-428.89"/>
<text text-anchor="middle" x="523.5" y="-418.5" font-family="Helvetica,sans-Serif" font-size="10.00"> debug</text>
</g>
<!-- Node9&#45;&gt;Node2 -->
<g id="edge8" class="edge">
<title>Node9&#45;&gt;Node2</title>
<path fill="none" stroke="#9a32cd" stroke-dasharray="5,2" d="M103.51,-444.64C157.63,-454.6 248.86,-472.55 261,-482.5 295.78,-511.01 308.36,-567.37 312.12,-589.88"/>
<polygon fill="#9a32cd" stroke="#9a32cd" points="104,-441.17 93.54,-442.82 102.75,-448.06 104,-441.17"/>
<text text-anchor="middle" x="202" y="-529.5" font-family="Helvetica,sans-Serif" font-size="10.00"> smpActive</text>
<text text-anchor="middle" x="202" y="-518.5" font-family="Helvetica,sans-Serif" font-size="10.00">stereoEnabled</text>
<text text-anchor="middle" x="202" y="-507.5" font-family="Helvetica,sans-Serif" font-size="10.00">deviceSupportsGamma</text>
<text text-anchor="middle" x="202" y="-496.5" font-family="Helvetica,sans-Serif" font-size="10.00">textureEnvAddAvailable</text>
<text text-anchor="middle" x="202" y="-485.5" font-family="Helvetica,sans-Serif" font-size="10.00">isFullscreen</text>
</g>
<!-- Node9&#45;&gt;Node10 -->
<g id="edge20" class="edge">
<title>Node9&#45;&gt;Node10</title>
<path fill="none" stroke="#9a32cd" stroke-dasharray="5,2" d="M103.86,-433.81C144.8,-431.56 209.33,-432.14 261,-451.5 419.99,-511.06 449.61,-557.9 566,-681.5 640.71,-760.84 703.73,-878.84 721.19,-912.95"/>
<polygon fill="#9a32cd" stroke="#9a32cd" points="103.49,-430.33 93.73,-434.46 103.93,-437.31 103.49,-430.33"/>
<text text-anchor="middle" x="415.5" y="-573.5" font-family="Helvetica,sans-Serif" font-size="10.00"> fontRegistered</text>
</g>
<!-- Node10&#45;&gt;Node1 -->
<g id="edge9" class="edge">
<title>Node10&#45;&gt;Node1</title>
<path fill="none" stroke="#9a32cd" stroke-dasharray="5,2" d="M750.49,-906.97C793.28,-876.15 886.29,-802.82 933,-717.5 997.92,-598.93 1006.65,-428.18 1007.82,-386.13"/>
<polygon fill="#9a32cd" stroke="#9a32cd" points="748.28,-904.24 742.16,-912.89 752.34,-909.95 748.28,-904.24"/>
<text text-anchor="middle" x="877" y="-850.5" font-family="Helvetica,sans-Serif" font-size="10.00"> Assets</text>
</g>
<!-- Node11&#45;&gt;Node10 -->
<g id="edge13" class="edge">
<title>Node11&#45;&gt;Node10</title>
<path fill="none" stroke="#9a32cd" stroke-dasharray="5,2" d="M547.11,-1045.01C589.08,-1016.27 677.86,-955.47 712.11,-932.01"/>
<polygon fill="#9a32cd" stroke="#9a32cd" points="544.94,-1042.26 538.67,-1050.8 548.9,-1048.03 544.94,-1042.26"/>
<text text-anchor="middle" x="608.5" y="-1044.5" font-family="Helvetica,sans-Serif" font-size="10.00"> textFont</text>
<text text-anchor="middle" x="608.5" y="-1033.5" font-family="Helvetica,sans-Serif" font-size="10.00">smallFont</text>
<text text-anchor="middle" x="608.5" y="-1022.5" font-family="Helvetica,sans-Serif" font-size="10.00">bigFont</text>
</g>
<!-- Node12&#45;&gt;Node11 -->
<g id="edge16" class="edge">
<title>Node12&#45;&gt;Node11</title>
<path fill="none" stroke="#9a32cd" stroke-dasharray="5,2" d="M360.33,-1075.39C399.94,-1071.75 456.67,-1066.54 491.47,-1063.35"/>
<polygon fill="#9a32cd" stroke="#9a32cd" points="359.79,-1071.92 350.15,-1076.32 360.43,-1078.89 359.79,-1071.92"/>
<text text-anchor="middle" x="415.5" y="-1076.5" font-family="Helvetica,sans-Serif" font-size="10.00"> glyphs</text>
</g>
<!-- Node13 -->
<g id="node13" class="node">
<title>Node13</title>
<g id="a_node13"><a xlink:title=" ">
<polygon fill="none" stroke="#bfbfbf" points="673.5,-354.5 673.5,-384.5 780.5,-384.5 780.5,-354.5 673.5,-354.5"/>
<text text-anchor="start" x="681.5" y="-372.5" font-family="Helvetica,sans-Serif" font-size="10.00">qhandle_t(*)(const</text>
<text text-anchor="middle" x="727" y="-361.5" font-family="Helvetica,sans-Serif" font-size="10.00"> char *p)</text>
</a>
</g>
</g>
<!-- Node13&#45;&gt;Node1 -->
<g id="edge21" class="edge">
<title>Node13&#45;&gt;Node1</title>
<path fill="none" stroke="#9a32cd" stroke-dasharray="5,2" d="M790.92,-371.07C838.85,-372.27 904.29,-373.91 950.75,-375.07"/>
<polygon fill="#9a32cd" stroke="#9a32cd" points="790.75,-367.57 780.67,-370.82 790.58,-374.57 790.75,-367.57"/>
<text text-anchor="middle" x="877" y="-388.5" font-family="Helvetica,sans-Serif" font-size="10.00"> registerModel</text>
<text text-anchor="middle" x="877" y="-377.5" font-family="Helvetica,sans-Serif" font-size="10.00">registerShaderNoMip</text>
</g>
<!-- Node14 -->
<g id="node14" class="node">
<title>Node14</title>
<g id="a_node14"><a xlink:title=" ">
<polygon fill="none" stroke="#bfbfbf" points="708,-246 708,-265 746,-265 746,-246 708,-246"/>
<text text-anchor="middle" x="727" y="-253" font-family="Helvetica,sans-Serif" font-size="10.00">void</text>
</a>
</g>
</g>
<!-- Node14&#45;&gt;Node1 -->
<g id="edge24" class="edge">
<title>Node14&#45;&gt;Node1</title>
<path fill="none" stroke="#9a32cd" stroke-dasharray="5,2" d="M755.97,-250.65C804.91,-242.74 903.69,-229.57 933,-246.5 979.71,-273.48 999.92,-341.82 1005.94,-367"/>
<polygon fill="#9a32cd" stroke="#9a32cd" points="755.34,-247.2 746.04,-252.29 756.48,-254.11 755.34,-247.2"/>
<text text-anchor="middle" x="877" y="-359.5" font-family="Helvetica,sans-Serif" font-size="10.00"> runCinematicFrame</text>
<text text-anchor="middle" x="877" y="-348.5" font-family="Helvetica,sans-Serif" font-size="10.00">fillRect</text>
<text text-anchor="middle" x="877" y="-337.5" font-family="Helvetica,sans-Serif" font-size="10.00">Pause</text>
<text text-anchor="middle" x="877" y="-326.5" font-family="Helvetica,sans-Serif" font-size="10.00">setColor</text>
<text text-anchor="middle" x="877" y="-315.5" font-family="Helvetica,sans-Serif" font-size="10.00">getBindingBuf</text>
<text text-anchor="middle" x="877" y="-304.5" font-family="Helvetica,sans-Serif" font-size="10.00">startLocalSound</text>
<text text-anchor="middle" x="877" y="-293.5" font-family="Helvetica,sans-Serif" font-size="10.00">drawStretchPic</text>
<text text-anchor="middle" x="877" y="-282.5" font-family="Helvetica,sans-Serif" font-size="10.00">drawHandlePic</text>
<text text-anchor="middle" x="877" y="-271.5" font-family="Helvetica,sans-Serif" font-size="10.00">drawCinematic</text>
<text text-anchor="middle" x="877" y="-260.5" font-family="Helvetica,sans-Serif" font-size="10.00">keynumToStringBuf</text>
<text text-anchor="middle" x="877" y="-249.5" font-family="Helvetica,sans-Serif" font-size="10.00">...</text>
</g>
<!-- Node15 -->
<g id="node15" class="node">
<title>Node15</title>
<g id="a_node15"><a xlink:title=" ">
<polygon fill="none" stroke="#bfbfbf" points="651,-186 651,-227 803,-227 803,-186 651,-186"/>
<text text-anchor="start" x="659" y="-215" font-family="Helvetica,sans-Serif" font-size="10.00">qboolean(*)(int ownerDraw,</text>
<text text-anchor="start" x="659" y="-204" font-family="Helvetica,sans-Serif" font-size="10.00"> int flags, float *special,</text>
<text text-anchor="middle" x="727" y="-193" font-family="Helvetica,sans-Serif" font-size="10.00"> int key)</text>
</a>
</g>
</g>
<!-- Node15&#45;&gt;Node1 -->
<g id="edge25" class="edge">
<title>Node15&#45;&gt;Node1</title>
<path fill="none" stroke="#9a32cd" stroke-dasharray="5,2" d="M813.32,-194.73C852.82,-193.65 898.52,-199.03 933,-222.5 984.62,-257.65 1002.02,-338.76 1006.61,-366.77"/>
<polygon fill="#9a32cd" stroke="#9a32cd" points="813,-191.24 803.15,-195.16 813.29,-198.24 813,-191.24"/>
<text text-anchor="middle" x="877" y="-225.5" font-family="Helvetica,sans-Serif" font-size="10.00"> ownerDrawHandleKey</text>
</g>
<!-- Node16 -->
<g id="node16" class="node">
<title>Node16</title>
<g id="a_node16"><a xlink:title=" ">
<polygon fill="none" stroke="#bfbfbf" points="675.5,-148 675.5,-167 778.5,-167 778.5,-148 675.5,-148"/>
<text text-anchor="middle" x="727" y="-155" font-family="Helvetica,sans-Serif" font-size="10.00">qboolean(*)(void)</text>
</a>
</g>
</g>
<!-- Node16&#45;&gt;Node1 -->
<g id="edge26" class="edge">
<title>Node16&#45;&gt;Node1</title>
<path fill="none" stroke="#9a32cd" stroke-dasharray="5,2" d="M788.99,-148.29C833.36,-145.04 892.5,-148.27 933,-179.5 995.3,-227.55 1005.86,-333.84 1007.64,-366.66"/>
<polygon fill="#9a32cd" stroke="#9a32cd" points="788.57,-144.82 778.91,-149.16 789.17,-151.79 788.57,-144.82"/>
<text text-anchor="middle" x="877" y="-182.5" font-family="Helvetica,sans-Serif" font-size="10.00"> getOverstrikeMode</text>
</g>
<!-- Node17 -->
<g id="node17" class="node">
<title>Node17</title>
<g id="a_node17"><a xlink:title=" ">
<polygon fill="none" stroke="#bfbfbf" points="663,-88 663,-129 791,-129 791,-88 663,-88"/>
<text text-anchor="start" x="671" y="-117" font-family="Helvetica,sans-Serif" font-size="10.00">sfxHandle_t(*)(const</text>
<text text-anchor="start" x="671" y="-106" font-family="Helvetica,sans-Serif" font-size="10.00"> char *name, qboolean</text>
<text text-anchor="middle" x="727" y="-95" font-family="Helvetica,sans-Serif" font-size="10.00"> compressed)</text>
</a>
</g>
</g>
<!-- Node17&#45;&gt;Node1 -->
<g id="edge28" class="edge">
<title>Node17&#45;&gt;Node1</title>
<path fill="none" stroke="#9a32cd" stroke-dasharray="5,2" d="M801.53,-98.14C844.44,-96.26 897.03,-101.64 933,-131.5 1008.13,-193.86 1009.56,-329.4 1008.44,-366.78"/>
<polygon fill="#9a32cd" stroke="#9a32cd" points="801.2,-94.66 791.41,-98.73 801.6,-101.65 801.2,-94.66"/>
<text text-anchor="middle" x="877" y="-134.5" font-family="Helvetica,sans-Serif" font-size="10.00"> registerSound</text>
</g>
<!-- Node18 -->
<g id="node18" class="node">
<title>Node18</title>
<g id="a_node18"><a xlink:title=" ">
<polygon fill="none" stroke="#bfbfbf" points="666.5,-50 666.5,-69 787.5,-69 787.5,-50 666.5,-50"/>
<text text-anchor="middle" x="727" y="-57" font-family="Helvetica,sans-Serif" font-size="10.00">qboolean(*)(int flags)</text>
</a>
</g>
</g>
<!-- Node18&#45;&gt;Node1 -->
<g id="edge29" class="edge">
<title>Node18&#45;&gt;Node1</title>
<path fill="none" stroke="#9a32cd" stroke-dasharray="5,2" d="M793.2,-49.08C837.73,-45.8 895.29,-49.66 933,-82.5 977.89,-121.59 1001.97,-320.79 1007,-366.94"/>
<polygon fill="#9a32cd" stroke="#9a32cd" points="792.7,-45.61 783.04,-49.97 793.31,-52.58 792.7,-45.61"/>
<text text-anchor="middle" x="877" y="-85.5" font-family="Helvetica,sans-Serif" font-size="10.00"> ownerDrawVisible</text>
</g>
<!-- Node19 -->
<g id="node19" class="node">
<title>Node19</title>
<g id="a_node19"><a xlink:title=" ">
<polygon fill="none" stroke="#bfbfbf" points="670,-0.5 670,-30.5 784,-30.5 784,-0.5 670,-0.5"/>
<text text-anchor="start" x="678" y="-18.5" font-family="Helvetica,sans-Serif" font-size="10.00">qhandle_t(*)(float</text>
<text text-anchor="middle" x="727" y="-7.5" font-family="Helvetica,sans-Serif" font-size="10.00"> feederID, int index)</text>
</a>
</g>
</g>
<!-- Node19&#45;&gt;Node1 -->
<g id="edge30" class="edge">
<title>Node19&#45;&gt;Node1</title>
<path fill="none" stroke="#9a32cd" stroke-dasharray="5,2" d="M794.25,-2.76C838.73,1.78 895.8,-0.77 933,-33.5 985.17,-79.4 1003.9,-315.61 1007.38,-366.74"/>
<polygon fill="#9a32cd" stroke="#9a32cd" points="793.63,0.69 784.1,-3.94 794.43,-6.26 793.63,0.69"/>
<text text-anchor="middle" x="877" y="-36.5" font-family="Helvetica,sans-Serif" font-size="10.00"> feederItemImage</text>
</g>
</g>
</svg>
        <g id="navigator" transform="translate(0 0)" fill="#404254">
                <rect fill="#f2f5e9" fill-opacity="0.5" stroke="#606060" stroke-width=".5" x="0" y="0" width="60" height="60"/>
                <use id="zoomplus" xlink:href="#zoomPlus" x="17" y="9" onmousedown="handleZoom(evt,'in')"/>
                <use id="zoomminus" xlink:href="#zoomMin" x="42" y="9" onmousedown="handleZoom(evt,'out')"/>
                <use id="reset" xlink:href="#resetDef" x="30" y="36" onmousedown="handleReset()"/>
                <g id="arrowUp" xlink:href="#dirArrow" transform="translate(30 24)" onmousedown="handlePan(0,-1)">
                  <use xlink:href="#rim" fill="#404040">
                        <set attributeName="fill" to="#808080" begin="arrowUp.mouseover" end="arrowUp.mouseout"/>
                  </use>
                  <path fill="none" stroke="white" stroke-width="1.5" d="M0,-3.0v7 M-2.5,-0.5L0,-3.0L2.5,-0.5"/>
                </g>
                <g id="arrowRight" xlink:href="#dirArrow" transform="rotate(90) translate(36 -43)" onmousedown="handlePan(1,0)">
                  <use xlink:href="#rim" fill="#404040">
                        <set attributeName="fill" to="#808080" begin="arrowRight.mouseover" end="arrowRight.mouseout"/>
                  </use>
                  <path fill="none" stroke="white" stroke-width="1.5" d="M0,-3.0v7 M-2.5,-0.5L0,-3.0L2.5,-0.5"/>
                </g>
                <g id="arrowDown" xlink:href="#dirArrow" transform="rotate(180) translate(-30 -48)" onmousedown="handlePan(0,1)">
                  <use xlink:href="#rim" fill="#404040">
                        <set attributeName="fill" to="#808080" begin="arrowDown.mouseover" end="arrowDown.mouseout"/>
                  </use>
                  <path fill="none" stroke="white" stroke-width="1.5" d="M0,-3.0v7 M-2.5,-0.5L0,-3.0L2.5,-0.5"/>
                </g>
                <g id="arrowLeft" xlink:href="#dirArrow" transform="rotate(270) translate(-36 17)" onmousedown="handlePan(-1,0)">
                  <use xlink:href="#rim" fill="#404040">
                        <set attributeName="fill" to="#808080" begin="arrowLeft.mouseover" end="arrowLeft.mouseout"/>
                  </use>
                  <path fill="none" stroke="white" stroke-width="1.5" d="M0,-3.0v7 M-2.5,-0.5L0,-3.0L2.5,-0.5"/>
                </g>
        </g>
        <svg viewBox="0 0 15 15" width="100%" height="30px" preserveAspectRatio="xMaxYMin meet">
         <g id="arrow_out" transform="scale(0.3 0.3)">
          <a xlink:href="structdisplayContextDef__t__coll__graph_org.svg" target="_base">
           <rect id="button" ry="5" rx="5" y="6" x="6" height="38" width="38"
                fill="#f2f5e9" fill-opacity="0.5" stroke="#606060" stroke-width="1.0"/>
           <path id="arrow"
             d="M 11.500037,31.436501 C 11.940474,20.09759 22.043105,11.32322 32.158766,21.979434 L 37.068811,17.246167 C 37.068811,17.246167 37.088388,32 37.088388,32 L 22.160133,31.978069 C 22.160133,31.978069 26.997745,27.140456 26.997745,27.140456 C 18.528582,18.264221 13.291696,25.230495 11.500037,31.436501 z"
             style="fill:#404040;"/>
          </a>
         </g>
        </svg>
</svg>
