<?xml version="1.0" encoding="UTF-8" standalone="no"?>
<!DOCTYPE svg PUBLIC "-//W3C//DTD SVG 1.1//EN"
 "http://www.w3.org/Graphics/SVG/1.1/DTD/svg11.dtd">
<!-- Generated by graphviz version 2.43.0 (0)
 -->
<!-- Title: _SP_DEVINSTALL_PARAMS_A Pages: 1 -->
<svg width="525pt" height="240pt"
 viewBox="0.00 0.00 525.00 240.00" xmlns="http://www.w3.org/2000/svg" xmlns:xlink="http://www.w3.org/1999/xlink">
<g id="graph0" class="graph" transform="scale(1 1) rotate(0) translate(4 236)">
<title>_SP_DEVINSTALL_PARAMS_A</title>
<!-- Node1 -->
<g id="node1" class="node">
<title>Node1</title>
<g id="a_node1"><a xlink:title=" ">
<polygon fill="#bfbfbf" stroke="black" points="361,-138.5 361,-157.5 517,-157.5 517,-138.5 361,-138.5"/>
<text text-anchor="middle" x="439" y="-145.5" font-family="Helvetica,sans-Serif" font-size="10.00">_SP_DEVINSTALL_PARAMS_A</text>
</a>
</g>
</g>
<!-- Node2 -->
<g id="node2" class="node">
<title>Node2</title>
<g id="a_node2"><a xlink:title=" ">
<polygon fill="none" stroke="#bfbfbf" points="80,-212.5 80,-231.5 118,-231.5 118,-212.5 80,-212.5"/>
<text text-anchor="middle" x="99" y="-219.5" font-family="Helvetica,sans-Serif" font-size="10.00">char</text>
</a>
</g>
</g>
<!-- Node2&#45;&gt;Node1 -->
<g id="edge1" class="edge">
<title>Node2&#45;&gt;Node1</title>
<path fill="none" stroke="#9a32cd" stroke-dasharray="5,2" d="M128.08,-220.67C173.85,-217.95 267.05,-210.12 343,-189 370.86,-181.25 401.26,-167.03 419.97,-157.55"/>
<polygon fill="#9a32cd" stroke="#9a32cd" points="127.81,-217.18 118.02,-221.23 128.2,-224.17 127.81,-217.18"/>
<text text-anchor="middle" x="279.5" y="-215" font-family="Helvetica,sans-Serif" font-size="10.00"> DriverPath</text>
</g>
<!-- Node3 -->
<g id="node3" class="node">
<title>Node3</title>
<g id="a_node3"><a xlink:title=" ">
<polygon fill="none" stroke="#bfbfbf" points="74.5,-174.5 74.5,-193.5 123.5,-193.5 123.5,-174.5 74.5,-174.5"/>
<text text-anchor="middle" x="99" y="-181.5" font-family="Helvetica,sans-Serif" font-size="10.00">HWND</text>
</a>
</g>
</g>
<!-- Node3&#45;&gt;Node1 -->
<g id="edge2" class="edge">
<title>Node3&#45;&gt;Node1</title>
<path fill="none" stroke="#9a32cd" stroke-dasharray="5,2" d="M133.71,-181.55C180.69,-177.99 268.46,-170.86 343,-162 354.01,-160.69 365.71,-159.12 377,-157.51"/>
<polygon fill="#9a32cd" stroke="#9a32cd" points="133.21,-178.08 123.5,-182.31 133.74,-185.06 133.21,-178.08"/>
<text text-anchor="middle" x="279.5" y="-177" font-family="Helvetica,sans-Serif" font-size="10.00"> hwndParent</text>
</g>
<!-- Node4 -->
<g id="node4" class="node">
<title>Node4</title>
<g id="a_node4"><a xlink:href="../../d2/d5f/classunsigned_01int.html" target="_top" xlink:title=" ">
<polygon fill="none" stroke="black" points="60.5,-136.5 60.5,-155.5 137.5,-155.5 137.5,-136.5 60.5,-136.5"/>
<text text-anchor="middle" x="99" y="-143.5" font-family="Helvetica,sans-Serif" font-size="10.00">unsigned int</text>
</a>
</g>
</g>
<!-- Node4&#45;&gt;Node1 -->
<g id="edge3" class="edge">
<title>Node4&#45;&gt;Node1</title>
<path fill="none" stroke="#9a32cd" stroke-dasharray="5,2" d="M148.04,-146.28C203.5,-146.61 295.48,-147.16 360.97,-147.54"/>
<polygon fill="#9a32cd" stroke="#9a32cd" points="147.81,-142.78 137.79,-146.22 147.77,-149.78 147.81,-142.78"/>
<text text-anchor="middle" x="279.5" y="-150" font-family="Helvetica,sans-Serif" font-size="10.00"> InstallMsgHandler</text>
</g>
<!-- Node5 -->
<g id="node5" class="node">
<title>Node5</title>
<g id="a_node5"><a xlink:title=" ">
<polygon fill="none" stroke="#bfbfbf" points="80,-60.5 80,-79.5 118,-79.5 118,-60.5 80,-60.5"/>
<text text-anchor="middle" x="99" y="-67.5" font-family="Helvetica,sans-Serif" font-size="10.00">long</text>
</a>
</g>
</g>
<!-- Node5&#45;&gt;Node1 -->
<g id="edge4" class="edge">
<title>Node5&#45;&gt;Node1</title>
<path fill="none" stroke="#9a32cd" stroke-dasharray="5,2" d="M128.45,-67.52C174.75,-64.46 268.68,-62.34 343,-87 376.86,-98.23 410.59,-124.33 427.26,-138.47"/>
<polygon fill="#9a32cd" stroke="#9a32cd" points="127.99,-64.04 118.27,-68.26 128.5,-71.03 127.99,-64.04"/>
<text text-anchor="middle" x="279.5" y="-134" font-family="Helvetica,sans-Serif" font-size="10.00"> cbSize</text>
<text text-anchor="middle" x="279.5" y="-123" font-family="Helvetica,sans-Serif" font-size="10.00">Flags</text>
<text text-anchor="middle" x="279.5" y="-112" font-family="Helvetica,sans-Serif" font-size="10.00">ClassInstallReserved</text>
<text text-anchor="middle" x="279.5" y="-101" font-family="Helvetica,sans-Serif" font-size="10.00">FlagsEx</text>
<text text-anchor="middle" x="279.5" y="-90" font-family="Helvetica,sans-Serif" font-size="10.00">Reserved</text>
</g>
<!-- Node6 -->
<g id="node6" class="node">
<title>Node6</title>
<g id="a_node6"><a xlink:title=" ">
<polygon fill="none" stroke="#bfbfbf" points="0,-0.5 0,-41.5 198,-41.5 198,-0.5 0,-0.5"/>
<text text-anchor="start" x="8" y="-29.5" font-family="Helvetica,sans-Serif" font-size="10.00">PSecurityUserData *typedef</text>
<text text-anchor="start" x="8" y="-18.5" font-family="Helvetica,sans-Serif" font-size="10.00"> PSECPKG_EXTENDED_INFORMATION</text>
<text text-anchor="middle" x="99" y="-7.5" font-family="Helvetica,sans-Serif" font-size="10.00"> *typedef</text>
</a>
</g>
</g>
<!-- Node6&#45;&gt;Node1 -->
<g id="edge5" class="edge">
<title>Node6&#45;&gt;Node1</title>
<path fill="none" stroke="#9a32cd" stroke-dasharray="5,2" d="M208.38,-12.21C252.2,-12.95 302.01,-19.5 343,-40 387.89,-62.45 420.85,-116.22 432.95,-138.3"/>
<polygon fill="#9a32cd" stroke="#9a32cd" points="208.28,-8.71 198.25,-12.14 208.23,-15.71 208.28,-8.71"/>
<text text-anchor="middle" x="279.5" y="-54" font-family="Helvetica,sans-Serif" font-size="10.00"> FileQueue</text>
<text text-anchor="middle" x="279.5" y="-43" font-family="Helvetica,sans-Serif" font-size="10.00">InstallMsgHandlerContext</text>
</g>
</g>
</svg>
