<?xml version="1.0" encoding="UTF-8" standalone="no"?>
<!DOCTYPE svg PUBLIC "-//W3C//DTD SVG 1.1//EN"
 "http://www.w3.org/Graphics/SVG/1.1/DTD/svg11.dtd">
<!-- Generated by graphviz version 2.43.0 (0)
 -->
<!-- Title: jpeg_component_info Pages: 1 -->
<svg width="411pt" height="274pt"
 viewBox="0.00 0.00 411.06 274.00" xmlns="http://www.w3.org/2000/svg" xmlns:xlink="http://www.w3.org/1999/xlink">
<g id="graph0" class="graph" transform="scale(1 1) rotate(0) translate(4 270)">
<title>jpeg_component_info</title>
<!-- Node1 -->
<g id="node1" class="node">
<title>Node1</title>
<g id="a_node1"><a xlink:title=" ">
<polygon fill="#bfbfbf" stroke="black" points="140.06,-0.5 140.06,-19.5 262.06,-19.5 262.06,-0.5 140.06,-0.5"/>
<text text-anchor="middle" x="201.06" y="-7.5" font-family="Helvetica,sans-Serif" font-size="10.00">jpeg_component_info</text>
</a>
</g>
</g>
<!-- Node2 -->
<g id="node2" class="node">
<title>Node2</title>
<g id="a_node2"><a xlink:href="../../dc/dbb/structJQUANT__TBL.html" target="_top" xlink:title=" ">
<polygon fill="none" stroke="black" points="125.06,-118 125.06,-137 203.06,-137 203.06,-118 125.06,-118"/>
<text text-anchor="middle" x="164.06" y="-125" font-family="Helvetica,sans-Serif" font-size="10.00">JQUANT_TBL</text>
</a>
</g>
</g>
<!-- Node2&#45;&gt;Node1 -->
<g id="edge1" class="edge">
<title>Node2&#45;&gt;Node1</title>
<path fill="none" stroke="#9a32cd" stroke-dasharray="5,2" d="M159.4,-107.95C155.73,-89.22 152.88,-60 164.06,-38 168.03,-30.2 175.41,-24.12 182.55,-19.72"/>
<polygon fill="#9a32cd" stroke="#9a32cd" points="156.02,-108.87 161.62,-117.86 162.85,-107.34 156.02,-108.87"/>
<text text-anchor="middle" x="194.56" y="-41" font-family="Helvetica,sans-Serif" font-size="10.00"> quant_table</text>
</g>
<!-- Node3 -->
<g id="node3" class="node">
<title>Node3</title>
<g id="a_node3"><a xlink:title=" ">
<polygon fill="none" stroke="#bfbfbf" points="18.56,-246.5 18.56,-265.5 47.56,-265.5 47.56,-246.5 18.56,-246.5"/>
<text text-anchor="middle" x="33.06" y="-253.5" font-family="Helvetica,sans-Serif" font-size="10.00">int</text>
</a>
</g>
</g>
<!-- Node3&#45;&gt;Node1 -->
<g id="edge5" class="edge">
<title>Node3&#45;&gt;Node1</title>
<path fill="none" stroke="#9a32cd" stroke-dasharray="5,2" d="M24.76,-237.19C9.31,-201.12 -18.99,-118.52 19.06,-67 46.56,-29.77 98.41,-16.51 139.76,-12.14"/>
<polygon fill="#9a32cd" stroke="#9a32cd" points="21.61,-238.73 28.88,-246.43 28.01,-235.88 21.61,-238.73"/>
<text text-anchor="middle" x="67.56" y="-180" font-family="Helvetica,sans-Serif" font-size="10.00"> component_index</text>
<text text-anchor="middle" x="67.56" y="-169" font-family="Helvetica,sans-Serif" font-size="10.00">ac_tbl_no</text>
<text text-anchor="middle" x="67.56" y="-158" font-family="Helvetica,sans-Serif" font-size="10.00">component_id</text>
<text text-anchor="middle" x="67.56" y="-147" font-family="Helvetica,sans-Serif" font-size="10.00">DCT_h_scaled_size</text>
<text text-anchor="middle" x="67.56" y="-136" font-family="Helvetica,sans-Serif" font-size="10.00">last_col_width</text>
<text text-anchor="middle" x="67.56" y="-125" font-family="Helvetica,sans-Serif" font-size="10.00">v_samp_factor</text>
<text text-anchor="middle" x="67.56" y="-114" font-family="Helvetica,sans-Serif" font-size="10.00">MCU_width</text>
<text text-anchor="middle" x="67.56" y="-103" font-family="Helvetica,sans-Serif" font-size="10.00">component_needed</text>
<text text-anchor="middle" x="67.56" y="-92" font-family="Helvetica,sans-Serif" font-size="10.00">DCT_v_scaled_size</text>
<text text-anchor="middle" x="67.56" y="-81" font-family="Helvetica,sans-Serif" font-size="10.00">last_row_height</text>
<text text-anchor="middle" x="67.56" y="-70" font-family="Helvetica,sans-Serif" font-size="10.00">...</text>
</g>
<!-- Node3&#45;&gt;Node2 -->
<g id="edge2" class="edge">
<title>Node3&#45;&gt;Node2</title>
<path fill="none" stroke="#9a32cd" stroke-dasharray="5,2" d="M52.22,-239.75C68.4,-226.59 91.94,-206.79 111.06,-188 128.43,-170.94 146.97,-149.21 156.86,-137.3"/>
<polygon fill="#9a32cd" stroke="#9a32cd" points="49.65,-237.33 44.06,-246.33 54.04,-242.78 49.65,-237.33"/>
<text text-anchor="middle" x="118.56" y="-214.5" font-family="Helvetica,sans-Serif" font-size="10.00"> sent_table</text>
</g>
<!-- Node4 -->
<g id="node4" class="node">
<title>Node4</title>
<g id="a_node4"><a xlink:title=" ">
<polygon fill="none" stroke="#bfbfbf" points="174.56,-246.5 174.56,-265.5 235.56,-265.5 235.56,-246.5 174.56,-246.5"/>
<text text-anchor="middle" x="205.06" y="-253.5" font-family="Helvetica,sans-Serif" font-size="10.00">unsigned</text>
</a>
</g>
</g>
<!-- Node4&#45;&gt;Node1 -->
<g id="edge6" class="edge">
<title>Node4&#45;&gt;Node1</title>
<path fill="none" stroke="#9a32cd" stroke-dasharray="5,2" d="M219.97,-238.19C222.06,-235 223.89,-231.54 225.06,-228 251.53,-147.81 255.07,-116.93 225.06,-38 222.34,-30.85 216.77,-24.38 211.67,-19.57"/>
<polygon fill="#9a32cd" stroke="#9a32cd" points="217.03,-236.28 213.72,-246.35 222.58,-240.54 217.03,-236.28"/>
<text text-anchor="middle" x="300.06" y="-147" font-family="Helvetica,sans-Serif" font-size="10.00"> downsampled_height</text>
<text text-anchor="middle" x="300.06" y="-136" font-family="Helvetica,sans-Serif" font-size="10.00">component_needed</text>
<text text-anchor="middle" x="300.06" y="-125" font-family="Helvetica,sans-Serif" font-size="10.00">height_in_blocks</text>
<text text-anchor="middle" x="300.06" y="-114" font-family="Helvetica,sans-Serif" font-size="10.00">downsampled_width</text>
<text text-anchor="middle" x="300.06" y="-103" font-family="Helvetica,sans-Serif" font-size="10.00">width_in_blocks</text>
</g>
<!-- Node4&#45;&gt;Node2 -->
<g id="edge3" class="edge">
<title>Node4&#45;&gt;Node2</title>
<path fill="none" stroke="#9a32cd" stroke-dasharray="5,2" d="M182.47,-239.93C178.76,-236.45 175.38,-232.44 173.06,-228 157.28,-197.69 160.46,-155.11 162.76,-137.09"/>
<polygon fill="#9a32cd" stroke="#9a32cd" points="180.35,-242.72 190.31,-246.32 184.77,-237.29 180.35,-242.72"/>
<text text-anchor="middle" x="199.06" y="-220" font-family="Helvetica,sans-Serif" font-size="10.00"> quantval</text>
<text text-anchor="middle" x="199.06" y="-209" font-family="Helvetica,sans-Serif" font-size="10.00">sent_table</text>
</g>
<!-- Node5 -->
<g id="node5" class="node">
<title>Node5</title>
<g id="a_node5"><a xlink:title=" ">
<polygon fill="none" stroke="#bfbfbf" points="365.06,-118 365.06,-137 403.06,-137 403.06,-118 365.06,-118"/>
<text text-anchor="middle" x="384.06" y="-125" font-family="Helvetica,sans-Serif" font-size="10.00">void</text>
</a>
</g>
</g>
<!-- Node5&#45;&gt;Node1 -->
<g id="edge4" class="edge">
<title>Node5&#45;&gt;Node1</title>
<path fill="none" stroke="#9a32cd" stroke-dasharray="5,2" d="M378,-108.57C372.74,-95.44 363.92,-78.07 351.06,-67 321.68,-41.7 279.78,-27.34 247.73,-19.52"/>
<polygon fill="#9a32cd" stroke="#9a32cd" points="374.73,-109.8 381.47,-117.98 381.29,-107.38 374.73,-109.8"/>
<text text-anchor="middle" x="346.56" y="-41" font-family="Helvetica,sans-Serif" font-size="10.00"> dct_table</text>
</g>
</g>
</svg>
