<?xml version="1.0" encoding="UTF-8" standalone="no"?>
<!DOCTYPE svg PUBLIC "-//W3C//DTD SVG 1.1//EN"
 "http://www.w3.org/Graphics/SVG/1.1/DTD/svg11.dtd">
<!-- Generated by graphviz version 2.43.0 (0)
 -->
<!-- Title: tagRASPPPLCPW Pages: 1 -->
<svg width="132pt" height="95pt"
 viewBox="0.00 0.00 132.00 95.00" xmlns="http://www.w3.org/2000/svg" xmlns:xlink="http://www.w3.org/1999/xlink">
<g id="graph0" class="graph" transform="scale(1 1) rotate(0) translate(4 91)">
<title>tagRASPPPLCPW</title>
<!-- Node1 -->
<g id="node1" class="node">
<title>Node1</title>
<g id="a_node1"><a xlink:title=" ">
<polygon fill="#bfbfbf" stroke="black" points="18,-0.5 18,-19.5 116,-19.5 116,-0.5 18,-0.5"/>
<text text-anchor="middle" x="67" y="-7.5" font-family="Helvetica,sans-Serif" font-size="10.00">tagRASPPPLCPW</text>
</a>
</g>
</g>
<!-- Node2 -->
<g id="node2" class="node">
<title>Node2</title>
<g id="a_node2"><a xlink:title=" ">
<polygon fill="none" stroke="#bfbfbf" points="0,-67.5 0,-86.5 64,-86.5 64,-67.5 0,-67.5"/>
<text text-anchor="middle" x="32" y="-74.5" font-family="Helvetica,sans-Serif" font-size="10.00">WINBOOL</text>
</a>
</g>
</g>
<!-- Node2&#45;&gt;Node1 -->
<g id="edge1" class="edge">
<title>Node2&#45;&gt;Node1</title>
<path fill="none" stroke="#9a32cd" stroke-dasharray="5,2" d="M29.37,-56.96C29.3,-50.64 30.13,-43.76 33,-38 36.84,-30.31 44,-24.12 50.76,-19.61"/>
<polygon fill="#9a32cd" stroke="#9a32cd" points="25.92,-57.68 30.23,-67.35 32.89,-57.1 25.92,-57.68"/>
<text text-anchor="middle" x="56.5" y="-41" font-family="Helvetica,sans-Serif" font-size="10.00"> fBundled</text>
</g>
<!-- Node3 -->
<g id="node3" class="node">
<title>Node3</title>
<g id="a_node3"><a xlink:title=" ">
<polygon fill="none" stroke="#bfbfbf" points="83,-67.5 83,-86.5 121,-86.5 121,-67.5 83,-67.5"/>
<text text-anchor="middle" x="102" y="-74.5" font-family="Helvetica,sans-Serif" font-size="10.00">long</text>
</a>
</g>
</g>
<!-- Node3&#45;&gt;Node1 -->
<g id="edge2" class="edge">
<title>Node3&#45;&gt;Node1</title>
<path fill="none" stroke="#9a32cd" stroke-dasharray="5,2" d="M92.4,-58.16C85.65,-45.63 76.91,-29.41 71.65,-19.63"/>
<polygon fill="#9a32cd" stroke="#9a32cd" points="89.46,-60.09 97.28,-67.23 95.62,-56.77 89.46,-60.09"/>
<text text-anchor="middle" x="105" y="-41" font-family="Helvetica,sans-Serif" font-size="10.00"> dwSize</text>
</g>
</g>
</svg>
