<?xml version="1.0" encoding="UTF-8" standalone="no"?>
<!DOCTYPE svg PUBLIC "-//W3C//DTD SVG 1.1//EN"
 "http://www.w3.org/Graphics/SVG/1.1/DTD/svg11.dtd">
<!-- Generated by graphviz version 2.43.0 (0)
 -->
<!-- Title: value_entW Pages: 1 -->
<svg width="205pt" height="117pt"
 viewBox="0.00 0.00 204.50 117.00" xmlns="http://www.w3.org/2000/svg" xmlns:xlink="http://www.w3.org/1999/xlink">
<g id="graph0" class="graph" transform="scale(1 1) rotate(0) translate(4 113)">
<title>value_entW</title>
<!-- Node1 -->
<g id="node1" class="node">
<title>Node1</title>
<g id="a_node1"><a xlink:title=" ">
<polygon fill="#bfbfbf" stroke="black" points="56.5,-0.5 56.5,-19.5 130.5,-19.5 130.5,-0.5 56.5,-0.5"/>
<text text-anchor="middle" x="93.5" y="-7.5" font-family="Helvetica,sans-Serif" font-size="10.00">value_entW</text>
</a>
</g>
</g>
<!-- Node2 -->
<g id="node2" class="node">
<title>Node2</title>
<g id="a_node2"><a xlink:title=" ">
<polygon fill="none" stroke="#bfbfbf" points="0,-89.5 0,-108.5 89,-108.5 89,-89.5 0,-89.5"/>
<text text-anchor="middle" x="44.5" y="-96.5" font-family="Helvetica,sans-Serif" font-size="10.00">unsigned short</text>
</a>
</g>
</g>
<!-- Node2&#45;&gt;Node1 -->
<g id="edge1" class="edge">
<title>Node2&#45;&gt;Node1</title>
<path fill="none" stroke="#9a32cd" stroke-dasharray="5,2" d="M40.24,-79.29C38.42,-66.74 38.16,-50.32 45.5,-38 50.44,-29.71 58.96,-23.75 67.46,-19.59"/>
<polygon fill="#9a32cd" stroke="#9a32cd" points="36.8,-79.94 42.08,-89.12 43.68,-78.65 36.8,-79.94"/>
<text text-anchor="middle" x="83.5" y="-52" font-family="Helvetica,sans-Serif" font-size="10.00"> ve_valuename</text>
</g>
<!-- Node3 -->
<g id="node3" class="node">
<title>Node3</title>
<g id="a_node3"><a xlink:title=" ">
<polygon fill="none" stroke="#bfbfbf" points="124.5,-89.5 124.5,-108.5 162.5,-108.5 162.5,-89.5 124.5,-89.5"/>
<text text-anchor="middle" x="143.5" y="-96.5" font-family="Helvetica,sans-Serif" font-size="10.00">long</text>
</a>
</g>
</g>
<!-- Node3&#45;&gt;Node1 -->
<g id="edge2" class="edge">
<title>Node3&#45;&gt;Node1</title>
<path fill="none" stroke="#9a32cd" stroke-dasharray="5,2" d="M139.09,-79.6C135.57,-67.18 129.84,-50.8 121.5,-38 116.93,-30.98 110.22,-24.43 104.51,-19.54"/>
<polygon fill="#9a32cd" stroke="#9a32cd" points="135.71,-80.5 141.62,-89.29 142.48,-78.73 135.71,-80.5"/>
<text text-anchor="middle" x="166" y="-63" font-family="Helvetica,sans-Serif" font-size="10.00"> ve_valueptr</text>
<text text-anchor="middle" x="166" y="-52" font-family="Helvetica,sans-Serif" font-size="10.00">ve_valuelen</text>
<text text-anchor="middle" x="166" y="-41" font-family="Helvetica,sans-Serif" font-size="10.00">ve_type</text>
</g>
</g>
</svg>
