<?xml version="1.0" encoding="UTF-8" standalone="no"?>
<!DOCTYPE svg PUBLIC "-//W3C//DTD SVG 1.1//EN"
 "http://www.w3.org/Graphics/SVG/1.1/DTD/svg11.dtd">
<!-- Generated by graphviz version 2.43.0 (0)
 -->
<!-- Title: _NDIS_REQUEST::_DATA::QUERY_INFORMATION Pages: 1 -->
<svg width="286pt" height="150pt"
 viewBox="0.00 0.00 285.50 150.00" xmlns="http://www.w3.org/2000/svg" xmlns:xlink="http://www.w3.org/1999/xlink">
<g id="graph0" class="graph" transform="scale(1 1) rotate(0) translate(4 146)">
<title>_NDIS_REQUEST::_DATA::QUERY_INFORMATION</title>
<!-- Node1 -->
<g id="node1" class="node">
<title>Node1</title>
<g id="a_node1"><a xlink:title=" ">
<polygon fill="#bfbfbf" stroke="black" points="38,-0.5 38,-30.5 171,-30.5 171,-0.5 38,-0.5"/>
<text text-anchor="start" x="46" y="-18.5" font-family="Helvetica,sans-Serif" font-size="10.00">_NDIS_REQUEST::_DATA</text>
<text text-anchor="middle" x="104.5" y="-7.5" font-family="Helvetica,sans-Serif" font-size="10.00">::QUERY_INFORMATION</text>
</a>
</g>
</g>
<!-- Node2 -->
<g id="node2" class="node">
<title>Node2</title>
<g id="a_node2"><a xlink:title=" ">
<polygon fill="none" stroke="#bfbfbf" points="0,-111.5 0,-130.5 61,-130.5 61,-111.5 0,-111.5"/>
<text text-anchor="middle" x="30.5" y="-118.5" font-family="Helvetica,sans-Serif" font-size="10.00">unsigned</text>
</a>
</g>
</g>
<!-- Node2&#45;&gt;Node1 -->
<g id="edge1" class="edge">
<title>Node2&#45;&gt;Node1</title>
<path fill="none" stroke="#9a32cd" stroke-dasharray="5,2" d="M27.3,-101.31C25.71,-85.92 25.98,-64.23 36.5,-49 41.93,-41.14 49.79,-35.12 58.26,-30.53"/>
<polygon fill="#9a32cd" stroke="#9a32cd" points="23.83,-101.8 28.67,-111.22 30.77,-100.84 23.83,-101.8"/>
<text text-anchor="middle" x="96.5" y="-74" font-family="Helvetica,sans-Serif" font-size="10.00"> BytesWritten</text>
<text text-anchor="middle" x="96.5" y="-63" font-family="Helvetica,sans-Serif" font-size="10.00">InformationBufferLength</text>
<text text-anchor="middle" x="96.5" y="-52" font-family="Helvetica,sans-Serif" font-size="10.00">BytesNeeded</text>
</g>
<!-- Node3 -->
<g id="node3" class="node">
<title>Node3</title>
<g id="a_node3"><a xlink:title=" ">
<polygon fill="none" stroke="#bfbfbf" points="79.5,-100.5 79.5,-141.5 277.5,-141.5 277.5,-100.5 79.5,-100.5"/>
<text text-anchor="start" x="87.5" y="-129.5" font-family="Helvetica,sans-Serif" font-size="10.00">PSecurityUserData *typedef</text>
<text text-anchor="start" x="87.5" y="-118.5" font-family="Helvetica,sans-Serif" font-size="10.00"> PSECPKG_EXTENDED_INFORMATION</text>
<text text-anchor="middle" x="178.5" y="-107.5" font-family="Helvetica,sans-Serif" font-size="10.00"> *typedef</text>
</a>
</g>
</g>
<!-- Node3&#45;&gt;Node1 -->
<g id="edge2" class="edge">
<title>Node3&#45;&gt;Node1</title>
<path fill="none" stroke="#9a32cd" stroke-dasharray="5,2" d="M174.18,-90.28C171.04,-76.64 165.66,-60.89 156.5,-49 150.78,-41.58 142.85,-35.42 134.9,-30.53"/>
<polygon fill="#9a32cd" stroke="#9a32cd" points="170.77,-91.09 176.17,-100.21 177.64,-89.71 170.77,-91.09"/>
<text text-anchor="middle" x="216.5" y="-68.5" font-family="Helvetica,sans-Serif" font-size="10.00"> InformationBuffer</text>
<text text-anchor="middle" x="216.5" y="-57.5" font-family="Helvetica,sans-Serif" font-size="10.00">Oid</text>
</g>
</g>
</svg>
