<?xml version="1.0" encoding="UTF-8" standalone="no"?>
<!DOCTYPE svg PUBLIC "-//W3C//DTD SVG 1.1//EN"
 "http://www.w3.org/Graphics/SVG/1.1/DTD/svg11.dtd">
<!-- Generated by graphviz version 2.43.0 (0)
 -->
<!-- Title: _encorrecttext Pages: 1 -->
<svg width="219pt" height="95pt"
 viewBox="0.00 0.00 219.00 95.00" xmlns="http://www.w3.org/2000/svg" xmlns:xlink="http://www.w3.org/1999/xlink">
<g id="graph0" class="graph" transform="scale(1 1) rotate(0) translate(4 91)">
<title>_encorrecttext</title>
<!-- Node1 -->
<g id="node1" class="node">
<title>Node1</title>
<g id="a_node1"><a xlink:title=" ">
<polygon fill="#bfbfbf" stroke="black" points="50,-0.5 50,-19.5 137,-19.5 137,-0.5 50,-0.5"/>
<text text-anchor="middle" x="93.5" y="-7.5" font-family="Helvetica,sans-Serif" font-size="10.00">_encorrecttext</text>
</a>
</g>
</g>
<!-- Node2 -->
<g id="node2" class="node">
<title>Node2</title>
<g id="a_node2"><a xlink:title=" ">
<polygon fill="none" stroke="#bfbfbf" points="0,-67.5 0,-86.5 55,-86.5 55,-67.5 0,-67.5"/>
<text text-anchor="middle" x="27.5" y="-74.5" font-family="Helvetica,sans-Serif" font-size="10.00">NMHDR</text>
</a>
</g>
</g>
<!-- Node2&#45;&gt;Node1 -->
<g id="edge1" class="edge">
<title>Node2&#45;&gt;Node1</title>
<path fill="none" stroke="#9a32cd" stroke-dasharray="5,2" d="M38,-58.6C42.59,-51.76 48.33,-44.1 54.5,-38 61.65,-30.94 70.84,-24.48 78.5,-19.64"/>
<polygon fill="#9a32cd" stroke="#9a32cd" points="34.94,-56.88 32.53,-67.2 40.85,-60.64 34.94,-56.88"/>
<text text-anchor="middle" x="72" y="-41" font-family="Helvetica,sans-Serif" font-size="10.00"> nmhdr</text>
</g>
<!-- Node3 -->
<g id="node3" class="node">
<title>Node3</title>
<g id="a_node3"><a xlink:title=" ">
<polygon fill="none" stroke="#bfbfbf" points="73,-67.5 73,-86.5 114,-86.5 114,-67.5 73,-67.5"/>
<text text-anchor="middle" x="93.5" y="-74.5" font-family="Helvetica,sans-Serif" font-size="10.00">short</text>
</a>
</g>
</g>
<!-- Node3&#45;&gt;Node1 -->
<g id="edge2" class="edge">
<title>Node3&#45;&gt;Node1</title>
<path fill="none" stroke="#9a32cd" stroke-dasharray="5,2" d="M93.5,-57.04C93.5,-44.67 93.5,-29.12 93.5,-19.63"/>
<polygon fill="#9a32cd" stroke="#9a32cd" points="90,-57.23 93.5,-67.23 97,-57.23 90,-57.23"/>
<text text-anchor="middle" x="110.5" y="-41" font-family="Helvetica,sans-Serif" font-size="10.00"> seltyp</text>
</g>
<!-- Node4 -->
<g id="node4" class="node">
<title>Node4</title>
<g id="a_node4"><a xlink:title=" ">
<polygon fill="none" stroke="#bfbfbf" points="132,-67.5 132,-86.5 211,-86.5 211,-67.5 132,-67.5"/>
<text text-anchor="middle" x="171.5" y="-74.5" font-family="Helvetica,sans-Serif" font-size="10.00">CHARRANGE</text>
</a>
</g>
</g>
<!-- Node4&#45;&gt;Node1 -->
<g id="edge3" class="edge">
<title>Node4&#45;&gt;Node1</title>
<path fill="none" stroke="#9a32cd" stroke-dasharray="5,2" d="M156.12,-60.41C148.87,-53.32 139.97,-44.97 131.5,-38 123.5,-31.42 114,-24.67 106.5,-19.56"/>
<polygon fill="#9a32cd" stroke="#9a32cd" points="153.68,-62.91 163.24,-67.48 158.61,-57.95 153.68,-62.91"/>
<text text-anchor="middle" x="156" y="-41" font-family="Helvetica,sans-Serif" font-size="10.00"> chrg</text>
</g>
</g>
</svg>
