<?xml version="1.0" encoding="UTF-8" standalone="no"?>
<!DOCTYPE svg PUBLIC "-//W3C//DTD SVG 1.1//EN"
 "http://www.w3.org/Graphics/SVG/1.1/DTD/svg11.dtd">
<!-- Generated by graphviz version 2.43.0 (0)
 -->
<!-- Title: _IMAGE_NT_HEADERS Pages: 1 -->
<svg width="387pt" height="95pt"
 viewBox="0.00 0.00 386.50 95.00" xmlns="http://www.w3.org/2000/svg" xmlns:xlink="http://www.w3.org/1999/xlink">
<g id="graph0" class="graph" transform="scale(1 1) rotate(0) translate(4 91)">
<title>_IMAGE_NT_HEADERS</title>
<!-- Node1 -->
<g id="node1" class="node">
<title>Node1</title>
<g id="a_node1"><a xlink:title=" ">
<polygon fill="#bfbfbf" stroke="black" points="106.5,-0.5 106.5,-19.5 231.5,-19.5 231.5,-0.5 106.5,-0.5"/>
<text text-anchor="middle" x="169" y="-7.5" font-family="Helvetica,sans-Serif" font-size="10.00">_IMAGE_NT_HEADERS</text>
</a>
</g>
</g>
<!-- Node2 -->
<g id="node2" class="node">
<title>Node2</title>
<g id="a_node2"><a xlink:title=" ">
<polygon fill="none" stroke="#bfbfbf" points="0,-67.5 0,-86.5 120,-86.5 120,-67.5 0,-67.5"/>
<text text-anchor="middle" x="60" y="-74.5" font-family="Helvetica,sans-Serif" font-size="10.00">IMAGE_FILE_HEADER</text>
</a>
</g>
</g>
<!-- Node2&#45;&gt;Node1 -->
<g id="edge1" class="edge">
<title>Node2&#45;&gt;Node1</title>
<path fill="none" stroke="#9a32cd" stroke-dasharray="5,2" d="M77.48,-60.81C86.52,-53.38 97.95,-44.64 109,-38 120.94,-30.82 135.13,-24.35 146.71,-19.55"/>
<polygon fill="#9a32cd" stroke="#9a32cd" points="75.03,-58.29 69.64,-67.41 79.54,-63.65 75.03,-58.29"/>
<text text-anchor="middle" x="137" y="-41" font-family="Helvetica,sans-Serif" font-size="10.00"> FileHeader</text>
</g>
<!-- Node3 -->
<g id="node3" class="node">
<title>Node3</title>
<g id="a_node3"><a xlink:title=" ">
<polygon fill="none" stroke="#bfbfbf" points="138.5,-67.5 138.5,-86.5 199.5,-86.5 199.5,-67.5 138.5,-67.5"/>
<text text-anchor="middle" x="169" y="-74.5" font-family="Helvetica,sans-Serif" font-size="10.00">unsigned</text>
</a>
</g>
</g>
<!-- Node3&#45;&gt;Node1 -->
<g id="edge2" class="edge">
<title>Node3&#45;&gt;Node1</title>
<path fill="none" stroke="#9a32cd" stroke-dasharray="5,2" d="M169,-57.04C169,-44.67 169,-29.12 169,-19.63"/>
<polygon fill="#9a32cd" stroke="#9a32cd" points="165.5,-57.23 169,-67.23 172.5,-57.23 165.5,-57.23"/>
<text text-anchor="middle" x="194" y="-41" font-family="Helvetica,sans-Serif" font-size="10.00"> Signature</text>
</g>
<!-- Node4 -->
<g id="node4" class="node">
<title>Node4</title>
<g id="a_node4"><a xlink:title=" ">
<polygon fill="none" stroke="#bfbfbf" points="217.5,-67.5 217.5,-86.5 378.5,-86.5 378.5,-67.5 217.5,-67.5"/>
<text text-anchor="middle" x="298" y="-74.5" font-family="Helvetica,sans-Serif" font-size="10.00">IMAGE_OPTIONAL_HEADER32</text>
</a>
</g>
</g>
<!-- Node4&#45;&gt;Node1 -->
<g id="edge3" class="edge">
<title>Node4&#45;&gt;Node1</title>
<path fill="none" stroke="#9a32cd" stroke-dasharray="5,2" d="M271.75,-62.66C257.36,-55.35 239.21,-46.16 223,-38 210.83,-31.87 197.09,-25.01 186.52,-19.73"/>
<polygon fill="#9a32cd" stroke="#9a32cd" points="270.53,-65.96 281.03,-67.37 273.7,-59.72 270.53,-65.96"/>
<text text-anchor="middle" x="283" y="-41" font-family="Helvetica,sans-Serif" font-size="10.00"> OptionalHeader</text>
</g>
</g>
</svg>
