<?xml version="1.0" encoding="UTF-8" standalone="no"?>
<!DOCTYPE svg PUBLIC "-//W3C//DTD SVG 1.1//EN"
 "http://www.w3.org/Graphics/SVG/1.1/DTD/svg11.dtd">
<!-- Generated by graphviz version 2.43.0 (0)
 -->
<!-- Title: music_t Pages: 1 -->
<!--zoomable 462 -->
<svg id="main" version="1.1" xmlns="http://www.w3.org/2000/svg" xmlns:xlink="http://www.w3.org/1999/xlink" xml:space="preserve" onload="init(evt)">
<style type="text/css"><![CDATA[
.edge:hover path { stroke: red; }
.edge:hover polygon { stroke: red; fill: red; }
]]></style>
<script type="text/javascript"><![CDATA[
var edges = document.getElementsByTagName('g');
if (edges && edges.length) {
  for (var i=0;i<edges.length;i++) {
    if (edges[i].id.substr(0,4)=='edge') {
      edges[i].setAttribute('class','edge');
    }
  }
}
]]></script>
        <defs>
                <circle id="rim" cx="0" cy="0" r="7"/>
                <circle id="rim2" cx="0" cy="0" r="3.5"/>
                <g id="zoomPlus">
                        <use xlink:href="#rim" fill="#404040">
                                <set attributeName="fill" to="#808080" begin="zoomplus.mouseover" end="zoomplus.mouseout"/>
                        </use>
                        <path d="M-4,0h8M0,-4v8" fill="none" stroke="white" stroke-width="1.5" pointer-events="none"/>
                </g>
                <g id="zoomMin">
                        <use xlink:href="#rim" fill="#404040">
                                <set attributeName="fill" to="#808080" begin="zoomminus.mouseover" end="zoomminus.mouseout"/>
                        </use>
                        <path d="M-4,0h8" fill="none" stroke="white" stroke-width="1.5" pointer-events="none"/>
                </g>
                <g id="dirArrow">
                        <path fill="none" stroke="white" stroke-width="1.5" d="M0,-3.0v7 M-2.5,-0.5L0,-3.0L2.5,-0.5"/>
                </g>
               <g id="resetDef">
                       <use xlink:href="#rim2" fill="#404040">
                               <set attributeName="fill" to="#808080" begin="reset.mouseover" end="reset.mouseout"/>
                       </use>
               </g>
        </defs>

<script type="text/javascript">
var viewWidth = 775;
var viewHeight = 462;
var sectionId = 'dynsection-0';
</script>
<script xlink:href="../../svgpan.js"/>
<svg id="graph" class="graph">
<g id="viewport">
<title>music_t</title>
<!-- Node1 -->
<g id="node1" class="node">
<title>Node1</title>
<g id="a_node1"><a xlink:title=" ">
<polygon fill="#bfbfbf" stroke="black" points="243.5,-0.5 243.5,-19.5 298.5,-19.5 298.5,-0.5 243.5,-0.5"/>
<text text-anchor="middle" x="271" y="-7.5" font-family="Helvetica,sans-Serif" font-size="10.00">music_t</text>
</a>
</g>
</g>
<!-- Node2 -->
<g id="node2" class="node">
<title>Node2</title>
<g id="a_node2"><a xlink:href="../../d8/da6/structmenubitmap__s.html" target="_top" xlink:title=" ">
<polygon fill="none" stroke="black" points="292.5,-133.5 292.5,-152.5 381.5,-152.5 381.5,-133.5 292.5,-133.5"/>
<text text-anchor="middle" x="337" y="-140.5" font-family="Helvetica,sans-Serif" font-size="10.00">menubitmap_s</text>
</a>
</g>
</g>
<!-- Node2&#45;&gt;Node1 -->
<g id="edge1" class="edge">
<title>Node2&#45;&gt;Node1</title>
<path fill="none" stroke="#9a32cd" stroke-dasharray="5,2" d="M328.05,-124.23C313.72,-95.79 286.17,-41.1 275.43,-19.8"/>
<polygon fill="#9a32cd" stroke="#9a32cd" points="325.04,-126.05 332.67,-133.4 331.3,-122.9 325.04,-126.05"/>
<text text-anchor="middle" x="341.5" y="-107" font-family="Helvetica,sans-Serif" font-size="10.00"> framer</text>
<text text-anchor="middle" x="341.5" y="-96" font-family="Helvetica,sans-Serif" font-size="10.00">right</text>
<text text-anchor="middle" x="341.5" y="-85" font-family="Helvetica,sans-Serif" font-size="10.00">back</text>
<text text-anchor="middle" x="341.5" y="-74" font-family="Helvetica,sans-Serif" font-size="10.00">left</text>
<text text-anchor="middle" x="341.5" y="-63" font-family="Helvetica,sans-Serif" font-size="10.00">go</text>
<text text-anchor="middle" x="341.5" y="-52" font-family="Helvetica,sans-Serif" font-size="10.00">arrows</text>
<text text-anchor="middle" x="341.5" y="-41" font-family="Helvetica,sans-Serif" font-size="10.00">framel</text>
</g>
<!-- Node3 -->
<g id="node3" class="node">
<title>Node3</title>
<g id="a_node3"><a xlink:href="../../d5/d57/structmenucommon__s.html" target="_top" xlink:title=" ">
<polygon fill="none" stroke="black" points="389,-245.5 389,-264.5 487,-264.5 487,-245.5 389,-245.5"/>
<text text-anchor="middle" x="438" y="-252.5" font-family="Helvetica,sans-Serif" font-size="10.00">menucommon_s</text>
</a>
</g>
</g>
<!-- Node3&#45;&gt;Node2 -->
<g id="edge2" class="edge">
<title>Node3&#45;&gt;Node2</title>
<path fill="none" stroke="#9a32cd" stroke-dasharray="5,2" d="M423.21,-237.9C401.5,-214.25 361.74,-170.95 344.89,-152.59"/>
<polygon fill="#9a32cd" stroke="#9a32cd" points="420.73,-240.37 430.07,-245.37 425.89,-235.64 420.73,-240.37"/>
<text text-anchor="middle" x="402" y="-179.5" font-family="Helvetica,sans-Serif" font-size="10.00"> generic</text>
</g>
<!-- Node10 -->
<g id="node10" class="node">
<title>Node10</title>
<g id="a_node10"><a xlink:href="../../d0/de7/structmenutext__s.html" target="_top" xlink:title=" ">
<polygon fill="none" stroke="black" points="168,-133.5 168,-152.5 242,-152.5 242,-133.5 168,-133.5"/>
<text text-anchor="middle" x="205" y="-140.5" font-family="Helvetica,sans-Serif" font-size="10.00">menutext_s</text>
</a>
</g>
</g>
<!-- Node3&#45;&gt;Node10 -->
<g id="edge14" class="edge">
<title>Node3&#45;&gt;Node10</title>
<path fill="none" stroke="#9a32cd" stroke-dasharray="5,2" d="M420.81,-238.77C408.83,-229.08 392.01,-217.23 375,-211 338.71,-197.7 227.88,-221.71 202,-193 192.19,-182.11 196.91,-163.73 201.07,-152.85"/>
<polygon fill="#9a32cd" stroke="#9a32cd" points="418.7,-241.57 428.6,-245.32 423.2,-236.21 418.7,-241.57"/>
<text text-anchor="middle" x="222" y="-179.5" font-family="Helvetica,sans-Serif" font-size="10.00"> generic</text>
</g>
<!-- Node11 -->
<g id="node11" class="node">
<title>Node11</title>
<g id="a_node11"><a xlink:href="../../d8/d3f/structmenulist__s.html" target="_top" xlink:title=" ">
<polygon fill="none" stroke="black" points="499,-133.5 499,-152.5 569,-152.5 569,-133.5 499,-133.5"/>
<text text-anchor="middle" x="534" y="-140.5" font-family="Helvetica,sans-Serif" font-size="10.00">menulist_s</text>
</a>
</g>
</g>
<!-- Node3&#45;&gt;Node11 -->
<g id="edge20" class="edge">
<title>Node3&#45;&gt;Node11</title>
<path fill="none" stroke="#9a32cd" stroke-dasharray="5,2" d="M459.05,-239.42C471.24,-231.03 486.92,-220.33 501,-211 513.33,-202.83 521.26,-205.61 529,-193 536.61,-180.61 536.31,-163.07 535.26,-152.68"/>
<polygon fill="#9a32cd" stroke="#9a32cd" points="456.73,-236.77 450.48,-245.33 460.7,-242.53 456.73,-236.77"/>
<text text-anchor="middle" x="556" y="-179.5" font-family="Helvetica,sans-Serif" font-size="10.00"> generic</text>
</g>
<!-- Node4 -->
<g id="node4" class="node">
<title>Node4</title>
<g id="a_node4"><a xlink:title=" ">
<polygon fill="none" stroke="#bfbfbf" points="359,-434.5 359,-453.5 397,-453.5 397,-434.5 359,-434.5"/>
<text text-anchor="middle" x="378" y="-441.5" font-family="Helvetica,sans-Serif" font-size="10.00">void</text>
</a>
</g>
</g>
<!-- Node4&#45;&gt;Node3 -->
<g id="edge3" class="edge">
<title>Node4&#45;&gt;Node3</title>
<path fill="none" stroke="#9a32cd" stroke-dasharray="5,2" d="M375.14,-424.25C372.09,-398.89 369.48,-352.71 384,-317 392.95,-294.99 413.41,-275.6 426.42,-264.87"/>
<polygon fill="#9a32cd" stroke="#9a32cd" points="371.7,-424.89 376.51,-434.33 378.63,-423.95 371.7,-424.89"/>
<text text-anchor="middle" x="413" y="-375" font-family="Helvetica,sans-Serif" font-size="10.00"> ownerdraw</text>
<text text-anchor="middle" x="413" y="-364" font-family="Helvetica,sans-Serif" font-size="10.00">callback</text>
<text text-anchor="middle" x="413" y="-353" font-family="Helvetica,sans-Serif" font-size="10.00">statusbar</text>
</g>
<!-- Node5 -->
<g id="node5" class="node">
<title>Node5</title>
<g id="a_node5"><a xlink:title=" ">
<polygon fill="none" stroke="#bfbfbf" points="0,-434.5 0,-453.5 108,-453.5 108,-434.5 0,-434.5"/>
<text text-anchor="middle" x="54" y="-441.5" font-family="Helvetica,sans-Serif" font-size="10.00">menuframework_s</text>
</a>
</g>
</g>
<!-- Node5&#45;&gt;Node1 -->
<g id="edge12" class="edge">
<title>Node5&#45;&gt;Node1</title>
<path fill="none" stroke="#9a32cd" stroke-dasharray="5,2" d="M48.53,-424.73C36.12,-380.45 8.68,-264.21 32,-171 48.26,-106 48.46,-76.93 103,-38 125,-22.3 201.4,-15.25 243.18,-12.5"/>
<polygon fill="#9a32cd" stroke="#9a32cd" points="45.18,-425.74 51.32,-434.37 51.9,-423.8 45.18,-425.74"/>
<text text-anchor="middle" x="47.5" y="-179.5" font-family="Helvetica,sans-Serif" font-size="10.00"> menu</text>
</g>
<!-- Node5&#45;&gt;Node3 -->
<g id="edge4" class="edge">
<title>Node5&#45;&gt;Node3</title>
<path fill="none" stroke="#9a32cd" stroke-dasharray="5,2" d="M72.98,-428.06C108.21,-401.16 187.08,-344.8 263,-317 310.34,-299.67 328.16,-317.66 375,-299 395.67,-290.77 416.34,-274.82 428.11,-264.83"/>
<polygon fill="#9a32cd" stroke="#9a32cd" points="70.76,-425.35 64.99,-434.23 75.04,-430.89 70.76,-425.35"/>
<text text-anchor="middle" x="280.5" y="-364" font-family="Helvetica,sans-Serif" font-size="10.00"> parent</text>
</g>
<!-- Node6 -->
<g id="node6" class="node">
<title>Node6</title>
<g id="a_node6"><a xlink:title=" ">
<polygon fill="none" stroke="#bfbfbf" points="189,-434.5 189,-453.5 227,-453.5 227,-434.5 189,-434.5"/>
<text text-anchor="middle" x="208" y="-441.5" font-family="Helvetica,sans-Serif" font-size="10.00">char</text>
</a>
</g>
</g>
<!-- Node6&#45;&gt;Node1 -->
<g id="edge11" class="edge">
<title>Node6&#45;&gt;Node1</title>
<path fill="none" stroke="#9a32cd" stroke-dasharray="5,2" d="M178.6,-440.83C160.37,-437.93 137.87,-431.25 124,-416 49.28,-333.85 32.31,-273.51 75,-171 107.26,-93.54 139.57,-85.11 209,-38 220.27,-30.35 234.06,-24.09 245.76,-19.53"/>
<polygon fill="#9a32cd" stroke="#9a32cd" points="178.37,-444.33 188.74,-442.14 179.27,-437.39 178.37,-444.33"/>
<text text-anchor="middle" x="99" y="-185" font-family="Helvetica,sans-Serif" font-size="10.00"> musiclist</text>
<text text-anchor="middle" x="99" y="-174" font-family="Helvetica,sans-Serif" font-size="10.00">names</text>
</g>
<!-- Node6&#45;&gt;Node2 -->
<g id="edge9" class="edge">
<title>Node6&#45;&gt;Node2</title>
<path fill="none" stroke="#9a32cd" stroke-dasharray="5,2" d="M208.61,-424.28C210.64,-374.53 218.85,-240.82 249,-211 273.06,-187.2 298.6,-216.45 323,-193 334.1,-182.33 336.58,-163.53 337.03,-152.58"/>
<polygon fill="#9a32cd" stroke="#9a32cd" points="205.12,-424.16 208.24,-434.29 212.11,-424.42 205.12,-424.16"/>
<text text-anchor="middle" x="269.5" y="-258" font-family="Helvetica,sans-Serif" font-size="10.00"> errorpic</text>
<text text-anchor="middle" x="269.5" y="-247" font-family="Helvetica,sans-Serif" font-size="10.00">focuspic</text>
</g>
<!-- Node6&#45;&gt;Node3 -->
<g id="edge5" class="edge">
<title>Node6&#45;&gt;Node3</title>
<path fill="none" stroke="#9a32cd" stroke-dasharray="5,2" d="M237.11,-441.46C257.62,-438.9 284.45,-432.38 302,-416 336.23,-384.06 306.66,-351.78 338,-317 350.24,-303.41 359.18,-308.18 375,-299 393.55,-288.23 413.85,-273.87 426.26,-264.78"/>
<polygon fill="#9a32cd" stroke="#9a32cd" points="236.65,-437.99 227.04,-442.47 237.34,-444.95 236.65,-437.99"/>
<text text-anchor="middle" x="353.5" y="-364" font-family="Helvetica,sans-Serif" font-size="10.00"> name</text>
</g>
<!-- Node6&#45;&gt;Node10 -->
<g id="edge16" class="edge">
<title>Node6&#45;&gt;Node10</title>
<path fill="none" stroke="#9a32cd" stroke-dasharray="5,2" d="M193.83,-426.52C173.05,-401.16 135.24,-350.09 121,-299 105.44,-243.16 102.45,-209.25 146,-171 155.14,-162.97 167.07,-156.91 177.81,-152.59"/>
<polygon fill="#9a32cd" stroke="#9a32cd" points="191.3,-428.96 200.4,-434.38 196.67,-424.47 191.3,-428.96"/>
<text text-anchor="middle" x="136.5" y="-252.5" font-family="Helvetica,sans-Serif" font-size="10.00"> string</text>
</g>
<!-- Node6&#45;&gt;Node11 -->
<g id="edge21" class="edge">
<title>Node6&#45;&gt;Node11</title>
<path fill="none" stroke="#9a32cd" stroke-dasharray="5,2" d="M237.02,-438.26C251.03,-434.51 266.94,-427.83 277,-416 337.36,-345.01 253.75,-275.51 321,-211 355.17,-178.22 380.74,-206.9 426,-193 460.25,-182.49 497.83,-163.63 518.4,-152.63"/>
<polygon fill="#9a32cd" stroke="#9a32cd" points="236.22,-434.85 227.26,-440.51 237.8,-441.67 236.22,-434.85"/>
<text text-anchor="middle" x="350.5" y="-252.5" font-family="Helvetica,sans-Serif" font-size="10.00"> itemnames</text>
</g>
<!-- Node7 -->
<g id="node7" class="node">
<title>Node7</title>
<g id="a_node7"><a xlink:title=" ">
<polygon fill="none" stroke="#bfbfbf" points="601.5,-434.5 601.5,-453.5 630.5,-453.5 630.5,-434.5 601.5,-434.5"/>
<text text-anchor="middle" x="616" y="-441.5" font-family="Helvetica,sans-Serif" font-size="10.00">int</text>
</a>
</g>
</g>
<!-- Node7&#45;&gt;Node1 -->
<g id="edge18" class="edge">
<title>Node7&#45;&gt;Node1</title>
<path fill="none" stroke="#9a32cd" stroke-dasharray="5,2" d="M639.8,-431.93C647.21,-427.69 655.01,-422.32 661,-416 726.5,-346.93 763.11,-297.33 723,-211 672.77,-102.88 627.58,-84.96 518,-38 479.04,-21.3 354.37,-14.33 298.51,-11.99"/>
<polygon fill="#9a32cd" stroke="#9a32cd" points="637.98,-428.93 630.77,-436.69 641.25,-435.12 637.98,-428.93"/>
<text text-anchor="middle" x="740" y="-179.5" font-family="Helvetica,sans-Serif" font-size="10.00"> numMusic</text>
</g>
<!-- Node7&#45;&gt;Node2 -->
<g id="edge10" class="edge">
<title>Node7&#45;&gt;Node2</title>
<path fill="none" stroke="#9a32cd" stroke-dasharray="5,2" d="M617.2,-424.23C618.11,-398.85 617.18,-352.65 602,-317 597.92,-307.42 592.19,-308.03 587,-299 566.26,-262.92 585.13,-239.71 555,-211 529.85,-187.03 436.73,-164.44 380.65,-152.6"/>
<polygon fill="#9a32cd" stroke="#9a32cd" points="613.7,-424.16 616.7,-434.32 620.69,-424.51 613.7,-424.16"/>
<text text-anchor="middle" x="617" y="-269" font-family="Helvetica,sans-Serif" font-size="10.00"> width</text>
<text text-anchor="middle" x="617" y="-258" font-family="Helvetica,sans-Serif" font-size="10.00">shader</text>
<text text-anchor="middle" x="617" y="-247" font-family="Helvetica,sans-Serif" font-size="10.00">height</text>
<text text-anchor="middle" x="617" y="-236" font-family="Helvetica,sans-Serif" font-size="10.00">focusshader</text>
</g>
<!-- Node7&#45;&gt;Node3 -->
<g id="edge6" class="edge">
<title>Node7&#45;&gt;Node3</title>
<path fill="none" stroke="#9a32cd" stroke-dasharray="5,2" d="M591.23,-443.61C567.15,-442.8 531.2,-437.65 510,-416 478.4,-383.72 506.75,-357.63 487,-317 476.78,-295.99 458.18,-275.67 447.07,-264.61"/>
<polygon fill="#9a32cd" stroke="#9a32cd" points="591.33,-447.11 601.36,-443.72 591.4,-440.11 591.33,-447.11"/>
<text text-anchor="middle" x="543.5" y="-408" font-family="Helvetica,sans-Serif" font-size="10.00"> x</text>
<text text-anchor="middle" x="543.5" y="-397" font-family="Helvetica,sans-Serif" font-size="10.00">y</text>
<text text-anchor="middle" x="543.5" y="-386" font-family="Helvetica,sans-Serif" font-size="10.00">menuPosition</text>
<text text-anchor="middle" x="543.5" y="-375" font-family="Helvetica,sans-Serif" font-size="10.00">right</text>
<text text-anchor="middle" x="543.5" y="-364" font-family="Helvetica,sans-Serif" font-size="10.00">left</text>
<text text-anchor="middle" x="543.5" y="-353" font-family="Helvetica,sans-Serif" font-size="10.00">bottom</text>
<text text-anchor="middle" x="543.5" y="-342" font-family="Helvetica,sans-Serif" font-size="10.00">type</text>
<text text-anchor="middle" x="543.5" y="-331" font-family="Helvetica,sans-Serif" font-size="10.00">id</text>
<text text-anchor="middle" x="543.5" y="-320" font-family="Helvetica,sans-Serif" font-size="10.00">top</text>
</g>
<!-- Node7&#45;&gt;Node10 -->
<g id="edge17" class="edge">
<title>Node7&#45;&gt;Node10</title>
<path fill="none" stroke="#9a32cd" stroke-dasharray="5,2" d="M608.27,-424.8C607.12,-421.88 605.99,-418.87 605,-416 590.13,-372.76 608.58,-350.07 577,-317 559.53,-298.7 540.67,-317.1 523,-299 494.42,-269.73 525.9,-238.93 496,-211 470.32,-187.01 453.2,-201.09 419,-193 378.09,-183.33 367.97,-180.43 327,-171 298.57,-164.45 266.33,-157.33 242.14,-152.05"/>
<polygon fill="#9a32cd" stroke="#9a32cd" points="605.04,-426.17 612.08,-434.09 611.52,-423.51 605.04,-426.17"/>
<text text-anchor="middle" x="537" y="-252.5" font-family="Helvetica,sans-Serif" font-size="10.00"> style</text>
</g>
<!-- Node7&#45;&gt;Node11 -->
<g id="edge22" class="edge">
<title>Node7&#45;&gt;Node11</title>
<path fill="none" stroke="#9a32cd" stroke-dasharray="5,2" d="M625.85,-425.26C647.08,-384.43 692.06,-281.82 651,-211 632.92,-179.81 594.25,-161.9 566.31,-152.58"/>
<polygon fill="#9a32cd" stroke="#9a32cd" points="622.67,-423.79 621.03,-434.26 628.84,-427.1 622.67,-423.79"/>
<text text-anchor="middle" x="693" y="-291" font-family="Helvetica,sans-Serif" font-size="10.00"> width</text>
<text text-anchor="middle" x="693" y="-280" font-family="Helvetica,sans-Serif" font-size="10.00">height</text>
<text text-anchor="middle" x="693" y="-269" font-family="Helvetica,sans-Serif" font-size="10.00">oldvalue</text>
<text text-anchor="middle" x="693" y="-258" font-family="Helvetica,sans-Serif" font-size="10.00">numitems</text>
<text text-anchor="middle" x="693" y="-247" font-family="Helvetica,sans-Serif" font-size="10.00">seperation</text>
<text text-anchor="middle" x="693" y="-236" font-family="Helvetica,sans-Serif" font-size="10.00">top</text>
<text text-anchor="middle" x="693" y="-225" font-family="Helvetica,sans-Serif" font-size="10.00">columns</text>
<text text-anchor="middle" x="693" y="-214" font-family="Helvetica,sans-Serif" font-size="10.00">curvalue</text>
</g>
<!-- Node8 -->
<g id="node8" class="node">
<title>Node8</title>
<g id="a_node8"><a xlink:title=" ">
<polygon fill="none" stroke="#bfbfbf" points="428.5,-434.5 428.5,-453.5 489.5,-453.5 489.5,-434.5 428.5,-434.5"/>
<text text-anchor="middle" x="459" y="-441.5" font-family="Helvetica,sans-Serif" font-size="10.00">unsigned</text>
</a>
</g>
</g>
<!-- Node8&#45;&gt;Node3 -->
<g id="edge7" class="edge">
<title>Node8&#45;&gt;Node3</title>
<path fill="none" stroke="#9a32cd" stroke-dasharray="5,2" d="M456.9,-424.34C452.44,-384.62 442.15,-293 438.96,-264.57"/>
<polygon fill="#9a32cd" stroke="#9a32cd" points="453.45,-424.93 458.04,-434.48 460.41,-424.15 453.45,-424.93"/>
<text text-anchor="middle" x="469.5" y="-364" font-family="Helvetica,sans-Serif" font-size="10.00"> flags</text>
</g>
<!-- Node9 -->
<g id="node9" class="node">
<title>Node9</title>
<g id="a_node9"><a xlink:href="../../d4/dc3/classfloat.html" target="_top" xlink:title=" ">
<polygon fill="none" stroke="black" points="161,-245.5 161,-264.5 199,-264.5 199,-245.5 161,-245.5"/>
<text text-anchor="middle" x="180" y="-252.5" font-family="Helvetica,sans-Serif" font-size="10.00">float</text>
</a>
</g>
</g>
<!-- Node9&#45;&gt;Node2 -->
<g id="edge8" class="edge">
<title>Node9&#45;&gt;Node2</title>
<path fill="none" stroke="#9a32cd" stroke-dasharray="5,2" d="M190.72,-236.8C196.58,-228.32 204.39,-218.37 213,-211 225.69,-200.14 232.51,-202.86 246,-193 257.42,-184.65 257.1,-178.64 269,-171 281.08,-163.25 295.74,-157.08 308.36,-152.61"/>
<polygon fill="#9a32cd" stroke="#9a32cd" points="187.75,-234.94 185.18,-245.22 193.6,-238.79 187.75,-234.94"/>
<text text-anchor="middle" x="296" y="-179.5" font-family="Helvetica,sans-Serif" font-size="10.00"> focuscolor</text>
</g>
<!-- Node9&#45;&gt;Node10 -->
<g id="edge15" class="edge">
<title>Node9&#45;&gt;Node10</title>
<path fill="none" stroke="#9a32cd" stroke-dasharray="5,2" d="M167.13,-236.84C155.7,-219.33 142.58,-191.83 155,-171 160,-162.61 168.61,-156.67 177.29,-152.55"/>
<polygon fill="#9a32cd" stroke="#9a32cd" points="164.54,-239.24 173.14,-245.44 170.28,-235.24 164.54,-239.24"/>
<text text-anchor="middle" x="169" y="-179.5" font-family="Helvetica,sans-Serif" font-size="10.00"> color</text>
</g>
<!-- Node10&#45;&gt;Node1 -->
<g id="edge13" class="edge">
<title>Node10&#45;&gt;Node1</title>
<path fill="none" stroke="#9a32cd" stroke-dasharray="5,2" d="M209.68,-123.54C215.69,-101.9 227.49,-65.52 245,-38 249.33,-31.19 255.57,-24.65 260.85,-19.7"/>
<polygon fill="#9a32cd" stroke="#9a32cd" points="206.25,-122.82 207.06,-133.38 213.01,-124.61 206.25,-122.82"/>
<text text-anchor="middle" x="263.5" y="-74" font-family="Helvetica,sans-Serif" font-size="10.00"> banner</text>
</g>
<!-- Node11&#45;&gt;Node1 -->
<g id="edge19" class="edge">
<title>Node11&#45;&gt;Node1</title>
<path fill="none" stroke="#9a32cd" stroke-dasharray="5,2" d="M514.05,-127.34C483.25,-105.28 421.61,-63.44 364,-38 342.78,-28.63 317.41,-21.51 298.53,-16.95"/>
<polygon fill="#9a32cd" stroke="#9a32cd" points="512.09,-130.24 522.24,-133.26 516.19,-124.57 512.09,-130.24"/>
<text text-anchor="middle" x="504.5" y="-74" font-family="Helvetica,sans-Serif" font-size="10.00"> list</text>
</g>
</g>
</svg>
        <g id="navigator" transform="translate(0 0)" fill="#404254">
                <rect fill="#f2f5e9" fill-opacity="0.5" stroke="#606060" stroke-width=".5" x="0" y="0" width="60" height="60"/>
                <use id="zoomplus" xlink:href="#zoomPlus" x="17" y="9" onmousedown="handleZoom(evt,'in')"/>
                <use id="zoomminus" xlink:href="#zoomMin" x="42" y="9" onmousedown="handleZoom(evt,'out')"/>
                <use id="reset" xlink:href="#resetDef" x="30" y="36" onmousedown="handleReset()"/>
                <g id="arrowUp" xlink:href="#dirArrow" transform="translate(30 24)" onmousedown="handlePan(0,-1)">
                  <use xlink:href="#rim" fill="#404040">
                        <set attributeName="fill" to="#808080" begin="arrowUp.mouseover" end="arrowUp.mouseout"/>
                  </use>
                  <path fill="none" stroke="white" stroke-width="1.5" d="M0,-3.0v7 M-2.5,-0.5L0,-3.0L2.5,-0.5"/>
                </g>
                <g id="arrowRight" xlink:href="#dirArrow" transform="rotate(90) translate(36 -43)" onmousedown="handlePan(1,0)">
                  <use xlink:href="#rim" fill="#404040">
                        <set attributeName="fill" to="#808080" begin="arrowRight.mouseover" end="arrowRight.mouseout"/>
                  </use>
                  <path fill="none" stroke="white" stroke-width="1.5" d="M0,-3.0v7 M-2.5,-0.5L0,-3.0L2.5,-0.5"/>
                </g>
                <g id="arrowDown" xlink:href="#dirArrow" transform="rotate(180) translate(-30 -48)" onmousedown="handlePan(0,1)">
                  <use xlink:href="#rim" fill="#404040">
                        <set attributeName="fill" to="#808080" begin="arrowDown.mouseover" end="arrowDown.mouseout"/>
                  </use>
                  <path fill="none" stroke="white" stroke-width="1.5" d="M0,-3.0v7 M-2.5,-0.5L0,-3.0L2.5,-0.5"/>
                </g>
                <g id="arrowLeft" xlink:href="#dirArrow" transform="rotate(270) translate(-36 17)" onmousedown="handlePan(-1,0)">
                  <use xlink:href="#rim" fill="#404040">
                        <set attributeName="fill" to="#808080" begin="arrowLeft.mouseover" end="arrowLeft.mouseout"/>
                  </use>
                  <path fill="none" stroke="white" stroke-width="1.5" d="M0,-3.0v7 M-2.5,-0.5L0,-3.0L2.5,-0.5"/>
                </g>
        </g>
        <svg viewBox="0 0 15 15" width="100%" height="30px" preserveAspectRatio="xMaxYMin meet">
         <g id="arrow_out" transform="scale(0.3 0.3)">
          <a xlink:href="structmusic__t__coll__graph_org.svg" target="_base">
           <rect id="button" ry="5" rx="5" y="6" x="6" height="38" width="38"
                fill="#f2f5e9" fill-opacity="0.5" stroke="#606060" stroke-width="1.0"/>
           <path id="arrow"
             d="M 11.500037,31.436501 C 11.940474,20.09759 22.043105,11.32322 32.158766,21.979434 L 37.068811,17.246167 C 37.068811,17.246167 37.088388,32 37.088388,32 L 22.160133,31.978069 C 22.160133,31.978069 26.997745,27.140456 26.997745,27.140456 C 18.528582,18.264221 13.291696,25.230495 11.500037,31.436501 z"
             style="fill:#404040;"/>
          </a>
         </g>
        </svg>
</svg>
