<?xml version="1.0" encoding="UTF-8" standalone="no"?>
<!DOCTYPE svg PUBLIC "-//W3C//DTD SVG 1.1//EN"
 "http://www.w3.org/Graphics/SVG/1.1/DTD/svg11.dtd">
<!-- Generated by graphviz version 2.43.0 (0)
 -->
<!-- Title: clientSession_t Pages: 1 -->
<svg width="401pt" height="128pt"
 viewBox="0.00 0.00 400.50 128.00" xmlns="http://www.w3.org/2000/svg" xmlns:xlink="http://www.w3.org/1999/xlink">
<g id="graph0" class="graph" transform="scale(1 1) rotate(0) translate(4 124)">
<title>clientSession_t</title>
<!-- Node1 -->
<g id="node1" class="node">
<title>Node1</title>
<g id="a_node1"><a xlink:title=" ">
<polygon fill="#bfbfbf" stroke="black" points="146.5,-0.5 146.5,-19.5 236.5,-19.5 236.5,-0.5 146.5,-0.5"/>
<text text-anchor="middle" x="191.5" y="-7.5" font-family="Helvetica,sans-Serif" font-size="10.00">clientSession_t</text>
</a>
</g>
</g>
<!-- Node2 -->
<g id="node2" class="node">
<title>Node2</title>
<g id="a_node2"><a xlink:title=" ">
<polygon fill="none" stroke="#bfbfbf" points="0,-100.5 0,-119.5 97,-119.5 97,-100.5 0,-100.5"/>
<text text-anchor="middle" x="48.5" y="-107.5" font-family="Helvetica,sans-Serif" font-size="10.00">spectatorState_t</text>
</a>
</g>
</g>
<!-- Node2&#45;&gt;Node1 -->
<g id="edge1" class="edge">
<title>Node2&#45;&gt;Node1</title>
<path fill="none" stroke="#9a32cd" stroke-dasharray="5,2" d="M46.29,-89.91C45.57,-73.93 47.37,-51.61 60.5,-38 72.27,-25.8 113.22,-18.73 146.24,-14.91"/>
<polygon fill="#9a32cd" stroke="#9a32cd" points="42.83,-90.53 47.14,-100.21 49.81,-89.96 42.83,-90.53"/>
<text text-anchor="middle" x="98" y="-57.5" font-family="Helvetica,sans-Serif" font-size="10.00"> spectatorState</text>
</g>
<!-- Node3 -->
<g id="node3" class="node">
<title>Node3</title>
<g id="a_node3"><a xlink:title=" ">
<polygon fill="none" stroke="#bfbfbf" points="121,-100.5 121,-119.5 172,-119.5 172,-100.5 121,-100.5"/>
<text text-anchor="middle" x="146.5" y="-107.5" font-family="Helvetica,sans-Serif" font-size="10.00">team_t</text>
</a>
</g>
</g>
<!-- Node3&#45;&gt;Node1 -->
<g id="edge2" class="edge">
<title>Node3&#45;&gt;Node1</title>
<path fill="none" stroke="#9a32cd" stroke-dasharray="5,2" d="M142.08,-90.29C139.56,-75.17 138.46,-53.88 147.5,-38 152.11,-29.9 160.24,-23.92 168.26,-19.68"/>
<polygon fill="#9a32cd" stroke="#9a32cd" points="138.72,-91.34 144.14,-100.45 145.58,-89.95 138.72,-91.34"/>
<text text-anchor="middle" x="181" y="-57.5" font-family="Helvetica,sans-Serif" font-size="10.00"> sessionTeam</text>
</g>
<!-- Node4 -->
<g id="node4" class="node">
<title>Node4</title>
<g id="a_node4"><a xlink:title=" ">
<polygon fill="none" stroke="#bfbfbf" points="222,-100.5 222,-119.5 251,-119.5 251,-100.5 222,-100.5"/>
<text text-anchor="middle" x="236.5" y="-107.5" font-family="Helvetica,sans-Serif" font-size="10.00">int</text>
</a>
</g>
</g>
<!-- Node4&#45;&gt;Node1 -->
<g id="edge3" class="edge">
<title>Node4&#45;&gt;Node1</title>
<path fill="none" stroke="#9a32cd" stroke-dasharray="5,2" d="M232.88,-90.27C229.51,-75.46 223.62,-54.58 214.5,-38 210.82,-31.31 205.31,-24.77 200.6,-19.8"/>
<polygon fill="#9a32cd" stroke="#9a32cd" points="229.49,-91.18 234.97,-100.25 236.34,-89.74 229.49,-91.18"/>
<text text-anchor="middle" x="268" y="-74" font-family="Helvetica,sans-Serif" font-size="10.00"> losses</text>
<text text-anchor="middle" x="268" y="-63" font-family="Helvetica,sans-Serif" font-size="10.00">wins</text>
<text text-anchor="middle" x="268" y="-52" font-family="Helvetica,sans-Serif" font-size="10.00">spectatorClient</text>
<text text-anchor="middle" x="268" y="-41" font-family="Helvetica,sans-Serif" font-size="10.00">spectatorNum</text>
</g>
<!-- Node5 -->
<g id="node5" class="node">
<title>Node5</title>
<g id="a_node5"><a xlink:title=" ">
<polygon fill="none" stroke="#bfbfbf" points="303.5,-100.5 303.5,-119.5 365.5,-119.5 365.5,-100.5 303.5,-100.5"/>
<text text-anchor="middle" x="334.5" y="-107.5" font-family="Helvetica,sans-Serif" font-size="10.00">qboolean</text>
</a>
</g>
</g>
<!-- Node5&#45;&gt;Node1 -->
<g id="edge4" class="edge">
<title>Node5&#45;&gt;Node1</title>
<path fill="none" stroke="#9a32cd" stroke-dasharray="5,2" d="M332.85,-90.15C330.41,-74 324.39,-51.29 309.5,-38 289.74,-20.37 260.85,-13.55 236.6,-11.18"/>
<polygon fill="#9a32cd" stroke="#9a32cd" points="329.37,-90.58 334.03,-100.1 336.33,-89.75 329.37,-90.58"/>
<text text-anchor="middle" x="361.5" y="-57.5" font-family="Helvetica,sans-Serif" font-size="10.00"> teamLeader</text>
</g>
</g>
</svg>
