<?xml version="1.0" encoding="UTF-8" standalone="no"?>
<!DOCTYPE svg PUBLIC "-//W3C//DTD SVG 1.1//EN"
 "http://www.w3.org/Graphics/SVG/1.1/DTD/svg11.dtd">
<!-- Generated by graphviz version 2.43.0 (0)
 -->
<!-- Title: serverInfo_t Pages: 1 -->
<svg width="377pt" height="283pt"
 viewBox="0.00 0.00 376.50 283.00" xmlns="http://www.w3.org/2000/svg" xmlns:xlink="http://www.w3.org/1999/xlink">
<g id="graph0" class="graph" transform="scale(1 1) rotate(0) translate(4 279)">
<title>serverInfo_t</title>
<!-- Node1 -->
<g id="node1" class="node">
<title>Node1</title>
<g id="a_node1"><a xlink:title=" ">
<polygon fill="#bfbfbf" stroke="black" points="149,-0.5 149,-19.5 224,-19.5 224,-0.5 149,-0.5"/>
<text text-anchor="middle" x="186.5" y="-7.5" font-family="Helvetica,sans-Serif" font-size="10.00">serverInfo_t</text>
</a>
</g>
</g>
<!-- Node2 -->
<g id="node2" class="node">
<title>Node2</title>
<g id="a_node2"><a xlink:href="../../dc/d06/structnetadr__t.html" target="_top" xlink:title=" ">
<polygon fill="none" stroke="black" points="55,-155.5 55,-174.5 112,-174.5 112,-155.5 55,-155.5"/>
<text text-anchor="middle" x="83.5" y="-162.5" font-family="Helvetica,sans-Serif" font-size="10.00">netadr_t</text>
</a>
</g>
</g>
<!-- Node2&#45;&gt;Node1 -->
<g id="edge1" class="edge">
<title>Node2&#45;&gt;Node1</title>
<path fill="none" stroke="#9a32cd" stroke-dasharray="5,2" d="M83.32,-145.41C84.06,-118.45 89.34,-68.39 116.5,-38 124.92,-28.58 137.01,-22.42 148.78,-18.41"/>
<polygon fill="#9a32cd" stroke="#9a32cd" points="79.82,-145.4 83.23,-155.43 86.82,-145.46 79.82,-145.4"/>
<text text-anchor="middle" x="126" y="-85" font-family="Helvetica,sans-Serif" font-size="10.00"> adr</text>
</g>
<!-- Node3 -->
<g id="node3" class="node">
<title>Node3</title>
<g id="a_node3"><a xlink:title=" ">
<polygon fill="none" stroke="#bfbfbf" points="0,-255.5 0,-274.5 79,-274.5 79,-255.5 0,-255.5"/>
<text text-anchor="middle" x="39.5" y="-262.5" font-family="Helvetica,sans-Serif" font-size="10.00">netadrtype_t</text>
</a>
</g>
</g>
<!-- Node3&#45;&gt;Node2 -->
<g id="edge2" class="edge">
<title>Node3&#45;&gt;Node2</title>
<path fill="none" stroke="#9a32cd" stroke-dasharray="5,2" d="M47.54,-246.1C57.06,-224.89 72.53,-190.44 79.67,-174.54"/>
<polygon fill="#9a32cd" stroke="#9a32cd" points="44.31,-244.75 43.4,-255.3 50.69,-247.61 44.31,-244.75"/>
<text text-anchor="middle" x="83" y="-212.5" font-family="Helvetica,sans-Serif" font-size="10.00"> type</text>
</g>
<!-- Node4 -->
<g id="node4" class="node">
<title>Node4</title>
<g id="a_node4"><a xlink:title=" ">
<polygon fill="none" stroke="#bfbfbf" points="97,-255.5 97,-274.5 158,-274.5 158,-255.5 97,-255.5"/>
<text text-anchor="middle" x="127.5" y="-262.5" font-family="Helvetica,sans-Serif" font-size="10.00">unsigned</text>
</a>
</g>
</g>
<!-- Node4&#45;&gt;Node2 -->
<g id="edge3" class="edge">
<title>Node4&#45;&gt;Node2</title>
<path fill="none" stroke="#9a32cd" stroke-dasharray="5,2" d="M121.04,-245.27C115.81,-230.75 107.95,-210.26 99.5,-193 96.43,-186.74 92.43,-179.99 89.2,-174.8"/>
<polygon fill="#9a32cd" stroke="#9a32cd" points="117.87,-246.79 124.49,-255.06 124.47,-244.47 117.87,-246.79"/>
<text text-anchor="middle" x="140" y="-229" font-family="Helvetica,sans-Serif" font-size="10.00"> port</text>
<text text-anchor="middle" x="140" y="-218" font-family="Helvetica,sans-Serif" font-size="10.00">ip</text>
<text text-anchor="middle" x="140" y="-207" font-family="Helvetica,sans-Serif" font-size="10.00">ip6</text>
<text text-anchor="middle" x="140" y="-196" font-family="Helvetica,sans-Serif" font-size="10.00">scope_id</text>
</g>
<!-- Node5 -->
<g id="node5" class="node">
<title>Node5</title>
<g id="a_node5"><a xlink:title=" ">
<polygon fill="none" stroke="#bfbfbf" points="130.5,-155.5 130.5,-174.5 168.5,-174.5 168.5,-155.5 130.5,-155.5"/>
<text text-anchor="middle" x="149.5" y="-162.5" font-family="Helvetica,sans-Serif" font-size="10.00">char</text>
</a>
</g>
</g>
<!-- Node5&#45;&gt;Node1 -->
<g id="edge4" class="edge">
<title>Node5&#45;&gt;Node1</title>
<path fill="none" stroke="#9a32cd" stroke-dasharray="5,2" d="M144.81,-145.59C139.3,-119.94 132.98,-72.7 150.5,-38 154.44,-30.19 161.83,-24.05 168.89,-19.6"/>
<polygon fill="#9a32cd" stroke="#9a32cd" points="141.43,-146.51 147.12,-155.45 148.24,-144.91 141.43,-146.51"/>
<text text-anchor="middle" x="176.5" y="-96" font-family="Helvetica,sans-Serif" font-size="10.00"> game</text>
<text text-anchor="middle" x="176.5" y="-85" font-family="Helvetica,sans-Serif" font-size="10.00">mapName</text>
<text text-anchor="middle" x="176.5" y="-74" font-family="Helvetica,sans-Serif" font-size="10.00">hostName</text>
</g>
<!-- Node6 -->
<g id="node6" class="node">
<title>Node6</title>
<g id="a_node6"><a xlink:title=" ">
<polygon fill="none" stroke="#bfbfbf" points="210,-155.5 210,-174.5 239,-174.5 239,-155.5 210,-155.5"/>
<text text-anchor="middle" x="224.5" y="-162.5" font-family="Helvetica,sans-Serif" font-size="10.00">int</text>
</a>
</g>
</g>
<!-- Node6&#45;&gt;Node1 -->
<g id="edge5" class="edge">
<title>Node6&#45;&gt;Node1</title>
<path fill="none" stroke="#9a32cd" stroke-dasharray="5,2" d="M223.34,-145.19C221.32,-120.08 215.99,-74.5 202.5,-38 200.08,-31.46 196.08,-24.71 192.69,-19.59"/>
<polygon fill="#9a32cd" stroke="#9a32cd" points="219.87,-145.74 224.07,-155.47 226.85,-145.25 219.87,-145.74"/>
<text text-anchor="middle" x="262.5" y="-129" font-family="Helvetica,sans-Serif" font-size="10.00"> ping</text>
<text text-anchor="middle" x="262.5" y="-118" font-family="Helvetica,sans-Serif" font-size="10.00">gameType</text>
<text text-anchor="middle" x="262.5" y="-107" font-family="Helvetica,sans-Serif" font-size="10.00">minPing</text>
<text text-anchor="middle" x="262.5" y="-96" font-family="Helvetica,sans-Serif" font-size="10.00">g_needpass</text>
<text text-anchor="middle" x="262.5" y="-85" font-family="Helvetica,sans-Serif" font-size="10.00">maxPing</text>
<text text-anchor="middle" x="262.5" y="-74" font-family="Helvetica,sans-Serif" font-size="10.00">clients</text>
<text text-anchor="middle" x="262.5" y="-63" font-family="Helvetica,sans-Serif" font-size="10.00">netType</text>
<text text-anchor="middle" x="262.5" y="-52" font-family="Helvetica,sans-Serif" font-size="10.00">g_humanplayers</text>
<text text-anchor="middle" x="262.5" y="-41" font-family="Helvetica,sans-Serif" font-size="10.00">maxClients</text>
</g>
<!-- Node7 -->
<g id="node7" class="node">
<title>Node7</title>
<g id="a_node7"><a xlink:title=" ">
<polygon fill="none" stroke="#bfbfbf" points="298.5,-155.5 298.5,-174.5 360.5,-174.5 360.5,-155.5 298.5,-155.5"/>
<text text-anchor="middle" x="329.5" y="-162.5" font-family="Helvetica,sans-Serif" font-size="10.00">qboolean</text>
</a>
</g>
</g>
<!-- Node7&#45;&gt;Node1 -->
<g id="edge6" class="edge">
<title>Node7&#45;&gt;Node1</title>
<path fill="none" stroke="#9a32cd" stroke-dasharray="5,2" d="M332.12,-145.04C334.76,-117.6 335.13,-66.96 307.5,-38 296.17,-26.13 255.4,-18.82 224.29,-14.85"/>
<polygon fill="#9a32cd" stroke="#9a32cd" points="328.61,-144.91 330.92,-155.25 335.56,-145.72 328.61,-144.91"/>
<text text-anchor="middle" x="350.5" y="-85" font-family="Helvetica,sans-Serif" font-size="10.00"> visible</text>
</g>
</g>
</svg>
