<?xml version="1.0" encoding="UTF-8" standalone="no"?>
<!DOCTYPE svg PUBLIC "-//W3C//DTD SVG 1.1//EN"
 "http://www.w3.org/Graphics/SVG/1.1/DTD/svg11.dtd">
<!-- Generated by graphviz version 2.43.0 (0)
 -->
<!-- Title: Source/Engine/server/sv_net_chan.c Pages: 1 -->
<svg width="1047pt" height="274pt"
 viewBox="0.00 0.00 1047.00 274.00" xmlns="http://www.w3.org/2000/svg" xmlns:xlink="http://www.w3.org/1999/xlink">
<g id="graph0" class="graph" transform="scale(1 1) rotate(0) translate(4 270)">
<title>Source/Engine/server/sv_net_chan.c</title>
<!-- Node1 -->
<g id="node1" class="node">
<title>Node1</title>
<g id="a_node1"><a xlink:title=" ">
<polygon fill="#bfbfbf" stroke="black" points="509.5,-235.5 509.5,-265.5 628.5,-265.5 628.5,-235.5 509.5,-235.5"/>
<text text-anchor="start" x="517.5" y="-253.5" font-family="Helvetica,sans-Serif" font-size="10.00">Source/Engine/server</text>
<text text-anchor="middle" x="569" y="-242.5" font-family="Helvetica,sans-Serif" font-size="10.00">/sv_net_chan.c</text>
</a>
</g>
</g>
<!-- Node2 -->
<g id="node2" class="node">
<title>Node2</title>
<g id="a_node2"><a xlink:href="../../d3/d14/Source_2Shared_2q__shared_8h.html" target="_top" xlink:title=" ">
<polygon fill="none" stroke="black" points="389.5,-118 389.5,-137 514.5,-137 514.5,-118 389.5,-118"/>
<text text-anchor="middle" x="452" y="-125" font-family="Helvetica,sans-Serif" font-size="10.00">../../Shared/q_shared.h</text>
</a>
</g>
</g>
<!-- Node1&#45;&gt;Node2 -->
<g id="edge1" class="edge">
<title>Node1&#45;&gt;Node2</title>
<path fill="none" stroke="midnightblue" d="M555.12,-235.14C533.14,-212.41 490.45,-168.27 467.5,-144.53"/>
<polygon fill="midnightblue" stroke="midnightblue" points="469.74,-141.81 460.27,-137.05 464.7,-146.67 469.74,-141.81"/>
</g>
<!-- Node15 -->
<g id="node15" class="node">
<title>Node15</title>
<g id="a_node15"><a xlink:href="../../d2/d6c/Source_2Shared_2qcommon_8h.html" target="_top" xlink:title=" ">
<polygon fill="none" stroke="black" points="532.5,-118 532.5,-137 661.5,-137 661.5,-118 532.5,-118"/>
<text text-anchor="middle" x="597" y="-125" font-family="Helvetica,sans-Serif" font-size="10.00">../../Shared/qcommon.h</text>
</a>
</g>
</g>
<!-- Node1&#45;&gt;Node15 -->
<g id="edge14" class="edge">
<title>Node1&#45;&gt;Node15</title>
<path fill="none" stroke="midnightblue" d="M572.32,-235.14C577.4,-213.2 587.09,-171.33 592.7,-147.09"/>
<polygon fill="midnightblue" stroke="midnightblue" points="596.18,-147.58 595.02,-137.05 589.36,-146.01 596.18,-147.58"/>
</g>
<!-- Node18 -->
<g id="node18" class="node">
<title>Node18</title>
<g id="a_node18"><a xlink:href="../../da/ddc/Source_2Engine_2server_2server_8h.html" target="_top" xlink:title=" ">
<polygon fill="none" stroke="black" points="597,-179.5 597,-198.5 653,-198.5 653,-179.5 597,-179.5"/>
<text text-anchor="middle" x="625" y="-186.5" font-family="Helvetica,sans-Serif" font-size="10.00">server.h</text>
</a>
</g>
</g>
<!-- Node1&#45;&gt;Node18 -->
<g id="edge17" class="edge">
<title>Node1&#45;&gt;Node18</title>
<path fill="none" stroke="midnightblue" d="M582.27,-235.4C590.58,-226.58 601.3,-215.18 609.92,-206.02"/>
<polygon fill="midnightblue" stroke="midnightblue" points="612.55,-208.34 616.85,-198.66 607.45,-203.54 612.55,-208.34"/>
</g>
<!-- Node3 -->
<g id="node3" class="node">
<title>Node3</title>
<g id="a_node3"><a xlink:title=" ">
<polygon fill="none" stroke="#bfbfbf" points="697,-56.5 697,-75.5 753,-75.5 753,-56.5 697,-56.5"/>
<text text-anchor="middle" x="725" y="-63.5" font-family="Helvetica,sans-Serif" font-size="10.00">assert.h</text>
</a>
</g>
</g>
<!-- Node2&#45;&gt;Node3 -->
<g id="edge2" class="edge">
<title>Node2&#45;&gt;Node3</title>
<path fill="none" stroke="midnightblue" d="M492.81,-118C539.73,-108.16 619.02,-91.35 687,-76 687.1,-75.98 687.2,-75.96 687.3,-75.93"/>
<polygon fill="midnightblue" stroke="midnightblue" points="687.83,-79.4 696.79,-73.75 686.26,-72.58 687.83,-79.4"/>
</g>
<!-- Node4 -->
<g id="node4" class="node">
<title>Node4</title>
<g id="a_node4"><a xlink:title=" ">
<polygon fill="none" stroke="#bfbfbf" points="771.5,-56.5 771.5,-75.5 822.5,-75.5 822.5,-56.5 771.5,-56.5"/>
<text text-anchor="middle" x="797" y="-63.5" font-family="Helvetica,sans-Serif" font-size="10.00">math.h</text>
</a>
</g>
</g>
<!-- Node2&#45;&gt;Node4 -->
<g id="edge3" class="edge">
<title>Node2&#45;&gt;Node4</title>
<path fill="none" stroke="midnightblue" d="M492.11,-117.93C502.17,-115.88 512.97,-113.78 523,-112 625.67,-93.8 655.03,-97.18 761.59,-75.89"/>
<polygon fill="midnightblue" stroke="midnightblue" points="762.35,-79.3 771.46,-73.89 760.96,-72.44 762.35,-79.3"/>
</g>
<!-- Node5 -->
<g id="node5" class="node">
<title>Node5</title>
<g id="a_node5"><a xlink:title=" ">
<polygon fill="none" stroke="#bfbfbf" points="841,-56.5 841,-75.5 891,-75.5 891,-56.5 841,-56.5"/>
<text text-anchor="middle" x="866" y="-63.5" font-family="Helvetica,sans-Serif" font-size="10.00">stdio.h</text>
</a>
</g>
</g>
<!-- Node2&#45;&gt;Node5 -->
<g id="edge4" class="edge">
<title>Node2&#45;&gt;Node5</title>
<path fill="none" stroke="midnightblue" d="M490.58,-118C501.07,-115.86 512.44,-113.69 523,-112 659.08,-90.19 695.51,-101.22 831,-76 831.1,-75.98 831.2,-75.96 831.3,-75.94"/>
<polygon fill="midnightblue" stroke="midnightblue" points="831.81,-79.41 840.86,-73.9 830.34,-72.57 831.81,-79.41"/>
</g>
<!-- Node6 -->
<g id="node6" class="node">
<title>Node6</title>
<g id="a_node6"><a xlink:title=" ">
<polygon fill="none" stroke="#bfbfbf" points="0,-56.5 0,-75.5 56,-75.5 56,-56.5 0,-56.5"/>
<text text-anchor="middle" x="28" y="-63.5" font-family="Helvetica,sans-Serif" font-size="10.00">stdarg.h</text>
</a>
</g>
</g>
<!-- Node2&#45;&gt;Node6 -->
<g id="edge5" class="edge">
<title>Node2&#45;&gt;Node6</title>
<path fill="none" stroke="midnightblue" d="M389.34,-120.44C314.63,-112.75 185.85,-97.99 66.28,-76.06"/>
<polygon fill="midnightblue" stroke="midnightblue" points="66.68,-72.58 56.21,-74.2 65.41,-79.46 66.68,-72.58"/>
</g>
<!-- Node7 -->
<g id="node7" class="node">
<title>Node7</title>
<g id="a_node7"><a xlink:title=" ">
<polygon fill="none" stroke="#bfbfbf" points="74.5,-56.5 74.5,-75.5 127.5,-75.5 127.5,-56.5 74.5,-56.5"/>
<text text-anchor="middle" x="101" y="-63.5" font-family="Helvetica,sans-Serif" font-size="10.00">string.h</text>
</a>
</g>
</g>
<!-- Node2&#45;&gt;Node7 -->
<g id="edge6" class="edge">
<title>Node2&#45;&gt;Node7</title>
<path fill="none" stroke="midnightblue" d="M389.33,-118.24C327.53,-109.7 230.23,-95.19 137.52,-76.17"/>
<polygon fill="midnightblue" stroke="midnightblue" points="138.2,-72.74 127.69,-74.14 136.77,-79.59 138.2,-72.74"/>
</g>
<!-- Node8 -->
<g id="node8" class="node">
<title>Node8</title>
<g id="a_node8"><a xlink:title=" ">
<polygon fill="none" stroke="#bfbfbf" points="145.5,-56.5 145.5,-75.5 198.5,-75.5 198.5,-56.5 145.5,-56.5"/>
<text text-anchor="middle" x="172" y="-63.5" font-family="Helvetica,sans-Serif" font-size="10.00">stdlib.h</text>
</a>
</g>
</g>
<!-- Node2&#45;&gt;Node8 -->
<g id="edge7" class="edge">
<title>Node2&#45;&gt;Node8</title>
<path fill="none" stroke="midnightblue" d="M407.8,-117.92C360.94,-108.69 284.51,-93.29 208.89,-76.13"/>
<polygon fill="midnightblue" stroke="midnightblue" points="209.24,-72.62 198.71,-73.81 207.68,-79.44 209.24,-72.62"/>
</g>
<!-- Node9 -->
<g id="node9" class="node">
<title>Node9</title>
<g id="a_node9"><a xlink:title=" ">
<polygon fill="none" stroke="#bfbfbf" points="217,-56.5 217,-75.5 265,-75.5 265,-56.5 217,-56.5"/>
<text text-anchor="middle" x="241" y="-63.5" font-family="Helvetica,sans-Serif" font-size="10.00">time.h</text>
</a>
</g>
</g>
<!-- Node2&#45;&gt;Node9 -->
<g id="edge8" class="edge">
<title>Node2&#45;&gt;Node9</title>
<path fill="none" stroke="midnightblue" d="M421.77,-117.98C382.9,-107.01 315.59,-88.03 274.99,-76.58"/>
<polygon fill="midnightblue" stroke="midnightblue" points="275.85,-73.19 265.27,-73.84 273.95,-79.93 275.85,-73.19"/>
</g>
<!-- Node10 -->
<g id="node10" class="node">
<title>Node10</title>
<g id="a_node10"><a xlink:title=" ">
<polygon fill="none" stroke="#bfbfbf" points="283.5,-56.5 283.5,-75.5 336.5,-75.5 336.5,-56.5 283.5,-56.5"/>
<text text-anchor="middle" x="310" y="-63.5" font-family="Helvetica,sans-Serif" font-size="10.00">ctype.h</text>
</a>
</g>
</g>
<!-- Node2&#45;&gt;Node10 -->
<g id="edge9" class="edge">
<title>Node2&#45;&gt;Node10</title>
<path fill="none" stroke="midnightblue" d="M431.65,-117.98C407.61,-107.9 367.4,-91.05 339.84,-79.5"/>
<polygon fill="midnightblue" stroke="midnightblue" points="340.88,-76.15 330.31,-75.51 338.18,-82.6 340.88,-76.15"/>
</g>
<!-- Node11 -->
<g id="node11" class="node">
<title>Node11</title>
<g id="a_node11"><a xlink:title=" ">
<polygon fill="none" stroke="#bfbfbf" points="354.5,-56.5 354.5,-75.5 407.5,-75.5 407.5,-56.5 354.5,-56.5"/>
<text text-anchor="middle" x="381" y="-63.5" font-family="Helvetica,sans-Serif" font-size="10.00">limits.h</text>
</a>
</g>
</g>
<!-- Node2&#45;&gt;Node11 -->
<g id="edge10" class="edge">
<title>Node2&#45;&gt;Node11</title>
<path fill="none" stroke="midnightblue" d="M441.83,-117.98C430.65,-108.61 412.48,-93.38 398.91,-82.01"/>
<polygon fill="midnightblue" stroke="midnightblue" points="401.07,-79.25 391.15,-75.51 396.57,-84.61 401.07,-79.25"/>
</g>
<!-- Node12 -->
<g id="node12" class="node">
<title>Node12</title>
<g id="a_node12"><a xlink:title=" ">
<polygon fill="none" stroke="#bfbfbf" points="425.5,-56.5 425.5,-75.5 478.5,-75.5 478.5,-56.5 425.5,-56.5"/>
<text text-anchor="middle" x="452" y="-63.5" font-family="Helvetica,sans-Serif" font-size="10.00">stdint.h</text>
</a>
</g>
</g>
<!-- Node2&#45;&gt;Node12 -->
<g id="edge11" class="edge">
<title>Node2&#45;&gt;Node12</title>
<path fill="none" stroke="midnightblue" d="M452,-117.98C452,-109.58 452,-96.48 452,-85.66"/>
<polygon fill="midnightblue" stroke="midnightblue" points="455.5,-85.51 452,-75.51 448.5,-85.51 455.5,-85.51"/>
</g>
<!-- Node13 -->
<g id="node13" class="node">
<title>Node13</title>
<g id="a_node13"><a xlink:href="../../d3/de7/Source_2Shared_2q__platform_8h.html" target="_top" xlink:title=" ">
<polygon fill="none" stroke="black" points="496.5,-56.5 496.5,-75.5 575.5,-75.5 575.5,-56.5 496.5,-56.5"/>
<text text-anchor="middle" x="536" y="-63.5" font-family="Helvetica,sans-Serif" font-size="10.00">q_platform.h</text>
</a>
</g>
</g>
<!-- Node2&#45;&gt;Node13 -->
<g id="edge12" class="edge">
<title>Node2&#45;&gt;Node13</title>
<path fill="none" stroke="midnightblue" d="M464.04,-117.98C477.51,-108.43 499.57,-92.81 515.72,-81.37"/>
<polygon fill="midnightblue" stroke="midnightblue" points="517.85,-84.15 523.99,-75.51 513.8,-78.43 517.85,-84.15"/>
</g>
<!-- Node14 -->
<g id="node14" class="node">
<title>Node14</title>
<g id="a_node14"><a xlink:href="../../d1/d83/Source_2Shared_2surfaceflags_8h.html" target="_top" xlink:title=" ">
<polygon fill="none" stroke="black" points="593.5,-56.5 593.5,-75.5 678.5,-75.5 678.5,-56.5 593.5,-56.5"/>
<text text-anchor="middle" x="636" y="-63.5" font-family="Helvetica,sans-Serif" font-size="10.00">surfaceflags.h</text>
</a>
</g>
</g>
<!-- Node2&#45;&gt;Node14 -->
<g id="edge13" class="edge">
<title>Node2&#45;&gt;Node14</title>
<path fill="none" stroke="midnightblue" d="M478.36,-117.98C510.34,-107.64 564.38,-90.16 600.12,-78.6"/>
<polygon fill="midnightblue" stroke="midnightblue" points="601.25,-81.92 609.69,-75.51 599.09,-75.26 601.25,-81.92"/>
</g>
<!-- Node16 -->
<g id="node16" class="node">
<title>Node16</title>
<g id="a_node16"><a xlink:href="../../d6/dff/Shared_2cm__public_8h.html" target="_top" xlink:title=" ">
<polygon fill="none" stroke="black" points="909,-56.5 909,-75.5 1039,-75.5 1039,-56.5 909,-56.5"/>
<text text-anchor="middle" x="974" y="-63.5" font-family="Helvetica,sans-Serif" font-size="10.00">../../Shared/cm_public.h</text>
</a>
</g>
</g>
<!-- Node15&#45;&gt;Node16 -->
<g id="edge15" class="edge">
<title>Node15&#45;&gt;Node16</title>
<path fill="none" stroke="midnightblue" d="M638.24,-117.94C648.59,-115.89 659.69,-113.79 670,-112 748.31,-98.44 838.41,-85.42 900.07,-76.91"/>
<polygon fill="midnightblue" stroke="midnightblue" points="900.67,-80.36 910.1,-75.53 899.71,-73.43 900.67,-80.36"/>
</g>
<!-- Node17 -->
<g id="node17" class="node">
<title>Node17</title>
<g id="a_node17"><a xlink:href="../../dc/d28/Shared_2qfiles_8h.html" target="_top" xlink:title=" ">
<polygon fill="none" stroke="black" points="948,-0.5 948,-19.5 1000,-19.5 1000,-0.5 948,-0.5"/>
<text text-anchor="middle" x="974" y="-7.5" font-family="Helvetica,sans-Serif" font-size="10.00">qfiles.h</text>
</a>
</g>
</g>
<!-- Node16&#45;&gt;Node17 -->
<g id="edge16" class="edge">
<title>Node16&#45;&gt;Node17</title>
<path fill="none" stroke="midnightblue" d="M974,-56.08C974,-49.01 974,-38.86 974,-29.99"/>
<polygon fill="midnightblue" stroke="midnightblue" points="977.5,-29.75 974,-19.75 970.5,-29.75 977.5,-29.75"/>
</g>
<!-- Node18&#45;&gt;Node2 -->
<g id="edge18" class="edge">
<title>Node18&#45;&gt;Node2</title>
<path fill="none" stroke="midnightblue" d="M600.21,-179.48C570.41,-169.22 520.21,-151.96 486.6,-140.4"/>
<polygon fill="midnightblue" stroke="midnightblue" points="487.34,-136.95 476.74,-137.01 485.06,-143.57 487.34,-136.95"/>
</g>
<!-- Node18&#45;&gt;Node15 -->
<g id="edge19" class="edge">
<title>Node18&#45;&gt;Node15</title>
<path fill="none" stroke="midnightblue" d="M620.99,-179.48C616.91,-170.82 610.48,-157.15 605.3,-146.15"/>
<polygon fill="midnightblue" stroke="midnightblue" points="608.43,-144.57 601,-137.01 602.1,-147.55 608.43,-144.57"/>
</g>
<!-- Node19 -->
<g id="node19" class="node">
<title>Node19</title>
<g id="a_node19"><a xlink:href="../../df/ddb/Source_2Game_2Game_2g__public_8h.html" target="_top" xlink:title=" ">
<polygon fill="none" stroke="black" points="679.5,-118 679.5,-137 828.5,-137 828.5,-118 679.5,-118"/>
<text text-anchor="middle" x="754" y="-125" font-family="Helvetica,sans-Serif" font-size="10.00">../../Game/Game/g_public.h</text>
</a>
</g>
</g>
<!-- Node18&#45;&gt;Node19 -->
<g id="edge20" class="edge">
<title>Node18&#45;&gt;Node19</title>
<path fill="none" stroke="midnightblue" d="M643.48,-179.48C665.13,-169.49 701.21,-152.85 726.23,-141.31"/>
<polygon fill="midnightblue" stroke="midnightblue" points="727.94,-144.38 735.55,-137.01 725.01,-138.02 727.94,-144.38"/>
</g>
<!-- Node20 -->
<g id="node20" class="node">
<title>Node20</title>
<g id="a_node20"><a xlink:href="../../d0/d27/Source_2Game_2Game_2bg__public_8h.html" target="_top" xlink:title=" ">
<polygon fill="none" stroke="black" points="846.5,-112.5 846.5,-142.5 957.5,-142.5 957.5,-112.5 846.5,-112.5"/>
<text text-anchor="start" x="854.5" y="-130.5" font-family="Helvetica,sans-Serif" font-size="10.00">../../Game/Game/bg</text>
<text text-anchor="middle" x="902" y="-119.5" font-family="Helvetica,sans-Serif" font-size="10.00">_public.h</text>
</a>
</g>
</g>
<!-- Node18&#45;&gt;Node20 -->
<g id="edge21" class="edge">
<title>Node18&#45;&gt;Node20</title>
<path fill="none" stroke="midnightblue" d="M653.14,-182.12C691.94,-174 764.31,-158.77 836.2,-143.16"/>
<polygon fill="midnightblue" stroke="midnightblue" points="837.31,-146.5 846.34,-140.96 835.82,-139.66 837.31,-146.5"/>
</g>
</g>
</svg>
