<?xml version="1.0" encoding="UTF-8" standalone="no"?>
<!DOCTYPE svg PUBLIC "-//W3C//DTD SVG 1.1//EN"
 "http://www.w3.org/Graphics/SVG/1.1/DTD/svg11.dtd">
<!-- Generated by graphviz version 2.43.0 (0)
 -->
<!-- Title: _DMA_OPERATIONS Pages: 1 -->
<svg width="526pt" height="399pt"
 viewBox="0.00 0.00 526.00 398.78" xmlns="http://www.w3.org/2000/svg" xmlns:xlink="http://www.w3.org/1999/xlink">
<g id="graph0" class="graph" transform="scale(1 1) rotate(0) translate(4 394.78)">
<title>_DMA_OPERATIONS</title>
<!-- Node1 -->
<g id="node1" class="node">
<title>Node1</title>
<g id="a_node1"><a xlink:title=" ">
<polygon fill="#bfbfbf" stroke="black" points="405,-206.78 405,-225.78 518,-225.78 518,-206.78 405,-206.78"/>
<text text-anchor="middle" x="461.5" y="-213.78" font-family="Helvetica,sans-Serif" font-size="10.00">_DMA_OPERATIONS</text>
</a>
</g>
</g>
<!-- Node2 -->
<g id="node2" class="node">
<title>Node2</title>
<g id="a_node2"><a xlink:title=" ">
<polygon fill="none" stroke="#bfbfbf" points="0,-338.28 0,-390.28 213,-390.28 213,-338.28 0,-338.28"/>
<text text-anchor="start" x="8" y="-378.28" font-family="Helvetica,sans-Serif" font-size="10.00">NTSTATUS DDKAPI(*)</text>
<text text-anchor="start" x="8" y="-367.28" font-family="Helvetica,sans-Serif" font-size="10.00">(PDMA_ADAPTER DmaAdapter,</text>
<text text-anchor="start" x="8" y="-356.28" font-family="Helvetica,sans-Serif" font-size="10.00"> PSCATTER_GATHER_LIST ScatterGather,</text>
<text text-anchor="middle" x="106.5" y="-345.28" font-family="Helvetica,sans-Serif" font-size="10.00"> PMDL OriginalMdl, PMDL *TargetMdl)</text>
</a>
</g>
</g>
<!-- Node2&#45;&gt;Node1 -->
<g id="edge1" class="edge">
<title>Node2&#45;&gt;Node1</title>
<path fill="none" stroke="#9a32cd" stroke-dasharray="5,2" d="M223.29,-370.21C276.68,-367.84 338.75,-357.44 387,-327.28 426.39,-302.65 449.24,-248.27 457.23,-226.04"/>
<polygon fill="#9a32cd" stroke="#9a32cd" points="222.96,-366.72 213.09,-370.57 223.2,-373.71 222.96,-366.72"/>
<text text-anchor="middle" x="309" y="-372.28" font-family="Helvetica,sans-Serif" font-size="10.00"> BuildMdlFromScatterGatherList</text>
</g>
<!-- Node3 -->
<g id="node3" class="node">
<title>Node3</title>
<g id="a_node3"><a xlink:title=" ">
<polygon fill="none" stroke="#bfbfbf" points="56.5,-299.78 56.5,-318.78 156.5,-318.78 156.5,-299.78 56.5,-299.78"/>
<text text-anchor="middle" x="106.5" y="-306.78" font-family="Helvetica,sans-Serif" font-size="10.00">PDEVICE_OBJECT</text>
</a>
</g>
</g>
<!-- Node3&#45;&gt;Node1 -->
<g id="edge2" class="edge">
<title>Node3&#45;&gt;Node1</title>
<path fill="none" stroke="#9a32cd" stroke-dasharray="5,2" d="M166.52,-301.93C223.95,-293.7 313.1,-278.02 387,-252.28 407.26,-245.22 429.19,-233.96 443.77,-225.92"/>
<polygon fill="#9a32cd" stroke="#9a32cd" points="165.95,-298.48 156.53,-303.33 166.92,-305.41 165.95,-298.48"/>
<text text-anchor="middle" x="309" y="-315.28" font-family="Helvetica,sans-Serif" font-size="10.00"> BuildScatterGatherList</text>
<text text-anchor="middle" x="309" y="-304.28" font-family="Helvetica,sans-Serif" font-size="10.00">GetScatterGatherList</text>
<text text-anchor="middle" x="309" y="-293.28" font-family="Helvetica,sans-Serif" font-size="10.00">AllocateAdapterChannel</text>
</g>
<!-- Node4 -->
<g id="node4" class="node">
<title>Node4</title>
<g id="a_node4"><a xlink:title=" ">
<polygon fill="none" stroke="#bfbfbf" points="36.5,-217.78 36.5,-280.78 176.5,-280.78 176.5,-217.78 36.5,-217.78"/>
<text text-anchor="start" x="44.5" y="-268.78" font-family="Helvetica,sans-Serif" font-size="10.00">VOID DDKAPI(*)(PDMA</text>
<text text-anchor="start" x="44.5" y="-257.78" font-family="Helvetica,sans-Serif" font-size="10.00">_ADAPTER DmaAdapter,</text>
<text text-anchor="start" x="44.5" y="-246.78" font-family="Helvetica,sans-Serif" font-size="10.00"> PSCATTER_GATHER_LIST</text>
<text text-anchor="start" x="44.5" y="-235.78" font-family="Helvetica,sans-Serif" font-size="10.00"> ScatterGather, BOOLEAN</text>
<text text-anchor="middle" x="106.5" y="-224.78" font-family="Helvetica,sans-Serif" font-size="10.00"> WriteToDevice)</text>
</a>
</g>
</g>
<!-- Node4&#45;&gt;Node1 -->
<g id="edge3" class="edge">
<title>Node4&#45;&gt;Node1</title>
<path fill="none" stroke="#9a32cd" stroke-dasharray="5,2" d="M186.83,-241.86C253.23,-235.65 346.28,-226.95 404.96,-221.47"/>
<polygon fill="#9a32cd" stroke="#9a32cd" points="186.45,-238.38 176.82,-242.8 187.1,-245.35 186.45,-238.38"/>
<text text-anchor="middle" x="309" y="-240.28" font-family="Helvetica,sans-Serif" font-size="10.00"> PutScatterGatherList</text>
</g>
<!-- Node5 -->
<g id="node5" class="node">
<title>Node5</title>
<g id="a_node5"><a xlink:title=" ">
<polygon fill="none" stroke="#bfbfbf" points="38.5,-168.28 38.5,-198.28 174.5,-198.28 174.5,-168.28 38.5,-168.28"/>
<text text-anchor="start" x="46.5" y="-186.28" font-family="Helvetica,sans-Serif" font-size="10.00">VOID DDKAPI(*)(PDMA</text>
<text text-anchor="middle" x="106.5" y="-175.28" font-family="Helvetica,sans-Serif" font-size="10.00">_ADAPTER DmaAdapter)</text>
</a>
</g>
</g>
<!-- Node5&#45;&gt;Node1 -->
<g id="edge4" class="edge">
<title>Node5&#45;&gt;Node1</title>
<path fill="none" stroke="#9a32cd" stroke-dasharray="5,2" d="M184.78,-182.95C241.14,-183.73 319.18,-186.92 387,-197.28 401.07,-199.43 416.35,-203.14 429.32,-206.72"/>
<polygon fill="#9a32cd" stroke="#9a32cd" points="184.56,-179.45 174.52,-182.83 184.48,-186.45 184.56,-179.45"/>
<text text-anchor="middle" x="309" y="-211.28" font-family="Helvetica,sans-Serif" font-size="10.00"> FreeAdapterChannel</text>
<text text-anchor="middle" x="309" y="-200.28" font-family="Helvetica,sans-Serif" font-size="10.00">PutDmaAdapter</text>
</g>
<!-- Node6 -->
<g id="node6" class="node">
<title>Node6</title>
<g id="a_node6"><a xlink:title=" ">
<polygon fill="none" stroke="#bfbfbf" points="57.5,-129.78 57.5,-148.78 155.5,-148.78 155.5,-129.78 57.5,-129.78"/>
<text text-anchor="middle" x="106.5" y="-136.78" font-family="Helvetica,sans-Serif" font-size="10.00">LARGE_INTEGER</text>
</a>
</g>
</g>
<!-- Node6&#45;&gt;Node1 -->
<g id="edge5" class="edge">
<title>Node6&#45;&gt;Node1</title>
<path fill="none" stroke="#9a32cd" stroke-dasharray="5,2" d="M165.78,-137.44C223.57,-137.42 313.81,-142.31 387,-168.28 411.42,-176.94 435.82,-195.26 449.46,-206.6"/>
<polygon fill="#9a32cd" stroke="#9a32cd" points="165.71,-133.94 155.73,-137.49 165.75,-140.94 165.71,-133.94"/>
<text text-anchor="middle" x="309" y="-171.28" font-family="Helvetica,sans-Serif" font-size="10.00"> MapTransfer</text>
</g>
<!-- Node7 -->
<g id="node7" class="node">
<title>Node7</title>
<g id="a_node7"><a xlink:title=" ">
<polygon fill="none" stroke="#bfbfbf" points="7.5,-1.78 7.5,-42.78 205.5,-42.78 205.5,-1.78 7.5,-1.78"/>
<text text-anchor="start" x="15.5" y="-30.78" font-family="Helvetica,sans-Serif" font-size="10.00">PSecurityUserData *typedef</text>
<text text-anchor="start" x="15.5" y="-19.78" font-family="Helvetica,sans-Serif" font-size="10.00"> PSECPKG_EXTENDED_INFORMATION</text>
<text text-anchor="middle" x="106.5" y="-8.78" font-family="Helvetica,sans-Serif" font-size="10.00"> *typedef</text>
</a>
</g>
</g>
<!-- Node7&#45;&gt;Node1 -->
<g id="edge6" class="edge">
<title>Node7&#45;&gt;Node1</title>
<path fill="none" stroke="#9a32cd" stroke-dasharray="5,2" d="M215.49,-1.74C271.45,2.89 338.11,-1.62 387,-36.28 445.93,-78.05 457.7,-175.77 459.97,-206.7"/>
<polygon fill="#9a32cd" stroke="#9a32cd" points="215.16,1.74 205.53,-2.67 215.81,-5.23 215.16,1.74"/>
<text text-anchor="middle" x="309" y="-127.28" font-family="Helvetica,sans-Serif" font-size="10.00"> GetDmaAlignment</text>
<text text-anchor="middle" x="309" y="-116.28" font-family="Helvetica,sans-Serif" font-size="10.00">Size</text>
<text text-anchor="middle" x="309" y="-105.28" font-family="Helvetica,sans-Serif" font-size="10.00">ReadDmaCounter</text>
<text text-anchor="start" x="252" y="-94.28" font-family="Helvetica,sans-Serif" font-size="10.00">CalculateScatterGather</text>
<text text-anchor="middle" x="309" y="-83.28" font-family="Helvetica,sans-Serif" font-size="10.00">List</text>
<text text-anchor="middle" x="309" y="-72.28" font-family="Helvetica,sans-Serif" font-size="10.00">FlushAdapterBuffers</text>
<text text-anchor="middle" x="309" y="-61.28" font-family="Helvetica,sans-Serif" font-size="10.00">AllocateCommonBuffer</text>
<text text-anchor="middle" x="309" y="-50.28" font-family="Helvetica,sans-Serif" font-size="10.00">FreeCommonBuffer</text>
<text text-anchor="middle" x="309" y="-39.28" font-family="Helvetica,sans-Serif" font-size="10.00">FreeMapRegisters</text>
</g>
</g>
</svg>
