<?xml version="1.0" encoding="UTF-8" standalone="no"?>
<!DOCTYPE svg PUBLIC "-//W3C//DTD SVG 1.1//EN"
 "http://www.w3.org/Graphics/SVG/1.1/DTD/svg11.dtd">
<!-- Generated by graphviz version 2.43.0 (0)
 -->
<!-- Title: _DEBUG_HEAP_INFORMATION Pages: 1 -->
<svg width="286pt" height="205pt"
 viewBox="0.00 0.00 285.50 205.00" xmlns="http://www.w3.org/2000/svg" xmlns:xlink="http://www.w3.org/1999/xlink">
<g id="graph0" class="graph" transform="scale(1 1) rotate(0) translate(4 201)">
<title>_DEBUG_HEAP_INFORMATION</title>
<!-- Node1 -->
<g id="node1" class="node">
<title>Node1</title>
<g id="a_node1"><a xlink:title=" ">
<polygon fill="#bfbfbf" stroke="black" points="22.5,-0.5 22.5,-19.5 186.5,-19.5 186.5,-0.5 22.5,-0.5"/>
<text text-anchor="middle" x="104.5" y="-7.5" font-family="Helvetica,sans-Serif" font-size="10.00">_DEBUG_HEAP_INFORMATION</text>
</a>
</g>
</g>
<!-- Node2 -->
<g id="node2" class="node">
<title>Node2</title>
<g id="a_node2"><a xlink:title=" ">
<polygon fill="none" stroke="#bfbfbf" points="0,-166.5 0,-185.5 61,-185.5 61,-166.5 0,-166.5"/>
<text text-anchor="middle" x="30.5" y="-173.5" font-family="Helvetica,sans-Serif" font-size="10.00">unsigned</text>
</a>
</g>
</g>
<!-- Node2&#45;&gt;Node1 -->
<g id="edge1" class="edge">
<title>Node2&#45;&gt;Node1</title>
<path fill="none" stroke="#9a32cd" stroke-dasharray="5,2" d="M38.77,-156.67C54.64,-121.5 88.83,-45.72 100.5,-19.86"/>
<polygon fill="#9a32cd" stroke="#9a32cd" points="35.4,-155.63 34.48,-166.18 41.78,-158.51 35.4,-155.63"/>
<text text-anchor="middle" x="121.5" y="-90.5" font-family="Helvetica,sans-Serif" font-size="10.00"> Granularity</text>
<text text-anchor="middle" x="121.5" y="-79.5" font-family="Helvetica,sans-Serif" font-size="10.00">Unknown</text>
</g>
<!-- Node3 -->
<g id="node3" class="node">
<title>Node3</title>
<g id="a_node3"><a xlink:title=" ">
<polygon fill="none" stroke="#bfbfbf" points="79.5,-155.5 79.5,-196.5 277.5,-196.5 277.5,-155.5 79.5,-155.5"/>
<text text-anchor="start" x="87.5" y="-184.5" font-family="Helvetica,sans-Serif" font-size="10.00">PSecurityUserData *typedef</text>
<text text-anchor="start" x="87.5" y="-173.5" font-family="Helvetica,sans-Serif" font-size="10.00"> PSECPKG_EXTENDED_INFORMATION</text>
<text text-anchor="middle" x="178.5" y="-162.5" font-family="Helvetica,sans-Serif" font-size="10.00"> *typedef</text>
</a>
</g>
</g>
<!-- Node3&#45;&gt;Node1 -->
<g id="edge2" class="edge">
<title>Node3&#45;&gt;Node1</title>
<path fill="none" stroke="#9a32cd" stroke-dasharray="5,2" d="M180.43,-145.05C180.83,-115.2 177.14,-69.4 154.5,-38 148.56,-29.76 139.3,-23.78 130.36,-19.57"/>
<polygon fill="#9a32cd" stroke="#9a32cd" points="176.93,-145.17 180.13,-155.27 183.93,-145.38 176.93,-145.17"/>
<text text-anchor="middle" x="207.5" y="-129" font-family="Helvetica,sans-Serif" font-size="10.00"> Base</text>
<text text-anchor="middle" x="207.5" y="-118" font-family="Helvetica,sans-Serif" font-size="10.00">Flags</text>
<text text-anchor="middle" x="207.5" y="-107" font-family="Helvetica,sans-Serif" font-size="10.00">Blocks</text>
<text text-anchor="middle" x="207.5" y="-96" font-family="Helvetica,sans-Serif" font-size="10.00">TagCount</text>
<text text-anchor="middle" x="207.5" y="-85" font-family="Helvetica,sans-Serif" font-size="10.00">BlockCount</text>
<text text-anchor="middle" x="207.5" y="-74" font-family="Helvetica,sans-Serif" font-size="10.00">Tags</text>
<text text-anchor="middle" x="207.5" y="-63" font-family="Helvetica,sans-Serif" font-size="10.00">Committed</text>
<text text-anchor="middle" x="207.5" y="-52" font-family="Helvetica,sans-Serif" font-size="10.00">Allocated</text>
<text text-anchor="middle" x="207.5" y="-41" font-family="Helvetica,sans-Serif" font-size="10.00">Reserved</text>
</g>
</g>
</svg>
