<?xml version="1.0" encoding="UTF-8" standalone="no"?>
<!DOCTYPE svg PUBLIC "-//W3C//DTD SVG 1.1//EN"
 "http://www.w3.org/Graphics/SVG/1.1/DTD/svg11.dtd">
<!-- Generated by graphviz version 2.43.0 (0)
 -->
<!-- Title: Tools/MinGW/include/pshpack2.h Pages: 1 -->
<svg width="2502pt" height="653pt"
 viewBox="0.00 0.00 2502.00 653.00" xmlns="http://www.w3.org/2000/svg" xmlns:xlink="http://www.w3.org/1999/xlink">
<g id="graph0" class="graph" transform="scale(1 1) rotate(0) translate(4 649)">
<title>Tools/MinGW/include/pshpack2.h</title>
<!-- Node1 -->
<g id="node1" class="node">
<title>Node1</title>
<g id="a_node1"><a xlink:title=" ">
<polygon fill="#bfbfbf" stroke="black" points="1200,-614.5 1200,-644.5 1318,-644.5 1318,-614.5 1200,-614.5"/>
<text text-anchor="start" x="1208" y="-632.5" font-family="Helvetica,sans-Serif" font-size="10.00">Tools/MinGW/include</text>
<text text-anchor="middle" x="1259" y="-621.5" font-family="Helvetica,sans-Serif" font-size="10.00">/pshpack2.h</text>
</a>
</g>
</g>
<!-- Node2 -->
<g id="node2" class="node">
<title>Node2</title>
<g id="a_node2"><a xlink:href="../../df/dd3/shellapi_8h.html" target="_top" xlink:title=" ">
<polygon fill="none" stroke="black" points="1200,-547.5 1200,-577.5 1318,-577.5 1318,-547.5 1200,-547.5"/>
<text text-anchor="start" x="1208" y="-565.5" font-family="Helvetica,sans-Serif" font-size="10.00">Tools/MinGW/include</text>
<text text-anchor="middle" x="1259" y="-554.5" font-family="Helvetica,sans-Serif" font-size="10.00">/shellapi.h</text>
</a>
</g>
</g>
<!-- Node1&#45;&gt;Node2 -->
<g id="edge1" class="edge">
<title>Node1&#45;&gt;Node2</title>
<path fill="none" stroke="midnightblue" d="M1259,-604.11C1259,-595.15 1259,-585.32 1259,-577.58"/>
<polygon fill="midnightblue" stroke="midnightblue" points="1255.5,-604.4 1259,-614.4 1262.5,-604.4 1255.5,-604.4"/>
</g>
<!-- Node3 -->
<g id="node3" class="node">
<title>Node3</title>
<g id="a_node3"><a xlink:href="../../d5/d5f/oledlg_8h.html" target="_top" xlink:title=" ">
<polygon fill="none" stroke="black" points="790,-67.5 790,-97.5 908,-97.5 908,-67.5 790,-67.5"/>
<text text-anchor="start" x="798" y="-85.5" font-family="Helvetica,sans-Serif" font-size="10.00">Tools/MinGW/include</text>
<text text-anchor="middle" x="849" y="-74.5" font-family="Helvetica,sans-Serif" font-size="10.00">/oledlg.h</text>
</a>
</g>
</g>
<!-- Node2&#45;&gt;Node3 -->
<g id="edge2" class="edge">
<title>Node2&#45;&gt;Node3</title>
<path fill="none" stroke="midnightblue" d="M1189.76,-561.27C926.14,-559.5 0,-544.69 0,-424 0,-424 0,-424 0,-215.5 0,-135.42 597.44,-96.8 789.97,-86.44"/>
<polygon fill="midnightblue" stroke="midnightblue" points="1189.94,-564.77 1199.96,-561.34 1189.99,-557.77 1189.94,-564.77"/>
</g>
<!-- Node4 -->
<g id="node4" class="node">
<title>Node4</title>
<g id="a_node4"><a xlink:href="../../d8/d57/shlobj_8h.html" target="_top" xlink:title=" ">
<polygon fill="none" stroke="black" points="2000,-67.5 2000,-97.5 2118,-97.5 2118,-67.5 2000,-67.5"/>
<text text-anchor="start" x="2008" y="-85.5" font-family="Helvetica,sans-Serif" font-size="10.00">Tools/MinGW/include</text>
<text text-anchor="middle" x="2059" y="-74.5" font-family="Helvetica,sans-Serif" font-size="10.00">/shlobj.h</text>
</a>
</g>
</g>
<!-- Node2&#45;&gt;Node4 -->
<g id="edge3" class="edge">
<title>Node2&#45;&gt;Node4</title>
<path fill="none" stroke="midnightblue" d="M1328.24,-561.12C1588.57,-558.8 2494,-542.22 2494,-424 2494,-424 2494,-424 2494,-215.5 2494,-137.86 2237.06,-101.59 2118.12,-88.96"/>
<polygon fill="midnightblue" stroke="midnightblue" points="1328.12,-557.62 1318.15,-561.21 1328.18,-564.62 1328.12,-557.62"/>
</g>
<!-- Node7 -->
<g id="node7" class="node">
<title>Node7</title>
<g id="a_node7"><a xlink:href="../../d9/d43/windows_8h.html" target="_top" xlink:title=" ">
<polygon fill="none" stroke="black" points="1200,-480.5 1200,-510.5 1318,-510.5 1318,-480.5 1200,-480.5"/>
<text text-anchor="start" x="1208" y="-498.5" font-family="Helvetica,sans-Serif" font-size="10.00">Tools/MinGW/include</text>
<text text-anchor="middle" x="1259" y="-487.5" font-family="Helvetica,sans-Serif" font-size="10.00">/windows.h</text>
</a>
</g>
</g>
<!-- Node2&#45;&gt;Node7 -->
<g id="edge6" class="edge">
<title>Node2&#45;&gt;Node7</title>
<path fill="none" stroke="midnightblue" d="M1259,-537.11C1259,-528.15 1259,-518.32 1259,-510.58"/>
<polygon fill="midnightblue" stroke="midnightblue" points="1255.5,-537.4 1259,-547.4 1262.5,-537.4 1255.5,-537.4"/>
</g>
<!-- Node5 -->
<g id="node5" class="node">
<title>Node5</title>
<g id="a_node5"><a xlink:href="../../db/db6/sys__win32_8c.html" target="_top" xlink:title=" ">
<polygon fill="none" stroke="black" points="2050.5,-6 2050.5,-25 2181.5,-25 2181.5,-6 2050.5,-6"/>
<text text-anchor="middle" x="2116" y="-13" font-family="Helvetica,sans-Serif" font-size="10.00">Engine/sys/sys_win32.c</text>
</a>
</g>
</g>
<!-- Node4&#45;&gt;Node5 -->
<g id="edge4" class="edge">
<title>Node4&#45;&gt;Node5</title>
<path fill="none" stroke="midnightblue" d="M2078.15,-59.66C2088.5,-47.86 2100.68,-33.97 2108.38,-25.19"/>
<polygon fill="midnightblue" stroke="midnightblue" points="2075.33,-57.57 2071.37,-67.4 2080.59,-62.18 2075.33,-57.57"/>
</g>
<!-- Node6 -->
<g id="node6" class="node">
<title>Node6</title>
<g id="a_node6"><a xlink:href="../../dd/d94/shlwapi_8h.html" target="_top" xlink:title=" ">
<polygon fill="none" stroke="black" points="1778,-0.5 1778,-30.5 1896,-30.5 1896,-0.5 1778,-0.5"/>
<text text-anchor="start" x="1786" y="-18.5" font-family="Helvetica,sans-Serif" font-size="10.00">Tools/MinGW/include</text>
<text text-anchor="middle" x="1837" y="-7.5" font-family="Helvetica,sans-Serif" font-size="10.00">/shlwapi.h</text>
</a>
</g>
</g>
<!-- Node4&#45;&gt;Node6 -->
<g id="edge5" class="edge">
<title>Node4&#45;&gt;Node6</title>
<path fill="none" stroke="midnightblue" d="M2001.21,-64.58C1965.15,-54.02 1919.28,-40.59 1885.19,-30.61"/>
<polygon fill="midnightblue" stroke="midnightblue" points="2000.52,-68.02 2011.1,-67.48 2002.49,-61.31 2000.52,-68.02"/>
</g>
<!-- Node7&#45;&gt;Node3 -->
<g id="edge29" class="edge">
<title>Node7&#45;&gt;Node3</title>
<path fill="none" stroke="midnightblue" d="M1189.75,-492.93C1099.88,-489.51 949.65,-478.63 908,-444 879.23,-420.08 854,-321.92 854,-284.5 854,-284.5 854,-284.5 854,-215.5 854,-172.62 851.33,-121.95 849.89,-97.75"/>
<polygon fill="midnightblue" stroke="midnightblue" points="1189.74,-496.43 1199.86,-493.3 1189.99,-489.44 1189.74,-496.43"/>
</g>
<!-- Node7&#45;&gt;Node5 -->
<g id="edge8" class="edge">
<title>Node7&#45;&gt;Node5</title>
<path fill="none" stroke="midnightblue" d="M1328.13,-494.54C1522.3,-494.09 2062.73,-488.78 2128,-444 2165.23,-418.46 2170,-396.65 2170,-351.5 2170,-351.5 2170,-351.5 2170,-148.5 2170,-98.73 2136.71,-45.74 2122.41,-25.27"/>
<polygon fill="midnightblue" stroke="midnightblue" points="1328.04,-491.04 1318.05,-494.56 1328.06,-498.04 1328.04,-491.04"/>
</g>
<!-- Node8 -->
<g id="node8" class="node">
<title>Node8</title>
<g id="a_node8"><a xlink:href="../../db/d94/con__win32_8c.html" target="_top" xlink:title=" ">
<polygon fill="none" stroke="black" points="2198,-413.5 2198,-432.5 2330,-432.5 2330,-413.5 2198,-413.5"/>
<text text-anchor="middle" x="2264" y="-420.5" font-family="Helvetica,sans-Serif" font-size="10.00">Engine/sys/con_win32.c</text>
</a>
</g>
</g>
<!-- Node7&#45;&gt;Node8 -->
<g id="edge7" class="edge">
<title>Node7&#45;&gt;Node8</title>
<path fill="none" stroke="midnightblue" d="M1328.39,-495.2C1482.99,-495.79 1867.06,-491.82 2184,-444 2201.27,-441.39 2220.25,-436.73 2235.39,-432.56"/>
<polygon fill="midnightblue" stroke="midnightblue" points="1328.12,-491.7 1318.11,-495.16 1328.09,-498.7 1328.12,-491.7"/>
</g>
<!-- Node9 -->
<g id="node9" class="node">
<title>Node9</title>
<g id="a_node9"><a xlink:href="../../d9/d4b/aclapi_8h.html" target="_top" xlink:title=" ">
<polygon fill="none" stroke="black" points="2348,-408 2348,-438 2466,-438 2466,-408 2348,-408"/>
<text text-anchor="start" x="2356" y="-426" font-family="Helvetica,sans-Serif" font-size="10.00">Tools/MinGW/include</text>
<text text-anchor="middle" x="2407" y="-415" font-family="Helvetica,sans-Serif" font-size="10.00">/aclapi.h</text>
</a>
</g>
</g>
<!-- Node7&#45;&gt;Node9 -->
<g id="edge9" class="edge">
<title>Node7&#45;&gt;Node9</title>
<path fill="none" stroke="midnightblue" d="M1328.37,-493.42C1534.89,-489.87 2143.42,-476.85 2339,-444 2347.49,-442.57 2356.43,-440.43 2364.93,-438.07"/>
<polygon fill="midnightblue" stroke="midnightblue" points="1328.2,-489.93 1318.26,-493.59 1328.32,-496.92 1328.2,-489.93"/>
</g>
<!-- Node10 -->
<g id="node10" class="node">
<title>Node10</title>
<g id="a_node10"><a xlink:href="../../d5/d7b/afxres_8h.html" target="_top" xlink:title=" ">
<polygon fill="none" stroke="black" points="28,-408 28,-438 146,-438 146,-408 28,-408"/>
<text text-anchor="start" x="36" y="-426" font-family="Helvetica,sans-Serif" font-size="10.00">Tools/MinGW/include</text>
<text text-anchor="middle" x="87" y="-415" font-family="Helvetica,sans-Serif" font-size="10.00">/afxres.h</text>
</a>
</g>
</g>
<!-- Node7&#45;&gt;Node10 -->
<g id="edge10" class="edge">
<title>Node7&#45;&gt;Node10</title>
<path fill="none" stroke="midnightblue" d="M1189.55,-493.5C979.88,-490.15 355.4,-477.55 155,-444 146.5,-442.58 137.57,-440.44 129.07,-438.08"/>
<polygon fill="midnightblue" stroke="midnightblue" points="1189.76,-497.01 1199.81,-493.67 1189.87,-490.01 1189.76,-497.01"/>
</g>
<!-- Node11 -->
<g id="node11" class="node">
<title>Node11</title>
<g id="a_node11"><a xlink:href="../../d2/d64/gthr-default_8h.html" target="_top" xlink:title=" ">
<polygon fill="none" stroke="black" points="164,-402.5 164,-443.5 320,-443.5 320,-402.5 164,-402.5"/>
<text text-anchor="start" x="172" y="-431.5" font-family="Helvetica,sans-Serif" font-size="10.00">Tools/MinGW/include</text>
<text text-anchor="start" x="172" y="-420.5" font-family="Helvetica,sans-Serif" font-size="10.00">/c++/4.6.1/i686&#45;pc&#45;mingw32</text>
<text text-anchor="middle" x="242" y="-409.5" font-family="Helvetica,sans-Serif" font-size="10.00">/bits/gthr&#45;default.h</text>
</a>
</g>
</g>
<!-- Node7&#45;&gt;Node11 -->
<g id="edge11" class="edge">
<title>Node7&#45;&gt;Node11</title>
<path fill="none" stroke="midnightblue" d="M1189.58,-494.79C1034.47,-494.55 648.29,-489.03 329,-444 326.08,-443.59 323.12,-443.13 320.14,-442.63"/>
<polygon fill="midnightblue" stroke="midnightblue" points="1189.9,-498.29 1199.9,-494.8 1189.91,-491.29 1189.9,-498.29"/>
</g>
<!-- Node12 -->
<g id="node12" class="node">
<title>Node12</title>
<g id="a_node12"><a xlink:href="../../d4/d7c/comcat_8h.html" target="_top" xlink:title=" ">
<polygon fill="none" stroke="black" points="1838,-67.5 1838,-97.5 1956,-97.5 1956,-67.5 1838,-67.5"/>
<text text-anchor="start" x="1846" y="-85.5" font-family="Helvetica,sans-Serif" font-size="10.00">Tools/MinGW/include</text>
<text text-anchor="middle" x="1897" y="-74.5" font-family="Helvetica,sans-Serif" font-size="10.00">/comcat.h</text>
</a>
</g>
</g>
<!-- Node7&#45;&gt;Node12 -->
<g id="edge12" class="edge">
<title>Node7&#45;&gt;Node12</title>
<path fill="none" stroke="midnightblue" d="M1328.3,-494.65C1518.4,-494.47 2038.06,-489.76 2099,-444 2133.9,-417.79 2132,-395.15 2132,-351.5 2132,-351.5 2132,-351.5 2132,-215.5 2132,-135.01 2025.92,-103.09 1956.3,-90.81"/>
<polygon fill="midnightblue" stroke="midnightblue" points="1328.14,-491.15 1318.14,-494.66 1328.14,-498.15 1328.14,-491.15"/>
</g>
<!-- Node13 -->
<g id="node13" class="node">
<title>Node13</title>
<g id="a_node13"><a xlink:href="../../db/d82/wglew_8h.html" target="_top" xlink:title=" ">
<polygon fill="none" stroke="black" points="338,-408 338,-438 456,-438 456,-408 338,-408"/>
<text text-anchor="start" x="346" y="-426" font-family="Helvetica,sans-Serif" font-size="10.00">Tools/MinGW/include</text>
<text text-anchor="middle" x="397" y="-415" font-family="Helvetica,sans-Serif" font-size="10.00">/GL/wglew.h</text>
</a>
</g>
</g>
<!-- Node7&#45;&gt;Node13 -->
<g id="edge13" class="edge">
<title>Node7&#45;&gt;Node13</title>
<path fill="none" stroke="midnightblue" d="M1189.63,-495.24C1050.87,-495.6 729.74,-490.75 465,-444 456.64,-442.52 447.84,-440.39 439.46,-438.06"/>
<polygon fill="midnightblue" stroke="midnightblue" points="1189.71,-498.74 1199.7,-495.21 1189.69,-491.74 1189.71,-498.74"/>
</g>
<!-- Node14 -->
<g id="node14" class="node">
<title>Node14</title>
<g id="a_node14"><a xlink:href="../../d8/dc2/httpext_8h.html" target="_top" xlink:title=" ">
<polygon fill="none" stroke="black" points="474,-408 474,-438 592,-438 592,-408 474,-408"/>
<text text-anchor="start" x="482" y="-426" font-family="Helvetica,sans-Serif" font-size="10.00">Tools/MinGW/include</text>
<text text-anchor="middle" x="533" y="-415" font-family="Helvetica,sans-Serif" font-size="10.00">/httpext.h</text>
</a>
</g>
</g>
<!-- Node7&#45;&gt;Node14 -->
<g id="edge14" class="edge">
<title>Node7&#45;&gt;Node14</title>
<path fill="none" stroke="midnightblue" d="M1189.74,-493.93C1069.13,-491.9 813.16,-482.9 601,-444 592.77,-442.49 584.11,-440.37 575.84,-438.07"/>
<polygon fill="midnightblue" stroke="midnightblue" points="1189.88,-497.44 1199.93,-494.1 1189.99,-490.44 1189.88,-497.44"/>
</g>
<!-- Node15 -->
<g id="node15" class="node">
<title>Node15</title>
<g id="a_node15"><a xlink:href="../../df/dd3/largeint_8h.html" target="_top" xlink:title=" ">
<polygon fill="none" stroke="black" points="610,-408 610,-438 728,-438 728,-408 610,-408"/>
<text text-anchor="start" x="618" y="-426" font-family="Helvetica,sans-Serif" font-size="10.00">Tools/MinGW/include</text>
<text text-anchor="middle" x="669" y="-415" font-family="Helvetica,sans-Serif" font-size="10.00">/largeint.h</text>
</a>
</g>
</g>
<!-- Node7&#45;&gt;Node15 -->
<g id="edge15" class="edge">
<title>Node7&#45;&gt;Node15</title>
<path fill="none" stroke="midnightblue" d="M1189.73,-491.98C1089.19,-487.37 897.31,-475.04 737,-444 728.91,-442.43 720.39,-440.32 712.23,-438.04"/>
<polygon fill="midnightblue" stroke="midnightblue" points="1189.62,-495.47 1199.77,-492.42 1189.93,-488.48 1189.62,-495.47"/>
</g>
<!-- Node16 -->
<g id="node16" class="node">
<title>Node16</title>
<g id="a_node16"><a xlink:href="../../d9/d87/mlang_8h.html" target="_top" xlink:title=" ">
<polygon fill="none" stroke="black" points="746,-408 746,-438 864,-438 864,-408 746,-408"/>
<text text-anchor="start" x="754" y="-426" font-family="Helvetica,sans-Serif" font-size="10.00">Tools/MinGW/include</text>
<text text-anchor="middle" x="805" y="-415" font-family="Helvetica,sans-Serif" font-size="10.00">/mlang.h</text>
</a>
</g>
</g>
<!-- Node7&#45;&gt;Node16 -->
<g id="edge16" class="edge">
<title>Node7&#45;&gt;Node16</title>
<path fill="none" stroke="midnightblue" d="M1189.83,-488.18C1113.13,-480.51 985.97,-465.84 878,-444 869.76,-442.33 861.07,-440.25 852.68,-438.06"/>
<polygon fill="midnightblue" stroke="midnightblue" points="1189.55,-491.67 1199.85,-489.17 1190.24,-484.7 1189.55,-491.67"/>
</g>
<!-- Node17 -->
<g id="node17" class="node">
<title>Node17</title>
<g id="a_node17"><a xlink:href="../../d3/d92/oaidl_8h.html" target="_top" xlink:title=" ">
<polygon fill="none" stroke="black" points="1351,-268.5 1351,-298.5 1469,-298.5 1469,-268.5 1351,-268.5"/>
<text text-anchor="start" x="1359" y="-286.5" font-family="Helvetica,sans-Serif" font-size="10.00">Tools/MinGW/include</text>
<text text-anchor="middle" x="1410" y="-275.5" font-family="Helvetica,sans-Serif" font-size="10.00">/oaidl.h</text>
</a>
</g>
</g>
<!-- Node7&#45;&gt;Node17 -->
<g id="edge17" class="edge">
<title>Node7&#45;&gt;Node17</title>
<path fill="none" stroke="midnightblue" d="M1189.92,-485.54C1164.58,-478.54 1138.36,-466.09 1123,-444 1112.34,-428.67 1112.32,-417.31 1123,-402 1149.56,-363.95 1180.69,-388.98 1221,-366 1239.93,-355.2 1239.91,-345.52 1259,-335 1288.05,-318.99 1323.05,-306.9 1352.03,-298.56"/>
<polygon fill="midnightblue" stroke="midnightblue" points="1189.39,-489.02 1199.94,-488.05 1191.09,-482.23 1189.39,-489.02"/>
</g>
<!-- Node23 -->
<g id="node23" class="node">
<title>Node23</title>
<g id="a_node23"><a xlink:href="../../d7/d93/vfw_8h.html" target="_top" xlink:title=" ">
<polygon fill="none" stroke="black" points="1649,-67.5 1649,-97.5 1767,-97.5 1767,-67.5 1649,-67.5"/>
<text text-anchor="start" x="1657" y="-85.5" font-family="Helvetica,sans-Serif" font-size="10.00">Tools/MinGW/include</text>
<text text-anchor="middle" x="1708" y="-74.5" font-family="Helvetica,sans-Serif" font-size="10.00">/vfw.h</text>
</a>
</g>
</g>
<!-- Node7&#45;&gt;Node23 -->
<g id="edge47" class="edge">
<title>Node7&#45;&gt;Node23</title>
<path fill="none" stroke="midnightblue" d="M1328.58,-494.94C1515.69,-495.48 2019.28,-492.38 2075,-444 2106.69,-416.48 2094,-393.47 2094,-351.5 2094,-351.5 2094,-351.5 2094,-215.5 2094,-147.24 1875.18,-106.94 1767.05,-91.19"/>
<polygon fill="midnightblue" stroke="midnightblue" points="1328.32,-491.44 1318.31,-494.91 1328.3,-498.44 1328.32,-491.44"/>
</g>
<!-- Node24 -->
<g id="node24" class="node">
<title>Node24</title>
<g id="a_node24"><a xlink:href="../../d0/d44/rpc_8h.html" target="_top" xlink:title=" ">
<polygon fill="none" stroke="black" points="958,-408 958,-438 1076,-438 1076,-408 958,-408"/>
<text text-anchor="start" x="966" y="-426" font-family="Helvetica,sans-Serif" font-size="10.00">Tools/MinGW/include</text>
<text text-anchor="middle" x="1017" y="-415" font-family="Helvetica,sans-Serif" font-size="10.00">/rpc.h</text>
</a>
</g>
</g>
<!-- Node7&#45;&gt;Node24 -->
<g id="edge30" class="edge">
<title>Node7&#45;&gt;Node24</title>
<path fill="none" stroke="midnightblue" d="M1195.63,-477.74C1152.85,-465.66 1097.6,-449.53 1059.9,-438.11"/>
<polygon fill="midnightblue" stroke="midnightblue" points="1194.81,-481.15 1205.38,-480.49 1196.71,-474.41 1194.81,-481.15"/>
</g>
<!-- Node30 -->
<g id="node30" class="node">
<title>Node30</title>
<g id="a_node30"><a xlink:href="../../db/d12/unknwn_8h.html" target="_top" xlink:title=" ">
<polygon fill="none" stroke="black" points="882,-268.5 882,-298.5 1000,-298.5 1000,-268.5 882,-268.5"/>
<text text-anchor="start" x="890" y="-286.5" font-family="Helvetica,sans-Serif" font-size="10.00">Tools/MinGW/include</text>
<text text-anchor="middle" x="941" y="-275.5" font-family="Helvetica,sans-Serif" font-size="10.00">/unknwn.h</text>
</a>
</g>
</g>
<!-- Node7&#45;&gt;Node30 -->
<g id="edge45" class="edge">
<title>Node7&#45;&gt;Node30</title>
<path fill="none" stroke="midnightblue" d="M1189.29,-490.53C1109.81,-484.76 986.06,-471.56 949,-444 907.83,-413.38 897.41,-384.47 911,-335 914.67,-321.63 922.91,-308.21 929.83,-298.57"/>
<polygon fill="midnightblue" stroke="midnightblue" points="1189.5,-494.06 1199.72,-491.27 1189.99,-487.08 1189.5,-494.06"/>
</g>
<!-- Node31 -->
<g id="node31" class="node">
<title>Node31</title>
<g id="a_node31"><a xlink:href="../../dd/d90/Tools_2MinGW_2include_2SDL_2SDL__syswm_8h.html" target="_top" xlink:title=" ">
<polygon fill="none" stroke="black" points="1132,-408 1132,-438 1250,-438 1250,-408 1132,-408"/>
<text text-anchor="start" x="1140" y="-426" font-family="Helvetica,sans-Serif" font-size="10.00">Tools/MinGW/include</text>
<text text-anchor="middle" x="1191" y="-415" font-family="Helvetica,sans-Serif" font-size="10.00">/SDL/SDL_syswm.h</text>
</a>
</g>
</g>
<!-- Node7&#45;&gt;Node31 -->
<g id="edge42" class="edge">
<title>Node7&#45;&gt;Node31</title>
<path fill="none" stroke="midnightblue" d="M1238.13,-472.86C1227.28,-461.61 1214.32,-448.18 1204.74,-438.25"/>
<polygon fill="midnightblue" stroke="midnightblue" points="1235.78,-475.47 1245.24,-480.23 1240.82,-470.61 1235.78,-475.47"/>
</g>
<!-- Node32 -->
<g id="node32" class="node">
<title>Node32</title>
<g id="a_node32"><a xlink:href="../../de/d96/snmp_8h.html" target="_top" xlink:title=" ">
<polygon fill="none" stroke="black" points="1268,-408 1268,-438 1386,-438 1386,-408 1268,-408"/>
<text text-anchor="start" x="1276" y="-426" font-family="Helvetica,sans-Serif" font-size="10.00">Tools/MinGW/include</text>
<text text-anchor="middle" x="1327" y="-415" font-family="Helvetica,sans-Serif" font-size="10.00">/snmp.h</text>
</a>
</g>
</g>
<!-- Node7&#45;&gt;Node32 -->
<g id="edge43" class="edge">
<title>Node7&#45;&gt;Node32</title>
<path fill="none" stroke="midnightblue" d="M1279.87,-472.86C1290.72,-461.61 1303.68,-448.18 1313.26,-438.25"/>
<polygon fill="midnightblue" stroke="midnightblue" points="1277.18,-470.61 1272.76,-480.23 1282.22,-475.47 1277.18,-470.61"/>
</g>
<!-- Node34 -->
<g id="node34" class="node">
<title>Node34</title>
<g id="a_node34"><a xlink:href="../../d0/d19/usp10_8h.html" target="_top" xlink:title=" ">
<polygon fill="none" stroke="black" points="1404,-408 1404,-438 1522,-438 1522,-408 1404,-408"/>
<text text-anchor="start" x="1412" y="-426" font-family="Helvetica,sans-Serif" font-size="10.00">Tools/MinGW/include</text>
<text text-anchor="middle" x="1463" y="-415" font-family="Helvetica,sans-Serif" font-size="10.00">/usp10.h</text>
</a>
</g>
</g>
<!-- Node7&#45;&gt;Node34 -->
<g id="edge46" class="edge">
<title>Node7&#45;&gt;Node34</title>
<path fill="none" stroke="midnightblue" d="M1309.29,-477.12C1344.08,-465.1 1389.78,-449.31 1422.28,-438.07"/>
<polygon fill="midnightblue" stroke="midnightblue" points="1308.1,-473.83 1299.79,-480.4 1310.39,-480.44 1308.1,-473.83"/>
</g>
<!-- Node35 -->
<g id="node35" class="node">
<title>Node35</title>
<g id="a_node35"><a xlink:href="../../d8/d73/wininet_8h.html" target="_top" xlink:title=" ">
<polygon fill="none" stroke="black" points="1540,-408 1540,-438 1658,-438 1658,-408 1540,-408"/>
<text text-anchor="start" x="1548" y="-426" font-family="Helvetica,sans-Serif" font-size="10.00">Tools/MinGW/include</text>
<text text-anchor="middle" x="1599" y="-415" font-family="Helvetica,sans-Serif" font-size="10.00">/wininet.h</text>
</a>
</g>
</g>
<!-- Node7&#45;&gt;Node35 -->
<g id="edge48" class="edge">
<title>Node7&#45;&gt;Node35</title>
<path fill="none" stroke="midnightblue" d="M1328.29,-483.65C1383.5,-474.52 1462.62,-460.36 1531,-444 1538.3,-442.25 1545.98,-440.2 1553.45,-438.09"/>
<polygon fill="midnightblue" stroke="midnightblue" points="1327.56,-480.22 1318.26,-485.3 1328.7,-487.13 1327.56,-480.22"/>
</g>
<!-- Node36 -->
<g id="node36" class="node">
<title>Node36</title>
<g id="a_node36"><a xlink:href="../../da/d15/winsnmp_8h.html" target="_top" xlink:title=" ">
<polygon fill="none" stroke="black" points="1676,-408 1676,-438 1794,-438 1794,-408 1676,-408"/>
<text text-anchor="start" x="1684" y="-426" font-family="Helvetica,sans-Serif" font-size="10.00">Tools/MinGW/include</text>
<text text-anchor="middle" x="1735" y="-415" font-family="Helvetica,sans-Serif" font-size="10.00">/winsnmp.h</text>
</a>
</g>
</g>
<!-- Node7&#45;&gt;Node36 -->
<g id="edge49" class="edge">
<title>Node7&#45;&gt;Node36</title>
<path fill="none" stroke="midnightblue" d="M1328.43,-489.37C1410.07,-482.55 1549.38,-468.41 1667,-444 1674.83,-442.37 1683.07,-440.29 1691,-438.07"/>
<polygon fill="midnightblue" stroke="midnightblue" points="1327.95,-485.9 1318.28,-490.21 1328.53,-492.88 1327.95,-485.9"/>
</g>
<!-- Node37 -->
<g id="node37" class="node">
<title>Node37</title>
<g id="a_node37"><a xlink:href="../../da/de8/winsock_8h.html" target="_top" xlink:title=" ">
<polygon fill="none" stroke="black" points="1812,-408 1812,-438 1930,-438 1930,-408 1812,-408"/>
<text text-anchor="start" x="1820" y="-426" font-family="Helvetica,sans-Serif" font-size="10.00">Tools/MinGW/include</text>
<text text-anchor="middle" x="1871" y="-415" font-family="Helvetica,sans-Serif" font-size="10.00">/winsock.h</text>
</a>
</g>
</g>
<!-- Node7&#45;&gt;Node37 -->
<g id="edge50" class="edge">
<title>Node7&#45;&gt;Node37</title>
<path fill="none" stroke="midnightblue" d="M1328.35,-492.35C1432.32,-488.17 1634.41,-476.3 1803,-444 1811.1,-442.45 1819.61,-440.34 1827.78,-438.07"/>
<polygon fill="midnightblue" stroke="midnightblue" points="1328.15,-488.86 1318.29,-492.75 1328.42,-495.85 1328.15,-488.86"/>
</g>
<!-- Node38 -->
<g id="node38" class="node">
<title>Node38</title>
<g id="a_node38"><a xlink:href="../../dd/d21/winsock2_8h.html" target="_top" xlink:title=" ">
<polygon fill="none" stroke="black" points="1948,-408 1948,-438 2066,-438 2066,-408 1948,-408"/>
<text text-anchor="start" x="1956" y="-426" font-family="Helvetica,sans-Serif" font-size="10.00">Tools/MinGW/include</text>
<text text-anchor="middle" x="2007" y="-415" font-family="Helvetica,sans-Serif" font-size="10.00">/winsock2.h</text>
</a>
</g>
</g>
<!-- Node7&#45;&gt;Node38 -->
<g id="edge51" class="edge">
<title>Node7&#45;&gt;Node38</title>
<path fill="none" stroke="midnightblue" d="M1328.47,-494.1C1450.99,-492.28 1712.72,-483.56 1930,-444 1938.23,-442.5 1946.89,-440.39 1955.33,-438.09"/>
<polygon fill="midnightblue" stroke="midnightblue" points="1328.07,-490.61 1318.12,-494.24 1328.17,-497.61 1328.07,-490.61"/>
</g>
<!-- Node18 -->
<g id="node18" class="node">
<title>Node18</title>
<g id="a_node18"><a xlink:href="../../d8/dfc/exdisp_8h.html" target="_top" xlink:title=" ">
<polygon fill="none" stroke="black" points="1255,-0.5 1255,-30.5 1373,-30.5 1373,-0.5 1255,-0.5"/>
<text text-anchor="start" x="1263" y="-18.5" font-family="Helvetica,sans-Serif" font-size="10.00">Tools/MinGW/include</text>
<text text-anchor="middle" x="1314" y="-7.5" font-family="Helvetica,sans-Serif" font-size="10.00">/exdisp.h</text>
</a>
</g>
</g>
<!-- Node17&#45;&gt;Node18 -->
<g id="edge18" class="edge">
<title>Node17&#45;&gt;Node18</title>
<path fill="none" stroke="midnightblue" d="M1436.82,-261.95C1470.56,-233.46 1521.2,-180.26 1496,-134 1466.77,-80.33 1401.31,-47.45 1357.4,-30.59"/>
<polygon fill="midnightblue" stroke="midnightblue" points="1434.59,-259.25 1429.08,-268.31 1439.03,-264.66 1434.59,-259.25"/>
</g>
<!-- Node19 -->
<g id="node19" class="node">
<title>Node19</title>
<g id="a_node19"><a xlink:href="../../d7/dce/oleauto_8h.html" target="_top" xlink:title=" ">
<polygon fill="none" stroke="black" points="1307,-201.5 1307,-231.5 1425,-231.5 1425,-201.5 1307,-201.5"/>
<text text-anchor="start" x="1315" y="-219.5" font-family="Helvetica,sans-Serif" font-size="10.00">Tools/MinGW/include</text>
<text text-anchor="middle" x="1366" y="-208.5" font-family="Helvetica,sans-Serif" font-size="10.00">/oleauto.h</text>
</a>
</g>
</g>
<!-- Node17&#45;&gt;Node19 -->
<g id="edge19" class="edge">
<title>Node17&#45;&gt;Node19</title>
<path fill="none" stroke="midnightblue" d="M1394.68,-259.87C1388.31,-250.46 1381.12,-239.83 1375.53,-231.58"/>
<polygon fill="midnightblue" stroke="midnightblue" points="1391.95,-262.08 1400.45,-268.4 1397.75,-258.15 1391.95,-262.08"/>
</g>
<!-- Node20 -->
<g id="node20" class="node">
<title>Node20</title>
<g id="a_node20"><a xlink:href="../../dd/db6/ole2_8h.html" target="_top" xlink:title=" ">
<polygon fill="none" stroke="black" points="1369,-134.5 1369,-164.5 1487,-164.5 1487,-134.5 1369,-134.5"/>
<text text-anchor="start" x="1377" y="-152.5" font-family="Helvetica,sans-Serif" font-size="10.00">Tools/MinGW/include</text>
<text text-anchor="middle" x="1428" y="-141.5" font-family="Helvetica,sans-Serif" font-size="10.00">/ole2.h</text>
</a>
</g>
</g>
<!-- Node19&#45;&gt;Node20 -->
<g id="edge20" class="edge">
<title>Node19&#45;&gt;Node20</title>
<path fill="none" stroke="midnightblue" d="M1386.48,-194.02C1395.72,-184.34 1406.37,-173.17 1414.57,-164.58"/>
<polygon fill="midnightblue" stroke="midnightblue" points="1383.82,-191.74 1379.45,-201.4 1388.89,-196.58 1383.82,-191.74"/>
</g>
<!-- Node20&#45;&gt;Node3 -->
<g id="edge26" class="edge">
<title>Node20&#45;&gt;Node3</title>
<path fill="none" stroke="midnightblue" d="M1358.7,-133.94C1162.78,-106.04 1109.2,-126.18 917,-98 914.13,-97.58 911.21,-97.11 908.26,-96.61"/>
<polygon fill="midnightblue" stroke="midnightblue" points="1358.34,-137.42 1368.74,-135.39 1359.35,-130.5 1358.34,-137.42"/>
</g>
<!-- Node20&#45;&gt;Node4 -->
<g id="edge27" class="edge">
<title>Node20&#45;&gt;Node4</title>
<path fill="none" stroke="midnightblue" d="M1497.54,-143.28C1600.05,-135.3 1797.67,-118.76 1965,-98 1976.31,-96.6 1988.35,-94.9 1999.9,-93.16"/>
<polygon fill="midnightblue" stroke="midnightblue" points="1497.02,-139.81 1487.32,-144.08 1497.56,-146.79 1497.02,-139.81"/>
</g>
<!-- Node20&#45;&gt;Node12 -->
<g id="edge21" class="edge">
<title>Node20&#45;&gt;Node12</title>
<path fill="none" stroke="midnightblue" d="M1497.47,-138.87C1589.69,-126.09 1750.94,-103.74 1837.71,-91.72"/>
<polygon fill="midnightblue" stroke="midnightblue" points="1496.82,-135.43 1487.4,-140.27 1497.79,-142.36 1496.82,-135.43"/>
</g>
<!-- Node20&#45;&gt;Node17 -->
<g id="edge22" class="edge">
<title>Node20&#45;&gt;Node17</title>
<path fill="none" stroke="midnightblue" d="M1433.41,-174.38C1436.23,-190.77 1438.3,-212.93 1434,-232 1431.1,-244.88 1424.5,-258.33 1418.96,-268.1"/>
<polygon fill="midnightblue" stroke="midnightblue" points="1436.84,-173.68 1431.5,-164.53 1429.96,-175.01 1436.84,-173.68"/>
</g>
<!-- Node21 -->
<g id="node21" class="node">
<title>Node21</title>
<g id="a_node21"><a xlink:href="../../dc/d2a/ocidl_8h.html" target="_top" xlink:title=" ">
<polygon fill="none" stroke="black" points="926,-67.5 926,-97.5 1044,-97.5 1044,-67.5 926,-67.5"/>
<text text-anchor="start" x="934" y="-85.5" font-family="Helvetica,sans-Serif" font-size="10.00">Tools/MinGW/include</text>
<text text-anchor="middle" x="985" y="-74.5" font-family="Helvetica,sans-Serif" font-size="10.00">/ocidl.h</text>
</a>
</g>
</g>
<!-- Node20&#45;&gt;Node21 -->
<g id="edge23" class="edge">
<title>Node20&#45;&gt;Node21</title>
<path fill="none" stroke="midnightblue" d="M1358.52,-133.82C1241.65,-113.81 1116.33,-98.37 1044.32,-90.07"/>
<polygon fill="midnightblue" stroke="midnightblue" points="1358.26,-137.33 1368.71,-135.58 1359.46,-130.43 1358.26,-137.33"/>
</g>
<!-- Node20&#45;&gt;Node23 -->
<g id="edge28" class="edge">
<title>Node20&#45;&gt;Node23</title>
<path fill="none" stroke="midnightblue" d="M1497.03,-132.47C1543.53,-121.68 1604.22,-107.59 1648.56,-97.3"/>
<polygon fill="midnightblue" stroke="midnightblue" points="1495.99,-129.12 1487.04,-134.79 1497.57,-135.94 1495.99,-129.12"/>
</g>
<!-- Node21&#45;&gt;Node18 -->
<g id="edge24" class="edge">
<title>Node21&#45;&gt;Node18</title>
<path fill="none" stroke="midnightblue" d="M1054.22,-67.75C1055.49,-67.5 1056.75,-67.25 1058,-67 1125.44,-53.65 1202.88,-38.38 1254.77,-28.16"/>
<polygon fill="midnightblue" stroke="midnightblue" points="1053.49,-64.33 1044.36,-69.7 1054.85,-71.19 1053.49,-64.33"/>
</g>
<!-- Node22 -->
<g id="node22" class="node">
<title>Node22</title>
<g id="a_node22"><a xlink:href="../../d6/d60/olectl_8h.html" target="_top" xlink:title=" ">
<polygon fill="none" stroke="black" points="926,-0.5 926,-30.5 1044,-30.5 1044,-0.5 926,-0.5"/>
<text text-anchor="start" x="934" y="-18.5" font-family="Helvetica,sans-Serif" font-size="10.00">Tools/MinGW/include</text>
<text text-anchor="middle" x="985" y="-7.5" font-family="Helvetica,sans-Serif" font-size="10.00">/olectl.h</text>
</a>
</g>
</g>
<!-- Node21&#45;&gt;Node22 -->
<g id="edge25" class="edge">
<title>Node21&#45;&gt;Node22</title>
<path fill="none" stroke="midnightblue" d="M985,-57.11C985,-48.15 985,-38.32 985,-30.58"/>
<polygon fill="midnightblue" stroke="midnightblue" points="981.5,-57.4 985,-67.4 988.5,-57.4 981.5,-57.4"/>
</g>
<!-- Node24&#45;&gt;Node7 -->
<g id="edge37" class="edge">
<title>Node24&#45;&gt;Node7</title>
<path fill="none" stroke="midnightblue" d="M1080.72,-440.86C1123.57,-452.96 1178.81,-469.09 1216.41,-480.49"/>
<polygon fill="midnightblue" stroke="midnightblue" points="1081.53,-437.45 1070.95,-438.11 1079.63,-444.19 1081.53,-437.45"/>
</g>
<!-- Node25 -->
<g id="node25" class="node">
<title>Node25</title>
<g id="a_node25"><a xlink:href="../../d0/d4a/objbase_8h.html" target="_top" xlink:title=" ">
<polygon fill="none" stroke="black" points="1010,-201.5 1010,-231.5 1128,-231.5 1128,-201.5 1010,-201.5"/>
<text text-anchor="start" x="1018" y="-219.5" font-family="Helvetica,sans-Serif" font-size="10.00">Tools/MinGW/include</text>
<text text-anchor="middle" x="1069" y="-208.5" font-family="Helvetica,sans-Serif" font-size="10.00">/objbase.h</text>
</a>
</g>
</g>
<!-- Node24&#45;&gt;Node25 -->
<g id="edge31" class="edge">
<title>Node24&#45;&gt;Node25</title>
<path fill="none" stroke="midnightblue" d="M1031.56,-399.14C1037.21,-389.29 1043.22,-377.43 1047,-366 1062.71,-318.49 1067.23,-258.71 1068.51,-231.8"/>
<polygon fill="midnightblue" stroke="midnightblue" points="1028.46,-397.5 1026.34,-407.88 1034.47,-401.09 1028.46,-397.5"/>
</g>
<!-- Node28 -->
<g id="node28" class="node">
<title>Node28</title>
<g id="a_node28"><a xlink:href="../../de/d17/rpcproxy_8h.html" target="_top" xlink:title=" ">
<polygon fill="none" stroke="black" points="1094,-335.5 1094,-365.5 1212,-365.5 1212,-335.5 1094,-335.5"/>
<text text-anchor="start" x="1102" y="-353.5" font-family="Helvetica,sans-Serif" font-size="10.00">Tools/MinGW/include</text>
<text text-anchor="middle" x="1153" y="-342.5" font-family="Helvetica,sans-Serif" font-size="10.00">/rpcproxy.h</text>
</a>
</g>
</g>
<!-- Node24&#45;&gt;Node28 -->
<g id="edge36" class="edge">
<title>Node24&#45;&gt;Node28</title>
<path fill="none" stroke="midnightblue" d="M1053.24,-403.22C1076.05,-391.39 1105.02,-376.37 1125.85,-365.57"/>
<polygon fill="midnightblue" stroke="midnightblue" points="1051.46,-400.19 1044.19,-407.9 1054.68,-406.41 1051.46,-400.19"/>
</g>
<!-- Node29 -->
<g id="node29" class="node">
<title>Node29</title>
<g id="a_node29"><a xlink:href="../../d6/db2/wtypes_8h.html" target="_top" xlink:title=" ">
<polygon fill="none" stroke="black" points="920,-335.5 920,-365.5 1038,-365.5 1038,-335.5 920,-335.5"/>
<text text-anchor="start" x="928" y="-353.5" font-family="Helvetica,sans-Serif" font-size="10.00">Tools/MinGW/include</text>
<text text-anchor="middle" x="979" y="-342.5" font-family="Helvetica,sans-Serif" font-size="10.00">/wtypes.h</text>
</a>
</g>
</g>
<!-- Node24&#45;&gt;Node29 -->
<g id="edge38" class="edge">
<title>Node24&#45;&gt;Node29</title>
<path fill="none" stroke="midnightblue" d="M1004.46,-398.73C998.58,-387.83 991.78,-375.2 986.68,-365.75"/>
<polygon fill="midnightblue" stroke="midnightblue" points="1001.48,-400.59 1009.31,-407.73 1007.65,-397.27 1001.48,-400.59"/>
</g>
<!-- Node25&#45;&gt;Node6 -->
<g id="edge35" class="edge">
<title>Node25&#45;&gt;Node6</title>
<path fill="none" stroke="midnightblue" d="M1067.91,-191.14C1068.49,-172.78 1072.5,-148.4 1088,-134 1188.16,-40.93 1619.03,-21.54 1777.88,-17.53"/>
<polygon fill="midnightblue" stroke="midnightblue" points="1064.41,-191.38 1067.91,-201.38 1071.41,-191.38 1064.41,-191.38"/>
</g>
<!-- Node25&#45;&gt;Node20 -->
<g id="edge34" class="edge">
<title>Node25&#45;&gt;Node20</title>
<path fill="none" stroke="midnightblue" d="M1138.16,-204.26C1197.2,-194.49 1284.33,-179.63 1360,-165 1362.84,-164.45 1365.75,-163.88 1368.69,-163.29"/>
<polygon fill="midnightblue" stroke="midnightblue" points="1137.5,-200.83 1128.2,-205.91 1138.64,-207.73 1137.5,-200.83"/>
</g>
<!-- Node26 -->
<g id="node26" class="node">
<title>Node26</title>
<g id="a_node26"><a xlink:href="../../d2/d04/aclui_8h.html" target="_top" xlink:title=" ">
<polygon fill="none" stroke="black" points="1097,-134.5 1097,-164.5 1215,-164.5 1215,-134.5 1097,-134.5"/>
<text text-anchor="start" x="1105" y="-152.5" font-family="Helvetica,sans-Serif" font-size="10.00">Tools/MinGW/include</text>
<text text-anchor="middle" x="1156" y="-141.5" font-family="Helvetica,sans-Serif" font-size="10.00">/aclui.h</text>
</a>
</g>
</g>
<!-- Node25&#45;&gt;Node26 -->
<g id="edge32" class="edge">
<title>Node25&#45;&gt;Node26</title>
<path fill="none" stroke="midnightblue" d="M1096.21,-195.17C1109.52,-185.23 1125.2,-173.51 1137.16,-164.58"/>
<polygon fill="midnightblue" stroke="midnightblue" points="1093.79,-192.61 1087.88,-201.4 1097.98,-198.21 1093.79,-192.61"/>
</g>
<!-- Node27 -->
<g id="node27" class="node">
<title>Node27</title>
<g id="a_node27"><a xlink:href="../../d3/d16/d3d9_8h.html" target="_top" xlink:title=" ">
<polygon fill="none" stroke="black" points="1233,-134.5 1233,-164.5 1351,-164.5 1351,-134.5 1233,-134.5"/>
<text text-anchor="start" x="1241" y="-152.5" font-family="Helvetica,sans-Serif" font-size="10.00">Tools/MinGW/include</text>
<text text-anchor="middle" x="1292" y="-141.5" font-family="Helvetica,sans-Serif" font-size="10.00">/d3d9.h</text>
</a>
</g>
</g>
<!-- Node25&#45;&gt;Node27 -->
<g id="edge33" class="edge">
<title>Node25&#45;&gt;Node27</title>
<path fill="none" stroke="midnightblue" d="M1127.05,-198.58C1163.27,-188.02 1209.35,-174.59 1243.59,-164.61"/>
<polygon fill="midnightblue" stroke="midnightblue" points="1125.73,-195.32 1117.11,-201.48 1127.69,-202.04 1125.73,-195.32"/>
</g>
<!-- Node29&#45;&gt;Node25 -->
<g id="edge39" class="edge">
<title>Node29&#45;&gt;Node25</title>
<path fill="none" stroke="midnightblue" d="M994.45,-326.83C1013.11,-299.47 1043.92,-254.28 1059.44,-231.52"/>
<polygon fill="midnightblue" stroke="midnightblue" points="991.37,-325.14 988.63,-335.37 997.16,-329.08 991.37,-325.14"/>
</g>
<!-- Node29&#45;&gt;Node30 -->
<g id="edge40" class="edge">
<title>Node29&#45;&gt;Node30</title>
<path fill="none" stroke="midnightblue" d="M965.6,-326.58C960.14,-317.24 954.01,-306.75 949.23,-298.58"/>
<polygon fill="midnightblue" stroke="midnightblue" points="962.69,-328.53 970.75,-335.4 968.73,-325 962.69,-328.53"/>
</g>
<!-- Node30&#45;&gt;Node25 -->
<g id="edge41" class="edge">
<title>Node30&#45;&gt;Node25</title>
<path fill="none" stroke="midnightblue" d="M977.72,-263.85C997.96,-253.58 1022.67,-241.03 1041.28,-231.58"/>
<polygon fill="midnightblue" stroke="midnightblue" points="976.11,-260.75 968.77,-268.4 979.28,-266.99 976.11,-260.75"/>
</g>
<!-- Node33 -->
<g id="node33" class="node">
<title>Node33</title>
<g id="a_node33"><a xlink:href="../../db/d7b/mgmtapi_8h.html" target="_top" xlink:title=" ">
<polygon fill="none" stroke="black" points="1268,-335.5 1268,-365.5 1386,-365.5 1386,-335.5 1268,-335.5"/>
<text text-anchor="start" x="1276" y="-353.5" font-family="Helvetica,sans-Serif" font-size="10.00">Tools/MinGW/include</text>
<text text-anchor="middle" x="1327" y="-342.5" font-family="Helvetica,sans-Serif" font-size="10.00">/mgmtapi.h</text>
</a>
</g>
</g>
<!-- Node32&#45;&gt;Node33 -->
<g id="edge44" class="edge">
<title>Node32&#45;&gt;Node33</title>
<path fill="none" stroke="midnightblue" d="M1327,-397.73C1327,-387.07 1327,-374.91 1327,-365.75"/>
<polygon fill="midnightblue" stroke="midnightblue" points="1323.5,-397.73 1327,-407.73 1330.5,-397.73 1323.5,-397.73"/>
</g>
<!-- Node38&#45;&gt;Node7 -->
<g id="edge56" class="edge">
<title>Node38&#45;&gt;Node7</title>
<path fill="none" stroke="midnightblue" d="M1963.3,-440.67C1958.19,-441.94 1953.02,-443.09 1948,-444 1717.98,-485.88 1438.15,-493.2 1318.13,-494.35"/>
<polygon fill="midnightblue" stroke="midnightblue" points="1964.23,-444.05 1973,-438.09 1962.43,-437.28 1964.23,-444.05"/>
</g>
<!-- Node39 -->
<g id="node39" class="node">
<title>Node39</title>
<g id="a_node39"><a xlink:href="../../d9/d16/ndis_8h.html" target="_top" xlink:title=" ">
<polygon fill="none" stroke="black" points="1812,-335.5 1812,-365.5 1930,-365.5 1930,-335.5 1812,-335.5"/>
<text text-anchor="start" x="1820" y="-353.5" font-family="Helvetica,sans-Serif" font-size="10.00">Tools/MinGW/include</text>
<text text-anchor="middle" x="1871" y="-342.5" font-family="Helvetica,sans-Serif" font-size="10.00">/ddk/ndis.h</text>
</a>
</g>
</g>
<!-- Node38&#45;&gt;Node39 -->
<g id="edge52" class="edge">
<title>Node38&#45;&gt;Node39</title>
<path fill="none" stroke="midnightblue" d="M1970.76,-403.22C1947.95,-391.39 1918.98,-376.37 1898.15,-365.57"/>
<polygon fill="midnightblue" stroke="midnightblue" points="1969.32,-406.41 1979.81,-407.9 1972.54,-400.19 1969.32,-406.41"/>
</g>
<!-- Node42 -->
<g id="node42" class="node">
<title>Node42</title>
<g id="a_node42"><a xlink:href="../../d1/d0d/ws2san_8h.html" target="_top" xlink:title=" ">
<polygon fill="none" stroke="black" points="1948,-335.5 1948,-365.5 2066,-365.5 2066,-335.5 1948,-335.5"/>
<text text-anchor="start" x="1956" y="-353.5" font-family="Helvetica,sans-Serif" font-size="10.00">Tools/MinGW/include</text>
<text text-anchor="middle" x="2007" y="-342.5" font-family="Helvetica,sans-Serif" font-size="10.00">/ddk/ws2san.h</text>
</a>
</g>
</g>
<!-- Node38&#45;&gt;Node42 -->
<g id="edge55" class="edge">
<title>Node38&#45;&gt;Node42</title>
<path fill="none" stroke="midnightblue" d="M2007,-397.73C2007,-387.07 2007,-374.91 2007,-365.75"/>
<polygon fill="midnightblue" stroke="midnightblue" points="2003.5,-397.73 2007,-407.73 2010.5,-397.73 2003.5,-397.73"/>
</g>
<!-- Node43 -->
<g id="node43" class="node">
<title>Node43</title>
<g id="a_node43"><a xlink:href="../../d4/d62/ws2spi_8h.html" target="_top" xlink:title=" ">
<polygon fill="none" stroke="black" points="1404,-335.5 1404,-365.5 1522,-365.5 1522,-335.5 1404,-335.5"/>
<text text-anchor="start" x="1412" y="-353.5" font-family="Helvetica,sans-Serif" font-size="10.00">Tools/MinGW/include</text>
<text text-anchor="middle" x="1463" y="-342.5" font-family="Helvetica,sans-Serif" font-size="10.00">/ws2spi.h</text>
</a>
</g>
</g>
<!-- Node38&#45;&gt;Node43 -->
<g id="edge57" class="edge">
<title>Node38&#45;&gt;Node43</title>
<path fill="none" stroke="midnightblue" d="M1954.1,-405.34C1949.03,-404.08 1943.94,-402.93 1939,-402 1760.14,-368.15 1711.02,-393.03 1531,-366 1528.14,-365.57 1525.21,-365.09 1522.26,-364.58"/>
<polygon fill="midnightblue" stroke="midnightblue" points="1953.22,-408.73 1963.78,-407.9 1955.01,-401.96 1953.22,-408.73"/>
</g>
<!-- Node44 -->
<g id="node44" class="node">
<title>Node44</title>
<g id="a_node44"><a xlink:href="../../d2/df0/ws2tcpip_8h.html" target="_top" xlink:title=" ">
<polygon fill="none" stroke="black" points="1540,-335.5 1540,-365.5 1658,-365.5 1658,-335.5 1540,-335.5"/>
<text text-anchor="start" x="1548" y="-353.5" font-family="Helvetica,sans-Serif" font-size="10.00">Tools/MinGW/include</text>
<text text-anchor="middle" x="1599" y="-342.5" font-family="Helvetica,sans-Serif" font-size="10.00">/ws2tcpip.h</text>
</a>
</g>
</g>
<!-- Node38&#45;&gt;Node44 -->
<g id="edge58" class="edge">
<title>Node38&#45;&gt;Node44</title>
<path fill="none" stroke="midnightblue" d="M1953.22,-405.36C1948.44,-404.13 1943.65,-402.98 1939,-402 1819.71,-376.72 1787.17,-386.73 1667,-366 1664.15,-365.51 1661.23,-364.98 1658.29,-364.43"/>
<polygon fill="midnightblue" stroke="midnightblue" points="1952.43,-408.77 1962.99,-407.98 1954.24,-402.01 1952.43,-408.77"/>
</g>
<!-- Node45 -->
<g id="node45" class="node">
<title>Node45</title>
<g id="a_node45"><a xlink:href="../../db/dce/wsahelp_8h.html" target="_top" xlink:title=" ">
<polygon fill="none" stroke="black" points="1676,-335.5 1676,-365.5 1794,-365.5 1794,-335.5 1676,-335.5"/>
<text text-anchor="start" x="1684" y="-353.5" font-family="Helvetica,sans-Serif" font-size="10.00">Tools/MinGW/include</text>
<text text-anchor="middle" x="1735" y="-342.5" font-family="Helvetica,sans-Serif" font-size="10.00">/wsahelp.h</text>
</a>
</g>
</g>
<!-- Node38&#45;&gt;Node45 -->
<g id="edge59" class="edge">
<title>Node38&#45;&gt;Node45</title>
<path fill="none" stroke="midnightblue" d="M1950.55,-405.19C1946.65,-404.09 1942.77,-403.02 1939,-402 1890.4,-388.84 1834.92,-375.2 1794.09,-365.41"/>
<polygon fill="midnightblue" stroke="midnightblue" points="1949.68,-408.58 1960.25,-407.96 1951.6,-401.85 1949.68,-408.58"/>
</g>
<!-- Node40 -->
<g id="node40" class="node">
<title>Node40</title>
<g id="a_node40"><a xlink:href="../../db/d40/ndistapi_8h.html" target="_top" xlink:title=" ">
<polygon fill="none" stroke="black" points="1744,-268.5 1744,-298.5 1862,-298.5 1862,-268.5 1744,-268.5"/>
<text text-anchor="start" x="1752" y="-286.5" font-family="Helvetica,sans-Serif" font-size="10.00">Tools/MinGW/include</text>
<text text-anchor="middle" x="1803" y="-275.5" font-family="Helvetica,sans-Serif" font-size="10.00">/ddk/ndistapi.h</text>
</a>
</g>
</g>
<!-- Node39&#45;&gt;Node40 -->
<g id="edge53" class="edge">
<title>Node39&#45;&gt;Node40</title>
<path fill="none" stroke="midnightblue" d="M1848.83,-328.31C1838.63,-318.56 1826.81,-307.26 1817.73,-298.58"/>
<polygon fill="midnightblue" stroke="midnightblue" points="1846.6,-331.02 1856.25,-335.4 1851.43,-325.96 1846.6,-331.02"/>
</g>
<!-- Node41 -->
<g id="node41" class="node">
<title>Node41</title>
<g id="a_node41"><a xlink:href="../../d4/db3/ndiswan_8h.html" target="_top" xlink:title=" ">
<polygon fill="none" stroke="black" points="1880,-268.5 1880,-298.5 1998,-298.5 1998,-268.5 1880,-268.5"/>
<text text-anchor="start" x="1888" y="-286.5" font-family="Helvetica,sans-Serif" font-size="10.00">Tools/MinGW/include</text>
<text text-anchor="middle" x="1939" y="-275.5" font-family="Helvetica,sans-Serif" font-size="10.00">/ddk/ndiswan.h</text>
</a>
</g>
</g>
<!-- Node39&#45;&gt;Node41 -->
<g id="edge54" class="edge">
<title>Node39&#45;&gt;Node41</title>
<path fill="none" stroke="midnightblue" d="M1893.17,-328.31C1903.37,-318.56 1915.19,-307.26 1924.27,-298.58"/>
<polygon fill="midnightblue" stroke="midnightblue" points="1890.57,-325.96 1885.75,-335.4 1895.4,-331.02 1890.57,-325.96"/>
</g>
</g>
</svg>
