<?xml version="1.0" encoding="UTF-8" standalone="no"?>
<!DOCTYPE svg PUBLIC "-//W3C//DTD SVG 1.1//EN"
 "http://www.w3.org/Graphics/SVG/1.1/DTD/svg11.dtd">
<!-- Generated by graphviz version 2.43.0 (0)
 -->
<!-- Title: _findtextexW Pages: 1 -->
<svg width="194pt" height="106pt"
 viewBox="0.00 0.00 194.00 106.00" xmlns="http://www.w3.org/2000/svg" xmlns:xlink="http://www.w3.org/1999/xlink">
<g id="graph0" class="graph" transform="scale(1 1) rotate(0) translate(4 102)">
<title>_findtextexW</title>
<!-- Node1 -->
<g id="node1" class="node">
<title>Node1</title>
<g id="a_node1"><a xlink:title=" ">
<polygon fill="#bfbfbf" stroke="black" points="55,-0.5 55,-19.5 136,-19.5 136,-0.5 55,-0.5"/>
<text text-anchor="middle" x="95.5" y="-7.5" font-family="Helvetica,sans-Serif" font-size="10.00">_findtextexW</text>
</a>
</g>
</g>
<!-- Node2 -->
<g id="node2" class="node">
<title>Node2</title>
<g id="a_node2"><a xlink:title=" ">
<polygon fill="none" stroke="#bfbfbf" points="0,-78.5 0,-97.5 89,-97.5 89,-78.5 0,-78.5"/>
<text text-anchor="middle" x="44.5" y="-85.5" font-family="Helvetica,sans-Serif" font-size="10.00">unsigned short</text>
</a>
</g>
</g>
<!-- Node2&#45;&gt;Node1 -->
<g id="edge1" class="edge">
<title>Node2&#45;&gt;Node1</title>
<path fill="none" stroke="#9a32cd" stroke-dasharray="5,2" d="M56.2,-69.57C66.68,-53.95 81.61,-31.7 89.72,-19.62"/>
<polygon fill="#9a32cd" stroke="#9a32cd" points="53.02,-68.03 50.35,-78.28 58.83,-71.93 53.02,-68.03"/>
<text text-anchor="middle" x="99.5" y="-46.5" font-family="Helvetica,sans-Serif" font-size="10.00"> lpstrText</text>
</g>
<!-- Node3 -->
<g id="node3" class="node">
<title>Node3</title>
<g id="a_node3"><a xlink:title=" ">
<polygon fill="none" stroke="#bfbfbf" points="107,-78.5 107,-97.5 186,-97.5 186,-78.5 107,-78.5"/>
<text text-anchor="middle" x="146.5" y="-85.5" font-family="Helvetica,sans-Serif" font-size="10.00">CHARRANGE</text>
</a>
</g>
</g>
<!-- Node3&#45;&gt;Node1 -->
<g id="edge2" class="edge">
<title>Node3&#45;&gt;Node1</title>
<path fill="none" stroke="#9a32cd" stroke-dasharray="5,2" d="M140.43,-69.05C136.68,-59.35 131.28,-47.46 124.5,-38 119.53,-31.07 112.57,-24.51 106.72,-19.6"/>
<polygon fill="#9a32cd" stroke="#9a32cd" points="137.15,-70.27 143.84,-78.49 143.74,-67.89 137.15,-70.27"/>
<text text-anchor="middle" x="159" y="-52" font-family="Helvetica,sans-Serif" font-size="10.00"> chrgText</text>
<text text-anchor="middle" x="159" y="-41" font-family="Helvetica,sans-Serif" font-size="10.00">chrg</text>
</g>
</g>
</svg>
