<?xml version="1.0" encoding="UTF-8" standalone="no"?>
<!DOCTYPE svg PUBLIC "-//W3C//DTD SVG 1.1//EN"
 "http://www.w3.org/Graphics/SVG/1.1/DTD/svg11.dtd">
<!-- Generated by graphviz version 2.43.0 (0)
 -->
<!-- Title: FontFamily Pages: 1 -->
<svg width="300pt" height="95pt"
 viewBox="0.00 0.00 299.50 95.00" xmlns="http://www.w3.org/2000/svg" xmlns:xlink="http://www.w3.org/1999/xlink">
<g id="graph0" class="graph" transform="scale(1 1) rotate(0) translate(4 91)">
<title>FontFamily</title>
<!-- Node1 -->
<g id="node1" class="node">
<title>Node1</title>
<g id="a_node1"><a xlink:title=" ">
<polygon fill="#bfbfbf" stroke="black" points="106.5,-0.5 106.5,-19.5 176.5,-19.5 176.5,-0.5 106.5,-0.5"/>
<text text-anchor="middle" x="141.5" y="-7.5" font-family="Helvetica,sans-Serif" font-size="10.00">FontFamily</text>
</a>
</g>
</g>
<!-- Node2 -->
<g id="node2" class="node">
<title>Node2</title>
<g id="a_node2"><a xlink:href="../../d5/db2/classGdiplusBase.html" target="_top" xlink:title=" ">
<polygon fill="none" stroke="black" points="0,-67.5 0,-86.5 77,-86.5 77,-67.5 0,-67.5"/>
<text text-anchor="middle" x="38.5" y="-74.5" font-family="Helvetica,sans-Serif" font-size="10.00">GdiplusBase</text>
</a>
</g>
</g>
<!-- Node2&#45;&gt;Node1 -->
<g id="edge1" class="edge">
<title>Node2&#45;&gt;Node1</title>
<path fill="none" stroke="midnightblue" d="M61.05,-61.77C81.44,-48.9 110.79,-30.38 127.83,-19.63"/>
<polygon fill="midnightblue" stroke="midnightblue" points="58.98,-58.94 52.39,-67.23 62.72,-64.86 58.98,-58.94"/>
</g>
<!-- Node3 -->
<g id="node3" class="node">
<title>Node3</title>
<g id="a_node3"><a xlink:title=" ">
<polygon fill="none" stroke="#bfbfbf" points="95.5,-67.5 95.5,-86.5 187.5,-86.5 187.5,-67.5 95.5,-67.5"/>
<text text-anchor="middle" x="141.5" y="-74.5" font-family="Helvetica,sans-Serif" font-size="10.00">GpFontFamily *</text>
</a>
</g>
</g>
<!-- Node3&#45;&gt;Node1 -->
<g id="edge2" class="edge">
<title>Node3&#45;&gt;Node1</title>
<path fill="none" stroke="#9a32cd" stroke-dasharray="5,2" d="M141.5,-57.04C141.5,-44.67 141.5,-29.12 141.5,-19.63"/>
<polygon fill="#9a32cd" stroke="#9a32cd" points="138,-57.23 141.5,-67.23 145,-57.23 138,-57.23"/>
<text text-anchor="middle" x="185.5" y="-41" font-family="Helvetica,sans-Serif" font-size="10.00"> nativeFontFamily</text>
</g>
<!-- Node4 -->
<g id="node4" class="node">
<title>Node4</title>
<g id="a_node4"><a xlink:title=" ">
<polygon fill="none" stroke="#bfbfbf" points="229,-67.5 229,-86.5 276,-86.5 276,-67.5 229,-67.5"/>
<text text-anchor="middle" x="252.5" y="-74.5" font-family="Helvetica,sans-Serif" font-size="10.00">Status</text>
</a>
</g>
</g>
<!-- Node4&#45;&gt;Node1 -->
<g id="edge3" class="edge">
<title>Node4&#45;&gt;Node1</title>
<path fill="none" stroke="#9a32cd" stroke-dasharray="5,2" d="M245.49,-57.88C241.95,-50.79 237,-43.15 230.5,-38 215.19,-25.86 194.47,-19.17 176.87,-15.48"/>
<polygon fill="#9a32cd" stroke="#9a32cd" points="242.49,-59.73 249.69,-67.5 248.9,-56.93 242.49,-59.73"/>
<text text-anchor="middle" x="265.5" y="-41" font-family="Helvetica,sans-Serif" font-size="10.00"> lastStatus</text>
</g>
</g>
</svg>
