<?xml version="1.0" encoding="UTF-8" standalone="no"?>
<!DOCTYPE svg PUBLIC "-//W3C//DTD SVG 1.1//EN"
 "http://www.w3.org/Graphics/SVG/1.1/DTD/svg11.dtd">
<!-- Generated by graphviz version 2.43.0 (0)
 -->
<!-- Title: inflate_state Pages: 1 -->
<svg width="596pt" height="942pt"
 viewBox="0.00 0.00 596.00 942.00" xmlns="http://www.w3.org/2000/svg" xmlns:xlink="http://www.w3.org/1999/xlink">
<g id="graph0" class="graph" transform="scale(1 1) rotate(0) translate(4 938)">
<title>inflate_state</title>
<!-- Node1 -->
<g id="node1" class="node">
<title>Node1</title>
<g id="a_node1"><a xlink:title=" ">
<polygon fill="#bfbfbf" stroke="black" points="511,-76.5 511,-95.5 588,-95.5 588,-76.5 511,-76.5"/>
<text text-anchor="middle" x="549.5" y="-83.5" font-family="Helvetica,sans-Serif" font-size="10.00">inflate_state</text>
</a>
</g>
</g>
<!-- Node2 -->
<g id="node2" class="node">
<title>Node2</title>
<g id="a_node2"><a xlink:title=" ">
<polygon fill="none" stroke="#bfbfbf" points="16,-747.5 16,-766.5 45,-766.5 45,-747.5 16,-747.5"/>
<text text-anchor="middle" x="30.5" y="-754.5" font-family="Helvetica,sans-Serif" font-size="10.00">int</text>
</a>
</g>
</g>
<!-- Node2&#45;&gt;Node1 -->
<g id="edge1" class="edge">
<title>Node2&#45;&gt;Node1</title>
<path fill="none" stroke="#9a32cd" stroke-dasharray="5,2" d="M42.67,-775.59C60.62,-803.4 98.78,-854.72 147,-875 217.74,-904.74 259.94,-908.99 319,-860 447.24,-753.64 535.23,-177.26 547.12,-95.62"/>
<polygon fill="#9a32cd" stroke="#9a32cd" points="45.46,-773.44 37.19,-766.82 39.53,-777.16 45.46,-773.44"/>
<text text-anchor="middle" x="294.5" y="-926" font-family="Helvetica,sans-Serif" font-size="10.00"> flags</text>
<text text-anchor="middle" x="294.5" y="-915" font-family="Helvetica,sans-Serif" font-size="10.00">havedict</text>
<text text-anchor="middle" x="294.5" y="-904" font-family="Helvetica,sans-Serif" font-size="10.00">last</text>
<text text-anchor="middle" x="294.5" y="-893" font-family="Helvetica,sans-Serif" font-size="10.00">wrap</text>
</g>
<!-- Node3 -->
<g id="node3" class="node">
<title>Node3</title>
<g id="a_node3"><a xlink:href="../../da/da8/structcode.html" target="_top" xlink:title=" ">
<polygon fill="none" stroke="black" points="364.5,-515.5 364.5,-534.5 405.5,-534.5 405.5,-515.5 364.5,-515.5"/>
<text text-anchor="middle" x="385" y="-522.5" font-family="Helvetica,sans-Serif" font-size="10.00">Code</text>
</a>
</g>
</g>
<!-- Node2&#45;&gt;Node3 -->
<g id="edge15" class="edge">
<title>Node2&#45;&gt;Node3</title>
<path fill="none" stroke="#9a32cd" stroke-dasharray="5,2" d="M55.61,-756.58C117.69,-755 280.87,-747.47 319,-712 372.6,-662.13 382,-565.79 383.65,-534.83"/>
<polygon fill="#9a32cd" stroke="#9a32cd" points="55.16,-753.09 45.24,-756.81 55.32,-760.09 55.16,-753.09"/>
<text text-anchor="middle" x="199.5" y="-776" font-family="Helvetica,sans-Serif" font-size="10.00"> size</text>
<text text-anchor="middle" x="199.5" y="-765" font-family="Helvetica,sans-Serif" font-size="10.00">point</text>
<text text-anchor="middle" x="199.5" y="-754" font-family="Helvetica,sans-Serif" font-size="10.00">level</text>
</g>
<!-- Node13 -->
<g id="node13" class="node">
<title>Node13</title>
<g id="a_node13"><a xlink:href="../../d2/d08/structEnv.html" target="_top" xlink:title=" ">
<polygon fill="none" stroke="black" points="182,-701.5 182,-720.5 217,-720.5 217,-701.5 182,-701.5"/>
<text text-anchor="middle" x="199.5" y="-708.5" font-family="Helvetica,sans-Serif" font-size="10.00">Env</text>
</a>
</g>
</g>
<!-- Node2&#45;&gt;Node13 -->
<g id="edge13" class="edge">
<title>Node2&#45;&gt;Node13</title>
<path fill="none" stroke="#9a32cd" stroke-dasharray="5,2" d="M53.88,-743.39C61.61,-739.19 70.47,-734.91 79,-732 114.48,-719.88 158.39,-714.46 181.86,-712.28"/>
<polygon fill="#9a32cd" stroke="#9a32cd" points="52.08,-740.39 45.12,-748.37 55.54,-746.47 52.08,-740.39"/>
<text text-anchor="middle" x="104" y="-735" font-family="Helvetica,sans-Serif" font-size="10.00"> offset</text>
</g>
<!-- Node3&#45;&gt;Node1 -->
<g id="edge2" class="edge">
<title>Node3&#45;&gt;Node1</title>
<path fill="none" stroke="#9a32cd" stroke-dasharray="5,2" d="M393.14,-505.71C421.31,-429.62 524.18,-151.71 544.86,-95.83"/>
<polygon fill="#9a32cd" stroke="#9a32cd" points="389.73,-504.83 389.55,-515.42 396.3,-507.26 389.73,-504.83"/>
<text text-anchor="middle" x="472" y="-380" font-family="Helvetica,sans-Serif" font-size="10.00"> codes</text>
<text text-anchor="middle" x="472" y="-369" font-family="Helvetica,sans-Serif" font-size="10.00">next</text>
<text text-anchor="middle" x="472" y="-358" font-family="Helvetica,sans-Serif" font-size="10.00">distcode</text>
<text text-anchor="middle" x="472" y="-347" font-family="Helvetica,sans-Serif" font-size="10.00">lencode</text>
</g>
<!-- Node3&#45;&gt;Node3 -->
<g id="edge18" class="edge">
<title>Node3&#45;&gt;Node3</title>
<path fill="none" stroke="#9a32cd" stroke-dasharray="5,2" d="M369.07,-544.4C370.14,-549.31 375.45,-553 385,-553 400.29,-553 404.7,-543.57 398.26,-534.76"/>
<polygon fill="#9a32cd" stroke="#9a32cd" points="372.45,-545.33 371.74,-534.76 365.7,-543.46 372.45,-545.33"/>
<text text-anchor="middle" x="385" y="-578" font-family="Helvetica,sans-Serif" font-size="10.00"> prev</text>
<text text-anchor="middle" x="385" y="-567" font-family="Helvetica,sans-Serif" font-size="10.00">begin</text>
<text text-anchor="middle" x="385" y="-556" font-family="Helvetica,sans-Serif" font-size="10.00">next</text>
</g>
<!-- Node4 -->
<g id="node4" class="node">
<title>Node4</title>
<g id="a_node4"><a xlink:title=" ">
<polygon fill="none" stroke="#bfbfbf" points="178.5,-663.5 178.5,-682.5 220.5,-682.5 220.5,-663.5 178.5,-663.5"/>
<text text-anchor="middle" x="199.5" y="-670.5" font-family="Helvetica,sans-Serif" font-size="10.00">Node</text>
</a>
</g>
</g>
<!-- Node4&#45;&gt;Node3 -->
<g id="edge3" class="edge">
<title>Node4&#45;&gt;Node3</title>
<path fill="none" stroke="#9a32cd" stroke-dasharray="5,2" d="M230.47,-667.87C256.22,-662.21 293.17,-650.98 319,-630 351.95,-603.23 372.81,-555.06 380.58,-534.6"/>
<polygon fill="#9a32cd" stroke="#9a32cd" points="229.62,-664.47 220.53,-669.9 231.02,-671.33 229.62,-664.47"/>
<text text-anchor="middle" x="294.5" y="-659" font-family="Helvetica,sans-Serif" font-size="10.00"> forest</text>
</g>
<!-- Node5 -->
<g id="node5" class="node">
<title>Node5</title>
<g id="a_node5"><a xlink:title=" ">
<polygon fill="none" stroke="#bfbfbf" points="148,-625.5 148,-644.5 251,-644.5 251,-625.5 148,-625.5"/>
<text text-anchor="middle" x="199.5" y="-632.5" font-family="Helvetica,sans-Serif" font-size="10.00">anonymous:block</text>
</a>
</g>
</g>
<!-- Node5&#45;&gt;Node3 -->
<g id="edge4" class="edge">
<title>Node5&#45;&gt;Node3</title>
<path fill="none" stroke="#9a32cd" stroke-dasharray="5,2" d="M251.65,-622.59C273.48,-615.88 298.58,-606.21 319,-593 343.96,-576.85 366.28,-549.3 377.1,-534.71"/>
<polygon fill="#9a32cd" stroke="#9a32cd" points="250.49,-619.28 241.88,-625.46 252.46,-626 250.49,-619.28"/>
<text text-anchor="middle" x="294.5" y="-618" font-family="Helvetica,sans-Serif" font-size="10.00"> block</text>
</g>
<!-- Node6 -->
<g id="node6" class="node">
<title>Node6</title>
<g id="a_node6"><a xlink:title=" ">
<polygon fill="none" stroke="#bfbfbf" points="150.5,-587.5 150.5,-606.5 248.5,-606.5 248.5,-587.5 150.5,-587.5"/>
<text text-anchor="middle" x="199.5" y="-594.5" font-family="Helvetica,sans-Serif" font-size="10.00">anonymous:addr</text>
</a>
</g>
</g>
<!-- Node6&#45;&gt;Node3 -->
<g id="edge5" class="edge">
<title>Node6&#45;&gt;Node3</title>
<path fill="none" stroke="#9a32cd" stroke-dasharray="5,2" d="M248.83,-584.81C270.64,-578.68 296.51,-570.52 319,-561 336.82,-553.46 356.07,-542.39 368.96,-534.53"/>
<polygon fill="#9a32cd" stroke="#9a32cd" points="247.83,-581.46 239.11,-587.48 249.68,-588.21 247.83,-581.46"/>
<text text-anchor="middle" x="294.5" y="-581" font-family="Helvetica,sans-Serif" font-size="10.00"> addr</text>
</g>
<!-- Node7 -->
<g id="node7" class="node">
<title>Node7</title>
<g id="a_node7"><a xlink:title=" ">
<polygon fill="none" stroke="#bfbfbf" points="149,-549.5 149,-568.5 250,-568.5 250,-549.5 149,-549.5"/>
<text text-anchor="middle" x="199.5" y="-556.5" font-family="Helvetica,sans-Serif" font-size="10.00">anonymous:point</text>
</a>
</g>
</g>
<!-- Node7&#45;&gt;Node3 -->
<g id="edge6" class="edge">
<title>Node7&#45;&gt;Node3</title>
<path fill="none" stroke="#9a32cd" stroke-dasharray="5,2" d="M260.09,-547.96C296.09,-541.29 339.65,-533.22 364.36,-528.64"/>
<polygon fill="#9a32cd" stroke="#9a32cd" points="259.35,-544.54 250.16,-549.8 260.63,-551.42 259.35,-544.54"/>
<text text-anchor="middle" x="294.5" y="-549" font-family="Helvetica,sans-Serif" font-size="10.00"> point</text>
</g>
<!-- Node8 -->
<g id="node8" class="node">
<title>Node8</title>
<g id="a_node8"><a xlink:title=" ">
<polygon fill="none" stroke="#bfbfbf" points="147,-511.5 147,-530.5 252,-530.5 252,-511.5 147,-511.5"/>
<text text-anchor="middle" x="199.5" y="-518.5" font-family="Helvetica,sans-Serif" font-size="10.00">anonymous:swtch</text>
</a>
</g>
</g>
<!-- Node8&#45;&gt;Node3 -->
<g id="edge7" class="edge">
<title>Node8&#45;&gt;Node3</title>
<path fill="none" stroke="#9a32cd" stroke-dasharray="5,2" d="M262.4,-522.35C297.93,-523.12 340.15,-524.04 364.34,-524.57"/>
<polygon fill="#9a32cd" stroke="#9a32cd" points="262.18,-518.84 252.1,-522.12 262.02,-525.84 262.18,-518.84"/>
<text text-anchor="middle" x="294.5" y="-526" font-family="Helvetica,sans-Serif" font-size="10.00"> swtch</text>
</g>
<!-- Node9 -->
<g id="node9" class="node">
<title>Node9</title>
<g id="a_node9"><a xlink:title=" ">
<polygon fill="none" stroke="#bfbfbf" points="164.5,-473.5 164.5,-492.5 234.5,-492.5 234.5,-473.5 164.5,-473.5"/>
<text text-anchor="middle" x="199.5" y="-480.5" font-family="Helvetica,sans-Serif" font-size="10.00">Coordinate</text>
</a>
</g>
</g>
<!-- Node9&#45;&gt;Node3 -->
<g id="edge8" class="edge">
<title>Node9&#45;&gt;Node3</title>
<path fill="none" stroke="#9a32cd" stroke-dasharray="5,2" d="M244.5,-491.15C266.89,-495.49 294.48,-501.13 319,-507 334.37,-510.68 351.61,-515.48 364.47,-519.2"/>
<polygon fill="#9a32cd" stroke="#9a32cd" points="245.09,-487.7 234.61,-489.25 243.77,-494.57 245.09,-487.7"/>
<text text-anchor="middle" x="294.5" y="-510" font-family="Helvetica,sans-Serif" font-size="10.00"> src</text>
</g>
<!-- Node10 -->
<g id="node10" class="node">
<title>Node10</title>
<g id="a_node10"><a xlink:title=" ">
<polygon fill="none" stroke="#bfbfbf" points="150.5,-435.5 150.5,-454.5 248.5,-454.5 248.5,-435.5 150.5,-435.5"/>
<text text-anchor="middle" x="199.5" y="-442.5" font-family="Helvetica,sans-Serif" font-size="10.00">anonymous:kind</text>
</a>
</g>
</g>
<!-- Node10&#45;&gt;Node3 -->
<g id="edge9" class="edge">
<title>Node10&#45;&gt;Node3</title>
<path fill="none" stroke="#9a32cd" stroke-dasharray="5,2" d="M252.56,-457.18C273.72,-463.05 298.06,-471.01 319,-481 338.93,-490.5 359.66,-505.6 372.2,-515.4"/>
<polygon fill="#9a32cd" stroke="#9a32cd" points="253.34,-453.76 242.78,-454.54 251.52,-460.52 253.34,-453.76"/>
<text text-anchor="middle" x="294.5" y="-484" font-family="Helvetica,sans-Serif" font-size="10.00"> kind</text>
</g>
<!-- Node11 -->
<g id="node11" class="node">
<title>Node11</title>
<g id="a_node11"><a xlink:title=" ">
<polygon fill="none" stroke="#bfbfbf" points="176.5,-397.5 176.5,-416.5 222.5,-416.5 222.5,-397.5 176.5,-397.5"/>
<text text-anchor="middle" x="199.5" y="-404.5" font-family="Helvetica,sans-Serif" font-size="10.00">long *</text>
</a>
</g>
</g>
<!-- Node11&#45;&gt;Node3 -->
<g id="edge10" class="edge">
<title>Node11&#45;&gt;Node3</title>
<path fill="none" stroke="#9a32cd" stroke-dasharray="5,2" d="M232.45,-412.79C257.61,-418.48 292.71,-428.98 319,-447 346.34,-465.73 368.58,-499.02 378.46,-515.38"/>
<polygon fill="#9a32cd" stroke="#9a32cd" points="233.17,-409.37 222.66,-410.71 231.72,-416.21 233.17,-409.37"/>
<text text-anchor="middle" x="294.5" y="-450" font-family="Helvetica,sans-Serif" font-size="10.00"> values</text>
</g>
<!-- Node12 -->
<g id="node12" class="node">
<title>Node12</title>
<g id="a_node12"><a xlink:title=" ">
<polygon fill="none" stroke="#bfbfbf" points="173,-352.5 173,-371.5 226,-371.5 226,-352.5 173,-352.5"/>
<text text-anchor="middle" x="199.5" y="-359.5" font-family="Helvetica,sans-Serif" font-size="10.00">Symbol</text>
</a>
</g>
</g>
<!-- Node12&#45;&gt;Node3 -->
<g id="edge11" class="edge">
<title>Node12&#45;&gt;Node3</title>
<path fill="none" stroke="#9a32cd" stroke-dasharray="5,2" d="M232.86,-349.19C258.47,-341.32 293.98,-335.71 319,-353 374.94,-391.66 382.79,-485.06 383.85,-515.34"/>
<polygon fill="#9a32cd" stroke="#9a32cd" points="231.61,-345.91 223.23,-352.39 233.82,-352.55 231.61,-345.91"/>
<text text-anchor="middle" x="294.5" y="-411" font-family="Helvetica,sans-Serif" font-size="10.00"> sym</text>
<text text-anchor="middle" x="294.5" y="-400" font-family="Helvetica,sans-Serif" font-size="10.00">base</text>
<text text-anchor="middle" x="294.5" y="-389" font-family="Helvetica,sans-Serif" font-size="10.00">deflab</text>
<text text-anchor="middle" x="294.5" y="-378" font-family="Helvetica,sans-Serif" font-size="10.00">table</text>
<text text-anchor="middle" x="294.5" y="-367" font-family="Helvetica,sans-Serif" font-size="10.00">labels</text>
<text text-anchor="middle" x="294.5" y="-356" font-family="Helvetica,sans-Serif" font-size="10.00">var</text>
</g>
<!-- Node13&#45;&gt;Node3 -->
<g id="edge12" class="edge">
<title>Node13&#45;&gt;Node3</title>
<path fill="none" stroke="#9a32cd" stroke-dasharray="5,2" d="M227.18,-708.21C253.47,-704.17 293.32,-694.39 319,-671 361.46,-632.33 377.75,-560.74 382.43,-534.75"/>
<polygon fill="#9a32cd" stroke="#9a32cd" points="226.59,-704.76 217.16,-709.58 227.54,-711.69 226.59,-704.76"/>
<text text-anchor="middle" x="294.5" y="-700" font-family="Helvetica,sans-Serif" font-size="10.00"> x</text>
</g>
<!-- Node14 -->
<g id="node14" class="node">
<title>Node14</title>
<g id="a_node14"><a xlink:title=" ">
<polygon fill="none" stroke="#bfbfbf" points="0,-291.5 0,-310.5 61,-310.5 61,-291.5 0,-291.5"/>
<text text-anchor="middle" x="30.5" y="-298.5" font-family="Helvetica,sans-Serif" font-size="10.00">unsigned</text>
</a>
</g>
</g>
<!-- Node14&#45;&gt;Node1 -->
<g id="edge22" class="edge">
<title>Node14&#45;&gt;Node1</title>
<path fill="none" stroke="#9a32cd" stroke-dasharray="5,2" d="M43.63,-283.17C74.89,-239.04 163.25,-125.29 270,-84 312.78,-67.45 445.15,-76.53 510.79,-82.34"/>
<polygon fill="#9a32cd" stroke="#9a32cd" points="40.69,-281.28 37.84,-291.48 46.43,-285.28 40.69,-281.28"/>
<text text-anchor="middle" x="294.5" y="-197" font-family="Helvetica,sans-Serif" font-size="10.00"> distbits</text>
<text text-anchor="middle" x="294.5" y="-186" font-family="Helvetica,sans-Serif" font-size="10.00">window</text>
<text text-anchor="middle" x="294.5" y="-175" font-family="Helvetica,sans-Serif" font-size="10.00">work</text>
<text text-anchor="middle" x="294.5" y="-164" font-family="Helvetica,sans-Serif" font-size="10.00">offset</text>
<text text-anchor="middle" x="294.5" y="-153" font-family="Helvetica,sans-Serif" font-size="10.00">check</text>
<text text-anchor="middle" x="294.5" y="-142" font-family="Helvetica,sans-Serif" font-size="10.00">wsize</text>
<text text-anchor="middle" x="294.5" y="-131" font-family="Helvetica,sans-Serif" font-size="10.00">ncode</text>
<text text-anchor="middle" x="294.5" y="-120" font-family="Helvetica,sans-Serif" font-size="10.00">bits</text>
<text text-anchor="middle" x="294.5" y="-109" font-family="Helvetica,sans-Serif" font-size="10.00">wbits</text>
<text text-anchor="middle" x="294.5" y="-98" font-family="Helvetica,sans-Serif" font-size="10.00">nlen</text>
<text text-anchor="middle" x="294.5" y="-87" font-family="Helvetica,sans-Serif" font-size="10.00">...</text>
</g>
<!-- Node14&#45;&gt;Node3 -->
<g id="edge21" class="edge">
<title>Node14&#45;&gt;Node3</title>
<path fill="none" stroke="#9a32cd" stroke-dasharray="5,2" d="M71.07,-292.16C133.66,-280.76 254.97,-269.67 319,-337 369.69,-390.3 381.03,-485.05 383.41,-515.38"/>
<polygon fill="#9a32cd" stroke="#9a32cd" points="70.34,-288.73 61.18,-294.05 71.66,-295.61 70.34,-288.73"/>
<text text-anchor="middle" x="199.5" y="-321" font-family="Helvetica,sans-Serif" font-size="10.00"> op</text>
<text text-anchor="middle" x="199.5" y="-310" font-family="Helvetica,sans-Serif" font-size="10.00">bits</text>
<text text-anchor="middle" x="199.5" y="-299" font-family="Helvetica,sans-Serif" font-size="10.00">val</text>
</g>
<!-- Node14&#45;&gt;Node13 -->
<g id="edge14" class="edge">
<title>Node14&#45;&gt;Node13</title>
<path fill="none" stroke="#9a32cd" stroke-dasharray="5,2" d="M31.46,-320.87C32.41,-383.92 43.87,-581.8 147,-692 156.12,-701.74 170.66,-706.51 181.98,-708.83"/>
<polygon fill="#9a32cd" stroke="#9a32cd" points="34.96,-320.69 31.38,-310.72 27.96,-320.74 34.96,-320.69"/>
<text text-anchor="middle" x="104" y="-669" font-family="Helvetica,sans-Serif" font-size="10.00"> freemask</text>
</g>
<!-- Node15 -->
<g id="node15" class="node">
<title>Node15</title>
<g id="a_node15"><a xlink:title=" ">
<polygon fill="none" stroke="#bfbfbf" points="158,-245.5 158,-264.5 241,-264.5 241,-245.5 158,-245.5"/>
<text text-anchor="middle" x="199.5" y="-252.5" font-family="Helvetica,sans-Serif" font-size="10.00">anonymous:u</text>
</a>
</g>
</g>
<!-- Node15&#45;&gt;Node3 -->
<g id="edge16" class="edge">
<title>Node15&#45;&gt;Node3</title>
<path fill="none" stroke="#9a32cd" stroke-dasharray="5,2" d="M251.13,-252.16C274.47,-253.55 300.95,-259.33 319,-276 355.6,-309.79 377.76,-473.65 382.86,-515.34"/>
<polygon fill="#9a32cd" stroke="#9a32cd" points="251.12,-248.66 241,-251.82 250.88,-255.66 251.12,-248.66"/>
<text text-anchor="middle" x="294.5" y="-279" font-family="Helvetica,sans-Serif" font-size="10.00"> u</text>
</g>
<!-- Node16 -->
<g id="node16" class="node">
<title>Node16</title>
<g id="a_node16"><a xlink:title=" ">
<polygon fill="none" stroke="#bfbfbf" points="178.5,-207.5 178.5,-226.5 220.5,-226.5 220.5,-207.5 178.5,-207.5"/>
<text text-anchor="middle" x="199.5" y="-214.5" font-family="Helvetica,sans-Serif" font-size="10.00">Table</text>
</a>
</g>
</g>
<!-- Node16&#45;&gt;Node3 -->
<g id="edge17" class="edge">
<title>Node16&#45;&gt;Node3</title>
<path fill="none" stroke="#9a32cd" stroke-dasharray="5,2" d="M230.79,-210.78C257.31,-207.22 295.22,-206.98 319,-228 363.69,-267.51 380.13,-468.73 383.37,-515.35"/>
<polygon fill="#9a32cd" stroke="#9a32cd" points="230.23,-207.33 220.9,-212.33 231.32,-214.24 230.23,-207.33"/>
<text text-anchor="middle" x="294.5" y="-242" font-family="Helvetica,sans-Serif" font-size="10.00"> types</text>
<text text-anchor="middle" x="294.5" y="-231" font-family="Helvetica,sans-Serif" font-size="10.00">identifiers</text>
</g>
<!-- Node17 -->
<g id="node17" class="node">
<title>Node17</title>
<g id="a_node17"><a xlink:title=" ">
<polygon fill="none" stroke="#bfbfbf" points="180.5,-846.5 180.5,-865.5 218.5,-865.5 218.5,-846.5 180.5,-846.5"/>
<text text-anchor="middle" x="199.5" y="-853.5" font-family="Helvetica,sans-Serif" font-size="10.00">long</text>
</a>
</g>
</g>
<!-- Node17&#45;&gt;Node3 -->
<g id="edge19" class="edge">
<title>Node17&#45;&gt;Node3</title>
<path fill="none" stroke="#9a32cd" stroke-dasharray="5,2" d="M228.74,-854.43C255.82,-851.38 295.9,-842.51 319,-817 358.31,-773.6 378.8,-580.09 383.13,-534.6"/>
<polygon fill="#9a32cd" stroke="#9a32cd" points="228.34,-850.96 218.71,-855.37 228.99,-857.93 228.34,-850.96"/>
<text text-anchor="middle" x="294.5" y="-848" font-family="Helvetica,sans-Serif" font-size="10.00"> offset</text>
</g>
<!-- Node18 -->
<g id="node18" class="node">
<title>Node18</title>
<g id="a_node18"><a xlink:title=" ">
<polygon fill="none" stroke="#bfbfbf" points="168.5,-808.5 168.5,-827.5 230.5,-827.5 230.5,-808.5 168.5,-808.5"/>
<text text-anchor="middle" x="199.5" y="-815.5" font-family="Helvetica,sans-Serif" font-size="10.00">Symbol *</text>
</a>
</g>
</g>
<!-- Node18&#45;&gt;Node3 -->
<g id="edge20" class="edge">
<title>Node18&#45;&gt;Node3</title>
<path fill="none" stroke="#9a32cd" stroke-dasharray="5,2" d="M240.56,-811.65C266.43,-805.52 298.9,-793.65 319,-771 382.91,-698.97 385.11,-571.23 384.35,-534.89"/>
<polygon fill="#9a32cd" stroke="#9a32cd" points="239.68,-808.26 230.65,-813.81 241.16,-815.1 239.68,-808.26"/>
<text text-anchor="middle" x="294.5" y="-805" font-family="Helvetica,sans-Serif" font-size="10.00"> locals</text>
</g>
<!-- Node19 -->
<g id="node19" class="node">
<title>Node19</title>
<g id="a_node19"><a xlink:title=" ">
<polygon fill="none" stroke="#bfbfbf" points="337,-38.5 337,-57.5 433,-57.5 433,-38.5 337,-38.5"/>
<text text-anchor="middle" x="385" y="-45.5" font-family="Helvetica,sans-Serif" font-size="10.00">gz_header FAR *</text>
</a>
</g>
</g>
<!-- Node19&#45;&gt;Node1 -->
<g id="edge23" class="edge">
<title>Node19&#45;&gt;Node1</title>
<path fill="none" stroke="#9a32cd" stroke-dasharray="5,2" d="M443.16,-51.72C459.46,-53.64 477.1,-56.57 493,-61 506.23,-64.69 520.34,-71.08 531.02,-76.48"/>
<polygon fill="#9a32cd" stroke="#9a32cd" points="443.53,-48.24 433.21,-50.64 442.78,-55.2 443.53,-48.24"/>
<text text-anchor="middle" x="472" y="-64" font-family="Helvetica,sans-Serif" font-size="10.00"> head</text>
</g>
<!-- Node20 -->
<g id="node20" class="node">
<title>Node20</title>
<g id="a_node20"><a xlink:title=" ">
<polygon fill="none" stroke="#bfbfbf" points="345,-0.5 345,-19.5 425,-19.5 425,-0.5 345,-0.5"/>
<text text-anchor="middle" x="385" y="-7.5" font-family="Helvetica,sans-Serif" font-size="10.00">inflate_mode</text>
</a>
</g>
</g>
<!-- Node20&#45;&gt;Node1 -->
<g id="edge24" class="edge">
<title>Node20&#45;&gt;Node1</title>
<path fill="none" stroke="#9a32cd" stroke-dasharray="5,2" d="M435.13,-17.29C453.96,-21.38 475.19,-27.61 493,-37 512.1,-47.07 530.03,-65.03 540.11,-76.18"/>
<polygon fill="#9a32cd" stroke="#9a32cd" points="435.74,-13.85 425.25,-15.29 434.35,-20.71 435.74,-13.85"/>
<text text-anchor="middle" x="472" y="-40" font-family="Helvetica,sans-Serif" font-size="10.00"> mode</text>
</g>
</g>
</svg>
