<?xml version="1.0" encoding="UTF-8" standalone="no"?>
<!DOCTYPE svg PUBLIC "-//W3C//DTD SVG 1.1//EN"
 "http://www.w3.org/Graphics/SVG/1.1/DTD/svg11.dtd">
<!-- Generated by graphviz version 2.43.0 (0)
 -->
<!-- Title: tagMIDIOUTCAPSA Pages: 1 -->
<svg width="350pt" height="150pt"
 viewBox="0.00 0.00 350.00 150.00" xmlns="http://www.w3.org/2000/svg" xmlns:xlink="http://www.w3.org/1999/xlink">
<g id="graph0" class="graph" transform="scale(1 1) rotate(0) translate(4 146)">
<title>tagMIDIOUTCAPSA</title>
<!-- Node1 -->
<g id="node1" class="node">
<title>Node1</title>
<g id="a_node1"><a xlink:title=" ">
<polygon fill="#bfbfbf" stroke="black" points="85,-0.5 85,-19.5 193,-19.5 193,-0.5 85,-0.5"/>
<text text-anchor="middle" x="139" y="-7.5" font-family="Helvetica,sans-Serif" font-size="10.00">tagMIDIOUTCAPSA</text>
</a>
</g>
</g>
<!-- Node2 -->
<g id="node2" class="node">
<title>Node2</title>
<g id="a_node2"><a xlink:title=" ">
<polygon fill="none" stroke="#bfbfbf" points="0,-122.5 0,-141.5 38,-141.5 38,-122.5 0,-122.5"/>
<text text-anchor="middle" x="19" y="-129.5" font-family="Helvetica,sans-Serif" font-size="10.00">char</text>
</a>
</g>
</g>
<!-- Node2&#45;&gt;Node1 -->
<g id="edge1" class="edge">
<title>Node2&#45;&gt;Node1</title>
<path fill="none" stroke="#9a32cd" stroke-dasharray="5,2" d="M15.27,-112.2C12.32,-91.46 11.23,-58.32 29,-38 36.7,-29.19 61.01,-22.74 84.83,-18.35"/>
<polygon fill="#9a32cd" stroke="#9a32cd" points="11.86,-113.03 16.99,-122.29 18.76,-111.85 11.86,-113.03"/>
<text text-anchor="middle" x="53" y="-68.5" font-family="Helvetica,sans-Serif" font-size="10.00"> szPname</text>
</g>
<!-- Node3 -->
<g id="node3" class="node">
<title>Node3</title>
<g id="a_node3"><a xlink:title=" ">
<polygon fill="none" stroke="#bfbfbf" points="69.5,-122.5 69.5,-141.5 110.5,-141.5 110.5,-122.5 69.5,-122.5"/>
<text text-anchor="middle" x="90" y="-129.5" font-family="Helvetica,sans-Serif" font-size="10.00">short</text>
</a>
</g>
</g>
<!-- Node3&#45;&gt;Node1 -->
<g id="edge2" class="edge">
<title>Node3&#45;&gt;Node1</title>
<path fill="none" stroke="#9a32cd" stroke-dasharray="5,2" d="M85.05,-112.34C80.88,-92.46 77.53,-60.75 91,-38 95.92,-29.69 104.43,-23.73 112.93,-19.57"/>
<polygon fill="#9a32cd" stroke="#9a32cd" points="81.7,-113.37 87.41,-122.29 88.51,-111.75 81.7,-113.37"/>
<text text-anchor="middle" x="128.5" y="-96" font-family="Helvetica,sans-Serif" font-size="10.00"> wMid</text>
<text text-anchor="middle" x="128.5" y="-85" font-family="Helvetica,sans-Serif" font-size="10.00">wVoices</text>
<text text-anchor="middle" x="128.5" y="-74" font-family="Helvetica,sans-Serif" font-size="10.00">wPid</text>
<text text-anchor="middle" x="128.5" y="-63" font-family="Helvetica,sans-Serif" font-size="10.00">wTechnology</text>
<text text-anchor="middle" x="128.5" y="-52" font-family="Helvetica,sans-Serif" font-size="10.00">wNotes</text>
<text text-anchor="middle" x="128.5" y="-41" font-family="Helvetica,sans-Serif" font-size="10.00">wChannelMask</text>
</g>
<!-- Node4 -->
<g id="node4" class="node">
<title>Node4</title>
<g id="a_node4"><a xlink:href="../../d2/d5f/classunsigned_01int.html" target="_top" xlink:title=" ">
<polygon fill="none" stroke="black" points="149.5,-122.5 149.5,-141.5 226.5,-141.5 226.5,-122.5 149.5,-122.5"/>
<text text-anchor="middle" x="188" y="-129.5" font-family="Helvetica,sans-Serif" font-size="10.00">unsigned int</text>
</a>
</g>
</g>
<!-- Node4&#45;&gt;Node1 -->
<g id="edge3" class="edge">
<title>Node4&#45;&gt;Node1</title>
<path fill="none" stroke="#9a32cd" stroke-dasharray="5,2" d="M186.62,-112.45C184.49,-92.87 179.18,-61.62 166,-38 162.06,-30.94 155.74,-24.47 150.21,-19.64"/>
<polygon fill="#9a32cd" stroke="#9a32cd" points="183.14,-112.85 187.53,-122.49 190.11,-112.21 183.14,-112.85"/>
<text text-anchor="middle" x="223" y="-68.5" font-family="Helvetica,sans-Serif" font-size="10.00"> vDriverVersion</text>
</g>
<!-- Node5 -->
<g id="node5" class="node">
<title>Node5</title>
<g id="a_node5"><a xlink:title=" ">
<polygon fill="none" stroke="#bfbfbf" points="268,-122.5 268,-141.5 306,-141.5 306,-122.5 268,-122.5"/>
<text text-anchor="middle" x="287" y="-129.5" font-family="Helvetica,sans-Serif" font-size="10.00">long</text>
</a>
</g>
</g>
<!-- Node5&#45;&gt;Node1 -->
<g id="edge4" class="edge">
<title>Node5&#45;&gt;Node1</title>
<path fill="none" stroke="#9a32cd" stroke-dasharray="5,2" d="M288.05,-112.15C288.13,-91.08 284.81,-57.39 265,-38 254.65,-27.87 222.53,-21.08 193.31,-16.84"/>
<polygon fill="#9a32cd" stroke="#9a32cd" points="284.55,-112.28 287.74,-122.38 291.54,-112.49 284.55,-112.28"/>
<text text-anchor="middle" x="314.5" y="-68.5" font-family="Helvetica,sans-Serif" font-size="10.00"> dwSupport</text>
</g>
</g>
</svg>
