<?xml version="1.0" encoding="UTF-8" standalone="no"?>
<!DOCTYPE svg PUBLIC "-//W3C//DTD SVG 1.1//EN"
 "http://www.w3.org/Graphics/SVG/1.1/DTD/svg11.dtd">
<!-- Generated by graphviz version 2.43.0 (0)
 -->
<!-- Title: Engine/libspeex/pseudofloat.h Pages: 1 -->
<svg width="333pt" height="319pt"
 viewBox="0.00 0.00 333.00 319.00" xmlns="http://www.w3.org/2000/svg" xmlns:xlink="http://www.w3.org/1999/xlink">
<g id="graph0" class="graph" transform="scale(1 1) rotate(0) translate(4 315)">
<title>Engine/libspeex/pseudofloat.h</title>
<!-- Node1 -->
<g id="node1" class="node">
<title>Node1</title>
<g id="a_node1"><a xlink:title="Pseudo&#45;floating point This header file provides a lightweight floating point type for use on fixed&#45;po...">
<polygon fill="#bfbfbf" stroke="black" points="83,-291.5 83,-310.5 246,-310.5 246,-291.5 83,-291.5"/>
<text text-anchor="middle" x="164.5" y="-298.5" font-family="Helvetica,sans-Serif" font-size="10.00">Engine/libspeex/pseudofloat.h</text>
</a>
</g>
</g>
<!-- Node2 -->
<g id="node2" class="node">
<title>Node2</title>
<g id="a_node2"><a xlink:href="../../d2/d2d/arch_8h.html" target="_top" xlink:title="Various architecture definitions Speex.">
<polygon fill="none" stroke="black" points="36,-179.5 36,-198.5 83,-198.5 83,-179.5 36,-179.5"/>
<text text-anchor="middle" x="59.5" y="-186.5" font-family="Helvetica,sans-Serif" font-size="10.00">arch.h</text>
</a>
</g>
</g>
<!-- Node1&#45;&gt;Node2 -->
<g id="edge1" class="edge">
<title>Node1&#45;&gt;Node2</title>
<path fill="none" stroke="midnightblue" d="M115.73,-291.5C94.71,-285.15 72.11,-274.12 59.5,-255 50.58,-241.47 51.67,-222.67 54.34,-208.76"/>
<polygon fill="midnightblue" stroke="midnightblue" points="57.79,-209.39 56.67,-198.86 50.97,-207.79 57.79,-209.39"/>
</g>
<!-- Node6 -->
<g id="node6" class="node">
<title>Node6</title>
<g id="a_node6"><a xlink:href="../../d8/dbc/os__support_8h.html" target="_top" xlink:title=" ">
<polygon fill="none" stroke="black" points="177,-235.5 177,-254.5 256,-254.5 256,-235.5 177,-235.5"/>
<text text-anchor="middle" x="216.5" y="-242.5" font-family="Helvetica,sans-Serif" font-size="10.00">os_support.h</text>
</a>
</g>
</g>
<!-- Node1&#45;&gt;Node6 -->
<g id="edge5" class="edge">
<title>Node1&#45;&gt;Node6</title>
<path fill="none" stroke="midnightblue" d="M173.09,-291.08C180.66,-283.22 191.88,-271.57 201.01,-262.08"/>
<polygon fill="midnightblue" stroke="midnightblue" points="203.66,-264.38 208.07,-254.75 198.62,-259.53 203.66,-264.38"/>
</g>
<!-- Node10 -->
<g id="node10" class="node">
<title>Node10</title>
<g id="a_node10"><a xlink:href="../../d9/d28/math__approx_8h.html" target="_top" xlink:title="Various math approximation functions for Speex.">
<polygon fill="none" stroke="black" points="68.5,-235.5 68.5,-254.5 158.5,-254.5 158.5,-235.5 68.5,-235.5"/>
<text text-anchor="middle" x="113.5" y="-242.5" font-family="Helvetica,sans-Serif" font-size="10.00">math_approx.h</text>
</a>
</g>
</g>
<!-- Node1&#45;&gt;Node10 -->
<g id="edge9" class="edge">
<title>Node1&#45;&gt;Node10</title>
<path fill="none" stroke="midnightblue" d="M156.08,-291.08C148.65,-283.22 137.65,-271.57 128.69,-262.08"/>
<polygon fill="midnightblue" stroke="midnightblue" points="131.18,-259.62 121.76,-254.75 126.09,-264.42 131.18,-259.62"/>
</g>
<!-- Node11 -->
<g id="node11" class="node">
<title>Node11</title>
<g id="a_node11"><a xlink:title=" ">
<polygon fill="none" stroke="#bfbfbf" points="274,-235.5 274,-254.5 325,-254.5 325,-235.5 274,-235.5"/>
<text text-anchor="middle" x="299.5" y="-242.5" font-family="Helvetica,sans-Serif" font-size="10.00">math.h</text>
</a>
</g>
</g>
<!-- Node1&#45;&gt;Node11 -->
<g id="edge11" class="edge">
<title>Node1&#45;&gt;Node11</title>
<path fill="none" stroke="midnightblue" d="M185.89,-291.44C208.21,-282.52 243.4,-268.44 268.71,-258.32"/>
<polygon fill="midnightblue" stroke="midnightblue" points="270.22,-261.48 278.21,-254.52 267.62,-254.98 270.22,-261.48"/>
</g>
<!-- Node3 -->
<g id="node3" class="node">
<title>Node3</title>
<g id="a_node3"><a xlink:href="../../d8/df4/speex__types_8h.html" target="_top" xlink:title="Speex types.">
<polygon fill="none" stroke="black" points="0,-123.5 0,-142.5 119,-142.5 119,-123.5 0,-123.5"/>
<text text-anchor="middle" x="59.5" y="-130.5" font-family="Helvetica,sans-Serif" font-size="10.00">speex/speex_types.h</text>
</a>
</g>
</g>
<!-- Node2&#45;&gt;Node3 -->
<g id="edge2" class="edge">
<title>Node2&#45;&gt;Node3</title>
<path fill="none" stroke="midnightblue" d="M59.5,-179.08C59.5,-172.01 59.5,-161.86 59.5,-152.99"/>
<polygon fill="midnightblue" stroke="midnightblue" points="63,-152.75 59.5,-142.75 56,-152.75 63,-152.75"/>
</g>
<!-- Node4 -->
<g id="node4" class="node">
<title>Node4</title>
<g id="a_node4"><a xlink:href="../../d8/d6d/speex__config__types_8h.html" target="_top" xlink:title=" ">
<polygon fill="none" stroke="black" points="3,-56.5 3,-86.5 116,-86.5 116,-56.5 3,-56.5"/>
<text text-anchor="start" x="11" y="-74.5" font-family="Helvetica,sans-Serif" font-size="10.00">speex/speex_config</text>
<text text-anchor="middle" x="59.5" y="-63.5" font-family="Helvetica,sans-Serif" font-size="10.00">_types.h</text>
</a>
</g>
</g>
<!-- Node3&#45;&gt;Node4 -->
<g id="edge3" class="edge">
<title>Node3&#45;&gt;Node4</title>
<path fill="none" stroke="midnightblue" d="M59.5,-123.48C59.5,-116.47 59.5,-106.19 59.5,-96.7"/>
<polygon fill="midnightblue" stroke="midnightblue" points="63,-96.52 59.5,-86.52 56,-96.52 63,-96.52"/>
</g>
<!-- Node5 -->
<g id="node5" class="node">
<title>Node5</title>
<g id="a_node5"><a xlink:title=" ">
<polygon fill="none" stroke="#bfbfbf" points="33,-0.5 33,-19.5 86,-19.5 86,-0.5 33,-0.5"/>
<text text-anchor="middle" x="59.5" y="-7.5" font-family="Helvetica,sans-Serif" font-size="10.00">stdint.h</text>
</a>
</g>
</g>
<!-- Node4&#45;&gt;Node5 -->
<g id="edge4" class="edge">
<title>Node4&#45;&gt;Node5</title>
<path fill="none" stroke="midnightblue" d="M59.5,-56.4C59.5,-48.47 59.5,-38.46 59.5,-29.86"/>
<polygon fill="midnightblue" stroke="midnightblue" points="63,-29.66 59.5,-19.66 56,-29.66 63,-29.66"/>
</g>
<!-- Node7 -->
<g id="node7" class="node">
<title>Node7</title>
<g id="a_node7"><a xlink:title=" ">
<polygon fill="none" stroke="#bfbfbf" points="120,-179.5 120,-198.5 173,-198.5 173,-179.5 120,-179.5"/>
<text text-anchor="middle" x="146.5" y="-186.5" font-family="Helvetica,sans-Serif" font-size="10.00">string.h</text>
</a>
</g>
</g>
<!-- Node6&#45;&gt;Node7 -->
<g id="edge6" class="edge">
<title>Node6&#45;&gt;Node7</title>
<path fill="none" stroke="midnightblue" d="M205.25,-235.32C194.7,-227.18 178.7,-214.84 166.06,-205.09"/>
<polygon fill="midnightblue" stroke="midnightblue" points="168.01,-202.17 157.95,-198.83 163.73,-207.71 168.01,-202.17"/>
</g>
<!-- Node8 -->
<g id="node8" class="node">
<title>Node8</title>
<g id="a_node8"><a xlink:title=" ">
<polygon fill="none" stroke="#bfbfbf" points="191.5,-179.5 191.5,-198.5 241.5,-198.5 241.5,-179.5 191.5,-179.5"/>
<text text-anchor="middle" x="216.5" y="-186.5" font-family="Helvetica,sans-Serif" font-size="10.00">stdio.h</text>
</a>
</g>
</g>
<!-- Node6&#45;&gt;Node8 -->
<g id="edge7" class="edge">
<title>Node6&#45;&gt;Node8</title>
<path fill="none" stroke="midnightblue" d="M216.5,-235.08C216.5,-228.01 216.5,-217.86 216.5,-208.99"/>
<polygon fill="midnightblue" stroke="midnightblue" points="220,-208.75 216.5,-198.75 213,-208.75 220,-208.75"/>
</g>
<!-- Node9 -->
<g id="node9" class="node">
<title>Node9</title>
<g id="a_node9"><a xlink:title=" ">
<polygon fill="none" stroke="#bfbfbf" points="260,-179.5 260,-198.5 313,-198.5 313,-179.5 260,-179.5"/>
<text text-anchor="middle" x="286.5" y="-186.5" font-family="Helvetica,sans-Serif" font-size="10.00">stdlib.h</text>
</a>
</g>
</g>
<!-- Node6&#45;&gt;Node9 -->
<g id="edge8" class="edge">
<title>Node6&#45;&gt;Node9</title>
<path fill="none" stroke="midnightblue" d="M227.75,-235.32C238.3,-227.18 254.3,-214.84 266.94,-205.09"/>
<polygon fill="midnightblue" stroke="midnightblue" points="269.27,-207.71 275.05,-198.83 264.99,-202.17 269.27,-207.71"/>
</g>
<!-- Node10&#45;&gt;Node2 -->
<g id="edge10" class="edge">
<title>Node10&#45;&gt;Node2</title>
<path fill="none" stroke="midnightblue" d="M104.58,-235.08C96.72,-227.22 85.07,-215.57 75.58,-206.08"/>
<polygon fill="midnightblue" stroke="midnightblue" points="77.8,-203.35 68.25,-198.75 72.85,-208.3 77.8,-203.35"/>
</g>
</g>
</svg>
