<?xml version="1.0" encoding="UTF-8" standalone="no"?>
<!DOCTYPE svg PUBLIC "-//W3C//DTD SVG 1.1//EN"
 "http://www.w3.org/Graphics/SVG/1.1/DTD/svg11.dtd">
<!-- Generated by graphviz version 2.43.0 (0)
 -->
<!-- Title: _NDIS_INTERRUPT Pages: 1 -->
<svg width="458pt" height="305pt"
 viewBox="0.00 0.00 458.00 305.00" xmlns="http://www.w3.org/2000/svg" xmlns:xlink="http://www.w3.org/1999/xlink">
<g id="graph0" class="graph" transform="scale(1 1) rotate(0) translate(4 301)">
<title>_NDIS_INTERRUPT</title>
<!-- Node1 -->
<g id="node1" class="node">
<title>Node1</title>
<g id="a_node1"><a xlink:title=" ">
<polygon fill="#bfbfbf" stroke="black" points="343,-141.5 343,-160.5 450,-160.5 450,-141.5 343,-141.5"/>
<text text-anchor="middle" x="396.5" y="-148.5" font-family="Helvetica,sans-Serif" font-size="10.00">_NDIS_INTERRUPT</text>
</a>
</g>
</g>
<!-- Node2 -->
<g id="node2" class="node">
<title>Node2</title>
<g id="a_node2"><a xlink:title=" ">
<polygon fill="none" stroke="#bfbfbf" points="71,-277.5 71,-296.5 127,-296.5 127,-277.5 71,-277.5"/>
<text text-anchor="middle" x="99" y="-284.5" font-family="Helvetica,sans-Serif" font-size="10.00">KEVENT</text>
</a>
</g>
</g>
<!-- Node2&#45;&gt;Node1 -->
<g id="edge1" class="edge">
<title>Node2&#45;&gt;Node1</title>
<path fill="none" stroke="#9a32cd" stroke-dasharray="5,2" d="M137.29,-288.3C184.5,-288.24 266.69,-282.26 325,-246 359.19,-224.74 382.35,-180.35 391.33,-160.71"/>
<polygon fill="#9a32cd" stroke="#9a32cd" points="137.23,-284.8 127.2,-288.23 137.17,-291.8 137.23,-284.8"/>
<text text-anchor="middle" x="270.5" y="-284" font-family="Helvetica,sans-Serif" font-size="10.00"> DpcsCompletedEvent</text>
</g>
<!-- Node3 -->
<g id="node3" class="node">
<title>Node3</title>
<g id="a_node3"><a xlink:title=" ">
<polygon fill="none" stroke="#bfbfbf" points="56.5,-239.5 56.5,-258.5 141.5,-258.5 141.5,-239.5 56.5,-239.5"/>
<text text-anchor="middle" x="99" y="-246.5" font-family="Helvetica,sans-Serif" font-size="10.00">unsigned long</text>
</a>
</g>
</g>
<!-- Node3&#45;&gt;Node1 -->
<g id="edge2" class="edge">
<title>Node3&#45;&gt;Node1</title>
<path fill="none" stroke="#9a32cd" stroke-dasharray="5,2" d="M151.67,-243.1C198.48,-236.41 268.55,-223.04 325,-198 347.32,-188.1 370.34,-171.28 383.76,-160.67"/>
<polygon fill="#9a32cd" stroke="#9a32cd" points="151.19,-239.63 141.76,-244.46 152.14,-246.56 151.19,-239.63"/>
<text text-anchor="middle" x="270.5" y="-234" font-family="Helvetica,sans-Serif" font-size="10.00"> DpcCountLock</text>
</g>
<!-- Node4 -->
<g id="node4" class="node">
<title>Node4</title>
<g id="a_node4"><a xlink:title=" ">
<polygon fill="none" stroke="#bfbfbf" points="18.5,-179.5 18.5,-220.5 179.5,-220.5 179.5,-179.5 18.5,-179.5"/>
<text text-anchor="start" x="26.5" y="-208.5" font-family="Helvetica,sans-Serif" font-size="10.00">PLDAP *typedef(__cdecl</text>
<text text-anchor="start" x="26.5" y="-197.5" font-family="Helvetica,sans-Serif" font-size="10.00"> NOTIFYOFNEWCONNECTION)</text>
<text text-anchor="middle" x="99" y="-186.5" font-family="Helvetica,sans-Serif" font-size="10.00">(PLDAP</text>
</a>
</g>
</g>
<!-- Node4&#45;&gt;Node1 -->
<g id="edge3" class="edge">
<title>Node4&#45;&gt;Node1</title>
<path fill="none" stroke="#9a32cd" stroke-dasharray="5,2" d="M189.63,-187.71C230.94,-181.72 280.56,-174.08 325,-166 333.99,-164.37 343.58,-162.44 352.71,-160.53"/>
<polygon fill="#9a32cd" stroke="#9a32cd" points="188.99,-184.26 179.59,-189.15 189.99,-191.19 188.99,-184.26"/>
<text text-anchor="middle" x="270.5" y="-186" font-family="Helvetica,sans-Serif" font-size="10.00"> Removing</text>
</g>
<!-- Node5 -->
<g id="node5" class="node">
<title>Node5</title>
<g id="a_node5"><a xlink:title=" ">
<polygon fill="none" stroke="#bfbfbf" points="37.5,-141.5 37.5,-160.5 160.5,-160.5 160.5,-141.5 37.5,-141.5"/>
<text text-anchor="middle" x="99" y="-148.5" font-family="Helvetica,sans-Serif" font-size="10.00">struct _KINTERRUPT *</text>
</a>
</g>
</g>
<!-- Node5&#45;&gt;Node1 -->
<g id="edge4" class="edge">
<title>Node5&#45;&gt;Node1</title>
<path fill="none" stroke="#9a32cd" stroke-dasharray="5,2" d="M170.52,-151C223.51,-151 294.95,-151 342.98,-151"/>
<polygon fill="#9a32cd" stroke="#9a32cd" points="170.51,-147.5 160.51,-151 170.51,-154.5 170.51,-147.5"/>
<text text-anchor="middle" x="270.5" y="-154" font-family="Helvetica,sans-Serif" font-size="10.00"> InterruptObject</text>
</g>
<!-- Node6 -->
<g id="node6" class="node">
<title>Node6</title>
<g id="a_node6"><a xlink:title=" ">
<polygon fill="none" stroke="#bfbfbf" points="68.5,-103.5 68.5,-122.5 129.5,-122.5 129.5,-103.5 68.5,-103.5"/>
<text text-anchor="middle" x="99" y="-110.5" font-family="Helvetica,sans-Serif" font-size="10.00">unsigned</text>
</a>
</g>
</g>
<!-- Node6&#45;&gt;Node1 -->
<g id="edge5" class="edge">
<title>Node6&#45;&gt;Node1</title>
<path fill="none" stroke="#9a32cd" stroke-dasharray="5,2" d="M139.85,-115.77C184.96,-119.21 260.54,-125.88 325,-136 334.52,-137.49 344.69,-139.45 354.26,-141.45"/>
<polygon fill="#9a32cd" stroke="#9a32cd" points="139.85,-112.26 129.61,-115.01 139.33,-119.24 139.85,-112.26"/>
<text text-anchor="middle" x="270.5" y="-139" font-family="Helvetica,sans-Serif" font-size="10.00"> DpcCount</text>
</g>
<!-- Node7 -->
<g id="node7" class="node">
<title>Node7</title>
<g id="a_node7"><a xlink:title=" ">
<polygon fill="none" stroke="#bfbfbf" points="77,-65.5 77,-84.5 121,-84.5 121,-65.5 77,-65.5"/>
<text text-anchor="middle" x="99" y="-72.5" font-family="Helvetica,sans-Serif" font-size="10.00">KDPC</text>
</a>
</g>
</g>
<!-- Node7&#45;&gt;Node1 -->
<g id="edge6" class="edge">
<title>Node7&#45;&gt;Node1</title>
<path fill="none" stroke="#9a32cd" stroke-dasharray="5,2" d="M131.33,-75.39C175.73,-76.85 258.91,-82.9 325,-107 347.23,-115.1 369.91,-130.88 383.34,-141.18"/>
<polygon fill="#9a32cd" stroke="#9a32cd" points="131.26,-71.89 121.17,-75.12 131.08,-78.89 131.26,-71.89"/>
<text text-anchor="middle" x="270.5" y="-110" font-family="Helvetica,sans-Serif" font-size="10.00"> InterruptDpc</text>
</g>
<!-- Node8 -->
<g id="node8" class="node">
<title>Node8</title>
<g id="a_node8"><a xlink:title=" ">
<polygon fill="none" stroke="#bfbfbf" points="0,-0.5 0,-41.5 198,-41.5 198,-0.5 0,-0.5"/>
<text text-anchor="start" x="8" y="-29.5" font-family="Helvetica,sans-Serif" font-size="10.00">PSecurityUserData *typedef</text>
<text text-anchor="start" x="8" y="-18.5" font-family="Helvetica,sans-Serif" font-size="10.00"> PSECPKG_EXTENDED_INFORMATION</text>
<text text-anchor="middle" x="99" y="-7.5" font-family="Helvetica,sans-Serif" font-size="10.00"> *typedef</text>
</a>
</g>
</g>
<!-- Node8&#45;&gt;Node1 -->
<g id="edge7" class="edge">
<title>Node8&#45;&gt;Node1</title>
<path fill="none" stroke="#9a32cd" stroke-dasharray="5,2" d="M208.44,-14.02C247.57,-16.1 290.54,-24.11 325,-45 362.8,-67.92 384.57,-119.72 392.28,-141.29"/>
<polygon fill="#9a32cd" stroke="#9a32cd" points="208.19,-10.5 198.05,-13.59 207.9,-17.5 208.19,-10.5"/>
<text text-anchor="middle" x="270.5" y="-70" font-family="Helvetica,sans-Serif" font-size="10.00"> InterruptContext</text>
<text text-anchor="middle" x="270.5" y="-59" font-family="Helvetica,sans-Serif" font-size="10.00">MacDpc</text>
<text text-anchor="middle" x="270.5" y="-48" font-family="Helvetica,sans-Serif" font-size="10.00">MacIsr</text>
</g>
</g>
</svg>
