<?xml version="1.0" encoding="UTF-8" standalone="no"?>
<!DOCTYPE svg PUBLIC "-//W3C//DTD SVG 1.1//EN"
 "http://www.w3.org/Graphics/SVG/1.1/DTD/svg11.dtd">
<!-- Generated by graphviz version 2.43.0 (0)
 -->
<!-- Title: tagHEAPENTRY32 Pages: 1 -->
<svg width="262pt" height="194pt"
 viewBox="0.00 0.00 262.00 194.00" xmlns="http://www.w3.org/2000/svg" xmlns:xlink="http://www.w3.org/1999/xlink">
<g id="graph0" class="graph" transform="scale(1 1) rotate(0) translate(4 190)">
<title>tagHEAPENTRY32</title>
<!-- Node1 -->
<g id="node1" class="node">
<title>Node1</title>
<g id="a_node1"><a xlink:title=" ">
<polygon fill="#bfbfbf" stroke="black" points="36,-0.5 36,-19.5 138,-19.5 138,-0.5 36,-0.5"/>
<text text-anchor="middle" x="87" y="-7.5" font-family="Helvetica,sans-Serif" font-size="10.00">tagHEAPENTRY32</text>
</a>
</g>
</g>
<!-- Node2 -->
<g id="node2" class="node">
<title>Node2</title>
<g id="a_node2"><a xlink:title=" ">
<polygon fill="none" stroke="#bfbfbf" points="0,-155.5 0,-174.5 38,-174.5 38,-155.5 0,-155.5"/>
<text text-anchor="middle" x="19" y="-162.5" font-family="Helvetica,sans-Serif" font-size="10.00">long</text>
</a>
</g>
</g>
<!-- Node2&#45;&gt;Node1 -->
<g id="edge1" class="edge">
<title>Node2&#45;&gt;Node1</title>
<path fill="none" stroke="#9a32cd" stroke-dasharray="5,2" d="M23.07,-145.44C29.17,-119.97 42.24,-73.32 63,-38 66.94,-31.3 72.69,-24.75 77.58,-19.78"/>
<polygon fill="#9a32cd" stroke="#9a32cd" points="19.64,-144.72 20.81,-155.25 26.46,-146.29 19.64,-144.72"/>
<text text-anchor="middle" x="98" y="-118" font-family="Helvetica,sans-Serif" font-size="10.00"> dwAddress</text>
<text text-anchor="middle" x="98" y="-107" font-family="Helvetica,sans-Serif" font-size="10.00">dwSize</text>
<text text-anchor="middle" x="98" y="-96" font-family="Helvetica,sans-Serif" font-size="10.00">dwLockCount</text>
<text text-anchor="middle" x="98" y="-85" font-family="Helvetica,sans-Serif" font-size="10.00">dwBlockSize</text>
<text text-anchor="middle" x="98" y="-74" font-family="Helvetica,sans-Serif" font-size="10.00">th32HeapID</text>
<text text-anchor="middle" x="98" y="-63" font-family="Helvetica,sans-Serif" font-size="10.00">dwFlags</text>
<text text-anchor="middle" x="98" y="-52" font-family="Helvetica,sans-Serif" font-size="10.00">th32ProcessID</text>
<text text-anchor="middle" x="98" y="-41" font-family="Helvetica,sans-Serif" font-size="10.00">dwResvd</text>
</g>
<!-- Node3 -->
<g id="node3" class="node">
<title>Node3</title>
<g id="a_node3"><a xlink:title=" ">
<polygon fill="none" stroke="#bfbfbf" points="56,-144.5 56,-185.5 254,-185.5 254,-144.5 56,-144.5"/>
<text text-anchor="start" x="64" y="-173.5" font-family="Helvetica,sans-Serif" font-size="10.00">PSecurityUserData *typedef</text>
<text text-anchor="start" x="64" y="-162.5" font-family="Helvetica,sans-Serif" font-size="10.00"> PSECPKG_EXTENDED_INFORMATION</text>
<text text-anchor="middle" x="155" y="-151.5" font-family="Helvetica,sans-Serif" font-size="10.00"> *typedef</text>
</a>
</g>
</g>
<!-- Node3&#45;&gt;Node1 -->
<g id="edge2" class="edge">
<title>Node3&#45;&gt;Node1</title>
<path fill="none" stroke="#9a32cd" stroke-dasharray="5,2" d="M156.59,-134.04C156.56,-106.7 152.66,-66.35 133,-38 127.41,-29.93 118.56,-23.92 110.11,-19.64"/>
<polygon fill="#9a32cd" stroke="#9a32cd" points="153.09,-134.13 156.42,-144.18 160.09,-134.24 153.09,-134.13"/>
<text text-anchor="middle" x="178" y="-79.5" font-family="Helvetica,sans-Serif" font-size="10.00"> hHandle</text>
</g>
</g>
</svg>
