<?xml version="1.0" encoding="UTF-8" standalone="no"?>
<!DOCTYPE svg PUBLIC "-//W3C//DTD SVG 1.1//EN"
 "http://www.w3.org/Graphics/SVG/1.1/DTD/svg11.dtd">
<!-- Generated by graphviz version 2.43.0 (0)
 -->
<!-- Title: png_row_info_struct Pages: 1 -->
<svg width="217pt" height="128pt"
 viewBox="0.00 0.00 216.50 128.00" xmlns="http://www.w3.org/2000/svg" xmlns:xlink="http://www.w3.org/1999/xlink">
<g id="graph0" class="graph" transform="scale(1 1) rotate(0) translate(4 124)">
<title>png_row_info_struct</title>
<!-- Node1 -->
<g id="node1" class="node">
<title>Node1</title>
<g id="a_node1"><a xlink:title=" ">
<polygon fill="#bfbfbf" stroke="black" points="41.5,-0.5 41.5,-19.5 156.5,-19.5 156.5,-0.5 41.5,-0.5"/>
<text text-anchor="middle" x="99" y="-7.5" font-family="Helvetica,sans-Serif" font-size="10.00">png_row_info_struct</text>
</a>
</g>
</g>
<!-- Node2 -->
<g id="node2" class="node">
<title>Node2</title>
<g id="a_node2"><a xlink:title=" ">
<polygon fill="none" stroke="#bfbfbf" points="0,-100.5 0,-119.5 38,-119.5 38,-100.5 0,-100.5"/>
<text text-anchor="middle" x="19" y="-107.5" font-family="Helvetica,sans-Serif" font-size="10.00">char</text>
</a>
</g>
</g>
<!-- Node2&#45;&gt;Node1 -->
<g id="edge1" class="edge">
<title>Node2&#45;&gt;Node1</title>
<path fill="none" stroke="#9a32cd" stroke-dasharray="5,2" d="M19.64,-90.44C21.1,-74.79 25.45,-52.67 38,-38 45.23,-29.55 55.61,-23.64 65.77,-19.56"/>
<polygon fill="#9a32cd" stroke="#9a32cd" points="16.14,-90.29 19.01,-100.49 23.13,-90.73 16.14,-90.29"/>
<text text-anchor="middle" x="66.5" y="-74" font-family="Helvetica,sans-Serif" font-size="10.00"> bit_depth</text>
<text text-anchor="middle" x="66.5" y="-63" font-family="Helvetica,sans-Serif" font-size="10.00">color_type</text>
<text text-anchor="middle" x="66.5" y="-52" font-family="Helvetica,sans-Serif" font-size="10.00">pixel_depth</text>
<text text-anchor="middle" x="66.5" y="-41" font-family="Helvetica,sans-Serif" font-size="10.00">channels</text>
</g>
<!-- Node3 -->
<g id="node3" class="node">
<title>Node3</title>
<g id="a_node3"><a xlink:title=" ">
<polygon fill="none" stroke="#bfbfbf" points="84.5,-100.5 84.5,-119.5 113.5,-119.5 113.5,-100.5 84.5,-100.5"/>
<text text-anchor="middle" x="99" y="-107.5" font-family="Helvetica,sans-Serif" font-size="10.00">int</text>
</a>
</g>
</g>
<!-- Node3&#45;&gt;Node1 -->
<g id="edge2" class="edge">
<title>Node3&#45;&gt;Node1</title>
<path fill="none" stroke="#9a32cd" stroke-dasharray="5,2" d="M99,-90.22C99,-68.95 99,-35.22 99,-19.54"/>
<polygon fill="#9a32cd" stroke="#9a32cd" points="95.5,-90.3 99,-100.3 102.5,-90.3 95.5,-90.3"/>
<text text-anchor="middle" x="114.5" y="-57.5" font-family="Helvetica,sans-Serif" font-size="10.00"> width</text>
</g>
<!-- Node4 -->
<g id="node4" class="node">
<title>Node4</title>
<g id="a_node4"><a xlink:href="../../d2/d5f/classunsigned_01int.html" target="_top" xlink:title=" ">
<polygon fill="none" stroke="black" points="131.5,-100.5 131.5,-119.5 208.5,-119.5 208.5,-100.5 131.5,-100.5"/>
<text text-anchor="middle" x="170" y="-107.5" font-family="Helvetica,sans-Serif" font-size="10.00">unsigned int</text>
</a>
</g>
</g>
<!-- Node4&#45;&gt;Node1 -->
<g id="edge3" class="edge">
<title>Node4&#45;&gt;Node1</title>
<path fill="none" stroke="#9a32cd" stroke-dasharray="5,2" d="M163.35,-90.68C157.26,-75.51 147.19,-53.93 134,-38 128.03,-30.79 119.8,-24.32 112.82,-19.52"/>
<polygon fill="#9a32cd" stroke="#9a32cd" points="160.24,-92.32 167.07,-100.42 166.78,-89.83 160.24,-92.32"/>
<text text-anchor="middle" x="183.5" y="-57.5" font-family="Helvetica,sans-Serif" font-size="10.00"> rowbytes</text>
</g>
</g>
</svg>
