<?xml version="1.0" encoding="UTF-8" standalone="no"?>
<!DOCTYPE svg PUBLIC "-//W3C//DTD SVG 1.1//EN"
 "http://www.w3.org/Graphics/SVG/1.1/DTD/svg11.dtd">
<!-- Generated by graphviz version 2.43.0 (0)
 -->
<!-- Title: Source/Engine/libspeex/fftwrap.c Pages: 1 -->
<svg width="308pt" height="386pt"
 viewBox="0.00 0.00 307.82 386.00" xmlns="http://www.w3.org/2000/svg" xmlns:xlink="http://www.w3.org/1999/xlink">
<g id="graph0" class="graph" transform="scale(1 1) rotate(0) translate(4 382)">
<title>Source/Engine/libspeex/fftwrap.c</title>
<!-- Node1 -->
<g id="node1" class="node">
<title>Node1</title>
<g id="a_node1"><a xlink:title=" ">
<polygon fill="#bfbfbf" stroke="black" points="70.5,-347.5 70.5,-377.5 200.5,-377.5 200.5,-347.5 70.5,-347.5"/>
<text text-anchor="start" x="78.5" y="-365.5" font-family="Helvetica,sans-Serif" font-size="10.00">Source/Engine/libspeex</text>
<text text-anchor="middle" x="135.5" y="-354.5" font-family="Helvetica,sans-Serif" font-size="10.00">/fftwrap.c</text>
</a>
</g>
</g>
<!-- Node2 -->
<g id="node2" class="node">
<title>Node2</title>
<g id="a_node2"><a xlink:href="../../d2/d2d/arch_8h.html" target="_top" xlink:title="Various architecture definitions Speex.">
<polygon fill="none" stroke="black" points="36,-179.5 36,-198.5 83,-198.5 83,-179.5 36,-179.5"/>
<text text-anchor="middle" x="59.5" y="-186.5" font-family="Helvetica,sans-Serif" font-size="10.00">arch.h</text>
</a>
</g>
</g>
<!-- Node1&#45;&gt;Node2 -->
<g id="edge1" class="edge">
<title>Node1&#45;&gt;Node2</title>
<path fill="none" stroke="midnightblue" d="M126.78,-347.49C114.66,-327.55 92.62,-289.56 78.5,-255 72.25,-239.7 67.13,-221.59 63.79,-208.38"/>
<polygon fill="midnightblue" stroke="midnightblue" points="67.18,-207.5 61.41,-198.61 60.37,-209.15 67.18,-207.5"/>
</g>
<!-- Node6 -->
<g id="node6" class="node">
<title>Node6</title>
<g id="a_node6"><a xlink:href="../../d8/dbc/os__support_8h.html" target="_top" xlink:title=" ">
<polygon fill="none" stroke="black" points="220,-291.5 220,-310.5 299,-310.5 299,-291.5 220,-291.5"/>
<text text-anchor="middle" x="259.5" y="-298.5" font-family="Helvetica,sans-Serif" font-size="10.00">os_support.h</text>
</a>
</g>
</g>
<!-- Node1&#45;&gt;Node6 -->
<g id="edge5" class="edge">
<title>Node1&#45;&gt;Node6</title>
<path fill="none" stroke="midnightblue" d="M164.89,-347.4C185.32,-337.59 212.36,-324.62 232.3,-315.05"/>
<polygon fill="midnightblue" stroke="midnightblue" points="233.96,-318.14 241.46,-310.66 230.93,-311.83 233.96,-318.14"/>
</g>
<!-- Node10 -->
<g id="node10" class="node">
<title>Node10</title>
<g id="a_node10"><a xlink:href="../../dc/da7/kiss__fftr_8h.html" target="_top" xlink:title=" ">
<polygon fill="none" stroke="black" points="133.5,-291.5 133.5,-310.5 197.5,-310.5 197.5,-291.5 133.5,-291.5"/>
<text text-anchor="middle" x="165.5" y="-298.5" font-family="Helvetica,sans-Serif" font-size="10.00">kiss_fftr.h</text>
</a>
</g>
</g>
<!-- Node1&#45;&gt;Node10 -->
<g id="edge9" class="edge">
<title>Node1&#45;&gt;Node10</title>
<path fill="none" stroke="midnightblue" d="M142.61,-347.4C146.79,-339.11 152.11,-328.55 156.57,-319.71"/>
<polygon fill="midnightblue" stroke="midnightblue" points="159.76,-321.16 161.13,-310.66 153.51,-318.01 159.76,-321.16"/>
</g>
<!-- Node11 -->
<g id="node11" class="node">
<title>Node11</title>
<g id="a_node11"><a xlink:href="../../d0/dc9/kiss__fft_8h.html" target="_top" xlink:title=" ">
<polygon fill="none" stroke="black" points="88,-235.5 88,-254.5 149,-254.5 149,-235.5 88,-235.5"/>
<text text-anchor="middle" x="118.5" y="-242.5" font-family="Helvetica,sans-Serif" font-size="10.00">kiss_fft.h</text>
</a>
</g>
</g>
<!-- Node1&#45;&gt;Node11 -->
<g id="edge14" class="edge">
<title>Node1&#45;&gt;Node11</title>
<path fill="none" stroke="midnightblue" d="M131.95,-347.44C129.53,-337.35 126.42,-323.41 124.5,-311 122.12,-295.58 120.56,-277.95 119.63,-264.94"/>
<polygon fill="midnightblue" stroke="midnightblue" points="123.12,-264.62 118.97,-254.87 116.14,-265.08 123.12,-264.62"/>
</g>
<!-- Node3 -->
<g id="node3" class="node">
<title>Node3</title>
<g id="a_node3"><a xlink:href="../../d8/df4/speex__types_8h.html" target="_top" xlink:title="Speex types.">
<polygon fill="none" stroke="black" points="0,-123.5 0,-142.5 119,-142.5 119,-123.5 0,-123.5"/>
<text text-anchor="middle" x="59.5" y="-130.5" font-family="Helvetica,sans-Serif" font-size="10.00">speex/speex_types.h</text>
</a>
</g>
</g>
<!-- Node2&#45;&gt;Node3 -->
<g id="edge2" class="edge">
<title>Node2&#45;&gt;Node3</title>
<path fill="none" stroke="midnightblue" d="M59.5,-179.08C59.5,-172.01 59.5,-161.86 59.5,-152.99"/>
<polygon fill="midnightblue" stroke="midnightblue" points="63,-152.75 59.5,-142.75 56,-152.75 63,-152.75"/>
</g>
<!-- Node4 -->
<g id="node4" class="node">
<title>Node4</title>
<g id="a_node4"><a xlink:href="../../d8/d6d/speex__config__types_8h.html" target="_top" xlink:title=" ">
<polygon fill="none" stroke="black" points="3,-56.5 3,-86.5 116,-86.5 116,-56.5 3,-56.5"/>
<text text-anchor="start" x="11" y="-74.5" font-family="Helvetica,sans-Serif" font-size="10.00">speex/speex_config</text>
<text text-anchor="middle" x="59.5" y="-63.5" font-family="Helvetica,sans-Serif" font-size="10.00">_types.h</text>
</a>
</g>
</g>
<!-- Node3&#45;&gt;Node4 -->
<g id="edge3" class="edge">
<title>Node3&#45;&gt;Node4</title>
<path fill="none" stroke="midnightblue" d="M59.5,-123.48C59.5,-116.47 59.5,-106.19 59.5,-96.7"/>
<polygon fill="midnightblue" stroke="midnightblue" points="63,-96.52 59.5,-86.52 56,-96.52 63,-96.52"/>
</g>
<!-- Node5 -->
<g id="node5" class="node">
<title>Node5</title>
<g id="a_node5"><a xlink:title=" ">
<polygon fill="none" stroke="#bfbfbf" points="33,-0.5 33,-19.5 86,-19.5 86,-0.5 33,-0.5"/>
<text text-anchor="middle" x="59.5" y="-7.5" font-family="Helvetica,sans-Serif" font-size="10.00">stdint.h</text>
</a>
</g>
</g>
<!-- Node4&#45;&gt;Node5 -->
<g id="edge4" class="edge">
<title>Node4&#45;&gt;Node5</title>
<path fill="none" stroke="midnightblue" d="M59.5,-56.4C59.5,-48.47 59.5,-38.46 59.5,-29.86"/>
<polygon fill="midnightblue" stroke="midnightblue" points="63,-29.66 59.5,-19.66 56,-29.66 63,-29.66"/>
</g>
<!-- Node7 -->
<g id="node7" class="node">
<title>Node7</title>
<g id="a_node7"><a xlink:title=" ">
<polygon fill="none" stroke="#bfbfbf" points="167,-235.5 167,-254.5 220,-254.5 220,-235.5 167,-235.5"/>
<text text-anchor="middle" x="193.5" y="-242.5" font-family="Helvetica,sans-Serif" font-size="10.00">string.h</text>
</a>
</g>
</g>
<!-- Node6&#45;&gt;Node7 -->
<g id="edge6" class="edge">
<title>Node6&#45;&gt;Node7</title>
<path fill="none" stroke="midnightblue" d="M248.9,-291.32C239.04,-283.26 224.15,-271.08 212.28,-261.37"/>
<polygon fill="midnightblue" stroke="midnightblue" points="214.25,-258.46 204.3,-254.83 209.82,-263.88 214.25,-258.46"/>
</g>
<!-- Node8 -->
<g id="node8" class="node">
<title>Node8</title>
<g id="a_node8"><a xlink:title=" ">
<polygon fill="none" stroke="#bfbfbf" points="238.5,-235.5 238.5,-254.5 288.5,-254.5 288.5,-235.5 238.5,-235.5"/>
<text text-anchor="middle" x="263.5" y="-242.5" font-family="Helvetica,sans-Serif" font-size="10.00">stdio.h</text>
</a>
</g>
</g>
<!-- Node6&#45;&gt;Node8 -->
<g id="edge7" class="edge">
<title>Node6&#45;&gt;Node8</title>
<path fill="none" stroke="midnightblue" d="M260.16,-291.08C260.68,-284.01 261.44,-273.86 262.09,-264.99"/>
<polygon fill="midnightblue" stroke="midnightblue" points="265.6,-264.98 262.85,-254.75 258.62,-264.47 265.6,-264.98"/>
</g>
<!-- Node9 -->
<g id="node9" class="node">
<title>Node9</title>
<g id="a_node9"><a xlink:title=" ">
<polygon fill="none" stroke="#bfbfbf" points="230,-179.5 230,-198.5 283,-198.5 283,-179.5 230,-179.5"/>
<text text-anchor="middle" x="256.5" y="-186.5" font-family="Helvetica,sans-Serif" font-size="10.00">stdlib.h</text>
</a>
</g>
</g>
<!-- Node6&#45;&gt;Node9 -->
<g id="edge8" class="edge">
<title>Node6&#45;&gt;Node9</title>
<path fill="none" stroke="midnightblue" d="M270.75,-291.21C284.73,-279.13 305.81,-256.45 297.5,-235 293.05,-223.5 284.13,-213.13 275.75,-205.25"/>
<polygon fill="midnightblue" stroke="midnightblue" points="277.87,-202.46 268.04,-198.51 273.26,-207.73 277.87,-202.46"/>
</g>
<!-- Node10&#45;&gt;Node11 -->
<g id="edge10" class="edge">
<title>Node10&#45;&gt;Node11</title>
<path fill="none" stroke="midnightblue" d="M157.74,-291.08C150.96,-283.3 140.96,-271.8 132.74,-262.37"/>
<polygon fill="midnightblue" stroke="midnightblue" points="135.32,-260 126.12,-254.75 130.04,-264.59 135.32,-260"/>
</g>
<!-- Node11&#45;&gt;Node2 -->
<g id="edge13" class="edge">
<title>Node11&#45;&gt;Node2</title>
<path fill="none" stroke="midnightblue" d="M109.02,-235.32C100.3,-227.34 87.16,-215.31 76.6,-205.65"/>
<polygon fill="midnightblue" stroke="midnightblue" points="78.89,-203 69.15,-198.83 74.17,-208.17 78.89,-203"/>
</g>
<!-- Node11&#45;&gt;Node9 -->
<g id="edge11" class="edge">
<title>Node11&#45;&gt;Node9</title>
<path fill="none" stroke="midnightblue" d="M140.37,-235.44C163.28,-226.48 199.48,-212.31 225.37,-202.18"/>
<polygon fill="midnightblue" stroke="midnightblue" points="226.7,-205.42 234.74,-198.52 224.15,-198.9 226.7,-205.42"/>
</g>
<!-- Node12 -->
<g id="node12" class="node">
<title>Node12</title>
<g id="a_node12"><a xlink:title=" ">
<polygon fill="none" stroke="#bfbfbf" points="101,-179.5 101,-198.5 152,-198.5 152,-179.5 101,-179.5"/>
<text text-anchor="middle" x="126.5" y="-186.5" font-family="Helvetica,sans-Serif" font-size="10.00">math.h</text>
</a>
</g>
</g>
<!-- Node11&#45;&gt;Node12 -->
<g id="edge12" class="edge">
<title>Node11&#45;&gt;Node12</title>
<path fill="none" stroke="midnightblue" d="M119.82,-235.08C120.88,-227.93 122.41,-217.64 123.73,-208.69"/>
<polygon fill="midnightblue" stroke="midnightblue" points="127.2,-209.16 125.2,-198.75 120.28,-208.13 127.2,-209.16"/>
</g>
</g>
</svg>
