<?xml version="1.0" encoding="UTF-8" standalone="no"?>
<!DOCTYPE svg PUBLIC "-//W3C//DTD SVG 1.1//EN"
 "http://www.w3.org/Graphics/SVG/1.1/DTD/svg11.dtd">
<!-- Generated by graphviz version 2.43.0 (0)
 -->
<!-- Title: _EXTENSION_CONTROL_BLOCK Pages: 1 -->
<svg width="373pt" height="161pt"
 viewBox="0.00 0.00 372.50 161.00" xmlns="http://www.w3.org/2000/svg" xmlns:xlink="http://www.w3.org/1999/xlink">
<g id="graph0" class="graph" transform="scale(1 1) rotate(0) translate(4 157)">
<title>_EXTENSION_CONTROL_BLOCK</title>
<!-- Node1 -->
<g id="node1" class="node">
<title>Node1</title>
<g id="a_node1"><a xlink:title=" ">
<polygon fill="#bfbfbf" stroke="black" points="81,-0.5 81,-30.5 212,-30.5 212,-0.5 81,-0.5"/>
<text text-anchor="start" x="89" y="-18.5" font-family="Helvetica,sans-Serif" font-size="10.00">_EXTENSION_CONTROL</text>
<text text-anchor="middle" x="146.5" y="-7.5" font-family="Helvetica,sans-Serif" font-size="10.00">_BLOCK</text>
</a>
</g>
</g>
<!-- Node2 -->
<g id="node2" class="node">
<title>Node2</title>
<g id="a_node2"><a xlink:title=" ">
<polygon fill="none" stroke="#bfbfbf" points="0,-133.5 0,-152.5 49,-152.5 49,-133.5 0,-133.5"/>
<text text-anchor="middle" x="24.5" y="-140.5" font-family="Helvetica,sans-Serif" font-size="10.00">BYTE *</text>
</a>
</g>
</g>
<!-- Node2&#45;&gt;Node1 -->
<g id="edge1" class="edge">
<title>Node2&#45;&gt;Node1</title>
<path fill="none" stroke="#9a32cd" stroke-dasharray="5,2" d="M20.93,-123.34C18.12,-102.71 17.16,-69.68 34.5,-49 46.14,-35.11 63.33,-26.97 80.77,-22.24"/>
<polygon fill="#9a32cd" stroke="#9a32cd" points="17.5,-124.06 22.57,-133.36 24.41,-122.93 17.5,-124.06"/>
<text text-anchor="middle" x="55.5" y="-79.5" font-family="Helvetica,sans-Serif" font-size="10.00"> lpbData</text>
</g>
<!-- Node3 -->
<g id="node3" class="node">
<title>Node3</title>
<g id="a_node3"><a xlink:title=" ">
<polygon fill="none" stroke="#bfbfbf" points="70.5,-133.5 70.5,-152.5 108.5,-152.5 108.5,-133.5 70.5,-133.5"/>
<text text-anchor="middle" x="89.5" y="-140.5" font-family="Helvetica,sans-Serif" font-size="10.00">char</text>
</a>
</g>
</g>
<!-- Node3&#45;&gt;Node1 -->
<g id="edge2" class="edge">
<title>Node3&#45;&gt;Node1</title>
<path fill="none" stroke="#9a32cd" stroke-dasharray="5,2" d="M84.61,-123.38C80.49,-103.52 77.18,-71.84 90.5,-49 94.97,-41.33 102.02,-35.3 109.62,-30.62"/>
<polygon fill="#9a32cd" stroke="#9a32cd" points="81.25,-124.37 86.94,-133.31 88.06,-122.77 81.25,-124.37"/>
<text text-anchor="middle" x="136" y="-107" font-family="Helvetica,sans-Serif" font-size="10.00"> lpszContentType</text>
<text text-anchor="middle" x="136" y="-96" font-family="Helvetica,sans-Serif" font-size="10.00">lpszPathInfo</text>
<text text-anchor="middle" x="136" y="-85" font-family="Helvetica,sans-Serif" font-size="10.00">lpszLogData</text>
<text text-anchor="middle" x="136" y="-74" font-family="Helvetica,sans-Serif" font-size="10.00">lpszQueryString</text>
<text text-anchor="middle" x="136" y="-63" font-family="Helvetica,sans-Serif" font-size="10.00">lpszMethod</text>
<text text-anchor="middle" x="136" y="-52" font-family="Helvetica,sans-Serif" font-size="10.00">lpszPathTranslated</text>
</g>
<!-- Node4 -->
<g id="node4" class="node">
<title>Node4</title>
<g id="a_node4"><a xlink:title=" ">
<polygon fill="none" stroke="#bfbfbf" points="177,-133.5 177,-152.5 230,-152.5 230,-133.5 177,-133.5"/>
<text text-anchor="middle" x="203.5" y="-140.5" font-family="Helvetica,sans-Serif" font-size="10.00">LPVOID</text>
</a>
</g>
</g>
<!-- Node4&#45;&gt;Node1 -->
<g id="edge3" class="edge">
<title>Node4&#45;&gt;Node1</title>
<path fill="none" stroke="#9a32cd" stroke-dasharray="5,2" d="M202.29,-123.35C200.31,-103.69 195.11,-72.37 181.5,-49 177.49,-42.12 171.57,-35.83 165.73,-30.66"/>
<polygon fill="#9a32cd" stroke="#9a32cd" points="198.81,-123.76 203.12,-133.44 205.79,-123.18 198.81,-123.76"/>
<text text-anchor="middle" x="220" y="-79.5" font-family="Helvetica,sans-Serif" font-size="10.00"> ConnID</text>
</g>
<!-- Node5 -->
<g id="node5" class="node">
<title>Node5</title>
<g id="a_node5"><a xlink:title=" ">
<polygon fill="none" stroke="#bfbfbf" points="248,-133.5 248,-152.5 309,-152.5 309,-133.5 248,-133.5"/>
<text text-anchor="middle" x="278.5" y="-140.5" font-family="Helvetica,sans-Serif" font-size="10.00">unsigned</text>
</a>
</g>
</g>
<!-- Node5&#45;&gt;Node1 -->
<g id="edge4" class="edge">
<title>Node5&#45;&gt;Node1</title>
<path fill="none" stroke="#9a32cd" stroke-dasharray="5,2" d="M276.28,-123.37C272.82,-102.5 264.25,-69 243.5,-49 234.68,-40.49 223.56,-34.21 212.04,-29.58"/>
<polygon fill="#9a32cd" stroke="#9a32cd" points="272.84,-124.08 277.71,-133.49 279.77,-123.1 272.84,-124.08"/>
<text text-anchor="middle" x="319" y="-101.5" font-family="Helvetica,sans-Serif" font-size="10.00"> cbSize</text>
<text text-anchor="middle" x="319" y="-90.5" font-family="Helvetica,sans-Serif" font-size="10.00">dwHttpStatusCode</text>
<text text-anchor="middle" x="319" y="-79.5" font-family="Helvetica,sans-Serif" font-size="10.00">dwVersion</text>
<text text-anchor="middle" x="319" y="-68.5" font-family="Helvetica,sans-Serif" font-size="10.00">cbTotalBytes</text>
<text text-anchor="middle" x="319" y="-57.5" font-family="Helvetica,sans-Serif" font-size="10.00">cbAvailable</text>
</g>
</g>
</svg>
