<?xml version="1.0" encoding="UTF-8" standalone="no"?>
<!DOCTYPE svg PUBLIC "-//W3C//DTD SVG 1.1//EN"
 "http://www.w3.org/Graphics/SVG/1.1/DTD/svg11.dtd">
<!-- Generated by graphviz version 2.43.0 (0)
 -->
<!-- Title: _NCB Pages: 1 -->
<svg width="344pt" height="227pt"
 viewBox="0.00 0.00 343.50 227.00" xmlns="http://www.w3.org/2000/svg" xmlns:xlink="http://www.w3.org/1999/xlink">
<g id="graph0" class="graph" transform="scale(1 1) rotate(0) translate(4 223)">
<title>_NCB</title>
<!-- Node1 -->
<g id="node1" class="node">
<title>Node1</title>
<g id="a_node1"><a xlink:title=" ">
<polygon fill="#bfbfbf" stroke="black" points="79,-0.5 79,-19.5 122,-19.5 122,-0.5 79,-0.5"/>
<text text-anchor="middle" x="100.5" y="-7.5" font-family="Helvetica,sans-Serif" font-size="10.00">_NCB</text>
</a>
</g>
</g>
<!-- Node2 -->
<g id="node2" class="node">
<title>Node2</title>
<g id="a_node2"><a xlink:title=" ">
<polygon fill="none" stroke="#bfbfbf" points="0,-188.5 0,-207.5 41,-207.5 41,-188.5 0,-188.5"/>
<text text-anchor="middle" x="20.5" y="-195.5" font-family="Helvetica,sans-Serif" font-size="10.00">short</text>
</a>
</g>
</g>
<!-- Node2&#45;&gt;Node1 -->
<g id="edge1" class="edge">
<title>Node2&#45;&gt;Node1</title>
<path fill="none" stroke="#9a32cd" stroke-dasharray="5,2" d="M17.23,-178.16C12.75,-146.02 8.45,-80.01 39.5,-38 48.79,-25.43 65.25,-18.61 78.73,-14.97"/>
<polygon fill="#9a32cd" stroke="#9a32cd" points="13.82,-179.02 18.82,-188.36 20.74,-177.94 13.82,-179.02"/>
<text text-anchor="middle" x="68" y="-96" font-family="Helvetica,sans-Serif" font-size="10.00"> ncb_length</text>
</g>
<!-- Node3 -->
<g id="node3" class="node">
<title>Node3</title>
<g id="a_node3"><a xlink:title=" ">
<polygon fill="none" stroke="#bfbfbf" points="81.5,-188.5 81.5,-207.5 119.5,-207.5 119.5,-188.5 81.5,-188.5"/>
<text text-anchor="middle" x="100.5" y="-195.5" font-family="Helvetica,sans-Serif" font-size="10.00">char</text>
</a>
</g>
</g>
<!-- Node3&#45;&gt;Node1 -->
<g id="edge2" class="edge">
<title>Node3&#45;&gt;Node1</title>
<path fill="none" stroke="#9a32cd" stroke-dasharray="5,2" d="M100.5,-177.86C100.5,-138.21 100.5,-48.42 100.5,-19.88"/>
<polygon fill="#9a32cd" stroke="#9a32cd" points="97,-178.03 100.5,-188.03 104,-178.03 97,-178.03"/>
<text text-anchor="middle" x="136.5" y="-151" font-family="Helvetica,sans-Serif" font-size="10.00"> ncb_lsn</text>
<text text-anchor="middle" x="136.5" y="-140" font-family="Helvetica,sans-Serif" font-size="10.00">ncb_reserve</text>
<text text-anchor="middle" x="136.5" y="-129" font-family="Helvetica,sans-Serif" font-size="10.00">ncb_name</text>
<text text-anchor="middle" x="136.5" y="-118" font-family="Helvetica,sans-Serif" font-size="10.00">ncb_buffer</text>
<text text-anchor="middle" x="136.5" y="-107" font-family="Helvetica,sans-Serif" font-size="10.00">ncb_num</text>
<text text-anchor="middle" x="136.5" y="-96" font-family="Helvetica,sans-Serif" font-size="10.00">ncb_command</text>
<text text-anchor="middle" x="136.5" y="-85" font-family="Helvetica,sans-Serif" font-size="10.00">ncb_rto</text>
<text text-anchor="middle" x="136.5" y="-74" font-family="Helvetica,sans-Serif" font-size="10.00">ncb_sto</text>
<text text-anchor="middle" x="136.5" y="-63" font-family="Helvetica,sans-Serif" font-size="10.00">ncb_callname</text>
<text text-anchor="middle" x="136.5" y="-52" font-family="Helvetica,sans-Serif" font-size="10.00">ncb_lana_num</text>
<text text-anchor="middle" x="136.5" y="-41" font-family="Helvetica,sans-Serif" font-size="10.00">...</text>
</g>
<!-- Node4 -->
<g id="node4" class="node">
<title>Node4</title>
<g id="a_node4"><a xlink:title=" ">
<polygon fill="none" stroke="#bfbfbf" points="137.5,-177.5 137.5,-218.5 335.5,-218.5 335.5,-177.5 137.5,-177.5"/>
<text text-anchor="start" x="145.5" y="-206.5" font-family="Helvetica,sans-Serif" font-size="10.00">PSecurityUserData *typedef</text>
<text text-anchor="start" x="145.5" y="-195.5" font-family="Helvetica,sans-Serif" font-size="10.00"> PSECPKG_EXTENDED_INFORMATION</text>
<text text-anchor="middle" x="236.5" y="-184.5" font-family="Helvetica,sans-Serif" font-size="10.00"> *typedef</text>
</a>
</g>
</g>
<!-- Node4&#45;&gt;Node1 -->
<g id="edge3" class="edge">
<title>Node4&#45;&gt;Node1</title>
<path fill="none" stroke="#9a32cd" stroke-dasharray="5,2" d="M232.85,-167.07C227.01,-131.66 212.29,-73.1 176.5,-38 161.8,-23.59 138.93,-16.82 122.11,-13.68"/>
<polygon fill="#9a32cd" stroke="#9a32cd" points="229.44,-167.9 234.39,-177.26 236.36,-166.85 229.44,-167.9"/>
<text text-anchor="middle" x="257.5" y="-96" font-family="Helvetica,sans-Serif" font-size="10.00"> ncb_event</text>
</g>
</g>
</svg>
