<?xml version="1.0" encoding="UTF-8" standalone="no"?>
<!DOCTYPE svg PUBLIC "-//W3C//DTD SVG 1.1//EN"
 "http://www.w3.org/Graphics/SVG/1.1/DTD/svg11.dtd">
<!-- Generated by graphviz version 2.43.0 (0)
 -->
<!-- Title: _SHFILEOPSTRUCTA Pages: 1 -->
<svg width="474pt" height="258pt"
 viewBox="0.00 0.00 474.00 258.00" xmlns="http://www.w3.org/2000/svg" xmlns:xlink="http://www.w3.org/1999/xlink">
<g id="graph0" class="graph" transform="scale(1 1) rotate(0) translate(4 254)">
<title>_SHFILEOPSTRUCTA</title>
<!-- Node1 -->
<g id="node1" class="node">
<title>Node1</title>
<g id="a_node1"><a xlink:title=" ">
<polygon fill="#bfbfbf" stroke="black" points="352,-117.5 352,-136.5 466,-136.5 466,-117.5 352,-117.5"/>
<text text-anchor="middle" x="409" y="-124.5" font-family="Helvetica,sans-Serif" font-size="10.00">_SHFILEOPSTRUCTA</text>
</a>
</g>
</g>
<!-- Node2 -->
<g id="node2" class="node">
<title>Node2</title>
<g id="a_node2"><a xlink:title=" ">
<polygon fill="none" stroke="#bfbfbf" points="67,-228.5 67,-247.5 131,-247.5 131,-228.5 67,-228.5"/>
<text text-anchor="middle" x="99" y="-235.5" font-family="Helvetica,sans-Serif" font-size="10.00">WINBOOL</text>
</a>
</g>
</g>
<!-- Node2&#45;&gt;Node1 -->
<g id="edge1" class="edge">
<title>Node2&#45;&gt;Node1</title>
<path fill="none" stroke="#9a32cd" stroke-dasharray="5,2" d="M141.37,-241.29C190.22,-243.35 272.6,-240.96 334,-209 366.66,-192 391.95,-154.37 402.56,-136.62"/>
<polygon fill="#9a32cd" stroke="#9a32cd" points="141.34,-237.79 131.17,-240.78 140.98,-244.78 141.34,-237.79"/>
<text text-anchor="middle" x="275" y="-242" font-family="Helvetica,sans-Serif" font-size="10.00"> fAnyOperationsAborted</text>
</g>
<!-- Node3 -->
<g id="node3" class="node">
<title>Node3</title>
<g id="a_node3"><a xlink:title=" ">
<polygon fill="none" stroke="#bfbfbf" points="80,-174.5 80,-193.5 118,-193.5 118,-174.5 80,-174.5"/>
<text text-anchor="middle" x="99" y="-181.5" font-family="Helvetica,sans-Serif" font-size="10.00">char</text>
</a>
</g>
</g>
<!-- Node3&#45;&gt;Node1 -->
<g id="edge2" class="edge">
<title>Node3&#45;&gt;Node1</title>
<path fill="none" stroke="#9a32cd" stroke-dasharray="5,2" d="M128.16,-182.15C172.46,-178.83 260.91,-170.48 334,-153 351.35,-148.85 370.32,-142.14 384.71,-136.57"/>
<polygon fill="#9a32cd" stroke="#9a32cd" points="127.86,-178.66 118.14,-182.87 128.36,-185.65 127.86,-178.66"/>
<text text-anchor="middle" x="275" y="-197" font-family="Helvetica,sans-Serif" font-size="10.00"> pFrom</text>
<text text-anchor="middle" x="275" y="-186" font-family="Helvetica,sans-Serif" font-size="10.00">pTo</text>
<text text-anchor="middle" x="275" y="-175" font-family="Helvetica,sans-Serif" font-size="10.00">lpszProgressTitle</text>
</g>
<!-- Node4 -->
<g id="node4" class="node">
<title>Node4</title>
<g id="a_node4"><a xlink:title=" ">
<polygon fill="none" stroke="#bfbfbf" points="74.5,-136.5 74.5,-155.5 123.5,-155.5 123.5,-136.5 74.5,-136.5"/>
<text text-anchor="middle" x="99" y="-143.5" font-family="Helvetica,sans-Serif" font-size="10.00">HWND</text>
</a>
</g>
</g>
<!-- Node4&#45;&gt;Node1 -->
<g id="edge3" class="edge">
<title>Node4&#45;&gt;Node1</title>
<path fill="none" stroke="#9a32cd" stroke-dasharray="5,2" d="M133.79,-143.92C186.33,-140.67 288.2,-134.39 351.9,-130.46"/>
<polygon fill="#9a32cd" stroke="#9a32cd" points="133.42,-140.43 123.66,-144.54 133.85,-147.42 133.42,-140.43"/>
<text text-anchor="middle" x="275" y="-141" font-family="Helvetica,sans-Serif" font-size="10.00"> hwnd</text>
</g>
<!-- Node5 -->
<g id="node5" class="node">
<title>Node5</title>
<g id="a_node5"><a xlink:title=" ">
<polygon fill="none" stroke="#bfbfbf" points="54.5,-98.5 54.5,-117.5 143.5,-117.5 143.5,-98.5 54.5,-98.5"/>
<text text-anchor="middle" x="99" y="-105.5" font-family="Helvetica,sans-Serif" font-size="10.00">unsigned short</text>
</a>
</g>
</g>
<!-- Node5&#45;&gt;Node1 -->
<g id="edge4" class="edge">
<title>Node5&#45;&gt;Node1</title>
<path fill="none" stroke="#9a32cd" stroke-dasharray="5,2" d="M153.71,-108.11C201.21,-108.62 272.34,-110.38 334,-116 339.82,-116.53 345.88,-117.21 351.92,-117.98"/>
<polygon fill="#9a32cd" stroke="#9a32cd" points="153.68,-104.61 143.65,-108.02 153.62,-111.61 153.68,-104.61"/>
<text text-anchor="middle" x="275" y="-119" font-family="Helvetica,sans-Serif" font-size="10.00"> fFlags</text>
</g>
<!-- Node6 -->
<g id="node6" class="node">
<title>Node6</title>
<g id="a_node6"><a xlink:title=" ">
<polygon fill="none" stroke="#bfbfbf" points="84.5,-60.5 84.5,-79.5 113.5,-79.5 113.5,-60.5 84.5,-60.5"/>
<text text-anchor="middle" x="99" y="-67.5" font-family="Helvetica,sans-Serif" font-size="10.00">int</text>
</a>
</g>
</g>
<!-- Node6&#45;&gt;Node1 -->
<g id="edge5" class="edge">
<title>Node6&#45;&gt;Node1</title>
<path fill="none" stroke="#9a32cd" stroke-dasharray="5,2" d="M123.99,-69.98C166.88,-70.48 259.21,-74.04 334,-94 354.25,-99.41 376,-109.7 390.64,-117.36"/>
<polygon fill="#9a32cd" stroke="#9a32cd" points="123.75,-66.47 113.72,-69.91 123.7,-73.47 123.75,-66.47"/>
<text text-anchor="middle" x="275" y="-97" font-family="Helvetica,sans-Serif" font-size="10.00"> wFunc</text>
</g>
<!-- Node7 -->
<g id="node7" class="node">
<title>Node7</title>
<g id="a_node7"><a xlink:title=" ">
<polygon fill="none" stroke="#bfbfbf" points="0,-0.5 0,-41.5 198,-41.5 198,-0.5 0,-0.5"/>
<text text-anchor="start" x="8" y="-29.5" font-family="Helvetica,sans-Serif" font-size="10.00">PSecurityUserData *typedef</text>
<text text-anchor="start" x="8" y="-18.5" font-family="Helvetica,sans-Serif" font-size="10.00"> PSECPKG_EXTENDED_INFORMATION</text>
<text text-anchor="middle" x="99" y="-7.5" font-family="Helvetica,sans-Serif" font-size="10.00"> *typedef</text>
</a>
</g>
</g>
<!-- Node7&#45;&gt;Node1 -->
<g id="edge6" class="edge">
<title>Node7&#45;&gt;Node1</title>
<path fill="none" stroke="#9a32cd" stroke-dasharray="5,2" d="M208.06,-25.42C249.11,-30.41 295.27,-40.19 334,-59 362.88,-73.02 388.47,-102.02 400.59,-117.22"/>
<polygon fill="#9a32cd" stroke="#9a32cd" points="208.35,-21.93 198.02,-24.28 207.56,-28.88 208.35,-21.93"/>
<text text-anchor="middle" x="275" y="-62" font-family="Helvetica,sans-Serif" font-size="10.00"> hNameMappings</text>
</g>
</g>
</svg>
