<?xml version="1.0" encoding="UTF-8" standalone="no"?>
<!DOCTYPE svg PUBLIC "-//W3C//DTD SVG 1.1//EN"
 "http://www.w3.org/Graphics/SVG/1.1/DTD/svg11.dtd">
<!-- Generated by graphviz version 2.43.0 (0)
 -->
<!-- Title: Source/Engine/tools/lcc/src/symbolic.c Pages: 1 -->
<svg width="564pt" height="151pt"
 viewBox="0.00 0.00 563.50 151.00" xmlns="http://www.w3.org/2000/svg" xmlns:xlink="http://www.w3.org/1999/xlink">
<g id="graph0" class="graph" transform="scale(1 1) rotate(0) translate(4 147)">
<title>Source/Engine/tools/lcc/src/symbolic.c</title>
<!-- Node1 -->
<g id="node1" class="node">
<title>Node1</title>
<g id="a_node1"><a xlink:title=" ">
<polygon fill="#bfbfbf" stroke="black" points="161.5,-112.5 161.5,-142.5 274.5,-142.5 274.5,-112.5 161.5,-112.5"/>
<text text-anchor="start" x="169.5" y="-130.5" font-family="Helvetica,sans-Serif" font-size="10.00">Source/Engine/tools</text>
<text text-anchor="middle" x="218" y="-119.5" font-family="Helvetica,sans-Serif" font-size="10.00">/lcc/src/symbolic.c</text>
</a>
</g>
</g>
<!-- Node2 -->
<g id="node2" class="node">
<title>Node2</title>
<g id="a_node2"><a xlink:title=" ">
<polygon fill="none" stroke="#bfbfbf" points="125,-56.5 125,-75.5 173,-75.5 173,-56.5 125,-56.5"/>
<text text-anchor="middle" x="149" y="-63.5" font-family="Helvetica,sans-Serif" font-size="10.00">time.h</text>
</a>
</g>
</g>
<!-- Node1&#45;&gt;Node2 -->
<g id="edge1" class="edge">
<title>Node1&#45;&gt;Node2</title>
<path fill="none" stroke="midnightblue" d="M201.65,-112.4C191.1,-103.31 177.4,-91.49 166.62,-82.19"/>
<polygon fill="midnightblue" stroke="midnightblue" points="168.9,-79.54 159.04,-75.66 164.33,-84.84 168.9,-79.54"/>
</g>
<!-- Node3 -->
<g id="node3" class="node">
<title>Node3</title>
<g id="a_node3"><a xlink:title=" ">
<polygon fill="none" stroke="#bfbfbf" points="191.5,-56.5 191.5,-75.5 244.5,-75.5 244.5,-56.5 191.5,-56.5"/>
<text text-anchor="middle" x="218" y="-63.5" font-family="Helvetica,sans-Serif" font-size="10.00">ctype.h</text>
</a>
</g>
</g>
<!-- Node1&#45;&gt;Node3 -->
<g id="edge2" class="edge">
<title>Node1&#45;&gt;Node3</title>
<path fill="none" stroke="midnightblue" d="M218,-112.4C218,-104.47 218,-94.46 218,-85.86"/>
<polygon fill="midnightblue" stroke="midnightblue" points="221.5,-85.66 218,-75.66 214.5,-85.66 221.5,-85.66"/>
</g>
<!-- Node4 -->
<g id="node4" class="node">
<title>Node4</title>
<g id="a_node4"><a xlink:href="../../d2/dc5/c_8h.html" target="_top" xlink:title=" ">
<polygon fill="none" stroke="black" points="262.5,-56.5 262.5,-75.5 293.5,-75.5 293.5,-56.5 262.5,-56.5"/>
<text text-anchor="middle" x="278" y="-63.5" font-family="Helvetica,sans-Serif" font-size="10.00">c.h</text>
</a>
</g>
</g>
<!-- Node1&#45;&gt;Node4 -->
<g id="edge3" class="edge">
<title>Node1&#45;&gt;Node4</title>
<path fill="none" stroke="midnightblue" d="M232.22,-112.4C241.21,-103.49 252.84,-91.95 262.13,-82.74"/>
<polygon fill="midnightblue" stroke="midnightblue" points="264.63,-85.18 269.27,-75.66 259.7,-80.21 264.63,-85.18"/>
</g>
<!-- Node5 -->
<g id="node5" class="node">
<title>Node5</title>
<g id="a_node5"><a xlink:title=" ">
<polygon fill="none" stroke="#bfbfbf" points="0,-0.5 0,-19.5 56,-19.5 56,-0.5 0,-0.5"/>
<text text-anchor="middle" x="28" y="-7.5" font-family="Helvetica,sans-Serif" font-size="10.00">assert.h</text>
</a>
</g>
</g>
<!-- Node4&#45;&gt;Node5 -->
<g id="edge4" class="edge">
<title>Node4&#45;&gt;Node5</title>
<path fill="none" stroke="midnightblue" d="M262.25,-58.91C259.21,-57.85 256.03,-56.83 253,-56 173.99,-34.36 149.91,-37.76 66.2,-20.16"/>
<polygon fill="midnightblue" stroke="midnightblue" points="66.76,-16.7 56.25,-18.02 65.29,-23.54 66.76,-16.7"/>
</g>
<!-- Node6 -->
<g id="node6" class="node">
<title>Node6</title>
<g id="a_node6"><a xlink:title=" ">
<polygon fill="none" stroke="#bfbfbf" points="74,-0.5 74,-19.5 130,-19.5 130,-0.5 74,-0.5"/>
<text text-anchor="middle" x="102" y="-7.5" font-family="Helvetica,sans-Serif" font-size="10.00">stdarg.h</text>
</a>
</g>
</g>
<!-- Node4&#45;&gt;Node6 -->
<g id="edge5" class="edge">
<title>Node4&#45;&gt;Node6</title>
<path fill="none" stroke="midnightblue" d="M262.44,-59.25C259.33,-58.14 256.07,-57.01 253,-56 214.83,-43.45 170.74,-30.49 140.1,-21.72"/>
<polygon fill="midnightblue" stroke="midnightblue" points="140.83,-18.28 130.25,-18.91 138.91,-25.02 140.83,-18.28"/>
</g>
<!-- Node7 -->
<g id="node7" class="node">
<title>Node7</title>
<g id="a_node7"><a xlink:title=" ">
<polygon fill="none" stroke="#bfbfbf" points="148,-0.5 148,-19.5 198,-19.5 198,-0.5 148,-0.5"/>
<text text-anchor="middle" x="173" y="-7.5" font-family="Helvetica,sans-Serif" font-size="10.00">stdio.h</text>
</a>
</g>
</g>
<!-- Node4&#45;&gt;Node7 -->
<g id="edge6" class="edge">
<title>Node4&#45;&gt;Node7</title>
<path fill="none" stroke="midnightblue" d="M262.05,-56.8C245.29,-48.18 218.66,-34.48 198.88,-24.31"/>
<polygon fill="midnightblue" stroke="midnightblue" points="200.29,-21.1 189.79,-19.64 197.09,-27.32 200.29,-21.1"/>
</g>
<!-- Node8 -->
<g id="node8" class="node">
<title>Node8</title>
<g id="a_node8"><a xlink:title=" ">
<polygon fill="none" stroke="#bfbfbf" points="216.5,-0.5 216.5,-19.5 269.5,-19.5 269.5,-0.5 216.5,-0.5"/>
<text text-anchor="middle" x="243" y="-7.5" font-family="Helvetica,sans-Serif" font-size="10.00">stdlib.h</text>
</a>
</g>
</g>
<!-- Node4&#45;&gt;Node8 -->
<g id="edge7" class="edge">
<title>Node4&#45;&gt;Node8</title>
<path fill="none" stroke="midnightblue" d="M272.22,-56.08C267.33,-48.53 260.17,-37.49 254.17,-28.23"/>
<polygon fill="midnightblue" stroke="midnightblue" points="257.05,-26.24 248.67,-19.75 251.17,-30.05 257.05,-26.24"/>
</g>
<!-- Node9 -->
<g id="node9" class="node">
<title>Node9</title>
<g id="a_node9"><a xlink:title=" ">
<polygon fill="none" stroke="#bfbfbf" points="287.5,-0.5 287.5,-19.5 340.5,-19.5 340.5,-0.5 287.5,-0.5"/>
<text text-anchor="middle" x="314" y="-7.5" font-family="Helvetica,sans-Serif" font-size="10.00">limits.h</text>
</a>
</g>
</g>
<!-- Node4&#45;&gt;Node9 -->
<g id="edge8" class="edge">
<title>Node4&#45;&gt;Node9</title>
<path fill="none" stroke="midnightblue" d="M283.94,-56.08C288.98,-48.53 296.34,-37.49 302.51,-28.23"/>
<polygon fill="midnightblue" stroke="midnightblue" points="305.53,-30.01 308.17,-19.75 299.71,-26.13 305.53,-30.01"/>
</g>
<!-- Node10 -->
<g id="node10" class="node">
<title>Node10</title>
<g id="a_node10"><a xlink:title=" ">
<polygon fill="none" stroke="#bfbfbf" points="358.5,-0.5 358.5,-19.5 411.5,-19.5 411.5,-0.5 358.5,-0.5"/>
<text text-anchor="middle" x="385" y="-7.5" font-family="Helvetica,sans-Serif" font-size="10.00">string.h</text>
</a>
</g>
</g>
<!-- Node4&#45;&gt;Node10 -->
<g id="edge9" class="edge">
<title>Node4&#45;&gt;Node10</title>
<path fill="none" stroke="midnightblue" d="M293.79,-57.03C310.95,-48.37 338.65,-34.39 359.03,-24.11"/>
<polygon fill="midnightblue" stroke="midnightblue" points="360.74,-27.17 368.09,-19.54 357.58,-20.92 360.74,-27.17"/>
</g>
<!-- Node11 -->
<g id="node11" class="node">
<title>Node11</title>
<g id="a_node11"><a xlink:href="../../d4/dc6/tools_2lcc_2src_2config_8h.html" target="_top" xlink:title=" ">
<polygon fill="none" stroke="black" points="429.5,-0.5 429.5,-19.5 484.5,-19.5 484.5,-0.5 429.5,-0.5"/>
<text text-anchor="middle" x="457" y="-7.5" font-family="Helvetica,sans-Serif" font-size="10.00">config.h</text>
</a>
</g>
</g>
<!-- Node4&#45;&gt;Node11 -->
<g id="edge10" class="edge">
<title>Node4&#45;&gt;Node11</title>
<path fill="none" stroke="midnightblue" d="M293.57,-60.3C321.45,-51.89 380.59,-34.05 419.56,-22.3"/>
<polygon fill="midnightblue" stroke="midnightblue" points="420.92,-25.54 429.48,-19.3 418.9,-18.84 420.92,-25.54"/>
</g>
<!-- Node12 -->
<g id="node12" class="node">
<title>Node12</title>
<g id="a_node12"><a xlink:href="../../d1/d07/token_8h.html" target="_top" xlink:title=" ">
<polygon fill="none" stroke="black" points="502.5,-0.5 502.5,-19.5 555.5,-19.5 555.5,-0.5 502.5,-0.5"/>
<text text-anchor="middle" x="529" y="-7.5" font-family="Helvetica,sans-Serif" font-size="10.00">token.h</text>
</a>
</g>
</g>
<!-- Node4&#45;&gt;Node12 -->
<g id="edge11" class="edge">
<title>Node4&#45;&gt;Node12</title>
<path fill="none" stroke="midnightblue" d="M293.51,-62.03C327.68,-55.42 412.24,-38.77 492.51,-20.27"/>
<polygon fill="midnightblue" stroke="midnightblue" points="493.33,-23.68 502.28,-18.01 491.75,-16.86 493.33,-23.68"/>
</g>
</g>
</svg>
