<?xml version="1.0" encoding="UTF-8" standalone="no"?>
<!DOCTYPE svg PUBLIC "-//W3C//DTD SVG 1.1//EN"
 "http://www.w3.org/Graphics/SVG/1.1/DTD/svg11.dtd">
<!-- Generated by graphviz version 2.43.0 (0)
 -->
<!-- Title: _RPC_CLIENT_INTERFACE Pages: 1 -->
<!--zoomable 184 -->
<svg id="main" version="1.1" xmlns="http://www.w3.org/2000/svg" xmlns:xlink="http://www.w3.org/1999/xlink" xml:space="preserve" onload="init(evt)">
<style type="text/css"><![CDATA[
.edge:hover path { stroke: red; }
.edge:hover polygon { stroke: red; fill: red; }
]]></style>
<script type="text/javascript"><![CDATA[
var edges = document.getElementsByTagName('g');
if (edges && edges.length) {
  for (var i=0;i<edges.length;i++) {
    if (edges[i].id.substr(0,4)=='edge') {
      edges[i].setAttribute('class','edge');
    }
  }
}
]]></script>
        <defs>
                <circle id="rim" cx="0" cy="0" r="7"/>
                <circle id="rim2" cx="0" cy="0" r="3.5"/>
                <g id="zoomPlus">
                        <use xlink:href="#rim" fill="#404040">
                                <set attributeName="fill" to="#808080" begin="zoomplus.mouseover" end="zoomplus.mouseout"/>
                        </use>
                        <path d="M-4,0h8M0,-4v8" fill="none" stroke="white" stroke-width="1.5" pointer-events="none"/>
                </g>
                <g id="zoomMin">
                        <use xlink:href="#rim" fill="#404040">
                                <set attributeName="fill" to="#808080" begin="zoomminus.mouseover" end="zoomminus.mouseout"/>
                        </use>
                        <path d="M-4,0h8" fill="none" stroke="white" stroke-width="1.5" pointer-events="none"/>
                </g>
                <g id="dirArrow">
                        <path fill="none" stroke="white" stroke-width="1.5" d="M0,-3.0v7 M-2.5,-0.5L0,-3.0L2.5,-0.5"/>
                </g>
               <g id="resetDef">
                       <use xlink:href="#rim2" fill="#404040">
                               <set attributeName="fill" to="#808080" begin="reset.mouseover" end="reset.mouseout"/>
                       </use>
               </g>
        </defs>

<script type="text/javascript">
var viewWidth = 726;
var viewHeight = 184;
var sectionId = 'dynsection-0';
</script>
<script xlink:href="../../svgpan.js"/>
<svg id="graph" class="graph">
<g id="viewport">
<title>_RPC_CLIENT_INTERFACE</title>
<!-- Node1 -->
<g id="node1" class="node">
<title>Node1</title>
<g id="a_node1"><a xlink:title=" ">
<polygon fill="#bfbfbf" stroke="black" points="223,-0.5 223,-19.5 363,-19.5 363,-0.5 223,-0.5"/>
<text text-anchor="middle" x="293" y="-7.5" font-family="Helvetica,sans-Serif" font-size="10.00">_RPC_CLIENT_INTERFACE</text>
</a>
</g>
</g>
<!-- Node2 -->
<g id="node2" class="node">
<title>Node2</title>
<g id="a_node2"><a xlink:title=" ">
<polygon fill="none" stroke="#bfbfbf" points="0,-84 0,-103 38,-103 38,-84 0,-84"/>
<text text-anchor="middle" x="19" y="-91" font-family="Helvetica,sans-Serif" font-size="10.00">void</text>
</a>
</g>
</g>
<!-- Node2&#45;&gt;Node1 -->
<g id="edge1" class="edge">
<title>Node2&#45;&gt;Node1</title>
<path fill="none" stroke="#9a32cd" stroke-dasharray="5,2" d="M18.33,-73.66C18.99,-61.65 22.02,-46.75 32,-38 46.13,-25.61 150.47,-17.98 222.86,-14.11"/>
<polygon fill="#9a32cd" stroke="#9a32cd" points="14.83,-73.98 18.28,-83.99 21.83,-74.01 14.83,-73.98"/>
<text text-anchor="middle" x="69" y="-46.5" font-family="Helvetica,sans-Serif" font-size="10.00"> InterpreterInfo</text>
</g>
<!-- Node3 -->
<g id="node3" class="node">
<title>Node3</title>
<g id="a_node3"><a xlink:title=" ">
<polygon fill="none" stroke="#bfbfbf" points="57,-78.5 57,-108.5 175,-108.5 175,-78.5 57,-78.5"/>
<text text-anchor="start" x="65" y="-96.5" font-family="Helvetica,sans-Serif" font-size="10.00">struct RPC_PROTSEQ</text>
<text text-anchor="middle" x="116" y="-85.5" font-family="Helvetica,sans-Serif" font-size="10.00">_ENDPOINT *</text>
</a>
</g>
</g>
<!-- Node3&#45;&gt;Node1 -->
<g id="edge2" class="edge">
<title>Node3&#45;&gt;Node1</title>
<path fill="none" stroke="#9a32cd" stroke-dasharray="5,2" d="M110.03,-68.29C108.92,-57.82 109.9,-46.12 117,-38 130.89,-22.12 180,-15.5 222.83,-12.77"/>
<polygon fill="#9a32cd" stroke="#9a32cd" points="106.58,-68.9 111.67,-78.19 113.48,-67.75 106.58,-68.9"/>
<text text-anchor="middle" x="167.5" y="-46.5" font-family="Helvetica,sans-Serif" font-size="10.00"> RpcProtseqEndpoint</text>
</g>
<!-- Node4 -->
<g id="node4" class="node">
<title>Node4</title>
<g id="a_node4"><a xlink:title=" ">
<polygon fill="none" stroke="#bfbfbf" points="267.5,-156.5 267.5,-175.5 296.5,-175.5 296.5,-156.5 267.5,-156.5"/>
<text text-anchor="middle" x="282" y="-163.5" font-family="Helvetica,sans-Serif" font-size="10.00">int</text>
</a>
</g>
</g>
<!-- Node4&#45;&gt;Node1 -->
<g id="edge3" class="edge">
<title>Node4&#45;&gt;Node1</title>
<path fill="none" stroke="#9a32cd" stroke-dasharray="5,2" d="M265.73,-148.71C256.52,-138.31 245.9,-124 241,-109 236.72,-95.9 236.54,-91.03 241,-78 249.3,-53.76 270.34,-31.52 282.97,-19.76"/>
<polygon fill="#9a32cd" stroke="#9a32cd" points="263.29,-151.23 272.67,-156.15 268.4,-146.45 263.29,-151.23"/>
<text text-anchor="middle" x="306" y="-96.5" font-family="Helvetica,sans-Serif" font-size="10.00"> RpcProtseqEndpointCount</text>
<text text-anchor="middle" x="306" y="-85.5" font-family="Helvetica,sans-Serif" font-size="10.00">Length</text>
</g>
<!-- Node7 -->
<g id="node7" class="node">
<title>Node7</title>
<g id="a_node7"><a xlink:href="../../d1/d35/structRPC__DISPATCH__TABLE.html" target="_top" xlink:title=" ">
<polygon fill="none" stroke="black" points="380,-84 380,-103 504,-103 504,-84 380,-84"/>
<text text-anchor="middle" x="442" y="-91" font-family="Helvetica,sans-Serif" font-size="10.00">RPC_DISPATCH_TABLE</text>
</a>
</g>
</g>
<!-- Node4&#45;&gt;Node7 -->
<g id="edge8" class="edge">
<title>Node4&#45;&gt;Node7</title>
<path fill="none" stroke="#9a32cd" stroke-dasharray="5,2" d="M306.22,-154.33C338.05,-140.3 393.36,-115.93 422.6,-103.05"/>
<polygon fill="#9a32cd" stroke="#9a32cd" points="304.51,-151.26 296.77,-158.49 307.33,-157.66 304.51,-151.26"/>
<text text-anchor="middle" x="390.5" y="-130" font-family="Helvetica,sans-Serif" font-size="10.00"> Reserved</text>
</g>
<!-- Node5 -->
<g id="node5" class="node">
<title>Node5</title>
<g id="a_node5"><a xlink:title=" ">
<polygon fill="none" stroke="#bfbfbf" points="522,-84 522,-103 662,-103 662,-84 522,-84"/>
<text text-anchor="middle" x="592" y="-91" font-family="Helvetica,sans-Serif" font-size="10.00">RPC_SYNTAX_IDENTIFIER</text>
</a>
</g>
</g>
<!-- Node5&#45;&gt;Node1 -->
<g id="edge4" class="edge">
<title>Node5&#45;&gt;Node1</title>
<path fill="none" stroke="#9a32cd" stroke-dasharray="5,2" d="M564.76,-79.54C537.73,-67.17 494.84,-48.86 456,-38 426.03,-29.62 392.18,-23.49 363.13,-19.21"/>
<polygon fill="#9a32cd" stroke="#9a32cd" points="563.42,-82.77 573.96,-83.8 566.36,-76.42 563.42,-82.77"/>
<text text-anchor="middle" x="554" y="-52" font-family="Helvetica,sans-Serif" font-size="10.00"> TransferSyntax</text>
<text text-anchor="middle" x="554" y="-41" font-family="Helvetica,sans-Serif" font-size="10.00">InterfaceId</text>
</g>
<!-- Node6 -->
<g id="node6" class="node">
<title>Node6</title>
<g id="a_node6"><a xlink:title=" ">
<polygon fill="none" stroke="#bfbfbf" points="680,-84 680,-103 718,-103 718,-84 680,-84"/>
<text text-anchor="middle" x="699" y="-91" font-family="Helvetica,sans-Serif" font-size="10.00">long</text>
</a>
</g>
</g>
<!-- Node6&#45;&gt;Node1 -->
<g id="edge5" class="edge">
<title>Node6&#45;&gt;Node1</title>
<path fill="none" stroke="#9a32cd" stroke-dasharray="5,2" d="M678.08,-78.21C657.99,-65.3 626.31,-46.97 596,-38 553.9,-25.54 438.7,-17.88 363.09,-14.03"/>
<polygon fill="#9a32cd" stroke="#9a32cd" points="676.42,-81.31 686.7,-83.88 680.27,-75.46 676.42,-81.31"/>
<text text-anchor="middle" x="669.5" y="-46.5" font-family="Helvetica,sans-Serif" font-size="10.00"> Reserved</text>
</g>
<!-- Node7&#45;&gt;Node1 -->
<g id="edge6" class="edge">
<title>Node7&#45;&gt;Node1</title>
<path fill="none" stroke="#9a32cd" stroke-dasharray="5,2" d="M417.53,-79.11C386.79,-62.3 334.93,-33.93 308.9,-19.7"/>
<polygon fill="#9a32cd" stroke="#9a32cd" points="415.88,-82.2 426.34,-83.93 419.24,-76.06 415.88,-82.2"/>
<text text-anchor="middle" x="416" y="-46.5" font-family="Helvetica,sans-Serif" font-size="10.00"> DispatchTable</text>
</g>
<!-- Node8 -->
<g id="node8" class="node">
<title>Node8</title>
<g id="a_node8"><a xlink:title=" ">
<polygon fill="none" stroke="#bfbfbf" points="340,-156.5 340,-175.5 494,-175.5 494,-156.5 340,-156.5"/>
<text text-anchor="middle" x="417" y="-163.5" font-family="Helvetica,sans-Serif" font-size="10.00">RPC_DISPATCH_FUNCTION *</text>
</a>
</g>
</g>
<!-- Node8&#45;&gt;Node7 -->
<g id="edge7" class="edge">
<title>Node8&#45;&gt;Node7</title>
<path fill="none" stroke="#9a32cd" stroke-dasharray="5,2" d="M423.46,-146.77C428.43,-132.76 435.07,-114.03 438.91,-103.22"/>
<polygon fill="#9a32cd" stroke="#9a32cd" points="420.11,-145.76 420.07,-156.36 426.71,-148.1 420.11,-145.76"/>
<text text-anchor="middle" x="466" y="-130" font-family="Helvetica,sans-Serif" font-size="10.00"> DispatchTable</text>
</g>
<!-- Node9 -->
<g id="node9" class="node">
<title>Node9</title>
<g id="a_node9"><a xlink:title=" ">
<polygon fill="none" stroke="#bfbfbf" points="512.5,-156.5 512.5,-175.5 573.5,-175.5 573.5,-156.5 512.5,-156.5"/>
<text text-anchor="middle" x="543" y="-163.5" font-family="Helvetica,sans-Serif" font-size="10.00">unsigned</text>
</a>
</g>
</g>
<!-- Node9&#45;&gt;Node7 -->
<g id="edge9" class="edge">
<title>Node9&#45;&gt;Node7</title>
<path fill="none" stroke="#9a32cd" stroke-dasharray="5,2" d="M529.21,-148.55C522.65,-141.37 514.42,-133.2 506,-127 492.75,-117.25 476.15,-108.92 463.17,-103.13"/>
<polygon fill="#9a32cd" stroke="#9a32cd" points="526.81,-151.13 536.04,-156.35 532.08,-146.52 526.81,-151.13"/>
<text text-anchor="middle" x="568" y="-130" font-family="Helvetica,sans-Serif" font-size="10.00"> DispatchTableCount</text>
</g>
</g>
</svg>
        <g id="navigator" transform="translate(0 0)" fill="#404254">
                <rect fill="#f2f5e9" fill-opacity="0.5" stroke="#606060" stroke-width=".5" x="0" y="0" width="60" height="60"/>
                <use id="zoomplus" xlink:href="#zoomPlus" x="17" y="9" onmousedown="handleZoom(evt,'in')"/>
                <use id="zoomminus" xlink:href="#zoomMin" x="42" y="9" onmousedown="handleZoom(evt,'out')"/>
                <use id="reset" xlink:href="#resetDef" x="30" y="36" onmousedown="handleReset()"/>
                <g id="arrowUp" xlink:href="#dirArrow" transform="translate(30 24)" onmousedown="handlePan(0,-1)">
                  <use xlink:href="#rim" fill="#404040">
                        <set attributeName="fill" to="#808080" begin="arrowUp.mouseover" end="arrowUp.mouseout"/>
                  </use>
                  <path fill="none" stroke="white" stroke-width="1.5" d="M0,-3.0v7 M-2.5,-0.5L0,-3.0L2.5,-0.5"/>
                </g>
                <g id="arrowRight" xlink:href="#dirArrow" transform="rotate(90) translate(36 -43)" onmousedown="handlePan(1,0)">
                  <use xlink:href="#rim" fill="#404040">
                        <set attributeName="fill" to="#808080" begin="arrowRight.mouseover" end="arrowRight.mouseout"/>
                  </use>
                  <path fill="none" stroke="white" stroke-width="1.5" d="M0,-3.0v7 M-2.5,-0.5L0,-3.0L2.5,-0.5"/>
                </g>
                <g id="arrowDown" xlink:href="#dirArrow" transform="rotate(180) translate(-30 -48)" onmousedown="handlePan(0,1)">
                  <use xlink:href="#rim" fill="#404040">
                        <set attributeName="fill" to="#808080" begin="arrowDown.mouseover" end="arrowDown.mouseout"/>
                  </use>
                  <path fill="none" stroke="white" stroke-width="1.5" d="M0,-3.0v7 M-2.5,-0.5L0,-3.0L2.5,-0.5"/>
                </g>
                <g id="arrowLeft" xlink:href="#dirArrow" transform="rotate(270) translate(-36 17)" onmousedown="handlePan(-1,0)">
                  <use xlink:href="#rim" fill="#404040">
                        <set attributeName="fill" to="#808080" begin="arrowLeft.mouseover" end="arrowLeft.mouseout"/>
                  </use>
                  <path fill="none" stroke="white" stroke-width="1.5" d="M0,-3.0v7 M-2.5,-0.5L0,-3.0L2.5,-0.5"/>
                </g>
        </g>
        <svg viewBox="0 0 15 15" width="100%" height="30px" preserveAspectRatio="xMaxYMin meet">
         <g id="arrow_out" transform="scale(0.3 0.3)">
          <a xlink:href="struct__RPC__CLIENT__INTERFACE__coll__graph_org.svg" target="_base">
           <rect id="button" ry="5" rx="5" y="6" x="6" height="38" width="38"
                fill="#f2f5e9" fill-opacity="0.5" stroke="#606060" stroke-width="1.0"/>
           <path id="arrow"
             d="M 11.500037,31.436501 C 11.940474,20.09759 22.043105,11.32322 32.158766,21.979434 L 37.068811,17.246167 C 37.068811,17.246167 37.088388,32 37.088388,32 L 22.160133,31.978069 C 22.160133,31.978069 26.997745,27.140456 26.997745,27.140456 C 18.528582,18.264221 13.291696,25.230495 11.500037,31.436501 z"
             style="fill:#404040;"/>
          </a>
         </g>
        </svg>
</svg>
