<?xml version="1.0" encoding="UTF-8" standalone="no"?>
<!DOCTYPE svg PUBLIC "-//W3C//DTD SVG 1.1//EN"
 "http://www.w3.org/Graphics/SVG/1.1/DTD/svg11.dtd">
<!-- Generated by graphviz version 2.43.0 (0)
 -->
<!-- Title: _INTERNET_CACHE_ENTRY_INFOW Pages: 1 -->
<svg width="445pt" height="183pt"
 viewBox="0.00 0.00 444.50 183.00" xmlns="http://www.w3.org/2000/svg" xmlns:xlink="http://www.w3.org/1999/xlink">
<g id="graph0" class="graph" transform="scale(1 1) rotate(0) translate(4 179)">
<title>_INTERNET_CACHE_ENTRY_INFOW</title>
<!-- Node1 -->
<g id="node1" class="node">
<title>Node1</title>
<g id="a_node1"><a xlink:title=" ">
<polygon fill="#bfbfbf" stroke="black" points="96.5,-0.5 96.5,-30.5 242.5,-30.5 242.5,-0.5 96.5,-0.5"/>
<text text-anchor="start" x="104.5" y="-18.5" font-family="Helvetica,sans-Serif" font-size="10.00">_INTERNET_CACHE_ENTRY</text>
<text text-anchor="middle" x="169.5" y="-7.5" font-family="Helvetica,sans-Serif" font-size="10.00">_INFOW</text>
</a>
</g>
</g>
<!-- Node2 -->
<g id="node2" class="node">
<title>Node2</title>
<g id="a_node2"><a xlink:title=" ">
<polygon fill="none" stroke="#bfbfbf" points="0,-155.5 0,-174.5 49,-174.5 49,-155.5 0,-155.5"/>
<text text-anchor="middle" x="24.5" y="-162.5" font-family="Helvetica,sans-Serif" font-size="10.00">BYTE *</text>
</a>
</g>
</g>
<!-- Node2&#45;&gt;Node1 -->
<g id="edge1" class="edge">
<title>Node2&#45;&gt;Node1</title>
<path fill="none" stroke="#9a32cd" stroke-dasharray="5,2" d="M19.68,-145.21C14.48,-120.16 9.7,-75.86 32.5,-49 41.32,-38.61 68.44,-31.1 96.26,-25.94"/>
<polygon fill="#9a32cd" stroke="#9a32cd" points="16.34,-146.29 22.01,-155.24 23.16,-144.7 16.34,-146.29"/>
<text text-anchor="middle" x="66" y="-90.5" font-family="Helvetica,sans-Serif" font-size="10.00"> lpHeaderInfo</text>
</g>
<!-- Node3 -->
<g id="node3" class="node">
<title>Node3</title>
<g id="a_node3"><a xlink:title=" ">
<polygon fill="none" stroke="#bfbfbf" points="84,-155.5 84,-174.5 145,-174.5 145,-155.5 84,-155.5"/>
<text text-anchor="middle" x="114.5" y="-162.5" font-family="Helvetica,sans-Serif" font-size="10.00">FILETIME</text>
</a>
</g>
</g>
<!-- Node3&#45;&gt;Node1 -->
<g id="edge2" class="edge">
<title>Node3&#45;&gt;Node1</title>
<path fill="none" stroke="#9a32cd" stroke-dasharray="5,2" d="M109.48,-145.61C104.03,-121.64 98.23,-79.23 115.5,-49 119.9,-41.3 126.91,-35.22 134.46,-30.51"/>
<polygon fill="#9a32cd" stroke="#9a32cd" points="106.12,-146.63 111.95,-155.48 112.91,-144.93 106.12,-146.63"/>
<text text-anchor="middle" x="159.5" y="-107" font-family="Helvetica,sans-Serif" font-size="10.00"> ExpireTime</text>
<text text-anchor="middle" x="159.5" y="-96" font-family="Helvetica,sans-Serif" font-size="10.00">LastModifiedTime</text>
<text text-anchor="middle" x="159.5" y="-85" font-family="Helvetica,sans-Serif" font-size="10.00">LastSyncTime</text>
<text text-anchor="middle" x="159.5" y="-74" font-family="Helvetica,sans-Serif" font-size="10.00">LastAccessTime</text>
</g>
<!-- Node4 -->
<g id="node4" class="node">
<title>Node4</title>
<g id="a_node4"><a xlink:title=" ">
<polygon fill="none" stroke="#bfbfbf" points="181,-155.5 181,-174.5 270,-174.5 270,-155.5 181,-155.5"/>
<text text-anchor="middle" x="225.5" y="-162.5" font-family="Helvetica,sans-Serif" font-size="10.00">unsigned short</text>
</a>
</g>
</g>
<!-- Node4&#45;&gt;Node1 -->
<g id="edge3" class="edge">
<title>Node4&#45;&gt;Node1</title>
<path fill="none" stroke="#9a32cd" stroke-dasharray="5,2" d="M225.36,-145.2C224.44,-121.42 220.29,-79.84 203.5,-49 199.75,-42.11 194.03,-35.82 188.35,-30.65"/>
<polygon fill="#9a32cd" stroke="#9a32cd" points="221.86,-145.41 225.59,-155.33 228.86,-145.25 221.86,-145.41"/>
<text text-anchor="middle" x="273" y="-101.5" font-family="Helvetica,sans-Serif" font-size="10.00"> lpszFileExtension</text>
<text text-anchor="middle" x="273" y="-90.5" font-family="Helvetica,sans-Serif" font-size="10.00">lpszSourceUrlName</text>
<text text-anchor="middle" x="273" y="-79.5" font-family="Helvetica,sans-Serif" font-size="10.00">lpszLocalFileName</text>
</g>
<!-- Node5 -->
<g id="node5" class="node">
<title>Node5</title>
<g id="a_node5"><a xlink:title=" ">
<polygon fill="none" stroke="#bfbfbf" points="326.5,-155.5 326.5,-174.5 364.5,-174.5 364.5,-155.5 326.5,-155.5"/>
<text text-anchor="middle" x="345.5" y="-162.5" font-family="Helvetica,sans-Serif" font-size="10.00">long</text>
</a>
</g>
</g>
<!-- Node5&#45;&gt;Node1 -->
<g id="edge4" class="edge">
<title>Node5&#45;&gt;Node1</title>
<path fill="none" stroke="#9a32cd" stroke-dasharray="5,2" d="M347.71,-145.2C349.57,-119.78 348.69,-74.67 323.5,-49 311.87,-37.15 276.59,-29.23 242.73,-24.17"/>
<polygon fill="#9a32cd" stroke="#9a32cd" points="344.21,-145.07 346.74,-155.36 351.17,-145.73 344.21,-145.07"/>
<text text-anchor="middle" x="392" y="-129" font-family="Helvetica,sans-Serif" font-size="10.00"> dwSizeLow</text>
<text text-anchor="middle" x="392" y="-118" font-family="Helvetica,sans-Serif" font-size="10.00">dwHitRate</text>
<text text-anchor="middle" x="392" y="-107" font-family="Helvetica,sans-Serif" font-size="10.00">dwStructSize</text>
<text text-anchor="middle" x="392" y="-96" font-family="Helvetica,sans-Serif" font-size="10.00">CacheEntryType</text>
<text text-anchor="middle" x="392" y="-85" font-family="Helvetica,sans-Serif" font-size="10.00">dwUseCount</text>
<text text-anchor="middle" x="392" y="-74" font-family="Helvetica,sans-Serif" font-size="10.00">dwReserved</text>
<text text-anchor="middle" x="392" y="-63" font-family="Helvetica,sans-Serif" font-size="10.00">dwHeaderInfoSize</text>
<text text-anchor="middle" x="392" y="-52" font-family="Helvetica,sans-Serif" font-size="10.00">dwSizeHigh</text>
</g>
</g>
</svg>
