<?xml version="1.0" encoding="UTF-8" standalone="no"?>
<!DOCTYPE svg PUBLIC "-//W3C//DTD SVG 1.1//EN"
 "http://www.w3.org/Graphics/SVG/1.1/DTD/svg11.dtd">
<!-- Generated by graphviz version 2.43.0 (0)
 -->
<!-- Title: _USB_DRIVER_VERSION_PARAMETERS Pages: 1 -->
<svg width="487pt" height="155pt"
 viewBox="0.00 0.00 487.00 155.00" xmlns="http://www.w3.org/2000/svg" xmlns:xlink="http://www.w3.org/1999/xlink">
<g id="graph0" class="graph" transform="scale(1 1) rotate(0) translate(4 151)">
<title>_USB_DRIVER_VERSION_PARAMETERS</title>
<!-- Node1 -->
<g id="node1" class="node">
<title>Node1</title>
<g id="a_node1"><a xlink:title=" ">
<polygon fill="#bfbfbf" stroke="black" points="346,-62 346,-92 479,-92 479,-62 346,-62"/>
<text text-anchor="start" x="354" y="-80" font-family="Helvetica,sans-Serif" font-size="10.00">_USB_DRIVER_VERSION</text>
<text text-anchor="middle" x="412.5" y="-69" font-family="Helvetica,sans-Serif" font-size="10.00">_PARAMETERS</text>
</a>
</g>
</g>
<!-- Node2 -->
<g id="node2" class="node">
<title>Node2</title>
<g id="a_node2"><a xlink:title=" ">
<polygon fill="none" stroke="#bfbfbf" points="18.5,-105.5 18.5,-146.5 179.5,-146.5 179.5,-105.5 18.5,-105.5"/>
<text text-anchor="start" x="26.5" y="-134.5" font-family="Helvetica,sans-Serif" font-size="10.00">PLDAP *typedef(__cdecl</text>
<text text-anchor="start" x="26.5" y="-123.5" font-family="Helvetica,sans-Serif" font-size="10.00"> NOTIFYOFNEWCONNECTION)</text>
<text text-anchor="middle" x="99" y="-112.5" font-family="Helvetica,sans-Serif" font-size="10.00">(PLDAP</text>
</a>
</g>
</g>
<!-- Node2&#45;&gt;Node1 -->
<g id="edge1" class="edge">
<title>Node2&#45;&gt;Node1</title>
<path fill="none" stroke="#9a32cd" stroke-dasharray="5,2" d="M189.69,-113.25C231.73,-107.12 282.48,-99.48 328,-92 333.81,-91.04 339.85,-90.02 345.89,-88.98"/>
<polygon fill="#9a32cd" stroke="#9a32cd" points="189.15,-109.8 179.76,-114.7 190.16,-116.72 189.15,-109.8"/>
<text text-anchor="middle" x="272" y="-122" font-family="Helvetica,sans-Serif" font-size="10.00"> CheckedPortDriver</text>
<text text-anchor="middle" x="272" y="-111" font-family="Helvetica,sans-Serif" font-size="10.00">CheckedMiniportDriver</text>
</g>
<!-- Node3 -->
<g id="node3" class="node">
<title>Node3</title>
<g id="a_node3"><a xlink:title=" ">
<polygon fill="none" stroke="#bfbfbf" points="68.5,-67.5 68.5,-86.5 129.5,-86.5 129.5,-67.5 68.5,-67.5"/>
<text text-anchor="middle" x="99" y="-74.5" font-family="Helvetica,sans-Serif" font-size="10.00">unsigned</text>
</a>
</g>
</g>
<!-- Node3&#45;&gt;Node1 -->
<g id="edge2" class="edge">
<title>Node3&#45;&gt;Node1</title>
<path fill="none" stroke="#9a32cd" stroke-dasharray="5,2" d="M139.74,-77C191.73,-77 283.53,-77 345.9,-77"/>
<polygon fill="#9a32cd" stroke="#9a32cd" points="139.59,-73.5 129.59,-77 139.59,-80.5 139.59,-73.5"/>
<text text-anchor="middle" x="272" y="-80" font-family="Helvetica,sans-Serif" font-size="10.00"> USB_Version</text>
</g>
<!-- Node4 -->
<g id="node4" class="node">
<title>Node4</title>
<g id="a_node4"><a xlink:title=" ">
<polygon fill="none" stroke="#bfbfbf" points="0,-0.5 0,-41.5 198,-41.5 198,-0.5 0,-0.5"/>
<text text-anchor="start" x="8" y="-29.5" font-family="Helvetica,sans-Serif" font-size="10.00">PSecurityUserData *typedef</text>
<text text-anchor="start" x="8" y="-18.5" font-family="Helvetica,sans-Serif" font-size="10.00"> PSECPKG_EXTENDED_INFORMATION</text>
<text text-anchor="middle" x="99" y="-7.5" font-family="Helvetica,sans-Serif" font-size="10.00"> *typedef</text>
</a>
</g>
</g>
<!-- Node4&#45;&gt;Node1 -->
<g id="edge3" class="edge">
<title>Node4&#45;&gt;Node1</title>
<path fill="none" stroke="#9a32cd" stroke-dasharray="5,2" d="M208.4,-22.64C246.65,-25.16 289.67,-30.21 328,-40 347.36,-44.95 367.89,-53.99 383.75,-61.89"/>
<polygon fill="#9a32cd" stroke="#9a32cd" points="208.46,-19.14 198.26,-22.03 208.03,-26.13 208.46,-19.14"/>
<text text-anchor="middle" x="272" y="-65" font-family="Helvetica,sans-Serif" font-size="10.00"> USBDI_Version</text>
<text text-anchor="middle" x="272" y="-54" font-family="Helvetica,sans-Serif" font-size="10.00">DriverTrackingCode</text>
<text text-anchor="middle" x="272" y="-43" font-family="Helvetica,sans-Serif" font-size="10.00">USBUSER_Version</text>
</g>
</g>
</svg>
