<?xml version="1.0" encoding="UTF-8" standalone="no"?>
<!DOCTYPE svg PUBLIC "-//W3C//DTD SVG 1.1//EN"
 "http://www.w3.org/Graphics/SVG/1.1/DTD/svg11.dtd">
<!-- Generated by graphviz version 2.43.0 (0)
 -->
<!-- Title: _LOCK_STATE Pages: 1 -->
<svg width="145pt" height="95pt"
 viewBox="0.00 0.00 145.00 95.00" xmlns="http://www.w3.org/2000/svg" xmlns:xlink="http://www.w3.org/1999/xlink">
<g id="graph0" class="graph" transform="scale(1 1) rotate(0) translate(4 91)">
<title>_LOCK_STATE</title>
<!-- Node1 -->
<g id="node1" class="node">
<title>Node1</title>
<g id="a_node1"><a xlink:title=" ">
<polygon fill="#bfbfbf" stroke="black" points="21.5,-0.5 21.5,-19.5 104.5,-19.5 104.5,-0.5 21.5,-0.5"/>
<text text-anchor="middle" x="63" y="-7.5" font-family="Helvetica,sans-Serif" font-size="10.00">_LOCK_STATE</text>
</a>
</g>
</g>
<!-- Node2 -->
<g id="node2" class="node">
<title>Node2</title>
<g id="a_node2"><a xlink:title=" ">
<polygon fill="none" stroke="#bfbfbf" points="0,-67.5 0,-86.5 52,-86.5 52,-67.5 0,-67.5"/>
<text text-anchor="middle" x="26" y="-74.5" font-family="Helvetica,sans-Serif" font-size="10.00">UCHAR</text>
</a>
</g>
</g>
<!-- Node2&#45;&gt;Node1 -->
<g id="edge1" class="edge">
<title>Node2&#45;&gt;Node1</title>
<path fill="none" stroke="#9a32cd" stroke-dasharray="5,2" d="M33.09,-58.02C35.89,-51.55 39.31,-44.31 43,-38 46.77,-31.55 51.77,-24.8 55.83,-19.67"/>
<polygon fill="#9a32cd" stroke="#9a32cd" points="29.85,-56.71 29.27,-67.29 36.32,-59.38 29.85,-56.71"/>
<text text-anchor="middle" x="61" y="-41" font-family="Helvetica,sans-Serif" font-size="10.00"> OldIrql</text>
</g>
<!-- Node3 -->
<g id="node3" class="node">
<title>Node3</title>
<g id="a_node3"><a xlink:title=" ">
<polygon fill="none" stroke="#bfbfbf" points="70.5,-67.5 70.5,-86.5 131.5,-86.5 131.5,-67.5 70.5,-67.5"/>
<text text-anchor="middle" x="101" y="-74.5" font-family="Helvetica,sans-Serif" font-size="10.00">unsigned</text>
</a>
</g>
</g>
<!-- Node3&#45;&gt;Node1 -->
<g id="edge2" class="edge">
<title>Node3&#45;&gt;Node1</title>
<path fill="none" stroke="#9a32cd" stroke-dasharray="5,2" d="M90.71,-58.14C87.03,-51.78 82.84,-44.56 79,-38 75.47,-31.98 71.47,-25.23 68.36,-19.99"/>
<polygon fill="#9a32cd" stroke="#9a32cd" points="87.93,-60.32 95.96,-67.23 93.99,-56.82 87.93,-60.32"/>
<text text-anchor="middle" x="111" y="-41" font-family="Helvetica,sans-Serif" font-size="10.00"> LockState</text>
</g>
</g>
</svg>
