<?xml version="1.0" encoding="UTF-8" standalone="no"?>
<!DOCTYPE svg PUBLIC "-//W3C//DTD SVG 1.1//EN"
 "http://www.w3.org/Graphics/SVG/1.1/DTD/svg11.dtd">
<!-- Generated by graphviz version 2.43.0 (0)
 -->
<!-- Title: _DEVICE_MAP Pages: 1 -->
<svg width="465pt" height="131pt"
 viewBox="0.00 0.00 465.00 131.00" xmlns="http://www.w3.org/2000/svg" xmlns:xlink="http://www.w3.org/1999/xlink">
<g id="graph0" class="graph" transform="scale(1 1) rotate(0) translate(4 127)">
<title>_DEVICE_MAP</title>
<!-- Node1 -->
<g id="node1" class="node">
<title>Node1</title>
<g id="a_node1"><a xlink:title=" ">
<polygon fill="#bfbfbf" stroke="black" points="372,-60.5 372,-79.5 457,-79.5 457,-60.5 372,-60.5"/>
<text text-anchor="middle" x="414.5" y="-67.5" font-family="Helvetica,sans-Serif" font-size="10.00">_DEVICE_MAP</text>
</a>
</g>
</g>
<!-- Node2 -->
<g id="node2" class="node">
<title>Node2</title>
<g id="a_node2"><a xlink:title=" ">
<polygon fill="none" stroke="#bfbfbf" points="20,-98.5 20,-117.5 178,-117.5 178,-98.5 20,-98.5"/>
<text text-anchor="middle" x="99" y="-105.5" font-family="Helvetica,sans-Serif" font-size="10.00">struct _OBJECT_DIRECTORY *</text>
</a>
</g>
</g>
<!-- Node2&#45;&gt;Node1 -->
<g id="edge1" class="edge">
<title>Node2&#45;&gt;Node1</title>
<path fill="none" stroke="#9a32cd" stroke-dasharray="5,2" d="M188.48,-103.4C237.5,-100 299.39,-94.3 354,-85 362.3,-83.59 371.14,-81.62 379.4,-79.57"/>
<polygon fill="#9a32cd" stroke="#9a32cd" points="187.97,-99.93 178.23,-104.09 188.44,-106.91 187.97,-99.93"/>
<text text-anchor="middle" x="285" y="-115" font-family="Helvetica,sans-Serif" font-size="10.00"> GlobalDosDevicesDirectory</text>
<text text-anchor="middle" x="285" y="-104" font-family="Helvetica,sans-Serif" font-size="10.00">DosDevicesDirectory</text>
</g>
<!-- Node3 -->
<g id="node3" class="node">
<title>Node3</title>
<g id="a_node3"><a xlink:title=" ">
<polygon fill="none" stroke="#bfbfbf" points="68.5,-60.5 68.5,-79.5 129.5,-79.5 129.5,-60.5 68.5,-60.5"/>
<text text-anchor="middle" x="99" y="-67.5" font-family="Helvetica,sans-Serif" font-size="10.00">unsigned</text>
</a>
</g>
</g>
<!-- Node3&#45;&gt;Node1 -->
<g id="edge2" class="edge">
<title>Node3&#45;&gt;Node1</title>
<path fill="none" stroke="#9a32cd" stroke-dasharray="5,2" d="M139.93,-70C199.55,-70 311.29,-70 371.88,-70"/>
<polygon fill="#9a32cd" stroke="#9a32cd" points="139.78,-66.5 129.78,-70 139.78,-73.5 139.78,-66.5"/>
<text text-anchor="middle" x="285" y="-73" font-family="Helvetica,sans-Serif" font-size="10.00"> DriveType</text>
</g>
<!-- Node4 -->
<g id="node4" class="node">
<title>Node4</title>
<g id="a_node4"><a xlink:title=" ">
<polygon fill="none" stroke="#bfbfbf" points="0,-0.5 0,-41.5 198,-41.5 198,-0.5 0,-0.5"/>
<text text-anchor="start" x="8" y="-29.5" font-family="Helvetica,sans-Serif" font-size="10.00">PSecurityUserData *typedef</text>
<text text-anchor="start" x="8" y="-18.5" font-family="Helvetica,sans-Serif" font-size="10.00"> PSECPKG_EXTENDED_INFORMATION</text>
<text text-anchor="middle" x="99" y="-7.5" font-family="Helvetica,sans-Serif" font-size="10.00"> *typedef</text>
</a>
</g>
</g>
<!-- Node4&#45;&gt;Node1 -->
<g id="edge3" class="edge">
<title>Node4&#45;&gt;Node1</title>
<path fill="none" stroke="#9a32cd" stroke-dasharray="5,2" d="M208.24,-23.14C253.81,-26.01 307.05,-31.95 354,-44 368.63,-47.75 384.25,-54.7 395.81,-60.47"/>
<polygon fill="#9a32cd" stroke="#9a32cd" points="208.23,-19.63 198.04,-22.54 207.82,-26.62 208.23,-19.63"/>
<text text-anchor="middle" x="285" y="-58" font-family="Helvetica,sans-Serif" font-size="10.00"> ReferenceCount</text>
<text text-anchor="middle" x="285" y="-47" font-family="Helvetica,sans-Serif" font-size="10.00">DriveMap</text>
</g>
</g>
</svg>
