<?xml version="1.0" encoding="UTF-8" standalone="no"?>
<!DOCTYPE svg PUBLIC "-//W3C//DTD SVG 1.1//EN"
 "http://www.w3.org/Graphics/SVG/1.1/DTD/svg11.dtd">
<!-- Generated by graphviz version 2.43.0 (0)
 -->
<!-- Title: _MACHINE_POWER_POLICY Pages: 1 -->
<!--zoomable 247 -->
<svg id="main" version="1.1" xmlns="http://www.w3.org/2000/svg" xmlns:xlink="http://www.w3.org/1999/xlink" xml:space="preserve" onload="init(evt)">
<style type="text/css"><![CDATA[
.edge:hover path { stroke: red; }
.edge:hover polygon { stroke: red; fill: red; }
]]></style>
<script type="text/javascript"><![CDATA[
var edges = document.getElementsByTagName('g');
if (edges && edges.length) {
  for (var i=0;i<edges.length;i++) {
    if (edges[i].id.substr(0,4)=='edge') {
      edges[i].setAttribute('class','edge');
    }
  }
}
]]></script>
        <defs>
                <circle id="rim" cx="0" cy="0" r="7"/>
                <circle id="rim2" cx="0" cy="0" r="3.5"/>
                <g id="zoomPlus">
                        <use xlink:href="#rim" fill="#404040">
                                <set attributeName="fill" to="#808080" begin="zoomplus.mouseover" end="zoomplus.mouseout"/>
                        </use>
                        <path d="M-4,0h8M0,-4v8" fill="none" stroke="white" stroke-width="1.5" pointer-events="none"/>
                </g>
                <g id="zoomMin">
                        <use xlink:href="#rim" fill="#404040">
                                <set attributeName="fill" to="#808080" begin="zoomminus.mouseover" end="zoomminus.mouseout"/>
                        </use>
                        <path d="M-4,0h8" fill="none" stroke="white" stroke-width="1.5" pointer-events="none"/>
                </g>
                <g id="dirArrow">
                        <path fill="none" stroke="white" stroke-width="1.5" d="M0,-3.0v7 M-2.5,-0.5L0,-3.0L2.5,-0.5"/>
                </g>
               <g id="resetDef">
                       <use xlink:href="#rim2" fill="#404040">
                               <set attributeName="fill" to="#808080" begin="reset.mouseover" end="reset.mouseout"/>
                       </use>
               </g>
        </defs>

<script type="text/javascript">
var viewWidth = 512;
var viewHeight = 247;
var sectionId = 'dynsection-0';
</script>
<script xlink:href="../../svgpan.js"/>
<svg id="graph" class="graph">
<g id="viewport">
<title>_MACHINE_POWER_POLICY</title>
<!-- Node1 -->
<g id="node1" class="node">
<title>Node1</title>
<g id="a_node1"><a xlink:title=" ">
<polygon fill="#bfbfbf" stroke="black" points="355,-122.5 355,-141.5 504,-141.5 504,-122.5 355,-122.5"/>
<text text-anchor="middle" x="429.5" y="-129.5" font-family="Helvetica,sans-Serif" font-size="10.00">_MACHINE_POWER_POLICY</text>
</a>
</g>
</g>
<!-- Node2 -->
<g id="node2" class="node">
<title>Node2</title>
<g id="a_node2"><a xlink:title=" ">
<polygon fill="none" stroke="#bfbfbf" points="31.5,-212.5 31.5,-231.5 166.5,-231.5 166.5,-212.5 31.5,-212.5"/>
<text text-anchor="middle" x="99" y="-219.5" font-family="Helvetica,sans-Serif" font-size="10.00">POWER_ACTION_POLICY</text>
</a>
</g>
</g>
<!-- Node2&#45;&gt;Node1 -->
<g id="edge1" class="edge">
<title>Node2&#45;&gt;Node1</title>
<path fill="none" stroke="#9a32cd" stroke-dasharray="5,2" d="M176.73,-221.03C224.17,-218.33 285.61,-210.94 337,-192 369.08,-180.17 401.29,-155.32 417.58,-141.6"/>
<polygon fill="#9a32cd" stroke="#9a32cd" points="176.33,-217.55 166.52,-221.56 176.69,-224.54 176.33,-217.55"/>
<text text-anchor="middle" x="276.5" y="-231" font-family="Helvetica,sans-Serif" font-size="10.00"> OverThrottledDc</text>
<text text-anchor="middle" x="276.5" y="-220" font-family="Helvetica,sans-Serif" font-size="10.00">OverThrottledAc</text>
</g>
<!-- Node3 -->
<g id="node3" class="node">
<title>Node3</title>
<g id="a_node3"><a xlink:title=" ">
<polygon fill="none" stroke="#bfbfbf" points="80,-156.5 80,-175.5 118,-175.5 118,-156.5 80,-156.5"/>
<text text-anchor="middle" x="99" y="-163.5" font-family="Helvetica,sans-Serif" font-size="10.00">char</text>
</a>
</g>
</g>
<!-- Node3&#45;&gt;Node1 -->
<g id="edge2" class="edge">
<title>Node3&#45;&gt;Node1</title>
<path fill="none" stroke="#9a32cd" stroke-dasharray="5,2" d="M128.21,-163.73C172.66,-160.07 261.69,-152.43 337,-144 343.85,-143.23 350.97,-142.39 358.1,-141.51"/>
<polygon fill="#9a32cd" stroke="#9a32cd" points="127.84,-160.25 118.16,-164.55 128.41,-167.22 127.84,-160.25"/>
<text text-anchor="middle" x="276.5" y="-180" font-family="Helvetica,sans-Serif" font-size="10.00"> pad1</text>
<text text-anchor="middle" x="276.5" y="-169" font-family="Helvetica,sans-Serif" font-size="10.00">MinThrottleAc</text>
<text text-anchor="middle" x="276.5" y="-158" font-family="Helvetica,sans-Serif" font-size="10.00">MinThrottleDc</text>
</g>
<!-- Node4 -->
<g id="node4" class="node">
<title>Node4</title>
<g id="a_node4"><a xlink:title=" ">
<polygon fill="none" stroke="#bfbfbf" points="33.5,-89.5 33.5,-108.5 164.5,-108.5 164.5,-89.5 33.5,-89.5"/>
<text text-anchor="middle" x="99" y="-96.5" font-family="Helvetica,sans-Serif" font-size="10.00">SYSTEM_POWER_STATE</text>
</a>
</g>
</g>
<!-- Node4&#45;&gt;Node1 -->
<g id="edge3" class="edge">
<title>Node4&#45;&gt;Node1</title>
<path fill="none" stroke="#9a32cd" stroke-dasharray="5,2" d="M174.71,-93.02C221.65,-90.82 283.26,-90.76 337,-100 362.04,-104.31 389.38,-114.67 407.59,-122.44"/>
<polygon fill="#9a32cd" stroke="#9a32cd" points="174.43,-89.53 164.63,-93.54 174.79,-96.52 174.43,-89.53"/>
<text text-anchor="middle" x="276.5" y="-136" font-family="Helvetica,sans-Serif" font-size="10.00"> MinSleepAc</text>
<text text-anchor="middle" x="276.5" y="-125" font-family="Helvetica,sans-Serif" font-size="10.00">ReducedLatencySleepAc</text>
<text text-anchor="middle" x="276.5" y="-114" font-family="Helvetica,sans-Serif" font-size="10.00">MinSleepDc</text>
<text text-anchor="middle" x="276.5" y="-103" font-family="Helvetica,sans-Serif" font-size="10.00">ReducedLatencySleepDc</text>
</g>
<!-- Node5 -->
<g id="node5" class="node">
<title>Node5</title>
<g id="a_node5"><a xlink:title=" ">
<polygon fill="none" stroke="#bfbfbf" points="0,-0.5 0,-41.5 198,-41.5 198,-0.5 0,-0.5"/>
<text text-anchor="start" x="8" y="-29.5" font-family="Helvetica,sans-Serif" font-size="10.00">PSecurityUserData *typedef</text>
<text text-anchor="start" x="8" y="-18.5" font-family="Helvetica,sans-Serif" font-size="10.00"> PSECPKG_EXTENDED_INFORMATION</text>
<text text-anchor="middle" x="99" y="-7.5" font-family="Helvetica,sans-Serif" font-size="10.00"> *typedef</text>
</a>
</g>
</g>
<!-- Node5&#45;&gt;Node1 -->
<g id="edge4" class="edge">
<title>Node5&#45;&gt;Node1</title>
<path fill="none" stroke="#9a32cd" stroke-dasharray="5,2" d="M208.29,-8.83C250.23,-8.43 297.54,-13.52 337,-32 379.41,-51.86 411.17,-101.27 423.22,-122.29"/>
<polygon fill="#9a32cd" stroke="#9a32cd" points="207.96,-5.33 198.03,-9.03 208.1,-12.33 207.96,-5.33"/>
<text text-anchor="middle" x="276.5" y="-79" font-family="Helvetica,sans-Serif" font-size="10.00"> Revision</text>
<text text-anchor="middle" x="276.5" y="-68" font-family="Helvetica,sans-Serif" font-size="10.00">DozeTimeoutAc</text>
<text text-anchor="middle" x="276.5" y="-57" font-family="Helvetica,sans-Serif" font-size="10.00">DozeS4TimeoutDc</text>
<text text-anchor="middle" x="276.5" y="-46" font-family="Helvetica,sans-Serif" font-size="10.00">DozeTimeoutDc</text>
<text text-anchor="middle" x="276.5" y="-35" font-family="Helvetica,sans-Serif" font-size="10.00">DozeS4TimeoutAc</text>
</g>
</g>
</svg>
        <g id="navigator" transform="translate(0 0)" fill="#404254">
                <rect fill="#f2f5e9" fill-opacity="0.5" stroke="#606060" stroke-width=".5" x="0" y="0" width="60" height="60"/>
                <use id="zoomplus" xlink:href="#zoomPlus" x="17" y="9" onmousedown="handleZoom(evt,'in')"/>
                <use id="zoomminus" xlink:href="#zoomMin" x="42" y="9" onmousedown="handleZoom(evt,'out')"/>
                <use id="reset" xlink:href="#resetDef" x="30" y="36" onmousedown="handleReset()"/>
                <g id="arrowUp" xlink:href="#dirArrow" transform="translate(30 24)" onmousedown="handlePan(0,-1)">
                  <use xlink:href="#rim" fill="#404040">
                        <set attributeName="fill" to="#808080" begin="arrowUp.mouseover" end="arrowUp.mouseout"/>
                  </use>
                  <path fill="none" stroke="white" stroke-width="1.5" d="M0,-3.0v7 M-2.5,-0.5L0,-3.0L2.5,-0.5"/>
                </g>
                <g id="arrowRight" xlink:href="#dirArrow" transform="rotate(90) translate(36 -43)" onmousedown="handlePan(1,0)">
                  <use xlink:href="#rim" fill="#404040">
                        <set attributeName="fill" to="#808080" begin="arrowRight.mouseover" end="arrowRight.mouseout"/>
                  </use>
                  <path fill="none" stroke="white" stroke-width="1.5" d="M0,-3.0v7 M-2.5,-0.5L0,-3.0L2.5,-0.5"/>
                </g>
                <g id="arrowDown" xlink:href="#dirArrow" transform="rotate(180) translate(-30 -48)" onmousedown="handlePan(0,1)">
                  <use xlink:href="#rim" fill="#404040">
                        <set attributeName="fill" to="#808080" begin="arrowDown.mouseover" end="arrowDown.mouseout"/>
                  </use>
                  <path fill="none" stroke="white" stroke-width="1.5" d="M0,-3.0v7 M-2.5,-0.5L0,-3.0L2.5,-0.5"/>
                </g>
                <g id="arrowLeft" xlink:href="#dirArrow" transform="rotate(270) translate(-36 17)" onmousedown="handlePan(-1,0)">
                  <use xlink:href="#rim" fill="#404040">
                        <set attributeName="fill" to="#808080" begin="arrowLeft.mouseover" end="arrowLeft.mouseout"/>
                  </use>
                  <path fill="none" stroke="white" stroke-width="1.5" d="M0,-3.0v7 M-2.5,-0.5L0,-3.0L2.5,-0.5"/>
                </g>
        </g>
        <svg viewBox="0 0 15 15" width="100%" height="30px" preserveAspectRatio="xMaxYMin meet">
         <g id="arrow_out" transform="scale(0.3 0.3)">
          <a xlink:href="struct__MACHINE__POWER__POLICY__coll__graph_org.svg" target="_base">
           <rect id="button" ry="5" rx="5" y="6" x="6" height="38" width="38"
                fill="#f2f5e9" fill-opacity="0.5" stroke="#606060" stroke-width="1.0"/>
           <path id="arrow"
             d="M 11.500037,31.436501 C 11.940474,20.09759 22.043105,11.32322 32.158766,21.979434 L 37.068811,17.246167 C 37.068811,17.246167 37.088388,32 37.088388,32 L 22.160133,31.978069 C 22.160133,31.978069 26.997745,27.140456 26.997745,27.140456 C 18.528582,18.264221 13.291696,25.230495 11.500037,31.436501 z"
             style="fill:#404040;"/>
          </a>
         </g>
        </svg>
</svg>
