<?xml version="1.0" encoding="UTF-8" standalone="no"?>
<!DOCTYPE svg PUBLIC "-//W3C//DTD SVG 1.1//EN"
 "http://www.w3.org/Graphics/SVG/1.1/DTD/svg11.dtd">
<!-- Generated by graphviz version 2.43.0 (0)
 -->
<!-- Title: tagCREATESTRUCTW Pages: 1 -->
<svg width="620pt" height="128pt"
 viewBox="0.00 0.00 620.00 128.00" xmlns="http://www.w3.org/2000/svg" xmlns:xlink="http://www.w3.org/1999/xlink">
<g id="graph0" class="graph" transform="scale(1 1) rotate(0) translate(4 124)">
<title>tagCREATESTRUCTW</title>
<!-- Node1 -->
<g id="node1" class="node">
<title>Node1</title>
<g id="a_node1"><a xlink:title=" ">
<polygon fill="#bfbfbf" stroke="black" points="261.5,-0.5 261.5,-19.5 380.5,-19.5 380.5,-0.5 261.5,-0.5"/>
<text text-anchor="middle" x="321" y="-7.5" font-family="Helvetica,sans-Serif" font-size="10.00">tagCREATESTRUCTW</text>
</a>
</g>
</g>
<!-- Node2 -->
<g id="node2" class="node">
<title>Node2</title>
<g id="a_node2"><a xlink:title=" ">
<polygon fill="none" stroke="#bfbfbf" points="0,-100.5 0,-119.5 54,-119.5 54,-100.5 0,-100.5"/>
<text text-anchor="middle" x="27" y="-107.5" font-family="Helvetica,sans-Serif" font-size="10.00">HMENU</text>
</a>
</g>
</g>
<!-- Node2&#45;&gt;Node1 -->
<g id="edge1" class="edge">
<title>Node2&#45;&gt;Node1</title>
<path fill="none" stroke="#9a32cd" stroke-dasharray="5,2" d="M28.75,-90.17C31.35,-73.65 37.84,-50.39 54,-38 70.08,-25.67 187.65,-17.63 261.32,-13.74"/>
<polygon fill="#9a32cd" stroke="#9a32cd" points="25.25,-89.96 27.49,-100.32 32.19,-90.82 25.25,-89.96"/>
<text text-anchor="middle" x="72.5" y="-57.5" font-family="Helvetica,sans-Serif" font-size="10.00"> hMenu</text>
</g>
<!-- Node3 -->
<g id="node3" class="node">
<title>Node3</title>
<g id="a_node3"><a xlink:title=" ">
<polygon fill="none" stroke="#bfbfbf" points="72.5,-100.5 72.5,-119.5 121.5,-119.5 121.5,-100.5 72.5,-100.5"/>
<text text-anchor="middle" x="97" y="-107.5" font-family="Helvetica,sans-Serif" font-size="10.00">HWND</text>
</a>
</g>
</g>
<!-- Node3&#45;&gt;Node1 -->
<g id="edge2" class="edge">
<title>Node3&#45;&gt;Node1</title>
<path fill="none" stroke="#9a32cd" stroke-dasharray="5,2" d="M95.16,-90.07C94.71,-73.85 96.98,-51.11 111,-38 132.17,-18.19 206.99,-12.55 261.3,-11.13"/>
<polygon fill="#9a32cd" stroke="#9a32cd" points="91.66,-90.29 95.79,-100.05 98.65,-89.85 91.66,-90.29"/>
<text text-anchor="middle" x="141.5" y="-57.5" font-family="Helvetica,sans-Serif" font-size="10.00"> hwndParent</text>
</g>
<!-- Node4 -->
<g id="node4" class="node">
<title>Node4</title>
<g id="a_node4"><a xlink:title=" ">
<polygon fill="none" stroke="#bfbfbf" points="162,-100.5 162,-119.5 200,-119.5 200,-100.5 162,-100.5"/>
<text text-anchor="middle" x="181" y="-107.5" font-family="Helvetica,sans-Serif" font-size="10.00">void</text>
</a>
</g>
</g>
<!-- Node4&#45;&gt;Node1 -->
<g id="edge3" class="edge">
<title>Node4&#45;&gt;Node1</title>
<path fill="none" stroke="#9a32cd" stroke-dasharray="5,2" d="M177.56,-90.03C175.85,-74.12 176.34,-51.85 189,-38 198.94,-27.12 231.08,-20.41 261.15,-16.4"/>
<polygon fill="#9a32cd" stroke="#9a32cd" points="174.15,-90.89 179.06,-100.28 181.08,-89.87 174.15,-90.89"/>
<text text-anchor="middle" x="229.5" y="-57.5" font-family="Helvetica,sans-Serif" font-size="10.00"> lpCreateParams</text>
</g>
<!-- Node5 -->
<g id="node5" class="node">
<title>Node5</title>
<g id="a_node5"><a xlink:title=" ">
<polygon fill="none" stroke="#bfbfbf" points="235.5,-100.5 235.5,-119.5 324.5,-119.5 324.5,-100.5 235.5,-100.5"/>
<text text-anchor="middle" x="280" y="-107.5" font-family="Helvetica,sans-Serif" font-size="10.00">unsigned short</text>
</a>
</g>
</g>
<!-- Node5&#45;&gt;Node1 -->
<g id="edge4" class="edge">
<title>Node5&#45;&gt;Node1</title>
<path fill="none" stroke="#9a32cd" stroke-dasharray="5,2" d="M276.06,-89.9C273.98,-74.87 273.38,-53.9 282,-38 286.32,-30.04 294.12,-23.93 301.63,-19.56"/>
<polygon fill="#9a32cd" stroke="#9a32cd" points="272.67,-90.79 277.82,-100.04 279.56,-89.59 272.67,-90.79"/>
<text text-anchor="middle" x="306.5" y="-63" font-family="Helvetica,sans-Serif" font-size="10.00"> lpszClass</text>
<text text-anchor="middle" x="306.5" y="-52" font-family="Helvetica,sans-Serif" font-size="10.00">lpszName</text>
</g>
<!-- Node6 -->
<g id="node6" class="node">
<title>Node6</title>
<g id="a_node6"><a xlink:title=" ">
<polygon fill="none" stroke="#bfbfbf" points="342.5,-100.5 342.5,-119.5 371.5,-119.5 371.5,-100.5 342.5,-100.5"/>
<text text-anchor="middle" x="357" y="-107.5" font-family="Helvetica,sans-Serif" font-size="10.00">int</text>
</a>
</g>
</g>
<!-- Node6&#45;&gt;Node1 -->
<g id="edge5" class="edge">
<title>Node6&#45;&gt;Node1</title>
<path fill="none" stroke="#9a32cd" stroke-dasharray="5,2" d="M352.19,-90.3C348.22,-75.8 342.11,-55.31 335,-38 332.43,-31.75 328.93,-25 326.08,-19.81"/>
<polygon fill="#9a32cd" stroke="#9a32cd" points="348.83,-91.31 354.78,-100.08 355.6,-89.52 348.83,-91.31"/>
<text text-anchor="middle" x="355" y="-74" font-family="Helvetica,sans-Serif" font-size="10.00"> x</text>
<text text-anchor="middle" x="355" y="-63" font-family="Helvetica,sans-Serif" font-size="10.00">y</text>
<text text-anchor="middle" x="355" y="-52" font-family="Helvetica,sans-Serif" font-size="10.00">cx</text>
<text text-anchor="middle" x="355" y="-41" font-family="Helvetica,sans-Serif" font-size="10.00">cy</text>
</g>
<!-- Node7 -->
<g id="node7" class="node">
<title>Node7</title>
<g id="a_node7"><a xlink:title=" ">
<polygon fill="none" stroke="#bfbfbf" points="389.5,-100.5 389.5,-119.5 462.5,-119.5 462.5,-100.5 389.5,-100.5"/>
<text text-anchor="middle" x="426" y="-107.5" font-family="Helvetica,sans-Serif" font-size="10.00">HINSTANCE</text>
</a>
</g>
</g>
<!-- Node7&#45;&gt;Node1 -->
<g id="edge6" class="edge">
<title>Node7&#45;&gt;Node1</title>
<path fill="none" stroke="#9a32cd" stroke-dasharray="5,2" d="M413.74,-91.91C402.26,-76.64 384.05,-54.23 365,-38 356.68,-30.91 346.29,-24.44 337.7,-19.62"/>
<polygon fill="#9a32cd" stroke="#9a32cd" points="411.23,-94.39 419.97,-100.37 416.87,-90.25 411.23,-94.39"/>
<text text-anchor="middle" x="431.5" y="-57.5" font-family="Helvetica,sans-Serif" font-size="10.00"> hInstance</text>
</g>
<!-- Node8 -->
<g id="node8" class="node">
<title>Node8</title>
<g id="a_node8"><a xlink:title=" ">
<polygon fill="none" stroke="#bfbfbf" points="481,-100.5 481,-119.5 519,-119.5 519,-100.5 481,-100.5"/>
<text text-anchor="middle" x="500" y="-107.5" font-family="Helvetica,sans-Serif" font-size="10.00">long</text>
</a>
</g>
</g>
<!-- Node8&#45;&gt;Node1 -->
<g id="edge7" class="edge">
<title>Node8&#45;&gt;Node1</title>
<path fill="none" stroke="#9a32cd" stroke-dasharray="5,2" d="M494.9,-90.83C489.32,-74.41 478.72,-50.9 461,-38 448.09,-28.6 412.65,-21.82 380.65,-17.4"/>
<polygon fill="#9a32cd" stroke="#9a32cd" points="491.56,-91.9 497.87,-100.41 498.25,-89.82 491.56,-91.9"/>
<text text-anchor="middle" x="505" y="-57.5" font-family="Helvetica,sans-Serif" font-size="10.00"> style</text>
</g>
<!-- Node9 -->
<g id="node9" class="node">
<title>Node9</title>
<g id="a_node9"><a xlink:title=" ">
<polygon fill="none" stroke="#bfbfbf" points="537.5,-100.5 537.5,-119.5 598.5,-119.5 598.5,-100.5 537.5,-100.5"/>
<text text-anchor="middle" x="568" y="-107.5" font-family="Helvetica,sans-Serif" font-size="10.00">unsigned</text>
</a>
</g>
</g>
<!-- Node9&#45;&gt;Node1 -->
<g id="edge8" class="edge">
<title>Node9&#45;&gt;Node1</title>
<path fill="none" stroke="#9a32cd" stroke-dasharray="5,2" d="M561.52,-90.54C554.67,-73.91 542.16,-50.26 523,-38 500.05,-23.31 431.62,-16.53 380.72,-13.45"/>
<polygon fill="#9a32cd" stroke="#9a32cd" points="558.4,-92.16 565.23,-100.26 564.94,-89.67 558.4,-92.16"/>
<text text-anchor="middle" x="584.5" y="-57.5" font-family="Helvetica,sans-Serif" font-size="10.00"> dwExStyle</text>
</g>
</g>
</svg>
