<?xml version="1.0" encoding="UTF-8" standalone="no"?>
<!DOCTYPE svg PUBLIC "-//W3C//DTD SVG 1.1//EN"
 "http://www.w3.org/Graphics/SVG/1.1/DTD/svg11.dtd">
<!-- Generated by graphviz version 2.43.0 (0)
 -->
<!-- Title: _IP_ADAPTER_INFO Pages: 1 -->
<svg width="514pt" height="152pt"
 viewBox="0.00 0.00 513.50 151.79" xmlns="http://www.w3.org/2000/svg" xmlns:xlink="http://www.w3.org/1999/xlink">
<g id="graph0" class="graph" transform="scale(1 1) rotate(0) translate(4 147.79)">
<title>_IP_ADAPTER_INFO</title>
<!-- Node1 -->
<g id="node1" class="node">
<title>Node1</title>
<g id="a_node1"><a xlink:title=" ">
<polygon fill="#bfbfbf" stroke="black" points="152,-2.29 152,-21.29 263,-21.29 263,-2.29 152,-2.29"/>
<text text-anchor="middle" x="207.5" y="-9.29" font-family="Helvetica,sans-Serif" font-size="10.00">_IP_ADAPTER_INFO</text>
</a>
</g>
</g>
<!-- Node1&#45;&gt;Node1 -->
<g id="edge5" class="edge">
<title>Node1&#45;&gt;Node1</title>
<path fill="none" stroke="#9a32cd" stroke-dasharray="5,2" d="M244.72,-22.66C263.82,-24.3 281,-20.68 281,-11.79 281,-1.36 257.31,1.81 234.64,-2.26"/>
<polygon fill="#9a32cd" stroke="#9a32cd" points="245.01,-19.17 234.64,-21.33 244.09,-26.11 245.01,-19.17"/>
<text text-anchor="middle" x="294.5" y="-9.29" font-family="Helvetica,sans-Serif" font-size="10.00"> Next</text>
</g>
<!-- Node2 -->
<g id="node2" class="node">
<title>Node2</title>
<g id="a_node2"><a xlink:title=" ">
<polygon fill="none" stroke="#bfbfbf" points="0,-124.29 0,-143.29 71,-143.29 71,-124.29 0,-124.29"/>
<text text-anchor="middle" x="35.5" y="-131.29" font-family="Helvetica,sans-Serif" font-size="10.00">__time32_t</text>
</a>
</g>
</g>
<!-- Node2&#45;&gt;Node1 -->
<g id="edge1" class="edge">
<title>Node2&#45;&gt;Node1</title>
<path fill="none" stroke="#9a32cd" stroke-dasharray="5,2" d="M33.43,-114.18C32.2,-93.09 33.81,-59.14 53.5,-39.79 67.3,-26.24 113.45,-19.41 151.66,-16.02"/>
<polygon fill="#9a32cd" stroke="#9a32cd" points="29.94,-114.48 34.28,-124.15 36.92,-113.89 29.94,-114.48"/>
<text text-anchor="middle" x="90" y="-75.79" font-family="Helvetica,sans-Serif" font-size="10.00"> LeaseExpires</text>
<text text-anchor="middle" x="90" y="-64.79" font-family="Helvetica,sans-Serif" font-size="10.00">LeaseObtained</text>
</g>
<!-- Node3 -->
<g id="node3" class="node">
<title>Node3</title>
<g id="a_node3"><a xlink:title=" ">
<polygon fill="none" stroke="#bfbfbf" points="99.5,-124.29 99.5,-143.29 163.5,-143.29 163.5,-124.29 99.5,-124.29"/>
<text text-anchor="middle" x="131.5" y="-131.29" font-family="Helvetica,sans-Serif" font-size="10.00">WINBOOL</text>
</a>
</g>
</g>
<!-- Node3&#45;&gt;Node1 -->
<g id="edge2" class="edge">
<title>Node3&#45;&gt;Node1</title>
<path fill="none" stroke="#9a32cd" stroke-dasharray="5,2" d="M130.64,-113.86C130.69,-93.49 133.76,-61.14 150.5,-39.79 157.12,-31.35 167.03,-25.41 176.73,-21.3"/>
<polygon fill="#9a32cd" stroke="#9a32cd" points="127.14,-114.13 130.86,-124.05 134.14,-113.98 127.14,-114.13"/>
<text text-anchor="middle" x="177" y="-70.29" font-family="Helvetica,sans-Serif" font-size="10.00"> HaveWins</text>
</g>
<!-- Node4 -->
<g id="node4" class="node">
<title>Node4</title>
<g id="a_node4"><a xlink:title=" ">
<polygon fill="none" stroke="#bfbfbf" points="188.5,-124.29 188.5,-143.29 226.5,-143.29 226.5,-124.29 188.5,-124.29"/>
<text text-anchor="middle" x="207.5" y="-131.29" font-family="Helvetica,sans-Serif" font-size="10.00">char</text>
</a>
</g>
</g>
<!-- Node4&#45;&gt;Node1 -->
<g id="edge3" class="edge">
<title>Node4&#45;&gt;Node1</title>
<path fill="none" stroke="#9a32cd" stroke-dasharray="5,2" d="M207.5,-113.94C207.5,-87.52 207.5,-40.56 207.5,-21.35"/>
<polygon fill="#9a32cd" stroke="#9a32cd" points="204,-114.16 207.5,-124.16 211,-114.16 204,-114.16"/>
<text text-anchor="middle" x="241.5" y="-75.79" font-family="Helvetica,sans-Serif" font-size="10.00"> Description</text>
<text text-anchor="middle" x="241.5" y="-64.79" font-family="Helvetica,sans-Serif" font-size="10.00">AdapterName</text>
</g>
<!-- Node5 -->
<g id="node5" class="node">
<title>Node5</title>
<g id="a_node5"><a xlink:title=" ">
<polygon fill="none" stroke="#bfbfbf" points="248,-124.29 248,-143.29 349,-143.29 349,-124.29 248,-124.29"/>
<text text-anchor="middle" x="298.5" y="-131.29" font-family="Helvetica,sans-Serif" font-size="10.00">IP_ADDR_STRING</text>
</a>
</g>
</g>
<!-- Node5&#45;&gt;Node1 -->
<g id="edge4" class="edge">
<title>Node5&#45;&gt;Node1</title>
<path fill="none" stroke="#9a32cd" stroke-dasharray="5,2" d="M298.95,-113.9C298.42,-93.3 294.5,-60.52 276.5,-39.79 269.08,-31.25 258.61,-25.39 248.06,-21.37"/>
<polygon fill="#9a32cd" stroke="#9a32cd" points="295.45,-114.19 298.95,-124.18 302.45,-114.18 295.45,-114.19"/>
<text text-anchor="middle" x="353.5" y="-97.79" font-family="Helvetica,sans-Serif" font-size="10.00"> SecondaryWinsServer</text>
<text text-anchor="middle" x="353.5" y="-86.79" font-family="Helvetica,sans-Serif" font-size="10.00">CurrentIpAddress</text>
<text text-anchor="middle" x="353.5" y="-75.79" font-family="Helvetica,sans-Serif" font-size="10.00">PrimaryWinsServer</text>
<text text-anchor="middle" x="353.5" y="-64.79" font-family="Helvetica,sans-Serif" font-size="10.00">IpAddressList</text>
<text text-anchor="middle" x="353.5" y="-53.79" font-family="Helvetica,sans-Serif" font-size="10.00">DhcpServer</text>
<text text-anchor="middle" x="353.5" y="-42.79" font-family="Helvetica,sans-Serif" font-size="10.00">GatewayList</text>
</g>
<!-- Node6 -->
<g id="node6" class="node">
<title>Node6</title>
<g id="a_node6"><a xlink:title=" ">
<polygon fill="none" stroke="#bfbfbf" points="401,-124.29 401,-143.29 462,-143.29 462,-124.29 401,-124.29"/>
<text text-anchor="middle" x="431.5" y="-131.29" font-family="Helvetica,sans-Serif" font-size="10.00">unsigned</text>
</a>
</g>
</g>
<!-- Node6&#45;&gt;Node1 -->
<g id="edge6" class="edge">
<title>Node6&#45;&gt;Node1</title>
<path fill="none" stroke="#9a32cd" stroke-dasharray="5,2" d="M432.81,-113.95C433.18,-92.64 430.14,-58.48 409.5,-39.79 388.58,-20.86 315.32,-15.04 263.05,-13.34"/>
<polygon fill="#9a32cd" stroke="#9a32cd" points="429.31,-113.89 432.37,-124.03 436.31,-114.19 429.31,-113.89"/>
<text text-anchor="middle" x="469" y="-97.79" font-family="Helvetica,sans-Serif" font-size="10.00"> Address</text>
<text text-anchor="middle" x="469" y="-86.79" font-family="Helvetica,sans-Serif" font-size="10.00">AddressLength</text>
<text text-anchor="middle" x="469" y="-75.79" font-family="Helvetica,sans-Serif" font-size="10.00">Type</text>
<text text-anchor="middle" x="469" y="-64.79" font-family="Helvetica,sans-Serif" font-size="10.00">ComboIndex</text>
<text text-anchor="middle" x="469" y="-53.79" font-family="Helvetica,sans-Serif" font-size="10.00">Index</text>
<text text-anchor="middle" x="469" y="-42.79" font-family="Helvetica,sans-Serif" font-size="10.00">DhcpEnabled</text>
</g>
</g>
</svg>
