<?xml version="1.0" encoding="UTF-8" standalone="no"?>
<!DOCTYPE svg PUBLIC "-//W3C//DTD SVG 1.1//EN"
 "http://www.w3.org/Graphics/SVG/1.1/DTD/svg11.dtd">
<!-- Generated by graphviz version 2.43.0 (0)
 -->
<!-- Title: tagMCI_ANIM_OPEN_PARMSA Pages: 1 -->
<svg width="368pt" height="117pt"
 viewBox="0.00 0.00 367.50 117.00" xmlns="http://www.w3.org/2000/svg" xmlns:xlink="http://www.w3.org/1999/xlink">
<g id="graph0" class="graph" transform="scale(1 1) rotate(0) translate(4 113)">
<title>tagMCI_ANIM_OPEN_PARMSA</title>
<!-- Node1 -->
<g id="node1" class="node">
<title>Node1</title>
<g id="a_node1"><a xlink:title=" ">
<polygon fill="#bfbfbf" stroke="black" points="88,-0.5 88,-19.5 249,-19.5 249,-0.5 88,-0.5"/>
<text text-anchor="middle" x="168.5" y="-7.5" font-family="Helvetica,sans-Serif" font-size="10.00">tagMCI_ANIM_OPEN_PARMSA</text>
</a>
</g>
</g>
<!-- Node2 -->
<g id="node2" class="node">
<title>Node2</title>
<g id="a_node2"><a xlink:title=" ">
<polygon fill="none" stroke="#bfbfbf" points="0,-89.5 0,-108.5 49,-108.5 49,-89.5 0,-89.5"/>
<text text-anchor="middle" x="24.5" y="-96.5" font-family="Helvetica,sans-Serif" font-size="10.00">HWND</text>
</a>
</g>
</g>
<!-- Node2&#45;&gt;Node1 -->
<g id="edge1" class="edge">
<title>Node2&#45;&gt;Node1</title>
<path fill="none" stroke="#9a32cd" stroke-dasharray="5,2" d="M23.55,-78.89C23.97,-65.64 26.84,-48.56 37.5,-38 45.92,-29.67 68.42,-23.69 92.45,-19.51"/>
<polygon fill="#9a32cd" stroke="#9a32cd" points="20.05,-79.32 23.68,-89.28 27.05,-79.24 20.05,-79.32"/>
<text text-anchor="middle" x="68.5" y="-52" font-family="Helvetica,sans-Serif" font-size="10.00"> hWndParent</text>
</g>
<!-- Node3 -->
<g id="node3" class="node">
<title>Node3</title>
<g id="a_node3"><a xlink:title=" ">
<polygon fill="none" stroke="#bfbfbf" points="90.5,-89.5 90.5,-108.5 128.5,-108.5 128.5,-89.5 90.5,-89.5"/>
<text text-anchor="middle" x="109.5" y="-96.5" font-family="Helvetica,sans-Serif" font-size="10.00">char</text>
</a>
</g>
</g>
<!-- Node3&#45;&gt;Node1 -->
<g id="edge2" class="edge">
<title>Node3&#45;&gt;Node1</title>
<path fill="none" stroke="#9a32cd" stroke-dasharray="5,2" d="M105,-79.53C103,-66.84 102.6,-50.16 110.5,-38 116,-29.52 124.92,-23.66 134.14,-19.63"/>
<polygon fill="#9a32cd" stroke="#9a32cd" points="101.59,-80.33 107.01,-89.43 108.45,-78.94 101.59,-80.33"/>
<text text-anchor="middle" x="158" y="-63" font-family="Helvetica,sans-Serif" font-size="10.00"> lpstrElementName</text>
<text text-anchor="middle" x="158" y="-52" font-family="Helvetica,sans-Serif" font-size="10.00">lpstrAlias</text>
<text text-anchor="middle" x="158" y="-41" font-family="Helvetica,sans-Serif" font-size="10.00">lpstrDeviceType</text>
</g>
<!-- Node4 -->
<g id="node4" class="node">
<title>Node4</title>
<g id="a_node4"><a xlink:href="../../d2/d5f/classunsigned_01int.html" target="_top" xlink:title=" ">
<polygon fill="none" stroke="black" points="189,-89.5 189,-108.5 266,-108.5 266,-89.5 189,-89.5"/>
<text text-anchor="middle" x="227.5" y="-96.5" font-family="Helvetica,sans-Serif" font-size="10.00">unsigned int</text>
</a>
</g>
</g>
<!-- Node4&#45;&gt;Node1 -->
<g id="edge3" class="edge">
<title>Node4&#45;&gt;Node1</title>
<path fill="none" stroke="#9a32cd" stroke-dasharray="5,2" d="M223.75,-79.63C220.49,-67 214.8,-50.33 205.5,-38 199.85,-30.51 191.55,-24.18 184.24,-19.55"/>
<polygon fill="#9a32cd" stroke="#9a32cd" points="220.36,-80.53 226.01,-89.49 227.18,-78.96 220.36,-80.53"/>
<text text-anchor="middle" x="248.5" y="-52" font-family="Helvetica,sans-Serif" font-size="10.00"> wDeviceID</text>
</g>
<!-- Node5 -->
<g id="node5" class="node">
<title>Node5</title>
<g id="a_node5"><a xlink:title=" ">
<polygon fill="none" stroke="#bfbfbf" points="287.5,-89.5 287.5,-108.5 325.5,-108.5 325.5,-89.5 287.5,-89.5"/>
<text text-anchor="middle" x="306.5" y="-96.5" font-family="Helvetica,sans-Serif" font-size="10.00">long</text>
</a>
</g>
</g>
<!-- Node5&#45;&gt;Node1 -->
<g id="edge4" class="edge">
<title>Node5&#45;&gt;Node1</title>
<path fill="none" stroke="#9a32cd" stroke-dasharray="5,2" d="M302.98,-79.13C299.51,-65.75 292.85,-48.39 280.5,-38 270.4,-29.5 258.06,-23.59 245.31,-19.5"/>
<polygon fill="#9a32cd" stroke="#9a32cd" points="299.63,-80.18 305.2,-89.19 306.46,-78.67 299.63,-80.18"/>
<text text-anchor="middle" x="329.5" y="-57.5" font-family="Helvetica,sans-Serif" font-size="10.00"> dwCallback</text>
<text text-anchor="middle" x="329.5" y="-46.5" font-family="Helvetica,sans-Serif" font-size="10.00">dwStyle</text>
</g>
</g>
</svg>
