<?xml version="1.0" encoding="UTF-8" standalone="no"?>
<!DOCTYPE svg PUBLIC "-//W3C//DTD SVG 1.1//EN"
 "http://www.w3.org/Graphics/SVG/1.1/DTD/svg11.dtd">
<!-- Generated by graphviz version 2.43.0 (0)
 -->
<!-- Title: _NDIS_IPSEC_PACKET_INFO Pages: 1 -->
<svg width="498pt" height="202pt"
 viewBox="0.00 0.00 498.00 202.00" xmlns="http://www.w3.org/2000/svg" xmlns:xlink="http://www.w3.org/1999/xlink">
<g id="graph0" class="graph" transform="scale(1 1) rotate(0) translate(4 198)">
<title>_NDIS_IPSEC_PACKET_INFO</title>
<!-- Node1 -->
<g id="node1" class="node">
<title>Node1</title>
<g id="a_node1"><a xlink:title=" ">
<polygon fill="#bfbfbf" stroke="black" points="339,-117.5 339,-136.5 490,-136.5 490,-117.5 339,-117.5"/>
<text text-anchor="middle" x="414.5" y="-124.5" font-family="Helvetica,sans-Serif" font-size="10.00">_NDIS_IPSEC_PACKET_INFO</text>
</a>
</g>
</g>
<!-- Node2 -->
<g id="node2" class="node">
<title>Node2</title>
<g id="a_node2"><a xlink:title=" ">
<polygon fill="none" stroke="#bfbfbf" points="41,-174.5 41,-193.5 157,-193.5 157,-174.5 41,-174.5"/>
<text text-anchor="middle" x="99" y="-181.5" font-family="Helvetica,sans-Serif" font-size="10.00">anonymous:Receive</text>
</a>
</g>
</g>
<!-- Node2&#45;&gt;Node1 -->
<g id="edge1" class="edge">
<title>Node2&#45;&gt;Node1</title>
<path fill="none" stroke="#9a32cd" stroke-dasharray="5,2" d="M167.15,-176.96C211.16,-171.77 269.81,-163.73 321,-153 342.06,-148.58 365.38,-142.02 383.34,-136.59"/>
<polygon fill="#9a32cd" stroke="#9a32cd" points="166.67,-173.49 157.14,-178.13 167.48,-180.45 166.67,-173.49"/>
<text text-anchor="middle" x="268.5" y="-173" font-family="Helvetica,sans-Serif" font-size="10.00"> Receive</text>
</g>
<!-- Node3 -->
<g id="node3" class="node">
<title>Node3</title>
<g id="a_node3"><a xlink:title=" ">
<polygon fill="none" stroke="#bfbfbf" points="10,-136.5 10,-155.5 188,-155.5 188,-136.5 10,-136.5"/>
<text text-anchor="middle" x="99" y="-143.5" font-family="Helvetica,sans-Serif" font-size="10.00">anonymous:DUMMYUNIONNAME</text>
</a>
</g>
</g>
<!-- Node3&#45;&gt;Node1 -->
<g id="edge2" class="edge">
<title>Node3&#45;&gt;Node1</title>
<path fill="none" stroke="#9a32cd" stroke-dasharray="5,2" d="M198.34,-140.04C243.8,-137.28 296.91,-134.07 338.99,-131.52"/>
<polygon fill="#9a32cd" stroke="#9a32cd" points="197.93,-136.56 188.16,-140.66 198.35,-143.55 197.93,-136.56"/>
<text text-anchor="middle" x="268.5" y="-141" font-family="Helvetica,sans-Serif" font-size="10.00"> DUMMYUNIONNAME</text>
</g>
<!-- Node4 -->
<g id="node4" class="node">
<title>Node4</title>
<g id="a_node4"><a xlink:title=" ">
<polygon fill="none" stroke="#bfbfbf" points="39.5,-98.5 39.5,-117.5 158.5,-117.5 158.5,-98.5 39.5,-98.5"/>
<text text-anchor="middle" x="99" y="-105.5" font-family="Helvetica,sans-Serif" font-size="10.00">anonymous:Transmit</text>
</a>
</g>
</g>
<!-- Node4&#45;&gt;Node1 -->
<g id="edge3" class="edge">
<title>Node4&#45;&gt;Node1</title>
<path fill="none" stroke="#9a32cd" stroke-dasharray="5,2" d="M168.9,-109.62C212.54,-110.94 270.13,-113.22 321,-117 326.8,-117.43 332.8,-117.94 338.82,-118.49"/>
<polygon fill="#9a32cd" stroke="#9a32cd" points="168.79,-106.11 158.69,-109.32 168.58,-113.11 168.79,-106.11"/>
<text text-anchor="middle" x="268.5" y="-120" font-family="Helvetica,sans-Serif" font-size="10.00"> Transmit</text>
</g>
<!-- Node5 -->
<g id="node5" class="node">
<title>Node5</title>
<g id="a_node5"><a xlink:title=" ">
<polygon fill="none" stroke="#bfbfbf" points="0,-0.5 0,-41.5 198,-41.5 198,-0.5 0,-0.5"/>
<text text-anchor="start" x="8" y="-29.5" font-family="Helvetica,sans-Serif" font-size="10.00">PSecurityUserData *typedef</text>
<text text-anchor="start" x="8" y="-18.5" font-family="Helvetica,sans-Serif" font-size="10.00"> PSECPKG_EXTENDED_INFORMATION</text>
<text text-anchor="middle" x="99" y="-7.5" font-family="Helvetica,sans-Serif" font-size="10.00"> *typedef</text>
</a>
</g>
</g>
<!-- Node5&#45;&gt;Node1 -->
<g id="edge4" class="edge">
<title>Node5&#45;&gt;Node1</title>
<path fill="none" stroke="#9a32cd" stroke-dasharray="5,2" d="M208.43,-16.83C245.46,-18.99 286.27,-25.51 321,-41 359.85,-58.33 392.94,-98.78 406.69,-117.36"/>
<polygon fill="#9a32cd" stroke="#9a32cd" points="208.25,-13.31 198.09,-16.33 207.91,-20.3 208.25,-13.31"/>
<text text-anchor="middle" x="268.5" y="-99" font-family="Helvetica,sans-Serif" font-size="10.00"> CryptoStatus</text>
<text text-anchor="middle" x="268.5" y="-88" font-family="Helvetica,sans-Serif" font-size="10.00">OffloadHandle</text>
<text text-anchor="middle" x="268.5" y="-77" font-family="Helvetica,sans-Serif" font-size="10.00">NextOffloadHandle</text>
<text text-anchor="middle" x="268.5" y="-66" font-family="Helvetica,sans-Serif" font-size="10.00">SA_DELETE_REQ</text>
<text text-anchor="middle" x="268.5" y="-55" font-family="Helvetica,sans-Serif" font-size="10.00">NEXT_CRYPTO_DONE</text>
<text text-anchor="middle" x="268.5" y="-44" font-family="Helvetica,sans-Serif" font-size="10.00">CRYPTO_DONE</text>
</g>
</g>
</svg>
