<?xml version="1.0" encoding="UTF-8" standalone="no"?>
<!DOCTYPE svg PUBLIC "-//W3C//DTD SVG 1.1//EN"
 "http://www.w3.org/Graphics/SVG/1.1/DTD/svg11.dtd">
<!-- Generated by graphviz version 2.43.0 (0)
 -->
<!-- Title: tagFONTDESC Pages: 1 -->
<svg width="413pt" height="117pt"
 viewBox="0.00 0.00 413.00 117.00" xmlns="http://www.w3.org/2000/svg" xmlns:xlink="http://www.w3.org/1999/xlink">
<g id="graph0" class="graph" transform="scale(1 1) rotate(0) translate(4 113)">
<title>tagFONTDESC</title>
<!-- Node1 -->
<g id="node1" class="node">
<title>Node1</title>
<g id="a_node1"><a xlink:title=" ">
<polygon fill="#bfbfbf" stroke="black" points="151,-0.5 151,-19.5 237,-19.5 237,-0.5 151,-0.5"/>
<text text-anchor="middle" x="194" y="-7.5" font-family="Helvetica,sans-Serif" font-size="10.00">tagFONTDESC</text>
</a>
</g>
</g>
<!-- Node2 -->
<g id="node2" class="node">
<title>Node2</title>
<g id="a_node2"><a xlink:title=" ">
<polygon fill="none" stroke="#bfbfbf" points="0,-89.5 0,-108.5 64,-108.5 64,-89.5 0,-89.5"/>
<text text-anchor="middle" x="32" y="-96.5" font-family="Helvetica,sans-Serif" font-size="10.00">WINBOOL</text>
</a>
</g>
</g>
<!-- Node2&#45;&gt;Node1 -->
<g id="edge1" class="edge">
<title>Node2&#45;&gt;Node1</title>
<path fill="none" stroke="#9a32cd" stroke-dasharray="5,2" d="M33.38,-79.06C35.38,-65.65 40.25,-48.28 52,-38 66.5,-25.32 114.66,-18.14 150.91,-14.42"/>
<polygon fill="#9a32cd" stroke="#9a32cd" points="29.88,-78.84 32.28,-89.16 36.84,-79.59 29.88,-78.84"/>
<text text-anchor="middle" x="88.5" y="-63" font-family="Helvetica,sans-Serif" font-size="10.00"> fStrikethrough</text>
<text text-anchor="middle" x="88.5" y="-52" font-family="Helvetica,sans-Serif" font-size="10.00">fItalic</text>
<text text-anchor="middle" x="88.5" y="-41" font-family="Helvetica,sans-Serif" font-size="10.00">fUnderline</text>
</g>
<!-- Node3 -->
<g id="node3" class="node">
<title>Node3</title>
<g id="a_node3"><a xlink:title=" ">
<polygon fill="none" stroke="#bfbfbf" points="107.5,-89.5 107.5,-108.5 148.5,-108.5 148.5,-89.5 107.5,-89.5"/>
<text text-anchor="middle" x="128" y="-96.5" font-family="Helvetica,sans-Serif" font-size="10.00">short</text>
</a>
</g>
</g>
<!-- Node3&#45;&gt;Node1 -->
<g id="edge2" class="edge">
<title>Node3&#45;&gt;Node1</title>
<path fill="none" stroke="#9a32cd" stroke-dasharray="5,2" d="M128.38,-79.28C129.52,-66.47 132.86,-49.76 142,-38 148.43,-29.73 158.1,-23.74 167.37,-19.54"/>
<polygon fill="#9a32cd" stroke="#9a32cd" points="124.88,-79.12 127.85,-89.3 131.87,-79.5 124.88,-79.12"/>
<text text-anchor="middle" x="163.5" y="-57.5" font-family="Helvetica,sans-Serif" font-size="10.00"> sWeight</text>
<text text-anchor="middle" x="163.5" y="-46.5" font-family="Helvetica,sans-Serif" font-size="10.00">sCharset</text>
</g>
<!-- Node4 -->
<g id="node4" class="node">
<title>Node4</title>
<g id="a_node4"><a xlink:title=" ">
<polygon fill="none" stroke="#bfbfbf" points="172.5,-89.5 172.5,-108.5 201.5,-108.5 201.5,-89.5 172.5,-89.5"/>
<text text-anchor="middle" x="187" y="-96.5" font-family="Helvetica,sans-Serif" font-size="10.00">CY</text>
</a>
</g>
</g>
<!-- Node4&#45;&gt;Node1 -->
<g id="edge3" class="edge">
<title>Node4&#45;&gt;Node1</title>
<path fill="none" stroke="#9a32cd" stroke-dasharray="5,2" d="M188.51,-79.19C190,-60.74 192.2,-33.41 193.31,-19.62"/>
<polygon fill="#9a32cd" stroke="#9a32cd" points="185.01,-79.09 187.7,-89.34 191.99,-79.65 185.01,-79.09"/>
<text text-anchor="middle" x="208.5" y="-52" font-family="Helvetica,sans-Serif" font-size="10.00"> cySize</text>
</g>
<!-- Node5 -->
<g id="node5" class="node">
<title>Node5</title>
<g id="a_node5"><a xlink:title=" ">
<polygon fill="none" stroke="#bfbfbf" points="219.5,-89.5 219.5,-108.5 308.5,-108.5 308.5,-89.5 219.5,-89.5"/>
<text text-anchor="middle" x="264" y="-96.5" font-family="Helvetica,sans-Serif" font-size="10.00">unsigned short</text>
</a>
</g>
</g>
<!-- Node5&#45;&gt;Node1 -->
<g id="edge4" class="edge">
<title>Node5&#45;&gt;Node1</title>
<path fill="none" stroke="#9a32cd" stroke-dasharray="5,2" d="M256.08,-79.71C250.08,-67.13 241,-50.5 230,-38 223.71,-30.84 215.23,-24.38 208.09,-19.57"/>
<polygon fill="#9a32cd" stroke="#9a32cd" points="253.05,-81.49 260.37,-89.14 259.42,-78.59 253.05,-81.49"/>
<text text-anchor="middle" x="278.5" y="-52" font-family="Helvetica,sans-Serif" font-size="10.00"> lpstrName</text>
</g>
<!-- Node6 -->
<g id="node6" class="node">
<title>Node6</title>
<g id="a_node6"><a xlink:title=" ">
<polygon fill="none" stroke="#bfbfbf" points="326.5,-89.5 326.5,-108.5 355.5,-108.5 355.5,-89.5 326.5,-89.5"/>
<text text-anchor="middle" x="341" y="-96.5" font-family="Helvetica,sans-Serif" font-size="10.00">int</text>
</a>
</g>
</g>
<!-- Node6&#45;&gt;Node1 -->
<g id="edge5" class="edge">
<title>Node6&#45;&gt;Node1</title>
<path fill="none" stroke="#9a32cd" stroke-dasharray="5,2" d="M336.01,-79.44C331.42,-65.96 323.29,-48.34 310,-38 289.36,-21.94 260.79,-15.16 237.17,-12.41"/>
<polygon fill="#9a32cd" stroke="#9a32cd" points="332.7,-80.59 338.95,-89.14 339.39,-78.56 332.7,-80.59"/>
<text text-anchor="middle" x="368.5" y="-52" font-family="Helvetica,sans-Serif" font-size="10.00"> cbSizeofstruct</text>
</g>
</g>
</svg>
