<?xml version="1.0" encoding="UTF-8" standalone="no"?>
<!DOCTYPE svg PUBLIC "-//W3C//DTD SVG 1.1//EN"
 "http://www.w3.org/Graphics/SVG/1.1/DTD/svg11.dtd">
<!-- Generated by graphviz version 2.43.0 (0)
 -->
<!-- Title: Engine/libspeex/math_approx.h Pages: 1 -->
<!--zoomable 173 -->
<svg id="main" version="1.1" xmlns="http://www.w3.org/2000/svg" xmlns:xlink="http://www.w3.org/1999/xlink" xml:space="preserve" onload="init(evt)">
<style type="text/css"><![CDATA[
.edge:hover path { stroke: red; }
.edge:hover polygon { stroke: red; fill: red; }
]]></style>
<script type="text/javascript"><![CDATA[
var edges = document.getElementsByTagName('g');
if (edges && edges.length) {
  for (var i=0;i<edges.length;i++) {
    if (edges[i].id.substr(0,4)=='edge') {
      edges[i].setAttribute('class','edge');
    }
  }
}
]]></script>
        <defs>
                <circle id="rim" cx="0" cy="0" r="7"/>
                <circle id="rim2" cx="0" cy="0" r="3.5"/>
                <g id="zoomPlus">
                        <use xlink:href="#rim" fill="#404040">
                                <set attributeName="fill" to="#808080" begin="zoomplus.mouseover" end="zoomplus.mouseout"/>
                        </use>
                        <path d="M-4,0h8M0,-4v8" fill="none" stroke="white" stroke-width="1.5" pointer-events="none"/>
                </g>
                <g id="zoomMin">
                        <use xlink:href="#rim" fill="#404040">
                                <set attributeName="fill" to="#808080" begin="zoomminus.mouseover" end="zoomminus.mouseout"/>
                        </use>
                        <path d="M-4,0h8" fill="none" stroke="white" stroke-width="1.5" pointer-events="none"/>
                </g>
                <g id="dirArrow">
                        <path fill="none" stroke="white" stroke-width="1.5" d="M0,-3.0v7 M-2.5,-0.5L0,-3.0L2.5,-0.5"/>
                </g>
               <g id="resetDef">
                       <use xlink:href="#rim2" fill="#404040">
                               <set attributeName="fill" to="#808080" begin="reset.mouseover" end="reset.mouseout"/>
                       </use>
               </g>
        </defs>

<script type="text/javascript">
var viewWidth = 1719;
var viewHeight = 173;
var sectionId = 'dynsection-1';
</script>
<script xlink:href="../../svgpan.js"/>
<svg id="graph" class="graph">
<g id="viewport">
<title>Engine/libspeex/math_approx.h</title>
<!-- Node1 -->
<g id="node1" class="node">
<title>Node1</title>
<g id="a_node1"><a xlink:title="Various math approximation functions for Speex.">
<polygon fill="#bfbfbf" stroke="black" points="866,-134.5 866,-164.5 988,-164.5 988,-134.5 866,-134.5"/>
<text text-anchor="start" x="874" y="-152.5" font-family="Helvetica,sans-Serif" font-size="10.00">Engine/libspeex/math</text>
<text text-anchor="middle" x="927" y="-141.5" font-family="Helvetica,sans-Serif" font-size="10.00">_approx.h</text>
</a>
</g>
</g>
<!-- Node2 -->
<g id="node2" class="node">
<title>Node2</title>
<g id="a_node2"><a xlink:href="../../d3/d74/__kiss__fft__guts_8h.html" target="_top" xlink:title=" ">
<polygon fill="none" stroke="black" points="64,-67.5 64,-97.5 186,-97.5 186,-67.5 64,-67.5"/>
<text text-anchor="start" x="72" y="-85.5" font-family="Helvetica,sans-Serif" font-size="10.00">Engine/libspeex/_kiss</text>
<text text-anchor="middle" x="125" y="-74.5" font-family="Helvetica,sans-Serif" font-size="10.00">_fft_guts.h</text>
</a>
</g>
</g>
<!-- Node1&#45;&gt;Node2 -->
<g id="edge1" class="edge">
<title>Node1&#45;&gt;Node2</title>
<path fill="none" stroke="midnightblue" d="M855.66,-146.78C724.37,-142.91 435.83,-131.1 195,-98 192.17,-97.61 189.29,-97.18 186.38,-96.7"/>
<polygon fill="midnightblue" stroke="midnightblue" points="855.88,-150.29 865.98,-147.08 856.09,-143.29 855.88,-150.29"/>
</g>
<!-- Node5 -->
<g id="node5" class="node">
<title>Node5</title>
<g id="a_node5"><a xlink:href="../../d5/dbd/cb__search_8c.html" target="_top" xlink:title=" ">
<polygon fill="none" stroke="black" points="204,-67.5 204,-97.5 312,-97.5 312,-67.5 204,-67.5"/>
<text text-anchor="start" x="212" y="-85.5" font-family="Helvetica,sans-Serif" font-size="10.00">Engine/libspeex/cb</text>
<text text-anchor="middle" x="258" y="-74.5" font-family="Helvetica,sans-Serif" font-size="10.00">_search.c</text>
</a>
</g>
</g>
<!-- Node1&#45;&gt;Node5 -->
<g id="edge4" class="edge">
<title>Node1&#45;&gt;Node5</title>
<path fill="none" stroke="midnightblue" d="M855.26,-145.85C741.43,-140.89 512.69,-127.89 321,-98 318.12,-97.55 315.17,-97.04 312.2,-96.49"/>
<polygon fill="midnightblue" stroke="midnightblue" points="855.44,-149.36 865.58,-146.29 855.74,-142.36 855.44,-149.36"/>
</g>
<!-- Node6 -->
<g id="node6" class="node">
<title>Node6</title>
<g id="a_node6"><a xlink:href="../../df/d28/filterbank_8c.html" target="_top" xlink:title="Converting between psd and filterbank.">
<polygon fill="none" stroke="black" points="330,-73 330,-92 482,-92 482,-73 330,-73"/>
<text text-anchor="middle" x="406" y="-80" font-family="Helvetica,sans-Serif" font-size="10.00">Engine/libspeex/filterbank.c</text>
</a>
</g>
</g>
<!-- Node1&#45;&gt;Node6 -->
<g id="edge5" class="edge">
<title>Node1&#45;&gt;Node6</title>
<path fill="none" stroke="midnightblue" d="M855.89,-141.45C769.46,-132.6 619.25,-116.35 491,-98 478.7,-96.24 465.44,-94.1 453.14,-92"/>
<polygon fill="midnightblue" stroke="midnightblue" points="855.55,-144.93 865.85,-142.46 856.26,-137.97 855.55,-144.93"/>
</g>
<!-- Node7 -->
<g id="node7" class="node">
<title>Node7</title>
<g id="a_node7"><a xlink:href="../../d6/d44/filters_8c.html" target="_top" xlink:title=" ">
<polygon fill="none" stroke="black" points="500.5,-73 500.5,-92 633.5,-92 633.5,-73 500.5,-73"/>
<text text-anchor="middle" x="567" y="-80" font-family="Helvetica,sans-Serif" font-size="10.00">Engine/libspeex/filters.c</text>
</a>
</g>
</g>
<!-- Node1&#45;&gt;Node7 -->
<g id="edge6" class="edge">
<title>Node1&#45;&gt;Node7</title>
<path fill="none" stroke="midnightblue" d="M855.69,-136.18C798.01,-126.14 714.71,-111.47 642,-98 631.83,-96.12 620.89,-94.03 610.6,-92.05"/>
<polygon fill="midnightblue" stroke="midnightblue" points="855.34,-139.67 865.8,-137.94 856.54,-132.78 855.34,-139.67"/>
</g>
<!-- Node8 -->
<g id="node8" class="node">
<title>Node8</title>
<g id="a_node8"><a xlink:href="../../d9/d1a/lsp_8c.html" target="_top" xlink:title=" ">
<polygon fill="none" stroke="black" points="651.5,-73 651.5,-92 770.5,-92 770.5,-73 651.5,-73"/>
<text text-anchor="middle" x="711" y="-80" font-family="Helvetica,sans-Serif" font-size="10.00">Engine/libspeex/lsp.c</text>
</a>
</g>
</g>
<!-- Node1&#45;&gt;Node8 -->
<g id="edge7" class="edge">
<title>Node1&#45;&gt;Node8</title>
<path fill="none" stroke="midnightblue" d="M870.81,-131.59C828.62,-118.9 772.62,-102.04 739.34,-92.03"/>
<polygon fill="midnightblue" stroke="midnightblue" points="869.81,-134.95 880.4,-134.48 871.83,-128.24 869.81,-134.95"/>
</g>
<!-- Node9 -->
<g id="node9" class="node">
<title>Node9</title>
<g id="a_node9"><a xlink:href="../../d2/d5a/ltp_8c.html" target="_top" xlink:title=" ">
<polygon fill="none" stroke="black" points="789,-73 789,-92 907,-92 907,-73 789,-73"/>
<text text-anchor="middle" x="848" y="-80" font-family="Helvetica,sans-Serif" font-size="10.00">Engine/libspeex/ltp.c</text>
</a>
</g>
</g>
<!-- Node1&#45;&gt;Node9 -->
<g id="edge8" class="edge">
<title>Node1&#45;&gt;Node9</title>
<path fill="none" stroke="midnightblue" d="M902.09,-128.01C887.43,-115.94 869.64,-101.3 858.57,-92.19"/>
<polygon fill="midnightblue" stroke="midnightblue" points="899.91,-130.75 909.86,-134.4 904.36,-125.34 899.91,-130.75"/>
</g>
<!-- Node10 -->
<g id="node10" class="node">
<title>Node10</title>
<g id="a_node10"><a xlink:href="../../d8/dbb/pseudofloat_8h.html" target="_top" xlink:title="Pseudo&#45;floating point This header file provides a lightweight floating point type for use on fixed&#45;po...">
<polygon fill="none" stroke="black" points="925.5,-73 925.5,-92 1088.5,-92 1088.5,-73 925.5,-73"/>
<text text-anchor="middle" x="1007" y="-80" font-family="Helvetica,sans-Serif" font-size="10.00">Engine/libspeex/pseudofloat.h</text>
</a>
</g>
</g>
<!-- Node1&#45;&gt;Node10 -->
<g id="edge9" class="edge">
<title>Node1&#45;&gt;Node10</title>
<path fill="none" stroke="midnightblue" d="M952.22,-128.01C967.07,-115.94 985.09,-101.3 996.3,-92.19"/>
<polygon fill="midnightblue" stroke="midnightblue" points="949.91,-125.37 944.36,-134.4 954.33,-130.81 949.91,-125.37"/>
</g>
<!-- Node11 -->
<g id="node11" class="node">
<title>Node11</title>
<g id="a_node11"><a xlink:href="../../d4/d6d/mdf_8c.html" target="_top" xlink:title=" ">
<polygon fill="none" stroke="black" points="1000,-6 1000,-25 1124,-25 1124,-6 1000,-6"/>
<text text-anchor="middle" x="1062" y="-13" font-family="Helvetica,sans-Serif" font-size="10.00">Engine/libspeex/mdf.c</text>
</a>
</g>
</g>
<!-- Node1&#45;&gt;Node11 -->
<g id="edge11" class="edge">
<title>Node1&#45;&gt;Node11</title>
<path fill="none" stroke="midnightblue" d="M998.24,-136.3C1039.47,-127.63 1085.6,-114.58 1098,-98 1115.69,-74.33 1086.94,-40.62 1071.2,-25.02"/>
<polygon fill="midnightblue" stroke="midnightblue" points="997.54,-132.87 988.44,-138.3 998.94,-139.73 997.54,-132.87"/>
</g>
<!-- Node12 -->
<g id="node12" class="node">
<title>Node12</title>
<g id="a_node12"><a xlink:href="../../d6/dc4/nb__celp_8c.html" target="_top" xlink:title=" ">
<polygon fill="none" stroke="black" points="1145.5,-67.5 1145.5,-97.5 1254.5,-97.5 1254.5,-67.5 1145.5,-67.5"/>
<text text-anchor="start" x="1153.5" y="-85.5" font-family="Helvetica,sans-Serif" font-size="10.00">Engine/libspeex/nb</text>
<text text-anchor="middle" x="1200" y="-74.5" font-family="Helvetica,sans-Serif" font-size="10.00">_celp.c</text>
</a>
</g>
</g>
<!-- Node1&#45;&gt;Node12 -->
<g id="edge12" class="edge">
<title>Node1&#45;&gt;Node12</title>
<path fill="none" stroke="midnightblue" d="M995.86,-132.11C1042.17,-121.08 1102.38,-106.74 1145.38,-96.5"/>
<polygon fill="midnightblue" stroke="midnightblue" points="994.82,-128.75 985.9,-134.48 996.44,-135.56 994.82,-128.75"/>
</g>
<!-- Node13 -->
<g id="node13" class="node">
<title>Node13</title>
<g id="a_node13"><a xlink:href="../../d2/d47/preprocess_8c.html" target="_top" xlink:title=" ">
<polygon fill="none" stroke="black" points="1273,-73 1273,-92 1431,-92 1431,-73 1273,-73"/>
<text text-anchor="middle" x="1352" y="-80" font-family="Helvetica,sans-Serif" font-size="10.00">Engine/libspeex/preprocess.c</text>
</a>
</g>
</g>
<!-- Node1&#45;&gt;Node13 -->
<g id="edge13" class="edge">
<title>Node1&#45;&gt;Node13</title>
<path fill="none" stroke="midnightblue" d="M998.43,-138.1C1066.68,-128.1 1172.42,-112.41 1264,-98 1275.93,-96.12 1288.76,-94.04 1300.83,-92.06"/>
<polygon fill="midnightblue" stroke="midnightblue" points="997.62,-134.69 988.23,-139.6 998.63,-141.61 997.62,-134.69"/>
</g>
<!-- Node14 -->
<g id="node14" class="node">
<title>Node14</title>
<g id="a_node14"><a xlink:href="../../d8/d9b/sb__celp_8c.html" target="_top" xlink:title=" ">
<polygon fill="none" stroke="black" points="1449,-67.5 1449,-97.5 1557,-97.5 1557,-67.5 1449,-67.5"/>
<text text-anchor="start" x="1457" y="-85.5" font-family="Helvetica,sans-Serif" font-size="10.00">Engine/libspeex/sb</text>
<text text-anchor="middle" x="1503" y="-74.5" font-family="Helvetica,sans-Serif" font-size="10.00">_celp.c</text>
</a>
</g>
</g>
<!-- Node1&#45;&gt;Node14 -->
<g id="edge14" class="edge">
<title>Node1&#45;&gt;Node14</title>
<path fill="none" stroke="midnightblue" d="M998.36,-144.37C1097.81,-137.96 1283.47,-123.61 1440,-98 1442.88,-97.53 1445.82,-97 1448.79,-96.44"/>
<polygon fill="midnightblue" stroke="midnightblue" points="997.89,-140.9 988.13,-145.02 998.34,-147.88 997.89,-140.9"/>
</g>
<!-- Node15 -->
<g id="node15" class="node">
<title>Node15</title>
<g id="a_node15"><a xlink:href="../../d5/d6d/stereo_8c.html" target="_top" xlink:title=" ">
<polygon fill="none" stroke="black" points="1575,-73 1575,-92 1711,-92 1711,-73 1575,-73"/>
<text text-anchor="middle" x="1643" y="-80" font-family="Helvetica,sans-Serif" font-size="10.00">Engine/libspeex/stereo.c</text>
</a>
</g>
</g>
<!-- Node1&#45;&gt;Node15 -->
<g id="edge15" class="edge">
<title>Node1&#45;&gt;Node15</title>
<path fill="none" stroke="midnightblue" d="M998.04,-145.38C1116.27,-139.62 1360.74,-125.36 1566,-98 1577.73,-96.44 1590.38,-94.26 1601.97,-92.07"/>
<polygon fill="midnightblue" stroke="midnightblue" points="997.84,-141.88 988.02,-145.86 998.18,-148.88 997.84,-141.88"/>
</g>
<!-- Node3 -->
<g id="node3" class="node">
<title>Node3</title>
<g id="a_node3"><a xlink:href="../../d3/d69/kiss__fft_8c.html" target="_top" xlink:title=" ">
<polygon fill="none" stroke="black" points="0,-0.5 0,-30.5 116,-30.5 116,-0.5 0,-0.5"/>
<text text-anchor="start" x="8" y="-18.5" font-family="Helvetica,sans-Serif" font-size="10.00">Engine/libspeex/kiss</text>
<text text-anchor="middle" x="58" y="-7.5" font-family="Helvetica,sans-Serif" font-size="10.00">_fft.c</text>
</a>
</g>
</g>
<!-- Node2&#45;&gt;Node3 -->
<g id="edge2" class="edge">
<title>Node2&#45;&gt;Node3</title>
<path fill="none" stroke="midnightblue" d="M103.16,-60.31C93.11,-50.56 81.46,-39.26 72.51,-30.58"/>
<polygon fill="midnightblue" stroke="midnightblue" points="100.85,-62.94 110.46,-67.4 105.72,-57.92 100.85,-62.94"/>
</g>
<!-- Node4 -->
<g id="node4" class="node">
<title>Node4</title>
<g id="a_node4"><a xlink:href="../../de/d67/kiss__fftr_8c.html" target="_top" xlink:title=" ">
<polygon fill="none" stroke="black" points="134,-0.5 134,-30.5 250,-30.5 250,-0.5 134,-0.5"/>
<text text-anchor="start" x="142" y="-18.5" font-family="Helvetica,sans-Serif" font-size="10.00">Engine/libspeex/kiss</text>
<text text-anchor="middle" x="192" y="-7.5" font-family="Helvetica,sans-Serif" font-size="10.00">_fftr.c</text>
</a>
</g>
</g>
<!-- Node2&#45;&gt;Node4 -->
<g id="edge3" class="edge">
<title>Node2&#45;&gt;Node4</title>
<path fill="none" stroke="midnightblue" d="M146.84,-60.31C156.89,-50.56 168.54,-39.26 177.49,-30.58"/>
<polygon fill="midnightblue" stroke="midnightblue" points="144.28,-57.92 139.54,-67.4 149.15,-62.94 144.28,-57.92"/>
</g>
<!-- Node10&#45;&gt;Node11 -->
<g id="edge10" class="edge">
<title>Node10&#45;&gt;Node11</title>
<path fill="none" stroke="midnightblue" d="M1021.16,-64.77C1031.88,-52.1 1046.18,-35.2 1054.7,-25.13"/>
<polygon fill="midnightblue" stroke="midnightblue" points="1018.21,-62.84 1014.42,-72.73 1023.55,-67.36 1018.21,-62.84"/>
</g>
</g>
</svg>
        <g id="navigator" transform="translate(0 0)" fill="#404254">
                <rect fill="#f2f5e9" fill-opacity="0.5" stroke="#606060" stroke-width=".5" x="0" y="0" width="60" height="60"/>
                <use id="zoomplus" xlink:href="#zoomPlus" x="17" y="9" onmousedown="handleZoom(evt,'in')"/>
                <use id="zoomminus" xlink:href="#zoomMin" x="42" y="9" onmousedown="handleZoom(evt,'out')"/>
                <use id="reset" xlink:href="#resetDef" x="30" y="36" onmousedown="handleReset()"/>
                <g id="arrowUp" xlink:href="#dirArrow" transform="translate(30 24)" onmousedown="handlePan(0,-1)">
                  <use xlink:href="#rim" fill="#404040">
                        <set attributeName="fill" to="#808080" begin="arrowUp.mouseover" end="arrowUp.mouseout"/>
                  </use>
                  <path fill="none" stroke="white" stroke-width="1.5" d="M0,-3.0v7 M-2.5,-0.5L0,-3.0L2.5,-0.5"/>
                </g>
                <g id="arrowRight" xlink:href="#dirArrow" transform="rotate(90) translate(36 -43)" onmousedown="handlePan(1,0)">
                  <use xlink:href="#rim" fill="#404040">
                        <set attributeName="fill" to="#808080" begin="arrowRight.mouseover" end="arrowRight.mouseout"/>
                  </use>
                  <path fill="none" stroke="white" stroke-width="1.5" d="M0,-3.0v7 M-2.5,-0.5L0,-3.0L2.5,-0.5"/>
                </g>
                <g id="arrowDown" xlink:href="#dirArrow" transform="rotate(180) translate(-30 -48)" onmousedown="handlePan(0,1)">
                  <use xlink:href="#rim" fill="#404040">
                        <set attributeName="fill" to="#808080" begin="arrowDown.mouseover" end="arrowDown.mouseout"/>
                  </use>
                  <path fill="none" stroke="white" stroke-width="1.5" d="M0,-3.0v7 M-2.5,-0.5L0,-3.0L2.5,-0.5"/>
                </g>
                <g id="arrowLeft" xlink:href="#dirArrow" transform="rotate(270) translate(-36 17)" onmousedown="handlePan(-1,0)">
                  <use xlink:href="#rim" fill="#404040">
                        <set attributeName="fill" to="#808080" begin="arrowLeft.mouseover" end="arrowLeft.mouseout"/>
                  </use>
                  <path fill="none" stroke="white" stroke-width="1.5" d="M0,-3.0v7 M-2.5,-0.5L0,-3.0L2.5,-0.5"/>
                </g>
        </g>
        <svg viewBox="0 0 15 15" width="100%" height="30px" preserveAspectRatio="xMaxYMin meet">
         <g id="arrow_out" transform="scale(0.3 0.3)">
          <a xlink:href="math__approx_8h__dep__incl_org.svg" target="_base">
           <rect id="button" ry="5" rx="5" y="6" x="6" height="38" width="38"
                fill="#f2f5e9" fill-opacity="0.5" stroke="#606060" stroke-width="1.0"/>
           <path id="arrow"
             d="M 11.500037,31.436501 C 11.940474,20.09759 22.043105,11.32322 32.158766,21.979434 L 37.068811,17.246167 C 37.068811,17.246167 37.088388,32 37.088388,32 L 22.160133,31.978069 C 22.160133,31.978069 26.997745,27.140456 26.997745,27.140456 C 18.528582,18.264221 13.291696,25.230495 11.500037,31.436501 z"
             style="fill:#404040;"/>
          </a>
         </g>
        </svg>
</svg>
