<?xml version="1.0" encoding="UTF-8" standalone="no"?>
<!DOCTYPE svg PUBLIC "-//W3C//DTD SVG 1.1//EN"
 "http://www.w3.org/Graphics/SVG/1.1/DTD/svg11.dtd">
<!-- Generated by graphviz version 2.43.0 (0)
 -->
<!-- Title: tagCHOOSECOLORA Pages: 1 -->
<svg width="548pt" height="106pt"
 viewBox="0.00 0.00 547.50 106.00" xmlns="http://www.w3.org/2000/svg" xmlns:xlink="http://www.w3.org/1999/xlink">
<g id="graph0" class="graph" transform="scale(1 1) rotate(0) translate(4 102)">
<title>tagCHOOSECOLORA</title>
<!-- Node1 -->
<g id="node1" class="node">
<title>Node1</title>
<g id="a_node1"><a xlink:title=" ">
<polygon fill="#bfbfbf" stroke="black" points="228.5,-0.5 228.5,-19.5 342.5,-19.5 342.5,-0.5 228.5,-0.5"/>
<text text-anchor="middle" x="285.5" y="-7.5" font-family="Helvetica,sans-Serif" font-size="10.00">tagCHOOSECOLORA</text>
</a>
</g>
</g>
<!-- Node2 -->
<g id="node2" class="node">
<title>Node2</title>
<g id="a_node2"><a xlink:title=" ">
<polygon fill="none" stroke="#bfbfbf" points="0,-78.5 0,-97.5 85,-97.5 85,-78.5 0,-78.5"/>
<text text-anchor="middle" x="42.5" y="-85.5" font-family="Helvetica,sans-Serif" font-size="10.00">unsigned long</text>
</a>
</g>
</g>
<!-- Node2&#45;&gt;Node1 -->
<g id="edge1" class="edge">
<title>Node2&#45;&gt;Node1</title>
<path fill="none" stroke="#9a32cd" stroke-dasharray="5,2" d="M54.17,-70.29C62.86,-59.23 75.73,-45.44 90.5,-38 114,-26.16 179.79,-18.79 228.49,-14.8"/>
<polygon fill="#9a32cd" stroke="#9a32cd" points="51.3,-68.28 48.15,-78.4 56.92,-72.46 51.3,-68.28"/>
<text text-anchor="middle" x="123" y="-52" font-family="Helvetica,sans-Serif" font-size="10.00"> lpCustColors</text>
<text text-anchor="middle" x="123" y="-41" font-family="Helvetica,sans-Serif" font-size="10.00">rgbResult</text>
</g>
<!-- Node3 -->
<g id="node3" class="node">
<title>Node3</title>
<g id="a_node3"><a xlink:title=" ">
<polygon fill="none" stroke="#bfbfbf" points="103.5,-78.5 103.5,-97.5 201.5,-97.5 201.5,-78.5 103.5,-78.5"/>
<text text-anchor="middle" x="152.5" y="-85.5" font-family="Helvetica,sans-Serif" font-size="10.00">__CDHOOKPROC</text>
</a>
</g>
</g>
<!-- Node3&#45;&gt;Node1 -->
<g id="edge2" class="edge">
<title>Node3&#45;&gt;Node1</title>
<path fill="none" stroke="#9a32cd" stroke-dasharray="5,2" d="M156.93,-68.49C160.34,-58.09 166.11,-45.69 175.5,-38 190.33,-25.85 209.82,-19.04 228.27,-15.26"/>
<polygon fill="#9a32cd" stroke="#9a32cd" points="153.5,-67.75 154.17,-78.33 160.24,-69.64 153.5,-67.75"/>
<text text-anchor="middle" x="199.5" y="-46.5" font-family="Helvetica,sans-Serif" font-size="10.00"> lpfnHook</text>
</g>
<!-- Node4 -->
<g id="node4" class="node">
<title>Node4</title>
<g id="a_node4"><a xlink:title=" ">
<polygon fill="none" stroke="#bfbfbf" points="219.5,-78.5 219.5,-97.5 257.5,-97.5 257.5,-78.5 219.5,-78.5"/>
<text text-anchor="middle" x="238.5" y="-85.5" font-family="Helvetica,sans-Serif" font-size="10.00">char</text>
</a>
</g>
</g>
<!-- Node4&#45;&gt;Node1 -->
<g id="edge3" class="edge">
<title>Node4&#45;&gt;Node1</title>
<path fill="none" stroke="#9a32cd" stroke-dasharray="5,2" d="M230.43,-68.78C227.39,-59 225.86,-47.13 231.5,-38 236.73,-29.53 245.52,-23.63 254.5,-19.55"/>
<polygon fill="#9a32cd" stroke="#9a32cd" points="227.24,-70.23 234.06,-78.33 233.78,-67.74 227.24,-70.23"/>
<text text-anchor="middle" x="275" y="-46.5" font-family="Helvetica,sans-Serif" font-size="10.00"> lpTemplateName</text>
</g>
<!-- Node5 -->
<g id="node5" class="node">
<title>Node5</title>
<g id="a_node5"><a xlink:title=" ">
<polygon fill="none" stroke="#bfbfbf" points="305.5,-78.5 305.5,-97.5 373.5,-97.5 373.5,-78.5 305.5,-78.5"/>
<text text-anchor="middle" x="339.5" y="-85.5" font-family="Helvetica,sans-Serif" font-size="10.00">LONG_PTR</text>
</a>
</g>
</g>
<!-- Node5&#45;&gt;Node1 -->
<g id="edge4" class="edge">
<title>Node5&#45;&gt;Node1</title>
<path fill="none" stroke="#9a32cd" stroke-dasharray="5,2" d="M334.08,-68.86C330.61,-59.11 325.45,-47.23 318.5,-38 313.07,-30.78 305.32,-24.31 298.7,-19.52"/>
<polygon fill="#9a32cd" stroke="#9a32cd" points="330.76,-69.96 337.18,-78.38 337.41,-67.79 330.76,-69.96"/>
<text text-anchor="middle" x="355.5" y="-46.5" font-family="Helvetica,sans-Serif" font-size="10.00"> lCustData</text>
</g>
<!-- Node6 -->
<g id="node6" class="node">
<title>Node6</title>
<g id="a_node6"><a xlink:title=" ">
<polygon fill="none" stroke="#bfbfbf" points="392,-78.5 392,-97.5 441,-97.5 441,-78.5 392,-78.5"/>
<text text-anchor="middle" x="416.5" y="-85.5" font-family="Helvetica,sans-Serif" font-size="10.00">HWND</text>
</a>
</g>
</g>
<!-- Node6&#45;&gt;Node1 -->
<g id="edge5" class="edge">
<title>Node6&#45;&gt;Node1</title>
<path fill="none" stroke="#9a32cd" stroke-dasharray="5,2" d="M409.24,-69.16C404.09,-58.64 396.18,-45.88 385.5,-38 373.05,-28.82 357.68,-22.77 342.76,-18.77"/>
<polygon fill="#9a32cd" stroke="#9a32cd" points="406.06,-70.63 413.34,-78.34 412.45,-67.78 406.06,-70.63"/>
<text text-anchor="middle" x="434" y="-52" font-family="Helvetica,sans-Serif" font-size="10.00"> hwndOwner</text>
<text text-anchor="middle" x="434" y="-41" font-family="Helvetica,sans-Serif" font-size="10.00">hInstance</text>
</g>
<!-- Node7 -->
<g id="node7" class="node">
<title>Node7</title>
<g id="a_node7"><a xlink:title=" ">
<polygon fill="none" stroke="#bfbfbf" points="470,-78.5 470,-97.5 531,-97.5 531,-78.5 470,-78.5"/>
<text text-anchor="middle" x="500.5" y="-85.5" font-family="Helvetica,sans-Serif" font-size="10.00">unsigned</text>
</a>
</g>
</g>
<!-- Node7&#45;&gt;Node1 -->
<g id="edge6" class="edge">
<title>Node7&#45;&gt;Node1</title>
<path fill="none" stroke="#9a32cd" stroke-dasharray="5,2" d="M493.36,-69.07C488.12,-58.3 479.91,-45.31 468.5,-38 448.15,-24.97 388.48,-17.93 342.75,-14.34"/>
<polygon fill="#9a32cd" stroke="#9a32cd" points="490.26,-70.71 497.49,-78.46 496.67,-67.9 490.26,-70.71"/>
<text text-anchor="middle" x="513.5" y="-52" font-family="Helvetica,sans-Serif" font-size="10.00"> Flags</text>
<text text-anchor="middle" x="513.5" y="-41" font-family="Helvetica,sans-Serif" font-size="10.00">lStructSize</text>
</g>
</g>
</svg>
