<?xml version="1.0" encoding="UTF-8" standalone="no"?>
<!DOCTYPE svg PUBLIC "-//W3C//DTD SVG 1.1//EN"
 "http://www.w3.org/Graphics/SVG/1.1/DTD/svg11.dtd">
<!-- Generated by graphviz version 2.43.0 (0)
 -->
<!-- Title: _WSAQuerySetA Pages: 1 -->
<svg width="399pt" height="342pt"
 viewBox="0.00 0.00 399.00 342.24" xmlns="http://www.w3.org/2000/svg" xmlns:xlink="http://www.w3.org/1999/xlink">
<g id="graph0" class="graph" transform="scale(1 1) rotate(0) translate(4 338.24)">
<title>_WSAQuerySetA</title>
<!-- Node1 -->
<g id="node1" class="node">
<title>Node1</title>
<g id="a_node1"><a xlink:title=" ">
<polygon fill="#bfbfbf" stroke="black" points="294,-157.74 294,-176.74 391,-176.74 391,-157.74 294,-157.74"/>
<text text-anchor="middle" x="342.5" y="-164.74" font-family="Helvetica,sans-Serif" font-size="10.00">_WSAQuerySetA</text>
</a>
</g>
</g>
<!-- Node2 -->
<g id="node2" class="node">
<title>Node2</title>
<g id="a_node2"><a xlink:title=" ">
<polygon fill="none" stroke="#bfbfbf" points="45,-274.74 45,-293.74 83,-293.74 83,-274.74 45,-274.74"/>
<text text-anchor="middle" x="64" y="-281.74" font-family="Helvetica,sans-Serif" font-size="10.00">char</text>
</a>
</g>
</g>
<!-- Node2&#45;&gt;Node1 -->
<g id="edge1" class="edge">
<title>Node2&#45;&gt;Node1</title>
<path fill="none" stroke="#9a32cd" stroke-dasharray="5,2" d="M93.19,-288.15C135.94,-292.64 218.3,-295.46 276,-261.24 309.53,-241.35 330.11,-196.81 337.92,-177.03"/>
<polygon fill="#9a32cd" stroke="#9a32cd" points="93.55,-284.67 83.21,-287 92.74,-291.62 93.55,-284.67"/>
<text text-anchor="middle" x="211" y="-326.24" font-family="Helvetica,sans-Serif" font-size="10.00"> lpszServiceInstanceName</text>
<text text-anchor="middle" x="211" y="-315.24" font-family="Helvetica,sans-Serif" font-size="10.00">lpszContext</text>
<text text-anchor="middle" x="211" y="-304.24" font-family="Helvetica,sans-Serif" font-size="10.00">lpszQueryString</text>
<text text-anchor="middle" x="211" y="-293.24" font-family="Helvetica,sans-Serif" font-size="10.00">lpszComment</text>
</g>
<!-- Node3 -->
<g id="node3" class="node">
<title>Node3</title>
<g id="a_node3"><a xlink:title=" ">
<polygon fill="none" stroke="#bfbfbf" points="23,-236.74 23,-255.74 105,-255.74 105,-236.74 23,-236.74"/>
<text text-anchor="middle" x="64" y="-243.74" font-family="Helvetica,sans-Serif" font-size="10.00">struct BLOB *</text>
</a>
</g>
</g>
<!-- Node3&#45;&gt;Node1 -->
<g id="edge2" class="edge">
<title>Node3&#45;&gt;Node1</title>
<path fill="none" stroke="#9a32cd" stroke-dasharray="5,2" d="M115.35,-247.71C159.41,-247.23 224.26,-242.2 276,-220.24 299.43,-210.29 321.27,-189.38 332.86,-177"/>
<polygon fill="#9a32cd" stroke="#9a32cd" points="115.17,-244.21 105.18,-247.74 115.19,-251.21 115.17,-244.21"/>
<text text-anchor="middle" x="211" y="-249.24" font-family="Helvetica,sans-Serif" font-size="10.00"> lpBlob</text>
</g>
<!-- Node4 -->
<g id="node4" class="node">
<title>Node4</title>
<g id="a_node4"><a xlink:title=" ">
<polygon fill="none" stroke="#bfbfbf" points="43,-193.74 43,-212.74 85,-212.74 85,-193.74 43,-193.74"/>
<text text-anchor="middle" x="64" y="-200.74" font-family="Helvetica,sans-Serif" font-size="10.00">GUID</text>
</a>
</g>
</g>
<!-- Node4&#45;&gt;Node1 -->
<g id="edge3" class="edge">
<title>Node4&#45;&gt;Node1</title>
<path fill="none" stroke="#9a32cd" stroke-dasharray="5,2" d="M95.28,-200.44C136.33,-196.51 211.89,-188.74 276,-179.24 281.83,-178.37 287.94,-177.37 293.98,-176.33"/>
<polygon fill="#9a32cd" stroke="#9a32cd" points="94.76,-196.98 85.13,-201.41 95.42,-203.95 94.76,-196.98"/>
<text text-anchor="middle" x="211" y="-208.24" font-family="Helvetica,sans-Serif" font-size="10.00"> lpServiceClassId</text>
<text text-anchor="middle" x="211" y="-197.24" font-family="Helvetica,sans-Serif" font-size="10.00">lpNSProviderId</text>
</g>
<!-- Node5 -->
<g id="node5" class="node">
<title>Node5</title>
<g id="a_node5"><a xlink:title=" ">
<polygon fill="none" stroke="#bfbfbf" points="0.5,-155.74 0.5,-174.74 127.5,-174.74 127.5,-155.74 0.5,-155.74"/>
<text text-anchor="middle" x="64" y="-162.74" font-family="Helvetica,sans-Serif" font-size="10.00">struct CSADDR_INFO *</text>
</a>
</g>
</g>
<!-- Node5&#45;&gt;Node1 -->
<g id="edge4" class="edge">
<title>Node5&#45;&gt;Node1</title>
<path fill="none" stroke="#9a32cd" stroke-dasharray="5,2" d="M138.02,-165.76C187.23,-166.12 250.77,-166.58 293.64,-166.89"/>
<polygon fill="#9a32cd" stroke="#9a32cd" points="137.77,-162.26 127.74,-165.69 137.72,-169.26 137.77,-162.26"/>
<text text-anchor="middle" x="211" y="-169.24" font-family="Helvetica,sans-Serif" font-size="10.00"> lpcsaBuffer</text>
</g>
<!-- Node6 -->
<g id="node6" class="node">
<title>Node6</title>
<g id="a_node6"><a xlink:title=" ">
<polygon fill="none" stroke="#bfbfbf" points="45,-81.74 45,-100.74 83,-100.74 83,-81.74 45,-81.74"/>
<text text-anchor="middle" x="64" y="-88.74" font-family="Helvetica,sans-Serif" font-size="10.00">long</text>
</a>
</g>
</g>
<!-- Node6&#45;&gt;Node1 -->
<g id="edge5" class="edge">
<title>Node6&#45;&gt;Node1</title>
<path fill="none" stroke="#9a32cd" stroke-dasharray="5,2" d="M93.19,-87.5C135.02,-83.19 215.13,-79.75 276,-106.24 301.93,-117.52 324.1,-143.59 334.75,-157.72"/>
<polygon fill="#9a32cd" stroke="#9a32cd" points="92.72,-84.03 83.17,-88.62 93.5,-90.98 92.72,-84.03"/>
<text text-anchor="middle" x="211" y="-153.24" font-family="Helvetica,sans-Serif" font-size="10.00"> dwOutputFlags</text>
<text text-anchor="middle" x="211" y="-142.24" font-family="Helvetica,sans-Serif" font-size="10.00">dwSize</text>
<text text-anchor="middle" x="211" y="-131.24" font-family="Helvetica,sans-Serif" font-size="10.00">dwNameSpace</text>
<text text-anchor="middle" x="211" y="-120.24" font-family="Helvetica,sans-Serif" font-size="10.00">dwNumberOfProtocols</text>
<text text-anchor="middle" x="211" y="-109.24" font-family="Helvetica,sans-Serif" font-size="10.00">dwNumberOfCsAddrs</text>
</g>
<!-- Node7 -->
<g id="node7" class="node">
<title>Node7</title>
<g id="a_node7"><a xlink:title=" ">
<polygon fill="none" stroke="#bfbfbf" points="0,-43.74 0,-62.74 128,-62.74 128,-43.74 0,-43.74"/>
<text text-anchor="middle" x="64" y="-50.74" font-family="Helvetica,sans-Serif" font-size="10.00">struct AFPROTOCOLS *</text>
</a>
</g>
</g>
<!-- Node7&#45;&gt;Node1 -->
<g id="edge6" class="edge">
<title>Node7&#45;&gt;Node1</title>
<path fill="none" stroke="#9a32cd" stroke-dasharray="5,2" d="M138.44,-43.52C181.32,-41.42 234.89,-45.22 276,-69.24 310.99,-89.67 331.04,-137.12 338.32,-157.57"/>
<polygon fill="#9a32cd" stroke="#9a32cd" points="138.12,-40.04 128.35,-44.14 138.55,-47.02 138.12,-40.04"/>
<text text-anchor="middle" x="211" y="-72.24" font-family="Helvetica,sans-Serif" font-size="10.00"> lpafpProtocols</text>
</g>
<!-- Node8 -->
<g id="node8" class="node">
<title>Node8</title>
<g id="a_node8"><a xlink:title=" ">
<polygon fill="none" stroke="#bfbfbf" points="3,-5.74 3,-24.74 125,-24.74 125,-5.74 3,-5.74"/>
<text text-anchor="middle" x="64" y="-12.74" font-family="Helvetica,sans-Serif" font-size="10.00">struct WSAVERSION *</text>
</a>
</g>
</g>
<!-- Node8&#45;&gt;Node1 -->
<g id="edge7" class="edge">
<title>Node8&#45;&gt;Node1</title>
<path fill="none" stroke="#9a32cd" stroke-dasharray="5,2" d="M117.89,-4.15C163.68,2.38 229.67,4.12 276,-27.24 322.22,-58.52 336.57,-131.39 340.33,-157.62"/>
<polygon fill="#9a32cd" stroke="#9a32cd" points="117.2,-0.71 107.86,-5.7 118.28,-7.63 117.2,-0.71"/>
<text text-anchor="middle" x="211" y="-30.24" font-family="Helvetica,sans-Serif" font-size="10.00"> lpVersion</text>
</g>
</g>
</svg>
