<?xml version="1.0" encoding="UTF-8" standalone="no"?>
<!DOCTYPE svg PUBLIC "-//W3C//DTD SVG 1.1//EN"
 "http://www.w3.org/Graphics/SVG/1.1/DTD/svg11.dtd">
<!-- Generated by graphviz version 2.43.0 (0)
 -->
<!-- Title: TT_Header_ Pages: 1 -->
<svg width="363pt" height="161pt"
 viewBox="0.00 0.00 362.50 161.00" xmlns="http://www.w3.org/2000/svg" xmlns:xlink="http://www.w3.org/1999/xlink">
<g id="graph0" class="graph" transform="scale(1 1) rotate(0) translate(4 157)">
<title>TT_Header_</title>
<!-- Node1 -->
<g id="node1" class="node">
<title>Node1</title>
<g id="a_node1"><a xlink:title=" ">
<polygon fill="#bfbfbf" stroke="black" points="111.5,-0.5 111.5,-19.5 185.5,-19.5 185.5,-0.5 111.5,-0.5"/>
<text text-anchor="middle" x="148.5" y="-7.5" font-family="Helvetica,sans-Serif" font-size="10.00">TT_Header_</text>
</a>
</g>
</g>
<!-- Node2 -->
<g id="node2" class="node">
<title>Node2</title>
<g id="a_node2"><a xlink:title=" ">
<polygon fill="none" stroke="#bfbfbf" points="0,-133.5 0,-152.5 41,-152.5 41,-133.5 0,-133.5"/>
<text text-anchor="middle" x="20.5" y="-140.5" font-family="Helvetica,sans-Serif" font-size="10.00">short</text>
</a>
</g>
</g>
<!-- Node2&#45;&gt;Node1 -->
<g id="edge1" class="edge">
<title>Node2&#45;&gt;Node1</title>
<path fill="none" stroke="#9a32cd" stroke-dasharray="5,2" d="M18.31,-123.17C16.74,-100.02 17.89,-61 39.5,-38 49.31,-27.56 83.8,-20.21 111.38,-15.84"/>
<polygon fill="#9a32cd" stroke="#9a32cd" points="14.85,-123.75 19.26,-133.38 21.82,-123.1 14.85,-123.75"/>
<text text-anchor="middle" x="92" y="-107" font-family="Helvetica,sans-Serif" font-size="10.00"> Glyph_Data_Format</text>
<text text-anchor="middle" x="92" y="-96" font-family="Helvetica,sans-Serif" font-size="10.00">Index_To_Loc_Format</text>
<text text-anchor="middle" x="92" y="-85" font-family="Helvetica,sans-Serif" font-size="10.00">yMin</text>
<text text-anchor="middle" x="92" y="-74" font-family="Helvetica,sans-Serif" font-size="10.00">yMax</text>
<text text-anchor="middle" x="92" y="-63" font-family="Helvetica,sans-Serif" font-size="10.00">xMin</text>
<text text-anchor="middle" x="92" y="-52" font-family="Helvetica,sans-Serif" font-size="10.00">xMax</text>
<text text-anchor="middle" x="92" y="-41" font-family="Helvetica,sans-Serif" font-size="10.00">Font_Direction</text>
</g>
<!-- Node3 -->
<g id="node3" class="node">
<title>Node3</title>
<g id="a_node3"><a xlink:title=" ">
<polygon fill="none" stroke="#bfbfbf" points="129.5,-133.5 129.5,-152.5 167.5,-152.5 167.5,-133.5 129.5,-133.5"/>
<text text-anchor="middle" x="148.5" y="-140.5" font-family="Helvetica,sans-Serif" font-size="10.00">long</text>
</a>
</g>
</g>
<!-- Node3&#45;&gt;Node1 -->
<g id="edge2" class="edge">
<title>Node3&#45;&gt;Node1</title>
<path fill="none" stroke="#9a32cd" stroke-dasharray="5,2" d="M148.5,-123.09C148.5,-94.36 148.5,-40.82 148.5,-19.8"/>
<polygon fill="#9a32cd" stroke="#9a32cd" points="145,-123.4 148.5,-133.4 152,-123.4 145,-123.4"/>
<text text-anchor="middle" x="194" y="-101.5" font-family="Helvetica,sans-Serif" font-size="10.00"> CheckSum_Adjust</text>
<text text-anchor="middle" x="194" y="-90.5" font-family="Helvetica,sans-Serif" font-size="10.00">Created</text>
<text text-anchor="middle" x="194" y="-79.5" font-family="Helvetica,sans-Serif" font-size="10.00">Magic_Number</text>
<text text-anchor="middle" x="194" y="-68.5" font-family="Helvetica,sans-Serif" font-size="10.00">Font_Revision</text>
<text text-anchor="middle" x="194" y="-57.5" font-family="Helvetica,sans-Serif" font-size="10.00">Modified</text>
<text text-anchor="middle" x="194" y="-46.5" font-family="Helvetica,sans-Serif" font-size="10.00">Table_Version</text>
</g>
<!-- Node4 -->
<g id="node4" class="node">
<title>Node4</title>
<g id="a_node4"><a xlink:title=" ">
<polygon fill="none" stroke="#bfbfbf" points="232,-133.5 232,-152.5 293,-152.5 293,-133.5 232,-133.5"/>
<text text-anchor="middle" x="262.5" y="-140.5" font-family="Helvetica,sans-Serif" font-size="10.00">unsigned</text>
</a>
</g>
</g>
<!-- Node4&#45;&gt;Node1 -->
<g id="edge3" class="edge">
<title>Node4&#45;&gt;Node1</title>
<path fill="none" stroke="#9a32cd" stroke-dasharray="5,2" d="M263.91,-123.26C264.58,-100.21 262.06,-61.29 240.5,-38 226.59,-22.98 204.81,-16.16 185.93,-13.13"/>
<polygon fill="#9a32cd" stroke="#9a32cd" points="260.41,-123.26 263.38,-133.43 267.4,-123.63 260.41,-123.26"/>
<text text-anchor="middle" x="309" y="-90.5" font-family="Helvetica,sans-Serif" font-size="10.00"> Flags</text>
<text text-anchor="middle" x="309" y="-79.5" font-family="Helvetica,sans-Serif" font-size="10.00">Units_Per_EM</text>
<text text-anchor="middle" x="309" y="-68.5" font-family="Helvetica,sans-Serif" font-size="10.00">Mac_Style</text>
<text text-anchor="middle" x="309" y="-57.5" font-family="Helvetica,sans-Serif" font-size="10.00">Lowest_Rec_PPEM</text>
</g>
</g>
</svg>
