<?xml version="1.0" encoding="UTF-8" standalone="no"?>
<!DOCTYPE svg PUBLIC "-//W3C//DTD SVG 1.1//EN"
 "http://www.w3.org/Graphics/SVG/1.1/DTD/svg11.dtd">
<!-- Generated by graphviz version 2.43.0 (0)
 -->
<!-- Title: _CM_RESOURCE_LIST Pages: 1 -->
<svg width="396pt" height="88pt"
 viewBox="0.00 0.00 396.00 88.00" xmlns="http://www.w3.org/2000/svg" xmlns:xlink="http://www.w3.org/1999/xlink">
<g id="graph0" class="graph" transform="scale(1 1) rotate(0) translate(4 84)">
<title>_CM_RESOURCE_LIST</title>
<!-- Node1 -->
<g id="node1" class="node">
<title>Node1</title>
<g id="a_node1"><a xlink:title=" ">
<polygon fill="#bfbfbf" stroke="black" points="266,-35.5 266,-54.5 388,-54.5 388,-35.5 266,-35.5"/>
<text text-anchor="middle" x="327" y="-42.5" font-family="Helvetica,sans-Serif" font-size="10.00">_CM_RESOURCE_LIST</text>
</a>
</g>
</g>
<!-- Node2 -->
<g id="node2" class="node">
<title>Node2</title>
<g id="a_node2"><a xlink:title=" ">
<polygon fill="none" stroke="#bfbfbf" points="5,-60.5 5,-79.5 193,-79.5 193,-60.5 5,-60.5"/>
<text text-anchor="middle" x="99" y="-67.5" font-family="Helvetica,sans-Serif" font-size="10.00">CM_FULL_RESOURCE_DESCRIPTOR</text>
</a>
</g>
</g>
<!-- Node2&#45;&gt;Node1 -->
<g id="edge1" class="edge">
<title>Node2&#45;&gt;Node1</title>
<path fill="none" stroke="#9a32cd" stroke-dasharray="5,2" d="M196.14,-59.37C219.76,-56.75 244.39,-54.03 265.77,-51.66"/>
<polygon fill="#9a32cd" stroke="#9a32cd" points="195.64,-55.9 186.09,-60.48 196.41,-62.86 195.64,-55.9"/>
<text text-anchor="middle" x="232" y="-59" font-family="Helvetica,sans-Serif" font-size="10.00"> List</text>
</g>
<!-- Node3 -->
<g id="node3" class="node">
<title>Node3</title>
<g id="a_node3"><a xlink:title=" ">
<polygon fill="none" stroke="#bfbfbf" points="0,-0.5 0,-41.5 198,-41.5 198,-0.5 0,-0.5"/>
<text text-anchor="start" x="8" y="-29.5" font-family="Helvetica,sans-Serif" font-size="10.00">PSecurityUserData *typedef</text>
<text text-anchor="start" x="8" y="-18.5" font-family="Helvetica,sans-Serif" font-size="10.00"> PSECPKG_EXTENDED_INFORMATION</text>
<text text-anchor="middle" x="99" y="-7.5" font-family="Helvetica,sans-Serif" font-size="10.00"> *typedef</text>
</a>
</g>
</g>
<!-- Node3&#45;&gt;Node1 -->
<g id="edge2" class="edge">
<title>Node3&#45;&gt;Node1</title>
<path fill="none" stroke="#9a32cd" stroke-dasharray="5,2" d="M208.15,-32.48C227.95,-34.59 247.96,-36.71 265.72,-38.6"/>
<polygon fill="#9a32cd" stroke="#9a32cd" points="208.45,-29 198.14,-31.42 207.72,-35.96 208.45,-29"/>
<text text-anchor="middle" x="232" y="-39" font-family="Helvetica,sans-Serif" font-size="10.00"> Count</text>
</g>
</g>
</svg>
