<?xml version="1.0" encoding="UTF-8" standalone="no"?>
<!DOCTYPE svg PUBLIC "-//W3C//DTD SVG 1.1//EN"
 "http://www.w3.org/Graphics/SVG/1.1/DTD/svg11.dtd">
<!-- Generated by graphviz version 2.43.0 (0)
 -->
<!-- Title: _MODEMSETTINGS Pages: 1 -->
<svg width="275pt" height="205pt"
 viewBox="0.00 0.00 275.00 205.00" xmlns="http://www.w3.org/2000/svg" xmlns:xlink="http://www.w3.org/1999/xlink">
<g id="graph0" class="graph" transform="scale(1 1) rotate(0) translate(4 201)">
<title>_MODEMSETTINGS</title>
<!-- Node1 -->
<g id="node1" class="node">
<title>Node1</title>
<g id="a_node1"><a xlink:title=" ">
<polygon fill="#bfbfbf" stroke="black" points="20.5,-0.5 20.5,-19.5 129.5,-19.5 129.5,-0.5 20.5,-0.5"/>
<text text-anchor="middle" x="75" y="-7.5" font-family="Helvetica,sans-Serif" font-size="10.00">_MODEMSETTINGS</text>
</a>
</g>
</g>
<!-- Node2 -->
<g id="node2" class="node">
<title>Node2</title>
<g id="a_node2"><a xlink:title=" ">
<polygon fill="none" stroke="#bfbfbf" points="0,-177.5 0,-196.5 38,-196.5 38,-177.5 0,-177.5"/>
<text text-anchor="middle" x="19" y="-184.5" font-family="Helvetica,sans-Serif" font-size="10.00">char</text>
</a>
</g>
</g>
<!-- Node2&#45;&gt;Node1 -->
<g id="edge1" class="edge">
<title>Node2&#45;&gt;Node1</title>
<path fill="none" stroke="#9a32cd" stroke-dasharray="5,2" d="M13.4,-167.61C5.5,-137.83 -5.32,-78.33 20,-38 25.32,-29.53 34.14,-23.64 43.19,-19.58"/>
<polygon fill="#9a32cd" stroke="#9a32cd" points="10.1,-168.8 16.2,-177.47 16.83,-166.89 10.1,-168.8"/>
<text text-anchor="middle" x="65" y="-96" font-family="Helvetica,sans-Serif" font-size="10.00"> abVariablePortion</text>
</g>
<!-- Node3 -->
<g id="node3" class="node">
<title>Node3</title>
<g id="a_node3"><a xlink:title=" ">
<polygon fill="none" stroke="#bfbfbf" points="113,-177.5 113,-196.5 151,-196.5 151,-177.5 113,-177.5"/>
<text text-anchor="middle" x="132" y="-184.5" font-family="Helvetica,sans-Serif" font-size="10.00">long</text>
</a>
</g>
</g>
<!-- Node3&#45;&gt;Node1 -->
<g id="edge2" class="edge">
<title>Node3&#45;&gt;Node1</title>
<path fill="none" stroke="#9a32cd" stroke-dasharray="5,2" d="M133.51,-167.07C134.97,-137.41 134.14,-79.14 110,-38 105.49,-30.32 97.89,-24.06 90.91,-19.5"/>
<polygon fill="#9a32cd" stroke="#9a32cd" points="130,-167.05 132.85,-177.26 136.99,-167.5 130,-167.05"/>
<text text-anchor="middle" x="200" y="-151" font-family="Helvetica,sans-Serif" font-size="10.00"> dwActualSize</text>
<text text-anchor="middle" x="200" y="-140" font-family="Helvetica,sans-Serif" font-size="10.00">dwNegotiatedDCERate</text>
<text text-anchor="middle" x="200" y="-129" font-family="Helvetica,sans-Serif" font-size="10.00">dwInactivityTimeout</text>
<text text-anchor="middle" x="200" y="-118" font-family="Helvetica,sans-Serif" font-size="10.00">dwSpeakerVolume</text>
<text text-anchor="middle" x="200" y="-107" font-family="Helvetica,sans-Serif" font-size="10.00">dwDevSpecificSize</text>
<text text-anchor="middle" x="200" y="-96" font-family="Helvetica,sans-Serif" font-size="10.00">dwDevSpecificOffset</text>
<text text-anchor="middle" x="200" y="-85" font-family="Helvetica,sans-Serif" font-size="10.00">dwPreferredModemOptions</text>
<text text-anchor="middle" x="200" y="-74" font-family="Helvetica,sans-Serif" font-size="10.00">dwSpeakerMode</text>
<text text-anchor="middle" x="200" y="-63" font-family="Helvetica,sans-Serif" font-size="10.00">dwCallSetupFailTimer</text>
<text text-anchor="middle" x="200" y="-52" font-family="Helvetica,sans-Serif" font-size="10.00">dwRequiredSize</text>
<text text-anchor="middle" x="200" y="-41" font-family="Helvetica,sans-Serif" font-size="10.00">...</text>
</g>
</g>
</svg>
