<?xml version="1.0" encoding="UTF-8" standalone="no"?>
<!DOCTYPE svg PUBLIC "-//W3C//DTD SVG 1.1//EN"
 "http://www.w3.org/Graphics/SVG/1.1/DTD/svg11.dtd">
<!-- Generated by graphviz version 2.43.0 (0)
 -->
<!-- Title: tagSAFEARRAYBOUND Pages: 1 -->
<svg width="262pt" height="117pt"
 viewBox="0.00 0.00 262.00 117.00" xmlns="http://www.w3.org/2000/svg" xmlns:xlink="http://www.w3.org/1999/xlink">
<g id="graph0" class="graph" transform="scale(1 1) rotate(0) translate(4 113)">
<title>tagSAFEARRAYBOUND</title>
<!-- Node1 -->
<g id="node1" class="node">
<title>Node1</title>
<g id="a_node1"><a xlink:title=" ">
<polygon fill="#bfbfbf" stroke="black" points="23.5,-0.5 23.5,-19.5 150.5,-19.5 150.5,-0.5 23.5,-0.5"/>
<text text-anchor="middle" x="87" y="-7.5" font-family="Helvetica,sans-Serif" font-size="10.00">tagSAFEARRAYBOUND</text>
</a>
</g>
</g>
<!-- Node2 -->
<g id="node2" class="node">
<title>Node2</title>
<g id="a_node2"><a xlink:title=" ">
<polygon fill="none" stroke="#bfbfbf" points="0,-78.5 0,-97.5 38,-97.5 38,-78.5 0,-78.5"/>
<text text-anchor="middle" x="19" y="-85.5" font-family="Helvetica,sans-Serif" font-size="10.00">long</text>
</a>
</g>
</g>
<!-- Node2&#45;&gt;Node1 -->
<g id="edge1" class="edge">
<title>Node2&#45;&gt;Node1</title>
<path fill="none" stroke="#9a32cd" stroke-dasharray="5,2" d="M33.81,-70.44C47.82,-54.79 68.27,-31.93 79.29,-19.62"/>
<polygon fill="#9a32cd" stroke="#9a32cd" points="30.86,-68.5 26.8,-78.28 36.08,-73.16 30.86,-68.5"/>
<text text-anchor="middle" x="83" y="-41" font-family="Helvetica,sans-Serif" font-size="10.00"> lLbound</text>
</g>
<!-- Node3 -->
<g id="node3" class="node">
<title>Node3</title>
<g id="a_node3"><a xlink:title=" ">
<polygon fill="none" stroke="#bfbfbf" points="56,-67.5 56,-108.5 254,-108.5 254,-67.5 56,-67.5"/>
<text text-anchor="start" x="64" y="-96.5" font-family="Helvetica,sans-Serif" font-size="10.00">PSecurityUserData *typedef</text>
<text text-anchor="start" x="64" y="-85.5" font-family="Helvetica,sans-Serif" font-size="10.00"> PSECPKG_EXTENDED_INFORMATION</text>
<text text-anchor="middle" x="155" y="-74.5" font-family="Helvetica,sans-Serif" font-size="10.00"> *typedef</text>
</a>
</g>
</g>
<!-- Node3&#45;&gt;Node1 -->
<g id="edge2" class="edge">
<title>Node3&#45;&gt;Node1</title>
<path fill="none" stroke="#9a32cd" stroke-dasharray="5,2" d="M130.69,-59.83C118.01,-45.65 103.36,-29.28 94.65,-19.55"/>
<polygon fill="#9a32cd" stroke="#9a32cd" points="128.21,-62.31 137.49,-67.43 133.43,-57.64 128.21,-62.31"/>
<text text-anchor="middle" x="148.5" y="-41" font-family="Helvetica,sans-Serif" font-size="10.00"> cElements</text>
</g>
</g>
</svg>
