<?xml version="1.0" encoding="UTF-8" standalone="no"?>
<!DOCTYPE svg PUBLIC "-//W3C//DTD SVG 1.1//EN"
 "http://www.w3.org/Graphics/SVG/1.1/DTD/svg11.dtd">
<!-- Generated by graphviz version 2.43.0 (0)
 -->
<!-- Title: _CERT_SIMPLE_CHAIN Pages: 1 -->
<svg width="687pt" height="139pt"
 viewBox="0.00 0.00 687.00 139.00" xmlns="http://www.w3.org/2000/svg" xmlns:xlink="http://www.w3.org/1999/xlink">
<g id="graph0" class="graph" transform="scale(1 1) rotate(0) translate(4 135)">
<title>_CERT_SIMPLE_CHAIN</title>
<!-- Node1 -->
<g id="node1" class="node">
<title>Node1</title>
<g id="a_node1"><a xlink:title=" ">
<polygon fill="#bfbfbf" stroke="black" points="274,-0.5 274,-19.5 398,-19.5 398,-0.5 274,-0.5"/>
<text text-anchor="middle" x="336" y="-7.5" font-family="Helvetica,sans-Serif" font-size="10.00">_CERT_SIMPLE_CHAIN</text>
</a>
</g>
</g>
<!-- Node2 -->
<g id="node2" class="node">
<title>Node2</title>
<g id="a_node2"><a xlink:title=" ">
<polygon fill="none" stroke="#bfbfbf" points="0,-106 0,-125 64,-125 64,-106 0,-106"/>
<text text-anchor="middle" x="32" y="-113" font-family="Helvetica,sans-Serif" font-size="10.00">WINBOOL</text>
</a>
</g>
</g>
<!-- Node2&#45;&gt;Node1 -->
<g id="edge1" class="edge">
<title>Node2&#45;&gt;Node1</title>
<path fill="none" stroke="#9a32cd" stroke-dasharray="5,2" d="M31.28,-95.71C31.72,-77.98 35.45,-52.08 52,-38 68.53,-23.94 195.52,-16.48 273.99,-13.17"/>
<polygon fill="#9a32cd" stroke="#9a32cd" points="27.78,-95.78 31.36,-105.75 34.78,-95.72 27.78,-95.78"/>
<text text-anchor="middle" x="129" y="-57.5" font-family="Helvetica,sans-Serif" font-size="10.00"> fHasRevocationFreshnessTime</text>
</g>
<!-- Node3 -->
<g id="node3" class="node">
<title>Node3</title>
<g id="a_node3"><a xlink:title=" ">
<polygon fill="none" stroke="#bfbfbf" points="111.5,-100.5 111.5,-130.5 246.5,-130.5 246.5,-100.5 111.5,-100.5"/>
<text text-anchor="start" x="119.5" y="-118.5" font-family="Helvetica,sans-Serif" font-size="10.00">struct CERT_TRUST_LIST</text>
<text text-anchor="middle" x="179" y="-107.5" font-family="Helvetica,sans-Serif" font-size="10.00">_INFO *</text>
</a>
</g>
</g>
<!-- Node3&#45;&gt;Node1 -->
<g id="edge2" class="edge">
<title>Node3&#45;&gt;Node1</title>
<path fill="none" stroke="#9a32cd" stroke-dasharray="5,2" d="M198.54,-92.59C214.5,-75.77 238.38,-52.98 263,-38 275.93,-30.13 291.52,-23.98 304.97,-19.55"/>
<polygon fill="#9a32cd" stroke="#9a32cd" points="195.62,-90.59 191.37,-100.3 200.74,-95.36 195.62,-90.59"/>
<text text-anchor="middle" x="297.5" y="-57.5" font-family="Helvetica,sans-Serif" font-size="10.00"> pTrustListInfo</text>
</g>
<!-- Node4 -->
<g id="node4" class="node">
<title>Node4</title>
<g id="a_node4"><a xlink:title=" ">
<polygon fill="none" stroke="#bfbfbf" points="264.5,-106 264.5,-125 407.5,-125 407.5,-106 264.5,-106"/>
<text text-anchor="middle" x="336" y="-113" font-family="Helvetica,sans-Serif" font-size="10.00">PCERT_CHAIN_ELEMENT *</text>
</a>
</g>
</g>
<!-- Node4&#45;&gt;Node1 -->
<g id="edge3" class="edge">
<title>Node4&#45;&gt;Node1</title>
<path fill="none" stroke="#9a32cd" stroke-dasharray="5,2" d="M336,-95.6C336,-72.97 336,-36.07 336,-19.51"/>
<polygon fill="#9a32cd" stroke="#9a32cd" points="332.5,-95.68 336,-105.68 339.5,-95.68 332.5,-95.68"/>
<text text-anchor="middle" x="366" y="-57.5" font-family="Helvetica,sans-Serif" font-size="10.00"> rgpElement</text>
</g>
<!-- Node5 -->
<g id="node5" class="node">
<title>Node5</title>
<g id="a_node5"><a xlink:title=" ">
<polygon fill="none" stroke="#bfbfbf" points="425.5,-106 425.5,-125 546.5,-125 546.5,-106 425.5,-106"/>
<text text-anchor="middle" x="486" y="-113" font-family="Helvetica,sans-Serif" font-size="10.00">CERT_TRUST_STATUS</text>
</a>
</g>
</g>
<!-- Node5&#45;&gt;Node1 -->
<g id="edge4" class="edge">
<title>Node5&#45;&gt;Node1</title>
<path fill="none" stroke="#9a32cd" stroke-dasharray="5,2" d="M471.19,-98.52C454.97,-81.74 427.59,-55.42 400,-38 388.07,-30.47 373.68,-24.18 361.56,-19.57"/>
<polygon fill="#9a32cd" stroke="#9a32cd" points="468.78,-101.07 478.2,-105.91 473.85,-96.25 468.78,-101.07"/>
<text text-anchor="middle" x="482" y="-57.5" font-family="Helvetica,sans-Serif" font-size="10.00"> TrustStatus</text>
</g>
<!-- Node6 -->
<g id="node6" class="node">
<title>Node6</title>
<g id="a_node6"><a xlink:title=" ">
<polygon fill="none" stroke="#bfbfbf" points="565,-106 565,-125 603,-125 603,-106 565,-106"/>
<text text-anchor="middle" x="584" y="-113" font-family="Helvetica,sans-Serif" font-size="10.00">long</text>
</a>
</g>
</g>
<!-- Node6&#45;&gt;Node1 -->
<g id="edge5" class="edge">
<title>Node6&#45;&gt;Node1</title>
<path fill="none" stroke="#9a32cd" stroke-dasharray="5,2" d="M573.25,-96.68C561.37,-78.71 540.52,-51.72 515,-38 495.21,-27.36 441.67,-20.18 398.27,-15.92"/>
<polygon fill="#9a32cd" stroke="#9a32cd" points="570.58,-99.02 578.89,-105.6 576.5,-95.27 570.58,-99.02"/>
<text text-anchor="middle" x="620" y="-74" font-family="Helvetica,sans-Serif" font-size="10.00"> cbSize</text>
<text text-anchor="middle" x="620" y="-63" font-family="Helvetica,sans-Serif" font-size="10.00">cElement</text>
<text text-anchor="start" x="561" y="-52" font-family="Helvetica,sans-Serif" font-size="10.00">dwRevocationFreshness</text>
<text text-anchor="middle" x="620" y="-41" font-family="Helvetica,sans-Serif" font-size="10.00">Time</text>
</g>
</g>
</svg>
