<?xml version="1.0" encoding="UTF-8" standalone="no"?>
<!DOCTYPE svg PUBLIC "-//W3C//DTD SVG 1.1//EN"
 "http://www.w3.org/Graphics/SVG/1.1/DTD/svg11.dtd">
<!-- Generated by graphviz version 2.43.0 (0)
 -->
<!-- Title: _OBJECTS_AND_NAME_W Pages: 1 -->
<svg width="356pt" height="117pt"
 viewBox="0.00 0.00 355.50 117.00" xmlns="http://www.w3.org/2000/svg" xmlns:xlink="http://www.w3.org/1999/xlink">
<g id="graph0" class="graph" transform="scale(1 1) rotate(0) translate(4 113)">
<title>_OBJECTS_AND_NAME_W</title>
<!-- Node1 -->
<g id="node1" class="node">
<title>Node1</title>
<g id="a_node1"><a xlink:title=" ">
<polygon fill="#bfbfbf" stroke="black" points="124.5,-0.5 124.5,-19.5 264.5,-19.5 264.5,-0.5 124.5,-0.5"/>
<text text-anchor="middle" x="194.5" y="-7.5" font-family="Helvetica,sans-Serif" font-size="10.00">_OBJECTS_AND_NAME_W</text>
</a>
</g>
</g>
<!-- Node2 -->
<g id="node2" class="node">
<title>Node2</title>
<g id="a_node2"><a xlink:title=" ">
<polygon fill="none" stroke="#bfbfbf" points="0,-89.5 0,-108.5 89,-108.5 89,-89.5 0,-89.5"/>
<text text-anchor="middle" x="44.5" y="-96.5" font-family="Helvetica,sans-Serif" font-size="10.00">unsigned short</text>
</a>
</g>
</g>
<!-- Node2&#45;&gt;Node1 -->
<g id="edge1" class="edge">
<title>Node2&#45;&gt;Node1</title>
<path fill="none" stroke="#9a32cd" stroke-dasharray="5,2" d="M45.59,-79.14C47.38,-65.76 51.96,-48.4 63.5,-38 72.94,-29.49 98.27,-23.32 124.18,-19.04"/>
<polygon fill="#9a32cd" stroke="#9a32cd" points="42.09,-78.91 44.64,-89.2 49.06,-79.57 42.09,-78.91"/>
<text text-anchor="middle" x="127" y="-63" font-family="Helvetica,sans-Serif" font-size="10.00"> ptstrName</text>
<text text-anchor="middle" x="127" y="-52" font-family="Helvetica,sans-Serif" font-size="10.00">InheritedObjectTypeName</text>
<text text-anchor="middle" x="127" y="-41" font-family="Helvetica,sans-Serif" font-size="10.00">ObjectTypeName</text>
</g>
<!-- Node3 -->
<g id="node3" class="node">
<title>Node3</title>
<g id="a_node3"><a xlink:title=" ">
<polygon fill="none" stroke="#bfbfbf" points="164,-89.5 164,-108.5 225,-108.5 225,-89.5 164,-89.5"/>
<text text-anchor="middle" x="194.5" y="-96.5" font-family="Helvetica,sans-Serif" font-size="10.00">unsigned</text>
</a>
</g>
</g>
<!-- Node3&#45;&gt;Node1 -->
<g id="edge2" class="edge">
<title>Node3&#45;&gt;Node1</title>
<path fill="none" stroke="#9a32cd" stroke-dasharray="5,2" d="M194.5,-79.19C194.5,-60.74 194.5,-33.41 194.5,-19.62"/>
<polygon fill="#9a32cd" stroke="#9a32cd" points="191,-79.34 194.5,-89.34 198,-79.34 191,-79.34"/>
<text text-anchor="middle" x="233" y="-52" font-family="Helvetica,sans-Serif" font-size="10.00"> ObjectsPresent</text>
</g>
<!-- Node4 -->
<g id="node4" class="node">
<title>Node4</title>
<g id="a_node4"><a xlink:title=" ">
<polygon fill="none" stroke="#bfbfbf" points="245,-89.5 245,-108.5 344,-108.5 344,-89.5 245,-89.5"/>
<text text-anchor="middle" x="294.5" y="-96.5" font-family="Helvetica,sans-Serif" font-size="10.00">SE_OBJECT_TYPE</text>
</a>
</g>
</g>
<!-- Node4&#45;&gt;Node1 -->
<g id="edge3" class="edge">
<title>Node4&#45;&gt;Node1</title>
<path fill="none" stroke="#9a32cd" stroke-dasharray="5,2" d="M292,-79.52C289.3,-66.34 283.76,-49.05 272.5,-38 263.81,-29.47 252.29,-23.62 240.78,-19.62"/>
<polygon fill="#9a32cd" stroke="#9a32cd" points="288.55,-80.12 293.66,-89.4 295.45,-78.96 288.55,-80.12"/>
<text text-anchor="middle" x="318.5" y="-52" font-family="Helvetica,sans-Serif" font-size="10.00"> ObjectType</text>
</g>
</g>
</svg>
