<?xml version="1.0" encoding="UTF-8" standalone="no"?>
<!DOCTYPE svg PUBLIC "-//W3C//DTD SVG 1.1//EN"
 "http://www.w3.org/Graphics/SVG/1.1/DTD/svg11.dtd">
<!-- Generated by graphviz version 2.43.0 (0)
 -->
<!-- Title: controls_t Pages: 1 -->
<!--zoomable 1136 -->
<svg id="main" version="1.1" xmlns="http://www.w3.org/2000/svg" xmlns:xlink="http://www.w3.org/1999/xlink" xml:space="preserve" onload="init(evt)">
<style type="text/css"><![CDATA[
.edge:hover path { stroke: red; }
.edge:hover polygon { stroke: red; fill: red; }
]]></style>
<script type="text/javascript"><![CDATA[
var edges = document.getElementsByTagName('g');
if (edges && edges.length) {
  for (var i=0;i<edges.length;i++) {
    if (edges[i].id.substr(0,4)=='edge') {
      edges[i].setAttribute('class','edge');
    }
  }
}
]]></script>
        <defs>
                <circle id="rim" cx="0" cy="0" r="7"/>
                <circle id="rim2" cx="0" cy="0" r="3.5"/>
                <g id="zoomPlus">
                        <use xlink:href="#rim" fill="#404040">
                                <set attributeName="fill" to="#808080" begin="zoomplus.mouseover" end="zoomplus.mouseout"/>
                        </use>
                        <path d="M-4,0h8M0,-4v8" fill="none" stroke="white" stroke-width="1.5" pointer-events="none"/>
                </g>
                <g id="zoomMin">
                        <use xlink:href="#rim" fill="#404040">
                                <set attributeName="fill" to="#808080" begin="zoomminus.mouseover" end="zoomminus.mouseout"/>
                        </use>
                        <path d="M-4,0h8" fill="none" stroke="white" stroke-width="1.5" pointer-events="none"/>
                </g>
                <g id="dirArrow">
                        <path fill="none" stroke="white" stroke-width="1.5" d="M0,-3.0v7 M-2.5,-0.5L0,-3.0L2.5,-0.5"/>
                </g>
               <g id="resetDef">
                       <use xlink:href="#rim2" fill="#404040">
                               <set attributeName="fill" to="#808080" begin="reset.mouseover" end="reset.mouseout"/>
                       </use>
               </g>
        </defs>

<script type="text/javascript">
var viewWidth = 728;
var viewHeight = 1136;
var sectionId = 'dynsection-0';
</script>
<script xlink:href="../../svgpan.js"/>
<svg id="graph" class="graph">
<g id="viewport">
<title>controls_t</title>
<!-- Node1 -->
<g id="node1" class="node">
<title>Node1</title>
<g id="a_node1"><a xlink:title=" ">
<polygon fill="#bfbfbf" stroke="black" points="655,-655.92 655,-674.92 720,-674.92 720,-655.92 655,-655.92"/>
<text text-anchor="middle" x="687.5" y="-662.92" font-family="Helvetica,sans-Serif" font-size="10.00">controls_t</text>
</a>
</g>
</g>
<!-- Node2 -->
<g id="node2" class="node">
<title>Node2</title>
<g id="a_node2"><a xlink:href="../../d9/dcf/structmenuaction__s.html" target="_top" xlink:title=" ">
<polygon fill="none" stroke="black" points="468,-842.92 468,-861.92 553,-861.92 553,-842.92 468,-842.92"/>
<text text-anchor="middle" x="510.5" y="-849.92" font-family="Helvetica,sans-Serif" font-size="10.00">menuaction_s</text>
</a>
</g>
</g>
<!-- Node2&#45;&gt;Node1 -->
<g id="edge1" class="edge">
<title>Node2&#45;&gt;Node1</title>
<path fill="none" stroke="#9a32cd" stroke-dasharray="5,2" d="M562.96,-842.83C588.18,-835.76 617.28,-823.7 637,-803.42 673.38,-766.02 683.24,-700.03 685.72,-675.22"/>
<polygon fill="#9a32cd" stroke="#9a32cd" points="561.95,-839.48 553.16,-845.4 563.72,-846.25 561.95,-839.48"/>
<text text-anchor="middle" x="605" y="-951.42" font-family="Helvetica,sans-Serif" font-size="10.00"> prevweapon</text>
<text text-anchor="middle" x="605" y="-940.42" font-family="Helvetica,sans-Serif" font-size="10.00">movedown</text>
<text text-anchor="middle" x="605" y="-929.42" font-family="Helvetica,sans-Serif" font-size="10.00">walkforward</text>
<text text-anchor="middle" x="605" y="-918.42" font-family="Helvetica,sans-Serif" font-size="10.00">attack2</text>
<text text-anchor="middle" x="605" y="-907.42" font-family="Helvetica,sans-Serif" font-size="10.00">run</text>
<text text-anchor="middle" x="605" y="-896.42" font-family="Helvetica,sans-Serif" font-size="10.00">block</text>
<text text-anchor="middle" x="605" y="-885.42" font-family="Helvetica,sans-Serif" font-size="10.00">chat</text>
<text text-anchor="middle" x="605" y="-874.42" font-family="Helvetica,sans-Serif" font-size="10.00">chargepl</text>
<text text-anchor="middle" x="605" y="-863.42" font-family="Helvetica,sans-Serif" font-size="10.00">attack</text>
<text text-anchor="middle" x="605" y="-852.42" font-family="Helvetica,sans-Serif" font-size="10.00">zanzoken</text>
<text text-anchor="middle" x="605" y="-841.42" font-family="Helvetica,sans-Serif" font-size="10.00">...</text>
</g>
<!-- Node3 -->
<g id="node3" class="node">
<title>Node3</title>
<g id="a_node3"><a xlink:href="../../d5/d57/structmenucommon__s.html" target="_top" xlink:title=" ">
<polygon fill="none" stroke="black" points="235.5,-837.92 235.5,-856.92 333.5,-856.92 333.5,-837.92 235.5,-837.92"/>
<text text-anchor="middle" x="284.5" y="-844.92" font-family="Helvetica,sans-Serif" font-size="10.00">menucommon_s</text>
</a>
</g>
</g>
<!-- Node3&#45;&gt;Node2 -->
<g id="edge2" class="edge">
<title>Node3&#45;&gt;Node2</title>
<path fill="none" stroke="#9a32cd" stroke-dasharray="5,2" d="M343.7,-848.72C382.65,-849.59 432.98,-850.72 467.93,-851.5"/>
<polygon fill="#9a32cd" stroke="#9a32cd" points="343.63,-845.22 333.55,-848.5 343.47,-852.22 343.63,-845.22"/>
<text text-anchor="middle" x="401" y="-853.42" font-family="Helvetica,sans-Serif" font-size="10.00"> generic</text>
</g>
<!-- Node9 -->
<g id="node9" class="node">
<title>Node9</title>
<g id="a_node9"><a xlink:href="../../d8/da6/structmenubitmap__s.html" target="_top" xlink:title=" ">
<polygon fill="none" stroke="black" points="466,-655.92 466,-674.92 555,-674.92 555,-655.92 466,-655.92"/>
<text text-anchor="middle" x="510.5" y="-662.92" font-family="Helvetica,sans-Serif" font-size="10.00">menubitmap_s</text>
</a>
</g>
</g>
<!-- Node3&#45;&gt;Node9 -->
<g id="edge9" class="edge">
<title>Node3&#45;&gt;Node9</title>
<path fill="none" stroke="#9a32cd" stroke-dasharray="5,2" d="M304.34,-831.22C318.03,-819.5 337.05,-803.35 354,-789.42 406.82,-746.02 470.96,-695.58 497.31,-674.95"/>
<polygon fill="#9a32cd" stroke="#9a32cd" points="301.88,-828.71 296.57,-837.88 306.44,-834.03 301.88,-828.71"/>
<text text-anchor="middle" x="401" y="-792.42" font-family="Helvetica,sans-Serif" font-size="10.00"> generic</text>
</g>
<!-- Node11 -->
<g id="node11" class="node">
<title>Node11</title>
<g id="a_node11"><a xlink:href="../../d0/de7/structmenutext__s.html" target="_top" xlink:title=" ">
<polygon fill="none" stroke="black" points="473.5,-747.92 473.5,-766.92 547.5,-766.92 547.5,-747.92 473.5,-747.92"/>
<text text-anchor="middle" x="510.5" y="-754.92" font-family="Helvetica,sans-Serif" font-size="10.00">menutext_s</text>
</a>
</g>
</g>
<!-- Node3&#45;&gt;Node11 -->
<g id="edge17" class="edge">
<title>Node3&#45;&gt;Node11</title>
<path fill="none" stroke="#9a32cd" stroke-dasharray="5,2" d="M336.37,-835.46C376.3,-825.68 428.33,-811.95 448,-802.42 467.53,-792.97 487.28,-777.16 498.95,-767.02"/>
<polygon fill="#9a32cd" stroke="#9a32cd" points="335.4,-832.1 326.51,-837.86 337.05,-838.9 335.4,-832.1"/>
<text text-anchor="middle" x="401" y="-833.42" font-family="Helvetica,sans-Serif" font-size="10.00"> generic</text>
</g>
<!-- Node4 -->
<g id="node4" class="node">
<title>Node4</title>
<g id="a_node4"><a xlink:title=" ">
<polygon fill="none" stroke="#bfbfbf" points="35,-867.92 35,-886.92 73,-886.92 73,-867.92 35,-867.92"/>
<text text-anchor="middle" x="54" y="-874.92" font-family="Helvetica,sans-Serif" font-size="10.00">void</text>
</a>
</g>
</g>
<!-- Node4&#45;&gt;Node3 -->
<g id="edge3" class="edge">
<title>Node4&#45;&gt;Node3</title>
<path fill="none" stroke="#9a32cd" stroke-dasharray="5,2" d="M83.67,-873.66C121.75,-868.66 189.54,-859.76 235.49,-853.73"/>
<polygon fill="#9a32cd" stroke="#9a32cd" points="82.77,-870.25 73.31,-875.02 83.68,-877.19 82.77,-870.25"/>
<text text-anchor="middle" x="170.5" y="-892.42" font-family="Helvetica,sans-Serif" font-size="10.00"> ownerdraw</text>
<text text-anchor="middle" x="170.5" y="-881.42" font-family="Helvetica,sans-Serif" font-size="10.00">callback</text>
<text text-anchor="middle" x="170.5" y="-870.42" font-family="Helvetica,sans-Serif" font-size="10.00">statusbar</text>
</g>
<!-- Node5 -->
<g id="node5" class="node">
<title>Node5</title>
<g id="a_node5"><a xlink:title=" ">
<polygon fill="none" stroke="#bfbfbf" points="0,-1057.92 0,-1076.92 108,-1076.92 108,-1057.92 0,-1057.92"/>
<text text-anchor="middle" x="54" y="-1064.92" font-family="Helvetica,sans-Serif" font-size="10.00">menuframework_s</text>
</a>
</g>
</g>
<!-- Node5&#45;&gt;Node1 -->
<g id="edge15" class="edge">
<title>Node5&#45;&gt;Node1</title>
<path fill="none" stroke="#9a32cd" stroke-dasharray="5,2" d="M96.3,-1079.79C208.67,-1110.6 519.39,-1176.29 637,-1000.42 674.09,-944.96 684.32,-724.46 686.17,-675.21"/>
<polygon fill="#9a32cd" stroke="#9a32cd" points="96.94,-1076.33 86.36,-1077.01 95.05,-1083.07 96.94,-1076.33"/>
<text text-anchor="middle" x="401" y="-1120.42" font-family="Helvetica,sans-Serif" font-size="10.00"> menu</text>
</g>
<!-- Node5&#45;&gt;Node3 -->
<g id="edge4" class="edge">
<title>Node5&#45;&gt;Node3</title>
<path fill="none" stroke="#9a32cd" stroke-dasharray="5,2" d="M78.81,-1052.22C111.69,-1030.54 171.81,-988.35 215,-943.42 242.24,-915.08 267.15,-875.25 277.9,-857.11"/>
<polygon fill="#9a32cd" stroke="#9a32cd" points="76.76,-1049.38 70.29,-1057.78 80.58,-1055.24 76.76,-1049.38"/>
<text text-anchor="middle" x="170.5" y="-1020.42" font-family="Helvetica,sans-Serif" font-size="10.00"> parent</text>
</g>
<!-- Node6 -->
<g id="node6" class="node">
<title>Node6</title>
<g id="a_node6"><a xlink:title=" ">
<polygon fill="none" stroke="#bfbfbf" points="35,-993.92 35,-1012.92 73,-1012.92 73,-993.92 35,-993.92"/>
<text text-anchor="middle" x="54" y="-1000.92" font-family="Helvetica,sans-Serif" font-size="10.00">char</text>
</a>
</g>
</g>
<!-- Node6&#45;&gt;Node1 -->
<g id="edge14" class="edge">
<title>Node6&#45;&gt;Node1</title>
<path fill="none" stroke="#9a32cd" stroke-dasharray="5,2" d="M82.83,-1012.58C176.92,-1041.59 485.72,-1120.65 637,-963.42 678.09,-920.72 685.21,-721.17 686.31,-674.98"/>
<polygon fill="#9a32cd" stroke="#9a32cd" points="83.76,-1009.2 73.17,-1009.54 81.66,-1015.88 83.76,-1009.2"/>
<text text-anchor="middle" x="401" y="-1060.42" font-family="Helvetica,sans-Serif" font-size="10.00"> playerModel</text>
</g>
<!-- Node6&#45;&gt;Node3 -->
<g id="edge5" class="edge">
<title>Node6&#45;&gt;Node3</title>
<path fill="none" stroke="#9a32cd" stroke-dasharray="5,2" d="M68.58,-985.61C81.67,-969.58 102.86,-946.46 126,-932.42 161.46,-910.92 178.6,-924.28 215,-904.42 238.63,-891.53 261.78,-869.83 274.19,-857.25"/>
<polygon fill="#9a32cd" stroke="#9a32cd" points="65.65,-983.67 62.18,-993.68 71.14,-988.02 65.65,-983.67"/>
<text text-anchor="middle" x="170.5" y="-935.42" font-family="Helvetica,sans-Serif" font-size="10.00"> name</text>
</g>
<!-- Node6&#45;&gt;Node9 -->
<g id="edge11" class="edge">
<title>Node6&#45;&gt;Node9</title>
<path fill="none" stroke="#9a32cd" stroke-dasharray="5,2" d="M83.25,-1001.3C115.67,-998.3 170.14,-991.53 215,-977.42 324.61,-942.97 380.15,-958.15 448,-865.42 481.67,-819.42 447.04,-792.19 466,-738.42 474.64,-713.94 491.96,-688.62 501.94,-675.18"/>
<polygon fill="#9a32cd" stroke="#9a32cd" points="82.81,-997.82 73.15,-1002.18 83.41,-1004.8 82.81,-997.82"/>
<text text-anchor="middle" x="284.5" y="-984.42" font-family="Helvetica,sans-Serif" font-size="10.00"> errorpic</text>
<text text-anchor="middle" x="284.5" y="-973.42" font-family="Helvetica,sans-Serif" font-size="10.00">focuspic</text>
</g>
<!-- Node6&#45;&gt;Node11 -->
<g id="edge19" class="edge">
<title>Node6&#45;&gt;Node11</title>
<path fill="none" stroke="#9a32cd" stroke-dasharray="5,2" d="M83.5,-1005.7C165.13,-1011.53 397.15,-1023.24 448,-972.42 470.03,-950.41 456.07,-862.95 466,-833.42 474.62,-807.77 492.29,-781.05 502.25,-767.15"/>
<polygon fill="#9a32cd" stroke="#9a32cd" points="83.68,-1002.2 73.45,-1004.95 83.16,-1009.18 83.68,-1002.2"/>
<text text-anchor="middle" x="284.5" y="-1013.42" font-family="Helvetica,sans-Serif" font-size="10.00"> string</text>
</g>
<!-- Node7 -->
<g id="node7" class="node">
<title>Node7</title>
<g id="a_node7"><a xlink:title=" ">
<polygon fill="none" stroke="#bfbfbf" points="39.5,-574.92 39.5,-593.92 68.5,-593.92 68.5,-574.92 39.5,-574.92"/>
<text text-anchor="middle" x="54" y="-581.92" font-family="Helvetica,sans-Serif" font-size="10.00">int</text>
</a>
</g>
</g>
<!-- Node7&#45;&gt;Node1 -->
<g id="edge21" class="edge">
<title>Node7&#45;&gt;Node1</title>
<path fill="none" stroke="#9a32cd" stroke-dasharray="5,2" d="M78.61,-578.62C112.52,-570.6 177.08,-556.56 233,-551.42 278.59,-547.23 290.79,-544.26 336,-551.42 464.93,-571.86 610.95,-632.12 664.95,-655.75"/>
<polygon fill="#9a32cd" stroke="#9a32cd" points="77.64,-575.25 68.73,-580.99 79.27,-582.06 77.64,-575.25"/>
<text text-anchor="middle" x="401" y="-612.42" font-family="Helvetica,sans-Serif" font-size="10.00"> playerLegs</text>
<text text-anchor="middle" x="401" y="-601.42" font-family="Helvetica,sans-Serif" font-size="10.00">section</text>
<text text-anchor="middle" x="401" y="-590.42" font-family="Helvetica,sans-Serif" font-size="10.00">playerWeapon</text>
<text text-anchor="middle" x="401" y="-579.42" font-family="Helvetica,sans-Serif" font-size="10.00">playerTorso</text>
</g>
<!-- Node7&#45;&gt;Node3 -->
<g id="edge6" class="edge">
<title>Node7&#45;&gt;Node3</title>
<path fill="none" stroke="#9a32cd" stroke-dasharray="5,2" d="M62.6,-603.25C73.39,-627.87 95.29,-670.95 126,-697.42 158.71,-725.62 183.7,-706.67 215,-736.42 227.97,-748.75 223.99,-756.97 233,-772.42 247.08,-796.56 265.99,-823.39 276.21,-837.5"/>
<polygon fill="#9a32cd" stroke="#9a32cd" points="65.78,-601.79 58.67,-593.94 59.33,-604.51 65.78,-601.79"/>
<text text-anchor="middle" x="170.5" y="-827.42" font-family="Helvetica,sans-Serif" font-size="10.00"> x</text>
<text text-anchor="middle" x="170.5" y="-816.42" font-family="Helvetica,sans-Serif" font-size="10.00">y</text>
<text text-anchor="middle" x="170.5" y="-805.42" font-family="Helvetica,sans-Serif" font-size="10.00">menuPosition</text>
<text text-anchor="middle" x="170.5" y="-794.42" font-family="Helvetica,sans-Serif" font-size="10.00">right</text>
<text text-anchor="middle" x="170.5" y="-783.42" font-family="Helvetica,sans-Serif" font-size="10.00">left</text>
<text text-anchor="middle" x="170.5" y="-772.42" font-family="Helvetica,sans-Serif" font-size="10.00">bottom</text>
<text text-anchor="middle" x="170.5" y="-761.42" font-family="Helvetica,sans-Serif" font-size="10.00">type</text>
<text text-anchor="middle" x="170.5" y="-750.42" font-family="Helvetica,sans-Serif" font-size="10.00">id</text>
<text text-anchor="middle" x="170.5" y="-739.42" font-family="Helvetica,sans-Serif" font-size="10.00">top</text>
</g>
<!-- Node7&#45;&gt;Node9 -->
<g id="edge12" class="edge">
<title>Node7&#45;&gt;Node9</title>
<path fill="none" stroke="#9a32cd" stroke-dasharray="5,2" d="M78.55,-588.62C151.01,-601.53 371.36,-640.8 465.78,-657.63"/>
<polygon fill="#9a32cd" stroke="#9a32cd" points="79.06,-585.16 68.6,-586.85 77.83,-592.05 79.06,-585.16"/>
<text text-anchor="middle" x="284.5" y="-670.42" font-family="Helvetica,sans-Serif" font-size="10.00"> width</text>
<text text-anchor="middle" x="284.5" y="-659.42" font-family="Helvetica,sans-Serif" font-size="10.00">shader</text>
<text text-anchor="middle" x="284.5" y="-648.42" font-family="Helvetica,sans-Serif" font-size="10.00">height</text>
<text text-anchor="middle" x="284.5" y="-637.42" font-family="Helvetica,sans-Serif" font-size="10.00">focusshader</text>
</g>
<!-- Node7&#45;&gt;Node11 -->
<g id="edge20" class="edge">
<title>Node7&#45;&gt;Node11</title>
<path fill="none" stroke="#9a32cd" stroke-dasharray="5,2" d="M65.39,-602.96C77.48,-622.9 99.24,-654.18 126,-672.42 160.26,-695.78 181.39,-676.14 215,-700.42 226.1,-708.44 221.19,-718.49 233,-725.42 309.26,-770.21 417.78,-767.32 473.47,-762.03"/>
<polygon fill="#9a32cd" stroke="#9a32cd" points="68.33,-601.05 60.25,-594.19 62.29,-604.59 68.33,-601.05"/>
<text text-anchor="middle" x="284.5" y="-761.42" font-family="Helvetica,sans-Serif" font-size="10.00"> style</text>
</g>
<!-- Node13 -->
<g id="node13" class="node">
<title>Node13</title>
<g id="a_node13"><a xlink:href="../../de/d61/structplayerInfo__t.html" target="_top" xlink:title=" ">
<polygon fill="none" stroke="black" points="473,-256.92 473,-275.92 548,-275.92 548,-256.92 473,-256.92"/>
<text text-anchor="middle" x="510.5" y="-263.92" font-family="Helvetica,sans-Serif" font-size="10.00">playerInfo_t</text>
</a>
</g>
</g>
<!-- Node7&#45;&gt;Node13 -->
<g id="edge27" class="edge">
<title>Node7&#45;&gt;Node13</title>
<path fill="none" stroke="#9a32cd" stroke-dasharray="5,2" d="M71.78,-567.87C85.59,-554.79 106.06,-536.62 126,-523.42 162.8,-499.08 187.58,-513.99 215,-479.42 236.84,-451.89 208.57,-427.69 233,-402.42 301.79,-331.27 365.39,-398.94 448,-344.42 475.2,-326.47 495.76,-292.51 504.66,-275.97"/>
<polygon fill="#9a32cd" stroke="#9a32cd" points="69.26,-565.44 64.48,-574.9 74.11,-570.49 69.26,-565.44"/>
<text text-anchor="middle" x="284.5" y="-515.42" font-family="Helvetica,sans-Serif" font-size="10.00"> pendingLegsAnim</text>
<text text-anchor="middle" x="284.5" y="-504.42" font-family="Helvetica,sans-Serif" font-size="10.00">torsoModel</text>
<text text-anchor="middle" x="284.5" y="-493.42" font-family="Helvetica,sans-Serif" font-size="10.00">legsSkin</text>
<text text-anchor="middle" x="284.5" y="-482.42" font-family="Helvetica,sans-Serif" font-size="10.00">torsoAnim</text>
<text text-anchor="middle" x="284.5" y="-471.42" font-family="Helvetica,sans-Serif" font-size="10.00">weaponModel</text>
<text text-anchor="middle" x="284.5" y="-460.42" font-family="Helvetica,sans-Serif" font-size="10.00">torsoSkin</text>
<text text-anchor="middle" x="284.5" y="-449.42" font-family="Helvetica,sans-Serif" font-size="10.00">barrelTime</text>
<text text-anchor="middle" x="284.5" y="-438.42" font-family="Helvetica,sans-Serif" font-size="10.00">weaponTimer</text>
<text text-anchor="middle" x="284.5" y="-427.42" font-family="Helvetica,sans-Serif" font-size="10.00">headSkin</text>
<text text-anchor="middle" x="284.5" y="-416.42" font-family="Helvetica,sans-Serif" font-size="10.00">headAnimationTimer</text>
<text text-anchor="middle" x="284.5" y="-405.42" font-family="Helvetica,sans-Serif" font-size="10.00">...</text>
</g>
<!-- Node16 -->
<g id="node16" class="node">
<title>Node16</title>
<g id="a_node16"><a xlink:href="../../db/dae/structlerpFrame__t.html" target="_top" xlink:title=" ">
<polygon fill="none" stroke="black" points="247,-137.92 247,-156.92 322,-156.92 322,-137.92 247,-137.92"/>
<text text-anchor="middle" x="284.5" y="-144.92" font-family="Helvetica,sans-Serif" font-size="10.00">lerpFrame_t</text>
</a>
</g>
</g>
<!-- Node7&#45;&gt;Node16 -->
<g id="edge30" class="edge">
<title>Node7&#45;&gt;Node16</title>
<path fill="none" stroke="#9a32cd" stroke-dasharray="5,2" d="M62.78,-565.42C95.15,-486.5 218.11,-188.11 233,-172.42 239.2,-165.9 247.46,-160.83 255.51,-157.02"/>
<polygon fill="#9a32cd" stroke="#9a32cd" points="59.54,-564.09 58.99,-574.67 66.02,-566.75 59.54,-564.09"/>
<text text-anchor="middle" x="170.5" y="-467.42" font-family="Helvetica,sans-Serif" font-size="10.00"> frameTime</text>
<text text-anchor="middle" x="170.5" y="-456.42" font-family="Helvetica,sans-Serif" font-size="10.00">oldFrame</text>
<text text-anchor="middle" x="170.5" y="-445.42" font-family="Helvetica,sans-Serif" font-size="10.00">animationNumber</text>
<text text-anchor="middle" x="170.5" y="-434.42" font-family="Helvetica,sans-Serif" font-size="10.00">frame</text>
<text text-anchor="middle" x="170.5" y="-423.42" font-family="Helvetica,sans-Serif" font-size="10.00">animationTime</text>
<text text-anchor="middle" x="170.5" y="-412.42" font-family="Helvetica,sans-Serif" font-size="10.00">oldFrameTime</text>
</g>
<!-- Node8 -->
<g id="node8" class="node">
<title>Node8</title>
<g id="a_node8"><a xlink:title=" ">
<polygon fill="none" stroke="#bfbfbf" points="23.5,-829.92 23.5,-848.92 84.5,-848.92 84.5,-829.92 23.5,-829.92"/>
<text text-anchor="middle" x="54" y="-836.92" font-family="Helvetica,sans-Serif" font-size="10.00">unsigned</text>
</a>
</g>
</g>
<!-- Node8&#45;&gt;Node3 -->
<g id="edge7" class="edge">
<title>Node8&#45;&gt;Node3</title>
<path fill="none" stroke="#9a32cd" stroke-dasharray="5,2" d="M94.9,-839.57C127.28,-839.84 174.11,-840.55 215,-842.42 221.55,-842.72 228.45,-843.13 235.24,-843.57"/>
<polygon fill="#9a32cd" stroke="#9a32cd" points="94.53,-836.07 84.5,-839.5 94.48,-843.07 94.53,-836.07"/>
<text text-anchor="middle" x="170.5" y="-845.42" font-family="Helvetica,sans-Serif" font-size="10.00"> flags</text>
</g>
<!-- Node9&#45;&gt;Node1 -->
<g id="edge8" class="edge">
<title>Node9&#45;&gt;Node1</title>
<path fill="none" stroke="#9a32cd" stroke-dasharray="5,2" d="M565.31,-665.42C594.66,-665.42 629.97,-665.42 654.89,-665.42"/>
<polygon fill="#9a32cd" stroke="#9a32cd" points="565.21,-661.92 555.21,-665.42 565.21,-668.92 565.21,-661.92"/>
<text text-anchor="middle" x="605" y="-690.42" font-family="Helvetica,sans-Serif" font-size="10.00"> framer</text>
<text text-anchor="middle" x="605" y="-679.42" font-family="Helvetica,sans-Serif" font-size="10.00">framel</text>
<text text-anchor="middle" x="605" y="-668.42" font-family="Helvetica,sans-Serif" font-size="10.00">player</text>
</g>
<!-- Node10 -->
<g id="node10" class="node">
<title>Node10</title>
<g id="a_node10"><a xlink:href="../../d4/dc3/classfloat.html" target="_top" xlink:title=" ">
<polygon fill="none" stroke="black" points="35,-332.92 35,-351.92 73,-351.92 73,-332.92 35,-332.92"/>
<text text-anchor="middle" x="54" y="-339.92" font-family="Helvetica,sans-Serif" font-size="10.00">float</text>
</a>
</g>
</g>
<!-- Node10&#45;&gt;Node1 -->
<g id="edge13" class="edge">
<title>Node10&#45;&gt;Node1</title>
<path fill="none" stroke="#9a32cd" stroke-dasharray="5,2" d="M83.47,-338.99C135.71,-333.87 249.47,-328.28 336,-363.42 503.07,-431.28 646.67,-612.38 679.47,-655.91"/>
<polygon fill="#9a32cd" stroke="#9a32cd" points="82.87,-335.54 73.29,-340.06 83.6,-342.5 82.87,-335.54"/>
<text text-anchor="middle" x="401" y="-439.42" font-family="Helvetica,sans-Serif" font-size="10.00"> playerMoveangles</text>
<text text-anchor="middle" x="401" y="-428.42" font-family="Helvetica,sans-Serif" font-size="10.00">playerViewangles</text>
</g>
<!-- Node10&#45;&gt;Node9 -->
<g id="edge10" class="edge">
<title>Node10&#45;&gt;Node9</title>
<path fill="none" stroke="#9a32cd" stroke-dasharray="5,2" d="M62.36,-361.66C73.11,-387.74 95.23,-434.6 126,-465.42 163.98,-503.46 401.22,-610.99 448,-634.42 462.33,-641.6 478.5,-649.76 490.67,-655.9"/>
<polygon fill="#9a32cd" stroke="#9a32cd" points="65.53,-360.15 58.57,-352.16 59.03,-362.75 65.53,-360.15"/>
<text text-anchor="middle" x="284.5" y="-583.42" font-family="Helvetica,sans-Serif" font-size="10.00"> focuscolor</text>
</g>
<!-- Node10&#45;&gt;Node11 -->
<g id="edge18" class="edge">
<title>Node10&#45;&gt;Node11</title>
<path fill="none" stroke="#9a32cd" stroke-dasharray="5,2" d="M59.08,-362.1C72.4,-421.12 120.43,-597.79 233,-682.42 233.15,-682.54 399.73,-727.68 474.22,-747.87"/>
<polygon fill="#9a32cd" stroke="#9a32cd" points="62.47,-361.24 56.93,-352.21 55.63,-362.73 62.47,-361.24"/>
<text text-anchor="middle" x="284.5" y="-712.42" font-family="Helvetica,sans-Serif" font-size="10.00"> color</text>
</g>
<!-- Node10&#45;&gt;Node13 -->
<g id="edge25" class="edge">
<title>Node10&#45;&gt;Node13</title>
<path fill="none" stroke="#9a32cd" stroke-dasharray="5,2" d="M69.53,-325.23C97.38,-293.76 161.87,-227.91 233,-203.42 329.6,-170.18 451.26,-232.22 493.89,-256.92"/>
<polygon fill="#9a32cd" stroke="#9a32cd" points="66.88,-322.94 62.96,-332.79 72.16,-327.53 66.88,-322.94"/>
<text text-anchor="middle" x="284.5" y="-239.42" font-family="Helvetica,sans-Serif" font-size="10.00"> moveAngles</text>
<text text-anchor="middle" x="284.5" y="-228.42" font-family="Helvetica,sans-Serif" font-size="10.00">viewAngles</text>
<text text-anchor="middle" x="284.5" y="-217.42" font-family="Helvetica,sans-Serif" font-size="10.00">barrelAngle</text>
<text text-anchor="middle" x="284.5" y="-206.42" font-family="Helvetica,sans-Serif" font-size="10.00">flashDlightColor</text>
</g>
<!-- Node10&#45;&gt;Node16 -->
<g id="edge29" class="edge">
<title>Node10&#45;&gt;Node16</title>
<path fill="none" stroke="#9a32cd" stroke-dasharray="5,2" d="M56.61,-322.74C60.79,-285.52 75.51,-205.1 126,-166.42 144.37,-152.36 206.46,-148.57 246.97,-147.63"/>
<polygon fill="#9a32cd" stroke="#9a32cd" points="53.12,-322.51 55.62,-332.81 60.08,-323.2 53.12,-322.51"/>
<text text-anchor="middle" x="170.5" y="-191.42" font-family="Helvetica,sans-Serif" font-size="10.00"> yawAngle</text>
<text text-anchor="middle" x="170.5" y="-180.42" font-family="Helvetica,sans-Serif" font-size="10.00">pitchAngle</text>
<text text-anchor="middle" x="170.5" y="-169.42" font-family="Helvetica,sans-Serif" font-size="10.00">backlerp</text>
</g>
<!-- Node11&#45;&gt;Node1 -->
<g id="edge16" class="edge">
<title>Node11&#45;&gt;Node1</title>
<path fill="none" stroke="#9a32cd" stroke-dasharray="5,2" d="M547.18,-744.32C572.89,-734.28 608.02,-719.31 637,-702.42 650.91,-694.32 665.51,-683.01 675.22,-675.04"/>
<polygon fill="#9a32cd" stroke="#9a32cd" points="545.9,-741.06 537.82,-747.92 548.41,-747.59 545.9,-741.06"/>
<text text-anchor="middle" x="605" y="-791.42" font-family="Helvetica,sans-Serif" font-size="10.00"> controls</text>
<text text-anchor="middle" x="605" y="-780.42" font-family="Helvetica,sans-Serif" font-size="10.00">back</text>
<text text-anchor="middle" x="605" y="-769.42" font-family="Helvetica,sans-Serif" font-size="10.00">general</text>
<text text-anchor="middle" x="605" y="-758.42" font-family="Helvetica,sans-Serif" font-size="10.00">banner</text>
<text text-anchor="middle" x="605" y="-747.42" font-family="Helvetica,sans-Serif" font-size="10.00">name</text>
<text text-anchor="middle" x="605" y="-736.42" font-family="Helvetica,sans-Serif" font-size="10.00">system</text>
</g>
<!-- Node12 -->
<g id="node12" class="node">
<title>Node12</title>
<g id="a_node12"><a xlink:title=" ">
<polygon fill="none" stroke="#bfbfbf" points="23,-43.92 23,-62.92 85,-62.92 85,-43.92 23,-43.92"/>
<text text-anchor="middle" x="54" y="-50.92" font-family="Helvetica,sans-Serif" font-size="10.00">qboolean</text>
</a>
</g>
</g>
<!-- Node12&#45;&gt;Node1 -->
<g id="edge22" class="edge">
<title>Node12&#45;&gt;Node1</title>
<path fill="none" stroke="#9a32cd" stroke-dasharray="5,2" d="M89.22,-40.38C160.69,-15.43 329.02,31.3 448,-31.42 691.95,-160.04 689.1,-585.01 686.9,-655.48"/>
<polygon fill="#9a32cd" stroke="#9a32cd" points="87.64,-37.23 79.4,-43.89 89.99,-43.83 87.64,-37.23"/>
<text text-anchor="middle" x="401" y="-56.42" font-family="Helvetica,sans-Serif" font-size="10.00"> playerChat</text>
<text text-anchor="middle" x="401" y="-45.42" font-family="Helvetica,sans-Serif" font-size="10.00">waitingforkey</text>
<text text-anchor="middle" x="401" y="-34.42" font-family="Helvetica,sans-Serif" font-size="10.00">changesmade</text>
</g>
<!-- Node12&#45;&gt;Node13 -->
<g id="edge33" class="edge">
<title>Node12&#45;&gt;Node13</title>
<path fill="none" stroke="#9a32cd" stroke-dasharray="5,2" d="M95.4,-48.64C150.85,-43.42 253.13,-38.69 336,-62.42 391.33,-78.27 409.59,-84.57 448,-127.42 484.11,-167.71 501.82,-232.61 507.45,-256.87"/>
<polygon fill="#9a32cd" stroke="#9a32cd" points="94.88,-45.17 85.27,-49.64 95.57,-52.14 94.88,-45.17"/>
<text text-anchor="middle" x="284.5" y="-120.42" font-family="Helvetica,sans-Serif" font-size="10.00"> fixedtorso</text>
<text text-anchor="middle" x="284.5" y="-109.42" font-family="Helvetica,sans-Serif" font-size="10.00">barrelSpinning</text>
<text text-anchor="middle" x="284.5" y="-98.42" font-family="Helvetica,sans-Serif" font-size="10.00">fixedlegs</text>
<text text-anchor="middle" x="284.5" y="-87.42" font-family="Helvetica,sans-Serif" font-size="10.00">chat</text>
<text text-anchor="middle" x="284.5" y="-76.42" font-family="Helvetica,sans-Serif" font-size="10.00">overrideHead</text>
<text text-anchor="middle" x="284.5" y="-65.42" font-family="Helvetica,sans-Serif" font-size="10.00">newModel</text>
</g>
<!-- Node12&#45;&gt;Node16 -->
<g id="edge32" class="edge">
<title>Node12&#45;&gt;Node16</title>
<path fill="none" stroke="#9a32cd" stroke-dasharray="5,2" d="M95.08,-59.8C129.06,-66.58 178.04,-79.71 215,-103.42 225.07,-109.88 223.41,-116.27 233,-123.42 240.7,-129.17 250,-134.06 258.51,-137.9"/>
<polygon fill="#9a32cd" stroke="#9a32cd" points="95.52,-56.32 85.04,-57.89 94.21,-63.2 95.52,-56.32"/>
<text text-anchor="middle" x="170.5" y="-117.42" font-family="Helvetica,sans-Serif" font-size="10.00"> yawing</text>
<text text-anchor="middle" x="170.5" y="-106.42" font-family="Helvetica,sans-Serif" font-size="10.00">pitching</text>
</g>
<!-- Node13&#45;&gt;Node1 -->
<g id="edge23" class="edge">
<title>Node13&#45;&gt;Node1</title>
<path fill="none" stroke="#9a32cd" stroke-dasharray="5,2" d="M535.18,-281.52C564.2,-301.37 612.53,-339.12 637,-384.42 688.68,-480.09 688.13,-618.29 686.92,-655.75"/>
<polygon fill="#9a32cd" stroke="#9a32cd" points="537.1,-278.59 526.84,-275.94 533.21,-284.41 537.1,-278.59"/>
<text text-anchor="middle" x="605" y="-387.42" font-family="Helvetica,sans-Serif" font-size="10.00"> playerinfo</text>
</g>
<!-- Node14 -->
<g id="node14" class="node">
<title>Node14</title>
<g id="a_node14"><a xlink:title=" ">
<polygon fill="none" stroke="#bfbfbf" points="252.5,-294.92 252.5,-313.92 316.5,-313.92 316.5,-294.92 252.5,-294.92"/>
<text text-anchor="middle" x="284.5" y="-301.92" font-family="Helvetica,sans-Serif" font-size="10.00">weapon_t</text>
</a>
</g>
</g>
<!-- Node14&#45;&gt;Node13 -->
<g id="edge24" class="edge">
<title>Node14&#45;&gt;Node13</title>
<path fill="none" stroke="#9a32cd" stroke-dasharray="5,2" d="M326.67,-299.74C359.63,-295.71 406.97,-289.31 448,-281.42 456.09,-279.87 464.72,-277.94 472.88,-275.98"/>
<polygon fill="#9a32cd" stroke="#9a32cd" points="326.01,-296.29 316.5,-300.96 326.85,-303.24 326.01,-296.29"/>
<text text-anchor="middle" x="401" y="-332.42" font-family="Helvetica,sans-Serif" font-size="10.00"> pendingWeapon</text>
<text text-anchor="middle" x="401" y="-321.42" font-family="Helvetica,sans-Serif" font-size="10.00">currentWeapon</text>
<text text-anchor="middle" x="401" y="-310.42" font-family="Helvetica,sans-Serif" font-size="10.00">lastWeapon</text>
<text text-anchor="middle" x="401" y="-299.42" font-family="Helvetica,sans-Serif" font-size="10.00">weapon</text>
</g>
<!-- Node15 -->
<g id="node15" class="node">
<title>Node15</title>
<g id="a_node15"><a xlink:title=" ">
<polygon fill="none" stroke="#bfbfbf" points="247,-256.92 247,-275.92 322,-275.92 322,-256.92 247,-256.92"/>
<text text-anchor="middle" x="284.5" y="-263.92" font-family="Helvetica,sans-Serif" font-size="10.00">animation_t</text>
</a>
</g>
</g>
<!-- Node15&#45;&gt;Node13 -->
<g id="edge26" class="edge">
<title>Node15&#45;&gt;Node13</title>
<path fill="none" stroke="#9a32cd" stroke-dasharray="5,2" d="M332.69,-266.42C374.46,-266.42 434.57,-266.42 472.83,-266.42"/>
<polygon fill="#9a32cd" stroke="#9a32cd" points="332.49,-262.92 322.49,-266.42 332.49,-269.92 332.49,-262.92"/>
<text text-anchor="middle" x="401" y="-269.42" font-family="Helvetica,sans-Serif" font-size="10.00"> animations</text>
</g>
<!-- Node16&#45;&gt;Node13 -->
<g id="edge28" class="edge">
<title>Node16&#45;&gt;Node13</title>
<path fill="none" stroke="#9a32cd" stroke-dasharray="5,2" d="M328.89,-135.82C363.66,-129.1 412.36,-125.73 448,-147.42 488.52,-172.1 503.52,-233.01 507.93,-256.74"/>
<polygon fill="#9a32cd" stroke="#9a32cd" points="328.1,-132.41 319.03,-137.88 329.53,-139.26 328.1,-132.41"/>
<text text-anchor="middle" x="401" y="-172.42" font-family="Helvetica,sans-Serif" font-size="10.00"> head</text>
<text text-anchor="middle" x="401" y="-161.42" font-family="Helvetica,sans-Serif" font-size="10.00">legs</text>
<text text-anchor="middle" x="401" y="-150.42" font-family="Helvetica,sans-Serif" font-size="10.00">torso</text>
</g>
<!-- Node17 -->
<g id="node17" class="node">
<title>Node17</title>
<g id="a_node17"><a xlink:title=" ">
<polygon fill="none" stroke="#bfbfbf" points="12.5,-121.92 12.5,-140.92 95.5,-140.92 95.5,-121.92 12.5,-121.92"/>
<text text-anchor="middle" x="54" y="-128.92" font-family="Helvetica,sans-Serif" font-size="10.00">animation_t *</text>
</a>
</g>
</g>
<!-- Node17&#45;&gt;Node16 -->
<g id="edge31" class="edge">
<title>Node17&#45;&gt;Node16</title>
<path fill="none" stroke="#9a32cd" stroke-dasharray="5,2" d="M105.87,-129.04C137.4,-128.23 178.66,-128.38 215,-132.42 225.41,-133.58 236.55,-135.66 246.76,-137.9"/>
<polygon fill="#9a32cd" stroke="#9a32cd" points="105.47,-125.55 95.58,-129.34 105.68,-132.54 105.47,-125.55"/>
<text text-anchor="middle" x="170.5" y="-135.42" font-family="Helvetica,sans-Serif" font-size="10.00"> animation</text>
</g>
</g>
</svg>
        <g id="navigator" transform="translate(0 0)" fill="#404254">
                <rect fill="#f2f5e9" fill-opacity="0.5" stroke="#606060" stroke-width=".5" x="0" y="0" width="60" height="60"/>
                <use id="zoomplus" xlink:href="#zoomPlus" x="17" y="9" onmousedown="handleZoom(evt,'in')"/>
                <use id="zoomminus" xlink:href="#zoomMin" x="42" y="9" onmousedown="handleZoom(evt,'out')"/>
                <use id="reset" xlink:href="#resetDef" x="30" y="36" onmousedown="handleReset()"/>
                <g id="arrowUp" xlink:href="#dirArrow" transform="translate(30 24)" onmousedown="handlePan(0,-1)">
                  <use xlink:href="#rim" fill="#404040">
                        <set attributeName="fill" to="#808080" begin="arrowUp.mouseover" end="arrowUp.mouseout"/>
                  </use>
                  <path fill="none" stroke="white" stroke-width="1.5" d="M0,-3.0v7 M-2.5,-0.5L0,-3.0L2.5,-0.5"/>
                </g>
                <g id="arrowRight" xlink:href="#dirArrow" transform="rotate(90) translate(36 -43)" onmousedown="handlePan(1,0)">
                  <use xlink:href="#rim" fill="#404040">
                        <set attributeName="fill" to="#808080" begin="arrowRight.mouseover" end="arrowRight.mouseout"/>
                  </use>
                  <path fill="none" stroke="white" stroke-width="1.5" d="M0,-3.0v7 M-2.5,-0.5L0,-3.0L2.5,-0.5"/>
                </g>
                <g id="arrowDown" xlink:href="#dirArrow" transform="rotate(180) translate(-30 -48)" onmousedown="handlePan(0,1)">
                  <use xlink:href="#rim" fill="#404040">
                        <set attributeName="fill" to="#808080" begin="arrowDown.mouseover" end="arrowDown.mouseout"/>
                  </use>
                  <path fill="none" stroke="white" stroke-width="1.5" d="M0,-3.0v7 M-2.5,-0.5L0,-3.0L2.5,-0.5"/>
                </g>
                <g id="arrowLeft" xlink:href="#dirArrow" transform="rotate(270) translate(-36 17)" onmousedown="handlePan(-1,0)">
                  <use xlink:href="#rim" fill="#404040">
                        <set attributeName="fill" to="#808080" begin="arrowLeft.mouseover" end="arrowLeft.mouseout"/>
                  </use>
                  <path fill="none" stroke="white" stroke-width="1.5" d="M0,-3.0v7 M-2.5,-0.5L0,-3.0L2.5,-0.5"/>
                </g>
        </g>
        <svg viewBox="0 0 15 15" width="100%" height="30px" preserveAspectRatio="xMaxYMin meet">
         <g id="arrow_out" transform="scale(0.3 0.3)">
          <a xlink:href="structcontrols__t__coll__graph_org.svg" target="_base">
           <rect id="button" ry="5" rx="5" y="6" x="6" height="38" width="38"
                fill="#f2f5e9" fill-opacity="0.5" stroke="#606060" stroke-width="1.0"/>
           <path id="arrow"
             d="M 11.500037,31.436501 C 11.940474,20.09759 22.043105,11.32322 32.158766,21.979434 L 37.068811,17.246167 C 37.068811,17.246167 37.088388,32 37.088388,32 L 22.160133,31.978069 C 22.160133,31.978069 26.997745,27.140456 26.997745,27.140456 C 18.528582,18.264221 13.291696,25.230495 11.500037,31.436501 z"
             style="fill:#404040;"/>
          </a>
         </g>
        </svg>
</svg>
