<?xml version="1.0" encoding="UTF-8" standalone="no"?>
<!DOCTYPE svg PUBLIC "-//W3C//DTD SVG 1.1//EN"
 "http://www.w3.org/Graphics/SVG/1.1/DTD/svg11.dtd">
<!-- Generated by graphviz version 2.43.0 (0)
 -->
<!-- Title: arith_entropy_encoder Pages: 1 -->
<svg width="401pt" height="139pt"
 viewBox="0.00 0.00 400.50 139.00" xmlns="http://www.w3.org/2000/svg" xmlns:xlink="http://www.w3.org/1999/xlink">
<g id="graph0" class="graph" transform="scale(1 1) rotate(0) translate(4 135)">
<title>arith_entropy_encoder</title>
<!-- Node1 -->
<g id="node1" class="node">
<title>Node1</title>
<g id="a_node1"><a xlink:title=" ">
<polygon fill="#bfbfbf" stroke="black" points="149.5,-0.5 149.5,-19.5 275.5,-19.5 275.5,-0.5 149.5,-0.5"/>
<text text-anchor="middle" x="212.5" y="-7.5" font-family="Helvetica,sans-Serif" font-size="10.00">arith_entropy_encoder</text>
</a>
</g>
</g>
<!-- Node2 -->
<g id="node2" class="node">
<title>Node2</title>
<g id="a_node2"><a xlink:href="../../d1/d8a/structjpeg__entropy__encoder.html" target="_top" xlink:title=" ">
<polygon fill="none" stroke="black" points="0,-111.5 0,-130.5 125,-130.5 125,-111.5 0,-111.5"/>
<text text-anchor="middle" x="62.5" y="-118.5" font-family="Helvetica,sans-Serif" font-size="10.00">jpeg_entropy_encoder</text>
</a>
</g>
</g>
<!-- Node2&#45;&gt;Node1 -->
<g id="edge1" class="edge">
<title>Node2&#45;&gt;Node1</title>
<path fill="none" stroke="#9a32cd" stroke-dasharray="5,2" d="M71.17,-102.48C81.26,-83.84 99.63,-54.78 123.5,-38 135.65,-29.46 150.56,-23.56 164.68,-19.52"/>
<polygon fill="#9a32cd" stroke="#9a32cd" points="68.04,-100.9 66.55,-111.38 74.26,-104.12 68.04,-100.9"/>
<text text-anchor="middle" x="134.5" y="-63" font-family="Helvetica,sans-Serif" font-size="10.00"> pub</text>
</g>
<!-- Node3 -->
<g id="node3" class="node">
<title>Node3</title>
<g id="a_node3"><a xlink:title=" ">
<polygon fill="none" stroke="#bfbfbf" points="143,-111.5 143,-130.5 172,-130.5 172,-111.5 143,-111.5"/>
<text text-anchor="middle" x="157.5" y="-118.5" font-family="Helvetica,sans-Serif" font-size="10.00">int</text>
</a>
</g>
</g>
<!-- Node3&#45;&gt;Node1 -->
<g id="edge2" class="edge">
<title>Node3&#45;&gt;Node1</title>
<path fill="none" stroke="#9a32cd" stroke-dasharray="5,2" d="M152.54,-101.34C148.96,-83.64 146.6,-56.99 158.5,-38 163.79,-29.56 172.59,-23.67 181.56,-19.59"/>
<polygon fill="#9a32cd" stroke="#9a32cd" points="149.18,-102.34 154.87,-111.28 155.99,-100.75 149.18,-102.34"/>
<text text-anchor="middle" x="202" y="-85" font-family="Helvetica,sans-Serif" font-size="10.00"> ct</text>
<text text-anchor="middle" x="202" y="-74" font-family="Helvetica,sans-Serif" font-size="10.00">dc_context</text>
<text text-anchor="middle" x="202" y="-63" font-family="Helvetica,sans-Serif" font-size="10.00">last_dc_val</text>
<text text-anchor="middle" x="202" y="-52" font-family="Helvetica,sans-Serif" font-size="10.00">buffer</text>
<text text-anchor="middle" x="202" y="-41" font-family="Helvetica,sans-Serif" font-size="10.00">next_restart_num</text>
</g>
<!-- Node4 -->
<g id="node4" class="node">
<title>Node4</title>
<g id="a_node4"><a xlink:title=" ">
<polygon fill="none" stroke="#bfbfbf" points="248.5,-111.5 248.5,-130.5 286.5,-130.5 286.5,-111.5 248.5,-111.5"/>
<text text-anchor="middle" x="267.5" y="-118.5" font-family="Helvetica,sans-Serif" font-size="10.00">long</text>
</a>
</g>
</g>
<!-- Node4&#45;&gt;Node1 -->
<g id="edge3" class="edge">
<title>Node4&#45;&gt;Node1</title>
<path fill="none" stroke="#9a32cd" stroke-dasharray="5,2" d="M265.79,-101.31C263.46,-83.77 258.03,-57.4 245.5,-38 240.76,-30.66 233.38,-24.35 226.8,-19.68"/>
<polygon fill="#9a32cd" stroke="#9a32cd" points="262.33,-101.85 266.92,-111.4 269.29,-101.07 262.33,-101.85"/>
<text text-anchor="middle" x="271.5" y="-79.5" font-family="Helvetica,sans-Serif" font-size="10.00"> sc</text>
<text text-anchor="middle" x="271.5" y="-68.5" font-family="Helvetica,sans-Serif" font-size="10.00">zc</text>
<text text-anchor="middle" x="271.5" y="-57.5" font-family="Helvetica,sans-Serif" font-size="10.00">a</text>
<text text-anchor="middle" x="271.5" y="-46.5" font-family="Helvetica,sans-Serif" font-size="10.00">c</text>
</g>
<!-- Node5 -->
<g id="node5" class="node">
<title>Node5</title>
<g id="a_node5"><a xlink:title=" ">
<polygon fill="none" stroke="#bfbfbf" points="305,-111.5 305,-130.5 366,-130.5 366,-111.5 305,-111.5"/>
<text text-anchor="middle" x="335.5" y="-118.5" font-family="Helvetica,sans-Serif" font-size="10.00">unsigned</text>
</a>
</g>
</g>
<!-- Node5&#45;&gt;Node1 -->
<g id="edge4" class="edge">
<title>Node5&#45;&gt;Node1</title>
<path fill="none" stroke="#9a32cd" stroke-dasharray="5,2" d="M327.94,-101.99C319.39,-83.59 303.82,-55.33 282.5,-38 272.29,-29.7 259.24,-23.75 247.18,-19.58"/>
<polygon fill="#9a32cd" stroke="#9a32cd" points="324.81,-103.57 332.06,-111.3 331.22,-100.73 324.81,-103.57"/>
<text text-anchor="middle" x="357.5" y="-79.5" font-family="Helvetica,sans-Serif" font-size="10.00"> dc_stats</text>
<text text-anchor="middle" x="357.5" y="-68.5" font-family="Helvetica,sans-Serif" font-size="10.00">ac_stats</text>
<text text-anchor="middle" x="357.5" y="-57.5" font-family="Helvetica,sans-Serif" font-size="10.00">restarts_to_go</text>
<text text-anchor="middle" x="357.5" y="-46.5" font-family="Helvetica,sans-Serif" font-size="10.00">fixed_bin</text>
</g>
</g>
</svg>
