<?xml version="1.0" encoding="UTF-8" standalone="no"?>
<!DOCTYPE svg PUBLIC "-//W3C//DTD SVG 1.1//EN"
 "http://www.w3.org/Graphics/SVG/1.1/DTD/svg11.dtd">
<!-- Generated by graphviz version 2.43.0 (0)
 -->
<!-- Title: __gnu_pbds::detail::PB_DS_OV_TREE_CLASS_NAME&lt; Key, Mapped, Cmp_Fn, Node_And_It_Traits, Allocator &gt; Pages: 1 -->
<svg width="430pt" height="339pt"
 viewBox="0.00 0.00 430.00 339.00" xmlns="http://www.w3.org/2000/svg" xmlns:xlink="http://www.w3.org/1999/xlink">
<g id="graph0" class="graph" transform="scale(1 1) rotate(0) translate(4 335)">
<title>__gnu_pbds::detail::PB_DS_OV_TREE_CLASS_NAME&lt; Key, Mapped, Cmp_Fn, Node_And_It_Traits, Allocator &gt;</title>
<!-- Node1 -->
<g id="node1" class="node">
<title>Node1</title>
<g id="a_node1"><a xlink:title=" ">
<polygon fill="#bfbfbf" stroke="black" points="268,-118.5 268,-181.5 422,-181.5 422,-118.5 268,-118.5"/>
<text text-anchor="start" x="276" y="-169.5" font-family="Helvetica,sans-Serif" font-size="10.00">__gnu_pbds::detail</text>
<text text-anchor="start" x="276" y="-158.5" font-family="Helvetica,sans-Serif" font-size="10.00">::PB_DS_OV_TREE_CLASS</text>
<text text-anchor="start" x="276" y="-147.5" font-family="Helvetica,sans-Serif" font-size="10.00">_NAME&lt; Key, Mapped, Cmp</text>
<text text-anchor="start" x="276" y="-136.5" font-family="Helvetica,sans-Serif" font-size="10.00">_Fn, Node_And_It_Traits,</text>
<text text-anchor="middle" x="345" y="-125.5" font-family="Helvetica,sans-Serif" font-size="10.00"> Allocator &gt;</text>
</a>
</g>
</g>
<!-- Node2 -->
<g id="node2" class="node">
<title>Node2</title>
<g id="a_node2"><a xlink:href="../../df/dde/classCmp__Fn.html" target="_top" xlink:title=" ">
<polygon fill="none" stroke="black" points="43,-311.5 43,-330.5 99,-330.5 99,-311.5 43,-311.5"/>
<text text-anchor="middle" x="71" y="-318.5" font-family="Helvetica,sans-Serif" font-size="10.00">Cmp_Fn</text>
</a>
</g>
</g>
<!-- Node2&#45;&gt;Node1 -->
<g id="edge1" class="edge">
<title>Node2&#45;&gt;Node1</title>
<path fill="none" stroke="midnightblue" d="M109.07,-312.67C119.86,-309.79 131.55,-306.2 142,-302 192.74,-281.58 206.13,-275.66 250,-243 274.31,-224.9 298.54,-200.74 316.31,-181.58"/>
<polygon fill="midnightblue" stroke="midnightblue" points="107.9,-309.36 99.08,-315.22 109.63,-316.14 107.9,-309.36"/>
</g>
<!-- Node3 -->
<g id="node3" class="node">
<title>Node3</title>
<g id="a_node3"><a xlink:title=" ">
<polygon fill="none" stroke="#bfbfbf" points="16,-262 16,-292 126,-292 126,-262 16,-262"/>
<text text-anchor="start" x="24" y="-280" font-family="Helvetica,sans-Serif" font-size="10.00">Node_And_It_Traits</text>
<text text-anchor="middle" x="71" y="-269" font-family="Helvetica,sans-Serif" font-size="10.00">::node_update</text>
</a>
</g>
</g>
<!-- Node3&#45;&gt;Node1 -->
<g id="edge2" class="edge">
<title>Node3&#45;&gt;Node1</title>
<path fill="none" stroke="midnightblue" d="M126.14,-258.63C131.5,-256.75 136.86,-254.85 142,-253 190.29,-235.56 204.29,-235.39 250,-212 267.06,-203.27 284.83,-192.14 300.27,-181.73"/>
<polygon fill="midnightblue" stroke="midnightblue" points="124.81,-255.39 116.51,-261.98 127.11,-262 124.81,-255.39"/>
</g>
<!-- Node4 -->
<g id="node4" class="node">
<title>Node4</title>
<g id="a_node4"><a xlink:href="../../d0/d36/classPB__DS__TYPES__TRAITS__C__DEC.html" target="_top" xlink:title=" ">
<polygon fill="none" stroke="black" points="9.5,-213 9.5,-243 132.5,-243 132.5,-213 9.5,-213"/>
<text text-anchor="start" x="17.5" y="-231" font-family="Helvetica,sans-Serif" font-size="10.00">PB_DS_TYPES_TRAITS</text>
<text text-anchor="middle" x="71" y="-220" font-family="Helvetica,sans-Serif" font-size="10.00">_C_DEC</text>
</a>
</g>
</g>
<!-- Node4&#45;&gt;Node1 -->
<g id="edge3" class="edge">
<title>Node4&#45;&gt;Node1</title>
<path fill="none" stroke="midnightblue" d="M142.73,-214.23C175.65,-207.19 215.14,-197.81 250,-187 255.86,-185.18 261.88,-183.17 267.9,-181.05"/>
<polygon fill="midnightblue" stroke="midnightblue" points="141.8,-210.85 132.74,-216.35 143.25,-217.7 141.8,-210.85"/>
</g>
<!-- Node5 -->
<g id="node5" class="node">
<title>Node5</title>
<g id="a_node5"><a xlink:title=" ">
<polygon fill="none" stroke="#bfbfbf" points="10,-174.5 10,-193.5 132,-193.5 132,-174.5 10,-174.5"/>
<text text-anchor="middle" x="71" y="-181.5" font-family="Helvetica,sans-Serif" font-size="10.00">static value_allocator</text>
</a>
</g>
</g>
<!-- Node5&#45;&gt;Node1 -->
<g id="edge4" class="edge">
<title>Node5&#45;&gt;Node1</title>
<path fill="none" stroke="#9a32cd" stroke-dasharray="5,2" d="M142.1,-175.4C174.88,-171.36 214.44,-166.47 250,-162 255.79,-161.27 261.79,-160.52 267.82,-159.75"/>
<polygon fill="#9a32cd" stroke="#9a32cd" points="141.65,-171.93 132.15,-176.63 142.51,-178.88 141.65,-171.93"/>
<text text-anchor="middle" x="205" y="-175" font-family="Helvetica,sans-Serif" font-size="10.00"> s_value_alloc</text>
</g>
<!-- Node6 -->
<g id="node6" class="node">
<title>Node6</title>
<g id="a_node6"><a xlink:title=" ">
<polygon fill="none" stroke="#bfbfbf" points="29.5,-136.5 29.5,-155.5 112.5,-155.5 112.5,-136.5 29.5,-136.5"/>
<text text-anchor="middle" x="71" y="-143.5" font-family="Helvetica,sans-Serif" font-size="10.00">point_iterator</text>
</a>
</g>
</g>
<!-- Node6&#45;&gt;Node1 -->
<g id="edge5" class="edge">
<title>Node6&#45;&gt;Node1</title>
<path fill="none" stroke="#9a32cd" stroke-dasharray="5,2" d="M122.97,-146.75C163.79,-147.35 221.67,-148.2 267.96,-148.88"/>
<polygon fill="#9a32cd" stroke="#9a32cd" points="122.77,-143.25 112.72,-146.6 122.67,-150.25 122.77,-143.25"/>
<text text-anchor="middle" x="205" y="-151" font-family="Helvetica,sans-Serif" font-size="10.00"> m_end_it</text>
</g>
<!-- Node7 -->
<g id="node7" class="node">
<title>Node7</title>
<g id="a_node7"><a xlink:title=" ">
<polygon fill="none" stroke="#bfbfbf" points="45.5,-87.5 45.5,-106.5 96.5,-106.5 96.5,-87.5 45.5,-87.5"/>
<text text-anchor="middle" x="71" y="-94.5" font-family="Helvetica,sans-Serif" font-size="10.00">pointer</text>
</a>
</g>
</g>
<!-- Node7&#45;&gt;Node1 -->
<g id="edge6" class="edge">
<title>Node7&#45;&gt;Node1</title>
<path fill="none" stroke="#9a32cd" stroke-dasharray="5,2" d="M106.51,-103.72C146.91,-111.6 215.02,-124.87 267.97,-135.19"/>
<polygon fill="#9a32cd" stroke="#9a32cd" points="107.1,-100.27 96.62,-101.8 105.76,-107.14 107.1,-100.27"/>
<text text-anchor="middle" x="205" y="-134" font-family="Helvetica,sans-Serif" font-size="10.00"> m_a_metadata</text>
</g>
<!-- Node7&#45;&gt;Node1 -->
<g id="edge8" class="edge">
<title>Node7&#45;&gt;Node1</title>
<path fill="none" stroke="#9a32cd" stroke-dasharray="5,2" d="M106.76,-92.85C143.11,-89.6 201.52,-87.47 250,-100 265.39,-103.98 281.05,-110.92 295.06,-118.4"/>
<polygon fill="#9a32cd" stroke="#9a32cd" points="106.28,-89.38 96.67,-93.83 106.96,-96.35 106.28,-89.38"/>
<text text-anchor="middle" x="205" y="-103" font-family="Helvetica,sans-Serif" font-size="10.00"> m_a_values</text>
</g>
<!-- Node8 -->
<g id="node8" class="node">
<title>Node8</title>
<g id="a_node8"><a xlink:title=" ">
<polygon fill="none" stroke="#bfbfbf" points="39.5,-38.5 39.5,-57.5 102.5,-57.5 102.5,-38.5 39.5,-38.5"/>
<text text-anchor="middle" x="71" y="-45.5" font-family="Helvetica,sans-Serif" font-size="10.00">size_type</text>
</a>
</g>
</g>
<!-- Node8&#45;&gt;Node1 -->
<g id="edge7" class="edge">
<title>Node8&#45;&gt;Node1</title>
<path fill="none" stroke="#9a32cd" stroke-dasharray="5,2" d="M113.05,-48.26C150.24,-49.85 205.82,-55.69 250,-75 273.34,-85.2 295.78,-102.71 312.88,-118.25"/>
<polygon fill="#9a32cd" stroke="#9a32cd" points="112.72,-44.74 102.61,-47.9 112.48,-51.74 112.72,-44.74"/>
<text text-anchor="middle" x="205" y="-78" font-family="Helvetica,sans-Serif" font-size="10.00"> m_size</text>
</g>
<!-- Node9 -->
<g id="node9" class="node">
<title>Node9</title>
<g id="a_node9"><a xlink:title=" ">
<polygon fill="none" stroke="#bfbfbf" points="0,-0.5 0,-19.5 142,-19.5 142,-0.5 0,-0.5"/>
<text text-anchor="middle" x="71" y="-7.5" font-family="Helvetica,sans-Serif" font-size="10.00">static metadata_allocator</text>
</a>
</g>
</g>
<!-- Node9&#45;&gt;Node1 -->
<g id="edge9" class="edge">
<title>Node9&#45;&gt;Node1</title>
<path fill="none" stroke="#9a32cd" stroke-dasharray="5,2" d="M152.36,-10.02C184.44,-13.04 220.65,-20.44 250,-37 283.67,-56 310.41,-92.09 326.63,-118.38"/>
<polygon fill="#9a32cd" stroke="#9a32cd" points="152.36,-6.51 142.11,-9.19 151.79,-13.48 152.36,-6.51"/>
<text text-anchor="middle" x="205" y="-40" font-family="Helvetica,sans-Serif" font-size="10.00"> s_metadata_alloc</text>
</g>
</g>
</svg>
