<?xml version="1.0" encoding="UTF-8" standalone="no"?>
<!DOCTYPE svg PUBLIC "-//W3C//DTD SVG 1.1//EN"
 "http://www.w3.org/Graphics/SVG/1.1/DTD/svg11.dtd">
<!-- Generated by graphviz version 2.43.0 (0)
 -->
<!-- Title: _COSERVERINFO Pages: 1 -->
<svg width="311pt" height="106pt"
 viewBox="0.00 0.00 310.50 106.00" xmlns="http://www.w3.org/2000/svg" xmlns:xlink="http://www.w3.org/1999/xlink">
<g id="graph0" class="graph" transform="scale(1 1) rotate(0) translate(4 102)">
<title>_COSERVERINFO</title>
<!-- Node1 -->
<g id="node1" class="node">
<title>Node1</title>
<g id="a_node1"><a xlink:title=" ">
<polygon fill="#bfbfbf" stroke="black" points="104.5,-0.5 104.5,-19.5 202.5,-19.5 202.5,-0.5 104.5,-0.5"/>
<text text-anchor="middle" x="153.5" y="-7.5" font-family="Helvetica,sans-Serif" font-size="10.00">_COSERVERINFO</text>
</a>
</g>
</g>
<!-- Node2 -->
<g id="node2" class="node">
<title>Node2</title>
<g id="a_node2"><a xlink:title=" ">
<polygon fill="none" stroke="#bfbfbf" points="0,-78.5 0,-97.5 91,-97.5 91,-78.5 0,-78.5"/>
<text text-anchor="middle" x="45.5" y="-85.5" font-family="Helvetica,sans-Serif" font-size="10.00">COAUTHINFO *</text>
</a>
</g>
</g>
<!-- Node2&#45;&gt;Node1 -->
<g id="edge1" class="edge">
<title>Node2&#45;&gt;Node1</title>
<path fill="none" stroke="#9a32cd" stroke-dasharray="5,2" d="M60.67,-70.73C70.75,-60.51 84.64,-47.51 98.5,-38 109.11,-30.72 121.98,-24.29 132.6,-19.53"/>
<polygon fill="#9a32cd" stroke="#9a32cd" points="57.89,-68.57 53.48,-78.21 62.93,-73.42 57.89,-68.57"/>
<text text-anchor="middle" x="124" y="-46.5" font-family="Helvetica,sans-Serif" font-size="10.00"> pAuthInfo</text>
</g>
<!-- Node3 -->
<g id="node3" class="node">
<title>Node3</title>
<g id="a_node3"><a xlink:title=" ">
<polygon fill="none" stroke="#bfbfbf" points="109,-78.5 109,-97.5 198,-97.5 198,-78.5 109,-78.5"/>
<text text-anchor="middle" x="153.5" y="-85.5" font-family="Helvetica,sans-Serif" font-size="10.00">unsigned short</text>
</a>
</g>
</g>
<!-- Node3&#45;&gt;Node1 -->
<g id="edge2" class="edge">
<title>Node3&#45;&gt;Node1</title>
<path fill="none" stroke="#9a32cd" stroke-dasharray="5,2" d="M153.5,-68.22C153.5,-52.7 153.5,-31.36 153.5,-19.62"/>
<polygon fill="#9a32cd" stroke="#9a32cd" points="150,-68.28 153.5,-78.28 157,-68.28 150,-68.28"/>
<text text-anchor="middle" x="182.5" y="-46.5" font-family="Helvetica,sans-Serif" font-size="10.00"> pwszName</text>
</g>
<!-- Node4 -->
<g id="node4" class="node">
<title>Node4</title>
<g id="a_node4"><a xlink:title=" ">
<polygon fill="none" stroke="#bfbfbf" points="216,-78.5 216,-97.5 277,-97.5 277,-78.5 216,-78.5"/>
<text text-anchor="middle" x="246.5" y="-85.5" font-family="Helvetica,sans-Serif" font-size="10.00">unsigned</text>
</a>
</g>
</g>
<!-- Node4&#45;&gt;Node1 -->
<g id="edge3" class="edge">
<title>Node4&#45;&gt;Node1</title>
<path fill="none" stroke="#9a32cd" stroke-dasharray="5,2" d="M238.46,-69.03C233.15,-58.83 225.36,-46.45 215.5,-38 206.05,-29.9 193.8,-23.88 182.68,-19.6"/>
<polygon fill="#9a32cd" stroke="#9a32cd" points="235.42,-70.79 242.92,-78.28 241.73,-67.75 235.42,-70.79"/>
<text text-anchor="middle" x="267.5" y="-52" font-family="Helvetica,sans-Serif" font-size="10.00"> dwReserved1</text>
<text text-anchor="middle" x="267.5" y="-41" font-family="Helvetica,sans-Serif" font-size="10.00">dwReserved2</text>
</g>
</g>
</svg>
