<?xml version="1.0" encoding="UTF-8" standalone="no"?>
<!DOCTYPE svg PUBLIC "-//W3C//DTD SVG 1.1//EN"
 "http://www.w3.org/Graphics/SVG/1.1/DTD/svg11.dtd">
<!-- Generated by graphviz version 2.43.0 (0)
 -->
<!-- Title: packetQueue_s Pages: 1 -->
<svg width="250pt" height="206pt"
 viewBox="0.00 0.00 250.00 206.00" xmlns="http://www.w3.org/2000/svg" xmlns:xlink="http://www.w3.org/1999/xlink">
<g id="graph0" class="graph" transform="scale(1 1) rotate(0) translate(4 202)">
<title>packetQueue_s</title>
<!-- Node1 -->
<g id="node1" class="node">
<title>Node1</title>
<g id="a_node1"><a xlink:title=" ">
<polygon fill="#bfbfbf" stroke="black" points="108,-0.5 108,-19.5 199,-19.5 199,-0.5 108,-0.5"/>
<text text-anchor="middle" x="153.5" y="-7.5" font-family="Helvetica,sans-Serif" font-size="10.00">packetQueue_s</text>
</a>
</g>
</g>
<!-- Node1&#45;&gt;Node1 -->
<g id="edge1" class="edge">
<title>Node1&#45;&gt;Node1</title>
<path fill="none" stroke="#9a32cd" stroke-dasharray="5,2" d="M209.33,-15.53C214.06,-14.35 217,-12.5 217,-10 217,-5.99 209.47,-3.68 199.16,-3.05"/>
<polygon fill="#9a32cd" stroke="#9a32cd" points="208.59,-12.1 199.16,-16.95 209.55,-19.04 208.59,-12.1"/>
<text text-anchor="middle" x="229.5" y="-7.5" font-family="Helvetica,sans-Serif" font-size="10.00"> next</text>
</g>
<!-- Node2 -->
<g id="node2" class="node">
<title>Node2</title>
<g id="a_node2"><a xlink:href="../../dc/d06/structnetadr__t.html" target="_top" xlink:title=" ">
<polygon fill="none" stroke="black" points="55,-78.5 55,-97.5 112,-97.5 112,-78.5 55,-78.5"/>
<text text-anchor="middle" x="83.5" y="-85.5" font-family="Helvetica,sans-Serif" font-size="10.00">netadr_t</text>
</a>
</g>
</g>
<!-- Node2&#45;&gt;Node1 -->
<g id="edge2" class="edge">
<title>Node2&#45;&gt;Node1</title>
<path fill="none" stroke="#9a32cd" stroke-dasharray="5,2" d="M98.35,-70.88C112.77,-55.22 134.12,-32.04 145.56,-19.62"/>
<polygon fill="#9a32cd" stroke="#9a32cd" points="95.73,-68.56 91.53,-78.28 100.88,-73.3 95.73,-68.56"/>
<text text-anchor="middle" x="133" y="-46.5" font-family="Helvetica,sans-Serif" font-size="10.00"> to</text>
</g>
<!-- Node3 -->
<g id="node3" class="node">
<title>Node3</title>
<g id="a_node3"><a xlink:title=" ">
<polygon fill="none" stroke="#bfbfbf" points="0,-178.5 0,-197.5 79,-197.5 79,-178.5 0,-178.5"/>
<text text-anchor="middle" x="39.5" y="-185.5" font-family="Helvetica,sans-Serif" font-size="10.00">netadrtype_t</text>
</a>
</g>
</g>
<!-- Node3&#45;&gt;Node2 -->
<g id="edge3" class="edge">
<title>Node3&#45;&gt;Node2</title>
<path fill="none" stroke="#9a32cd" stroke-dasharray="5,2" d="M47.54,-169.1C57.06,-147.89 72.53,-113.44 79.67,-97.54"/>
<polygon fill="#9a32cd" stroke="#9a32cd" points="44.31,-167.75 43.4,-178.3 50.69,-170.61 44.31,-167.75"/>
<text text-anchor="middle" x="83" y="-135.5" font-family="Helvetica,sans-Serif" font-size="10.00"> type</text>
</g>
<!-- Node4 -->
<g id="node4" class="node">
<title>Node4</title>
<g id="a_node4"><a xlink:title=" ">
<polygon fill="none" stroke="#bfbfbf" points="97,-178.5 97,-197.5 158,-197.5 158,-178.5 97,-178.5"/>
<text text-anchor="middle" x="127.5" y="-185.5" font-family="Helvetica,sans-Serif" font-size="10.00">unsigned</text>
</a>
</g>
</g>
<!-- Node4&#45;&gt;Node2 -->
<g id="edge4" class="edge">
<title>Node4&#45;&gt;Node2</title>
<path fill="none" stroke="#9a32cd" stroke-dasharray="5,2" d="M121.04,-168.27C115.81,-153.75 107.95,-133.26 99.5,-116 96.43,-109.74 92.43,-102.99 89.2,-97.8"/>
<polygon fill="#9a32cd" stroke="#9a32cd" points="117.87,-169.79 124.49,-178.06 124.47,-167.47 117.87,-169.79"/>
<text text-anchor="middle" x="140" y="-152" font-family="Helvetica,sans-Serif" font-size="10.00"> port</text>
<text text-anchor="middle" x="140" y="-141" font-family="Helvetica,sans-Serif" font-size="10.00">ip</text>
<text text-anchor="middle" x="140" y="-130" font-family="Helvetica,sans-Serif" font-size="10.00">ip6</text>
<text text-anchor="middle" x="140" y="-119" font-family="Helvetica,sans-Serif" font-size="10.00">scope_id</text>
</g>
<!-- Node5 -->
<g id="node5" class="node">
<title>Node5</title>
<g id="a_node5"><a xlink:title=" ">
<polygon fill="none" stroke="#bfbfbf" points="130,-78.5 130,-97.5 177,-97.5 177,-78.5 130,-78.5"/>
<text text-anchor="middle" x="153.5" y="-85.5" font-family="Helvetica,sans-Serif" font-size="10.00">byte *</text>
</a>
</g>
</g>
<!-- Node5&#45;&gt;Node1 -->
<g id="edge5" class="edge">
<title>Node5&#45;&gt;Node1</title>
<path fill="none" stroke="#9a32cd" stroke-dasharray="5,2" d="M153.5,-68.22C153.5,-52.7 153.5,-31.36 153.5,-19.62"/>
<polygon fill="#9a32cd" stroke="#9a32cd" points="150,-68.28 153.5,-78.28 157,-68.28 150,-68.28"/>
<text text-anchor="middle" x="166" y="-46.5" font-family="Helvetica,sans-Serif" font-size="10.00"> data</text>
</g>
<!-- Node6 -->
<g id="node6" class="node">
<title>Node6</title>
<g id="a_node6"><a xlink:title=" ">
<polygon fill="none" stroke="#bfbfbf" points="195,-78.5 195,-97.5 224,-97.5 224,-78.5 195,-78.5"/>
<text text-anchor="middle" x="209.5" y="-85.5" font-family="Helvetica,sans-Serif" font-size="10.00">int</text>
</a>
</g>
</g>
<!-- Node6&#45;&gt;Node1 -->
<g id="edge6" class="edge">
<title>Node6&#45;&gt;Node1</title>
<path fill="none" stroke="#9a32cd" stroke-dasharray="5,2" d="M201.35,-69.09C196.55,-59.42 189.95,-47.55 182.5,-38 177.17,-31.17 170.06,-24.52 164.22,-19.53"/>
<polygon fill="#9a32cd" stroke="#9a32cd" points="198.22,-70.65 205.68,-78.17 204.54,-67.64 198.22,-70.65"/>
<text text-anchor="middle" x="216.5" y="-52" font-family="Helvetica,sans-Serif" font-size="10.00"> release</text>
<text text-anchor="middle" x="216.5" y="-41" font-family="Helvetica,sans-Serif" font-size="10.00">length</text>
</g>
</g>
</svg>
