<?xml version="1.0" encoding="UTF-8" standalone="no"?>
<!DOCTYPE svg PUBLIC "-//W3C//DTD SVG 1.1//EN"
 "http://www.w3.org/Graphics/SVG/1.1/DTD/svg11.dtd">
<!-- Generated by graphviz version 2.43.0 (0)
 -->
<!-- Title: tagEMRSCALEVIEWPORTEXTEX Pages: 1 -->
<svg width="175pt" height="128pt"
 viewBox="0.00 0.00 175.00 128.00" xmlns="http://www.w3.org/2000/svg" xmlns:xlink="http://www.w3.org/1999/xlink">
<g id="graph0" class="graph" transform="scale(1 1) rotate(0) translate(4 124)">
<title>tagEMRSCALEVIEWPORTEXTEX</title>
<!-- Node1 -->
<g id="node1" class="node">
<title>Node1</title>
<g id="a_node1"><a xlink:title=" ">
<polygon fill="#bfbfbf" stroke="black" points="0,-0.5 0,-19.5 167,-19.5 167,-0.5 0,-0.5"/>
<text text-anchor="middle" x="83.5" y="-7.5" font-family="Helvetica,sans-Serif" font-size="10.00">tagEMRSCALEVIEWPORTEXTEX</text>
</a>
</g>
</g>
<!-- Node2 -->
<g id="node2" class="node">
<title>Node2</title>
<g id="a_node2"><a xlink:title=" ">
<polygon fill="none" stroke="#bfbfbf" points="36.5,-100.5 36.5,-119.5 74.5,-119.5 74.5,-100.5 36.5,-100.5"/>
<text text-anchor="middle" x="55.5" y="-107.5" font-family="Helvetica,sans-Serif" font-size="10.00">EMR</text>
</a>
</g>
</g>
<!-- Node2&#45;&gt;Node1 -->
<g id="edge1" class="edge">
<title>Node2&#45;&gt;Node1</title>
<path fill="none" stroke="#9a32cd" stroke-dasharray="5,2" d="M56.33,-90.14C57.47,-75.52 60.16,-54.96 66.5,-38 68.98,-31.36 73.23,-24.61 76.86,-19.52"/>
<polygon fill="#9a32cd" stroke="#9a32cd" points="52.82,-90.22 55.71,-100.41 59.81,-90.64 52.82,-90.22"/>
<text text-anchor="middle" x="78" y="-57.5" font-family="Helvetica,sans-Serif" font-size="10.00"> emr</text>
</g>
<!-- Node3 -->
<g id="node3" class="node">
<title>Node3</title>
<g id="a_node3"><a xlink:title=" ">
<polygon fill="none" stroke="#bfbfbf" points="92.5,-100.5 92.5,-119.5 130.5,-119.5 130.5,-100.5 92.5,-100.5"/>
<text text-anchor="middle" x="111.5" y="-107.5" font-family="Helvetica,sans-Serif" font-size="10.00">long</text>
</a>
</g>
</g>
<!-- Node3&#45;&gt;Node1 -->
<g id="edge2" class="edge">
<title>Node3&#45;&gt;Node1</title>
<path fill="none" stroke="#9a32cd" stroke-dasharray="5,2" d="M106.22,-90.51C100.15,-69.26 90.44,-35.29 85.94,-19.54"/>
<polygon fill="#9a32cd" stroke="#9a32cd" points="102.9,-91.65 109.02,-100.3 109.63,-89.73 102.9,-91.65"/>
<text text-anchor="middle" x="123.5" y="-74" font-family="Helvetica,sans-Serif" font-size="10.00"> yNum</text>
<text text-anchor="middle" x="123.5" y="-63" font-family="Helvetica,sans-Serif" font-size="10.00">xNum</text>
<text text-anchor="middle" x="123.5" y="-52" font-family="Helvetica,sans-Serif" font-size="10.00">yDenom</text>
<text text-anchor="middle" x="123.5" y="-41" font-family="Helvetica,sans-Serif" font-size="10.00">xDenom</text>
</g>
</g>
</svg>
