<?xml version="1.0" encoding="UTF-8" standalone="no"?>
<!DOCTYPE svg PUBLIC "-//W3C//DTD SVG 1.1//EN"
 "http://www.w3.org/Graphics/SVG/1.1/DTD/svg11.dtd">
<!-- Generated by graphviz version 2.43.0 (0)
 -->
<!-- Title: _IMAGE_ROM_HEADERS Pages: 1 -->
<svg width="278pt" height="106pt"
 viewBox="0.00 0.00 278.00 106.00" xmlns="http://www.w3.org/2000/svg" xmlns:xlink="http://www.w3.org/1999/xlink">
<g id="graph0" class="graph" transform="scale(1 1) rotate(0) translate(4 102)">
<title>_IMAGE_ROM_HEADERS</title>
<!-- Node1 -->
<g id="node1" class="node">
<title>Node1</title>
<g id="a_node1"><a xlink:title=" ">
<polygon fill="#bfbfbf" stroke="black" points="65,-0.5 65,-19.5 199,-19.5 199,-0.5 65,-0.5"/>
<text text-anchor="middle" x="132" y="-7.5" font-family="Helvetica,sans-Serif" font-size="10.00">_IMAGE_ROM_HEADERS</text>
</a>
</g>
</g>
<!-- Node2 -->
<g id="node2" class="node">
<title>Node2</title>
<g id="a_node2"><a xlink:title=" ">
<polygon fill="none" stroke="#bfbfbf" points="0,-73 0,-92 120,-92 120,-73 0,-73"/>
<text text-anchor="middle" x="60" y="-80" font-family="Helvetica,sans-Serif" font-size="10.00">IMAGE_FILE_HEADER</text>
</a>
</g>
</g>
<!-- Node2&#45;&gt;Node1 -->
<g id="edge1" class="edge">
<title>Node2&#45;&gt;Node1</title>
<path fill="none" stroke="#9a32cd" stroke-dasharray="5,2" d="M76.14,-65.69C90.65,-51.49 111.4,-31.17 123.1,-19.72"/>
<polygon fill="#9a32cd" stroke="#9a32cd" points="73.53,-63.36 68.83,-72.86 78.42,-68.36 73.53,-63.36"/>
<text text-anchor="middle" x="131" y="-41" font-family="Helvetica,sans-Serif" font-size="10.00"> FileHeader</text>
</g>
<!-- Node3 -->
<g id="node3" class="node">
<title>Node3</title>
<g id="a_node3"><a xlink:title=" ">
<polygon fill="none" stroke="#bfbfbf" points="138,-67.5 138,-97.5 270,-97.5 270,-67.5 138,-67.5"/>
<text text-anchor="start" x="146" y="-85.5" font-family="Helvetica,sans-Serif" font-size="10.00">IMAGE_ROM_OPTIONAL</text>
<text text-anchor="middle" x="204" y="-74.5" font-family="Helvetica,sans-Serif" font-size="10.00">_HEADER</text>
</a>
</g>
</g>
<!-- Node3&#45;&gt;Node1 -->
<g id="edge2" class="edge">
<title>Node3&#45;&gt;Node1</title>
<path fill="none" stroke="#9a32cd" stroke-dasharray="5,2" d="M184.58,-60.06C177.89,-52.9 170.25,-44.97 163,-38 156.31,-31.57 148.42,-24.71 142.28,-19.51"/>
<polygon fill="#9a32cd" stroke="#9a32cd" points="182.05,-62.48 191.41,-67.45 187.19,-57.73 182.05,-62.48"/>
<text text-anchor="middle" x="213" y="-41" font-family="Helvetica,sans-Serif" font-size="10.00"> OptionalHeader</text>
</g>
</g>
</svg>
