<?xml version="1.0" encoding="UTF-8" standalone="no"?>
<!DOCTYPE svg PUBLIC "-//W3C//DTD SVG 1.1//EN"
 "http://www.w3.org/Graphics/SVG/1.1/DTD/svg11.dtd">
<!-- Generated by graphviz version 2.43.0 (0)
 -->
<!-- Title: _PRIVATE_CACHE_MAP Pages: 1 -->
<svg width="475pt" height="357pt"
 viewBox="0.00 0.00 475.00 357.00" xmlns="http://www.w3.org/2000/svg" xmlns:xlink="http://www.w3.org/1999/xlink">
<g id="graph0" class="graph" transform="scale(1 1) rotate(0) translate(4 353)">
<title>_PRIVATE_CACHE_MAP</title>
<!-- Node1 -->
<g id="node1" class="node">
<title>Node1</title>
<g id="a_node1"><a xlink:title=" ">
<polygon fill="#bfbfbf" stroke="black" points="339,-196.5 339,-215.5 467,-215.5 467,-196.5 339,-196.5"/>
<text text-anchor="middle" x="403" y="-203.5" font-family="Helvetica,sans-Serif" font-size="10.00">_PRIVATE_CACHE_MAP</text>
</a>
</g>
</g>
<!-- Node2 -->
<g id="node2" class="node">
<title>Node2</title>
<g id="a_node2"><a xlink:title=" ">
<polygon fill="none" stroke="#bfbfbf" points="10,-329.5 10,-348.5 188,-348.5 188,-329.5 10,-329.5"/>
<text text-anchor="middle" x="99" y="-336.5" font-family="Helvetica,sans-Serif" font-size="10.00">anonymous:DUMMYUNIONNAME</text>
</a>
</g>
</g>
<!-- Node2&#45;&gt;Node1 -->
<g id="edge1" class="edge">
<title>Node2&#45;&gt;Node1</title>
<path fill="none" stroke="#9a32cd" stroke-dasharray="5,2" d="M198.34,-339.63C238.57,-336.11 284.2,-327.02 321,-306 359.41,-284.05 386.86,-236.24 397.33,-215.69"/>
<polygon fill="#9a32cd" stroke="#9a32cd" points="197.94,-336.15 188.24,-340.4 198.47,-343.13 197.94,-336.15"/>
<text text-anchor="middle" x="268.5" y="-340" font-family="Helvetica,sans-Serif" font-size="10.00"> DUMMYUNIONNAME</text>
</g>
<!-- Node3 -->
<g id="node3" class="node">
<title>Node3</title>
<g id="a_node3"><a xlink:title=" ">
<polygon fill="none" stroke="#bfbfbf" points="62,-291.5 62,-310.5 136,-310.5 136,-291.5 62,-291.5"/>
<text text-anchor="middle" x="99" y="-298.5" font-family="Helvetica,sans-Serif" font-size="10.00">LIST_ENTRY</text>
</a>
</g>
</g>
<!-- Node3&#45;&gt;Node1 -->
<g id="edge2" class="edge">
<title>Node3&#45;&gt;Node1</title>
<path fill="none" stroke="#9a32cd" stroke-dasharray="5,2" d="M146.48,-299.67C192.43,-296.94 263.92,-288.83 321,-265 349.58,-253.07 377.57,-229.21 391.98,-215.77"/>
<polygon fill="#9a32cd" stroke="#9a32cd" points="146.03,-296.19 136.23,-300.22 146.4,-303.18 146.03,-296.19"/>
<text text-anchor="middle" x="268.5" y="-294" font-family="Helvetica,sans-Serif" font-size="10.00"> PrivateLinks</text>
</g>
<!-- Node4 -->
<g id="node4" class="node">
<title>Node4</title>
<g id="a_node4"><a xlink:title=" ">
<polygon fill="none" stroke="#bfbfbf" points="56.5,-253.5 56.5,-272.5 141.5,-272.5 141.5,-253.5 56.5,-253.5"/>
<text text-anchor="middle" x="99" y="-260.5" font-family="Helvetica,sans-Serif" font-size="10.00">unsigned long</text>
</a>
</g>
</g>
<!-- Node4&#45;&gt;Node1 -->
<g id="edge3" class="edge">
<title>Node4&#45;&gt;Node1</title>
<path fill="none" stroke="#9a32cd" stroke-dasharray="5,2" d="M151.64,-258.28C196.72,-253.57 263.71,-245.11 321,-232 339.72,-227.72 360.31,-221.08 376.05,-215.58"/>
<polygon fill="#9a32cd" stroke="#9a32cd" points="151.12,-254.82 141.52,-259.32 151.83,-261.78 151.12,-254.82"/>
<text text-anchor="middle" x="268.5" y="-253" font-family="Helvetica,sans-Serif" font-size="10.00"> ReadAheadSpinLock</text>
</g>
<!-- Node5 -->
<g id="node5" class="node">
<title>Node5</title>
<g id="a_node5"><a xlink:title=" ">
<polygon fill="none" stroke="#bfbfbf" points="57,-215.5 57,-234.5 141,-234.5 141,-215.5 57,-215.5"/>
<text text-anchor="middle" x="99" y="-222.5" font-family="Helvetica,sans-Serif" font-size="10.00">PFILE_OBJECT</text>
</a>
</g>
</g>
<!-- Node5&#45;&gt;Node1 -->
<g id="edge4" class="edge">
<title>Node5&#45;&gt;Node1</title>
<path fill="none" stroke="#9a32cd" stroke-dasharray="5,2" d="M151.34,-221.77C203.16,-218.51 283.3,-213.47 338.96,-209.97"/>
<polygon fill="#9a32cd" stroke="#9a32cd" points="150.8,-218.3 141.04,-222.42 151.24,-225.28 150.8,-218.3"/>
<text text-anchor="middle" x="268.5" y="-220" font-family="Helvetica,sans-Serif" font-size="10.00"> FileObject</text>
</g>
<!-- Node6 -->
<g id="node6" class="node">
<title>Node6</title>
<g id="a_node6"><a xlink:title=" ">
<polygon fill="none" stroke="#bfbfbf" points="78.5,-177.5 78.5,-196.5 119.5,-196.5 119.5,-177.5 78.5,-177.5"/>
<text text-anchor="middle" x="99" y="-184.5" font-family="Helvetica,sans-Serif" font-size="10.00">short</text>
</a>
</g>
</g>
<!-- Node6&#45;&gt;Node1 -->
<g id="edge5" class="edge">
<title>Node6&#45;&gt;Node1</title>
<path fill="none" stroke="#9a32cd" stroke-dasharray="5,2" d="M129.74,-187.44C172.22,-188.24 252.7,-190.4 321,-196 326.79,-196.47 332.8,-197.05 338.82,-197.69"/>
<polygon fill="#9a32cd" stroke="#9a32cd" points="129.6,-183.93 119.54,-187.26 129.48,-190.93 129.6,-183.93"/>
<text text-anchor="middle" x="268.5" y="-199" font-family="Helvetica,sans-Serif" font-size="10.00"> NodeTypeCode</text>
</g>
<!-- Node7 -->
<g id="node7" class="node">
<title>Node7</title>
<g id="a_node7"><a xlink:title=" ">
<polygon fill="none" stroke="#bfbfbf" points="19,-139.5 19,-158.5 179,-158.5 179,-139.5 19,-139.5"/>
<text text-anchor="middle" x="99" y="-146.5" font-family="Helvetica,sans-Serif" font-size="10.00">PRIVATE_CACHE_MAP_FLAGS</text>
</a>
</g>
</g>
<!-- Node7&#45;&gt;Node1 -->
<g id="edge6" class="edge">
<title>Node7&#45;&gt;Node1</title>
<path fill="none" stroke="#9a32cd" stroke-dasharray="5,2" d="M189.24,-154.42C229.86,-158.18 278.29,-164.49 321,-175 342.05,-180.18 365.05,-189.34 381.14,-196.37"/>
<polygon fill="#9a32cd" stroke="#9a32cd" points="189.36,-150.92 179.09,-153.52 188.74,-157.89 189.36,-150.92"/>
<text text-anchor="middle" x="268.5" y="-178" font-family="Helvetica,sans-Serif" font-size="10.00"> Flags</text>
</g>
<!-- Node8 -->
<g id="node8" class="node">
<title>Node8</title>
<g id="a_node8"><a xlink:title=" ">
<polygon fill="none" stroke="#bfbfbf" points="50,-67.5 50,-86.5 148,-86.5 148,-67.5 50,-67.5"/>
<text text-anchor="middle" x="99" y="-74.5" font-family="Helvetica,sans-Serif" font-size="10.00">LARGE_INTEGER</text>
</a>
</g>
</g>
<!-- Node8&#45;&gt;Node1 -->
<g id="edge7" class="edge">
<title>Node8&#45;&gt;Node1</title>
<path fill="none" stroke="#9a32cd" stroke-dasharray="5,2" d="M158.12,-70.17C205.04,-67.44 271.2,-70.08 321,-98 362.09,-121.04 388.59,-174.48 398.08,-196.38"/>
<polygon fill="#9a32cd" stroke="#9a32cd" points="157.86,-66.68 148.12,-70.85 158.33,-73.66 157.86,-66.68"/>
<text text-anchor="middle" x="268.5" y="-145" font-family="Helvetica,sans-Serif" font-size="10.00"> BeyondLastByte1</text>
<text text-anchor="middle" x="268.5" y="-134" font-family="Helvetica,sans-Serif" font-size="10.00">BeyondLastByte2</text>
<text text-anchor="middle" x="268.5" y="-123" font-family="Helvetica,sans-Serif" font-size="10.00">ReadAheadOffset</text>
<text text-anchor="middle" x="268.5" y="-112" font-family="Helvetica,sans-Serif" font-size="10.00">FileOffset1</text>
<text text-anchor="middle" x="268.5" y="-101" font-family="Helvetica,sans-Serif" font-size="10.00">FileOffset2</text>
</g>
<!-- Node9 -->
<g id="node9" class="node">
<title>Node9</title>
<g id="a_node9"><a xlink:title=" ">
<polygon fill="none" stroke="#bfbfbf" points="0,-0.5 0,-41.5 198,-41.5 198,-0.5 0,-0.5"/>
<text text-anchor="start" x="8" y="-29.5" font-family="Helvetica,sans-Serif" font-size="10.00">PSecurityUserData *typedef</text>
<text text-anchor="start" x="8" y="-18.5" font-family="Helvetica,sans-Serif" font-size="10.00"> PSECPKG_EXTENDED_INFORMATION</text>
<text text-anchor="middle" x="99" y="-7.5" font-family="Helvetica,sans-Serif" font-size="10.00"> *typedef</text>
</a>
</g>
</g>
<!-- Node9&#45;&gt;Node1 -->
<g id="edge8" class="edge">
<title>Node9&#45;&gt;Node1</title>
<path fill="none" stroke="#9a32cd" stroke-dasharray="5,2" d="M208.29,-5.01C246.73,-4.7 288.47,-11.05 321,-33 379.56,-72.51 396.75,-166.04 400.87,-196.34"/>
<polygon fill="#9a32cd" stroke="#9a32cd" points="208,-1.51 198.08,-5.24 208.16,-8.51 208,-1.51"/>
<text text-anchor="middle" x="268.5" y="-58" font-family="Helvetica,sans-Serif" font-size="10.00"> ReadAheadLength</text>
<text text-anchor="middle" x="268.5" y="-47" font-family="Helvetica,sans-Serif" font-size="10.00">ReadAheadMask</text>
<text text-anchor="middle" x="268.5" y="-36" font-family="Helvetica,sans-Serif" font-size="10.00">UlongFlags</text>
</g>
</g>
</svg>
