<?xml version="1.0" encoding="UTF-8" standalone="no"?>
<!DOCTYPE svg PUBLIC "-//W3C//DTD SVG 1.1//EN"
 "http://www.w3.org/Graphics/SVG/1.1/DTD/svg11.dtd">
<!-- Generated by graphviz version 2.43.0 (0)
 -->
<!-- Title: _QualityOfService Pages: 1 -->
<svg width="235pt" height="106pt"
 viewBox="0.00 0.00 235.00 106.00" xmlns="http://www.w3.org/2000/svg" xmlns:xlink="http://www.w3.org/1999/xlink">
<g id="graph0" class="graph" transform="scale(1 1) rotate(0) translate(4 102)">
<title>_QualityOfService</title>
<!-- Node1 -->
<g id="node1" class="node">
<title>Node1</title>
<g id="a_node1"><a xlink:title=" ">
<polygon fill="#bfbfbf" stroke="black" points="43,-0.5 43,-19.5 147,-19.5 147,-0.5 43,-0.5"/>
<text text-anchor="middle" x="95" y="-7.5" font-family="Helvetica,sans-Serif" font-size="10.00">_QualityOfService</text>
</a>
</g>
</g>
<!-- Node2 -->
<g id="node2" class="node">
<title>Node2</title>
<g id="a_node2"><a xlink:title=" ">
<polygon fill="none" stroke="#bfbfbf" points="0,-78.5 0,-97.5 70,-97.5 70,-78.5 0,-78.5"/>
<text text-anchor="middle" x="35" y="-85.5" font-family="Helvetica,sans-Serif" font-size="10.00">FLOWSPEC</text>
</a>
</g>
</g>
<!-- Node2&#45;&gt;Node1 -->
<g id="edge1" class="edge">
<title>Node2&#45;&gt;Node1</title>
<path fill="none" stroke="#9a32cd" stroke-dasharray="5,2" d="M30.89,-68.27C29.8,-58.5 30.23,-46.79 36,-38 41.63,-29.43 50.71,-23.54 60.08,-19.51"/>
<polygon fill="#9a32cd" stroke="#9a32cd" points="27.46,-68.94 32.57,-78.22 34.36,-67.78 27.46,-68.94"/>
<text text-anchor="middle" x="84.5" y="-52" font-family="Helvetica,sans-Serif" font-size="10.00"> ReceivingFlowspec</text>
<text text-anchor="middle" x="84.5" y="-41" font-family="Helvetica,sans-Serif" font-size="10.00">SendingFlowspec</text>
</g>
<!-- Node3 -->
<g id="node3" class="node">
<title>Node3</title>
<g id="a_node3"><a xlink:title=" ">
<polygon fill="none" stroke="#bfbfbf" points="125,-78.5 125,-97.5 185,-97.5 185,-78.5 125,-78.5"/>
<text text-anchor="middle" x="155" y="-85.5" font-family="Helvetica,sans-Serif" font-size="10.00">WSABUF</text>
</a>
</g>
</g>
<!-- Node3&#45;&gt;Node1 -->
<g id="edge2" class="edge">
<title>Node3&#45;&gt;Node1</title>
<path fill="none" stroke="#9a32cd" stroke-dasharray="5,2" d="M149.41,-68.68C145.8,-58.87 140.39,-47 133,-38 126.94,-30.62 118.39,-24.31 110.94,-19.65"/>
<polygon fill="#9a32cd" stroke="#9a32cd" points="146.13,-69.9 152.63,-78.27 152.77,-67.68 146.13,-69.9"/>
<text text-anchor="middle" x="186" y="-46.5" font-family="Helvetica,sans-Serif" font-size="10.00"> ProviderSpecific</text>
</g>
</g>
</svg>
