<?xml version="1.0" encoding="UTF-8" standalone="no"?>
<!DOCTYPE svg PUBLIC "-//W3C//DTD SVG 1.1//EN"
 "http://www.w3.org/Graphics/SVG/1.1/DTD/svg11.dtd">
<!-- Generated by graphviz version 2.43.0 (0)
 -->
<!-- Title: tagMIMECPINFO Pages: 1 -->
<svg width="264pt" height="150pt"
 viewBox="0.00 0.00 263.50 150.00" xmlns="http://www.w3.org/2000/svg" xmlns:xlink="http://www.w3.org/1999/xlink">
<g id="graph0" class="graph" transform="scale(1 1) rotate(0) translate(4 146)">
<title>tagMIMECPINFO</title>
<!-- Node1 -->
<g id="node1" class="node">
<title>Node1</title>
<g id="a_node1"><a xlink:title=" ">
<polygon fill="#bfbfbf" stroke="black" points="57.5,-0.5 57.5,-19.5 153.5,-19.5 153.5,-0.5 57.5,-0.5"/>
<text text-anchor="middle" x="105.5" y="-7.5" font-family="Helvetica,sans-Serif" font-size="10.00">tagMIMECPINFO</text>
</a>
</g>
</g>
<!-- Node2 -->
<g id="node2" class="node">
<title>Node2</title>
<g id="a_node2"><a xlink:title=" ">
<polygon fill="none" stroke="#bfbfbf" points="0,-122.5 0,-141.5 89,-141.5 89,-122.5 0,-122.5"/>
<text text-anchor="middle" x="44.5" y="-129.5" font-family="Helvetica,sans-Serif" font-size="10.00">unsigned short</text>
</a>
</g>
</g>
<!-- Node2&#45;&gt;Node1 -->
<g id="edge1" class="edge">
<title>Node2&#45;&gt;Node1</title>
<path fill="none" stroke="#9a32cd" stroke-dasharray="5,2" d="M39.29,-112.69C34.73,-92.63 30.88,-60.35 45.5,-38 51.07,-29.49 60.01,-23.64 69.32,-19.62"/>
<polygon fill="#9a32cd" stroke="#9a32cd" points="35.91,-113.61 41.78,-122.43 42.7,-111.88 35.91,-113.61"/>
<text text-anchor="middle" x="95.5" y="-96" font-family="Helvetica,sans-Serif" font-size="10.00"> wszBodyCharset</text>
<text text-anchor="middle" x="95.5" y="-85" font-family="Helvetica,sans-Serif" font-size="10.00">wszFixedWidthFont</text>
<text text-anchor="middle" x="95.5" y="-74" font-family="Helvetica,sans-Serif" font-size="10.00">wszDescription</text>
<text text-anchor="middle" x="95.5" y="-63" font-family="Helvetica,sans-Serif" font-size="10.00">wszProportionalFont</text>
<text text-anchor="middle" x="95.5" y="-52" font-family="Helvetica,sans-Serif" font-size="10.00">wszHeaderCharset</text>
<text text-anchor="middle" x="95.5" y="-41" font-family="Helvetica,sans-Serif" font-size="10.00">wszWebCharset</text>
</g>
<!-- Node3 -->
<g id="node3" class="node">
<title>Node3</title>
<g id="a_node3"><a xlink:title=" ">
<polygon fill="none" stroke="#bfbfbf" points="137,-122.5 137,-141.5 198,-141.5 198,-122.5 137,-122.5"/>
<text text-anchor="middle" x="167.5" y="-129.5" font-family="Helvetica,sans-Serif" font-size="10.00">unsigned</text>
</a>
</g>
</g>
<!-- Node3&#45;&gt;Node1 -->
<g id="edge2" class="edge">
<title>Node3&#45;&gt;Node1</title>
<path fill="none" stroke="#9a32cd" stroke-dasharray="5,2" d="M167.01,-112.22C165.64,-92.2 160.95,-60.36 145.5,-38 140.17,-30.28 131.84,-24.15 124.17,-19.69"/>
<polygon fill="#9a32cd" stroke="#9a32cd" points="163.52,-112.65 167.49,-122.48 170.52,-112.32 163.52,-112.65"/>
<text text-anchor="middle" x="210.5" y="-85" font-family="Helvetica,sans-Serif" font-size="10.00"> bGDICharset</text>
<text text-anchor="middle" x="210.5" y="-74" font-family="Helvetica,sans-Serif" font-size="10.00">uiCodePage</text>
<text text-anchor="middle" x="210.5" y="-63" font-family="Helvetica,sans-Serif" font-size="10.00">uiFamilyCodePage</text>
<text text-anchor="middle" x="210.5" y="-52" font-family="Helvetica,sans-Serif" font-size="10.00">dwFlags</text>
</g>
</g>
</svg>
