<?xml version="1.0" encoding="UTF-8" standalone="no"?>
<!DOCTYPE svg PUBLIC "-//W3C//DTD SVG 1.1//EN"
 "http://www.w3.org/Graphics/SVG/1.1/DTD/svg11.dtd">
<!-- Generated by graphviz version 2.43.0 (0)
 -->
<!-- Title: Tools/MinGW/include/c++/4.6.1/debug/formatter.h Pages: 1 -->
<svg width="641pt" height="251pt"
 viewBox="0.00 0.00 640.50 251.00" xmlns="http://www.w3.org/2000/svg" xmlns:xlink="http://www.w3.org/1999/xlink">
<g id="graph0" class="graph" transform="scale(1 1) rotate(0) translate(4 247)">
<title>Tools/MinGW/include/c++/4.6.1/debug/formatter.h</title>
<!-- Node1 -->
<g id="node1" class="node">
<title>Node1</title>
<g id="a_node1"><a xlink:title=" ">
<polygon fill="#bfbfbf" stroke="black" points="230.5,-212.5 230.5,-242.5 389.5,-242.5 389.5,-212.5 230.5,-212.5"/>
<text text-anchor="start" x="238.5" y="-230.5" font-family="Helvetica,sans-Serif" font-size="10.00">Tools/MinGW/include</text>
<text text-anchor="middle" x="310" y="-219.5" font-family="Helvetica,sans-Serif" font-size="10.00">/c++/4.6.1/debug/formatter.h</text>
</a>
</g>
</g>
<!-- Node2 -->
<g id="node2" class="node">
<title>Node2</title>
<g id="a_node2"><a xlink:href="../../d8/d5c/functions_8h.html" target="_top" xlink:title=" ">
<polygon fill="none" stroke="black" points="231,-145.5 231,-175.5 389,-175.5 389,-145.5 231,-145.5"/>
<text text-anchor="start" x="239" y="-163.5" font-family="Helvetica,sans-Serif" font-size="10.00">Tools/MinGW/include</text>
<text text-anchor="middle" x="310" y="-152.5" font-family="Helvetica,sans-Serif" font-size="10.00">/c++/4.6.1/debug/functions.h</text>
</a>
</g>
</g>
<!-- Node1&#45;&gt;Node2 -->
<g id="edge1" class="edge">
<title>Node1&#45;&gt;Node2</title>
<path fill="none" stroke="midnightblue" d="M310,-202.11C310,-193.15 310,-183.32 310,-175.58"/>
<polygon fill="midnightblue" stroke="midnightblue" points="306.5,-202.4 310,-212.4 313.5,-202.4 306.5,-202.4"/>
</g>
<!-- Node3 -->
<g id="node3" class="node">
<title>Node3</title>
<g id="a_node3"><a xlink:href="../../d8/d08/safe__iterator_8h.html" target="_top" xlink:title=" ">
<polygon fill="none" stroke="black" points="176.5,-67.5 176.5,-108.5 301.5,-108.5 301.5,-67.5 176.5,-67.5"/>
<text text-anchor="start" x="184.5" y="-96.5" font-family="Helvetica,sans-Serif" font-size="10.00">Tools/MinGW/include</text>
<text text-anchor="start" x="184.5" y="-85.5" font-family="Helvetica,sans-Serif" font-size="10.00">/c++/4.6.1/debug/safe</text>
<text text-anchor="middle" x="239" y="-74.5" font-family="Helvetica,sans-Serif" font-size="10.00">_iterator.h</text>
</a>
</g>
</g>
<!-- Node2&#45;&gt;Node3 -->
<g id="edge2" class="edge">
<title>Node2&#45;&gt;Node3</title>
<path fill="none" stroke="midnightblue" d="M288.45,-138.1C278.99,-128.71 267.97,-117.76 258.73,-108.59"/>
<polygon fill="midnightblue" stroke="midnightblue" points="286.07,-140.67 295.63,-145.23 291,-135.7 286.07,-140.67"/>
</g>
<!-- Node8 -->
<g id="node8" class="node">
<title>Node8</title>
<g id="a_node8"><a xlink:href="../../d7/de5/safe__sequence_8h.html" target="_top" xlink:title=" ">
<polygon fill="none" stroke="black" points="319.5,-67.5 319.5,-108.5 444.5,-108.5 444.5,-67.5 319.5,-67.5"/>
<text text-anchor="start" x="327.5" y="-96.5" font-family="Helvetica,sans-Serif" font-size="10.00">Tools/MinGW/include</text>
<text text-anchor="start" x="327.5" y="-85.5" font-family="Helvetica,sans-Serif" font-size="10.00">/c++/4.6.1/debug/safe</text>
<text text-anchor="middle" x="382" y="-74.5" font-family="Helvetica,sans-Serif" font-size="10.00">_sequence.h</text>
</a>
</g>
</g>
<!-- Node2&#45;&gt;Node8 -->
<g id="edge7" class="edge">
<title>Node2&#45;&gt;Node8</title>
<path fill="none" stroke="midnightblue" d="M331.85,-138.1C341.44,-128.71 352.63,-117.76 361.99,-108.59"/>
<polygon fill="midnightblue" stroke="midnightblue" points="329.27,-135.74 324.57,-145.23 334.16,-140.74 329.27,-135.74"/>
</g>
<!-- Node4 -->
<g id="node4" class="node">
<title>Node4</title>
<g id="a_node4"><a xlink:href="../../d7/d4c/debug_2map_8h.html" target="_top" xlink:title=" ">
<polygon fill="none" stroke="black" points="318.5,-0.5 318.5,-30.5 453.5,-30.5 453.5,-0.5 318.5,-0.5"/>
<text text-anchor="start" x="326.5" y="-18.5" font-family="Helvetica,sans-Serif" font-size="10.00">Tools/MinGW/include</text>
<text text-anchor="middle" x="386" y="-7.5" font-family="Helvetica,sans-Serif" font-size="10.00">/c++/4.6.1/debug/map.h</text>
</a>
</g>
</g>
<!-- Node3&#45;&gt;Node4 -->
<g id="edge3" class="edge">
<title>Node3&#45;&gt;Node4</title>
<path fill="none" stroke="midnightblue" d="M289.01,-63.02C311.45,-52.25 337.15,-39.93 356.45,-30.67"/>
<polygon fill="midnightblue" stroke="midnightblue" points="287.45,-59.88 279.95,-67.36 290.48,-66.19 287.45,-59.88"/>
</g>
<!-- Node5 -->
<g id="node5" class="node">
<title>Node5</title>
<g id="a_node5"><a xlink:href="../../dd/d78/debug_2multimap_8h.html" target="_top" xlink:title=" ">
<polygon fill="none" stroke="black" points="471.5,-0.5 471.5,-30.5 632.5,-30.5 632.5,-0.5 471.5,-0.5"/>
<text text-anchor="start" x="479.5" y="-18.5" font-family="Helvetica,sans-Serif" font-size="10.00">Tools/MinGW/include</text>
<text text-anchor="middle" x="552" y="-7.5" font-family="Helvetica,sans-Serif" font-size="10.00">/c++/4.6.1/debug/multimap.h</text>
</a>
</g>
</g>
<!-- Node3&#45;&gt;Node5 -->
<g id="edge4" class="edge">
<title>Node3&#45;&gt;Node5</title>
<path fill="none" stroke="midnightblue" d="M311.7,-66.9C373.53,-52.01 433.46,-39.57 478.96,-30.53"/>
<polygon fill="midnightblue" stroke="midnightblue" points="310.66,-63.55 301.77,-69.31 312.31,-70.35 310.66,-63.55"/>
</g>
<!-- Node6 -->
<g id="node6" class="node">
<title>Node6</title>
<g id="a_node6"><a xlink:href="../../d7/d23/debug_2multiset_8h.html" target="_top" xlink:title=" ">
<polygon fill="none" stroke="black" points="0,-0.5 0,-30.5 154,-30.5 154,-0.5 0,-0.5"/>
<text text-anchor="start" x="8" y="-18.5" font-family="Helvetica,sans-Serif" font-size="10.00">Tools/MinGW/include</text>
<text text-anchor="middle" x="77" y="-7.5" font-family="Helvetica,sans-Serif" font-size="10.00">/c++/4.6.1/debug/multiset.h</text>
</a>
</g>
</g>
<!-- Node3&#45;&gt;Node6 -->
<g id="edge5" class="edge">
<title>Node3&#45;&gt;Node6</title>
<path fill="none" stroke="midnightblue" d="M184.51,-63.29C159.54,-52.42 130.79,-39.91 109.31,-30.56"/>
<polygon fill="midnightblue" stroke="midnightblue" points="183.31,-66.58 193.87,-67.36 186.1,-60.16 183.31,-66.58"/>
</g>
<!-- Node7 -->
<g id="node7" class="node">
<title>Node7</title>
<g id="a_node7"><a xlink:href="../../da/df2/debug_2set_8h.html" target="_top" xlink:title=" ">
<polygon fill="none" stroke="black" points="172,-0.5 172,-30.5 300,-30.5 300,-0.5 172,-0.5"/>
<text text-anchor="start" x="180" y="-18.5" font-family="Helvetica,sans-Serif" font-size="10.00">Tools/MinGW/include</text>
<text text-anchor="middle" x="236" y="-7.5" font-family="Helvetica,sans-Serif" font-size="10.00">/c++/4.6.1/debug/set.h</text>
</a>
</g>
</g>
<!-- Node3&#45;&gt;Node7 -->
<g id="edge6" class="edge">
<title>Node3&#45;&gt;Node7</title>
<path fill="none" stroke="midnightblue" d="M237.73,-57.08C237.34,-48.01 236.93,-38.45 236.61,-30.89"/>
<polygon fill="midnightblue" stroke="midnightblue" points="234.24,-57.52 238.16,-67.36 241.24,-57.22 234.24,-57.52"/>
</g>
<!-- Node8&#45;&gt;Node4 -->
<g id="edge8" class="edge">
<title>Node8&#45;&gt;Node4</title>
<path fill="none" stroke="midnightblue" d="M383.68,-57.38C384.2,-48.21 384.75,-38.53 385.18,-30.89"/>
<polygon fill="midnightblue" stroke="midnightblue" points="380.19,-57.18 383.11,-67.36 387.18,-57.58 380.19,-57.18"/>
</g>
<!-- Node8&#45;&gt;Node5 -->
<g id="edge9" class="edge">
<title>Node8&#45;&gt;Node5</title>
<path fill="none" stroke="midnightblue" d="M438.83,-63.43C465.12,-52.53 495.45,-39.95 518.1,-30.56"/>
<polygon fill="midnightblue" stroke="midnightblue" points="437.25,-60.3 429.35,-67.36 439.93,-66.76 437.25,-60.3"/>
</g>
<!-- Node8&#45;&gt;Node6 -->
<g id="edge10" class="edge">
<title>Node8&#45;&gt;Node6</title>
<path fill="none" stroke="midnightblue" d="M309.38,-66.66C249.82,-52.02 191.54,-39.56 147.4,-30.51"/>
<polygon fill="midnightblue" stroke="midnightblue" points="308.79,-70.12 319.34,-69.12 310.47,-63.32 308.79,-70.12"/>
</g>
<!-- Node8&#45;&gt;Node7 -->
<g id="edge11" class="edge">
<title>Node8&#45;&gt;Node7</title>
<path fill="none" stroke="midnightblue" d="M332.03,-62.87C309.82,-52.15 284.43,-39.89 265.34,-30.67"/>
<polygon fill="midnightblue" stroke="midnightblue" points="330.8,-66.17 341.33,-67.36 333.85,-59.86 330.8,-66.17"/>
</g>
</g>
</svg>
