<?xml version="1.0" encoding="UTF-8" standalone="no"?>
<!DOCTYPE svg PUBLIC "-//W3C//DTD SVG 1.1//EN"
 "http://www.w3.org/Graphics/SVG/1.1/DTD/svg11.dtd">
<!-- Generated by graphviz version 2.43.0 (0)
 -->
<!-- Title: _FILE_OLE_INFORMATION Pages: 1 -->
<!--zoomable 264 -->
<svg id="main" version="1.1" xmlns="http://www.w3.org/2000/svg" xmlns:xlink="http://www.w3.org/1999/xlink" xml:space="preserve" onload="init(evt)">
<style type="text/css"><![CDATA[
.edge:hover path { stroke: red; }
.edge:hover polygon { stroke: red; fill: red; }
]]></style>
<script type="text/javascript"><![CDATA[
var edges = document.getElementsByTagName('g');
if (edges && edges.length) {
  for (var i=0;i<edges.length;i++) {
    if (edges[i].id.substr(0,4)=='edge') {
      edges[i].setAttribute('class','edge');
    }
  }
}
]]></script>
        <defs>
                <circle id="rim" cx="0" cy="0" r="7"/>
                <circle id="rim2" cx="0" cy="0" r="3.5"/>
                <g id="zoomPlus">
                        <use xlink:href="#rim" fill="#404040">
                                <set attributeName="fill" to="#808080" begin="zoomplus.mouseover" end="zoomplus.mouseout"/>
                        </use>
                        <path d="M-4,0h8M0,-4v8" fill="none" stroke="white" stroke-width="1.5" pointer-events="none"/>
                </g>
                <g id="zoomMin">
                        <use xlink:href="#rim" fill="#404040">
                                <set attributeName="fill" to="#808080" begin="zoomminus.mouseover" end="zoomminus.mouseout"/>
                        </use>
                        <path d="M-4,0h8" fill="none" stroke="white" stroke-width="1.5" pointer-events="none"/>
                </g>
                <g id="dirArrow">
                        <path fill="none" stroke="white" stroke-width="1.5" d="M0,-3.0v7 M-2.5,-0.5L0,-3.0L2.5,-0.5"/>
                </g>
               <g id="resetDef">
                       <use xlink:href="#rim2" fill="#404040">
                               <set attributeName="fill" to="#808080" begin="reset.mouseover" end="reset.mouseout"/>
                       </use>
               </g>
        </defs>

<script type="text/javascript">
var viewWidth = 520;
var viewHeight = 264;
var sectionId = 'dynsection-0';
</script>
<script xlink:href="../../svgpan.js"/>
<svg id="graph" class="graph">
<g id="viewport">
<title>_FILE_OLE_INFORMATION</title>
<!-- Node1 -->
<g id="node1" class="node">
<title>Node1</title>
<g id="a_node1"><a xlink:title=" ">
<polygon fill="#bfbfbf" stroke="black" points="371,-122.5 371,-141.5 512,-141.5 512,-122.5 371,-122.5"/>
<text text-anchor="middle" x="441.5" y="-129.5" font-family="Helvetica,sans-Serif" font-size="10.00">_FILE_OLE_INFORMATION</text>
</a>
</g>
</g>
<!-- Node2 -->
<g id="node2" class="node">
<title>Node2</title>
<g id="a_node2"><a xlink:title=" ">
<polygon fill="none" stroke="#bfbfbf" points="7.5,-234.5 7.5,-253.5 190.5,-253.5 190.5,-234.5 7.5,-234.5"/>
<text text-anchor="middle" x="99" y="-241.5" font-family="Helvetica,sans-Serif" font-size="10.00">FILE_OLE_CLASSID_INFORMATION</text>
</a>
</g>
</g>
<!-- Node2&#45;&gt;Node1 -->
<g id="edge1" class="edge">
<title>Node2&#45;&gt;Node1</title>
<path fill="none" stroke="#9a32cd" stroke-dasharray="5,2" d="M200.78,-246.4C248.81,-244.03 305.92,-235.91 353,-214 389.24,-197.14 420.34,-159.44 433.62,-141.65"/>
<polygon fill="#9a32cd" stroke="#9a32cd" points="200.52,-242.91 190.67,-246.83 200.81,-249.91 200.52,-242.91"/>
<text text-anchor="middle" x="284.5" y="-248" font-family="Helvetica,sans-Serif" font-size="10.00"> OleClassIdInformation</text>
</g>
<!-- Node3 -->
<g id="node3" class="node">
<title>Node3</title>
<g id="a_node3"><a xlink:title=" ">
<polygon fill="none" stroke="#bfbfbf" points="17,-196.5 17,-215.5 181,-215.5 181,-196.5 17,-196.5"/>
<text text-anchor="middle" x="99" y="-203.5" font-family="Helvetica,sans-Serif" font-size="10.00">FILE_OBJECTID_INFORMATION</text>
</a>
</g>
</g>
<!-- Node3&#45;&gt;Node1 -->
<g id="edge2" class="edge">
<title>Node3&#45;&gt;Node1</title>
<path fill="none" stroke="#9a32cd" stroke-dasharray="5,2" d="M191.33,-201.55C240.09,-197.42 300.67,-189.43 353,-174 379.35,-166.23 407.61,-151.33 424.68,-141.53"/>
<polygon fill="#9a32cd" stroke="#9a32cd" points="190.8,-198.09 181.12,-202.38 191.37,-205.06 190.8,-198.09"/>
<text text-anchor="middle" x="284.5" y="-202" font-family="Helvetica,sans-Serif" font-size="10.00"> ObjectIdInformation</text>
</g>
<!-- Node4 -->
<g id="node4" class="node">
<title>Node4</title>
<g id="a_node4"><a xlink:title=" ">
<polygon fill="none" stroke="#bfbfbf" points="18.5,-136.5 18.5,-177.5 179.5,-177.5 179.5,-136.5 18.5,-136.5"/>
<text text-anchor="start" x="26.5" y="-165.5" font-family="Helvetica,sans-Serif" font-size="10.00">PLDAP *typedef(__cdecl</text>
<text text-anchor="start" x="26.5" y="-154.5" font-family="Helvetica,sans-Serif" font-size="10.00"> NOTIFYOFNEWCONNECTION)</text>
<text text-anchor="middle" x="99" y="-143.5" font-family="Helvetica,sans-Serif" font-size="10.00">(PLDAP</text>
</a>
</g>
</g>
<!-- Node4&#45;&gt;Node1 -->
<g id="edge3" class="edge">
<title>Node4&#45;&gt;Node1</title>
<path fill="none" stroke="#9a32cd" stroke-dasharray="5,2" d="M189.87,-150.4C246.55,-146.24 318.66,-140.95 370.97,-137.11"/>
<polygon fill="#9a32cd" stroke="#9a32cd" points="189.55,-146.92 179.83,-151.14 190.06,-153.9 189.55,-146.92"/>
<text text-anchor="middle" x="284.5" y="-162" font-family="Helvetica,sans-Serif" font-size="10.00"> InheritContentIndexDisable</text>
<text text-anchor="middle" x="284.5" y="-151" font-family="Helvetica,sans-Serif" font-size="10.00">ContentIndexDisable</text>
</g>
<!-- Node5 -->
<g id="node5" class="node">
<title>Node5</title>
<g id="a_node5"><a xlink:title=" ">
<polygon fill="none" stroke="#bfbfbf" points="50,-98.5 50,-117.5 148,-117.5 148,-98.5 50,-98.5"/>
<text text-anchor="middle" x="99" y="-105.5" font-family="Helvetica,sans-Serif" font-size="10.00">LARGE_INTEGER</text>
</a>
</g>
</g>
<!-- Node5&#45;&gt;Node1 -->
<g id="edge4" class="edge">
<title>Node5&#45;&gt;Node1</title>
<path fill="none" stroke="#9a32cd" stroke-dasharray="5,2" d="M158.29,-111.22C209.59,-114.17 286.29,-118.84 353,-124 358.78,-124.45 364.77,-124.94 370.78,-125.45"/>
<polygon fill="#9a32cd" stroke="#9a32cd" points="158.24,-107.71 148.06,-110.64 157.84,-114.7 158.24,-107.71"/>
<text text-anchor="middle" x="284.5" y="-127" font-family="Helvetica,sans-Serif" font-size="10.00"> SecurityChangeTime</text>
</g>
<!-- Node6 -->
<g id="node6" class="node">
<title>Node6</title>
<g id="a_node6"><a xlink:title=" ">
<polygon fill="none" stroke="#bfbfbf" points="40,-60.5 40,-79.5 158,-79.5 158,-60.5 40,-60.5"/>
<text text-anchor="middle" x="99" y="-67.5" font-family="Helvetica,sans-Serif" font-size="10.00">FILE_STORAGE_TYPE</text>
</a>
</g>
</g>
<!-- Node6&#45;&gt;Node1 -->
<g id="edge5" class="edge">
<title>Node6&#45;&gt;Node1</title>
<path fill="none" stroke="#9a32cd" stroke-dasharray="5,2" d="M168.19,-73.77C219.54,-77.65 291.39,-85.29 353,-100 375.97,-105.48 401.2,-115.12 418.64,-122.39"/>
<polygon fill="#9a32cd" stroke="#9a32cd" points="168.42,-70.28 158.2,-73.05 167.92,-77.26 168.42,-70.28"/>
<text text-anchor="middle" x="284.5" y="-103" font-family="Helvetica,sans-Serif" font-size="10.00"> StorageType</text>
</g>
<!-- Node7 -->
<g id="node7" class="node">
<title>Node7</title>
<g id="a_node7"><a xlink:title=" ">
<polygon fill="none" stroke="#bfbfbf" points="0,-0.5 0,-41.5 198,-41.5 198,-0.5 0,-0.5"/>
<text text-anchor="start" x="8" y="-29.5" font-family="Helvetica,sans-Serif" font-size="10.00">PSecurityUserData *typedef</text>
<text text-anchor="start" x="8" y="-18.5" font-family="Helvetica,sans-Serif" font-size="10.00"> PSECPKG_EXTENDED_INFORMATION</text>
<text text-anchor="middle" x="99" y="-7.5" font-family="Helvetica,sans-Serif" font-size="10.00"> *typedef</text>
</a>
</g>
</g>
<!-- Node7&#45;&gt;Node1 -->
<g id="edge6" class="edge">
<title>Node7&#45;&gt;Node1</title>
<path fill="none" stroke="#9a32cd" stroke-dasharray="5,2" d="M208.21,-26.95C254.36,-32.5 307.85,-43.05 353,-63 385.56,-77.39 416.52,-106.74 431.36,-122.11"/>
<polygon fill="#9a32cd" stroke="#9a32cd" points="208.51,-23.46 198.18,-25.81 207.72,-30.42 208.51,-23.46"/>
<text text-anchor="middle" x="284.5" y="-66" font-family="Helvetica,sans-Serif" font-size="10.00"> OleStateBits</text>
</g>
</g>
</svg>
        <g id="navigator" transform="translate(0 0)" fill="#404254">
                <rect fill="#f2f5e9" fill-opacity="0.5" stroke="#606060" stroke-width=".5" x="0" y="0" width="60" height="60"/>
                <use id="zoomplus" xlink:href="#zoomPlus" x="17" y="9" onmousedown="handleZoom(evt,'in')"/>
                <use id="zoomminus" xlink:href="#zoomMin" x="42" y="9" onmousedown="handleZoom(evt,'out')"/>
                <use id="reset" xlink:href="#resetDef" x="30" y="36" onmousedown="handleReset()"/>
                <g id="arrowUp" xlink:href="#dirArrow" transform="translate(30 24)" onmousedown="handlePan(0,-1)">
                  <use xlink:href="#rim" fill="#404040">
                        <set attributeName="fill" to="#808080" begin="arrowUp.mouseover" end="arrowUp.mouseout"/>
                  </use>
                  <path fill="none" stroke="white" stroke-width="1.5" d="M0,-3.0v7 M-2.5,-0.5L0,-3.0L2.5,-0.5"/>
                </g>
                <g id="arrowRight" xlink:href="#dirArrow" transform="rotate(90) translate(36 -43)" onmousedown="handlePan(1,0)">
                  <use xlink:href="#rim" fill="#404040">
                        <set attributeName="fill" to="#808080" begin="arrowRight.mouseover" end="arrowRight.mouseout"/>
                  </use>
                  <path fill="none" stroke="white" stroke-width="1.5" d="M0,-3.0v7 M-2.5,-0.5L0,-3.0L2.5,-0.5"/>
                </g>
                <g id="arrowDown" xlink:href="#dirArrow" transform="rotate(180) translate(-30 -48)" onmousedown="handlePan(0,1)">
                  <use xlink:href="#rim" fill="#404040">
                        <set attributeName="fill" to="#808080" begin="arrowDown.mouseover" end="arrowDown.mouseout"/>
                  </use>
                  <path fill="none" stroke="white" stroke-width="1.5" d="M0,-3.0v7 M-2.5,-0.5L0,-3.0L2.5,-0.5"/>
                </g>
                <g id="arrowLeft" xlink:href="#dirArrow" transform="rotate(270) translate(-36 17)" onmousedown="handlePan(-1,0)">
                  <use xlink:href="#rim" fill="#404040">
                        <set attributeName="fill" to="#808080" begin="arrowLeft.mouseover" end="arrowLeft.mouseout"/>
                  </use>
                  <path fill="none" stroke="white" stroke-width="1.5" d="M0,-3.0v7 M-2.5,-0.5L0,-3.0L2.5,-0.5"/>
                </g>
        </g>
        <svg viewBox="0 0 15 15" width="100%" height="30px" preserveAspectRatio="xMaxYMin meet">
         <g id="arrow_out" transform="scale(0.3 0.3)">
          <a xlink:href="struct__FILE__OLE__INFORMATION__coll__graph_org.svg" target="_base">
           <rect id="button" ry="5" rx="5" y="6" x="6" height="38" width="38"
                fill="#f2f5e9" fill-opacity="0.5" stroke="#606060" stroke-width="1.0"/>
           <path id="arrow"
             d="M 11.500037,31.436501 C 11.940474,20.09759 22.043105,11.32322 32.158766,21.979434 L 37.068811,17.246167 C 37.068811,17.246167 37.088388,32 37.088388,32 L 22.160133,31.978069 C 22.160133,31.978069 26.997745,27.140456 26.997745,27.140456 C 18.528582,18.264221 13.291696,25.230495 11.500037,31.436501 z"
             style="fill:#404040;"/>
          </a>
         </g>
        </svg>
</svg>
