<?xml version="1.0" encoding="UTF-8" standalone="no"?>
<!DOCTYPE svg PUBLIC "-//W3C//DTD SVG 1.1//EN"
 "http://www.w3.org/Graphics/SVG/1.1/DTD/svg11.dtd">
<!-- Generated by graphviz version 2.43.0 (0)
 -->
<!-- Title: CodecAPIEventData Pages: 1 -->
<svg width="137pt" height="106pt"
 viewBox="0.00 0.00 136.50 106.00" xmlns="http://www.w3.org/2000/svg" xmlns:xlink="http://www.w3.org/1999/xlink">
<g id="graph0" class="graph" transform="scale(1 1) rotate(0) translate(4 102)">
<title>CodecAPIEventData</title>
<!-- Node1 -->
<g id="node1" class="node">
<title>Node1</title>
<g id="a_node1"><a xlink:title=" ">
<polygon fill="#bfbfbf" stroke="black" points="0,-0.5 0,-19.5 113,-19.5 113,-0.5 0,-0.5"/>
<text text-anchor="middle" x="56.5" y="-7.5" font-family="Helvetica,sans-Serif" font-size="10.00">CodecAPIEventData</text>
</a>
</g>
</g>
<!-- Node2 -->
<g id="node2" class="node">
<title>Node2</title>
<g id="a_node2"><a xlink:title=" ">
<polygon fill="none" stroke="#bfbfbf" points="6.5,-78.5 6.5,-97.5 48.5,-97.5 48.5,-78.5 6.5,-78.5"/>
<text text-anchor="middle" x="27.5" y="-85.5" font-family="Helvetica,sans-Serif" font-size="10.00">GUID</text>
</a>
</g>
</g>
<!-- Node2&#45;&gt;Node1 -->
<g id="edge1" class="edge">
<title>Node2&#45;&gt;Node1</title>
<path fill="none" stroke="#9a32cd" stroke-dasharray="5,2" d="M30.05,-68.22C31.73,-58.88 34.4,-47.57 38.5,-38 41.34,-31.37 45.84,-24.62 49.63,-19.53"/>
<polygon fill="#9a32cd" stroke="#9a32cd" points="26.55,-67.96 28.46,-78.38 33.47,-69.05 26.55,-67.96"/>
<text text-anchor="middle" x="51" y="-46.5" font-family="Helvetica,sans-Serif" font-size="10.00"> guid</text>
</g>
<!-- Node3 -->
<g id="node3" class="node">
<title>Node3</title>
<g id="a_node3"><a xlink:title=" ">
<polygon fill="none" stroke="#bfbfbf" points="66.5,-78.5 66.5,-97.5 104.5,-97.5 104.5,-78.5 66.5,-78.5"/>
<text text-anchor="middle" x="85.5" y="-85.5" font-family="Helvetica,sans-Serif" font-size="10.00">long</text>
</a>
</g>
</g>
<!-- Node3&#45;&gt;Node1 -->
<g id="edge2" class="edge">
<title>Node3&#45;&gt;Node1</title>
<path fill="none" stroke="#9a32cd" stroke-dasharray="5,2" d="M78.51,-68.67C72.57,-53.11 64.31,-31.47 59.79,-19.62"/>
<polygon fill="#9a32cd" stroke="#9a32cd" points="75.34,-70.19 82.17,-78.28 81.88,-67.69 75.34,-70.19"/>
<text text-anchor="middle" x="101" y="-52" font-family="Helvetica,sans-Serif" font-size="10.00"> reserved</text>
<text text-anchor="middle" x="101" y="-41" font-family="Helvetica,sans-Serif" font-size="10.00">dataLength</text>
</g>
</g>
</svg>
